solid 000. STL generated by ONSHAPE BY PTC INC, 1.216. Units = meters
   facet normal 0 -1 0
      outer loop
         vertex -0.0269 0.0001 -0.0275
         vertex -0.0267054 0.0001 -0.0292894
         vertex -0.0265131 0.0001 -0.0292579
      endloop
   endfacet
   facet normal 0 -1 0
      outer loop
         vertex -0.0265131 0.0001 -0.0292579
         vertex -0.0263253 0.0001 -0.0292058
         vertex -0.0269 0.0001 -0.0275
      endloop
   endfacet
   facet normal 0 -1 0
      outer loop
         vertex -0.0263253 0.0001 -0.0292058
         vertex -0.0261442 0.0001 -0.0291336
         vertex -0.0269 0.0001 -0.0275
      endloop
   endfacet
   facet normal 0 -1 0
      outer loop
         vertex -0.0261442 0.0001 -0.0291336
         vertex -0.025972 0.0001 -0.0290423
         vertex -0.0269 0.0001 -0.0275
      endloop
   endfacet
   facet normal 0 -1 0
      outer loop
         vertex -0.025972 0.0001 -0.0290423
         vertex -0.0258107 0.0001 -0.028933
         vertex -0.0269 0.0001 -0.0275
      endloop
   endfacet
   facet normal 0 -1 0
      outer loop
         vertex -0.0258107 0.0001 -0.028933
         vertex -0.0256621 0.0001 -0.0288068
         vertex -0.0269 0.0001 -0.0275
      endloop
   endfacet
   facet normal 0 -1 0
      outer loop
         vertex -0.0256621 0.0001 -0.0288068
         vertex -0.0255281 0.0001 -0.0286653
         vertex -0.0269 0.0001 -0.0275
      endloop
   endfacet
   facet normal 0 -1 0
      outer loop
         vertex -0.0255281 0.0001 -0.0286653
         vertex -0.0254102 0.0001 -0.0285101
         vertex -0.0269 0.0001 -0.0275
      endloop
   endfacet
   facet normal 0 -1 0
      outer loop
         vertex -0.0254102 0.0001 -0.0285101
         vertex -0.0253097 0.0001 -0.0283431
         vertex -0.0269 0.0001 -0.0275
      endloop
   endfacet
   facet normal 0 -1 0
      outer loop
         vertex -0.0253097 0.0001 -0.0283431
         vertex -0.0252278 0.0001 -0.0281662
         vertex -0.0269 0.0001 -0.0275
      endloop
   endfacet
   facet normal 0 -1 0
      outer loop
         vertex -0.0252278 0.0001 -0.0281662
         vertex -0.0251656 0.0001 -0.0279816
         vertex -0.0269 0.0001 -0.0275
      endloop
   endfacet
   facet normal 0 -1 0
      outer loop
         vertex -0.0251656 0.0001 -0.0279816
         vertex -0.0251237 0.0001 -0.0277912
         vertex -0.0269 0.0001 -0.0275
      endloop
   endfacet
   facet normal 0 -1 0
      outer loop
         vertex -0.0251237 0.0001 -0.0277912
         vertex -0.0251026 0.0001 -0.0275975
         vertex -0.0269 0.0001 -0.0275
      endloop
   endfacet
   facet normal 0 -1 0
      outer loop
         vertex -0.0251026 0.0001 -0.0275975
         vertex -0.0251026 0.0001 -0.0274025
         vertex -0.0269 0.0001 -0.0275
      endloop
   endfacet
   facet normal 0 -1 0
      outer loop
         vertex -0.0251026 0.0001 -0.0274025
         vertex -0.0251237 0.0001 -0.0272088
         vertex -0.0269 0.0001 -0.0275
      endloop
   endfacet
   facet normal 0 -1 0
      outer loop
         vertex -0.0251237 0.0001 -0.0272088
         vertex -0.0251656 0.0001 -0.0270184
         vertex -0.0269 0.0001 -0.0275
      endloop
   endfacet
   facet normal 0 -1 0
      outer loop
         vertex -0.0251656 0.0001 -0.0270184
         vertex -0.0252278 0.0001 -0.0268338
         vertex -0.0269 0.0001 -0.0275
      endloop
   endfacet
   facet normal 0 -1 0
      outer loop
         vertex -0.0252278 0.0001 -0.0268338
         vertex -0.0253097 0.0001 -0.0266569
         vertex -0.0269 0.0001 -0.0275
      endloop
   endfacet
   facet normal 0 -1 0
      outer loop
         vertex -0.0253097 0.0001 -0.0266569
         vertex -0.0254102 0.0001 -0.0264899
         vertex -0.0269 0.0001 -0.0275
      endloop
   endfacet
   facet normal 0 -1 0
      outer loop
         vertex -0.0254102 0.0001 -0.0264899
         vertex -0.0255281 0.0001 -0.0263347
         vertex -0.0269 0.0001 -0.0275
      endloop
   endfacet
   facet normal 0 -1 0
      outer loop
         vertex -0.0255281 0.0001 -0.0263347
         vertex -0.0256621 0.0001 -0.0261932
         vertex -0.0269 0.0001 -0.0275
      endloop
   endfacet
   facet normal 0 -1 0
      outer loop
         vertex -0.0256621 0.0001 -0.0261932
         vertex -0.0258107 0.0001 -0.026067
         vertex -0.0269 0.0001 -0.0275
      endloop
   endfacet
   facet normal 0 -1 0
      outer loop
         vertex -0.0258107 0.0001 -0.026067
         vertex -0.025972 0.0001 -0.0259577
         vertex -0.0269 0.0001 -0.0275
      endloop
   endfacet
   facet normal 0 -1 0
      outer loop
         vertex -0.025972 0.0001 -0.0259577
         vertex -0.0261442 0.0001 -0.0258664
         vertex -0.0269 0.0001 -0.0275
      endloop
   endfacet
   facet normal 0 -1 0
      outer loop
         vertex -0.0261442 0.0001 -0.0258664
         vertex -0.0263253 0.0001 -0.0257942
         vertex -0.0269 0.0001 -0.0275
      endloop
   endfacet
   facet normal 0 -1 0
      outer loop
         vertex -0.0263253 0.0001 -0.0257942
         vertex -0.0265131 0.0001 -0.0257421
         vertex -0.0269 0.0001 -0.0275
      endloop
   endfacet
   facet normal 0 -1 0
      outer loop
         vertex -0.0265131 0.0001 -0.0257421
         vertex -0.0267054 0.0001 -0.0257106
         vertex -0.0269 0.0001 -0.0275
      endloop
   endfacet
   facet normal 0 -1 0
      outer loop
         vertex -0.0267054 0.0001 -0.0257106
         vertex -0.0269 0.0001 -0.0257
         vertex -0.0269 0.0001 -0.0275
      endloop
   endfacet
   facet normal 0 -1 0
      outer loop
         vertex -0.0269 0.0001 -0.0257
         vertex -0.0270946 0.0001 -0.0257106
         vertex -0.0269 0.0001 -0.0275
      endloop
   endfacet
   facet normal 0 -1 0
      outer loop
         vertex -0.0270946 0.0001 -0.0257106
         vertex -0.0272869 0.0001 -0.0257421
         vertex -0.0269 0.0001 -0.0275
      endloop
   endfacet
   facet normal 0 -1 0
      outer loop
         vertex -0.0272869 0.0001 -0.0257421
         vertex -0.0274747 0.0001 -0.0257942
         vertex -0.0269 0.0001 -0.0275
      endloop
   endfacet
   facet normal 0 -1 0
      outer loop
         vertex -0.0274747 0.0001 -0.0257942
         vertex -0.0276558 0.0001 -0.0258664
         vertex -0.0269 0.0001 -0.0275
      endloop
   endfacet
   facet normal 0 -1 0
      outer loop
         vertex -0.0276558 0.0001 -0.0258664
         vertex -0.027828 0.0001 -0.0259577
         vertex -0.0269 0.0001 -0.0275
      endloop
   endfacet
   facet normal 0 -1 0
      outer loop
         vertex -0.027828 0.0001 -0.0259577
         vertex -0.0279893 0.0001 -0.026067
         vertex -0.0269 0.0001 -0.0275
      endloop
   endfacet
   facet normal 0 -1 0
      outer loop
         vertex -0.0279893 0.0001 -0.026067
         vertex -0.0281379 0.0001 -0.0261932
         vertex -0.0269 0.0001 -0.0275
      endloop
   endfacet
   facet normal 0 -1 0
      outer loop
         vertex -0.0281379 0.0001 -0.0261932
         vertex -0.0282719 0.0001 -0.0263347
         vertex -0.0269 0.0001 -0.0275
      endloop
   endfacet
   facet normal 0 -1 0
      outer loop
         vertex -0.0282719 0.0001 -0.0263347
         vertex -0.0283898 0.0001 -0.0264899
         vertex -0.0269 0.0001 -0.0275
      endloop
   endfacet
   facet normal 0 -1 0
      outer loop
         vertex -0.0283898 0.0001 -0.0264899
         vertex -0.0284903 0.0001 -0.0266569
         vertex -0.0269 0.0001 -0.0275
      endloop
   endfacet
   facet normal 0 -1 0
      outer loop
         vertex -0.0284903 0.0001 -0.0266569
         vertex -0.0285722 0.0001 -0.0268338
         vertex -0.0269 0.0001 -0.0275
      endloop
   endfacet
   facet normal 0 -1 0
      outer loop
         vertex -0.0285722 0.0001 -0.0268338
         vertex -0.0286344 0.0001 -0.0270184
         vertex -0.0269 0.0001 -0.0275
      endloop
   endfacet
   facet normal 0 -1 0
      outer loop
         vertex -0.0286344 0.0001 -0.0270184
         vertex -0.0286763 0.0001 -0.0272088
         vertex -0.0269 0.0001 -0.0275
      endloop
   endfacet
   facet normal 0 -1 0
      outer loop
         vertex -0.0286763 0.0001 -0.0272088
         vertex -0.0286974 0.0001 -0.0274025
         vertex -0.0269 0.0001 -0.0275
      endloop
   endfacet
   facet normal 0 -1 0
      outer loop
         vertex -0.0286974 0.0001 -0.0274025
         vertex -0.0286974 0.0001 -0.0275975
         vertex -0.0269 0.0001 -0.0275
      endloop
   endfacet
   facet normal 0 -1 0
      outer loop
         vertex -0.0286974 0.0001 -0.0275975
         vertex -0.0286763 0.0001 -0.0277912
         vertex -0.0269 0.0001 -0.0275
      endloop
   endfacet
   facet normal 0 -1 0
      outer loop
         vertex -0.0286763 0.0001 -0.0277912
         vertex -0.0286344 0.0001 -0.0279816
         vertex -0.0269 0.0001 -0.0275
      endloop
   endfacet
   facet normal 0 -1 0
      outer loop
         vertex -0.0286344 0.0001 -0.0279816
         vertex -0.0285722 0.0001 -0.0281662
         vertex -0.0269 0.0001 -0.0275
      endloop
   endfacet
   facet normal 0 -1 0
      outer loop
         vertex -0.0285722 0.0001 -0.0281662
         vertex -0.0284903 0.0001 -0.0283431
         vertex -0.0269 0.0001 -0.0275
      endloop
   endfacet
   facet normal 0 -1 0
      outer loop
         vertex -0.0284903 0.0001 -0.0283431
         vertex -0.0283898 0.0001 -0.0285101
         vertex -0.0269 0.0001 -0.0275
      endloop
   endfacet
   facet normal 0 -1 0
      outer loop
         vertex -0.0283898 0.0001 -0.0285101
         vertex -0.0282719 0.0001 -0.0286653
         vertex -0.0269 0.0001 -0.0275
      endloop
   endfacet
   facet normal 0 -1 0
      outer loop
         vertex -0.0282719 0.0001 -0.0286653
         vertex -0.0281379 0.0001 -0.0288068
         vertex -0.0269 0.0001 -0.0275
      endloop
   endfacet
   facet normal 0 -1 0
      outer loop
         vertex -0.0281379 0.0001 -0.0288068
         vertex -0.0279893 0.0001 -0.028933
         vertex -0.0269 0.0001 -0.0275
      endloop
   endfacet
   facet normal 0 -1 0
      outer loop
         vertex -0.0279893 0.0001 -0.028933
         vertex -0.027828 0.0001 -0.0290423
         vertex -0.0269 0.0001 -0.0275
      endloop
   endfacet
   facet normal 0 -1 0
      outer loop
         vertex -0.027828 0.0001 -0.0290423
         vertex -0.0276558 0.0001 -0.0291336
         vertex -0.0269 0.0001 -0.0275
      endloop
   endfacet
   facet normal 0 -1 0
      outer loop
         vertex -0.0276558 0.0001 -0.0291336
         vertex -0.0274747 0.0001 -0.0292058
         vertex -0.0269 0.0001 -0.0275
      endloop
   endfacet
   facet normal 0 -1 0
      outer loop
         vertex -0.0274747 0.0001 -0.0292058
         vertex -0.0272869 0.0001 -0.0292579
         vertex -0.0269 0.0001 -0.0275
      endloop
   endfacet
   facet normal 0 -1 0
      outer loop
         vertex -0.0272869 0.0001 -0.0292579
         vertex -0.0270946 0.0001 -0.0292894
         vertex -0.0269 0.0001 -0.0275
      endloop
   endfacet
   facet normal 0 -1 0
      outer loop
         vertex -0.0270946 0.0001 -0.0292894
         vertex -0.0269 0.0001 -0.0293
         vertex -0.0269 0.0001 -0.0275
      endloop
   endfacet
   facet normal 0 -1 0
      outer loop
         vertex -0.0269 0.0001 -0.0293
         vertex -0.0267054 0.0001 -0.0292894
         vertex -0.0269 0.0001 -0.0275
      endloop
   endfacet
   facet normal 0 0 -1
      outer loop
         vertex -0.0269 0.0001 -0.0293
         vertex -0.0269 0.00135 -0.0293
         vertex -0.0267054 0.00135 -0.0292894
      endloop
   endfacet
   facet normal 0.108119 0 -0.994138
      outer loop
         vertex -0.0267054 0.0001 -0.0292894
         vertex -0.0267054 0.00135 -0.0292894
         vertex -0.0265131 0.00135 -0.0292579
      endloop
   endfacet
   facet normal 0.21497 0 -0.976621
      outer loop
         vertex -0.0265131 0.0001 -0.0292579
         vertex -0.0265131 0.00135 -0.0292579
         vertex -0.0263253 0.00135 -0.0292058
      endloop
   endfacet
   facet normal 0.319302 0 -0.947653
      outer loop
         vertex -0.0263253 0.0001 -0.0292058
         vertex -0.0263253 0.00135 -0.0292058
         vertex -0.0261442 0.00135 -0.0291336
      endloop
   endfacet
   facet normal 0.419889 0 -0.907575
      outer loop
         vertex -0.0261442 0.0001 -0.0291336
         vertex -0.0261442 0.00135 -0.0291336
         vertex -0.025972 0.00135 -0.0290423
      endloop
   endfacet
   facet normal 0.515554 0 -0.856857
      outer loop
         vertex -0.025972 0.0001 -0.0290423
         vertex -0.025972 0.00135 -0.0290423
         vertex -0.0258107 0.00135 -0.028933
      endloop
   endfacet
   facet normal 0.605174 0 -0.796093
      outer loop
         vertex -0.0258107 0.0001 -0.028933
         vertex -0.0258107 0.00135 -0.028933
         vertex -0.0256621 0.00135 -0.0288068
      endloop
   endfacet
   facet normal 0.687699 0 -0.725995
      outer loop
         vertex -0.0256621 0.0001 -0.0288068
         vertex -0.0256621 0.00135 -0.0288068
         vertex -0.0255281 0.00135 -0.0286653
      endloop
   endfacet
   facet normal 0.762162 0 -0.647386
      outer loop
         vertex -0.0255281 0.0001 -0.0286653
         vertex -0.0255281 0.00135 -0.0286653
         vertex -0.0254102 0.00135 -0.0285101
      endloop
   endfacet
   facet normal 0.827689 0 -0.561187
      outer loop
         vertex -0.0254102 0.0001 -0.0285101
         vertex -0.0254102 0.00135 -0.0285101
         vertex -0.0253097 0.00135 -0.0283431
      endloop
   endfacet
   facet normal 0.883512 0 -0.468408
      outer loop
         vertex -0.0253097 0.0001 -0.0283431
         vertex -0.0253097 0.00135 -0.0283431
         vertex -0.0252278 0.00135 -0.0281662
      endloop
   endfacet
   facet normal 0.928977 0 -0.370138
      outer loop
         vertex -0.0252278 0.0001 -0.0281662
         vertex -0.0252278 0.00135 -0.0281662
         vertex -0.0251656 0.00135 -0.0279816
      endloop
   endfacet
   facet normal 0.96355 0 -0.267528
      outer loop
         vertex -0.0251656 0.0001 -0.0279816
         vertex -0.0251656 0.00135 -0.0279816
         vertex -0.0251237 0.00135 -0.0277912
      endloop
   endfacet
   facet normal 0.986827 0 -0.161782
      outer loop
         vertex -0.0251237 0.0001 -0.0277912
         vertex -0.0251237 0.00135 -0.0277912
         vertex -0.0251026 0.00135 -0.0275975
      endloop
   endfacet
   facet normal 0.998533 0 -0.0541389
      outer loop
         vertex -0.0251026 0.0001 -0.0275975
         vertex -0.0251026 0.00135 -0.0275975
         vertex -0.0251026 0.00135 -0.0274025
      endloop
   endfacet
   facet normal 0.998533 0 0.0541389
      outer loop
         vertex -0.0251026 0.0001 -0.0274025
         vertex -0.0251026 0.00135 -0.0274025
         vertex -0.0251237 0.00135 -0.0272088
      endloop
   endfacet
   facet normal 0.986827 0 0.161782
      outer loop
         vertex -0.0251237 0.0001 -0.0272088
         vertex -0.0251237 0.00135 -0.0272088
         vertex -0.0251656 0.00135 -0.0270184
      endloop
   endfacet
   facet normal 0.96355 0 0.267528
      outer loop
         vertex -0.0251656 0.0001 -0.0270184
         vertex -0.0251656 0.00135 -0.0270184
         vertex -0.0252278 0.00135 -0.0268338
      endloop
   endfacet
   facet normal 0.928977 0 0.370138
      outer loop
         vertex -0.0252278 0.0001 -0.0268338
         vertex -0.0252278 0.00135 -0.0268338
         vertex -0.0253097 0.00135 -0.0266569
      endloop
   endfacet
   facet normal 0.883512 0 0.468408
      outer loop
         vertex -0.0253097 0.0001 -0.0266569
         vertex -0.0253097 0.00135 -0.0266569
         vertex -0.0254102 0.00135 -0.0264899
      endloop
   endfacet
   facet normal 0.827689 0 0.561187
      outer loop
         vertex -0.0254102 0.0001 -0.0264899
         vertex -0.0254102 0.00135 -0.0264899
         vertex -0.0255281 0.00135 -0.0263347
      endloop
   endfacet
   facet normal 0.762162 0 0.647386
      outer loop
         vertex -0.0255281 0.0001 -0.0263347
         vertex -0.0255281 0.00135 -0.0263347
         vertex -0.0256621 0.00135 -0.0261932
      endloop
   endfacet
   facet normal 0.687699 0 0.725995
      outer loop
         vertex -0.0256621 0.0001 -0.0261932
         vertex -0.0256621 0.00135 -0.0261932
         vertex -0.0258107 0.00135 -0.026067
      endloop
   endfacet
   facet normal 0.605174 0 0.796093
      outer loop
         vertex -0.0258107 0.0001 -0.026067
         vertex -0.0258107 0.00135 -0.026067
         vertex -0.025972 0.00135 -0.0259577
      endloop
   endfacet
   facet normal 0.515554 0 0.856857
      outer loop
         vertex -0.025972 0.0001 -0.0259577
         vertex -0.025972 0.00135 -0.0259577
         vertex -0.0261442 0.00135 -0.0258664
      endloop
   endfacet
   facet normal 0.419889 0 0.907575
      outer loop
         vertex -0.0261442 0.0001 -0.0258664
         vertex -0.0261442 0.00135 -0.0258664
         vertex -0.0263253 0.00135 -0.0257942
      endloop
   endfacet
   facet normal 0.319302 0 0.947653
      outer loop
         vertex -0.0263253 0.0001 -0.0257942
         vertex -0.0263253 0.00135 -0.0257942
         vertex -0.0265131 0.00135 -0.0257421
      endloop
   endfacet
   facet normal 0.21497 0 0.976621
      outer loop
         vertex -0.0265131 0.0001 -0.0257421
         vertex -0.0265131 0.00135 -0.0257421
         vertex -0.0267054 0.00135 -0.0257106
      endloop
   endfacet
   facet normal 0.108119 0 0.994138
      outer loop
         vertex -0.0267054 0.0001 -0.0257106
         vertex -0.0267054 0.00135 -0.0257106
         vertex -0.0269 0.00135 -0.0257
      endloop
   endfacet
   facet normal 1.22465e-16 0 1
      outer loop
         vertex -0.0269 0.0001 -0.0257
         vertex -0.0269 0.00135 -0.0257
         vertex -0.0270946 0.00135 -0.0257106
      endloop
   endfacet
   facet normal -0.108119 0 0.994138
      outer loop
         vertex -0.0270946 0.0001 -0.0257106
         vertex -0.0270946 0.00135 -0.0257106
         vertex -0.0272869 0.00135 -0.0257421
      endloop
   endfacet
   facet normal -0.21497 0 0.976621
      outer loop
         vertex -0.0272869 0.0001 -0.0257421
         vertex -0.0272869 0.00135 -0.0257421
         vertex -0.0274747 0.00135 -0.0257942
      endloop
   endfacet
   facet normal -0.319302 0 0.947653
      outer loop
         vertex -0.0274747 0.0001 -0.0257942
         vertex -0.0274747 0.00135 -0.0257942
         vertex -0.0276558 0.00135 -0.0258664
      endloop
   endfacet
   facet normal -0.419889 0 0.907575
      outer loop
         vertex -0.0276558 0.0001 -0.0258664
         vertex -0.0276558 0.00135 -0.0258664
         vertex -0.027828 0.00135 -0.0259577
      endloop
   endfacet
   facet normal -0.515554 0 0.856857
      outer loop
         vertex -0.027828 0.0001 -0.0259577
         vertex -0.027828 0.00135 -0.0259577
         vertex -0.0279893 0.00135 -0.026067
      endloop
   endfacet
   facet normal -0.605174 0 0.796093
      outer loop
         vertex -0.0279893 0.0001 -0.026067
         vertex -0.0279893 0.00135 -0.026067
         vertex -0.0281379 0.00135 -0.0261932
      endloop
   endfacet
   facet normal -0.687699 0 0.725995
      outer loop
         vertex -0.0281379 0.0001 -0.0261932
         vertex -0.0281379 0.00135 -0.0261932
         vertex -0.0282719 0.00135 -0.0263347
      endloop
   endfacet
   facet normal -0.762162 0 0.647386
      outer loop
         vertex -0.0282719 0.0001 -0.0263347
         vertex -0.0282719 0.00135 -0.0263347
         vertex -0.0283898 0.00135 -0.0264899
      endloop
   endfacet
   facet normal -0.827689 0 0.561187
      outer loop
         vertex -0.0283898 0.0001 -0.0264899
         vertex -0.0283898 0.00135 -0.0264899
         vertex -0.0284903 0.00135 -0.0266569
      endloop
   endfacet
   facet normal -0.883512 0 0.468408
      outer loop
         vertex -0.0284903 0.0001 -0.0266569
         vertex -0.0284903 0.00135 -0.0266569
         vertex -0.0285722 0.00135 -0.0268338
      endloop
   endfacet
   facet normal -0.928977 0 0.370138
      outer loop
         vertex -0.0285722 0.0001 -0.0268338
         vertex -0.0285722 0.00135 -0.0268338
         vertex -0.0286344 0.00135 -0.0270184
      endloop
   endfacet
   facet normal -0.96355 0 0.267528
      outer loop
         vertex -0.0286344 0.0001 -0.0270184
         vertex -0.0286344 0.00135 -0.0270184
         vertex -0.0286763 0.00135 -0.0272088
      endloop
   endfacet
   facet normal -0.986827 0 0.161782
      outer loop
         vertex -0.0286763 0.0001 -0.0272088
         vertex -0.0286763 0.00135 -0.0272088
         vertex -0.0286974 0.00135 -0.0274025
      endloop
   endfacet
   facet normal -0.998533 0 0.0541389
      outer loop
         vertex -0.0286974 0.0001 -0.0274025
         vertex -0.0286974 0.00135 -0.0274025
         vertex -0.0286974 0.00135 -0.0275975
      endloop
   endfacet
   facet normal -0.998533 0 -0.0541389
      outer loop
         vertex -0.0286974 0.0001 -0.0275975
         vertex -0.0286974 0.00135 -0.0275975
         vertex -0.0286763 0.00135 -0.0277912
      endloop
   endfacet
   facet normal -0.986827 0 -0.161782
      outer loop
         vertex -0.0286763 0.0001 -0.0277912
         vertex -0.0286763 0.00135 -0.0277912
         vertex -0.0286344 0.00135 -0.0279816
      endloop
   endfacet
   facet normal -0.96355 0 -0.267528
      outer loop
         vertex -0.0286344 0.0001 -0.0279816
         vertex -0.0286344 0.00135 -0.0279816
         vertex -0.0285722 0.00135 -0.0281662
      endloop
   endfacet
   facet normal -0.928977 0 -0.370138
      outer loop
         vertex -0.0285722 0.0001 -0.0281662
         vertex -0.0285722 0.00135 -0.0281662
         vertex -0.0284903 0.00135 -0.0283431
      endloop
   endfacet
   facet normal -0.883512 0 -0.468408
      outer loop
         vertex -0.0284903 0.0001 -0.0283431
         vertex -0.0284903 0.00135 -0.0283431
         vertex -0.0283898 0.00135 -0.0285101
      endloop
   endfacet
   facet normal -0.827689 0 -0.561187
      outer loop
         vertex -0.0283898 0.0001 -0.0285101
         vertex -0.0283898 0.00135 -0.0285101
         vertex -0.0282719 0.00135 -0.0286653
      endloop
   endfacet
   facet normal -0.762162 0 -0.647386
      outer loop
         vertex -0.0282719 0.0001 -0.0286653
         vertex -0.0282719 0.00135 -0.0286653
         vertex -0.0281379 0.00135 -0.0288068
      endloop
   endfacet
   facet normal -0.687699 0 -0.725995
      outer loop
         vertex -0.0281379 0.0001 -0.0288068
         vertex -0.0281379 0.00135 -0.0288068
         vertex -0.0279893 0.00135 -0.028933
      endloop
   endfacet
   facet normal -0.605174 0 -0.796093
      outer loop
         vertex -0.0279893 0.0001 -0.028933
         vertex -0.0279893 0.00135 -0.028933
         vertex -0.027828 0.00135 -0.0290423
      endloop
   endfacet
   facet normal -0.515554 0 -0.856857
      outer loop
         vertex -0.027828 0.0001 -0.0290423
         vertex -0.027828 0.00135 -0.0290423
         vertex -0.0276558 0.00135 -0.0291336
      endloop
   endfacet
   facet normal -0.419889 0 -0.907575
      outer loop
         vertex -0.0276558 0.0001 -0.0291336
         vertex -0.0276558 0.00135 -0.0291336
         vertex -0.0274747 0.00135 -0.0292058
      endloop
   endfacet
   facet normal -0.319302 0 -0.947653
      outer loop
         vertex -0.0274747 0.0001 -0.0292058
         vertex -0.0274747 0.00135 -0.0292058
         vertex -0.0272869 0.00135 -0.0292579
      endloop
   endfacet
   facet normal -0.21497 0 -0.976621
      outer loop
         vertex -0.0272869 0.0001 -0.0292579
         vertex -0.0272869 0.00135 -0.0292579
         vertex -0.0270946 0.00135 -0.0292894
      endloop
   endfacet
   facet normal -0.108119 0 -0.994138
      outer loop
         vertex -0.0270946 0.0001 -0.0292894
         vertex -0.0270946 0.00135 -0.0292894
         vertex -0.0269 0.00135 -0.0293
      endloop
   endfacet
   facet normal 0 0 -1
      outer loop
         vertex -0.0269 0.00135 -0.0293
         vertex -0.0269 0.0001 -0.0293
         vertex -0.0270946 0.0001 -0.0292894
      endloop
   endfacet
   facet normal -0.108119 0 -0.994138
      outer loop
         vertex -0.0270946 0.00135 -0.0292894
         vertex -0.0270946 0.0001 -0.0292894
         vertex -0.0272869 0.0001 -0.0292579
      endloop
   endfacet
   facet normal -0.21497 0 -0.976621
      outer loop
         vertex -0.0272869 0.00135 -0.0292579
         vertex -0.0272869 0.0001 -0.0292579
         vertex -0.0274747 0.0001 -0.0292058
      endloop
   endfacet
   facet normal -0.319302 0 -0.947653
      outer loop
         vertex -0.0274747 0.00135 -0.0292058
         vertex -0.0274747 0.0001 -0.0292058
         vertex -0.0276558 0.0001 -0.0291336
      endloop
   endfacet
   facet normal -0.419889 0 -0.907575
      outer loop
         vertex -0.0276558 0.00135 -0.0291336
         vertex -0.0276558 0.0001 -0.0291336
         vertex -0.027828 0.0001 -0.0290423
      endloop
   endfacet
   facet normal -0.515554 0 -0.856857
      outer loop
         vertex -0.027828 0.00135 -0.0290423
         vertex -0.027828 0.0001 -0.0290423
         vertex -0.0279893 0.0001 -0.028933
      endloop
   endfacet
   facet normal -0.605174 0 -0.796093
      outer loop
         vertex -0.0279893 0.00135 -0.028933
         vertex -0.0279893 0.0001 -0.028933
         vertex -0.0281379 0.0001 -0.0288068
      endloop
   endfacet
   facet normal -0.687699 0 -0.725995
      outer loop
         vertex -0.0281379 0.00135 -0.0288068
         vertex -0.0281379 0.0001 -0.0288068
         vertex -0.0282719 0.0001 -0.0286653
      endloop
   endfacet
   facet normal -0.762162 0 -0.647386
      outer loop
         vertex -0.0282719 0.00135 -0.0286653
         vertex -0.0282719 0.0001 -0.0286653
         vertex -0.0283898 0.0001 -0.0285101
      endloop
   endfacet
   facet normal -0.827689 0 -0.561187
      outer loop
         vertex -0.0283898 0.00135 -0.0285101
         vertex -0.0283898 0.0001 -0.0285101
         vertex -0.0284903 0.0001 -0.0283431
      endloop
   endfacet
   facet normal -0.883512 0 -0.468408
      outer loop
         vertex -0.0284903 0.00135 -0.0283431
         vertex -0.0284903 0.0001 -0.0283431
         vertex -0.0285722 0.0001 -0.0281662
      endloop
   endfacet
   facet normal -0.928977 0 -0.370138
      outer loop
         vertex -0.0285722 0.00135 -0.0281662
         vertex -0.0285722 0.0001 -0.0281662
         vertex -0.0286344 0.0001 -0.0279816
      endloop
   endfacet
   facet normal -0.96355 0 -0.267528
      outer loop
         vertex -0.0286344 0.00135 -0.0279816
         vertex -0.0286344 0.0001 -0.0279816
         vertex -0.0286763 0.0001 -0.0277912
      endloop
   endfacet
   facet normal -0.986827 0 -0.161782
      outer loop
         vertex -0.0286763 0.00135 -0.0277912
         vertex -0.0286763 0.0001 -0.0277912
         vertex -0.0286974 0.0001 -0.0275975
      endloop
   endfacet
   facet normal -0.998533 0 -0.0541389
      outer loop
         vertex -0.0286974 0.00135 -0.0275975
         vertex -0.0286974 0.0001 -0.0275975
         vertex -0.0286974 0.0001 -0.0274025
      endloop
   endfacet
   facet normal -0.998533 0 0.0541389
      outer loop
         vertex -0.0286974 0.00135 -0.0274025
         vertex -0.0286974 0.0001 -0.0274025
         vertex -0.0286763 0.0001 -0.0272088
      endloop
   endfacet
   facet normal -0.986827 0 0.161782
      outer loop
         vertex -0.0286763 0.00135 -0.0272088
         vertex -0.0286763 0.0001 -0.0272088
         vertex -0.0286344 0.0001 -0.0270184
      endloop
   endfacet
   facet normal -0.96355 0 0.267528
      outer loop
         vertex -0.0286344 0.00135 -0.0270184
         vertex -0.0286344 0.0001 -0.0270184
         vertex -0.0285722 0.0001 -0.0268338
      endloop
   endfacet
   facet normal -0.928977 0 0.370138
      outer loop
         vertex -0.0285722 0.00135 -0.0268338
         vertex -0.0285722 0.0001 -0.0268338
         vertex -0.0284903 0.0001 -0.0266569
      endloop
   endfacet
   facet normal -0.883512 0 0.468408
      outer loop
         vertex -0.0284903 0.00135 -0.0266569
         vertex -0.0284903 0.0001 -0.0266569
         vertex -0.0283898 0.0001 -0.0264899
      endloop
   endfacet
   facet normal -0.827689 0 0.561187
      outer loop
         vertex -0.0283898 0.00135 -0.0264899
         vertex -0.0283898 0.0001 -0.0264899
         vertex -0.0282719 0.0001 -0.0263347
      endloop
   endfacet
   facet normal -0.762162 0 0.647386
      outer loop
         vertex -0.0282719 0.00135 -0.0263347
         vertex -0.0282719 0.0001 -0.0263347
         vertex -0.0281379 0.0001 -0.0261932
      endloop
   endfacet
   facet normal -0.687699 0 0.725995
      outer loop
         vertex -0.0281379 0.00135 -0.0261932
         vertex -0.0281379 0.0001 -0.0261932
         vertex -0.0279893 0.0001 -0.026067
      endloop
   endfacet
   facet normal -0.605174 0 0.796093
      outer loop
         vertex -0.0279893 0.00135 -0.026067
         vertex -0.0279893 0.0001 -0.026067
         vertex -0.027828 0.0001 -0.0259577
      endloop
   endfacet
   facet normal -0.515554 0 0.856857
      outer loop
         vertex -0.027828 0.00135 -0.0259577
         vertex -0.027828 0.0001 -0.0259577
         vertex -0.0276558 0.0001 -0.0258664
      endloop
   endfacet
   facet normal -0.419889 0 0.907575
      outer loop
         vertex -0.0276558 0.00135 -0.0258664
         vertex -0.0276558 0.0001 -0.0258664
         vertex -0.0274747 0.0001 -0.0257942
      endloop
   endfacet
   facet normal -0.319302 0 0.947653
      outer loop
         vertex -0.0274747 0.00135 -0.0257942
         vertex -0.0274747 0.0001 -0.0257942
         vertex -0.0272869 0.0001 -0.0257421
      endloop
   endfacet
   facet normal -0.21497 0 0.976621
      outer loop
         vertex -0.0272869 0.00135 -0.0257421
         vertex -0.0272869 0.0001 -0.0257421
         vertex -0.0270946 0.0001 -0.0257106
      endloop
   endfacet
   facet normal -0.108119 0 0.994138
      outer loop
         vertex -0.0270946 0.00135 -0.0257106
         vertex -0.0270946 0.0001 -0.0257106
         vertex -0.0269 0.0001 -0.0257
      endloop
   endfacet
   facet normal 1.22465e-16 0 1
      outer loop
         vertex -0.0269 0.00135 -0.0257
         vertex -0.0269 0.0001 -0.0257
         vertex -0.0267054 0.0001 -0.0257106
      endloop
   endfacet
   facet normal 0.108119 0 0.994138
      outer loop
         vertex -0.0267054 0.00135 -0.0257106
         vertex -0.0267054 0.0001 -0.0257106
         vertex -0.0265131 0.0001 -0.0257421
      endloop
   endfacet
   facet normal 0.21497 0 0.976621
      outer loop
         vertex -0.0265131 0.00135 -0.0257421
         vertex -0.0265131 0.0001 -0.0257421
         vertex -0.0263253 0.0001 -0.0257942
      endloop
   endfacet
   facet normal 0.319302 0 0.947653
      outer loop
         vertex -0.0263253 0.00135 -0.0257942
         vertex -0.0263253 0.0001 -0.0257942
         vertex -0.0261442 0.0001 -0.0258664
      endloop
   endfacet
   facet normal 0.419889 0 0.907575
      outer loop
         vertex -0.0261442 0.00135 -0.0258664
         vertex -0.0261442 0.0001 -0.0258664
         vertex -0.025972 0.0001 -0.0259577
      endloop
   endfacet
   facet normal 0.515554 0 0.856857
      outer loop
         vertex -0.025972 0.00135 -0.0259577
         vertex -0.025972 0.0001 -0.0259577
         vertex -0.0258107 0.0001 -0.026067
      endloop
   endfacet
   facet normal 0.605174 0 0.796093
      outer loop
         vertex -0.0258107 0.00135 -0.026067
         vertex -0.0258107 0.0001 -0.026067
         vertex -0.0256621 0.0001 -0.0261932
      endloop
   endfacet
   facet normal 0.687699 0 0.725995
      outer loop
         vertex -0.0256621 0.00135 -0.0261932
         vertex -0.0256621 0.0001 -0.0261932
         vertex -0.0255281 0.0001 -0.0263347
      endloop
   endfacet
   facet normal 0.762162 0 0.647386
      outer loop
         vertex -0.0255281 0.00135 -0.0263347
         vertex -0.0255281 0.0001 -0.0263347
         vertex -0.0254102 0.0001 -0.0264899
      endloop
   endfacet
   facet normal 0.827689 0 0.561187
      outer loop
         vertex -0.0254102 0.00135 -0.0264899
         vertex -0.0254102 0.0001 -0.0264899
         vertex -0.0253097 0.0001 -0.0266569
      endloop
   endfacet
   facet normal 0.883512 0 0.468408
      outer loop
         vertex -0.0253097 0.00135 -0.0266569
         vertex -0.0253097 0.0001 -0.0266569
         vertex -0.0252278 0.0001 -0.0268338
      endloop
   endfacet
   facet normal 0.928977 0 0.370138
      outer loop
         vertex -0.0252278 0.00135 -0.0268338
         vertex -0.0252278 0.0001 -0.0268338
         vertex -0.0251656 0.0001 -0.0270184
      endloop
   endfacet
   facet normal 0.96355 0 0.267528
      outer loop
         vertex -0.0251656 0.00135 -0.0270184
         vertex -0.0251656 0.0001 -0.0270184
         vertex -0.0251237 0.0001 -0.0272088
      endloop
   endfacet
   facet normal 0.986827 0 0.161782
      outer loop
         vertex -0.0251237 0.00135 -0.0272088
         vertex -0.0251237 0.0001 -0.0272088
         vertex -0.0251026 0.0001 -0.0274025
      endloop
   endfacet
   facet normal 0.998533 0 0.0541389
      outer loop
         vertex -0.0251026 0.00135 -0.0274025
         vertex -0.0251026 0.0001 -0.0274025
         vertex -0.0251026 0.0001 -0.0275975
      endloop
   endfacet
   facet normal 0.998533 0 -0.0541389
      outer loop
         vertex -0.0251026 0.00135 -0.0275975
         vertex -0.0251026 0.0001 -0.0275975
         vertex -0.0251237 0.0001 -0.0277912
      endloop
   endfacet
   facet normal 0.986827 0 -0.161782
      outer loop
         vertex -0.0251237 0.00135 -0.0277912
         vertex -0.0251237 0.0001 -0.0277912
         vertex -0.0251656 0.0001 -0.0279816
      endloop
   endfacet
   facet normal 0.96355 0 -0.267528
      outer loop
         vertex -0.0251656 0.00135 -0.0279816
         vertex -0.0251656 0.0001 -0.0279816
         vertex -0.0252278 0.0001 -0.0281662
      endloop
   endfacet
   facet normal 0.928977 0 -0.370138
      outer loop
         vertex -0.0252278 0.00135 -0.0281662
         vertex -0.0252278 0.0001 -0.0281662
         vertex -0.0253097 0.0001 -0.0283431
      endloop
   endfacet
   facet normal 0.883512 0 -0.468408
      outer loop
         vertex -0.0253097 0.00135 -0.0283431
         vertex -0.0253097 0.0001 -0.0283431
         vertex -0.0254102 0.0001 -0.0285101
      endloop
   endfacet
   facet normal 0.827689 0 -0.561187
      outer loop
         vertex -0.0254102 0.00135 -0.0285101
         vertex -0.0254102 0.0001 -0.0285101
         vertex -0.0255281 0.0001 -0.0286653
      endloop
   endfacet
   facet normal 0.762162 0 -0.647386
      outer loop
         vertex -0.0255281 0.00135 -0.0286653
         vertex -0.0255281 0.0001 -0.0286653
         vertex -0.0256621 0.0001 -0.0288068
      endloop
   endfacet
   facet normal 0.687699 0 -0.725995
      outer loop
         vertex -0.0256621 0.00135 -0.0288068
         vertex -0.0256621 0.0001 -0.0288068
         vertex -0.0258107 0.0001 -0.028933
      endloop
   endfacet
   facet normal 0.605174 0 -0.796093
      outer loop
         vertex -0.0258107 0.00135 -0.028933
         vertex -0.0258107 0.0001 -0.028933
         vertex -0.025972 0.0001 -0.0290423
      endloop
   endfacet
   facet normal 0.515554 0 -0.856857
      outer loop
         vertex -0.025972 0.00135 -0.0290423
         vertex -0.025972 0.0001 -0.0290423
         vertex -0.0261442 0.0001 -0.0291336
      endloop
   endfacet
   facet normal 0.419889 0 -0.907575
      outer loop
         vertex -0.0261442 0.00135 -0.0291336
         vertex -0.0261442 0.0001 -0.0291336
         vertex -0.0263253 0.0001 -0.0292058
      endloop
   endfacet
   facet normal 0.319302 0 -0.947653
      outer loop
         vertex -0.0263253 0.00135 -0.0292058
         vertex -0.0263253 0.0001 -0.0292058
         vertex -0.0265131 0.0001 -0.0292579
      endloop
   endfacet
   facet normal 0.21497 0 -0.976621
      outer loop
         vertex -0.0265131 0.00135 -0.0292579
         vertex -0.0265131 0.0001 -0.0292579
         vertex -0.0267054 0.0001 -0.0292894
      endloop
   endfacet
   facet normal 0.108119 0 -0.994138
      outer loop
         vertex -0.0267054 0.00135 -0.0292894
         vertex -0.0267054 0.0001 -0.0292894
         vertex -0.0269 0.0001 -0.0293
      endloop
   endfacet
   facet normal 0 1 0
      outer loop
         vertex -0.0269 0.00135 -0.0275
         vertex -0.0270946 0.00135 -0.0292894
         vertex -0.0272869 0.00135 -0.0292579
      endloop
   endfacet
   facet normal 0 1 0
      outer loop
         vertex -0.0272869 0.00135 -0.0292579
         vertex -0.0274747 0.00135 -0.0292058
         vertex -0.0269 0.00135 -0.0275
      endloop
   endfacet
   facet normal 0 1 0
      outer loop
         vertex -0.0274747 0.00135 -0.0292058
         vertex -0.0276558 0.00135 -0.0291336
         vertex -0.0269 0.00135 -0.0275
      endloop
   endfacet
   facet normal 0 1 0
      outer loop
         vertex -0.0276558 0.00135 -0.0291336
         vertex -0.027828 0.00135 -0.0290423
         vertex -0.0269 0.00135 -0.0275
      endloop
   endfacet
   facet normal 0 1 0
      outer loop
         vertex -0.027828 0.00135 -0.0290423
         vertex -0.0279893 0.00135 -0.028933
         vertex -0.0269 0.00135 -0.0275
      endloop
   endfacet
   facet normal 0 1 0
      outer loop
         vertex -0.0279893 0.00135 -0.028933
         vertex -0.0281379 0.00135 -0.0288068
         vertex -0.0269 0.00135 -0.0275
      endloop
   endfacet
   facet normal 0 1 0
      outer loop
         vertex -0.0281379 0.00135 -0.0288068
         vertex -0.0282719 0.00135 -0.0286653
         vertex -0.0269 0.00135 -0.0275
      endloop
   endfacet
   facet normal 0 1 0
      outer loop
         vertex -0.0282719 0.00135 -0.0286653
         vertex -0.0283898 0.00135 -0.0285101
         vertex -0.0269 0.00135 -0.0275
      endloop
   endfacet
   facet normal 0 1 0
      outer loop
         vertex -0.0283898 0.00135 -0.0285101
         vertex -0.0284903 0.00135 -0.0283431
         vertex -0.0269 0.00135 -0.0275
      endloop
   endfacet
   facet normal 0 1 0
      outer loop
         vertex -0.0284903 0.00135 -0.0283431
         vertex -0.0285722 0.00135 -0.0281662
         vertex -0.0269 0.00135 -0.0275
      endloop
   endfacet
   facet normal 0 1 0
      outer loop
         vertex -0.0285722 0.00135 -0.0281662
         vertex -0.0286344 0.00135 -0.0279816
         vertex -0.0269 0.00135 -0.0275
      endloop
   endfacet
   facet normal 0 1 0
      outer loop
         vertex -0.0286344 0.00135 -0.0279816
         vertex -0.0286763 0.00135 -0.0277912
         vertex -0.0269 0.00135 -0.0275
      endloop
   endfacet
   facet normal 0 1 0
      outer loop
         vertex -0.0286763 0.00135 -0.0277912
         vertex -0.0286974 0.00135 -0.0275975
         vertex -0.0269 0.00135 -0.0275
      endloop
   endfacet
   facet normal 0 1 0
      outer loop
         vertex -0.0286974 0.00135 -0.0275975
         vertex -0.0286974 0.00135 -0.0274025
         vertex -0.0269 0.00135 -0.0275
      endloop
   endfacet
   facet normal 0 1 0
      outer loop
         vertex -0.0286974 0.00135 -0.0274025
         vertex -0.0286763 0.00135 -0.0272088
         vertex -0.0269 0.00135 -0.0275
      endloop
   endfacet
   facet normal 0 1 0
      outer loop
         vertex -0.0286763 0.00135 -0.0272088
         vertex -0.0286344 0.00135 -0.0270184
         vertex -0.0269 0.00135 -0.0275
      endloop
   endfacet
   facet normal 0 1 0
      outer loop
         vertex -0.0286344 0.00135 -0.0270184
         vertex -0.0285722 0.00135 -0.0268338
         vertex -0.0269 0.00135 -0.0275
      endloop
   endfacet
   facet normal 0 1 0
      outer loop
         vertex -0.0285722 0.00135 -0.0268338
         vertex -0.0284903 0.00135 -0.0266569
         vertex -0.0269 0.00135 -0.0275
      endloop
   endfacet
   facet normal 0 1 0
      outer loop
         vertex -0.0284903 0.00135 -0.0266569
         vertex -0.0283898 0.00135 -0.0264899
         vertex -0.0269 0.00135 -0.0275
      endloop
   endfacet
   facet normal 0 1 0
      outer loop
         vertex -0.0283898 0.00135 -0.0264899
         vertex -0.0282719 0.00135 -0.0263347
         vertex -0.0269 0.00135 -0.0275
      endloop
   endfacet
   facet normal 0 1 0
      outer loop
         vertex -0.0282719 0.00135 -0.0263347
         vertex -0.0281379 0.00135 -0.0261932
         vertex -0.0269 0.00135 -0.0275
      endloop
   endfacet
   facet normal 0 1 0
      outer loop
         vertex -0.0281379 0.00135 -0.0261932
         vertex -0.0279893 0.00135 -0.026067
         vertex -0.0269 0.00135 -0.0275
      endloop
   endfacet
   facet normal 0 1 0
      outer loop
         vertex -0.0279893 0.00135 -0.026067
         vertex -0.027828 0.00135 -0.0259577
         vertex -0.0269 0.00135 -0.0275
      endloop
   endfacet
   facet normal 0 1 0
      outer loop
         vertex -0.027828 0.00135 -0.0259577
         vertex -0.0276558 0.00135 -0.0258664
         vertex -0.0269 0.00135 -0.0275
      endloop
   endfacet
   facet normal 0 1 0
      outer loop
         vertex -0.0276558 0.00135 -0.0258664
         vertex -0.0274747 0.00135 -0.0257942
         vertex -0.0269 0.00135 -0.0275
      endloop
   endfacet
   facet normal 0 1 0
      outer loop
         vertex -0.0274747 0.00135 -0.0257942
         vertex -0.0272869 0.00135 -0.0257421
         vertex -0.0269 0.00135 -0.0275
      endloop
   endfacet
   facet normal 0 1 0
      outer loop
         vertex -0.0272869 0.00135 -0.0257421
         vertex -0.0270946 0.00135 -0.0257106
         vertex -0.0269 0.00135 -0.0275
      endloop
   endfacet
   facet normal 0 1 0
      outer loop
         vertex -0.0270946 0.00135 -0.0257106
         vertex -0.0269 0.00135 -0.0257
         vertex -0.0269 0.00135 -0.0275
      endloop
   endfacet
   facet normal 0 1 0
      outer loop
         vertex -0.0269 0.00135 -0.0257
         vertex -0.0267054 0.00135 -0.0257106
         vertex -0.0269 0.00135 -0.0275
      endloop
   endfacet
   facet normal 0 1 0
      outer loop
         vertex -0.0267054 0.00135 -0.0257106
         vertex -0.0265131 0.00135 -0.0257421
         vertex -0.0269 0.00135 -0.0275
      endloop
   endfacet
   facet normal 0 1 0
      outer loop
         vertex -0.0265131 0.00135 -0.0257421
         vertex -0.0263253 0.00135 -0.0257942
         vertex -0.0269 0.00135 -0.0275
      endloop
   endfacet
   facet normal 0 1 0
      outer loop
         vertex -0.0263253 0.00135 -0.0257942
         vertex -0.0261442 0.00135 -0.0258664
         vertex -0.0269 0.00135 -0.0275
      endloop
   endfacet
   facet normal 0 1 0
      outer loop
         vertex -0.0261442 0.00135 -0.0258664
         vertex -0.025972 0.00135 -0.0259577
         vertex -0.0269 0.00135 -0.0275
      endloop
   endfacet
   facet normal 0 1 0
      outer loop
         vertex -0.025972 0.00135 -0.0259577
         vertex -0.0258107 0.00135 -0.026067
         vertex -0.0269 0.00135 -0.0275
      endloop
   endfacet
   facet normal 0 1 0
      outer loop
         vertex -0.0258107 0.00135 -0.026067
         vertex -0.0256621 0.00135 -0.0261932
         vertex -0.0269 0.00135 -0.0275
      endloop
   endfacet
   facet normal 0 1 0
      outer loop
         vertex -0.0256621 0.00135 -0.0261932
         vertex -0.0255281 0.00135 -0.0263347
         vertex -0.0269 0.00135 -0.0275
      endloop
   endfacet
   facet normal 0 1 0
      outer loop
         vertex -0.0255281 0.00135 -0.0263347
         vertex -0.0254102 0.00135 -0.0264899
         vertex -0.0269 0.00135 -0.0275
      endloop
   endfacet
   facet normal 0 1 0
      outer loop
         vertex -0.0254102 0.00135 -0.0264899
         vertex -0.0253097 0.00135 -0.0266569
         vertex -0.0269 0.00135 -0.0275
      endloop
   endfacet
   facet normal 0 1 0
      outer loop
         vertex -0.0253097 0.00135 -0.0266569
         vertex -0.0252278 0.00135 -0.0268338
         vertex -0.0269 0.00135 -0.0275
      endloop
   endfacet
   facet normal 0 1 0
      outer loop
         vertex -0.0252278 0.00135 -0.0268338
         vertex -0.0251656 0.00135 -0.0270184
         vertex -0.0269 0.00135 -0.0275
      endloop
   endfacet
   facet normal 0 1 0
      outer loop
         vertex -0.0251656 0.00135 -0.0270184
         vertex -0.0251237 0.00135 -0.0272088
         vertex -0.0269 0.00135 -0.0275
      endloop
   endfacet
   facet normal 0 1 0
      outer loop
         vertex -0.0251237 0.00135 -0.0272088
         vertex -0.0251026 0.00135 -0.0274025
         vertex -0.0269 0.00135 -0.0275
      endloop
   endfacet
   facet normal 0 1 0
      outer loop
         vertex -0.0251026 0.00135 -0.0274025
         vertex -0.0251026 0.00135 -0.0275975
         vertex -0.0269 0.00135 -0.0275
      endloop
   endfacet
   facet normal 0 1 0
      outer loop
         vertex -0.0251026 0.00135 -0.0275975
         vertex -0.0251237 0.00135 -0.0277912
         vertex -0.0269 0.00135 -0.0275
      endloop
   endfacet
   facet normal 0 1 0
      outer loop
         vertex -0.0251237 0.00135 -0.0277912
         vertex -0.0251656 0.00135 -0.0279816
         vertex -0.0269 0.00135 -0.0275
      endloop
   endfacet
   facet normal 0 1 0
      outer loop
         vertex -0.0251656 0.00135 -0.0279816
         vertex -0.0252278 0.00135 -0.0281662
         vertex -0.0269 0.00135 -0.0275
      endloop
   endfacet
   facet normal 0 1 0
      outer loop
         vertex -0.0252278 0.00135 -0.0281662
         vertex -0.0253097 0.00135 -0.0283431
         vertex -0.0269 0.00135 -0.0275
      endloop
   endfacet
   facet normal 0 1 0
      outer loop
         vertex -0.0253097 0.00135 -0.0283431
         vertex -0.0254102 0.00135 -0.0285101
         vertex -0.0269 0.00135 -0.0275
      endloop
   endfacet
   facet normal 0 1 0
      outer loop
         vertex -0.0254102 0.00135 -0.0285101
         vertex -0.0255281 0.00135 -0.0286653
         vertex -0.0269 0.00135 -0.0275
      endloop
   endfacet
   facet normal 0 1 0
      outer loop
         vertex -0.0255281 0.00135 -0.0286653
         vertex -0.0256621 0.00135 -0.0288068
         vertex -0.0269 0.00135 -0.0275
      endloop
   endfacet
   facet normal 0 1 0
      outer loop
         vertex -0.0256621 0.00135 -0.0288068
         vertex -0.0258107 0.00135 -0.028933
         vertex -0.0269 0.00135 -0.0275
      endloop
   endfacet
   facet normal 0 1 0
      outer loop
         vertex -0.0258107 0.00135 -0.028933
         vertex -0.025972 0.00135 -0.0290423
         vertex -0.0269 0.00135 -0.0275
      endloop
   endfacet
   facet normal 0 1 0
      outer loop
         vertex -0.025972 0.00135 -0.0290423
         vertex -0.0261442 0.00135 -0.0291336
         vertex -0.0269 0.00135 -0.0275
      endloop
   endfacet
   facet normal 0 1 0
      outer loop
         vertex -0.0261442 0.00135 -0.0291336
         vertex -0.0263253 0.00135 -0.0292058
         vertex -0.0269 0.00135 -0.0275
      endloop
   endfacet
   facet normal 0 1 0
      outer loop
         vertex -0.0263253 0.00135 -0.0292058
         vertex -0.0265131 0.00135 -0.0292579
         vertex -0.0269 0.00135 -0.0275
      endloop
   endfacet
   facet normal 0 1 0
      outer loop
         vertex -0.0265131 0.00135 -0.0292579
         vertex -0.0267054 0.00135 -0.0292894
         vertex -0.0269 0.00135 -0.0275
      endloop
   endfacet
   facet normal 0 1 0
      outer loop
         vertex -0.0267054 0.00135 -0.0292894
         vertex -0.0269 0.00135 -0.0293
         vertex -0.0269 0.00135 -0.0275
      endloop
   endfacet
   facet normal 0 1 0
      outer loop
         vertex -0.0269 0.00135 -0.0293
         vertex -0.0270946 0.00135 -0.0292894
         vertex -0.0269 0.00135 -0.0275
      endloop
   endfacet
endsolid 000. Units = meters