solid 000. STL generated by ONSHAPE BY PTC INC, 1.216. Units = meters
   facet normal 0 -1 0
      outer loop
         vertex 0.0269 0.0001 0.021
         vertex 0.0270946 0.0001 0.0192106
         vertex 0.0272869 0.0001 0.0192421
      endloop
   endfacet
   facet normal 0 -1 0
      outer loop
         vertex 0.0272869 0.0001 0.0192421
         vertex 0.0274747 0.0001 0.0192942
         vertex 0.0269 0.0001 0.021
      endloop
   endfacet
   facet normal 0 -1 0
      outer loop
         vertex 0.0274747 0.0001 0.0192942
         vertex 0.0276558 0.0001 0.0193664
         vertex 0.0269 0.0001 0.021
      endloop
   endfacet
   facet normal 0 -1 0
      outer loop
         vertex 0.0276558 0.0001 0.0193664
         vertex 0.027828 0.0001 0.0194577
         vertex 0.0269 0.0001 0.021
      endloop
   endfacet
   facet normal 0 -1 0
      outer loop
         vertex 0.027828 0.0001 0.0194577
         vertex 0.0279893 0.0001 0.019567
         vertex 0.0269 0.0001 0.021
      endloop
   endfacet
   facet normal 0 -1 0
      outer loop
         vertex 0.0279893 0.0001 0.019567
         vertex 0.0281379 0.0001 0.0196932
         vertex 0.0269 0.0001 0.021
      endloop
   endfacet
   facet normal 0 -1 0
      outer loop
         vertex 0.0281379 0.0001 0.0196932
         vertex 0.0282719 0.0001 0.0198347
         vertex 0.0269 0.0001 0.021
      endloop
   endfacet
   facet normal 0 -1 0
      outer loop
         vertex 0.0282719 0.0001 0.0198347
         vertex 0.0283898 0.0001 0.0199899
         vertex 0.0269 0.0001 0.021
      endloop
   endfacet
   facet normal 0 -1 0
      outer loop
         vertex 0.0283898 0.0001 0.0199899
         vertex 0.0284903 0.0001 0.0201569
         vertex 0.0269 0.0001 0.021
      endloop
   endfacet
   facet normal 0 -1 0
      outer loop
         vertex 0.0284903 0.0001 0.0201569
         vertex 0.0285722 0.0001 0.0203338
         vertex 0.0269 0.0001 0.021
      endloop
   endfacet
   facet normal 0 -1 0
      outer loop
         vertex 0.0285722 0.0001 0.0203338
         vertex 0.0286344 0.0001 0.0205184
         vertex 0.0269 0.0001 0.021
      endloop
   endfacet
   facet normal 0 -1 0
      outer loop
         vertex 0.0286344 0.0001 0.0205184
         vertex 0.0286763 0.0001 0.0207088
         vertex 0.0269 0.0001 0.021
      endloop
   endfacet
   facet normal 0 -1 0
      outer loop
         vertex 0.0286763 0.0001 0.0207088
         vertex 0.0286974 0.0001 0.0209025
         vertex 0.0269 0.0001 0.021
      endloop
   endfacet
   facet normal 0 -1 0
      outer loop
         vertex 0.0286974 0.0001 0.0209025
         vertex 0.0286974 0.0001 0.0210975
         vertex 0.0269 0.0001 0.021
      endloop
   endfacet
   facet normal 0 -1 0
      outer loop
         vertex 0.0286974 0.0001 0.0210975
         vertex 0.0286763 0.0001 0.0212912
         vertex 0.0269 0.0001 0.021
      endloop
   endfacet
   facet normal 0 -1 0
      outer loop
         vertex 0.0286763 0.0001 0.0212912
         vertex 0.0286344 0.0001 0.0214816
         vertex 0.0269 0.0001 0.021
      endloop
   endfacet
   facet normal 0 -1 0
      outer loop
         vertex 0.0286344 0.0001 0.0214816
         vertex 0.0285722 0.0001 0.0216662
         vertex 0.0269 0.0001 0.021
      endloop
   endfacet
   facet normal 0 -1 0
      outer loop
         vertex 0.0285722 0.0001 0.0216662
         vertex 0.0284903 0.0001 0.0218431
         vertex 0.0269 0.0001 0.021
      endloop
   endfacet
   facet normal 0 -1 0
      outer loop
         vertex 0.0284903 0.0001 0.0218431
         vertex 0.0283898 0.0001 0.0220101
         vertex 0.0269 0.0001 0.021
      endloop
   endfacet
   facet normal 0 -1 0
      outer loop
         vertex 0.0283898 0.0001 0.0220101
         vertex 0.0282719 0.0001 0.0221653
         vertex 0.0269 0.0001 0.021
      endloop
   endfacet
   facet normal 0 -1 0
      outer loop
         vertex 0.0282719 0.0001 0.0221653
         vertex 0.0281379 0.0001 0.0223068
         vertex 0.0269 0.0001 0.021
      endloop
   endfacet
   facet normal 0 -1 0
      outer loop
         vertex 0.0281379 0.0001 0.0223068
         vertex 0.0279893 0.0001 0.022433
         vertex 0.0269 0.0001 0.021
      endloop
   endfacet
   facet normal 0 -1 0
      outer loop
         vertex 0.0279893 0.0001 0.022433
         vertex 0.027828 0.0001 0.0225423
         vertex 0.0269 0.0001 0.021
      endloop
   endfacet
   facet normal 0 -1 0
      outer loop
         vertex 0.027828 0.0001 0.0225423
         vertex 0.0276558 0.0001 0.0226336
         vertex 0.0269 0.0001 0.021
      endloop
   endfacet
   facet normal 0 -1 0
      outer loop
         vertex 0.0276558 0.0001 0.0226336
         vertex 0.0274747 0.0001 0.0227058
         vertex 0.0269 0.0001 0.021
      endloop
   endfacet
   facet normal 0 -1 0
      outer loop
         vertex 0.0274747 0.0001 0.0227058
         vertex 0.0272869 0.0001 0.0227579
         vertex 0.0269 0.0001 0.021
      endloop
   endfacet
   facet normal 0 -1 0
      outer loop
         vertex 0.0272869 0.0001 0.0227579
         vertex 0.0270946 0.0001 0.0227894
         vertex 0.0269 0.0001 0.021
      endloop
   endfacet
   facet normal 0 -1 0
      outer loop
         vertex 0.0270946 0.0001 0.0227894
         vertex 0.0269 0.0001 0.0228
         vertex 0.0269 0.0001 0.021
      endloop
   endfacet
   facet normal 0 -1 0
      outer loop
         vertex 0.0269 0.0001 0.0228
         vertex 0.0267054 0.0001 0.0227894
         vertex 0.0269 0.0001 0.021
      endloop
   endfacet
   facet normal 0 -1 0
      outer loop
         vertex 0.0267054 0.0001 0.0227894
         vertex 0.0265131 0.0001 0.0227579
         vertex 0.0269 0.0001 0.021
      endloop
   endfacet
   facet normal 0 -1 0
      outer loop
         vertex 0.0265131 0.0001 0.0227579
         vertex 0.0263253 0.0001 0.0227058
         vertex 0.0269 0.0001 0.021
      endloop
   endfacet
   facet normal 0 -1 0
      outer loop
         vertex 0.0263253 0.0001 0.0227058
         vertex 0.0261442 0.0001 0.0226336
         vertex 0.0269 0.0001 0.021
      endloop
   endfacet
   facet normal 0 -1 0
      outer loop
         vertex 0.0261442 0.0001 0.0226336
         vertex 0.025972 0.0001 0.0225423
         vertex 0.0269 0.0001 0.021
      endloop
   endfacet
   facet normal 0 -1 0
      outer loop
         vertex 0.025972 0.0001 0.0225423
         vertex 0.0258107 0.0001 0.022433
         vertex 0.0269 0.0001 0.021
      endloop
   endfacet
   facet normal 0 -1 0
      outer loop
         vertex 0.0258107 0.0001 0.022433
         vertex 0.0256621 0.0001 0.0223068
         vertex 0.0269 0.0001 0.021
      endloop
   endfacet
   facet normal 0 -1 0
      outer loop
         vertex 0.0256621 0.0001 0.0223068
         vertex 0.0255281 0.0001 0.0221653
         vertex 0.0269 0.0001 0.021
      endloop
   endfacet
   facet normal 0 -1 0
      outer loop
         vertex 0.0255281 0.0001 0.0221653
         vertex 0.0254102 0.0001 0.0220101
         vertex 0.0269 0.0001 0.021
      endloop
   endfacet
   facet normal 0 -1 0
      outer loop
         vertex 0.0254102 0.0001 0.0220101
         vertex 0.0253097 0.0001 0.0218431
         vertex 0.0269 0.0001 0.021
      endloop
   endfacet
   facet normal 0 -1 0
      outer loop
         vertex 0.0253097 0.0001 0.0218431
         vertex 0.0252278 0.0001 0.0216662
         vertex 0.0269 0.0001 0.021
      endloop
   endfacet
   facet normal 0 -1 0
      outer loop
         vertex 0.0252278 0.0001 0.0216662
         vertex 0.0251656 0.0001 0.0214816
         vertex 0.0269 0.0001 0.021
      endloop
   endfacet
   facet normal 0 -1 0
      outer loop
         vertex 0.0251656 0.0001 0.0214816
         vertex 0.0251237 0.0001 0.0212912
         vertex 0.0269 0.0001 0.021
      endloop
   endfacet
   facet normal 0 -1 0
      outer loop
         vertex 0.0251237 0.0001 0.0212912
         vertex 0.0251026 0.0001 0.0210975
         vertex 0.0269 0.0001 0.021
      endloop
   endfacet
   facet normal 0 -1 0
      outer loop
         vertex 0.0251026 0.0001 0.0210975
         vertex 0.0251026 0.0001 0.0209025
         vertex 0.0269 0.0001 0.021
      endloop
   endfacet
   facet normal 0 -1 0
      outer loop
         vertex 0.0251026 0.0001 0.0209025
         vertex 0.0251237 0.0001 0.0207088
         vertex 0.0269 0.0001 0.021
      endloop
   endfacet
   facet normal 0 -1 0
      outer loop
         vertex 0.0251237 0.0001 0.0207088
         vertex 0.0251656 0.0001 0.0205184
         vertex 0.0269 0.0001 0.021
      endloop
   endfacet
   facet normal 0 -1 0
      outer loop
         vertex 0.0251656 0.0001 0.0205184
         vertex 0.0252278 0.0001 0.0203338
         vertex 0.0269 0.0001 0.021
      endloop
   endfacet
   facet normal 0 -1 0
      outer loop
         vertex 0.0252278 0.0001 0.0203338
         vertex 0.0253097 0.0001 0.0201569
         vertex 0.0269 0.0001 0.021
      endloop
   endfacet
   facet normal 0 -1 0
      outer loop
         vertex 0.0253097 0.0001 0.0201569
         vertex 0.0254102 0.0001 0.0199899
         vertex 0.0269 0.0001 0.021
      endloop
   endfacet
   facet normal 0 -1 0
      outer loop
         vertex 0.0254102 0.0001 0.0199899
         vertex 0.0255281 0.0001 0.0198347
         vertex 0.0269 0.0001 0.021
      endloop
   endfacet
   facet normal 0 -1 0
      outer loop
         vertex 0.0255281 0.0001 0.0198347
         vertex 0.0256621 0.0001 0.0196932
         vertex 0.0269 0.0001 0.021
      endloop
   endfacet
   facet normal 0 -1 0
      outer loop
         vertex 0.0256621 0.0001 0.0196932
         vertex 0.0258107 0.0001 0.019567
         vertex 0.0269 0.0001 0.021
      endloop
   endfacet
   facet normal 0 -1 0
      outer loop
         vertex 0.0258107 0.0001 0.019567
         vertex 0.025972 0.0001 0.0194577
         vertex 0.0269 0.0001 0.021
      endloop
   endfacet
   facet normal 0 -1 0
      outer loop
         vertex 0.025972 0.0001 0.0194577
         vertex 0.0261442 0.0001 0.0193664
         vertex 0.0269 0.0001 0.021
      endloop
   endfacet
   facet normal 0 -1 0
      outer loop
         vertex 0.0261442 0.0001 0.0193664
         vertex 0.0263253 0.0001 0.0192942
         vertex 0.0269 0.0001 0.021
      endloop
   endfacet
   facet normal 0 -1 0
      outer loop
         vertex 0.0263253 0.0001 0.0192942
         vertex 0.0265131 0.0001 0.0192421
         vertex 0.0269 0.0001 0.021
      endloop
   endfacet
   facet normal 0 -1 0
      outer loop
         vertex 0.0265131 0.0001 0.0192421
         vertex 0.0267054 0.0001 0.0192106
         vertex 0.0269 0.0001 0.021
      endloop
   endfacet
   facet normal 0 -1 0
      outer loop
         vertex 0.0267054 0.0001 0.0192106
         vertex 0.0269 0.0001 0.0192
         vertex 0.0269 0.0001 0.021
      endloop
   endfacet
   facet normal 0 -1 0
      outer loop
         vertex 0.0269 0.0001 0.0192
         vertex 0.0270946 0.0001 0.0192106
         vertex 0.0269 0.0001 0.021
      endloop
   endfacet
   facet normal 0 0 -1
      outer loop
         vertex 0.0269 0.0001 0.0192
         vertex 0.0269 0.00135 0.0192
         vertex 0.0270946 0.00135 0.0192106
      endloop
   endfacet
   facet normal 0.108119 0 -0.994138
      outer loop
         vertex 0.0270946 0.0001 0.0192106
         vertex 0.0270946 0.00135 0.0192106
         vertex 0.0272869 0.00135 0.0192421
      endloop
   endfacet
   facet normal 0.21497 0 -0.976621
      outer loop
         vertex 0.0272869 0.0001 0.0192421
         vertex 0.0272869 0.00135 0.0192421
         vertex 0.0274747 0.00135 0.0192942
      endloop
   endfacet
   facet normal 0.319302 0 -0.947653
      outer loop
         vertex 0.0274747 0.0001 0.0192942
         vertex 0.0274747 0.00135 0.0192942
         vertex 0.0276558 0.00135 0.0193664
      endloop
   endfacet
   facet normal 0.419889 0 -0.907575
      outer loop
         vertex 0.0276558 0.0001 0.0193664
         vertex 0.0276558 0.00135 0.0193664
         vertex 0.027828 0.00135 0.0194577
      endloop
   endfacet
   facet normal 0.515554 0 -0.856857
      outer loop
         vertex 0.027828 0.0001 0.0194577
         vertex 0.027828 0.00135 0.0194577
         vertex 0.0279893 0.00135 0.019567
      endloop
   endfacet
   facet normal 0.605174 0 -0.796093
      outer loop
         vertex 0.0279893 0.0001 0.019567
         vertex 0.0279893 0.00135 0.019567
         vertex 0.0281379 0.00135 0.0196932
      endloop
   endfacet
   facet normal 0.687699 0 -0.725995
      outer loop
         vertex 0.0281379 0.0001 0.0196932
         vertex 0.0281379 0.00135 0.0196932
         vertex 0.0282719 0.00135 0.0198347
      endloop
   endfacet
   facet normal 0.762162 0 -0.647386
      outer loop
         vertex 0.0282719 0.0001 0.0198347
         vertex 0.0282719 0.00135 0.0198347
         vertex 0.0283898 0.00135 0.0199899
      endloop
   endfacet
   facet normal 0.827689 0 -0.561187
      outer loop
         vertex 0.0283898 0.0001 0.0199899
         vertex 0.0283898 0.00135 0.0199899
         vertex 0.0284903 0.00135 0.0201569
      endloop
   endfacet
   facet normal 0.883512 0 -0.468408
      outer loop
         vertex 0.0284903 0.0001 0.0201569
         vertex 0.0284903 0.00135 0.0201569
         vertex 0.0285722 0.00135 0.0203338
      endloop
   endfacet
   facet normal 0.928977 0 -0.370138
      outer loop
         vertex 0.0285722 0.0001 0.0203338
         vertex 0.0285722 0.00135 0.0203338
         vertex 0.0286344 0.00135 0.0205184
      endloop
   endfacet
   facet normal 0.96355 0 -0.267528
      outer loop
         vertex 0.0286344 0.0001 0.0205184
         vertex 0.0286344 0.00135 0.0205184
         vertex 0.0286763 0.00135 0.0207088
      endloop
   endfacet
   facet normal 0.986827 0 -0.161782
      outer loop
         vertex 0.0286763 0.0001 0.0207088
         vertex 0.0286763 0.00135 0.0207088
         vertex 0.0286974 0.00135 0.0209025
      endloop
   endfacet
   facet normal 0.998533 0 -0.0541389
      outer loop
         vertex 0.0286974 0.0001 0.0209025
         vertex 0.0286974 0.00135 0.0209025
         vertex 0.0286974 0.00135 0.0210975
      endloop
   endfacet
   facet normal 0.998533 0 0.0541389
      outer loop
         vertex 0.0286974 0.0001 0.0210975
         vertex 0.0286974 0.00135 0.0210975
         vertex 0.0286763 0.00135 0.0212912
      endloop
   endfacet
   facet normal 0.986827 0 0.161782
      outer loop
         vertex 0.0286763 0.0001 0.0212912
         vertex 0.0286763 0.00135 0.0212912
         vertex 0.0286344 0.00135 0.0214816
      endloop
   endfacet
   facet normal 0.96355 0 0.267528
      outer loop
         vertex 0.0286344 0.0001 0.0214816
         vertex 0.0286344 0.00135 0.0214816
         vertex 0.0285722 0.00135 0.0216662
      endloop
   endfacet
   facet normal 0.928977 0 0.370138
      outer loop
         vertex 0.0285722 0.0001 0.0216662
         vertex 0.0285722 0.00135 0.0216662
         vertex 0.0284903 0.00135 0.0218431
      endloop
   endfacet
   facet normal 0.883512 0 0.468408
      outer loop
         vertex 0.0284903 0.0001 0.0218431
         vertex 0.0284903 0.00135 0.0218431
         vertex 0.0283898 0.00135 0.0220101
      endloop
   endfacet
   facet normal 0.827689 0 0.561187
      outer loop
         vertex 0.0283898 0.0001 0.0220101
         vertex 0.0283898 0.00135 0.0220101
         vertex 0.0282719 0.00135 0.0221653
      endloop
   endfacet
   facet normal 0.762162 0 0.647386
      outer loop
         vertex 0.0282719 0.0001 0.0221653
         vertex 0.0282719 0.00135 0.0221653
         vertex 0.0281379 0.00135 0.0223068
      endloop
   endfacet
   facet normal 0.687699 0 0.725995
      outer loop
         vertex 0.0281379 0.0001 0.0223068
         vertex 0.0281379 0.00135 0.0223068
         vertex 0.0279893 0.00135 0.022433
      endloop
   endfacet
   facet normal 0.605174 0 0.796093
      outer loop
         vertex 0.0279893 0.0001 0.022433
         vertex 0.0279893 0.00135 0.022433
         vertex 0.027828 0.00135 0.0225423
      endloop
   endfacet
   facet normal 0.515554 0 0.856857
      outer loop
         vertex 0.027828 0.0001 0.0225423
         vertex 0.027828 0.00135 0.0225423
         vertex 0.0276558 0.00135 0.0226336
      endloop
   endfacet
   facet normal 0.419889 0 0.907575
      outer loop
         vertex 0.0276558 0.0001 0.0226336
         vertex 0.0276558 0.00135 0.0226336
         vertex 0.0274747 0.00135 0.0227058
      endloop
   endfacet
   facet normal 0.319302 0 0.947653
      outer loop
         vertex 0.0274747 0.0001 0.0227058
         vertex 0.0274747 0.00135 0.0227058
         vertex 0.0272869 0.00135 0.0227579
      endloop
   endfacet
   facet normal 0.21497 0 0.976621
      outer loop
         vertex 0.0272869 0.0001 0.0227579
         vertex 0.0272869 0.00135 0.0227579
         vertex 0.0270946 0.00135 0.0227894
      endloop
   endfacet
   facet normal 0.108119 0 0.994138
      outer loop
         vertex 0.0270946 0.0001 0.0227894
         vertex 0.0270946 0.00135 0.0227894
         vertex 0.0269 0.00135 0.0228
      endloop
   endfacet
   facet normal 1.22465e-16 0 1
      outer loop
         vertex 0.0269 0.0001 0.0228
         vertex 0.0269 0.00135 0.0228
         vertex 0.0267054 0.00135 0.0227894
      endloop
   endfacet
   facet normal -0.108119 0 0.994138
      outer loop
         vertex 0.0267054 0.0001 0.0227894
         vertex 0.0267054 0.00135 0.0227894
         vertex 0.0265131 0.00135 0.0227579
      endloop
   endfacet
   facet normal -0.21497 0 0.976621
      outer loop
         vertex 0.0265131 0.0001 0.0227579
         vertex 0.0265131 0.00135 0.0227579
         vertex 0.0263253 0.00135 0.0227058
      endloop
   endfacet
   facet normal -0.319302 0 0.947653
      outer loop
         vertex 0.0263253 0.0001 0.0227058
         vertex 0.0263253 0.00135 0.0227058
         vertex 0.0261442 0.00135 0.0226336
      endloop
   endfacet
   facet normal -0.419889 0 0.907575
      outer loop
         vertex 0.0261442 0.0001 0.0226336
         vertex 0.0261442 0.00135 0.0226336
         vertex 0.025972 0.00135 0.0225423
      endloop
   endfacet
   facet normal -0.515554 0 0.856857
      outer loop
         vertex 0.025972 0.0001 0.0225423
         vertex 0.025972 0.00135 0.0225423
         vertex 0.0258107 0.00135 0.022433
      endloop
   endfacet
   facet normal -0.605174 0 0.796093
      outer loop
         vertex 0.0258107 0.0001 0.022433
         vertex 0.0258107 0.00135 0.022433
         vertex 0.0256621 0.00135 0.0223068
      endloop
   endfacet
   facet normal -0.687699 0 0.725995
      outer loop
         vertex 0.0256621 0.0001 0.0223068
         vertex 0.0256621 0.00135 0.0223068
         vertex 0.0255281 0.00135 0.0221653
      endloop
   endfacet
   facet normal -0.762162 0 0.647386
      outer loop
         vertex 0.0255281 0.0001 0.0221653
         vertex 0.0255281 0.00135 0.0221653
         vertex 0.0254102 0.00135 0.0220101
      endloop
   endfacet
   facet normal -0.827689 0 0.561187
      outer loop
         vertex 0.0254102 0.0001 0.0220101
         vertex 0.0254102 0.00135 0.0220101
         vertex 0.0253097 0.00135 0.0218431
      endloop
   endfacet
   facet normal -0.883512 0 0.468408
      outer loop
         vertex 0.0253097 0.0001 0.0218431
         vertex 0.0253097 0.00135 0.0218431
         vertex 0.0252278 0.00135 0.0216662
      endloop
   endfacet
   facet normal -0.928977 0 0.370138
      outer loop
         vertex 0.0252278 0.0001 0.0216662
         vertex 0.0252278 0.00135 0.0216662
         vertex 0.0251656 0.00135 0.0214816
      endloop
   endfacet
   facet normal -0.96355 0 0.267528
      outer loop
         vertex 0.0251656 0.0001 0.0214816
         vertex 0.0251656 0.00135 0.0214816
         vertex 0.0251237 0.00135 0.0212912
      endloop
   endfacet
   facet normal -0.986827 0 0.161782
      outer loop
         vertex 0.0251237 0.0001 0.0212912
         vertex 0.0251237 0.00135 0.0212912
         vertex 0.0251026 0.00135 0.0210975
      endloop
   endfacet
   facet normal -0.998533 0 0.0541389
      outer loop
         vertex 0.0251026 0.0001 0.0210975
         vertex 0.0251026 0.00135 0.0210975
         vertex 0.0251026 0.00135 0.0209025
      endloop
   endfacet
   facet normal -0.998533 0 -0.0541389
      outer loop
         vertex 0.0251026 0.0001 0.0209025
         vertex 0.0251026 0.00135 0.0209025
         vertex 0.0251237 0.00135 0.0207088
      endloop
   endfacet
   facet normal -0.986827 0 -0.161782
      outer loop
         vertex 0.0251237 0.0001 0.0207088
         vertex 0.0251237 0.00135 0.0207088
         vertex 0.0251656 0.00135 0.0205184
      endloop
   endfacet
   facet normal -0.96355 0 -0.267528
      outer loop
         vertex 0.0251656 0.0001 0.0205184
         vertex 0.0251656 0.00135 0.0205184
         vertex 0.0252278 0.00135 0.0203338
      endloop
   endfacet
   facet normal -0.928977 0 -0.370138
      outer loop
         vertex 0.0252278 0.0001 0.0203338
         vertex 0.0252278 0.00135 0.0203338
         vertex 0.0253097 0.00135 0.0201569
      endloop
   endfacet
   facet normal -0.883512 0 -0.468408
      outer loop
         vertex 0.0253097 0.0001 0.0201569
         vertex 0.0253097 0.00135 0.0201569
         vertex 0.0254102 0.00135 0.0199899
      endloop
   endfacet
   facet normal -0.827689 0 -0.561187
      outer loop
         vertex 0.0254102 0.0001 0.0199899
         vertex 0.0254102 0.00135 0.0199899
         vertex 0.0255281 0.00135 0.0198347
      endloop
   endfacet
   facet normal -0.762162 0 -0.647386
      outer loop
         vertex 0.0255281 0.0001 0.0198347
         vertex 0.0255281 0.00135 0.0198347
         vertex 0.0256621 0.00135 0.0196932
      endloop
   endfacet
   facet normal -0.687699 0 -0.725995
      outer loop
         vertex 0.0256621 0.0001 0.0196932
         vertex 0.0256621 0.00135 0.0196932
         vertex 0.0258107 0.00135 0.019567
      endloop
   endfacet
   facet normal -0.605174 0 -0.796093
      outer loop
         vertex 0.0258107 0.0001 0.019567
         vertex 0.0258107 0.00135 0.019567
         vertex 0.025972 0.00135 0.0194577
      endloop
   endfacet
   facet normal -0.515554 0 -0.856857
      outer loop
         vertex 0.025972 0.0001 0.0194577
         vertex 0.025972 0.00135 0.0194577
         vertex 0.0261442 0.00135 0.0193664
      endloop
   endfacet
   facet normal -0.419889 0 -0.907575
      outer loop
         vertex 0.0261442 0.0001 0.0193664
         vertex 0.0261442 0.00135 0.0193664
         vertex 0.0263253 0.00135 0.0192942
      endloop
   endfacet
   facet normal -0.319302 0 -0.947653
      outer loop
         vertex 0.0263253 0.0001 0.0192942
         vertex 0.0263253 0.00135 0.0192942
         vertex 0.0265131 0.00135 0.0192421
      endloop
   endfacet
   facet normal -0.21497 0 -0.976621
      outer loop
         vertex 0.0265131 0.0001 0.0192421
         vertex 0.0265131 0.00135 0.0192421
         vertex 0.0267054 0.00135 0.0192106
      endloop
   endfacet
   facet normal -0.108119 0 -0.994138
      outer loop
         vertex 0.0267054 0.0001 0.0192106
         vertex 0.0267054 0.00135 0.0192106
         vertex 0.0269 0.00135 0.0192
      endloop
   endfacet
   facet normal 0 0 -1
      outer loop
         vertex 0.0269 0.00135 0.0192
         vertex 0.0269 0.0001 0.0192
         vertex 0.0267054 0.0001 0.0192106
      endloop
   endfacet
   facet normal -0.108119 0 -0.994138
      outer loop
         vertex 0.0267054 0.00135 0.0192106
         vertex 0.0267054 0.0001 0.0192106
         vertex 0.0265131 0.0001 0.0192421
      endloop
   endfacet
   facet normal -0.21497 0 -0.976621
      outer loop
         vertex 0.0265131 0.00135 0.0192421
         vertex 0.0265131 0.0001 0.0192421
         vertex 0.0263253 0.0001 0.0192942
      endloop
   endfacet
   facet normal -0.319302 0 -0.947653
      outer loop
         vertex 0.0263253 0.00135 0.0192942
         vertex 0.0263253 0.0001 0.0192942
         vertex 0.0261442 0.0001 0.0193664
      endloop
   endfacet
   facet normal -0.419889 0 -0.907575
      outer loop
         vertex 0.0261442 0.00135 0.0193664
         vertex 0.0261442 0.0001 0.0193664
         vertex 0.025972 0.0001 0.0194577
      endloop
   endfacet
   facet normal -0.515554 0 -0.856857
      outer loop
         vertex 0.025972 0.00135 0.0194577
         vertex 0.025972 0.0001 0.0194577
         vertex 0.0258107 0.0001 0.019567
      endloop
   endfacet
   facet normal -0.605174 0 -0.796093
      outer loop
         vertex 0.0258107 0.00135 0.019567
         vertex 0.0258107 0.0001 0.019567
         vertex 0.0256621 0.0001 0.0196932
      endloop
   endfacet
   facet normal -0.687699 0 -0.725995
      outer loop
         vertex 0.0256621 0.00135 0.0196932
         vertex 0.0256621 0.0001 0.0196932
         vertex 0.0255281 0.0001 0.0198347
      endloop
   endfacet
   facet normal -0.762162 0 -0.647386
      outer loop
         vertex 0.0255281 0.00135 0.0198347
         vertex 0.0255281 0.0001 0.0198347
         vertex 0.0254102 0.0001 0.0199899
      endloop
   endfacet
   facet normal -0.827689 0 -0.561187
      outer loop
         vertex 0.0254102 0.00135 0.0199899
         vertex 0.0254102 0.0001 0.0199899
         vertex 0.0253097 0.0001 0.0201569
      endloop
   endfacet
   facet normal -0.883512 0 -0.468408
      outer loop
         vertex 0.0253097 0.00135 0.0201569
         vertex 0.0253097 0.0001 0.0201569
         vertex 0.0252278 0.0001 0.0203338
      endloop
   endfacet
   facet normal -0.928977 0 -0.370138
      outer loop
         vertex 0.0252278 0.00135 0.0203338
         vertex 0.0252278 0.0001 0.0203338
         vertex 0.0251656 0.0001 0.0205184
      endloop
   endfacet
   facet normal -0.96355 0 -0.267528
      outer loop
         vertex 0.0251656 0.00135 0.0205184
         vertex 0.0251656 0.0001 0.0205184
         vertex 0.0251237 0.0001 0.0207088
      endloop
   endfacet
   facet normal -0.986827 0 -0.161782
      outer loop
         vertex 0.0251237 0.00135 0.0207088
         vertex 0.0251237 0.0001 0.0207088
         vertex 0.0251026 0.0001 0.0209025
      endloop
   endfacet
   facet normal -0.998533 0 -0.0541389
      outer loop
         vertex 0.0251026 0.00135 0.0209025
         vertex 0.0251026 0.0001 0.0209025
         vertex 0.0251026 0.0001 0.0210975
      endloop
   endfacet
   facet normal -0.998533 0 0.0541389
      outer loop
         vertex 0.0251026 0.00135 0.0210975
         vertex 0.0251026 0.0001 0.0210975
         vertex 0.0251237 0.0001 0.0212912
      endloop
   endfacet
   facet normal -0.986827 0 0.161782
      outer loop
         vertex 0.0251237 0.00135 0.0212912
         vertex 0.0251237 0.0001 0.0212912
         vertex 0.0251656 0.0001 0.0214816
      endloop
   endfacet
   facet normal -0.96355 0 0.267528
      outer loop
         vertex 0.0251656 0.00135 0.0214816
         vertex 0.0251656 0.0001 0.0214816
         vertex 0.0252278 0.0001 0.0216662
      endloop
   endfacet
   facet normal -0.928977 0 0.370138
      outer loop
         vertex 0.0252278 0.00135 0.0216662
         vertex 0.0252278 0.0001 0.0216662
         vertex 0.0253097 0.0001 0.0218431
      endloop
   endfacet
   facet normal -0.883512 0 0.468408
      outer loop
         vertex 0.0253097 0.00135 0.0218431
         vertex 0.0253097 0.0001 0.0218431
         vertex 0.0254102 0.0001 0.0220101
      endloop
   endfacet
   facet normal -0.827689 0 0.561187
      outer loop
         vertex 0.0254102 0.00135 0.0220101
         vertex 0.0254102 0.0001 0.0220101
         vertex 0.0255281 0.0001 0.0221653
      endloop
   endfacet
   facet normal -0.762162 0 0.647386
      outer loop
         vertex 0.0255281 0.00135 0.0221653
         vertex 0.0255281 0.0001 0.0221653
         vertex 0.0256621 0.0001 0.0223068
      endloop
   endfacet
   facet normal -0.687699 0 0.725995
      outer loop
         vertex 0.0256621 0.00135 0.0223068
         vertex 0.0256621 0.0001 0.0223068
         vertex 0.0258107 0.0001 0.022433
      endloop
   endfacet
   facet normal -0.605174 0 0.796093
      outer loop
         vertex 0.0258107 0.00135 0.022433
         vertex 0.0258107 0.0001 0.022433
         vertex 0.025972 0.0001 0.0225423
      endloop
   endfacet
   facet normal -0.515554 0 0.856857
      outer loop
         vertex 0.025972 0.00135 0.0225423
         vertex 0.025972 0.0001 0.0225423
         vertex 0.0261442 0.0001 0.0226336
      endloop
   endfacet
   facet normal -0.419889 0 0.907575
      outer loop
         vertex 0.0261442 0.00135 0.0226336
         vertex 0.0261442 0.0001 0.0226336
         vertex 0.0263253 0.0001 0.0227058
      endloop
   endfacet
   facet normal -0.319302 0 0.947653
      outer loop
         vertex 0.0263253 0.00135 0.0227058
         vertex 0.0263253 0.0001 0.0227058
         vertex 0.0265131 0.0001 0.0227579
      endloop
   endfacet
   facet normal -0.21497 0 0.976621
      outer loop
         vertex 0.0265131 0.00135 0.0227579
         vertex 0.0265131 0.0001 0.0227579
         vertex 0.0267054 0.0001 0.0227894
      endloop
   endfacet
   facet normal -0.108119 0 0.994138
      outer loop
         vertex 0.0267054 0.00135 0.0227894
         vertex 0.0267054 0.0001 0.0227894
         vertex 0.0269 0.0001 0.0228
      endloop
   endfacet
   facet normal 1.22465e-16 0 1
      outer loop
         vertex 0.0269 0.00135 0.0228
         vertex 0.0269 0.0001 0.0228
         vertex 0.0270946 0.0001 0.0227894
      endloop
   endfacet
   facet normal 0.108119 0 0.994138
      outer loop
         vertex 0.0270946 0.00135 0.0227894
         vertex 0.0270946 0.0001 0.0227894
         vertex 0.0272869 0.0001 0.0227579
      endloop
   endfacet
   facet normal 0.21497 0 0.976621
      outer loop
         vertex 0.0272869 0.00135 0.0227579
         vertex 0.0272869 0.0001 0.0227579
         vertex 0.0274747 0.0001 0.0227058
      endloop
   endfacet
   facet normal 0.319302 0 0.947653
      outer loop
         vertex 0.0274747 0.00135 0.0227058
         vertex 0.0274747 0.0001 0.0227058
         vertex 0.0276558 0.0001 0.0226336
      endloop
   endfacet
   facet normal 0.419889 0 0.907575
      outer loop
         vertex 0.0276558 0.00135 0.0226336
         vertex 0.0276558 0.0001 0.0226336
         vertex 0.027828 0.0001 0.0225423
      endloop
   endfacet
   facet normal 0.515554 0 0.856857
      outer loop
         vertex 0.027828 0.00135 0.0225423
         vertex 0.027828 0.0001 0.0225423
         vertex 0.0279893 0.0001 0.022433
      endloop
   endfacet
   facet normal 0.605174 0 0.796093
      outer loop
         vertex 0.0279893 0.00135 0.022433
         vertex 0.0279893 0.0001 0.022433
         vertex 0.0281379 0.0001 0.0223068
      endloop
   endfacet
   facet normal 0.687699 0 0.725995
      outer loop
         vertex 0.0281379 0.00135 0.0223068
         vertex 0.0281379 0.0001 0.0223068
         vertex 0.0282719 0.0001 0.0221653
      endloop
   endfacet
   facet normal 0.762162 0 0.647386
      outer loop
         vertex 0.0282719 0.00135 0.0221653
         vertex 0.0282719 0.0001 0.0221653
         vertex 0.0283898 0.0001 0.0220101
      endloop
   endfacet
   facet normal 0.827689 0 0.561187
      outer loop
         vertex 0.0283898 0.00135 0.0220101
         vertex 0.0283898 0.0001 0.0220101
         vertex 0.0284903 0.0001 0.0218431
      endloop
   endfacet
   facet normal 0.883512 0 0.468408
      outer loop
         vertex 0.0284903 0.00135 0.0218431
         vertex 0.0284903 0.0001 0.0218431
         vertex 0.0285722 0.0001 0.0216662
      endloop
   endfacet
   facet normal 0.928977 0 0.370138
      outer loop
         vertex 0.0285722 0.00135 0.0216662
         vertex 0.0285722 0.0001 0.0216662
         vertex 0.0286344 0.0001 0.0214816
      endloop
   endfacet
   facet normal 0.96355 0 0.267528
      outer loop
         vertex 0.0286344 0.00135 0.0214816
         vertex 0.0286344 0.0001 0.0214816
         vertex 0.0286763 0.0001 0.0212912
      endloop
   endfacet
   facet normal 0.986827 0 0.161782
      outer loop
         vertex 0.0286763 0.00135 0.0212912
         vertex 0.0286763 0.0001 0.0212912
         vertex 0.0286974 0.0001 0.0210975
      endloop
   endfacet
   facet normal 0.998533 0 0.0541389
      outer loop
         vertex 0.0286974 0.00135 0.0210975
         vertex 0.0286974 0.0001 0.0210975
         vertex 0.0286974 0.0001 0.0209025
      endloop
   endfacet
   facet normal 0.998533 0 -0.0541389
      outer loop
         vertex 0.0286974 0.00135 0.0209025
         vertex 0.0286974 0.0001 0.0209025
         vertex 0.0286763 0.0001 0.0207088
      endloop
   endfacet
   facet normal 0.986827 0 -0.161782
      outer loop
         vertex 0.0286763 0.00135 0.0207088
         vertex 0.0286763 0.0001 0.0207088
         vertex 0.0286344 0.0001 0.0205184
      endloop
   endfacet
   facet normal 0.96355 0 -0.267528
      outer loop
         vertex 0.0286344 0.00135 0.0205184
         vertex 0.0286344 0.0001 0.0205184
         vertex 0.0285722 0.0001 0.0203338
      endloop
   endfacet
   facet normal 0.928977 0 -0.370138
      outer loop
         vertex 0.0285722 0.00135 0.0203338
         vertex 0.0285722 0.0001 0.0203338
         vertex 0.0284903 0.0001 0.0201569
      endloop
   endfacet
   facet normal 0.883512 0 -0.468408
      outer loop
         vertex 0.0284903 0.00135 0.0201569
         vertex 0.0284903 0.0001 0.0201569
         vertex 0.0283898 0.0001 0.0199899
      endloop
   endfacet
   facet normal 0.827689 0 -0.561187
      outer loop
         vertex 0.0283898 0.00135 0.0199899
         vertex 0.0283898 0.0001 0.0199899
         vertex 0.0282719 0.0001 0.0198347
      endloop
   endfacet
   facet normal 0.762162 0 -0.647386
      outer loop
         vertex 0.0282719 0.00135 0.0198347
         vertex 0.0282719 0.0001 0.0198347
         vertex 0.0281379 0.0001 0.0196932
      endloop
   endfacet
   facet normal 0.687699 0 -0.725995
      outer loop
         vertex 0.0281379 0.00135 0.0196932
         vertex 0.0281379 0.0001 0.0196932
         vertex 0.0279893 0.0001 0.019567
      endloop
   endfacet
   facet normal 0.605174 0 -0.796093
      outer loop
         vertex 0.0279893 0.00135 0.019567
         vertex 0.0279893 0.0001 0.019567
         vertex 0.027828 0.0001 0.0194577
      endloop
   endfacet
   facet normal 0.515554 0 -0.856857
      outer loop
         vertex 0.027828 0.00135 0.0194577
         vertex 0.027828 0.0001 0.0194577
         vertex 0.0276558 0.0001 0.0193664
      endloop
   endfacet
   facet normal 0.419889 0 -0.907575
      outer loop
         vertex 0.0276558 0.00135 0.0193664
         vertex 0.0276558 0.0001 0.0193664
         vertex 0.0274747 0.0001 0.0192942
      endloop
   endfacet
   facet normal 0.319302 0 -0.947653
      outer loop
         vertex 0.0274747 0.00135 0.0192942
         vertex 0.0274747 0.0001 0.0192942
         vertex 0.0272869 0.0001 0.0192421
      endloop
   endfacet
   facet normal 0.21497 0 -0.976621
      outer loop
         vertex 0.0272869 0.00135 0.0192421
         vertex 0.0272869 0.0001 0.0192421
         vertex 0.0270946 0.0001 0.0192106
      endloop
   endfacet
   facet normal 0.108119 0 -0.994138
      outer loop
         vertex 0.0270946 0.00135 0.0192106
         vertex 0.0270946 0.0001 0.0192106
         vertex 0.0269 0.0001 0.0192
      endloop
   endfacet
   facet normal 0 1 0
      outer loop
         vertex 0.0261442 0.00135 0.0193664
         vertex 0.025972 0.00135 0.0194577
         vertex 0.0263844 0.00135 0.0201431
      endloop
   endfacet
   facet normal 0 1 0
      outer loop
         vertex 0.025972 0.00135 0.0194577
         vertex 0.0258107 0.00135 0.019567
         vertex 0.0262948 0.00135 0.0202039
      endloop
   endfacet
   facet normal 0 1 0
      outer loop
         vertex 0.0276558 0.00135 0.0226336
         vertex 0.027828 0.00135 0.0225423
         vertex 0.0274156 0.00135 0.0218569
      endloop
   endfacet
   facet normal 0 1 0
      outer loop
         vertex 0.027828 0.00135 0.0225423
         vertex 0.0279893 0.00135 0.022433
         vertex 0.0275052 0.00135 0.0217961
      endloop
   endfacet
   facet normal 0 1 0
      outer loop
         vertex 0.0286974 0.00135 0.0210975
         vertex 0.0278985 0.00135 0.0210541
         vertex 0.0278868 0.00135 0.0211618
      endloop
   endfacet
   facet normal 0 1 0
      outer loop
         vertex 0.0286974 0.00135 0.0210975
         vertex 0.0286974 0.00135 0.0209025
         vertex 0.0278985 0.00135 0.0209459
      endloop
   endfacet
   facet normal 0 1 0
      outer loop
         vertex 0.027828 0.00135 0.0194577
         vertex 0.0274156 0.00135 0.0201431
         vertex 0.0275052 0.00135 0.0202039
      endloop
   endfacet
   facet normal 0 1 0
      outer loop
         vertex 0.0276558 0.00135 0.0193664
         vertex 0.0273199 0.00135 0.0200924
         vertex 0.0274156 0.00135 0.0201431
      endloop
   endfacet
   facet normal 0 1 0
      outer loop
         vertex 0.0261442 0.00135 0.0193664
         vertex 0.0264801 0.00135 0.0200924
         vertex 0.0265807 0.00135 0.0200523
      endloop
   endfacet
   facet normal 0 1 0
      outer loop
         vertex 0.0262948 0.00135 0.0202039
         vertex 0.0263844 0.00135 0.0201431
         vertex 0.025972 0.00135 0.0194577
      endloop
   endfacet
   facet normal 0 1 0
      outer loop
         vertex 0.0276558 0.00135 0.0226336
         vertex 0.0273199 0.00135 0.0219076
         vertex 0.0272193 0.00135 0.0219477
      endloop
   endfacet
   facet normal 0 1 0
      outer loop
         vertex 0.0275052 0.00135 0.0217961
         vertex 0.0274156 0.00135 0.0218569
         vertex 0.027828 0.00135 0.0225423
      endloop
   endfacet
   facet normal 0 1 0
      outer loop
         vertex 0.0278985 0.00135 0.0209459
         vertex 0.0278985 0.00135 0.0210541
         vertex 0.0286974 0.00135 0.0210975
      endloop
   endfacet
   facet normal 0 1 0
      outer loop
         vertex 0.0286974 0.00135 0.0209025
         vertex 0.0286763 0.00135 0.0207088
         vertex 0.0278868 0.00135 0.0208382
      endloop
   endfacet
   facet normal 0 1 0
      outer loop
         vertex 0.0274156 0.00135 0.0201431
         vertex 0.027828 0.00135 0.0194577
         vertex 0.0276558 0.00135 0.0193664
      endloop
   endfacet
   facet normal 0 1 0
      outer loop
         vertex 0.0276558 0.00135 0.0193664
         vertex 0.0274747 0.00135 0.0192942
         vertex 0.0272193 0.00135 0.0200523
      endloop
   endfacet
   facet normal 0 1 0
      outer loop
         vertex 0.0265131 0.00135 0.0192421
         vertex 0.026685 0.00135 0.0200234
         vertex 0.0267919 0.00135 0.0200059
      endloop
   endfacet
   facet normal 0 1 0
      outer loop
         vertex 0.0265131 0.00135 0.0192421
         vertex 0.0263253 0.00135 0.0192942
         vertex 0.0265807 0.00135 0.0200523
      endloop
   endfacet
   facet normal 0 1 0
      outer loop
         vertex 0.0263844 0.00135 0.0201431
         vertex 0.0264801 0.00135 0.0200924
         vertex 0.0261442 0.00135 0.0193664
      endloop
   endfacet
   facet normal 0 1 0
      outer loop
         vertex 0.0258107 0.00135 0.019567
         vertex 0.0256621 0.00135 0.0196932
         vertex 0.0262123 0.00135 0.020274
      endloop
   endfacet
   facet normal 0 1 0
      outer loop
         vertex 0.0272869 0.00135 0.0227579
         vertex 0.027115 0.00135 0.0219766
         vertex 0.0270081 0.00135 0.0219941
      endloop
   endfacet
   facet normal 0 1 0
      outer loop
         vertex 0.0272869 0.00135 0.0227579
         vertex 0.0274747 0.00135 0.0227058
         vertex 0.0272193 0.00135 0.0219477
      endloop
   endfacet
   facet normal 0 1 0
      outer loop
         vertex 0.0274156 0.00135 0.0218569
         vertex 0.0273199 0.00135 0.0219076
         vertex 0.0276558 0.00135 0.0226336
      endloop
   endfacet
   facet normal 0 1 0
      outer loop
         vertex 0.0279893 0.00135 0.022433
         vertex 0.0281379 0.00135 0.0223068
         vertex 0.0275877 0.00135 0.021726
      endloop
   endfacet
   facet normal 0 1 0
      outer loop
         vertex 0.0284903 0.00135 0.0218431
         vertex 0.0277835 0.00135 0.0214684
         vertex 0.0277277 0.00135 0.0215612
      endloop
   endfacet
   facet normal 0 1 0
      outer loop
         vertex 0.0284903 0.00135 0.0218431
         vertex 0.0285722 0.00135 0.0216662
         vertex 0.027829 0.00135 0.0213701
      endloop
   endfacet
   facet normal 0 1 0
      outer loop
         vertex 0.0286763 0.00135 0.0212912
         vertex 0.0278868 0.00135 0.0211618
         vertex 0.0278635 0.00135 0.0212675
      endloop
   endfacet
   facet normal 0 1 0
      outer loop
         vertex 0.0278868 0.00135 0.0208382
         vertex 0.0278985 0.00135 0.0209459
         vertex 0.0286974 0.00135 0.0209025
      endloop
   endfacet
   facet normal 0 1 0
      outer loop
         vertex 0.0279893 0.00135 0.019567
         vertex 0.0275052 0.00135 0.0202039
         vertex 0.0275877 0.00135 0.020274
      endloop
   endfacet
   facet normal 0 1 0
      outer loop
         vertex 0.0272193 0.00135 0.0200523
         vertex 0.0273199 0.00135 0.0200924
         vertex 0.0276558 0.00135 0.0193664
      endloop
   endfacet
   facet normal 0 1 0
      outer loop
         vertex 0.0272869 0.00135 0.0192421
         vertex 0.027115 0.00135 0.0200234
         vertex 0.0272193 0.00135 0.0200523
      endloop
   endfacet
   facet normal 0 1 0
      outer loop
         vertex 0.0272869 0.00135 0.0192421
         vertex 0.0270946 0.00135 0.0192106
         vertex 0.0270081 0.00135 0.0200059
      endloop
   endfacet
   facet normal 0 1 0
      outer loop
         vertex 0.0269 0.00135 0.0192
         vertex 0.0269 0.00135 0.02
         vertex 0.0270081 0.00135 0.0200059
      endloop
   endfacet
   facet normal 0 1 0
      outer loop
         vertex 0.0269 0.00135 0.0192
         vertex 0.0267054 0.00135 0.0192106
         vertex 0.0267919 0.00135 0.0200059
      endloop
   endfacet
   facet normal 0 1 0
      outer loop
         vertex 0.0265807 0.00135 0.0200523
         vertex 0.026685 0.00135 0.0200234
         vertex 0.0265131 0.00135 0.0192421
      endloop
   endfacet
   facet normal 0 1 0
      outer loop
         vertex 0.0262123 0.00135 0.020274
         vertex 0.0262948 0.00135 0.0202039
         vertex 0.0258107 0.00135 0.019567
      endloop
   endfacet
   facet normal 0 1 0
      outer loop
         vertex 0.0251026 0.00135 0.0209025
         vertex 0.0259015 0.00135 0.0209459
         vertex 0.0259132 0.00135 0.0208382
      endloop
   endfacet
   facet normal 0 1 0
      outer loop
         vertex 0.0251026 0.00135 0.0209025
         vertex 0.0251026 0.00135 0.0210975
         vertex 0.0259015 0.00135 0.0210541
      endloop
   endfacet
   facet normal 0 1 0
      outer loop
         vertex 0.0272193 0.00135 0.0219477
         vertex 0.027115 0.00135 0.0219766
         vertex 0.0272869 0.00135 0.0227579
      endloop
   endfacet
   facet normal 0 1 0
      outer loop
         vertex 0.0275877 0.00135 0.021726
         vertex 0.0275052 0.00135 0.0217961
         vertex 0.0279893 0.00135 0.022433
      endloop
   endfacet
   facet normal 0 1 0
      outer loop
         vertex 0.027829 0.00135 0.0213701
         vertex 0.0277835 0.00135 0.0214684
         vertex 0.0284903 0.00135 0.0218431
      endloop
   endfacet
   facet normal 0 1 0
      outer loop
         vertex 0.0285722 0.00135 0.0216662
         vertex 0.0286344 0.00135 0.0214816
         vertex 0.0278635 0.00135 0.0212675
      endloop
   endfacet
   facet normal 0 1 0
      outer loop
         vertex 0.0278868 0.00135 0.0211618
         vertex 0.0286763 0.00135 0.0212912
         vertex 0.0286974 0.00135 0.0210975
      endloop
   endfacet
   facet normal 0 1 0
      outer loop
         vertex 0.0286763 0.00135 0.0207088
         vertex 0.0286344 0.00135 0.0205184
         vertex 0.0278635 0.00135 0.0207325
      endloop
   endfacet
   facet normal 0 1 0
      outer loop
         vertex 0.0284903 0.00135 0.0201569
         vertex 0.0277835 0.00135 0.0205316
         vertex 0.027829 0.00135 0.0206299
      endloop
   endfacet
   facet normal 0 1 0
      outer loop
         vertex 0.0284903 0.00135 0.0201569
         vertex 0.0283898 0.00135 0.0199899
         vertex 0.0277277 0.00135 0.0204388
      endloop
   endfacet
   facet normal 0 1 0
      outer loop
         vertex 0.0275052 0.00135 0.0202039
         vertex 0.0279893 0.00135 0.019567
         vertex 0.027828 0.00135 0.0194577
      endloop
   endfacet
   facet normal 0 1 0
      outer loop
         vertex 0.0270081 0.00135 0.0200059
         vertex 0.027115 0.00135 0.0200234
         vertex 0.0272869 0.00135 0.0192421
      endloop
   endfacet
   facet normal 0 1 0
      outer loop
         vertex 0.0267919 0.00135 0.0200059
         vertex 0.0269 0.00135 0.02
         vertex 0.0269 0.00135 0.0192
      endloop
   endfacet
   facet normal 0 1 0
      outer loop
         vertex 0.0265807 0.00135 0.0200523
         vertex 0.0263253 0.00135 0.0192942
         vertex 0.0261442 0.00135 0.0193664
      endloop
   endfacet
   facet normal 0 1 0
      outer loop
         vertex 0.0259015 0.00135 0.0210541
         vertex 0.0259015 0.00135 0.0209459
         vertex 0.0251026 0.00135 0.0209025
      endloop
   endfacet
   facet normal 0 1 0
      outer loop
         vertex 0.0251026 0.00135 0.0210975
         vertex 0.0251237 0.00135 0.0212912
         vertex 0.0259132 0.00135 0.0211618
      endloop
   endfacet
   facet normal 0 1 0
      outer loop
         vertex 0.025972 0.00135 0.0225423
         vertex 0.0263844 0.00135 0.0218569
         vertex 0.0262948 0.00135 0.0217961
      endloop
   endfacet
   facet normal 0 1 0
      outer loop
         vertex 0.0261442 0.00135 0.0226336
         vertex 0.0264801 0.00135 0.0219076
         vertex 0.0263844 0.00135 0.0218569
      endloop
   endfacet
   facet normal 0 1 0
      outer loop
         vertex 0.0269 0.00135 0.0228
         vertex 0.0270946 0.00135 0.0227894
         vertex 0.0270081 0.00135 0.0219941
      endloop
   endfacet
   facet normal 0 1 0
      outer loop
         vertex 0.0272193 0.00135 0.0219477
         vertex 0.0274747 0.00135 0.0227058
         vertex 0.0276558 0.00135 0.0226336
      endloop
   endfacet
   facet normal 0 1 0
      outer loop
         vertex 0.0282719 0.00135 0.0221653
         vertex 0.0276622 0.00135 0.0216474
         vertex 0.0275877 0.00135 0.021726
      endloop
   endfacet
   facet normal 0 1 0
      outer loop
         vertex 0.0282719 0.00135 0.0221653
         vertex 0.0283898 0.00135 0.0220101
         vertex 0.0277277 0.00135 0.0215612
      endloop
   endfacet
   facet normal 0 1 0
      outer loop
         vertex 0.0278635 0.00135 0.0212675
         vertex 0.027829 0.00135 0.0213701
         vertex 0.0285722 0.00135 0.0216662
      endloop
   endfacet
   facet normal 0 1 0
      outer loop
         vertex 0.0278635 0.00135 0.0207325
         vertex 0.0278868 0.00135 0.0208382
         vertex 0.0286763 0.00135 0.0207088
      endloop
   endfacet
   facet normal 0 1 0
      outer loop
         vertex 0.0285722 0.00135 0.0203338
         vertex 0.027829 0.00135 0.0206299
         vertex 0.0278635 0.00135 0.0207325
      endloop
   endfacet
   facet normal 0 1 0
      outer loop
         vertex 0.0277277 0.00135 0.0204388
         vertex 0.0277835 0.00135 0.0205316
         vertex 0.0284903 0.00135 0.0201569
      endloop
   endfacet
   facet normal 0 1 0
      outer loop
         vertex 0.0282719 0.00135 0.0198347
         vertex 0.0276622 0.00135 0.0203526
         vertex 0.0277277 0.00135 0.0204388
      endloop
   endfacet
   facet normal 0 1 0
      outer loop
         vertex 0.0282719 0.00135 0.0198347
         vertex 0.0281379 0.00135 0.0196932
         vertex 0.0275877 0.00135 0.020274
      endloop
   endfacet
   facet normal 0 1 0
      outer loop
         vertex 0.0272193 0.00135 0.0200523
         vertex 0.0274747 0.00135 0.0192942
         vertex 0.0272869 0.00135 0.0192421
      endloop
   endfacet
   facet normal 0 1 0
      outer loop
         vertex 0.0267919 0.00135 0.0200059
         vertex 0.0267054 0.00135 0.0192106
         vertex 0.0265131 0.00135 0.0192421
      endloop
   endfacet
   facet normal 0 1 0
      outer loop
         vertex 0.0253097 0.00135 0.0201569
         vertex 0.0260165 0.00135 0.0205316
         vertex 0.0260723 0.00135 0.0204388
      endloop
   endfacet
   facet normal 0 1 0
      outer loop
         vertex 0.0253097 0.00135 0.0201569
         vertex 0.0252278 0.00135 0.0203338
         vertex 0.025971 0.00135 0.0206299
      endloop
   endfacet
   facet normal 0 1 0
      outer loop
         vertex 0.0251237 0.00135 0.0207088
         vertex 0.0259132 0.00135 0.0208382
         vertex 0.0259365 0.00135 0.0207325
      endloop
   endfacet
   facet normal 0 1 0
      outer loop
         vertex 0.0259132 0.00135 0.0211618
         vertex 0.0259015 0.00135 0.0210541
         vertex 0.0251026 0.00135 0.0210975
      endloop
   endfacet
   facet normal 0 1 0
      outer loop
         vertex 0.0263844 0.00135 0.0218569
         vertex 0.025972 0.00135 0.0225423
         vertex 0.0261442 0.00135 0.0226336
      endloop
   endfacet
   facet normal 0 1 0
      outer loop
         vertex 0.0261442 0.00135 0.0226336
         vertex 0.0263253 0.00135 0.0227058
         vertex 0.0265807 0.00135 0.0219477
      endloop
   endfacet
   facet normal 0 1 0
      outer loop
         vertex 0.0270081 0.00135 0.0219941
         vertex 0.0270946 0.00135 0.0227894
         vertex 0.0272869 0.00135 0.0227579
      endloop
   endfacet
   facet normal 0 1 0
      outer loop
         vertex 0.0277277 0.00135 0.0215612
         vertex 0.0276622 0.00135 0.0216474
         vertex 0.0282719 0.00135 0.0221653
      endloop
   endfacet
   facet normal 0 1 0
      outer loop
         vertex 0.0278635 0.00135 0.0212675
         vertex 0.0286344 0.00135 0.0214816
         vertex 0.0286763 0.00135 0.0212912
      endloop
   endfacet
   facet normal 0 1 0
      outer loop
         vertex 0.027829 0.00135 0.0206299
         vertex 0.0285722 0.00135 0.0203338
         vertex 0.0284903 0.00135 0.0201569
      endloop
   endfacet
   facet normal 0 1 0
      outer loop
         vertex 0.0275877 0.00135 0.020274
         vertex 0.0276622 0.00135 0.0203526
         vertex 0.0282719 0.00135 0.0198347
      endloop
   endfacet
   facet normal 0 1 0
      outer loop
         vertex 0.0270081 0.00135 0.0200059
         vertex 0.0270946 0.00135 0.0192106
         vertex 0.0269 0.00135 0.0192
      endloop
   endfacet
   facet normal 0 1 0
      outer loop
         vertex 0.0255281 0.00135 0.0198347
         vertex 0.0261378 0.00135 0.0203526
         vertex 0.0262123 0.00135 0.020274
      endloop
   endfacet
   facet normal 0 1 0
      outer loop
         vertex 0.0255281 0.00135 0.0198347
         vertex 0.0254102 0.00135 0.0199899
         vertex 0.0260723 0.00135 0.0204388
      endloop
   endfacet
   facet normal 0 1 0
      outer loop
         vertex 0.025971 0.00135 0.0206299
         vertex 0.0260165 0.00135 0.0205316
         vertex 0.0253097 0.00135 0.0201569
      endloop
   endfacet
   facet normal 0 1 0
      outer loop
         vertex 0.0252278 0.00135 0.0203338
         vertex 0.0251656 0.00135 0.0205184
         vertex 0.0259365 0.00135 0.0207325
      endloop
   endfacet
   facet normal 0 1 0
      outer loop
         vertex 0.0259132 0.00135 0.0208382
         vertex 0.0251237 0.00135 0.0207088
         vertex 0.0251026 0.00135 0.0209025
      endloop
   endfacet
   facet normal 0 1 0
      outer loop
         vertex 0.0251237 0.00135 0.0212912
         vertex 0.0251656 0.00135 0.0214816
         vertex 0.0259365 0.00135 0.0212675
      endloop
   endfacet
   facet normal 0 1 0
      outer loop
         vertex 0.0253097 0.00135 0.0218431
         vertex 0.0260165 0.00135 0.0214684
         vertex 0.025971 0.00135 0.0213701
      endloop
   endfacet
   facet normal 0 1 0
      outer loop
         vertex 0.0253097 0.00135 0.0218431
         vertex 0.0254102 0.00135 0.0220101
         vertex 0.0260723 0.00135 0.0215612
      endloop
   endfacet
   facet normal 0 1 0
      outer loop
         vertex 0.0258107 0.00135 0.022433
         vertex 0.0262948 0.00135 0.0217961
         vertex 0.0262123 0.00135 0.021726
      endloop
   endfacet
   facet normal 0 1 0
      outer loop
         vertex 0.0265807 0.00135 0.0219477
         vertex 0.0264801 0.00135 0.0219076
         vertex 0.0261442 0.00135 0.0226336
      endloop
   endfacet
   facet normal 0 1 0
      outer loop
         vertex 0.0265131 0.00135 0.0227579
         vertex 0.026685 0.00135 0.0219766
         vertex 0.0265807 0.00135 0.0219477
      endloop
   endfacet
   facet normal 0 1 0
      outer loop
         vertex 0.0265131 0.00135 0.0227579
         vertex 0.0267054 0.00135 0.0227894
         vertex 0.0267919 0.00135 0.0219941
      endloop
   endfacet
   facet normal 0 1 0
      outer loop
         vertex 0.0275877 0.00135 0.021726
         vertex 0.0281379 0.00135 0.0223068
         vertex 0.0282719 0.00135 0.0221653
      endloop
   endfacet
   facet normal 0 1 0
      outer loop
         vertex 0.0278635 0.00135 0.0207325
         vertex 0.0286344 0.00135 0.0205184
         vertex 0.0285722 0.00135 0.0203338
      endloop
   endfacet
   facet normal 0 1 0
      outer loop
         vertex 0.0275877 0.00135 0.020274
         vertex 0.0281379 0.00135 0.0196932
         vertex 0.0279893 0.00135 0.019567
      endloop
   endfacet
   facet normal 0 1 0
      outer loop
         vertex 0.0260723 0.00135 0.0204388
         vertex 0.0261378 0.00135 0.0203526
         vertex 0.0255281 0.00135 0.0198347
      endloop
   endfacet
   facet normal 0 1 0
      outer loop
         vertex 0.0259365 0.00135 0.0207325
         vertex 0.025971 0.00135 0.0206299
         vertex 0.0252278 0.00135 0.0203338
      endloop
   endfacet
   facet normal 0 1 0
      outer loop
         vertex 0.0259365 0.00135 0.0212675
         vertex 0.0259132 0.00135 0.0211618
         vertex 0.0251237 0.00135 0.0212912
      endloop
   endfacet
   facet normal 0 1 0
      outer loop
         vertex 0.0252278 0.00135 0.0216662
         vertex 0.025971 0.00135 0.0213701
         vertex 0.0259365 0.00135 0.0212675
      endloop
   endfacet
   facet normal 0 1 0
      outer loop
         vertex 0.0260723 0.00135 0.0215612
         vertex 0.0260165 0.00135 0.0214684
         vertex 0.0253097 0.00135 0.0218431
      endloop
   endfacet
   facet normal 0 1 0
      outer loop
         vertex 0.0262948 0.00135 0.0217961
         vertex 0.0258107 0.00135 0.022433
         vertex 0.025972 0.00135 0.0225423
      endloop
   endfacet
   facet normal 0 1 0
      outer loop
         vertex 0.0267919 0.00135 0.0219941
         vertex 0.026685 0.00135 0.0219766
         vertex 0.0265131 0.00135 0.0227579
      endloop
   endfacet
   facet normal 0 1 0
      outer loop
         vertex 0.0277277 0.00135 0.0215612
         vertex 0.0283898 0.00135 0.0220101
         vertex 0.0284903 0.00135 0.0218431
      endloop
   endfacet
   facet normal 0 1 0
      outer loop
         vertex 0.0262123 0.00135 0.020274
         vertex 0.0256621 0.00135 0.0196932
         vertex 0.0255281 0.00135 0.0198347
      endloop
   endfacet
   facet normal 0 1 0
      outer loop
         vertex 0.0259365 0.00135 0.0207325
         vertex 0.0251656 0.00135 0.0205184
         vertex 0.0251237 0.00135 0.0207088
      endloop
   endfacet
   facet normal 0 1 0
      outer loop
         vertex 0.025971 0.00135 0.0213701
         vertex 0.0252278 0.00135 0.0216662
         vertex 0.0253097 0.00135 0.0218431
      endloop
   endfacet
   facet normal 0 1 0
      outer loop
         vertex 0.0255281 0.00135 0.0221653
         vertex 0.0261378 0.00135 0.0216474
         vertex 0.0260723 0.00135 0.0215612
      endloop
   endfacet
   facet normal 0 1 0
      outer loop
         vertex 0.0255281 0.00135 0.0221653
         vertex 0.0256621 0.00135 0.0223068
         vertex 0.0262123 0.00135 0.021726
      endloop
   endfacet
   facet normal 0 1 0
      outer loop
         vertex 0.0265807 0.00135 0.0219477
         vertex 0.0263253 0.00135 0.0227058
         vertex 0.0265131 0.00135 0.0227579
      endloop
   endfacet
   facet normal 0 1 0
      outer loop
         vertex 0.0269 0.00135 0.0228
         vertex 0.0269 0.00135 0.022
         vertex 0.0267919 0.00135 0.0219941
      endloop
   endfacet
   facet normal 0 1 0
      outer loop
         vertex 0.0277277 0.00135 0.0204388
         vertex 0.0283898 0.00135 0.0199899
         vertex 0.0282719 0.00135 0.0198347
      endloop
   endfacet
   facet normal 0 1 0
      outer loop
         vertex 0.0259365 0.00135 0.0212675
         vertex 0.0251656 0.00135 0.0214816
         vertex 0.0252278 0.00135 0.0216662
      endloop
   endfacet
   facet normal 0 1 0
      outer loop
         vertex 0.0262123 0.00135 0.021726
         vertex 0.0261378 0.00135 0.0216474
         vertex 0.0255281 0.00135 0.0221653
      endloop
   endfacet
   facet normal 0 1 0
      outer loop
         vertex 0.0267919 0.00135 0.0219941
         vertex 0.0267054 0.00135 0.0227894
         vertex 0.0269 0.00135 0.0228
      endloop
   endfacet
   facet normal 0 1 0
      outer loop
         vertex 0.0260723 0.00135 0.0204388
         vertex 0.0254102 0.00135 0.0199899
         vertex 0.0253097 0.00135 0.0201569
      endloop
   endfacet
   facet normal 0 1 0
      outer loop
         vertex 0.0262123 0.00135 0.021726
         vertex 0.0256621 0.00135 0.0223068
         vertex 0.0258107 0.00135 0.022433
      endloop
   endfacet
   facet normal 0 1 0
      outer loop
         vertex 0.0260723 0.00135 0.0215612
         vertex 0.0254102 0.00135 0.0220101
         vertex 0.0255281 0.00135 0.0221653
      endloop
   endfacet
   facet normal 0 1 0
      outer loop
         vertex 0.0270081 0.00135 0.0219941
         vertex 0.0269 0.00135 0.022
         vertex 0.0269 0.00135 0.0228
      endloop
   endfacet
   facet normal 0 0 1
      outer loop
         vertex 0.0269 0.00935 0.022
         vertex 0.0269 0.00135 0.022
         vertex 0.0270081 0.00135 0.0219941
      endloop
   endfacet
   facet normal 0.108119 0 0.994138
      outer loop
         vertex 0.0270081 0.00935 0.0219941
         vertex 0.0270081 0.00135 0.0219941
         vertex 0.027115 0.00135 0.0219766
      endloop
   endfacet
   facet normal 0.21497 0 0.976621
      outer loop
         vertex 0.027115 0.00935 0.0219766
         vertex 0.027115 0.00135 0.0219766
         vertex 0.0272193 0.00135 0.0219477
      endloop
   endfacet
   facet normal 0.319302 0 0.947653
      outer loop
         vertex 0.0272193 0.00935 0.0219477
         vertex 0.0272193 0.00135 0.0219477
         vertex 0.0273199 0.00135 0.0219076
      endloop
   endfacet
   facet normal 0.419889 0 0.907575
      outer loop
         vertex 0.0273199 0.00935 0.0219076
         vertex 0.0273199 0.00135 0.0219076
         vertex 0.0274156 0.00135 0.0218569
      endloop
   endfacet
   facet normal 0.515554 0 0.856857
      outer loop
         vertex 0.0274156 0.00935 0.0218569
         vertex 0.0274156 0.00135 0.0218569
         vertex 0.0275052 0.00135 0.0217961
      endloop
   endfacet
   facet normal 0.605174 0 0.796093
      outer loop
         vertex 0.0275052 0.00935 0.0217961
         vertex 0.0275052 0.00135 0.0217961
         vertex 0.0275877 0.00135 0.021726
      endloop
   endfacet
   facet normal 0.687699 0 0.725995
      outer loop
         vertex 0.0275877 0.00935 0.021726
         vertex 0.0275877 0.00135 0.021726
         vertex 0.0276622 0.00135 0.0216474
      endloop
   endfacet
   facet normal 0.762162 0 0.647386
      outer loop
         vertex 0.0276622 0.00935 0.0216474
         vertex 0.0276622 0.00135 0.0216474
         vertex 0.0277277 0.00135 0.0215612
      endloop
   endfacet
   facet normal 0.827689 0 0.561187
      outer loop
         vertex 0.0277277 0.00935 0.0215612
         vertex 0.0277277 0.00135 0.0215612
         vertex 0.0277835 0.00135 0.0214684
      endloop
   endfacet
   facet normal 0.883512 0 0.468408
      outer loop
         vertex 0.0277835 0.00935 0.0214684
         vertex 0.0277835 0.00135 0.0214684
         vertex 0.027829 0.00135 0.0213701
      endloop
   endfacet
   facet normal 0.928977 0 0.370138
      outer loop
         vertex 0.027829 0.00935 0.0213701
         vertex 0.027829 0.00135 0.0213701
         vertex 0.0278635 0.00135 0.0212675
      endloop
   endfacet
   facet normal 0.96355 0 0.267528
      outer loop
         vertex 0.0278635 0.00935 0.0212675
         vertex 0.0278635 0.00135 0.0212675
         vertex 0.0278868 0.00135 0.0211618
      endloop
   endfacet
   facet normal 0.986827 0 0.161782
      outer loop
         vertex 0.0278868 0.00935 0.0211618
         vertex 0.0278868 0.00135 0.0211618
         vertex 0.0278985 0.00135 0.0210541
      endloop
   endfacet
   facet normal 0.998533 0 0.0541389
      outer loop
         vertex 0.0278985 0.00935 0.0210541
         vertex 0.0278985 0.00135 0.0210541
         vertex 0.0278985 0.00135 0.0209459
      endloop
   endfacet
   facet normal 0.998533 0 -0.0541389
      outer loop
         vertex 0.0278985 0.00935 0.0209459
         vertex 0.0278985 0.00135 0.0209459
         vertex 0.0278868 0.00135 0.0208382
      endloop
   endfacet
   facet normal 0.986827 0 -0.161782
      outer loop
         vertex 0.0278868 0.00935 0.0208382
         vertex 0.0278868 0.00135 0.0208382
         vertex 0.0278635 0.00135 0.0207325
      endloop
   endfacet
   facet normal 0.96355 0 -0.267528
      outer loop
         vertex 0.0278635 0.00935 0.0207325
         vertex 0.0278635 0.00135 0.0207325
         vertex 0.027829 0.00135 0.0206299
      endloop
   endfacet
   facet normal 0.928977 0 -0.370138
      outer loop
         vertex 0.027829 0.00935 0.0206299
         vertex 0.027829 0.00135 0.0206299
         vertex 0.0277835 0.00135 0.0205316
      endloop
   endfacet
   facet normal 0.883512 0 -0.468408
      outer loop
         vertex 0.0277835 0.00935 0.0205316
         vertex 0.0277835 0.00135 0.0205316
         vertex 0.0277277 0.00135 0.0204388
      endloop
   endfacet
   facet normal 0.827689 0 -0.561187
      outer loop
         vertex 0.0277277 0.00935 0.0204388
         vertex 0.0277277 0.00135 0.0204388
         vertex 0.0276622 0.00135 0.0203526
      endloop
   endfacet
   facet normal 0.762162 0 -0.647386
      outer loop
         vertex 0.0276622 0.00935 0.0203526
         vertex 0.0276622 0.00135 0.0203526
         vertex 0.0275877 0.00135 0.020274
      endloop
   endfacet
   facet normal 0.687699 0 -0.725995
      outer loop
         vertex 0.0275877 0.00935 0.020274
         vertex 0.0275877 0.00135 0.020274
         vertex 0.0275052 0.00135 0.0202039
      endloop
   endfacet
   facet normal 0.605174 0 -0.796093
      outer loop
         vertex 0.0275052 0.00935 0.0202039
         vertex 0.0275052 0.00135 0.0202039
         vertex 0.0274156 0.00135 0.0201431
      endloop
   endfacet
   facet normal 0.515554 0 -0.856857
      outer loop
         vertex 0.0274156 0.00935 0.0201431
         vertex 0.0274156 0.00135 0.0201431
         vertex 0.0273199 0.00135 0.0200924
      endloop
   endfacet
   facet normal 0.419889 0 -0.907575
      outer loop
         vertex 0.0273199 0.00935 0.0200924
         vertex 0.0273199 0.00135 0.0200924
         vertex 0.0272193 0.00135 0.0200523
      endloop
   endfacet
   facet normal 0.319302 0 -0.947653
      outer loop
         vertex 0.0272193 0.00935 0.0200523
         vertex 0.0272193 0.00135 0.0200523
         vertex 0.027115 0.00135 0.0200234
      endloop
   endfacet
   facet normal 0.21497 0 -0.976621
      outer loop
         vertex 0.027115 0.00935 0.0200234
         vertex 0.027115 0.00135 0.0200234
         vertex 0.0270081 0.00135 0.0200059
      endloop
   endfacet
   facet normal 0.108119 0 -0.994138
      outer loop
         vertex 0.0270081 0.00935 0.0200059
         vertex 0.0270081 0.00135 0.0200059
         vertex 0.0269 0.00135 0.02
      endloop
   endfacet
   facet normal 1.22465e-16 0 -1
      outer loop
         vertex 0.0269 0.00935 0.02
         vertex 0.0269 0.00135 0.02
         vertex 0.0267919 0.00135 0.0200059
      endloop
   endfacet
   facet normal -0.108119 0 -0.994138
      outer loop
         vertex 0.0267919 0.00935 0.0200059
         vertex 0.0267919 0.00135 0.0200059
         vertex 0.026685 0.00135 0.0200234
      endloop
   endfacet
   facet normal -0.21497 0 -0.976621
      outer loop
         vertex 0.026685 0.00935 0.0200234
         vertex 0.026685 0.00135 0.0200234
         vertex 0.0265807 0.00135 0.0200523
      endloop
   endfacet
   facet normal -0.319302 0 -0.947653
      outer loop
         vertex 0.0265807 0.00935 0.0200523
         vertex 0.0265807 0.00135 0.0200523
         vertex 0.0264801 0.00135 0.0200924
      endloop
   endfacet
   facet normal -0.419889 0 -0.907575
      outer loop
         vertex 0.0264801 0.00935 0.0200924
         vertex 0.0264801 0.00135 0.0200924
         vertex 0.0263844 0.00135 0.0201431
      endloop
   endfacet
   facet normal -0.515554 0 -0.856857
      outer loop
         vertex 0.0263844 0.00935 0.0201431
         vertex 0.0263844 0.00135 0.0201431
         vertex 0.0262948 0.00135 0.0202039
      endloop
   endfacet
   facet normal -0.605174 0 -0.796093
      outer loop
         vertex 0.0262948 0.00935 0.0202039
         vertex 0.0262948 0.00135 0.0202039
         vertex 0.0262123 0.00135 0.020274
      endloop
   endfacet
   facet normal -0.687699 0 -0.725995
      outer loop
         vertex 0.0262123 0.00935 0.020274
         vertex 0.0262123 0.00135 0.020274
         vertex 0.0261378 0.00135 0.0203526
      endloop
   endfacet
   facet normal -0.762162 0 -0.647386
      outer loop
         vertex 0.0261378 0.00935 0.0203526
         vertex 0.0261378 0.00135 0.0203526
         vertex 0.0260723 0.00135 0.0204388
      endloop
   endfacet
   facet normal -0.827689 0 -0.561187
      outer loop
         vertex 0.0260723 0.00935 0.0204388
         vertex 0.0260723 0.00135 0.0204388
         vertex 0.0260165 0.00135 0.0205316
      endloop
   endfacet
   facet normal -0.883512 0 -0.468408
      outer loop
         vertex 0.0260165 0.00935 0.0205316
         vertex 0.0260165 0.00135 0.0205316
         vertex 0.025971 0.00135 0.0206299
      endloop
   endfacet
   facet normal -0.928977 0 -0.370138
      outer loop
         vertex 0.025971 0.00935 0.0206299
         vertex 0.025971 0.00135 0.0206299
         vertex 0.0259365 0.00135 0.0207325
      endloop
   endfacet
   facet normal -0.96355 0 -0.267528
      outer loop
         vertex 0.0259365 0.00935 0.0207325
         vertex 0.0259365 0.00135 0.0207325
         vertex 0.0259132 0.00135 0.0208382
      endloop
   endfacet
   facet normal -0.986827 0 -0.161782
      outer loop
         vertex 0.0259132 0.00935 0.0208382
         vertex 0.0259132 0.00135 0.0208382
         vertex 0.0259015 0.00135 0.0209459
      endloop
   endfacet
   facet normal -0.998533 0 -0.0541389
      outer loop
         vertex 0.0259015 0.00935 0.0209459
         vertex 0.0259015 0.00135 0.0209459
         vertex 0.0259015 0.00135 0.0210541
      endloop
   endfacet
   facet normal -0.998533 0 0.0541389
      outer loop
         vertex 0.0259015 0.00935 0.0210541
         vertex 0.0259015 0.00135 0.0210541
         vertex 0.0259132 0.00135 0.0211618
      endloop
   endfacet
   facet normal -0.986827 0 0.161782
      outer loop
         vertex 0.0259132 0.00935 0.0211618
         vertex 0.0259132 0.00135 0.0211618
         vertex 0.0259365 0.00135 0.0212675
      endloop
   endfacet
   facet normal -0.96355 0 0.267528
      outer loop
         vertex 0.0259365 0.00935 0.0212675
         vertex 0.0259365 0.00135 0.0212675
         vertex 0.025971 0.00135 0.0213701
      endloop
   endfacet
   facet normal -0.928977 0 0.370138
      outer loop
         vertex 0.025971 0.00935 0.0213701
         vertex 0.025971 0.00135 0.0213701
         vertex 0.0260165 0.00135 0.0214684
      endloop
   endfacet
   facet normal -0.883512 0 0.468408
      outer loop
         vertex 0.0260165 0.00935 0.0214684
         vertex 0.0260165 0.00135 0.0214684
         vertex 0.0260723 0.00135 0.0215612
      endloop
   endfacet
   facet normal -0.827689 0 0.561187
      outer loop
         vertex 0.0260723 0.00935 0.0215612
         vertex 0.0260723 0.00135 0.0215612
         vertex 0.0261378 0.00135 0.0216474
      endloop
   endfacet
   facet normal -0.762162 0 0.647386
      outer loop
         vertex 0.0261378 0.00935 0.0216474
         vertex 0.0261378 0.00135 0.0216474
         vertex 0.0262123 0.00135 0.021726
      endloop
   endfacet
   facet normal -0.687699 0 0.725995
      outer loop
         vertex 0.0262123 0.00935 0.021726
         vertex 0.0262123 0.00135 0.021726
         vertex 0.0262948 0.00135 0.0217961
      endloop
   endfacet
   facet normal -0.605174 0 0.796093
      outer loop
         vertex 0.0262948 0.00935 0.0217961
         vertex 0.0262948 0.00135 0.0217961
         vertex 0.0263844 0.00135 0.0218569
      endloop
   endfacet
   facet normal -0.515554 0 0.856857
      outer loop
         vertex 0.0263844 0.00935 0.0218569
         vertex 0.0263844 0.00135 0.0218569
         vertex 0.0264801 0.00135 0.0219076
      endloop
   endfacet
   facet normal -0.419889 0 0.907575
      outer loop
         vertex 0.0264801 0.00935 0.0219076
         vertex 0.0264801 0.00135 0.0219076
         vertex 0.0265807 0.00135 0.0219477
      endloop
   endfacet
   facet normal -0.319302 0 0.947653
      outer loop
         vertex 0.0265807 0.00935 0.0219477
         vertex 0.0265807 0.00135 0.0219477
         vertex 0.026685 0.00135 0.0219766
      endloop
   endfacet
   facet normal -0.21497 0 0.976621
      outer loop
         vertex 0.026685 0.00935 0.0219766
         vertex 0.026685 0.00135 0.0219766
         vertex 0.0267919 0.00135 0.0219941
      endloop
   endfacet
   facet normal -0.108119 0 0.994138
      outer loop
         vertex 0.0267919 0.00935 0.0219941
         vertex 0.0267919 0.00135 0.0219941
         vertex 0.0269 0.00135 0.022
      endloop
   endfacet
   facet normal 0 0 1
      outer loop
         vertex 0.0269 0.00135 0.022
         vertex 0.0269 0.00935 0.022
         vertex 0.0267919 0.00935 0.0219941
      endloop
   endfacet
   facet normal -0.108119 0 0.994138
      outer loop
         vertex 0.0267919 0.00135 0.0219941
         vertex 0.0267919 0.00935 0.0219941
         vertex 0.026685 0.00935 0.0219766
      endloop
   endfacet
   facet normal -0.21497 0 0.976621
      outer loop
         vertex 0.026685 0.00135 0.0219766
         vertex 0.026685 0.00935 0.0219766
         vertex 0.0265807 0.00935 0.0219477
      endloop
   endfacet
   facet normal -0.319302 0 0.947653
      outer loop
         vertex 0.0265807 0.00135 0.0219477
         vertex 0.0265807 0.00935 0.0219477
         vertex 0.0264801 0.00935 0.0219076
      endloop
   endfacet
   facet normal -0.419889 0 0.907575
      outer loop
         vertex 0.0264801 0.00135 0.0219076
         vertex 0.0264801 0.00935 0.0219076
         vertex 0.0263844 0.00935 0.0218569
      endloop
   endfacet
   facet normal -0.515554 0 0.856857
      outer loop
         vertex 0.0263844 0.00135 0.0218569
         vertex 0.0263844 0.00935 0.0218569
         vertex 0.0262948 0.00935 0.0217961
      endloop
   endfacet
   facet normal -0.605174 0 0.796093
      outer loop
         vertex 0.0262948 0.00135 0.0217961
         vertex 0.0262948 0.00935 0.0217961
         vertex 0.0262123 0.00935 0.021726
      endloop
   endfacet
   facet normal -0.687699 0 0.725995
      outer loop
         vertex 0.0262123 0.00135 0.021726
         vertex 0.0262123 0.00935 0.021726
         vertex 0.0261378 0.00935 0.0216474
      endloop
   endfacet
   facet normal -0.762162 0 0.647386
      outer loop
         vertex 0.0261378 0.00135 0.0216474
         vertex 0.0261378 0.00935 0.0216474
         vertex 0.0260723 0.00935 0.0215612
      endloop
   endfacet
   facet normal -0.827689 0 0.561187
      outer loop
         vertex 0.0260723 0.00135 0.0215612
         vertex 0.0260723 0.00935 0.0215612
         vertex 0.0260165 0.00935 0.0214684
      endloop
   endfacet
   facet normal -0.883512 0 0.468408
      outer loop
         vertex 0.0260165 0.00135 0.0214684
         vertex 0.0260165 0.00935 0.0214684
         vertex 0.025971 0.00935 0.0213701
      endloop
   endfacet
   facet normal -0.928977 0 0.370138
      outer loop
         vertex 0.025971 0.00135 0.0213701
         vertex 0.025971 0.00935 0.0213701
         vertex 0.0259365 0.00935 0.0212675
      endloop
   endfacet
   facet normal -0.96355 0 0.267528
      outer loop
         vertex 0.0259365 0.00135 0.0212675
         vertex 0.0259365 0.00935 0.0212675
         vertex 0.0259132 0.00935 0.0211618
      endloop
   endfacet
   facet normal -0.986827 0 0.161782
      outer loop
         vertex 0.0259132 0.00135 0.0211618
         vertex 0.0259132 0.00935 0.0211618
         vertex 0.0259015 0.00935 0.0210541
      endloop
   endfacet
   facet normal -0.998533 0 0.0541389
      outer loop
         vertex 0.0259015 0.00135 0.0210541
         vertex 0.0259015 0.00935 0.0210541
         vertex 0.0259015 0.00935 0.0209459
      endloop
   endfacet
   facet normal -0.998533 0 -0.0541389
      outer loop
         vertex 0.0259015 0.00135 0.0209459
         vertex 0.0259015 0.00935 0.0209459
         vertex 0.0259132 0.00935 0.0208382
      endloop
   endfacet
   facet normal -0.986827 0 -0.161782
      outer loop
         vertex 0.0259132 0.00135 0.0208382
         vertex 0.0259132 0.00935 0.0208382
         vertex 0.0259365 0.00935 0.0207325
      endloop
   endfacet
   facet normal -0.96355 0 -0.267528
      outer loop
         vertex 0.0259365 0.00135 0.0207325
         vertex 0.0259365 0.00935 0.0207325
         vertex 0.025971 0.00935 0.0206299
      endloop
   endfacet
   facet normal -0.928977 0 -0.370138
      outer loop
         vertex 0.025971 0.00135 0.0206299
         vertex 0.025971 0.00935 0.0206299
         vertex 0.0260165 0.00935 0.0205316
      endloop
   endfacet
   facet normal -0.883512 0 -0.468408
      outer loop
         vertex 0.0260165 0.00135 0.0205316
         vertex 0.0260165 0.00935 0.0205316
         vertex 0.0260723 0.00935 0.0204388
      endloop
   endfacet
   facet normal -0.827689 0 -0.561187
      outer loop
         vertex 0.0260723 0.00135 0.0204388
         vertex 0.0260723 0.00935 0.0204388
         vertex 0.0261378 0.00935 0.0203526
      endloop
   endfacet
   facet normal -0.762162 0 -0.647386
      outer loop
         vertex 0.0261378 0.00135 0.0203526
         vertex 0.0261378 0.00935 0.0203526
         vertex 0.0262123 0.00935 0.020274
      endloop
   endfacet
   facet normal -0.687699 0 -0.725995
      outer loop
         vertex 0.0262123 0.00135 0.020274
         vertex 0.0262123 0.00935 0.020274
         vertex 0.0262948 0.00935 0.0202039
      endloop
   endfacet
   facet normal -0.605174 0 -0.796093
      outer loop
         vertex 0.0262948 0.00135 0.0202039
         vertex 0.0262948 0.00935 0.0202039
         vertex 0.0263844 0.00935 0.0201431
      endloop
   endfacet
   facet normal -0.515554 0 -0.856857
      outer loop
         vertex 0.0263844 0.00135 0.0201431
         vertex 0.0263844 0.00935 0.0201431
         vertex 0.0264801 0.00935 0.0200924
      endloop
   endfacet
   facet normal -0.419889 0 -0.907575
      outer loop
         vertex 0.0264801 0.00135 0.0200924
         vertex 0.0264801 0.00935 0.0200924
         vertex 0.0265807 0.00935 0.0200523
      endloop
   endfacet
   facet normal -0.319302 0 -0.947653
      outer loop
         vertex 0.0265807 0.00135 0.0200523
         vertex 0.0265807 0.00935 0.0200523
         vertex 0.026685 0.00935 0.0200234
      endloop
   endfacet
   facet normal -0.21497 0 -0.976621
      outer loop
         vertex 0.026685 0.00135 0.0200234
         vertex 0.026685 0.00935 0.0200234
         vertex 0.0267919 0.00935 0.0200059
      endloop
   endfacet
   facet normal -0.108119 0 -0.994138
      outer loop
         vertex 0.0267919 0.00135 0.0200059
         vertex 0.0267919 0.00935 0.0200059
         vertex 0.0269 0.00935 0.02
      endloop
   endfacet
   facet normal 1.22465e-16 0 -1
      outer loop
         vertex 0.0269 0.00135 0.02
         vertex 0.0269 0.00935 0.02
         vertex 0.0270081 0.00935 0.0200059
      endloop
   endfacet
   facet normal 0.108119 0 -0.994138
      outer loop
         vertex 0.0270081 0.00135 0.0200059
         vertex 0.0270081 0.00935 0.0200059
         vertex 0.027115 0.00935 0.0200234
      endloop
   endfacet
   facet normal 0.21497 0 -0.976621
      outer loop
         vertex 0.027115 0.00135 0.0200234
         vertex 0.027115 0.00935 0.0200234
         vertex 0.0272193 0.00935 0.0200523
      endloop
   endfacet
   facet normal 0.319302 0 -0.947653
      outer loop
         vertex 0.0272193 0.00135 0.0200523
         vertex 0.0272193 0.00935 0.0200523
         vertex 0.0273199 0.00935 0.0200924
      endloop
   endfacet
   facet normal 0.419889 0 -0.907575
      outer loop
         vertex 0.0273199 0.00135 0.0200924
         vertex 0.0273199 0.00935 0.0200924
         vertex 0.0274156 0.00935 0.0201431
      endloop
   endfacet
   facet normal 0.515554 0 -0.856857
      outer loop
         vertex 0.0274156 0.00135 0.0201431
         vertex 0.0274156 0.00935 0.0201431
         vertex 0.0275052 0.00935 0.0202039
      endloop
   endfacet
   facet normal 0.605174 0 -0.796093
      outer loop
         vertex 0.0275052 0.00135 0.0202039
         vertex 0.0275052 0.00935 0.0202039
         vertex 0.0275877 0.00935 0.020274
      endloop
   endfacet
   facet normal 0.687699 0 -0.725995
      outer loop
         vertex 0.0275877 0.00135 0.020274
         vertex 0.0275877 0.00935 0.020274
         vertex 0.0276622 0.00935 0.0203526
      endloop
   endfacet
   facet normal 0.762162 0 -0.647386
      outer loop
         vertex 0.0276622 0.00135 0.0203526
         vertex 0.0276622 0.00935 0.0203526
         vertex 0.0277277 0.00935 0.0204388
      endloop
   endfacet
   facet normal 0.827689 0 -0.561187
      outer loop
         vertex 0.0277277 0.00135 0.0204388
         vertex 0.0277277 0.00935 0.0204388
         vertex 0.0277835 0.00935 0.0205316
      endloop
   endfacet
   facet normal 0.883512 0 -0.468408
      outer loop
         vertex 0.0277835 0.00135 0.0205316
         vertex 0.0277835 0.00935 0.0205316
         vertex 0.027829 0.00935 0.0206299
      endloop
   endfacet
   facet normal 0.928977 0 -0.370138
      outer loop
         vertex 0.027829 0.00135 0.0206299
         vertex 0.027829 0.00935 0.0206299
         vertex 0.0278635 0.00935 0.0207325
      endloop
   endfacet
   facet normal 0.96355 0 -0.267528
      outer loop
         vertex 0.0278635 0.00135 0.0207325
         vertex 0.0278635 0.00935 0.0207325
         vertex 0.0278868 0.00935 0.0208382
      endloop
   endfacet
   facet normal 0.986827 0 -0.161782
      outer loop
         vertex 0.0278868 0.00135 0.0208382
         vertex 0.0278868 0.00935 0.0208382
         vertex 0.0278985 0.00935 0.0209459
      endloop
   endfacet
   facet normal 0.998533 0 -0.0541389
      outer loop
         vertex 0.0278985 0.00135 0.0209459
         vertex 0.0278985 0.00935 0.0209459
         vertex 0.0278985 0.00935 0.0210541
      endloop
   endfacet
   facet normal 0.998533 0 0.0541389
      outer loop
         vertex 0.0278985 0.00135 0.0210541
         vertex 0.0278985 0.00935 0.0210541
         vertex 0.0278868 0.00935 0.0211618
      endloop
   endfacet
   facet normal 0.986827 0 0.161782
      outer loop
         vertex 0.0278868 0.00135 0.0211618
         vertex 0.0278868 0.00935 0.0211618
         vertex 0.0278635 0.00935 0.0212675
      endloop
   endfacet
   facet normal 0.96355 0 0.267528
      outer loop
         vertex 0.0278635 0.00135 0.0212675
         vertex 0.0278635 0.00935 0.0212675
         vertex 0.027829 0.00935 0.0213701
      endloop
   endfacet
   facet normal 0.928977 0 0.370138
      outer loop
         vertex 0.027829 0.00135 0.0213701
         vertex 0.027829 0.00935 0.0213701
         vertex 0.0277835 0.00935 0.0214684
      endloop
   endfacet
   facet normal 0.883512 0 0.468408
      outer loop
         vertex 0.0277835 0.00135 0.0214684
         vertex 0.0277835 0.00935 0.0214684
         vertex 0.0277277 0.00935 0.0215612
      endloop
   endfacet
   facet normal 0.827689 0 0.561187
      outer loop
         vertex 0.0277277 0.00135 0.0215612
         vertex 0.0277277 0.00935 0.0215612
         vertex 0.0276622 0.00935 0.0216474
      endloop
   endfacet
   facet normal 0.762162 0 0.647386
      outer loop
         vertex 0.0276622 0.00135 0.0216474
         vertex 0.0276622 0.00935 0.0216474
         vertex 0.0275877 0.00935 0.021726
      endloop
   endfacet
   facet normal 0.687699 0 0.725995
      outer loop
         vertex 0.0275877 0.00135 0.021726
         vertex 0.0275877 0.00935 0.021726
         vertex 0.0275052 0.00935 0.0217961
      endloop
   endfacet
   facet normal 0.605174 0 0.796093
      outer loop
         vertex 0.0275052 0.00135 0.0217961
         vertex 0.0275052 0.00935 0.0217961
         vertex 0.0274156 0.00935 0.0218569
      endloop
   endfacet
   facet normal 0.515554 0 0.856857
      outer loop
         vertex 0.0274156 0.00135 0.0218569
         vertex 0.0274156 0.00935 0.0218569
         vertex 0.0273199 0.00935 0.0219076
      endloop
   endfacet
   facet normal 0.419889 0 0.907575
      outer loop
         vertex 0.0273199 0.00135 0.0219076
         vertex 0.0273199 0.00935 0.0219076
         vertex 0.0272193 0.00935 0.0219477
      endloop
   endfacet
   facet normal 0.319302 0 0.947653
      outer loop
         vertex 0.0272193 0.00135 0.0219477
         vertex 0.0272193 0.00935 0.0219477
         vertex 0.027115 0.00935 0.0219766
      endloop
   endfacet
   facet normal 0.21497 0 0.976621
      outer loop
         vertex 0.027115 0.00135 0.0219766
         vertex 0.027115 0.00935 0.0219766
         vertex 0.0270081 0.00935 0.0219941
      endloop
   endfacet
   facet normal 0.108119 0 0.994138
      outer loop
         vertex 0.0270081 0.00135 0.0219941
         vertex 0.0270081 0.00935 0.0219941
         vertex 0.0269 0.00935 0.022
      endloop
   endfacet
   facet normal 0 1 0
      outer loop
         vertex 0.0269 0.00935 0.021
         vertex 0.0270081 0.00935 0.0219941
         vertex 0.027115 0.00935 0.0219766
      endloop
   endfacet
   facet normal 0 1 0
      outer loop
         vertex 0.027115 0.00935 0.0219766
         vertex 0.0272193 0.00935 0.0219477
         vertex 0.0269 0.00935 0.021
      endloop
   endfacet
   facet normal 0 1 0
      outer loop
         vertex 0.0272193 0.00935 0.0219477
         vertex 0.0273199 0.00935 0.0219076
         vertex 0.0269 0.00935 0.021
      endloop
   endfacet
   facet normal 0 1 0
      outer loop
         vertex 0.0273199 0.00935 0.0219076
         vertex 0.0274156 0.00935 0.0218569
         vertex 0.0269 0.00935 0.021
      endloop
   endfacet
   facet normal 0 1 0
      outer loop
         vertex 0.0274156 0.00935 0.0218569
         vertex 0.0275052 0.00935 0.0217961
         vertex 0.0269 0.00935 0.021
      endloop
   endfacet
   facet normal 0 1 0
      outer loop
         vertex 0.0275052 0.00935 0.0217961
         vertex 0.0275877 0.00935 0.021726
         vertex 0.0269 0.00935 0.021
      endloop
   endfacet
   facet normal 0 1 0
      outer loop
         vertex 0.0275877 0.00935 0.021726
         vertex 0.0276622 0.00935 0.0216474
         vertex 0.0269 0.00935 0.021
      endloop
   endfacet
   facet normal 0 1 0
      outer loop
         vertex 0.0276622 0.00935 0.0216474
         vertex 0.0277277 0.00935 0.0215612
         vertex 0.0269 0.00935 0.021
      endloop
   endfacet
   facet normal 0 1 0
      outer loop
         vertex 0.0277277 0.00935 0.0215612
         vertex 0.0277835 0.00935 0.0214684
         vertex 0.0269 0.00935 0.021
      endloop
   endfacet
   facet normal 0 1 0
      outer loop
         vertex 0.0277835 0.00935 0.0214684
         vertex 0.027829 0.00935 0.0213701
         vertex 0.0269 0.00935 0.021
      endloop
   endfacet
   facet normal 0 1 0
      outer loop
         vertex 0.027829 0.00935 0.0213701
         vertex 0.0278635 0.00935 0.0212675
         vertex 0.0269 0.00935 0.021
      endloop
   endfacet
   facet normal 0 1 0
      outer loop
         vertex 0.0278635 0.00935 0.0212675
         vertex 0.0278868 0.00935 0.0211618
         vertex 0.0269 0.00935 0.021
      endloop
   endfacet
   facet normal 0 1 0
      outer loop
         vertex 0.0278868 0.00935 0.0211618
         vertex 0.0278985 0.00935 0.0210541
         vertex 0.0269 0.00935 0.021
      endloop
   endfacet
   facet normal 0 1 0
      outer loop
         vertex 0.0278985 0.00935 0.0210541
         vertex 0.0278985 0.00935 0.0209459
         vertex 0.0269 0.00935 0.021
      endloop
   endfacet
   facet normal 0 1 0
      outer loop
         vertex 0.0278985 0.00935 0.0209459
         vertex 0.0278868 0.00935 0.0208382
         vertex 0.0269 0.00935 0.021
      endloop
   endfacet
   facet normal 0 1 0
      outer loop
         vertex 0.0278868 0.00935 0.0208382
         vertex 0.0278635 0.00935 0.0207325
         vertex 0.0269 0.00935 0.021
      endloop
   endfacet
   facet normal 0 1 0
      outer loop
         vertex 0.0278635 0.00935 0.0207325
         vertex 0.027829 0.00935 0.0206299
         vertex 0.0269 0.00935 0.021
      endloop
   endfacet
   facet normal 0 1 0
      outer loop
         vertex 0.027829 0.00935 0.0206299
         vertex 0.0277835 0.00935 0.0205316
         vertex 0.0269 0.00935 0.021
      endloop
   endfacet
   facet normal 0 1 0
      outer loop
         vertex 0.0277835 0.00935 0.0205316
         vertex 0.0277277 0.00935 0.0204388
         vertex 0.0269 0.00935 0.021
      endloop
   endfacet
   facet normal 0 1 0
      outer loop
         vertex 0.0277277 0.00935 0.0204388
         vertex 0.0276622 0.00935 0.0203526
         vertex 0.0269 0.00935 0.021
      endloop
   endfacet
   facet normal 0 1 0
      outer loop
         vertex 0.0276622 0.00935 0.0203526
         vertex 0.0275877 0.00935 0.020274
         vertex 0.0269 0.00935 0.021
      endloop
   endfacet
   facet normal 0 1 0
      outer loop
         vertex 0.0275877 0.00935 0.020274
         vertex 0.0275052 0.00935 0.0202039
         vertex 0.0269 0.00935 0.021
      endloop
   endfacet
   facet normal 0 1 0
      outer loop
         vertex 0.0275052 0.00935 0.0202039
         vertex 0.0274156 0.00935 0.0201431
         vertex 0.0269 0.00935 0.021
      endloop
   endfacet
   facet normal 0 1 0
      outer loop
         vertex 0.0274156 0.00935 0.0201431
         vertex 0.0273199 0.00935 0.0200924
         vertex 0.0269 0.00935 0.021
      endloop
   endfacet
   facet normal 0 1 0
      outer loop
         vertex 0.0273199 0.00935 0.0200924
         vertex 0.0272193 0.00935 0.0200523
         vertex 0.0269 0.00935 0.021
      endloop
   endfacet
   facet normal 0 1 0
      outer loop
         vertex 0.0272193 0.00935 0.0200523
         vertex 0.027115 0.00935 0.0200234
         vertex 0.0269 0.00935 0.021
      endloop
   endfacet
   facet normal 0 1 0
      outer loop
         vertex 0.027115 0.00935 0.0200234
         vertex 0.0270081 0.00935 0.0200059
         vertex 0.0269 0.00935 0.021
      endloop
   endfacet
   facet normal 0 1 0
      outer loop
         vertex 0.0270081 0.00935 0.0200059
         vertex 0.0269 0.00935 0.02
         vertex 0.0269 0.00935 0.021
      endloop
   endfacet
   facet normal 0 1 0
      outer loop
         vertex 0.0269 0.00935 0.02
         vertex 0.0267919 0.00935 0.0200059
         vertex 0.0269 0.00935 0.021
      endloop
   endfacet
   facet normal 0 1 0
      outer loop
         vertex 0.0267919 0.00935 0.0200059
         vertex 0.026685 0.00935 0.0200234
         vertex 0.0269 0.00935 0.021
      endloop
   endfacet
   facet normal 0 1 0
      outer loop
         vertex 0.026685 0.00935 0.0200234
         vertex 0.0265807 0.00935 0.0200523
         vertex 0.0269 0.00935 0.021
      endloop
   endfacet
   facet normal 0 1 0
      outer loop
         vertex 0.0265807 0.00935 0.0200523
         vertex 0.0264801 0.00935 0.0200924
         vertex 0.0269 0.00935 0.021
      endloop
   endfacet
   facet normal 0 1 0
      outer loop
         vertex 0.0264801 0.00935 0.0200924
         vertex 0.0263844 0.00935 0.0201431
         vertex 0.0269 0.00935 0.021
      endloop
   endfacet
   facet normal 0 1 0
      outer loop
         vertex 0.0263844 0.00935 0.0201431
         vertex 0.0262948 0.00935 0.0202039
         vertex 0.0269 0.00935 0.021
      endloop
   endfacet
   facet normal 0 1 0
      outer loop
         vertex 0.0262948 0.00935 0.0202039
         vertex 0.0262123 0.00935 0.020274
         vertex 0.0269 0.00935 0.021
      endloop
   endfacet
   facet normal 0 1 0
      outer loop
         vertex 0.0262123 0.00935 0.020274
         vertex 0.0261378 0.00935 0.0203526
         vertex 0.0269 0.00935 0.021
      endloop
   endfacet
   facet normal 0 1 0
      outer loop
         vertex 0.0261378 0.00935 0.0203526
         vertex 0.0260723 0.00935 0.0204388
         vertex 0.0269 0.00935 0.021
      endloop
   endfacet
   facet normal 0 1 0
      outer loop
         vertex 0.0260723 0.00935 0.0204388
         vertex 0.0260165 0.00935 0.0205316
         vertex 0.0269 0.00935 0.021
      endloop
   endfacet
   facet normal 0 1 0
      outer loop
         vertex 0.0260165 0.00935 0.0205316
         vertex 0.025971 0.00935 0.0206299
         vertex 0.0269 0.00935 0.021
      endloop
   endfacet
   facet normal 0 1 0
      outer loop
         vertex 0.025971 0.00935 0.0206299
         vertex 0.0259365 0.00935 0.0207325
         vertex 0.0269 0.00935 0.021
      endloop
   endfacet
   facet normal 0 1 0
      outer loop
         vertex 0.0259365 0.00935 0.0207325
         vertex 0.0259132 0.00935 0.0208382
         vertex 0.0269 0.00935 0.021
      endloop
   endfacet
   facet normal 0 1 0
      outer loop
         vertex 0.0259132 0.00935 0.0208382
         vertex 0.0259015 0.00935 0.0209459
         vertex 0.0269 0.00935 0.021
      endloop
   endfacet
   facet normal 0 1 0
      outer loop
         vertex 0.0259015 0.00935 0.0209459
         vertex 0.0259015 0.00935 0.0210541
         vertex 0.0269 0.00935 0.021
      endloop
   endfacet
   facet normal 0 1 0
      outer loop
         vertex 0.0259015 0.00935 0.0210541
         vertex 0.0259132 0.00935 0.0211618
         vertex 0.0269 0.00935 0.021
      endloop
   endfacet
   facet normal 0 1 0
      outer loop
         vertex 0.0259132 0.00935 0.0211618
         vertex 0.0259365 0.00935 0.0212675
         vertex 0.0269 0.00935 0.021
      endloop
   endfacet
   facet normal 0 1 0
      outer loop
         vertex 0.0259365 0.00935 0.0212675
         vertex 0.025971 0.00935 0.0213701
         vertex 0.0269 0.00935 0.021
      endloop
   endfacet
   facet normal 0 1 0
      outer loop
         vertex 0.025971 0.00935 0.0213701
         vertex 0.0260165 0.00935 0.0214684
         vertex 0.0269 0.00935 0.021
      endloop
   endfacet
   facet normal 0 1 0
      outer loop
         vertex 0.0260165 0.00935 0.0214684
         vertex 0.0260723 0.00935 0.0215612
         vertex 0.0269 0.00935 0.021
      endloop
   endfacet
   facet normal 0 1 0
      outer loop
         vertex 0.0260723 0.00935 0.0215612
         vertex 0.0261378 0.00935 0.0216474
         vertex 0.0269 0.00935 0.021
      endloop
   endfacet
   facet normal 0 1 0
      outer loop
         vertex 0.0261378 0.00935 0.0216474
         vertex 0.0262123 0.00935 0.021726
         vertex 0.0269 0.00935 0.021
      endloop
   endfacet
   facet normal 0 1 0
      outer loop
         vertex 0.0262123 0.00935 0.021726
         vertex 0.0262948 0.00935 0.0217961
         vertex 0.0269 0.00935 0.021
      endloop
   endfacet
   facet normal 0 1 0
      outer loop
         vertex 0.0262948 0.00935 0.0217961
         vertex 0.0263844 0.00935 0.0218569
         vertex 0.0269 0.00935 0.021
      endloop
   endfacet
   facet normal 0 1 0
      outer loop
         vertex 0.0263844 0.00935 0.0218569
         vertex 0.0264801 0.00935 0.0219076
         vertex 0.0269 0.00935 0.021
      endloop
   endfacet
   facet normal 0 1 0
      outer loop
         vertex 0.0264801 0.00935 0.0219076
         vertex 0.0265807 0.00935 0.0219477
         vertex 0.0269 0.00935 0.021
      endloop
   endfacet
   facet normal 0 1 0
      outer loop
         vertex 0.0265807 0.00935 0.0219477
         vertex 0.026685 0.00935 0.0219766
         vertex 0.0269 0.00935 0.021
      endloop
   endfacet
   facet normal 0 1 0
      outer loop
         vertex 0.026685 0.00935 0.0219766
         vertex 0.0267919 0.00935 0.0219941
         vertex 0.0269 0.00935 0.021
      endloop
   endfacet
   facet normal 0 1 0
      outer loop
         vertex 0.0267919 0.00935 0.0219941
         vertex 0.0269 0.00935 0.022
         vertex 0.0269 0.00935 0.021
      endloop
   endfacet
   facet normal 0 1 0
      outer loop
         vertex 0.0269 0.00935 0.022
         vertex 0.0270081 0.00935 0.0219941
         vertex 0.0269 0.00935 0.021
      endloop
   endfacet
endsolid 000. Units = meters