solid 064-0267-000_1. STL generated by ONSHAPE BY PTC INC, 1.216. Units = meters
   facet normal 0 -1 0
      outer loop
         vertex -0.00496 -0.000105 0.0008
         vertex -0.00466 -0.000105 0.0008
         vertex -0.00466 -0.000105 0.004
      endloop
   endfacet
   facet normal 0 -1 0
      outer loop
         vertex -0.00466 -0.000105 0.004
         vertex -0.00496 -0.000105 0.0043
         vertex -0.00496 -0.000105 0.0008
      endloop
   endfacet
   facet normal 1 0 0
      outer loop
         vertex -0.00466 0.00072 0.004
         vertex -0.00466 -0.000105 0.004
         vertex -0.00466 -0.000105 0.0008
      endloop
   endfacet
   facet normal 1 0 0
      outer loop
         vertex -0.00466 -0.000105 0.0008
         vertex -0.00466 0.00072 0.0008
         vertex -0.00466 0.00072 0.004
      endloop
   endfacet
   facet normal 0.707107 0 0.707107
      outer loop
         vertex -0.00466 -0.000105 0.004
         vertex -0.00466 0.00072 0.004
         vertex -0.00476 0.00072 0.0041
      endloop
   endfacet
   facet normal 0.707107 0 0.707107
      outer loop
         vertex -0.00476 0.00072 0.0041
         vertex -0.00496 -0.000105 0.0043
         vertex -0.00466 -0.000105 0.004
      endloop
   endfacet
   facet normal 0.707107 0 0.707107
      outer loop
         vertex -0.00476 0.00072 0.0041
         vertex -0.00496 0.00092 0.0043
         vertex -0.00496 -0.000105 0.0043
      endloop
   endfacet
   facet normal 0 -0.707107 0.707107
      outer loop
         vertex -0.003225 0.00092 0.0043
         vertex -0.00496 0.00092 0.0043
         vertex -0.00476 0.00072 0.0041
      endloop
   endfacet
   facet normal 0 -0.707107 0.707107
      outer loop
         vertex -0.00476 0.00072 0.0041
         vertex -0.003225 0.00072 0.0041
         vertex -0.003225 0.00092 0.0043
      endloop
   endfacet
   facet normal 1 0 0
      outer loop
         vertex -0.00496 -0.000105 0.0043
         vertex -0.00496 -0.000855 0.0043
         vertex -0.00496 -0.000855 0.0008
      endloop
   endfacet
   facet normal 1 0 0
      outer loop
         vertex -0.00496 -0.000855 0.0008
         vertex -0.00496 -0.000105 0.0008
         vertex -0.00496 -0.000105 0.0043
      endloop
   endfacet
   facet normal 1 0 0
      outer loop
         vertex -0.003225 0.00112 0.0029
         vertex -0.003225 0.00112 0.0043
         vertex -0.003225 0.00072 0.0041
      endloop
   endfacet
   facet normal 1 0 0
      outer loop
         vertex -0.003225 0.00112 0.0043
         vertex -0.003225 0.00092 0.0043
         vertex -0.003225 0.00072 0.0041
      endloop
   endfacet
   facet normal 1 0 0
      outer loop
         vertex -0.003225 0.00072 0.0041
         vertex -0.003225 0.00072 0.0029
         vertex -0.003225 0.00112 0.0029
      endloop
   endfacet
   facet normal 0 0 1
      outer loop
         vertex -0.003025 0.00112 0.0029
         vertex -0.003225 0.00112 0.0029
         vertex -0.003225 0.00072 0.0029
      endloop
   endfacet
   facet normal 0 0 1
      outer loop
         vertex -0.003225 0.00072 0.0029
         vertex -0.003025 0.00072 0.0029
         vertex -0.003025 0.00112 0.0029
      endloop
   endfacet
   facet normal -1 0 0
      outer loop
         vertex -0.003025 0.00112 0.0029
         vertex -0.003025 0.00072 0.0029
         vertex -0.003025 0.00072 0.0041
      endloop
   endfacet
   facet normal -1 0 0
      outer loop
         vertex -0.003025 0.00072 0.0041
         vertex -0.003025 0.00112 0.0043
         vertex -0.003025 0.00112 0.0029
      endloop
   endfacet
   facet normal -1 0 0
      outer loop
         vertex -0.003025 0.00072 0.0041
         vertex -0.003025 0.00092 0.0043
         vertex -0.003025 0.00112 0.0043
      endloop
   endfacet
   facet normal 0 -0.707107 0.707107
      outer loop
         vertex -0.003025 0.00092 0.0043
         vertex -0.003025 0.00072 0.0041
         vertex -0.000725 0.00072 0.0041
      endloop
   endfacet
   facet normal 0 -0.707107 0.707107
      outer loop
         vertex -0.000725 0.00072 0.0041
         vertex -0.000725 0.00092 0.0043
         vertex -0.003025 0.00092 0.0043
      endloop
   endfacet
   facet normal 0 0 1
      outer loop
         vertex -0.003025 0.00112 0.0043
         vertex -0.003025 0.00092 0.0043
         vertex -0.000725 0.00092 0.0043
      endloop
   endfacet
   facet normal 0 0 1
      outer loop
         vertex -0.000725 0.00092 0.0043
         vertex -0.000725 0.00112 0.0043
         vertex -0.003025 0.00112 0.0043
      endloop
   endfacet
   facet normal 1 0 0
      outer loop
         vertex -0.000725 0.00112 0.0029
         vertex -0.000725 0.00112 0.0043
         vertex -0.000725 0.00072 0.0041
      endloop
   endfacet
   facet normal 1 0 0
      outer loop
         vertex -0.000725 0.00112 0.0043
         vertex -0.000725 0.00092 0.0043
         vertex -0.000725 0.00072 0.0041
      endloop
   endfacet
   facet normal 1 0 0
      outer loop
         vertex -0.000725 0.00072 0.0041
         vertex -0.000725 0.00072 0.0029
         vertex -0.000725 0.00112 0.0029
      endloop
   endfacet
   facet normal 0 0 1
      outer loop
         vertex -0.000525 0.00112 0.0029
         vertex -0.000725 0.00112 0.0029
         vertex -0.000725 0.00072 0.0029
      endloop
   endfacet
   facet normal 0 0 1
      outer loop
         vertex -0.000725 0.00072 0.0029
         vertex -0.000525 0.00072 0.0029
         vertex -0.000525 0.00112 0.0029
      endloop
   endfacet
   facet normal -1 0 0
      outer loop
         vertex -0.000525 0.00112 0.0029
         vertex -0.000525 0.00072 0.0029
         vertex -0.000525 0.00072 0.0041
      endloop
   endfacet
   facet normal -1 0 0
      outer loop
         vertex -0.000525 0.00072 0.0041
         vertex -0.000525 0.00112 0.0043
         vertex -0.000525 0.00112 0.0029
      endloop
   endfacet
   facet normal -1 0 0
      outer loop
         vertex -0.000525 0.00072 0.0041
         vertex -0.000525 0.00092 0.0043
         vertex -0.000525 0.00112 0.0043
      endloop
   endfacet
   facet normal 0 -0.707107 0.707107
      outer loop
         vertex -0.000525 0.00092 0.0043
         vertex -0.000525 0.00072 0.0041
         vertex 0.00099 0.00072 0.0041
      endloop
   endfacet
   facet normal 0 -0.707107 0.707107
      outer loop
         vertex 0.00099 0.00072 0.0041
         vertex 0.00119 0.00092 0.0043
         vertex -0.000525 0.00092 0.0043
      endloop
   endfacet
   facet normal 0 -1 0
      outer loop
         vertex -0.00466 0.00072 0.004
         vertex -0.00466 0.00072 0.0008
         vertex -0.003225 0.00072 0.0029
      endloop
   endfacet
   facet normal 0 -1 0
      outer loop
         vertex -0.003225 0.00072 0.0041
         vertex -0.00476 0.00072 0.0041
         vertex -0.00466 0.00072 0.004
      endloop
   endfacet
   facet normal 0 -1 0
      outer loop
         vertex -0.00466 0.00072 0.0008
         vertex -0.000725 0.00072 0.0029
         vertex -0.003025 0.00072 0.0029
      endloop
   endfacet
   facet normal 0 -1 0
      outer loop
         vertex -0.003025 0.00072 0.0029
         vertex -0.003225 0.00072 0.0029
         vertex -0.00466 0.00072 0.0008
      endloop
   endfacet
   facet normal 0 -1 0
      outer loop
         vertex -0.003025 0.00072 0.0041
         vertex -0.003025 0.00072 0.0029
         vertex -0.000725 0.00072 0.0029
      endloop
   endfacet
   facet normal 0 -1 0
      outer loop
         vertex -0.000725 0.00072 0.0029
         vertex -0.000725 0.00072 0.0041
         vertex -0.003025 0.00072 0.0041
      endloop
   endfacet
   facet normal 0 -1 0
      outer loop
         vertex 0.00089 0.00072 0.0008
         vertex -0.000525 0.00072 0.0029
         vertex -0.000725 0.00072 0.0029
      endloop
   endfacet
   facet normal 0 -1 0
      outer loop
         vertex 0.00089 0.00072 0.004
         vertex -0.000525 0.00072 0.0041
         vertex -0.000525 0.00072 0.0029
      endloop
   endfacet
   facet normal 0 -1 0
      outer loop
         vertex -0.000725 0.00072 0.0029
         vertex -0.00466 0.00072 0.0008
         vertex 0.00089 0.00072 0.0008
      endloop
   endfacet
   facet normal 0 -1 0
      outer loop
         vertex -0.000525 0.00072 0.0029
         vertex 0.00089 0.00072 0.0008
         vertex 0.00089 0.00072 0.004
      endloop
   endfacet
   facet normal 0 -1 0
      outer loop
         vertex 0.00089 0.00072 0.004
         vertex 0.00099 0.00072 0.0041
         vertex -0.000525 0.00072 0.0041
      endloop
   endfacet
   facet normal 0 -1 0
      outer loop
         vertex -0.003225 0.00072 0.0029
         vertex -0.003225 0.00072 0.0041
         vertex -0.00466 0.00072 0.004
      endloop
   endfacet
   facet normal -0.707107 0 0.707107
      outer loop
         vertex 0.00089 -0.000105 0.004
         vertex 0.00119 -0.000105 0.0043
         vertex 0.00099 0.00072 0.0041
      endloop
   endfacet
   facet normal -0.707107 0 0.707107
      outer loop
         vertex 0.00119 -0.000105 0.0043
         vertex 0.00119 0.00092 0.0043
         vertex 0.00099 0.00072 0.0041
      endloop
   endfacet
   facet normal -0.707107 0 0.707107
      outer loop
         vertex 0.00099 0.00072 0.0041
         vertex 0.00089 0.00072 0.004
         vertex 0.00089 -0.000105 0.004
      endloop
   endfacet
   facet normal -1 0 0
      outer loop
         vertex 0.00089 -0.000105 0.0008
         vertex 0.00089 -0.000105 0.004
         vertex 0.00089 0.00072 0.004
      endloop
   endfacet
   facet normal -1 0 0
      outer loop
         vertex 0.00089 0.00072 0.004
         vertex 0.00089 0.00072 0.0008
         vertex 0.00089 -0.000105 0.0008
      endloop
   endfacet
   facet normal 0 -1 0
      outer loop
         vertex 0.00119 -0.000105 0.0008
         vertex 0.00119 -0.000105 0.0043
         vertex 0.00089 -0.000105 0.004
      endloop
   endfacet
   facet normal 0 -1 0
      outer loop
         vertex 0.00089 -0.000105 0.004
         vertex 0.00089 -0.000105 0.0008
         vertex 0.00119 -0.000105 0.0008
      endloop
   endfacet
   facet normal -1 0 0
      outer loop
         vertex 0.00119 -0.000105 0.0008
         vertex 0.00119 -0.000855 0.0008
         vertex 0.00119 -0.000855 0.0043
      endloop
   endfacet
   facet normal -1 0 0
      outer loop
         vertex 0.00119 -0.000855 0.0043
         vertex 0.00119 -0.000105 0.0043
         vertex 0.00119 -0.000105 0.0008
      endloop
   endfacet
   facet normal 0 1 0
      outer loop
         vertex 0.00119 -0.000855 0.0008
         vertex 0.00089 -0.000855 0.0008
         vertex 0.00089 -0.000855 0.004
      endloop
   endfacet
   facet normal 0 1 0
      outer loop
         vertex 0.00089 -0.000855 0.004
         vertex 0.00119 -0.000855 0.0043
         vertex 0.00119 -0.000855 0.0008
      endloop
   endfacet
   facet normal -0.707107 0 0.707107
      outer loop
         vertex 0.00119 -0.000855 0.0043
         vertex 0.00089 -0.000855 0.004
         vertex 0.00089 -0.00168 0.004
      endloop
   endfacet
   facet normal -0.707107 0 0.707107
      outer loop
         vertex 0.00089 -0.00168 0.004
         vertex 0.00119 -0.00168 0.0043
         vertex 0.00119 -0.000855 0.0043
      endloop
   endfacet
   facet normal 0 0 1
      outer loop
         vertex 0.00149 -0.00168 0.0043
         vertex 0.00149 0.00112 0.0043
         vertex 0.00119 -0.000105 0.0043
      endloop
   endfacet
   facet normal 0 0 1
      outer loop
         vertex 0.00119 -0.000105 0.0043
         vertex 0.00119 -0.000855 0.0043
         vertex 0.00149 -0.00168 0.0043
      endloop
   endfacet
   facet normal 0 0 1
      outer loop
         vertex 0.00149 0.00112 0.0043
         vertex 0.00119 0.00092 0.0043
         vertex 0.00119 -0.000105 0.0043
      endloop
   endfacet
   facet normal 0 0 1
      outer loop
         vertex -0.000525 0.00112 0.0043
         vertex -0.000525 0.00092 0.0043
         vertex 0.00119 0.00092 0.0043
      endloop
   endfacet
   facet normal 0 0 1
      outer loop
         vertex 0.00119 0.00092 0.0043
         vertex 0.00149 0.00112 0.0043
         vertex -0.000525 0.00112 0.0043
      endloop
   endfacet
   facet normal 0 0 1
      outer loop
         vertex 0.00119 -0.000855 0.0043
         vertex 0.00119 -0.00168 0.0043
         vertex 0.00149 -0.00168 0.0043
      endloop
   endfacet
   facet normal 0 -1 0
      outer loop
         vertex 0.00149 -0.00168 0.0025
         vertex 0.00149 -0.00168 0.0043
         vertex 0.00119 -0.00168 0.0043
      endloop
   endfacet
   facet normal 0 -1 0
      outer loop
         vertex 0.00119 -0.00168 0.0043
         vertex 0.00089 -0.00168 0.004
         vertex 0.00149 -0.00168 0.0025
      endloop
   endfacet
   facet normal 0 -1 0
      outer loop
         vertex 0.00089 -0.00168 0.004
         vertex 0.00089 -0.00168 0.0025
         vertex 0.00149 -0.00168 0.0025
      endloop
   endfacet
   facet normal -1 0 0
      outer loop
         vertex 0.00089 -0.000855 0.0008
         vertex 0.00089 -0.00168 0.0008
         vertex 0.00089 -0.00168 0.0023
      endloop
   endfacet
   facet normal -1 0 0
      outer loop
         vertex 0.00089 -0.000855 0.004
         vertex 0.00089 -0.000855 0.0008
         vertex 0.00089 -0.00168 0.0025
      endloop
   endfacet
   facet normal -1 0 0
      outer loop
         vertex 0.00089 -0.00168 0.0023
         vertex 0.00089 -0.00168 0.0025
         vertex 0.00089 -0.000855 0.0008
      endloop
   endfacet
   facet normal -1 0 0
      outer loop
         vertex 0.00089 -0.00168 0.0023
         vertex 0.00089 -0.00188 0.0025
         vertex 0.00089 -0.00168 0.0025
      endloop
   endfacet
   facet normal -1 0 0
      outer loop
         vertex 0.00089 -0.00168 0.0025
         vertex 0.00089 -0.00168 0.004
         vertex 0.00089 -0.000855 0.004
      endloop
   endfacet
   facet normal 0 1 0
      outer loop
         vertex -0.00466 -0.00168 0.0023
         vertex 0.00089 -0.00168 0.0023
         vertex 0.00089 -0.00168 0.0008
      endloop
   endfacet
   facet normal 0 1 0
      outer loop
         vertex 0.00089 -0.00168 0.0008
         vertex -0.00466 -0.00168 0.0008
         vertex -0.00466 -0.00168 0.0023
      endloop
   endfacet
   facet normal 0 0.707107 0.707107
      outer loop
         vertex -0.00466 -0.00188 0.0025
         vertex 0.00089 -0.00188 0.0025
         vertex 0.00089 -0.00168 0.0023
      endloop
   endfacet
   facet normal 0 0.707107 0.707107
      outer loop
         vertex 0.00089 -0.00168 0.0023
         vertex -0.00466 -0.00168 0.0023
         vertex -0.00466 -0.00188 0.0025
      endloop
   endfacet
   facet normal 0 1 0
      outer loop
         vertex -0.00496 -0.000855 0.0008
         vertex -0.00496 -0.000855 0.0043
         vertex -0.00466 -0.000855 0.004
      endloop
   endfacet
   facet normal 0 1 0
      outer loop
         vertex -0.00466 -0.000855 0.004
         vertex -0.00466 -0.000855 0.0008
         vertex -0.00496 -0.000855 0.0008
      endloop
   endfacet
   facet normal 1 0 0
      outer loop
         vertex -0.00466 -0.000855 0.0008
         vertex -0.00466 -0.00168 0.0025
         vertex -0.00466 -0.00168 0.0023
      endloop
   endfacet
   facet normal 1 0 0
      outer loop
         vertex -0.00466 -0.00168 0.0025
         vertex -0.00466 -0.00188 0.0025
         vertex -0.00466 -0.00168 0.0023
      endloop
   endfacet
   facet normal 1 0 0
      outer loop
         vertex -0.00466 -0.000855 0.004
         vertex -0.00466 -0.00168 0.004
         vertex -0.00466 -0.00168 0.0025
      endloop
   endfacet
   facet normal 1 0 0
      outer loop
         vertex -0.00466 -0.00168 0.0025
         vertex -0.00466 -0.000855 0.0008
         vertex -0.00466 -0.000855 0.004
      endloop
   endfacet
   facet normal 1 0 0
      outer loop
         vertex -0.00466 -0.00168 0.0023
         vertex -0.00466 -0.00168 0.0008
         vertex -0.00466 -0.000855 0.0008
      endloop
   endfacet
   facet normal 0.707107 0 0.707107
      outer loop
         vertex -0.00466 -0.000855 0.004
         vertex -0.00496 -0.000855 0.0043
         vertex -0.00496 -0.00168 0.0043
      endloop
   endfacet
   facet normal 0.707107 0 0.707107
      outer loop
         vertex -0.00496 -0.00168 0.0043
         vertex -0.00466 -0.00168 0.004
         vertex -0.00466 -0.000855 0.004
      endloop
   endfacet
   facet normal 0 0 1
      outer loop
         vertex -0.00524 -0.00168 0.0043
         vertex -0.00496 -0.000855 0.0043
         vertex -0.00496 -0.000105 0.0043
      endloop
   endfacet
   facet normal 0 0 1
      outer loop
         vertex -0.00524 -0.00168 0.0043
         vertex -0.00496 -0.00168 0.0043
         vertex -0.00496 -0.000855 0.0043
      endloop
   endfacet
   facet normal 0 0 1
      outer loop
         vertex -0.003225 0.00112 0.0043
         vertex -0.00524 0.00112 0.0043
         vertex -0.00496 0.00092 0.0043
      endloop
   endfacet
   facet normal 0 0 1
      outer loop
         vertex -0.00496 -0.000105 0.0043
         vertex -0.00524 0.00112 0.0043
         vertex -0.00524 -0.00168 0.0043
      endloop
   endfacet
   facet normal 0 0 1
      outer loop
         vertex -0.00496 -0.000105 0.0043
         vertex -0.00496 0.00092 0.0043
         vertex -0.00524 0.00112 0.0043
      endloop
   endfacet
   facet normal 0 0 1
      outer loop
         vertex -0.00496 0.00092 0.0043
         vertex -0.003225 0.00092 0.0043
         vertex -0.003225 0.00112 0.0043
      endloop
   endfacet
   facet normal 0 -1 0
      outer loop
         vertex -0.00524 -0.00168 0.0025
         vertex -0.00466 -0.00168 0.004
         vertex -0.00496 -0.00168 0.0043
      endloop
   endfacet
   facet normal 0 -1 0
      outer loop
         vertex -0.00524 -0.00168 0.0025
         vertex -0.00466 -0.00168 0.0025
         vertex -0.00466 -0.00168 0.004
      endloop
   endfacet
   facet normal 0 -1 0
      outer loop
         vertex -0.00496 -0.00168 0.0043
         vertex -0.00524 -0.00168 0.0043
         vertex -0.00524 -0.00168 0.0025
      endloop
   endfacet
   facet normal 0 0 1
      outer loop
         vertex -0.00524 -0.00168 0.0025
         vertex -0.00524 -0.00208 0.0025
         vertex -0.00466 -0.00188 0.0025
      endloop
   endfacet
   facet normal 0 0 1
      outer loop
         vertex -0.00524 -0.00208 0.0025
         vertex 0.00149 -0.00208 0.0025
         vertex 0.00089 -0.00188 0.0025
      endloop
   endfacet
   facet normal 0 0 1
      outer loop
         vertex 0.00089 -0.00188 0.0025
         vertex -0.00466 -0.00188 0.0025
         vertex -0.00524 -0.00208 0.0025
      endloop
   endfacet
   facet normal 0 0 1
      outer loop
         vertex 0.00149 -0.00168 0.0025
         vertex 0.00089 -0.00168 0.0025
         vertex 0.00089 -0.00188 0.0025
      endloop
   endfacet
   facet normal 0 0 1
      outer loop
         vertex 0.00089 -0.00188 0.0025
         vertex 0.00149 -0.00208 0.0025
         vertex 0.00149 -0.00168 0.0025
      endloop
   endfacet
   facet normal 0 0 1
      outer loop
         vertex -0.00466 -0.00188 0.0025
         vertex -0.00466 -0.00168 0.0025
         vertex -0.00524 -0.00168 0.0025
      endloop
   endfacet
   facet normal 1 0 0
      outer loop
         vertex 0.00149 -0.00208 0
         vertex 0.00149 0.00112 0
         vertex 0.00149 -0.00168 0.0025
      endloop
   endfacet
   facet normal 1 0 0
      outer loop
         vertex 0.00149 0.00112 0.0043
         vertex 0.00149 -0.00168 0.0043
         vertex 0.00149 -0.00168 0.0025
      endloop
   endfacet
   facet normal 1 0 0
      outer loop
         vertex 0.00149 -0.00168 0.0025
         vertex 0.00149 0.00112 0
         vertex 0.00149 0.00112 0.0043
      endloop
   endfacet
   facet normal 1 0 0
      outer loop
         vertex 0.00149 -0.00168 0.0025
         vertex 0.00149 -0.00208 0.0025
         vertex 0.00149 -0.00208 0
      endloop
   endfacet
   facet normal -1 0 0
      outer loop
         vertex -0.00524 0.00112 0.0043
         vertex -0.00524 0.00112 0
         vertex -0.00524 -0.00168 0.0025
      endloop
   endfacet
   facet normal -1 0 0
      outer loop
         vertex -0.00524 -0.00208 0
         vertex -0.00524 -0.00208 0.0025
         vertex -0.00524 -0.00168 0.0025
      endloop
   endfacet
   facet normal -1 0 0
      outer loop
         vertex -0.00524 -0.00168 0.0025
         vertex -0.00524 0.00112 0
         vertex -0.00524 -0.00208 0
      endloop
   endfacet
   facet normal -1 0 0
      outer loop
         vertex -0.00524 -0.00168 0.0025
         vertex -0.00524 -0.00168 0.0043
         vertex -0.00524 0.00112 0.0043
      endloop
   endfacet
   facet normal 0 0 -1
      outer loop
         vertex 0.00149 -0.00208 0
         vertex 0.00124155 -0.00208 0
         vertex 0.00124155 0.00112 0
      endloop
   endfacet
   facet normal 0 0 -1
      outer loop
         vertex 0.00124155 0.00112 0
         vertex 0.00149 0.00112 0
         vertex 0.00149 -0.00208 0
      endloop
   endfacet
   facet normal -1 0 0
      outer loop
         vertex 0.00124155 -0.00208 0
         vertex 0.00124155 -0.00208 0.00015
         vertex 0.00124155 0.00112 0.00015
      endloop
   endfacet
   facet normal -1 0 0
      outer loop
         vertex 0.00124155 0.00112 0.00015
         vertex 0.00124155 0.00112 0
         vertex 0.00124155 -0.00208 0
      endloop
   endfacet
   facet normal 0 1 0
      outer loop
         vertex -0.000525 0.00112 0.0029
         vertex 0.00149 0.00112 0
         vertex 0.00124155 0.00112 0.00015
      endloop
   endfacet
   facet normal 0 1 0
      outer loop
         vertex 0.00124155 0.00112 0.00015
         vertex -0.003025 0.00112 0.0029
         vertex -0.000725 0.00112 0.0029
      endloop
   endfacet
   facet normal 0 1 0
      outer loop
         vertex 0.00149 0.00112 0.0043
         vertex 0.00149 0.00112 0
         vertex -0.000525 0.00112 0.0029
      endloop
   endfacet
   facet normal 0 1 0
      outer loop
         vertex 0.00149 0.00112 0
         vertex 0.00124155 0.00112 0
         vertex 0.00124155 0.00112 0.00015
      endloop
   endfacet
   facet normal 0 1 0
      outer loop
         vertex -0.00499155 0.00112 0.00015
         vertex -0.003225 0.00112 0.0029
         vertex -0.003025 0.00112 0.0029
      endloop
   endfacet
   facet normal 0 1 0
      outer loop
         vertex -0.00524 0.00112 0.0043
         vertex -0.003225 0.00112 0.0043
         vertex -0.003225 0.00112 0.0029
      endloop
   endfacet
   facet normal 0 1 0
      outer loop
         vertex 0.00124155 0.00112 0.00015
         vertex -0.000725 0.00112 0.0029
         vertex -0.000525 0.00112 0.0029
      endloop
   endfacet
   facet normal 0 1 0
      outer loop
         vertex -0.000725 0.00112 0.0043
         vertex -0.000725 0.00112 0.0029
         vertex -0.003025 0.00112 0.0029
      endloop
   endfacet
   facet normal 0 1 0
      outer loop
         vertex -0.00524 0.00112 0
         vertex -0.00524 0.00112 0.0043
         vertex -0.00499155 0.00112 0.00015
      endloop
   endfacet
   facet normal 0 1 0
      outer loop
         vertex -0.003225 0.00112 0.0029
         vertex -0.00499155 0.00112 0.00015
         vertex -0.00524 0.00112 0.0043
      endloop
   endfacet
   facet normal 0 1 0
      outer loop
         vertex -0.003025 0.00112 0.0029
         vertex -0.003025 0.00112 0.0043
         vertex -0.000725 0.00112 0.0043
      endloop
   endfacet
   facet normal 0 1 0
      outer loop
         vertex -0.003025 0.00112 0.0029
         vertex 0.00124155 0.00112 0.00015
         vertex -0.00499155 0.00112 0.00015
      endloop
   endfacet
   facet normal 0 1 0
      outer loop
         vertex -0.00499155 0.00112 0.00015
         vertex -0.00499155 0.00112 0
         vertex -0.00524 0.00112 0
      endloop
   endfacet
   facet normal 0 1 0
      outer loop
         vertex -0.000525 0.00112 0.0029
         vertex -0.000525 0.00112 0.0043
         vertex 0.00149 0.00112 0.0043
      endloop
   endfacet
   facet normal 0 -1 0
      outer loop
         vertex 0.00149 -0.00208 0
         vertex 0.00149 -0.00208 0.0025
         vertex 0.00124155 -0.00208 0.00015
      endloop
   endfacet
   facet normal 0 -1 0
      outer loop
         vertex 0.00149 -0.00208 0.0025
         vertex -0.00524 -0.00208 0.0025
         vertex -0.00499155 -0.00208 0.00015
      endloop
   endfacet
   facet normal 0 -1 0
      outer loop
         vertex -0.00499155 -0.00208 0.00015
         vertex 0.00124155 -0.00208 0.00015
         vertex 0.00149 -0.00208 0.0025
      endloop
   endfacet
   facet normal 0 -1 0
      outer loop
         vertex -0.00524 -0.00208 0
         vertex -0.00499155 -0.00208 0
         vertex -0.00499155 -0.00208 0.00015
      endloop
   endfacet
   facet normal 0 -1 0
      outer loop
         vertex -0.00499155 -0.00208 0.00015
         vertex -0.00524 -0.00208 0.0025
         vertex -0.00524 -0.00208 0
      endloop
   endfacet
   facet normal 0 -1 0
      outer loop
         vertex 0.00124155 -0.00208 0.00015
         vertex 0.00124155 -0.00208 0
         vertex 0.00149 -0.00208 0
      endloop
   endfacet
   facet normal 1 0 0
      outer loop
         vertex -0.00499155 -0.00208 0.00015
         vertex -0.00499155 -0.00208 0
         vertex -0.00499155 0.00112 0
      endloop
   endfacet
   facet normal 1 0 0
      outer loop
         vertex -0.00499155 0.00112 0
         vertex -0.00499155 0.00112 0.00015
         vertex -0.00499155 -0.00208 0.00015
      endloop
   endfacet
   facet normal 0 0 -1
      outer loop
         vertex -0.00499155 -0.00208 0
         vertex -0.00524 -0.00208 0
         vertex -0.00524 0.00112 0
      endloop
   endfacet
   facet normal 0 0 -1
      outer loop
         vertex -0.00524 0.00112 0
         vertex -0.00499155 0.00112 0
         vertex -0.00499155 -0.00208 0
      endloop
   endfacet
   facet normal 0 0 1
      outer loop
         vertex -0.00266 0.000175 0.0008
         vertex -0.00466 0.00072 0.0008
         vertex -0.00359 0.000175 0.0008
      endloop
   endfacet
   facet normal 0 0 1
      outer loop
         vertex -0.00496 -0.000855 0.0008
         vertex -0.00466 -0.000855 0.0008
         vertex -0.00466 -0.000105 0.0008
      endloop
   endfacet
   facet normal 0 0 1
      outer loop
         vertex -0.00466 -0.00168 0.0008
         vertex -0.00359 -0.000175 0.0008
         vertex -0.00391 -0.000175 0.0008
      endloop
   endfacet
   facet normal 0 0 1
      outer loop
         vertex -0.00466 0.00072 0.0008
         vertex -0.00266 0.000175 0.0008
         vertex -0.00234 0.000175 0.0008
      endloop
   endfacet
   facet normal 0 0 1
      outer loop
         vertex -0.00466 0.00072 0.0008
         vertex -0.00391 0.000175 0.0008
         vertex -0.00359 0.000175 0.0008
      endloop
   endfacet
   facet normal 0 0 1
      outer loop
         vertex -0.00466 -0.000855 0.0008
         vertex -0.00391 -0.000175 0.0008
         vertex -0.00466 -0.000105 0.0008
      endloop
   endfacet
   facet normal 0 0 1
      outer loop
         vertex -0.00466 -0.000105 0.0008
         vertex -0.00391 -0.000175 0.0008
         vertex -0.00391 0.000175 0.0008
      endloop
   endfacet
   facet normal 0 0 1
      outer loop
         vertex -0.00466 -0.00168 0.0008
         vertex -0.00266 -0.000175 0.0008
         vertex -0.00359 -0.000175 0.0008
      endloop
   endfacet
   facet normal 0 0 1
      outer loop
         vertex -0.00359 0.000175 0.0008
         vertex -0.00266 -0.000175 0.0008
         vertex -0.00266 0.000175 0.0008
      endloop
   endfacet
   facet normal 0 0 1
      outer loop
         vertex -0.00391 0.000175 0.0008
         vertex -0.00466 0.00072 0.0008
         vertex -0.00466 -0.000105 0.0008
      endloop
   endfacet
   facet normal 0 0 1
      outer loop
         vertex -0.00466 -0.00168 0.0008
         vertex -0.00234 -0.000175 0.0008
         vertex -0.00266 -0.000175 0.0008
      endloop
   endfacet
   facet normal 0 0 1
      outer loop
         vertex 0.00089 0.00072 0.0008
         vertex -0.00141 0.000175 0.0008
         vertex -0.00109 0.000175 0.0008
      endloop
   endfacet
   facet normal 0 0 1
      outer loop
         vertex -0.00466 -0.000105 0.0008
         vertex -0.00496 -0.000105 0.0008
         vertex -0.00496 -0.000855 0.0008
      endloop
   endfacet
   facet normal 0 0 1
      outer loop
         vertex -0.00466 -0.00168 0.0008
         vertex -0.00141 -0.000175 0.0008
         vertex -0.00234 -0.000175 0.0008
      endloop
   endfacet
   facet normal 0 0 1
      outer loop
         vertex 0.00089 0.00072 0.0008
         vertex -0.00234 0.000175 0.0008
         vertex -0.00141 0.000175 0.0008
      endloop
   endfacet
   facet normal 0 0 1
      outer loop
         vertex -0.00391 -0.000175 0.0008
         vertex -0.00466 -0.000855 0.0008
         vertex -0.00466 -0.00168 0.0008
      endloop
   endfacet
   facet normal 0 0 1
      outer loop
         vertex -0.00109 0.000175 0.0008
         vertex -0.00016 0.000175 0.0008
         vertex 0.00089 0.00072 0.0008
      endloop
   endfacet
   facet normal 0 0 1
      outer loop
         vertex -0.00266 -0.000175 0.0008
         vertex -0.00359 0.000175 0.0008
         vertex -0.00359 -0.000175 0.0008
      endloop
   endfacet
   facet normal 0 0 1
      outer loop
         vertex -0.00234 0.000175 0.0008
         vertex -0.00234 -0.000175 0.0008
         vertex -0.00141 -0.000175 0.0008
      endloop
   endfacet
   facet normal 0 0 1
      outer loop
         vertex -0.00466 -0.00168 0.0008
         vertex -0.00016 -0.000175 0.0008
         vertex -0.00109 -0.000175 0.0008
      endloop
   endfacet
   facet normal 0 0 1
      outer loop
         vertex -0.00109 0.000175 0.0008
         vertex -0.00016 -0.000175 0.0008
         vertex -0.00016 0.000175 0.0008
      endloop
   endfacet
   facet normal 0 0 1
      outer loop
         vertex -0.00141 -0.000175 0.0008
         vertex -0.00141 0.000175 0.0008
         vertex -0.00234 0.000175 0.0008
      endloop
   endfacet
   facet normal 0 0 1
      outer loop
         vertex -0.00466 -0.00168 0.0008
         vertex 0.00016 -0.000175 0.0008
         vertex -0.00016 -0.000175 0.0008
      endloop
   endfacet
   facet normal 0 0 1
      outer loop
         vertex -0.00234 0.000175 0.0008
         vertex 0.00089 0.00072 0.0008
         vertex -0.00466 0.00072 0.0008
      endloop
   endfacet
   facet normal 0 0 1
      outer loop
         vertex -0.00466 -0.00168 0.0008
         vertex 0.00089 -0.000105 0.0008
         vertex 0.00016 -0.000175 0.0008
      endloop
   endfacet
   facet normal 0 0 1
      outer loop
         vertex -0.00109 -0.000175 0.0008
         vertex -0.00141 -0.000175 0.0008
         vertex -0.00466 -0.00168 0.0008
      endloop
   endfacet
   facet normal 0 0 1
      outer loop
         vertex -0.00016 -0.000175 0.0008
         vertex -0.00109 0.000175 0.0008
         vertex -0.00109 -0.000175 0.0008
      endloop
   endfacet
   facet normal 0 0 1
      outer loop
         vertex 0.00089 -0.000105 0.0008
         vertex 0.00089 0.00072 0.0008
         vertex 0.00016 0.000175 0.0008
      endloop
   endfacet
   facet normal 0 0 1
      outer loop
         vertex 0.00119 -0.000105 0.0008
         vertex 0.00089 -0.000105 0.0008
         vertex 0.00089 -0.000855 0.0008
      endloop
   endfacet
   facet normal 0 0 1
      outer loop
         vertex -0.00466 -0.00168 0.0008
         vertex 0.00089 -0.00168 0.0008
         vertex 0.00089 -0.000855 0.0008
      endloop
   endfacet
   facet normal 0 0 1
      outer loop
         vertex 0.00016 0.000175 0.0008
         vertex 0.00016 -0.000175 0.0008
         vertex 0.00089 -0.000105 0.0008
      endloop
   endfacet
   facet normal 0 0 1
      outer loop
         vertex 0.00089 -0.000855 0.0008
         vertex 0.00089 -0.000105 0.0008
         vertex -0.00466 -0.00168 0.0008
      endloop
   endfacet
   facet normal 0 0 1
      outer loop
         vertex 0.00089 -0.000855 0.0008
         vertex 0.00119 -0.000855 0.0008
         vertex 0.00119 -0.000105 0.0008
      endloop
   endfacet
   facet normal 0 0 1
      outer loop
         vertex -0.00016 0.000175 0.0008
         vertex 0.00016 0.000175 0.0008
         vertex 0.00089 0.00072 0.0008
      endloop
   endfacet
   facet normal 0 -1 0
      outer loop
         vertex -0.00109 -0.000175 0.003
         vertex -0.00141 -0.000175 0.003
         vertex -0.00141 -0.000175 0.0008
      endloop
   endfacet
   facet normal 0 -1 0
      outer loop
         vertex -0.00141 -0.000175 0.0008
         vertex -0.00109 -0.000175 0.0008
         vertex -0.00109 -0.000175 0.003
      endloop
   endfacet
   facet normal -1 0 0
      outer loop
         vertex -0.00141 -0.000175 0.003
         vertex -0.00141 0.000175 0.003
         vertex -0.00141 0.000175 0.0008
      endloop
   endfacet
   facet normal -1 0 0
      outer loop
         vertex -0.00141 0.000175 0.0008
         vertex -0.00141 -0.000175 0.0008
         vertex -0.00141 -0.000175 0.003
      endloop
   endfacet
   facet normal 0 1 0
      outer loop
         vertex -0.00141 0.000175 0.003
         vertex -0.00109 0.000175 0.003
         vertex -0.00109 0.000175 0.0008
      endloop
   endfacet
   facet normal 0 1 0
      outer loop
         vertex -0.00109 0.000175 0.0008
         vertex -0.00141 0.000175 0.0008
         vertex -0.00141 0.000175 0.003
      endloop
   endfacet
   facet normal -0.980581 0 0.196116
      outer loop
         vertex -0.00141 0.000175 0.003
         vertex -0.00141 -0.000175 0.003
         vertex -0.00131 -7.5e-05 0.0035
      endloop
   endfacet
   facet normal -0.980581 0 0.196116
      outer loop
         vertex -0.00131 -7.5e-05 0.0035
         vertex -0.00131 7.5e-05 0.0035
         vertex -0.00141 0.000175 0.003
      endloop
   endfacet
   facet normal 0 -0.980581 0.196116
      outer loop
         vertex -0.00109 -0.000175 0.003
         vertex -0.00119 -7.5e-05 0.0035
         vertex -0.00131 -7.5e-05 0.0035
      endloop
   endfacet
   facet normal 0 -0.980581 0.196116
      outer loop
         vertex -0.00131 -7.5e-05 0.0035
         vertex -0.00141 -0.000175 0.003
         vertex -0.00109 -0.000175 0.003
      endloop
   endfacet
   facet normal 0.980581 0 0.196116
      outer loop
         vertex -0.00109 -0.000175 0.003
         vertex -0.00109 0.000175 0.003
         vertex -0.00119 7.5e-05 0.0035
      endloop
   endfacet
   facet normal 0.980581 0 0.196116
      outer loop
         vertex -0.00119 7.5e-05 0.0035
         vertex -0.00119 -7.5e-05 0.0035
         vertex -0.00109 -0.000175 0.003
      endloop
   endfacet
   facet normal 0 0.980581 0.196116
      outer loop
         vertex -0.00109 0.000175 0.003
         vertex -0.00141 0.000175 0.003
         vertex -0.00131 7.5e-05 0.0035
      endloop
   endfacet
   facet normal 0 0.980581 0.196116
      outer loop
         vertex -0.00131 7.5e-05 0.0035
         vertex -0.00119 7.5e-05 0.0035
         vertex -0.00109 0.000175 0.003
      endloop
   endfacet
   facet normal 0 0 1
      outer loop
         vertex -0.00131 7.5e-05 0.0035
         vertex -0.00131 -7.5e-05 0.0035
         vertex -0.00119 -7.5e-05 0.0035
      endloop
   endfacet
   facet normal 0 0 1
      outer loop
         vertex -0.00119 -7.5e-05 0.0035
         vertex -0.00119 7.5e-05 0.0035
         vertex -0.00131 7.5e-05 0.0035
      endloop
   endfacet
   facet normal 1 0 0
      outer loop
         vertex -0.00109 0.000175 0.003
         vertex -0.00109 -0.000175 0.003
         vertex -0.00109 -0.000175 0.0008
      endloop
   endfacet
   facet normal 1 0 0
      outer loop
         vertex -0.00109 -0.000175 0.0008
         vertex -0.00109 0.000175 0.0008
         vertex -0.00109 0.000175 0.003
      endloop
   endfacet
   facet normal 0 -1 0
      outer loop
         vertex -0.00234 -0.000175 0.003
         vertex -0.00266 -0.000175 0.003
         vertex -0.00266 -0.000175 0.0008
      endloop
   endfacet
   facet normal 0 -1 0
      outer loop
         vertex -0.00266 -0.000175 0.0008
         vertex -0.00234 -0.000175 0.0008
         vertex -0.00234 -0.000175 0.003
      endloop
   endfacet
   facet normal -1 0 0
      outer loop
         vertex -0.00266 -0.000175 0.003
         vertex -0.00266 0.000175 0.003
         vertex -0.00266 0.000175 0.0008
      endloop
   endfacet
   facet normal -1 0 0
      outer loop
         vertex -0.00266 0.000175 0.0008
         vertex -0.00266 -0.000175 0.0008
         vertex -0.00266 -0.000175 0.003
      endloop
   endfacet
   facet normal 0 1 0
      outer loop
         vertex -0.00266 0.000175 0.003
         vertex -0.00234 0.000175 0.003
         vertex -0.00234 0.000175 0.0008
      endloop
   endfacet
   facet normal 0 1 0
      outer loop
         vertex -0.00234 0.000175 0.0008
         vertex -0.00266 0.000175 0.0008
         vertex -0.00266 0.000175 0.003
      endloop
   endfacet
   facet normal -0.980581 0 0.196116
      outer loop
         vertex -0.00266 -0.000175 0.003
         vertex -0.00256 -7.5e-05 0.0035
         vertex -0.00256 7.5e-05 0.0035
      endloop
   endfacet
   facet normal -0.980581 0 0.196116
      outer loop
         vertex -0.00256 7.5e-05 0.0035
         vertex -0.00266 0.000175 0.003
         vertex -0.00266 -0.000175 0.003
      endloop
   endfacet
   facet normal 0 -0.980581 0.196116
      outer loop
         vertex -0.00266 -0.000175 0.003
         vertex -0.00234 -0.000175 0.003
         vertex -0.00244 -7.5e-05 0.0035
      endloop
   endfacet
   facet normal 0 -0.980581 0.196116
      outer loop
         vertex -0.00244 -7.5e-05 0.0035
         vertex -0.00256 -7.5e-05 0.0035
         vertex -0.00266 -0.000175 0.003
      endloop
   endfacet
   facet normal 0 0.980581 0.196116
      outer loop
         vertex -0.00266 0.000175 0.003
         vertex -0.00256 7.5e-05 0.0035
         vertex -0.00244 7.5e-05 0.0035
      endloop
   endfacet
   facet normal 0 0.980581 0.196116
      outer loop
         vertex -0.00244 7.5e-05 0.0035
         vertex -0.00234 0.000175 0.003
         vertex -0.00266 0.000175 0.003
      endloop
   endfacet
   facet normal 1 0 0
      outer loop
         vertex -0.00234 0.000175 0.003
         vertex -0.00234 -0.000175 0.003
         vertex -0.00234 -0.000175 0.0008
      endloop
   endfacet
   facet normal 1 0 0
      outer loop
         vertex -0.00234 -0.000175 0.0008
         vertex -0.00234 0.000175 0.0008
         vertex -0.00234 0.000175 0.003
      endloop
   endfacet
   facet normal 0.980581 0 0.196116
      outer loop
         vertex -0.00234 -0.000175 0.003
         vertex -0.00234 0.000175 0.003
         vertex -0.00244 7.5e-05 0.0035
      endloop
   endfacet
   facet normal 0.980581 0 0.196116
      outer loop
         vertex -0.00244 7.5e-05 0.0035
         vertex -0.00244 -7.5e-05 0.0035
         vertex -0.00234 -0.000175 0.003
      endloop
   endfacet
   facet normal 0 0 1
      outer loop
         vertex -0.00244 7.5e-05 0.0035
         vertex -0.00256 7.5e-05 0.0035
         vertex -0.00256 -7.5e-05 0.0035
      endloop
   endfacet
   facet normal 0 0 1
      outer loop
         vertex -0.00256 -7.5e-05 0.0035
         vertex -0.00244 -7.5e-05 0.0035
         vertex -0.00244 7.5e-05 0.0035
      endloop
   endfacet
   facet normal 1 0 0
      outer loop
         vertex -0.00359 -0.000175 0.003
         vertex -0.00359 -0.000175 0.0008
         vertex -0.00359 0.000175 0.0008
      endloop
   endfacet
   facet normal 1 0 0
      outer loop
         vertex -0.00359 0.000175 0.0008
         vertex -0.00359 0.000175 0.003
         vertex -0.00359 -0.000175 0.003
      endloop
   endfacet
   facet normal 0 1 0
      outer loop
         vertex -0.00391 0.000175 0.003
         vertex -0.00359 0.000175 0.003
         vertex -0.00359 0.000175 0.0008
      endloop
   endfacet
   facet normal 0 1 0
      outer loop
         vertex -0.00359 0.000175 0.0008
         vertex -0.00391 0.000175 0.0008
         vertex -0.00391 0.000175 0.003
      endloop
   endfacet
   facet normal -1 0 0
      outer loop
         vertex -0.00391 -0.000175 0.0008
         vertex -0.00391 -0.000175 0.003
         vertex -0.00391 0.000175 0.003
      endloop
   endfacet
   facet normal -1 0 0
      outer loop
         vertex -0.00391 0.000175 0.003
         vertex -0.00391 0.000175 0.0008
         vertex -0.00391 -0.000175 0.0008
      endloop
   endfacet
   facet normal 0 0.980581 0.196116
      outer loop
         vertex -0.00359 0.000175 0.003
         vertex -0.00391 0.000175 0.003
         vertex -0.00381 7.5e-05 0.0035
      endloop
   endfacet
   facet normal 0 0.980581 0.196116
      outer loop
         vertex -0.00381 7.5e-05 0.0035
         vertex -0.00369 7.5e-05 0.0035
         vertex -0.00359 0.000175 0.003
      endloop
   endfacet
   facet normal 0 0 1
      outer loop
         vertex -0.00381 -7.5e-05 0.0035
         vertex -0.00369 -7.5e-05 0.0035
         vertex -0.00369 7.5e-05 0.0035
      endloop
   endfacet
   facet normal 0 0 1
      outer loop
         vertex -0.00369 7.5e-05 0.0035
         vertex -0.00381 7.5e-05 0.0035
         vertex -0.00381 -7.5e-05 0.0035
      endloop
   endfacet
   facet normal 0.980581 0 0.196116
      outer loop
         vertex -0.00359 -0.000175 0.003
         vertex -0.00359 0.000175 0.003
         vertex -0.00369 7.5e-05 0.0035
      endloop
   endfacet
   facet normal 0.980581 0 0.196116
      outer loop
         vertex -0.00369 7.5e-05 0.0035
         vertex -0.00369 -7.5e-05 0.0035
         vertex -0.00359 -0.000175 0.003
      endloop
   endfacet
   facet normal -0.980581 0 0.196116
      outer loop
         vertex -0.00391 0.000175 0.003
         vertex -0.00391 -0.000175 0.003
         vertex -0.00381 -7.5e-05 0.0035
      endloop
   endfacet
   facet normal -0.980581 0 0.196116
      outer loop
         vertex -0.00381 -7.5e-05 0.0035
         vertex -0.00381 7.5e-05 0.0035
         vertex -0.00391 0.000175 0.003
      endloop
   endfacet
   facet normal 0 -0.980581 0.196116
      outer loop
         vertex -0.00391 -0.000175 0.003
         vertex -0.00359 -0.000175 0.003
         vertex -0.00369 -7.5e-05 0.0035
      endloop
   endfacet
   facet normal 0 -0.980581 0.196116
      outer loop
         vertex -0.00369 -7.5e-05 0.0035
         vertex -0.00381 -7.5e-05 0.0035
         vertex -0.00391 -0.000175 0.003
      endloop
   endfacet
   facet normal 0 -1 0
      outer loop
         vertex -0.00359 -0.000175 0.003
         vertex -0.00391 -0.000175 0.003
         vertex -0.00391 -0.000175 0.0008
      endloop
   endfacet
   facet normal 0 -1 0
      outer loop
         vertex -0.00391 -0.000175 0.0008
         vertex -0.00359 -0.000175 0.0008
         vertex -0.00359 -0.000175 0.003
      endloop
   endfacet
   facet normal 0 -1 0
      outer loop
         vertex 0.00016 -0.000175 0.003
         vertex -0.00016 -0.000175 0.003
         vertex -0.00016 -0.000175 0.0008
      endloop
   endfacet
   facet normal 0 -1 0
      outer loop
         vertex -0.00016 -0.000175 0.0008
         vertex 0.00016 -0.000175 0.0008
         vertex 0.00016 -0.000175 0.003
      endloop
   endfacet
   facet normal -1 0 0
      outer loop
         vertex -0.00016 -0.000175 0.003
         vertex -0.00016 0.000175 0.003
         vertex -0.00016 0.000175 0.0008
      endloop
   endfacet
   facet normal -1 0 0
      outer loop
         vertex -0.00016 0.000175 0.0008
         vertex -0.00016 -0.000175 0.0008
         vertex -0.00016 -0.000175 0.003
      endloop
   endfacet
   facet normal 0 1 0
      outer loop
         vertex -0.00016 0.000175 0.003
         vertex 0.00016 0.000175 0.003
         vertex 0.00016 0.000175 0.0008
      endloop
   endfacet
   facet normal 0 1 0
      outer loop
         vertex 0.00016 0.000175 0.0008
         vertex -0.00016 0.000175 0.0008
         vertex -0.00016 0.000175 0.003
      endloop
   endfacet
   facet normal -0.980581 0 0.196116
      outer loop
         vertex -0.00016 0.000175 0.003
         vertex -0.00016 -0.000175 0.003
         vertex -6.1e-05 -7.6e-05 0.003495
      endloop
   endfacet
   facet normal -0.980581 0 0.196116
      outer loop
         vertex -6.1e-05 -7.6e-05 0.003495
         vertex -6.1e-05 7.6e-05 0.003495
         vertex -0.00016 0.000175 0.003
      endloop
   endfacet
   facet normal 0 0.980581 0.196116
      outer loop
         vertex 0.00016 0.000175 0.003
         vertex -0.00016 0.000175 0.003
         vertex -6.1e-05 7.6e-05 0.003495
      endloop
   endfacet
   facet normal 0 0.980581 0.196116
      outer loop
         vertex -6.1e-05 7.6e-05 0.003495
         vertex 6.1e-05 7.6e-05 0.003495
         vertex 0.00016 0.000175 0.003
      endloop
   endfacet
   facet normal 0.980581 0 0.196116
      outer loop
         vertex 0.00016 -0.000175 0.003
         vertex 0.00016 0.000175 0.003
         vertex 6.1e-05 7.6e-05 0.003495
      endloop
   endfacet
   facet normal 0.980581 0 0.196116
      outer loop
         vertex 6.1e-05 7.6e-05 0.003495
         vertex 6.1e-05 -7.6e-05 0.003495
         vertex 0.00016 -0.000175 0.003
      endloop
   endfacet
   facet normal 0 0 1
      outer loop
         vertex -6.1e-05 -7.6e-05 0.003495
         vertex 6.1e-05 -7.6e-05 0.003495
         vertex 6.1e-05 7.6e-05 0.003495
      endloop
   endfacet
   facet normal 0 0 1
      outer loop
         vertex 6.1e-05 7.6e-05 0.003495
         vertex -6.1e-05 7.6e-05 0.003495
         vertex -6.1e-05 -7.6e-05 0.003495
      endloop
   endfacet
   facet normal 0 -0.980581 0.196116
      outer loop
         vertex -0.00016 -0.000175 0.003
         vertex 0.00016 -0.000175 0.003
         vertex 6.1e-05 -7.6e-05 0.003495
      endloop
   endfacet
   facet normal 0 -0.980581 0.196116
      outer loop
         vertex 6.1e-05 -7.6e-05 0.003495
         vertex -6.1e-05 -7.6e-05 0.003495
         vertex -0.00016 -0.000175 0.003
      endloop
   endfacet
   facet normal 1 0 0
      outer loop
         vertex 0.00016 0.000175 0.003
         vertex 0.00016 -0.000175 0.003
         vertex 0.00016 -0.000175 0.0008
      endloop
   endfacet
   facet normal 1 0 0
      outer loop
         vertex 0.00016 -0.000175 0.0008
         vertex 0.00016 0.000175 0.0008
         vertex 0.00016 0.000175 0.003
      endloop
   endfacet
   facet normal 0 0 -1
      outer loop
         vertex 0.00124155 -0.00208 0.00015
         vertex -0.00109 -0.000175 0.00015
         vertex -0.00016 -0.000175 0.00015
      endloop
   endfacet
   facet normal 0 0 -1
      outer loop
         vertex 0.00124155 0.00112 0.00015
         vertex -0.00109 0.000175 0.00015
         vertex -0.00141 0.000175 0.00015
      endloop
   endfacet
   facet normal 0 0 -1
      outer loop
         vertex -0.00109 0.000175 0.00015
         vertex 0.00124155 0.00112 0.00015
         vertex -0.00016 0.000175 0.00015
      endloop
   endfacet
   facet normal 0 0 -1
      outer loop
         vertex 0.00124155 -0.00208 0.00015
         vertex -0.00141 -0.000175 0.00015
         vertex -0.00109 -0.000175 0.00015
      endloop
   endfacet
   facet normal 0 0 -1
      outer loop
         vertex -0.00141 0.000175 0.00015
         vertex -0.00234 0.000175 0.00015
         vertex 0.00124155 0.00112 0.00015
      endloop
   endfacet
   facet normal 0 0 -1
      outer loop
         vertex 0.00124155 0.00112 0.00015
         vertex 0.00016 0.000175 0.00015
         vertex -0.00016 0.000175 0.00015
      endloop
   endfacet
   facet normal 0 0 -1
      outer loop
         vertex 0.00124155 -0.00208 0.00015
         vertex -0.00234 -0.000175 0.00015
         vertex -0.00141 -0.000175 0.00015
      endloop
   endfacet
   facet normal 0 0 -1
      outer loop
         vertex -0.00359 0.000175 0.00015
         vertex -0.00499155 0.00112 0.00015
         vertex -0.00266 -0.000175 0.00015
      endloop
   endfacet
   facet normal 0 0 -1
      outer loop
         vertex -0.00016 0.000175 0.00015
         vertex -0.00109 -0.000175 0.00015
         vertex -0.00109 0.000175 0.00015
      endloop
   endfacet
   facet normal 0 0 -1
      outer loop
         vertex 0.00124155 0.00112 0.00015
         vertex 0.00124155 -0.00208 0.00015
         vertex 0.00016 -0.000175 0.00015
      endloop
   endfacet
   facet normal 0 0 -1
      outer loop
         vertex 0.00124155 -0.00208 0.00015
         vertex -0.00266 -0.000175 0.00015
         vertex -0.00234 -0.000175 0.00015
      endloop
   endfacet
   facet normal 0 0 -1
      outer loop
         vertex -0.00266 -0.000175 0.00015
         vertex 0.00124155 -0.00208 0.00015
         vertex -0.00359 0.000175 0.00015
      endloop
   endfacet
   facet normal 0 0 -1
      outer loop
         vertex 0.00016 -0.000175 0.00015
         vertex 0.00016 0.000175 0.00015
         vertex 0.00124155 0.00112 0.00015
      endloop
   endfacet
   facet normal 0 0 -1
      outer loop
         vertex -0.00359 0.000175 0.00015
         vertex -0.00391 0.000175 0.00015
         vertex -0.00499155 0.00112 0.00015
      endloop
   endfacet
   facet normal 0 0 -1
      outer loop
         vertex -0.00016 -0.000175 0.00015
         vertex 0.00016 -0.000175 0.00015
         vertex 0.00124155 -0.00208 0.00015
      endloop
   endfacet
   facet normal 0 0 -1
      outer loop
         vertex -0.00109 -0.000175 0.00015
         vertex -0.00016 0.000175 0.00015
         vertex -0.00016 -0.000175 0.00015
      endloop
   endfacet
   facet normal 0 0 -1
      outer loop
         vertex -0.00234 -0.000175 0.00015
         vertex -0.00141 0.000175 0.00015
         vertex -0.00141 -0.000175 0.00015
      endloop
   endfacet
   facet normal 0 0 -1
      outer loop
         vertex -0.00499155 0.00112 0.00015
         vertex -0.00266 0.000175 0.00015
         vertex -0.00266 -0.000175 0.00015
      endloop
   endfacet
   facet normal 0 0 -1
      outer loop
         vertex 0.00124155 -0.00208 0.00015
         vertex -0.00359 -0.000175 0.00015
         vertex -0.00359 0.000175 0.00015
      endloop
   endfacet
   facet normal 0 0 -1
      outer loop
         vertex -0.00499155 -0.00208 0.00015
         vertex -0.00391 -0.000175 0.00015
         vertex -0.00359 -0.000175 0.00015
      endloop
   endfacet
   facet normal 0 0 -1
      outer loop
         vertex -0.00359 -0.000175 0.00015
         vertex 0.00124155 -0.00208 0.00015
         vertex -0.00499155 -0.00208 0.00015
      endloop
   endfacet
   facet normal 0 0 -1
      outer loop
         vertex -0.00499155 0.00112 0.00015
         vertex -0.00391 0.000175 0.00015
         vertex -0.00391 -0.000175 0.00015
      endloop
   endfacet
   facet normal 0 0 -1
      outer loop
         vertex -0.00499155 0.00112 0.00015
         vertex 0.00124155 0.00112 0.00015
         vertex -0.00234 0.000175 0.00015
      endloop
   endfacet
   facet normal 0 0 -1
      outer loop
         vertex -0.00391 -0.000175 0.00015
         vertex -0.00499155 -0.00208 0.00015
         vertex -0.00499155 0.00112 0.00015
      endloop
   endfacet
   facet normal 0 0 -1
      outer loop
         vertex -0.00141 0.000175 0.00015
         vertex -0.00234 -0.000175 0.00015
         vertex -0.00234 0.000175 0.00015
      endloop
   endfacet
   facet normal 0 0 -1
      outer loop
         vertex -0.00234 0.000175 0.00015
         vertex -0.00266 0.000175 0.00015
         vertex -0.00499155 0.00112 0.00015
      endloop
   endfacet
   facet normal 0 -1 0
      outer loop
         vertex -0.00141 -0.000175 -0.0018
         vertex -0.00109 -0.000175 -0.0018
         vertex -0.00109 -0.000175 0.00015
      endloop
   endfacet
   facet normal 0 -1 0
      outer loop
         vertex -0.00109 -0.000175 0.00015
         vertex -0.00141 -0.000175 0.00015
         vertex -0.00141 -0.000175 -0.0018
      endloop
   endfacet
   facet normal -1 0 0
      outer loop
         vertex -0.00141 0.000175 -0.0018
         vertex -0.00141 -0.000175 -0.0018
         vertex -0.00141 -0.000175 0.00015
      endloop
   endfacet
   facet normal -1 0 0
      outer loop
         vertex -0.00141 -0.000175 0.00015
         vertex -0.00141 0.000175 0.00015
         vertex -0.00141 0.000175 -0.0018
      endloop
   endfacet
   facet normal 0 1 0
      outer loop
         vertex -0.00109 0.000175 -0.0018
         vertex -0.00141 0.000175 -0.0018
         vertex -0.00141 0.000175 0.00015
      endloop
   endfacet
   facet normal 0 1 0
      outer loop
         vertex -0.00141 0.000175 0.00015
         vertex -0.00109 0.000175 0.00015
         vertex -0.00109 0.000175 -0.0018
      endloop
   endfacet
   facet normal -0.980581 0 -0.196116
      outer loop
         vertex -0.00141 -0.000175 -0.0018
         vertex -0.00141 0.000175 -0.0018
         vertex -0.00131 7.5e-05 -0.0023
      endloop
   endfacet
   facet normal -0.980581 0 -0.196116
      outer loop
         vertex -0.00131 7.5e-05 -0.0023
         vertex -0.00131 -7.5e-05 -0.0023
         vertex -0.00141 -0.000175 -0.0018
      endloop
   endfacet
   facet normal 0 -0.980581 -0.196116
      outer loop
         vertex -0.00141 -0.000175 -0.0018
         vertex -0.00131 -7.5e-05 -0.0023
         vertex -0.00119 -7.5e-05 -0.0023
      endloop
   endfacet
   facet normal 0 -0.980581 -0.196116
      outer loop
         vertex -0.00119 -7.5e-05 -0.0023
         vertex -0.00109 -0.000175 -0.0018
         vertex -0.00141 -0.000175 -0.0018
      endloop
   endfacet
   facet normal 0 0 -1
      outer loop
         vertex -0.00131 7.5e-05 -0.0023
         vertex -0.00119 7.5e-05 -0.0023
         vertex -0.00119 -7.5e-05 -0.0023
      endloop
   endfacet
   facet normal 0 0 -1
      outer loop
         vertex -0.00119 -7.5e-05 -0.0023
         vertex -0.00131 -7.5e-05 -0.0023
         vertex -0.00131 7.5e-05 -0.0023
      endloop
   endfacet
   facet normal 0 0.980581 -0.196116
      outer loop
         vertex -0.00141 0.000175 -0.0018
         vertex -0.00109 0.000175 -0.0018
         vertex -0.00119 7.5e-05 -0.0023
      endloop
   endfacet
   facet normal 0 0.980581 -0.196116
      outer loop
         vertex -0.00119 7.5e-05 -0.0023
         vertex -0.00131 7.5e-05 -0.0023
         vertex -0.00141 0.000175 -0.0018
      endloop
   endfacet
   facet normal 0.980581 0 -0.196116
      outer loop
         vertex -0.00109 0.000175 -0.0018
         vertex -0.00109 -0.000175 -0.0018
         vertex -0.00119 -7.5e-05 -0.0023
      endloop
   endfacet
   facet normal 0.980581 0 -0.196116
      outer loop
         vertex -0.00119 -7.5e-05 -0.0023
         vertex -0.00119 7.5e-05 -0.0023
         vertex -0.00109 0.000175 -0.0018
      endloop
   endfacet
   facet normal 1 0 0
      outer loop
         vertex -0.00109 -0.000175 -0.0018
         vertex -0.00109 0.000175 -0.0018
         vertex -0.00109 0.000175 0.00015
      endloop
   endfacet
   facet normal 1 0 0
      outer loop
         vertex -0.00109 0.000175 0.00015
         vertex -0.00109 -0.000175 0.00015
         vertex -0.00109 -0.000175 -0.0018
      endloop
   endfacet
   facet normal 0 -1 0
      outer loop
         vertex -0.00266 -0.000175 -0.0018
         vertex -0.00234 -0.000175 -0.0018
         vertex -0.00234 -0.000175 0.00015
      endloop
   endfacet
   facet normal 0 -1 0
      outer loop
         vertex -0.00234 -0.000175 0.00015
         vertex -0.00266 -0.000175 0.00015
         vertex -0.00266 -0.000175 -0.0018
      endloop
   endfacet
   facet normal -1 0 0
      outer loop
         vertex -0.00266 0.000175 -0.0018
         vertex -0.00266 -0.000175 -0.0018
         vertex -0.00266 -0.000175 0.00015
      endloop
   endfacet
   facet normal -1 0 0
      outer loop
         vertex -0.00266 -0.000175 0.00015
         vertex -0.00266 0.000175 0.00015
         vertex -0.00266 0.000175 -0.0018
      endloop
   endfacet
   facet normal 0 1 0
      outer loop
         vertex -0.00234 0.000175 -0.0018
         vertex -0.00266 0.000175 -0.0018
         vertex -0.00266 0.000175 0.00015
      endloop
   endfacet
   facet normal 0 1 0
      outer loop
         vertex -0.00266 0.000175 0.00015
         vertex -0.00234 0.000175 0.00015
         vertex -0.00234 0.000175 -0.0018
      endloop
   endfacet
   facet normal -0.980581 0 -0.196116
      outer loop
         vertex -0.00266 -0.000175 -0.0018
         vertex -0.00266 0.000175 -0.0018
         vertex -0.00256 7.5e-05 -0.0023
      endloop
   endfacet
   facet normal -0.980581 0 -0.196116
      outer loop
         vertex -0.00256 7.5e-05 -0.0023
         vertex -0.00256 -7.5e-05 -0.0023
         vertex -0.00266 -0.000175 -0.0018
      endloop
   endfacet
   facet normal 0 0.980581 -0.196116
      outer loop
         vertex -0.00266 0.000175 -0.0018
         vertex -0.00234 0.000175 -0.0018
         vertex -0.00244 7.5e-05 -0.0023
      endloop
   endfacet
   facet normal 0 0.980581 -0.196116
      outer loop
         vertex -0.00244 7.5e-05 -0.0023
         vertex -0.00256 7.5e-05 -0.0023
         vertex -0.00266 0.000175 -0.0018
      endloop
   endfacet
   facet normal 0.980581 0 -0.196116
      outer loop
         vertex -0.00234 0.000175 -0.0018
         vertex -0.00234 -0.000175 -0.0018
         vertex -0.00244 -7.5e-05 -0.0023
      endloop
   endfacet
   facet normal 0.980581 0 -0.196116
      outer loop
         vertex -0.00244 -7.5e-05 -0.0023
         vertex -0.00244 7.5e-05 -0.0023
         vertex -0.00234 0.000175 -0.0018
      endloop
   endfacet
   facet normal 0 -0.980581 -0.196116
      outer loop
         vertex -0.00266 -0.000175 -0.0018
         vertex -0.00256 -7.5e-05 -0.0023
         vertex -0.00244 -7.5e-05 -0.0023
      endloop
   endfacet
   facet normal 0 -0.980581 -0.196116
      outer loop
         vertex -0.00244 -7.5e-05 -0.0023
         vertex -0.00234 -0.000175 -0.0018
         vertex -0.00266 -0.000175 -0.0018
      endloop
   endfacet
   facet normal 1 0 0
      outer loop
         vertex -0.00234 -0.000175 -0.0018
         vertex -0.00234 0.000175 -0.0018
         vertex -0.00234 0.000175 0.00015
      endloop
   endfacet
   facet normal 1 0 0
      outer loop
         vertex -0.00234 0.000175 0.00015
         vertex -0.00234 -0.000175 0.00015
         vertex -0.00234 -0.000175 -0.0018
      endloop
   endfacet
   facet normal 0 0 -1
      outer loop
         vertex -0.00256 7.5e-05 -0.0023
         vertex -0.00244 7.5e-05 -0.0023
         vertex -0.00244 -7.5e-05 -0.0023
      endloop
   endfacet
   facet normal 0 0 -1
      outer loop
         vertex -0.00244 -7.5e-05 -0.0023
         vertex -0.00256 -7.5e-05 -0.0023
         vertex -0.00256 7.5e-05 -0.0023
      endloop
   endfacet
   facet normal 1 0 0
      outer loop
         vertex -0.00359 -0.000175 0.00015
         vertex -0.00359 -0.000175 -0.0018
         vertex -0.00359 0.000175 -0.0018
      endloop
   endfacet
   facet normal 1 0 0
      outer loop
         vertex -0.00359 0.000175 -0.0018
         vertex -0.00359 0.000175 0.00015
         vertex -0.00359 -0.000175 0.00015
      endloop
   endfacet
   facet normal 0 1 0
      outer loop
         vertex -0.00359 0.000175 -0.0018
         vertex -0.00391 0.000175 -0.0018
         vertex -0.00391 0.000175 0.00015
      endloop
   endfacet
   facet normal 0 1 0
      outer loop
         vertex -0.00391 0.000175 0.00015
         vertex -0.00359 0.000175 0.00015
         vertex -0.00359 0.000175 -0.0018
      endloop
   endfacet
   facet normal -1 0 0
      outer loop
         vertex -0.00391 -0.000175 -0.0018
         vertex -0.00391 -0.000175 0.00015
         vertex -0.00391 0.000175 0.00015
      endloop
   endfacet
   facet normal -1 0 0
      outer loop
         vertex -0.00391 0.000175 0.00015
         vertex -0.00391 0.000175 -0.0018
         vertex -0.00391 -0.000175 -0.0018
      endloop
   endfacet
   facet normal 0 0.980581 -0.196116
      outer loop
         vertex -0.00359 0.000175 -0.0018
         vertex -0.00369 7.5e-05 -0.0023
         vertex -0.00381 7.5e-05 -0.0023
      endloop
   endfacet
   facet normal 0 0.980581 -0.196116
      outer loop
         vertex -0.00381 7.5e-05 -0.0023
         vertex -0.00391 0.000175 -0.0018
         vertex -0.00359 0.000175 -0.0018
      endloop
   endfacet
   facet normal -0.980581 0 -0.196116
      outer loop
         vertex -0.00391 -0.000175 -0.0018
         vertex -0.00391 0.000175 -0.0018
         vertex -0.00381 7.5e-05 -0.0023
      endloop
   endfacet
   facet normal -0.980581 0 -0.196116
      outer loop
         vertex -0.00381 7.5e-05 -0.0023
         vertex -0.00381 -7.5e-05 -0.0023
         vertex -0.00391 -0.000175 -0.0018
      endloop
   endfacet
   facet normal 0.980581 0 -0.196116
      outer loop
         vertex -0.00359 -0.000175 -0.0018
         vertex -0.00369 -7.5e-05 -0.0023
         vertex -0.00369 7.5e-05 -0.0023
      endloop
   endfacet
   facet normal 0.980581 0 -0.196116
      outer loop
         vertex -0.00369 7.5e-05 -0.0023
         vertex -0.00359 0.000175 -0.0018
         vertex -0.00359 -0.000175 -0.0018
      endloop
   endfacet
   facet normal 0 -1 0
      outer loop
         vertex -0.00391 -0.000175 -0.0018
         vertex -0.00359 -0.000175 -0.0018
         vertex -0.00359 -0.000175 0.00015
      endloop
   endfacet
   facet normal 0 -1 0
      outer loop
         vertex -0.00359 -0.000175 0.00015
         vertex -0.00391 -0.000175 0.00015
         vertex -0.00391 -0.000175 -0.0018
      endloop
   endfacet
   facet normal 0 -0.980581 -0.196116
      outer loop
         vertex -0.00359 -0.000175 -0.0018
         vertex -0.00391 -0.000175 -0.0018
         vertex -0.00381 -7.5e-05 -0.0023
      endloop
   endfacet
   facet normal 0 -0.980581 -0.196116
      outer loop
         vertex -0.00381 -7.5e-05 -0.0023
         vertex -0.00369 -7.5e-05 -0.0023
         vertex -0.00359 -0.000175 -0.0018
      endloop
   endfacet
   facet normal 0 0 -1
      outer loop
         vertex -0.00369 -7.5e-05 -0.0023
         vertex -0.00381 -7.5e-05 -0.0023
         vertex -0.00381 7.5e-05 -0.0023
      endloop
   endfacet
   facet normal 0 0 -1
      outer loop
         vertex -0.00381 7.5e-05 -0.0023
         vertex -0.00369 7.5e-05 -0.0023
         vertex -0.00369 -7.5e-05 -0.0023
      endloop
   endfacet
   facet normal 0 -1 0
      outer loop
         vertex -0.00016 -0.000175 -0.0018
         vertex 0.00016 -0.000175 -0.0018
         vertex 0.00016 -0.000175 0.00015
      endloop
   endfacet
   facet normal 0 -1 0
      outer loop
         vertex 0.00016 -0.000175 0.00015
         vertex -0.00016 -0.000175 0.00015
         vertex -0.00016 -0.000175 -0.0018
      endloop
   endfacet
   facet normal -1 0 0
      outer loop
         vertex -0.00016 0.000175 -0.0018
         vertex -0.00016 -0.000175 -0.0018
         vertex -0.00016 -0.000175 0.00015
      endloop
   endfacet
   facet normal -1 0 0
      outer loop
         vertex -0.00016 -0.000175 0.00015
         vertex -0.00016 0.000175 0.00015
         vertex -0.00016 0.000175 -0.0018
      endloop
   endfacet
   facet normal 0 1 0
      outer loop
         vertex 0.00016 0.000175 -0.0018
         vertex -0.00016 0.000175 -0.0018
         vertex -0.00016 0.000175 0.00015
      endloop
   endfacet
   facet normal 0 1 0
      outer loop
         vertex -0.00016 0.000175 0.00015
         vertex 0.00016 0.000175 0.00015
         vertex 0.00016 0.000175 -0.0018
      endloop
   endfacet
   facet normal -0.980581 0 -0.196116
      outer loop
         vertex -0.00016 -0.000175 -0.0018
         vertex -0.00016 0.000175 -0.0018
         vertex -6.1e-05 7.6e-05 -0.002295
      endloop
   endfacet
   facet normal -0.980581 0 -0.196116
      outer loop
         vertex -6.1e-05 7.6e-05 -0.002295
         vertex -6.1e-05 -7.6e-05 -0.002295
         vertex -0.00016 -0.000175 -0.0018
      endloop
   endfacet
   facet normal 0 0.980581 -0.196116
      outer loop
         vertex -0.00016 0.000175 -0.0018
         vertex 0.00016 0.000175 -0.0018
         vertex 6.1e-05 7.6e-05 -0.002295
      endloop
   endfacet
   facet normal 0 0.980581 -0.196116
      outer loop
         vertex 6.1e-05 7.6e-05 -0.002295
         vertex -6.1e-05 7.6e-05 -0.002295
         vertex -0.00016 0.000175 -0.0018
      endloop
   endfacet
   facet normal 0 -0.980581 -0.196116
      outer loop
         vertex 0.00016 -0.000175 -0.0018
         vertex -0.00016 -0.000175 -0.0018
         vertex -6.1e-05 -7.6e-05 -0.002295
      endloop
   endfacet
   facet normal 0 -0.980581 -0.196116
      outer loop
         vertex -6.1e-05 -7.6e-05 -0.002295
         vertex 6.1e-05 -7.6e-05 -0.002295
         vertex 0.00016 -0.000175 -0.0018
      endloop
   endfacet
   facet normal 0 0 -1
      outer loop
         vertex 6.1e-05 -7.6e-05 -0.002295
         vertex -6.1e-05 -7.6e-05 -0.002295
         vertex -6.1e-05 7.6e-05 -0.002295
      endloop
   endfacet
   facet normal 0 0 -1
      outer loop
         vertex -6.1e-05 7.6e-05 -0.002295
         vertex 6.1e-05 7.6e-05 -0.002295
         vertex 6.1e-05 -7.6e-05 -0.002295
      endloop
   endfacet
   facet normal 0.980581 0 -0.196116
      outer loop
         vertex 0.00016 0.000175 -0.0018
         vertex 0.00016 -0.000175 -0.0018
         vertex 6.1e-05 -7.6e-05 -0.002295
      endloop
   endfacet
   facet normal 0.980581 0 -0.196116
      outer loop
         vertex 6.1e-05 -7.6e-05 -0.002295
         vertex 6.1e-05 7.6e-05 -0.002295
         vertex 0.00016 0.000175 -0.0018
      endloop
   endfacet
   facet normal 1 0 0
      outer loop
         vertex 0.00016 -0.000175 -0.0018
         vertex 0.00016 0.000175 -0.0018
         vertex 0.00016 0.000175 0.00015
      endloop
   endfacet
   facet normal 1 0 0
      outer loop
         vertex 0.00016 0.000175 0.00015
         vertex 0.00016 -0.000175 0.00015
         vertex 0.00016 -0.000175 -0.0018
      endloop
   endfacet
endsolid 064-0267-000_1. Units = meters