solid 090-0233-000_1. STL generated by ONSHAPE BY PTC INC, 1.216. Units = meters
   facet normal -0.982914 0 0.184066
      outer loop
         vertex -0.001 0.00065 0.0008062
         vertex -0.0011 0.00065 0.0002722
         vertex -0.0011 -0.00065 0.0002722
      endloop
   endfacet
   facet normal -0.982914 0 0.184066
      outer loop
         vertex -0.0011 -0.00065 0.0002722
         vertex -0.001 -0.00065 0.0008062
         vertex -0.001 0.00065 0.0008062
      endloop
   endfacet
   facet normal 0 0 1
      outer loop
         vertex 0.00078 -0.00065 0.0008062
         vertex 0.00078 0.00065 0.0008062
         vertex -0.001 0.00065 0.0008062
      endloop
   endfacet
   facet normal 0 0 1
      outer loop
         vertex -0.001 0.00065 0.0008062
         vertex -0.001 -0.00065 0.0008062
         vertex 0.00078 -0.00065 0.0008062
      endloop
   endfacet
   facet normal 1 0 0
      outer loop
         vertex 0.00078 0.00065 0.0008062
         vertex 0.00078 -0.00065 0.0008062
         vertex 0.00078 -0.00065 0.0007962
      endloop
   endfacet
   facet normal 1 0 0
      outer loop
         vertex 0.00078 -0.00065 0.0007962
         vertex 0.00078 0.00065 0.0007962
         vertex 0.00078 0.00065 0.0008062
      endloop
   endfacet
   facet normal 0 0 1
      outer loop
         vertex 0.00078 -0.00065 0.0007962
         vertex 0.00088 -0.00065 0.0007962
         vertex 0.00088 0.00065 0.0007962
      endloop
   endfacet
   facet normal 0 0 1
      outer loop
         vertex 0.00088 0.00065 0.0007962
         vertex 0.00078 0.00065 0.0007962
         vertex 0.00078 -0.00065 0.0007962
      endloop
   endfacet
   facet normal -1 0 0
      outer loop
         vertex 0.00088 -0.00065 0.0008062
         vertex 0.00088 0.00065 0.0008062
         vertex 0.00088 0.00065 0.0007962
      endloop
   endfacet
   facet normal -1 0 0
      outer loop
         vertex 0.00088 0.00065 0.0007962
         vertex 0.00088 -0.00065 0.0007962
         vertex 0.00088 -0.00065 0.0008062
      endloop
   endfacet
   facet normal 0 0 1
      outer loop
         vertex 0.00088 0.00065 0.0008062
         vertex 0.00088 -0.00065 0.0008062
         vertex 0.001 -0.00065 0.0008062
      endloop
   endfacet
   facet normal 0 0 1
      outer loop
         vertex 0.001 -0.00065 0.0008062
         vertex 0.001 0.00065 0.0008062
         vertex 0.00088 0.00065 0.0008062
      endloop
   endfacet
   facet normal 0.982914 0 0.184066
      outer loop
         vertex 0.0011 0.00065 0.0002722
         vertex 0.001 0.00065 0.0008062
         vertex 0.001 -0.00065 0.0008062
      endloop
   endfacet
   facet normal 0.982914 0 0.184066
      outer loop
         vertex 0.001 -0.00065 0.0008062
         vertex 0.0011 -0.00065 0.0002722
         vertex 0.0011 0.00065 0.0002722
      endloop
   endfacet
   facet normal 0 -1 0
      outer loop
         vertex -0.001 -0.00065 0.0008062
         vertex -0.0011 -0.00065 0.0002722
         vertex 0.00078 -0.00065 0.0007962
      endloop
   endfacet
   facet normal 0 -1 0
      outer loop
         vertex 0.00078 -0.00065 0.0007962
         vertex 0.0011 -0.00065 0.0001262
         vertex 0.0011 -0.00065 0.0002722
      endloop
   endfacet
   facet normal 0 -1 0
      outer loop
         vertex 0.00078 -0.00065 0.0007962
         vertex 0.00078 -0.00065 0.0008062
         vertex -0.001 -0.00065 0.0008062
      endloop
   endfacet
   facet normal 0 -1 0
      outer loop
         vertex 0.0011 -0.00065 0.0002722
         vertex 0.00088 -0.00065 0.0007962
         vertex 0.00078 -0.00065 0.0007962
      endloop
   endfacet
   facet normal 0 -1 0
      outer loop
         vertex 0.00078 -0.00065 0.0007962
         vertex -0.0011 -0.00065 0.0001262
         vertex 0.0011 -0.00065 0.0001262
      endloop
   endfacet
   facet normal 0 -1 0
      outer loop
         vertex 0.001 -0.00065 0.0008062
         vertex 0.00088 -0.00065 0.0008062
         vertex 0.00088 -0.00065 0.0007962
      endloop
   endfacet
   facet normal 0 -1 0
      outer loop
         vertex 0.00088 -0.00065 0.0007962
         vertex 0.0011 -0.00065 0.0002722
         vertex 0.001 -0.00065 0.0008062
      endloop
   endfacet
   facet normal 0 -1 0
      outer loop
         vertex -0.0011 -0.00065 0.0002722
         vertex -0.0011 -0.00065 0.0001262
         vertex 0.00078 -0.00065 0.0007962
      endloop
   endfacet
   facet normal 0 1 0
      outer loop
         vertex 0.00078 0.00065 0.0007962
         vertex 0.00088 0.00065 0.0007962
         vertex 0.0011 0.00065 0.0002722
      endloop
   endfacet
   facet normal 0 1 0
      outer loop
         vertex 0.001 0.00065 0.0008062
         vertex 0.0011 0.00065 0.0002722
         vertex 0.00088 0.00065 0.0007962
      endloop
   endfacet
   facet normal 0 1 0
      outer loop
         vertex 0.0011 0.00065 0.0001262
         vertex -0.0011 0.00065 0.0001262
         vertex 0.00078 0.00065 0.0007962
      endloop
   endfacet
   facet normal 0 1 0
      outer loop
         vertex -0.001 0.00065 0.0008062
         vertex 0.00078 0.00065 0.0008062
         vertex 0.00078 0.00065 0.0007962
      endloop
   endfacet
   facet normal 0 1 0
      outer loop
         vertex 0.0011 0.00065 0.0002722
         vertex 0.0011 0.00065 0.0001262
         vertex 0.00078 0.00065 0.0007962
      endloop
   endfacet
   facet normal 0 1 0
      outer loop
         vertex 0.00078 0.00065 0.0007962
         vertex -0.0011 0.00065 0.0001262
         vertex -0.0011 0.00065 0.0002722
      endloop
   endfacet
   facet normal 0 1 0
      outer loop
         vertex 0.00078 0.00065 0.0007962
         vertex -0.0011 0.00065 0.0002722
         vertex -0.001 0.00065 0.0008062
      endloop
   endfacet
   facet normal 0 1 0
      outer loop
         vertex 0.00088 0.00065 0.0007962
         vertex 0.00088 0.00065 0.0008062
         vertex 0.001 0.00065 0.0008062
      endloop
   endfacet
   facet normal -1 0 0
      outer loop
         vertex -0.0011 -0.00065 0.0002722
         vertex -0.0011 0.00065 0.0002722
         vertex -0.0011 0.000325 0.0002712
      endloop
   endfacet
   facet normal -1 0 0
      outer loop
         vertex -0.0011 0.000325 0.0002712
         vertex -0.0011 -0.000325 0.0002712
         vertex -0.0011 -0.00065 0.0002722
      endloop
   endfacet
   facet normal -1 0 0
      outer loop
         vertex -0.0011 -0.000325 0.0002712
         vertex -0.0011 -0.00065 0.0001262
         vertex -0.0011 -0.00065 0.0002722
      endloop
   endfacet
   facet normal -1 0 0
      outer loop
         vertex -0.0011 0.00065 0.0001262
         vertex -0.0011 0.000325 0.0001262
         vertex -0.0011 0.000325 0.0002712
      endloop
   endfacet
   facet normal -1 0 0
      outer loop
         vertex -0.0011 0.000325 0.0002712
         vertex -0.0011 0.00065 0.0002722
         vertex -0.0011 0.00065 0.0001262
      endloop
   endfacet
   facet normal -1 0 0
      outer loop
         vertex -0.0011 -0.000325 0.0002712
         vertex -0.0011 -0.000325 0.0001262
         vertex -0.0011 -0.00065 0.0001262
      endloop
   endfacet
   facet normal 0 0 1
      outer loop
         vertex -0.00125 -0.000325 0.0002712
         vertex -0.0011 -0.000325 0.0002712
         vertex -0.0011 0.000325 0.0002712
      endloop
   endfacet
   facet normal 0 0 1
      outer loop
         vertex -0.0011 0.000325 0.0002712
         vertex -0.00125 0.000325 0.0002712
         vertex -0.00125 -0.000325 0.0002712
      endloop
   endfacet
   facet normal -1 0 0
      outer loop
         vertex -0.00125 0.000325 8.62e-05
         vertex -0.00125 -0.000325 8.62e-05
         vertex -0.00125 -0.000325 0.0002712
      endloop
   endfacet
   facet normal -1 0 0
      outer loop
         vertex -0.00125 -0.000325 0.0002712
         vertex -0.00125 0.000325 0.0002712
         vertex -0.00125 0.000325 8.62e-05
      endloop
   endfacet
   facet normal 0 -1 0
      outer loop
         vertex -0.00125 -0.000325 0.0002712
         vertex -0.00125 -0.000325 8.62e-05
         vertex -0.0011 -0.000325 0.0001262
      endloop
   endfacet
   facet normal 0 -1 0
      outer loop
         vertex 5e-05 -0.000325 8.62e-05
         vertex 5e-05 -0.000325 0.0001262
         vertex -0.0011 -0.000325 0.0001262
      endloop
   endfacet
   facet normal 0 -1 0
      outer loop
         vertex -0.0011 -0.000325 0.0001262
         vertex -0.00125 -0.000325 8.62e-05
         vertex 5e-05 -0.000325 8.62e-05
      endloop
   endfacet
   facet normal 0 -1 0
      outer loop
         vertex -0.0011 -0.000325 0.0001262
         vertex -0.0011 -0.000325 0.0002712
         vertex -0.00125 -0.000325 0.0002712
      endloop
   endfacet
   facet normal 0 1 0
      outer loop
         vertex 5e-05 0.000325 8.62e-05
         vertex -0.00125 0.000325 8.62e-05
         vertex -0.0011 0.000325 0.0001262
      endloop
   endfacet
   facet normal 0 1 0
      outer loop
         vertex -0.00125 0.000325 0.0002712
         vertex -0.0011 0.000325 0.0002712
         vertex -0.0011 0.000325 0.0001262
      endloop
   endfacet
   facet normal 0 1 0
      outer loop
         vertex -0.0011 0.000325 0.0001262
         vertex -0.00125 0.000325 8.62e-05
         vertex -0.00125 0.000325 0.0002712
      endloop
   endfacet
   facet normal 0 1 0
      outer loop
         vertex -0.0011 0.000325 0.0001262
         vertex 5e-05 0.000325 0.0001262
         vertex 5e-05 0.000325 8.62e-05
      endloop
   endfacet
   facet normal 1 0 0
      outer loop
         vertex 5e-05 -0.000325 8.62e-05
         vertex 5e-05 0.000325 8.62e-05
         vertex 5e-05 0.000325 0.0001262
      endloop
   endfacet
   facet normal 1 0 0
      outer loop
         vertex 5e-05 0.000325 0.0001262
         vertex 5e-05 -0.000325 0.0001262
         vertex 5e-05 -0.000325 8.62e-05
      endloop
   endfacet
   facet normal 0 0 -1
      outer loop
         vertex 0.0006 0.000325 0.0001262
         vertex 0.0006 -0.000325 0.0001262
         vertex 5e-05 -0.000325 0.0001262
      endloop
   endfacet
   facet normal 0 0 -1
      outer loop
         vertex -0.0011 -0.00065 0.0001262
         vertex -0.0011 -0.000325 0.0001262
         vertex 5e-05 -0.000325 0.0001262
      endloop
   endfacet
   facet normal 0 0 -1
      outer loop
         vertex 0.0011 -0.00065 0.0001262
         vertex -0.0011 -0.00065 0.0001262
         vertex 0.0006 -0.000325 0.0001262
      endloop
   endfacet
   facet normal 0 0 -1
      outer loop
         vertex 5e-05 -0.000325 0.0001262
         vertex 0.0006 -0.000325 0.0001262
         vertex -0.0011 -0.00065 0.0001262
      endloop
   endfacet
   facet normal 0 0 -1
      outer loop
         vertex 5e-05 -0.000325 0.0001262
         vertex 5e-05 0.000325 0.0001262
         vertex 0.0006 0.000325 0.0001262
      endloop
   endfacet
   facet normal 0 0 -1
      outer loop
         vertex 0.0011 0.00065 0.0001262
         vertex 0.0011 0.000325 0.0001262
         vertex 0.0006 0.000325 0.0001262
      endloop
   endfacet
   facet normal 0 0 -1
      outer loop
         vertex -0.0011 0.00065 0.0001262
         vertex 0.0011 0.00065 0.0001262
         vertex 5e-05 0.000325 0.0001262
      endloop
   endfacet
   facet normal 0 0 -1
      outer loop
         vertex 0.0006 0.000325 0.0001262
         vertex 5e-05 0.000325 0.0001262
         vertex 0.0011 0.00065 0.0001262
      endloop
   endfacet
   facet normal 0 0 -1
      outer loop
         vertex 0.0006 -0.000325 0.0001262
         vertex 0.0011 -0.000325 0.0001262
         vertex 0.0011 -0.00065 0.0001262
      endloop
   endfacet
   facet normal 0 0 -1
      outer loop
         vertex 5e-05 0.000325 0.0001262
         vertex -0.0011 0.000325 0.0001262
         vertex -0.0011 0.00065 0.0001262
      endloop
   endfacet
   facet normal 1 0 0
      outer loop
         vertex 0.0011 0.00065 0.0002722
         vertex 0.0011 -0.00065 0.0002722
         vertex 0.0011 0.000325 0.0002712
      endloop
   endfacet
   facet normal 1 0 0
      outer loop
         vertex 0.0011 -0.00065 0.0001262
         vertex 0.0011 -0.000325 0.0001262
         vertex 0.0011 -0.000325 0.0002712
      endloop
   endfacet
   facet normal 1 0 0
      outer loop
         vertex 0.0011 0.000325 0.0002712
         vertex 0.0011 0.00065 0.0001262
         vertex 0.0011 0.00065 0.0002722
      endloop
   endfacet
   facet normal 1 0 0
      outer loop
         vertex 0.0011 -0.000325 0.0002712
         vertex 0.0011 -0.00065 0.0002722
         vertex 0.0011 -0.00065 0.0001262
      endloop
   endfacet
   facet normal 1 0 0
      outer loop
         vertex 0.0011 -0.000325 0.0002712
         vertex 0.0011 0.000325 0.0002712
         vertex 0.0011 -0.00065 0.0002722
      endloop
   endfacet
   facet normal 1 0 0
      outer loop
         vertex 0.0011 0.000325 0.0002712
         vertex 0.0011 0.000325 0.0001262
         vertex 0.0011 0.00065 0.0001262
      endloop
   endfacet
   facet normal -1 0 0
      outer loop
         vertex 0.0006 0.000325 8.62e-05
         vertex 0.0006 -0.000325 8.62e-05
         vertex 0.0006 -0.000325 0.0001262
      endloop
   endfacet
   facet normal -1 0 0
      outer loop
         vertex 0.0006 -0.000325 0.0001262
         vertex 0.0006 0.000325 0.0001262
         vertex 0.0006 0.000325 8.62e-05
      endloop
   endfacet
   facet normal 0 1 0
      outer loop
         vertex 0.00125 0.000325 0.0002712
         vertex 0.00125 0.000325 8.62e-05
         vertex 0.0011 0.000325 0.0001262
      endloop
   endfacet
   facet normal 0 1 0
      outer loop
         vertex 0.0006 0.000325 8.62e-05
         vertex 0.0006 0.000325 0.0001262
         vertex 0.0011 0.000325 0.0001262
      endloop
   endfacet
   facet normal 0 1 0
      outer loop
         vertex 0.0011 0.000325 0.0001262
         vertex 0.00125 0.000325 8.62e-05
         vertex 0.0006 0.000325 8.62e-05
      endloop
   endfacet
   facet normal 0 1 0
      outer loop
         vertex 0.0011 0.000325 0.0001262
         vertex 0.0011 0.000325 0.0002712
         vertex 0.00125 0.000325 0.0002712
      endloop
   endfacet
   facet normal 0 -1 0
      outer loop
         vertex 0.0006 -0.000325 8.62e-05
         vertex 0.00125 -0.000325 8.62e-05
         vertex 0.0011 -0.000325 0.0001262
      endloop
   endfacet
   facet normal 0 -1 0
      outer loop
         vertex 0.00125 -0.000325 0.0002712
         vertex 0.0011 -0.000325 0.0002712
         vertex 0.0011 -0.000325 0.0001262
      endloop
   endfacet
   facet normal 0 -1 0
      outer loop
         vertex 0.0011 -0.000325 0.0001262
         vertex 0.00125 -0.000325 8.62e-05
         vertex 0.00125 -0.000325 0.0002712
      endloop
   endfacet
   facet normal 0 -1 0
      outer loop
         vertex 0.0011 -0.000325 0.0001262
         vertex 0.0006 -0.000325 0.0001262
         vertex 0.0006 -0.000325 8.62e-05
      endloop
   endfacet
   facet normal 1 0 0
      outer loop
         vertex 0.00125 -0.000325 8.62e-05
         vertex 0.00125 0.000325 8.62e-05
         vertex 0.00125 0.000325 0.0002712
      endloop
   endfacet
   facet normal 1 0 0
      outer loop
         vertex 0.00125 0.000325 0.0002712
         vertex 0.00125 -0.000325 0.0002712
         vertex 0.00125 -0.000325 8.62e-05
      endloop
   endfacet
   facet normal 0 0 1
      outer loop
         vertex 0.0011 -0.000325 0.0002712
         vertex 0.00125 -0.000325 0.0002712
         vertex 0.00125 0.000325 0.0002712
      endloop
   endfacet
   facet normal 0 0 1
      outer loop
         vertex 0.00125 0.000325 0.0002712
         vertex 0.0011 0.000325 0.0002712
         vertex 0.0011 -0.000325 0.0002712
      endloop
   endfacet
   facet normal 0 0 1
      outer loop
         vertex 7.5e-05 0.00055 8.62e-05
         vertex -0.001925 0.00055 8.62e-05
         vertex -0.00125 0.000325 8.62e-05
      endloop
   endfacet
   facet normal 0 0 1
      outer loop
         vertex -0.001925 0.00055 8.62e-05
         vertex -0.001925 -0.00055 8.62e-05
         vertex -0.00125 -0.000325 8.62e-05
      endloop
   endfacet
   facet normal 0 0 1
      outer loop
         vertex -0.00125 -0.000325 8.62e-05
         vertex -0.00125 0.000325 8.62e-05
         vertex -0.001925 0.00055 8.62e-05
      endloop
   endfacet
   facet normal 0 0 1
      outer loop
         vertex 7.5e-05 -0.00055 8.62e-05
         vertex 5e-05 -0.000325 8.62e-05
         vertex -0.00125 -0.000325 8.62e-05
      endloop
   endfacet
   facet normal 0 0 1
      outer loop
         vertex -0.00125 -0.000325 8.62e-05
         vertex -0.001925 -0.00055 8.62e-05
         vertex 7.5e-05 -0.00055 8.62e-05
      endloop
   endfacet
   facet normal 0 0 1
      outer loop
         vertex 7.5e-05 -0.00055 8.62e-05
         vertex 7.5e-05 0.00055 8.62e-05
         vertex 5e-05 0.000325 8.62e-05
      endloop
   endfacet
   facet normal 0 0 1
      outer loop
         vertex 5e-05 0.000325 8.62e-05
         vertex 5e-05 -0.000325 8.62e-05
         vertex 7.5e-05 -0.00055 8.62e-05
      endloop
   endfacet
   facet normal 0 0 1
      outer loop
         vertex -0.00125 0.000325 8.62e-05
         vertex 5e-05 0.000325 8.62e-05
         vertex 7.5e-05 0.00055 8.62e-05
      endloop
   endfacet
   facet normal -1 0 0
      outer loop
         vertex -0.001925 0.00055 7.62e-05
         vertex -0.001925 -0.00055 7.62e-05
         vertex -0.001925 -0.00055 8.62e-05
      endloop
   endfacet
   facet normal -1 0 0
      outer loop
         vertex -0.001925 -0.00055 8.62e-05
         vertex -0.001925 0.00055 8.62e-05
         vertex -0.001925 0.00055 7.62e-05
      endloop
   endfacet
   facet normal 0 -1 0
      outer loop
         vertex -0.001925 -0.00055 7.62e-05
         vertex 7.5e-05 -0.00055 7.62e-05
         vertex 7.5e-05 -0.00055 8.62e-05
      endloop
   endfacet
   facet normal 0 -1 0
      outer loop
         vertex 7.5e-05 -0.00055 8.62e-05
         vertex -0.001925 -0.00055 8.62e-05
         vertex -0.001925 -0.00055 7.62e-05
      endloop
   endfacet
   facet normal 1 0 0
      outer loop
         vertex 7.5e-05 -0.00055 7.62e-05
         vertex 7.5e-05 0.00055 7.62e-05
         vertex 7.5e-05 0.00055 8.62e-05
      endloop
   endfacet
   facet normal 1 0 0
      outer loop
         vertex 7.5e-05 0.00055 8.62e-05
         vertex 7.5e-05 -0.00055 8.62e-05
         vertex 7.5e-05 -0.00055 7.62e-05
      endloop
   endfacet
   facet normal 0 1 0
      outer loop
         vertex 7.5e-05 0.00055 7.62e-05
         vertex -0.001925 0.00055 7.62e-05
         vertex -0.001925 0.00055 8.62e-05
      endloop
   endfacet
   facet normal 0 1 0
      outer loop
         vertex -0.001925 0.00055 8.62e-05
         vertex 7.5e-05 0.00055 8.62e-05
         vertex 7.5e-05 0.00055 7.62e-05
      endloop
   endfacet
   facet normal 0 0 -1
      outer loop
         vertex -0.001925 0.00055 7.62e-05
         vertex 7.5e-05 0.00055 7.62e-05
         vertex 7.5e-05 -0.00055 7.62e-05
      endloop
   endfacet
   facet normal 0 0 -1
      outer loop
         vertex 7.5e-05 -0.00055 7.62e-05
         vertex -0.001925 -0.00055 7.62e-05
         vertex -0.001925 0.00055 7.62e-05
      endloop
   endfacet
   facet normal 0 0 1
      outer loop
         vertex 0.000575 0.0004 8.62e-05
         vertex 0.0006 0.000325 8.62e-05
         vertex 0.00125 0.000325 8.62e-05
      endloop
   endfacet
   facet normal 0 0 1
      outer loop
         vertex 0.000575 0.0004 8.62e-05
         vertex 0.000575 -0.0004 8.62e-05
         vertex 0.0006 -0.000325 8.62e-05
      endloop
   endfacet
   facet normal 0 0 1
      outer loop
         vertex 0.0006 -0.000325 8.62e-05
         vertex 0.0006 0.000325 8.62e-05
         vertex 0.000575 0.0004 8.62e-05
      endloop
   endfacet
   facet normal 0 0 1
      outer loop
         vertex 0.000575 -0.0004 8.62e-05
         vertex 0.001375 -0.0004 8.62e-05
         vertex 0.00125 -0.000325 8.62e-05
      endloop
   endfacet
   facet normal 0 0 1
      outer loop
         vertex 0.00125 -0.000325 8.62e-05
         vertex 0.0006 -0.000325 8.62e-05
         vertex 0.000575 -0.0004 8.62e-05
      endloop
   endfacet
   facet normal 0 0 1
      outer loop
         vertex 0.001375 -0.0004 8.62e-05
         vertex 0.001375 0.0004 8.62e-05
         vertex 0.00125 0.000325 8.62e-05
      endloop
   endfacet
   facet normal 0 0 1
      outer loop
         vertex 0.00125 0.000325 8.62e-05
         vertex 0.00125 -0.000325 8.62e-05
         vertex 0.001375 -0.0004 8.62e-05
      endloop
   endfacet
   facet normal 0 0 1
      outer loop
         vertex 0.00125 0.000325 8.62e-05
         vertex 0.001375 0.0004 8.62e-05
         vertex 0.000575 0.0004 8.62e-05
      endloop
   endfacet
   facet normal 0 1 0
      outer loop
         vertex 0.001375 0.0004 7.62e-05
         vertex 0.000575 0.0004 7.62e-05
         vertex 0.000575 0.0004 8.62e-05
      endloop
   endfacet
   facet normal 0 1 0
      outer loop
         vertex 0.000575 0.0004 8.62e-05
         vertex 0.001375 0.0004 8.62e-05
         vertex 0.001375 0.0004 7.62e-05
      endloop
   endfacet
   facet normal 1 0 0
      outer loop
         vertex 0.001375 -0.0004 7.62e-05
         vertex 0.001375 0.0004 7.62e-05
         vertex 0.001375 0.0004 8.62e-05
      endloop
   endfacet
   facet normal 1 0 0
      outer loop
         vertex 0.001375 0.0004 8.62e-05
         vertex 0.001375 -0.0004 8.62e-05
         vertex 0.001375 -0.0004 7.62e-05
      endloop
   endfacet
   facet normal 0 -1 0
      outer loop
         vertex 0.000575 -0.0004 7.62e-05
         vertex 0.001375 -0.0004 7.62e-05
         vertex 0.001375 -0.0004 8.62e-05
      endloop
   endfacet
   facet normal 0 -1 0
      outer loop
         vertex 0.001375 -0.0004 8.62e-05
         vertex 0.000575 -0.0004 8.62e-05
         vertex 0.000575 -0.0004 7.62e-05
      endloop
   endfacet
   facet normal 0 0 -1
      outer loop
         vertex 0.000575 -0.0004 7.62e-05
         vertex 0.000575 0.0004 7.62e-05
         vertex 0.001375 0.0004 7.62e-05
      endloop
   endfacet
   facet normal 0 0 -1
      outer loop
         vertex 0.001375 0.0004 7.62e-05
         vertex 0.001375 -0.0004 7.62e-05
         vertex 0.000575 -0.0004 7.62e-05
      endloop
   endfacet
   facet normal -1 0 0
      outer loop
         vertex 0.000575 0.0004 7.62e-05
         vertex 0.000575 -0.0004 7.62e-05
         vertex 0.000575 -0.0004 8.62e-05
      endloop
   endfacet
   facet normal -1 0 0
      outer loop
         vertex 0.000575 -0.0004 8.62e-05
         vertex 0.000575 0.0004 8.62e-05
         vertex 0.000575 0.0004 7.62e-05
      endloop
   endfacet
endsolid 090-0233-000_1. Units = meters