solid 1111. STL generated by ONSHAPE BY PTC INC, 1.216. Units = meters
   facet normal -4.33778e-06 -1 1.10184e-06
      outer loop
         vertex 0.176333 -0.000981698 -0.00565451
         vertex 0.176167 -0.000981697 -0.0056007
         vertex 0.176165 -0.000981697 -0.00560836
      endloop
   endfacet
   facet normal -4.33778e-06 -1 1.10184e-06
      outer loop
         vertex 0.17634 -0.000981698 -0.00563069
         vertex 0.176169 -0.000981697 -0.00559285
         vertex 0.176167 -0.000981697 -0.0056007
      endloop
   endfacet
   facet normal -4.33778e-06 -1 1.10184e-06
      outer loop
         vertex 0.176167 -0.000981697 -0.0056007
         vertex 0.176333 -0.000981698 -0.00565451
         vertex 0.17634 -0.000981698 -0.00563069
      endloop
   endfacet
   facet normal -4.33778e-06 -1 1.10184e-06
      outer loop
         vertex 0.176344 -0.000981698 -0.0056063
         vertex 0.17617 -0.000981697 -0.00558486
         vertex 0.176169 -0.000981697 -0.00559285
      endloop
   endfacet
   facet normal -4.33778e-06 -1 1.10184e-06
      outer loop
         vertex 0.175864 -0.000981695 -0.00511407
         vertex 0.175855 -0.000981695 -0.00513533
         vertex 0.17603 -0.000981696 -0.0051874
      endloop
   endfacet
   facet normal -4.33778e-06 -1 1.10184e-06
      outer loop
         vertex 0.175855 -0.000981695 -0.00513533
         vertex 0.175849 -0.000981695 -0.00515739
         vertex 0.176028 -0.000981696 -0.00519564
      endloop
   endfacet
   facet normal -4.33778e-06 -1 1.10184e-06
      outer loop
         vertex 0.175845 -0.000981695 -0.00519716
         vertex 0.175846 -0.000981695 -0.00521816
         vertex 0.176026 -0.000981696 -0.00521257
      endloop
   endfacet
   facet normal -4.33778e-06 -1 1.10184e-06
      outer loop
         vertex 0.176169 -0.000981697 -0.00559285
         vertex 0.17634 -0.000981698 -0.00563069
         vertex 0.176344 -0.000981698 -0.0056063
      endloop
   endfacet
   facet normal -4.33778e-06 -1 1.10184e-06
      outer loop
         vertex 0.17617 -0.000981697 -0.00558486
         vertex 0.176344 -0.000981698 -0.0056063
         vertex 0.176343 -0.000981698 -0.00558556
      endloop
   endfacet
   facet normal -4.33778e-06 -1 1.10184e-06
      outer loop
         vertex 0.176166 -0.000981697 -0.00554851
         vertex 0.176309 -0.000981698 -0.00548881
         vertex 0.176297 -0.000981697 -0.00547223
      endloop
   endfacet
   facet normal -4.33778e-06 -1 1.10184e-06
      outer loop
         vertex 0.175875 -0.000981695 -0.00509387
         vertex 0.175864 -0.000981695 -0.00511407
         vertex 0.176033 -0.000981696 -0.00517942
      endloop
   endfacet
   facet normal -4.33778e-06 -1 1.10184e-06
      outer loop
         vertex 0.176028 -0.000981696 -0.00519564
         vertex 0.17603 -0.000981696 -0.0051874
         vertex 0.175855 -0.000981695 -0.00513533
      endloop
   endfacet
   facet normal -4.33778e-06 -1 1.10184e-06
      outer loop
         vertex 0.175846 -0.000981695 -0.00517717
         vertex 0.176026 -0.000981696 -0.00520406
         vertex 0.176028 -0.000981696 -0.00519564
      endloop
   endfacet
   facet normal -4.33778e-06 -1 1.10184e-06
      outer loop
         vertex 0.176026 -0.000981696 -0.00520406
         vertex 0.175846 -0.000981695 -0.00517717
         vertex 0.175845 -0.000981695 -0.00519716
      endloop
   endfacet
   facet normal -4.33778e-06 -1 1.10184e-06
      outer loop
         vertex 0.176028 -0.000981696 -0.00523006
         vertex 0.175863 -0.000981695 -0.00527871
         vertex 0.175873 -0.000981695 -0.00529729
      endloop
   endfacet
   facet normal -4.33778e-06 -1 1.10184e-06
      outer loop
         vertex 0.176137 -0.000981697 -0.00581326
         vertex 0.176094 -0.000981697 -0.00566522
         vertex 0.176083 -0.000981697 -0.00566716
      endloop
   endfacet
   facet normal -4.33778e-06 -1 1.10184e-06
      outer loop
         vertex 0.176224 -0.000981698 -0.00578314
         vertex 0.176133 -0.000981697 -0.00564735
         vertex 0.176124 -0.000981697 -0.00565326
      endloop
   endfacet
   facet normal -4.33778e-06 -1 1.10184e-06
      outer loop
         vertex 0.176245 -0.000981698 -0.00577033
         vertex 0.176141 -0.000981697 -0.00564058
         vertex 0.176133 -0.000981697 -0.00564735
      endloop
   endfacet
   facet normal -4.33778e-06 -1 1.10184e-06
      outer loop
         vertex 0.176324 -0.000981698 -0.00567748
         vertex 0.176165 -0.000981697 -0.00560836
         vertex 0.176161 -0.000981697 -0.00561575
      endloop
   endfacet
   facet normal -4.33778e-06 -1 1.10184e-06
      outer loop
         vertex 0.176343 -0.000981698 -0.00558556
         vertex 0.17617 -0.000981697 -0.00557681
         vertex 0.17617 -0.000981697 -0.00558486
      endloop
   endfacet
   facet normal -4.33778e-06 -1 1.10184e-06
      outer loop
         vertex 0.17617 -0.000981697 -0.00557681
         vertex 0.176341 -0.000981698 -0.00556502
         vertex 0.176336 -0.000981698 -0.00554486
      endloop
   endfacet
   facet normal -4.33778e-06 -1 1.10184e-06
      outer loop
         vertex 0.176166 -0.000981697 -0.00554851
         vertex 0.17632 -0.000981698 -0.00550656
         vertex 0.176309 -0.000981698 -0.00548881
      endloop
   endfacet
   facet normal -4.33778e-06 -1 1.10184e-06
      outer loop
         vertex 0.176162 -0.000981697 -0.00553959
         vertex 0.176297 -0.000981697 -0.00547223
         vertex 0.176282 -0.000981697 -0.00545699
      endloop
   endfacet
   facet normal -4.33778e-06 -1 1.10184e-06
      outer loop
         vertex 0.176037 -0.000981696 -0.00517178
         vertex 0.175903 -0.000981695 -0.00505752
         vertex 0.175888 -0.000981695 -0.00507494
      endloop
   endfacet
   facet normal -4.33778e-06 -1 1.10184e-06
      outer loop
         vertex 0.175903 -0.000981695 -0.00505752
         vertex 0.176037 -0.000981696 -0.00517178
         vertex 0.176041 -0.000981696 -0.00516456
      endloop
   endfacet
   facet normal -4.33778e-06 -1 1.10184e-06
      outer loop
         vertex 0.17603 -0.000981696 -0.0051874
         vertex 0.176033 -0.000981696 -0.00517942
         vertex 0.175864 -0.000981695 -0.00511407
      endloop
   endfacet
   facet normal -4.33778e-06 -1 1.10184e-06
      outer loop
         vertex 0.176026 -0.000981696 -0.00521257
         vertex 0.176026 -0.000981696 -0.00520406
         vertex 0.175845 -0.000981695 -0.00519716
      endloop
   endfacet
   facet normal -4.33778e-06 -1 1.10184e-06
      outer loop
         vertex 0.176028 -0.000981696 -0.00523006
         vertex 0.175855 -0.000981695 -0.00525917
         vertex 0.175863 -0.000981695 -0.00527871
      endloop
   endfacet
   facet normal -4.33778e-06 -1 1.10184e-06
      outer loop
         vertex 0.17603 -0.000981696 -0.00523856
         vertex 0.175873 -0.000981695 -0.00529729
         vertex 0.175884 -0.000981696 -0.00531471
      endloop
   endfacet
   facet normal -4.33778e-06 -1 1.10184e-06
      outer loop
         vertex 0.176137 -0.000981697 -0.00581326
         vertex 0.176104 -0.000981697 -0.00566224
         vertex 0.176094 -0.000981697 -0.00566522
      endloop
   endfacet
   facet normal -4.33778e-06 -1 1.10184e-06
      outer loop
         vertex 0.176179 -0.000981697 -0.00580186
         vertex 0.176114 -0.000981697 -0.00565824
         vertex 0.176104 -0.000981697 -0.00566224
      endloop
   endfacet
   facet normal -4.33778e-06 -1 1.10184e-06
      outer loop
         vertex 0.176124 -0.000981697 -0.00565326
         vertex 0.176114 -0.000981697 -0.00565824
         vertex 0.176179 -0.000981697 -0.00580186
      endloop
   endfacet
   facet normal -4.33778e-06 -1 1.10184e-06
      outer loop
         vertex 0.176133 -0.000981697 -0.00564735
         vertex 0.176224 -0.000981698 -0.00578314
         vertex 0.176245 -0.000981698 -0.00577033
      endloop
   endfacet
   facet normal -4.33778e-06 -1 1.10184e-06
      outer loop
         vertex 0.176265 -0.000981698 -0.00575541
         vertex 0.176149 -0.000981697 -0.005633
         vertex 0.176141 -0.000981697 -0.00564058
      endloop
   endfacet
   facet normal -4.33778e-06 -1 1.10184e-06
      outer loop
         vertex 0.176165 -0.000981697 -0.00560836
         vertex 0.176324 -0.000981698 -0.00567748
         vertex 0.176333 -0.000981698 -0.00565451
      endloop
   endfacet
   facet normal -4.33778e-06 -1 1.10184e-06
      outer loop
         vertex 0.17617 -0.000981697 -0.00557681
         vertex 0.176343 -0.000981698 -0.00558556
         vertex 0.176341 -0.000981698 -0.00556502
      endloop
   endfacet
   facet normal -4.33778e-06 -1 1.10184e-06
      outer loop
         vertex 0.176282 -0.000981697 -0.00545699
         vertex 0.176158 -0.000981697 -0.00553112
         vertex 0.176162 -0.000981697 -0.00553959
      endloop
   endfacet
   facet normal -4.33778e-06 -1 1.10184e-06
      outer loop
         vertex 0.176158 -0.000981697 -0.00553112
         vertex 0.176282 -0.000981697 -0.00545699
         vertex 0.176267 -0.000981697 -0.00544325
      endloop
   endfacet
   facet normal -4.33778e-06 -1 1.10184e-06
      outer loop
         vertex 0.176041 -0.000981696 -0.00516456
         vertex 0.17592 -0.000981695 -0.0050418
         vertex 0.175903 -0.000981695 -0.00505752
      endloop
   endfacet
   facet normal -4.33778e-06 -1 1.10184e-06
      outer loop
         vertex 0.176028 -0.000981696 -0.00519564
         vertex 0.175849 -0.000981695 -0.00515739
         vertex 0.175846 -0.000981695 -0.00517717
      endloop
   endfacet
   facet normal -4.33778e-06 -1 1.10184e-06
      outer loop
         vertex 0.176026 -0.000981696 -0.00522136
         vertex 0.175849 -0.000981695 -0.00523891
         vertex 0.175855 -0.000981695 -0.00525917
      endloop
   endfacet
   facet normal -4.33778e-06 -1 1.10184e-06
      outer loop
         vertex 0.175884 -0.000981696 -0.00531471
         vertex 0.176033 -0.000981696 -0.00524677
         vertex 0.17603 -0.000981696 -0.00523856
      endloop
   endfacet
   facet normal -4.33778e-06 -1 1.10184e-06
      outer loop
         vertex 0.176033 -0.000981696 -0.00524677
         vertex 0.175884 -0.000981696 -0.00531471
         vertex 0.175898 -0.000981696 -0.00533075
      endloop
   endfacet
   facet normal -4.33778e-06 -1 1.10184e-06
      outer loop
         vertex 0.176037 -0.000981696 -0.00525461
         vertex 0.175898 -0.000981696 -0.00533075
         vertex 0.175913 -0.000981696 -0.00534523
      endloop
   endfacet
   facet normal -4.33778e-06 -1 1.10184e-06
      outer loop
         vertex 0.176433 -0.000981697 -0.00494836
         vertex 0.176091 -0.000981696 -0.00496982
         vertex 0.176161 -0.000981697 -0.00511773
      endloop
   endfacet
   facet normal -4.33778e-06 -1 1.10184e-06
      outer loop
         vertex 0.175971 -0.000981696 -0.0050065
         vertex 0.176056 -0.000981696 -0.00515287
         vertex 0.176072 -0.000981696 -0.00514271
      endloop
   endfacet
   facet normal -4.33778e-06 -1 1.10184e-06
      outer loop
         vertex 0.176104 -0.000981697 -0.00566224
         vertex 0.176137 -0.000981697 -0.00581326
         vertex 0.176179 -0.000981697 -0.00580186
      endloop
   endfacet
   facet normal -4.33778e-06 -1 1.10184e-06
      outer loop
         vertex 0.176124 -0.000981697 -0.00565326
         vertex 0.176202 -0.000981697 -0.00579369
         vertex 0.176224 -0.000981698 -0.00578314
      endloop
   endfacet
   facet normal -4.33778e-06 -1 1.10184e-06
      outer loop
         vertex 0.176141 -0.000981697 -0.00564058
         vertex 0.176245 -0.000981698 -0.00577033
         vertex 0.176265 -0.000981698 -0.00575541
      endloop
   endfacet
   facet normal -4.33778e-06 -1 1.10184e-06
      outer loop
         vertex 0.176283 -0.000981698 -0.00573854
         vertex 0.176299 -0.000981698 -0.0057199
         vertex 0.176155 -0.000981697 -0.0056247
      endloop
   endfacet
   facet normal -4.33778e-06 -1 1.10184e-06
      outer loop
         vertex 0.176336 -0.000981698 -0.00554486
         vertex 0.17617 -0.000981697 -0.00556723
         vertex 0.17617 -0.000981697 -0.00557681
      endloop
   endfacet
   facet normal -4.33778e-06 -1 1.10184e-06
      outer loop
         vertex 0.17617 -0.000981697 -0.00556723
         vertex 0.176336 -0.000981698 -0.00554486
         vertex 0.176329 -0.000981698 -0.00552531
      endloop
   endfacet
   facet normal -4.33778e-06 -1 1.10184e-06
      outer loop
         vertex 0.176168 -0.000981697 -0.00555776
         vertex 0.176329 -0.000981698 -0.00552531
         vertex 0.17632 -0.000981698 -0.00550656
      endloop
   endfacet
   facet normal -4.33778e-06 -1 1.10184e-06
      outer loop
         vertex 0.176267 -0.000981697 -0.00544325
         vertex 0.176152 -0.000981697 -0.00552317
         vertex 0.176158 -0.000981697 -0.00553112
      endloop
   endfacet
   facet normal -4.33778e-06 -1 1.10184e-06
      outer loop
         vertex 0.176033 -0.000981696 -0.00517942
         vertex 0.176037 -0.000981696 -0.00517178
         vertex 0.175875 -0.000981695 -0.00509387
      endloop
   endfacet
   facet normal -4.33778e-06 -1 1.10184e-06
      outer loop
         vertex 0.176026 -0.000981696 -0.00521257
         vertex 0.175846 -0.000981695 -0.00521816
         vertex 0.175849 -0.000981695 -0.00523891
      endloop
   endfacet
   facet normal -4.33778e-06 -1 1.10184e-06
      outer loop
         vertex 0.175873 -0.000981695 -0.00529729
         vertex 0.17603 -0.000981696 -0.00523856
         vertex 0.176028 -0.000981696 -0.00523006
      endloop
   endfacet
   facet normal -4.33778e-06 -1 1.10184e-06
      outer loop
         vertex 0.175913 -0.000981696 -0.00534523
         vertex 0.176042 -0.000981696 -0.00526198
         vertex 0.176037 -0.000981696 -0.00525461
      endloop
   endfacet
   facet normal -4.33778e-06 -1 1.10184e-06
      outer loop
         vertex 0.176139 -0.000981697 -0.00550926
         vertex 0.176267 -0.000981697 -0.00544325
         vertex 0.176061 -0.000981696 -0.00528051
      endloop
   endfacet
   facet normal -4.33778e-06 -1 1.10184e-06
      outer loop
         vertex 0.176091 -0.000981696 -0.00496982
         vertex 0.176142 -0.000981696 -0.00511908
         vertex 0.176161 -0.000981697 -0.00511773
      endloop
   endfacet
   facet normal -4.33778e-06 -1 1.10184e-06
      outer loop
         vertex 0.176 -0.000981696 -0.0049929
         vertex 0.176072 -0.000981696 -0.00514271
         vertex 0.176088 -0.000981696 -0.00513417
      endloop
   endfacet
   facet normal -4.33778e-06 -1 1.10184e-06
      outer loop
         vertex 0.176072 -0.000981696 -0.00514271
         vertex 0.176 -0.000981696 -0.0049929
         vertex 0.175971 -0.000981696 -0.0050065
      endloop
   endfacet
   facet normal -4.33778e-06 -1 1.10184e-06
      outer loop
         vertex 0.176179 -0.000981697 -0.00580186
         vertex 0.176202 -0.000981697 -0.00579369
         vertex 0.176124 -0.000981697 -0.00565326
      endloop
   endfacet
   facet normal -4.33778e-06 -1 1.10184e-06
      outer loop
         vertex 0.176155 -0.000981697 -0.0056247
         vertex 0.176149 -0.000981697 -0.005633
         vertex 0.176283 -0.000981698 -0.00573854
      endloop
   endfacet
   facet normal -4.33778e-06 -1 1.10184e-06
      outer loop
         vertex 0.176329 -0.000981698 -0.00552531
         vertex 0.176168 -0.000981697 -0.00555776
         vertex 0.17617 -0.000981697 -0.00556723
      endloop
   endfacet
   facet normal -4.33778e-06 -1 1.10184e-06
      outer loop
         vertex 0.176297 -0.000981697 -0.00547223
         vertex 0.176162 -0.000981697 -0.00553959
         vertex 0.176166 -0.000981697 -0.00554851
      endloop
   endfacet
   facet normal -4.33778e-06 -1 1.10184e-06
      outer loop
         vertex 0.175849 -0.000981695 -0.00523891
         vertex 0.176026 -0.000981696 -0.00522136
         vertex 0.176026 -0.000981696 -0.00521257
      endloop
   endfacet
   facet normal -4.33778e-06 -1 1.10184e-06
      outer loop
         vertex 0.175898 -0.000981696 -0.00533075
         vertex 0.176037 -0.000981696 -0.00525461
         vertex 0.176033 -0.000981696 -0.00524677
      endloop
   endfacet
   facet normal -4.33778e-06 -1 1.10184e-06
      outer loop
         vertex 0.175913 -0.000981696 -0.00534523
         vertex 0.176054 -0.000981696 -0.005275
         vertex 0.176048 -0.000981696 -0.0052688
      endloop
   endfacet
   facet normal -4.33778e-06 -1 1.10184e-06
      outer loop
         vertex 0.176061 -0.000981696 -0.00528051
         vertex 0.175913 -0.000981696 -0.00534523
         vertex 0.176139 -0.000981697 -0.00550926
      endloop
   endfacet
   facet normal -4.33778e-06 -1 1.10184e-06
      outer loop
         vertex 0.176091 -0.000981696 -0.00496982
         vertex 0.176124 -0.000981696 -0.0051223
         vertex 0.176142 -0.000981696 -0.00511908
      endloop
   endfacet
   facet normal -4.33778e-06 -1 1.10184e-06
      outer loop
         vertex 0.176106 -0.000981696 -0.00512734
         vertex 0.176124 -0.000981696 -0.0051223
         vertex 0.176091 -0.000981696 -0.00496982
      endloop
   endfacet
   facet normal -4.33778e-06 -1 1.10184e-06
      outer loop
         vertex 0.176029 -0.000981696 -0.00498219
         vertex 0.176088 -0.000981696 -0.00513417
         vertex 0.176106 -0.000981696 -0.00512734
      endloop
   endfacet
   facet normal -4.33778e-06 -1 1.10184e-06
      outer loop
         vertex 0.175971 -0.000981696 -0.0050065
         vertex 0.175945 -0.000981695 -0.00502286
         vertex 0.176056 -0.000981696 -0.00515287
      endloop
   endfacet
   facet normal -4.33778e-06 -1 1.10184e-06
      outer loop
         vertex 0.176265 -0.000981698 -0.00575541
         vertex 0.176283 -0.000981698 -0.00573854
         vertex 0.176149 -0.000981697 -0.005633
      endloop
   endfacet
   facet normal -4.33778e-06 -1 1.10184e-06
      outer loop
         vertex 0.176299 -0.000981698 -0.0057199
         vertex 0.176312 -0.000981698 -0.00569936
         vertex 0.176161 -0.000981697 -0.00561575
      endloop
   endfacet
   facet normal -4.33778e-06 -1 1.10184e-06
      outer loop
         vertex 0.17632 -0.000981698 -0.00550656
         vertex 0.176166 -0.000981697 -0.00554851
         vertex 0.176168 -0.000981697 -0.00555776
      endloop
   endfacet
   facet normal -4.33778e-06 -1 1.10184e-06
      outer loop
         vertex 0.176267 -0.000981697 -0.00544325
         vertex 0.176139 -0.000981697 -0.00550926
         vertex 0.176146 -0.000981697 -0.00551586
      endloop
   endfacet
   facet normal -4.33778e-06 -1 1.10184e-06
      outer loop
         vertex 0.175855 -0.000981695 -0.00525917
         vertex 0.176028 -0.000981696 -0.00523006
         vertex 0.176026 -0.000981696 -0.00522136
      endloop
   endfacet
   facet normal -4.33778e-06 -1 1.10184e-06
      outer loop
         vertex 0.176061 -0.000981696 -0.00528051
         vertex 0.176054 -0.000981696 -0.005275
         vertex 0.175913 -0.000981696 -0.00534523
      endloop
   endfacet
   facet normal -4.33778e-06 -1 1.10184e-06
      outer loop
         vertex 0.176091 -0.000981696 -0.00496982
         vertex 0.17606 -0.000981696 -0.00497447
         vertex 0.176106 -0.000981696 -0.00512734
      endloop
   endfacet
   facet normal -4.33778e-06 -1 1.10184e-06
      outer loop
         vertex 0.176088 -0.000981696 -0.00513417
         vertex 0.176029 -0.000981696 -0.00498219
         vertex 0.176 -0.000981696 -0.0049929
      endloop
   endfacet
   facet normal -4.33778e-06 -1 1.10184e-06
      outer loop
         vertex 0.176093 -0.000981697 -0.00582143
         vertex 0.176083 -0.000981697 -0.00566716
         vertex 0.175747 -0.000981695 -0.00567572
      endloop
   endfacet
   facet normal -4.33778e-06 -1 1.10184e-06
      outer loop
         vertex 0.176161 -0.000981697 -0.00561575
         vertex 0.176155 -0.000981697 -0.0056247
         vertex 0.176299 -0.000981698 -0.0057199
      endloop
   endfacet
   facet normal -4.33778e-06 -1 1.10184e-06
      outer loop
         vertex 0.176146 -0.000981697 -0.00551586
         vertex 0.176152 -0.000981697 -0.00552317
         vertex 0.176267 -0.000981697 -0.00544325
      endloop
   endfacet
   facet normal -4.33778e-06 -1 1.10184e-06
      outer loop
         vertex 0.176048 -0.000981696 -0.0052688
         vertex 0.176042 -0.000981696 -0.00526198
         vertex 0.175913 -0.000981696 -0.00534523
      endloop
   endfacet
   facet normal -4.33778e-06 -1 1.10184e-06
      outer loop
         vertex 0.176106 -0.000981696 -0.00512734
         vertex 0.17606 -0.000981696 -0.00497447
         vertex 0.176029 -0.000981696 -0.00498219
      endloop
   endfacet
   facet normal -4.33778e-06 -1 1.10184e-06
      outer loop
         vertex 0.175945 -0.000981695 -0.00502286
         vertex 0.17592 -0.000981695 -0.0050418
         vertex 0.176041 -0.000981696 -0.00516456
      endloop
   endfacet
   facet normal -4.33778e-06 -1 1.10184e-06
      outer loop
         vertex 0.176083 -0.000981697 -0.00566716
         vertex 0.176093 -0.000981697 -0.00582143
         vertex 0.176137 -0.000981697 -0.00581326
      endloop
   endfacet
   facet normal -4.33778e-06 -1 1.10184e-06
      outer loop
         vertex 0.175888 -0.000981695 -0.00507494
         vertex 0.175875 -0.000981695 -0.00509387
         vertex 0.176037 -0.000981696 -0.00517178
      endloop
   endfacet
   facet normal -4.33778e-06 -1 1.10184e-06
      outer loop
         vertex 0.176041 -0.000981696 -0.00516456
         vertex 0.176056 -0.000981696 -0.00515287
         vertex 0.175945 -0.000981695 -0.00502286
      endloop
   endfacet
   facet normal -4.33778e-06 -1 1.10184e-06
      outer loop
         vertex 0.176161 -0.000981697 -0.00561575
         vertex 0.176312 -0.000981698 -0.00569936
         vertex 0.176324 -0.000981698 -0.00567748
      endloop
   endfacet
   facet normal -4.33778e-06 -1 1.10184e-06
      outer loop
         vertex 0.175747 -0.000981695 -0.00567572
         vertex 0.175723 -0.000981695 -0.00582144
         vertex 0.176093 -0.000981697 -0.00582143
      endloop
   endfacet
   facet normal -4.33778e-06 -1 1.10184e-06
      outer loop
         vertex 0.176161 -0.000981697 -0.00511773
         vertex 0.176412 -0.000981698 -0.00510475
         vertex 0.176433 -0.000981697 -0.00494836
      endloop
   endfacet
endsolid 1111. Units = meters