solid 1111. STL generated by ONSHAPE BY PTC INC, 1.216. Units = meters
   facet normal -4.33778e-06 -1 1.10184e-06
      outer loop
         vertex 0.170459 -0.000981673 -0.00579764
         vertex 0.170473 -0.000981673 -0.00579412
         vertex 0.170476 -0.000981673 -0.00579235
      endloop
   endfacet
   facet normal -4.33778e-06 -1 1.10184e-06
      outer loop
         vertex 0.170493 -0.000981673 -0.00576865
         vertex 0.170178 -0.000981671 -0.00575118
         vertex 0.170178 -0.000981671 -0.00575963
      endloop
   endfacet
   facet normal -4.33778e-06 -1 1.10184e-06
      outer loop
         vertex 0.170459 -0.000981673 -0.00579764
         vertex 0.17047 -0.000981673 -0.00579555
         vertex 0.170473 -0.000981673 -0.00579412
      endloop
   endfacet
   facet normal -4.33778e-06 -1 1.10184e-06
      outer loop
         vertex 0.170459 -0.000981673 -0.00579764
         vertex 0.170462 -0.000981673 -0.00579732
         vertex 0.170466 -0.000981673 -0.00579662
      endloop
   endfacet
   facet normal -4.33778e-06 -1 1.10184e-06
      outer loop
         vertex 0.170493 -0.000981673 -0.00576865
         vertex 0.170206 -0.000981671 -0.00579679
         vertex 0.170211 -0.000981671 -0.00579764
      endloop
   endfacet
   facet normal -4.33778e-06 -1 1.10184e-06
      outer loop
         vertex 0.170493 -0.000981673 -0.00576865
         vertex 0.170186 -0.000981671 -0.00578309
         vertex 0.170188 -0.000981671 -0.00578627
      endloop
   endfacet
   facet normal -4.33778e-06 -1 1.10184e-06
      outer loop
         vertex 0.170178 -0.000981671 -0.00575963
         vertex 0.170178 -0.000981671 -0.00576383
         vertex 0.170493 -0.000981673 -0.00576865
      endloop
   endfacet
   facet normal -4.33778e-06 -1 1.10184e-06
      outer loop
         vertex 0.170459 -0.000981673 -0.00579764
         vertex 0.170482 -0.000981673 -0.00578785
         vertex 0.170485 -0.000981673 -0.00578517
      endloop
   endfacet
   facet normal -4.33778e-06 -1 1.10184e-06
      outer loop
         vertex 0.170466 -0.000981673 -0.00579662
         vertex 0.17047 -0.000981673 -0.00579555
         vertex 0.170459 -0.000981673 -0.00579764
      endloop
   endfacet
   facet normal -4.33778e-06 -1 1.10184e-06
      outer loop
         vertex 0.170493 -0.000981673 -0.00576865
         vertex 0.170202 -0.000981671 -0.00579549
         vertex 0.170206 -0.000981671 -0.00579679
      endloop
   endfacet
   facet normal -4.33778e-06 -1 1.10184e-06
      outer loop
         vertex 0.170188 -0.000981671 -0.00578627
         vertex 0.170192 -0.000981671 -0.00578913
         vertex 0.170493 -0.000981673 -0.00576865
      endloop
   endfacet
   facet normal -4.33778e-06 -1 1.10184e-06
      outer loop
         vertex 0.170178 -0.000981671 -0.00576383
         vertex 0.170179 -0.000981671 -0.00576798
         vertex 0.170493 -0.000981673 -0.00576865
      endloop
   endfacet
   facet normal -4.33778e-06 -1 1.10184e-06
      outer loop
         vertex 0.170524 -0.000981671 -0.00436377
         vertex 0.170516 -0.000981671 -0.00436469
         vertex 0.170513 -0.000981671 -0.00436573
      endloop
   endfacet
   facet normal -4.33778e-06 -1 1.10184e-06
      outer loop
         vertex 0.170769 -0.000981672 -0.00436391
         vertex 0.170788 -0.000981672 -0.00437082
         vertex 0.170784 -0.000981672 -0.00436865
      endloop
   endfacet
   facet normal -4.33778e-06 -1 1.10184e-06
      outer loop
         vertex 0.170459 -0.000981673 -0.00579764
         vertex 0.170491 -0.000981673 -0.00577575
         vertex 0.170492 -0.000981673 -0.00577226
      endloop
   endfacet
   facet normal -4.33778e-06 -1 1.10184e-06
      outer loop
         vertex 0.170485 -0.000981673 -0.00578517
         vertex 0.170487 -0.000981673 -0.00578224
         vertex 0.170459 -0.000981673 -0.00579764
      endloop
   endfacet
   facet normal -4.33778e-06 -1 1.10184e-06
      outer loop
         vertex 0.170476 -0.000981673 -0.00579235
         vertex 0.17048 -0.000981673 -0.00579025
         vertex 0.170459 -0.000981673 -0.00579764
      endloop
   endfacet
   facet normal -4.33778e-06 -1 1.10184e-06
      outer loop
         vertex 0.170493 -0.000981673 -0.00576865
         vertex 0.170199 -0.000981671 -0.00579377
         vertex 0.170202 -0.000981671 -0.00579549
      endloop
   endfacet
   facet normal -4.33778e-06 -1 1.10184e-06
      outer loop
         vertex 0.170192 -0.000981671 -0.00578913
         vertex 0.170195 -0.000981671 -0.00579164
         vertex 0.170493 -0.000981673 -0.00576865
      endloop
   endfacet
   facet normal -4.33778e-06 -1 1.10184e-06
      outer loop
         vertex 0.170493 -0.000981673 -0.00576865
         vertex 0.170181 -0.000981671 -0.00577593
         vertex 0.170183 -0.000981671 -0.00577963
      endloop
   endfacet
   facet normal -4.33778e-06 -1 1.10184e-06
      outer loop
         vertex 0.170179 -0.000981671 -0.00576798
         vertex 0.17018 -0.000981671 -0.00577203
         vertex 0.170493 -0.000981673 -0.00576865
      endloop
   endfacet
   facet normal -4.33778e-06 -1 1.10184e-06
      outer loop
         vertex 0.170524 -0.000981671 -0.00436377
         vertex 0.17049 -0.000981671 -0.00438577
         vertex 0.170489 -0.000981671 -0.00438934
      endloop
   endfacet
   facet normal -4.33778e-06 -1 1.10184e-06
      outer loop
         vertex 0.170524 -0.000981671 -0.00436377
         vertex 0.170499 -0.000981671 -0.00437345
         vertex 0.170497 -0.000981671 -0.00437616
      endloop
   endfacet
   facet normal -4.33778e-06 -1 1.10184e-06
      outer loop
         vertex 0.170524 -0.000981671 -0.00436377
         vertex 0.170509 -0.000981671 -0.00436714
         vertex 0.170506 -0.000981671 -0.00436891
      endloop
   endfacet
   facet normal -4.33778e-06 -1 1.10184e-06
      outer loop
         vertex 0.170524 -0.000981671 -0.00436377
         vertex 0.17052 -0.000981671 -0.00436404
         vertex 0.170516 -0.000981671 -0.00436469
      endloop
   endfacet
   facet normal -4.33778e-06 -1 1.10184e-06
      outer loop
         vertex 0.170769 -0.000981672 -0.00436391
         vertex 0.17078 -0.000981672 -0.00436686
         vertex 0.170777 -0.000981672 -0.00436547
      endloop
   endfacet
   facet normal -4.33778e-06 -1 1.10184e-06
      outer loop
         vertex 0.170769 -0.000981672 -0.00436391
         vertex 0.170791 -0.000981672 -0.00437333
         vertex 0.170788 -0.000981672 -0.00437082
      endloop
   endfacet
   facet normal -4.33778e-06 -1 1.10184e-06
      outer loop
         vertex 0.170459 -0.000981673 -0.00579764
         vertex 0.170489 -0.000981673 -0.00577909
         vertex 0.170491 -0.000981673 -0.00577575
      endloop
   endfacet
   facet normal -4.33778e-06 -1 1.10184e-06
      outer loop
         vertex 0.17048 -0.000981673 -0.00579025
         vertex 0.170482 -0.000981673 -0.00578785
         vertex 0.170459 -0.000981673 -0.00579764
      endloop
   endfacet
   facet normal -4.33778e-06 -1 1.10184e-06
      outer loop
         vertex 0.170195 -0.000981671 -0.00579164
         vertex 0.170199 -0.000981671 -0.00579377
         vertex 0.170493 -0.000981673 -0.00576865
      endloop
   endfacet
   facet normal -4.33778e-06 -1 1.10184e-06
      outer loop
         vertex 0.17018 -0.000981671 -0.00577203
         vertex 0.170181 -0.000981671 -0.00577593
         vertex 0.170493 -0.000981673 -0.00576865
      endloop
   endfacet
   facet normal -4.33778e-06 -1 1.10184e-06
      outer loop
         vertex 0.170524 -0.000981671 -0.00436377
         vertex 0.170492 -0.000981671 -0.00438236
         vertex 0.17049 -0.000981671 -0.00438577
      endloop
   endfacet
   facet normal -4.33778e-06 -1 1.10184e-06
      outer loop
         vertex 0.170497 -0.000981671 -0.00437616
         vertex 0.170494 -0.000981671 -0.00437914
         vertex 0.170524 -0.000981671 -0.00436377
      endloop
   endfacet
   facet normal -4.33778e-06 -1 1.10184e-06
      outer loop
         vertex 0.170513 -0.000981671 -0.00436573
         vertex 0.170509 -0.000981671 -0.00436714
         vertex 0.170524 -0.000981671 -0.00436377
      endloop
   endfacet
   facet normal -4.33778e-06 -1 1.10184e-06
      outer loop
         vertex 0.170784 -0.000981672 -0.00436865
         vertex 0.17078 -0.000981672 -0.00436686
         vertex 0.170769 -0.000981672 -0.00436391
      endloop
   endfacet
   facet normal -4.33778e-06 -1 1.10184e-06
      outer loop
         vertex 0.170769 -0.000981672 -0.00436391
         vertex 0.170796 -0.000981672 -0.0043793
         vertex 0.170794 -0.000981672 -0.00437617
      endloop
   endfacet
   facet normal -4.33778e-06 -1 1.10184e-06
      outer loop
         vertex 0.170769 -0.000981672 -0.00436391
         vertex 0.1708 -0.000981672 -0.00438629
         vertex 0.170798 -0.000981672 -0.00438268
      endloop
   endfacet
   facet normal -4.33778e-06 -1 1.10184e-06
      outer loop
         vertex 0.170769 -0.000981672 -0.00436391
         vertex 0.170803 -0.000981672 -0.00439399
         vertex 0.170802 -0.000981672 -0.00439007
      endloop
   endfacet
   facet normal -4.33778e-06 -1 1.10184e-06
      outer loop
         vertex 0.170769 -0.000981672 -0.00436391
         vertex 0.170803 -0.000981672 -0.0044105
         vertex 0.170804 -0.000981672 -0.00440206
      endloop
   endfacet
   facet normal -4.33778e-06 -1 1.10184e-06
      outer loop
         vertex 0.170487 -0.000981673 -0.00578224
         vertex 0.170489 -0.000981673 -0.00577909
         vertex 0.170459 -0.000981673 -0.00579764
      endloop
   endfacet
   facet normal -4.33778e-06 -1 1.10184e-06
      outer loop
         vertex 0.170183 -0.000981671 -0.00577963
         vertex 0.170186 -0.000981671 -0.00578309
         vertex 0.170493 -0.000981673 -0.00576865
      endloop
   endfacet
   facet normal -4.33778e-06 -1 1.10184e-06
      outer loop
         vertex 0.170494 -0.000981671 -0.00437914
         vertex 0.170492 -0.000981671 -0.00438236
         vertex 0.170524 -0.000981671 -0.00436377
      endloop
   endfacet
   facet normal -4.33778e-06 -1 1.10184e-06
      outer loop
         vertex 0.170506 -0.000981671 -0.00436891
         vertex 0.170502 -0.000981671 -0.00437102
         vertex 0.170524 -0.000981671 -0.00436377
      endloop
   endfacet
   facet normal -4.33778e-06 -1 1.10184e-06
      outer loop
         vertex 0.170794 -0.000981672 -0.00437617
         vertex 0.170791 -0.000981672 -0.00437333
         vertex 0.170769 -0.000981672 -0.00436391
      endloop
   endfacet
   facet normal -4.33778e-06 -1 1.10184e-06
      outer loop
         vertex 0.170802 -0.000981672 -0.00439007
         vertex 0.1708 -0.000981672 -0.00438629
         vertex 0.170769 -0.000981672 -0.00436391
      endloop
   endfacet
   facet normal -4.33778e-06 -1 1.10184e-06
      outer loop
         vertex 0.170769 -0.000981672 -0.00436391
         vertex 0.170493 -0.000981673 -0.00576865
         vertex 0.170803 -0.000981672 -0.0044105
      endloop
   endfacet
   facet normal -4.33778e-06 -1 1.10184e-06
      outer loop
         vertex 0.170493 -0.000981673 -0.00576865
         vertex 0.170765 -0.000981672 -0.00436377
         vertex 0.170488 -0.000981671 -0.00439303
      endloop
   endfacet
   facet normal -4.33778e-06 -1 1.10184e-06
      outer loop
         vertex 0.170211 -0.000981671 -0.00579764
         vertex 0.170459 -0.000981673 -0.00579764
         vertex 0.170493 -0.000981673 -0.00576865
      endloop
   endfacet
   facet normal -4.33778e-06 -1 1.10184e-06
      outer loop
         vertex 0.170502 -0.000981671 -0.00437102
         vertex 0.170499 -0.000981671 -0.00437345
         vertex 0.170524 -0.000981671 -0.00436377
      endloop
   endfacet
   facet normal -4.33778e-06 -1 1.10184e-06
      outer loop
         vertex 0.170798 -0.000981672 -0.00438268
         vertex 0.170796 -0.000981672 -0.0043793
         vertex 0.170769 -0.000981672 -0.00436391
      endloop
   endfacet
   facet normal -4.33778e-06 -1 1.10184e-06
      outer loop
         vertex 0.170804 -0.000981672 -0.00440206
         vertex 0.170804 -0.000981672 -0.004398
         vertex 0.170769 -0.000981672 -0.00436391
      endloop
   endfacet
   facet normal -4.33778e-06 -1 1.10184e-06
      outer loop
         vertex 0.170492 -0.000981673 -0.00577226
         vertex 0.170493 -0.000981673 -0.00576865
         vertex 0.170459 -0.000981673 -0.00579764
      endloop
   endfacet
   facet normal -4.33778e-06 -1 1.10184e-06
      outer loop
         vertex 0.170488 -0.000981671 -0.00439303
         vertex 0.170765 -0.000981672 -0.00436377
         vertex 0.170524 -0.000981671 -0.00436377
      endloop
   endfacet
   facet normal -4.33778e-06 -1 1.10184e-06
      outer loop
         vertex 0.170804 -0.000981672 -0.004398
         vertex 0.170803 -0.000981672 -0.00439399
         vertex 0.170769 -0.000981672 -0.00436391
      endloop
   endfacet
   facet normal -4.33778e-06 -1 1.10184e-06
      outer loop
         vertex 0.170489 -0.000981671 -0.00438934
         vertex 0.170488 -0.000981671 -0.00439303
         vertex 0.170524 -0.000981671 -0.00436377
      endloop
   endfacet
   facet normal -4.33778e-06 -1 1.10184e-06
      outer loop
         vertex 0.170777 -0.000981672 -0.00436547
         vertex 0.170773 -0.000981672 -0.00436448
         vertex 0.170769 -0.000981672 -0.00436391
      endloop
   endfacet
   facet normal -4.33778e-06 -1 1.10184e-06
      outer loop
         vertex 0.170769 -0.000981672 -0.00436391
         vertex 0.170765 -0.000981672 -0.00436377
         vertex 0.170493 -0.000981673 -0.00576865
      endloop
   endfacet
   facet normal -4.33778e-06 -1 1.10184e-06
      outer loop
         vertex 0.170488 -0.000981671 -0.00439303
         vertex 0.170178 -0.000981671 -0.00575118
         vertex 0.170493 -0.000981673 -0.00576865
      endloop
   endfacet
endsolid 1111. Units = meters