solid 1111. STL generated by ONSHAPE BY PTC INC, 1.216. Units = meters
   facet normal 9.60003e-10 1 1.68072e-13
      outer loop
         vertex -0.0208167 0.0309789 -0.0104718
         vertex -0.0208167 0.0309789 1.32443e-09
         vertex -0.0207677 0.0309765 1.32443e-09
      endloop
   endfacet
   facet normal 0.0980213 0.995184 1.67262e-13
      outer loop
         vertex -0.0207677 0.0309765 -0.0104718
         vertex -0.0207677 0.0309765 1.32443e-09
         vertex -0.0207191 0.0309693 1.32443e-09
      endloop
   endfacet
   facet normal 0.195099 0.980784 1.64842e-13
      outer loop
         vertex -0.0207191 0.0309693 -0.0104718
         vertex -0.0207191 0.0309693 1.32443e-09
         vertex -0.0206715 0.0309574 1.32443e-09
      endloop
   endfacet
   facet normal 0.290297 0.956937 1.60834e-13
      outer loop
         vertex -0.0206715 0.0309574 -0.0104718
         vertex -0.0206715 0.0309574 1.32443e-09
         vertex -0.0206253 0.0309409 1.32443e-09
      endloop
   endfacet
   facet normal 0.382699 0.923873 1.55277e-13
      outer loop
         vertex -0.0206253 0.0309409 -0.0104718
         vertex -0.0206253 0.0309409 1.32443e-09
         vertex -0.020581 0.0309199 1.32443e-09
      endloop
   endfacet
   facet normal 0.471415 0.881911 1.48224e-13
      outer loop
         vertex -0.020581 0.0309199 -0.0104718
         vertex -0.020581 0.0309199 1.32443e-09
         vertex -0.0205389 0.0308947 1.32443e-09
      endloop
   endfacet
   facet normal 0.555591 0.831456 1.39744e-13
      outer loop
         vertex -0.0205389 0.0308947 -0.0104718
         vertex -0.0205389 0.0308947 1.32443e-09
         vertex -0.0204995 0.0308654 1.32443e-09
      endloop
   endfacet
   facet normal 0.634416 0.772992 1.29918e-13
      outer loop
         vertex -0.0204995 0.0308654 -0.0104718
         vertex -0.0204995 0.0308654 1.32443e-09
         vertex -0.0204631 0.0308325 1.32443e-09
      endloop
   endfacet
   facet normal 0.707131 0.707083 1.18841e-13
      outer loop
         vertex -0.0204631 0.0308325 1.32443e-09
         vertex -0.0204631 0.0308325 -0.0104718
         vertex -0.0204995 0.0308654 -0.0104718
      endloop
   endfacet
   facet normal 0.634416 0.772992 1.29918e-13
      outer loop
         vertex -0.0204995 0.0308654 1.32443e-09
         vertex -0.0204995 0.0308654 -0.0104718
         vertex -0.0205389 0.0308947 -0.0104718
      endloop
   endfacet
   facet normal 0.555591 0.831456 1.39744e-13
      outer loop
         vertex -0.0205389 0.0308947 1.32443e-09
         vertex -0.0205389 0.0308947 -0.0104718
         vertex -0.020581 0.0309199 -0.0104718
      endloop
   endfacet
   facet normal 0.471415 0.881911 1.48224e-13
      outer loop
         vertex -0.020581 0.0309199 1.32443e-09
         vertex -0.020581 0.0309199 -0.0104718
         vertex -0.0206253 0.0309409 -0.0104718
      endloop
   endfacet
   facet normal 0.382699 0.923873 1.55277e-13
      outer loop
         vertex -0.0206253 0.0309409 1.32443e-09
         vertex -0.0206253 0.0309409 -0.0104718
         vertex -0.0206715 0.0309574 -0.0104718
      endloop
   endfacet
   facet normal 0.290297 0.956937 1.60834e-13
      outer loop
         vertex -0.0206715 0.0309574 1.32443e-09
         vertex -0.0206715 0.0309574 -0.0104718
         vertex -0.0207191 0.0309693 -0.0104718
      endloop
   endfacet
   facet normal 0.195099 0.980784 1.64842e-13
      outer loop
         vertex -0.0207191 0.0309693 1.32443e-09
         vertex -0.0207191 0.0309693 -0.0104718
         vertex -0.0207677 0.0309765 -0.0104718
      endloop
   endfacet
   facet normal 0.0980213 0.995184 1.67262e-13
      outer loop
         vertex -0.0207677 0.0309765 1.32443e-09
         vertex -0.0207677 0.0309765 -0.0104718
         vertex -0.0208167 0.0309789 -0.0104718
      endloop
   endfacet
endsolid 1111. Units = meters