solid 1111. STL generated by ONSHAPE BY PTC INC, 1.216. Units = meters
   facet normal -0.000469143 -1.09975e-06 -1
      outer loop
         vertex -0.0279308 0.00222917 -0.0237439
         vertex -0.0279308 0.00252917 -0.0237439
         vertex -0.027867 0.00252917 -0.023741
      endloop
   endfacet
   facet normal 0.0911552 -1.49261e-06 -0.995837
      outer loop
         vertex -0.027867 0.00222917 -0.023741
         vertex -0.027867 0.00252917 -0.023741
         vertex -0.0278036 0.00252917 -0.0237323
      endloop
   endfacet
   facet normal 0.182013 -1.87291e-06 -0.983296
      outer loop
         vertex -0.0278036 0.00222917 -0.0237323
         vertex -0.0278036 0.00252917 -0.0237323
         vertex -0.0277414 0.00252917 -0.0237178
      endloop
   endfacet
   facet normal 0.271339 -2.23745e-06 -0.962484
      outer loop
         vertex -0.0277414 0.00252917 -0.0237178
         vertex -0.0277414 0.00222917 -0.0237178
         vertex -0.0278036 0.00222917 -0.0237323
      endloop
   endfacet
   facet normal 0.182013 -1.87291e-06 -0.983296
      outer loop
         vertex -0.0278036 0.00252917 -0.0237323
         vertex -0.0278036 0.00222917 -0.0237323
         vertex -0.027867 0.00222917 -0.023741
      endloop
   endfacet
   facet normal 0.0911552 -1.49261e-06 -0.995837
      outer loop
         vertex -0.027867 0.00252917 -0.023741
         vertex -0.027867 0.00222917 -0.023741
         vertex -0.0279308 0.00222917 -0.0237439
      endloop
   endfacet
endsolid 1111. Units = meters