solid 1111. STL generated by ONSHAPE BY PTC INC, 1.216. Units = meters
   facet normal 0 -1 0
      outer loop
         vertex 0.0169236 0.00678886 0.0177
         vertex 0.0164236 0.00678886 0.0177
         vertex 0.0164236 0.00678886 0.0151
      endloop
   endfacet
   facet normal 0 -1 0
      outer loop
         vertex 0.0164236 0.00678886 0.0151
         vertex 0.0169236 0.00678886 0.0151
         vertex 0.0169236 0.00678886 0.0177
      endloop
   endfacet
   facet normal 1 0 0
      outer loop
         vertex 0.0164236 0.00678886 0.0177
         vertex 0.0164236 0.00628886 0.0177
         vertex 0.0164236 0.00628886 0.0151
      endloop
   endfacet
   facet normal 1 0 0
      outer loop
         vertex 0.0164236 0.00628886 0.0151
         vertex 0.0164236 0.00678886 0.0151
         vertex 0.0164236 0.00678886 0.0177
      endloop
   endfacet
   facet normal 0 1 0
      outer loop
         vertex 0.0164236 0.00628886 0.0177
         vertex 0.0184736 0.00628886 0.0177
         vertex 0.0184736 0.00628886 0.0151
      endloop
   endfacet
   facet normal 0 1 0
      outer loop
         vertex 0.0184736 0.00628886 0.0151
         vertex 0.0164236 0.00628886 0.0151
         vertex 0.0164236 0.00628886 0.0177
      endloop
   endfacet
   facet normal -1 0 0
      outer loop
         vertex 0.0184736 0.00628886 0.0177
         vertex 0.0184736 0.0112889 0.0177
         vertex 0.0184736 0.0112889 0.0151
      endloop
   endfacet
   facet normal -1 0 0
      outer loop
         vertex 0.0184736 0.0112889 0.0151
         vertex 0.0184736 0.00628886 0.0151
         vertex 0.0184736 0.00628886 0.0177
      endloop
   endfacet
   facet normal 0 -1 0
      outer loop
         vertex 0.0184736 0.0112889 0.0177
         vertex 0.0164236 0.0112889 0.0177
         vertex 0.0164236 0.0112889 0.0151
      endloop
   endfacet
   facet normal 0 -1 0
      outer loop
         vertex 0.0164236 0.0112889 0.0151
         vertex 0.0184736 0.0112889 0.0151
         vertex 0.0184736 0.0112889 0.0177
      endloop
   endfacet
   facet normal 0 0 1
      outer loop
         vertex 0.0164236 0.00628886 0.0151
         vertex 0.0184736 0.00628886 0.0151
         vertex 0.0169236 0.00678886 0.0151
      endloop
   endfacet
   facet normal 0 0 1
      outer loop
         vertex 0.0184736 0.00628886 0.0151
         vertex 0.0184736 0.0112889 0.0151
         vertex 0.0169236 0.0107889 0.0151
      endloop
   endfacet
   facet normal 0 0 1
      outer loop
         vertex 0.0169236 0.0107889 0.0151
         vertex 0.0169236 0.00678886 0.0151
         vertex 0.0184736 0.00628886 0.0151
      endloop
   endfacet
   facet normal 0 0 1
      outer loop
         vertex 0.0164236 0.0112889 0.0151
         vertex 0.0164236 0.0107889 0.0151
         vertex 0.0169236 0.0107889 0.0151
      endloop
   endfacet
   facet normal 0 0 1
      outer loop
         vertex 0.0169236 0.0107889 0.0151
         vertex 0.0184736 0.0112889 0.0151
         vertex 0.0164236 0.0112889 0.0151
      endloop
   endfacet
   facet normal 0 0 1
      outer loop
         vertex 0.0169236 0.00678886 0.0151
         vertex 0.0164236 0.00678886 0.0151
         vertex 0.0164236 0.00628886 0.0151
      endloop
   endfacet
   facet normal 1 0 0
      outer loop
         vertex 0.0164236 0.0112889 0.0177
         vertex 0.0164236 0.0107889 0.0177
         vertex 0.0164236 0.0107889 0.0151
      endloop
   endfacet
   facet normal 1 0 0
      outer loop
         vertex 0.0164236 0.0107889 0.0151
         vertex 0.0164236 0.0112889 0.0151
         vertex 0.0164236 0.0112889 0.0177
      endloop
   endfacet
   facet normal 0 1 0
      outer loop
         vertex 0.0164236 0.0107889 0.0177
         vertex 0.0169236 0.0107889 0.0177
         vertex 0.0169236 0.0107889 0.0151
      endloop
   endfacet
   facet normal 0 1 0
      outer loop
         vertex 0.0169236 0.0107889 0.0151
         vertex 0.0164236 0.0107889 0.0151
         vertex 0.0164236 0.0107889 0.0177
      endloop
   endfacet
   facet normal 1 0 0
      outer loop
         vertex 0.0169236 0.0107889 0.0177
         vertex 0.0169236 0.00678886 0.0177
         vertex 0.0169236 0.00678886 0.0151
      endloop
   endfacet
   facet normal 1 0 0
      outer loop
         vertex 0.0169236 0.00678886 0.0151
         vertex 0.0169236 0.0107889 0.0151
         vertex 0.0169236 0.0107889 0.0177
      endloop
   endfacet
endsolid 1111. Units = meters