solid 1111. STL generated by ONSHAPE BY PTC INC, 1.216. Units = meters
   facet normal 0 0.0436194 -0.999048
      outer loop
         vertex -0.00264184 0.0248936 -0.0210646
         vertex -0.00215115 0.0243768 -0.0210872
         vertex -0.00445083 0.0243768 -0.0210872
      endloop
   endfacet
   facet normal 0 0.0436194 -0.999048
      outer loop
         vertex -0.00445083 0.0243768 -0.0210872
         vertex -0.00494157 0.0248936 -0.0210646
         vertex -0.00264184 0.0248936 -0.0210646
      endloop
   endfacet
endsolid 1111. Units = meters