solid 1111. STL generated by ONSHAPE BY PTC INC, 1.216. Units = meters
   facet normal -1.11933e-14 0.722309 0.691571
      outer loop
         vertex -0.0141326 0.00667732 0.0213495
         vertex -0.0144841 0.00667731 0.0213495
         vertex -0.0144752 0.00617723 0.0218718
      endloop
   endfacet
   facet normal -1.11933e-14 0.722309 0.691571
      outer loop
         vertex -0.0144752 0.00617723 0.0218718
         vertex -0.0141326 0.00617723 0.0218718
         vertex -0.0141326 0.00667732 0.0213495
      endloop
   endfacet
   facet normal 0.0800836 0.717717 0.691715
      outer loop
         vertex -0.0147668 0.00619622 0.021871
         vertex -0.0147069 0.00669321 0.0213488
         vertex -0.0148503 0.00671253 0.021348
      endloop
   endfacet
   facet normal 0.0552593 0.720366 0.691389
      outer loop
         vertex -0.0146346 0.00668348 0.0213492
         vertex -0.0147069 0.00669321 0.0213488
         vertex -0.0147668 0.00619622 0.021871
      endloop
   endfacet
   facet normal 0.0257989 0.722341 0.691055
      outer loop
         vertex -0.0145708 0.00618172 0.0218716
         vertex -0.0145541 0.00668018 0.0213494
         vertex -0.0146346 0.00668348 0.0213492
      endloop
   endfacet
   facet normal 0.0552593 0.720366 0.691389
      outer loop
         vertex -0.0146346 0.00668348 0.0213492
         vertex -0.0147118 0.00618835 0.0218713
         vertex -0.0145708 0.00618172 0.0218716
      endloop
   endfacet
   facet normal 0.0257989 0.722341 0.691055
      outer loop
         vertex -0.0145708 0.00618172 0.0218716
         vertex -0.0144752 0.00617723 0.0218718
         vertex -0.0144841 0.00667731 0.0213495
      endloop
   endfacet
   facet normal 0.00629344 0.72241 0.691437
      outer loop
         vertex -0.0144841 0.00667731 0.0213495
         vertex -0.0145541 0.00668018 0.0213494
         vertex -0.0145708 0.00618172 0.0218716
      endloop
   endfacet
   facet normal 0.0800836 0.717717 0.691715
      outer loop
         vertex -0.0147668 0.00619622 0.021871
         vertex -0.0147118 0.00618835 0.0218713
         vertex -0.0146346 0.00668348 0.0213492
      endloop
   endfacet
   facet normal 0.129578 0.710434 0.691732
      outer loop
         vertex -0.0148503 0.00671253 0.021348
         vertex -0.0149463 0.00622187 0.0218699
         vertex -0.0147668 0.00619622 0.021871
      endloop
   endfacet
endsolid 1111. Units = meters