solid 1111. STL generated by ONSHAPE BY PTC INC, 1.216. Units = meters
   facet normal -4.33778e-06 -1 1.10184e-06
      outer loop
         vertex 0.170971 -0.000981673 -0.00436352
         vertex 0.170915 -0.000981673 -0.00438807
         vertex 0.17091 -0.000981673 -0.00439416
      endloop
   endfacet
   facet normal -4.33778e-06 -1 1.10184e-06
      outer loop
         vertex 0.170971 -0.000981673 -0.00436352
         vertex 0.170933 -0.000981673 -0.00437339
         vertex 0.170926 -0.000981673 -0.00437763
      endloop
   endfacet
   facet normal -4.33778e-06 -1 1.10184e-06
      outer loop
         vertex 0.170933 -0.000981673 -0.00437339
         vertex 0.170955 -0.000981673 -0.00436508
         vertex 0.170948 -0.000981673 -0.00436708
      endloop
   endfacet
   facet normal -4.33778e-06 -1 1.10184e-06
      outer loop
         vertex 0.170933 -0.000981673 -0.00437339
         vertex 0.170971 -0.000981673 -0.00436352
         vertex 0.170963 -0.000981673 -0.00436389
      endloop
   endfacet
   facet normal -4.33778e-06 -1 1.10184e-06
      outer loop
         vertex 0.170623 -0.000981673 -0.0057968
         vertex 0.170608 -0.000981673 -0.00579035
         vertex 0.170611 -0.000981673 -0.00579251
      endloop
   endfacet
   facet normal -4.33778e-06 -1 1.10184e-06
      outer loop
         vertex 0.17091 -0.000981673 -0.00439416
         vertex 0.170905 -0.000981673 -0.00440073
         vertex 0.170971 -0.000981673 -0.00436352
      endloop
   endfacet
   facet normal -4.33778e-06 -1 1.10184e-06
      outer loop
         vertex 0.170926 -0.000981673 -0.00437763
         vertex 0.17092 -0.000981673 -0.00438254
         vertex 0.170971 -0.000981673 -0.00436352
      endloop
   endfacet
   facet normal -4.33778e-06 -1 1.10184e-06
      outer loop
         vertex 0.170963 -0.000981673 -0.00436389
         vertex 0.170955 -0.000981673 -0.00436508
         vertex 0.170933 -0.000981673 -0.00437339
      endloop
   endfacet
   facet normal -4.33778e-06 -1 1.10184e-06
      outer loop
         vertex 0.170611 -0.000981673 -0.00579251
         vertex 0.170615 -0.000981673 -0.00579432
         vertex 0.170623 -0.000981673 -0.0057968
      endloop
   endfacet
   facet normal -4.33778e-06 -1 1.10184e-06
      outer loop
         vertex 0.170971 -0.000981673 -0.00436352
         vertex 0.170899 -0.000981673 -0.00441506
         vertex 0.170896 -0.000981673 -0.00442267
      endloop
   endfacet
   facet normal -4.33778e-06 -1 1.10184e-06
      outer loop
         vertex 0.170905 -0.000981673 -0.00440073
         vertex 0.170902 -0.000981673 -0.00440773
         vertex 0.170971 -0.000981673 -0.00436352
      endloop
   endfacet
   facet normal -4.33778e-06 -1 1.10184e-06
      outer loop
         vertex 0.170948 -0.000981673 -0.00436708
         vertex 0.17094 -0.000981673 -0.00436986
         vertex 0.170933 -0.000981673 -0.00437339
      endloop
   endfacet
   facet normal -4.33778e-06 -1 1.10184e-06
      outer loop
         vertex 0.170615 -0.000981673 -0.00579432
         vertex 0.170619 -0.000981673 -0.00579576
         vertex 0.170623 -0.000981673 -0.0057968
      endloop
   endfacet
   facet normal -4.33778e-06 -1 1.10184e-06
      outer loop
         vertex 0.17063 -0.000981673 -0.00579766
         vertex 0.1706 -0.000981673 -0.00578195
         vertex 0.170602 -0.000981673 -0.00578504
      endloop
   endfacet
   facet normal -4.33778e-06 -1 1.10184e-06
      outer loop
         vertex 0.170896 -0.000981673 -0.00442267
         vertex 0.170907 -0.000981674 -0.00577187
         vertex 0.170908 -0.000981674 -0.00576807
      endloop
   endfacet
   facet normal -4.33778e-06 -1 1.10184e-06
      outer loop
         vertex 0.17092 -0.000981673 -0.00438254
         vertex 0.170915 -0.000981673 -0.00438807
         vertex 0.170971 -0.000981673 -0.00436352
      endloop
   endfacet
   facet normal -4.33778e-06 -1 1.10184e-06
      outer loop
         vertex 0.170623 -0.000981673 -0.0057968
         vertex 0.170626 -0.000981673 -0.00579744
         vertex 0.170608 -0.000981673 -0.00579035
      endloop
   endfacet
   facet normal -4.33778e-06 -1 1.10184e-06
      outer loop
         vertex 0.170602 -0.000981673 -0.00578504
         vertex 0.170605 -0.000981673 -0.00578784
         vertex 0.17063 -0.000981673 -0.00579766
      endloop
   endfacet
   facet normal -4.33778e-06 -1 1.10184e-06
      outer loop
         vertex 0.171998 -0.000981678 -0.00437816
         vertex 0.17201 -0.000981678 -0.00438002
         vertex 0.172006 -0.000981678 -0.00437899
      endloop
   endfacet
   facet normal -4.33778e-06 -1 1.10184e-06
      outer loop
         vertex 0.171998 -0.000981678 -0.00437816
         vertex 0.172017 -0.000981678 -0.00438326
         vertex 0.172013 -0.000981678 -0.00438145
      endloop
   endfacet
   facet normal -4.33778e-06 -1 1.10184e-06
      outer loop
         vertex 0.171998 -0.000981678 -0.00437816
         vertex 0.172023 -0.000981678 -0.00438793
         vertex 0.17202 -0.000981678 -0.00438542
      endloop
   endfacet
   facet normal -4.33778e-06 -1 1.10184e-06
      outer loop
         vertex 0.171998 -0.000981678 -0.00437816
         vertex 0.172031 -0.000981678 -0.00439716
         vertex 0.172029 -0.000981678 -0.00439383
      endloop
   endfacet
   facet normal -4.33778e-06 -1 1.10184e-06
      outer loop
         vertex 0.170902 -0.000981673 -0.00440773
         vertex 0.170899 -0.000981673 -0.00441506
         vertex 0.170971 -0.000981673 -0.00436352
      endloop
   endfacet
   facet normal -4.33778e-06 -1 1.10184e-06
      outer loop
         vertex 0.170896 -0.000981673 -0.00442267
         vertex 0.170875 -0.000981674 -0.00579747
         vertex 0.170879 -0.000981674 -0.00579687
      endloop
   endfacet
   facet normal -4.33778e-06 -1 1.10184e-06
      outer loop
         vertex 0.170605 -0.000981673 -0.00578784
         vertex 0.170608 -0.000981673 -0.00579035
         vertex 0.17063 -0.000981673 -0.00579766
      endloop
   endfacet
   facet normal -4.33778e-06 -1 1.10184e-06
      outer loop
         vertex 0.17063 -0.000981673 -0.00579766
         vertex 0.170596 -0.000981673 -0.00577509
         vertex 0.170598 -0.000981673 -0.00577863
      endloop
   endfacet
   facet normal -4.33778e-06 -1 1.10184e-06
      outer loop
         vertex 0.17063 -0.000981673 -0.00579766
         vertex 0.170593 -0.000981673 -0.00576365
         vertex 0.170593 -0.000981673 -0.00576757
      endloop
   endfacet
   facet normal -4.33778e-06 -1 1.10184e-06
      outer loop
         vertex 0.171732 -0.000981678 -0.00575319
         vertex 0.171738 -0.000981677 -0.00438315
         vertex 0.171735 -0.000981676 -0.00438527
      endloop
   endfacet
   facet normal -4.33778e-06 -1 1.10184e-06
      outer loop
         vertex 0.171732 -0.000981678 -0.00575319
         vertex 0.171749 -0.000981677 -0.00437897
         vertex 0.171746 -0.000981677 -0.00437998
      endloop
   endfacet
   facet normal -4.33778e-06 -1 1.10184e-06
      outer loop
         vertex 0.172013 -0.000981678 -0.00438145
         vertex 0.17201 -0.000981678 -0.00438002
         vertex 0.171998 -0.000981678 -0.00437816
      endloop
   endfacet
   facet normal -4.33778e-06 -1 1.10184e-06
      outer loop
         vertex 0.171998 -0.000981678 -0.00437816
         vertex 0.172026 -0.000981678 -0.00439074
         vertex 0.172023 -0.000981678 -0.00438793
      endloop
   endfacet
   facet normal -4.33778e-06 -1 1.10184e-06
      outer loop
         vertex 0.171998 -0.000981678 -0.00437816
         vertex 0.172033 -0.000981678 -0.00440071
         vertex 0.172031 -0.000981678 -0.00439716
      endloop
   endfacet
   facet normal -4.33778e-06 -1 1.10184e-06
      outer loop
         vertex 0.171998 -0.000981678 -0.00437816
         vertex 0.172035 -0.000981678 -0.00440826
         vertex 0.172034 -0.000981678 -0.00440442
      endloop
   endfacet
   facet normal -4.33778e-06 -1 1.10184e-06
      outer loop
         vertex 0.171998 -0.000981678 -0.00437816
         vertex 0.172035 -0.000981678 -0.0044246
         vertex 0.172036 -0.000981678 -0.00441616
      endloop
   endfacet
   facet normal -4.33778e-06 -1 1.10184e-06
      outer loop
         vertex 0.170896 -0.000981673 -0.00442267
         vertex 0.170906 -0.000981674 -0.00577554
         vertex 0.170907 -0.000981674 -0.00577187
      endloop
   endfacet
   facet normal -4.33778e-06 -1 1.10184e-06
      outer loop
         vertex 0.170896 -0.000981673 -0.00442267
         vertex 0.170896 -0.000981674 -0.00578813
         vertex 0.170899 -0.000981674 -0.00578537
      endloop
   endfacet
   facet normal -4.33778e-06 -1 1.10184e-06
      outer loop
         vertex 0.170896 -0.000981673 -0.00442267
         vertex 0.17089 -0.000981674 -0.00579271
         vertex 0.170893 -0.000981674 -0.00579059
      endloop
   endfacet
   facet normal -4.33778e-06 -1 1.10184e-06
      outer loop
         vertex 0.170879 -0.000981674 -0.00579687
         vertex 0.170883 -0.000981674 -0.00579587
         vertex 0.170896 -0.000981673 -0.00442267
      endloop
   endfacet
   facet normal -4.33778e-06 -1 1.10184e-06
      outer loop
         vertex 0.170598 -0.000981673 -0.00577863
         vertex 0.1706 -0.000981673 -0.00578195
         vertex 0.17063 -0.000981673 -0.00579766
      endloop
   endfacet
   facet normal -4.33778e-06 -1 1.10184e-06
      outer loop
         vertex 0.170593 -0.000981673 -0.00576757
         vertex 0.170594 -0.000981673 -0.00577139
         vertex 0.17063 -0.000981673 -0.00579766
      endloop
   endfacet
   facet normal -4.33778e-06 -1 1.10184e-06
      outer loop
         vertex 0.17063 -0.000981673 -0.00579766
         vertex 0.170594 -0.000981673 -0.00575125
         vertex 0.170593 -0.000981673 -0.0057597
      endloop
   endfacet
   facet normal -4.33778e-06 -1 1.10184e-06
      outer loop
         vertex 0.171732 -0.000981678 -0.00575319
         vertex 0.171721 -0.000981676 -0.00440392
         vertex 0.17172 -0.000981676 -0.0044077
      endloop
   endfacet
   facet normal -4.33778e-06 -1 1.10184e-06
      outer loop
         vertex 0.171735 -0.000981676 -0.00438527
         vertex 0.171732 -0.000981676 -0.00438772
         vertex 0.171732 -0.000981678 -0.00575319
      endloop
   endfacet
   facet normal -4.33778e-06 -1 1.10184e-06
      outer loop
         vertex 0.171746 -0.000981677 -0.00437998
         vertex 0.171742 -0.000981677 -0.00438138
         vertex 0.171732 -0.000981678 -0.00575319
      endloop
   endfacet
   facet normal -4.33778e-06 -1 1.10184e-06
      outer loop
         vertex 0.171732 -0.000981678 -0.00575319
         vertex 0.171757 -0.000981677 -0.00437816
         vertex 0.171753 -0.000981677 -0.00437836
      endloop
   endfacet
   facet normal -4.33778e-06 -1 1.10184e-06
      outer loop
         vertex 0.17202 -0.000981678 -0.00438542
         vertex 0.172017 -0.000981678 -0.00438326
         vertex 0.171998 -0.000981678 -0.00437816
      endloop
   endfacet
   facet normal -4.33778e-06 -1 1.10184e-06
      outer loop
         vertex 0.172034 -0.000981678 -0.00440442
         vertex 0.172033 -0.000981678 -0.00440071
         vertex 0.171998 -0.000981678 -0.00437816
      endloop
   endfacet
   facet normal -4.33778e-06 -1 1.10184e-06
      outer loop
         vertex 0.171998 -0.000981678 -0.00437816
         vertex 0.171732 -0.000981678 -0.00575319
         vertex 0.172035 -0.000981678 -0.0044246
      endloop
   endfacet
   facet normal -4.33778e-06 -1 1.10184e-06
      outer loop
         vertex 0.171719 -0.000981678 -0.00578159
         vertex 0.171681 -0.000981678 -0.00580865
         vertex 0.171689 -0.000981678 -0.00580586
      endloop
   endfacet
   facet normal -4.33778e-06 -1 1.10184e-06
      outer loop
         vertex 0.171119 -0.000981674 -0.00484428
         vertex 0.171523 -0.000981677 -0.00527373
         vertex 0.171268 -0.000981674 -0.00440723
      endloop
   endfacet
   facet normal -4.33778e-06 -1 1.10184e-06
      outer loop
         vertex 0.171523 -0.000981677 -0.00527373
         vertex 0.171119 -0.000981674 -0.00484428
         vertex 0.171398 -0.000981677 -0.0057687
      endloop
   endfacet
   facet normal -4.33778e-06 -1 1.10184e-06
      outer loop
         vertex 0.170896 -0.000981673 -0.00442267
         vertex 0.170904 -0.000981674 -0.00577904
         vertex 0.170906 -0.000981674 -0.00577554
      endloop
   endfacet
   facet normal -4.33778e-06 -1 1.10184e-06
      outer loop
         vertex 0.170899 -0.000981674 -0.00578537
         vertex 0.170902 -0.000981674 -0.00578233
         vertex 0.170896 -0.000981673 -0.00442267
      endloop
   endfacet
   facet normal -4.33778e-06 -1 1.10184e-06
      outer loop
         vertex 0.170896 -0.000981673 -0.00442267
         vertex 0.170887 -0.000981674 -0.00579448
         vertex 0.17089 -0.000981674 -0.00579271
      endloop
   endfacet
   facet normal -4.33778e-06 -1 1.10184e-06
      outer loop
         vertex 0.170896 -0.000981673 -0.00442267
         vertex 0.170871 -0.000981674 -0.00579766
         vertex 0.170875 -0.000981674 -0.00579747
      endloop
   endfacet
   facet normal -4.33778e-06 -1 1.10184e-06
      outer loop
         vertex 0.170594 -0.000981673 -0.00577139
         vertex 0.170596 -0.000981673 -0.00577509
         vertex 0.17063 -0.000981673 -0.00579766
      endloop
   endfacet
   facet normal -4.33778e-06 -1 1.10184e-06
      outer loop
         vertex 0.17063 -0.000981673 -0.00579766
         vertex 0.170896 -0.000981673 -0.00442267
         vertex 0.170594 -0.000981673 -0.00575125
      endloop
   endfacet
   facet normal -4.33778e-06 -1 1.10184e-06
      outer loop
         vertex 0.171732 -0.000981678 -0.00575319
         vertex 0.171723 -0.000981676 -0.00440027
         vertex 0.171721 -0.000981676 -0.00440392
      endloop
   endfacet
   facet normal -4.33778e-06 -1 1.10184e-06
      outer loop
         vertex 0.171732 -0.000981678 -0.00575319
         vertex 0.171727 -0.000981676 -0.00439351
         vertex 0.171725 -0.000981676 -0.00439678
      endloop
   endfacet
   facet normal -4.33778e-06 -1 1.10184e-06
      outer loop
         vertex 0.171732 -0.000981676 -0.00438772
         vertex 0.171729 -0.000981676 -0.00439048
         vertex 0.171732 -0.000981678 -0.00575319
      endloop
   endfacet
   facet normal -4.33778e-06 -1 1.10184e-06
      outer loop
         vertex 0.171753 -0.000981677 -0.00437836
         vertex 0.171749 -0.000981677 -0.00437897
         vertex 0.171732 -0.000981678 -0.00575319
      endloop
   endfacet
   facet normal -4.33778e-06 -1 1.10184e-06
      outer loop
         vertex 0.172029 -0.000981678 -0.00439383
         vertex 0.172026 -0.000981678 -0.00439074
         vertex 0.171998 -0.000981678 -0.00437816
      endloop
   endfacet
   facet normal -4.33778e-06 -1 1.10184e-06
      outer loop
         vertex 0.172036 -0.000981678 -0.00441616
         vertex 0.172036 -0.000981678 -0.00441219
         vertex 0.171998 -0.000981678 -0.00437816
      endloop
   endfacet
   facet normal -4.33778e-06 -1 1.10184e-06
      outer loop
         vertex 0.171702 -0.000981678 -0.00579808
         vertex 0.171708 -0.000981678 -0.00579317
         vertex 0.171714 -0.000981678 -0.00578766
      endloop
   endfacet
   facet normal -4.33778e-06 -1 1.10184e-06
      outer loop
         vertex 0.171689 -0.000981678 -0.00580586
         vertex 0.171696 -0.000981678 -0.00580232
         vertex 0.171719 -0.000981678 -0.00578159
      endloop
   endfacet
   facet normal -4.33778e-06 -1 1.10184e-06
      outer loop
         vertex 0.171719 -0.000981678 -0.00578159
         vertex 0.171658 -0.000981678 -0.0058123
         vertex 0.171666 -0.000981678 -0.00581189
      endloop
   endfacet
   facet normal -4.33778e-06 -1 1.10184e-06
      outer loop
         vertex 0.171523 -0.000981677 -0.00527373
         vertex 0.171439 -0.000981677 -0.0057974
         vertex 0.171454 -0.000981677 -0.005804
      endloop
   endfacet
   facet normal -4.33778e-06 -1 1.10184e-06
      outer loop
         vertex 0.171523 -0.000981677 -0.00527373
         vertex 0.171411 -0.000981677 -0.00577965
         vertex 0.171424 -0.000981677 -0.00578925
      endloop
   endfacet
   facet normal -4.33778e-06 -1 1.10184e-06
      outer loop
         vertex 0.171119 -0.000981674 -0.00484428
         vertex 0.171213 -0.000981674 -0.00437185
         vertex 0.171197 -0.000981674 -0.00436685
      endloop
   endfacet
   facet normal -4.33778e-06 -1 1.10184e-06
      outer loop
         vertex 0.171119 -0.000981674 -0.00484428
         vertex 0.171242 -0.000981674 -0.00438663
         vertex 0.171228 -0.000981674 -0.00437847
      endloop
   endfacet
   facet normal -4.33778e-06 -1 1.10184e-06
      outer loop
         vertex 0.171398 -0.000981677 -0.0057687
         vertex 0.171411 -0.000981677 -0.00577965
         vertex 0.171523 -0.000981677 -0.00527373
      endloop
   endfacet
   facet normal -4.33778e-06 -1 1.10184e-06
      outer loop
         vertex 0.170902 -0.000981674 -0.00578233
         vertex 0.170904 -0.000981674 -0.00577904
         vertex 0.170896 -0.000981673 -0.00442267
      endloop
   endfacet
   facet normal -4.33778e-06 -1 1.10184e-06
      outer loop
         vertex 0.170883 -0.000981674 -0.00579587
         vertex 0.170887 -0.000981674 -0.00579448
         vertex 0.170896 -0.000981673 -0.00442267
      endloop
   endfacet
   facet normal -4.33778e-06 -1 1.10184e-06
      outer loop
         vertex 0.170593 -0.000981673 -0.0057597
         vertex 0.170593 -0.000981673 -0.00576365
         vertex 0.17063 -0.000981673 -0.00579766
      endloop
   endfacet
   facet normal -4.33778e-06 -1 1.10184e-06
      outer loop
         vertex 0.171725 -0.000981676 -0.00439678
         vertex 0.171723 -0.000981676 -0.00440027
         vertex 0.171732 -0.000981678 -0.00575319
      endloop
   endfacet
   facet normal -4.33778e-06 -1 1.10184e-06
      outer loop
         vertex 0.171742 -0.000981677 -0.00438138
         vertex 0.171738 -0.000981677 -0.00438315
         vertex 0.171732 -0.000981678 -0.00575319
      endloop
   endfacet
   facet normal -4.33778e-06 -1 1.10184e-06
      outer loop
         vertex 0.172036 -0.000981678 -0.00441219
         vertex 0.172035 -0.000981678 -0.00440826
         vertex 0.171998 -0.000981678 -0.00437816
      endloop
   endfacet
   facet normal -4.33778e-06 -1 1.10184e-06
      outer loop
         vertex 0.171658 -0.000981678 -0.0058123
         vertex 0.171727 -0.000981678 -0.00576807
         vertex 0.17173 -0.000981678 -0.00576076
      endloop
   endfacet
   facet normal -4.33778e-06 -1 1.10184e-06
      outer loop
         vertex 0.171658 -0.000981678 -0.0058123
         vertex 0.171719 -0.000981678 -0.00578159
         vertex 0.171723 -0.000981678 -0.00577504
      endloop
   endfacet
   facet normal -4.33778e-06 -1 1.10184e-06
      outer loop
         vertex 0.171696 -0.000981678 -0.00580232
         vertex 0.171702 -0.000981678 -0.00579808
         vertex 0.171719 -0.000981678 -0.00578159
      endloop
   endfacet
   facet normal -4.33778e-06 -1 1.10184e-06
      outer loop
         vertex 0.171666 -0.000981678 -0.00581189
         vertex 0.171674 -0.000981678 -0.00581067
         vertex 0.171719 -0.000981678 -0.00578159
      endloop
   endfacet
   facet normal -4.33778e-06 -1 1.10184e-06
      outer loop
         vertex 0.171424 -0.000981677 -0.00578925
         vertex 0.171439 -0.000981677 -0.0057974
         vertex 0.171523 -0.000981677 -0.00527373
      endloop
   endfacet
   facet normal -4.33778e-06 -1 1.10184e-06
      outer loop
         vertex 0.171228 -0.000981674 -0.00437847
         vertex 0.171213 -0.000981674 -0.00437185
         vertex 0.171119 -0.000981674 -0.00484428
      endloop
   endfacet
   facet normal -4.33778e-06 -1 1.10184e-06
      outer loop
         vertex 0.171268 -0.000981674 -0.00440723
         vertex 0.171256 -0.000981674 -0.00439626
         vertex 0.171119 -0.000981674 -0.00484428
      endloop
   endfacet
   facet normal -4.33778e-06 -1 1.10184e-06
      outer loop
         vertex 0.170893 -0.000981674 -0.00579059
         vertex 0.170896 -0.000981674 -0.00578813
         vertex 0.170896 -0.000981673 -0.00442267
      endloop
   endfacet
   facet normal -4.33778e-06 -1 1.10184e-06
      outer loop
         vertex 0.170626 -0.000981673 -0.00579744
         vertex 0.17063 -0.000981673 -0.00579766
         vertex 0.170608 -0.000981673 -0.00579035
      endloop
   endfacet
   facet normal -4.33778e-06 -1 1.10184e-06
      outer loop
         vertex 0.171729 -0.000981676 -0.00439048
         vertex 0.171727 -0.000981676 -0.00439351
         vertex 0.171732 -0.000981678 -0.00575319
      endloop
   endfacet
   facet normal -4.33778e-06 -1 1.10184e-06
      outer loop
         vertex 0.172006 -0.000981678 -0.00437899
         vertex 0.172002 -0.000981678 -0.00437837
         vertex 0.171998 -0.000981678 -0.00437816
      endloop
   endfacet
   facet normal -4.33778e-06 -1 1.10184e-06
      outer loop
         vertex 0.171723 -0.000981678 -0.00577504
         vertex 0.171727 -0.000981678 -0.00576807
         vertex 0.171658 -0.000981678 -0.0058123
      endloop
   endfacet
   facet normal -4.33778e-06 -1 1.10184e-06
      outer loop
         vertex 0.171674 -0.000981678 -0.00581067
         vertex 0.171681 -0.000981678 -0.00580865
         vertex 0.171719 -0.000981678 -0.00578159
      endloop
   endfacet
   facet normal -4.33778e-06 -1 1.10184e-06
      outer loop
         vertex 0.171454 -0.000981677 -0.005804
         vertex 0.17147 -0.000981677 -0.00580898
         vertex 0.171523 -0.000981677 -0.00527373
      endloop
   endfacet
   facet normal -4.33778e-06 -1 1.10184e-06
      outer loop
         vertex 0.171256 -0.000981674 -0.00439626
         vertex 0.171242 -0.000981674 -0.00438663
         vertex 0.171119 -0.000981674 -0.00484428
      endloop
   endfacet
   facet normal -4.33778e-06 -1 1.10184e-06
      outer loop
         vertex 0.17063 -0.000981673 -0.00579766
         vertex 0.170871 -0.000981674 -0.00579766
         vertex 0.170896 -0.000981673 -0.00442267
      endloop
   endfacet
   facet normal -4.33778e-06 -1 1.10184e-06
      outer loop
         vertex 0.170971 -0.000981673 -0.00436352
         vertex 0.170908 -0.000981674 -0.00576807
         vertex 0.171119 -0.000981674 -0.00484428
      endloop
   endfacet
   facet normal -4.33778e-06 -1 1.10184e-06
      outer loop
         vertex 0.171998 -0.000981678 -0.00437816
         vertex 0.171757 -0.000981677 -0.00437816
         vertex 0.171732 -0.000981678 -0.00575319
      endloop
   endfacet
   facet normal -4.33778e-06 -1 1.10184e-06
      outer loop
         vertex 0.171714 -0.000981678 -0.00578766
         vertex 0.171719 -0.000981678 -0.00578159
         vertex 0.171702 -0.000981678 -0.00579808
      endloop
   endfacet
   facet normal -4.33778e-06 -1 1.10184e-06
      outer loop
         vertex 0.171197 -0.000981674 -0.00436685
         vertex 0.171181 -0.000981674 -0.00436352
         vertex 0.171119 -0.000981674 -0.00484428
      endloop
   endfacet
   facet normal -4.33778e-06 -1 1.10184e-06
      outer loop
         vertex 0.171119 -0.000981674 -0.00484428
         vertex 0.171181 -0.000981674 -0.00436352
         vertex 0.170971 -0.000981673 -0.00436352
      endloop
   endfacet
   facet normal -4.33778e-06 -1 1.10184e-06
      outer loop
         vertex 0.17173 -0.000981678 -0.00576076
         vertex 0.171732 -0.000981678 -0.00575319
         vertex 0.171658 -0.000981678 -0.0058123
      endloop
   endfacet
   facet normal -4.33778e-06 -1 1.10184e-06
      outer loop
         vertex 0.171658 -0.000981678 -0.0058123
         vertex 0.17172 -0.000981676 -0.0044077
         vertex 0.171523 -0.000981677 -0.00527373
      endloop
   endfacet
   facet normal -4.33778e-06 -1 1.10184e-06
      outer loop
         vertex 0.170896 -0.000981673 -0.00442267
         vertex 0.170908 -0.000981674 -0.00576807
         vertex 0.170971 -0.000981673 -0.00436352
      endloop
   endfacet
   facet normal -4.33778e-06 -1 1.10184e-06
      outer loop
         vertex 0.171523 -0.000981677 -0.00527373
         vertex 0.171486 -0.000981677 -0.0058123
         vertex 0.171658 -0.000981678 -0.0058123
      endloop
   endfacet
   facet normal -4.33778e-06 -1 1.10184e-06
      outer loop
         vertex 0.17172 -0.000981676 -0.0044077
         vertex 0.171658 -0.000981678 -0.0058123
         vertex 0.171732 -0.000981678 -0.00575319
      endloop
   endfacet
   facet normal -4.33778e-06 -1 1.10184e-06
      outer loop
         vertex 0.17147 -0.000981677 -0.00580898
         vertex 0.171486 -0.000981677 -0.0058123
         vertex 0.171523 -0.000981677 -0.00527373
      endloop
   endfacet
endsolid 1111. Units = meters