solid 1111. STL generated by ONSHAPE BY PTC INC, 1.216. Units = meters
   facet normal -8.07696e-05 0.449946 0.893056
      outer loop
         vertex -0.0379537 0.0328442 0.022617
         vertex -0.0353113 0.032844 0.022617
         vertex -0.0353113 0.0329091 0.0225812
      endloop
   endfacet
   facet normal -9.38357e-05 0.515407 0.856946
      outer loop
         vertex -0.0379537 0.0329092 0.0225812
         vertex -0.0386486 0.0329006 0.0225814
         vertex -0.0386442 0.0328357 0.0226173
      endloop
   endfacet
   facet normal -0.03173 0.514608 0.856838
      outer loop
         vertex -0.0386486 0.0329006 0.0225814
         vertex -0.0388387 0.0328813 0.0225822
         vertex -0.0388295 0.0328168 0.0226181
      endloop
   endfacet
   facet normal -0.0662246 0.51118 0.856918
      outer loop
         vertex -0.0388387 0.0328813 0.0225822
         vertex -0.03904 0.0328448 0.0225837
         vertex -0.0390255 0.0327814 0.0226195
      endloop
   endfacet
   facet normal -0.104673 0.504395 0.857105
      outer loop
         vertex -0.03904 0.0328448 0.0225837
         vertex -0.0392308 0.0327948 0.0225856
         vertex -0.0392112 0.0327326 0.0226214
      endloop
   endfacet
   facet normal -0.140488 0.495421 0.857217
      outer loop
         vertex -0.0392308 0.0327948 0.0225856
         vertex -0.0394195 0.0327301 0.0225878
         vertex -0.0393952 0.0326694 0.0226238
      endloop
   endfacet
   facet normal -0.174686 0.484544 0.857148
      outer loop
         vertex -0.0394195 0.0327301 0.0225878
         vertex -0.0396125 0.0326482 0.0225904
         vertex -0.0395837 0.0325893 0.0226266
      endloop
   endfacet
   facet normal -0.207629 0.47208 0.856756
      outer loop
         vertex -0.0396125 0.0326482 0.0225904
         vertex -0.0398147 0.0325453 0.0225934
         vertex -0.0397813 0.0324884 0.0226298
      endloop
   endfacet
   facet normal -0.240098 0.458038 0.855894
      outer loop
         vertex -0.0398147 0.0325453 0.0225934
         vertex -0.0400266 0.0324183 0.0225967
         vertex -0.0399887 0.0323637 0.0226336
      endloop
   endfacet
   facet normal -0.272655 0.442334 0.854401
      outer loop
         vertex -0.0400266 0.0324183 0.0225967
         vertex -0.040245 0.0322659 0.0226003
         vertex -0.0402028 0.0322136 0.0226379
      endloop
   endfacet
   facet normal -0.304347 0.425682 0.852155
      outer loop
         vertex -0.040245 0.0322659 0.0226003
         vertex -0.0404715 0.0320837 0.0226046
         vertex -0.0404253 0.0320339 0.022643
      endloop
   endfacet
   facet normal -0.339592 0.394943 0.853638
      outer loop
         vertex -0.040571 0.0319837 0.0226124
         vertex -0.0405052 0.0319162 0.0226631
         vertex -0.0404253 0.0320339 0.022643
      endloop
   endfacet
   facet normal -0.333597 0.40896 0.849391
      outer loop
         vertex -0.0404715 0.0320837 0.0226046
         vertex -0.0405769 0.0319897 0.0226068
         vertex -0.040571 0.0319837 0.0226124
      endloop
   endfacet
   facet normal -6.6951e-05 0.381093 0.924537
      outer loop
         vertex -0.0379538 0.0327736 0.0226493
         vertex -0.0353113 0.0327735 0.0226493
         vertex -0.0353113 0.032844 0.022617
      endloop
   endfacet
   facet normal -8.07696e-05 0.449946 0.893056
      outer loop
         vertex -0.0379537 0.0328442 0.022617
         vertex -0.0386442 0.0328357 0.0226173
         vertex -0.0386395 0.0327652 0.0226496
      endloop
   endfacet
   facet normal -0.0272796 0.449265 0.892982
      outer loop
         vertex -0.0386442 0.0328357 0.0226173
         vertex -0.0388295 0.0328168 0.0226181
         vertex -0.0388195 0.0327469 0.0226503
      endloop
   endfacet
   facet normal -0.0569513 0.446318 0.89306
      outer loop
         vertex -0.0388295 0.0328168 0.0226181
         vertex -0.0390255 0.0327814 0.0226195
         vertex -0.0390097 0.0327125 0.0226518
      endloop
   endfacet
   facet normal -0.0899932 0.440493 0.893234
      outer loop
         vertex -0.0390255 0.0327814 0.0226195
         vertex -0.0392112 0.0327326 0.0226214
         vertex -0.03919 0.0326651 0.0226537
      endloop
   endfacet
   facet normal -0.120814 0.432779 0.893368
      outer loop
         vertex -0.0392112 0.0327326 0.0226214
         vertex -0.0393952 0.0326694 0.0226238
         vertex -0.0393689 0.0326035 0.0226561
      endloop
   endfacet
   facet normal -0.150224 0.423444 0.89338
      outer loop
         vertex -0.0393952 0.0326694 0.0226238
         vertex -0.0395837 0.0325893 0.0226266
         vertex -0.0395524 0.0325253 0.022659
      endloop
   endfacet
   facet normal -0.178569 0.412759 0.893165
      outer loop
         vertex -0.0395837 0.0325893 0.0226266
         vertex -0.0397813 0.0324884 0.0226298
         vertex -0.0397452 0.0324266 0.0226626
      endloop
   endfacet
   facet normal -0.206535 0.400722 0.892617
      outer loop
         vertex -0.0397813 0.0324884 0.0226298
         vertex -0.0399887 0.0323637 0.0226336
         vertex -0.0399478 0.0323042 0.0226668
      endloop
   endfacet
   facet normal -0.234585 0.387281 0.891618
      outer loop
         vertex -0.0399887 0.0323637 0.0226336
         vertex -0.0402028 0.0322136 0.0226379
         vertex -0.0401571 0.0321567 0.0226716
      endloop
   endfacet
   facet normal -0.261928 0.373042 0.890075
      outer loop
         vertex -0.0402028 0.0322136 0.0226379
         vertex -0.0404253 0.0320339 0.022643
         vertex -0.0403752 0.0319796 0.0226775
      endloop
   endfacet
   facet normal -0.238437 0.305855 0.921738
      outer loop
         vertex -0.0403752 0.0319796 0.0226775
         vertex -0.0404253 0.0320339 0.022643
         vertex -0.0405052 0.0319162 0.0226631
      endloop
   endfacet
   facet normal -5.24779e-05 0.309055 0.951044
      outer loop
         vertex -0.0379538 0.0326987 0.0226768
         vertex -0.0353112 0.0326986 0.0226768
         vertex -0.0353113 0.0327735 0.0226493
      endloop
   endfacet
   facet normal -6.6951e-05 0.381093 0.924537
      outer loop
         vertex -0.0379538 0.0327736 0.0226493
         vertex -0.0386395 0.0327652 0.0226496
         vertex -0.0386345 0.0326905 0.0226771
      endloop
   endfacet
   facet normal -0.0226162 0.380533 0.924491
      outer loop
         vertex -0.0386395 0.0327652 0.0226496
         vertex -0.0388195 0.0327469 0.0226503
         vertex -0.0388089 0.0326727 0.0226779
      endloop
   endfacet
   facet normal -0.0472322 0.378091 0.924563
      outer loop
         vertex -0.0388195 0.0327469 0.0226503
         vertex -0.0390097 0.0327125 0.0226518
         vertex -0.0389931 0.0326393 0.0226793
      endloop
   endfacet
   facet normal -0.0746119 0.373269 0.924718
      outer loop
         vertex -0.0390097 0.0327125 0.0226518
         vertex -0.03919 0.0326651 0.0226537
         vertex -0.0391676 0.0325934 0.0226812
      endloop
   endfacet
   facet normal -0.10019 0.366878 0.924858
      outer loop
         vertex -0.03919 0.0326651 0.0226537
         vertex -0.0393689 0.0326035 0.0226561
         vertex -0.0393411 0.0325335 0.0226837
      endloop
   endfacet
   facet normal -0.124579 0.359158 0.924925
      outer loop
         vertex -0.0393689 0.0326035 0.0226561
         vertex -0.0395524 0.0325253 0.022659
         vertex -0.0395194 0.0324573 0.0226867
      endloop
   endfacet
   facet normal -0.148097 0.350331 0.924843
      outer loop
         vertex -0.0395524 0.0325253 0.022659
         vertex -0.0397452 0.0324266 0.0226626
         vertex -0.0397069 0.0323608 0.0226904
      endloop
   endfacet
   facet normal -0.171331 0.340392 0.924542
      outer loop
         vertex -0.0397452 0.0324266 0.0226626
         vertex -0.0399478 0.0323042 0.0226668
         vertex -0.0399044 0.0322409 0.022695
      endloop
   endfacet
   facet normal -0.194641 0.329317 0.92394
      outer loop
         vertex -0.0399478 0.0323042 0.0226668
         vertex -0.0401571 0.0321567 0.0226716
         vertex -0.0401087 0.0320961 0.0227004
      endloop
   endfacet
   facet normal -0.217403 0.317595 0.922968
      outer loop
         vertex -0.0401571 0.0321567 0.0226716
         vertex -0.0403752 0.0319796 0.0226775
         vertex -0.0403221 0.0319217 0.0227068
      endloop
   endfacet
   facet normal -0.238437 0.305855 0.921738
      outer loop
         vertex -0.0403752 0.0319796 0.0226775
         vertex -0.0404773 0.0318875 0.0226795
         vertex -0.0404357 0.0318446 0.0227039
      endloop
   endfacet
   facet normal -3.74595e-05 0.234027 0.97223
      outer loop
         vertex -0.0379538 0.032621 0.0226988
         vertex -0.0353112 0.0326209 0.0226988
         vertex -0.0353112 0.0326986 0.0226768
      endloop
   endfacet
   facet normal -5.24779e-05 0.309055 0.951044
      outer loop
         vertex -0.0379538 0.0326987 0.0226768
         vertex -0.0386345 0.0326905 0.0226771
         vertex -0.0386294 0.0326129 0.0226991
      endloop
   endfacet
   facet normal -0.0177556 0.308621 0.951019
      outer loop
         vertex -0.0386345 0.0326905 0.0226771
         vertex -0.0388089 0.0326727 0.0226779
         vertex -0.038798 0.0325957 0.0226998
      endloop
   endfacet
   facet normal -0.0370972 0.306704 0.951082
      outer loop
         vertex -0.0388089 0.0326727 0.0226779
         vertex -0.0389931 0.0326393 0.0226793
         vertex -0.0389759 0.0325634 0.0227012
      endloop
   endfacet
   facet normal -0.0585797 0.302925 0.951212
      outer loop
         vertex -0.0389931 0.0326393 0.0226793
         vertex -0.0391676 0.0325934 0.0226812
         vertex -0.0391445 0.032519 0.0227031
      endloop
   endfacet
   facet normal -0.0786828 0.297913 0.951345
      outer loop
         vertex -0.0391676 0.0325934 0.0226812
         vertex -0.0393411 0.0325335 0.0226837
         vertex -0.0393123 0.0324609 0.0227056
      endloop
   endfacet
   facet normal -0.0978337 0.291872 0.951441
      outer loop
         vertex -0.0393411 0.0325335 0.0226837
         vertex -0.0395194 0.0324573 0.0226867
         vertex -0.0394852 0.0323867 0.0227087
      endloop
   endfacet
   facet normal -0.116313 0.284976 0.951452
      outer loop
         vertex -0.0395194 0.0324573 0.0226867
         vertex -0.0397069 0.0323608 0.0226904
         vertex -0.0396674 0.0322925 0.0227125
      endloop
   endfacet
   facet normal -0.134594 0.277215 0.951334
      outer loop
         vertex -0.0397069 0.0323608 0.0226904
         vertex -0.0399044 0.0322409 0.022695
         vertex -0.0398595 0.0321752 0.0227173
      endloop
   endfacet
   facet normal -0.152946 0.268589 0.951035
      outer loop
         vertex -0.0399044 0.0322409 0.022695
         vertex -0.0401087 0.0320961 0.0227004
         vertex -0.0400586 0.032033 0.022723
      endloop
   endfacet
   facet normal -0.170902 0.25947 0.950509
      outer loop
         vertex -0.0401087 0.0320961 0.0227004
         vertex -0.0403221 0.0319217 0.0227068
         vertex -0.040267 0.0318613 0.02273
      endloop
   endfacet
   facet normal -0.139666 0.189573 0.971882
      outer loop
         vertex -0.0403659 0.031772 0.0227336
         vertex -0.040267 0.0318613 0.02273
         vertex -0.0403221 0.0319217 0.0227068
      endloop
   endfacet
   facet normal -0.187523 0.250349 0.949821
      outer loop
         vertex -0.0403221 0.0319217 0.0227068
         vertex -0.0404357 0.0318446 0.0227039
         vertex -0.0403659 0.031772 0.0227336
      endloop
   endfacet
   facet normal -2.20379e-05 0.156342 0.987703
      outer loop
         vertex -0.0379538 0.0325425 0.0227144
         vertex -0.0353111 0.0325423 0.0227144
         vertex -0.0353112 0.0326209 0.0226988
      endloop
   endfacet
   facet normal -3.74595e-05 0.234027 0.97223
      outer loop
         vertex -0.0379538 0.032621 0.0226988
         vertex -0.0386294 0.0326129 0.0226991
         vertex -0.0386242 0.0325345 0.0227148
      endloop
   endfacet
   facet normal -0.0127123 0.233721 0.972221
      outer loop
         vertex -0.0386294 0.0326129 0.0226991
         vertex -0.038798 0.0325957 0.0226998
         vertex -0.0387869 0.0325178 0.0227155
      endloop
   endfacet
   facet normal -0.026574 0.232349 0.972269
      outer loop
         vertex -0.038798 0.0325957 0.0226998
         vertex -0.0389759 0.0325634 0.0227012
         vertex -0.0389586 0.0324867 0.0227169
      endloop
   endfacet
   facet normal -0.0419442 0.229649 0.972369
      outer loop
         vertex -0.0389759 0.0325634 0.0227012
         vertex -0.0391445 0.032519 0.0227031
         vertex -0.0391212 0.0324437 0.0227187
      endloop
   endfacet
   facet normal -0.0563538 0.226066 0.972481
      outer loop
         vertex -0.0391445 0.032519 0.0227031
         vertex -0.0393123 0.0324609 0.0227056
         vertex -0.0392834 0.0323874 0.0227211
      endloop
   endfacet
   facet normal -0.0700675 0.221759 0.972581
      outer loop
         vertex -0.0393123 0.0324609 0.0227056
         vertex -0.0394852 0.0323867 0.0227087
         vertex -0.0394508 0.0323152 0.0227242
      endloop
   endfacet
   facet normal -0.083309 0.21685 0.972644
      outer loop
         vertex -0.0394852 0.0323867 0.0227087
         vertex -0.0396674 0.0322925 0.0227125
         vertex -0.0396275 0.0322234 0.0227282
      endloop
   endfacet
   facet normal -0.0964304 0.211333 0.972646
      outer loop
         vertex -0.0396674 0.0322925 0.0227125
         vertex -0.0398595 0.0321752 0.0227173
         vertex -0.0398142 0.0321086 0.0227331
      endloop
   endfacet
   facet normal -0.109611 0.205218 0.972559
      outer loop
         vertex -0.0398595 0.0321752 0.0227173
         vertex -0.0400586 0.032033 0.022723
         vertex -0.040008 0.0319691 0.022739
      endloop
   endfacet
   facet normal -0.12254 0.198765 0.972356
      outer loop
         vertex -0.0400586 0.032033 0.022723
         vertex -0.040267 0.0318613 0.02273
         vertex -0.0402115 0.0318002 0.0227462
      endloop
   endfacet
   facet normal -0.139485 0.189385 0.971945
      outer loop
         vertex -0.0403657 0.0317718 0.0227336
         vertex -0.0402982 0.0317013 0.0227521
         vertex -0.0402115 0.0318002 0.0227462
      endloop
   endfacet
   facet normal -6.38346e-06 0.0765115 0.997069
      outer loop
         vertex -0.0379539 0.032465 0.0227236
         vertex -0.0353111 0.0324648 0.0227236
         vertex -0.0353111 0.0325423 0.0227144
      endloop
   endfacet
   facet normal -2.20379e-05 0.156342 0.987703
      outer loop
         vertex -0.0379538 0.0325425 0.0227144
         vertex -0.0386242 0.0325345 0.0227148
         vertex -0.0386191 0.0324571 0.0227239
      endloop
   endfacet
   facet normal -0.00751079 0.156165 0.987702
      outer loop
         vertex -0.0386242 0.0325345 0.0227148
         vertex -0.0387869 0.0325178 0.0227155
         vertex -0.0387761 0.032441 0.0227246
      endloop
   endfacet
   facet normal -0.0157101 0.155355 0.987734
      outer loop
         vertex -0.0387869 0.0325178 0.0227155
         vertex -0.0389586 0.0324867 0.0227169
         vertex -0.0389415 0.032411 0.0227259
      endloop
   endfacet
   facet normal -0.0247844 0.153763 0.987797
      outer loop
         vertex -0.0389586 0.0324867 0.0227169
         vertex -0.0391212 0.0324437 0.0227187
         vertex -0.0390982 0.0323695 0.0227277
      endloop
   endfacet
   facet normal -0.0414114 0.149118 0.987952
      outer loop
         vertex -0.0392834 0.0323874 0.0227211
         vertex -0.0392549 0.0323149 0.0227301
         vertex -0.0390982 0.0323695 0.0227277
      endloop
   endfacet
   facet normal -0.0414114 0.149118 0.987952
      outer loop
         vertex -0.0392834 0.0323874 0.0227211
         vertex -0.0394508 0.0323152 0.0227242
         vertex -0.039417 0.0322447 0.0227332
      endloop
   endfacet
   facet normal -0.0492415 0.146238 0.988023
      outer loop
         vertex -0.0394508 0.0323152 0.0227242
         vertex -0.0396275 0.0322234 0.0227282
         vertex -0.0395884 0.0321551 0.0227371
      endloop
   endfacet
   facet normal -0.0570144 0.143006 0.988078
      outer loop
         vertex -0.0396275 0.0322234 0.0227282
         vertex -0.0398142 0.0321086 0.0227331
         vertex -0.0397697 0.0320428 0.022742
      endloop
   endfacet
   facet normal -0.0648287 0.139435 0.988107
      outer loop
         vertex -0.0398142 0.0321086 0.0227331
         vertex -0.040008 0.0319691 0.022739
         vertex -0.0399583 0.031906 0.0227479
      endloop
   endfacet
   facet normal -0.0725151 0.135675 0.988096
      outer loop
         vertex -0.040008 0.0319691 0.022739
         vertex -0.0402115 0.0318002 0.0227462
         vertex -0.0401569 0.0317397 0.0227552
      endloop
   endfacet
   facet normal -0.023254 0.0694699 0.997313
      outer loop
         vertex -0.0401569 0.0317397 0.0227552
         vertex -0.0402115 0.0318002 0.0227462
         vertex -0.0402982 0.0317013 0.0227521
      endloop
   endfacet
   facet normal 1.41293e-08 0.0765112 0.997069
      outer loop
         vertex -0.0353111 0.0324648 0.0227236
         vertex -0.0379539 0.032465 0.0227236
         vertex -0.0378176 0.0324342 0.0227254
      endloop
   endfacet
   facet normal 1.9197e-12 0.0436194 0.999048
      outer loop
         vertex -0.0378176 0.0324342 0.0227254
         vertex -0.035342 0.0324341 0.0227254
         vertex -0.0353111 0.0324648 0.0227236
      endloop
   endfacet
   facet normal -6.38346e-06 0.0765115 0.997069
      outer loop
         vertex -0.0379539 0.032465 0.0227236
         vertex -0.0379539 0.0324342 0.0227254
         vertex -0.0378176 0.0324342 0.0227254
      endloop
   endfacet
   facet normal -6.38346e-06 0.0765115 0.997069
      outer loop
         vertex -0.0379539 0.032465 0.0227236
         vertex -0.0386191 0.0324571 0.0227239
         vertex -0.0383383 0.032434 0.0227254
      endloop
   endfacet
   facet normal -0.0021871 0.0764609 0.99707
      outer loop
         vertex -0.0386191 0.0324571 0.0227239
         vertex -0.0386461 0.0324242 0.0227258
         vertex -0.0383383 0.032434 0.0227254
      endloop
   endfacet
   facet normal -0.00457774 0.0762252 0.99708
      outer loop
         vertex -0.0387761 0.032441 0.0227246
         vertex -0.0387715 0.0324082 0.0227265
         vertex -0.0386461 0.0324242 0.0227258
      endloop
   endfacet
   facet normal -0.00721794 0.0757628 0.9971
      outer loop
         vertex -0.0389415 0.032411 0.0227259
         vertex -0.0389342 0.0323782 0.0227279
         vertex -0.0388479 0.0323984 0.022727
      endloop
   endfacet
   facet normal 5.34012e-11 0.0436194 0.999048
      outer loop
         vertex -0.0388479 0.0323984 0.022727
         vertex -0.0387761 0.032441 0.0227246
         vertex -0.0389415 0.032411 0.0227259
      endloop
   endfacet
   facet normal -0.00721794 0.0757628 0.9971
      outer loop
         vertex -0.0389415 0.032411 0.0227259
         vertex -0.0390982 0.0323695 0.0227277
         vertex -0.0390578 0.0323493 0.0227291
      endloop
   endfacet
   facet normal 2.92201e-10 0.0436194 0.999048
      outer loop
         vertex -0.0392434 0.0322854 0.0227319
         vertex -0.0390578 0.0323493 0.0227291
         vertex -0.0390982 0.0323695 0.0227277
      endloop
   endfacet
   facet normal -0.0143445 0.0735836 0.997186
      outer loop
         vertex -0.039417 0.0322447 0.0227332
         vertex -0.0394027 0.0322147 0.022735
         vertex -0.0392581 0.0322804 0.0227321
      endloop
   endfacet
   facet normal 1.00265e-10 0.0436194 0.999048
      outer loop
         vertex -0.0392581 0.0322804 0.0227321
         vertex -0.0392549 0.0323149 0.0227301
         vertex -0.039417 0.0322447 0.0227332
      endloop
   endfacet
   facet normal -0.016614 0.0726512 0.997219
      outer loop
         vertex -0.0395884 0.0321551 0.0227371
         vertex -0.0395714 0.0321255 0.0227389
         vertex -0.039464 0.0321869 0.0227362
      endloop
   endfacet
   facet normal 1.53065e-10 0.0436194 0.999048
      outer loop
         vertex -0.039464 0.0321869 0.0227362
         vertex -0.039417 0.0322447 0.0227332
         vertex -0.0395884 0.0321551 0.0227371
      endloop
   endfacet
   facet normal -0.016614 0.0726512 0.997219
      outer loop
         vertex -0.0395884 0.0321551 0.0227371
         vertex -0.0397697 0.0320428 0.022742
         vertex -0.039683 0.0320618 0.0227417
      endloop
   endfacet
   facet normal -0.0188977 0.0716252 0.997253
      outer loop
         vertex -0.0397697 0.0320428 0.022742
         vertex -0.0397506 0.0320145 0.0227437
         vertex -0.039683 0.0320618 0.0227417
      endloop
   endfacet
   facet normal -0.0188977 0.0716252 0.997253
      outer loop
         vertex -0.0397697 0.0320428 0.022742
         vertex -0.0399583 0.031906 0.0227479
         vertex -0.0399146 0.0318996 0.0227488
      endloop
   endfacet
   facet normal 4.43962e-10 0.0436194 0.999048
      outer loop
         vertex -0.0401327 0.0317127 0.0227569
         vertex -0.0399146 0.0318996 0.0227488
         vertex -0.0399583 0.031906 0.0227479
      endloop
   endfacet
   facet normal -0.023254 0.0694699 0.997313
      outer loop
         vertex -0.0401569 0.0317397 0.0227552
         vertex -0.0402517 0.0316524 0.0227578
         vertex -0.0402177 0.0316399 0.0227601
      endloop
   endfacet
   facet normal -0.02412 0.0689831 0.997326
      outer loop
         vertex -0.0402517 0.0316524 0.0227578
         vertex -0.0402293 0.0316289 0.0227606
         vertex -0.0402177 0.0316399 0.0227601
      endloop
   endfacet
   facet normal -3.11713e-12 0.0436194 0.999048
      outer loop
         vertex -0.0353111 0.0324341 0.0227254
         vertex -0.0301847 0.0324341 0.0227254
         vertex -0.0301853 0.0324648 0.0227232
      endloop
   endfacet
   facet normal 1.41293e-08 0.0765112 0.997069
      outer loop
         vertex -0.0353111 0.0324648 0.0227236
         vertex -0.0301853 0.0324648 0.0227232
         vertex -0.0301858 0.0324883 0.0227215
      endloop
   endfacet
   facet normal 5.57552e-07 0.101046 0.994882
      outer loop
         vertex -0.0301858 0.0324883 0.0227215
         vertex -0.0353111 0.0325423 0.0227144
         vertex -0.0353111 0.0324648 0.0227236
      endloop
   endfacet
   facet normal 4.18508e-08 0.156341 0.987703
      outer loop
         vertex -0.0353111 0.0325423 0.0227144
         vertex -0.030188 0.0325937 0.0227049
         vertex -0.0301885 0.0326207 0.0226977
      endloop
   endfacet
   facet normal 4.18508e-08 0.156341 0.987703
      outer loop
         vertex -0.0353111 0.0325423 0.0227144
         vertex -0.0301869 0.0325422 0.022713
         vertex -0.030188 0.0325937 0.0227049
      endloop
   endfacet
   facet normal 6.06669e-08 0.234025 0.972231
      outer loop
         vertex -0.0353112 0.0326209 0.0226988
         vertex -0.0301885 0.0326207 0.0226977
         vertex -0.0301901 0.0326976 0.0226772
      endloop
   endfacet
   facet normal 7.2723e-08 0.309053 0.951045
      outer loop
         vertex -0.0353112 0.0326986 0.0226768
         vertex -0.0301901 0.0326976 0.0226772
         vertex -0.0301917 0.0327732 0.0226484
      endloop
   endfacet
   facet normal 8.066e-08 0.38109 0.924538
      outer loop
         vertex -0.0353113 0.0327735 0.0226493
         vertex -0.0301917 0.0327732 0.0226484
         vertex -0.0301921 0.0327955 0.0226399
      endloop
   endfacet
   facet normal 3.46475e-06 0.402372 0.915476
      outer loop
         vertex -0.0301921 0.0327955 0.0226399
         vertex -0.0353113 0.032844 0.022617
         vertex -0.0353113 0.0327735 0.0226493
      endloop
   endfacet
   facet normal 8.71594e-08 0.449943 0.893057
      outer loop
         vertex -0.0353113 0.032844 0.022617
         vertex -0.0301939 0.0328845 0.0225955
         vertex -0.0301944 0.0329085 0.0225803
      endloop
   endfacet
   facet normal 4.58984e-06 0.515397 0.856951
      outer loop
         vertex -0.0301944 0.0329085 0.0225803
         vertex -0.0301956 0.0329696 0.0225416
         vertex -0.0345954 0.0329696 0.0225416
      endloop
   endfacet
   facet normal -1.52506e-05 0.579101 0.815256
      outer loop
         vertex -0.0345954 0.0329696 0.0225416
         vertex -0.0353113 0.0329091 0.0225812
         vertex -0.0301944 0.0329085 0.0225803
      endloop
   endfacet
   facet normal 9.45513e-08 0.515404 0.856948
      outer loop
         vertex -0.0353113 0.0329091 0.0225812
         vertex -0.0353113 0.0329696 0.0225416
         vertex -0.037796 0.0329697 0.0225416
      endloop
   endfacet
   facet normal -6.63198e-05 0.579098 0.815258
      outer loop
         vertex -0.037796 0.0329697 0.0225416
         vertex -0.0379537 0.0329092 0.0225812
         vertex -0.0353113 0.0329091 0.0225812
      endloop
   endfacet
   facet normal -9.38357e-05 0.515407 0.856946
      outer loop
         vertex -0.0379537 0.0329092 0.0225812
         vertex -0.0379537 0.0329683 0.0225416
         vertex -0.0386294 0.0329624 0.0225418
      endloop
   endfacet
   facet normal -0.0317604 0.578444 0.815103
      outer loop
         vertex -0.0386294 0.0329624 0.0225418
         vertex -0.0386486 0.0329006 0.0225814
         vertex -0.0379537 0.0329092 0.0225812
      endloop
   endfacet
   facet normal -0.0360782 0.578192 0.815102
      outer loop
         vertex -0.0386525 0.0329599 0.0225419
         vertex -0.0389009 0.0329332 0.0225429
         vertex -0.0388387 0.0328813 0.0225822
      endloop
   endfacet
   facet normal -0.104673 0.504395 0.857105
      outer loop
         vertex -0.03904 0.0328448 0.0225837
         vertex -0.0388387 0.0328813 0.0225822
         vertex -0.0389009 0.0329332 0.0225429
      endloop
   endfacet
   facet normal -0.104673 0.504395 0.857105
      outer loop
         vertex -0.03904 0.0328448 0.0225837
         vertex -0.039053 0.0329009 0.0225442
         vertex -0.0391553 0.0328792 0.022545
      endloop
   endfacet
   facet normal -0.140143 0.561639 0.815427
      outer loop
         vertex -0.0391553 0.0328792 0.022545
         vertex -0.0392308 0.0327948 0.0225856
         vertex -0.03904 0.0328448 0.0225837
      endloop
   endfacet
   facet normal -0.140488 0.495421 0.857217
      outer loop
         vertex -0.0392308 0.0327948 0.0225856
         vertex -0.0392481 0.0328498 0.022546
         vertex -0.0394134 0.0327974 0.0225477
      endloop
   endfacet
   facet normal -0.192911 0.545938 0.815314
      outer loop
         vertex -0.0394134 0.0327974 0.0225477
         vertex -0.0394195 0.0327301 0.0225878
         vertex -0.0392308 0.0327948 0.0225856
      endloop
   endfacet
   facet normal -0.198574 0.54398 0.815263
      outer loop
         vertex -0.0394416 0.0327853 0.0225481
         vertex -0.0396881 0.0326798 0.0225511
         vertex -0.0396125 0.0326482 0.0225904
      endloop
   endfacet
   facet normal -0.240098 0.458038 0.855894
      outer loop
         vertex -0.0398147 0.0325453 0.0225934
         vertex -0.0396125 0.0326482 0.0225904
         vertex -0.0396881 0.0326798 0.0225511
      endloop
   endfacet
   facet normal -0.240098 0.458038 0.855894
      outer loop
         vertex -0.0398147 0.0325453 0.0225934
         vertex -0.0398439 0.0325946 0.0225531
         vertex -0.0399832 0.0325183 0.0225549
      endloop
   endfacet
   facet normal -0.296555 0.502479 0.812139
      outer loop
         vertex -0.0399832 0.0325183 0.0225549
         vertex -0.0400266 0.0324183 0.0225967
         vertex -0.0398147 0.0325453 0.0225934
      endloop
   endfacet
   facet normal -0.309796 0.495852 0.811269
      outer loop
         vertex -0.0400599 0.0324661 0.0225558
         vertex -0.0402943 0.0323066 0.0225588
         vertex -0.040245 0.0322659 0.0226003
      endloop
   endfacet
   facet normal -0.333597 0.40896 0.849391
      outer loop
         vertex -0.0404715 0.0320837 0.0226046
         vertex -0.040245 0.0322659 0.0226003
         vertex -0.0402943 0.0323066 0.0225588
      endloop
   endfacet
   facet normal -0.345786 0.401242 0.848196
      outer loop
         vertex -0.0405769 0.0319897 0.0226068
         vertex -0.0404715 0.0320837 0.0226046
         vertex -0.0405114 0.0321261 0.0225624
      endloop
   endfacet
   facet normal -0.378867 0.457703 0.804343
      outer loop
         vertex -0.0405114 0.0321261 0.0225624
         vertex -0.0406214 0.0320348 0.0225642
         vertex -0.0405769 0.0319897 0.0226068
      endloop
   endfacet
   facet normal -0.347267 0.475981 0.80799
      outer loop
         vertex -0.0402943 0.0323066 0.0225588
         vertex -0.0405114 0.0321261 0.0225624
         vertex -0.0404715 0.0320837 0.0226046
      endloop
   endfacet
   facet normal -0.304347 0.425682 0.852155
      outer loop
         vertex -0.040245 0.0322659 0.0226003
         vertex -0.0400266 0.0324183 0.0225967
         vertex -0.0400599 0.0324661 0.0225558
      endloop
   endfacet
   facet normal -0.296555 0.502479 0.812139
      outer loop
         vertex -0.0399832 0.0325183 0.0225549
         vertex -0.0400599 0.0324661 0.0225558
         vertex -0.0400266 0.0324183 0.0225967
      endloop
   endfacet
   facet normal -0.244851 0.526111 0.814405
      outer loop
         vertex -0.0396881 0.0326798 0.0225511
         vertex -0.0398439 0.0325946 0.0225531
         vertex -0.0398147 0.0325453 0.0225934
      endloop
   endfacet
   facet normal -0.207629 0.47208 0.856756
      outer loop
         vertex -0.0396125 0.0326482 0.0225904
         vertex -0.0394195 0.0327301 0.0225878
         vertex -0.0394416 0.0327853 0.0225481
      endloop
   endfacet
   facet normal -0.192911 0.545938 0.815314
      outer loop
         vertex -0.0394134 0.0327974 0.0225477
         vertex -0.0394416 0.0327853 0.0225481
         vertex -0.0394195 0.0327301 0.0225878
      endloop
   endfacet
   facet normal -0.140143 0.561639 0.815427
      outer loop
         vertex -0.0391553 0.0328792 0.022545
         vertex -0.0392481 0.0328498 0.022546
         vertex -0.0392308 0.0327948 0.0225856
      endloop
   endfacet
   facet normal -0.0867258 0.572584 0.815246
      outer loop
         vertex -0.0389009 0.0329332 0.0225429
         vertex -0.039053 0.0329009 0.0225442
         vertex -0.03904 0.0328448 0.0225837
      endloop
   endfacet
   facet normal -0.0662246 0.51118 0.856918
      outer loop
         vertex -0.0388387 0.0328813 0.0225822
         vertex -0.0386486 0.0329006 0.0225814
         vertex -0.0386525 0.0329599 0.0225419
      endloop
   endfacet
   facet normal -0.0317604 0.578444 0.815103
      outer loop
         vertex -0.0386294 0.0329624 0.0225418
         vertex -0.0386525 0.0329599 0.0225419
         vertex -0.0386486 0.0329006 0.0225814
      endloop
   endfacet
   facet normal -6.63198e-05 0.579098 0.815258
      outer loop
         vertex -0.037796 0.0329697 0.0225416
         vertex -0.0379537 0.0329683 0.0225416
         vertex -0.0379537 0.0329092 0.0225812
      endloop
   endfacet
   facet normal -1.52506e-05 0.579101 0.815256
      outer loop
         vertex -0.0345954 0.0329696 0.0225416
         vertex -0.0353113 0.0329696 0.0225416
         vertex -0.0353113 0.0329091 0.0225812
      endloop
   endfacet
   facet normal 4.58984e-06 0.515397 0.856951
      outer loop
         vertex -0.0301944 0.0329085 0.0225803
         vertex -0.0353113 0.0329091 0.0225812
         vertex -0.0353113 0.032844 0.022617
      endloop
   endfacet
   facet normal 3.46475e-06 0.402372 0.915476
      outer loop
         vertex -0.0301921 0.0327955 0.0226399
         vertex -0.0301939 0.0328845 0.0225955
         vertex -0.0353113 0.032844 0.022617
      endloop
   endfacet
   facet normal 3.25678e-06 0.381085 0.92454
      outer loop
         vertex -0.0301917 0.0327732 0.0226484
         vertex -0.0353113 0.0327735 0.0226493
         vertex -0.0353112 0.0326986 0.0226768
      endloop
   endfacet
   facet normal 2.54961e-06 0.30809 0.951357
      outer loop
         vertex -0.0301901 0.0326976 0.0226772
         vertex -0.0353112 0.0326986 0.0226768
         vertex -0.0353112 0.0326209 0.0226988
      endloop
   endfacet
   facet normal 1.8375e-06 0.234022 0.972231
      outer loop
         vertex -0.0301885 0.0326207 0.0226977
         vertex -0.0353112 0.0326209 0.0226988
         vertex -0.0353111 0.0325423 0.0227144
      endloop
   endfacet
   facet normal 5.57552e-07 0.101046 0.994882
      outer loop
         vertex -0.0301858 0.0324883 0.0227215
         vertex -0.0301869 0.0325422 0.022713
         vertex -0.0353111 0.0325423 0.0227144
      endloop
   endfacet
   facet normal 3.19816e-07 0.0765106 0.997069
      outer loop
         vertex -0.0301853 0.0324648 0.0227232
         vertex -0.0353111 0.0324648 0.0227236
         vertex -0.0353111 0.0324341 0.0227254
      endloop
   endfacet
   facet normal -5.24433e-10 0.0436194 0.999048
      outer loop
         vertex -0.0402177 0.0316399 0.0227601
         vertex -0.0401327 0.0317127 0.0227569
         vertex -0.0401569 0.0317397 0.0227552
      endloop
   endfacet
   facet normal -0.0211506 0.0705467 0.997284
      outer loop
         vertex -0.0399583 0.031906 0.0227479
         vertex -0.0401569 0.0317397 0.0227552
         vertex -0.0401327 0.0317127 0.0227569
      endloop
   endfacet
   facet normal 1.72661e-10 0.0436194 0.999048
      outer loop
         vertex -0.0399146 0.0318996 0.0227488
         vertex -0.0397506 0.0320145 0.0227437
         vertex -0.0397697 0.0320428 0.022742
      endloop
   endfacet
   facet normal 9.95017e-11 0.0436194 0.999048
      outer loop
         vertex -0.039683 0.0320618 0.0227417
         vertex -0.0395714 0.0321255 0.0227389
         vertex -0.0395884 0.0321551 0.0227371
      endloop
   endfacet
   facet normal 1.53065e-10 0.0436194 0.999048
      outer loop
         vertex -0.039464 0.0321869 0.0227362
         vertex -0.0394027 0.0322147 0.022735
         vertex -0.039417 0.0322447 0.0227332
      endloop
   endfacet
   facet normal 1.00265e-10 0.0436194 0.999048
      outer loop
         vertex -0.0392581 0.0322804 0.0227321
         vertex -0.0392434 0.0322854 0.0227319
         vertex -0.0392549 0.0323149 0.0227301
      endloop
   endfacet
   facet normal -0.00970288 0.0751487 0.997125
      outer loop
         vertex -0.0390982 0.0323695 0.0227277
         vertex -0.0392549 0.0323149 0.0227301
         vertex -0.0392434 0.0322854 0.0227319
      endloop
   endfacet
   facet normal 3.79286e-11 0.0436194 0.999048
      outer loop
         vertex -0.0390578 0.0323493 0.0227291
         vertex -0.0389342 0.0323782 0.0227279
         vertex -0.0389415 0.032411 0.0227259
      endloop
   endfacet
   facet normal 5.34012e-11 0.0436194 0.999048
      outer loop
         vertex -0.0388479 0.0323984 0.022727
         vertex -0.0387715 0.0324082 0.0227265
         vertex -0.0387761 0.032441 0.0227246
      endloop
   endfacet
   facet normal 1.85602e-11 0.0436194 0.999048
      outer loop
         vertex -0.0386461 0.0324242 0.0227258
         vertex -0.0386191 0.0324571 0.0227239
         vertex -0.0387761 0.032441 0.0227246
      endloop
   endfacet
   facet normal -1.59764e-11 0.0436194 0.999048
      outer loop
         vertex -0.0383383 0.032434 0.0227254
         vertex -0.0379539 0.0324342 0.0227254
         vertex -0.0379539 0.032465 0.0227236
      endloop
   endfacet
   facet normal -3.25114e-12 0.0436194 0.999048
      outer loop
         vertex -0.035342 0.0324341 0.0227254
         vertex -0.0353111 0.0324341 0.0227254
         vertex -0.0353111 0.0324648 0.0227236
      endloop
   endfacet
   facet normal -0.0725084 0.119664 0.990163
      outer loop
         vertex -0.0402982 0.0317013 0.0227521
         vertex -0.0402517 0.0316524 0.0227578
         vertex -0.0401569 0.0317397 0.0227552
      endloop
   endfacet
   facet normal -0.023254 0.0694699 0.997313
      outer loop
         vertex -0.0401569 0.0317397 0.0227552
         vertex -0.0399583 0.031906 0.0227479
         vertex -0.040008 0.0319691 0.022739
      endloop
   endfacet
   facet normal -0.0211506 0.0705467 0.997284
      outer loop
         vertex -0.0399583 0.031906 0.0227479
         vertex -0.0397697 0.0320428 0.022742
         vertex -0.0398142 0.0321086 0.0227331
      endloop
   endfacet
   facet normal -0.0188977 0.0716252 0.997253
      outer loop
         vertex -0.0397697 0.0320428 0.022742
         vertex -0.0395884 0.0321551 0.0227371
         vertex -0.0396275 0.0322234 0.0227282
      endloop
   endfacet
   facet normal -0.016614 0.0726512 0.997219
      outer loop
         vertex -0.0395884 0.0321551 0.0227371
         vertex -0.039417 0.0322447 0.0227332
         vertex -0.0394508 0.0323152 0.0227242
      endloop
   endfacet
   facet normal -0.0143445 0.0735836 0.997186
      outer loop
         vertex -0.039417 0.0322447 0.0227332
         vertex -0.0392549 0.0323149 0.0227301
         vertex -0.0392834 0.0323874 0.0227211
      endloop
   endfacet
   facet normal -0.00970288 0.0751487 0.997125
      outer loop
         vertex -0.0390982 0.0323695 0.0227277
         vertex -0.0391212 0.0324437 0.0227187
         vertex -0.0392834 0.0323874 0.0227211
      endloop
   endfacet
   facet normal -0.00970288 0.0751487 0.997125
      outer loop
         vertex -0.0390982 0.0323695 0.0227277
         vertex -0.0389415 0.032411 0.0227259
         vertex -0.0389586 0.0324867 0.0227169
      endloop
   endfacet
   facet normal -0.00721794 0.0757628 0.9971
      outer loop
         vertex -0.0389415 0.032411 0.0227259
         vertex -0.0387761 0.032441 0.0227246
         vertex -0.0387869 0.0325178 0.0227155
      endloop
   endfacet
   facet normal -0.00457774 0.0762252 0.99708
      outer loop
         vertex -0.0387761 0.032441 0.0227246
         vertex -0.0386191 0.0324571 0.0227239
         vertex -0.0386242 0.0325345 0.0227148
      endloop
   endfacet
   facet normal -0.0021871 0.0764609 0.99707
      outer loop
         vertex -0.0386191 0.0324571 0.0227239
         vertex -0.0379539 0.032465 0.0227236
         vertex -0.0379538 0.0325425 0.0227144
      endloop
   endfacet
   facet normal 4.18508e-08 0.156341 0.987703
      outer loop
         vertex -0.0353111 0.0325423 0.0227144
         vertex -0.0379538 0.0325425 0.0227144
         vertex -0.0379539 0.032465 0.0227236
      endloop
   endfacet
   facet normal -0.0796669 0.131918 0.988054
      outer loop
         vertex -0.0402115 0.0318002 0.0227462
         vertex -0.040267 0.0318613 0.02273
         vertex -0.0403657 0.0317718 0.0227336
      endloop
   endfacet
   facet normal -0.0796669 0.131918 0.988054
      outer loop
         vertex -0.0402115 0.0318002 0.0227462
         vertex -0.040008 0.0319691 0.022739
         vertex -0.0400586 0.032033 0.022723
      endloop
   endfacet
   facet normal -0.0725151 0.135675 0.988096
      outer loop
         vertex -0.040008 0.0319691 0.022739
         vertex -0.0398142 0.0321086 0.0227331
         vertex -0.0398595 0.0321752 0.0227173
      endloop
   endfacet
   facet normal -0.0648287 0.139435 0.988107
      outer loop
         vertex -0.0398142 0.0321086 0.0227331
         vertex -0.0396275 0.0322234 0.0227282
         vertex -0.0396674 0.0322925 0.0227125
      endloop
   endfacet
   facet normal -0.0570144 0.143006 0.988078
      outer loop
         vertex -0.0396275 0.0322234 0.0227282
         vertex -0.0394508 0.0323152 0.0227242
         vertex -0.0394852 0.0323867 0.0227087
      endloop
   endfacet
   facet normal -0.0492415 0.146238 0.988023
      outer loop
         vertex -0.0394508 0.0323152 0.0227242
         vertex -0.0392834 0.0323874 0.0227211
         vertex -0.0393123 0.0324609 0.0227056
      endloop
   endfacet
   facet normal -0.0414114 0.149118 0.987952
      outer loop
         vertex -0.0392834 0.0323874 0.0227211
         vertex -0.0391212 0.0324437 0.0227187
         vertex -0.0391445 0.032519 0.0227031
      endloop
   endfacet
   facet normal -0.033308 0.15165 0.987873
      outer loop
         vertex -0.0391212 0.0324437 0.0227187
         vertex -0.0389586 0.0324867 0.0227169
         vertex -0.0389759 0.0325634 0.0227012
      endloop
   endfacet
   facet normal -0.0247844 0.153763 0.987797
      outer loop
         vertex -0.0389586 0.0324867 0.0227169
         vertex -0.0387869 0.0325178 0.0227155
         vertex -0.038798 0.0325957 0.0226998
      endloop
   endfacet
   facet normal -0.0157101 0.155355 0.987734
      outer loop
         vertex -0.0387869 0.0325178 0.0227155
         vertex -0.0386242 0.0325345 0.0227148
         vertex -0.0386294 0.0326129 0.0226991
      endloop
   endfacet
   facet normal -0.00751079 0.156165 0.987702
      outer loop
         vertex -0.0386242 0.0325345 0.0227148
         vertex -0.0379538 0.0325425 0.0227144
         vertex -0.0379538 0.032621 0.0226988
      endloop
   endfacet
   facet normal 6.06669e-08 0.234025 0.972231
      outer loop
         vertex -0.0353112 0.0326209 0.0226988
         vertex -0.0379538 0.032621 0.0226988
         vertex -0.0379538 0.0325425 0.0227144
      endloop
   endfacet
   facet normal -0.139666 0.189573 0.971882
      outer loop
         vertex -0.0403659 0.031772 0.0227336
         vertex -0.0403657 0.0317718 0.0227336
         vertex -0.040267 0.0318613 0.02273
      endloop
   endfacet
   facet normal -0.134534 0.192314 0.972068
      outer loop
         vertex -0.040267 0.0318613 0.02273
         vertex -0.0400586 0.032033 0.022723
         vertex -0.0401087 0.0320961 0.0227004
      endloop
   endfacet
   facet normal -0.12254 0.198765 0.972356
      outer loop
         vertex -0.0400586 0.032033 0.022723
         vertex -0.0398595 0.0321752 0.0227173
         vertex -0.0399044 0.0322409 0.022695
      endloop
   endfacet
   facet normal -0.109611 0.205218 0.972559
      outer loop
         vertex -0.0398595 0.0321752 0.0227173
         vertex -0.0396674 0.0322925 0.0227125
         vertex -0.0397069 0.0323608 0.0226904
      endloop
   endfacet
   facet normal -0.0964304 0.211333 0.972646
      outer loop
         vertex -0.0396674 0.0322925 0.0227125
         vertex -0.0394852 0.0323867 0.0227087
         vertex -0.0395194 0.0324573 0.0226867
      endloop
   endfacet
   facet normal -0.083309 0.21685 0.972644
      outer loop
         vertex -0.0394852 0.0323867 0.0227087
         vertex -0.0393123 0.0324609 0.0227056
         vertex -0.0393411 0.0325335 0.0226837
      endloop
   endfacet
   facet normal -0.0700675 0.221759 0.972581
      outer loop
         vertex -0.0393123 0.0324609 0.0227056
         vertex -0.0391445 0.032519 0.0227031
         vertex -0.0391676 0.0325934 0.0226812
      endloop
   endfacet
   facet normal -0.0563538 0.226066 0.972481
      outer loop
         vertex -0.0391445 0.032519 0.0227031
         vertex -0.0389759 0.0325634 0.0227012
         vertex -0.0389931 0.0326393 0.0226793
      endloop
   endfacet
   facet normal -0.0419442 0.229649 0.972369
      outer loop
         vertex -0.0389759 0.0325634 0.0227012
         vertex -0.038798 0.0325957 0.0226998
         vertex -0.0388089 0.0326727 0.0226779
      endloop
   endfacet
   facet normal -0.026574 0.232349 0.972269
      outer loop
         vertex -0.038798 0.0325957 0.0226998
         vertex -0.0386294 0.0326129 0.0226991
         vertex -0.0386345 0.0326905 0.0226771
      endloop
   endfacet
   facet normal -0.0127123 0.233721 0.972221
      outer loop
         vertex -0.0386294 0.0326129 0.0226991
         vertex -0.0379538 0.032621 0.0226988
         vertex -0.0379538 0.0326987 0.0226768
      endloop
   endfacet
   facet normal 7.2723e-08 0.309053 0.951045
      outer loop
         vertex -0.0353112 0.0326986 0.0226768
         vertex -0.0379538 0.0326987 0.0226768
         vertex -0.0379538 0.032621 0.0226988
      endloop
   endfacet
   facet normal -0.206992 0.259177 0.943389
      outer loop
         vertex -0.0404357 0.0318446 0.0227039
         vertex -0.0403221 0.0319217 0.0227068
         vertex -0.0403752 0.0319796 0.0226775
      endloop
   endfacet
   facet normal -0.187523 0.250349 0.949821
      outer loop
         vertex -0.0403221 0.0319217 0.0227068
         vertex -0.0401087 0.0320961 0.0227004
         vertex -0.0401571 0.0321567 0.0226716
      endloop
   endfacet
   facet normal -0.170902 0.25947 0.950509
      outer loop
         vertex -0.0401087 0.0320961 0.0227004
         vertex -0.0399044 0.0322409 0.022695
         vertex -0.0399478 0.0323042 0.0226668
      endloop
   endfacet
   facet normal -0.152946 0.268589 0.951035
      outer loop
         vertex -0.0399044 0.0322409 0.022695
         vertex -0.0397069 0.0323608 0.0226904
         vertex -0.0397452 0.0324266 0.0226626
      endloop
   endfacet
   facet normal -0.134594 0.277215 0.951334
      outer loop
         vertex -0.0397069 0.0323608 0.0226904
         vertex -0.0395194 0.0324573 0.0226867
         vertex -0.0395524 0.0325253 0.022659
      endloop
   endfacet
   facet normal -0.116313 0.284976 0.951452
      outer loop
         vertex -0.0395194 0.0324573 0.0226867
         vertex -0.0393411 0.0325335 0.0226837
         vertex -0.0393689 0.0326035 0.0226561
      endloop
   endfacet
   facet normal -0.0978337 0.291872 0.951441
      outer loop
         vertex -0.0393411 0.0325335 0.0226837
         vertex -0.0391676 0.0325934 0.0226812
         vertex -0.03919 0.0326651 0.0226537
      endloop
   endfacet
   facet normal -0.0786828 0.297913 0.951345
      outer loop
         vertex -0.0391676 0.0325934 0.0226812
         vertex -0.0389931 0.0326393 0.0226793
         vertex -0.0390097 0.0327125 0.0226518
      endloop
   endfacet
   facet normal -0.0585797 0.302925 0.951212
      outer loop
         vertex -0.0389931 0.0326393 0.0226793
         vertex -0.0388089 0.0326727 0.0226779
         vertex -0.0388195 0.0327469 0.0226503
      endloop
   endfacet
   facet normal -0.0370972 0.306704 0.951082
      outer loop
         vertex -0.0388089 0.0326727 0.0226779
         vertex -0.0386345 0.0326905 0.0226771
         vertex -0.0386395 0.0327652 0.0226496
      endloop
   endfacet
   facet normal -0.0177556 0.308621 0.951019
      outer loop
         vertex -0.0386345 0.0326905 0.0226771
         vertex -0.0379538 0.0326987 0.0226768
         vertex -0.0379538 0.0327736 0.0226493
      endloop
   endfacet
   facet normal 8.066e-08 0.38109 0.924538
      outer loop
         vertex -0.0353113 0.0327735 0.0226493
         vertex -0.0379538 0.0327736 0.0226493
         vertex -0.0379538 0.0326987 0.0226768
      endloop
   endfacet
   facet normal -0.273896 0.327895 0.904138
      outer loop
         vertex -0.0405052 0.0319162 0.0226631
         vertex -0.0404773 0.0318875 0.0226795
         vertex -0.0403752 0.0319796 0.0226775
      endloop
   endfacet
   facet normal -0.238437 0.305855 0.921738
      outer loop
         vertex -0.0403752 0.0319796 0.0226775
         vertex -0.0401571 0.0321567 0.0226716
         vertex -0.0402028 0.0322136 0.0226379
      endloop
   endfacet
   facet normal -0.217403 0.317595 0.922968
      outer loop
         vertex -0.0401571 0.0321567 0.0226716
         vertex -0.0399478 0.0323042 0.0226668
         vertex -0.0399887 0.0323637 0.0226336
      endloop
   endfacet
   facet normal -0.194641 0.329317 0.92394
      outer loop
         vertex -0.0399478 0.0323042 0.0226668
         vertex -0.0397452 0.0324266 0.0226626
         vertex -0.0397813 0.0324884 0.0226298
      endloop
   endfacet
   facet normal -0.171331 0.340392 0.924542
      outer loop
         vertex -0.0397452 0.0324266 0.0226626
         vertex -0.0395524 0.0325253 0.022659
         vertex -0.0395837 0.0325893 0.0226266
      endloop
   endfacet
   facet normal -0.148097 0.350331 0.924843
      outer loop
         vertex -0.0395524 0.0325253 0.022659
         vertex -0.0393689 0.0326035 0.0226561
         vertex -0.0393952 0.0326694 0.0226238
      endloop
   endfacet
   facet normal -0.124579 0.359158 0.924925
      outer loop
         vertex -0.0393689 0.0326035 0.0226561
         vertex -0.03919 0.0326651 0.0226537
         vertex -0.0392112 0.0327326 0.0226214
      endloop
   endfacet
   facet normal -0.10019 0.366878 0.924858
      outer loop
         vertex -0.03919 0.0326651 0.0226537
         vertex -0.0390097 0.0327125 0.0226518
         vertex -0.0390255 0.0327814 0.0226195
      endloop
   endfacet
   facet normal -0.0746119 0.373269 0.924718
      outer loop
         vertex -0.0390097 0.0327125 0.0226518
         vertex -0.0388195 0.0327469 0.0226503
         vertex -0.0388295 0.0328168 0.0226181
      endloop
   endfacet
   facet normal -0.0472322 0.378091 0.924563
      outer loop
         vertex -0.0388195 0.0327469 0.0226503
         vertex -0.0386395 0.0327652 0.0226496
         vertex -0.0386442 0.0328357 0.0226173
      endloop
   endfacet
   facet normal -0.0226162 0.380533 0.924491
      outer loop
         vertex -0.0386395 0.0327652 0.0226496
         vertex -0.0379538 0.0327736 0.0226493
         vertex -0.0379537 0.0328442 0.022617
      endloop
   endfacet
   facet normal 8.71594e-08 0.449943 0.893057
      outer loop
         vertex -0.0353113 0.032844 0.022617
         vertex -0.0379537 0.0328442 0.022617
         vertex -0.0379538 0.0327736 0.0226493
      endloop
   endfacet
   facet normal -0.287172 0.358763 0.888156
      outer loop
         vertex -0.0404253 0.0320339 0.022643
         vertex -0.0404715 0.0320837 0.0226046
         vertex -0.040571 0.0319837 0.0226124
      endloop
   endfacet
   facet normal -0.287172 0.358763 0.888156
      outer loop
         vertex -0.0404253 0.0320339 0.022643
         vertex -0.0402028 0.0322136 0.0226379
         vertex -0.040245 0.0322659 0.0226003
      endloop
   endfacet
   facet normal -0.261928 0.373042 0.890075
      outer loop
         vertex -0.0402028 0.0322136 0.0226379
         vertex -0.0399887 0.0323637 0.0226336
         vertex -0.0400266 0.0324183 0.0225967
      endloop
   endfacet
   facet normal -0.234585 0.387281 0.891618
      outer loop
         vertex -0.0399887 0.0323637 0.0226336
         vertex -0.0397813 0.0324884 0.0226298
         vertex -0.0398147 0.0325453 0.0225934
      endloop
   endfacet
   facet normal -0.206535 0.400722 0.892617
      outer loop
         vertex -0.0397813 0.0324884 0.0226298
         vertex -0.0395837 0.0325893 0.0226266
         vertex -0.0396125 0.0326482 0.0225904
      endloop
   endfacet
   facet normal -0.178569 0.412759 0.893165
      outer loop
         vertex -0.0395837 0.0325893 0.0226266
         vertex -0.0393952 0.0326694 0.0226238
         vertex -0.0394195 0.0327301 0.0225878
      endloop
   endfacet
   facet normal -0.150224 0.423444 0.89338
      outer loop
         vertex -0.0393952 0.0326694 0.0226238
         vertex -0.0392112 0.0327326 0.0226214
         vertex -0.0392308 0.0327948 0.0225856
      endloop
   endfacet
   facet normal -0.120814 0.432779 0.893368
      outer loop
         vertex -0.0392112 0.0327326 0.0226214
         vertex -0.0390255 0.0327814 0.0226195
         vertex -0.03904 0.0328448 0.0225837
      endloop
   endfacet
   facet normal -0.0899932 0.440493 0.893234
      outer loop
         vertex -0.0390255 0.0327814 0.0226195
         vertex -0.0388295 0.0328168 0.0226181
         vertex -0.0388387 0.0328813 0.0225822
      endloop
   endfacet
   facet normal -0.0569513 0.446318 0.89306
      outer loop
         vertex -0.0388295 0.0328168 0.0226181
         vertex -0.0386442 0.0328357 0.0226173
         vertex -0.0386486 0.0329006 0.0225814
      endloop
   endfacet
   facet normal -0.0272796 0.449265 0.892982
      outer loop
         vertex -0.0386442 0.0328357 0.0226173
         vertex -0.0379537 0.0328442 0.022617
         vertex -0.0379537 0.0329092 0.0225812
      endloop
   endfacet
   facet normal 9.45513e-08 0.515404 0.856948
      outer loop
         vertex -0.0353113 0.0329091 0.0225812
         vertex -0.0379537 0.0329092 0.0225812
         vertex -0.0379537 0.0328442 0.022617
      endloop
   endfacet
endsolid 1111. Units = meters