solid 1111. STL generated by ONSHAPE BY PTC INC, 1.216. Units = meters
   facet normal 4.33778e-06 1 -1.10184e-06
      outer loop
         vertex 0.172144 0.00783832 -0.00478873
         vertex 0.172066 0.00783832 -0.00539158
         vertex 0.171981 0.00783832 -0.00536877
      endloop
   endfacet
   facet normal 4.33778e-06 1 -1.10184e-06
      outer loop
         vertex 0.172239 0.00783832 -0.00372702
         vertex 0.172241 0.00783832 -0.00432775
         vertex 0.172216 0.00783832 -0.00432907
      endloop
   endfacet
   facet normal 4.33778e-06 1 -1.10184e-06
      outer loop
         vertex 0.172239 0.00783832 -0.00372702
         vertex 0.174358 0.00783831 -0.003727
         vertex 0.173102 0.00783832 -0.00432774
      endloop
   endfacet
   facet normal 4.33778e-06 1 -1.10184e-06
      outer loop
         vertex 0.172144 0.00783832 -0.00478873
         vertex 0.172153 0.00783832 -0.00540538
         vertex 0.172066 0.00783832 -0.00539158
      endloop
   endfacet
   facet normal 4.33778e-06 1 -1.10184e-06
      outer loop
         vertex 0.172152 0.00783832 -0.00373177
         vertex 0.172216 0.00783832 -0.00432907
         vertex 0.172191 0.00783832 -0.00433301
      endloop
   endfacet
   facet normal 4.33778e-06 1 -1.10184e-06
      outer loop
         vertex 0.173102 0.00783832 -0.00432774
         vertex 0.172241 0.00783832 -0.00432775
         vertex 0.172239 0.00783832 -0.00372702
      endloop
   endfacet
   facet normal 4.33778e-06 1 -1.10184e-06
      outer loop
         vertex 0.172144 0.00783832 -0.00478873
         vertex 0.17224 0.00783832 -0.00541003
         vertex 0.172153 0.00783832 -0.00540538
      endloop
   endfacet
   facet normal 4.33778e-06 1 -1.10184e-06
      outer loop
         vertex 0.171746 0.00783832 -0.00524929
         vertex 0.171678 0.00783832 -0.00519389
         vertex 0.17208 0.00783832 -0.00474772
      endloop
   endfacet
   facet normal 4.33778e-06 1 -1.10184e-06
      outer loop
         vertex 0.171678 0.00783832 -0.00519389
         vertex 0.171616 0.00783832 -0.00513165
         vertex 0.172062 0.00783832 -0.00472989
      endloop
   endfacet
   facet normal 4.33778e-06 1 -1.10184e-06
      outer loop
         vertex 0.171616 0.00783832 -0.00513165
         vertex 0.17156 0.00783832 -0.00506325
         vertex 0.172046 0.00783832 -0.00471028
      endloop
   endfacet
   facet normal 4.33778e-06 1 -1.10184e-06
      outer loop
         vertex 0.17156 0.00783832 -0.00506325
         vertex 0.171512 0.00783832 -0.00498944
         vertex 0.172033 0.00783832 -0.00468912
      endloop
   endfacet
   facet normal 4.33778e-06 1 -1.10184e-06
      outer loop
         vertex 0.171512 0.00783832 -0.00414847
         vertex 0.172032 0.00783832 -0.00444814
         vertex 0.172021 0.00783832 -0.00447059
      endloop
   endfacet
   facet normal 4.33778e-06 1 -1.10184e-06
      outer loop
         vertex 0.17156 0.00783832 -0.0040746
         vertex 0.172046 0.00783832 -0.004427
         vertex 0.172032 0.00783832 -0.00444814
      endloop
   endfacet
   facet normal 4.33778e-06 1 -1.10184e-06
      outer loop
         vertex 0.171677 0.00783832 -0.00394382
         vertex 0.17208 0.00783832 -0.0043896
         vertex 0.172062 0.00783832 -0.00440742
      endloop
   endfacet
   facet normal 4.33778e-06 1 -1.10184e-06
      outer loop
         vertex 0.171745 0.00783832 -0.00388834
         vertex 0.172099 0.00783832 -0.00437374
         vertex 0.17208 0.00783832 -0.0043896
      endloop
   endfacet
   facet normal 4.33778e-06 1 -1.10184e-06
      outer loop
         vertex 0.172065 0.00783832 -0.00374567
         vertex 0.172191 0.00783832 -0.00433301
         vertex 0.172167 0.00783832 -0.00433954
      endloop
   endfacet
   facet normal 4.33778e-06 1 -1.10184e-06
      outer loop
         vertex 0.172216 0.00783832 -0.00432907
         vertex 0.172152 0.00783832 -0.00373177
         vertex 0.172239 0.00783832 -0.00372702
      endloop
   endfacet
   facet normal 4.33778e-06 1 -1.10184e-06
      outer loop
         vertex 0.172144 0.00783832 -0.00478873
         vertex 0.173356 0.00783832 -0.00541002
         vertex 0.17224 0.00783832 -0.00541003
      endloop
   endfacet
   facet normal 4.33778e-06 1 -1.10184e-06
      outer loop
         vertex 0.171898 0.00783832 -0.00533721
         vertex 0.17182 0.00783832 -0.00529724
         vertex 0.172121 0.00783832 -0.0047773
      endloop
   endfacet
   facet normal 4.33778e-06 1 -1.10184e-06
      outer loop
         vertex 0.172062 0.00783832 -0.00472989
         vertex 0.17208 0.00783832 -0.00474772
         vertex 0.171678 0.00783832 -0.00519389
      endloop
   endfacet
   facet normal 4.33778e-06 1 -1.10184e-06
      outer loop
         vertex 0.172033 0.00783832 -0.00468912
         vertex 0.172046 0.00783832 -0.00471028
         vertex 0.17156 0.00783832 -0.00506325
      endloop
   endfacet
   facet normal 4.33778e-06 1 -1.10184e-06
      outer loop
         vertex 0.171512 0.00783832 -0.00498944
         vertex 0.171472 0.00783832 -0.00491102
         vertex 0.172021 0.00783832 -0.00466663
      endloop
   endfacet
   facet normal 4.33778e-06 1 -1.10184e-06
      outer loop
         vertex 0.171472 0.00783832 -0.00491102
         vertex 0.171441 0.00783832 -0.00482886
         vertex 0.172012 0.00783832 -0.00464306
      endloop
   endfacet
   facet normal 4.33778e-06 1 -1.10184e-06
      outer loop
         vertex 0.171472 0.00783832 -0.00422693
         vertex 0.172021 0.00783832 -0.00447059
         vertex 0.172012 0.00783832 -0.00449412
      endloop
   endfacet
   facet normal 4.33778e-06 1 -1.10184e-06
      outer loop
         vertex 0.172032 0.00783832 -0.00444814
         vertex 0.171512 0.00783832 -0.00414847
         vertex 0.17156 0.00783832 -0.0040746
      endloop
   endfacet
   facet normal 4.33778e-06 1 -1.10184e-06
      outer loop
         vertex 0.171615 0.00783832 -0.00400613
         vertex 0.172062 0.00783832 -0.00440742
         vertex 0.172046 0.00783832 -0.004427
      endloop
   endfacet
   facet normal 4.33778e-06 1 -1.10184e-06
      outer loop
         vertex 0.17208 0.00783832 -0.0043896
         vertex 0.171677 0.00783832 -0.00394382
         vertex 0.171745 0.00783832 -0.00388834
      endloop
   endfacet
   facet normal 4.33778e-06 1 -1.10184e-06
      outer loop
         vertex 0.171819 0.00783832 -0.00384031
         vertex 0.172121 0.00783832 -0.00436001
         vertex 0.172099 0.00783832 -0.00437374
      endloop
   endfacet
   facet normal 4.33778e-06 1 -1.10184e-06
      outer loop
         vertex 0.171898 0.00783832 -0.00380024
         vertex 0.172143 0.00783832 -0.00434857
         vertex 0.172121 0.00783832 -0.00436001
      endloop
   endfacet
   facet normal 4.33778e-06 1 -1.10184e-06
      outer loop
         vertex 0.17198 0.00783832 -0.00376858
         vertex 0.172167 0.00783832 -0.00433954
         vertex 0.172143 0.00783832 -0.00434857
      endloop
   endfacet
   facet normal 4.33778e-06 1 -1.10184e-06
      outer loop
         vertex 0.172191 0.00783832 -0.00433301
         vertex 0.172065 0.00783832 -0.00374567
         vertex 0.172152 0.00783832 -0.00373177
      endloop
   endfacet
   facet normal 4.33778e-06 1 -1.10184e-06
      outer loop
         vertex 0.172121 0.00783832 -0.0047773
         vertex 0.172144 0.00783832 -0.00478873
         vertex 0.171898 0.00783832 -0.00533721
      endloop
   endfacet
   facet normal 4.33778e-06 1 -1.10184e-06
      outer loop
         vertex 0.17182 0.00783832 -0.00529724
         vertex 0.171746 0.00783832 -0.00524929
         vertex 0.1721 0.00783832 -0.00476358
      endloop
   endfacet
   facet normal 4.33778e-06 1 -1.10184e-06
      outer loop
         vertex 0.172046 0.00783832 -0.00471028
         vertex 0.172062 0.00783832 -0.00472989
         vertex 0.171616 0.00783832 -0.00513165
      endloop
   endfacet
   facet normal 4.33778e-06 1 -1.10184e-06
      outer loop
         vertex 0.172012 0.00783832 -0.00464306
         vertex 0.172021 0.00783832 -0.00466663
         vertex 0.171472 0.00783832 -0.00491102
      endloop
   endfacet
   facet normal 4.33778e-06 1 -1.10184e-06
      outer loop
         vertex 0.171441 0.00783832 -0.00482886
         vertex 0.171418 0.00783832 -0.00474385
         vertex 0.172006 0.00783832 -0.00461868
      endloop
   endfacet
   facet normal 4.33778e-06 1 -1.10184e-06
      outer loop
         vertex 0.171418 0.00783832 -0.00474385
         vertex 0.171404 0.00783832 -0.00465692
         vertex 0.172002 0.00783832 -0.00459374
      endloop
   endfacet
   facet normal 4.33778e-06 1 -1.10184e-06
      outer loop
         vertex 0.171404 0.00783832 -0.00448112
         vertex 0.172002 0.00783832 -0.00454336
         vertex 0.172 0.00783832 -0.00456852
      endloop
   endfacet
   facet normal 4.33778e-06 1 -1.10184e-06
      outer loop
         vertex 0.171418 0.00783832 -0.00439418
         vertex 0.172005 0.00783832 -0.00451846
         vertex 0.172002 0.00783832 -0.00454336
      endloop
   endfacet
   facet normal 4.33778e-06 1 -1.10184e-06
      outer loop
         vertex 0.172021 0.00783832 -0.00447059
         vertex 0.171472 0.00783832 -0.00422693
         vertex 0.171512 0.00783832 -0.00414847
      endloop
   endfacet
   facet normal 4.33778e-06 1 -1.10184e-06
      outer loop
         vertex 0.172062 0.00783832 -0.00440742
         vertex 0.171615 0.00783832 -0.00400613
         vertex 0.171677 0.00783832 -0.00394382
      endloop
   endfacet
   facet normal 4.33778e-06 1 -1.10184e-06
      outer loop
         vertex 0.172121 0.00783832 -0.00436001
         vertex 0.171819 0.00783832 -0.00384031
         vertex 0.171898 0.00783832 -0.00380024
      endloop
   endfacet
   facet normal 4.33778e-06 1 -1.10184e-06
      outer loop
         vertex 0.172167 0.00783832 -0.00433954
         vertex 0.17198 0.00783832 -0.00376858
         vertex 0.172065 0.00783832 -0.00374567
      endloop
   endfacet
   facet normal 4.33778e-06 1 -1.10184e-06
      outer loop
         vertex 0.173356 0.00783832 -0.00541002
         vertex 0.172144 0.00783832 -0.00478873
         vertex 0.172167 0.00783832 -0.00479774
      endloop
   endfacet
   facet normal 4.33778e-06 1 -1.10184e-06
      outer loop
         vertex 0.1721 0.00783832 -0.00476358
         vertex 0.172121 0.00783832 -0.0047773
         vertex 0.17182 0.00783832 -0.00529724
      endloop
   endfacet
   facet normal 4.33778e-06 1 -1.10184e-06
      outer loop
         vertex 0.172021 0.00783832 -0.00466663
         vertex 0.172033 0.00783832 -0.00468912
         vertex 0.171512 0.00783832 -0.00498944
      endloop
   endfacet
   facet normal 4.33778e-06 1 -1.10184e-06
      outer loop
         vertex 0.172002 0.00783832 -0.00459374
         vertex 0.172006 0.00783832 -0.00461868
         vertex 0.171418 0.00783832 -0.00474385
      endloop
   endfacet
   facet normal 4.33778e-06 1 -1.10184e-06
      outer loop
         vertex 0.171399 0.00783832 -0.00456902
         vertex 0.172 0.00783832 -0.00456852
         vertex 0.172002 0.00783832 -0.00459374
      endloop
   endfacet
   facet normal 4.33778e-06 1 -1.10184e-06
      outer loop
         vertex 0.172002 0.00783832 -0.00454336
         vertex 0.171404 0.00783832 -0.00448112
         vertex 0.171418 0.00783832 -0.00439418
      endloop
   endfacet
   facet normal 4.33778e-06 1 -1.10184e-06
      outer loop
         vertex 0.17144 0.00783832 -0.00430914
         vertex 0.172012 0.00783832 -0.00449412
         vertex 0.172005 0.00783832 -0.00451846
      endloop
   endfacet
   facet normal 4.33778e-06 1 -1.10184e-06
      outer loop
         vertex 0.172046 0.00783832 -0.004427
         vertex 0.17156 0.00783832 -0.0040746
         vertex 0.171615 0.00783832 -0.00400613
      endloop
   endfacet
   facet normal 4.33778e-06 1 -1.10184e-06
      outer loop
         vertex 0.172143 0.00783832 -0.00434857
         vertex 0.171898 0.00783832 -0.00380024
         vertex 0.17198 0.00783832 -0.00376858
      endloop
   endfacet
   facet normal 4.33778e-06 1 -1.10184e-06
      outer loop
         vertex 0.173356 0.00783832 -0.00541002
         vertex 0.172217 0.00783832 -0.00480813
         vertex 0.172242 0.00783832 -0.00480939
      endloop
   endfacet
   facet normal 4.33778e-06 1 -1.10184e-06
      outer loop
         vertex 0.172167 0.00783832 -0.00479774
         vertex 0.172192 0.00783832 -0.00480422
         vertex 0.173356 0.00783832 -0.00541002
      endloop
   endfacet
   facet normal 4.33778e-06 1 -1.10184e-06
      outer loop
         vertex 0.17208 0.00783832 -0.00474772
         vertex 0.1721 0.00783832 -0.00476358
         vertex 0.171746 0.00783832 -0.00524929
      endloop
   endfacet
   facet normal 4.33778e-06 1 -1.10184e-06
      outer loop
         vertex 0.172002 0.00783832 -0.00459374
         vertex 0.171404 0.00783832 -0.00465692
         vertex 0.171399 0.00783832 -0.00456902
      endloop
   endfacet
   facet normal 4.33778e-06 1 -1.10184e-06
      outer loop
         vertex 0.172005 0.00783832 -0.00451846
         vertex 0.171418 0.00783832 -0.00439418
         vertex 0.17144 0.00783832 -0.00430914
      endloop
   endfacet
   facet normal 4.33778e-06 1 -1.10184e-06
      outer loop
         vertex 0.172099 0.00783832 -0.00437374
         vertex 0.171745 0.00783832 -0.00388834
         vertex 0.171819 0.00783832 -0.00384031
      endloop
   endfacet
   facet normal 4.33778e-06 1 -1.10184e-06
      outer loop
         vertex 0.172192 0.00783832 -0.00480422
         vertex 0.172217 0.00783832 -0.00480813
         vertex 0.173356 0.00783832 -0.00541002
      endloop
   endfacet
   facet normal 4.33778e-06 1 -1.10184e-06
      outer loop
         vertex 0.174378 0.00783831 -0.00632673
         vertex 0.173627 0.00783831 -0.00639198
         vertex 0.173356 0.00783832 -0.00541002
      endloop
   endfacet
   facet normal 4.33778e-06 1 -1.10184e-06
      outer loop
         vertex 0.172006 0.00783832 -0.00461868
         vertex 0.172012 0.00783832 -0.00464306
         vertex 0.171441 0.00783832 -0.00482886
      endloop
   endfacet
   facet normal 4.33778e-06 1 -1.10184e-06
      outer loop
         vertex 0.172012 0.00783832 -0.00449412
         vertex 0.17144 0.00783832 -0.00430914
         vertex 0.171472 0.00783832 -0.00422693
      endloop
   endfacet
   facet normal 4.33778e-06 1 -1.10184e-06
      outer loop
         vertex 0.173356 0.00783832 -0.00541002
         vertex 0.17396 0.00783831 -0.00480938
         vertex 0.174378 0.00783831 -0.00632673
      endloop
   endfacet
   facet normal 4.33778e-06 1 -1.10184e-06
      outer loop
         vertex 0.172 0.00783832 -0.00456852
         vertex 0.171399 0.00783832 -0.00456902
         vertex 0.171404 0.00783832 -0.00448112
      endloop
   endfacet
   facet normal 4.33778e-06 1 -1.10184e-06
      outer loop
         vertex 0.172242 0.00783832 -0.00480939
         vertex 0.17396 0.00783831 -0.00480938
         vertex 0.173356 0.00783832 -0.00541002
      endloop
   endfacet
   facet normal 4.33778e-06 1 -1.10184e-06
      outer loop
         vertex 0.173102 0.00783832 -0.00432774
         vertex 0.17396 0.00783831 -0.00432773
         vertex 0.173586 0.00783832 -0.00473752
      endloop
   endfacet
   facet normal 4.33778e-06 1 -1.10184e-06
      outer loop
         vertex 0.174378 0.00783831 -0.00632673
         vertex 0.174517 0.00783831 -0.00639197
         vertex 0.173627 0.00783831 -0.00639198
      endloop
   endfacet
   facet normal 4.33778e-06 1 -1.10184e-06
      outer loop
         vertex 0.173102 0.00783832 -0.00432774
         vertex 0.174358 0.00783831 -0.003727
         vertex 0.17396 0.00783831 -0.00432773
      endloop
   endfacet
   facet normal 4.33778e-06 1 -1.10184e-06
      outer loop
         vertex 0.173586 0.00783832 -0.00473752
         vertex 0.172729 0.00783832 -0.00473753
         vertex 0.173102 0.00783832 -0.00432774
      endloop
   endfacet
   facet normal 4.33778e-06 1 -1.10184e-06
      outer loop
         vertex 0.171981 0.00783832 -0.00536877
         vertex 0.171898 0.00783832 -0.00533721
         vertex 0.172144 0.00783832 -0.00478873
      endloop
   endfacet
endsolid 1111. Units = meters