solid 1111. STL generated by ONSHAPE BY PTC INC, 1.216. Units = meters
   facet normal -4.33778e-06 -1 1.10184e-06
      outer loop
         vertex 0.174609 -0.000981691 -0.00580966
         vertex 0.174571 -0.00098169 -0.0056645
         vertex 0.174548 -0.00098169 -0.00567278
      endloop
   endfacet
   facet normal -4.33778e-06 -1 1.10184e-06
      outer loop
         vertex 0.174548 -0.00098169 -0.00567278
         vertex 0.174584 -0.00098169 -0.00581507
         vertex 0.174609 -0.000981691 -0.00580966
      endloop
   endfacet
   facet normal -4.33778e-06 -1 1.10184e-06
      outer loop
         vertex 0.174548 -0.00098169 -0.00567278
         vertex 0.174524 -0.00098169 -0.00567882
         vertex 0.174559 -0.00098169 -0.00581774
      endloop
   endfacet
   facet normal -4.33778e-06 -1 1.10184e-06
      outer loop
         vertex 0.174609 -0.000981691 -0.00580966
         vertex 0.174634 -0.000981691 -0.00580156
         vertex 0.174571 -0.00098169 -0.0056645
      endloop
   endfacet
   facet normal -4.33778e-06 -1 1.10184e-06
      outer loop
         vertex 0.174524 -0.00098169 -0.00567882
         vertex 0.1745 -0.00098169 -0.00568256
         vertex 0.174533 -0.00098169 -0.00581764
      endloop
   endfacet
   facet normal -4.33778e-06 -1 1.10184e-06
      outer loop
         vertex 0.174634 -0.000981691 -0.00580156
         vertex 0.174657 -0.000981691 -0.00579089
         vertex 0.174571 -0.00098169 -0.0056645
      endloop
   endfacet
   facet normal -4.33778e-06 -1 1.10184e-06
      outer loop
         vertex 0.174298 -0.000981689 -0.00581348
         vertex 0.174318 -0.000981689 -0.0058166
         vertex 0.174341 -0.000981689 -0.00566599
      endloop
   endfacet
   facet normal -4.33778e-06 -1 1.10184e-06
      outer loop
         vertex 0.174559 -0.00098169 -0.00581774
         vertex 0.174584 -0.00098169 -0.00581507
         vertex 0.174548 -0.00098169 -0.00567278
      endloop
   endfacet
   facet normal -4.33778e-06 -1 1.10184e-06
      outer loop
         vertex 0.1747 -0.00098169 -0.00536908
         vertex 0.174582 -0.00098169 -0.00524341
         vertex 0.174573 -0.00098169 -0.00525261
      endloop
   endfacet
   facet normal -4.33778e-06 -1 1.10184e-06
      outer loop
         vertex 0.174279 -0.000981689 -0.00580834
         vertex 0.174337 -0.000981689 -0.00566491
         vertex 0.174334 -0.000981689 -0.00566341
      endloop
   endfacet
   facet normal -4.33778e-06 -1 1.10184e-06
      outer loop
         vertex 0.174337 -0.000981689 -0.00566491
         vertex 0.174279 -0.000981689 -0.00580834
         vertex 0.174298 -0.000981689 -0.00581348
      endloop
   endfacet
   facet normal -4.33778e-06 -1 1.10184e-06
      outer loop
         vertex 0.174338 -0.000981689 -0.00581764
         vertex 0.174426 -0.00098169 -0.00567977
         vertex 0.174349 -0.000981689 -0.00566688
      endloop
   endfacet
   facet normal -4.33778e-06 -1 1.10184e-06
      outer loop
         vertex 0.174533 -0.00098169 -0.00581764
         vertex 0.174475 -0.00098169 -0.00568397
         vertex 0.17445 -0.00098169 -0.00568304
      endloop
   endfacet
   facet normal -4.33778e-06 -1 1.10184e-06
      outer loop
         vertex 0.174533 -0.00098169 -0.00581764
         vertex 0.174559 -0.00098169 -0.00581774
         vertex 0.174524 -0.00098169 -0.00567882
      endloop
   endfacet
   facet normal -4.33778e-06 -1 1.10184e-06
      outer loop
         vertex 0.174573 -0.00098169 -0.00525261
         vertex 0.174679 -0.00098169 -0.00538692
         vertex 0.1747 -0.00098169 -0.00536908
      endloop
   endfacet
   facet normal -4.33778e-06 -1 1.10184e-06
      outer loop
         vertex 0.174719 -0.000981691 -0.00534918
         vertex 0.174736 -0.000981691 -0.00532743
         vertex 0.17459 -0.00098169 -0.00523332
      endloop
   endfacet
   facet normal -4.33778e-06 -1 1.10184e-06
      outer loop
         vertex 0.174243 -0.000981689 -0.00579218
         vertex 0.17433 -0.000981689 -0.00566153
         vertex 0.174327 -0.000981689 -0.00565927
      endloop
   endfacet
   facet normal -4.33778e-06 -1 1.10184e-06
      outer loop
         vertex 0.17426 -0.000981689 -0.00580121
         vertex 0.174334 -0.000981689 -0.00566341
         vertex 0.17433 -0.000981689 -0.00566153
      endloop
   endfacet
   facet normal -4.33778e-06 -1 1.10184e-06
      outer loop
         vertex 0.174341 -0.000981689 -0.00566599
         vertex 0.174337 -0.000981689 -0.00566491
         vertex 0.174298 -0.000981689 -0.00581348
      endloop
   endfacet
   facet normal -4.33778e-06 -1 1.10184e-06
      outer loop
         vertex 0.174318 -0.000981689 -0.0058166
         vertex 0.174338 -0.000981689 -0.00581764
         vertex 0.174345 -0.000981689 -0.00566665
      endloop
   endfacet
   facet normal -4.33778e-06 -1 1.10184e-06
      outer loop
         vertex 0.174338 -0.000981689 -0.00581764
         vertex 0.17445 -0.00098169 -0.00568304
         vertex 0.174426 -0.00098169 -0.00567977
      endloop
   endfacet
   facet normal -4.33778e-06 -1 1.10184e-06
      outer loop
         vertex 0.1745 -0.00098169 -0.00568256
         vertex 0.174475 -0.00098169 -0.00568397
         vertex 0.174533 -0.00098169 -0.00581764
      endloop
   endfacet
   facet normal -4.33778e-06 -1 1.10184e-06
      outer loop
         vertex 0.17459 -0.00098169 -0.00523332
         vertex 0.174582 -0.00098169 -0.00524341
         vertex 0.174719 -0.000981691 -0.00534918
      endloop
   endfacet
   facet normal -4.33778e-06 -1 1.10184e-06
      outer loop
         vertex 0.174736 -0.000981691 -0.00532743
         vertex 0.174751 -0.000981691 -0.00530405
         vertex 0.174597 -0.00098169 -0.00522247
      endloop
   endfacet
   facet normal -4.33778e-06 -1 1.10184e-06
      outer loop
         vertex 0.174751 -0.000981691 -0.00530405
         vertex 0.174763 -0.000981691 -0.00527928
         vertex 0.174602 -0.00098169 -0.00521096
      endloop
   endfacet
   facet normal -4.33778e-06 -1 1.10184e-06
      outer loop
         vertex 0.174173 -0.000981689 -0.00572264
         vertex 0.174316 -0.000981689 -0.00564709
         vertex 0.174314 -0.000981689 -0.00564344
      endloop
   endfacet
   facet normal -4.33778e-06 -1 1.10184e-06
      outer loop
         vertex 0.174184 -0.000981689 -0.00573932
         vertex 0.174318 -0.000981689 -0.00565054
         vertex 0.174316 -0.000981689 -0.00564709
      endloop
   endfacet
   facet normal -4.33778e-06 -1 1.10184e-06
      outer loop
         vertex 0.174196 -0.000981689 -0.00575477
         vertex 0.174321 -0.000981689 -0.00565374
         vertex 0.174318 -0.000981689 -0.00565054
      endloop
   endfacet
   facet normal -4.33778e-06 -1 1.10184e-06
      outer loop
         vertex 0.174211 -0.000981689 -0.00576883
         vertex 0.174324 -0.000981689 -0.00565666
         vertex 0.174321 -0.000981689 -0.00565374
      endloop
   endfacet
   facet normal -4.33778e-06 -1 1.10184e-06
      outer loop
         vertex 0.174226 -0.000981689 -0.00578135
         vertex 0.174327 -0.000981689 -0.00565927
         vertex 0.174324 -0.000981689 -0.00565666
      endloop
   endfacet
   facet normal -4.33778e-06 -1 1.10184e-06
      outer loop
         vertex 0.17433 -0.000981689 -0.00566153
         vertex 0.174243 -0.000981689 -0.00579218
         vertex 0.17426 -0.000981689 -0.00580121
      endloop
   endfacet
   facet normal -4.33778e-06 -1 1.10184e-06
      outer loop
         vertex 0.174345 -0.000981689 -0.00566665
         vertex 0.174341 -0.000981689 -0.00566599
         vertex 0.174318 -0.000981689 -0.0058166
      endloop
   endfacet
   facet normal -4.33778e-06 -1 1.10184e-06
      outer loop
         vertex 0.17445 -0.00098169 -0.00568304
         vertex 0.174338 -0.000981689 -0.00581764
         vertex 0.174533 -0.00098169 -0.00581764
      endloop
   endfacet
   facet normal -4.33778e-06 -1 1.10184e-06
      outer loop
         vertex 0.1747 -0.00098169 -0.00536908
         vertex 0.174719 -0.000981691 -0.00534918
         vertex 0.174582 -0.00098169 -0.00524341
      endloop
   endfacet
   facet normal -4.33778e-06 -1 1.10184e-06
      outer loop
         vertex 0.174602 -0.00098169 -0.00521096
         vertex 0.174597 -0.00098169 -0.00522247
         vertex 0.174751 -0.000981691 -0.00530405
      endloop
   endfacet
   facet normal -4.33778e-06 -1 1.10184e-06
      outer loop
         vertex 0.174763 -0.000981691 -0.00527928
         vertex 0.174773 -0.000981691 -0.0052534
         vertex 0.174607 -0.00098169 -0.00519892
      endloop
   endfacet
   facet normal -4.33778e-06 -1 1.10184e-06
      outer loop
         vertex 0.17478 -0.000981691 -0.00522666
         vertex 0.17461 -0.00098169 -0.00518647
         vertex 0.174607 -0.00098169 -0.00519892
      endloop
   endfacet
   facet normal -4.33778e-06 -1 1.10184e-06
      outer loop
         vertex 0.174784 -0.000981691 -0.00519935
         vertex 0.174612 -0.00098169 -0.00517375
         vertex 0.17461 -0.00098169 -0.00518647
      endloop
   endfacet
   facet normal -4.33778e-06 -1 1.10184e-06
      outer loop
         vertex 0.174152 -0.000981688 -0.00566714
         vertex 0.174157 -0.000981688 -0.00568635
         vertex 0.174313 -0.000981689 -0.00563962
      endloop
   endfacet
   facet normal -4.33778e-06 -1 1.10184e-06
      outer loop
         vertex 0.174157 -0.000981688 -0.00568635
         vertex 0.174164 -0.000981688 -0.00570492
         vertex 0.174314 -0.000981689 -0.00564344
      endloop
   endfacet
   facet normal -4.33778e-06 -1 1.10184e-06
      outer loop
         vertex 0.174316 -0.000981689 -0.00564709
         vertex 0.174173 -0.000981689 -0.00572264
         vertex 0.174184 -0.000981689 -0.00573932
      endloop
   endfacet
   facet normal -4.33778e-06 -1 1.10184e-06
      outer loop
         vertex 0.174321 -0.000981689 -0.00565374
         vertex 0.174196 -0.000981689 -0.00575477
         vertex 0.174211 -0.000981689 -0.00576883
      endloop
   endfacet
   facet normal -4.33778e-06 -1 1.10184e-06
      outer loop
         vertex 0.174327 -0.000981689 -0.00565927
         vertex 0.174226 -0.000981689 -0.00578135
         vertex 0.174243 -0.000981689 -0.00579218
      endloop
   endfacet
   facet normal -4.33778e-06 -1 1.10184e-06
      outer loop
         vertex 0.174349 -0.000981689 -0.00566688
         vertex 0.174345 -0.000981689 -0.00566665
         vertex 0.174338 -0.000981689 -0.00581764
      endloop
   endfacet
   facet normal -4.33778e-06 -1 1.10184e-06
      outer loop
         vertex 0.174589 -0.00098169 -0.00564472
         vertex 0.174581 -0.00098169 -0.00565509
         vertex 0.174699 -0.000981691 -0.00576232
      endloop
   endfacet
   facet normal -4.33778e-06 -1 1.10184e-06
      outer loop
         vertex 0.174735 -0.000981691 -0.00572529
         vertex 0.174597 -0.00098169 -0.00563349
         vertex 0.174589 -0.00098169 -0.00564472
      endloop
   endfacet
   facet normal -4.33778e-06 -1 1.10184e-06
      outer loop
         vertex 0.174749 -0.000981691 -0.00570413
         vertex 0.174603 -0.00098169 -0.00562154
         vertex 0.174597 -0.00098169 -0.00563349
      endloop
   endfacet
   facet normal -4.33778e-06 -1 1.10184e-06
      outer loop
         vertex 0.17477 -0.000981691 -0.00565778
         vertex 0.174777 -0.000981691 -0.00563313
         vertex 0.174611 -0.00098169 -0.00559601
      endloop
   endfacet
   facet normal -4.33778e-06 -1 1.10184e-06
      outer loop
         vertex 0.174781 -0.000981691 -0.00560788
         vertex 0.174614 -0.00098169 -0.00558272
         vertex 0.174611 -0.00098169 -0.00559601
      endloop
   endfacet
   facet normal -4.33778e-06 -1 1.10184e-06
      outer loop
         vertex 0.174574 -0.000981689 -0.00490789
         vertex 0.174547 -0.000981689 -0.00490319
         vertex 0.174522 -0.000981689 -0.00504083
      endloop
   endfacet
   facet normal -4.33778e-06 -1 1.10184e-06
      outer loop
         vertex 0.174519 -0.000981689 -0.00490138
         vertex 0.174497 -0.000981689 -0.00490035
         vertex 0.174495 -0.000981689 -0.0050364
      endloop
   endfacet
   facet normal -4.33778e-06 -1 1.10184e-06
      outer loop
         vertex 0.174497 -0.000981689 -0.00490035
         vertex 0.174475 -0.000981689 -0.00490154
         vertex 0.174482 -0.000981689 -0.00503636
      endloop
   endfacet
   facet normal -4.33778e-06 -1 1.10184e-06
      outer loop
         vertex 0.174412 -0.000981689 -0.00491819
         vertex 0.17447 -0.000981689 -0.00504035
         vertex 0.174474 -0.000981689 -0.00503861
      endloop
   endfacet
   facet normal -4.33778e-06 -1 1.10184e-06
      outer loop
         vertex 0.174392 -0.000981689 -0.00492791
         vertex 0.174466 -0.000981689 -0.00504247
         vertex 0.17447 -0.000981689 -0.00504035
      endloop
   endfacet
   facet normal -4.33778e-06 -1 1.10184e-06
      outer loop
         vertex 0.174374 -0.000981689 -0.00493956
         vertex 0.174356 -0.000981688 -0.00495303
         vertex 0.17446 -0.000981689 -0.00504776
      endloop
   endfacet
   facet normal -4.33778e-06 -1 1.10184e-06
      outer loop
         vertex 0.174356 -0.000981688 -0.00495303
         vertex 0.174341 -0.000981688 -0.00496818
         vertex 0.174457 -0.000981689 -0.00505088
      endloop
   endfacet
   facet normal -4.33778e-06 -1 1.10184e-06
      outer loop
         vertex 0.174679 -0.00098169 -0.00538692
         vertex 0.174552 -0.00098169 -0.00526799
         vertex 0.174541 -0.00098169 -0.005274
      endloop
   endfacet
   facet normal -4.33778e-06 -1 1.10184e-06
      outer loop
         vertex 0.174573 -0.00098169 -0.00525261
         vertex 0.174563 -0.00098169 -0.00526083
         vertex 0.174679 -0.00098169 -0.00538692
      endloop
   endfacet
   facet normal -4.33778e-06 -1 1.10184e-06
      outer loop
         vertex 0.174607 -0.00098169 -0.00519892
         vertex 0.174602 -0.00098169 -0.00521096
         vertex 0.174763 -0.000981691 -0.00527928
      endloop
   endfacet
   facet normal -4.33778e-06 -1 1.10184e-06
      outer loop
         vertex 0.17461 -0.00098169 -0.00518647
         vertex 0.17478 -0.000981691 -0.00522666
         vertex 0.174784 -0.000981691 -0.00519935
      endloop
   endfacet
   facet normal -4.33778e-06 -1 1.10184e-06
      outer loop
         vertex 0.174148 -0.000981688 -0.00562764
         vertex 0.174149 -0.000981688 -0.0056475
         vertex 0.174312 -0.000981689 -0.00563168
      endloop
   endfacet
   facet normal -4.33778e-06 -1 1.10184e-06
      outer loop
         vertex 0.174149 -0.000981688 -0.0056475
         vertex 0.174152 -0.000981688 -0.00566714
         vertex 0.174312 -0.000981689 -0.00563569
      endloop
   endfacet
   facet normal -4.33778e-06 -1 1.10184e-06
      outer loop
         vertex 0.174314 -0.000981689 -0.00564344
         vertex 0.174313 -0.000981689 -0.00563962
         vertex 0.174157 -0.000981688 -0.00568635
      endloop
   endfacet
   facet normal -4.33778e-06 -1 1.10184e-06
      outer loop
         vertex 0.174318 -0.000981689 -0.00565054
         vertex 0.174184 -0.000981689 -0.00573932
         vertex 0.174196 -0.000981689 -0.00575477
      endloop
   endfacet
   facet normal -4.33778e-06 -1 1.10184e-06
      outer loop
         vertex 0.174334 -0.000981689 -0.00566341
         vertex 0.17426 -0.000981689 -0.00580121
         vertex 0.174279 -0.000981689 -0.00580834
      endloop
   endfacet
   facet normal -4.33778e-06 -1 1.10184e-06
      outer loop
         vertex 0.174589 -0.00098169 -0.00564472
         vertex 0.174718 -0.000981691 -0.00574476
         vertex 0.174735 -0.000981691 -0.00572529
      endloop
   endfacet
   facet normal -4.33778e-06 -1 1.10184e-06
      outer loop
         vertex 0.174597 -0.00098169 -0.00563349
         vertex 0.174735 -0.000981691 -0.00572529
         vertex 0.174749 -0.000981691 -0.00570413
      endloop
   endfacet
   facet normal -4.33778e-06 -1 1.10184e-06
      outer loop
         vertex 0.174761 -0.000981691 -0.00568154
         vertex 0.17477 -0.000981691 -0.00565778
         vertex 0.174608 -0.00098169 -0.005609
      endloop
   endfacet
   facet normal -4.33778e-06 -1 1.10184e-06
      outer loop
         vertex 0.174611 -0.00098169 -0.00559601
         vertex 0.174777 -0.000981691 -0.00563313
         vertex 0.174781 -0.000981691 -0.00560788
      endloop
   endfacet
   facet normal -4.33778e-06 -1 1.10184e-06
      outer loop
         vertex 0.174777 -0.000981691 -0.00553154
         vertex 0.17477 -0.000981691 -0.00550689
         vertex 0.174612 -0.00098169 -0.00554295
      endloop
   endfacet
   facet normal -4.33778e-06 -1 1.10184e-06
      outer loop
         vertex 0.174612 -0.00098169 -0.00554295
         vertex 0.17477 -0.000981691 -0.00550689
         vertex 0.174761 -0.000981691 -0.00548313
      endloop
   endfacet
   facet normal -4.33778e-06 -1 1.10184e-06
      outer loop
         vertex 0.174676 -0.00098169 -0.00495419
         vertex 0.174569 -0.00098169 -0.005066
         vertex 0.174579 -0.00098169 -0.00507528
      endloop
   endfacet
   facet normal -4.33778e-06 -1 1.10184e-06
      outer loop
         vertex 0.174652 -0.00098169 -0.00493871
         vertex 0.174558 -0.000981689 -0.00505782
         vertex 0.174569 -0.00098169 -0.005066
      endloop
   endfacet
   facet normal -4.33778e-06 -1 1.10184e-06
      outer loop
         vertex 0.174601 -0.00098169 -0.00491544
         vertex 0.174535 -0.000981689 -0.00504517
         vertex 0.174547 -0.000981689 -0.00505085
      endloop
   endfacet
   facet normal -4.33778e-06 -1 1.10184e-06
      outer loop
         vertex 0.174535 -0.000981689 -0.00504517
         vertex 0.174601 -0.00098169 -0.00491544
         vertex 0.174574 -0.000981689 -0.00490789
      endloop
   endfacet
   facet normal -4.33778e-06 -1 1.10184e-06
      outer loop
         vertex 0.174547 -0.000981689 -0.00490319
         vertex 0.174519 -0.000981689 -0.00490138
         vertex 0.174509 -0.000981689 -0.0050379
      endloop
   endfacet
   facet normal -4.33778e-06 -1 1.10184e-06
      outer loop
         vertex 0.174482 -0.000981689 -0.00503636
         vertex 0.174495 -0.000981689 -0.0050364
         vertex 0.174497 -0.000981689 -0.00490035
      endloop
   endfacet
   facet normal -4.33778e-06 -1 1.10184e-06
      outer loop
         vertex 0.17447 -0.000981689 -0.00504035
         vertex 0.174412 -0.000981689 -0.00491819
         vertex 0.174392 -0.000981689 -0.00492791
      endloop
   endfacet
   facet normal -4.33778e-06 -1 1.10184e-06
      outer loop
         vertex 0.174392 -0.000981689 -0.00492791
         vertex 0.174374 -0.000981689 -0.00493956
         vertex 0.174463 -0.000981689 -0.00504495
      endloop
   endfacet
   facet normal -4.33778e-06 -1 1.10184e-06
      outer loop
         vertex 0.174457 -0.000981689 -0.00505088
         vertex 0.17446 -0.000981689 -0.00504776
         vertex 0.174356 -0.000981688 -0.00495303
      endloop
   endfacet
   facet normal -4.33778e-06 -1 1.10184e-06
      outer loop
         vertex 0.174326 -0.000981688 -0.00498485
         vertex 0.174452 -0.000981689 -0.0050579
         vertex 0.174455 -0.000981689 -0.00505427
      endloop
   endfacet
   facet normal -4.33778e-06 -1 1.10184e-06
      outer loop
         vertex 0.174314 -0.000981688 -0.00500287
         vertex 0.174451 -0.000981689 -0.00506172
         vertex 0.174452 -0.000981689 -0.0050579
      endloop
   endfacet
   facet normal -4.33778e-06 -1 1.10184e-06
      outer loop
         vertex 0.174563 -0.00098169 -0.00526083
         vertex 0.174552 -0.00098169 -0.00526799
         vertex 0.174679 -0.00098169 -0.00538692
      endloop
   endfacet
   facet normal -4.33778e-06 -1 1.10184e-06
      outer loop
         vertex 0.174607 -0.00098169 -0.00519892
         vertex 0.174773 -0.000981691 -0.0052534
         vertex 0.17478 -0.000981691 -0.00522666
      endloop
   endfacet
   facet normal -4.33778e-06 -1 1.10184e-06
      outer loop
         vertex 0.174312 -0.000981689 -0.00562764
         vertex 0.174148 -0.000981688 -0.00561149
         vertex 0.174148 -0.000981688 -0.00562764
      endloop
   endfacet
   facet normal -4.33778e-06 -1 1.10184e-06
      outer loop
         vertex 0.174313 -0.000981689 -0.00563962
         vertex 0.174312 -0.000981689 -0.00563569
         vertex 0.174152 -0.000981688 -0.00566714
      endloop
   endfacet
   facet normal -4.33778e-06 -1 1.10184e-06
      outer loop
         vertex 0.174324 -0.000981689 -0.00565666
         vertex 0.174211 -0.000981689 -0.00576883
         vertex 0.174226 -0.000981689 -0.00578135
      endloop
   endfacet
   facet normal -4.33778e-06 -1 1.10184e-06
      outer loop
         vertex 0.174749 -0.000981691 -0.00570413
         vertex 0.174761 -0.000981691 -0.00568154
         vertex 0.174603 -0.00098169 -0.00562154
      endloop
   endfacet
   facet normal -4.33778e-06 -1 1.10184e-06
      outer loop
         vertex 0.174611 -0.00098169 -0.00559601
         vertex 0.174608 -0.00098169 -0.005609
         vertex 0.17477 -0.000981691 -0.00565778
      endloop
   endfacet
   facet normal -4.33778e-06 -1 1.10184e-06
      outer loop
         vertex 0.174783 -0.000981691 -0.00558233
         vertex 0.174781 -0.000981691 -0.00555678
         vertex 0.174614 -0.00098169 -0.00556927
      endloop
   endfacet
   facet normal -4.33778e-06 -1 1.10184e-06
      outer loop
         vertex 0.174761 -0.000981691 -0.00548313
         vertex 0.174608 -0.00098169 -0.00553014
         vertex 0.174612 -0.00098169 -0.00554295
      endloop
   endfacet
   facet normal -4.33778e-06 -1 1.10184e-06
      outer loop
         vertex 0.174608 -0.00098169 -0.00553014
         vertex 0.174761 -0.000981691 -0.00548313
         vertex 0.174749 -0.000981691 -0.00546054
      endloop
   endfacet
   facet normal -4.33778e-06 -1 1.10184e-06
      outer loop
         vertex 0.174718 -0.000981691 -0.00541992
         vertex 0.174699 -0.00098169 -0.00540236
         vertex 0.17459 -0.00098169 -0.00549485
      endloop
   endfacet
   facet normal -4.33778e-06 -1 1.10184e-06
      outer loop
         vertex 0.174679 -0.00098169 -0.00538692
         vertex 0.174562 -0.00098169 -0.00546684
         vertex 0.174572 -0.00098169 -0.00547518
      endloop
   endfacet
   facet normal -4.33778e-06 -1 1.10184e-06
      outer loop
         vertex 0.174679 -0.00098169 -0.00538692
         vertex 0.174527 -0.00098169 -0.00544885
         vertex 0.174539 -0.00098169 -0.0054536
      endloop
   endfacet
   facet normal -4.33778e-06 -1 1.10184e-06
      outer loop
         vertex 0.174679 -0.00098169 -0.00538692
         vertex 0.174501 -0.00098169 -0.00544334
         vertex 0.174514 -0.00098169 -0.00544542
      endloop
   endfacet
   facet normal -4.33778e-06 -1 1.10184e-06
      outer loop
         vertex 0.174784 -0.000981691 -0.00514371
         vertex 0.17478 -0.000981691 -0.00511597
         vertex 0.174612 -0.00098169 -0.00514743
      endloop
   endfacet
   facet normal -4.33778e-06 -1 1.10184e-06
      outer loop
         vertex 0.17475 -0.00098169 -0.00503752
         vertex 0.174735 -0.00098169 -0.0050139
         vertex 0.174595 -0.00098169 -0.00509672
      endloop
   endfacet
   facet normal -4.33778e-06 -1 1.10184e-06
      outer loop
         vertex 0.174717 -0.00098169 -0.00499199
         vertex 0.174587 -0.00098169 -0.00508556
         vertex 0.174595 -0.00098169 -0.00509672
      endloop
   endfacet
   facet normal -4.33778e-06 -1 1.10184e-06
      outer loop
         vertex 0.174569 -0.00098169 -0.005066
         vertex 0.174676 -0.00098169 -0.00495419
         vertex 0.174652 -0.00098169 -0.00493871
      endloop
   endfacet
   facet normal -4.33778e-06 -1 1.10184e-06
      outer loop
         vertex 0.174627 -0.00098169 -0.00492575
         vertex 0.174547 -0.000981689 -0.00505085
         vertex 0.174558 -0.000981689 -0.00505782
      endloop
   endfacet
   facet normal -4.33778e-06 -1 1.10184e-06
      outer loop
         vertex 0.174522 -0.000981689 -0.00504083
         vertex 0.174535 -0.000981689 -0.00504517
         vertex 0.174574 -0.000981689 -0.00490789
      endloop
   endfacet
   facet normal -4.33778e-06 -1 1.10184e-06
      outer loop
         vertex 0.174495 -0.000981689 -0.0050364
         vertex 0.174509 -0.000981689 -0.0050379
         vertex 0.174519 -0.000981689 -0.00490138
      endloop
   endfacet
   facet normal -4.33778e-06 -1 1.10184e-06
      outer loop
         vertex 0.174463 -0.000981689 -0.00504495
         vertex 0.174466 -0.000981689 -0.00504247
         vertex 0.174392 -0.000981689 -0.00492791
      endloop
   endfacet
   facet normal -4.33778e-06 -1 1.10184e-06
      outer loop
         vertex 0.174341 -0.000981688 -0.00496818
         vertex 0.174455 -0.000981689 -0.00505427
         vertex 0.174457 -0.000981689 -0.00505088
      endloop
   endfacet
   facet normal -4.33778e-06 -1 1.10184e-06
      outer loop
         vertex 0.174452 -0.000981689 -0.0050579
         vertex 0.174326 -0.000981688 -0.00498485
         vertex 0.174314 -0.000981688 -0.00500287
      endloop
   endfacet
   facet normal -4.33778e-06 -1 1.10184e-06
      outer loop
         vertex 0.174289 -0.000981688 -0.0050631
         vertex 0.174154 -0.000981688 -0.00557965
         vertex 0.174382 -0.000981689 -0.0052875
      endloop
   endfacet
   facet normal -4.33778e-06 -1 1.10184e-06
      outer loop
         vertex 0.174449 -0.000981689 -0.0050657
         vertex 0.174304 -0.000981688 -0.00502205
         vertex 0.174295 -0.000981688 -0.00504219
      endloop
   endfacet
   facet normal -4.33778e-06 -1 1.10184e-06
      outer loop
         vertex 0.174597 -0.00098169 -0.00522247
         vertex 0.17459 -0.00098169 -0.00523332
         vertex 0.174736 -0.000981691 -0.00532743
      endloop
   endfacet
   facet normal -4.33778e-06 -1 1.10184e-06
      outer loop
         vertex 0.174786 -0.000981691 -0.00517175
         vertex 0.174613 -0.00098169 -0.00516089
         vertex 0.174612 -0.00098169 -0.00517375
      endloop
   endfacet
   facet normal -4.33778e-06 -1 1.10184e-06
      outer loop
         vertex 0.174312 -0.000981689 -0.00562764
         vertex 0.174371 -0.000981689 -0.00544265
         vertex 0.174154 -0.000981688 -0.00557965
      endloop
   endfacet
   facet normal -4.33778e-06 -1 1.10184e-06
      outer loop
         vertex 0.174312 -0.000981689 -0.00562764
         vertex 0.17415 -0.000981688 -0.00559545
         vertex 0.174148 -0.000981688 -0.00561149
      endloop
   endfacet
   facet normal -4.33778e-06 -1 1.10184e-06
      outer loop
         vertex 0.174314 -0.000981689 -0.00564344
         vertex 0.174164 -0.000981688 -0.00570492
         vertex 0.174173 -0.000981689 -0.00572264
      endloop
   endfacet
   facet normal -4.33778e-06 -1 1.10184e-06
      outer loop
         vertex 0.174679 -0.000981691 -0.00577775
         vertex 0.174581 -0.00098169 -0.00565509
         vertex 0.174571 -0.00098169 -0.0056645
      endloop
   endfacet
   facet normal -4.33778e-06 -1 1.10184e-06
      outer loop
         vertex 0.174608 -0.00098169 -0.005609
         vertex 0.174603 -0.00098169 -0.00562154
         vertex 0.174761 -0.000981691 -0.00568154
      endloop
   endfacet
   facet normal -4.33778e-06 -1 1.10184e-06
      outer loop
         vertex 0.174614 -0.00098169 -0.00558272
         vertex 0.174781 -0.000981691 -0.00560788
         vertex 0.174783 -0.000981691 -0.00558233
      endloop
   endfacet
   facet normal -4.33778e-06 -1 1.10184e-06
      outer loop
         vertex 0.174749 -0.000981691 -0.00546054
         vertex 0.174603 -0.00098169 -0.00551777
         vertex 0.174608 -0.00098169 -0.00553014
      endloop
   endfacet
   facet normal -4.33778e-06 -1 1.10184e-06
      outer loop
         vertex 0.174603 -0.00098169 -0.00551777
         vertex 0.174749 -0.000981691 -0.00546054
         vertex 0.174735 -0.000981691 -0.00543939
      endloop
   endfacet
   facet normal -4.33778e-06 -1 1.10184e-06
      outer loop
         vertex 0.174597 -0.00098169 -0.00550596
         vertex 0.174735 -0.000981691 -0.00543939
         vertex 0.174718 -0.000981691 -0.00541992
      endloop
   endfacet
   facet normal -4.33778e-06 -1 1.10184e-06
      outer loop
         vertex 0.17459 -0.00098169 -0.00549485
         vertex 0.174699 -0.00098169 -0.00540236
         vertex 0.174679 -0.00098169 -0.00538692
      endloop
   endfacet
   facet normal -4.33778e-06 -1 1.10184e-06
      outer loop
         vertex 0.174679 -0.00098169 -0.00538692
         vertex 0.174551 -0.00098169 -0.00545962
         vertex 0.174562 -0.00098169 -0.00546684
      endloop
   endfacet
   facet normal -4.33778e-06 -1 1.10184e-06
      outer loop
         vertex 0.174514 -0.00098169 -0.00544542
         vertex 0.174527 -0.00098169 -0.00544885
         vertex 0.174679 -0.00098169 -0.00538692
      endloop
   endfacet
   facet normal -4.33778e-06 -1 1.10184e-06
      outer loop
         vertex 0.174613 -0.00098169 -0.00516089
         vertex 0.174786 -0.000981691 -0.00517175
         vertex 0.174784 -0.000981691 -0.00514371
      endloop
   endfacet
   facet normal -4.33778e-06 -1 1.10184e-06
      outer loop
         vertex 0.17478 -0.000981691 -0.00511597
         vertex 0.174773 -0.00098169 -0.00508883
         vertex 0.17461 -0.00098169 -0.00513414
      endloop
   endfacet
   facet normal -4.33778e-06 -1 1.10184e-06
      outer loop
         vertex 0.174773 -0.00098169 -0.00508883
         vertex 0.174763 -0.00098169 -0.00506259
         vertex 0.174606 -0.00098169 -0.00512115
      endloop
   endfacet
   facet normal -4.33778e-06 -1 1.10184e-06
      outer loop
         vertex 0.174763 -0.00098169 -0.00506259
         vertex 0.17475 -0.00098169 -0.00503752
         vertex 0.174601 -0.00098169 -0.00510863
      endloop
   endfacet
   facet normal -4.33778e-06 -1 1.10184e-06
      outer loop
         vertex 0.174595 -0.00098169 -0.00509672
         vertex 0.174735 -0.00098169 -0.0050139
         vertex 0.174717 -0.00098169 -0.00499199
      endloop
   endfacet
   facet normal -4.33778e-06 -1 1.10184e-06
      outer loop
         vertex 0.174697 -0.00098169 -0.00497201
         vertex 0.174579 -0.00098169 -0.00507528
         vertex 0.174587 -0.00098169 -0.00508556
      endloop
   endfacet
   facet normal -4.33778e-06 -1 1.10184e-06
      outer loop
         vertex 0.174558 -0.000981689 -0.00505782
         vertex 0.174652 -0.00098169 -0.00493871
         vertex 0.174627 -0.00098169 -0.00492575
      endloop
   endfacet
   facet normal -4.33778e-06 -1 1.10184e-06
      outer loop
         vertex 0.174509 -0.000981689 -0.0050379
         vertex 0.174522 -0.000981689 -0.00504083
         vertex 0.174547 -0.000981689 -0.00490319
      endloop
   endfacet
   facet normal -4.33778e-06 -1 1.10184e-06
      outer loop
         vertex 0.174474 -0.000981689 -0.00503861
         vertex 0.174432 -0.000981689 -0.0049105
         vertex 0.174412 -0.000981689 -0.00491819
      endloop
   endfacet
   facet normal -4.33778e-06 -1 1.10184e-06
      outer loop
         vertex 0.174455 -0.000981689 -0.00505427
         vertex 0.174341 -0.000981688 -0.00496818
         vertex 0.174326 -0.000981688 -0.00498485
      endloop
   endfacet
   facet normal -4.33778e-06 -1 1.10184e-06
      outer loop
         vertex 0.174449 -0.000981689 -0.0050657
         vertex 0.174451 -0.000981689 -0.00506172
         vertex 0.174314 -0.000981688 -0.00500287
      endloop
   endfacet
   facet normal -4.33778e-06 -1 1.10184e-06
      outer loop
         vertex 0.174295 -0.000981688 -0.00504219
         vertex 0.174289 -0.000981688 -0.0050631
         vertex 0.174449 -0.000981689 -0.0050657
      endloop
   endfacet
   facet normal -4.33778e-06 -1 1.10184e-06
      outer loop
         vertex 0.174612 -0.00098169 -0.00517375
         vertex 0.174784 -0.000981691 -0.00519935
         vertex 0.174786 -0.000981691 -0.00517175
      endloop
   endfacet
   facet normal -4.33778e-06 -1 1.10184e-06
      outer loop
         vertex 0.174154 -0.000981688 -0.00557965
         vertex 0.17415 -0.000981688 -0.00559545
         vertex 0.174312 -0.000981689 -0.00562764
      endloop
   endfacet
   facet normal -4.33778e-06 -1 1.10184e-06
      outer loop
         vertex 0.174312 -0.000981689 -0.00563569
         vertex 0.174312 -0.000981689 -0.00563168
         vertex 0.174149 -0.000981688 -0.0056475
      endloop
   endfacet
   facet normal -4.33778e-06 -1 1.10184e-06
      outer loop
         vertex 0.174571 -0.00098169 -0.0056645
         vertex 0.174657 -0.000981691 -0.00579089
         vertex 0.174679 -0.000981691 -0.00577775
      endloop
   endfacet
   facet normal -4.33778e-06 -1 1.10184e-06
      outer loop
         vertex 0.174614 -0.00098169 -0.00556927
         vertex 0.174614 -0.00098169 -0.00558272
         vertex 0.174783 -0.000981691 -0.00558233
      endloop
   endfacet
   facet normal -4.33778e-06 -1 1.10184e-06
      outer loop
         vertex 0.174735 -0.000981691 -0.00543939
         vertex 0.174597 -0.00098169 -0.00550596
         vertex 0.174603 -0.00098169 -0.00551777
      endloop
   endfacet
   facet normal -4.33778e-06 -1 1.10184e-06
      outer loop
         vertex 0.174679 -0.00098169 -0.00538692
         vertex 0.174582 -0.00098169 -0.00548455
         vertex 0.17459 -0.00098169 -0.00549485
      endloop
   endfacet
   facet normal -4.33778e-06 -1 1.10184e-06
      outer loop
         vertex 0.174539 -0.00098169 -0.0054536
         vertex 0.174551 -0.00098169 -0.00545962
         vertex 0.174679 -0.00098169 -0.00538692
      endloop
   endfacet
   facet normal -4.33778e-06 -1 1.10184e-06
      outer loop
         vertex 0.174679 -0.00098169 -0.00538692
         vertex 0.174371 -0.000981689 -0.00544265
         vertex 0.174488 -0.00098169 -0.00544265
      endloop
   endfacet
   facet normal -4.33778e-06 -1 1.10184e-06
      outer loop
         vertex 0.17461 -0.00098169 -0.00513414
         vertex 0.174612 -0.00098169 -0.00514743
         vertex 0.17478 -0.000981691 -0.00511597
      endloop
   endfacet
   facet normal -4.33778e-06 -1 1.10184e-06
      outer loop
         vertex 0.174601 -0.00098169 -0.00510863
         vertex 0.174606 -0.00098169 -0.00512115
         vertex 0.174763 -0.00098169 -0.00506259
      endloop
   endfacet
   facet normal -4.33778e-06 -1 1.10184e-06
      outer loop
         vertex 0.174587 -0.00098169 -0.00508556
         vertex 0.174717 -0.00098169 -0.00499199
         vertex 0.174697 -0.00098169 -0.00497201
      endloop
   endfacet
   facet normal -4.33778e-06 -1 1.10184e-06
      outer loop
         vertex 0.174547 -0.000981689 -0.00505085
         vertex 0.174627 -0.00098169 -0.00492575
         vertex 0.174601 -0.00098169 -0.00491544
      endloop
   endfacet
   facet normal -4.33778e-06 -1 1.10184e-06
      outer loop
         vertex 0.174453 -0.000981689 -0.00490493
         vertex 0.174432 -0.000981689 -0.0049105
         vertex 0.174478 -0.000981689 -0.00503728
      endloop
   endfacet
   facet normal -4.33778e-06 -1 1.10184e-06
      outer loop
         vertex 0.17446 -0.000981689 -0.00504776
         vertex 0.174463 -0.000981689 -0.00504495
         vertex 0.174374 -0.000981689 -0.00493956
      endloop
   endfacet
   facet normal -4.33778e-06 -1 1.10184e-06
      outer loop
         vertex 0.174382 -0.000981689 -0.0052875
         vertex 0.174449 -0.000981689 -0.0050657
         vertex 0.174289 -0.000981688 -0.0050631
      endloop
   endfacet
   facet normal -4.33778e-06 -1 1.10184e-06
      outer loop
         vertex 0.174371 -0.000981689 -0.00544265
         vertex 0.174679 -0.00098169 -0.00538692
         vertex 0.174516 -0.00098169 -0.00528236
      endloop
   endfacet
   facet normal -4.33778e-06 -1 1.10184e-06
      outer loop
         vertex 0.174541 -0.00098169 -0.005274
         vertex 0.174529 -0.00098169 -0.00527881
         vertex 0.174679 -0.00098169 -0.00538692
      endloop
   endfacet
   facet normal -4.33778e-06 -1 1.10184e-06
      outer loop
         vertex 0.174312 -0.000981689 -0.00563168
         vertex 0.174312 -0.000981689 -0.00562764
         vertex 0.174148 -0.000981688 -0.00562764
      endloop
   endfacet
   facet normal -4.33778e-06 -1 1.10184e-06
      outer loop
         vertex 0.174699 -0.000981691 -0.00576232
         vertex 0.174718 -0.000981691 -0.00574476
         vertex 0.174589 -0.00098169 -0.00564472
      endloop
   endfacet
   facet normal -4.33778e-06 -1 1.10184e-06
      outer loop
         vertex 0.17459 -0.00098169 -0.00549485
         vertex 0.174597 -0.00098169 -0.00550596
         vertex 0.174718 -0.000981691 -0.00541992
      endloop
   endfacet
   facet normal -4.33778e-06 -1 1.10184e-06
      outer loop
         vertex 0.174488 -0.00098169 -0.00544265
         vertex 0.174501 -0.00098169 -0.00544334
         vertex 0.174679 -0.00098169 -0.00538692
      endloop
   endfacet
   facet normal -4.33778e-06 -1 1.10184e-06
      outer loop
         vertex 0.174606 -0.00098169 -0.00512115
         vertex 0.17461 -0.00098169 -0.00513414
         vertex 0.174773 -0.00098169 -0.00508883
      endloop
   endfacet
   facet normal -4.33778e-06 -1 1.10184e-06
      outer loop
         vertex 0.174579 -0.00098169 -0.00507528
         vertex 0.174697 -0.00098169 -0.00497201
         vertex 0.174676 -0.00098169 -0.00495419
      endloop
   endfacet
   facet normal -4.33778e-06 -1 1.10184e-06
      outer loop
         vertex 0.174482 -0.000981689 -0.00503636
         vertex 0.174475 -0.000981689 -0.00490154
         vertex 0.174453 -0.000981689 -0.00490493
      endloop
   endfacet
   facet normal -4.33778e-06 -1 1.10184e-06
      outer loop
         vertex 0.174314 -0.000981688 -0.00500287
         vertex 0.174304 -0.000981688 -0.00502205
         vertex 0.174449 -0.000981689 -0.0050657
      endloop
   endfacet
   facet normal -4.33778e-06 -1 1.10184e-06
      outer loop
         vertex 0.174529 -0.00098169 -0.00527881
         vertex 0.174516 -0.00098169 -0.00528236
         vertex 0.174679 -0.00098169 -0.00538692
      endloop
   endfacet
   facet normal -4.33778e-06 -1 1.10184e-06
      outer loop
         vertex 0.174679 -0.000981691 -0.00577775
         vertex 0.174699 -0.000981691 -0.00576232
         vertex 0.174581 -0.00098169 -0.00565509
      endloop
   endfacet
   facet normal -4.33778e-06 -1 1.10184e-06
      outer loop
         vertex 0.174781 -0.000981691 -0.00555678
         vertex 0.174777 -0.000981691 -0.00553154
         vertex 0.174614 -0.00098169 -0.00555604
      endloop
   endfacet
   facet normal -4.33778e-06 -1 1.10184e-06
      outer loop
         vertex 0.174572 -0.00098169 -0.00547518
         vertex 0.174582 -0.00098169 -0.00548455
         vertex 0.174679 -0.00098169 -0.00538692
      endloop
   endfacet
   facet normal -4.33778e-06 -1 1.10184e-06
      outer loop
         vertex 0.174595 -0.00098169 -0.00509672
         vertex 0.174601 -0.00098169 -0.00510863
         vertex 0.17475 -0.00098169 -0.00503752
      endloop
   endfacet
   facet normal -4.33778e-06 -1 1.10184e-06
      outer loop
         vertex 0.174474 -0.000981689 -0.00503861
         vertex 0.174478 -0.000981689 -0.00503728
         vertex 0.174432 -0.000981689 -0.0049105
      endloop
   endfacet
   facet normal -4.33778e-06 -1 1.10184e-06
      outer loop
         vertex 0.174371 -0.000981689 -0.00544265
         vertex 0.174382 -0.000981689 -0.0052875
         vertex 0.174154 -0.000981688 -0.00557965
      endloop
   endfacet
   facet normal -4.33778e-06 -1 1.10184e-06
      outer loop
         vertex 0.174612 -0.00098169 -0.00554295
         vertex 0.174614 -0.00098169 -0.00555604
         vertex 0.174777 -0.000981691 -0.00553154
      endloop
   endfacet
   facet normal -4.33778e-06 -1 1.10184e-06
      outer loop
         vertex 0.174478 -0.000981689 -0.00503728
         vertex 0.174482 -0.000981689 -0.00503636
         vertex 0.174453 -0.000981689 -0.00490493
      endloop
   endfacet
   facet normal -4.33778e-06 -1 1.10184e-06
      outer loop
         vertex 0.174614 -0.00098169 -0.00555604
         vertex 0.174614 -0.00098169 -0.00556927
         vertex 0.174781 -0.000981691 -0.00555678
      endloop
   endfacet
   facet normal -4.33778e-06 -1 1.10184e-06
      outer loop
         vertex 0.174516 -0.00098169 -0.00528236
         vertex 0.174382 -0.000981689 -0.0052875
         vertex 0.174371 -0.000981689 -0.00544265
      endloop
   endfacet
   facet normal -4.33778e-06 -1 1.10184e-06
      outer loop
         vertex 0.174612 -0.00098169 -0.00514743
         vertex 0.174613 -0.00098169 -0.00516089
         vertex 0.174784 -0.000981691 -0.00514371
      endloop
   endfacet
endsolid 1111. Units = meters