solid 1111. STL generated by ONSHAPE BY PTC INC, 1.216. Units = meters
   facet normal 0 1 0
      outer loop
         vertex -0.0319148 0.0309889 -0.00241778
         vertex -0.0319148 0.0309889 -0.000104824
         vertex -0.0299833 0.0309889 -0.0018688
      endloop
   endfacet
   facet normal 0 1 0
      outer loop
         vertex -0.0292496 0.0309889 -0.00325128
         vertex -0.0319294 0.0309889 -0.00272128
         vertex -0.0319148 0.0309889 -0.00241778
      endloop
   endfacet
   facet normal 0 1 0
      outer loop
         vertex -0.0292496 0.0309889 -0.00325128
         vertex -0.0292496 0.0309889 -0.00550013
         vertex -0.0319728 0.0309889 -0.00302203
      endloop
   endfacet
   facet normal 0 1 0
      outer loop
         vertex -0.0319728 0.0309889 -0.00302203
         vertex -0.0319294 0.0309889 -0.00272128
         vertex -0.0292496 0.0309889 -0.00325128
      endloop
   endfacet
   facet normal 0 1 0
      outer loop
         vertex -0.0299833 0.0309889 0.000591886
         vertex -0.0271121 0.0309889 -0.00522684
         vertex -0.0292496 0.0309889 -0.00325128
      endloop
   endfacet
   facet normal 0 1 0
      outer loop
         vertex -0.0292496 0.0309889 -0.00325128
         vertex -0.0299833 0.0309889 -0.0018688
         vertex -0.0299833 0.0309889 0.000591886
      endloop
   endfacet
   facet normal 0 1 0
      outer loop
         vertex -0.0299833 0.0309889 -0.0018688
         vertex -0.0292496 0.0309889 -0.00325128
         vertex -0.0319148 0.0309889 -0.00241778
      endloop
   endfacet
endsolid 1111. Units = meters