solid 1111. STL generated by ONSHAPE BY PTC INC, 1.216. Units = meters
   facet normal -4.33778e-06 -1 1.10184e-06
      outer loop
         vertex 0.172101 -0.000981679 0.00478515
         vertex 0.172148 -0.00098168 0.00473754
         vertex 0.172347 -0.00098168 0.00494208
      endloop
   endfacet
   facet normal -4.33778e-06 -1 1.10184e-06
      outer loop
         vertex 0.172198 -0.00098168 0.00469483
         vertex 0.172384 -0.000981681 0.00490814
         vertex 0.172347 -0.00098168 0.00494208
      endloop
   endfacet
   facet normal -4.33778e-06 -1 1.10184e-06
      outer loop
         vertex 0.172489 -0.000981681 0.00457808
         vertex 0.172562 -0.000981681 0.00481514
         vertex 0.172514 -0.000981681 0.00483145
      endloop
   endfacet
   facet normal -4.33778e-06 -1 1.10184e-06
      outer loop
         vertex 0.172489 -0.000981681 0.00457808
         vertex 0.172607 -0.000981682 0.00456626
         vertex 0.172612 -0.000981682 0.00480379
      endloop
   endfacet
   facet normal -4.33778e-06 -1 1.10184e-06
      outer loop
         vertex 0.172726 -0.000981682 0.00456487
         vertex 0.172712 -0.000981682 0.00479635
         vertex 0.172662 -0.000981682 0.0047975
      endloop
   endfacet
   facet normal -4.33778e-06 -1 1.10184e-06
      outer loop
         vertex 0.172025 -0.000981679 0.00489309
         vertex 0.172283 -0.00098168 0.00502047
         vertex 0.172257 -0.00098168 0.00506411
      endloop
   endfacet
   facet normal -4.33778e-06 -1 1.10184e-06
      outer loop
         vertex 0.17206 -0.000981679 0.00483718
         vertex 0.172101 -0.000981679 0.00478515
         vertex 0.172313 -0.00098168 0.00497965
      endloop
   endfacet
   facet normal -4.33778e-06 -1 1.10184e-06
      outer loop
         vertex 0.172347 -0.00098168 0.00494208
         vertex 0.172148 -0.00098168 0.00473754
         vertex 0.172198 -0.00098168 0.00469483
      endloop
   endfacet
   facet normal -4.33778e-06 -1 1.10184e-06
      outer loop
         vertex 0.172312 -0.000981681 0.00462582
         vertex 0.172373 -0.000981681 0.00460022
         vertex 0.172469 -0.000981681 0.00485254
      endloop
   endfacet
   facet normal -4.33778e-06 -1 1.10184e-06
      outer loop
         vertex 0.172612 -0.000981682 0.00480379
         vertex 0.172562 -0.000981681 0.00481514
         vertex 0.172489 -0.000981681 0.00457808
      endloop
   endfacet
   facet normal -4.33778e-06 -1 1.10184e-06
      outer loop
         vertex 0.172726 -0.000981682 0.00456487
         vertex 0.172763 -0.000981682 0.00480034
         vertex 0.172712 -0.000981682 0.00479635
      endloop
   endfacet
   facet normal -4.33778e-06 -1 1.10184e-06
      outer loop
         vertex 0.172644 -0.000981681 0.00593032
         vertex 0.17254 -0.00098168 0.0059015
         vertex 0.172656 -0.000981681 0.00566149
      endloop
   endfacet
   facet normal -4.33778e-06 -1 1.10184e-06
      outer loop
         vertex 0.17254 -0.00098168 0.0059015
         vertex 0.172439 -0.00098168 0.00586247
         vertex 0.17257 -0.000981681 0.00563412
      endloop
   endfacet
   facet normal -4.33778e-06 -1 1.10184e-06
      outer loop
         vertex 0.172439 -0.00098168 0.00586247
         vertex 0.172343 -0.000981679 0.00581359
         vertex 0.172488 -0.00098168 0.00559757
      endloop
   endfacet
   facet normal -4.33778e-06 -1 1.10184e-06
      outer loop
         vertex 0.172237 -0.00098168 0.00511013
         vertex 0.17222 -0.00098168 0.00515803
         vertex 0.171954 -0.000981678 0.00507958
      endloop
   endfacet
   facet normal -4.33778e-06 -1 1.10184e-06
      outer loop
         vertex 0.171995 -0.000981679 0.00495233
         vertex 0.172257 -0.00098168 0.00506411
         vertex 0.172237 -0.00098168 0.00511013
      endloop
   endfacet
   facet normal -4.33778e-06 -1 1.10184e-06
      outer loop
         vertex 0.172257 -0.00098168 0.00506411
         vertex 0.171995 -0.000981679 0.00495233
         vertex 0.172025 -0.000981679 0.00489309
      endloop
   endfacet
   facet normal -4.33778e-06 -1 1.10184e-06
      outer loop
         vertex 0.172347 -0.00098168 0.00494208
         vertex 0.172313 -0.00098168 0.00497965
         vertex 0.172101 -0.000981679 0.00478515
      endloop
   endfacet
   facet normal -4.33778e-06 -1 1.10184e-06
      outer loop
         vertex 0.172253 -0.00098168 0.00465746
         vertex 0.172425 -0.000981681 0.00487819
         vertex 0.172384 -0.000981681 0.00490814
      endloop
   endfacet
   facet normal -4.33778e-06 -1 1.10184e-06
      outer loop
         vertex 0.172425 -0.000981681 0.00487819
         vertex 0.172253 -0.00098168 0.00465746
         vertex 0.172312 -0.000981681 0.00462582
      endloop
   endfacet
   facet normal -4.33778e-06 -1 1.10184e-06
      outer loop
         vertex 0.172514 -0.000981681 0.00483145
         vertex 0.172373 -0.000981681 0.00460022
         vertex 0.172489 -0.000981681 0.00457808
      endloop
   endfacet
   facet normal -4.33778e-06 -1 1.10184e-06
      outer loop
         vertex 0.172662 -0.000981682 0.0047975
         vertex 0.172607 -0.000981682 0.00456626
         vertex 0.172726 -0.000981682 0.00456487
      endloop
   endfacet
   facet normal -4.33778e-06 -1 1.10184e-06
      outer loop
         vertex 0.172859 -0.000981681 0.00595624
         vertex 0.172834 -0.000981682 0.00568751
         vertex 0.172925 -0.000981682 0.00568586
      endloop
   endfacet
   facet normal -4.33778e-06 -1 1.10184e-06
      outer loop
         vertex 0.172751 -0.000981681 0.00594862
         vertex 0.172745 -0.000981681 0.00567935
         vertex 0.172834 -0.000981682 0.00568751
      endloop
   endfacet
   facet normal -4.33778e-06 -1 1.10184e-06
      outer loop
         vertex 0.172745 -0.000981681 0.00567935
         vertex 0.172751 -0.000981681 0.00594862
         vertex 0.172644 -0.000981681 0.00593032
      endloop
   endfacet
   facet normal -4.33778e-06 -1 1.10184e-06
      outer loop
         vertex 0.172488 -0.00098168 0.00559757
         vertex 0.17257 -0.000981681 0.00563412
         vertex 0.172439 -0.00098168 0.00586247
      endloop
   endfacet
   facet normal -4.33778e-06 -1 1.10184e-06
      outer loop
         vertex 0.171944 -0.000981678 0.00514619
         vertex 0.17222 -0.00098168 0.00515803
         vertex 0.172209 -0.000981679 0.00520734
      endloop
   endfacet
   facet normal -4.33778e-06 -1 1.10184e-06
      outer loop
         vertex 0.172237 -0.00098168 0.00511013
         vertex 0.171971 -0.000981679 0.00501428
         vertex 0.171995 -0.000981679 0.00495233
      endloop
   endfacet
   facet normal -4.33778e-06 -1 1.10184e-06
      outer loop
         vertex 0.172313 -0.00098168 0.00497965
         vertex 0.172283 -0.00098168 0.00502047
         vertex 0.17206 -0.000981679 0.00483718
      endloop
   endfacet
   facet normal -4.33778e-06 -1 1.10184e-06
      outer loop
         vertex 0.172469 -0.000981681 0.00485254
         vertex 0.172425 -0.000981681 0.00487819
         vertex 0.172312 -0.000981681 0.00462582
      endloop
   endfacet
   facet normal -4.33778e-06 -1 1.10184e-06
      outer loop
         vertex 0.172662 -0.000981682 0.0047975
         vertex 0.172612 -0.000981682 0.00480379
         vertex 0.172607 -0.000981682 0.00456626
      endloop
   endfacet
   facet normal -4.33778e-06 -1 1.10184e-06
      outer loop
         vertex 0.172834 -0.000981682 0.00568751
         vertex 0.172859 -0.000981681 0.00595624
         vertex 0.172751 -0.000981681 0.00594862
      endloop
   endfacet
   facet normal -4.33778e-06 -1 1.10184e-06
      outer loop
         vertex 0.17257 -0.000981681 0.00563412
         vertex 0.172656 -0.000981681 0.00566149
         vertex 0.17254 -0.00098168 0.0059015
      endloop
   endfacet
   facet normal -4.33778e-06 -1 1.10184e-06
      outer loop
         vertex 0.172343 -0.000981679 0.00581359
         vertex 0.172252 -0.000981679 0.00575537
         vertex 0.172409 -0.00098168 0.00555229
      endloop
   endfacet
   facet normal -4.33778e-06 -1 1.10184e-06
      outer loop
         vertex 0.172252 -0.000981679 0.00575537
         vertex 0.172167 -0.000981679 0.00568838
         vertex 0.172337 -0.00098168 0.00549879
      endloop
   endfacet
   facet normal -4.33778e-06 -1 1.10184e-06
      outer loop
         vertex 0.17227 -0.000981679 0.00543771
         vertex 0.171992 -0.000981678 0.00547102
         vertex 0.17197 -0.000981678 0.00540878
      endloop
   endfacet
   facet normal -4.33778e-06 -1 1.10184e-06
      outer loop
         vertex 0.17227 -0.000981679 0.00543771
         vertex 0.17209 -0.000981678 0.00561329
         vertex 0.17202 -0.000981678 0.00553083
      endloop
   endfacet
   facet normal -4.33778e-06 -1 1.10184e-06
      outer loop
         vertex 0.172167 -0.000981679 0.00568838
         vertex 0.17209 -0.000981678 0.00561329
         vertex 0.17227 -0.000981679 0.00543771
      endloop
   endfacet
   facet normal -4.33778e-06 -1 1.10184e-06
      outer loop
         vertex 0.172209 -0.000981679 0.00520734
         vertex 0.171941 -0.000981678 0.00521347
         vertex 0.171944 -0.000981678 0.00514619
      endloop
   endfacet
   facet normal -4.33778e-06 -1 1.10184e-06
      outer loop
         vertex 0.172025 -0.000981679 0.00489309
         vertex 0.17206 -0.000981679 0.00483718
         vertex 0.172283 -0.00098168 0.00502047
      endloop
   endfacet
   facet normal -4.33778e-06 -1 1.10184e-06
      outer loop
         vertex 0.172514 -0.000981681 0.00483145
         vertex 0.172469 -0.000981681 0.00485254
         vertex 0.172373 -0.000981681 0.00460022
      endloop
   endfacet
   facet normal -4.33778e-06 -1 1.10184e-06
      outer loop
         vertex 0.172656 -0.000981681 0.00566149
         vertex 0.172745 -0.000981681 0.00567935
         vertex 0.172644 -0.000981681 0.00593032
      endloop
   endfacet
   facet normal -4.33778e-06 -1 1.10184e-06
      outer loop
         vertex 0.172337 -0.00098168 0.00549879
         vertex 0.172409 -0.00098168 0.00555229
         vertex 0.172252 -0.000981679 0.00575537
      endloop
   endfacet
   facet normal -4.33778e-06 -1 1.10184e-06
      outer loop
         vertex 0.17197 -0.000981678 0.00540878
         vertex 0.171954 -0.000981678 0.00534471
         vertex 0.17227 -0.000981679 0.00543771
      endloop
   endfacet
   facet normal -4.33778e-06 -1 1.10184e-06
      outer loop
         vertex 0.17227 -0.000981679 0.00543771
         vertex 0.172337 -0.00098168 0.00549879
         vertex 0.172167 -0.000981679 0.00568838
      endloop
   endfacet
   facet normal -4.33778e-06 -1 1.10184e-06
      outer loop
         vertex 0.172827 -0.000981682 0.00520734
         vertex 0.172863 -0.000981682 0.00543772
         vertex 0.17227 -0.000981679 0.00543771
      endloop
   endfacet
   facet normal -4.33778e-06 -1 1.10184e-06
      outer loop
         vertex 0.172209 -0.000981679 0.00520734
         vertex 0.171944 -0.000981678 0.0052794
         vertex 0.171941 -0.000981678 0.00521347
      endloop
   endfacet
   facet normal -4.33778e-06 -1 1.10184e-06
      outer loop
         vertex 0.172384 -0.000981681 0.00490814
         vertex 0.172198 -0.00098168 0.00469483
         vertex 0.172253 -0.00098168 0.00465746
      endloop
   endfacet
   facet normal -4.33778e-06 -1 1.10184e-06
      outer loop
         vertex 0.172409 -0.00098168 0.00555229
         vertex 0.172488 -0.00098168 0.00559757
         vertex 0.172343 -0.000981679 0.00581359
      endloop
   endfacet
   facet normal -4.33778e-06 -1 1.10184e-06
      outer loop
         vertex 0.17202 -0.000981678 0.00553083
         vertex 0.171992 -0.000981678 0.00547102
         vertex 0.17227 -0.000981679 0.00543771
      endloop
   endfacet
   facet normal -4.33778e-06 -1 1.10184e-06
      outer loop
         vertex 0.17227 -0.000981679 0.00543771
         vertex 0.171944 -0.000981678 0.0052794
         vertex 0.172209 -0.000981679 0.00520734
      endloop
   endfacet
   facet normal -4.33778e-06 -1 1.10184e-06
      outer loop
         vertex 0.171954 -0.000981678 0.00507958
         vertex 0.171971 -0.000981679 0.00501428
         vertex 0.172237 -0.00098168 0.00511013
      endloop
   endfacet
   facet normal -4.33778e-06 -1 1.10184e-06
      outer loop
         vertex 0.171954 -0.000981678 0.00534471
         vertex 0.171944 -0.000981678 0.0052794
         vertex 0.17227 -0.000981679 0.00543771
      endloop
   endfacet
   facet normal -4.33778e-06 -1 1.10184e-06
      outer loop
         vertex 0.171944 -0.000981678 0.00514619
         vertex 0.171954 -0.000981678 0.00507958
         vertex 0.17222 -0.00098168 0.00515803
      endloop
   endfacet
   facet normal -4.33778e-06 -1 1.10184e-06
      outer loop
         vertex 0.17227 -0.000981679 0.00543771
         vertex 0.172209 -0.000981679 0.00520734
         vertex 0.172827 -0.000981682 0.00520734
      endloop
   endfacet
   facet normal -4.33778e-06 -1 1.10184e-06
      outer loop
         vertex 0.172925 -0.000981682 0.00568586
         vertex 0.172967 -0.000981682 0.0059531
         vertex 0.172859 -0.000981681 0.00595624
      endloop
   endfacet
endsolid 1111. Units = meters