solid 1111. STL generated by ONSHAPE BY PTC INC, 1.216. Units = meters
   facet normal -4.33778e-06 -1 1.10184e-06
      outer loop
         vertex 0.17351 -0.000981686 -0.00581118
         vertex 0.173494 -0.000981686 -0.00580789
         vertex 0.173498 -0.000981686 -0.00580931
      endloop
   endfacet
   facet normal -4.33778e-06 -1 1.10184e-06
      outer loop
         vertex 0.17351 -0.000981686 -0.00581118
         vertex 0.173484 -0.000981686 -0.00580141
         vertex 0.173487 -0.000981686 -0.00580391
      endloop
   endfacet
   facet normal -4.33778e-06 -1 1.10184e-06
      outer loop
         vertex 0.173498 -0.000981686 -0.00580931
         vertex 0.173502 -0.000981686 -0.00581034
         vertex 0.17351 -0.000981686 -0.00581118
      endloop
   endfacet
   facet normal -4.33778e-06 -1 1.10184e-06
      outer loop
         vertex 0.17351 -0.000981686 -0.00581118
         vertex 0.173481 -0.000981686 -0.0057986
         vertex 0.173484 -0.000981686 -0.00580141
      endloop
   endfacet
   facet normal -4.33778e-06 -1 1.10184e-06
      outer loop
         vertex 0.17366 -0.000981686 -0.00578075
         vertex 0.173655 -0.000981686 -0.00579195
         vertex 0.173657 -0.000981686 -0.00578837
      endloop
   endfacet
   facet normal -4.33778e-06 -1 1.10184e-06
      outer loop
         vertex 0.17366 -0.000981686 -0.00578075
         vertex 0.173651 -0.000981686 -0.00579845
         vertex 0.173653 -0.000981686 -0.00579532
      endloop
   endfacet
   facet normal -4.33778e-06 -1 1.10184e-06
      outer loop
         vertex 0.17366 -0.000981686 -0.00578075
         vertex 0.17363 -0.000981686 -0.00581033
         vertex 0.173634 -0.000981686 -0.00580929
      endloop
   endfacet
   facet normal -4.33778e-06 -1 1.10184e-06
      outer loop
         vertex 0.17366 -0.000981686 -0.00578075
         vertex 0.173622 -0.000981686 -0.00581118
         vertex 0.173626 -0.000981686 -0.00581096
      endloop
   endfacet
   facet normal -4.33778e-06 -1 1.10184e-06
      outer loop
         vertex 0.17351 -0.000981686 -0.00581118
         vertex 0.173491 -0.000981686 -0.00580608
         vertex 0.173494 -0.000981686 -0.00580789
      endloop
   endfacet
   facet normal -4.33778e-06 -1 1.10184e-06
      outer loop
         vertex 0.17351 -0.000981686 -0.00581118
         vertex 0.173479 -0.000981686 -0.00579551
         vertex 0.173481 -0.000981686 -0.0057986
      endloop
   endfacet
   facet normal -4.33778e-06 -1 1.10184e-06
      outer loop
         vertex 0.17351 -0.000981686 -0.00581118
         vertex 0.173475 -0.000981686 -0.00578863
         vertex 0.173477 -0.000981686 -0.00579217
      endloop
   endfacet
   facet normal -4.33778e-06 -1 1.10184e-06
      outer loop
         vertex 0.17398 -0.000981687 -0.00491594
         vertex 0.173951 -0.000981687 -0.00491204
         vertex 0.173914 -0.000981687 -0.00512184
      endloop
   endfacet
   facet normal -4.33778e-06 -1 1.10184e-06
      outer loop
         vertex 0.173914 -0.000981687 -0.00512184
         vertex 0.173951 -0.000981687 -0.00491204
         vertex 0.173922 -0.000981687 -0.00491121
      endloop
   endfacet
   facet normal -4.33778e-06 -1 1.10184e-06
      outer loop
         vertex 0.173903 -0.000981687 -0.00578703
         vertex 0.17392 -0.000981688 -0.00580272
         vertex 0.173924 -0.000981688 -0.00580415
      endloop
   endfacet
   facet normal -4.33778e-06 -1 1.10184e-06
      outer loop
         vertex 0.173653 -0.000981686 -0.00579532
         vertex 0.173655 -0.000981686 -0.00579195
         vertex 0.17366 -0.000981686 -0.00578075
      endloop
   endfacet
   facet normal -4.33778e-06 -1 1.10184e-06
      outer loop
         vertex 0.17366 -0.000981686 -0.00578075
         vertex 0.173645 -0.000981686 -0.00580382
         vertex 0.173648 -0.000981686 -0.00580129
      endloop
   endfacet
   facet normal -4.33778e-06 -1 1.10184e-06
      outer loop
         vertex 0.17366 -0.000981686 -0.00578075
         vertex 0.173638 -0.000981686 -0.00580784
         vertex 0.173642 -0.000981686 -0.00580601
      endloop
   endfacet
   facet normal -4.33778e-06 -1 1.10184e-06
      outer loop
         vertex 0.173626 -0.000981686 -0.00581096
         vertex 0.17363 -0.000981686 -0.00581033
         vertex 0.17366 -0.000981686 -0.00578075
      endloop
   endfacet
   facet normal -4.33778e-06 -1 1.10184e-06
      outer loop
         vertex 0.173487 -0.000981686 -0.00580391
         vertex 0.173491 -0.000981686 -0.00580608
         vertex 0.17351 -0.000981686 -0.00581118
      endloop
   endfacet
   facet normal -4.33778e-06 -1 1.10184e-06
      outer loop
         vertex 0.17351 -0.000981686 -0.00581118
         vertex 0.173474 -0.000981686 -0.00578492
         vertex 0.173475 -0.000981686 -0.00578863
      endloop
   endfacet
   facet normal -4.33778e-06 -1 1.10184e-06
      outer loop
         vertex 0.173922 -0.000981687 -0.00491121
         vertex 0.173906 -0.000981687 -0.00512083
         vertex 0.173914 -0.000981687 -0.00512184
      endloop
   endfacet
   facet normal -4.33778e-06 -1 1.10184e-06
      outer loop
         vertex 0.173906 -0.000981687 -0.00512083
         vertex 0.173922 -0.000981687 -0.00491121
         vertex 0.173894 -0.000981686 -0.00491346
      endloop
   endfacet
   facet normal -4.33778e-06 -1 1.10184e-06
      outer loop
         vertex 0.173898 -0.000981687 -0.00512067
         vertex 0.173894 -0.000981686 -0.00491346
         vertex 0.173866 -0.000981686 -0.00491877
      endloop
   endfacet
   facet normal -4.33778e-06 -1 1.10184e-06
      outer loop
         vertex 0.17389 -0.000981687 -0.00512135
         vertex 0.173866 -0.000981686 -0.00491877
         vertex 0.173838 -0.000981686 -0.00492706
      endloop
   endfacet
   facet normal -4.33778e-06 -1 1.10184e-06
      outer loop
         vertex 0.173903 -0.000981687 -0.00578703
         vertex 0.173917 -0.000981688 -0.00580091
         vertex 0.17392 -0.000981688 -0.00580272
      endloop
   endfacet
   facet normal -4.33778e-06 -1 1.10184e-06
      outer loop
         vertex 0.173917 -0.000981688 -0.00580091
         vertex 0.173907 -0.000981687 -0.00579344
         vertex 0.17391 -0.000981687 -0.00579624
      endloop
   endfacet
   facet normal -4.33778e-06 -1 1.10184e-06
      outer loop
         vertex 0.173917 -0.000981688 -0.00580091
         vertex 0.173903 -0.000981687 -0.00578703
         vertex 0.173905 -0.000981687 -0.00579035
      endloop
   endfacet
   facet normal -4.33778e-06 -1 1.10184e-06
      outer loop
         vertex 0.173648 -0.000981686 -0.00580129
         vertex 0.173651 -0.000981686 -0.00579845
         vertex 0.17366 -0.000981686 -0.00578075
      endloop
   endfacet
   facet normal -4.33778e-06 -1 1.10184e-06
      outer loop
         vertex 0.173634 -0.000981686 -0.00580929
         vertex 0.173638 -0.000981686 -0.00580784
         vertex 0.17366 -0.000981686 -0.00578075
      endloop
   endfacet
   facet normal -4.33778e-06 -1 1.10184e-06
      outer loop
         vertex 0.173477 -0.000981686 -0.00579217
         vertex 0.173479 -0.000981686 -0.00579551
         vertex 0.17351 -0.000981686 -0.00581118
      endloop
   endfacet
   facet normal -4.33778e-06 -1 1.10184e-06
      outer loop
         vertex 0.17351 -0.000981686 -0.00581118
         vertex 0.173472 -0.000981686 -0.00577715
         vertex 0.173473 -0.000981686 -0.00578108
      endloop
   endfacet
   facet normal -4.33778e-06 -1 1.10184e-06
      outer loop
         vertex 0.173943 -0.000981687 -0.00513396
         vertex 0.173949 -0.000981687 -0.00513885
         vertex 0.17409 -0.000981687 -0.00498382
      endloop
   endfacet
   facet normal -4.33778e-06 -1 1.10184e-06
      outer loop
         vertex 0.17406 -0.000981687 -0.00494541
         vertex 0.174034 -0.000981687 -0.00493272
         vertex 0.173936 -0.000981687 -0.00512978
      endloop
   endfacet
   facet normal -4.33778e-06 -1 1.10184e-06
      outer loop
         vertex 0.174034 -0.000981687 -0.00493272
         vertex 0.174007 -0.000981687 -0.00492286
         vertex 0.173929 -0.000981687 -0.00512634
      endloop
   endfacet
   facet normal -4.33778e-06 -1 1.10184e-06
      outer loop
         vertex 0.174007 -0.000981687 -0.00492286
         vertex 0.17398 -0.000981687 -0.00491594
         vertex 0.173921 -0.000981687 -0.00512368
      endloop
   endfacet
   facet normal -4.33778e-06 -1 1.10184e-06
      outer loop
         vertex 0.173894 -0.000981686 -0.00491346
         vertex 0.173898 -0.000981687 -0.00512067
         vertex 0.173906 -0.000981687 -0.00512083
      endloop
   endfacet
   facet normal -4.33778e-06 -1 1.10184e-06
      outer loop
         vertex 0.173838 -0.000981686 -0.00492706
         vertex 0.173882 -0.000981687 -0.00512287
         vertex 0.17389 -0.000981687 -0.00512135
      endloop
   endfacet
   facet normal -4.33778e-06 -1 1.10184e-06
      outer loop
         vertex 0.173882 -0.000981687 -0.00512287
         vertex 0.173838 -0.000981686 -0.00492706
         vertex 0.173812 -0.000981686 -0.00493825
      endloop
   endfacet
   facet normal -4.33778e-06 -1 1.10184e-06
      outer loop
         vertex 0.173874 -0.000981687 -0.00512522
         vertex 0.173812 -0.000981686 -0.00493825
         vertex 0.173787 -0.000981686 -0.0049522
      endloop
   endfacet
   facet normal -4.33778e-06 -1 1.10184e-06
      outer loop
         vertex 0.174051 -0.000981688 -0.00580634
         vertex 0.174084 -0.000981688 -0.00578454
         vertex 0.174085 -0.000981688 -0.00578116
      endloop
   endfacet
   facet normal -4.33778e-06 -1 1.10184e-06
      outer loop
         vertex 0.174051 -0.000981688 -0.00580634
         vertex 0.174076 -0.000981688 -0.00579642
         vertex 0.174078 -0.000981688 -0.00579377
      endloop
   endfacet
   facet normal -4.33778e-06 -1 1.10184e-06
      outer loop
         vertex 0.174076 -0.000981688 -0.00579642
         vertex 0.174064 -0.000981688 -0.00580414
         vertex 0.174068 -0.000981688 -0.00580269
      endloop
   endfacet
   facet normal -4.33778e-06 -1 1.10184e-06
      outer loop
         vertex 0.174076 -0.000981688 -0.00579642
         vertex 0.174058 -0.000981688 -0.00580598
         vertex 0.174061 -0.000981688 -0.00580524
      endloop
   endfacet
   facet normal -4.33778e-06 -1 1.10184e-06
      outer loop
         vertex 0.174076 -0.000981688 -0.00579642
         vertex 0.174051 -0.000981688 -0.00580634
         vertex 0.174054 -0.000981688 -0.00580635
      endloop
   endfacet
   facet normal -4.33778e-06 -1 1.10184e-06
      outer loop
         vertex 0.173924 -0.000981688 -0.00580415
         vertex 0.173928 -0.000981688 -0.00580519
         vertex 0.173903 -0.000981687 -0.00578703
      endloop
   endfacet
   facet normal -4.33778e-06 -1 1.10184e-06
      outer loop
         vertex 0.173905 -0.000981687 -0.00579035
         vertex 0.173907 -0.000981687 -0.00579344
         vertex 0.173917 -0.000981688 -0.00580091
      endloop
   endfacet
   facet normal -4.33778e-06 -1 1.10184e-06
      outer loop
         vertex 0.173932 -0.000981688 -0.00580583
         vertex 0.1739 -0.000981687 -0.00577979
         vertex 0.173901 -0.000981687 -0.00578349
      endloop
   endfacet
   facet normal -4.33778e-06 -1 1.10184e-06
      outer loop
         vertex 0.173932 -0.000981688 -0.00580583
         vertex 0.173898 -0.000981687 -0.00577205
         vertex 0.173899 -0.000981687 -0.00577596
      endloop
   endfacet
   facet normal -4.33778e-06 -1 1.10184e-06
      outer loop
         vertex 0.173642 -0.000981686 -0.00580601
         vertex 0.173645 -0.000981686 -0.00580382
         vertex 0.17366 -0.000981686 -0.00578075
      endloop
   endfacet
   facet normal -4.33778e-06 -1 1.10184e-06
      outer loop
         vertex 0.173472 -0.000981686 -0.00576791
         vertex 0.17351 -0.000981686 -0.00581118
         vertex 0.173622 -0.000981686 -0.00581118
      endloop
   endfacet
   facet normal -4.33778e-06 -1 1.10184e-06
      outer loop
         vertex 0.173473 -0.000981686 -0.00578108
         vertex 0.173474 -0.000981686 -0.00578492
         vertex 0.17351 -0.000981686 -0.00581118
      endloop
   endfacet
   facet normal -4.33778e-06 -1 1.10184e-06
      outer loop
         vertex 0.17351 -0.000981686 -0.00581118
         vertex 0.173472 -0.000981686 -0.00576791
         vertex 0.173472 -0.000981686 -0.00577318
      endloop
   endfacet
   facet normal -4.33778e-06 -1 1.10184e-06
      outer loop
         vertex 0.174175 -0.000981688 -0.00521011
         vertex 0.174167 -0.000981688 -0.00516184
         vertex 0.173983 -0.000981687 -0.00521714
      endloop
   endfacet
   facet normal -4.33778e-06 -1 1.10184e-06
      outer loop
         vertex 0.173936 -0.000981687 -0.00512978
         vertex 0.173943 -0.000981687 -0.00513396
         vertex 0.17406 -0.000981687 -0.00494541
      endloop
   endfacet
   facet normal -4.33778e-06 -1 1.10184e-06
      outer loop
         vertex 0.173921 -0.000981687 -0.00512368
         vertex 0.173929 -0.000981687 -0.00512634
         vertex 0.174007 -0.000981687 -0.00492286
      endloop
   endfacet
   facet normal -4.33778e-06 -1 1.10184e-06
      outer loop
         vertex 0.173866 -0.000981686 -0.00491877
         vertex 0.17389 -0.000981687 -0.00512135
         vertex 0.173898 -0.000981687 -0.00512067
      endloop
   endfacet
   facet normal -4.33778e-06 -1 1.10184e-06
      outer loop
         vertex 0.173787 -0.000981686 -0.0049522
         vertex 0.173867 -0.000981687 -0.00512836
         vertex 0.173874 -0.000981687 -0.00512522
      endloop
   endfacet
   facet normal -4.33778e-06 -1 1.10184e-06
      outer loop
         vertex 0.173764 -0.000981686 -0.00496876
         vertex 0.17386 -0.000981687 -0.00513227
         vertex 0.173867 -0.000981687 -0.00512836
      endloop
   endfacet
   facet normal -4.33778e-06 -1 1.10184e-06
      outer loop
         vertex 0.173764 -0.000981686 -0.00496876
         vertex 0.173721 -0.000981686 -0.00500848
         vertex 0.173853 -0.000981687 -0.00513689
      endloop
   endfacet
   facet normal -4.33778e-06 -1 1.10184e-06
      outer loop
         vertex 0.173593 -0.000981685 -0.00520213
         vertex 0.173756 -0.000981686 -0.00529341
         vertex 0.173776 -0.000981686 -0.00525142
      endloop
   endfacet
   facet normal -4.33778e-06 -1 1.10184e-06
      outer loop
         vertex 0.174051 -0.000981688 -0.00580634
         vertex 0.174082 -0.000981688 -0.0057878
         vertex 0.174084 -0.000981688 -0.00578454
      endloop
   endfacet
   facet normal -4.33778e-06 -1 1.10184e-06
      outer loop
         vertex 0.174078 -0.000981688 -0.00579377
         vertex 0.174081 -0.000981688 -0.00579088
         vertex 0.174051 -0.000981688 -0.00580634
      endloop
   endfacet
   facet normal -4.33778e-06 -1 1.10184e-06
      outer loop
         vertex 0.174068 -0.000981688 -0.00580269
         vertex 0.174071 -0.000981688 -0.00580091
         vertex 0.174076 -0.000981688 -0.00579642
      endloop
   endfacet
   facet normal -4.33778e-06 -1 1.10184e-06
      outer loop
         vertex 0.174054 -0.000981688 -0.00580635
         vertex 0.174058 -0.000981688 -0.00580598
         vertex 0.174076 -0.000981688 -0.00579642
      endloop
   endfacet
   facet normal -4.33778e-06 -1 1.10184e-06
      outer loop
         vertex 0.17391 -0.000981687 -0.00579624
         vertex 0.173913 -0.000981688 -0.00579874
         vertex 0.173917 -0.000981688 -0.00580091
      endloop
   endfacet
   facet normal -4.33778e-06 -1 1.10184e-06
      outer loop
         vertex 0.173899 -0.000981687 -0.00577596
         vertex 0.1739 -0.000981687 -0.00577979
         vertex 0.173932 -0.000981688 -0.00580583
      endloop
   endfacet
   facet normal -4.33778e-06 -1 1.10184e-06
      outer loop
         vertex 0.173932 -0.000981688 -0.00580583
         vertex 0.17396 -0.000981687 -0.00544546
         vertex 0.173898 -0.000981687 -0.0057628
      endloop
   endfacet
   facet normal -4.33778e-06 -1 1.10184e-06
      outer loop
         vertex 0.173622 -0.000981686 -0.00581118
         vertex 0.17366 -0.000981686 -0.00578075
         vertex 0.173472 -0.000981686 -0.00576791
      endloop
   endfacet
   facet normal -4.33778e-06 -1 1.10184e-06
      outer loop
         vertex 0.173472 -0.000981686 -0.00577318
         vertex 0.173472 -0.000981686 -0.00577715
         vertex 0.17351 -0.000981686 -0.00581118
      endloop
   endfacet
   facet normal -4.33778e-06 -1 1.10184e-06
      outer loop
         vertex 0.174167 -0.000981688 -0.00516184
         vertex 0.173978 -0.000981687 -0.00519422
         vertex 0.173983 -0.000981687 -0.00521714
      endloop
   endfacet
   facet normal -4.33778e-06 -1 1.10184e-06
      outer loop
         vertex 0.174155 -0.000981688 -0.00511459
         vertex 0.17397 -0.000981687 -0.00517193
         vertex 0.173978 -0.000981687 -0.00519422
      endloop
   endfacet
   facet normal -4.33778e-06 -1 1.10184e-06
      outer loop
         vertex 0.173929 -0.000981687 -0.00512634
         vertex 0.173936 -0.000981687 -0.00512978
         vertex 0.174034 -0.000981687 -0.00493272
      endloop
   endfacet
   facet normal -4.33778e-06 -1 1.10184e-06
      outer loop
         vertex 0.173812 -0.000981686 -0.00493825
         vertex 0.173874 -0.000981687 -0.00512522
         vertex 0.173882 -0.000981687 -0.00512287
      endloop
   endfacet
   facet normal -4.33778e-06 -1 1.10184e-06
      outer loop
         vertex 0.173853 -0.000981687 -0.00513689
         vertex 0.17386 -0.000981687 -0.00513227
         vertex 0.173764 -0.000981686 -0.00496876
      endloop
   endfacet
   facet normal -4.33778e-06 -1 1.10184e-06
      outer loop
         vertex 0.173776 -0.000981686 -0.00525142
         vertex 0.173618 -0.000981686 -0.00514935
         vertex 0.173593 -0.000981685 -0.00520213
      endloop
   endfacet
   facet normal -4.33778e-06 -1 1.10184e-06
      outer loop
         vertex 0.174081 -0.000981688 -0.00579088
         vertex 0.174082 -0.000981688 -0.0057878
         vertex 0.174051 -0.000981688 -0.00580634
      endloop
   endfacet
   facet normal -4.33778e-06 -1 1.10184e-06
      outer loop
         vertex 0.174061 -0.000981688 -0.00580524
         vertex 0.174064 -0.000981688 -0.00580414
         vertex 0.174076 -0.000981688 -0.00579642
      endloop
   endfacet
   facet normal -4.33778e-06 -1 1.10184e-06
      outer loop
         vertex 0.173901 -0.000981687 -0.00578349
         vertex 0.173903 -0.000981687 -0.00578703
         vertex 0.173932 -0.000981688 -0.00580583
      endloop
   endfacet
   facet normal -4.33778e-06 -1 1.10184e-06
      outer loop
         vertex 0.173898 -0.000981687 -0.0057628
         vertex 0.173898 -0.000981687 -0.00576809
         vertex 0.173932 -0.000981688 -0.00580583
      endloop
   endfacet
   facet normal -4.33778e-06 -1 1.10184e-06
      outer loop
         vertex 0.173502 -0.000981686 -0.00581034
         vertex 0.173506 -0.000981686 -0.00581097
         vertex 0.17351 -0.000981686 -0.00581118
      endloop
   endfacet
   facet normal -4.33778e-06 -1 1.10184e-06
      outer loop
         vertex 0.174177 -0.000981688 -0.00525889
         vertex 0.174175 -0.000981688 -0.00521011
         vertex 0.173987 -0.000981687 -0.0052405
      endloop
   endfacet
   facet normal -4.33778e-06 -1 1.10184e-06
      outer loop
         vertex 0.173978 -0.000981687 -0.00519422
         vertex 0.174167 -0.000981688 -0.00516184
         vertex 0.174155 -0.000981688 -0.00511459
      endloop
   endfacet
   facet normal -4.33778e-06 -1 1.10184e-06
      outer loop
         vertex 0.174138 -0.000981688 -0.00506885
         vertex 0.17396 -0.000981687 -0.00515048
         vertex 0.17397 -0.000981687 -0.00517193
      endloop
   endfacet
   facet normal -4.33778e-06 -1 1.10184e-06
      outer loop
         vertex 0.17409 -0.000981687 -0.00498382
         vertex 0.17406 -0.000981687 -0.00494541
         vertex 0.173943 -0.000981687 -0.00513396
      endloop
   endfacet
   facet normal -4.33778e-06 -1 1.10184e-06
      outer loop
         vertex 0.173867 -0.000981687 -0.00512836
         vertex 0.173787 -0.000981686 -0.0049522
         vertex 0.173764 -0.000981686 -0.00496876
      endloop
   endfacet
   facet normal -4.33778e-06 -1 1.10184e-06
      outer loop
         vertex 0.173648 -0.000981686 -0.00509919
         vertex 0.173798 -0.000981686 -0.00521116
         vertex 0.173824 -0.000981686 -0.0051729
      endloop
   endfacet
   facet normal -4.33778e-06 -1 1.10184e-06
      outer loop
         vertex 0.173618 -0.000981686 -0.00514935
         vertex 0.173776 -0.000981686 -0.00525142
         vertex 0.173798 -0.000981686 -0.00521116
      endloop
   endfacet
   facet normal -4.33778e-06 -1 1.10184e-06
      outer loop
         vertex 0.173593 -0.000981685 -0.00520213
         vertex 0.173573 -0.000981685 -0.00525703
         vertex 0.173756 -0.000981686 -0.00529341
      endloop
   endfacet
   facet normal -4.33778e-06 -1 1.10184e-06
      outer loop
         vertex 0.174071 -0.000981688 -0.00580091
         vertex 0.174074 -0.000981688 -0.00579881
         vertex 0.174076 -0.000981688 -0.00579642
      endloop
   endfacet
   facet normal -4.33778e-06 -1 1.10184e-06
      outer loop
         vertex 0.173898 -0.000981687 -0.00576809
         vertex 0.173898 -0.000981687 -0.00577205
         vertex 0.173932 -0.000981688 -0.00580583
      endloop
   endfacet
   facet normal -4.33778e-06 -1 1.10184e-06
      outer loop
         vertex 0.173657 -0.000981686 -0.00578837
         vertex 0.173659 -0.000981686 -0.00578463
         vertex 0.17366 -0.000981686 -0.00578075
      endloop
   endfacet
   facet normal -4.33778e-06 -1 1.10184e-06
      outer loop
         vertex 0.173983 -0.000981687 -0.00521714
         vertex 0.173987 -0.000981687 -0.0052405
         vertex 0.174175 -0.000981688 -0.00521011
      endloop
   endfacet
   facet normal -4.33778e-06 -1 1.10184e-06
      outer loop
         vertex 0.17397 -0.000981687 -0.00517193
         vertex 0.174155 -0.000981688 -0.00511459
         vertex 0.174138 -0.000981688 -0.00506885
      endloop
   endfacet
   facet normal -4.33778e-06 -1 1.10184e-06
      outer loop
         vertex 0.174116 -0.000981688 -0.00502511
         vertex 0.17409 -0.000981687 -0.00498382
         vertex 0.173955 -0.000981687 -0.00514437
      endloop
   endfacet
   facet normal -4.33778e-06 -1 1.10184e-06
      outer loop
         vertex 0.173914 -0.000981687 -0.00512184
         vertex 0.173921 -0.000981687 -0.00512368
         vertex 0.17398 -0.000981687 -0.00491594
      endloop
   endfacet
   facet normal -4.33778e-06 -1 1.10184e-06
      outer loop
         vertex 0.173798 -0.000981686 -0.00521116
         vertex 0.173648 -0.000981686 -0.00509919
         vertex 0.173618 -0.000981686 -0.00514935
      endloop
   endfacet
   facet normal -4.33778e-06 -1 1.10184e-06
      outer loop
         vertex 0.173573 -0.000981685 -0.00525703
         vertex 0.173559 -0.000981685 -0.00531356
         vertex 0.173756 -0.000981686 -0.00529341
      endloop
   endfacet
   facet normal -4.33778e-06 -1 1.10184e-06
      outer loop
         vertex 0.174047 -0.000981688 -0.00580596
         vertex 0.174085 -0.000981688 -0.00577769
         vertex 0.174174 -0.000981688 -0.00531285
      endloop
   endfacet
   facet normal -4.33778e-06 -1 1.10184e-06
      outer loop
         vertex 0.174085 -0.000981688 -0.00577769
         vertex 0.174047 -0.000981688 -0.00580596
         vertex 0.174051 -0.000981688 -0.00580634
      endloop
   endfacet
   facet normal -4.33778e-06 -1 1.10184e-06
      outer loop
         vertex 0.174047 -0.000981688 -0.00580596
         vertex 0.174177 -0.000981688 -0.00525889
         vertex 0.17396 -0.000981687 -0.00544546
      endloop
   endfacet
   facet normal -4.33778e-06 -1 1.10184e-06
      outer loop
         vertex 0.173928 -0.000981688 -0.00580519
         vertex 0.173932 -0.000981688 -0.00580583
         vertex 0.173903 -0.000981687 -0.00578703
      endloop
   endfacet
   facet normal -4.33778e-06 -1 1.10184e-06
      outer loop
         vertex 0.17396 -0.000981687 -0.00544546
         vertex 0.173986 -0.000981687 -0.00529341
         vertex 0.173756 -0.000981686 -0.00529341
      endloop
   endfacet
   facet normal -4.33778e-06 -1 1.10184e-06
      outer loop
         vertex 0.17366 -0.000981686 -0.00578075
         vertex 0.173729 -0.000981686 -0.00544547
         vertex 0.173472 -0.000981686 -0.00576791
      endloop
   endfacet
   facet normal -4.33778e-06 -1 1.10184e-06
      outer loop
         vertex 0.174138 -0.000981688 -0.00506885
         vertex 0.174116 -0.000981688 -0.00502511
         vertex 0.17396 -0.000981687 -0.00515048
      endloop
   endfacet
   facet normal -4.33778e-06 -1 1.10184e-06
      outer loop
         vertex 0.173949 -0.000981687 -0.00513885
         vertex 0.173955 -0.000981687 -0.00514437
         vertex 0.17409 -0.000981687 -0.00498382
      endloop
   endfacet
   facet normal -4.33778e-06 -1 1.10184e-06
      outer loop
         vertex 0.173682 -0.000981686 -0.00505208
         vertex 0.173824 -0.000981686 -0.0051729
         vertex 0.173853 -0.000981687 -0.00513689
      endloop
   endfacet
   facet normal -4.33778e-06 -1 1.10184e-06
      outer loop
         vertex 0.173559 -0.000981685 -0.00531356
         vertex 0.173472 -0.000981686 -0.00576791
         vertex 0.173756 -0.000981686 -0.00529341
      endloop
   endfacet
   facet normal -4.33778e-06 -1 1.10184e-06
      outer loop
         vertex 0.174085 -0.000981688 -0.00578116
         vertex 0.174085 -0.000981688 -0.00577769
         vertex 0.174051 -0.000981688 -0.00580634
      endloop
   endfacet
   facet normal -4.33778e-06 -1 1.10184e-06
      outer loop
         vertex 0.173932 -0.000981688 -0.00580583
         vertex 0.173936 -0.000981688 -0.00580605
         vertex 0.17396 -0.000981687 -0.00544546
      endloop
   endfacet
   facet normal -4.33778e-06 -1 1.10184e-06
      outer loop
         vertex 0.173729 -0.000981686 -0.00544547
         vertex 0.173756 -0.000981686 -0.00529341
         vertex 0.173472 -0.000981686 -0.00576791
      endloop
   endfacet
   facet normal -4.33778e-06 -1 1.10184e-06
      outer loop
         vertex 0.174177 -0.000981688 -0.00525889
         vertex 0.173988 -0.000981687 -0.00526407
         vertex 0.173986 -0.000981687 -0.00529341
      endloop
   endfacet
   facet normal -4.33778e-06 -1 1.10184e-06
      outer loop
         vertex 0.173955 -0.000981687 -0.00514437
         vertex 0.17396 -0.000981687 -0.00515048
         vertex 0.174116 -0.000981688 -0.00502511
      endloop
   endfacet
   facet normal -4.33778e-06 -1 1.10184e-06
      outer loop
         vertex 0.173824 -0.000981686 -0.0051729
         vertex 0.173682 -0.000981686 -0.00505208
         vertex 0.173648 -0.000981686 -0.00509919
      endloop
   endfacet
   facet normal -4.33778e-06 -1 1.10184e-06
      outer loop
         vertex 0.17396 -0.000981687 -0.00544546
         vertex 0.173936 -0.000981688 -0.00580605
         vertex 0.174047 -0.000981688 -0.00580596
      endloop
   endfacet
   facet normal -4.33778e-06 -1 1.10184e-06
      outer loop
         vertex 0.173986 -0.000981687 -0.00529341
         vertex 0.17396 -0.000981687 -0.00544546
         vertex 0.174177 -0.000981688 -0.00525889
      endloop
   endfacet
   facet normal -4.33778e-06 -1 1.10184e-06
      outer loop
         vertex 0.173853 -0.000981687 -0.00513689
         vertex 0.173721 -0.000981686 -0.00500848
         vertex 0.173682 -0.000981686 -0.00505208
      endloop
   endfacet
   facet normal -4.33778e-06 -1 1.10184e-06
      outer loop
         vertex 0.173756 -0.000981686 -0.00529341
         vertex 0.173729 -0.000981686 -0.00544547
         vertex 0.17396 -0.000981687 -0.00544546
      endloop
   endfacet
   facet normal -4.33778e-06 -1 1.10184e-06
      outer loop
         vertex 0.174174 -0.000981688 -0.00531285
         vertex 0.174177 -0.000981688 -0.00525889
         vertex 0.174047 -0.000981688 -0.00580596
      endloop
   endfacet
   facet normal -4.33778e-06 -1 1.10184e-06
      outer loop
         vertex 0.173987 -0.000981687 -0.0052405
         vertex 0.173988 -0.000981687 -0.00526407
         vertex 0.174177 -0.000981688 -0.00525889
      endloop
   endfacet
endsolid 1111. Units = meters