solid 1111. STL generated by ONSHAPE BY PTC INC, 1.216. Units = meters
   facet normal -4.33778e-06 -1 1.10184e-06
      outer loop
         vertex 0.175094 -0.000981692 0.00546124
         vertex 0.175102 -0.000981692 0.0054583
         vertex 0.1751 -0.000981692 0.00545938
      endloop
   endfacet
   facet normal -4.33778e-06 -1 1.10184e-06
      outer loop
         vertex 0.175001 -0.000981692 0.00481276
         vertex 0.174997 -0.000981692 0.00482228
         vertex 0.174811 -0.000981691 0.00476725
      endloop
   endfacet
   facet normal -4.33778e-06 -1 1.10184e-06
      outer loop
         vertex 0.174941 -0.000981691 0.00546138
         vertex 0.17493 -0.000981691 0.00545777
         vertex 0.174928 -0.000981691 0.00545634
      endloop
   endfacet
   facet normal -4.33778e-06 -1 1.10184e-06
      outer loop
         vertex 0.174941 -0.000981691 0.00546138
         vertex 0.174936 -0.000981691 0.00546068
         vertex 0.174934 -0.000981691 0.00545995
      endloop
   endfacet
   facet normal -4.33778e-06 -1 1.10184e-06
      outer loop
         vertex 0.1751 -0.000981692 0.00545938
         vertex 0.175098 -0.000981692 0.00546024
         vertex 0.175094 -0.000981692 0.00546124
      endloop
   endfacet
   facet normal -4.33778e-06 -1 1.10184e-06
      outer loop
         vertex 0.175094 -0.000981692 0.00546124
         vertex 0.175106 -0.000981692 0.00545551
         vertex 0.175104 -0.000981692 0.005457
      endloop
   endfacet
   facet normal -4.33778e-06 -1 1.10184e-06
      outer loop
         vertex 0.175094 -0.000981692 0.00546124
         vertex 0.175109 -0.000981692 0.005452
         vertex 0.175108 -0.000981692 0.00545384
      endloop
   endfacet
   facet normal -4.33778e-06 -1 1.10184e-06
      outer loop
         vertex 0.174811 -0.000981691 0.00476725
         vertex 0.174812 -0.000981691 0.00474567
         vertex 0.175001 -0.000981692 0.00481276
      endloop
   endfacet
   facet normal -4.33778e-06 -1 1.10184e-06
      outer loop
         vertex 0.175005 -0.000981692 0.00480365
         vertex 0.175001 -0.000981692 0.00481276
         vertex 0.174816 -0.000981691 0.00472434
      endloop
   endfacet
   facet normal -4.33778e-06 -1 1.10184e-06
      outer loop
         vertex 0.175011 -0.000981692 0.00479505
         vertex 0.175005 -0.000981692 0.00480365
         vertex 0.174821 -0.000981691 0.0047035
      endloop
   endfacet
   facet normal -4.33778e-06 -1 1.10184e-06
      outer loop
         vertex 0.174865 -0.000981692 0.00462978
         vertex 0.175024 -0.000981692 0.00477968
         vertex 0.175017 -0.000981692 0.00478703
      endloop
   endfacet
   facet normal -4.33778e-06 -1 1.10184e-06
      outer loop
         vertex 0.174917 -0.000981692 0.00459033
         vertex 0.174936 -0.000981692 0.00458108
         vertex 0.17504 -0.000981692 0.00476729
      endloop
   endfacet
   facet normal -4.33778e-06 -1 1.10184e-06
      outer loop
         vertex 0.174941 -0.000981691 0.00546138
         vertex 0.174923 -0.000981691 0.00545095
         vertex 0.174922 -0.000981691 0.00544884
      endloop
   endfacet
   facet normal -4.33778e-06 -1 1.10184e-06
      outer loop
         vertex 0.174941 -0.000981691 0.00546138
         vertex 0.174926 -0.000981691 0.00545472
         vertex 0.174925 -0.000981691 0.00545291
      endloop
   endfacet
   facet normal -4.33778e-06 -1 1.10184e-06
      outer loop
         vertex 0.174941 -0.000981691 0.00546138
         vertex 0.174932 -0.000981691 0.00545898
         vertex 0.17493 -0.000981691 0.00545777
      endloop
   endfacet
   facet normal -4.33778e-06 -1 1.10184e-06
      outer loop
         vertex 0.174941 -0.000981691 0.00546138
         vertex 0.174939 -0.000981691 0.00546116
         vertex 0.174936 -0.000981691 0.00546068
      endloop
   endfacet
   facet normal -4.33778e-06 -1 1.10184e-06
      outer loop
         vertex 0.175104 -0.000981692 0.005457
         vertex 0.175102 -0.000981692 0.0054583
         vertex 0.175094 -0.000981692 0.00546124
      endloop
   endfacet
   facet normal -4.33778e-06 -1 1.10184e-06
      outer loop
         vertex 0.175094 -0.000981692 0.00546124
         vertex 0.17511 -0.000981692 0.00545003
         vertex 0.175109 -0.000981692 0.005452
      endloop
   endfacet
   facet normal -4.33778e-06 -1 1.10184e-06
      outer loop
         vertex 0.175094 -0.000981692 0.00546124
         vertex 0.175112 -0.000981692 0.00544574
         vertex 0.175111 -0.000981692 0.00544793
      endloop
   endfacet
   facet normal -4.33778e-06 -1 1.10184e-06
      outer loop
         vertex 0.175094 -0.000981692 0.00546124
         vertex 0.175113 -0.000981692 0.00544116
         vertex 0.175113 -0.000981692 0.00544347
      endloop
   endfacet
   facet normal -4.33778e-06 -1 1.10184e-06
      outer loop
         vertex 0.174997 -0.000981692 0.00482228
         vertex 0.174995 -0.000981692 0.0048321
         vertex 0.174811 -0.000981691 0.00477852
      endloop
   endfacet
   facet normal -4.33778e-06 -1 1.10184e-06
      outer loop
         vertex 0.174816 -0.000981691 0.00472434
         vertex 0.174821 -0.000981691 0.0047035
         vertex 0.175005 -0.000981692 0.00480365
      endloop
   endfacet
   facet normal -4.33778e-06 -1 1.10184e-06
      outer loop
         vertex 0.174821 -0.000981691 0.0047035
         vertex 0.174829 -0.000981691 0.0046834
         vertex 0.175011 -0.000981692 0.00479505
      endloop
   endfacet
   facet normal -4.33778e-06 -1 1.10184e-06
      outer loop
         vertex 0.175017 -0.000981692 0.00478703
         vertex 0.175011 -0.000981692 0.00479505
         vertex 0.174839 -0.000981691 0.00466427
      endloop
   endfacet
   facet normal -4.33778e-06 -1 1.10184e-06
      outer loop
         vertex 0.175017 -0.000981692 0.00478703
         vertex 0.174852 -0.000981692 0.00464633
         vertex 0.174865 -0.000981692 0.00462978
      endloop
   endfacet
   facet normal -4.33778e-06 -1 1.10184e-06
      outer loop
         vertex 0.174881 -0.000981692 0.00461482
         vertex 0.174898 -0.000981692 0.00460162
         vertex 0.175032 -0.000981692 0.00477308
      endloop
   endfacet
   facet normal -4.33778e-06 -1 1.10184e-06
      outer loop
         vertex 0.175032 -0.000981692 0.00477308
         vertex 0.174898 -0.000981692 0.00460162
         vertex 0.174917 -0.000981692 0.00459033
      endloop
   endfacet
   facet normal -4.33778e-06 -1 1.10184e-06
      outer loop
         vertex 0.17504 -0.000981692 0.00476729
         vertex 0.174936 -0.000981692 0.00458108
         vertex 0.174956 -0.000981692 0.00457398
      endloop
   endfacet
   facet normal -4.33778e-06 -1 1.10184e-06
      outer loop
         vertex 0.175178 -0.000981693 0.0047521
         vertex 0.175195 -0.000981693 0.00473638
         vertex 0.175193 -0.000981693 0.00473972
      endloop
   endfacet
   facet normal -4.33778e-06 -1 1.10184e-06
      outer loop
         vertex 0.175166 -0.000981693 0.00457745
         vertex 0.175169 -0.000981693 0.00457901
         vertex 0.175171 -0.000981693 0.00458081
      endloop
   endfacet
   facet normal -4.33778e-06 -1 1.10184e-06
      outer loop
         vertex 0.174995 -0.000981692 0.00487355
         vertex 0.174941 -0.000981691 0.00546138
         vertex 0.174921 -0.000981691 0.00544432
      endloop
   endfacet
   facet normal -4.33778e-06 -1 1.10184e-06
      outer loop
         vertex 0.174925 -0.000981691 0.00545291
         vertex 0.174923 -0.000981691 0.00545095
         vertex 0.174941 -0.000981691 0.00546138
      endloop
   endfacet
   facet normal -4.33778e-06 -1 1.10184e-06
      outer loop
         vertex 0.174934 -0.000981691 0.00545995
         vertex 0.174932 -0.000981691 0.00545898
         vertex 0.174941 -0.000981691 0.00546138
      endloop
   endfacet
   facet normal -4.33778e-06 -1 1.10184e-06
      outer loop
         vertex 0.175108 -0.000981692 0.00545384
         vertex 0.175106 -0.000981692 0.00545551
         vertex 0.175094 -0.000981692 0.00546124
      endloop
   endfacet
   facet normal -4.33778e-06 -1 1.10184e-06
      outer loop
         vertex 0.175113 -0.000981692 0.00544347
         vertex 0.175112 -0.000981692 0.00544574
         vertex 0.175094 -0.000981692 0.00546124
      endloop
   endfacet
   facet normal -4.33778e-06 -1 1.10184e-06
      outer loop
         vertex 0.175094 -0.000981692 0.00546124
         vertex 0.174995 -0.000981692 0.00487355
         vertex 0.175113 -0.000981692 0.00543651
      endloop
   endfacet
   facet normal -4.33778e-06 -1 1.10184e-06
      outer loop
         vertex 0.174812 -0.000981691 0.00474567
         vertex 0.174816 -0.000981691 0.00472434
         vertex 0.175001 -0.000981692 0.00481276
      endloop
   endfacet
   facet normal -4.33778e-06 -1 1.10184e-06
      outer loop
         vertex 0.174839 -0.000981691 0.00466427
         vertex 0.174852 -0.000981692 0.00464633
         vertex 0.175017 -0.000981692 0.00478703
      endloop
   endfacet
   facet normal -4.33778e-06 -1 1.10184e-06
      outer loop
         vertex 0.175032 -0.000981692 0.00477308
         vertex 0.175024 -0.000981692 0.00477968
         vertex 0.174881 -0.000981692 0.00461482
      endloop
   endfacet
   facet normal -4.33778e-06 -1 1.10184e-06
      outer loop
         vertex 0.174956 -0.000981692 0.00457398
         vertex 0.175049 -0.000981692 0.00476239
         vertex 0.17504 -0.000981692 0.00476729
      endloop
   endfacet
   facet normal -4.33778e-06 -1 1.10184e-06
      outer loop
         vertex 0.175188 -0.000981693 0.00474562
         vertex 0.175185 -0.000981693 0.00474812
         vertex 0.175181 -0.000981693 0.00475029
      endloop
   endfacet
   facet normal -4.33778e-06 -1 1.10184e-06
      outer loop
         vertex 0.175193 -0.000981693 0.00473972
         vertex 0.17519 -0.000981693 0.00474281
         vertex 0.175178 -0.000981693 0.0047521
      endloop
   endfacet
   facet normal -4.33778e-06 -1 1.10184e-06
      outer loop
         vertex 0.175178 -0.000981693 0.0047521
         vertex 0.175198 -0.000981693 0.00472913
         vertex 0.175197 -0.000981693 0.00473284
      endloop
   endfacet
   facet normal -4.33778e-06 -1 1.10184e-06
      outer loop
         vertex 0.175178 -0.000981693 0.0047521
         vertex 0.1752 -0.000981693 0.00472136
         vertex 0.175199 -0.000981693 0.00472529
      endloop
   endfacet
   facet normal -4.33778e-06 -1 1.10184e-06
      outer loop
         vertex 0.175164 -0.000981693 0.00457616
         vertex 0.175173 -0.000981693 0.00458283
         vertex 0.175174 -0.000981693 0.00458504
      endloop
   endfacet
   facet normal -4.33778e-06 -1 1.10184e-06
      outer loop
         vertex 0.175173 -0.000981693 0.00458283
         vertex 0.175164 -0.000981693 0.00457616
         vertex 0.175166 -0.000981693 0.00457745
      endloop
   endfacet
   facet normal -4.33778e-06 -1 1.10184e-06
      outer loop
         vertex 0.174941 -0.000981691 0.00546138
         vertex 0.174921 -0.000981691 0.00544663
         vertex 0.174921 -0.000981691 0.00544432
      endloop
   endfacet
   facet normal -4.33778e-06 -1 1.10184e-06
      outer loop
         vertex 0.174928 -0.000981691 0.00545634
         vertex 0.174926 -0.000981691 0.00545472
         vertex 0.174941 -0.000981691 0.00546138
      endloop
   endfacet
   facet normal -4.33778e-06 -1 1.10184e-06
      outer loop
         vertex 0.175111 -0.000981692 0.00544793
         vertex 0.17511 -0.000981692 0.00545003
         vertex 0.175094 -0.000981692 0.00546124
      endloop
   endfacet
   facet normal -4.33778e-06 -1 1.10184e-06
      outer loop
         vertex 0.175113 -0.000981692 0.00543651
         vertex 0.175113 -0.000981692 0.00543883
         vertex 0.175094 -0.000981692 0.00546124
      endloop
   endfacet
   facet normal -4.33778e-06 -1 1.10184e-06
      outer loop
         vertex 0.174829 -0.000981691 0.0046834
         vertex 0.174839 -0.000981691 0.00466427
         vertex 0.175011 -0.000981692 0.00479505
      endloop
   endfacet
   facet normal -4.33778e-06 -1 1.10184e-06
      outer loop
         vertex 0.17504 -0.000981692 0.00476729
         vertex 0.175032 -0.000981692 0.00477308
         vertex 0.174917 -0.000981692 0.00459033
      endloop
   endfacet
   facet normal -4.33778e-06 -1 1.10184e-06
      outer loop
         vertex 0.1752 -0.000981693 0.00472136
         vertex 0.17517 -0.000981693 0.00475455
         vertex 0.175166 -0.000981693 0.00475518
      endloop
   endfacet
   facet normal -4.33778e-06 -1 1.10184e-06
      outer loop
         vertex 0.1752 -0.000981693 0.00472136
         vertex 0.175178 -0.000981693 0.0047521
         vertex 0.175174 -0.000981693 0.00475352
      endloop
   endfacet
   facet normal -4.33778e-06 -1 1.10184e-06
      outer loop
         vertex 0.17519 -0.000981693 0.00474281
         vertex 0.175188 -0.000981693 0.00474562
         vertex 0.175178 -0.000981693 0.0047521
      endloop
   endfacet
   facet normal -4.33778e-06 -1 1.10184e-06
      outer loop
         vertex 0.175199 -0.000981693 0.00472529
         vertex 0.175198 -0.000981693 0.00472913
         vertex 0.175178 -0.000981693 0.0047521
      endloop
   endfacet
   facet normal -4.33778e-06 -1 1.10184e-06
      outer loop
         vertex 0.175171 -0.000981693 0.00458081
         vertex 0.175173 -0.000981693 0.00458283
         vertex 0.175166 -0.000981693 0.00457745
      endloop
   endfacet
   facet normal -4.33778e-06 -1 1.10184e-06
      outer loop
         vertex 0.174922 -0.000981691 0.00544884
         vertex 0.174921 -0.000981691 0.00544663
         vertex 0.174941 -0.000981691 0.00546138
      endloop
   endfacet
   facet normal -4.33778e-06 -1 1.10184e-06
      outer loop
         vertex 0.175113 -0.000981692 0.00543883
         vertex 0.175113 -0.000981692 0.00544116
         vertex 0.175094 -0.000981692 0.00546124
      endloop
   endfacet
   facet normal -4.33778e-06 -1 1.10184e-06
      outer loop
         vertex 0.174811 -0.000981691 0.00477852
         vertex 0.174811 -0.000981691 0.00476725
         vertex 0.174997 -0.000981692 0.00482228
      endloop
   endfacet
   facet normal -4.33778e-06 -1 1.10184e-06
      outer loop
         vertex 0.174956 -0.000981692 0.00457398
         vertex 0.175058 -0.000981692 0.0047584
         vertex 0.175049 -0.000981692 0.00476239
      endloop
   endfacet
   facet normal -4.33778e-06 -1 1.10184e-06
      outer loop
         vertex 0.175174 -0.000981693 0.00475352
         vertex 0.17517 -0.000981693 0.00475455
         vertex 0.1752 -0.000981693 0.00472136
      endloop
   endfacet
   facet normal -4.33778e-06 -1 1.10184e-06
      outer loop
         vertex 0.175197 -0.000981693 0.00473284
         vertex 0.175195 -0.000981693 0.00473638
         vertex 0.175178 -0.000981693 0.0047521
      endloop
   endfacet
   facet normal -4.33778e-06 -1 1.10184e-06
      outer loop
         vertex 0.175174 -0.000981693 0.00458504
         vertex 0.175176 -0.000981693 0.00458743
         vertex 0.175164 -0.000981693 0.00457616
      endloop
   endfacet
   facet normal -4.33778e-06 -1 1.10184e-06
      outer loop
         vertex 0.175177 -0.000981693 0.00458996
         vertex 0.175158 -0.000981693 0.00457441
         vertex 0.175161 -0.000981693 0.00457514
      endloop
   endfacet
   facet normal -4.33778e-06 -1 1.10184e-06
      outer loop
         vertex 0.174995 -0.000981692 0.00487355
         vertex 0.175091 -0.000981692 0.00546138
         vertex 0.174941 -0.000981691 0.00546138
      endloop
   endfacet
   facet normal -4.33778e-06 -1 1.10184e-06
      outer loop
         vertex 0.175098 -0.000981692 0.00546024
         vertex 0.175096 -0.000981692 0.00546086
         vertex 0.175094 -0.000981692 0.00546124
      endloop
   endfacet
   facet normal -4.33778e-06 -1 1.10184e-06
      outer loop
         vertex 0.174865 -0.000981692 0.00462978
         vertex 0.174881 -0.000981692 0.00461482
         vertex 0.175024 -0.000981692 0.00477968
      endloop
   endfacet
   facet normal -4.33778e-06 -1 1.10184e-06
      outer loop
         vertex 0.175181 -0.000981693 0.00475029
         vertex 0.175178 -0.000981693 0.0047521
         vertex 0.175188 -0.000981693 0.00474562
      endloop
   endfacet
   facet normal -4.33778e-06 -1 1.10184e-06
      outer loop
         vertex 0.175162 -0.000981693 0.00475539
         vertex 0.175198 -0.000981693 0.00470563
         vertex 0.1752 -0.000981693 0.00471739
      endloop
   endfacet
   facet normal -4.33778e-06 -1 1.10184e-06
      outer loop
         vertex 0.175068 -0.000981692 0.00475539
         vertex 0.174956 -0.000981692 0.00457398
         vertex 0.175178 -0.000981693 0.0045926
      endloop
   endfacet
   facet normal -4.33778e-06 -1 1.10184e-06
      outer loop
         vertex 0.175161 -0.000981693 0.00457514
         vertex 0.175164 -0.000981693 0.00457616
         vertex 0.175177 -0.000981693 0.00458996
      endloop
   endfacet
   facet normal -4.33778e-06 -1 1.10184e-06
      outer loop
         vertex 0.175177 -0.000981693 0.00458996
         vertex 0.174956 -0.000981692 0.00457398
         vertex 0.175156 -0.000981693 0.00457398
      endloop
   endfacet
   facet normal -4.33778e-06 -1 1.10184e-06
      outer loop
         vertex 0.175094 -0.000981692 0.00546124
         vertex 0.175091 -0.000981692 0.00546138
         vertex 0.174995 -0.000981692 0.00487355
      endloop
   endfacet
   facet normal -4.33778e-06 -1 1.10184e-06
      outer loop
         vertex 0.174956 -0.000981692 0.00457398
         vertex 0.175068 -0.000981692 0.00475539
         vertex 0.175058 -0.000981692 0.0047584
      endloop
   endfacet
   facet normal -4.33778e-06 -1 1.10184e-06
      outer loop
         vertex 0.1752 -0.000981693 0.00471739
         vertex 0.1752 -0.000981693 0.00472136
         vertex 0.175162 -0.000981693 0.00475539
      endloop
   endfacet
   facet normal -4.33778e-06 -1 1.10184e-06
      outer loop
         vertex 0.174956 -0.000981692 0.00457398
         vertex 0.175177 -0.000981693 0.00458996
         vertex 0.175178 -0.000981693 0.0045926
      endloop
   endfacet
   facet normal -4.33778e-06 -1 1.10184e-06
      outer loop
         vertex 0.175156 -0.000981693 0.00457398
         vertex 0.175158 -0.000981693 0.00457441
         vertex 0.175177 -0.000981693 0.00458996
      endloop
   endfacet
   facet normal -4.33778e-06 -1 1.10184e-06
      outer loop
         vertex 0.174811 -0.000981691 0.00477852
         vertex 0.174993 -0.000981692 0.00485227
         vertex 0.174995 -0.000981692 0.00487355
      endloop
   endfacet
   facet normal -4.33778e-06 -1 1.10184e-06
      outer loop
         vertex 0.174995 -0.000981692 0.0048321
         vertex 0.174993 -0.000981692 0.00484213
         vertex 0.174811 -0.000981691 0.00477852
      endloop
   endfacet
   facet normal -4.33778e-06 -1 1.10184e-06
      outer loop
         vertex 0.175166 -0.000981693 0.00475518
         vertex 0.175162 -0.000981693 0.00475539
         vertex 0.1752 -0.000981693 0.00472136
      endloop
   endfacet
   facet normal -4.33778e-06 -1 1.10184e-06
      outer loop
         vertex 0.175176 -0.000981693 0.00458743
         vertex 0.175177 -0.000981693 0.00458996
         vertex 0.175164 -0.000981693 0.00457616
      endloop
   endfacet
   facet normal -4.33778e-06 -1 1.10184e-06
      outer loop
         vertex 0.174993 -0.000981692 0.00484213
         vertex 0.174993 -0.000981692 0.00485227
         vertex 0.174811 -0.000981691 0.00477852
      endloop
   endfacet
   facet normal -4.33778e-06 -1 1.10184e-06
      outer loop
         vertex 0.175178 -0.000981693 0.0045926
         vertex 0.175198 -0.000981693 0.00470563
         vertex 0.175068 -0.000981692 0.00475539
      endloop
   endfacet
   facet normal -4.33778e-06 -1 1.10184e-06
      outer loop
         vertex 0.175162 -0.000981693 0.00475539
         vertex 0.175068 -0.000981692 0.00475539
         vertex 0.175198 -0.000981693 0.00470563
      endloop
   endfacet
   facet normal -4.33778e-06 -1 1.10184e-06
      outer loop
         vertex 0.174921 -0.000981691 0.00544432
         vertex 0.174811 -0.000981691 0.00477852
         vertex 0.174995 -0.000981692 0.00487355
      endloop
   endfacet
endsolid 1111. Units = meters