solid 1111. STL generated by ONSHAPE BY PTC INC, 1.216. Units = meters
   facet normal 4.33778e-06 1 -1.10184e-06
      outer loop
         vertex 0.172144 0.00783832 0.00559557
         vertex 0.172066 0.00783832 0.00499272
         vertex 0.171981 0.00783832 0.00501553
      endloop
   endfacet
   facet normal 4.33778e-06 1 -1.10184e-06
      outer loop
         vertex 0.172144 0.00783832 0.00559557
         vertex 0.172153 0.00783832 0.00497892
         vertex 0.172066 0.00783832 0.00499272
      endloop
   endfacet
   facet normal 4.33778e-06 1 -1.10184e-06
      outer loop
         vertex 0.172144 0.00783832 0.00559557
         vertex 0.17224 0.00783832 0.00497427
         vertex 0.172153 0.00783832 0.00497892
      endloop
   endfacet
   facet normal 4.33778e-06 1 -1.10184e-06
      outer loop
         vertex 0.172144 0.00783832 0.00559557
         vertex 0.173356 0.00783832 0.00497428
         vertex 0.17224 0.00783832 0.00497427
      endloop
   endfacet
   facet normal 4.33778e-06 1 -1.10184e-06
      outer loop
         vertex 0.171898 0.00783832 0.00504709
         vertex 0.17182 0.00783832 0.00508706
         vertex 0.172121 0.00783832 0.005607
      endloop
   endfacet
   facet normal 4.33778e-06 1 -1.10184e-06
      outer loop
         vertex 0.171678 0.00783832 0.00519041
         vertex 0.171616 0.00783832 0.00525265
         vertex 0.172062 0.00783832 0.00565441
      endloop
   endfacet
   facet normal 4.33778e-06 1 -1.10184e-06
      outer loop
         vertex 0.171616 0.00783832 0.00525265
         vertex 0.17156 0.00783832 0.00532105
         vertex 0.172046 0.00783832 0.00567402
      endloop
   endfacet
   facet normal 4.33778e-06 1 -1.10184e-06
      outer loop
         vertex 0.17156 0.00783832 0.00532105
         vertex 0.171512 0.00783832 0.00539486
         vertex 0.172033 0.00783832 0.00569518
      endloop
   endfacet
   facet normal 4.33778e-06 1 -1.10184e-06
      outer loop
         vertex 0.171512 0.00783832 0.00539486
         vertex 0.171472 0.00783832 0.00547328
         vertex 0.172021 0.00783832 0.00571767
      endloop
   endfacet
   facet normal 4.33778e-06 1 -1.10184e-06
      outer loop
         vertex 0.17144 0.00783832 0.00607516
         vertex 0.172012 0.00783832 0.00589018
         vertex 0.172005 0.00783832 0.00586584
      endloop
   endfacet
   facet normal 4.33778e-06 1 -1.10184e-06
      outer loop
         vertex 0.171472 0.00783832 0.00615737
         vertex 0.172021 0.00783832 0.00591371
         vertex 0.172012 0.00783832 0.00589018
      endloop
   endfacet
   facet normal 4.33778e-06 1 -1.10184e-06
      outer loop
         vertex 0.171512 0.00783832 0.00623583
         vertex 0.172032 0.00783832 0.00593616
         vertex 0.172021 0.00783832 0.00591371
      endloop
   endfacet
   facet normal 4.33778e-06 1 -1.10184e-06
      outer loop
         vertex 0.17156 0.00783832 0.0063097
         vertex 0.172046 0.00783832 0.0059573
         vertex 0.172032 0.00783832 0.00593616
      endloop
   endfacet
   facet normal 4.33778e-06 1 -1.10184e-06
      outer loop
         vertex 0.171745 0.00783832 0.00649596
         vertex 0.172099 0.00783832 0.00601056
         vertex 0.17208 0.00783832 0.0059947
      endloop
   endfacet
   facet normal 4.33778e-06 1 -1.10184e-06
      outer loop
         vertex 0.171819 0.00783832 0.00654399
         vertex 0.172121 0.00783832 0.00602429
         vertex 0.172099 0.00783832 0.00601056
      endloop
   endfacet
   facet normal 4.33778e-06 1 -1.10184e-06
      outer loop
         vertex 0.171898 0.00783832 0.00658406
         vertex 0.172143 0.00783832 0.00603573
         vertex 0.172121 0.00783832 0.00602429
      endloop
   endfacet
   facet normal 4.33778e-06 1 -1.10184e-06
      outer loop
         vertex 0.17198 0.00783832 0.00661572
         vertex 0.172167 0.00783832 0.00604476
         vertex 0.172143 0.00783832 0.00603573
      endloop
   endfacet
   facet normal 4.33778e-06 1 -1.10184e-06
      outer loop
         vertex 0.172065 0.00783832 0.00663863
         vertex 0.172191 0.00783832 0.00605129
         vertex 0.172167 0.00783832 0.00604476
      endloop
   endfacet
   facet normal 4.33778e-06 1 -1.10184e-06
      outer loop
         vertex 0.172152 0.00783832 0.00665253
         vertex 0.172216 0.00783832 0.00605523
         vertex 0.172191 0.00783832 0.00605129
      endloop
   endfacet
   facet normal 4.33778e-06 1 -1.10184e-06
      outer loop
         vertex 0.172239 0.00783832 0.00665728
         vertex 0.172241 0.00783832 0.00605655
         vertex 0.172216 0.00783832 0.00605523
      endloop
   endfacet
   facet normal 4.33778e-06 1 -1.10184e-06
      outer loop
         vertex 0.172239 0.00783832 0.00665728
         vertex 0.174358 0.00783831 0.0066573
         vertex 0.173102 0.00783832 0.00605656
      endloop
   endfacet
   facet normal 4.33778e-06 1 -1.10184e-06
      outer loop
         vertex 0.172121 0.00783832 0.005607
         vertex 0.172144 0.00783832 0.00559557
         vertex 0.171898 0.00783832 0.00504709
      endloop
   endfacet
   facet normal 4.33778e-06 1 -1.10184e-06
      outer loop
         vertex 0.17182 0.00783832 0.00508706
         vertex 0.171746 0.00783832 0.00513501
         vertex 0.1721 0.00783832 0.00562072
      endloop
   endfacet
   facet normal 4.33778e-06 1 -1.10184e-06
      outer loop
         vertex 0.172046 0.00783832 0.00567402
         vertex 0.172062 0.00783832 0.00565441
         vertex 0.171616 0.00783832 0.00525265
      endloop
   endfacet
   facet normal 4.33778e-06 1 -1.10184e-06
      outer loop
         vertex 0.172021 0.00783832 0.00571767
         vertex 0.172033 0.00783832 0.00569518
         vertex 0.171512 0.00783832 0.00539486
      endloop
   endfacet
   facet normal 4.33778e-06 1 -1.10184e-06
      outer loop
         vertex 0.172012 0.00783832 0.00589018
         vertex 0.17144 0.00783832 0.00607516
         vertex 0.171472 0.00783832 0.00615737
      endloop
   endfacet
   facet normal 4.33778e-06 1 -1.10184e-06
      outer loop
         vertex 0.172032 0.00783832 0.00593616
         vertex 0.171512 0.00783832 0.00623583
         vertex 0.17156 0.00783832 0.0063097
      endloop
   endfacet
   facet normal 4.33778e-06 1 -1.10184e-06
      outer loop
         vertex 0.171615 0.00783832 0.00637817
         vertex 0.172062 0.00783832 0.00597688
         vertex 0.172046 0.00783832 0.0059573
      endloop
   endfacet
   facet normal 4.33778e-06 1 -1.10184e-06
      outer loop
         vertex 0.171677 0.00783832 0.00644048
         vertex 0.17208 0.00783832 0.0059947
         vertex 0.172062 0.00783832 0.00597688
      endloop
   endfacet
   facet normal 4.33778e-06 1 -1.10184e-06
      outer loop
         vertex 0.172099 0.00783832 0.00601056
         vertex 0.171745 0.00783832 0.00649596
         vertex 0.171819 0.00783832 0.00654399
      endloop
   endfacet
   facet normal 4.33778e-06 1 -1.10184e-06
      outer loop
         vertex 0.172143 0.00783832 0.00603573
         vertex 0.171898 0.00783832 0.00658406
         vertex 0.17198 0.00783832 0.00661572
      endloop
   endfacet
   facet normal 4.33778e-06 1 -1.10184e-06
      outer loop
         vertex 0.172191 0.00783832 0.00605129
         vertex 0.172065 0.00783832 0.00663863
         vertex 0.172152 0.00783832 0.00665253
      endloop
   endfacet
   facet normal 4.33778e-06 1 -1.10184e-06
      outer loop
         vertex 0.173102 0.00783832 0.00605656
         vertex 0.172241 0.00783832 0.00605655
         vertex 0.172239 0.00783832 0.00665728
      endloop
   endfacet
   facet normal 4.33778e-06 1 -1.10184e-06
      outer loop
         vertex 0.1721 0.00783832 0.00562072
         vertex 0.172121 0.00783832 0.005607
         vertex 0.17182 0.00783832 0.00508706
      endloop
   endfacet
   facet normal 4.33778e-06 1 -1.10184e-06
      outer loop
         vertex 0.171746 0.00783832 0.00513501
         vertex 0.171678 0.00783832 0.00519041
         vertex 0.17208 0.00783832 0.00563658
      endloop
   endfacet
   facet normal 4.33778e-06 1 -1.10184e-06
      outer loop
         vertex 0.172033 0.00783832 0.00569518
         vertex 0.172046 0.00783832 0.00567402
         vertex 0.17156 0.00783832 0.00532105
      endloop
   endfacet
   facet normal 4.33778e-06 1 -1.10184e-06
      outer loop
         vertex 0.171472 0.00783832 0.00547328
         vertex 0.171441 0.00783832 0.00555544
         vertex 0.172012 0.00783832 0.00574124
      endloop
   endfacet
   facet normal 4.33778e-06 1 -1.10184e-06
      outer loop
         vertex 0.171441 0.00783832 0.00555544
         vertex 0.171418 0.00783832 0.00564045
         vertex 0.172006 0.00783832 0.00576562
      endloop
   endfacet
   facet normal 4.33778e-06 1 -1.10184e-06
      outer loop
         vertex 0.171418 0.00783832 0.00564045
         vertex 0.171404 0.00783832 0.00572738
         vertex 0.172002 0.00783832 0.00579056
      endloop
   endfacet
   facet normal 4.33778e-06 1 -1.10184e-06
      outer loop
         vertex 0.172021 0.00783832 0.00591371
         vertex 0.171472 0.00783832 0.00615737
         vertex 0.171512 0.00783832 0.00623583
      endloop
   endfacet
   facet normal 4.33778e-06 1 -1.10184e-06
      outer loop
         vertex 0.172062 0.00783832 0.00597688
         vertex 0.171615 0.00783832 0.00637817
         vertex 0.171677 0.00783832 0.00644048
      endloop
   endfacet
   facet normal 4.33778e-06 1 -1.10184e-06
      outer loop
         vertex 0.172121 0.00783832 0.00602429
         vertex 0.171819 0.00783832 0.00654399
         vertex 0.171898 0.00783832 0.00658406
      endloop
   endfacet
   facet normal 4.33778e-06 1 -1.10184e-06
      outer loop
         vertex 0.172216 0.00783832 0.00605523
         vertex 0.172152 0.00783832 0.00665253
         vertex 0.172239 0.00783832 0.00665728
      endloop
   endfacet
   facet normal 4.33778e-06 1 -1.10184e-06
      outer loop
         vertex 0.173356 0.00783832 0.00497428
         vertex 0.172144 0.00783832 0.00559557
         vertex 0.172167 0.00783832 0.00558656
      endloop
   endfacet
   facet normal 4.33778e-06 1 -1.10184e-06
      outer loop
         vertex 0.17208 0.00783832 0.00563658
         vertex 0.1721 0.00783832 0.00562072
         vertex 0.171746 0.00783832 0.00513501
      endloop
   endfacet
   facet normal 4.33778e-06 1 -1.10184e-06
      outer loop
         vertex 0.172012 0.00783832 0.00574124
         vertex 0.172021 0.00783832 0.00571767
         vertex 0.171472 0.00783832 0.00547328
      endloop
   endfacet
   facet normal 4.33778e-06 1 -1.10184e-06
      outer loop
         vertex 0.172002 0.00783832 0.00579056
         vertex 0.172006 0.00783832 0.00576562
         vertex 0.171418 0.00783832 0.00564045
      endloop
   endfacet
   facet normal 4.33778e-06 1 -1.10184e-06
      outer loop
         vertex 0.171399 0.00783832 0.00581528
         vertex 0.172 0.00783832 0.00581578
         vertex 0.172002 0.00783832 0.00579056
      endloop
   endfacet
   facet normal 4.33778e-06 1 -1.10184e-06
      outer loop
         vertex 0.171404 0.00783832 0.00590318
         vertex 0.172002 0.00783832 0.00584094
         vertex 0.172 0.00783832 0.00581578
      endloop
   endfacet
   facet normal 4.33778e-06 1 -1.10184e-06
      outer loop
         vertex 0.171418 0.00783832 0.00599012
         vertex 0.172005 0.00783832 0.00586584
         vertex 0.172002 0.00783832 0.00584094
      endloop
   endfacet
   facet normal 4.33778e-06 1 -1.10184e-06
      outer loop
         vertex 0.172046 0.00783832 0.0059573
         vertex 0.17156 0.00783832 0.0063097
         vertex 0.171615 0.00783832 0.00637817
      endloop
   endfacet
   facet normal 4.33778e-06 1 -1.10184e-06
      outer loop
         vertex 0.172167 0.00783832 0.00604476
         vertex 0.17198 0.00783832 0.00661572
         vertex 0.172065 0.00783832 0.00663863
      endloop
   endfacet
   facet normal 4.33778e-06 1 -1.10184e-06
      outer loop
         vertex 0.173356 0.00783832 0.00497428
         vertex 0.172217 0.00783832 0.00557617
         vertex 0.172242 0.00783832 0.00557491
      endloop
   endfacet
   facet normal 4.33778e-06 1 -1.10184e-06
      outer loop
         vertex 0.172167 0.00783832 0.00558656
         vertex 0.172192 0.00783832 0.00558008
         vertex 0.173356 0.00783832 0.00497428
      endloop
   endfacet
   facet normal 4.33778e-06 1 -1.10184e-06
      outer loop
         vertex 0.172062 0.00783832 0.00565441
         vertex 0.17208 0.00783832 0.00563658
         vertex 0.171678 0.00783832 0.00519041
      endloop
   endfacet
   facet normal 4.33778e-06 1 -1.10184e-06
      outer loop
         vertex 0.172002 0.00783832 0.00579056
         vertex 0.171404 0.00783832 0.00572738
         vertex 0.171399 0.00783832 0.00581528
      endloop
   endfacet
   facet normal 4.33778e-06 1 -1.10184e-06
      outer loop
         vertex 0.172002 0.00783832 0.00584094
         vertex 0.171404 0.00783832 0.00590318
         vertex 0.171418 0.00783832 0.00599012
      endloop
   endfacet
   facet normal 4.33778e-06 1 -1.10184e-06
      outer loop
         vertex 0.17208 0.00783832 0.0059947
         vertex 0.171677 0.00783832 0.00644048
         vertex 0.171745 0.00783832 0.00649596
      endloop
   endfacet
   facet normal 4.33778e-06 1 -1.10184e-06
      outer loop
         vertex 0.172192 0.00783832 0.00558008
         vertex 0.172217 0.00783832 0.00557617
         vertex 0.173356 0.00783832 0.00497428
      endloop
   endfacet
   facet normal 4.33778e-06 1 -1.10184e-06
      outer loop
         vertex 0.174378 0.00783831 0.00405757
         vertex 0.173627 0.00783831 0.00399232
         vertex 0.173356 0.00783832 0.00497428
      endloop
   endfacet
   facet normal 4.33778e-06 1 -1.10184e-06
      outer loop
         vertex 0.172006 0.00783832 0.00576562
         vertex 0.172012 0.00783832 0.00574124
         vertex 0.171441 0.00783832 0.00555544
      endloop
   endfacet
   facet normal 4.33778e-06 1 -1.10184e-06
      outer loop
         vertex 0.172005 0.00783832 0.00586584
         vertex 0.171418 0.00783832 0.00599012
         vertex 0.17144 0.00783832 0.00607516
      endloop
   endfacet
   facet normal 4.33778e-06 1 -1.10184e-06
      outer loop
         vertex 0.173356 0.00783832 0.00497428
         vertex 0.17396 0.00783831 0.00557492
         vertex 0.174378 0.00783831 0.00405757
      endloop
   endfacet
   facet normal 4.33778e-06 1 -1.10184e-06
      outer loop
         vertex 0.172 0.00783832 0.00581578
         vertex 0.171399 0.00783832 0.00581528
         vertex 0.171404 0.00783832 0.00590318
      endloop
   endfacet
   facet normal 4.33778e-06 1 -1.10184e-06
      outer loop
         vertex 0.172242 0.00783832 0.00557491
         vertex 0.17396 0.00783831 0.00557492
         vertex 0.173356 0.00783832 0.00497428
      endloop
   endfacet
   facet normal 4.33778e-06 1 -1.10184e-06
      outer loop
         vertex 0.173102 0.00783832 0.00605656
         vertex 0.17396 0.00783831 0.00605657
         vertex 0.173586 0.00783832 0.00564678
      endloop
   endfacet
   facet normal 4.33778e-06 1 -1.10184e-06
      outer loop
         vertex 0.174378 0.00783831 0.00405757
         vertex 0.174517 0.00783831 0.00399233
         vertex 0.173627 0.00783831 0.00399232
      endloop
   endfacet
   facet normal 4.33778e-06 1 -1.10184e-06
      outer loop
         vertex 0.173102 0.00783832 0.00605656
         vertex 0.174358 0.00783831 0.0066573
         vertex 0.17396 0.00783831 0.00605657
      endloop
   endfacet
   facet normal 4.33778e-06 1 -1.10184e-06
      outer loop
         vertex 0.173586 0.00783832 0.00564678
         vertex 0.172729 0.00783832 0.00564677
         vertex 0.173102 0.00783832 0.00605656
      endloop
   endfacet
   facet normal 4.33778e-06 1 -1.10184e-06
      outer loop
         vertex 0.171981 0.00783832 0.00501553
         vertex 0.171898 0.00783832 0.00504709
         vertex 0.172144 0.00783832 0.00559557
      endloop
   endfacet
endsolid 1111. Units = meters