solid 1111. STL generated by ONSHAPE BY PTC INC, 1.216. Units = meters
   facet normal -1 0 0
      outer loop
         vertex 0.0162236 0.00816386 0.0169
         vertex 0.0162236 0.00941386 0.0169
         vertex 0.0162236 0.00941386 0.0159
      endloop
   endfacet
   facet normal -1 0 0
      outer loop
         vertex 0.0162236 0.00941386 0.0159
         vertex 0.0162236 0.00816386 0.0159
         vertex 0.0162236 0.00816386 0.0169
      endloop
   endfacet
   facet normal 0 0 1
      outer loop
         vertex 0.0162236 0.00816386 0.0169
         vertex 0.0166236 0.00816386 0.0169
         vertex 0.0166236 0.00941386 0.0169
      endloop
   endfacet
   facet normal 0 0 1
      outer loop
         vertex 0.0166236 0.00941386 0.0169
         vertex 0.0162236 0.00941386 0.0169
         vertex 0.0162236 0.00816386 0.0169
      endloop
   endfacet
   facet normal 0 -1 0
      outer loop
         vertex 0.0162236 0.00816386 0.0169
         vertex 0.0162236 0.00816386 0.0159
         vertex 0.0166236 0.00816386 0.0159
      endloop
   endfacet
   facet normal 0 -1 0
      outer loop
         vertex 0.0166236 0.00816386 0.0159
         vertex 0.0166236 0.00816386 0.0169
         vertex 0.0162236 0.00816386 0.0169
      endloop
   endfacet
   facet normal -1 0 0
      outer loop
         vertex 0.0166236 0.0103889 0.0177
         vertex 0.0166236 0.0103889 0.01365
         vertex 0.0166236 0.00941386 0.0159
      endloop
   endfacet
   facet normal -1 0 0
      outer loop
         vertex 0.0166236 0.00718886 0.01365
         vertex 0.0166236 0.00816386 0.0159
         vertex 0.0166236 0.00941386 0.0159
      endloop
   endfacet
   facet normal -1 0 0
      outer loop
         vertex 0.0166236 0.00941386 0.0159
         vertex 0.0166236 0.0103889 0.01365
         vertex 0.0166236 0.00718886 0.01365
      endloop
   endfacet
   facet normal -1 0 0
      outer loop
         vertex 0.0166236 0.00718886 0.0177
         vertex 0.0166236 0.00816386 0.0169
         vertex 0.0166236 0.00816386 0.0159
      endloop
   endfacet
   facet normal -1 0 0
      outer loop
         vertex 0.0166236 0.0103889 0.0177
         vertex 0.0166236 0.00941386 0.0169
         vertex 0.0166236 0.00816386 0.0169
      endloop
   endfacet
   facet normal -1 0 0
      outer loop
         vertex 0.0166236 0.00816386 0.0159
         vertex 0.0166236 0.00718886 0.01365
         vertex 0.0166236 0.00718886 0.0177
      endloop
   endfacet
   facet normal -1 0 0
      outer loop
         vertex 0.0166236 0.00941386 0.0159
         vertex 0.0166236 0.00941386 0.0169
         vertex 0.0166236 0.0103889 0.0177
      endloop
   endfacet
   facet normal -1 0 0
      outer loop
         vertex 0.0166236 0.00816386 0.0169
         vertex 0.0166236 0.00718886 0.0177
         vertex 0.0166236 0.0103889 0.0177
      endloop
   endfacet
   facet normal 0 -1 0
      outer loop
         vertex 0.0166236 0.0103889 0.0177
         vertex 0.0152236 0.0103889 0.0177
         vertex 0.0152236 0.0103889 0.01365
      endloop
   endfacet
   facet normal 0 -1 0
      outer loop
         vertex 0.0152236 0.0103889 0.01365
         vertex 0.0166236 0.0103889 0.01365
         vertex 0.0166236 0.0103889 0.0177
      endloop
   endfacet
   facet normal 1 0 0
      outer loop
         vertex 0.0152236 0.0103889 0.0177
         vertex 0.0152236 0.00718886 0.0177
         vertex 0.0152236 0.00718886 0.01365
      endloop
   endfacet
   facet normal 1 0 0
      outer loop
         vertex 0.0152236 0.00718886 0.01365
         vertex 0.0152236 0.0103889 0.01365
         vertex 0.0152236 0.0103889 0.0177
      endloop
   endfacet
   facet normal 0 1 0
      outer loop
         vertex 0.0166236 0.00718886 0.0177
         vertex 0.0166236 0.00718886 0.01365
         vertex 0.0152236 0.00718886 0.01365
      endloop
   endfacet
   facet normal 0 1 0
      outer loop
         vertex 0.0152236 0.00718886 0.01365
         vertex 0.0152236 0.00718886 0.0177
         vertex 0.0166236 0.00718886 0.0177
      endloop
   endfacet
endsolid 1111. Units = meters