solid 1111. STL generated by ONSHAPE BY PTC INC, 1.216. Units = meters
   facet normal -1 4.33784e-06 5.57292e-05
      outer loop
         vertex -0.0485468 0.00222926 -0.0217762
         vertex -0.0485468 0.00252926 -0.0217762
         vertex -0.0485458 0.00252926 -0.0217958
      endloop
   endfacet
   facet normal -0.995172 4.20869e-06 -0.0981513
      outer loop
         vertex -0.0485458 0.00222926 -0.0217958
         vertex -0.0485458 0.00252926 -0.0217958
         vertex -0.0485429 0.00252926 -0.0218153
      endloop
   endfacet
   facet normal -0.980722 4.03884e-06 -0.195409
      outer loop
         vertex -0.0485429 0.00222926 -0.0218153
         vertex -0.0485429 0.00252926 -0.0218153
         vertex -0.0485381 0.00252926 -0.0218343
      endloop
   endfacet
   facet normal -0.95679 3.82995e-06 -0.290778
      outer loop
         vertex -0.0485381 0.00222926 -0.0218343
         vertex -0.0485381 0.00252926 -0.0218343
         vertex -0.0485315 0.00252926 -0.0218529
      endloop
   endfacet
   facet normal -0.923609 3.58403e-06 -0.383336
      outer loop
         vertex -0.0485315 0.00222926 -0.0218529
         vertex -0.0485315 0.00252926 -0.0218529
         vertex -0.0485231 0.00252926 -0.0218706
      endloop
   endfacet
   facet normal -0.881498 3.30347e-06 -0.472188
      outer loop
         vertex -0.0485231 0.00222926 -0.0218706
         vertex -0.0485231 0.00252926 -0.0218706
         vertex -0.048513 0.00252926 -0.0218875
      endloop
   endfacet
   facet normal -0.830865 2.99096e-06 -0.556474
      outer loop
         vertex -0.048513 0.00222926 -0.0218875
         vertex -0.048513 0.00252926 -0.0218875
         vertex -0.0485012 0.00252926 -0.0219033
      endloop
   endfacet
   facet normal -0.772199 2.64954e-06 -0.635381
      outer loop
         vertex -0.0485012 0.00222926 -0.0219033
         vertex -0.0485012 0.00252926 -0.0219033
         vertex -0.048488 0.00252926 -0.0219178
      endloop
   endfacet
   facet normal -0.706067 2.2825e-06 -0.708145
      outer loop
         vertex -0.048488 0.00222926 -0.0219178
         vertex -0.048488 0.00252926 -0.0219178
         vertex -0.0484734 0.00252926 -0.021931
      endloop
   endfacet
   facet normal -0.63311 1.89339e-06 -0.774062
      outer loop
         vertex -0.0484734 0.00222926 -0.021931
         vertex -0.0484734 0.00252926 -0.021931
         vertex -0.0484576 0.00252926 -0.0219427
      endloop
   endfacet
   facet normal -0.554031 1.48598e-06 -0.832496
      outer loop
         vertex -0.0484576 0.00252926 -0.0219427
         vertex -0.0484576 0.00222926 -0.0219427
         vertex -0.0484734 0.00222926 -0.021931
      endloop
   endfacet
   facet normal -0.63311 1.89339e-06 -0.774062
      outer loop
         vertex -0.0484734 0.00252926 -0.021931
         vertex -0.0484734 0.00222926 -0.021931
         vertex -0.048488 0.00222926 -0.0219178
      endloop
   endfacet
   facet normal -0.706067 2.2825e-06 -0.708145
      outer loop
         vertex -0.048488 0.00252926 -0.0219178
         vertex -0.048488 0.00222926 -0.0219178
         vertex -0.0485012 0.00222926 -0.0219033
      endloop
   endfacet
   facet normal -0.772199 2.64954e-06 -0.635381
      outer loop
         vertex -0.0485012 0.00252926 -0.0219033
         vertex -0.0485012 0.00222926 -0.0219033
         vertex -0.048513 0.00222926 -0.0218875
      endloop
   endfacet
   facet normal -0.830865 2.99096e-06 -0.556474
      outer loop
         vertex -0.048513 0.00252926 -0.0218875
         vertex -0.048513 0.00222926 -0.0218875
         vertex -0.0485231 0.00222926 -0.0218706
      endloop
   endfacet
   facet normal -0.881498 3.30347e-06 -0.472188
      outer loop
         vertex -0.0485231 0.00252926 -0.0218706
         vertex -0.0485231 0.00222926 -0.0218706
         vertex -0.0485315 0.00222926 -0.0218529
      endloop
   endfacet
   facet normal -0.923609 3.58403e-06 -0.383336
      outer loop
         vertex -0.0485315 0.00252926 -0.0218529
         vertex -0.0485315 0.00222926 -0.0218529
         vertex -0.0485381 0.00222926 -0.0218343
      endloop
   endfacet
   facet normal -0.95679 3.82995e-06 -0.290778
      outer loop
         vertex -0.0485381 0.00252926 -0.0218343
         vertex -0.0485381 0.00222926 -0.0218343
         vertex -0.0485429 0.00222926 -0.0218153
      endloop
   endfacet
   facet normal -0.980722 4.03884e-06 -0.195409
      outer loop
         vertex -0.0485429 0.00252926 -0.0218153
         vertex -0.0485429 0.00222926 -0.0218153
         vertex -0.0485458 0.00222926 -0.0217958
      endloop
   endfacet
   facet normal -0.995172 4.20869e-06 -0.0981513
      outer loop
         vertex -0.0485458 0.00252926 -0.0217958
         vertex -0.0485458 0.00222926 -0.0217958
         vertex -0.0485468 0.00222926 -0.0217762
      endloop
   endfacet
endsolid 1111. Units = meters