solid 1111. STL generated by ONSHAPE BY PTC INC, 1.216. Units = meters
   facet normal 0 1 0
      outer loop
         vertex 0.0276581 0.00222897 -0.00225745
         vertex 0.0276581 0.00222897 0.00225745
         vertex 0.0296581 0.00222897 0.00225745
      endloop
   endfacet
   facet normal 0 1 0
      outer loop
         vertex 0.0296581 0.00222897 0.00225745
         vertex 0.0296581 0.00222897 -0.00225745
         vertex 0.0276581 0.00222897 -0.00225745
      endloop
   endfacet
endsolid 1111. Units = meters