solid 1111. STL generated by ONSHAPE BY PTC INC, 1.216. Units = meters
   facet normal 0 0.0436194 -0.999048
      outer loop
         vertex 0.00504759 0.0247037 -0.0210729
         vertex 0.00664126 0.0229064 -0.0211514
         vertex 0.00591292 0.0229064 -0.0211514
      endloop
   endfacet
   facet normal 0 0.0436194 -0.999048
      outer loop
         vertex 0.00474734 0.0242254 -0.0210938
         vertex 0.00504329 0.0247082 -0.0210727
         vertex 0.00504759 0.0247037 -0.0210729
      endloop
   endfacet
   facet normal 0 0.0436194 -0.999048
      outer loop
         vertex 0.00474734 0.0242254 -0.0210938
         vertex 0.00435276 0.0248936 -0.0210646
         vertex 0.00503069 0.0247226 -0.0210721
      endloop
   endfacet
   facet normal 0 0.0436194 -0.999048
      outer loop
         vertex 0.00333183 0.0229064 -0.0211514
         vertex 0.00435276 0.0248936 -0.0210646
         vertex 0.00448256 0.0236998 -0.0211168
      endloop
   endfacet
   facet normal 0 0.0436194 -0.999048
      outer loop
         vertex 0.00503069 0.0247226 -0.0210721
         vertex 0.00504329 0.0247082 -0.0210727
         vertex 0.00474734 0.0242254 -0.0210938
      endloop
   endfacet
   facet normal 0 0.0436194 -0.999048
      outer loop
         vertex 0.00564525 0.0229064 -0.0211514
         vertex 0.00333183 0.0229064 -0.0211514
         vertex 0.00433099 0.0234115 -0.0211294
      endloop
   endfacet
   facet normal 0 0.0436194 -0.999048
      outer loop
         vertex 0.00435276 0.0248936 -0.0210646
         vertex 0.00474734 0.0242254 -0.0210938
         vertex 0.00448256 0.0236998 -0.0211168
      endloop
   endfacet
   facet normal 0 0.0436194 -0.999048
      outer loop
         vertex 0.00435276 0.0248936 -0.0210646
         vertex 0.00512995 0.0248936 -0.0210646
         vertex 0.00503069 0.0247226 -0.0210721
      endloop
   endfacet
   facet normal 0 0.0436194 -0.999048
      outer loop
         vertex 0.00433099 0.0234115 -0.0211294
         vertex 0.0046847 0.0234175 -0.0211291
         vertex 0.00564525 0.0229064 -0.0211514
      endloop
   endfacet
   facet normal 0 0.0436194 -0.999048
      outer loop
         vertex 0.00591292 0.0229064 -0.0211514
         vertex 0.00474734 0.0242254 -0.0210938
         vertex 0.00504759 0.0247037 -0.0210729
      endloop
   endfacet
   facet normal 0 0.0436194 -0.999048
      outer loop
         vertex 0.00448256 0.0236998 -0.0211168
         vertex 0.00433099 0.0234115 -0.0211294
         vertex 0.00333183 0.0229064 -0.0211514
      endloop
   endfacet
   facet normal 0 0.0436194 -0.999048
      outer loop
         vertex 0.0046847 0.0234175 -0.0211291
         vertex 0.00518142 0.0234175 -0.0211291
         vertex 0.00564525 0.0229064 -0.0211514
      endloop
   endfacet
endsolid 1111. Units = meters