solid 1111. STL generated by ONSHAPE BY PTC INC, 1.216. Units = meters
   facet normal 0 0 1
      outer loop
         vertex 0.018391 0.0295789 0.00100077
         vertex 0.018391 0.0273289 0.00100077
         vertex 0.0184992 0.0273289 0.000994911
      endloop
   endfacet
   facet normal 0.108119 0 0.994138
      outer loop
         vertex 0.0184992 0.0295789 0.000994911
         vertex 0.0184992 0.0273289 0.000994911
         vertex 0.018606 0.0273289 0.000977394
      endloop
   endfacet
   facet normal 0.21497 0 0.976621
      outer loop
         vertex 0.018606 0.0295789 0.000977394
         vertex 0.018606 0.0273289 0.000977394
         vertex 0.0187103 0.0273289 0.000948426
      endloop
   endfacet
   facet normal 0.319302 0 0.947653
      outer loop
         vertex 0.0187103 0.0295789 0.000948426
         vertex 0.0187103 0.0273289 0.000948426
         vertex 0.0188109 0.0273289 0.000908349
      endloop
   endfacet
   facet normal 0.419889 0 0.907575
      outer loop
         vertex 0.0188109 0.0295789 0.000908349
         vertex 0.0188109 0.0273289 0.000908349
         vertex 0.0189066 0.0273289 0.00085763
      endloop
   endfacet
   facet normal 0.515554 0 0.856857
      outer loop
         vertex 0.0189066 0.0295789 0.00085763
         vertex 0.0189066 0.0273289 0.00085763
         vertex 0.0189962 0.0273289 0.000796866
      endloop
   endfacet
   facet normal 0.605174 0 0.796093
      outer loop
         vertex 0.0189962 0.0295789 0.000796866
         vertex 0.0189962 0.0273289 0.000796866
         vertex 0.0190787 0.0273289 0.000726769
      endloop
   endfacet
   facet normal 0.687699 0 0.725995
      outer loop
         vertex 0.0190787 0.0295789 0.000726769
         vertex 0.0190787 0.0273289 0.000726769
         vertex 0.0191532 0.0273289 0.000648159
      endloop
   endfacet
   facet normal 0.762162 0 0.647386
      outer loop
         vertex 0.0191532 0.0295789 0.000648159
         vertex 0.0191532 0.0273289 0.000648159
         vertex 0.0192187 0.0273289 0.00056196
      endloop
   endfacet
   facet normal 0.827689 0 0.561187
      outer loop
         vertex 0.0192187 0.0295789 0.00056196
         vertex 0.0192187 0.0273289 0.00056196
         vertex 0.0192746 0.0273289 0.000469182
      endloop
   endfacet
   facet normal 0.883512 0 0.468408
      outer loop
         vertex 0.0192746 0.0295789 0.000469182
         vertex 0.0192746 0.0273289 0.000469182
         vertex 0.01932 0.0273289 0.000370911
      endloop
   endfacet
   facet normal 0.928977 0 0.370138
      outer loop
         vertex 0.01932 0.0295789 0.000370911
         vertex 0.01932 0.0273289 0.000370911
         vertex 0.0193546 0.0273289 0.000268301
      endloop
   endfacet
   facet normal 0.96355 0 0.267528
      outer loop
         vertex 0.0193546 0.0295789 0.000268301
         vertex 0.0193546 0.0273289 0.000268301
         vertex 0.0193779 0.0273289 0.000162555
      endloop
   endfacet
   facet normal 0.986827 0 0.161782
      outer loop
         vertex 0.0193779 0.0295789 0.000162555
         vertex 0.0193779 0.0273289 0.000162555
         vertex 0.0193896 0.0273289 5.49121e-05
      endloop
   endfacet
   facet normal 0.998533 0 0.0541389
      outer loop
         vertex 0.0193896 0.0295789 5.49121e-05
         vertex 0.0193896 0.0273289 5.49121e-05
         vertex 0.0193896 0.0273289 -5.33658e-05
      endloop
   endfacet
   facet normal 0.998533 0 -0.0541389
      outer loop
         vertex 0.0193896 0.0295789 -5.33658e-05
         vertex 0.0193896 0.0273289 -5.33658e-05
         vertex 0.0193779 0.0273289 -0.000161009
      endloop
   endfacet
   facet normal 0.986827 0 -0.161782
      outer loop
         vertex 0.0193779 0.0295789 -0.000161009
         vertex 0.0193779 0.0273289 -0.000161009
         vertex 0.0193546 0.0273289 -0.000266755
      endloop
   endfacet
   facet normal 0.96355 0 -0.267528
      outer loop
         vertex 0.0193546 0.0295789 -0.000266755
         vertex 0.0193546 0.0273289 -0.000266755
         vertex 0.01932 0.0273289 -0.000369365
      endloop
   endfacet
   facet normal 0.928977 0 -0.370138
      outer loop
         vertex 0.01932 0.0295789 -0.000369365
         vertex 0.01932 0.0273289 -0.000369365
         vertex 0.0192746 0.0273289 -0.000467635
      endloop
   endfacet
   facet normal 0.883512 0 -0.468408
      outer loop
         vertex 0.0192746 0.0295789 -0.000467635
         vertex 0.0192746 0.0273289 -0.000467635
         vertex 0.0192187 0.0273289 -0.000560414
      endloop
   endfacet
   facet normal 0.827689 0 -0.561187
      outer loop
         vertex 0.0192187 0.0295789 -0.000560414
         vertex 0.0192187 0.0273289 -0.000560414
         vertex 0.0191532 0.0273289 -0.000646613
      endloop
   endfacet
   facet normal 0.762162 0 -0.647386
      outer loop
         vertex 0.0191532 0.0295789 -0.000646613
         vertex 0.0191532 0.0273289 -0.000646613
         vertex 0.0190787 0.0273289 -0.000725222
      endloop
   endfacet
   facet normal 0.687699 0 -0.725995
      outer loop
         vertex 0.0190787 0.0295789 -0.000725222
         vertex 0.0190787 0.0273289 -0.000725222
         vertex 0.0189962 0.0273289 -0.00079532
      endloop
   endfacet
   facet normal 0.605174 0 -0.796093
      outer loop
         vertex 0.0189962 0.0295789 -0.00079532
         vertex 0.0189962 0.0273289 -0.00079532
         vertex 0.0189066 0.0273289 -0.000856084
      endloop
   endfacet
   facet normal 0.515554 0 -0.856857
      outer loop
         vertex 0.0189066 0.0295789 -0.000856084
         vertex 0.0189066 0.0273289 -0.000856084
         vertex 0.0188109 0.0273289 -0.000906802
      endloop
   endfacet
   facet normal 0.419889 0 -0.907575
      outer loop
         vertex 0.0188109 0.0295789 -0.000906802
         vertex 0.0188109 0.0273289 -0.000906802
         vertex 0.0187103 0.0273289 -0.00094688
      endloop
   endfacet
   facet normal 0.319302 0 -0.947653
      outer loop
         vertex 0.0187103 0.0295789 -0.00094688
         vertex 0.0187103 0.0273289 -0.00094688
         vertex 0.018606 0.0273289 -0.000975847
      endloop
   endfacet
   facet normal 0.21497 0 -0.976621
      outer loop
         vertex 0.018606 0.0295789 -0.000975847
         vertex 0.018606 0.0273289 -0.000975847
         vertex 0.0184992 0.0273289 -0.000993365
      endloop
   endfacet
   facet normal 0.108119 0 -0.994138
      outer loop
         vertex 0.0184992 0.0295789 -0.000993365
         vertex 0.0184992 0.0273289 -0.000993365
         vertex 0.018391 0.0273289 -0.000999227
      endloop
   endfacet
   facet normal 1.22465e-16 0 -1
      outer loop
         vertex 0.018391 0.0295789 -0.000999227
         vertex 0.018391 0.0273289 -0.000999227
         vertex 0.0182829 0.0273289 -0.000993365
      endloop
   endfacet
   facet normal -0.108119 0 -0.994138
      outer loop
         vertex 0.0182829 0.0295789 -0.000993365
         vertex 0.0182829 0.0273289 -0.000993365
         vertex 0.0181761 0.0273289 -0.000975847
      endloop
   endfacet
   facet normal -0.21497 0 -0.976621
      outer loop
         vertex 0.0181761 0.0295789 -0.000975847
         vertex 0.0181761 0.0273289 -0.000975847
         vertex 0.0180717 0.0273289 -0.00094688
      endloop
   endfacet
   facet normal -0.319302 0 -0.947653
      outer loop
         vertex 0.0180717 0.0295789 -0.00094688
         vertex 0.0180717 0.0273289 -0.00094688
         vertex 0.0179712 0.0273289 -0.000906802
      endloop
   endfacet
   facet normal -0.419889 0 -0.907575
      outer loop
         vertex 0.0179712 0.0295789 -0.000906802
         vertex 0.0179712 0.0273289 -0.000906802
         vertex 0.0178755 0.0273289 -0.000856084
      endloop
   endfacet
   facet normal -0.515554 0 -0.856857
      outer loop
         vertex 0.0178755 0.0295789 -0.000856084
         vertex 0.0178755 0.0273289 -0.000856084
         vertex 0.0177859 0.0273289 -0.00079532
      endloop
   endfacet
   facet normal -0.605174 0 -0.796093
      outer loop
         vertex 0.0177859 0.0295789 -0.00079532
         vertex 0.0177859 0.0273289 -0.00079532
         vertex 0.0177033 0.0273289 -0.000725222
      endloop
   endfacet
   facet normal -0.687699 0 -0.725995
      outer loop
         vertex 0.0177033 0.0295789 -0.000725222
         vertex 0.0177033 0.0273289 -0.000725222
         vertex 0.0176289 0.0273289 -0.000646613
      endloop
   endfacet
   facet normal -0.762162 0 -0.647386
      outer loop
         vertex 0.0176289 0.0295789 -0.000646613
         vertex 0.0176289 0.0273289 -0.000646613
         vertex 0.0175634 0.0273289 -0.000560414
      endloop
   endfacet
   facet normal -0.827689 0 -0.561187
      outer loop
         vertex 0.0175634 0.0295789 -0.000560414
         vertex 0.0175634 0.0273289 -0.000560414
         vertex 0.0175075 0.0273289 -0.000467635
      endloop
   endfacet
   facet normal -0.883512 0 -0.468408
      outer loop
         vertex 0.0175075 0.0295789 -0.000467635
         vertex 0.0175075 0.0273289 -0.000467635
         vertex 0.0174621 0.0273289 -0.000369365
      endloop
   endfacet
   facet normal -0.928977 0 -0.370138
      outer loop
         vertex 0.0174621 0.0295789 -0.000369365
         vertex 0.0174621 0.0273289 -0.000369365
         vertex 0.0174275 0.0273289 -0.000266755
      endloop
   endfacet
   facet normal -0.96355 0 -0.267528
      outer loop
         vertex 0.0174275 0.0295789 -0.000266755
         vertex 0.0174275 0.0273289 -0.000266755
         vertex 0.0174042 0.0273289 -0.000161009
      endloop
   endfacet
   facet normal -0.986827 0 -0.161782
      outer loop
         vertex 0.0174042 0.0295789 -0.000161009
         vertex 0.0174042 0.0273289 -0.000161009
         vertex 0.0173925 0.0273289 -5.33658e-05
      endloop
   endfacet
   facet normal -0.998533 0 -0.0541389
      outer loop
         vertex 0.0173925 0.0295789 -5.33658e-05
         vertex 0.0173925 0.0273289 -5.33658e-05
         vertex 0.0173925 0.0273289 5.49121e-05
      endloop
   endfacet
   facet normal -0.998533 0 0.0541389
      outer loop
         vertex 0.0173925 0.0295789 5.49121e-05
         vertex 0.0173925 0.0273289 5.49121e-05
         vertex 0.0174042 0.0273289 0.000162555
      endloop
   endfacet
   facet normal -0.986827 0 0.161782
      outer loop
         vertex 0.0174042 0.0295789 0.000162555
         vertex 0.0174042 0.0273289 0.000162555
         vertex 0.0174275 0.0273289 0.000268301
      endloop
   endfacet
   facet normal -0.96355 0 0.267528
      outer loop
         vertex 0.0174275 0.0295789 0.000268301
         vertex 0.0174275 0.0273289 0.000268301
         vertex 0.0174621 0.0273289 0.000370911
      endloop
   endfacet
   facet normal -0.928977 0 0.370138
      outer loop
         vertex 0.0174621 0.0295789 0.000370911
         vertex 0.0174621 0.0273289 0.000370911
         vertex 0.0175075 0.0273289 0.000469182
      endloop
   endfacet
   facet normal -0.883512 0 0.468408
      outer loop
         vertex 0.0175075 0.0295789 0.000469182
         vertex 0.0175075 0.0273289 0.000469182
         vertex 0.0175634 0.0273289 0.00056196
      endloop
   endfacet
   facet normal -0.827689 0 0.561187
      outer loop
         vertex 0.0175634 0.0295789 0.00056196
         vertex 0.0175634 0.0273289 0.00056196
         vertex 0.0176289 0.0273289 0.000648159
      endloop
   endfacet
   facet normal -0.762162 0 0.647386
      outer loop
         vertex 0.0176289 0.0295789 0.000648159
         vertex 0.0176289 0.0273289 0.000648159
         vertex 0.0177033 0.0273289 0.000726769
      endloop
   endfacet
   facet normal -0.687699 0 0.725995
      outer loop
         vertex 0.0177033 0.0295789 0.000726769
         vertex 0.0177033 0.0273289 0.000726769
         vertex 0.0177859 0.0273289 0.000796866
      endloop
   endfacet
   facet normal -0.605174 0 0.796093
      outer loop
         vertex 0.0177859 0.0295789 0.000796866
         vertex 0.0177859 0.0273289 0.000796866
         vertex 0.0178755 0.0273289 0.00085763
      endloop
   endfacet
   facet normal -0.515554 0 0.856857
      outer loop
         vertex 0.0178755 0.0295789 0.00085763
         vertex 0.0178755 0.0273289 0.00085763
         vertex 0.0179712 0.0273289 0.000908349
      endloop
   endfacet
   facet normal -0.419889 0 0.907575
      outer loop
         vertex 0.0179712 0.0295789 0.000908349
         vertex 0.0179712 0.0273289 0.000908349
         vertex 0.0180717 0.0273289 0.000948426
      endloop
   endfacet
   facet normal -0.319302 0 0.947653
      outer loop
         vertex 0.0180717 0.0295789 0.000948426
         vertex 0.0180717 0.0273289 0.000948426
         vertex 0.0181761 0.0273289 0.000977394
      endloop
   endfacet
   facet normal -0.21497 0 0.976621
      outer loop
         vertex 0.0181761 0.0295789 0.000977394
         vertex 0.0181761 0.0273289 0.000977394
         vertex 0.0182829 0.0273289 0.000994911
      endloop
   endfacet
   facet normal -0.108119 0 0.994138
      outer loop
         vertex 0.0182829 0.0295789 0.000994911
         vertex 0.0182829 0.0273289 0.000994911
         vertex 0.018391 0.0273289 0.00100077
      endloop
   endfacet
   facet normal 0 0 1
      outer loop
         vertex 0.018391 0.0273289 0.00100077
         vertex 0.018391 0.0295789 0.00100077
         vertex 0.0182829 0.0295789 0.000994911
      endloop
   endfacet
   facet normal -0.108119 0 0.994138
      outer loop
         vertex 0.0182829 0.0273289 0.000994911
         vertex 0.0182829 0.0295789 0.000994911
         vertex 0.0181761 0.0295789 0.000977394
      endloop
   endfacet
   facet normal -0.21497 0 0.976621
      outer loop
         vertex 0.0181761 0.0273289 0.000977394
         vertex 0.0181761 0.0295789 0.000977394
         vertex 0.0180717 0.0295789 0.000948426
      endloop
   endfacet
   facet normal -0.319302 0 0.947653
      outer loop
         vertex 0.0180717 0.0273289 0.000948426
         vertex 0.0180717 0.0295789 0.000948426
         vertex 0.0179712 0.0295789 0.000908349
      endloop
   endfacet
   facet normal -0.419889 0 0.907575
      outer loop
         vertex 0.0179712 0.0273289 0.000908349
         vertex 0.0179712 0.0295789 0.000908349
         vertex 0.0178755 0.0295789 0.00085763
      endloop
   endfacet
   facet normal -0.515554 0 0.856857
      outer loop
         vertex 0.0178755 0.0273289 0.00085763
         vertex 0.0178755 0.0295789 0.00085763
         vertex 0.0177859 0.0295789 0.000796866
      endloop
   endfacet
   facet normal -0.605174 0 0.796093
      outer loop
         vertex 0.0177859 0.0273289 0.000796866
         vertex 0.0177859 0.0295789 0.000796866
         vertex 0.0177033 0.0295789 0.000726769
      endloop
   endfacet
   facet normal -0.687699 0 0.725995
      outer loop
         vertex 0.0177033 0.0273289 0.000726769
         vertex 0.0177033 0.0295789 0.000726769
         vertex 0.0176289 0.0295789 0.000648159
      endloop
   endfacet
   facet normal -0.762162 0 0.647386
      outer loop
         vertex 0.0176289 0.0273289 0.000648159
         vertex 0.0176289 0.0295789 0.000648159
         vertex 0.0175634 0.0295789 0.00056196
      endloop
   endfacet
   facet normal -0.827689 0 0.561187
      outer loop
         vertex 0.0175634 0.0273289 0.00056196
         vertex 0.0175634 0.0295789 0.00056196
         vertex 0.0175075 0.0295789 0.000469182
      endloop
   endfacet
   facet normal -0.883512 0 0.468408
      outer loop
         vertex 0.0175075 0.0273289 0.000469182
         vertex 0.0175075 0.0295789 0.000469182
         vertex 0.0174621 0.0295789 0.000370911
      endloop
   endfacet
   facet normal -0.928977 0 0.370138
      outer loop
         vertex 0.0174621 0.0273289 0.000370911
         vertex 0.0174621 0.0295789 0.000370911
         vertex 0.0174275 0.0295789 0.000268301
      endloop
   endfacet
   facet normal -0.96355 0 0.267528
      outer loop
         vertex 0.0174275 0.0273289 0.000268301
         vertex 0.0174275 0.0295789 0.000268301
         vertex 0.0174042 0.0295789 0.000162555
      endloop
   endfacet
   facet normal -0.986827 0 0.161782
      outer loop
         vertex 0.0174042 0.0273289 0.000162555
         vertex 0.0174042 0.0295789 0.000162555
         vertex 0.0173925 0.0295789 5.49121e-05
      endloop
   endfacet
   facet normal -0.998533 0 0.0541389
      outer loop
         vertex 0.0173925 0.0273289 5.49121e-05
         vertex 0.0173925 0.0295789 5.49121e-05
         vertex 0.0173925 0.0295789 -5.33658e-05
      endloop
   endfacet
   facet normal -0.998533 0 -0.0541389
      outer loop
         vertex 0.0173925 0.0273289 -5.33658e-05
         vertex 0.0173925 0.0295789 -5.33658e-05
         vertex 0.0174042 0.0295789 -0.000161009
      endloop
   endfacet
   facet normal -0.986827 0 -0.161782
      outer loop
         vertex 0.0174042 0.0273289 -0.000161009
         vertex 0.0174042 0.0295789 -0.000161009
         vertex 0.0174275 0.0295789 -0.000266755
      endloop
   endfacet
   facet normal -0.96355 0 -0.267528
      outer loop
         vertex 0.0174275 0.0273289 -0.000266755
         vertex 0.0174275 0.0295789 -0.000266755
         vertex 0.0174621 0.0295789 -0.000369365
      endloop
   endfacet
   facet normal -0.928977 0 -0.370138
      outer loop
         vertex 0.0174621 0.0273289 -0.000369365
         vertex 0.0174621 0.0295789 -0.000369365
         vertex 0.0175075 0.0295789 -0.000467635
      endloop
   endfacet
   facet normal -0.883512 0 -0.468408
      outer loop
         vertex 0.0175075 0.0273289 -0.000467635
         vertex 0.0175075 0.0295789 -0.000467635
         vertex 0.0175634 0.0295789 -0.000560414
      endloop
   endfacet
   facet normal -0.827689 0 -0.561187
      outer loop
         vertex 0.0175634 0.0273289 -0.000560414
         vertex 0.0175634 0.0295789 -0.000560414
         vertex 0.0176289 0.0295789 -0.000646613
      endloop
   endfacet
   facet normal -0.762162 0 -0.647386
      outer loop
         vertex 0.0176289 0.0273289 -0.000646613
         vertex 0.0176289 0.0295789 -0.000646613
         vertex 0.0177033 0.0295789 -0.000725222
      endloop
   endfacet
   facet normal -0.687699 0 -0.725995
      outer loop
         vertex 0.0177033 0.0273289 -0.000725222
         vertex 0.0177033 0.0295789 -0.000725222
         vertex 0.0177859 0.0295789 -0.00079532
      endloop
   endfacet
   facet normal -0.605174 0 -0.796093
      outer loop
         vertex 0.0177859 0.0273289 -0.00079532
         vertex 0.0177859 0.0295789 -0.00079532
         vertex 0.0178755 0.0295789 -0.000856084
      endloop
   endfacet
   facet normal -0.515554 0 -0.856857
      outer loop
         vertex 0.0178755 0.0273289 -0.000856084
         vertex 0.0178755 0.0295789 -0.000856084
         vertex 0.0179712 0.0295789 -0.000906802
      endloop
   endfacet
   facet normal -0.419889 0 -0.907575
      outer loop
         vertex 0.0179712 0.0273289 -0.000906802
         vertex 0.0179712 0.0295789 -0.000906802
         vertex 0.0180717 0.0295789 -0.00094688
      endloop
   endfacet
   facet normal -0.319302 0 -0.947653
      outer loop
         vertex 0.0180717 0.0273289 -0.00094688
         vertex 0.0180717 0.0295789 -0.00094688
         vertex 0.0181761 0.0295789 -0.000975847
      endloop
   endfacet
   facet normal -0.21497 0 -0.976621
      outer loop
         vertex 0.0181761 0.0273289 -0.000975847
         vertex 0.0181761 0.0295789 -0.000975847
         vertex 0.0182829 0.0295789 -0.000993365
      endloop
   endfacet
   facet normal -0.108119 0 -0.994138
      outer loop
         vertex 0.0182829 0.0273289 -0.000993365
         vertex 0.0182829 0.0295789 -0.000993365
         vertex 0.018391 0.0295789 -0.000999227
      endloop
   endfacet
   facet normal 1.22465e-16 0 -1
      outer loop
         vertex 0.018391 0.0273289 -0.000999227
         vertex 0.018391 0.0295789 -0.000999227
         vertex 0.0184992 0.0295789 -0.000993365
      endloop
   endfacet
   facet normal 0.108119 0 -0.994138
      outer loop
         vertex 0.0184992 0.0273289 -0.000993365
         vertex 0.0184992 0.0295789 -0.000993365
         vertex 0.018606 0.0295789 -0.000975847
      endloop
   endfacet
   facet normal 0.21497 0 -0.976621
      outer loop
         vertex 0.018606 0.0273289 -0.000975847
         vertex 0.018606 0.0295789 -0.000975847
         vertex 0.0187103 0.0295789 -0.00094688
      endloop
   endfacet
   facet normal 0.319302 0 -0.947653
      outer loop
         vertex 0.0187103 0.0273289 -0.00094688
         vertex 0.0187103 0.0295789 -0.00094688
         vertex 0.0188109 0.0295789 -0.000906802
      endloop
   endfacet
   facet normal 0.419889 0 -0.907575
      outer loop
         vertex 0.0188109 0.0273289 -0.000906802
         vertex 0.0188109 0.0295789 -0.000906802
         vertex 0.0189066 0.0295789 -0.000856084
      endloop
   endfacet
   facet normal 0.515554 0 -0.856857
      outer loop
         vertex 0.0189066 0.0273289 -0.000856084
         vertex 0.0189066 0.0295789 -0.000856084
         vertex 0.0189962 0.0295789 -0.00079532
      endloop
   endfacet
   facet normal 0.605174 0 -0.796093
      outer loop
         vertex 0.0189962 0.0273289 -0.00079532
         vertex 0.0189962 0.0295789 -0.00079532
         vertex 0.0190787 0.0295789 -0.000725222
      endloop
   endfacet
   facet normal 0.687699 0 -0.725995
      outer loop
         vertex 0.0190787 0.0273289 -0.000725222
         vertex 0.0190787 0.0295789 -0.000725222
         vertex 0.0191532 0.0295789 -0.000646613
      endloop
   endfacet
   facet normal 0.762162 0 -0.647386
      outer loop
         vertex 0.0191532 0.0273289 -0.000646613
         vertex 0.0191532 0.0295789 -0.000646613
         vertex 0.0192187 0.0295789 -0.000560414
      endloop
   endfacet
   facet normal 0.827689 0 -0.561187
      outer loop
         vertex 0.0192187 0.0273289 -0.000560414
         vertex 0.0192187 0.0295789 -0.000560414
         vertex 0.0192746 0.0295789 -0.000467635
      endloop
   endfacet
   facet normal 0.883512 0 -0.468408
      outer loop
         vertex 0.0192746 0.0273289 -0.000467635
         vertex 0.0192746 0.0295789 -0.000467635
         vertex 0.01932 0.0295789 -0.000369365
      endloop
   endfacet
   facet normal 0.928977 0 -0.370138
      outer loop
         vertex 0.01932 0.0273289 -0.000369365
         vertex 0.01932 0.0295789 -0.000369365
         vertex 0.0193546 0.0295789 -0.000266755
      endloop
   endfacet
   facet normal 0.96355 0 -0.267528
      outer loop
         vertex 0.0193546 0.0273289 -0.000266755
         vertex 0.0193546 0.0295789 -0.000266755
         vertex 0.0193779 0.0295789 -0.000161009
      endloop
   endfacet
   facet normal 0.986827 0 -0.161782
      outer loop
         vertex 0.0193779 0.0273289 -0.000161009
         vertex 0.0193779 0.0295789 -0.000161009
         vertex 0.0193896 0.0295789 -5.33658e-05
      endloop
   endfacet
   facet normal 0.998533 0 -0.0541389
      outer loop
         vertex 0.0193896 0.0273289 -5.33658e-05
         vertex 0.0193896 0.0295789 -5.33658e-05
         vertex 0.0193896 0.0295789 5.49121e-05
      endloop
   endfacet
   facet normal 0.998533 0 0.0541389
      outer loop
         vertex 0.0193896 0.0273289 5.49121e-05
         vertex 0.0193896 0.0295789 5.49121e-05
         vertex 0.0193779 0.0295789 0.000162555
      endloop
   endfacet
   facet normal 0.986827 0 0.161782
      outer loop
         vertex 0.0193779 0.0273289 0.000162555
         vertex 0.0193779 0.0295789 0.000162555
         vertex 0.0193546 0.0295789 0.000268301
      endloop
   endfacet
   facet normal 0.96355 0 0.267528
      outer loop
         vertex 0.0193546 0.0273289 0.000268301
         vertex 0.0193546 0.0295789 0.000268301
         vertex 0.01932 0.0295789 0.000370911
      endloop
   endfacet
   facet normal 0.928977 0 0.370138
      outer loop
         vertex 0.01932 0.0273289 0.000370911
         vertex 0.01932 0.0295789 0.000370911
         vertex 0.0192746 0.0295789 0.000469182
      endloop
   endfacet
   facet normal 0.883512 0 0.468408
      outer loop
         vertex 0.0192746 0.0273289 0.000469182
         vertex 0.0192746 0.0295789 0.000469182
         vertex 0.0192187 0.0295789 0.00056196
      endloop
   endfacet
   facet normal 0.827689 0 0.561187
      outer loop
         vertex 0.0192187 0.0273289 0.00056196
         vertex 0.0192187 0.0295789 0.00056196
         vertex 0.0191532 0.0295789 0.000648159
      endloop
   endfacet
   facet normal 0.762162 0 0.647386
      outer loop
         vertex 0.0191532 0.0273289 0.000648159
         vertex 0.0191532 0.0295789 0.000648159
         vertex 0.0190787 0.0295789 0.000726769
      endloop
   endfacet
   facet normal 0.687699 0 0.725995
      outer loop
         vertex 0.0190787 0.0273289 0.000726769
         vertex 0.0190787 0.0295789 0.000726769
         vertex 0.0189962 0.0295789 0.000796866
      endloop
   endfacet
   facet normal 0.605174 0 0.796093
      outer loop
         vertex 0.0189962 0.0273289 0.000796866
         vertex 0.0189962 0.0295789 0.000796866
         vertex 0.0189066 0.0295789 0.00085763
      endloop
   endfacet
   facet normal 0.515554 0 0.856857
      outer loop
         vertex 0.0189066 0.0273289 0.00085763
         vertex 0.0189066 0.0295789 0.00085763
         vertex 0.0188109 0.0295789 0.000908349
      endloop
   endfacet
   facet normal 0.419889 0 0.907575
      outer loop
         vertex 0.0188109 0.0273289 0.000908349
         vertex 0.0188109 0.0295789 0.000908349
         vertex 0.0187103 0.0295789 0.000948426
      endloop
   endfacet
   facet normal 0.319302 0 0.947653
      outer loop
         vertex 0.0187103 0.0273289 0.000948426
         vertex 0.0187103 0.0295789 0.000948426
         vertex 0.018606 0.0295789 0.000977394
      endloop
   endfacet
   facet normal 0.21497 0 0.976621
      outer loop
         vertex 0.018606 0.0273289 0.000977394
         vertex 0.018606 0.0295789 0.000977394
         vertex 0.0184992 0.0295789 0.000994911
      endloop
   endfacet
   facet normal 0.108119 0 0.994138
      outer loop
         vertex 0.0184992 0.0273289 0.000994911
         vertex 0.0184992 0.0295789 0.000994911
         vertex 0.018391 0.0295789 0.00100077
      endloop
   endfacet
   facet normal 0 0.707107 -0.707107
      outer loop
         vertex 0.018391 0.0295789 -0.000999227
         vertex 0.018391 0.0297289 -0.000849227
         vertex 0.0184829 0.0297289 -0.000844244
      endloop
   endfacet
   facet normal 0.0764517 0.707107 -0.702962
      outer loop
         vertex 0.0184992 0.0295789 -0.000993365
         vertex 0.0184829 0.0297289 -0.000844244
         vertex 0.0185738 0.0297289 -0.000829354
      endloop
   endfacet
   facet normal 0.152007 0.707107 -0.690575
      outer loop
         vertex 0.018606 0.0295789 -0.000975847
         vertex 0.0185738 0.0297289 -0.000829354
         vertex 0.0186625 0.0297289 -0.000804732
      endloop
   endfacet
   facet normal 0.22578 0.707107 -0.670092
      outer loop
         vertex 0.0187103 0.0295789 -0.00094688
         vertex 0.0186625 0.0297289 -0.000804732
         vertex 0.018748 0.0297289 -0.000770666
      endloop
   endfacet
   facet normal 0.296906 0.707107 -0.641753
      outer loop
         vertex 0.0188109 0.0295789 -0.000906802
         vertex 0.018748 0.0297289 -0.000770666
         vertex 0.0188293 0.0297289 -0.000727555
      endloop
   endfacet
   facet normal 0.364552 0.707107 -0.60589
      outer loop
         vertex 0.0189066 0.0295789 -0.000856084
         vertex 0.0188293 0.0297289 -0.000727555
         vertex 0.0189054 0.0297289 -0.000675906
      endloop
   endfacet
   facet normal 0.427923 0.707107 -0.562923
      outer loop
         vertex 0.0189962 0.0295789 -0.00079532
         vertex 0.0189054 0.0297289 -0.000675906
         vertex 0.0189756 0.0297289 -0.000616323
      endloop
   endfacet
   facet normal 0.486277 0.707107 -0.513356
      outer loop
         vertex 0.0190787 0.0295789 -0.000725222
         vertex 0.0189756 0.0297289 -0.000616323
         vertex 0.0190389 0.0297289 -0.000549505
      endloop
   endfacet
   facet normal 0.53893 0.707107 -0.457771
      outer loop
         vertex 0.0191532 0.0295789 -0.000646613
         vertex 0.0190389 0.0297289 -0.000549505
         vertex 0.0190946 0.0297289 -0.000476236
      endloop
   endfacet
   facet normal 0.585265 0.707107 -0.396819
      outer loop
         vertex 0.0192187 0.0295789 -0.000560414
         vertex 0.0190946 0.0297289 -0.000476236
         vertex 0.019142 0.0297289 -0.000397374
      endloop
   endfacet
   facet normal 0.624737 0.707107 -0.331215
      outer loop
         vertex 0.0192746 0.0295789 -0.000467635
         vertex 0.019142 0.0297289 -0.000397374
         vertex 0.0191807 0.0297289 -0.000313844
      endloop
   endfacet
   facet normal 0.656886 0.707107 -0.261727
      outer loop
         vertex 0.01932 0.0295789 -0.000369365
         vertex 0.0191807 0.0297289 -0.000313844
         vertex 0.0192101 0.0297289 -0.000226626
      endloop
   endfacet
   facet normal 0.681333 0.707107 -0.189171
      outer loop
         vertex 0.0193546 0.0295789 -0.000266755
         vertex 0.0192101 0.0297289 -0.000226626
         vertex 0.0192298 0.0297289 -0.000136742
      endloop
   endfacet
   facet normal 0.697792 0.707107 -0.114397
      outer loop
         vertex 0.0193779 0.0295789 -0.000161009
         vertex 0.0192298 0.0297289 -0.000136742
         vertex 0.0192398 0.0297289 -4.52449e-05
      endloop
   endfacet
   facet normal 0.70607 0.707107 -0.038282
      outer loop
         vertex 0.0193896 0.0295789 -5.33658e-05
         vertex 0.0192398 0.0297289 -4.52449e-05
         vertex 0.0192398 0.0297289 4.67912e-05
      endloop
   endfacet
   facet normal 0.70607 0.707107 0.038282
      outer loop
         vertex 0.0193896 0.0295789 5.49121e-05
         vertex 0.0192398 0.0297289 4.67912e-05
         vertex 0.0192298 0.0297289 0.000138288
      endloop
   endfacet
   facet normal 0.697792 0.707107 0.114397
      outer loop
         vertex 0.0193779 0.0295789 0.000162555
         vertex 0.0192298 0.0297289 0.000138288
         vertex 0.0192101 0.0297289 0.000228172
      endloop
   endfacet
   facet normal 0.681333 0.707107 0.189171
      outer loop
         vertex 0.0193546 0.0295789 0.000268301
         vertex 0.0192101 0.0297289 0.000228172
         vertex 0.0191807 0.0297289 0.000315391
      endloop
   endfacet
   facet normal 0.656886 0.707107 0.261727
      outer loop
         vertex 0.01932 0.0295789 0.000370911
         vertex 0.0191807 0.0297289 0.000315391
         vertex 0.019142 0.0297289 0.00039892
      endloop
   endfacet
   facet normal 0.624737 0.707107 0.331215
      outer loop
         vertex 0.0192746 0.0295789 0.000469182
         vertex 0.019142 0.0297289 0.00039892
         vertex 0.0190946 0.0297289 0.000477782
      endloop
   endfacet
   facet normal 0.585265 0.707107 0.396819
      outer loop
         vertex 0.0192187 0.0295789 0.00056196
         vertex 0.0190946 0.0297289 0.000477782
         vertex 0.0190389 0.0297289 0.000551051
      endloop
   endfacet
   facet normal 0.53893 0.707107 0.457771
      outer loop
         vertex 0.0191532 0.0295789 0.000648159
         vertex 0.0190389 0.0297289 0.000551051
         vertex 0.0189756 0.0297289 0.000617869
      endloop
   endfacet
   facet normal 0.486277 0.707107 0.513356
      outer loop
         vertex 0.0190787 0.0295789 0.000726769
         vertex 0.0189756 0.0297289 0.000617869
         vertex 0.0189054 0.0297289 0.000677452
      endloop
   endfacet
   facet normal 0.427923 0.707107 0.562923
      outer loop
         vertex 0.0189962 0.0295789 0.000796866
         vertex 0.0189054 0.0297289 0.000677452
         vertex 0.0188293 0.0297289 0.000729102
      endloop
   endfacet
   facet normal 0.364552 0.707107 0.60589
      outer loop
         vertex 0.0189066 0.0295789 0.00085763
         vertex 0.0188293 0.0297289 0.000729102
         vertex 0.018748 0.0297289 0.000772212
      endloop
   endfacet
   facet normal 0.296906 0.707107 0.641753
      outer loop
         vertex 0.0188109 0.0295789 0.000908349
         vertex 0.018748 0.0297289 0.000772212
         vertex 0.0186625 0.0297289 0.000806278
      endloop
   endfacet
   facet normal 0.22578 0.707107 0.670092
      outer loop
         vertex 0.0187103 0.0295789 0.000948426
         vertex 0.0186625 0.0297289 0.000806278
         vertex 0.0185738 0.0297289 0.000830901
      endloop
   endfacet
   facet normal 0.152007 0.707107 0.690575
      outer loop
         vertex 0.018606 0.0295789 0.000977394
         vertex 0.0185738 0.0297289 0.000830901
         vertex 0.0184829 0.0297289 0.00084579
      endloop
   endfacet
   facet normal 0.0764517 0.707107 0.702962
      outer loop
         vertex 0.0184992 0.0295789 0.000994911
         vertex 0.0184829 0.0297289 0.00084579
         vertex 0.018391 0.0297289 0.000850773
      endloop
   endfacet
   facet normal -1.47196e-16 0.707107 0.707107
      outer loop
         vertex 0.018391 0.0295789 0.00100077
         vertex 0.018391 0.0297289 0.000850773
         vertex 0.0182991 0.0297289 0.00084579
      endloop
   endfacet
   facet normal -0.0764517 0.707107 0.702962
      outer loop
         vertex 0.0182829 0.0295789 0.000994911
         vertex 0.0182991 0.0297289 0.00084579
         vertex 0.0182083 0.0297289 0.000830901
      endloop
   endfacet
   facet normal -0.152007 0.707107 0.690575
      outer loop
         vertex 0.0181761 0.0295789 0.000977394
         vertex 0.0182083 0.0297289 0.000830901
         vertex 0.0181196 0.0297289 0.000806278
      endloop
   endfacet
   facet normal -0.22578 0.707107 0.670092
      outer loop
         vertex 0.0180717 0.0295789 0.000948426
         vertex 0.0181196 0.0297289 0.000806278
         vertex 0.0180341 0.0297289 0.000772212
      endloop
   endfacet
   facet normal -0.296906 0.707107 0.641753
      outer loop
         vertex 0.0179712 0.0295789 0.000908349
         vertex 0.0180341 0.0297289 0.000772212
         vertex 0.0179528 0.0297289 0.000729102
      endloop
   endfacet
   facet normal -0.364552 0.707107 0.60589
      outer loop
         vertex 0.0178755 0.0295789 0.00085763
         vertex 0.0179528 0.0297289 0.000729102
         vertex 0.0178766 0.0297289 0.000677452
      endloop
   endfacet
   facet normal -0.427923 0.707107 0.562923
      outer loop
         vertex 0.0177859 0.0295789 0.000796866
         vertex 0.0178766 0.0297289 0.000677452
         vertex 0.0178065 0.0297289 0.000617869
      endloop
   endfacet
   facet normal -0.486277 0.707107 0.513356
      outer loop
         vertex 0.0177033 0.0295789 0.000726769
         vertex 0.0178065 0.0297289 0.000617869
         vertex 0.0177432 0.0297289 0.000551051
      endloop
   endfacet
   facet normal -0.53893 0.707107 0.457771
      outer loop
         vertex 0.0176289 0.0295789 0.000648159
         vertex 0.0177432 0.0297289 0.000551051
         vertex 0.0176875 0.0297289 0.000477782
      endloop
   endfacet
   facet normal -0.585265 0.707107 0.396819
      outer loop
         vertex 0.0175634 0.0295789 0.00056196
         vertex 0.0176875 0.0297289 0.000477782
         vertex 0.0176401 0.0297289 0.00039892
      endloop
   endfacet
   facet normal -0.624737 0.707107 0.331215
      outer loop
         vertex 0.0175075 0.0295789 0.000469182
         vertex 0.0176401 0.0297289 0.00039892
         vertex 0.0176014 0.0297289 0.000315391
      endloop
   endfacet
   facet normal -0.656886 0.707107 0.261727
      outer loop
         vertex 0.0174621 0.0295789 0.000370911
         vertex 0.0176014 0.0297289 0.000315391
         vertex 0.017572 0.0297289 0.000228172
      endloop
   endfacet
   facet normal -0.681333 0.707107 0.189171
      outer loop
         vertex 0.0174275 0.0295789 0.000268301
         vertex 0.017572 0.0297289 0.000228172
         vertex 0.0175522 0.0297289 0.000138288
      endloop
   endfacet
   facet normal -0.697792 0.707107 0.114397
      outer loop
         vertex 0.0174042 0.0295789 0.000162555
         vertex 0.0175522 0.0297289 0.000138288
         vertex 0.0175423 0.0297289 4.67912e-05
      endloop
   endfacet
   facet normal -0.70607 0.707107 0.038282
      outer loop
         vertex 0.0173925 0.0295789 5.49121e-05
         vertex 0.0175423 0.0297289 4.67912e-05
         vertex 0.0175423 0.0297289 -4.52449e-05
      endloop
   endfacet
   facet normal -0.70607 0.707107 -0.038282
      outer loop
         vertex 0.0173925 0.0295789 -5.33658e-05
         vertex 0.0175423 0.0297289 -4.52449e-05
         vertex 0.0175522 0.0297289 -0.000136742
      endloop
   endfacet
   facet normal -0.697792 0.707107 -0.114397
      outer loop
         vertex 0.0174042 0.0295789 -0.000161009
         vertex 0.0175522 0.0297289 -0.000136742
         vertex 0.017572 0.0297289 -0.000226626
      endloop
   endfacet
   facet normal -0.681333 0.707107 -0.189171
      outer loop
         vertex 0.0174275 0.0295789 -0.000266755
         vertex 0.017572 0.0297289 -0.000226626
         vertex 0.0176014 0.0297289 -0.000313844
      endloop
   endfacet
   facet normal -0.656886 0.707107 -0.261727
      outer loop
         vertex 0.0174621 0.0295789 -0.000369365
         vertex 0.0176014 0.0297289 -0.000313844
         vertex 0.0176401 0.0297289 -0.000397374
      endloop
   endfacet
   facet normal -0.624737 0.707107 -0.331215
      outer loop
         vertex 0.0175075 0.0295789 -0.000467635
         vertex 0.0176401 0.0297289 -0.000397374
         vertex 0.0176875 0.0297289 -0.000476236
      endloop
   endfacet
   facet normal -0.585265 0.707107 -0.396819
      outer loop
         vertex 0.0175634 0.0295789 -0.000560414
         vertex 0.0176875 0.0297289 -0.000476236
         vertex 0.0177432 0.0297289 -0.000549505
      endloop
   endfacet
   facet normal -0.53893 0.707107 -0.457771
      outer loop
         vertex 0.0176289 0.0295789 -0.000646613
         vertex 0.0177432 0.0297289 -0.000549505
         vertex 0.0178065 0.0297289 -0.000616323
      endloop
   endfacet
   facet normal -0.486277 0.707107 -0.513356
      outer loop
         vertex 0.0177033 0.0295789 -0.000725222
         vertex 0.0178065 0.0297289 -0.000616323
         vertex 0.0178766 0.0297289 -0.000675906
      endloop
   endfacet
   facet normal -0.427923 0.707107 -0.562923
      outer loop
         vertex 0.0177859 0.0295789 -0.00079532
         vertex 0.0178766 0.0297289 -0.000675906
         vertex 0.0179528 0.0297289 -0.000727555
      endloop
   endfacet
   facet normal -0.364552 0.707107 -0.60589
      outer loop
         vertex 0.0178755 0.0295789 -0.000856084
         vertex 0.0179528 0.0297289 -0.000727555
         vertex 0.0180341 0.0297289 -0.000770666
      endloop
   endfacet
   facet normal -0.296906 0.707107 -0.641753
      outer loop
         vertex 0.0179712 0.0295789 -0.000906802
         vertex 0.0180341 0.0297289 -0.000770666
         vertex 0.0181196 0.0297289 -0.000804732
      endloop
   endfacet
   facet normal -0.22578 0.707107 -0.670092
      outer loop
         vertex 0.0180717 0.0295789 -0.00094688
         vertex 0.0181196 0.0297289 -0.000804732
         vertex 0.0182083 0.0297289 -0.000829354
      endloop
   endfacet
   facet normal -0.152007 0.707107 -0.690575
      outer loop
         vertex 0.0181761 0.0295789 -0.000975847
         vertex 0.0182083 0.0297289 -0.000829354
         vertex 0.0182991 0.0297289 -0.000844244
      endloop
   endfacet
   facet normal -0.0764517 0.707107 -0.702962
      outer loop
         vertex 0.0182829 0.0295789 -0.000993365
         vertex 0.0182991 0.0297289 -0.000844244
         vertex 0.018391 0.0297289 -0.000849227
      endloop
   endfacet
   facet normal 0 0.707107 -0.707107
      outer loop
         vertex 0.018391 0.0297289 -0.000849227
         vertex 0.018391 0.0295789 -0.000999227
         vertex 0.0182829 0.0295789 -0.000993365
      endloop
   endfacet
   facet normal -0.0764517 0.707107 -0.702962
      outer loop
         vertex 0.0182991 0.0297289 -0.000844244
         vertex 0.0182829 0.0295789 -0.000993365
         vertex 0.0181761 0.0295789 -0.000975847
      endloop
   endfacet
   facet normal -0.152007 0.707107 -0.690575
      outer loop
         vertex 0.0182083 0.0297289 -0.000829354
         vertex 0.0181761 0.0295789 -0.000975847
         vertex 0.0180717 0.0295789 -0.00094688
      endloop
   endfacet
   facet normal -0.22578 0.707107 -0.670092
      outer loop
         vertex 0.0181196 0.0297289 -0.000804732
         vertex 0.0180717 0.0295789 -0.00094688
         vertex 0.0179712 0.0295789 -0.000906802
      endloop
   endfacet
   facet normal -0.296906 0.707107 -0.641753
      outer loop
         vertex 0.0180341 0.0297289 -0.000770666
         vertex 0.0179712 0.0295789 -0.000906802
         vertex 0.0178755 0.0295789 -0.000856084
      endloop
   endfacet
   facet normal -0.364552 0.707107 -0.60589
      outer loop
         vertex 0.0179528 0.0297289 -0.000727555
         vertex 0.0178755 0.0295789 -0.000856084
         vertex 0.0177859 0.0295789 -0.00079532
      endloop
   endfacet
   facet normal -0.427923 0.707107 -0.562923
      outer loop
         vertex 0.0178766 0.0297289 -0.000675906
         vertex 0.0177859 0.0295789 -0.00079532
         vertex 0.0177033 0.0295789 -0.000725222
      endloop
   endfacet
   facet normal -0.486277 0.707107 -0.513356
      outer loop
         vertex 0.0178065 0.0297289 -0.000616323
         vertex 0.0177033 0.0295789 -0.000725222
         vertex 0.0176289 0.0295789 -0.000646613
      endloop
   endfacet
   facet normal -0.53893 0.707107 -0.457771
      outer loop
         vertex 0.0177432 0.0297289 -0.000549505
         vertex 0.0176289 0.0295789 -0.000646613
         vertex 0.0175634 0.0295789 -0.000560414
      endloop
   endfacet
   facet normal -0.585265 0.707107 -0.396819
      outer loop
         vertex 0.0176875 0.0297289 -0.000476236
         vertex 0.0175634 0.0295789 -0.000560414
         vertex 0.0175075 0.0295789 -0.000467635
      endloop
   endfacet
   facet normal -0.624737 0.707107 -0.331215
      outer loop
         vertex 0.0176401 0.0297289 -0.000397374
         vertex 0.0175075 0.0295789 -0.000467635
         vertex 0.0174621 0.0295789 -0.000369365
      endloop
   endfacet
   facet normal -0.656886 0.707107 -0.261727
      outer loop
         vertex 0.0176014 0.0297289 -0.000313844
         vertex 0.0174621 0.0295789 -0.000369365
         vertex 0.0174275 0.0295789 -0.000266755
      endloop
   endfacet
   facet normal -0.681333 0.707107 -0.189171
      outer loop
         vertex 0.017572 0.0297289 -0.000226626
         vertex 0.0174275 0.0295789 -0.000266755
         vertex 0.0174042 0.0295789 -0.000161009
      endloop
   endfacet
   facet normal -0.697792 0.707107 -0.114397
      outer loop
         vertex 0.0175522 0.0297289 -0.000136742
         vertex 0.0174042 0.0295789 -0.000161009
         vertex 0.0173925 0.0295789 -5.33658e-05
      endloop
   endfacet
   facet normal -0.70607 0.707107 -0.038282
      outer loop
         vertex 0.0175423 0.0297289 -4.52449e-05
         vertex 0.0173925 0.0295789 -5.33658e-05
         vertex 0.0173925 0.0295789 5.49121e-05
      endloop
   endfacet
   facet normal -0.70607 0.707107 0.038282
      outer loop
         vertex 0.0175423 0.0297289 4.67912e-05
         vertex 0.0173925 0.0295789 5.49121e-05
         vertex 0.0174042 0.0295789 0.000162555
      endloop
   endfacet
   facet normal -0.697792 0.707107 0.114397
      outer loop
         vertex 0.0175522 0.0297289 0.000138288
         vertex 0.0174042 0.0295789 0.000162555
         vertex 0.0174275 0.0295789 0.000268301
      endloop
   endfacet
   facet normal -0.681333 0.707107 0.189171
      outer loop
         vertex 0.017572 0.0297289 0.000228172
         vertex 0.0174275 0.0295789 0.000268301
         vertex 0.0174621 0.0295789 0.000370911
      endloop
   endfacet
   facet normal -0.656886 0.707107 0.261727
      outer loop
         vertex 0.0176014 0.0297289 0.000315391
         vertex 0.0174621 0.0295789 0.000370911
         vertex 0.0175075 0.0295789 0.000469182
      endloop
   endfacet
   facet normal -0.624737 0.707107 0.331215
      outer loop
         vertex 0.0176401 0.0297289 0.00039892
         vertex 0.0175075 0.0295789 0.000469182
         vertex 0.0175634 0.0295789 0.00056196
      endloop
   endfacet
   facet normal -0.585265 0.707107 0.396819
      outer loop
         vertex 0.0176875 0.0297289 0.000477782
         vertex 0.0175634 0.0295789 0.00056196
         vertex 0.0176289 0.0295789 0.000648159
      endloop
   endfacet
   facet normal -0.53893 0.707107 0.457771
      outer loop
         vertex 0.0177432 0.0297289 0.000551051
         vertex 0.0176289 0.0295789 0.000648159
         vertex 0.0177033 0.0295789 0.000726769
      endloop
   endfacet
   facet normal -0.486277 0.707107 0.513356
      outer loop
         vertex 0.0178065 0.0297289 0.000617869
         vertex 0.0177033 0.0295789 0.000726769
         vertex 0.0177859 0.0295789 0.000796866
      endloop
   endfacet
   facet normal -0.427923 0.707107 0.562923
      outer loop
         vertex 0.0178766 0.0297289 0.000677452
         vertex 0.0177859 0.0295789 0.000796866
         vertex 0.0178755 0.0295789 0.00085763
      endloop
   endfacet
   facet normal -0.364552 0.707107 0.60589
      outer loop
         vertex 0.0179528 0.0297289 0.000729102
         vertex 0.0178755 0.0295789 0.00085763
         vertex 0.0179712 0.0295789 0.000908349
      endloop
   endfacet
   facet normal -0.296906 0.707107 0.641753
      outer loop
         vertex 0.0180341 0.0297289 0.000772212
         vertex 0.0179712 0.0295789 0.000908349
         vertex 0.0180717 0.0295789 0.000948426
      endloop
   endfacet
   facet normal -0.22578 0.707107 0.670092
      outer loop
         vertex 0.0181196 0.0297289 0.000806278
         vertex 0.0180717 0.0295789 0.000948426
         vertex 0.0181761 0.0295789 0.000977394
      endloop
   endfacet
   facet normal -0.152007 0.707107 0.690575
      outer loop
         vertex 0.0182083 0.0297289 0.000830901
         vertex 0.0181761 0.0295789 0.000977394
         vertex 0.0182829 0.0295789 0.000994911
      endloop
   endfacet
   facet normal -0.0764517 0.707107 0.702962
      outer loop
         vertex 0.0182991 0.0297289 0.00084579
         vertex 0.0182829 0.0295789 0.000994911
         vertex 0.018391 0.0295789 0.00100077
      endloop
   endfacet
   facet normal -1.47196e-16 0.707107 0.707107
      outer loop
         vertex 0.018391 0.0297289 0.000850773
         vertex 0.018391 0.0295789 0.00100077
         vertex 0.0184992 0.0295789 0.000994911
      endloop
   endfacet
   facet normal 0.0764517 0.707107 0.702962
      outer loop
         vertex 0.0184829 0.0297289 0.00084579
         vertex 0.0184992 0.0295789 0.000994911
         vertex 0.018606 0.0295789 0.000977394
      endloop
   endfacet
   facet normal 0.152007 0.707107 0.690575
      outer loop
         vertex 0.0185738 0.0297289 0.000830901
         vertex 0.018606 0.0295789 0.000977394
         vertex 0.0187103 0.0295789 0.000948426
      endloop
   endfacet
   facet normal 0.22578 0.707107 0.670092
      outer loop
         vertex 0.0186625 0.0297289 0.000806278
         vertex 0.0187103 0.0295789 0.000948426
         vertex 0.0188109 0.0295789 0.000908349
      endloop
   endfacet
   facet normal 0.296906 0.707107 0.641753
      outer loop
         vertex 0.018748 0.0297289 0.000772212
         vertex 0.0188109 0.0295789 0.000908349
         vertex 0.0189066 0.0295789 0.00085763
      endloop
   endfacet
   facet normal 0.364552 0.707107 0.60589
      outer loop
         vertex 0.0188293 0.0297289 0.000729102
         vertex 0.0189066 0.0295789 0.00085763
         vertex 0.0189962 0.0295789 0.000796866
      endloop
   endfacet
   facet normal 0.427923 0.707107 0.562923
      outer loop
         vertex 0.0189054 0.0297289 0.000677452
         vertex 0.0189962 0.0295789 0.000796866
         vertex 0.0190787 0.0295789 0.000726769
      endloop
   endfacet
   facet normal 0.486277 0.707107 0.513356
      outer loop
         vertex 0.0189756 0.0297289 0.000617869
         vertex 0.0190787 0.0295789 0.000726769
         vertex 0.0191532 0.0295789 0.000648159
      endloop
   endfacet
   facet normal 0.53893 0.707107 0.457771
      outer loop
         vertex 0.0190389 0.0297289 0.000551051
         vertex 0.0191532 0.0295789 0.000648159
         vertex 0.0192187 0.0295789 0.00056196
      endloop
   endfacet
   facet normal 0.585265 0.707107 0.396819
      outer loop
         vertex 0.0190946 0.0297289 0.000477782
         vertex 0.0192187 0.0295789 0.00056196
         vertex 0.0192746 0.0295789 0.000469182
      endloop
   endfacet
   facet normal 0.624737 0.707107 0.331215
      outer loop
         vertex 0.019142 0.0297289 0.00039892
         vertex 0.0192746 0.0295789 0.000469182
         vertex 0.01932 0.0295789 0.000370911
      endloop
   endfacet
   facet normal 0.656886 0.707107 0.261727
      outer loop
         vertex 0.0191807 0.0297289 0.000315391
         vertex 0.01932 0.0295789 0.000370911
         vertex 0.0193546 0.0295789 0.000268301
      endloop
   endfacet
   facet normal 0.681333 0.707107 0.189171
      outer loop
         vertex 0.0192101 0.0297289 0.000228172
         vertex 0.0193546 0.0295789 0.000268301
         vertex 0.0193779 0.0295789 0.000162555
      endloop
   endfacet
   facet normal 0.697792 0.707107 0.114397
      outer loop
         vertex 0.0192298 0.0297289 0.000138288
         vertex 0.0193779 0.0295789 0.000162555
         vertex 0.0193896 0.0295789 5.49121e-05
      endloop
   endfacet
   facet normal 0.70607 0.707107 0.038282
      outer loop
         vertex 0.0192398 0.0297289 4.67912e-05
         vertex 0.0193896 0.0295789 5.49121e-05
         vertex 0.0193896 0.0295789 -5.33658e-05
      endloop
   endfacet
   facet normal 0.70607 0.707107 -0.038282
      outer loop
         vertex 0.0192398 0.0297289 -4.52449e-05
         vertex 0.0193896 0.0295789 -5.33658e-05
         vertex 0.0193779 0.0295789 -0.000161009
      endloop
   endfacet
   facet normal 0.697792 0.707107 -0.114397
      outer loop
         vertex 0.0192298 0.0297289 -0.000136742
         vertex 0.0193779 0.0295789 -0.000161009
         vertex 0.0193546 0.0295789 -0.000266755
      endloop
   endfacet
   facet normal 0.681333 0.707107 -0.189171
      outer loop
         vertex 0.0192101 0.0297289 -0.000226626
         vertex 0.0193546 0.0295789 -0.000266755
         vertex 0.01932 0.0295789 -0.000369365
      endloop
   endfacet
   facet normal 0.656886 0.707107 -0.261727
      outer loop
         vertex 0.0191807 0.0297289 -0.000313844
         vertex 0.01932 0.0295789 -0.000369365
         vertex 0.0192746 0.0295789 -0.000467635
      endloop
   endfacet
   facet normal 0.624737 0.707107 -0.331215
      outer loop
         vertex 0.019142 0.0297289 -0.000397374
         vertex 0.0192746 0.0295789 -0.000467635
         vertex 0.0192187 0.0295789 -0.000560414
      endloop
   endfacet
   facet normal 0.585265 0.707107 -0.396819
      outer loop
         vertex 0.0190946 0.0297289 -0.000476236
         vertex 0.0192187 0.0295789 -0.000560414
         vertex 0.0191532 0.0295789 -0.000646613
      endloop
   endfacet
   facet normal 0.53893 0.707107 -0.457771
      outer loop
         vertex 0.0190389 0.0297289 -0.000549505
         vertex 0.0191532 0.0295789 -0.000646613
         vertex 0.0190787 0.0295789 -0.000725222
      endloop
   endfacet
   facet normal 0.486277 0.707107 -0.513356
      outer loop
         vertex 0.0189756 0.0297289 -0.000616323
         vertex 0.0190787 0.0295789 -0.000725222
         vertex 0.0189962 0.0295789 -0.00079532
      endloop
   endfacet
   facet normal 0.427923 0.707107 -0.562923
      outer loop
         vertex 0.0189054 0.0297289 -0.000675906
         vertex 0.0189962 0.0295789 -0.00079532
         vertex 0.0189066 0.0295789 -0.000856084
      endloop
   endfacet
   facet normal 0.364552 0.707107 -0.60589
      outer loop
         vertex 0.0188293 0.0297289 -0.000727555
         vertex 0.0189066 0.0295789 -0.000856084
         vertex 0.0188109 0.0295789 -0.000906802
      endloop
   endfacet
   facet normal 0.296906 0.707107 -0.641753
      outer loop
         vertex 0.018748 0.0297289 -0.000770666
         vertex 0.0188109 0.0295789 -0.000906802
         vertex 0.0187103 0.0295789 -0.00094688
      endloop
   endfacet
   facet normal 0.22578 0.707107 -0.670092
      outer loop
         vertex 0.0186625 0.0297289 -0.000804732
         vertex 0.0187103 0.0295789 -0.00094688
         vertex 0.018606 0.0295789 -0.000975847
      endloop
   endfacet
   facet normal 0.152007 0.707107 -0.690575
      outer loop
         vertex 0.0185738 0.0297289 -0.000829354
         vertex 0.018606 0.0295789 -0.000975847
         vertex 0.0184992 0.0295789 -0.000993365
      endloop
   endfacet
   facet normal 0.0764517 0.707107 -0.702962
      outer loop
         vertex 0.0184829 0.0297289 -0.000844244
         vertex 0.0184992 0.0295789 -0.000993365
         vertex 0.018391 0.0295789 -0.000999227
      endloop
   endfacet
   facet normal 0 1 0
      outer loop
         vertex 0.018391 0.0297289 7.73142e-07
         vertex 0.0182991 0.0297289 -0.000844244
         vertex 0.0182083 0.0297289 -0.000829354
      endloop
   endfacet
   facet normal 0 1 0
      outer loop
         vertex 0.0182083 0.0297289 -0.000829354
         vertex 0.0181196 0.0297289 -0.000804732
         vertex 0.018391 0.0297289 7.73142e-07
      endloop
   endfacet
   facet normal 0 1 0
      outer loop
         vertex 0.0181196 0.0297289 -0.000804732
         vertex 0.0180341 0.0297289 -0.000770666
         vertex 0.018391 0.0297289 7.73142e-07
      endloop
   endfacet
   facet normal 0 1 0
      outer loop
         vertex 0.0180341 0.0297289 -0.000770666
         vertex 0.0179528 0.0297289 -0.000727555
         vertex 0.018391 0.0297289 7.73142e-07
      endloop
   endfacet
   facet normal 0 1 0
      outer loop
         vertex 0.0179528 0.0297289 -0.000727555
         vertex 0.0178766 0.0297289 -0.000675906
         vertex 0.018391 0.0297289 7.73142e-07
      endloop
   endfacet
   facet normal 0 1 0
      outer loop
         vertex 0.0178766 0.0297289 -0.000675906
         vertex 0.0178065 0.0297289 -0.000616323
         vertex 0.018391 0.0297289 7.73142e-07
      endloop
   endfacet
   facet normal 0 1 0
      outer loop
         vertex 0.0178065 0.0297289 -0.000616323
         vertex 0.0177432 0.0297289 -0.000549505
         vertex 0.018391 0.0297289 7.73142e-07
      endloop
   endfacet
   facet normal 0 1 0
      outer loop
         vertex 0.0177432 0.0297289 -0.000549505
         vertex 0.0176875 0.0297289 -0.000476236
         vertex 0.018391 0.0297289 7.73142e-07
      endloop
   endfacet
   facet normal 0 1 0
      outer loop
         vertex 0.0176875 0.0297289 -0.000476236
         vertex 0.0176401 0.0297289 -0.000397374
         vertex 0.018391 0.0297289 7.73142e-07
      endloop
   endfacet
   facet normal 0 1 0
      outer loop
         vertex 0.0176401 0.0297289 -0.000397374
         vertex 0.0176014 0.0297289 -0.000313844
         vertex 0.018391 0.0297289 7.73142e-07
      endloop
   endfacet
   facet normal 0 1 0
      outer loop
         vertex 0.0176014 0.0297289 -0.000313844
         vertex 0.017572 0.0297289 -0.000226626
         vertex 0.018391 0.0297289 7.73142e-07
      endloop
   endfacet
   facet normal 0 1 0
      outer loop
         vertex 0.017572 0.0297289 -0.000226626
         vertex 0.0175522 0.0297289 -0.000136742
         vertex 0.018391 0.0297289 7.73142e-07
      endloop
   endfacet
   facet normal 0 1 0
      outer loop
         vertex 0.0175522 0.0297289 -0.000136742
         vertex 0.0175423 0.0297289 -4.52449e-05
         vertex 0.018391 0.0297289 7.73142e-07
      endloop
   endfacet
   facet normal 0 1 0
      outer loop
         vertex 0.0175423 0.0297289 -4.52449e-05
         vertex 0.0175423 0.0297289 4.67912e-05
         vertex 0.018391 0.0297289 7.73142e-07
      endloop
   endfacet
   facet normal 0 1 0
      outer loop
         vertex 0.0175423 0.0297289 4.67912e-05
         vertex 0.0175522 0.0297289 0.000138288
         vertex 0.018391 0.0297289 7.73142e-07
      endloop
   endfacet
   facet normal 0 1 0
      outer loop
         vertex 0.0175522 0.0297289 0.000138288
         vertex 0.017572 0.0297289 0.000228172
         vertex 0.018391 0.0297289 7.73142e-07
      endloop
   endfacet
   facet normal 0 1 0
      outer loop
         vertex 0.017572 0.0297289 0.000228172
         vertex 0.0176014 0.0297289 0.000315391
         vertex 0.018391 0.0297289 7.73142e-07
      endloop
   endfacet
   facet normal 0 1 0
      outer loop
         vertex 0.0176014 0.0297289 0.000315391
         vertex 0.0176401 0.0297289 0.00039892
         vertex 0.018391 0.0297289 7.73142e-07
      endloop
   endfacet
   facet normal 0 1 0
      outer loop
         vertex 0.0176401 0.0297289 0.00039892
         vertex 0.0176875 0.0297289 0.000477782
         vertex 0.018391 0.0297289 7.73142e-07
      endloop
   endfacet
   facet normal 0 1 0
      outer loop
         vertex 0.0176875 0.0297289 0.000477782
         vertex 0.0177432 0.0297289 0.000551051
         vertex 0.018391 0.0297289 7.73142e-07
      endloop
   endfacet
   facet normal 0 1 0
      outer loop
         vertex 0.0177432 0.0297289 0.000551051
         vertex 0.0178065 0.0297289 0.000617869
         vertex 0.018391 0.0297289 7.73142e-07
      endloop
   endfacet
   facet normal 0 1 0
      outer loop
         vertex 0.0178065 0.0297289 0.000617869
         vertex 0.0178766 0.0297289 0.000677452
         vertex 0.018391 0.0297289 7.73142e-07
      endloop
   endfacet
   facet normal 0 1 0
      outer loop
         vertex 0.0178766 0.0297289 0.000677452
         vertex 0.0179528 0.0297289 0.000729102
         vertex 0.018391 0.0297289 7.73142e-07
      endloop
   endfacet
   facet normal 0 1 0
      outer loop
         vertex 0.0179528 0.0297289 0.000729102
         vertex 0.0180341 0.0297289 0.000772212
         vertex 0.018391 0.0297289 7.73142e-07
      endloop
   endfacet
   facet normal 0 1 0
      outer loop
         vertex 0.0180341 0.0297289 0.000772212
         vertex 0.0181196 0.0297289 0.000806278
         vertex 0.018391 0.0297289 7.73142e-07
      endloop
   endfacet
   facet normal 0 1 0
      outer loop
         vertex 0.0181196 0.0297289 0.000806278
         vertex 0.0182083 0.0297289 0.000830901
         vertex 0.018391 0.0297289 7.73142e-07
      endloop
   endfacet
   facet normal 0 1 0
      outer loop
         vertex 0.0182083 0.0297289 0.000830901
         vertex 0.0182991 0.0297289 0.00084579
         vertex 0.018391 0.0297289 7.73142e-07
      endloop
   endfacet
   facet normal 0 1 0
      outer loop
         vertex 0.0182991 0.0297289 0.00084579
         vertex 0.018391 0.0297289 0.000850773
         vertex 0.018391 0.0297289 7.73142e-07
      endloop
   endfacet
   facet normal 0 1 0
      outer loop
         vertex 0.018391 0.0297289 0.000850773
         vertex 0.0184829 0.0297289 0.00084579
         vertex 0.018391 0.0297289 7.73142e-07
      endloop
   endfacet
   facet normal 0 1 0
      outer loop
         vertex 0.0184829 0.0297289 0.00084579
         vertex 0.0185738 0.0297289 0.000830901
         vertex 0.018391 0.0297289 7.73142e-07
      endloop
   endfacet
   facet normal 0 1 0
      outer loop
         vertex 0.0185738 0.0297289 0.000830901
         vertex 0.0186625 0.0297289 0.000806278
         vertex 0.018391 0.0297289 7.73142e-07
      endloop
   endfacet
   facet normal 0 1 0
      outer loop
         vertex 0.0186625 0.0297289 0.000806278
         vertex 0.018748 0.0297289 0.000772212
         vertex 0.018391 0.0297289 7.73142e-07
      endloop
   endfacet
   facet normal 0 1 0
      outer loop
         vertex 0.018748 0.0297289 0.000772212
         vertex 0.0188293 0.0297289 0.000729102
         vertex 0.018391 0.0297289 7.73142e-07
      endloop
   endfacet
   facet normal 0 1 0
      outer loop
         vertex 0.0188293 0.0297289 0.000729102
         vertex 0.0189054 0.0297289 0.000677452
         vertex 0.018391 0.0297289 7.73142e-07
      endloop
   endfacet
   facet normal 0 1 0
      outer loop
         vertex 0.0189054 0.0297289 0.000677452
         vertex 0.0189756 0.0297289 0.000617869
         vertex 0.018391 0.0297289 7.73142e-07
      endloop
   endfacet
   facet normal 0 1 0
      outer loop
         vertex 0.0189756 0.0297289 0.000617869
         vertex 0.0190389 0.0297289 0.000551051
         vertex 0.018391 0.0297289 7.73142e-07
      endloop
   endfacet
   facet normal 0 1 0
      outer loop
         vertex 0.0190389 0.0297289 0.000551051
         vertex 0.0190946 0.0297289 0.000477782
         vertex 0.018391 0.0297289 7.73142e-07
      endloop
   endfacet
   facet normal 0 1 0
      outer loop
         vertex 0.0190946 0.0297289 0.000477782
         vertex 0.019142 0.0297289 0.00039892
         vertex 0.018391 0.0297289 7.73142e-07
      endloop
   endfacet
   facet normal 0 1 0
      outer loop
         vertex 0.019142 0.0297289 0.00039892
         vertex 0.0191807 0.0297289 0.000315391
         vertex 0.018391 0.0297289 7.73142e-07
      endloop
   endfacet
   facet normal 0 1 0
      outer loop
         vertex 0.0191807 0.0297289 0.000315391
         vertex 0.0192101 0.0297289 0.000228172
         vertex 0.018391 0.0297289 7.73142e-07
      endloop
   endfacet
   facet normal 0 1 0
      outer loop
         vertex 0.0192101 0.0297289 0.000228172
         vertex 0.0192298 0.0297289 0.000138288
         vertex 0.018391 0.0297289 7.73142e-07
      endloop
   endfacet
   facet normal 0 1 0
      outer loop
         vertex 0.0192298 0.0297289 0.000138288
         vertex 0.0192398 0.0297289 4.67912e-05
         vertex 0.018391 0.0297289 7.73142e-07
      endloop
   endfacet
   facet normal 0 1 0
      outer loop
         vertex 0.0192398 0.0297289 4.67912e-05
         vertex 0.0192398 0.0297289 -4.52449e-05
         vertex 0.018391 0.0297289 7.73142e-07
      endloop
   endfacet
   facet normal 0 1 0
      outer loop
         vertex 0.0192398 0.0297289 -4.52449e-05
         vertex 0.0192298 0.0297289 -0.000136742
         vertex 0.018391 0.0297289 7.73142e-07
      endloop
   endfacet
   facet normal 0 1 0
      outer loop
         vertex 0.0192298 0.0297289 -0.000136742
         vertex 0.0192101 0.0297289 -0.000226626
         vertex 0.018391 0.0297289 7.73142e-07
      endloop
   endfacet
   facet normal 0 1 0
      outer loop
         vertex 0.0192101 0.0297289 -0.000226626
         vertex 0.0191807 0.0297289 -0.000313844
         vertex 0.018391 0.0297289 7.73142e-07
      endloop
   endfacet
   facet normal 0 1 0
      outer loop
         vertex 0.0191807 0.0297289 -0.000313844
         vertex 0.019142 0.0297289 -0.000397374
         vertex 0.018391 0.0297289 7.73142e-07
      endloop
   endfacet
   facet normal 0 1 0
      outer loop
         vertex 0.019142 0.0297289 -0.000397374
         vertex 0.0190946 0.0297289 -0.000476236
         vertex 0.018391 0.0297289 7.73142e-07
      endloop
   endfacet
   facet normal 0 1 0
      outer loop
         vertex 0.0190946 0.0297289 -0.000476236
         vertex 0.0190389 0.0297289 -0.000549505
         vertex 0.018391 0.0297289 7.73142e-07
      endloop
   endfacet
   facet normal 0 1 0
      outer loop
         vertex 0.0190389 0.0297289 -0.000549505
         vertex 0.0189756 0.0297289 -0.000616323
         vertex 0.018391 0.0297289 7.73142e-07
      endloop
   endfacet
   facet normal 0 1 0
      outer loop
         vertex 0.0189756 0.0297289 -0.000616323
         vertex 0.0189054 0.0297289 -0.000675906
         vertex 0.018391 0.0297289 7.73142e-07
      endloop
   endfacet
   facet normal 0 1 0
      outer loop
         vertex 0.0189054 0.0297289 -0.000675906
         vertex 0.0188293 0.0297289 -0.000727555
         vertex 0.018391 0.0297289 7.73142e-07
      endloop
   endfacet
   facet normal 0 1 0
      outer loop
         vertex 0.0188293 0.0297289 -0.000727555
         vertex 0.018748 0.0297289 -0.000770666
         vertex 0.018391 0.0297289 7.73142e-07
      endloop
   endfacet
   facet normal 0 1 0
      outer loop
         vertex 0.018748 0.0297289 -0.000770666
         vertex 0.0186625 0.0297289 -0.000804732
         vertex 0.018391 0.0297289 7.73142e-07
      endloop
   endfacet
   facet normal 0 1 0
      outer loop
         vertex 0.0186625 0.0297289 -0.000804732
         vertex 0.0185738 0.0297289 -0.000829354
         vertex 0.018391 0.0297289 7.73142e-07
      endloop
   endfacet
   facet normal 0 1 0
      outer loop
         vertex 0.0185738 0.0297289 -0.000829354
         vertex 0.0184829 0.0297289 -0.000844244
         vertex 0.018391 0.0297289 7.73142e-07
      endloop
   endfacet
   facet normal 0 1 0
      outer loop
         vertex 0.0184829 0.0297289 -0.000844244
         vertex 0.018391 0.0297289 -0.000849227
         vertex 0.018391 0.0297289 7.73142e-07
      endloop
   endfacet
   facet normal 0 1 0
      outer loop
         vertex 0.018391 0.0297289 -0.000849227
         vertex 0.0182991 0.0297289 -0.000844244
         vertex 0.018391 0.0297289 7.73142e-07
      endloop
   endfacet
endsolid 1111. Units = meters