solid 1111. STL generated by ONSHAPE BY PTC INC, 1.216. Units = meters
   facet normal 4.33778e-06 1 -1.10184e-06
      outer loop
         vertex 0.172241 0.00783832 0.00490253
         vertex 0.172906 0.00783832 0.00490253
         vertex 0.172399 0.00783832 0.00434719
      endloop
   endfacet
   facet normal 4.33778e-06 1 -1.10184e-06
      outer loop
         vertex 0.172001 0.00783832 0.00413621
         vertex 0.172154 0.00783832 0.00490672
         vertex 0.172241 0.00783832 0.00490253
      endloop
   endfacet
   facet normal 4.33778e-06 1 -1.10184e-06
      outer loop
         vertex 0.172001 0.00783832 0.00413621
         vertex 0.171355 0.00783832 0.0041362
         vertex 0.172067 0.00783832 0.00491919
      endloop
   endfacet
   facet normal 4.33778e-06 1 -1.10184e-06
      outer loop
         vertex 0.172067 0.00783832 0.00491919
         vertex 0.172154 0.00783832 0.00490672
         vertex 0.172001 0.00783832 0.00413621
      endloop
   endfacet
   facet normal 4.33778e-06 1 -1.10184e-06
      outer loop
         vertex 0.173106 0.00783832 0.0043472
         vertex 0.171433 0.00783832 0.00352166
         vertex 0.172001 0.00783832 0.00413621
      endloop
   endfacet
   facet normal 4.33778e-06 1 -1.10184e-06
      outer loop
         vertex 0.172001 0.00783832 0.00413621
         vertex 0.172399 0.00783832 0.00434719
         vertex 0.173106 0.00783832 0.0043472
      endloop
   endfacet
   facet normal 4.33778e-06 1 -1.10184e-06
      outer loop
         vertex 0.172399 0.00783832 0.00434719
         vertex 0.172001 0.00783832 0.00413621
         vertex 0.172241 0.00783832 0.00490253
      endloop
   endfacet
endsolid 1111. Units = meters