solid 1111. STL generated by ONSHAPE BY PTC INC, 1.216. Units = meters
   facet normal 0 0.0436194 -0.999048
      outer loop
         vertex -0.00418861 0.0229064 -0.0211514
         vertex -0.00467621 0.0234175 -0.0211291
         vertex -0.00237963 0.0234175 -0.0211291
      endloop
   endfacet
   facet normal 0 0.0436194 -0.999048
      outer loop
         vertex -0.00237963 0.0234175 -0.0211291
         vertex -0.00189183 0.0229064 -0.0211514
         vertex -0.00418861 0.0229064 -0.0211514
      endloop
   endfacet
endsolid 1111. Units = meters