solid 1111. STL generated by ONSHAPE BY PTC INC, 1.216. Units = meters
   facet normal -1 4.33778e-06 -8.82512e-08
      outer loop
         vertex -0.0480511 0.00222926 -0.0161381
         vertex -0.0480511 0.00222926 -0.016108
         vertex -0.0480511 0.00252926 -0.016108
      endloop
   endfacet
   facet normal -1 4.33778e-06 -8.82512e-08
      outer loop
         vertex -0.0480511 0.00252926 -0.016108
         vertex -0.0480511 0.00252926 -0.0161381
         vertex -0.0480511 0.00222926 -0.0161381
      endloop
   endfacet
endsolid 1111. Units = meters