solid 1111. STL generated by ONSHAPE BY PTC INC, 1.216. Units = meters
   facet normal 0.688899 0.724857 0
      outer loop
         vertex -0.0202694 0.0306437 -0.0117463
         vertex -0.0202695 0.0306437 -0.0136038
         vertex -0.0203596 0.0307288 -0.0135998
      endloop
   endfacet
   facet normal 0.654922 0.755697 0
      outer loop
         vertex -0.0201802 0.0305595 -0.0117424
         vertex -0.0201826 0.0305616 -0.0136078
         vertex -0.0202695 0.0306437 -0.0136038
      endloop
   endfacet
   facet normal 0.654922 0.755697 0
      outer loop
         vertex -0.0201802 0.0305595 -0.0117424
         vertex -0.0200965 0.030494 -0.0136107
         vertex -0.0201826 0.0305616 -0.0136078
      endloop
   endfacet
   facet normal 0.688899 0.724857 0
      outer loop
         vertex -0.0202695 0.0306437 -0.0136038
         vertex -0.0202694 0.0306437 -0.0117463
         vertex -0.0201802 0.0305595 -0.0117424
      endloop
   endfacet
   facet normal 0.536575 0.843853 0
      outer loop
         vertex -0.019881 0.0303428 -0.0136171
         vertex -0.0199987 0.0304172 -0.0136141
         vertex -0.0199783 0.0304028 -0.0117358
      endloop
   endfacet
   facet normal 0.570565 0.821253 0
      outer loop
         vertex -0.0199783 0.0304028 -0.0117358
         vertex -0.0199987 0.0304172 -0.0136141
         vertex -0.0200965 0.030494 -0.0136107
      endloop
   endfacet
   facet normal 0.619927 0.784659 0
      outer loop
         vertex -0.0200965 0.030494 -0.0136107
         vertex -0.0200963 0.0304943 -0.0117396
         vertex -0.0199783 0.0304028 -0.0117358
      endloop
   endfacet
   facet normal 0.480731 0.876868 0
      outer loop
         vertex -0.0196974 0.03023 -0.0117291
         vertex -0.0197404 0.030254 -0.0136206
         vertex -0.019881 0.0303428 -0.0136171
      endloop
   endfacet
   facet normal 0.480731 0.876868 0
      outer loop
         vertex -0.0196974 0.03023 -0.0117291
         vertex -0.0195991 0.0301832 -0.0136234
         vertex -0.0197404 0.030254 -0.0136206
      endloop
   endfacet
   facet normal 0.536575 0.843853 0
      outer loop
         vertex -0.019881 0.0303428 -0.0136171
         vertex -0.019881 0.030343 -0.0117334
         vertex -0.0196974 0.03023 -0.0117291
      endloop
   endfacet
   facet normal 0.358264 0.93362 0
      outer loop
         vertex -0.0192276 0.030019 -0.0136302
         vertex -0.0194049 0.030086 -0.0136273
         vertex -0.0193472 0.0300611 -0.0117224
      endloop
   endfacet
   facet normal 0.388293 0.921536 0
      outer loop
         vertex -0.0193472 0.0300611 -0.0117224
         vertex -0.0194049 0.030086 -0.0136273
         vertex -0.0195991 0.0301832 -0.0136234
      endloop
   endfacet
   facet normal 0.454479 0.890758 0
      outer loop
         vertex -0.0195991 0.0301832 -0.0136234
         vertex -0.0195994 0.0301828 -0.0117272
         vertex -0.0193472 0.0300611 -0.0117224
      endloop
   endfacet
   facet normal 0.260414 0.965497 0
      outer loop
         vertex -0.0188116 0.0298838 -0.0136363
         vertex -0.0190051 0.029935 -0.0136338
         vertex -0.0189474 0.029917 -0.011716
      endloop
   endfacet
   facet normal 0.358264 0.93362 0
      outer loop
         vertex -0.019228 0.0300181 -0.0117205
         vertex -0.0189474 0.029917 -0.011716
         vertex -0.0190051 0.029935 -0.0136338
      endloop
   endfacet
   facet normal 0.3046 0.95248 0
      outer loop
         vertex -0.0190051 0.029935 -0.0136338
         vertex -0.0192276 0.030019 -0.0136302
         vertex -0.019228 0.0300181 -0.0117205
      endloop
   endfacet
   facet normal 0.165222 0.986256 0
      outer loop
         vertex -0.0184129 0.0297958 -0.0136406
         vertex -0.0185766 0.0298217 -0.0136393
         vertex -0.0185392 0.0298141 -0.0117105
      endloop
   endfacet
   facet normal 0.205242 0.978711 0
      outer loop
         vertex -0.0185766 0.0298217 -0.0136393
         vertex -0.0188116 0.0298838 -0.0136363
         vertex -0.0188119 0.0298828 -0.0117142
      endloop
   endfacet
   facet normal 0.260414 0.965497 0
      outer loop
         vertex -0.0188119 0.0298828 -0.0117142
         vertex -0.0185392 0.0298141 -0.0117105
         vertex -0.0185766 0.0298217 -0.0136393
      endloop
   endfacet
   facet normal 0.165222 0.986256 0
      outer loop
         vertex -0.018413 0.0297954 -0.0117094
         vertex -0.0181357 0.0297543 -0.011707
         vertex -0.0181784 0.0297587 -0.0136423
      endloop
   endfacet
   facet normal 0.0659664 0.997822 0
      outer loop
         vertex -0.0179843 0.029748 -0.0136427
         vertex -0.0181784 0.0297587 -0.0136423
         vertex -0.0181357 0.0297543 -0.011707
      endloop
   endfacet
   facet normal 0.0980221 0.995184 0
      outer loop
         vertex -0.0181357 0.0297543 -0.011707
         vertex -0.0179844 0.0297473 -0.0117069
         vertex -0.0179843 0.029748 -0.0136427
      endloop
   endfacet
   facet normal 0.0659664 0.997822 0
      outer loop
         vertex -0.0179844 0.0297473 -0.0117069
         vertex -0.017588 0.0297292 -0.0117064
         vertex -0.0176516 0.0297297 -0.0136432
      endloop
   endfacet
   facet normal 0.0122145 0.999925 0
      outer loop
         vertex -0.0176516 0.0297297 -0.0136432
         vertex -0.017588 0.0297292 -0.0117064
         vertex -0.0174785 0.0297289 -0.0117064
      endloop
   endfacet
   facet normal 0.000459237 1 0
      outer loop
         vertex -0.0174785 0.0297289 -0.0117064
         vertex -0.0174107 0.0297289 -0.0136434
         vertex -0.0176516 0.0297297 -0.0136432
      endloop
   endfacet
   facet normal 0.0122145 0.999925 0
      outer loop
         vertex -0.0176516 0.0297297 -0.0136432
         vertex -0.0179843 0.029748 -0.0136427
         vertex -0.0179844 0.0297473 -0.0117069
      endloop
   endfacet
   facet normal 0.000459237 1 0
      outer loop
         vertex -0.0174785 0.0297289 -0.0117064
         vertex -0.0174401 0.0297289 -0.0117064
         vertex -0.0174107 0.0297289 -0.0136434
      endloop
   endfacet
   facet normal 1.25246e-10 1 0
      outer loop
         vertex -0.0172978 0.0297289 -0.0117064
         vertex -0.0172978 0.0297289 -0.0136435
         vertex -0.0173865 0.0297289 -0.0136435
      endloop
   endfacet
   facet normal -3.62865e-09 1 0
      outer loop
         vertex -0.0173865 0.0297289 -0.0136435
         vertex -0.0174107 0.0297289 -0.0117064
         vertex -0.0172978 0.0297289 -0.0117064
      endloop
   endfacet
   facet normal 2.24017e-13 1 0
      outer loop
         vertex -0.017087 0.0297289 -0.0117064
         vertex -0.017087 0.0297289 -0.0136436
         vertex -0.0172978 0.0297289 -0.0136435
      endloop
   endfacet
   facet normal 2.24017e-13 1 0
      outer loop
         vertex -0.017087 0.0297289 -0.0117064
         vertex -0.0133282 0.0297289 -0.0117064
         vertex -0.0140104 0.0297289 -0.0136435
      endloop
   endfacet
   facet normal 2.24017e-13 1 0
      outer loop
         vertex -0.0140104 0.0297289 -0.0136435
         vertex -0.0169854 0.0297289 -0.0136436
         vertex -0.017087 0.0297289 -0.0117064
      endloop
   endfacet
   facet normal 2.24017e-13 1 0
      outer loop
         vertex -0.0133282 0.0297289 -0.0117064
         vertex -0.0133282 0.0297289 -0.0136435
         vertex -0.0140104 0.0297289 -0.0136435
      endloop
   endfacet
   facet normal 2.24017e-13 1 0
      outer loop
         vertex -0.0133282 0.0297289 -0.0117064
         vertex -0.00973182 0.0297289 -0.0117064
         vertex -0.00973182 0.0297289 -0.0136431
      endloop
   endfacet
   facet normal 2.24017e-13 1 0
      outer loop
         vertex -0.00973182 0.0297289 -0.0136431
         vertex -0.0133282 0.0297289 -0.0136435
         vertex -0.0133282 0.0297289 -0.0117064
      endloop
   endfacet
   facet normal 2.24017e-13 1 0
      outer loop
         vertex -0.0169854 0.0297289 -0.0136436
         vertex -0.017087 0.0297289 -0.0136436
         vertex -0.017087 0.0297289 -0.0117064
      endloop
   endfacet
   facet normal 1.25246e-10 1 0
      outer loop
         vertex -0.0172978 0.0297289 -0.0136435
         vertex -0.0172978 0.0297289 -0.0117064
         vertex -0.017087 0.0297289 -0.0117064
      endloop
   endfacet
   facet normal -3.62865e-09 1 0
      outer loop
         vertex -0.0173865 0.0297289 -0.0136435
         vertex -0.0174107 0.0297289 -0.0136434
         vertex -0.0174107 0.0297289 -0.0117064
      endloop
   endfacet
   facet normal 4.99374e-06 1 0
      outer loop
         vertex -0.0174401 0.0297289 -0.0117064
         vertex -0.0174107 0.0297289 -0.0117064
         vertex -0.0174107 0.0297289 -0.0136434
      endloop
   endfacet
   facet normal 0.107662 0.994188 0
      outer loop
         vertex -0.0181784 0.0297587 -0.0136423
         vertex -0.0184129 0.0297958 -0.0136406
         vertex -0.018413 0.0297954 -0.0117094
      endloop
   endfacet
   facet normal 0.196247 0.980554 0
      outer loop
         vertex -0.0185392 0.0298141 -0.0117105
         vertex -0.018413 0.0297954 -0.0117094
         vertex -0.0184129 0.0297958 -0.0136406
      endloop
   endfacet
   facet normal 0.291257 0.956645 0
      outer loop
         vertex -0.0189474 0.029917 -0.011716
         vertex -0.0188119 0.0298828 -0.0117142
         vertex -0.0188116 0.0298838 -0.0136363
      endloop
   endfacet
   facet normal 0.388293 0.921536 0
      outer loop
         vertex -0.0193472 0.0300611 -0.0117224
         vertex -0.019228 0.0300181 -0.0117205
         vertex -0.0192276 0.030019 -0.0136302
      endloop
   endfacet
   facet normal 0.480731 0.876868 0
      outer loop
         vertex -0.0196974 0.03023 -0.0117291
         vertex -0.0195994 0.0301828 -0.0117272
         vertex -0.0195991 0.0301832 -0.0136234
      endloop
   endfacet
   facet normal 0.570565 0.821253 0
      outer loop
         vertex -0.0199783 0.0304028 -0.0117358
         vertex -0.019881 0.030343 -0.0117334
         vertex -0.019881 0.0303428 -0.0136171
      endloop
   endfacet
   facet normal 0.654922 0.755697 0
      outer loop
         vertex -0.0201802 0.0305595 -0.0117424
         vertex -0.0200963 0.0304943 -0.0117396
         vertex -0.0200965 0.030494 -0.0136107
      endloop
   endfacet
   facet normal 0.707132 0.707081 0
      outer loop
         vertex -0.0203596 0.0307288 -0.0135998
         vertex -0.0203596 0.0307288 -0.0117502
         vertex -0.0202694 0.0306437 -0.0117463
      endloop
   endfacet
   facet normal 0.313999 0.949423 0
      outer loop
         vertex -0.00910382 0.0296277 -0.0117064
         vertex -0.00910382 0.0296277 -0.0136475
         vertex -0.00930917 0.0296836 -0.0136457
      endloop
   endfacet
   facet normal 0.106266 0.994338 0
      outer loop
         vertex -0.00951928 0.0297175 -0.0117064
         vertex -0.00931001 0.0296839 -0.0136457
         vertex -0.00951451 0.029717 -0.0136442
      endloop
   endfacet
   facet normal 0.21133 0.977415 0
      outer loop
         vertex -0.00930916 0.0296837 -0.0117064
         vertex -0.00930917 0.0296836 -0.0136457
         vertex -0.00931001 0.0296839 -0.0136457
      endloop
   endfacet
   facet normal 0.210906 0.977506 0
      outer loop
         vertex -0.00931001 0.0296839 -0.0136457
         vertex -0.00951928 0.0297175 -0.0117064
         vertex -0.00930916 0.0296837 -0.0117064
      endloop
   endfacet
   facet normal 0.106266 0.994338 0
      outer loop
         vertex -0.00951928 0.0297175 -0.0117064
         vertex -0.0095193 0.0297173 -0.0136442
         vertex -0.00973182 0.0297289 -0.0136431
      endloop
   endfacet
   facet normal 4.82537e-08 1 0
      outer loop
         vertex -0.00973182 0.0297289 -0.0136431
         vertex -0.00973182 0.0297289 -0.0117064
         vertex -0.00951928 0.0297175 -0.0117064
      endloop
   endfacet
   facet normal 0.108656 0.994079 0
      outer loop
         vertex -0.00951451 0.029717 -0.0136442
         vertex -0.0095193 0.0297173 -0.0136442
         vertex -0.00951928 0.0297175 -0.0117064
      endloop
   endfacet
   facet normal 0.211328 0.977415 0
      outer loop
         vertex -0.00930917 0.0296836 -0.0136457
         vertex -0.00930916 0.0296837 -0.0117064
         vertex -0.00910382 0.0296277 -0.0117064
      endloop
   endfacet
   facet normal 0.313999 0.949423 0
      outer loop
         vertex -0.00910382 0.0296277 -0.0136475
         vertex -0.00910382 0.0296277 -0.0117064
         vertex -0.00825768 0.0293479 -0.0117064
      endloop
   endfacet
   facet normal 0.313999 0.949423 0
      outer loop
         vertex -0.00825768 0.0293479 -0.0117064
         vertex -0.0082039 0.0293301 -0.0136612
         vertex -0.00910382 0.0296277 -0.0136475
      endloop
   endfacet
   facet normal 0.313999 0.949423 0
      outer loop
         vertex -0.00825768 0.0293479 -0.0117064
         vertex -0.0082039 0.0293301 -0.0117064
         vertex -0.0082039 0.0293301 -0.0136612
      endloop
   endfacet
   facet normal 0 1 0
      outer loop
         vertex -0.0075759 0.0292289 -0.0117064
         vertex -0.0075759 0.0292289 -0.0136657
         vertex -0.0077893 0.0292403 -0.0136645
      endloop
   endfacet
   facet normal 0.106701 0.994291 0
      outer loop
         vertex -0.0077893 0.0292403 -0.0136645
         vertex -0.00778971 0.0292404 -0.0117064
         vertex -0.0075759 0.0292289 -0.0117064
      endloop
   endfacet
   facet normal 0.106902 0.99427 0
      outer loop
         vertex -0.00778971 0.0292404 -0.0117064
         vertex -0.0077897 0.0292404 -0.0136645
         vertex -0.00799387 0.0292731 -0.0136631
      endloop
   endfacet
   facet normal 0.208983 0.977919 0
      outer loop
         vertex -0.00799387 0.0292731 -0.0136631
         vertex -0.00800106 0.0292746 -0.0117064
         vertex -0.00778971 0.0292404 -0.0117064
      endloop
   endfacet
   facet normal 0.21258 0.977144 0
      outer loop
         vertex -0.00800106 0.0292746 -0.0117064
         vertex -0.00800096 0.029275 -0.013663
         vertex -0.0082039 0.0293301 -0.0136612
      endloop
   endfacet
   facet normal 0.314 0.949423 0
      outer loop
         vertex -0.0082039 0.0293301 -0.0136612
         vertex -0.0082039 0.0293301 -0.0117064
         vertex -0.00800106 0.0292746 -0.0117064
      endloop
   endfacet
   facet normal 0.208983 0.977919 0
      outer loop
         vertex -0.00799387 0.0292731 -0.0136631
         vertex -0.00800096 0.029275 -0.013663
         vertex -0.00800106 0.0292746 -0.0117064
      endloop
   endfacet
   facet normal 0.106701 0.994291 0
      outer loop
         vertex -0.0077893 0.0292403 -0.0136645
         vertex -0.0077897 0.0292404 -0.0136645
         vertex -0.00778971 0.0292404 -0.0117064
      endloop
   endfacet
   facet normal 0 1 0
      outer loop
         vertex 0.000727492 0.0292289 -0.0117064
         vertex 0.000727495 0.0292289 -0.0136657
         vertex -0.00705694 0.0292289 -0.0136653
      endloop
   endfacet
   facet normal 0 1 0
      outer loop
         vertex -0.00705694 0.0292289 -0.0136653
         vertex -0.0075759 0.0292289 -0.0117064
         vertex 0.000727492 0.0292289 -0.0117064
      endloop
   endfacet
   facet normal 0 1 0
      outer loop
         vertex -0.00705694 0.0292289 -0.0136653
         vertex -0.0075759 0.0292289 -0.0136657
         vertex -0.0075759 0.0292289 -0.0117064
      endloop
   endfacet
   facet normal -0.106902 0.99427 0
      outer loop
         vertex 0.000941297 0.0292404 -0.0117064
         vertex 0.00115265 0.0292746 -0.0117064
         vertex 0.00114931 0.0292739 -0.0136631
      endloop
   endfacet
   facet normal -0.21258 0.977144 0
      outer loop
         vertex 0.00115265 0.0292746 -0.0117064
         vertex 0.0011526 0.0292748 -0.013663
         vertex 0.00114931 0.0292739 -0.0136631
      endloop
   endfacet
   facet normal -0.210907 0.977506 0
      outer loop
         vertex 0.00114931 0.0292739 -0.0136631
         vertex 0.000944806 0.0292408 -0.0136645
         vertex 0.000941297 0.0292404 -0.0117064
      endloop
   endfacet
   facet normal -5.42101e-17 1 0
      outer loop
         vertex 0.000727492 0.0292289 -0.0117064
         vertex 0.000941297 0.0292404 -0.0117064
         vertex 0.000941286 0.0292406 -0.0136645
      endloop
   endfacet
   facet normal -0.21258 0.977144 0
      outer loop
         vertex 0.00115265 0.0292746 -0.0117064
         vertex 0.00135549 0.0293301 -0.0117064
         vertex 0.00135549 0.0293301 -0.0136612
      endloop
   endfacet
   facet normal -0.314 0.949423 0
      outer loop
         vertex 0.00135549 0.0293301 -0.0136612
         vertex 0.0011526 0.0292748 -0.013663
         vertex 0.00115265 0.0292746 -0.0117064
      endloop
   endfacet
   facet normal -0.106907 0.994269 0
      outer loop
         vertex 0.000941286 0.0292406 -0.0136645
         vertex 0.000727495 0.0292289 -0.0136657
         vertex 0.000727492 0.0292289 -0.0117064
      endloop
   endfacet
   facet normal -0.108657 0.994079 0
      outer loop
         vertex 0.000944806 0.0292408 -0.0136645
         vertex 0.000941286 0.0292406 -0.0136645
         vertex 0.000941297 0.0292404 -0.0117064
      endloop
   endfacet
   facet normal -0.313999 0.949423 0
      outer loop
         vertex 0.00135549 0.0293301 -0.0136612
         vertex 0.00135549 0.0293301 -0.0117064
         vertex 0.0020695 0.0295662 -0.0117064
      endloop
   endfacet
   facet normal -0.313999 0.949423 0
      outer loop
         vertex 0.0020695 0.0295662 -0.0117064
         vertex 0.00225541 0.0296277 -0.0136475
         vertex 0.00135549 0.0293301 -0.0136612
      endloop
   endfacet
   facet normal -0.313999 0.949423 0
      outer loop
         vertex 0.0020695 0.0295662 -0.0117064
         vertex 0.00225541 0.0296277 -0.0117064
         vertex 0.00225541 0.0296277 -0.0136475
      endloop
   endfacet
   facet normal -0.106266 0.994338 0
      outer loop
         vertex 0.00267087 0.0297175 -0.0117064
         vertex 0.00288341 0.0297289 -0.0117064
         vertex 0.00288341 0.0297289 -0.0136431
      endloop
   endfacet
   facet normal -0.106266 0.994338 0
      outer loop
         vertex 0.00267087 0.0297175 -0.0117064
         vertex 0.00267088 0.0297175 -0.0136442
         vertex 0.00267001 0.0297174 -0.0136442
      endloop
   endfacet
   facet normal -0.106699 0.994291 0
      outer loop
         vertex 0.00267001 0.0297174 -0.0136442
         vertex 0.00246075 0.0296837 -0.0117064
         vertex 0.00267087 0.0297175 -0.0117064
      endloop
   endfacet
   facet normal -0.106699 0.994291 0
      outer loop
         vertex 0.00267001 0.0297174 -0.0136442
         vertex 0.00246545 0.0296847 -0.0136456
         vertex 0.00246075 0.0296837 -0.0117064
      endloop
   endfacet
   facet normal -0.313999 0.949423 0
      outer loop
         vertex 0.00225541 0.0296277 -0.0117064
         vertex 0.00246075 0.0296837 -0.0117064
         vertex 0.00246082 0.0296834 -0.0136457
      endloop
   endfacet
   facet normal -0.211323 0.977416 0
      outer loop
         vertex 0.00246082 0.0296834 -0.0136457
         vertex 0.00225541 0.0296277 -0.0136475
         vertex 0.00225541 0.0296277 -0.0117064
      endloop
   endfacet
   facet normal -0.208981 0.97792 0
      outer loop
         vertex 0.00246545 0.0296847 -0.0136456
         vertex 0.00246082 0.0296834 -0.0136457
         vertex 0.00246075 0.0296837 -0.0117064
      endloop
   endfacet
   facet normal -2.69975e-07 1 0
      outer loop
         vertex 0.00288341 0.0297289 -0.0136431
         vertex 0.00267088 0.0297175 -0.0136442
         vertex 0.00267087 0.0297175 -0.0117064
      endloop
   endfacet
   facet normal 0 1 0
      outer loop
         vertex 0.018391 0.0297287 -0.0117063
         vertex 0.018391 0.0297287 -0.0136435
         vertex 0.00349826 0.0297289 -0.0136434
      endloop
   endfacet
   facet normal 0 1 0
      outer loop
         vertex 0.00349826 0.0297289 -0.0136434
         vertex 0.00288341 0.0297289 -0.0117064
         vertex 0.018391 0.0297287 -0.0117063
      endloop
   endfacet
   facet normal 0 1 0
      outer loop
         vertex 0.00349826 0.0297289 -0.0136434
         vertex 0.00288341 0.0297289 -0.0136431
         vertex 0.00288341 0.0297289 -0.0117064
      endloop
   endfacet
   facet normal 0.000811524 1 0
      outer loop
         vertex 0.022559 0.0297279 -0.0117063
         vertex 0.022559 0.0297279 -0.0136435
         vertex 0.018391 0.0297287 -0.0136435
      endloop
   endfacet
   facet normal -0.000456123 1 0
      outer loop
         vertex 0.018391 0.0297287 -0.0136435
         vertex 0.018391 0.0297287 -0.0117063
         vertex 0.022559 0.0297279 -0.0117063
      endloop
   endfacet
endsolid 1111. Units = meters