solid 1111. STL generated by ONSHAPE BY PTC INC, 1.216. Units = meters
   facet normal -4.33778e-06 -1 1.10184e-06
      outer loop
         vertex 0.172886 -0.000981683 0.00498358
         vertex 0.172883 -0.000981683 0.0049325
         vertex 0.173101 -0.000981684 0.00495689
      endloop
   endfacet
   facet normal -4.33778e-06 -1 1.10184e-06
      outer loop
         vertex 0.173105 -0.000981684 0.00493085
         vertex 0.173101 -0.000981684 0.00495689
         vertex 0.172883 -0.000981683 0.0049325
      endloop
   endfacet
   facet normal -4.33778e-06 -1 1.10184e-06
      outer loop
         vertex 0.172889 -0.000981683 0.00485639
         vertex 0.173112 -0.000981684 0.00490535
         vertex 0.173105 -0.000981684 0.00493085
      endloop
   endfacet
   facet normal -4.33778e-06 -1 1.10184e-06
      outer loop
         vertex 0.172946 -0.000981683 0.0047185
         vertex 0.172969 -0.000981683 0.00468852
         vertex 0.173147 -0.000981684 0.00483478
      endloop
   endfacet
   facet normal -4.33778e-06 -1 1.10184e-06
      outer loop
         vertex 0.172883 -0.000981683 0.0049325
         vertex 0.172885 -0.000981683 0.00489436
         vertex 0.173105 -0.000981684 0.00493085
      endloop
   endfacet
   facet normal -4.33778e-06 -1 1.10184e-06
      outer loop
         vertex 0.173105 -0.000981684 0.00493085
         vertex 0.172885 -0.000981683 0.00489436
         vertex 0.172889 -0.000981683 0.00485639
      endloop
   endfacet
   facet normal -4.33778e-06 -1 1.10184e-06
      outer loop
         vertex 0.172927 -0.000981683 0.00475062
         vertex 0.173133 -0.000981684 0.00485707
         vertex 0.173121 -0.000981684 0.00488067
      endloop
   endfacet
   facet normal -4.33778e-06 -1 1.10184e-06
      outer loop
         vertex 0.173133 -0.000981684 0.00485707
         vertex 0.172927 -0.000981683 0.00475062
         vertex 0.172946 -0.000981683 0.0047185
      endloop
   endfacet
   facet normal -4.33778e-06 -1 1.10184e-06
      outer loop
         vertex 0.172969 -0.000981683 0.00468852
         vertex 0.172995 -0.000981683 0.00466097
         vertex 0.173163 -0.000981684 0.00481406
      endloop
   endfacet
   facet normal -4.33778e-06 -1 1.10184e-06
      outer loop
         vertex 0.173163 -0.000981684 0.00481406
         vertex 0.172995 -0.000981683 0.00466097
         vertex 0.173023 -0.000981684 0.00463614
      endloop
   endfacet
   facet normal -4.33778e-06 -1 1.10184e-06
      outer loop
         vertex 0.172889 -0.000981683 0.00485639
         vertex 0.172898 -0.000981683 0.00481991
         vertex 0.173112 -0.000981684 0.00490535
      endloop
   endfacet
   facet normal -4.33778e-06 -1 1.10184e-06
      outer loop
         vertex 0.172898 -0.000981683 0.00481991
         vertex 0.17291 -0.000981683 0.00478453
         vertex 0.173121 -0.000981684 0.00488067
      endloop
   endfacet
   facet normal -4.33778e-06 -1 1.10184e-06
      outer loop
         vertex 0.173147 -0.000981684 0.00483478
         vertex 0.173133 -0.000981684 0.00485707
         vertex 0.172946 -0.000981683 0.0047185
      endloop
   endfacet
   facet normal -4.33778e-06 -1 1.10184e-06
      outer loop
         vertex 0.173023 -0.000981684 0.00463614
         vertex 0.173182 -0.000981684 0.0047951
         vertex 0.173163 -0.000981684 0.00481406
      endloop
   endfacet
   facet normal -4.33778e-06 -1 1.10184e-06
      outer loop
         vertex 0.173053 -0.000981684 0.00461427
         vertex 0.173086 -0.000981684 0.00459558
         vertex 0.173202 -0.000981684 0.00477812
      endloop
   endfacet
   facet normal -4.33778e-06 -1 1.10184e-06
      outer loop
         vertex 0.173202 -0.000981684 0.00477812
         vertex 0.173086 -0.000981684 0.00459558
         vertex 0.17312 -0.000981684 0.00458028
      endloop
   endfacet
   facet normal -4.33778e-06 -1 1.10184e-06
      outer loop
         vertex 0.173223 -0.000981684 0.00476328
         vertex 0.17312 -0.000981684 0.00458028
         vertex 0.173156 -0.000981684 0.0045685
      endloop
   endfacet
   facet normal -4.33778e-06 -1 1.10184e-06
      outer loop
         vertex 0.173121 -0.000981684 0.00488067
         vertex 0.173112 -0.000981684 0.00490535
         vertex 0.172898 -0.000981683 0.00481991
      endloop
   endfacet
   facet normal -4.33778e-06 -1 1.10184e-06
      outer loop
         vertex 0.173163 -0.000981684 0.00481406
         vertex 0.173147 -0.000981684 0.00483478
         vertex 0.172969 -0.000981683 0.00468852
      endloop
   endfacet
   facet normal -4.33778e-06 -1 1.10184e-06
      outer loop
         vertex 0.173182 -0.000981684 0.0047951
         vertex 0.173023 -0.000981684 0.00463614
         vertex 0.173053 -0.000981684 0.00461427
      endloop
   endfacet
   facet normal -4.33778e-06 -1 1.10184e-06
      outer loop
         vertex 0.173156 -0.000981684 0.0045685
         vertex 0.173247 -0.000981684 0.00475075
         vertex 0.173223 -0.000981684 0.00476328
      endloop
   endfacet
   facet normal -4.33778e-06 -1 1.10184e-06
      outer loop
         vertex 0.173274 -0.000981684 0.00545226
         vertex 0.173322 -0.000981684 0.00524712
         vertex 0.173366 -0.000981684 0.00525975
      endloop
   endfacet
   facet normal -4.33778e-06 -1 1.10184e-06
      outer loop
         vertex 0.173211 -0.000981684 0.00542414
         vertex 0.17328 -0.000981684 0.00523016
         vertex 0.173322 -0.000981684 0.00524712
      endloop
   endfacet
   facet normal -4.33778e-06 -1 1.10184e-06
      outer loop
         vertex 0.173121 -0.000981684 0.00488067
         vertex 0.17291 -0.000981683 0.00478453
         vertex 0.172927 -0.000981683 0.00475062
      endloop
   endfacet
   facet normal -4.33778e-06 -1 1.10184e-06
      outer loop
         vertex 0.17312 -0.000981684 0.00458028
         vertex 0.173223 -0.000981684 0.00476328
         vertex 0.173202 -0.000981684 0.00477812
      endloop
   endfacet
   facet normal -4.33778e-06 -1 1.10184e-06
      outer loop
         vertex 0.173341 -0.000981684 0.00547344
         vertex 0.173366 -0.000981684 0.00525975
         vertex 0.173411 -0.000981685 0.00526792
      endloop
   endfacet
   facet normal -4.33778e-06 -1 1.10184e-06
      outer loop
         vertex 0.173322 -0.000981684 0.00524712
         vertex 0.173274 -0.000981684 0.00545226
         vertex 0.173211 -0.000981684 0.00542414
      endloop
   endfacet
   facet normal -4.33778e-06 -1 1.10184e-06
      outer loop
         vertex 0.172886 -0.000981683 0.00498358
         vertex 0.1731 -0.000981684 0.00498321
         vertex 0.173101 -0.000981684 0.00501006
      endloop
   endfacet
   facet normal -4.33778e-06 -1 1.10184e-06
      outer loop
         vertex 0.173202 -0.000981684 0.00477812
         vertex 0.173182 -0.000981684 0.0047951
         vertex 0.173053 -0.000981684 0.00461427
      endloop
   endfacet
   facet normal -4.33778e-06 -1 1.10184e-06
      outer loop
         vertex 0.173548 -0.000981685 0.0054933
         vertex 0.173502 -0.000981685 0.0052706
         vertex 0.173548 -0.000981685 0.00526508
      endloop
   endfacet
   facet normal -4.33778e-06 -1 1.10184e-06
      outer loop
         vertex 0.173479 -0.000981685 0.00549407
         vertex 0.173457 -0.000981685 0.00527155
         vertex 0.173502 -0.000981685 0.0052706
      endloop
   endfacet
   facet normal -4.33778e-06 -1 1.10184e-06
      outer loop
         vertex 0.173409 -0.000981684 0.00548743
         vertex 0.173411 -0.000981685 0.00526792
         vertex 0.173457 -0.000981685 0.00527155
      endloop
   endfacet
   facet normal -4.33778e-06 -1 1.10184e-06
      outer loop
         vertex 0.173366 -0.000981684 0.00525975
         vertex 0.173341 -0.000981684 0.00547344
         vertex 0.173274 -0.000981684 0.00545226
      endloop
   endfacet
   facet normal -4.33778e-06 -1 1.10184e-06
      outer loop
         vertex 0.172921 -0.000981683 0.00513245
         vertex 0.173112 -0.000981684 0.0050626
         vertex 0.173122 -0.000981684 0.00508771
      endloop
   endfacet
   facet normal -4.33778e-06 -1 1.10184e-06
      outer loop
         vertex 0.172893 -0.000981683 0.00503421
         vertex 0.173101 -0.000981684 0.00501006
         vertex 0.173105 -0.000981684 0.00503662
      endloop
   endfacet
   facet normal -4.33778e-06 -1 1.10184e-06
      outer loop
         vertex 0.173101 -0.000981684 0.00495689
         vertex 0.1731 -0.000981684 0.00498321
         vertex 0.172886 -0.000981683 0.00498358
      endloop
   endfacet
   facet normal -4.33778e-06 -1 1.10184e-06
      outer loop
         vertex 0.173502 -0.000981685 0.0052706
         vertex 0.173548 -0.000981685 0.0054933
         vertex 0.173479 -0.000981685 0.00549407
      endloop
   endfacet
   facet normal -4.33778e-06 -1 1.10184e-06
      outer loop
         vertex 0.173411 -0.000981685 0.00526792
         vertex 0.173409 -0.000981684 0.00548743
         vertex 0.173341 -0.000981684 0.00547344
      endloop
   endfacet
   facet normal -4.33778e-06 -1 1.10184e-06
      outer loop
         vertex 0.172996 -0.000981683 0.0052497
         vertex 0.172955 -0.000981683 0.00519307
         vertex 0.173134 -0.000981684 0.00511169
      endloop
   endfacet
   facet normal -4.33778e-06 -1 1.10184e-06
      outer loop
         vertex 0.173122 -0.000981684 0.00508771
         vertex 0.172955 -0.000981683 0.00519307
         vertex 0.172921 -0.000981683 0.00513245
      endloop
   endfacet
   facet normal -4.33778e-06 -1 1.10184e-06
      outer loop
         vertex 0.172904 -0.000981683 0.00508398
         vertex 0.173105 -0.000981684 0.00503662
         vertex 0.173112 -0.000981684 0.0050626
      endloop
   endfacet
   facet normal -4.33778e-06 -1 1.10184e-06
      outer loop
         vertex 0.173101 -0.000981684 0.00501006
         vertex 0.172893 -0.000981683 0.00503421
         vertex 0.172886 -0.000981683 0.00498358
      endloop
   endfacet
   facet normal -4.33778e-06 -1 1.10184e-06
      outer loop
         vertex 0.173457 -0.000981685 0.00527155
         vertex 0.173479 -0.000981685 0.00549407
         vertex 0.173409 -0.000981684 0.00548743
      endloop
   endfacet
   facet normal -4.33778e-06 -1 1.10184e-06
      outer loop
         vertex 0.17315 -0.000981683 0.00538939
         vertex 0.173239 -0.000981684 0.00520903
         vertex 0.17328 -0.000981684 0.00523016
      endloop
   endfacet
   facet normal -4.33778e-06 -1 1.10184e-06
      outer loop
         vertex 0.173094 -0.000981683 0.00534842
         vertex 0.173201 -0.000981684 0.00518396
         vertex 0.173239 -0.000981684 0.00520903
      endloop
   endfacet
   facet normal -4.33778e-06 -1 1.10184e-06
      outer loop
         vertex 0.173042 -0.000981683 0.00530168
         vertex 0.173166 -0.000981684 0.00515518
         vertex 0.173201 -0.000981684 0.00518396
      endloop
   endfacet
   facet normal -4.33778e-06 -1 1.10184e-06
      outer loop
         vertex 0.173122 -0.000981684 0.00508771
         vertex 0.173134 -0.000981684 0.00511169
         vertex 0.172955 -0.000981683 0.00519307
      endloop
   endfacet
   facet normal -4.33778e-06 -1 1.10184e-06
      outer loop
         vertex 0.173105 -0.000981684 0.00503662
         vertex 0.172904 -0.000981683 0.00508398
         vertex 0.172893 -0.000981683 0.00503421
      endloop
   endfacet
   facet normal -4.33778e-06 -1 1.10184e-06
      outer loop
         vertex 0.17328 -0.000981684 0.00523016
         vertex 0.173211 -0.000981684 0.00542414
         vertex 0.17315 -0.000981683 0.00538939
      endloop
   endfacet
   facet normal -4.33778e-06 -1 1.10184e-06
      outer loop
         vertex 0.173201 -0.000981684 0.00518396
         vertex 0.173094 -0.000981683 0.00534842
         vertex 0.173042 -0.000981683 0.00530168
      endloop
   endfacet
   facet normal -4.33778e-06 -1 1.10184e-06
      outer loop
         vertex 0.172996 -0.000981683 0.0052497
         vertex 0.173149 -0.000981684 0.00513426
         vertex 0.173166 -0.000981684 0.00515518
      endloop
   endfacet
   facet normal -4.33778e-06 -1 1.10184e-06
      outer loop
         vertex 0.173112 -0.000981684 0.0050626
         vertex 0.172921 -0.000981683 0.00513245
         vertex 0.172904 -0.000981683 0.00508398
      endloop
   endfacet
   facet normal -4.33778e-06 -1 1.10184e-06
      outer loop
         vertex 0.173355 -0.000981685 0.00473756
         vertex 0.173247 -0.000981684 0.00475075
         vertex 0.173285 -0.000981685 0.00455053
      endloop
   endfacet
   facet normal -4.33778e-06 -1 1.10184e-06
      outer loop
         vertex 0.173247 -0.000981684 0.00475075
         vertex 0.173156 -0.000981684 0.0045685
         vertex 0.17322 -0.000981685 0.00455614
      endloop
   endfacet
   facet normal -4.33778e-06 -1 1.10184e-06
      outer loop
         vertex 0.173239 -0.000981684 0.00520903
         vertex 0.17315 -0.000981683 0.00538939
         vertex 0.173094 -0.000981683 0.00534842
      endloop
   endfacet
   facet normal -4.33778e-06 -1 1.10184e-06
      outer loop
         vertex 0.173134 -0.000981684 0.00511169
         vertex 0.173149 -0.000981684 0.00513426
         vertex 0.172996 -0.000981683 0.0052497
      endloop
   endfacet
   facet normal -4.33778e-06 -1 1.10184e-06
      outer loop
         vertex 0.17322 -0.000981685 0.00455614
         vertex 0.173285 -0.000981685 0.00455053
         vertex 0.173247 -0.000981684 0.00475075
      endloop
   endfacet
   facet normal -4.33778e-06 -1 1.10184e-06
      outer loop
         vertex 0.173355 -0.000981685 0.00473756
         vertex 0.17335 -0.000981685 0.00455173
         vertex 0.173415 -0.000981685 0.00455974
      endloop
   endfacet
   facet normal -4.33778e-06 -1 1.10184e-06
      outer loop
         vertex 0.173166 -0.000981684 0.00515518
         vertex 0.173042 -0.000981683 0.00530168
         vertex 0.172996 -0.000981683 0.0052497
      endloop
   endfacet
   facet normal -4.33778e-06 -1 1.10184e-06
      outer loop
         vertex 0.173415 -0.000981685 0.00455974
         vertex 0.173464 -0.000981685 0.00473439
         vertex 0.173355 -0.000981685 0.00473756
      endloop
   endfacet
   facet normal -4.33778e-06 -1 1.10184e-06
      outer loop
         vertex 0.173285 -0.000981685 0.00455053
         vertex 0.17335 -0.000981685 0.00455173
         vertex 0.173355 -0.000981685 0.00473756
      endloop
   endfacet
   facet normal -4.33778e-06 -1 1.10184e-06
      outer loop
         vertex 0.173548 -0.000981685 0.00526508
         vertex 0.173617 -0.000981685 0.00548512
         vertex 0.173548 -0.000981685 0.0054933
      endloop
   endfacet
endsolid 1111. Units = meters