solid 1111. STL generated by ONSHAPE BY PTC INC, 1.216. Units = meters
   facet normal 3.64436e-10 1 0
      outer loop
         vertex 0.0249952 0.028729 -0.00920431
         vertex 0.0249952 0.028729 -0.0110755
         vertex 0.00834882 0.028729 -0.0110755
      endloop
   endfacet
   facet normal 3.64436e-10 1 0
      outer loop
         vertex 0.00834882 0.028729 -0.0110755
         vertex 0.00834882 0.028729 -0.00920431
         vertex 0.0249952 0.028729 -0.00920431
      endloop
   endfacet
endsolid 1111. Units = meters