solid 1111. STL generated by ONSHAPE BY PTC INC, 1.216. Units = meters
   facet normal 0.75606 0.651696 -0.0605436
      outer loop
         vertex 0.0281704 0.0277542 0.0110671
         vertex 0.0281385 0.02779 0.0110788
         vertex 0.0281331 0.0277996 0.0111257
      endloop
   endfacet
   facet normal 0.75606 0.651696 -0.0605436
      outer loop
         vertex 0.0281704 0.0277542 0.0110671
         vertex 0.0281422 0.0277826 0.0110371
         vertex 0.0281385 0.02779 0.0110788
      endloop
   endfacet
   facet normal 0.749851 0.661383 -0.0171983
      outer loop
         vertex 0.028174 0.027739 0.0108855
         vertex 0.0281444 0.0277706 0.0108592
         vertex 0.0281422 0.0277826 0.0110371
      endloop
   endfacet
   facet normal 0.434067 0.900873 -0.00365616
      outer loop
         vertex 0.0279624 0.0279117 0.0110082
         vertex 0.0279648 0.0279103 0.0109191
         vertex 0.0279127 0.0279339 0.0109371
      endloop
   endfacet
   facet normal 0.446683 0.894689 -0.00238387
      outer loop
         vertex 0.0279648 0.0279103 0.0109191
         vertex 0.0279127 0.0279339 0.0109154
         vertex 0.0279127 0.0279339 0.0109371
      endloop
   endfacet
   facet normal 0.394492 0.918899 -2.60387e-06
      outer loop
         vertex 0.0279127 0.0279339 0.0109371
         vertex 0.0279124 0.027934 0.0109958
         vertex 0.0279624 0.0279117 0.0110082
      endloop
   endfacet
   facet normal 0.446683 0.894689 -0.00238387
      outer loop
         vertex 0.0279648 0.0279103 0.0109191
         vertex 0.0279635 0.0279105 0.0107489
         vertex 0.0279127 0.0279339 0.0107892
      endloop
   endfacet
   facet normal 0.394486 0.918902 -9.4734e-10
      outer loop
         vertex 0.0279127 0.0279339 0.0107892
         vertex 0.0279635 0.0279105 0.0107489
         vertex 0.0279629 0.0279108 0.0107487
      endloop
   endfacet
   facet normal 0.457793 0.889057 -0.00199016
      outer loop
         vertex 0.0279629 0.0279108 0.0107487
         vertex 0.0279417 0.0279211 0.010746
         vertex 0.0279127 0.0279339 0.0107892
      endloop
   endfacet
   facet normal 0.419728 0.90765 -0.000490806
      outer loop
         vertex 0.0279417 0.0279211 0.010746
         vertex 0.0279127 0.0279339 0.0107452
         vertex 0.0279127 0.0279339 0.0107892
      endloop
   endfacet
   facet normal 0.883166 0.467462 -0.0386852
      outer loop
         vertex 0.0282561 0.0276406 0.0111674
         vertex 0.0282395 0.027668 0.0111476
         vertex 0.0282258 0.0277014 0.0112378
      endloop
   endfacet
   facet normal 0.724626 0.685987 -0.0658668
      outer loop
         vertex 0.0281601 0.0277753 0.0111551
         vertex 0.0281274 0.0278062 0.0111555
         vertex 0.0281236 0.0278101 0.0111697
      endloop
   endfacet
   facet normal 0.652538 0.755407 -0.059618
      outer loop
         vertex 0.0281236 0.0278101 0.0111697
         vertex 0.0281472 0.027793 0.0112095
         vertex 0.0281601 0.0277753 0.0111551
      endloop
   endfacet
   facet normal 0.724626 0.685987 -0.0658668
      outer loop
         vertex 0.0281601 0.0277753 0.0111551
         vertex 0.0281331 0.0277996 0.0111257
         vertex 0.0281274 0.0278062 0.0111555
      endloop
   endfacet
   facet normal 0.82234 0.565863 -0.059628
      outer loop
         vertex 0.0282195 0.0276963 0.0111237
         vertex 0.0281964 0.0277253 0.0110965
         vertex 0.0281849 0.0277505 0.0111844
      endloop
   endfacet
   facet normal 0.790141 0.609734 -0.0624667
      outer loop
         vertex 0.0281964 0.0277253 0.0110965
         vertex 0.0281704 0.0277542 0.0110671
         vertex 0.0281601 0.0277753 0.0111551
      endloop
   endfacet
   facet normal 0.85339 0.518711 -0.0516122
      outer loop
         vertex 0.0282395 0.027668 0.0111476
         vertex 0.0282195 0.0276963 0.0111237
         vertex 0.0282069 0.0277257 0.0112123
      endloop
   endfacet
   facet normal 0.806139 0.586537 -0.0781989
      outer loop
         vertex 0.0282069 0.0277257 0.0112123
         vertex 0.0281849 0.0277505 0.0111844
         vertex 0.0281727 0.0277702 0.0112353
      endloop
   endfacet
   facet normal 0.683484 0.70338 -0.195209
      outer loop
         vertex 0.0281161 0.0278329 0.0112499
         vertex 0.0281472 0.027793 0.0112095
         vertex 0.02811 0.0278295 0.0112109
      endloop
   endfacet
   facet normal 0.66874 0.726085 -0.159959
      outer loop
         vertex 0.02811 0.0278295 0.0112109
         vertex 0.0280974 0.0278453 0.0112361
         vertex 0.0281161 0.0278329 0.0112499
      endloop
   endfacet
   facet normal 0.70577 0.698661 -0.11731
      outer loop
         vertex 0.0281472 0.027793 0.0112095
         vertex 0.0281195 0.0278153 0.0111836
         vertex 0.02811 0.0278295 0.0112109
      endloop
   endfacet
   facet normal 0.70577 0.698661 -0.11731
      outer loop
         vertex 0.0281472 0.027793 0.0112095
         vertex 0.0281727 0.0277702 0.0112353
         vertex 0.0281849 0.0277505 0.0111844
      endloop
   endfacet
   facet normal 0.70577 0.698661 -0.11731
      outer loop
         vertex 0.0281472 0.027793 0.0112095
         vertex 0.0281272 0.0278236 0.0112591
         vertex 0.0281544 0.0278007 0.011282
      endloop
   endfacet
   facet normal 0.746257 0.654524 -0.121239
      outer loop
         vertex 0.0281727 0.0277702 0.0112353
         vertex 0.0281544 0.0278007 0.011282
         vertex 0.0281699 0.0277877 0.0112949
      endloop
   endfacet
   facet normal 0.843218 0.532567 -0.0731837
      outer loop
         vertex 0.0282258 0.0277014 0.0112378
         vertex 0.0282069 0.0277257 0.0112123
         vertex 0.0281953 0.0277475 0.0112602
      endloop
   endfacet
   facet normal 0.816117 0.558986 -0.146584
      outer loop
         vertex 0.0281998 0.0277563 0.0113255
         vertex 0.0282146 0.0277252 0.0112835
         vertex 0.0281953 0.0277475 0.0112602
      endloop
   endfacet
   facet normal 0.876784 0.477328 -0.0583842
      outer loop
         vertex 0.0282414 0.0276779 0.0112602
         vertex 0.0282258 0.0277014 0.0112378
         vertex 0.0282146 0.0277252 0.0112835
      endloop
   endfacet
   facet normal 0.926575 0.375935 -0.0114378
      outer loop
         vertex 0.0282637 0.0276335 0.0112955
         vertex 0.0282719 0.0276124 0.0113099
         vertex 0.0282808 0.0275886 0.0112648
      endloop
   endfacet
   facet normal 0.938179 0.346149 2.85193e-06
      outer loop
         vertex 0.0282808 0.0275886 0.0112648
         vertex 0.0282885 0.0275677 0.0112133
         vertex 0.0282637 0.0276335 0.0112955
      endloop
   endfacet
   facet normal 0.940442 0.339954 -1.57012e-05
      outer loop
         vertex 0.0282894 0.027565 0.0112044
         vertex 0.0282696 0.0276143 0.011183
         vertex 0.0282538 0.0276552 0.0112793
      endloop
   endfacet
   facet normal 0.905628 0.422598 -0.0353424
      outer loop
         vertex 0.0282538 0.0276552 0.0112793
         vertex 0.0282637 0.0276335 0.0112955
         vertex 0.0282894 0.027565 0.0112044
      endloop
   endfacet
   facet normal 0.910297 0.413351 -0.0223589
      outer loop
         vertex 0.0282696 0.0276143 0.011183
         vertex 0.0282561 0.0276406 0.0111674
         vertex 0.0282414 0.0276779 0.0112602
      endloop
   endfacet
   facet normal 0.905355 0.422446 -0.0432673
      outer loop
         vertex 0.0282334 0.0277078 0.0113732
         vertex 0.0282637 0.0276335 0.0112955
         vertex 0.0282427 0.0276829 0.0113242
      endloop
   endfacet
   facet normal 0.899157 0.434923 -0.0485624
      outer loop
         vertex 0.0282427 0.0276829 0.0113242
         vertex 0.0282288 0.0277155 0.0113656
         vertex 0.0282334 0.0277078 0.0113732
      endloop
   endfacet
   facet normal 0.926575 0.375935 -0.0114378
      outer loop
         vertex 0.0282637 0.0276335 0.0112955
         vertex 0.0282538 0.0276552 0.0112793
         vertex 0.0282427 0.0276829 0.0113242
      endloop
   endfacet
   facet normal 0.905628 0.422598 -0.0353424
      outer loop
         vertex 0.0282538 0.0276552 0.0112793
         vertex 0.0282414 0.0276779 0.0112602
         vertex 0.0282303 0.0277036 0.0113048
      endloop
   endfacet
   facet normal 0.819598 0.554575 -0.143895
      outer loop
         vertex 0.0282015 0.0277546 0.0113271
         vertex 0.0282202 0.0277301 0.0113511
         vertex 0.0282303 0.0277036 0.0113048
      endloop
   endfacet
   facet normal 0.827675 0.551091 -0.106076
      outer loop
         vertex 0.0282146 0.0277252 0.0112835
         vertex 0.0281998 0.0277563 0.0113255
         vertex 0.0282015 0.0277546 0.0113271
      endloop
   endfacet
   facet normal 0.899157 0.434923 -0.0485624
      outer loop
         vertex 0.0282427 0.0276829 0.0113242
         vertex 0.0282303 0.0277036 0.0113048
         vertex 0.0282202 0.0277301 0.0113511
      endloop
   endfacet
   facet normal 0.926575 0.375935 -0.0114378
      outer loop
         vertex 0.0282637 0.0276335 0.0112955
         vertex 0.0282635 0.0276345 0.0113452
         vertex 0.0282712 0.0276145 0.0113139
      endloop
   endfacet
   facet normal 0.918414 0.395129 -0.0197341
      outer loop
         vertex 0.0282382 0.0276969 0.0113843
         vertex 0.0282505 0.027668 0.0113894
         vertex 0.0282635 0.0276345 0.0113452
      endloop
   endfacet
   facet normal 0.933628 0.358245 -1.33338e-07
      outer loop
         vertex 0.0282635 0.0276345 0.0113452
         vertex 0.0282637 0.0276335 0.0112955
         vertex 0.0282382 0.0276969 0.0113843
      endloop
   endfacet
   facet normal 0.918414 0.395129 -0.0197341
      outer loop
         vertex 0.0282382 0.0276969 0.0113843
         vertex 0.0282461 0.0276792 0.0114024
         vertex 0.0282505 0.027668 0.0113894
      endloop
   endfacet
   facet normal 0.86973 0.49349 -0.00607382
      outer loop
         vertex 0.0282614 0.0276229 0.0109597
         vertex 0.0282478 0.0276453 0.0109497
         vertex 0.0282395 0.027668 0.0111476
      endloop
   endfacet
   facet normal 0.810025 0.586265 -0.0123668
      outer loop
         vertex 0.0282257 0.0276775 0.0109314
         vertex 0.028202 0.0277075 0.0109103
         vertex 0.0281964 0.0277253 0.0110965
      endloop
   endfacet
   facet normal 0.75606 0.651696 -0.0605436
      outer loop
         vertex 0.0281704 0.0277542 0.0110671
         vertex 0.0281964 0.0277253 0.0110965
         vertex 0.028202 0.0277075 0.0109103
      endloop
   endfacet
   facet normal 0.780226 0.625314 -0.0151349
      outer loop
         vertex 0.028202 0.0277075 0.0109103
         vertex 0.0281942 0.0277175 0.0109033
         vertex 0.0281704 0.0277542 0.0110671
      endloop
   endfacet
   facet normal 0.844189 0.535974 -0.00877702
      outer loop
         vertex 0.0282478 0.0276453 0.0109497
         vertex 0.0282467 0.0276471 0.0109489
         vertex 0.0282195 0.0276963 0.0111237
      endloop
   endfacet
   facet normal 0.82234 0.565863 -0.059628
      outer loop
         vertex 0.0282195 0.0276963 0.0111237
         vertex 0.0282395 0.027668 0.0111476
         vertex 0.0282478 0.0276453 0.0109497
      endloop
   endfacet
   facet normal 0.9293 0.369324 -0.000674385
      outer loop
         vertex 0.0282885 0.0275666 0.0109726
         vertex 0.0282809 0.0275846 0.0109704
         vertex 0.0282696 0.0276143 0.011183
      endloop
   endfacet
   facet normal 0.9293 0.369324 -0.000674385
      outer loop
         vertex 0.0282885 0.0275666 0.0109726
         vertex 0.0282894 0.027565 0.0112044
         vertex 0.0282939 0.0275525 0.0111625
      endloop
   endfacet
   facet normal 0.941557 0.336852 1.72838e-05
      outer loop
         vertex 0.0282939 0.0275525 0.0111625
         vertex 0.0282976 0.0275423 0.0111105
         vertex 0.0282885 0.0275666 0.0109726
      endloop
   endfacet
   facet normal 0.942483 0.334255 -1.67974e-05
      outer loop
         vertex 0.0282976 0.0275423 0.0111105
         vertex 0.0282992 0.0275376 0.0110629
         vertex 0.0282885 0.0275666 0.0109726
      endloop
   endfacet
   facet normal 0.942904 0.333064 1.8032e-05
      outer loop
         vertex 0.0282992 0.0275376 0.0110629
         vertex 0.0282994 0.027537 0.0109735
         vertex 0.0282885 0.0275666 0.0109726
      endloop
   endfacet
   facet normal 0.910297 0.413351 -0.0223589
      outer loop
         vertex 0.0282696 0.0276143 0.011183
         vertex 0.0282894 0.027565 0.0112044
         vertex 0.0282885 0.0275666 0.0109726
      endloop
   endfacet
   facet normal 0.908727 0.417385 -0.00227524
      outer loop
         vertex 0.0282791 0.0275883 0.0109696
         vertex 0.0282724 0.0276024 0.0109665
         vertex 0.0282561 0.0276406 0.0111674
      endloop
   endfacet
   facet normal 0.883166 0.467462 -0.0386852
      outer loop
         vertex 0.0282561 0.0276406 0.0111674
         vertex 0.0282696 0.0276143 0.011183
         vertex 0.0282791 0.0275883 0.0109696
      endloop
   endfacet
   facet normal 0.542541 0.839901 -0.0146594
      outer loop
         vertex 0.0280214 0.0278782 0.0109397
         vertex 0.0280514 0.0278579 0.010958
         vertex 0.0280502 0.0278546 0.0107867
      endloop
   endfacet
   facet normal 0.61044 0.791953 -0.0131624
      outer loop
         vertex 0.0280502 0.0278546 0.0107867
         vertex 0.0280273 0.0278717 0.0107726
         vertex 0.0280214 0.0278782 0.0109397
      endloop
   endfacet
   facet normal 0.446683 0.894689 -0.00238387
      outer loop
         vertex 0.0279648 0.0279103 0.0109191
         vertex 0.0279925 0.0278955 0.0109268
         vertex 0.027982 0.0279005 0.0107534
      endloop
   endfacet
   facet normal 0.493455 0.869742 -0.00715733
      outer loop
         vertex 0.0279925 0.0278955 0.0109268
         vertex 0.0280214 0.0278782 0.0109397
         vertex 0.0280199 0.0278767 0.010769
      endloop
   endfacet
   facet normal 0.564042 0.825694 -0.00931179
      outer loop
         vertex 0.0280199 0.0278767 0.010769
         vertex 0.0280028 0.027888 0.0107609
         vertex 0.0279925 0.0278955 0.0109268
      endloop
   endfacet
   facet normal 0.686773 0.726653 -0.0178292
      outer loop
         vertex 0.0281133 0.0278011 0.0108332
         vertex 0.0280815 0.0278291 0.0108084
         vertex 0.0280819 0.027835 0.0109811
      endloop
   endfacet
   facet normal 0.590837 0.806423 -0.0243729
      outer loop
         vertex 0.0280514 0.0278579 0.010958
         vertex 0.0280819 0.027835 0.0109811
         vertex 0.0280815 0.0278291 0.0108084
      endloop
   endfacet
   facet normal 0.650985 0.75892 -0.0161288
      outer loop
         vertex 0.0280815 0.0278291 0.0108084
         vertex 0.0280664 0.0278424 0.0107967
         vertex 0.0280514 0.0278579 0.010958
      endloop
   endfacet
   facet normal 0.679686 0.732077 -0.0457268
      outer loop
         vertex 0.0281124 0.0278097 0.0110079
         vertex 0.0281422 0.0277826 0.0110371
         vertex 0.0281444 0.0277706 0.0108592
      endloop
   endfacet
   facet normal 0.719199 0.694567 -0.018159
      outer loop
         vertex 0.0281444 0.0277706 0.0108592
         vertex 0.0281275 0.0277886 0.0108442
         vertex 0.0281124 0.0278097 0.0110079
      endloop
   endfacet
   facet normal 0.394209 0.918988 -0.00772278
      outer loop
         vertex 0.0279039 0.0279377 0.0110399
         vertex 0.0279032 0.027938 0.0110418
         vertex 0.0279262 0.0279283 0.0110517
      endloop
   endfacet
   facet normal 0.425004 0.905068 0.0149152
      outer loop
         vertex 0.0279578 0.0279137 0.0110364
         vertex 0.0279083 0.0279358 0.0110246
         vertex 0.0279039 0.0279377 0.0110399
      endloop
   endfacet
   facet normal 0.394209 0.918988 -0.00772278
      outer loop
         vertex 0.0279039 0.0279377 0.0110399
         vertex 0.0279501 0.0279177 0.011063
         vertex 0.0279578 0.0279137 0.0110364
      endloop
   endfacet
   facet normal 0.425004 0.905068 0.0149152
      outer loop
         vertex 0.0279578 0.0279137 0.0110364
         vertex 0.0279624 0.0279117 0.0110082
         vertex 0.027911 0.0279347 0.0110109
      endloop
   endfacet
   facet normal 0.393727 0.919227 -0.000105869
      outer loop
         vertex 0.027911 0.0279347 0.0110109
         vertex 0.0279083 0.0279358 0.0110246
         vertex 0.0279578 0.0279137 0.0110364
      endloop
   endfacet
   facet normal 0.434067 0.900873 -0.00365616
      outer loop
         vertex 0.0279624 0.0279117 0.0110082
         vertex 0.027912 0.0279342 0.0110005
         vertex 0.027911 0.0279347 0.0110109
      endloop
   endfacet
   facet normal 0.590837 0.806423 -0.0243729
      outer loop
         vertex 0.0280514 0.0278579 0.010958
         vertex 0.0280214 0.0278782 0.0109397
         vertex 0.028017 0.0278826 0.0110306
      endloop
   endfacet
   facet normal 0.493455 0.869742 -0.00715733
      outer loop
         vertex 0.0279925 0.0278955 0.0109268
         vertex 0.0279648 0.0279103 0.0109191
         vertex 0.0279624 0.0279117 0.0110082
      endloop
   endfacet
   facet normal 0.542541 0.839901 -0.0146594
      outer loop
         vertex 0.0280214 0.0278782 0.0109397
         vertex 0.0279925 0.0278955 0.0109268
         vertex 0.0279891 0.0278982 0.0110171
      endloop
   endfacet
   facet normal 0.679686 0.732077 -0.0457268
      outer loop
         vertex 0.0281124 0.0278097 0.0110079
         vertex 0.0280819 0.027835 0.0109811
         vertex 0.0280794 0.0278392 0.0110227
      endloop
   endfacet
   facet normal 0.590837 0.806423 -0.0243729
      outer loop
         vertex 0.0280514 0.0278579 0.010958
         vertex 0.0280459 0.0278647 0.0110488
         vertex 0.0280794 0.0278392 0.0110227
      endloop
   endfacet
   facet normal 0.553563 0.832571 -0.0198561
      outer loop
         vertex 0.0280459 0.0278647 0.0110488
         vertex 0.0280753 0.0278447 0.0110713
         vertex 0.0280794 0.0278392 0.0110227
      endloop
   endfacet
   facet normal 0.719409 0.692436 -0.0546124
      outer loop
         vertex 0.0281422 0.0277826 0.0110371
         vertex 0.0281124 0.0278097 0.0110079
         vertex 0.0281094 0.0278154 0.0110495
      endloop
   endfacet
   facet normal 0.669917 0.740227 -0.0572282
      outer loop
         vertex 0.0281094 0.0278154 0.0110495
         vertex 0.0280794 0.0278392 0.0110227
         vertex 0.0280753 0.0278447 0.0110713
      endloop
   endfacet
   facet normal 0.595891 0.802514 -0.0297353
      outer loop
         vertex 0.0280753 0.0278447 0.0110713
         vertex 0.02809 0.027834 0.0110839
         vertex 0.0281094 0.0278154 0.0110495
      endloop
   endfacet
   facet normal 0.711832 0.698999 -0.0685182
      outer loop
         vertex 0.0281385 0.02779 0.0110788
         vertex 0.0281094 0.0278154 0.0110495
         vertex 0.0281046 0.0278229 0.0110973
      endloop
   endfacet
   facet normal 0.638709 0.768333 -0.04142
      outer loop
         vertex 0.0281046 0.0278229 0.0110973
         vertex 0.028119 0.0278114 0.0111113
         vertex 0.0281385 0.02779 0.0110788
      endloop
   endfacet
   facet normal 0.553563 0.832571 -0.0198561
      outer loop
         vertex 0.0280459 0.0278647 0.0110488
         vertex 0.028017 0.0278826 0.0110306
         vertex 0.0280115 0.0278857 0.0110628
      endloop
   endfacet
   facet normal 0.404327 0.908403 -0.106414
      outer loop
         vertex 0.0279168 0.0279342 0.0110744
         vertex 0.0279262 0.0279283 0.0110517
         vertex 0.0279011 0.027939 0.0110475
      endloop
   endfacet
   facet normal 0.40696 0.912938 -0.0304491
      outer loop
         vertex 0.0279262 0.0279283 0.0110517
         vertex 0.0279032 0.027938 0.0110418
         vertex 0.0279011 0.027939 0.0110475
      endloop
   endfacet
   facet normal 0.393761 0.918871 -0.0250738
      outer loop
         vertex 0.0279011 0.027939 0.0110475
         vertex 0.0278963 0.0279416 0.0110586
         vertex 0.0279168 0.0279342 0.0110744
      endloop
   endfacet
   facet normal 0.511768 0.859037 -0.0121857
      outer loop
         vertex 0.028017 0.0278826 0.0110306
         vertex 0.0279891 0.0278982 0.0110171
         vertex 0.027984 0.0279007 0.0110478
      endloop
   endfacet
   facet normal 0.471252 0.881972 -0.00687455
      outer loop
         vertex 0.0279891 0.0278982 0.0110171
         vertex 0.0279624 0.0279117 0.0110082
         vertex 0.0279578 0.0279137 0.0110364
      endloop
   endfacet
   facet normal 0.425004 0.905068 0.0149152
      outer loop
         vertex 0.0279578 0.0279137 0.0110364
         vertex 0.027984 0.0279007 0.0110478
         vertex 0.0279891 0.0278982 0.0110171
      endloop
   endfacet
   facet normal 0.425004 0.905068 0.0149152
      outer loop
         vertex 0.0279578 0.0279137 0.0110364
         vertex 0.0279501 0.0279177 0.011063
         vertex 0.02798 0.0279025 0.0110624
      endloop
   endfacet
   facet normal 0.435972 0.898761 -0.046441
      outer loop
         vertex 0.0279501 0.0279177 0.011063
         vertex 0.0279756 0.0279054 0.0110766
         vertex 0.02798 0.0279025 0.0110624
      endloop
   endfacet
   facet normal 0.486569 0.873403 0.0204636
      outer loop
         vertex 0.0280115 0.0278857 0.0110628
         vertex 0.027984 0.0279007 0.0110478
         vertex 0.02798 0.0279025 0.0110624
      endloop
   endfacet
   facet normal 0.496033 0.868203 -0.0132181
      outer loop
         vertex 0.0280073 0.0278879 0.0110781
         vertex 0.02798 0.0279025 0.0110624
         vertex 0.0279756 0.0279054 0.0110766
      endloop
   endfacet
   facet normal 0.472704 0.87924 -0.059053
      outer loop
         vertex 0.0279756 0.0279054 0.0110766
         vertex 0.0279501 0.0279177 0.011063
         vertex 0.0279397 0.0279254 0.0110887
      endloop
   endfacet
   facet normal 0.401289 0.900124 -0.169543
      outer loop
         vertex 0.0279048 0.0279425 0.0110947
         vertex 0.0279168 0.0279342 0.0110744
         vertex 0.0278909 0.0279448 0.0110687
      endloop
   endfacet
   facet normal 0.404327 0.908403 -0.106414
      outer loop
         vertex 0.0279168 0.0279342 0.0110744
         vertex 0.027895 0.0279423 0.0110609
         vertex 0.0278909 0.0279448 0.0110687
      endloop
   endfacet
   facet normal 0.435972 0.898761 -0.046441
      outer loop
         vertex 0.0279501 0.0279177 0.011063
         vertex 0.0279262 0.0279283 0.0110517
         vertex 0.0279168 0.0279342 0.0110744
      endloop
   endfacet
   facet normal 0.433303 0.881057 -0.189703
      outer loop
         vertex 0.0279259 0.0279362 0.0111117
         vertex 0.0279397 0.0279254 0.0110887
         vertex 0.0279168 0.0279342 0.0110744
      endloop
   endfacet
   facet normal 0.474909 0.857639 -0.197273
      outer loop
         vertex 0.0279504 0.0279267 0.0111297
         vertex 0.0279646 0.0279149 0.0111047
         vertex 0.0279397 0.0279254 0.0110887
      endloop
   endfacet
   facet normal 0.511638 0.856351 -0.0699244
      outer loop
         vertex 0.0280027 0.0278913 0.0110931
         vertex 0.0279756 0.0279054 0.0110766
         vertex 0.0279646 0.0279149 0.0111047
      endloop
   endfacet
   facet normal 0.513453 0.834685 -0.199166
      outer loop
         vertex 0.0279751 0.0279172 0.011148
         vertex 0.0279914 0.0279023 0.0111225
         vertex 0.0279646 0.0279149 0.0111047
      endloop
   endfacet
   facet normal 0.477313 0.867314 -0.141205
      outer loop
         vertex 0.0279646 0.0279149 0.0111047
         vertex 0.0279504 0.0279267 0.0111297
         vertex 0.0279751 0.0279172 0.011148
      endloop
   endfacet
   facet normal 0.550563 0.830944 -0.0800819
      outer loop
         vertex 0.0280313 0.027875 0.0111124
         vertex 0.0280027 0.0278913 0.0110931
         vertex 0.0279914 0.0279023 0.0111225
      endloop
   endfacet
   facet normal 0.617314 0.785921 -0.0353812
      outer loop
         vertex 0.02809 0.027834 0.0110839
         vertex 0.0280753 0.0278447 0.0110713
         vertex 0.0280694 0.0278494 0.0111038
      endloop
   endfacet
   facet normal 0.521599 0.853035 0.0162738
      outer loop
         vertex 0.0280401 0.0278686 0.0110817
         vertex 0.0280115 0.0278857 0.0110628
         vertex 0.0280073 0.0278879 0.0110781
      endloop
   endfacet
   facet normal 0.595891 0.802514 -0.0297353
      outer loop
         vertex 0.0280753 0.0278447 0.0110713
         vertex 0.0280459 0.0278647 0.0110488
         vertex 0.0280401 0.0278686 0.0110817
      endloop
   endfacet
   facet normal 0.559427 0.828847 0.00731848
      outer loop
         vertex 0.0280694 0.0278494 0.0111038
         vertex 0.0280401 0.0278686 0.0110817
         vertex 0.0280359 0.0278711 0.0110972
      endloop
   endfacet
   facet normal 0.532512 0.84616 -0.0210594
      outer loop
         vertex 0.0280359 0.0278711 0.0110972
         vertex 0.0280073 0.0278879 0.0110781
         vertex 0.0280027 0.0278913 0.0110931
      endloop
   endfacet
   facet normal 0.570577 0.820633 -0.0316557
      outer loop
         vertex 0.0280652 0.0278524 0.0111192
         vertex 0.0280359 0.0278711 0.0110972
         vertex 0.0280313 0.027875 0.0111124
      endloop
   endfacet
   facet normal 0.600523 0.799584 -0.00614905
      outer loop
         vertex 0.0280988 0.0278285 0.0111288
         vertex 0.0281132 0.0278175 0.011142
         vertex 0.028119 0.0278114 0.0111113
      endloop
   endfacet
   facet normal 0.61052 0.790733 -0.0447913
      outer loop
         vertex 0.0280947 0.0278319 0.0111437
         vertex 0.0280988 0.0278285 0.0111288
         vertex 0.0280841 0.0278392 0.011116
      endloop
   endfacet
   facet normal 0.579601 0.8149 0.00112479
      outer loop
         vertex 0.0280841 0.0278392 0.011116
         vertex 0.0280652 0.0278524 0.0111192
         vertex 0.0280947 0.0278319 0.0111437
      endloop
   endfacet
   facet normal 0.579601 0.8149 0.00112479
      outer loop
         vertex 0.0280841 0.0278392 0.011116
         vertex 0.0280988 0.0278285 0.0111288
         vertex 0.0281046 0.0278229 0.0110973
      endloop
   endfacet
   facet normal 0.61052 0.790733 -0.0447913
      outer loop
         vertex 0.0280947 0.0278319 0.0111437
         vertex 0.0280652 0.0278524 0.0111192
         vertex 0.0280607 0.0278568 0.0111342
      endloop
   endfacet
   facet normal 0.622282 0.782662 -0.0143172
      outer loop
         vertex 0.0281132 0.0278175 0.011142
         vertex 0.0280988 0.0278285 0.0111288
         vertex 0.0280947 0.0278319 0.0111437
      endloop
   endfacet
   facet normal 0.622282 0.782662 -0.0143172
      outer loop
         vertex 0.0281132 0.0278175 0.011142
         vertex 0.0281274 0.0278062 0.0111555
         vertex 0.0281331 0.0277996 0.0111257
      endloop
   endfacet
   facet normal 0.644913 0.763906 -0.0231516
      outer loop
         vertex 0.0281274 0.0278062 0.0111555
         vertex 0.0281132 0.0278175 0.011142
         vertex 0.0281093 0.0278212 0.0111566
      endloop
   endfacet
   facet normal 0.627383 0.772244 -0.100149
      outer loop
         vertex 0.0280904 0.0278367 0.0111582
         vertex 0.0281051 0.0278262 0.0111708
         vertex 0.0281093 0.0278212 0.0111566
      endloop
   endfacet
   facet normal 0.646652 0.75552 -0.105029
      outer loop
         vertex 0.0281051 0.0278262 0.0111708
         vertex 0.0281195 0.0278153 0.0111836
         vertex 0.0281236 0.0278101 0.0111697
      endloop
   endfacet
   facet normal 0.59628 0.787554 -0.155593
      outer loop
         vertex 0.0280499 0.0278699 0.011164
         vertex 0.0280801 0.0278505 0.011187
         vertex 0.0280904 0.0278367 0.0111582
      endloop
   endfacet
   facet normal 0.516116 0.833043 -0.199156
      outer loop
         vertex 0.0279769 0.0279163 0.0111492
         vertex 0.028036 0.0278859 0.011191
         vertex 0.0280201 0.0278873 0.0111424
      endloop
   endfacet
   facet normal 0.591891 0.78116 -0.19863
      outer loop
         vertex 0.028036 0.0278859 0.011191
         vertex 0.0280499 0.0278699 0.011164
         vertex 0.0280201 0.0278873 0.0111424
      endloop
   endfacet
   facet normal 0.58903 0.803067 -0.0901513
      outer loop
         vertex 0.0280607 0.0278568 0.0111342
         vertex 0.0280313 0.027875 0.0111124
         vertex 0.0280201 0.0278873 0.0111424
      endloop
   endfacet
   facet normal 0.59628 0.787554 -0.155593
      outer loop
         vertex 0.0280499 0.0278699 0.011164
         vertex 0.028036 0.0278859 0.011191
         vertex 0.0280376 0.0278851 0.0111922
      endloop
   endfacet
   facet normal 0.662045 0.723149 -0.196856
      outer loop
         vertex 0.0280974 0.0278453 0.0112361
         vertex 0.02811 0.0278295 0.0112109
         vertex 0.0280801 0.0278505 0.011187
      endloop
   endfacet
   facet normal 0.632662 0.758091 -0.158227
      outer loop
         vertex 0.0280801 0.0278505 0.011187
         vertex 0.0280376 0.0278851 0.0111922
         vertex 0.0280974 0.0278453 0.0112361
      endloop
   endfacet
   facet normal 0.66874 0.726085 -0.159959
      outer loop
         vertex 0.02811 0.0278295 0.0112109
         vertex 0.0281195 0.0278153 0.0111836
         vertex 0.0281051 0.0278262 0.0111708
      endloop
   endfacet
   facet normal 0.646652 0.75552 -0.105029
      outer loop
         vertex 0.0281051 0.0278262 0.0111708
         vertex 0.0280801 0.0278505 0.011187
         vertex 0.02811 0.0278295 0.0112109
      endloop
   endfacet
   facet normal 0.646652 0.75552 -0.105029
      outer loop
         vertex 0.0281051 0.0278262 0.0111708
         vertex 0.0280904 0.0278367 0.0111582
         vertex 0.0280801 0.0278505 0.011187
      endloop
   endfacet
   facet normal 0.593791 0.779728 -0.198586
      outer loop
         vertex 0.0280376 0.0278851 0.0111922
         vertex 0.0280801 0.0278505 0.011187
         vertex 0.0280499 0.0278699 0.011164
      endloop
   endfacet
   facet normal 0.558576 0.815352 -0.152299
      outer loop
         vertex 0.0280201 0.0278873 0.0111424
         vertex 0.0280499 0.0278699 0.011164
         vertex 0.0280607 0.0278568 0.0111342
      endloop
   endfacet
   facet normal 0.558576 0.815352 -0.152299
      outer loop
         vertex 0.0280201 0.0278873 0.0111424
         vertex 0.0279914 0.0279023 0.0111225
         vertex 0.0279769 0.0279163 0.0111492
      endloop
   endfacet
   facet normal 0.627383 0.772244 -0.100149
      outer loop
         vertex 0.0280904 0.0278367 0.0111582
         vertex 0.0280607 0.0278568 0.0111342
         vertex 0.0280499 0.0278699 0.011164
      endloop
   endfacet
   facet normal 0.652538 0.755407 -0.059618
      outer loop
         vertex 0.0281236 0.0278101 0.0111697
         vertex 0.0281093 0.0278212 0.0111566
         vertex 0.0281051 0.0278262 0.0111708
      endloop
   endfacet
   facet normal 0.631227 0.773846 -0.0520978
      outer loop
         vertex 0.0281093 0.0278212 0.0111566
         vertex 0.0280947 0.0278319 0.0111437
         vertex 0.0280904 0.0278367 0.0111582
      endloop
   endfacet
   facet normal 0.631227 0.773846 -0.0520978
      outer loop
         vertex 0.0281093 0.0278212 0.0111566
         vertex 0.0281236 0.0278101 0.0111697
         vertex 0.0281274 0.0278062 0.0111555
      endloop
   endfacet
   facet normal 0.681799 0.729546 -0.0539693
      outer loop
         vertex 0.0281331 0.0277996 0.0111257
         vertex 0.028119 0.0278114 0.0111113
         vertex 0.0281132 0.0278175 0.011142
      endloop
   endfacet
   facet normal 0.61052 0.790733 -0.0447913
      outer loop
         vertex 0.0280947 0.0278319 0.0111437
         vertex 0.0281093 0.0278212 0.0111566
         vertex 0.0281132 0.0278175 0.011142
      endloop
   endfacet
   facet normal 0.58903 0.803067 -0.0901513
      outer loop
         vertex 0.0280607 0.0278568 0.0111342
         vertex 0.0280904 0.0278367 0.0111582
         vertex 0.0280947 0.0278319 0.0111437
      endloop
   endfacet
   facet normal 0.638709 0.768333 -0.04142
      outer loop
         vertex 0.0281046 0.0278229 0.0110973
         vertex 0.02809 0.027834 0.0110839
         vertex 0.0280841 0.0278392 0.011116
      endloop
   endfacet
   facet normal 0.579601 0.8149 0.00112479
      outer loop
         vertex 0.0280841 0.0278392 0.011116
         vertex 0.0280694 0.0278494 0.0111038
         vertex 0.0280652 0.0278524 0.0111192
      endloop
   endfacet
   facet normal 0.660184 0.749589 -0.0476844
      outer loop
         vertex 0.028119 0.0278114 0.0111113
         vertex 0.0281046 0.0278229 0.0110973
         vertex 0.0280988 0.0278285 0.0111288
      endloop
   endfacet
   facet normal 0.550563 0.830944 -0.0800819
      outer loop
         vertex 0.0280313 0.027875 0.0111124
         vertex 0.0280607 0.0278568 0.0111342
         vertex 0.0280652 0.0278524 0.0111192
      endloop
   endfacet
   facet normal 0.511638 0.856351 -0.0699244
      outer loop
         vertex 0.0280027 0.0278913 0.0110931
         vertex 0.0280313 0.027875 0.0111124
         vertex 0.0280359 0.0278711 0.0110972
      endloop
   endfacet
   facet normal 0.532512 0.84616 -0.0210594
      outer loop
         vertex 0.0280359 0.0278711 0.0110972
         vertex 0.0280652 0.0278524 0.0111192
         vertex 0.0280694 0.0278494 0.0111038
      endloop
   endfacet
   facet normal 0.521599 0.853035 0.0162738
      outer loop
         vertex 0.0280401 0.0278686 0.0110817
         vertex 0.0280694 0.0278494 0.0111038
         vertex 0.0280753 0.0278447 0.0110713
      endloop
   endfacet
   facet normal 0.496033 0.868203 -0.0132181
      outer loop
         vertex 0.0280073 0.0278879 0.0110781
         vertex 0.0280359 0.0278711 0.0110972
         vertex 0.0280401 0.0278686 0.0110817
      endloop
   endfacet
   facet normal 0.559427 0.828847 0.00731848
      outer loop
         vertex 0.0280694 0.0278494 0.0111038
         vertex 0.0280841 0.0278392 0.011116
         vertex 0.02809 0.027834 0.0110839
      endloop
   endfacet
   facet normal 0.518802 0.841984 -0.148012
      outer loop
         vertex 0.0279914 0.0279023 0.0111225
         vertex 0.0280201 0.0278873 0.0111424
         vertex 0.0280313 0.027875 0.0111124
      endloop
   endfacet
   facet normal 0.513453 0.834685 -0.199166
      outer loop
         vertex 0.0279751 0.0279172 0.011148
         vertex 0.0279769 0.0279163 0.0111492
         vertex 0.0279914 0.0279023 0.0111225
      endloop
   endfacet
   facet normal 0.477313 0.867314 -0.141205
      outer loop
         vertex 0.0279646 0.0279149 0.0111047
         vertex 0.0279914 0.0279023 0.0111225
         vertex 0.0280027 0.0278913 0.0110931
      endloop
   endfacet
   facet normal 0.436716 0.890284 -0.129126
      outer loop
         vertex 0.0279397 0.0279254 0.0110887
         vertex 0.0279259 0.0279362 0.0111117
         vertex 0.0279504 0.0279267 0.0111297
      endloop
   endfacet
   facet normal 0.404327 0.908403 -0.106414
      outer loop
         vertex 0.0279168 0.0279342 0.0110744
         vertex 0.0279048 0.0279425 0.0110947
         vertex 0.0279259 0.0279362 0.0111117
      endloop
   endfacet
   facet normal 0.404327 0.908403 -0.106414
      outer loop
         vertex 0.0279168 0.0279342 0.0110744
         vertex 0.0279397 0.0279254 0.0110887
         vertex 0.0279501 0.0279177 0.011063
      endloop
   endfacet
   facet normal 0.391316 0.915278 -0.0955932
      outer loop
         vertex 0.0278909 0.0279448 0.0110687
         vertex 0.0278845 0.0279487 0.0110783
         vertex 0.0279048 0.0279425 0.0110947
      endloop
   endfacet
   facet normal 0.436716 0.890284 -0.129126
      outer loop
         vertex 0.0279397 0.0279254 0.0110887
         vertex 0.0279646 0.0279149 0.0111047
         vertex 0.0279756 0.0279054 0.0110766
      endloop
   endfacet
   facet normal 0.472704 0.87924 -0.059053
      outer loop
         vertex 0.0279756 0.0279054 0.0110766
         vertex 0.0280027 0.0278913 0.0110931
         vertex 0.0280073 0.0278879 0.0110781
      endloop
   endfacet
   facet normal 0.461303 0.887206 -0.00802511
      outer loop
         vertex 0.02798 0.0279025 0.0110624
         vertex 0.0280073 0.0278879 0.0110781
         vertex 0.0280115 0.0278857 0.0110628
      endloop
   endfacet
   facet normal 0.461303 0.887206 -0.00802511
      outer loop
         vertex 0.02798 0.0279025 0.0110624
         vertex 0.027984 0.0279007 0.0110478
         vertex 0.0279578 0.0279137 0.0110364
      endloop
   endfacet
   facet normal 0.454136 0.890712 0.0197931
      outer loop
         vertex 0.027984 0.0279007 0.0110478
         vertex 0.0280115 0.0278857 0.0110628
         vertex 0.028017 0.0278826 0.0110306
      endloop
   endfacet
   facet normal 0.391909 0.918071 -0.0596085
      outer loop
         vertex 0.0278963 0.0279416 0.0110586
         vertex 0.027895 0.0279423 0.0110609
         vertex 0.0279168 0.0279342 0.0110744
      endloop
   endfacet
   facet normal 0.486569 0.873403 0.0204636
      outer loop
         vertex 0.0280115 0.0278857 0.0110628
         vertex 0.0280401 0.0278686 0.0110817
         vertex 0.0280459 0.0278647 0.0110488
      endloop
   endfacet
   facet normal 0.660184 0.749589 -0.0476844
      outer loop
         vertex 0.028119 0.0278114 0.0111113
         vertex 0.0281331 0.0277996 0.0111257
         vertex 0.0281385 0.02779 0.0110788
      endloop
   endfacet
   facet normal 0.617314 0.785921 -0.0353812
      outer loop
         vertex 0.02809 0.027834 0.0110839
         vertex 0.0281046 0.0278229 0.0110973
         vertex 0.0281094 0.0278154 0.0110495
      endloop
   endfacet
   facet normal 0.669917 0.740227 -0.0572282
      outer loop
         vertex 0.0281094 0.0278154 0.0110495
         vertex 0.0281385 0.02779 0.0110788
         vertex 0.0281422 0.0277826 0.0110371
      endloop
   endfacet
   facet normal 0.625138 0.779283 -0.043825
      outer loop
         vertex 0.0280794 0.0278392 0.0110227
         vertex 0.0280819 0.027835 0.0109811
         vertex 0.0280514 0.0278579 0.010958
      endloop
   endfacet
   facet normal 0.625138 0.779283 -0.043825
      outer loop
         vertex 0.0280794 0.0278392 0.0110227
         vertex 0.0281094 0.0278154 0.0110495
         vertex 0.0281124 0.0278097 0.0110079
      endloop
   endfacet
   facet normal 0.471252 0.881972 -0.00687455
      outer loop
         vertex 0.0279891 0.0278982 0.0110171
         vertex 0.028017 0.0278826 0.0110306
         vertex 0.0280214 0.0278782 0.0109397
      endloop
   endfacet
   facet normal 0.434067 0.900873 -0.00365616
      outer loop
         vertex 0.0279624 0.0279117 0.0110082
         vertex 0.0279891 0.0278982 0.0110171
         vertex 0.0279925 0.0278955 0.0109268
      endloop
   endfacet
   facet normal 0.511768 0.859037 -0.0121857
      outer loop
         vertex 0.028017 0.0278826 0.0110306
         vertex 0.0280459 0.0278647 0.0110488
         vertex 0.0280514 0.0278579 0.010958
      endloop
   endfacet
   facet normal 0.40696 0.912938 -0.0304491
      outer loop
         vertex 0.0279262 0.0279283 0.0110517
         vertex 0.0279501 0.0279177 0.011063
         vertex 0.0279039 0.0279377 0.0110399
      endloop
   endfacet
   facet normal 0.701099 0.712833 -0.018139
      outer loop
         vertex 0.0281275 0.0277886 0.0108442
         vertex 0.0281133 0.0278011 0.0108332
         vertex 0.0281124 0.0278097 0.0110079
      endloop
   endfacet
   facet normal 0.631413 0.775305 -0.0147949
      outer loop
         vertex 0.0280664 0.0278424 0.0107967
         vertex 0.0280502 0.0278546 0.0107867
         vertex 0.0280514 0.0278579 0.010958
      endloop
   endfacet
   facet normal 0.636725 0.770288 -0.0351689
      outer loop
         vertex 0.0280819 0.027835 0.0109811
         vertex 0.0281124 0.0278097 0.0110079
         vertex 0.0281133 0.0278011 0.0108332
      endloop
   endfacet
   facet normal 0.53402 0.845444 -0.00691569
      outer loop
         vertex 0.0280028 0.027888 0.0107609
         vertex 0.027982 0.0279005 0.0107534
         vertex 0.0279925 0.0278955 0.0109268
      endloop
   endfacet
   facet normal 0.495444 0.86863 -0.00413852
      outer loop
         vertex 0.027982 0.0279005 0.0107534
         vertex 0.0279635 0.0279105 0.0107489
         vertex 0.0279648 0.0279103 0.0109191
      endloop
   endfacet
   facet normal 0.575963 0.817411 -0.0102946
      outer loop
         vertex 0.0280273 0.0278717 0.0107726
         vertex 0.0280199 0.0278767 0.010769
         vertex 0.0280214 0.0278782 0.0109397
      endloop
   endfacet
   facet normal 0.892955 0.45013 -0.0037204
      outer loop
         vertex 0.0282724 0.0276024 0.0109665
         vertex 0.0282614 0.0276229 0.0109597
         vertex 0.0282561 0.0276406 0.0111674
      endloop
   endfacet
   facet normal 0.9128 0.408403 -0.00193087
      outer loop
         vertex 0.0282809 0.0275846 0.0109704
         vertex 0.0282791 0.0275883 0.0109696
         vertex 0.0282696 0.0276143 0.011183
      endloop
   endfacet
   facet normal 0.842282 0.538963 -0.0089789
      outer loop
         vertex 0.0282467 0.0276471 0.0109489
         vertex 0.0282257 0.0276775 0.0109314
         vertex 0.0282195 0.0276963 0.0111237
      endloop
   endfacet
   facet normal 0.770951 0.636697 -0.0158613
      outer loop
         vertex 0.0281942 0.0277175 0.0109033
         vertex 0.028174 0.027739 0.0108855
         vertex 0.0281704 0.0277542 0.0110671
      endloop
   endfacet
   facet normal 0.790141 0.609734 -0.0624667
      outer loop
         vertex 0.0281964 0.0277253 0.0110965
         vertex 0.0282195 0.0276963 0.0111237
         vertex 0.0282257 0.0276775 0.0109314
      endloop
   endfacet
   facet normal 0.85339 0.518711 -0.0516122
      outer loop
         vertex 0.0282395 0.027668 0.0111476
         vertex 0.0282561 0.0276406 0.0111674
         vertex 0.0282614 0.0276229 0.0109597
      endloop
   endfacet
   facet normal 0.935651 0.352927 1.21512e-06
      outer loop
         vertex 0.0282712 0.0276145 0.0113139
         vertex 0.0282719 0.0276124 0.0113099
         vertex 0.0282637 0.0276335 0.0112955
      endloop
   endfacet
   facet normal 0.866848 0.488796 -0.0982524
      outer loop
         vertex 0.0282202 0.0277301 0.0113511
         vertex 0.0282288 0.0277155 0.0113656
         vertex 0.0282427 0.0276829 0.0113242
      endloop
   endfacet
   facet normal 0.865937 0.493373 -0.0820687
      outer loop
         vertex 0.0282303 0.0277036 0.0113048
         vertex 0.0282146 0.0277252 0.0112835
         vertex 0.0282015 0.0277546 0.0113271
      endloop
   endfacet
   facet normal 0.865937 0.493373 -0.0820687
      outer loop
         vertex 0.0282303 0.0277036 0.0113048
         vertex 0.0282427 0.0276829 0.0113242
         vertex 0.0282538 0.0276552 0.0112793
      endloop
   endfacet
   facet normal 0.905355 0.422446 -0.0432673
      outer loop
         vertex 0.0282334 0.0277078 0.0113732
         vertex 0.0282382 0.0276969 0.0113843
         vertex 0.0282637 0.0276335 0.0112955
      endloop
   endfacet
   facet normal 0.876784 0.477328 -0.0583842
      outer loop
         vertex 0.0282414 0.0276779 0.0112602
         vertex 0.0282538 0.0276552 0.0112793
         vertex 0.0282696 0.0276143 0.011183
      endloop
   endfacet
   facet normal 0.940163 0.340726 -1.07604e-05
      outer loop
         vertex 0.0282885 0.0275677 0.0112133
         vertex 0.0282894 0.027565 0.0112044
         vertex 0.0282637 0.0276335 0.0112955
      endloop
   endfacet
   facet normal 0.827675 0.551091 -0.106076
      outer loop
         vertex 0.0282146 0.0277252 0.0112835
         vertex 0.0282303 0.0277036 0.0113048
         vertex 0.0282414 0.0276779 0.0112602
      endloop
   endfacet
   facet normal 0.787134 0.60528 -0.118559
      outer loop
         vertex 0.0281953 0.0277475 0.0112602
         vertex 0.0281699 0.0277877 0.0112949
         vertex 0.0281998 0.0277563 0.0113255
      endloop
   endfacet
   facet normal 0.787134 0.60528 -0.118559
      outer loop
         vertex 0.0281953 0.0277475 0.0112602
         vertex 0.0282146 0.0277252 0.0112835
         vertex 0.0282258 0.0277014 0.0112378
      endloop
   endfacet
   facet normal 0.758446 0.626801 -0.178549
      outer loop
         vertex 0.0281699 0.0277877 0.0112949
         vertex 0.0281953 0.0277475 0.0112602
         vertex 0.0281727 0.0277702 0.0112353
      endloop
   endfacet
   facet normal 0.735195 0.651777 -0.186212
      outer loop
         vertex 0.0281544 0.0278007 0.011282
         vertex 0.0281727 0.0277702 0.0112353
         vertex 0.0281472 0.027793 0.0112095
      endloop
   endfacet
   facet normal 0.766403 0.637983 -0.0748597
      outer loop
         vertex 0.0281849 0.0277505 0.0111844
         vertex 0.0281601 0.0277753 0.0111551
         vertex 0.0281472 0.027793 0.0112095
      endloop
   endfacet
   facet normal 0.683484 0.70338 -0.195209
      outer loop
         vertex 0.0281161 0.0278329 0.0112499
         vertex 0.0281272 0.0278236 0.0112591
         vertex 0.0281472 0.027793 0.0112095
      endloop
   endfacet
   facet normal 0.746257 0.654524 -0.121239
      outer loop
         vertex 0.0281727 0.0277702 0.0112353
         vertex 0.0281953 0.0277475 0.0112602
         vertex 0.0282069 0.0277257 0.0112123
      endloop
   endfacet
   facet normal 0.806139 0.586537 -0.0781989
      outer loop
         vertex 0.0282069 0.0277257 0.0112123
         vertex 0.0282258 0.0277014 0.0112378
         vertex 0.0282395 0.027668 0.0111476
      endloop
   endfacet
   facet normal 0.724626 0.685987 -0.0658668
      outer loop
         vertex 0.0281601 0.0277753 0.0111551
         vertex 0.0281849 0.0277505 0.0111844
         vertex 0.0281964 0.0277253 0.0110965
      endloop
   endfacet
   facet normal 0.766403 0.637983 -0.0748597
      outer loop
         vertex 0.0281849 0.0277505 0.0111844
         vertex 0.0282069 0.0277257 0.0112123
         vertex 0.0282195 0.0276963 0.0111237
      endloop
   endfacet
   facet normal 0.652538 0.755407 -0.059618
      outer loop
         vertex 0.0281236 0.0278101 0.0111697
         vertex 0.0281195 0.0278153 0.0111836
         vertex 0.0281472 0.027793 0.0112095
      endloop
   endfacet
   facet normal 0.843218 0.532567 -0.0731837
      outer loop
         vertex 0.0282258 0.0277014 0.0112378
         vertex 0.0282414 0.0276779 0.0112602
         vertex 0.0282561 0.0276406 0.0111674
      endloop
   endfacet
   facet normal 0.394486 0.918902 -9.4734e-10
      outer loop
         vertex 0.0279127 0.0279339 0.0107892
         vertex 0.0279127 0.0279339 0.0109154
         vertex 0.0279648 0.0279103 0.0109191
      endloop
   endfacet
   facet normal 0.394422 0.918929 -0.000586574
      outer loop
         vertex 0.0279124 0.027934 0.0109958
         vertex 0.027912 0.0279342 0.0110005
         vertex 0.0279624 0.0279117 0.0110082
      endloop
   endfacet
   facet normal 0.719409 0.692436 -0.0546124
      outer loop
         vertex 0.0281422 0.0277826 0.0110371
         vertex 0.0281704 0.0277542 0.0110671
         vertex 0.028174 0.027739 0.0108855
      endloop
   endfacet
   facet normal 0.681799 0.729546 -0.0539693
      outer loop
         vertex 0.0281331 0.0277996 0.0111257
         vertex 0.0281601 0.0277753 0.0111551
         vertex 0.0281704 0.0277542 0.0110671
      endloop
   endfacet
endsolid 1111. Units = meters