solid 1111. STL generated by ONSHAPE BY PTC INC, 1.216. Units = meters
   facet normal -0.449344 0.482508 0.751848
      outer loop
         vertex -0.0420761 0.0339386 0.0207803
         vertex -0.042055 0.0339186 0.0208045
         vertex -0.0417915 0.0341773 0.0207931
      endloop
   endfacet
   facet normal -0.394019 0.448113 0.802461
      outer loop
         vertex -0.0417915 0.0341773 0.0207931
         vertex -0.0415298 0.034456 0.0207578
         vertex -0.0420761 0.0339386 0.0207803
      endloop
   endfacet
   facet normal -0.409883 0.509135 0.756821
      outer loop
         vertex -0.0415298 0.034456 0.0207578
         vertex -0.0415045 0.0344285 0.0207817
         vertex -0.0413143 0.034595 0.0207741
      endloop
   endfacet
   facet normal -0.345061 0.476357 0.808713
      outer loop
         vertex -0.0413143 0.034595 0.0207741
         vertex -0.0412221 0.0347036 0.0207464
         vertex -0.0415298 0.034456 0.0207578
      endloop
   endfacet
   facet normal -0.36992 0.532579 0.761261
      outer loop
         vertex -0.0412221 0.0347036 0.0207464
         vertex -0.0412006 0.0346764 0.0207702
         vertex -0.0409637 0.034846 0.0207623
      endloop
   endfacet
   facet normal -0.257753 0.517352 0.816034
      outer loop
         vertex -0.0406764 0.0350124 0.0207543
         vertex -0.0406932 0.0350416 0.0207306
         vertex -0.0409574 0.0348862 0.0207379
      endloop
   endfacet
   facet normal -0.248898 0.589008 0.768843
      outer loop
         vertex -0.0404329 0.0351703 0.0207245
         vertex -0.0406932 0.0350416 0.0207306
         vertex -0.0406124 0.0350495 0.0207526
      endloop
   endfacet
   facet normal -0.289563 0.572509 0.767064
      outer loop
         vertex -0.0406932 0.0350416 0.0207306
         vertex -0.0406764 0.0350124 0.0207543
         vertex -0.0406124 0.0350495 0.0207526
      endloop
   endfacet
   facet normal -0.248898 0.589008 0.768843
      outer loop
         vertex -0.0404329 0.0351703 0.0207245
         vertex -0.0404173 0.0351374 0.0207484
         vertex -0.0402329 0.0352205 0.0207445
      endloop
   endfacet
   facet normal -0.194813 0.540522 0.818464
      outer loop
         vertex -0.0402329 0.0352205 0.0207445
         vertex -0.0401475 0.0352855 0.0207191
         vertex -0.0404329 0.0351703 0.0207245
      endloop
   endfacet
   facet normal -0.204102 0.604902 0.769699
      outer loop
         vertex -0.0401475 0.0352855 0.0207191
         vertex -0.0401354 0.035253 0.020743
         vertex -0.0398601 0.0353444 0.0207387
      endloop
   endfacet
   facet normal -0.105944 0.565081 0.818205
      outer loop
         vertex -0.0395554 0.0354137 0.0207356
         vertex -0.0395624 0.0354474 0.0207118
         vertex -0.0398644 0.0353754 0.020715
      endloop
   endfacet
   facet normal -0.077111 0.635438 0.768292
      outer loop
         vertex -0.0392454 0.0354991 0.0207095
         vertex -0.0395624 0.0354474 0.0207118
         vertex -0.0394605 0.0354352 0.0207346
      endloop
   endfacet
   facet normal -0.118858 0.62779 0.769255
      outer loop
         vertex -0.0395624 0.0354474 0.0207118
         vertex -0.0395554 0.0354137 0.0207356
         vertex -0.0394605 0.0354352 0.0207346
      endloop
   endfacet
   facet normal -0.077111 0.635438 0.768292
      outer loop
         vertex -0.0392454 0.0354991 0.0207095
         vertex -0.0392406 0.0354613 0.0207335
         vertex -0.0389091 0.0355007 0.0207318
      endloop
   endfacet
   facet normal -0.0369213 0.576664 0.816147
      outer loop
         vertex -0.0389091 0.0355007 0.0207318
         vertex -0.0388089 0.0355375 0.0207079
         vertex -0.0392454 0.0354991 0.0207095
      endloop
   endfacet
   facet normal 7.85175e-05 0.642508 0.766279
      outer loop
         vertex -0.0376798 0.0355491 0.0207074
         vertex -0.0388089 0.0355375 0.0207079
         vertex -0.0388073 0.0355013 0.0207318
      endloop
   endfacet
   facet normal -4.39323e-06 0.642564 0.766232
      outer loop
         vertex -0.0310991 0.0355492 0.0207074
         vertex -0.0376798 0.0355491 0.0207074
         vertex -0.0357332 0.0355185 0.020731
      endloop
   endfacet
   facet normal 7.85175e-05 0.642508 0.766279
      outer loop
         vertex -0.0376798 0.0355491 0.0207074
         vertex -0.0376797 0.0355076 0.0207315
         vertex -0.0357332 0.0355185 0.020731
      endloop
   endfacet
   facet normal -4.39323e-06 0.642564 0.766232
      outer loop
         vertex -0.0310991 0.0355492 0.0207074
         vertex -0.0310991 0.0355186 0.020731
         vertex -0.0291524 0.0355286 0.0207237
      endloop
   endfacet
   facet normal -4.57427e-06 0.579134 0.815233
      outer loop
         vertex -0.0310991 0.0355186 0.020731
         vertex -0.0291524 0.0355186 0.020731
         vertex -0.0291524 0.0355286 0.0207237
      endloop
   endfacet
   facet normal -0.464584 0.496912 0.732967
      outer loop
         vertex -0.0420839 0.033946 0.0207713
         vertex -0.0420761 0.0339386 0.0207803
         vertex -0.0415298 0.034456 0.0207578
      endloop
   endfacet
   facet normal -0.404811 0.575602 0.7105
      outer loop
         vertex -0.0412396 0.0347252 0.0207208
         vertex -0.0415486 0.034476 0.0207322
         vertex -0.0415298 0.034456 0.0207578
      endloop
   endfacet
   facet normal -0.361885 0.59971 0.713714
      outer loop
         vertex -0.0409735 0.0349094 0.0207123
         vertex -0.0412396 0.0347252 0.0207208
         vertex -0.0412221 0.0347036 0.0207464
      endloop
   endfacet
   facet normal -0.317925 0.621212 0.716254
      outer loop
         vertex -0.0407075 0.0350661 0.020705
         vertex -0.0409735 0.0349094 0.0207123
         vertex -0.0409574 0.0348862 0.0207379
      endloop
   endfacet
   facet normal -0.273478 0.640031 0.718032
      outer loop
         vertex -0.0404453 0.035196 0.0206989
         vertex -0.0407075 0.0350661 0.020705
         vertex -0.0406932 0.0350416 0.0207306
      endloop
   endfacet
   facet normal -0.224227 0.657986 0.718872
      outer loop
         vertex -0.0401577 0.0353122 0.0206935
         vertex -0.0404453 0.035196 0.0206989
         vertex -0.0404329 0.0351703 0.0207245
      endloop
   endfacet
   facet normal -0.177897 0.671966 0.718898
      outer loop
         vertex -0.0398724 0.0354028 0.0206894
         vertex -0.0401577 0.0353122 0.0206935
         vertex -0.0401475 0.0352855 0.0207191
      endloop
   endfacet
   facet normal -0.177897 0.671966 0.718898
      outer loop
         vertex -0.0398724 0.0354028 0.0206894
         vertex -0.0398644 0.0353754 0.020715
         vertex -0.0395624 0.0354474 0.0207118
      endloop
   endfacet
   facet normal -0.130347 0.68328 0.718428
      outer loop
         vertex -0.0395682 0.0354754 0.0206862
         vertex -0.0395624 0.0354474 0.0207118
         vertex -0.0392454 0.0354991 0.0207095
      endloop
   endfacet
   facet normal -0.084385 0.691457 0.717473
      outer loop
         vertex -0.0392491 0.0355273 0.0206839
         vertex -0.0392454 0.0354991 0.0207095
         vertex -0.0388089 0.0355375 0.0207079
      endloop
   endfacet
   facet normal 7.48891e-05 0.698657 0.715456
      outer loop
         vertex -0.0376798 0.0355774 0.0206818
         vertex -0.0388104 0.0355657 0.0206823
         vertex -0.0388089 0.0355375 0.0207079
      endloop
   endfacet
   facet normal 7.48891e-05 0.698657 0.715456
      outer loop
         vertex -0.0376798 0.0355774 0.0206818
         vertex -0.0376798 0.0355491 0.0207074
         vertex -0.0310991 0.0355492 0.0207074
      endloop
   endfacet
   facet normal -4.39323e-06 0.642564 0.766232
      outer loop
         vertex -0.0310991 0.0355492 0.0207074
         vertex -0.0291523 0.0355488 0.0207069
         vertex -0.0291523 0.0355657 0.0206929
      endloop
   endfacet
   facet normal 1.50588e-05 0.675589 0.737278
      outer loop
         vertex -0.0291523 0.0355657 0.0206929
         vertex -0.0310991 0.0355774 0.0206818
         vertex -0.0310991 0.0355492 0.0207074
      endloop
   endfacet
   facet normal -0.516065 0.54519 0.66064
      outer loop
         vertex -0.0421101 0.0339706 0.0207344
         vertex -0.0420839 0.033946 0.0207713
         vertex -0.0415486 0.034476 0.0207322
      endloop
   endfacet
   facet normal -0.48294 0.586313 0.650389
      outer loop
         vertex -0.0415669 0.0344952 0.0207036
         vertex -0.0421148 0.0339749 0.0207264
         vertex -0.0421101 0.0339706 0.0207344
      endloop
   endfacet
   facet normal -0.438002 0.616054 0.6547
      outer loop
         vertex -0.0412566 0.034746 0.0206922
         vertex -0.0415669 0.0344952 0.0207036
         vertex -0.0415486 0.034476 0.0207322
      endloop
   endfacet
   facet normal -0.392164 0.643024 0.65782
      outer loop
         vertex -0.040989 0.0349316 0.0206836
         vertex -0.0412566 0.034746 0.0206922
         vertex -0.0412396 0.0347252 0.0207208
      endloop
   endfacet
   facet normal -0.344928 0.667106 0.660299
      outer loop
         vertex -0.0407213 0.0350897 0.0206762
         vertex -0.040989 0.0349316 0.0206836
         vertex -0.0409735 0.0349094 0.0207123
      endloop
   endfacet
   facet normal -0.296881 0.688156 0.662044
      outer loop
         vertex -0.0404573 0.0352208 0.0206701
         vertex -0.0407213 0.0350897 0.0206762
         vertex -0.0407075 0.0350661 0.020705
      endloop
   endfacet
   facet normal -0.243377 0.708092 0.662853
      outer loop
         vertex -0.0401675 0.0353379 0.0206647
         vertex -0.0404573 0.0352208 0.0206701
         vertex -0.0404453 0.035196 0.0206989
      endloop
   endfacet
   facet normal -0.192993 0.723435 0.662869
      outer loop
         vertex -0.0398802 0.0354293 0.0206606
         vertex -0.0401675 0.0353379 0.0206647
         vertex -0.0401577 0.0353122 0.0206935
      endloop
   endfacet
   facet normal -0.192993 0.723435 0.662869
      outer loop
         vertex -0.0398802 0.0354293 0.0206606
         vertex -0.0398724 0.0354028 0.0206894
         vertex -0.0395682 0.0354754 0.0206862
      endloop
   endfacet
   facet normal -0.141265 0.735694 0.662419
      outer loop
         vertex -0.0395738 0.0355023 0.0206574
         vertex -0.0395682 0.0354754 0.0206862
         vertex -0.0392491 0.0355273 0.0206839
      endloop
   endfacet
   facet normal -0.0374431 0.750248 0.660095
      outer loop
         vertex -0.0388118 0.035593 0.0206535
         vertex -0.0392527 0.0355545 0.0206551
         vertex -0.0392491 0.0355273 0.0206839
      endloop
   endfacet
   facet normal 7.07214e-05 0.751698 0.659507
      outer loop
         vertex -0.0376798 0.0356046 0.020653
         vertex -0.0388118 0.035593 0.0206535
         vertex -0.0388104 0.0355657 0.0206823
      endloop
   endfacet
   facet normal 7.07214e-05 0.751698 0.659507
      outer loop
         vertex -0.0376798 0.0356046 0.020653
         vertex -0.0376798 0.0355774 0.0206818
         vertex -0.0310991 0.0355774 0.0206818
      endloop
   endfacet
   facet normal -3.74956e-06 0.751739 0.659461
      outer loop
         vertex -0.031099 0.0356047 0.020653
         vertex -0.0310991 0.0355774 0.0206818
         vertex -0.0291523 0.035577 0.0206813
      endloop
   endfacet
   facet normal -0.563633 0.589142 0.57899
      outer loop
         vertex -0.0421345 0.0339932 0.0206925
         vertex -0.0421148 0.0339749 0.0207264
         vertex -0.0415669 0.0344952 0.0207036
      endloop
   endfacet
   facet normal -0.469132 0.653498 0.594016
      outer loop
         vertex -0.0412726 0.0347653 0.020661
         vertex -0.041584 0.0345129 0.0206726
         vertex -0.0415669 0.0344952 0.0207036
      endloop
   endfacet
   facet normal -0.420584 0.683178 0.596973
      outer loop
         vertex -0.0410036 0.0349522 0.0206524
         vertex -0.0412726 0.0347653 0.020661
         vertex -0.0412566 0.034746 0.0206922
      endloop
   endfacet
   facet normal -0.370287 0.709707 0.599336
      outer loop
         vertex -0.0407343 0.0351116 0.0206449
         vertex -0.0410036 0.0349522 0.0206524
         vertex -0.040989 0.0349316 0.0206836
      endloop
   endfacet
   facet normal -0.318865 0.73288 0.60101
      outer loop
         vertex -0.0404685 0.0352437 0.0206388
         vertex -0.0407343 0.0351116 0.0206449
         vertex -0.0407213 0.0350897 0.0206762
      endloop
   endfacet
   facet normal -0.261355 0.754697 0.601769
      outer loop
         vertex -0.0401768 0.0353618 0.0206334
         vertex -0.0404685 0.0352437 0.0206388
         vertex -0.0404573 0.0352208 0.0206701
      endloop
   endfacet
   facet normal -0.207158 0.771331 0.601776
      outer loop
         vertex -0.0398874 0.0354539 0.0206292
         vertex -0.0401768 0.0353618 0.0206334
         vertex -0.0401675 0.0353379 0.0206647
      endloop
   endfacet
   facet normal -0.207158 0.771331 0.601776
      outer loop
         vertex -0.0398874 0.0354539 0.0206292
         vertex -0.0398802 0.0354293 0.0206606
         vertex -0.0395738 0.0355023 0.0206574
      endloop
   endfacet
   facet normal -0.151504 0.784485 0.601357
      outer loop
         vertex -0.039579 0.0355274 0.020626
         vertex -0.0395738 0.0355023 0.0206574
         vertex -0.0392527 0.0355545 0.0206551
      endloop
   endfacet
   facet normal -0.0399964 0.799648 0.599136
      outer loop
         vertex -0.0388131 0.0356184 0.0206223
         vertex -0.0392561 0.0355797 0.0206238
         vertex -0.0392527 0.0355545 0.0206551
      endloop
   endfacet
   facet normal 6.60143e-05 0.80107 0.598571
      outer loop
         vertex -0.0376798 0.03563 0.0206218
         vertex -0.0388131 0.0356184 0.0206223
         vertex -0.0388118 0.035593 0.0206535
      endloop
   endfacet
   facet normal 6.60143e-05 0.80107 0.598571
      outer loop
         vertex -0.0376798 0.03563 0.0206218
         vertex -0.0376798 0.0356046 0.020653
         vertex -0.031099 0.0356047 0.020653
      endloop
   endfacet
   facet normal 1.2349e-05 0.801148 0.598466
      outer loop
         vertex -0.0291522 0.0356298 0.0206215
         vertex -0.031099 0.03563 0.0206218
         vertex -0.031099 0.0356047 0.020653
      endloop
   endfacet
   facet normal -0.546983 0.652137 0.524906
      outer loop
         vertex -0.0415994 0.0345287 0.0206399
         vertex -0.0421485 0.0340058 0.0206629
         vertex -0.0421345 0.0339932 0.0206925
      endloop
   endfacet
   facet normal -0.497828 0.687483 0.52871
      outer loop
         vertex -0.041287 0.0347824 0.0206282
         vertex -0.0415994 0.0345287 0.0206399
         vertex -0.041584 0.0345129 0.0206726
      endloop
   endfacet
   facet normal -0.446805 0.719689 0.531425
      outer loop
         vertex -0.0410168 0.0349706 0.0206194
         vertex -0.041287 0.0347824 0.0206282
         vertex -0.0412726 0.0347653 0.020661
      endloop
   endfacet
   facet normal -0.393701 0.748505 0.53361
      outer loop
         vertex -0.0407461 0.0351311 0.0206119
         vertex -0.0410168 0.0349706 0.0206194
         vertex -0.0410036 0.0349522 0.0206524
      endloop
   endfacet
   facet normal -0.339168 0.773668 0.535167
      outer loop
         vertex -0.0404787 0.0352643 0.0206057
         vertex -0.0407461 0.0351311 0.0206119
         vertex -0.0407343 0.0351116 0.0206449
      endloop
   endfacet
   facet normal -0.277953 0.797245 0.535856
      outer loop
         vertex -0.0401852 0.0353832 0.0206002
         vertex -0.0404787 0.0352643 0.0206057
         vertex -0.0404685 0.0352437 0.0206388
      endloop
   endfacet
   facet normal -0.220229 0.815082 0.535855
      outer loop
         vertex -0.039894 0.0354759 0.0205961
         vertex -0.0401852 0.0353832 0.0206002
         vertex -0.0401768 0.0353618 0.0206334
      endloop
   endfacet
   facet normal -0.160945 0.829071 0.535479
      outer loop
         vertex -0.0395838 0.0355498 0.0205929
         vertex -0.039894 0.0354759 0.0205961
         vertex -0.0398874 0.0354539 0.0206292
      endloop
   endfacet
   facet normal -0.160945 0.829071 0.535479
      outer loop
         vertex -0.0395838 0.0355498 0.0205929
         vertex -0.039579 0.0355274 0.020626
         vertex -0.0392561 0.0355797 0.0206238
      endloop
   endfacet
   facet normal -0.042339 0.844789 0.533423
      outer loop
         vertex -0.0388143 0.0356411 0.0205892
         vertex -0.0392591 0.0356024 0.0205907
         vertex -0.0392561 0.0355797 0.0206238
      endloop
   endfacet
   facet normal 6.07797e-05 0.846181 0.532895
      outer loop
         vertex -0.0376798 0.0356527 0.0205887
         vertex -0.0388143 0.0356411 0.0205892
         vertex -0.0388131 0.0356184 0.0206223
      endloop
   endfacet
   facet normal 6.07797e-05 0.846181 0.532895
      outer loop
         vertex -0.0376798 0.0356527 0.0205887
         vertex -0.0376798 0.03563 0.0206218
         vertex -0.031099 0.03563 0.0206218
      endloop
   endfacet
   facet normal -3.35356e-06 0.801103 0.598527
      outer loop
         vertex -0.031099 0.03563 0.0206218
         vertex -0.0291522 0.0356298 0.0206215
         vertex -0.0291522 0.0356346 0.0206155
      endloop
   endfacet
   facet normal 1.21097e-05 0.810143 0.586232
      outer loop
         vertex -0.0291522 0.0356346 0.0206155
         vertex -0.031099 0.0356527 0.0205887
         vertex -0.031099 0.03563 0.0206218
      endloop
   endfacet
   facet normal -0.574602 0.679725 0.455858
      outer loop
         vertex -0.0416129 0.0345421 0.0206064
         vertex -0.0421558 0.0340124 0.0206474
         vertex -0.0421485 0.0340058 0.0206629
      endloop
   endfacet
   facet normal -0.574602 0.679725 0.455858
      outer loop
         vertex -0.0416129 0.0345421 0.0206064
         vertex -0.0421623 0.0340182 0.0206296
         vertex -0.0421558 0.0340124 0.0206474
      endloop
   endfacet
   facet normal -0.523691 0.717531 0.459234
      outer loop
         vertex -0.0412996 0.034797 0.0205944
         vertex -0.0416129 0.0345421 0.0206064
         vertex -0.0415994 0.0345287 0.0206399
      endloop
   endfacet
   facet normal -0.470463 0.752046 0.461618
      outer loop
         vertex -0.0410284 0.0349863 0.0205855
         vertex -0.0412996 0.034797 0.0205944
         vertex -0.041287 0.0347824 0.0206282
      endloop
   endfacet
   facet normal -0.414844 0.782957 0.463555
      outer loop
         vertex -0.0407563 0.0351478 0.0205779
         vertex -0.0410284 0.0349863 0.0205855
         vertex -0.0410168 0.0349706 0.0206194
      endloop
   endfacet
   facet normal -0.357509 0.809946 0.464946
      outer loop
         vertex -0.0404876 0.0352819 0.0205716
         vertex -0.0407563 0.0351478 0.0205779
         vertex -0.0407461 0.0351311 0.0206119
      endloop
   endfacet
   facet normal -0.292942 0.835137 0.465544
      outer loop
         vertex -0.0401925 0.0354016 0.0205661
         vertex -0.0404876 0.0352819 0.0205716
         vertex -0.0404787 0.0352643 0.0206057
      endloop
   endfacet
   facet normal -0.232028 0.854072 0.465535
      outer loop
         vertex -0.0398997 0.0354948 0.020562
         vertex -0.0401925 0.0354016 0.0205661
         vertex -0.0401852 0.0353832 0.0206002
      endloop
   endfacet
   facet normal -0.16946 0.868825 0.465217
      outer loop
         vertex -0.0395879 0.0355691 0.0205588
         vertex -0.0398997 0.0354948 0.020562
         vertex -0.039894 0.0354759 0.0205961
      endloop
   endfacet
   facet normal -0.109043 0.878827 0.464513
      outer loop
         vertex -0.0392617 0.0356219 0.0205567
         vertex -0.0395879 0.0355691 0.0205588
         vertex -0.0395838 0.0355498 0.0205929
      endloop
   endfacet
   facet normal -0.0444409 0.885038 0.463393
      outer loop
         vertex -0.0388153 0.0356606 0.0205552
         vertex -0.0392617 0.0356219 0.0205567
         vertex -0.0392591 0.0356024 0.0205907
      endloop
   endfacet
   facet normal 5.50502e-05 0.8864 0.462921
      outer loop
         vertex -0.0376798 0.0356722 0.0205548
         vertex -0.0388153 0.0356606 0.0205552
         vertex -0.0388143 0.0356411 0.0205892
      endloop
   endfacet
   facet normal 5.50502e-05 0.8864 0.462921
      outer loop
         vertex -0.0376798 0.0356722 0.0205548
         vertex -0.0376798 0.0356527 0.0205887
         vertex -0.031099 0.0356527 0.0205887
      endloop
   endfacet
   facet normal -2.56058e-06 0.886418 0.462885
      outer loop
         vertex -0.0310989 0.0356722 0.0205548
         vertex -0.031099 0.0356527 0.0205887
         vertex -0.0291521 0.0356617 0.0205738
      endloop
   endfacet
   facet normal -0.625783 0.645079 0.438484
      outer loop
         vertex -0.0421647 0.0340203 0.0206231
         vertex -0.0421623 0.0340182 0.0206296
         vertex -0.0416129 0.0345421 0.0206064
      endloop
   endfacet
   facet normal -0.52831 0.722822 0.445439
      outer loop
         vertex -0.0413018 0.0347995 0.0205879
         vertex -0.0416152 0.0345444 0.0205999
         vertex -0.0416129 0.0345421 0.0206064
      endloop
   endfacet
   facet normal -0.474691 0.757752 0.44775
      outer loop
         vertex -0.0410304 0.034989 0.0205789
         vertex -0.0413018 0.0347995 0.0205879
         vertex -0.0412996 0.034797 0.0205944
      endloop
   endfacet
   facet normal -0.418625 0.789041 0.449631
      outer loop
         vertex -0.0407581 0.0351507 0.0205713
         vertex -0.0410304 0.034989 0.0205789
         vertex -0.0410284 0.0349863 0.0205855
      endloop
   endfacet
   facet normal -0.36079 0.81636 0.450985
      outer loop
         vertex -0.0404892 0.0352849 0.020565
         vertex -0.0407581 0.0351507 0.0205713
         vertex -0.0407563 0.0351478 0.0205779
      endloop
   endfacet
   facet normal -0.295622 0.841843 0.451562
      outer loop
         vertex -0.0401937 0.0354048 0.0205595
         vertex -0.0404892 0.0352849 0.020565
         vertex -0.0404876 0.0352819 0.0205716
      endloop
   endfacet
   facet normal -0.234137 0.860976 0.451553
      outer loop
         vertex -0.0399007 0.0354981 0.0205553
         vertex -0.0401937 0.0354048 0.0205595
         vertex -0.0401925 0.0354016 0.0205661
      endloop
   endfacet
   facet normal -0.170981 0.875866 0.451247
      outer loop
         vertex -0.0395886 0.0355725 0.0205522
         vertex -0.0399007 0.0354981 0.0205553
         vertex -0.0398997 0.0354948 0.020562
      endloop
   endfacet
   facet normal -0.109998 0.885941 0.450565
      outer loop
         vertex -0.0392622 0.0356253 0.02055
         vertex -0.0395886 0.0355725 0.0205522
         vertex -0.0395879 0.0355691 0.0205588
      endloop
   endfacet
   facet normal -0.044815 0.892168 0.449476
      outer loop
         vertex -0.0388155 0.035664 0.0205486
         vertex -0.0392622 0.0356253 0.02055
         vertex -0.0392617 0.0356219 0.0205567
      endloop
   endfacet
   facet normal 5.38957e-05 0.893524 0.449016
      outer loop
         vertex -0.0376798 0.0356756 0.0205482
         vertex -0.0388155 0.035664 0.0205486
         vertex -0.0388153 0.0356606 0.0205552
      endloop
   endfacet
   facet normal 5.38957e-05 0.893524 0.449016
      outer loop
         vertex -0.0376798 0.0356756 0.0205482
         vertex -0.0376798 0.0356722 0.0205548
         vertex -0.0310989 0.0356722 0.0205548
      endloop
   endfacet
   facet normal -2.48722e-06 0.893542 0.44898
      outer loop
         vertex -0.0310989 0.0356756 0.0205482
         vertex -0.0310989 0.0356722 0.0205548
         vertex -0.0291521 0.0356716 0.0205544
      endloop
   endfacet
   facet normal -0.601488 0.705789 0.374264
      outer loop
         vertex -0.0416259 0.0345547 0.0205668
         vertex -0.0421729 0.0340275 0.0206011
         vertex -0.0421647 0.0340203 0.0206231
      endloop
   endfacet
   facet normal -0.54891 0.746001 0.377068
      outer loop
         vertex -0.0413118 0.0348108 0.0205546
         vertex -0.0416259 0.0345547 0.0205668
         vertex -0.0416152 0.0345444 0.0205999
      endloop
   endfacet
   facet normal -0.493553 0.782786 0.379015
      outer loop
         vertex -0.0410396 0.0350011 0.0205455
         vertex -0.0413118 0.0348108 0.0205546
         vertex -0.0413018 0.0347995 0.0205879
      endloop
   endfacet
   facet normal -0.435492 0.815766 0.380621
      outer loop
         vertex -0.0407663 0.0351637 0.0205377
         vertex -0.0410396 0.0350011 0.0205455
         vertex -0.0410304 0.034989 0.0205789
      endloop
   endfacet
   facet normal -0.375423 0.844569 0.381787
      outer loop
         vertex -0.0404963 0.0352987 0.0205313
         vertex -0.0407663 0.0351637 0.0205377
         vertex -0.0407581 0.0351507 0.0205713
      endloop
   endfacet
   facet normal -0.307569 0.871364 0.382265
      outer loop
         vertex -0.0401996 0.0354191 0.0205258
         vertex -0.0404963 0.0352987 0.0205313
         vertex -0.0404892 0.0352849 0.020565
      endloop
   endfacet
   facet normal -0.243532 0.89139 0.38225
      outer loop
         vertex -0.0399053 0.0355129 0.0205216
         vertex -0.0401996 0.0354191 0.0205258
         vertex -0.0401937 0.0354048 0.0205595
      endloop
   endfacet
   facet normal -0.17775 0.906905 0.382005
      outer loop
         vertex -0.0395919 0.0355876 0.0205185
         vertex -0.0399053 0.0355129 0.0205216
         vertex -0.0399007 0.0354981 0.0205553
      endloop
   endfacet
   facet normal -0.11424 0.917309 0.381436
      outer loop
         vertex -0.0392643 0.0356405 0.0205164
         vertex -0.0395919 0.0355876 0.0205185
         vertex -0.0395886 0.0355725 0.0205522
      endloop
   endfacet
   facet normal -0.0464705 0.923615 0.380495
      outer loop
         vertex -0.0388163 0.0356793 0.0205151
         vertex -0.0392643 0.0356405 0.0205164
         vertex -0.0392622 0.0356253 0.02055
      endloop
   endfacet
   facet normal 4.81239e-05 0.924947 0.380097
      outer loop
         vertex -0.0376798 0.0356909 0.0205147
         vertex -0.0388163 0.0356793 0.0205151
         vertex -0.0388155 0.035664 0.0205486
      endloop
   endfacet
   facet normal 4.81239e-05 0.924947 0.380097
      outer loop
         vertex -0.0376798 0.0356909 0.0205147
         vertex -0.0376798 0.0356756 0.0205482
         vertex -0.0310989 0.0356756 0.0205482
      endloop
   endfacet
   facet normal -2.48722e-06 0.893542 0.44898
      outer loop
         vertex -0.0310989 0.0356756 0.0205482
         vertex -0.0291521 0.035675 0.0205478
         vertex -0.029152 0.0356853 0.0205276
      endloop
   endfacet
   facet normal -0.667339 0.680621 0.302346
      outer loop
         vertex -0.0421856 0.0340382 0.020556
         vertex -0.0421729 0.0340275 0.0206011
         vertex -0.0416259 0.0345547 0.0205668
      endloop
   endfacet
   facet normal -0.566277 0.764804 0.307256
      outer loop
         vertex -0.0413205 0.0348202 0.0205195
         vertex -0.0416352 0.0345634 0.020532
         vertex -0.0416259 0.0345547 0.0205668
      endloop
   endfacet
   facet normal -0.509464 0.803161 0.308835
      outer loop
         vertex -0.0410476 0.0350114 0.0205102
         vertex -0.0413205 0.0348202 0.0205195
         vertex -0.0413118 0.0348108 0.0205546
      endloop
   endfacet
   facet normal -0.449728 0.837583 0.310161
      outer loop
         vertex -0.0407735 0.0351747 0.0205023
         vertex -0.0410476 0.0350114 0.0205102
         vertex -0.0410396 0.0350011 0.0205455
      endloop
   endfacet
   facet normal -0.38777 0.867658 0.311133
      outer loop
         vertex -0.0405025 0.0353103 0.0204958
         vertex -0.0407735 0.0351747 0.0205023
         vertex -0.0407663 0.0351637 0.0205377
      endloop
   endfacet
   facet normal -0.375423 0.844569 0.381787
      outer loop
         vertex -0.0404963 0.0352987 0.0205313
         vertex -0.0401996 0.0354191 0.0205258
         vertex -0.0403548 0.0353738 0.0204928
      endloop
   endfacet
   facet normal -0.307569 0.871364 0.382265
      outer loop
         vertex -0.0401996 0.0354191 0.0205258
         vertex -0.0402046 0.0354313 0.0204902
         vertex -0.0403548 0.0353738 0.0204928
      endloop
   endfacet
   facet normal -0.251436 0.91638 0.311493
      outer loop
         vertex -0.0399092 0.0355254 0.0204861
         vertex -0.0402046 0.0354313 0.0204902
         vertex -0.0401996 0.0354191 0.0205258
      endloop
   endfacet
   facet normal -0.183434 0.932438 0.311307
      outer loop
         vertex -0.0395947 0.0356004 0.0204829
         vertex -0.0399092 0.0355254 0.0204861
         vertex -0.0399053 0.0355129 0.0205216
      endloop
   endfacet
   facet normal -0.117786 0.943132 0.310851
      outer loop
         vertex -0.0392661 0.0356535 0.0204809
         vertex -0.0395947 0.0356004 0.0204829
         vertex -0.0395919 0.0355876 0.0205185
      endloop
   endfacet
   facet normal -0.0478438 0.949512 0.310063
      outer loop
         vertex -0.038817 0.0356923 0.0204796
         vertex -0.0392661 0.0356535 0.0204809
         vertex -0.0392643 0.0356405 0.0205164
      endloop
   endfacet
   facet normal 4.21631e-05 0.950825 0.309728
      outer loop
         vertex -0.0376798 0.0357039 0.0204793
         vertex -0.038817 0.0356923 0.0204796
         vertex -0.0388163 0.0356793 0.0205151
      endloop
   endfacet
   facet normal 4.21631e-05 0.950825 0.309728
      outer loop
         vertex -0.0376798 0.0357039 0.0204793
         vertex -0.0376798 0.0356909 0.0205147
         vertex -0.0310989 0.0356909 0.0205147
      endloop
   endfacet
   facet normal 6.24932e-06 0.950844 0.309669
      outer loop
         vertex -0.029152 0.0357038 0.0204792
         vertex -0.0310989 0.0357039 0.0204793
         vertex -0.0310989 0.0356909 0.0205147
      endloop
   endfacet
   facet normal -0.668175 0.681306 0.298938
      outer loop
         vertex -0.0421861 0.0340386 0.0205543
         vertex -0.0416352 0.0345634 0.020532
         vertex -0.041643 0.0345702 0.0204951
      endloop
   endfacet
   facet normal -0.635247 0.736292 0.233098
      outer loop
         vertex -0.041643 0.0345702 0.0204951
         vertex -0.0421964 0.0340466 0.0205045
         vertex -0.0421861 0.0340386 0.0205543
      endloop
   endfacet
   facet normal -0.580667 0.779514 0.234911
      outer loop
         vertex -0.0413279 0.0348278 0.0204824
         vertex -0.041643 0.0345702 0.0204951
         vertex -0.0416352 0.0345634 0.020532
      endloop
   endfacet
   facet normal -0.522666 0.81919 0.236111
      outer loop
         vertex -0.0410544 0.0350196 0.0204729
         vertex -0.0413279 0.0348278 0.0204824
         vertex -0.0413205 0.0348202 0.0205195
      endloop
   endfacet
   facet normal -0.461548 0.85483 0.237147
      outer loop
         vertex -0.0407795 0.0351835 0.0204648
         vertex -0.0410544 0.0350196 0.0204729
         vertex -0.0410476 0.0350114 0.0205102
      endloop
   endfacet
   facet normal -0.39802 0.885989 0.237915
      outer loop
         vertex -0.0405077 0.0353197 0.0204582
         vertex -0.0407795 0.0351835 0.0204648
         vertex -0.0407735 0.0351747 0.0205023
      endloop
   endfacet
   facet normal -0.325976 0.91488 0.238191
      outer loop
         vertex -0.0402089 0.0354412 0.0204526
         vertex -0.0403595 0.0353835 0.0204552
         vertex -0.0403548 0.0353738 0.0204928
      endloop
   endfacet
   facet normal -0.257972 0.936336 0.238171
      outer loop
         vertex -0.0399126 0.0355357 0.0204484
         vertex -0.0402089 0.0354412 0.0204526
         vertex -0.0402046 0.0354313 0.0204902
      endloop
   endfacet
   facet normal -0.18812 0.952862 0.238044
      outer loop
         vertex -0.0395971 0.0356109 0.0204453
         vertex -0.0399126 0.0355357 0.0204484
         vertex -0.0399092 0.0355254 0.0204861
      endloop
   endfacet
   facet normal -0.120692 0.96381 0.237703
      outer loop
         vertex -0.0392676 0.0356641 0.0204434
         vertex -0.0395971 0.0356109 0.0204453
         vertex -0.0395947 0.0356004 0.0204829
      endloop
   endfacet
   facet normal -0.0489566 0.970257 0.237075
      outer loop
         vertex -0.0388176 0.0357029 0.0204422
         vertex -0.0392676 0.0356641 0.0204434
         vertex -0.0392661 0.0356535 0.0204809
      endloop
   endfacet
   facet normal 3.59345e-05 0.971557 0.236807
      outer loop
         vertex -0.0376798 0.0357145 0.0204419
         vertex -0.0388176 0.0357029 0.0204422
         vertex -0.038817 0.0356923 0.0204796
      endloop
   endfacet
   facet normal 3.59345e-05 0.971557 0.236807
      outer loop
         vertex -0.0376798 0.0357145 0.0204419
         vertex -0.0376798 0.0357039 0.0204793
         vertex -0.0310989 0.0357039 0.0204793
      endloop
   endfacet
   facet normal -1.72492e-06 0.950833 0.309703
      outer loop
         vertex -0.0310989 0.0357039 0.0204793
         vertex -0.029152 0.0357038 0.0204792
         vertex -0.029152 0.0357044 0.0204775
      endloop
   endfacet
   facet normal 6.17938e-06 0.95192 0.306346
      outer loop
         vertex -0.029152 0.0357044 0.0204775
         vertex -0.0310989 0.0357145 0.0204419
         vertex -0.0310989 0.0357039 0.0204793
      endloop
   endfacet
   facet normal -0.647132 0.745639 0.158881
      outer loop
         vertex -0.0416491 0.034575 0.020457
         vertex -0.0421993 0.0340486 0.0204817
         vertex -0.0421964 0.0340466 0.0205045
      endloop
   endfacet
   facet normal -0.591913 0.789928 0.160163
      outer loop
         vertex -0.0413337 0.0348331 0.020444
         vertex -0.0416491 0.034575 0.020457
         vertex -0.041643 0.0345702 0.0204951
      endloop
   endfacet
   facet normal -0.533007 0.830658 0.160968
      outer loop
         vertex -0.0410597 0.0350255 0.0204343
         vertex -0.0413337 0.0348331 0.020444
         vertex -0.0413279 0.0348278 0.0204824
      endloop
   endfacet
   facet normal -0.470818 0.867285 0.161699
      outer loop
         vertex -0.0407843 0.03519 0.020426
         vertex -0.0410597 0.0350255 0.0204343
         vertex -0.0410544 0.0350196 0.0204729
      endloop
   endfacet
   facet normal -0.406057 0.899329 0.162251
      outer loop
         vertex -0.0405118 0.0353265 0.0204193
         vertex -0.0407843 0.03519 0.020426
         vertex -0.0407795 0.0351835 0.0204648
      endloop
   endfacet
   facet normal -0.332499 0.929012 0.162422
      outer loop
         vertex -0.0402123 0.0354485 0.0204136
         vertex -0.0403633 0.0353906 0.0204163
         vertex -0.0403595 0.0353835 0.0204552
      endloop
   endfacet
   facet normal -0.263067 0.951011 0.162402
      outer loop
         vertex -0.0399152 0.0355432 0.0204095
         vertex -0.0402123 0.0354485 0.0204136
         vertex -0.0402089 0.0354412 0.0204526
      endloop
   endfacet
   facet normal -0.191754 0.967925 0.162333
      outer loop
         vertex -0.039599 0.0356186 0.0204064
         vertex -0.0399152 0.0355432 0.0204095
         vertex -0.0399126 0.0355357 0.0204484
      endloop
   endfacet
   facet normal -0.122925 0.979086 0.162113
      outer loop
         vertex -0.0392688 0.035672 0.0204045
         vertex -0.039599 0.0356186 0.0204064
         vertex -0.0395971 0.0356109 0.0204453
      endloop
   endfacet
   facet normal -0.0497962 0.98559 0.161654
      outer loop
         vertex -0.038818 0.0357108 0.0204034
         vertex -0.0392688 0.035672 0.0204045
         vertex -0.0392676 0.0356641 0.0204434
      endloop
   endfacet
   facet normal 2.94588e-05 0.98688 0.161456
      outer loop
         vertex -0.0376798 0.0357224 0.0204031
         vertex -0.038818 0.0357108 0.0204034
         vertex -0.0388176 0.0357029 0.0204422
      endloop
   endfacet
   facet normal 2.94588e-05 0.98688 0.161456
      outer loop
         vertex -0.0376798 0.0357224 0.0204031
         vertex -0.0376798 0.0357145 0.0204419
         vertex -0.0310989 0.0357145 0.0204419
      endloop
   endfacet
   facet normal -8.76363e-07 0.986882 0.161442
      outer loop
         vertex -0.0310988 0.0357224 0.0204031
         vertex -0.0310989 0.0357145 0.0204419
         vertex -0.0291519 0.0357182 0.0204259
      endloop
   endfacet
   facet normal -0.647132 0.745639 0.158881
      outer loop
         vertex -0.0416491 0.034575 0.020457
         vertex -0.0416532 0.0345776 0.0204185
         vertex -0.0422031 0.0340511 0.0204526
      endloop
   endfacet
   facet normal -0.599812 0.795804 0.0831935
      outer loop
         vertex -0.0413376 0.0348361 0.0204052
         vertex -0.0416532 0.0345776 0.0204185
         vertex -0.0416491 0.034575 0.020457
      endloop
   endfacet
   facet normal -0.540303 0.83731 0.0835744
      outer loop
         vertex -0.0410634 0.0350288 0.0203952
         vertex -0.0413376 0.0348361 0.0204052
         vertex -0.0413337 0.0348331 0.020444
      endloop
   endfacet
   facet normal -0.477377 0.874676 0.0839785
      outer loop
         vertex -0.0407876 0.0351937 0.0203868
         vertex -0.0410634 0.0350288 0.0203952
         vertex -0.0410597 0.0350255 0.0204343
      endloop
   endfacet
   facet normal -0.411741 0.907394 0.0842969
      outer loop
         vertex -0.0405147 0.0353306 0.02038
         vertex -0.0407876 0.0351937 0.0203868
         vertex -0.0407843 0.03519 0.020426
      endloop
   endfacet
   facet normal -0.337092 0.937685 0.0843565
      outer loop
         vertex -0.0402146 0.0354529 0.0203742
         vertex -0.0403659 0.0353948 0.0203769
         vertex -0.0403633 0.0353906 0.0204163
      endloop
   endfacet
   facet normal -0.266632 0.960101 0.0843368
      outer loop
         vertex -0.039917 0.0355478 0.0203701
         vertex -0.0402146 0.0354529 0.0203742
         vertex -0.0402123 0.0354485 0.0204136
      endloop
   endfacet
   facet normal -0.194273 0.977316 0.0843307
      outer loop
         vertex -0.0396002 0.0356234 0.020367
         vertex -0.039917 0.0355478 0.0203701
         vertex -0.0399152 0.0355432 0.0204095
      endloop
   endfacet
   facet normal -0.124444 0.988644 0.0842386
      outer loop
         vertex -0.0392696 0.0356768 0.0203652
         vertex -0.0396002 0.0356234 0.020367
         vertex -0.039599 0.0356186 0.0204064
      endloop
   endfacet
   facet normal -0.0503476 0.995196 0.0839629
      outer loop
         vertex -0.0388183 0.0357157 0.0203642
         vertex -0.0392696 0.0356768 0.0203652
         vertex -0.0392688 0.035672 0.0204045
      endloop
   endfacet
   facet normal 2.27557e-05 0.996479 0.083842
      outer loop
         vertex -0.0376798 0.0357273 0.020364
         vertex -0.0388183 0.0357157 0.0203642
         vertex -0.038818 0.0357108 0.0204034
      endloop
   endfacet
   facet normal 2.27557e-05 0.996479 0.083842
      outer loop
         vertex -0.0376798 0.0357273 0.020364
         vertex -0.0376798 0.0357224 0.0204031
         vertex -0.0310988 0.0357224 0.0204031
      endloop
   endfacet
   facet normal -8.76363e-07 0.986882 0.161442
      outer loop
         vertex -0.0310988 0.0357224 0.0204031
         vertex -0.0291518 0.0357218 0.020403
         vertex -0.0291518 0.0357262 0.0203751
      endloop
   endfacet
   facet normal -0.706883 0.707256 0.0102887
      outer loop
         vertex -0.0422057 0.0340517 0.0204088
         vertex -0.0422031 0.0340511 0.0204526
         vertex -0.0416532 0.0345776 0.0204185
      endloop
   endfacet
   facet normal -0.603929 0.796968 0.0105666
      outer loop
         vertex -0.0413375 0.034834 0.0203708
         vertex -0.0416542 0.0345767 0.0203836
         vertex -0.0416532 0.0345776 0.0204185
      endloop
   endfacet
   facet normal -0.599812 0.795804 0.0831935
      outer loop
         vertex -0.0413376 0.0348361 0.0204052
         vertex -0.0410634 0.0350288 0.0203952
         vertex -0.0410626 0.0350256 0.0203616
      endloop
   endfacet
   facet normal -0.540303 0.83731 0.0835744
      outer loop
         vertex -0.0410634 0.0350288 0.0203952
         vertex -0.0407876 0.0351937 0.0203868
         vertex -0.0407872 0.0351909 0.0203527
      endloop
   endfacet
   facet normal -0.414754 0.909871 0.0106789
      outer loop
         vertex -0.0405153 0.0353299 0.0203446
         vertex -0.0407872 0.0351909 0.0203527
         vertex -0.0407876 0.0351937 0.0203868
      endloop
   endfacet
   facet normal -0.337092 0.937685 0.0843565
      outer loop
         vertex -0.0402146 0.0354529 0.0203742
         vertex -0.0402146 0.0354513 0.0203393
         vertex -0.0403656 0.0353935 0.0203662
      endloop
   endfacet
   facet normal -0.337092 0.937685 0.0843565
      outer loop
         vertex -0.0402146 0.0354529 0.0203742
         vertex -0.039917 0.0355478 0.0203701
         vertex -0.0399166 0.0355449 0.020336
      endloop
   endfacet
   facet normal -0.266632 0.960101 0.0843368
      outer loop
         vertex -0.039917 0.0355478 0.0203701
         vertex -0.0396002 0.0356234 0.020367
         vertex -0.0396 0.0356205 0.0203333
      endloop
   endfacet
   facet normal -0.194273 0.977316 0.0843307
      outer loop
         vertex -0.0396002 0.0356234 0.020367
         vertex -0.0392696 0.0356768 0.0203652
         vertex -0.0392887 0.0356735 0.0203473
      endloop
   endfacet
   facet normal -0.0505855 0.998663 0.0106126
      outer loop
         vertex -0.0388182 0.0357137 0.0203296
         vertex -0.0392887 0.0356735 0.0203473
         vertex -0.0392696 0.0356768 0.0203652
      endloop
   endfacet
   facet normal 2.27557e-05 0.996479 0.083842
      outer loop
         vertex -0.0376798 0.0357273 0.020364
         vertex -0.0376798 0.0357289 0.0203284
         vertex -0.0388182 0.0357137 0.0203296
      endloop
   endfacet
   facet normal 1.6398e-05 0.999944 0.0105695
      outer loop
         vertex -0.0376798 0.0357289 0.0203284
         vertex -0.0376798 0.0357273 0.020364
         vertex -0.0310988 0.0357272 0.020364
      endloop
   endfacet
   facet normal 1.99013e-07 0.999944 0.0105582
      outer loop
         vertex -0.0291517 0.0357287 0.0203284
         vertex -0.0310988 0.0357289 0.0203284
         vertex -0.0310988 0.0357272 0.020364
      endloop
   endfacet
   facet normal -0.361936 0.901278 0.238119
      outer loop
         vertex -0.0403595 0.0353835 0.0204552
         vertex -0.0405077 0.0353197 0.0204582
         vertex -0.0405025 0.0353103 0.0204958
      endloop
   endfacet
   facet normal -0.369218 0.915046 0.162384
      outer loop
         vertex -0.0403633 0.0353906 0.0204163
         vertex -0.0405118 0.0353265 0.0204193
         vertex -0.0405077 0.0353197 0.0204582
      endloop
   endfacet
   facet normal -0.374359 0.923439 0.0843546
      outer loop
         vertex -0.0403659 0.0353948 0.0203769
         vertex -0.0405147 0.0353306 0.02038
         vertex -0.0405118 0.0353265 0.0204193
      endloop
   endfacet
   facet normal -0.411741 0.907394 0.0842969
      outer loop
         vertex -0.0405147 0.0353306 0.02038
         vertex -0.0403659 0.0353948 0.0203769
         vertex -0.0403656 0.0353935 0.0203662
      endloop
   endfacet
   facet normal 1.99013e-07 0.999944 0.0105582
      outer loop
         vertex -0.0291517 0.0357287 0.0203284
         vertex -0.0291517 0.035729 0.0203234
         vertex -0.0306479 0.035729 0.0203234
      endloop
   endfacet
   facet normal 1.62798e-07 1 1.00559e-05
      outer loop
         vertex -0.0306479 0.035729 0.0203234
         vertex -0.0310988 0.0357289 0.0203284
         vertex -0.0291517 0.0357287 0.0203284
      endloop
   endfacet
   facet normal 1.6398e-05 0.999944 0.0105695
      outer loop
         vertex -0.0376798 0.0357289 0.0203284
         vertex -0.0310988 0.0357289 0.0203284
         vertex -0.0363751 0.035729 0.0203234
      endloop
   endfacet
   facet normal 7.53601e-08 0.999944 0.0105643
      outer loop
         vertex -0.0310988 0.0357289 0.0203284
         vertex -0.0310988 0.035729 0.0203234
         vertex -0.0363751 0.035729 0.0203234
      endloop
   endfacet
   facet normal 1.6398e-05 0.999944 0.0105695
      outer loop
         vertex -0.0376798 0.0357289 0.0203284
         vertex -0.0376798 0.0357248 0.0203235
         vertex -0.0387258 0.0357215 0.0203236
      endloop
   endfacet
   facet normal -0.0383917 0.999263 2.68125e-05
      outer loop
         vertex -0.0387258 0.0357215 0.0203236
         vertex -0.0388182 0.0357137 0.0203296
         vertex -0.0376798 0.0357289 0.0203284
      endloop
   endfacet
   facet normal -0.0505974 0.998719 4.69306e-05
      outer loop
         vertex -0.0388181 0.0357138 0.0203238
         vertex -0.0393235 0.0356714 0.0203248
         vertex -0.0392887 0.0356735 0.0203473
      endloop
   endfacet
   facet normal -0.195541 0.980638 0.0106648
      outer loop
         vertex -0.0396 0.0356205 0.0203333
         vertex -0.0392887 0.0356735 0.0203473
         vertex -0.0393235 0.0356714 0.0203248
      endloop
   endfacet
   facet normal -0.268473 0.963229 0.0106088
      outer loop
         vertex -0.0399166 0.0355449 0.020336
         vertex -0.0396 0.0356205 0.0203333
         vertex -0.0397508 0.0355924 0.0203275
      endloop
   endfacet
   facet normal -0.195541 0.980638 0.0106648
      outer loop
         vertex -0.0396 0.0356205 0.0203333
         vertex -0.0396 0.0356203 0.0203266
         vertex -0.0397508 0.0355924 0.0203275
      endloop
   endfacet
   facet normal -0.268473 0.963229 0.0106088
      outer loop
         vertex -0.0399166 0.0355449 0.020336
         vertex -0.0399166 0.0355447 0.0203296
         vertex -0.040148 0.0354781 0.0203324
      endloop
   endfacet
   facet normal -0.323189 0.946335 -8.11432e-06
      outer loop
         vertex -0.040148 0.0354781 0.0203324
         vertex -0.0402146 0.0354513 0.0203393
         vertex -0.0399166 0.0355449 0.020336
      endloop
   endfacet
   facet normal -0.415001 0.909821 7.27148e-05
      outer loop
         vertex -0.0405155 0.03533 0.0203394
         vertex -0.0405153 0.0353299 0.0203446
         vertex -0.0403656 0.0353935 0.0203662
      endloop
   endfacet
   facet normal -0.37707 0.926123 0.010661
      outer loop
         vertex -0.0403656 0.0353935 0.0203662
         vertex -0.0402147 0.0354512 0.0203336
         vertex -0.0405155 0.03533 0.0203394
      endloop
   endfacet
   facet normal -0.480855 0.876736 0.0105963
      outer loop
         vertex -0.0407872 0.0351909 0.0203527
         vertex -0.0405153 0.0353299 0.0203446
         vertex -0.0405521 0.0353152 0.0203401
      endloop
   endfacet
   facet normal -0.414754 0.909871 0.0106789
      outer loop
         vertex -0.0405153 0.0353299 0.0203446
         vertex -0.0405155 0.03533 0.0203394
         vertex -0.0405521 0.0353152 0.0203401
      endloop
   endfacet
   facet normal -0.544148 0.838923 0.0105222
      outer loop
         vertex -0.0410626 0.0350256 0.0203616
         vertex -0.0407872 0.0351909 0.0203527
         vertex -0.0409138 0.0351237 0.0203499
      endloop
   endfacet
   facet normal -0.480855 0.876736 0.0105963
      outer loop
         vertex -0.0407872 0.0351909 0.0203527
         vertex -0.0407873 0.0351907 0.0203464
         vertex -0.0409138 0.0351237 0.0203499
      endloop
   endfacet
   facet normal -0.544148 0.838923 0.0105222
      outer loop
         vertex -0.0410626 0.0350256 0.0203616
         vertex -0.0410626 0.0350253 0.020355
         vertex -0.0412752 0.0348848 0.0203624
      endloop
   endfacet
   facet normal -0.590851 0.806781 8.73633e-05
      outer loop
         vertex -0.0412752 0.0348848 0.0203624
         vertex -0.0413375 0.034834 0.0203708
         vertex -0.0410626 0.0350256 0.0203616
      endloop
   endfacet
   facet normal -0.604257 0.79679 0.000109583
      outer loop
         vertex -0.0413377 0.034834 0.0203651
         vertex -0.0416546 0.0345769 0.0203786
         vertex -0.0416542 0.0345767 0.0203836
      endloop
   endfacet
   facet normal -0.706883 0.707256 0.0102887
      outer loop
         vertex -0.0422057 0.0340517 0.0204088
         vertex -0.0416542 0.0345767 0.0203836
         vertex -0.0416792 0.0345569 0.0203797
      endloop
   endfacet
   facet normal -0.659625 0.751523 0.0104296
      outer loop
         vertex -0.0416542 0.0345767 0.0203836
         vertex -0.0416546 0.0345769 0.0203786
         vertex -0.0416792 0.0345569 0.0203797
      endloop
   endfacet
   facet normal -0.663458 0.748213 4.89251e-05
      outer loop
         vertex -0.0416792 0.0345569 0.0203797
         vertex -0.042206 0.0340518 0.020404
         vertex -0.0422057 0.0340517 0.0204088
      endloop
   endfacet
   facet normal -0.659625 0.751523 0.0104296
      outer loop
         vertex -0.0416542 0.0345767 0.0203836
         vertex -0.0413375 0.034834 0.0203708
         vertex -0.0413377 0.034834 0.0203651
      endloop
   endfacet
   facet normal -0.590851 0.806781 8.73633e-05
      outer loop
         vertex -0.0412752 0.0348848 0.0203624
         vertex -0.0413377 0.034834 0.0203651
         vertex -0.0413375 0.034834 0.0203708
      endloop
   endfacet
   facet normal -0.510027 0.860159 1.01992e-06
      outer loop
         vertex -0.0409138 0.0351237 0.0203499
         vertex -0.0410626 0.0350253 0.020355
         vertex -0.0410626 0.0350256 0.0203616
      endloop
   endfacet
   facet normal -0.423923 0.905698 7.19881e-05
      outer loop
         vertex -0.0405521 0.0353152 0.0203401
         vertex -0.0407873 0.0351907 0.0203464
         vertex -0.0407872 0.0351909 0.0203527
      endloop
   endfacet
   facet normal -0.37707 0.926123 0.010661
      outer loop
         vertex -0.0403656 0.0353935 0.0203662
         vertex -0.0402146 0.0354513 0.0203393
         vertex -0.0402147 0.0354512 0.0203336
      endloop
   endfacet
   facet normal -0.323189 0.946335 -8.11432e-06
      outer loop
         vertex -0.040148 0.0354781 0.0203324
         vertex -0.0402147 0.0354512 0.0203336
         vertex -0.0402146 0.0354513 0.0203393
      endloop
   endfacet
   facet normal -0.229938 0.973205 1.48958e-05
      outer loop
         vertex -0.0397508 0.0355924 0.0203275
         vertex -0.0399166 0.0355447 0.0203296
         vertex -0.0399166 0.0355449 0.020336
      endloop
   endfacet
   facet normal -0.135721 0.990747 0.000103417
      outer loop
         vertex -0.0393235 0.0356714 0.0203248
         vertex -0.0396 0.0356203 0.0203266
         vertex -0.0396 0.0356205 0.0203333
      endloop
   endfacet
   facet normal -0.125172 0.992077 0.0107016
      outer loop
         vertex -0.0392887 0.0356735 0.0203473
         vertex -0.0388182 0.0357137 0.0203296
         vertex -0.0388181 0.0357138 0.0203238
      endloop
   endfacet
   facet normal -0.0383917 0.999263 2.68125e-05
      outer loop
         vertex -0.0387258 0.0357215 0.0203236
         vertex -0.0388181 0.0357138 0.0203238
         vertex -0.0388182 0.0357137 0.0203296
      endloop
   endfacet
   facet normal 1.0824e-06 1 1.57094e-05
      outer loop
         vertex -0.0363751 0.035729 0.0203234
         vertex -0.0376798 0.0357248 0.0203235
         vertex -0.0376798 0.0357289 0.0203284
      endloop
   endfacet
   facet normal 1.62798e-07 1 1.00559e-05
      outer loop
         vertex -0.0306479 0.035729 0.0203234
         vertex -0.0310988 0.035729 0.0203234
         vertex -0.0310988 0.0357289 0.0203284
      endloop
   endfacet
   facet normal -0.37707 0.926123 0.010661
      outer loop
         vertex -0.0403656 0.0353935 0.0203662
         vertex -0.0405153 0.0353299 0.0203446
         vertex -0.0405147 0.0353306 0.02038
      endloop
   endfacet
   facet normal -0.406057 0.899329 0.162251
      outer loop
         vertex -0.0405118 0.0353265 0.0204193
         vertex -0.0403633 0.0353906 0.0204163
         vertex -0.0403659 0.0353948 0.0203769
      endloop
   endfacet
   facet normal -0.39802 0.885989 0.237915
      outer loop
         vertex -0.0405077 0.0353197 0.0204582
         vertex -0.0403595 0.0353835 0.0204552
         vertex -0.0403633 0.0353906 0.0204163
      endloop
   endfacet
   facet normal -0.38777 0.867658 0.311133
      outer loop
         vertex -0.0405025 0.0353103 0.0204958
         vertex -0.0403548 0.0353738 0.0204928
         vertex -0.0403595 0.0353835 0.0204552
      endloop
   endfacet
   facet normal -4.04887e-07 0.99648 0.0838328
      outer loop
         vertex -0.0310988 0.0357272 0.020364
         vertex -0.0291518 0.0357262 0.0203751
         vertex -0.0291517 0.0357287 0.0203284
      endloop
   endfacet
   facet normal -4.04887e-07 0.99648 0.0838328
      outer loop
         vertex -0.0310988 0.0357272 0.020364
         vertex -0.0310988 0.0357289 0.0203284
         vertex -0.0376798 0.0357289 0.0203284
      endloop
   endfacet
   facet normal -0.0505855 0.998663 0.0106126
      outer loop
         vertex -0.0388182 0.0357137 0.0203296
         vertex -0.0388183 0.0357157 0.0203642
         vertex -0.0376798 0.0357273 0.020364
      endloop
   endfacet
   facet normal -0.124444 0.988644 0.0842386
      outer loop
         vertex -0.0392696 0.0356768 0.0203652
         vertex -0.0388183 0.0357157 0.0203642
         vertex -0.0388182 0.0357137 0.0203296
      endloop
   endfacet
   facet normal -0.125172 0.992077 0.0107016
      outer loop
         vertex -0.0392887 0.0356735 0.0203473
         vertex -0.0396 0.0356205 0.0203333
         vertex -0.0396002 0.0356234 0.020367
      endloop
   endfacet
   facet normal -0.195541 0.980638 0.0106648
      outer loop
         vertex -0.0396 0.0356205 0.0203333
         vertex -0.0399166 0.0355449 0.020336
         vertex -0.039917 0.0355478 0.0203701
      endloop
   endfacet
   facet normal -0.268473 0.963229 0.0106088
      outer loop
         vertex -0.0399166 0.0355449 0.020336
         vertex -0.0402146 0.0354513 0.0203393
         vertex -0.0402146 0.0354529 0.0203742
      endloop
   endfacet
   facet normal -0.37707 0.926123 0.010661
      outer loop
         vertex -0.0403656 0.0353935 0.0203662
         vertex -0.0403659 0.0353948 0.0203769
         vertex -0.0402146 0.0354529 0.0203742
      endloop
   endfacet
   facet normal -0.477377 0.874676 0.0839785
      outer loop
         vertex -0.0407876 0.0351937 0.0203868
         vertex -0.0405147 0.0353306 0.02038
         vertex -0.0405153 0.0353299 0.0203446
      endloop
   endfacet
   facet normal -0.480855 0.876736 0.0105963
      outer loop
         vertex -0.0407872 0.0351909 0.0203527
         vertex -0.0410626 0.0350256 0.0203616
         vertex -0.0410634 0.0350288 0.0203952
      endloop
   endfacet
   facet normal -0.544148 0.838923 0.0105222
      outer loop
         vertex -0.0410626 0.0350256 0.0203616
         vertex -0.0413375 0.034834 0.0203708
         vertex -0.0413376 0.0348361 0.0204052
      endloop
   endfacet
   facet normal -0.655406 0.750759 0.0824814
      outer loop
         vertex -0.0416532 0.0345776 0.0204185
         vertex -0.0413376 0.0348361 0.0204052
         vertex -0.0413375 0.034834 0.0203708
      endloop
   endfacet
   facet normal -0.655406 0.750759 0.0824814
      outer loop
         vertex -0.0416532 0.0345776 0.0204185
         vertex -0.0416542 0.0345767 0.0203836
         vertex -0.0422057 0.0340517 0.0204088
      endloop
   endfacet
   facet normal 2.06065e-06 0.994357 0.106088
      outer loop
         vertex -0.0291518 0.0357262 0.0203751
         vertex -0.0310988 0.0357272 0.020364
         vertex -0.0310988 0.0357224 0.0204031
      endloop
   endfacet
   facet normal -8.76363e-07 0.986882 0.161442
      outer loop
         vertex -0.0310988 0.0357224 0.0204031
         vertex -0.0310988 0.0357272 0.020364
         vertex -0.0376798 0.0357273 0.020364
      endloop
   endfacet
   facet normal -0.0497962 0.98559 0.161654
      outer loop
         vertex -0.038818 0.0357108 0.0204034
         vertex -0.0376798 0.0357224 0.0204031
         vertex -0.0376798 0.0357273 0.020364
      endloop
   endfacet
   facet normal -0.122925 0.979086 0.162113
      outer loop
         vertex -0.0392688 0.035672 0.0204045
         vertex -0.038818 0.0357108 0.0204034
         vertex -0.0388183 0.0357157 0.0203642
      endloop
   endfacet
   facet normal -0.191754 0.967925 0.162333
      outer loop
         vertex -0.039599 0.0356186 0.0204064
         vertex -0.0392688 0.035672 0.0204045
         vertex -0.0392696 0.0356768 0.0203652
      endloop
   endfacet
   facet normal -0.263067 0.951011 0.162402
      outer loop
         vertex -0.0399152 0.0355432 0.0204095
         vertex -0.039599 0.0356186 0.0204064
         vertex -0.0396002 0.0356234 0.020367
      endloop
   endfacet
   facet normal -0.332499 0.929012 0.162422
      outer loop
         vertex -0.0402123 0.0354485 0.0204136
         vertex -0.0399152 0.0355432 0.0204095
         vertex -0.039917 0.0355478 0.0203701
      endloop
   endfacet
   facet normal -0.369218 0.915046 0.162384
      outer loop
         vertex -0.0403633 0.0353906 0.0204163
         vertex -0.0402123 0.0354485 0.0204136
         vertex -0.0402146 0.0354529 0.0203742
      endloop
   endfacet
   facet normal -0.470818 0.867285 0.161699
      outer loop
         vertex -0.0407843 0.03519 0.020426
         vertex -0.0405118 0.0353265 0.0204193
         vertex -0.0405147 0.0353306 0.02038
      endloop
   endfacet
   facet normal -0.533007 0.830658 0.160968
      outer loop
         vertex -0.0410597 0.0350255 0.0204343
         vertex -0.0407843 0.03519 0.020426
         vertex -0.0407876 0.0351937 0.0203868
      endloop
   endfacet
   facet normal -0.591913 0.789928 0.160163
      outer loop
         vertex -0.0413337 0.0348331 0.020444
         vertex -0.0410597 0.0350255 0.0204343
         vertex -0.0410634 0.0350288 0.0203952
      endloop
   endfacet
   facet normal -0.647132 0.745639 0.158881
      outer loop
         vertex -0.0416491 0.034575 0.020457
         vertex -0.0413337 0.0348331 0.020444
         vertex -0.0413376 0.0348361 0.0204052
      endloop
   endfacet
   facet normal -0.701397 0.705732 0.099925
      outer loop
         vertex -0.0422031 0.0340511 0.0204526
         vertex -0.0421993 0.0340486 0.0204817
         vertex -0.0416491 0.034575 0.020457
      endloop
   endfacet
   facet normal 4.08478e-06 0.978605 0.205747
      outer loop
         vertex -0.0291519 0.0357182 0.0204259
         vertex -0.0291518 0.0357218 0.020403
         vertex -0.0310988 0.0357224 0.0204031
      endloop
   endfacet
   facet normal -1.31297e-06 0.971561 0.236788
      outer loop
         vertex -0.0310989 0.0357145 0.0204419
         vertex -0.0310988 0.0357224 0.0204031
         vertex -0.0376798 0.0357224 0.0204031
      endloop
   endfacet
   facet normal -0.0489566 0.970257 0.237075
      outer loop
         vertex -0.0388176 0.0357029 0.0204422
         vertex -0.0376798 0.0357145 0.0204419
         vertex -0.0376798 0.0357224 0.0204031
      endloop
   endfacet
   facet normal -0.120692 0.96381 0.237703
      outer loop
         vertex -0.0392676 0.0356641 0.0204434
         vertex -0.0388176 0.0357029 0.0204422
         vertex -0.038818 0.0357108 0.0204034
      endloop
   endfacet
   facet normal -0.18812 0.952862 0.238044
      outer loop
         vertex -0.0395971 0.0356109 0.0204453
         vertex -0.0392676 0.0356641 0.0204434
         vertex -0.0392688 0.035672 0.0204045
      endloop
   endfacet
   facet normal -0.257972 0.936336 0.238171
      outer loop
         vertex -0.0399126 0.0355357 0.0204484
         vertex -0.0395971 0.0356109 0.0204453
         vertex -0.039599 0.0356186 0.0204064
      endloop
   endfacet
   facet normal -0.325976 0.91488 0.238191
      outer loop
         vertex -0.0402089 0.0354412 0.0204526
         vertex -0.0399126 0.0355357 0.0204484
         vertex -0.0399152 0.0355432 0.0204095
      endloop
   endfacet
   facet normal -0.361936 0.901278 0.238119
      outer loop
         vertex -0.0403595 0.0353835 0.0204552
         vertex -0.0402089 0.0354412 0.0204526
         vertex -0.0402123 0.0354485 0.0204136
      endloop
   endfacet
   facet normal -0.461548 0.85483 0.237147
      outer loop
         vertex -0.0407795 0.0351835 0.0204648
         vertex -0.0405077 0.0353197 0.0204582
         vertex -0.0405118 0.0353265 0.0204193
      endloop
   endfacet
   facet normal -0.522666 0.81919 0.236111
      outer loop
         vertex -0.0410544 0.0350196 0.0204729
         vertex -0.0407795 0.0351835 0.0204648
         vertex -0.0407843 0.03519 0.020426
      endloop
   endfacet
   facet normal -0.580667 0.779514 0.234911
      outer loop
         vertex -0.0413279 0.0348278 0.0204824
         vertex -0.0410544 0.0350196 0.0204729
         vertex -0.0410597 0.0350255 0.0204343
      endloop
   endfacet
   facet normal -0.635247 0.736292 0.233098
      outer loop
         vertex -0.041643 0.0345702 0.0204951
         vertex -0.0413279 0.0348278 0.0204824
         vertex -0.0413337 0.0348331 0.020444
      endloop
   endfacet
   facet normal -0.688133 0.696969 0.201761
      outer loop
         vertex -0.0421964 0.0340466 0.0205045
         vertex -0.041643 0.0345702 0.0204951
         vertex -0.0416491 0.034575 0.020457
      endloop
   endfacet
   facet normal 6.17938e-06 0.95192 0.306346
      outer loop
         vertex -0.029152 0.0357044 0.0204775
         vertex -0.0291519 0.0357182 0.0204259
         vertex -0.0310989 0.0357145 0.0204419
      endloop
   endfacet
   facet normal -1.72492e-06 0.950833 0.309703
      outer loop
         vertex -0.0310989 0.0357039 0.0204793
         vertex -0.0310989 0.0357145 0.0204419
         vertex -0.0376798 0.0357145 0.0204419
      endloop
   endfacet
   facet normal -0.0478438 0.949512 0.310063
      outer loop
         vertex -0.038817 0.0356923 0.0204796
         vertex -0.0376798 0.0357039 0.0204793
         vertex -0.0376798 0.0357145 0.0204419
      endloop
   endfacet
   facet normal -0.117786 0.943132 0.310851
      outer loop
         vertex -0.0392661 0.0356535 0.0204809
         vertex -0.038817 0.0356923 0.0204796
         vertex -0.0388176 0.0357029 0.0204422
      endloop
   endfacet
   facet normal -0.183434 0.932438 0.311307
      outer loop
         vertex -0.0395947 0.0356004 0.0204829
         vertex -0.0392661 0.0356535 0.0204809
         vertex -0.0392676 0.0356641 0.0204434
      endloop
   endfacet
   facet normal -0.251436 0.91638 0.311493
      outer loop
         vertex -0.0399092 0.0355254 0.0204861
         vertex -0.0395947 0.0356004 0.0204829
         vertex -0.0395971 0.0356109 0.0204453
      endloop
   endfacet
   facet normal -0.317635 0.895583 0.311511
      outer loop
         vertex -0.0402046 0.0354313 0.0204902
         vertex -0.0399092 0.0355254 0.0204861
         vertex -0.0399126 0.0355357 0.0204484
      endloop
   endfacet
   facet normal -0.352637 0.882425 0.311404
      outer loop
         vertex -0.0403548 0.0353738 0.0204928
         vertex -0.0402046 0.0354313 0.0204902
         vertex -0.0402089 0.0354412 0.0204526
      endloop
   endfacet
   facet normal -0.449728 0.837583 0.310161
      outer loop
         vertex -0.0407735 0.0351747 0.0205023
         vertex -0.0405025 0.0353103 0.0204958
         vertex -0.0405077 0.0353197 0.0204582
      endloop
   endfacet
   facet normal -0.509464 0.803161 0.308835
      outer loop
         vertex -0.0410476 0.0350114 0.0205102
         vertex -0.0407735 0.0351747 0.0205023
         vertex -0.0407795 0.0351835 0.0204648
      endloop
   endfacet
   facet normal -0.566277 0.764804 0.307256
      outer loop
         vertex -0.0413205 0.0348202 0.0205195
         vertex -0.0410476 0.0350114 0.0205102
         vertex -0.0410544 0.0350196 0.0204729
      endloop
   endfacet
   facet normal -0.619971 0.722944 0.304938
      outer loop
         vertex -0.0416352 0.0345634 0.020532
         vertex -0.0413205 0.0348202 0.0205195
         vertex -0.0413279 0.0348278 0.0204824
      endloop
   endfacet
   facet normal -0.668175 0.681306 0.298938
      outer loop
         vertex -0.0421861 0.0340386 0.0205543
         vertex -0.0421856 0.0340382 0.020556
         vertex -0.0416352 0.0345634 0.020532
      endloop
   endfacet
   facet normal -2.11512e-06 0.924959 0.380067
      outer loop
         vertex -0.0310989 0.0356909 0.0205147
         vertex -0.029152 0.0356853 0.0205276
         vertex -0.029152 0.0357038 0.0204792
      endloop
   endfacet
   facet normal -2.11512e-06 0.924959 0.380067
      outer loop
         vertex -0.0310989 0.0356909 0.0205147
         vertex -0.0310989 0.0357039 0.0204793
         vertex -0.0376798 0.0357039 0.0204793
      endloop
   endfacet
   facet normal -0.0464705 0.923615 0.380495
      outer loop
         vertex -0.0388163 0.0356793 0.0205151
         vertex -0.0376798 0.0356909 0.0205147
         vertex -0.0376798 0.0357039 0.0204793
      endloop
   endfacet
   facet normal -0.11424 0.917309 0.381436
      outer loop
         vertex -0.0392643 0.0356405 0.0205164
         vertex -0.0388163 0.0356793 0.0205151
         vertex -0.038817 0.0356923 0.0204796
      endloop
   endfacet
   facet normal -0.17775 0.906905 0.382005
      outer loop
         vertex -0.0395919 0.0355876 0.0205185
         vertex -0.0392643 0.0356405 0.0205164
         vertex -0.0392661 0.0356535 0.0204809
      endloop
   endfacet
   facet normal -0.243532 0.89139 0.38225
      outer loop
         vertex -0.0399053 0.0355129 0.0205216
         vertex -0.0395919 0.0355876 0.0205185
         vertex -0.0395947 0.0356004 0.0204829
      endloop
   endfacet
   facet normal -0.307569 0.871364 0.382265
      outer loop
         vertex -0.0401996 0.0354191 0.0205258
         vertex -0.0399053 0.0355129 0.0205216
         vertex -0.0399092 0.0355254 0.0204861
      endloop
   endfacet
   facet normal -0.352637 0.882425 0.311404
      outer loop
         vertex -0.0403548 0.0353738 0.0204928
         vertex -0.0405025 0.0353103 0.0204958
         vertex -0.0404963 0.0352987 0.0205313
      endloop
   endfacet
   facet normal -0.435492 0.815766 0.380621
      outer loop
         vertex -0.0407663 0.0351637 0.0205377
         vertex -0.0404963 0.0352987 0.0205313
         vertex -0.0405025 0.0353103 0.0204958
      endloop
   endfacet
   facet normal -0.493553 0.782786 0.379015
      outer loop
         vertex -0.0410396 0.0350011 0.0205455
         vertex -0.0407663 0.0351637 0.0205377
         vertex -0.0407735 0.0351747 0.0205023
      endloop
   endfacet
   facet normal -0.54891 0.746001 0.377068
      outer loop
         vertex -0.0413118 0.0348108 0.0205546
         vertex -0.0410396 0.0350011 0.0205455
         vertex -0.0410476 0.0350114 0.0205102
      endloop
   endfacet
   facet normal -0.601488 0.705789 0.374264
      outer loop
         vertex -0.0416259 0.0345547 0.0205668
         vertex -0.0413118 0.0348108 0.0205546
         vertex -0.0413205 0.0348202 0.0205195
      endloop
   endfacet
   facet normal -0.601488 0.705789 0.374264
      outer loop
         vertex -0.0416259 0.0345547 0.0205668
         vertex -0.0416352 0.0345634 0.020532
         vertex -0.0421856 0.0340382 0.020556
      endloop
   endfacet
   facet normal 8.31048e-06 0.913706 0.406376
      outer loop
         vertex -0.029152 0.0356853 0.0205276
         vertex -0.0310989 0.0356909 0.0205147
         vertex -0.0310989 0.0356756 0.0205482
      endloop
   endfacet
   facet normal -2.48722e-06 0.893542 0.44898
      outer loop
         vertex -0.0310989 0.0356756 0.0205482
         vertex -0.0310989 0.0356909 0.0205147
         vertex -0.0376798 0.0356909 0.0205147
      endloop
   endfacet
   facet normal -0.044815 0.892168 0.449476
      outer loop
         vertex -0.0388155 0.035664 0.0205486
         vertex -0.0376798 0.0356756 0.0205482
         vertex -0.0376798 0.0356909 0.0205147
      endloop
   endfacet
   facet normal -0.109998 0.885941 0.450565
      outer loop
         vertex -0.0392622 0.0356253 0.02055
         vertex -0.0388155 0.035664 0.0205486
         vertex -0.0388163 0.0356793 0.0205151
      endloop
   endfacet
   facet normal -0.170981 0.875866 0.451247
      outer loop
         vertex -0.0395886 0.0355725 0.0205522
         vertex -0.0392622 0.0356253 0.02055
         vertex -0.0392643 0.0356405 0.0205164
      endloop
   endfacet
   facet normal -0.234137 0.860976 0.451553
      outer loop
         vertex -0.0399007 0.0354981 0.0205553
         vertex -0.0395886 0.0355725 0.0205522
         vertex -0.0395919 0.0355876 0.0205185
      endloop
   endfacet
   facet normal -0.295622 0.841843 0.451562
      outer loop
         vertex -0.0401937 0.0354048 0.0205595
         vertex -0.0399007 0.0354981 0.0205553
         vertex -0.0399053 0.0355129 0.0205216
      endloop
   endfacet
   facet normal -0.36079 0.81636 0.450985
      outer loop
         vertex -0.0404892 0.0352849 0.020565
         vertex -0.0401937 0.0354048 0.0205595
         vertex -0.0401996 0.0354191 0.0205258
      endloop
   endfacet
   facet normal -0.418625 0.789041 0.449631
      outer loop
         vertex -0.0407581 0.0351507 0.0205713
         vertex -0.0404892 0.0352849 0.020565
         vertex -0.0404963 0.0352987 0.0205313
      endloop
   endfacet
   facet normal -0.474691 0.757752 0.44775
      outer loop
         vertex -0.0410304 0.034989 0.0205789
         vertex -0.0407581 0.0351507 0.0205713
         vertex -0.0407663 0.0351637 0.0205377
      endloop
   endfacet
   facet normal -0.52831 0.722822 0.445439
      outer loop
         vertex -0.0413018 0.0347995 0.0205879
         vertex -0.0410304 0.034989 0.0205789
         vertex -0.0410396 0.0350011 0.0205455
      endloop
   endfacet
   facet normal -0.579529 0.684574 0.442159
      outer loop
         vertex -0.0416152 0.0345444 0.0205999
         vertex -0.0413018 0.0347995 0.0205879
         vertex -0.0413118 0.0348108 0.0205546
      endloop
   endfacet
   facet normal -0.625783 0.645079 0.438484
      outer loop
         vertex -0.0421647 0.0340203 0.0206231
         vertex -0.0416152 0.0345444 0.0205999
         vertex -0.0416259 0.0345547 0.0205668
      endloop
   endfacet
   facet normal 9.5446e-06 0.886444 0.462835
      outer loop
         vertex -0.0291521 0.0356716 0.0205544
         vertex -0.0291521 0.035675 0.0205478
         vertex -0.0310989 0.0356756 0.0205482
      endloop
   endfacet
   facet normal -2.56058e-06 0.886418 0.462885
      outer loop
         vertex -0.0310989 0.0356722 0.0205548
         vertex -0.0310989 0.0356756 0.0205482
         vertex -0.0376798 0.0356756 0.0205482
      endloop
   endfacet
   facet normal -0.0444409 0.885038 0.463393
      outer loop
         vertex -0.0388153 0.0356606 0.0205552
         vertex -0.0376798 0.0356722 0.0205548
         vertex -0.0376798 0.0356756 0.0205482
      endloop
   endfacet
   facet normal -0.109043 0.878827 0.464513
      outer loop
         vertex -0.0392617 0.0356219 0.0205567
         vertex -0.0388153 0.0356606 0.0205552
         vertex -0.0388155 0.035664 0.0205486
      endloop
   endfacet
   facet normal -0.16946 0.868825 0.465217
      outer loop
         vertex -0.0395879 0.0355691 0.0205588
         vertex -0.0392617 0.0356219 0.0205567
         vertex -0.0392622 0.0356253 0.02055
      endloop
   endfacet
   facet normal -0.232028 0.854072 0.465535
      outer loop
         vertex -0.0398997 0.0354948 0.020562
         vertex -0.0395879 0.0355691 0.0205588
         vertex -0.0395886 0.0355725 0.0205522
      endloop
   endfacet
   facet normal -0.292942 0.835137 0.465544
      outer loop
         vertex -0.0401925 0.0354016 0.0205661
         vertex -0.0398997 0.0354948 0.020562
         vertex -0.0399007 0.0354981 0.0205553
      endloop
   endfacet
   facet normal -0.357509 0.809946 0.464946
      outer loop
         vertex -0.0404876 0.0352819 0.0205716
         vertex -0.0401925 0.0354016 0.0205661
         vertex -0.0401937 0.0354048 0.0205595
      endloop
   endfacet
   facet normal -0.414844 0.782957 0.463555
      outer loop
         vertex -0.0407563 0.0351478 0.0205779
         vertex -0.0404876 0.0352819 0.0205716
         vertex -0.0404892 0.0352849 0.020565
      endloop
   endfacet
   facet normal -0.470463 0.752046 0.461618
      outer loop
         vertex -0.0410284 0.0349863 0.0205855
         vertex -0.0407563 0.0351478 0.0205779
         vertex -0.0407581 0.0351507 0.0205713
      endloop
   endfacet
   facet normal -0.523691 0.717531 0.459234
      outer loop
         vertex -0.0412996 0.034797 0.0205944
         vertex -0.0410284 0.0349863 0.0205855
         vertex -0.0410304 0.034989 0.0205789
      endloop
   endfacet
   facet normal -0.574602 0.679725 0.455858
      outer loop
         vertex -0.0416129 0.0345421 0.0206064
         vertex -0.0412996 0.034797 0.0205944
         vertex -0.0413018 0.0347995 0.0205879
      endloop
   endfacet
   facet normal -0.574602 0.679725 0.455858
      outer loop
         vertex -0.0416129 0.0345421 0.0206064
         vertex -0.0416152 0.0345444 0.0205999
         vertex -0.0421647 0.0340203 0.0206231
      endloop
   endfacet
   facet normal 1.04021e-05 0.864569 0.502514
      outer loop
         vertex -0.0291521 0.0356617 0.0205738
         vertex -0.0291521 0.0356716 0.0205544
         vertex -0.0310989 0.0356722 0.0205548
      endloop
   endfacet
   facet normal -2.95077e-06 0.846207 0.532855
      outer loop
         vertex -0.031099 0.0356527 0.0205887
         vertex -0.0310989 0.0356722 0.0205548
         vertex -0.0376798 0.0356722 0.0205548
      endloop
   endfacet
   facet normal -0.042339 0.844789 0.533423
      outer loop
         vertex -0.0388143 0.0356411 0.0205892
         vertex -0.0376798 0.0356527 0.0205887
         vertex -0.0376798 0.0356722 0.0205548
      endloop
   endfacet
   facet normal -0.103691 0.838673 0.534673
      outer loop
         vertex -0.0392591 0.0356024 0.0205907
         vertex -0.0388143 0.0356411 0.0205892
         vertex -0.0388153 0.0356606 0.0205552
      endloop
   endfacet
   facet normal -0.160945 0.829071 0.535479
      outer loop
         vertex -0.0395838 0.0355498 0.0205929
         vertex -0.0392591 0.0356024 0.0205907
         vertex -0.0392617 0.0356219 0.0205567
      endloop
   endfacet
   facet normal -0.220229 0.815082 0.535855
      outer loop
         vertex -0.039894 0.0354759 0.0205961
         vertex -0.0395838 0.0355498 0.0205929
         vertex -0.0395879 0.0355691 0.0205588
      endloop
   endfacet
   facet normal -0.277953 0.797245 0.535856
      outer loop
         vertex -0.0401852 0.0353832 0.0206002
         vertex -0.039894 0.0354759 0.0205961
         vertex -0.0398997 0.0354948 0.020562
      endloop
   endfacet
   facet normal -0.339168 0.773668 0.535167
      outer loop
         vertex -0.0404787 0.0352643 0.0206057
         vertex -0.0401852 0.0353832 0.0206002
         vertex -0.0401925 0.0354016 0.0205661
      endloop
   endfacet
   facet normal -0.393701 0.748505 0.53361
      outer loop
         vertex -0.0407461 0.0351311 0.0206119
         vertex -0.0404787 0.0352643 0.0206057
         vertex -0.0404876 0.0352819 0.0205716
      endloop
   endfacet
   facet normal -0.446805 0.719689 0.531425
      outer loop
         vertex -0.0410168 0.0349706 0.0206194
         vertex -0.0407461 0.0351311 0.0206119
         vertex -0.0407563 0.0351478 0.0205779
      endloop
   endfacet
   facet normal -0.497828 0.687483 0.52871
      outer loop
         vertex -0.041287 0.0347824 0.0206282
         vertex -0.0410168 0.0349706 0.0206194
         vertex -0.0410284 0.0349863 0.0205855
      endloop
   endfacet
   facet normal -0.546983 0.652137 0.524906
      outer loop
         vertex -0.0415994 0.0345287 0.0206399
         vertex -0.041287 0.0347824 0.0206282
         vertex -0.0412996 0.034797 0.0205944
      endloop
   endfacet
   facet normal -0.592137 0.615065 0.520643
      outer loop
         vertex -0.0421485 0.0340058 0.0206629
         vertex -0.0415994 0.0345287 0.0206399
         vertex -0.0416129 0.0345421 0.0206064
      endloop
   endfacet
   facet normal 1.21097e-05 0.810143 0.586232
      outer loop
         vertex -0.0291522 0.0356346 0.0206155
         vertex -0.0291521 0.0356617 0.0205738
         vertex -0.031099 0.0356527 0.0205887
      endloop
   endfacet
   facet normal -3.35356e-06 0.801103 0.598527
      outer loop
         vertex -0.031099 0.03563 0.0206218
         vertex -0.031099 0.0356527 0.0205887
         vertex -0.0376798 0.0356527 0.0205887
      endloop
   endfacet
   facet normal -0.0399964 0.799648 0.599136
      outer loop
         vertex -0.0388131 0.0356184 0.0206223
         vertex -0.0376798 0.03563 0.0206218
         vertex -0.0376798 0.0356527 0.0205887
      endloop
   endfacet
   facet normal -0.0977449 0.793646 0.600477
      outer loop
         vertex -0.0392561 0.0355797 0.0206238
         vertex -0.0388131 0.0356184 0.0206223
         vertex -0.0388143 0.0356411 0.0205892
      endloop
   endfacet
   facet normal -0.0977449 0.793646 0.600477
      outer loop
         vertex -0.0392561 0.0355797 0.0206238
         vertex -0.0392591 0.0356024 0.0205907
         vertex -0.0395838 0.0355498 0.0205929
      endloop
   endfacet
   facet normal -0.207158 0.771331 0.601776
      outer loop
         vertex -0.0398874 0.0354539 0.0206292
         vertex -0.039579 0.0355274 0.020626
         vertex -0.0395838 0.0355498 0.0205929
      endloop
   endfacet
   facet normal -0.261355 0.754697 0.601769
      outer loop
         vertex -0.0401768 0.0353618 0.0206334
         vertex -0.0398874 0.0354539 0.0206292
         vertex -0.039894 0.0354759 0.0205961
      endloop
   endfacet
   facet normal -0.318865 0.73288 0.60101
      outer loop
         vertex -0.0404685 0.0352437 0.0206388
         vertex -0.0401768 0.0353618 0.0206334
         vertex -0.0401852 0.0353832 0.0206002
      endloop
   endfacet
   facet normal -0.370287 0.709707 0.599336
      outer loop
         vertex -0.0407343 0.0351116 0.0206449
         vertex -0.0404685 0.0352437 0.0206388
         vertex -0.0404787 0.0352643 0.0206057
      endloop
   endfacet
   facet normal -0.420584 0.683178 0.596973
      outer loop
         vertex -0.0410036 0.0349522 0.0206524
         vertex -0.0407343 0.0351116 0.0206449
         vertex -0.0407461 0.0351311 0.0206119
      endloop
   endfacet
   facet normal -0.469132 0.653498 0.594016
      outer loop
         vertex -0.0412726 0.0347653 0.020661
         vertex -0.0410036 0.0349522 0.0206524
         vertex -0.0410168 0.0349706 0.0206194
      endloop
   endfacet
   facet normal -0.516289 0.620854 0.589904
      outer loop
         vertex -0.041584 0.0345129 0.0206726
         vertex -0.0412726 0.0347653 0.020661
         vertex -0.041287 0.0347824 0.0206282
      endloop
   endfacet
   facet normal -0.563633 0.589142 0.57899
      outer loop
         vertex -0.0421345 0.0339932 0.0206925
         vertex -0.041584 0.0345129 0.0206726
         vertex -0.0415994 0.0345287 0.0206399
      endloop
   endfacet
   facet normal -3.74956e-06 0.751739 0.659461
      outer loop
         vertex -0.031099 0.0356047 0.020653
         vertex -0.0291523 0.0356025 0.0206555
         vertex -0.0291522 0.0356298 0.0206215
      endloop
   endfacet
   facet normal -3.74956e-06 0.751739 0.659461
      outer loop
         vertex -0.031099 0.0356047 0.020653
         vertex -0.031099 0.03563 0.0206218
         vertex -0.0376798 0.03563 0.0206218
      endloop
   endfacet
   facet normal -0.0374431 0.750248 0.660095
      outer loop
         vertex -0.0388118 0.035593 0.0206535
         vertex -0.0376798 0.0356046 0.020653
         vertex -0.0376798 0.03563 0.0206218
      endloop
   endfacet
   facet normal -0.0912855 0.744378 0.66149
      outer loop
         vertex -0.0392527 0.0355545 0.0206551
         vertex -0.0388118 0.035593 0.0206535
         vertex -0.0388131 0.0356184 0.0206223
      endloop
   endfacet
   facet normal -0.0912855 0.744378 0.66149
      outer loop
         vertex -0.0392527 0.0355545 0.0206551
         vertex -0.0392561 0.0355797 0.0206238
         vertex -0.039579 0.0355274 0.020626
      endloop
   endfacet
   facet normal -0.141265 0.735694 0.662419
      outer loop
         vertex -0.0395738 0.0355023 0.0206574
         vertex -0.039579 0.0355274 0.020626
         vertex -0.0398874 0.0354539 0.0206292
      endloop
   endfacet
   facet normal -0.243377 0.708092 0.662853
      outer loop
         vertex -0.0401675 0.0353379 0.0206647
         vertex -0.0398802 0.0354293 0.0206606
         vertex -0.0398874 0.0354539 0.0206292
      endloop
   endfacet
   facet normal -0.296881 0.688156 0.662044
      outer loop
         vertex -0.0404573 0.0352208 0.0206701
         vertex -0.0401675 0.0353379 0.0206647
         vertex -0.0401768 0.0353618 0.0206334
      endloop
   endfacet
   facet normal -0.344928 0.667106 0.660299
      outer loop
         vertex -0.0407213 0.0350897 0.0206762
         vertex -0.0404573 0.0352208 0.0206701
         vertex -0.0404685 0.0352437 0.0206388
      endloop
   endfacet
   facet normal -0.392164 0.643024 0.65782
      outer loop
         vertex -0.040989 0.0349316 0.0206836
         vertex -0.0407213 0.0350897 0.0206762
         vertex -0.0407343 0.0351116 0.0206449
      endloop
   endfacet
   facet normal -0.438002 0.616054 0.6547
      outer loop
         vertex -0.0412566 0.034746 0.0206922
         vertex -0.040989 0.0349316 0.0206836
         vertex -0.0410036 0.0349522 0.0206524
      endloop
   endfacet
   facet normal -0.48294 0.586313 0.650389
      outer loop
         vertex -0.0415669 0.0344952 0.0207036
         vertex -0.0412566 0.034746 0.0206922
         vertex -0.0412726 0.0347653 0.020661
      endloop
   endfacet
   facet normal -0.48294 0.586313 0.650389
      outer loop
         vertex -0.0415669 0.0344952 0.0207036
         vertex -0.041584 0.0345129 0.0206726
         vertex -0.0421345 0.0339932 0.0206925
      endloop
   endfacet
   facet normal 1.46089e-05 0.698772 0.715345
      outer loop
         vertex -0.0291523 0.035577 0.0206813
         vertex -0.0291523 0.0356025 0.0206555
         vertex -0.031099 0.0356047 0.020653
      endloop
   endfacet
   facet normal -4.10849e-06 0.698706 0.715409
      outer loop
         vertex -0.0310991 0.0355774 0.0206818
         vertex -0.031099 0.0356047 0.020653
         vertex -0.0376798 0.0356046 0.020653
      endloop
   endfacet
   facet normal -0.0347066 0.697181 0.716054
      outer loop
         vertex -0.0388104 0.0355657 0.0206823
         vertex -0.0376798 0.0355774 0.0206818
         vertex -0.0376798 0.0356046 0.020653
      endloop
   endfacet
   facet normal -0.084385 0.691457 0.717473
      outer loop
         vertex -0.0392491 0.0355273 0.0206839
         vertex -0.0388104 0.0355657 0.0206823
         vertex -0.0388118 0.035593 0.0206535
      endloop
   endfacet
   facet normal -0.084385 0.691457 0.717473
      outer loop
         vertex -0.0392491 0.0355273 0.0206839
         vertex -0.0392527 0.0355545 0.0206551
         vertex -0.0395738 0.0355023 0.0206574
      endloop
   endfacet
   facet normal -0.130347 0.68328 0.718428
      outer loop
         vertex -0.0395682 0.0354754 0.0206862
         vertex -0.0395738 0.0355023 0.0206574
         vertex -0.0398802 0.0354293 0.0206606
      endloop
   endfacet
   facet normal -0.224227 0.657986 0.718872
      outer loop
         vertex -0.0401577 0.0353122 0.0206935
         vertex -0.0398724 0.0354028 0.0206894
         vertex -0.0398802 0.0354293 0.0206606
      endloop
   endfacet
   facet normal -0.273478 0.640031 0.718032
      outer loop
         vertex -0.0404453 0.035196 0.0206989
         vertex -0.0401577 0.0353122 0.0206935
         vertex -0.0401675 0.0353379 0.0206647
      endloop
   endfacet
   facet normal -0.317925 0.621212 0.716254
      outer loop
         vertex -0.0407075 0.0350661 0.020705
         vertex -0.0404453 0.035196 0.0206989
         vertex -0.0404573 0.0352208 0.0206701
      endloop
   endfacet
   facet normal -0.361885 0.59971 0.713714
      outer loop
         vertex -0.0409735 0.0349094 0.0207123
         vertex -0.0407075 0.0350661 0.020705
         vertex -0.0407213 0.0350897 0.0206762
      endloop
   endfacet
   facet normal -0.404811 0.575602 0.7105
      outer loop
         vertex -0.0412396 0.0347252 0.0207208
         vertex -0.0409735 0.0349094 0.0207123
         vertex -0.040989 0.0349316 0.0206836
      endloop
   endfacet
   facet normal -0.447341 0.548935 0.706085
      outer loop
         vertex -0.0415486 0.034476 0.0207322
         vertex -0.0412396 0.0347252 0.0207208
         vertex -0.0412566 0.034746 0.0206922
      endloop
   endfacet
   facet normal -0.447341 0.548935 0.706085
      outer loop
         vertex -0.0415486 0.034476 0.0207322
         vertex -0.0415669 0.0344952 0.0207036
         vertex -0.0421101 0.0339706 0.0207344
      endloop
   endfacet
   facet normal 1.50588e-05 0.675589 0.737278
      outer loop
         vertex -0.0291523 0.0355657 0.0206929
         vertex -0.0291523 0.035577 0.0206813
         vertex -0.0310991 0.0355774 0.0206818
      endloop
   endfacet
   facet normal -4.39323e-06 0.642564 0.766232
      outer loop
         vertex -0.0310991 0.0355492 0.0207074
         vertex -0.0310991 0.0355774 0.0206818
         vertex -0.0376798 0.0355774 0.0206818
      endloop
   endfacet
   facet normal -0.0318127 0.641007 0.766876
      outer loop
         vertex -0.0388089 0.0355375 0.0207079
         vertex -0.0376798 0.0355491 0.0207074
         vertex -0.0376798 0.0355774 0.0206818
      endloop
   endfacet
   facet normal -0.0318127 0.641007 0.766876
      outer loop
         vertex -0.0388089 0.0355375 0.0207079
         vertex -0.0388104 0.0355657 0.0206823
         vertex -0.0392491 0.0355273 0.0206839
      endloop
   endfacet
   facet normal -0.077111 0.635438 0.768292
      outer loop
         vertex -0.0392454 0.0354991 0.0207095
         vertex -0.0392491 0.0355273 0.0206839
         vertex -0.0395682 0.0354754 0.0206862
      endloop
   endfacet
   facet normal -0.118858 0.62779 0.769255
      outer loop
         vertex -0.0395624 0.0354474 0.0207118
         vertex -0.0395682 0.0354754 0.0206862
         vertex -0.0398724 0.0354028 0.0206894
      endloop
   endfacet
   facet normal -0.204102 0.604902 0.769699
      outer loop
         vertex -0.0401475 0.0352855 0.0207191
         vertex -0.0398644 0.0353754 0.020715
         vertex -0.0398724 0.0354028 0.0206894
      endloop
   endfacet
   facet normal -0.248898 0.589008 0.768843
      outer loop
         vertex -0.0404329 0.0351703 0.0207245
         vertex -0.0401475 0.0352855 0.0207191
         vertex -0.0401577 0.0353122 0.0206935
      endloop
   endfacet
   facet normal -0.289563 0.572509 0.767064
      outer loop
         vertex -0.0406932 0.0350416 0.0207306
         vertex -0.0404329 0.0351703 0.0207245
         vertex -0.0404453 0.035196 0.0206989
      endloop
   endfacet
   facet normal -0.33007 0.553697 0.764508
      outer loop
         vertex -0.0409574 0.0348862 0.0207379
         vertex -0.0406932 0.0350416 0.0207306
         vertex -0.0407075 0.0350661 0.020705
      endloop
   endfacet
   facet normal -0.36992 0.532579 0.761261
      outer loop
         vertex -0.0412221 0.0347036 0.0207464
         vertex -0.0409574 0.0348862 0.0207379
         vertex -0.0409735 0.0349094 0.0207123
      endloop
   endfacet
   facet normal -0.409883 0.509135 0.756821
      outer loop
         vertex -0.0415298 0.034456 0.0207578
         vertex -0.0412221 0.0347036 0.0207464
         vertex -0.0412396 0.0347252 0.0207208
      endloop
   endfacet
   facet normal -0.409883 0.509135 0.756821
      outer loop
         vertex -0.0415298 0.034456 0.0207578
         vertex -0.0415486 0.034476 0.0207322
         vertex -0.0420839 0.033946 0.0207713
      endloop
   endfacet
   facet normal 1.65104e-05 0.600445 0.799666
      outer loop
         vertex -0.0291524 0.0355286 0.0207237
         vertex -0.0291523 0.0355488 0.0207069
         vertex -0.0310991 0.0355492 0.0207074
      endloop
   endfacet
   facet normal 4.96741e-06 0.579103 0.815254
      outer loop
         vertex -0.0357332 0.0355185 0.020731
         vertex -0.0310991 0.0355186 0.020731
         vertex -0.0310991 0.0355492 0.0207074
      endloop
   endfacet
   facet normal -0.0285432 0.57754 0.815863
      outer loop
         vertex -0.0388073 0.0355013 0.0207318
         vertex -0.0376797 0.0355076 0.0207315
         vertex -0.0376798 0.0355491 0.0207074
      endloop
   endfacet
   facet normal -0.0369213 0.576664 0.816147
      outer loop
         vertex -0.0389091 0.0355007 0.0207318
         vertex -0.0388073 0.0355013 0.0207318
         vertex -0.0388089 0.0355375 0.0207079
      endloop
   endfacet
   facet normal -0.0940068 0.567553 0.817952
      outer loop
         vertex -0.0394605 0.0354352 0.0207346
         vertex -0.0392406 0.0354613 0.0207335
         vertex -0.0392454 0.0354991 0.0207095
      endloop
   endfacet
   facet normal -0.162024 0.61746 0.769735
      outer loop
         vertex -0.0398644 0.0353754 0.020715
         vertex -0.0398601 0.0353444 0.0207387
         vertex -0.0395554 0.0354137 0.0207356
      endloop
   endfacet
   facet normal -0.144751 0.555694 0.818689
      outer loop
         vertex -0.0398601 0.0353444 0.0207387
         vertex -0.0398644 0.0353754 0.020715
         vertex -0.0401475 0.0352855 0.0207191
      endloop
   endfacet
   facet normal -0.194813 0.540522 0.818464
      outer loop
         vertex -0.0402329 0.0352205 0.0207445
         vertex -0.0401354 0.035253 0.020743
         vertex -0.0401475 0.0352855 0.0207191
      endloop
   endfacet
   facet normal -0.248572 0.52101 0.816554
      outer loop
         vertex -0.0406124 0.0350495 0.0207526
         vertex -0.0404173 0.0351374 0.0207484
         vertex -0.0404329 0.0351703 0.0207245
      endloop
   endfacet
   facet normal -0.33007 0.553697 0.764508
      outer loop
         vertex -0.0409574 0.0348862 0.0207379
         vertex -0.0409637 0.034846 0.0207623
         vertex -0.0406764 0.0350124 0.0207543
      endloop
   endfacet
   facet normal -0.297667 0.500024 0.813247
      outer loop
         vertex -0.0409637 0.034846 0.0207623
         vertex -0.0409574 0.0348862 0.0207379
         vertex -0.0412221 0.0347036 0.0207464
      endloop
   endfacet
   facet normal -0.345061 0.476357 0.808713
      outer loop
         vertex -0.0413143 0.034595 0.0207741
         vertex -0.0412006 0.0346764 0.0207702
         vertex -0.0412221 0.0347036 0.0207464
      endloop
   endfacet
   facet normal -0.394019 0.448113 0.802461
      outer loop
         vertex -0.0417915 0.0341773 0.0207931
         vertex -0.0415045 0.0344285 0.0207817
         vertex -0.0415298 0.034456 0.0207578
      endloop
   endfacet
endsolid 1111. Units = meters