solid 1111. STL generated by ONSHAPE BY PTC INC, 1.216. Units = meters
   facet normal -0.55429 0.0363057 -0.831531
      outer loop
         vertex -0.0486239 0.0249288 -0.0212016
         vertex -0.0486236 0.00252925 -0.0221798
         vertex -0.0486613 0.00252926 -0.022152
      endloop
   endfacet
   facet normal -0.633315 0.033757 -0.773157
      outer loop
         vertex -0.0486634 0.0249275 -0.0211724
         vertex -0.0486613 0.00252926 -0.022152
         vertex -0.0486984 0.00252926 -0.0221188
      endloop
   endfacet
   facet normal -0.703429 0.0310034 -0.710089
      outer loop
         vertex -0.0486984 0.00252926 -0.0221188
         vertex -0.0486984 0.0249261 -0.0211408
         vertex -0.0486634 0.0249275 -0.0211724
      endloop
   endfacet
   facet normal -0.706223 0.0308823 -0.707315
      outer loop
         vertex -0.0486998 0.024926 -0.0211395
         vertex -0.0486984 0.00252926 -0.0221188
         vertex -0.048732 0.00252926 -0.022082
      endloop
   endfacet
   facet normal -0.770662 0.0277964 -0.636637
      outer loop
         vertex -0.048732 0.00252926 -0.022082
         vertex -0.048732 0.0249245 -0.0211041
         vertex -0.0486998 0.024926 -0.0211395
      endloop
   endfacet
   facet normal -0.77231 0.0277092 -0.634641
      outer loop
         vertex -0.0487329 0.0249245 -0.0211032
         vertex -0.048732 0.00252926 -0.022082
         vertex -0.0487618 0.00252926 -0.022042
      endloop
   endfacet
   facet normal -0.830246 0.0243135 -0.556867
      outer loop
         vertex -0.0487618 0.00252926 -0.022042
         vertex -0.0487618 0.0249227 -0.0210643
         vertex -0.0487329 0.0249245 -0.0211032
      endloop
   endfacet
   facet normal -0.830937 0.0242685 -0.555837
      outer loop
         vertex -0.0487622 0.0249227 -0.0210638
         vertex -0.0487618 0.00252926 -0.022042
         vertex -0.0487875 0.00252926 -0.0219993
      endloop
   endfacet
   facet normal -0.881589 0.0205893 -0.471569
      outer loop
         vertex -0.0487875 0.00252926 -0.0219993
         vertex -0.0487875 0.0249209 -0.0210216
         vertex -0.0487875 0.0249209 -0.0210217
      endloop
   endfacet
   facet normal -0.881589 0.0205893 -0.471569
      outer loop
         vertex -0.0487875 0.00252926 -0.0219993
         vertex -0.0487875 0.0249209 -0.0210217
         vertex -0.0487622 0.0249227 -0.0210638
      endloop
   endfacet
   facet normal -0.881589 0.0205893 -0.471569
      outer loop
         vertex -0.0487875 0.0249209 -0.0210216
         vertex -0.0487875 0.00252926 -0.0219993
         vertex -0.0488088 0.00252926 -0.0219542
      endloop
   endfacet
   facet normal -0.924181 0.0166607 -0.38159
      outer loop
         vertex -0.0488088 0.00252926 -0.0219542
         vertex -0.0488088 0.0249189 -0.0209767
         vertex -0.0488085 0.0249189 -0.0209773
      endloop
   endfacet
   facet normal -0.92418 0.0166609 -0.381593
      outer loop
         vertex -0.0488088 0.0249189 -0.0209767
         vertex -0.0488088 0.00252926 -0.0219542
         vertex -0.0488255 0.00252926 -0.0219073
      endloop
   endfacet
   facet normal -0.957601 0.0125668 -0.287824
      outer loop
         vertex -0.0488255 0.00252926 -0.0219073
         vertex -0.0488254 0.0249168 -0.0209298
         vertex -0.0488251 0.0249169 -0.0209311
      endloop
   endfacet
   facet normal -0.957599 0.012567 -0.28783
      outer loop
         vertex -0.0488254 0.0249168 -0.0209298
         vertex -0.0488255 0.00252926 -0.0219073
         vertex -0.0488374 0.00252926 -0.0218589
      endloop
   endfacet
   facet normal -0.981515 0.00834809 -0.191201
      outer loop
         vertex -0.0488374 0.00252926 -0.0218589
         vertex -0.0488373 0.0249147 -0.0208815
         vertex -0.048837 0.0249148 -0.0208835
      endloop
   endfacet
   facet normal -0.981514 0.00834847 -0.19121
      outer loop
         vertex -0.0488373 0.0249147 -0.0208815
         vertex -0.0488374 0.00252926 -0.0218589
         vertex -0.0488445 0.00252926 -0.0218095
      endloop
   endfacet
   facet normal -0.995688 0.00404655 -0.0926805
      outer loop
         vertex -0.0488445 0.00252926 -0.0218095
         vertex -0.0488444 0.0249125 -0.0208322
         vertex -0.0488443 0.0249127 -0.020835
      endloop
   endfacet
   facet normal -0.995687 0.00404703 -0.0926915
      outer loop
         vertex -0.0488444 0.0249125 -0.0208322
         vertex -0.0488445 0.00252926 -0.0218095
         vertex -0.0488467 0.00252926 -0.0217627
      endloop
   endfacet
   facet normal -1 -3.74032e-05 0.000856668
      outer loop
         vertex -0.0488467 0.00252926 -0.0217627
         vertex -0.0488467 0.0249105 -0.0207859
         vertex -0.0488444 0.0249125 -0.0208322
      endloop
   endfacet
   facet normal -0.995688 0.00404655 -0.0926805
      outer loop
         vertex -0.0488445 0.00252926 -0.0218095
         vertex -0.0488443 0.0249127 -0.020835
         vertex -0.0488373 0.0249147 -0.0208815
      endloop
   endfacet
   facet normal -0.981515 0.00834809 -0.191201
      outer loop
         vertex -0.0488374 0.00252926 -0.0218589
         vertex -0.048837 0.0249148 -0.0208835
         vertex -0.0488254 0.0249168 -0.0209298
      endloop
   endfacet
   facet normal -0.957601 0.0125668 -0.287824
      outer loop
         vertex -0.0488255 0.00252926 -0.0219073
         vertex -0.0488251 0.0249169 -0.0209311
         vertex -0.0488088 0.0249189 -0.0209767
      endloop
   endfacet
   facet normal -0.924181 0.0166607 -0.38159
      outer loop
         vertex -0.0488088 0.00252926 -0.0219542
         vertex -0.0488085 0.0249189 -0.0209773
         vertex -0.0487875 0.0249209 -0.0210216
      endloop
   endfacet
   facet normal -0.830937 0.0242685 -0.555837
      outer loop
         vertex -0.0487622 0.0249227 -0.0210638
         vertex -0.0487618 0.0249227 -0.0210643
         vertex -0.0487618 0.00252926 -0.022042
      endloop
   endfacet
   facet normal -0.77231 0.0277092 -0.634641
      outer loop
         vertex -0.0487329 0.0249245 -0.0211032
         vertex -0.048732 0.0249245 -0.0211041
         vertex -0.048732 0.00252926 -0.022082
      endloop
   endfacet
   facet normal -0.706223 0.0308823 -0.707315
      outer loop
         vertex -0.0486998 0.024926 -0.0211395
         vertex -0.0486984 0.0249261 -0.0211408
         vertex -0.0486984 0.00252926 -0.0221188
      endloop
   endfacet
   facet normal -0.633315 0.033757 -0.773157
      outer loop
         vertex -0.0486634 0.0249275 -0.0211724
         vertex -0.0486613 0.0249276 -0.021174
         vertex -0.0486613 0.00252926 -0.022152
      endloop
   endfacet
   facet normal -0.629214 0.0339026 -0.776492
      outer loop
         vertex -0.0486613 0.00252926 -0.022152
         vertex -0.0486613 0.0249276 -0.021174
         vertex -0.0486239 0.0249288 -0.0212016
      endloop
   endfacet
   facet normal -4.33778e-06 -1 1.10184e-06
      outer loop
         vertex 0.0293837 0.00252892 -0.0202069
         vertex 0.0294552 0.00252892 -0.0201522
         vertex 0.0292566 0.00252892 -0.0199498
      endloop
   endfacet
   facet normal -4.33778e-06 -1 1.10184e-06
      outer loop
         vertex -0.0460986 0.00252925 -0.0238632
         vertex -0.0459323 0.00252925 -0.0236264
         vertex -0.0484572 0.00252926 -0.021943
      endloop
   endfacet
   facet normal -4.33778e-06 -1 1.10184e-06
      outer loop
         vertex 0.0293544 0.00252892 -0.020226
         vertex 0.0291999 0.00252892 -0.0199896
         vertex 0.0266337 0.00252893 -0.02171
      endloop
   endfacet
   facet normal -4.33778e-06 -1 1.10184e-06
      outer loop
         vertex 0.0291999 0.00252892 -0.0199896
         vertex 0.0293544 0.00252892 -0.020226
         vertex 0.0293837 0.00252892 -0.0202069
      endloop
   endfacet
   facet normal -4.33778e-06 -1 1.10184e-06
      outer loop
         vertex -0.0484572 0.00252926 -0.021943
         vertex -0.0486236 0.00252925 -0.0221798
         vertex -0.0460986 0.00252925 -0.0238632
      endloop
   endfacet
   facet normal -4.33778e-06 -1 1.10184e-06
      outer loop
         vertex -0.0460144 0.00252925 -0.0239131
         vertex -0.0458731 0.00252925 -0.0236608
         vertex -0.0459323 0.00252925 -0.0236264
      endloop
   endfacet
   facet normal -4.33778e-06 -1 1.10184e-06
      outer loop
         vertex 0.0267875 0.00252893 -0.0219469
         vertex 0.0266337 0.00252893 -0.02171
         vertex 0.0266168 0.00252893 -0.0217202
      endloop
   endfacet
   facet normal -4.33778e-06 -1 1.10184e-06
      outer loop
         vertex 0.0292566 0.00252892 -0.0199498
         vertex 0.0291999 0.00252892 -0.0199896
         vertex 0.0293837 0.00252892 -0.0202069
      endloop
   endfacet
   facet normal -4.33778e-06 -1 1.10184e-06
      outer loop
         vertex -0.0486613 0.00252926 -0.022152
         vertex -0.0486236 0.00252925 -0.0221798
         vertex -0.0484643 0.00252926 -0.021938
      endloop
   endfacet
   facet normal -4.33778e-06 -1 1.10184e-06
      outer loop
         vertex -0.0459323 0.00252925 -0.0236264
         vertex -0.0460986 0.00252925 -0.0238632
         vertex -0.0460144 0.00252925 -0.0239131
      endloop
   endfacet
   facet normal -4.33778e-06 -1 1.10184e-06
      outer loop
         vertex 0.0266337 0.00252893 -0.02171
         vertex 0.0267875 0.00252893 -0.0219469
         vertex 0.0293544 0.00252892 -0.020226
      endloop
   endfacet
   facet normal -4.33778e-06 -1 1.10184e-06
      outer loop
         vertex -0.0484572 0.00252926 -0.021943
         vertex -0.0484643 0.00252926 -0.021938
         vertex -0.0486236 0.00252925 -0.0221798
      endloop
   endfacet
   facet normal -4.33778e-06 -1 1.10184e-06
      outer loop
         vertex -0.0459258 0.00252925 -0.0239546
         vertex -0.045811 0.00252925 -0.0236896
         vertex -0.0458731 0.00252925 -0.0236608
      endloop
   endfacet
   facet normal -4.33778e-06 -1 1.10184e-06
      outer loop
         vertex -0.0455442 0.00252924 -0.0240311
         vertex -0.0279308 0.00252917 -0.0240311
         vertex -0.0279308 0.00252917 -0.0237439
      endloop
   endfacet
   facet normal -4.33778e-06 -1 1.10184e-06
      outer loop
         vertex -0.0279308 0.00252917 -0.0237439
         vertex -0.0279308 0.00252917 -0.0240311
         vertex -0.0278682 0.00252917 -0.0240291
      endloop
   endfacet
   facet normal -4.33778e-06 -1 1.10184e-06
      outer loop
         vertex -0.0276294 0.00252917 -0.0236863
         vertex -0.0274192 0.00252917 -0.0239263
         vertex -0.0269143 0.00252916 -0.0237856
      endloop
   endfacet
   facet normal -4.33778e-06 -1 1.10184e-06
      outer loop
         vertex 0.0294552 0.00252892 -0.0201522
         vertex 0.0292857 0.00252892 -0.0199259
         vertex 0.0292566 0.00252892 -0.0199498
      endloop
   endfacet
   facet normal -4.33778e-06 -1 1.10184e-06
      outer loop
         vertex 0.0295027 0.00252892 -0.0201079
         vertex 0.0293021 0.00252892 -0.0199096
         vertex 0.0292857 0.00252892 -0.0199259
      endloop
   endfacet
   facet normal -4.33778e-06 -1 1.10184e-06
      outer loop
         vertex -0.0458731 0.00252925 -0.0236608
         vertex -0.0460144 0.00252925 -0.0239131
         vertex -0.0459258 0.00252925 -0.0239546
      endloop
   endfacet
   facet normal -4.33778e-06 -1 1.10184e-06
      outer loop
         vertex -0.0458336 0.00252925 -0.0239874
         vertex -0.0457465 0.00252925 -0.0237124
         vertex -0.045811 0.00252925 -0.0236896
      endloop
   endfacet
   facet normal -4.33778e-06 -1 1.10184e-06
      outer loop
         vertex -0.045642 0.00252924 -0.0240259
         vertex -0.0455442 0.00252924 -0.0240311
         vertex -0.0455442 0.00252924 -0.0237439
      endloop
   endfacet
   facet normal -4.33778e-06 -1 1.10184e-06
      outer loop
         vertex -0.0278682 0.00252917 -0.0240291
         vertex -0.0278625 0.00252917 -0.0237406
         vertex -0.0279308 0.00252917 -0.0237439
      endloop
   endfacet
   facet normal -4.33778e-06 -1 1.10184e-06
      outer loop
         vertex -0.0277907 0.00252917 -0.0237295
         vertex -0.0277714 0.00252917 -0.0240182
         vertex -0.0276717 0.00252917 -0.0239968
      endloop
   endfacet
   facet normal -4.33778e-06 -1 1.10184e-06
      outer loop
         vertex -0.0276294 0.00252917 -0.0236863
         vertex -0.0276717 0.00252917 -0.0239968
         vertex -0.0274192 0.00252917 -0.0239263
      endloop
   endfacet
   facet normal -4.33778e-06 -1 1.10184e-06
      outer loop
         vertex 0.0292857 0.00252892 -0.0199259
         vertex 0.0294552 0.00252892 -0.0201522
         vertex 0.0295027 0.00252892 -0.0201079
      endloop
   endfacet
   facet normal -4.33778e-06 -1 1.10184e-06
      outer loop
         vertex 0.029536 0.00252892 -0.0200696
         vertex 0.0293153 0.00252892 -0.0198937
         vertex 0.0293021 0.00252892 -0.0199096
      endloop
   endfacet
   facet normal -4.33778e-06 -1 1.10184e-06
      outer loop
         vertex -0.045811 0.00252925 -0.0236896
         vertex -0.0459258 0.00252925 -0.0239546
         vertex -0.0458336 0.00252925 -0.0239874
      endloop
   endfacet
   facet normal -4.33778e-06 -1 1.10184e-06
      outer loop
         vertex -0.0457387 0.00252925 -0.0240113
         vertex -0.0456802 0.00252925 -0.0237292
         vertex -0.0457465 0.00252925 -0.0237124
      endloop
   endfacet
   facet normal -4.33778e-06 -1 1.10184e-06
      outer loop
         vertex -0.0457387 0.00252925 -0.0240113
         vertex -0.045642 0.00252924 -0.0240259
         vertex -0.0456126 0.00252924 -0.0237397
      endloop
   endfacet
   facet normal -4.33778e-06 -1 1.10184e-06
      outer loop
         vertex -0.0279308 0.00252917 -0.0237439
         vertex -0.0455442 0.00252924 -0.0237439
         vertex -0.0455442 0.00252924 -0.0240311
      endloop
   endfacet
   facet normal -4.33778e-06 -1 1.10184e-06
      outer loop
         vertex -0.0179872 0.00252913 -0.0220912
         vertex -0.0151186 0.00252911 -0.0220311
         vertex -0.0158588 0.00252912 -0.0217409
      endloop
   endfacet
   facet normal -4.33778e-06 -1 1.10184e-06
      outer loop
         vertex -0.0234509 0.00252915 -0.0228876
         vertex -0.0235629 0.00252915 -0.0226179
         vertex -0.0266443 0.00252916 -0.0234116
      endloop
   endfacet
   facet normal -4.33778e-06 -1 1.10184e-06
      outer loop
         vertex -0.0269143 0.00252916 -0.0237856
         vertex -0.0266443 0.00252916 -0.0234116
         vertex -0.0276294 0.00252917 -0.0236863
      endloop
   endfacet
   facet normal -4.33778e-06 -1 1.10184e-06
      outer loop
         vertex 0.0293021 0.00252892 -0.0199096
         vertex 0.0295027 0.00252892 -0.0201079
         vertex 0.029536 0.00252892 -0.0200696
      endloop
   endfacet
   facet normal -4.33778e-06 -1 1.10184e-06
      outer loop
         vertex 0.0295657 0.00252892 -0.0200271
         vertex 0.0293259 0.00252892 -0.0198782
         vertex 0.0293153 0.00252892 -0.0198937
      endloop
   endfacet
   facet normal -4.33778e-06 -1 1.10184e-06
      outer loop
         vertex -0.0457465 0.00252925 -0.0237124
         vertex -0.0458336 0.00252925 -0.0239874
         vertex -0.0457387 0.00252925 -0.0240113
      endloop
   endfacet
   facet normal -4.33778e-06 -1 1.10184e-06
      outer loop
         vertex -0.0455442 0.00252924 -0.0237439
         vertex -0.0456126 0.00252924 -0.0237397
         vertex -0.045642 0.00252924 -0.0240259
      endloop
   endfacet
   facet normal -4.33778e-06 -1 1.10184e-06
      outer loop
         vertex -0.0151186 0.00252911 -0.0217439
         vertex -0.0151186 0.00252911 -0.0220311
         vertex 0.0265098 0.00252893 -0.0220311
      endloop
   endfacet
   facet normal -4.33778e-06 -1 1.10184e-06
      outer loop
         vertex -0.0151186 0.00252911 -0.0220311
         vertex -0.0151186 0.00252911 -0.0217439
         vertex -0.0158588 0.00252912 -0.0217409
      endloop
   endfacet
   facet normal -4.33778e-06 -1 1.10184e-06
      outer loop
         vertex -0.0234509 0.00252915 -0.0228876
         vertex -0.0203953 0.00252914 -0.0223369
         vertex -0.0208115 0.00252914 -0.0221087
      endloop
   endfacet
   facet normal -4.33778e-06 -1 1.10184e-06
      outer loop
         vertex -0.0276717 0.00252917 -0.0239968
         vertex -0.0276294 0.00252917 -0.0236863
         vertex -0.0277907 0.00252917 -0.0237295
      endloop
   endfacet
   facet normal -4.33778e-06 -1 1.10184e-06
      outer loop
         vertex 0.0266549 0.00252893 -0.0220096
         vertex 0.0265806 0.00252893 -0.0217352
         vertex 0.0265615 0.00252893 -0.02174
      endloop
   endfacet
   facet normal -4.33778e-06 -1 1.10184e-06
      outer loop
         vertex 0.026701 0.00252893 -0.0219931
         vertex 0.0265991 0.00252893 -0.0217286
         vertex 0.0265806 0.00252893 -0.0217352
      endloop
   endfacet
   facet normal -4.33778e-06 -1 1.10184e-06
      outer loop
         vertex 0.0267454 0.00252893 -0.0219721
         vertex 0.0266168 0.00252893 -0.0217202
         vertex 0.0265991 0.00252893 -0.0217286
      endloop
   endfacet
   facet normal -4.33778e-06 -1 1.10184e-06
      outer loop
         vertex 0.0293153 0.00252892 -0.0198937
         vertex 0.029536 0.00252892 -0.0200696
         vertex 0.0295657 0.00252892 -0.0200271
      endloop
   endfacet
   facet normal -4.33778e-06 -1 1.10184e-06
      outer loop
         vertex -0.0488467 0.00252926 -0.0217627
         vertex -0.0485468 0.00252926 -0.0217762
         vertex -0.0485468 0.00252926 -0.0187063
      endloop
   endfacet
   facet normal -4.33778e-06 -1 1.10184e-06
      outer loop
         vertex -0.0488445 0.00252926 -0.0218095
         vertex -0.0485465 0.00252926 -0.0217861
         vertex -0.0485468 0.00252926 -0.0217762
      endloop
   endfacet
   facet normal -4.33778e-06 -1 1.10184e-06
      outer loop
         vertex -0.0488255 0.00252926 -0.0219073
         vertex -0.0488088 0.00252926 -0.0219542
         vertex -0.0485348 0.00252926 -0.0218443
      endloop
   endfacet
   facet normal -4.33778e-06 -1 1.10184e-06
      outer loop
         vertex -0.0488088 0.00252926 -0.0219542
         vertex -0.0487875 0.00252926 -0.0219993
         vertex -0.0485272 0.00252926 -0.0218626
      endloop
   endfacet
   facet normal -4.33778e-06 -1 1.10184e-06
      outer loop
         vertex -0.0486984 0.00252926 -0.0221188
         vertex -0.0486613 0.00252926 -0.022152
         vertex -0.0484798 0.00252926 -0.0219256
      endloop
   endfacet
   facet normal -4.33778e-06 -1 1.10184e-06
      outer loop
         vertex -0.0456126 0.00252924 -0.0237397
         vertex -0.0456802 0.00252925 -0.0237292
         vertex -0.0457387 0.00252925 -0.0240113
      endloop
   endfacet
   facet normal -4.33778e-06 -1 1.10184e-06
      outer loop
         vertex -0.0158588 0.00252912 -0.0217409
         vertex -0.0184214 0.00252913 -0.0218303
         vertex -0.0179872 0.00252913 -0.0220912
      endloop
   endfacet
   facet normal -4.33778e-06 -1 1.10184e-06
      outer loop
         vertex 0.0265588 0.00252893 -0.0220287
         vertex 0.026542 0.00252893 -0.0217429
         vertex 0.0265224 0.00252893 -0.0217439
      endloop
   endfacet
   facet normal -4.33778e-06 -1 1.10184e-06
      outer loop
         vertex -0.0184214 0.00252913 -0.0218303
         vertex -0.0208115 0.00252914 -0.0221087
         vertex -0.0203953 0.00252914 -0.0223369
      endloop
   endfacet
   facet normal -4.33778e-06 -1 1.10184e-06
      outer loop
         vertex -0.0266443 0.00252916 -0.0234116
         vertex -0.0269143 0.00252916 -0.0237856
         vertex -0.0234509 0.00252915 -0.0228876
      endloop
   endfacet
   facet normal -4.33778e-06 -1 1.10184e-06
      outer loop
         vertex 0.0265806 0.00252893 -0.0217352
         vertex 0.0266549 0.00252893 -0.0220096
         vertex 0.026701 0.00252893 -0.0219931
      endloop
   endfacet
   facet normal -4.33778e-06 -1 1.10184e-06
      outer loop
         vertex 0.0266168 0.00252893 -0.0217202
         vertex 0.0267454 0.00252893 -0.0219721
         vertex 0.0267875 0.00252893 -0.0219469
      endloop
   endfacet
   facet normal -4.33778e-06 -1 1.10184e-06
      outer loop
         vertex 0.029644 0.00252892 -0.0197594
         vertex 0.029645 0.00252892 -0.0196808
         vertex 0.0293579 0.00252892 -0.0196932
      endloop
   endfacet
   facet normal -4.33778e-06 -1 1.10184e-06
      outer loop
         vertex 0.0293579 0.00252894 -0.00748428
         vertex 0.0293579 0.00252892 -0.0196932
         vertex 0.029645 0.00252892 -0.0196808
      endloop
   endfacet
   facet normal -4.33778e-06 -1 1.10184e-06
      outer loop
         vertex -0.0485468 0.00252926 -0.0217762
         vertex -0.0488467 0.00252926 -0.0217627
         vertex -0.0488445 0.00252926 -0.0218095
      endloop
   endfacet
   facet normal -4.33778e-06 -1 1.10184e-06
      outer loop
         vertex -0.0488445 0.00252926 -0.0218095
         vertex -0.0488374 0.00252926 -0.0218589
         vertex -0.0485446 0.00252926 -0.0218058
      endloop
   endfacet
   facet normal -4.33778e-06 -1 1.10184e-06
      outer loop
         vertex -0.0488374 0.00252926 -0.0218589
         vertex -0.0488255 0.00252926 -0.0219073
         vertex -0.0485407 0.00252926 -0.0218253
      endloop
   endfacet
   facet normal -4.33778e-06 -1 1.10184e-06
      outer loop
         vertex -0.0485272 0.00252926 -0.0218626
         vertex -0.0485348 0.00252926 -0.0218443
         vertex -0.0488088 0.00252926 -0.0219542
      endloop
   endfacet
   facet normal -4.33778e-06 -1 1.10184e-06
      outer loop
         vertex -0.0487875 0.00252926 -0.0219993
         vertex -0.0487618 0.00252926 -0.022042
         vertex -0.0485177 0.00252926 -0.02188
      endloop
   endfacet
   facet normal -4.33778e-06 -1 1.10184e-06
      outer loop
         vertex -0.0487618 0.00252926 -0.022042
         vertex -0.048732 0.00252926 -0.022082
         vertex -0.0485066 0.00252926 -0.0218964
      endloop
   endfacet
   facet normal -4.33778e-06 -1 1.10184e-06
      outer loop
         vertex -0.048732 0.00252926 -0.022082
         vertex -0.0486984 0.00252926 -0.0221188
         vertex -0.0484939 0.00252926 -0.0219117
      endloop
   endfacet
   facet normal -4.33778e-06 -1 1.10184e-06
      outer loop
         vertex -0.0484643 0.00252926 -0.021938
         vertex -0.0484798 0.00252926 -0.0219256
         vertex -0.0486613 0.00252926 -0.022152
      endloop
   endfacet
   facet normal -4.33778e-06 -1 1.10184e-06
      outer loop
         vertex 0.0265224 0.00252893 -0.0217439
         vertex 0.0265098 0.00252893 -0.0220311
         vertex 0.0265588 0.00252893 -0.0220287
      endloop
   endfacet
   facet normal -4.33778e-06 -1 1.10184e-06
      outer loop
         vertex -0.0208115 0.00252914 -0.0221087
         vertex -0.0235629 0.00252915 -0.0226179
         vertex -0.0234509 0.00252915 -0.0228876
      endloop
   endfacet
   facet normal -4.33778e-06 -1 1.10184e-06
      outer loop
         vertex 0.0266073 0.00252893 -0.0220215
         vertex 0.0265615 0.00252893 -0.02174
         vertex 0.026542 0.00252893 -0.0217429
      endloop
   endfacet
   facet normal -4.33778e-06 -1 1.10184e-06
      outer loop
         vertex 0.0265991 0.00252893 -0.0217286
         vertex 0.026701 0.00252893 -0.0219931
         vertex 0.0267454 0.00252893 -0.0219721
      endloop
   endfacet
   facet normal -4.33778e-06 -1 1.10184e-06
      outer loop
         vertex 0.0296104 0.00252892 -0.0199358
         vertex 0.0296246 0.00252892 -0.0198906
         vertex 0.0293477 0.00252892 -0.0198257
      endloop
   endfacet
   facet normal -4.33778e-06 -1 1.10184e-06
      outer loop
         vertex 0.0296246 0.00252892 -0.0198906
         vertex 0.0296352 0.00252892 -0.01984
         vertex 0.029352 0.00252892 -0.0198043
      endloop
   endfacet
   facet normal -4.33778e-06 -1 1.10184e-06
      outer loop
         vertex 0.0296352 0.00252892 -0.01984
         vertex 0.029644 0.00252892 -0.0197594
         vertex 0.0293562 0.00252892 -0.0197657
      endloop
   endfacet
   facet normal -4.33778e-06 -1 1.10184e-06
      outer loop
         vertex 0.029645 0.00252892 -0.0196808
         vertex 0.029645 0.00252894 -0.00748428
         vertex 0.0293579 0.00252894 -0.00748428
      endloop
   endfacet
   facet normal -4.33778e-06 -1 1.10184e-06
      outer loop
         vertex -0.0485446 0.00252926 -0.0218058
         vertex -0.0485465 0.00252926 -0.0217861
         vertex -0.0488445 0.00252926 -0.0218095
      endloop
   endfacet
   facet normal -4.33778e-06 -1 1.10184e-06
      outer loop
         vertex -0.0485348 0.00252926 -0.0218443
         vertex -0.0485407 0.00252926 -0.0218253
         vertex -0.0488255 0.00252926 -0.0219073
      endloop
   endfacet
   facet normal -4.33778e-06 -1 1.10184e-06
      outer loop
         vertex -0.0485066 0.00252926 -0.0218964
         vertex -0.0485177 0.00252926 -0.02188
         vertex -0.0487618 0.00252926 -0.022042
      endloop
   endfacet
   facet normal -4.33778e-06 -1 1.10184e-06
      outer loop
         vertex -0.0484798 0.00252926 -0.0219256
         vertex -0.0484939 0.00252926 -0.0219117
         vertex -0.0486984 0.00252926 -0.0221188
      endloop
   endfacet
   facet normal -4.33778e-06 -1 1.10184e-06
      outer loop
         vertex -0.0203953 0.00252914 -0.0223369
         vertex -0.0179872 0.00252913 -0.0220912
         vertex -0.0184214 0.00252913 -0.0218303
      endloop
   endfacet
   facet normal -4.33778e-06 -1 1.10184e-06
      outer loop
         vertex 0.0265615 0.00252893 -0.02174
         vertex 0.0266073 0.00252893 -0.0220215
         vertex 0.0266549 0.00252893 -0.0220096
      endloop
   endfacet
   facet normal -4.33778e-06 -1 1.10184e-06
      outer loop
         vertex 0.029352 0.00252892 -0.0198043
         vertex 0.0293477 0.00252892 -0.0198257
         vertex 0.0296246 0.00252892 -0.0198906
      endloop
   endfacet
   facet normal -4.33778e-06 -1 1.10184e-06
      outer loop
         vertex 0.0293579 0.00252892 -0.0196932
         vertex 0.0293562 0.00252892 -0.0197657
         vertex 0.029644 0.00252892 -0.0197594
      endloop
   endfacet
   facet normal -4.33778e-06 -1 1.10184e-06
      outer loop
         vertex -0.0485407 0.00252926 -0.0218253
         vertex -0.0485446 0.00252926 -0.0218058
         vertex -0.0488374 0.00252926 -0.0218589
      endloop
   endfacet
   facet normal -4.33778e-06 -1 1.10184e-06
      outer loop
         vertex -0.0484939 0.00252926 -0.0219117
         vertex -0.0485066 0.00252926 -0.0218964
         vertex -0.048732 0.00252926 -0.022082
      endloop
   endfacet
   facet normal -4.33778e-06 -1 1.10184e-06
      outer loop
         vertex 0.026542 0.00252893 -0.0217429
         vertex 0.0265588 0.00252893 -0.0220287
         vertex 0.0266073 0.00252893 -0.0220215
      endloop
   endfacet
   facet normal -4.33778e-06 -1 1.10184e-06
      outer loop
         vertex 0.0295909 0.00252892 -0.0199816
         vertex 0.0293348 0.00252892 -0.0198617
         vertex 0.0293259 0.00252892 -0.0198782
      endloop
   endfacet
   facet normal -4.33778e-06 -1 1.10184e-06
      outer loop
         vertex 0.0295909 0.00252892 -0.0199816
         vertex 0.0296104 0.00252892 -0.0199358
         vertex 0.0293419 0.00252892 -0.0198445
      endloop
   endfacet
   facet normal -4.33778e-06 -1 1.10184e-06
      outer loop
         vertex 0.0293562 0.00252892 -0.0197657
         vertex 0.029352 0.00252892 -0.0198043
         vertex 0.0296352 0.00252892 -0.01984
      endloop
   endfacet
   facet normal -4.33778e-06 -1 1.10184e-06
      outer loop
         vertex -0.0485177 0.00252926 -0.02188
         vertex -0.0485272 0.00252926 -0.0218626
         vertex -0.0487875 0.00252926 -0.0219993
      endloop
   endfacet
   facet normal -4.33778e-06 -1 1.10184e-06
      outer loop
         vertex -0.0277714 0.00252917 -0.0240182
         vertex -0.0277907 0.00252917 -0.0237295
         vertex -0.0278625 0.00252917 -0.0237406
      endloop
   endfacet
   facet normal -4.33778e-06 -1 1.10184e-06
      outer loop
         vertex 0.0293259 0.00252892 -0.0198782
         vertex 0.0295657 0.00252892 -0.0200271
         vertex 0.0295909 0.00252892 -0.0199816
      endloop
   endfacet
   facet normal -4.33778e-06 -1 1.10184e-06
      outer loop
         vertex 0.0293477 0.00252892 -0.0198257
         vertex 0.0293419 0.00252892 -0.0198445
         vertex 0.0296104 0.00252892 -0.0199358
      endloop
   endfacet
   facet normal -4.33778e-06 -1 1.10184e-06
      outer loop
         vertex -0.0485468 0.00252926 -0.0187063
         vertex -0.0480511 0.00252926 -0.0161381
         vertex -0.0483535 0.00252927 -0.0161212
      endloop
   endfacet
   facet normal -4.33778e-06 -1 1.10184e-06
      outer loop
         vertex -0.0278625 0.00252917 -0.0237406
         vertex -0.0278682 0.00252917 -0.0240291
         vertex -0.0277714 0.00252917 -0.0240182
      endloop
   endfacet
   facet normal -4.33778e-06 -1 1.10184e-06
      outer loop
         vertex 0.0293419 0.00252892 -0.0198445
         vertex 0.0293348 0.00252892 -0.0198617
         vertex 0.0295909 0.00252892 -0.0199816
      endloop
   endfacet
   facet normal -4.33778e-06 -1 1.10184e-06
      outer loop
         vertex -0.0483535 0.00252927 -0.0161212
         vertex -0.0488468 0.00252926 -0.0186795
         vertex -0.0485468 0.00252926 -0.0187063
      endloop
   endfacet
   facet normal -4.33778e-06 -1 1.10184e-06
      outer loop
         vertex 0.0265098 0.00252893 -0.0220311
         vertex 0.0265224 0.00252893 -0.0217439
         vertex -0.0151186 0.00252911 -0.0217439
      endloop
   endfacet
   facet normal -4.33778e-06 -1 1.10184e-06
      outer loop
         vertex -0.0485468 0.00252926 -0.0187063
         vertex -0.0488468 0.00252926 -0.0186795
         vertex -0.0488467 0.00252926 -0.0217627
      endloop
   endfacet
   facet normal -4.33778e-06 -1 1.10184e-06
      outer loop
         vertex -0.0480511 0.00252926 -0.0161381
         vertex -0.0480511 0.00252926 -0.016108
         vertex -0.0483535 0.00252927 -0.0161212
      endloop
   endfacet
   facet normal -0.99877 4.2778e-06 -0.0495902
      outer loop
         vertex -0.0485465 0.00222926 -0.0217861
         vertex -0.0485465 0.00252926 -0.0217861
         vertex -0.0485446 0.00252926 -0.0218058
      endloop
   endfacet
   facet normal -0.988945 4.12644e-06 -0.148283
      outer loop
         vertex -0.0485446 0.00222926 -0.0218058
         vertex -0.0485446 0.00252926 -0.0218058
         vertex -0.0485407 0.00252926 -0.0218253
      endloop
   endfacet
   facet normal -0.969392 3.93449e-06 -0.245517
      outer loop
         vertex -0.0485407 0.00222926 -0.0218253
         vertex -0.0485407 0.00252926 -0.0218253
         vertex -0.0485348 0.00252926 -0.0218443
      endloop
   endfacet
   facet normal -0.940304 3.70383e-06 -0.340335
      outer loop
         vertex -0.0485348 0.00222926 -0.0218443
         vertex -0.0485348 0.00252926 -0.0218443
         vertex -0.0485272 0.00252926 -0.0218626
      endloop
   endfacet
   facet normal -0.901966 3.43675e-06 -0.431807
      outer loop
         vertex -0.0485272 0.00222926 -0.0218626
         vertex -0.0485272 0.00252926 -0.0218626
         vertex -0.0485177 0.00252926 -0.02188
      endloop
   endfacet
   facet normal -0.854756 3.13585e-06 -0.51903
      outer loop
         vertex -0.0485177 0.00222926 -0.02188
         vertex -0.0485177 0.00252926 -0.02188
         vertex -0.0485066 0.00252926 -0.0218964
      endloop
   endfacet
   facet normal -0.799138 2.80411e-06 -0.601148
      outer loop
         vertex -0.0485066 0.00222926 -0.0218964
         vertex -0.0485066 0.00252926 -0.0218964
         vertex -0.0484939 0.00252926 -0.0219117
      endloop
   endfacet
   facet normal -0.735659 2.44479e-06 -0.677353
      outer loop
         vertex -0.0484939 0.00222926 -0.0219117
         vertex -0.0484939 0.00252926 -0.0219117
         vertex -0.0484798 0.00252926 -0.0219256
      endloop
   endfacet
   facet normal -0.664943 2.06141e-06 -0.746894
      outer loop
         vertex -0.0484798 0.00222926 -0.0219256
         vertex -0.0484798 0.00252926 -0.0219256
         vertex -0.0484643 0.00252926 -0.021938
      endloop
   endfacet
   facet normal -0.99877 4.2778e-06 -0.0495902
      outer loop
         vertex -0.0485465 0.00222926 -0.0217861
         vertex -0.0485468 0.00222926 -0.0217762
         vertex -0.0485468 0.00252926 -0.0217762
      endloop
   endfacet
   facet normal -0.587686 1.65776e-06 -0.809089
      outer loop
         vertex -0.0484643 0.00252926 -0.021938
         vertex -0.0484572 0.00252926 -0.021943
         vertex -0.0484576 0.00222926 -0.0219428
      endloop
   endfacet
   facet normal -0.55399 1.48577e-06 -0.832524
      outer loop
         vertex -0.0484576 0.00222926 -0.0219428
         vertex -0.0484643 0.00222926 -0.021938
         vertex -0.0484643 0.00252926 -0.021938
      endloop
   endfacet
   facet normal -1 4.33778e-06 -4.75303e-12
      outer loop
         vertex -0.0485468 0.00252926 -0.0217762
         vertex -0.0485465 0.00252926 -0.0217861
         vertex -0.0485465 0.00222926 -0.0217861
      endloop
   endfacet
   facet normal -0.587686 1.65776e-06 -0.809089
      outer loop
         vertex -0.0484643 0.00252926 -0.021938
         vertex -0.0484643 0.00222926 -0.021938
         vertex -0.0484798 0.00222926 -0.0219256
      endloop
   endfacet
   facet normal -0.664943 2.06141e-06 -0.746894
      outer loop
         vertex -0.0484798 0.00252926 -0.0219256
         vertex -0.0484798 0.00222926 -0.0219256
         vertex -0.0484939 0.00222926 -0.0219117
      endloop
   endfacet
   facet normal -0.735659 2.44479e-06 -0.677353
      outer loop
         vertex -0.0484939 0.00252926 -0.0219117
         vertex -0.0484939 0.00222926 -0.0219117
         vertex -0.0485066 0.00222926 -0.0218964
      endloop
   endfacet
   facet normal -0.799138 2.80411e-06 -0.601148
      outer loop
         vertex -0.0485066 0.00252926 -0.0218964
         vertex -0.0485066 0.00222926 -0.0218964
         vertex -0.0485177 0.00222926 -0.02188
      endloop
   endfacet
   facet normal -0.854756 3.13585e-06 -0.51903
      outer loop
         vertex -0.0485177 0.00252926 -0.02188
         vertex -0.0485177 0.00222926 -0.02188
         vertex -0.0485272 0.00222926 -0.0218626
      endloop
   endfacet
   facet normal -0.901966 3.43675e-06 -0.431807
      outer loop
         vertex -0.0485272 0.00252926 -0.0218626
         vertex -0.0485272 0.00222926 -0.0218626
         vertex -0.0485348 0.00222926 -0.0218443
      endloop
   endfacet
   facet normal -0.940304 3.70383e-06 -0.340335
      outer loop
         vertex -0.0485348 0.00252926 -0.0218443
         vertex -0.0485348 0.00222926 -0.0218443
         vertex -0.0485407 0.00222926 -0.0218253
      endloop
   endfacet
   facet normal -0.969392 3.93449e-06 -0.245517
      outer loop
         vertex -0.0485407 0.00252926 -0.0218253
         vertex -0.0485407 0.00222926 -0.0218253
         vertex -0.0485446 0.00222926 -0.0218058
      endloop
   endfacet
   facet normal -0.988945 4.12644e-06 -0.148283
      outer loop
         vertex -0.0485446 0.00252926 -0.0218058
         vertex -0.0485446 0.00222926 -0.0218058
         vertex -0.0485465 0.00222926 -0.0217861
      endloop
   endfacet
   facet normal -1 4.33778e-06 -4.77955e-12
      outer loop
         vertex -0.0485468 0.00222926 -0.0217762
         vertex -0.0485468 0.00222926 -0.0187063
         vertex -0.0485468 0.00252926 -0.0187063
      endloop
   endfacet
   facet normal -1 4.33778e-06 -4.77955e-12
      outer loop
         vertex -0.0485468 0.00252926 -0.0187063
         vertex -0.0485468 0.00252926 -0.0217762
         vertex -0.0485468 0.00222926 -0.0217762
      endloop
   endfacet
   facet normal -0.981882 4.46798e-06 0.189491
      outer loop
         vertex -0.0480511 0.00252926 -0.0161381
         vertex -0.0485468 0.00252926 -0.0187063
         vertex -0.0485468 0.00222926 -0.0187063
      endloop
   endfacet
   facet normal -0.981882 4.46798e-06 0.189491
      outer loop
         vertex -0.0485468 0.00222926 -0.0187063
         vertex -0.0480511 0.00222926 -0.0161381
         vertex -0.0480511 0.00252926 -0.0161381
      endloop
   endfacet
   facet normal -1 4.33778e-06 -4.77955e-12
      outer loop
         vertex -0.0480511 0.00222926 -0.0161381
         vertex -0.0480511 0.00222926 -0.016108
         vertex -0.0480511 0.00252926 -0.016108
      endloop
   endfacet
   facet normal -1 4.33778e-06 -4.77955e-12
      outer loop
         vertex -0.0480511 0.00252926 -0.016108
         vertex -0.0480511 0.00252926 -0.0161381
         vertex -0.0480511 0.00222926 -0.0161381
      endloop
   endfacet
   facet normal -0.5547 1.48938e-06 -0.83205
      outer loop
         vertex -0.0459323 0.00222925 -0.0236264
         vertex -0.0484576 0.00222926 -0.0219428
         vertex -0.0484572 0.00252926 -0.021943
      endloop
   endfacet
   facet normal -0.5547 1.48938e-06 -0.83205
      outer loop
         vertex -0.0484572 0.00252926 -0.021943
         vertex -0.0459323 0.00252925 -0.0236264
         vertex -0.0459323 0.00222925 -0.0236264
      endloop
   endfacet
   facet normal -0.0436191 0.00015226 0.999048
      outer loop
         vertex -0.0480511 0.00252926 -0.016108
         vertex -0.0473749 0.0200995 -0.0160812
         vertex -0.0483546 0.0133969 -0.0161229
      endloop
   endfacet
   facet normal -0.0436191 0.00015226 0.999048
      outer loop
         vertex -0.0473749 0.0200995 -0.0160812
         vertex -0.0483548 0.0154669 -0.0161232
         vertex -0.0483546 0.0133969 -0.0161229
      endloop
   endfacet
   facet normal -0.0436191 0.00015226 0.999048
      outer loop
         vertex -0.0473749 0.0200995 -0.0160812
         vertex -0.0483554 0.0201029 -0.016124
         vertex -0.0483553 0.0189262 -0.0161238
      endloop
   endfacet
   facet normal -0.0436191 0.00015226 0.999048
      outer loop
         vertex -0.0474372 0.00222926 -0.0160812
         vertex -0.0473749 0.0200995 -0.0160812
         vertex -0.0480511 0.00252926 -0.016108
      endloop
   endfacet
   facet normal -0.0436191 0.00015226 0.999048
      outer loop
         vertex -0.0483553 0.0189262 -0.0161238
         vertex -0.0483548 0.0154669 -0.0161232
         vertex -0.0473749 0.0200995 -0.0160812
      endloop
   endfacet
   facet normal -0.0436191 0.00015226 0.999048
      outer loop
         vertex -0.0483546 0.0133969 -0.0161229
         vertex -0.0483535 0.00252927 -0.0161212
         vertex -0.0480511 0.00252926 -0.016108
      endloop
   endfacet
   facet normal -0.0436191 0.00015226 0.999048
      outer loop
         vertex -0.0480511 0.00252926 -0.016108
         vertex -0.0480511 0.00222926 -0.016108
         vertex -0.0474372 0.00222926 -0.0160812
      endloop
   endfacet
   facet normal -0.967856 -0.243153 0.0642807
      outer loop
         vertex -0.0488468 0.0242283 -0.0153175
         vertex -0.0483576 0.0224507 -0.0146543
         vertex -0.0483577 0.0224855 -0.0145433
      endloop
   endfacet
   facet normal -0.967856 -0.243153 0.0642807
      outer loop
         vertex -0.0488468 0.0242283 -0.0153175
         vertex -0.0488468 0.0240826 -0.015776
         vertex -0.0483575 0.0223584 -0.0148864
      endloop
   endfacet
   facet normal -0.969843 -0.221829 0.10098
      outer loop
         vertex -0.0483575 0.0223584 -0.0148864
         vertex -0.0483576 0.0224223 -0.0147257
         vertex -0.0488468 0.0242283 -0.0153175
      endloop
   endfacet
   facet normal -0.969 -0.231517 0.0862542
      outer loop
         vertex -0.0483576 0.0224223 -0.0147257
         vertex -0.0483576 0.0224507 -0.0146543
         vertex -0.0488468 0.0242283 -0.0153175
      endloop
   endfacet
   facet normal -0.969074 -0.231089 0.0865664
      outer loop
         vertex -0.0488468 0.0240826 -0.015776
         vertex -0.0488468 0.023923 -0.0161481
         vertex -0.0483573 0.0223041 -0.0149898
      endloop
   endfacet
   facet normal -0.970424 -0.214402 0.110948
      outer loop
         vertex -0.0483573 0.0223041 -0.0149898
         vertex -0.0483575 0.0223565 -0.0148899
         vertex -0.0488468 0.0240826 -0.015776
      endloop
   endfacet
   facet normal -0.969863 -0.221584 0.101324
      outer loop
         vertex -0.0483575 0.0223565 -0.0148899
         vertex -0.0483575 0.0223584 -0.0148864
         vertex -0.0488468 0.0240826 -0.015776
      endloop
   endfacet
   facet normal -0.970181 -0.218202 0.105536
      outer loop
         vertex -0.0488468 0.023923 -0.0161481
         vertex -0.0483572 0.0222476 -0.0150974
         vertex -0.0483573 0.0222802 -0.0150353
      endloop
   endfacet
   facet normal -0.971437 -0.199538 0.128435
      outer loop
         vertex -0.0483571 0.0222032 -0.0151682
         vertex -0.0483572 0.0222476 -0.0150974
         vertex -0.0488468 0.023923 -0.0161481
      endloop
   endfacet
   facet normal -0.970212 -0.2178 0.106072
      outer loop
         vertex -0.0488468 0.0239186 -0.0161586
         vertex -0.0483571 0.0221976 -0.015177
         vertex -0.0483571 0.0222032 -0.0151682
      endloop
   endfacet
   facet normal -0.971275 -0.203054 0.124075
      outer loop
         vertex -0.0488468 0.0237354 -0.0164937
         vertex -0.0483568 0.0221076 -0.0152996
         vertex -0.0483571 0.0221976 -0.015177
      endloop
   endfacet
   facet normal -0.971275 -0.203054 0.124075
      outer loop
         vertex -0.0488468 0.0237354 -0.0164937
         vertex -0.0483567 0.0220809 -0.0153361
         vertex -0.0483568 0.0221076 -0.0152996
      endloop
   endfacet
   facet normal -0.971487 -0.198721 0.129318
      outer loop
         vertex -0.0483571 0.0221976 -0.015177
         vertex -0.0488468 0.0239186 -0.0161586
         vertex -0.0488468 0.0237354 -0.0164937
      endloop
   endfacet
   facet normal -0.970181 -0.218202 0.105536
      outer loop
         vertex -0.0488468 0.023923 -0.0161481
         vertex -0.0488468 0.0239186 -0.0161586
         vertex -0.0483571 0.0222032 -0.0151682
      endloop
   endfacet
   facet normal -0.972227 -0.186992 0.140744
      outer loop
         vertex -0.0488468 0.0235357 -0.0167881
         vertex -0.0483566 0.0220232 -0.0154001
         vertex -0.0483567 0.0220809 -0.0153361
      endloop
   endfacet
   facet normal -0.972406 -0.181958 0.146009
      outer loop
         vertex -0.0483567 0.0220809 -0.0153361
         vertex -0.0488468 0.0237354 -0.0164937
         vertex -0.0488468 0.0235357 -0.0167881
      endloop
   endfacet
   facet normal -0.972227 -0.186992 0.140744
      outer loop
         vertex -0.0488468 0.0235357 -0.0167881
         vertex -0.0488468 0.0234503 -0.0168902
         vertex -0.0483566 0.0220232 -0.0154001
      endloop
   endfacet
   facet normal -0.972563 -0.180394 0.146901
      outer loop
         vertex -0.0488468 0.0234503 -0.0168902
         vertex -0.0483565 0.0219506 -0.0154805
         vertex -0.0483565 0.0219561 -0.0154744
      endloop
   endfacet
   facet normal -0.973169 -0.16408 0.161308
      outer loop
         vertex -0.0483565 0.0219561 -0.0154744
         vertex -0.0483566 0.0220069 -0.0154181
         vertex -0.0488468 0.0234503 -0.0168902
      endloop
   endfacet
   facet normal -0.973077 -0.16892 0.156802
      outer loop
         vertex -0.0488468 0.0233088 -0.0170594
         vertex -0.0483564 0.0218471 -0.0155741
         vertex -0.0483565 0.0219506 -0.0154805
      endloop
   endfacet
   facet normal -0.973077 -0.16892 0.156802
      outer loop
         vertex -0.0488468 0.0233088 -0.0170594
         vertex -0.0488468 0.0230555 -0.0173055
         vertex -0.0483563 0.0218052 -0.0156119
      endloop
   endfacet
   facet normal -0.973818 -0.144082 0.175836
      outer loop
         vertex -0.0483563 0.0218052 -0.0156119
         vertex -0.0483564 0.0218471 -0.0155741
         vertex -0.0488468 0.0233088 -0.0170594
      endloop
   endfacet
   facet normal -0.974208 -0.13269 0.182514
      outer loop
         vertex -0.0488468 0.0228118 -0.0174971
         vertex -0.0483563 0.0217322 -0.0156679
         vertex -0.0483563 0.0217413 -0.0156618
      endloop
   endfacet
   facet normal -0.974208 -0.13269 0.182514
      outer loop
         vertex -0.0488468 0.0228118 -0.0174971
         vertex -0.0483561 0.0216467 -0.0157254
         vertex -0.0483563 0.0217322 -0.0156679
      endloop
   endfacet
   facet normal -0.974023 -0.136152 0.180947
      outer loop
         vertex -0.0483563 0.0217413 -0.0156618
         vertex -0.0488468 0.0230555 -0.0173055
         vertex -0.0488468 0.0228118 -0.0174971
      endloop
   endfacet
   facet normal -0.974023 -0.136152 0.180947
      outer loop
         vertex -0.0483563 0.0217413 -0.0156618
         vertex -0.0483563 0.0218052 -0.0156119
         vertex -0.0488468 0.0230555 -0.0173055
      endloop
   endfacet
   facet normal -0.973199 -0.163278 0.161941
      outer loop
         vertex -0.0483565 0.0219506 -0.0154805
         vertex -0.0488468 0.0234503 -0.0168902
         vertex -0.0488468 0.0233088 -0.0170594
      endloop
   endfacet
   facet normal -0.974392 -0.117266 0.191856
      outer loop
         vertex -0.0483561 0.0215821 -0.0157688
         vertex -0.0483561 0.0216087 -0.0157509
         vertex -0.0488468 0.0228118 -0.0174971
      endloop
   endfacet
   facet normal -0.974208 -0.13269 0.182514
      outer loop
         vertex -0.0488468 0.0228118 -0.0174971
         vertex -0.0488468 0.0227693 -0.0175305
         vertex -0.0483561 0.0215821 -0.0157688
      endloop
   endfacet
   facet normal -0.974578 -0.110355 0.194984
      outer loop
         vertex -0.0488468 0.0224789 -0.0177139
         vertex -0.048356 0.0214755 -0.0158265
         vertex -0.0483561 0.0215821 -0.0157688
      endloop
   endfacet
   facet normal -0.974578 -0.110355 0.194984
      outer loop
         vertex -0.0488468 0.0224789 -0.0177139
         vertex -0.0483559 0.0214077 -0.0158632
         vertex -0.048356 0.0214755 -0.0158265
      endloop
   endfacet
   facet normal -0.97479 -0.0905625 0.203919
      outer loop
         vertex -0.0488468 0.0221375 -0.0178854
         vertex -0.0483558 0.021331 -0.0158958
         vertex -0.0483559 0.0214077 -0.0158632
      endloop
   endfacet
   facet normal -0.974689 -0.0898003 0.204735
      outer loop
         vertex -0.0483558 0.021331 -0.0158958
         vertex -0.0488468 0.0221375 -0.0178854
         vertex -0.0488468 0.0220392 -0.0179229
      endloop
   endfacet
   facet normal -0.974838 -0.0853756 0.205919
      outer loop
         vertex -0.0488468 0.0220392 -0.0179229
         vertex -0.0483558 0.0212164 -0.0159446
         vertex -0.0483558 0.021331 -0.0158958
      endloop
   endfacet
   facet normal -0.974622 -0.0977938 0.201366
      outer loop
         vertex -0.0483559 0.0214077 -0.0158632
         vertex -0.0488468 0.0224789 -0.0177139
         vertex -0.0488468 0.0221375 -0.0178854
      endloop
   endfacet
   facet normal -0.974392 -0.117266 0.191856
      outer loop
         vertex -0.0483561 0.0215821 -0.0157688
         vertex -0.0488468 0.0227693 -0.0175305
         vertex -0.0488468 0.0224789 -0.0177139
      endloop
   endfacet
   facet normal -0.974838 -0.0853756 0.205919
      outer loop
         vertex -0.0488468 0.0220392 -0.0179229
         vertex -0.0483558 0.0212036 -0.0159486
         vertex -0.0483558 0.0212164 -0.0159446
      endloop
   endfacet
   facet normal -0.974983 -0.0682047 0.211555
      outer loop
         vertex -0.0488468 0.0217055 -0.0180502
         vertex -0.0483558 0.021174 -0.015958
         vertex -0.0483558 0.0212036 -0.0159486
      endloop
   endfacet
   facet normal -0.974983 -0.0682047 0.211555
      outer loop
         vertex -0.0488468 0.0217055 -0.0180502
         vertex -0.0483558 0.0209691 -0.0160224
         vertex -0.0483558 0.021 -0.0160127
      endloop
   endfacet
   facet normal -0.97491 -0.0587027 0.214719
      outer loop
         vertex -0.0483558 0.021 -0.0160127
         vertex -0.0483558 0.021174 -0.015958
         vertex -0.0488468 0.0217055 -0.0180502
      endloop
   endfacet
   facet normal -0.975076 -0.0470758 0.21682
      outer loop
         vertex -0.0488469 0.0212827 -0.0181639
         vertex -0.0483557 0.0208043 -0.0160572
         vertex -0.0483558 0.0209691 -0.0160224
      endloop
   endfacet
   facet normal -0.975076 -0.0470758 0.21682
      outer loop
         vertex -0.0488469 0.0212827 -0.0181639
         vertex -0.0483557 0.0207083 -0.0160774
         vertex -0.0483557 0.0208043 -0.0160572
      endloop
   endfacet
   facet normal -0.975076 -0.0260728 0.220336
      outer loop
         vertex -0.0488469 0.0208023 -0.0182431
         vertex -0.0483557 0.0205836 -0.0160924
         vertex -0.0483557 0.0207083 -0.0160774
      endloop
   endfacet
   facet normal -0.975076 -0.0260728 0.220336
      outer loop
         vertex -0.0488469 0.0208023 -0.0182431
         vertex -0.0483557 0.020421 -0.0161119
         vertex -0.0483557 0.0205836 -0.0160924
      endloop
   endfacet
   facet normal -0.975203 -0.0131828 0.220919
      outer loop
         vertex -0.0488468 0.0203078 -0.0182746
         vertex -0.0483556 0.0203318 -0.0161153
         vertex -0.0483557 0.020421 -0.0161119
      endloop
   endfacet
   facet normal -0.975203 -0.0131828 0.220919
      outer loop
         vertex -0.0488468 0.0203078 -0.0182746
         vertex -0.0483555 0.0202353 -0.016119
         vertex -0.0483556 0.0203318 -0.0161153
      endloop
   endfacet
   facet normal -0.975079 -0.0165088 0.221242
      outer loop
         vertex -0.0483557 0.020421 -0.0161119
         vertex -0.0488469 0.0208023 -0.0182431
         vertex -0.0488468 0.0203078 -0.0182746
      endloop
   endfacet
   facet normal -0.975027 -0.0366584 0.219039
      outer loop
         vertex -0.0483557 0.0207083 -0.0160774
         vertex -0.0488469 0.0212827 -0.0181639
         vertex -0.0488469 0.0208023 -0.0182431
      endloop
   endfacet
   facet normal -0.974928 -0.0561705 0.215314
      outer loop
         vertex -0.0483558 0.0209691 -0.0160224
         vertex -0.0488468 0.0217055 -0.0180502
         vertex -0.0488469 0.0212827 -0.0181639
      endloop
   endfacet
   facet normal -0.975969 0.000125115 0.217908
      outer loop
         vertex -0.0483553 0.0189262 -0.0161238
         vertex -0.0483554 0.0201029 -0.016124
         vertex -0.0488467 0.0197976 -0.0183071
      endloop
   endfacet
   facet normal -0.975344 -0.00415071 0.220653
      outer loop
         vertex -0.0483554 0.0201029 -0.016124
         vertex -0.0488468 0.0203078 -0.0182746
         vertex -0.0488467 0.0197976 -0.0183071
      endloop
   endfacet
   facet normal -0.975482 -0.0067596 0.219975
      outer loop
         vertex -0.0488467 0.0197976 -0.0183071
         vertex -0.0488467 0.0188655 -0.0183269
         vertex -0.0483553 0.0189262 -0.0161238
      endloop
   endfacet
   facet normal -0.975934 -0.00435072 0.218023
      outer loop
         vertex -0.0488467 0.0188655 -0.0183269
         vertex -0.0488468 0.0133969 -0.0184432
         vertex -0.0483548 0.0154669 -0.0161232
      endloop
   endfacet
   facet normal -0.978204 -0.00447945 0.207597
      outer loop
         vertex -0.0488468 0.0133969 -0.0184432
         vertex -0.0483546 0.0133969 -0.0161229
         vertex -0.0483548 0.0154669 -0.0161232
      endloop
   endfacet
   facet normal -0.981912 -2.50588e-05 0.189339
      outer loop
         vertex -0.0483535 0.00252927 -0.0161212
         vertex -0.0483546 0.0133969 -0.0161229
         vertex -0.0488468 0.0107732 -0.018499
      endloop
   endfacet
   facet normal -0.978214 -5.19423e-05 0.207599
      outer loop
         vertex -0.0483546 0.0133969 -0.0161229
         vertex -0.0488468 0.0133969 -0.0184432
         vertex -0.0488468 0.0107732 -0.018499
      endloop
   endfacet
   facet normal -0.979193 -0.004453 0.202885
      outer loop
         vertex -0.0488468 0.0107732 -0.018499
         vertex -0.0488468 0.00252926 -0.0186795
         vertex -0.0483535 0.00252927 -0.0161212
      endloop
   endfacet
   facet normal -0.977398 -1.61912e-06 0.211408
      outer loop
         vertex -0.0483548 0.0154669 -0.0161232
         vertex -0.0483553 0.0189262 -0.0161238
         vertex -0.0488467 0.0188655 -0.0183269
      endloop
   endfacet
   facet normal -0.975344 -0.00415071 0.220653
      outer loop
         vertex -0.0483554 0.0201029 -0.016124
         vertex -0.0483555 0.0202353 -0.016119
         vertex -0.0488468 0.0203078 -0.0182746
      endloop
   endfacet
   facet normal -0.974783 -0.0769802 0.209458
      outer loop
         vertex -0.0483558 0.0212036 -0.0159486
         vertex -0.0488468 0.0220392 -0.0179229
         vertex -0.0488468 0.0217055 -0.0180502
      endloop
   endfacet
   facet normal -0.974342 -0.120432 0.190142
      outer loop
         vertex -0.0483561 0.0216087 -0.0157509
         vertex -0.0483561 0.0216467 -0.0157254
         vertex -0.0488468 0.0228118 -0.0174971
      endloop
   endfacet
   facet normal -0.972876 -0.171518 0.155225
      outer loop
         vertex -0.0483566 0.0220069 -0.0154181
         vertex -0.0483566 0.0220232 -0.0154001
         vertex -0.0488468 0.0234503 -0.0168902
      endloop
   endfacet
   facet normal -0.970682 -0.210863 0.115381
      outer loop
         vertex -0.0483573 0.0222802 -0.0150353
         vertex -0.0483573 0.0223041 -0.0149898
         vertex -0.0488468 0.023923 -0.0161481
      endloop
   endfacet
   facet normal -0.968097 -0.240695 0.0696662
      outer loop
         vertex -0.0483577 0.0224855 -0.0145433
         vertex -0.0483577 0.0224904 -0.0145277
         vertex -0.0488468 0.0242283 -0.0153175
      endloop
   endfacet
   facet normal -0.0470985 -0.996643 0.0669643
      outer loop
         vertex -0.0483583 0.0226095 -0.0138064
         vertex -0.0473663 0.0225607 -0.0138034
         vertex -0.0473662 0.0225749 -0.0134952
      endloop
   endfacet
   facet normal -0.0470985 -0.996643 0.0669619
      outer loop
         vertex -0.0473663 0.0225607 -0.0138034
         vertex -0.0483583 0.0226073 -0.0138621
         vertex -0.0483583 0.0226072 -0.0138651
      endloop
   endfacet
   facet normal -0.0470985 -0.996643 0.0669619
      outer loop
         vertex -0.0473663 0.0225607 -0.0138034
         vertex -0.0483583 0.0226095 -0.0138064
         vertex -0.0483583 0.0226073 -0.0138621
      endloop
   endfacet
   facet normal -0.0470722 -0.989131 0.139299
      outer loop
         vertex -0.0483582 0.0225791 -0.0140892
         vertex -0.0473664 0.022532 -0.014083
         vertex -0.0473663 0.0225552 -0.0139214
      endloop
   endfacet
   facet normal -0.04709 -0.994269 0.0959806
      outer loop
         vertex -0.0473663 0.0225552 -0.0139214
         vertex -0.0483583 0.0226072 -0.0138651
         vertex -0.0483582 0.0225791 -0.0140892
      endloop
   endfacet
   facet normal -0.0470722 -0.98913 0.139303
      outer loop
         vertex -0.0473664 0.022532 -0.014083
         vertex -0.0483582 0.0225791 -0.0140892
         vertex -0.0483581 0.0225658 -0.0141961
      endloop
   endfacet
   facet normal -0.0470564 -0.984425 0.169388
      outer loop
         vertex -0.0483581 0.0225658 -0.0141961
         vertex -0.0473665 0.0225064 -0.0142609
         vertex -0.0473664 0.022532 -0.014083
      endloop
   endfacet
   facet normal -0.0470288 -0.976368 0.210936
      outer loop
         vertex -0.0483579 0.0225357 -0.0143322
         vertex -0.0473665 0.0224912 -0.0143233
         vertex -0.0473665 0.0225064 -0.0142609
      endloop
   endfacet
   facet normal -0.0470288 -0.976368 0.210935
      outer loop
         vertex -0.0473665 0.0224912 -0.0143233
         vertex -0.0483579 0.0225357 -0.0143322
         vertex -0.0483578 0.0225 -0.0144937
      endloop
   endfacet
   facet normal -0.0469825 -0.963371 0.264024
      outer loop
         vertex -0.0483578 0.0225 -0.0144937
         vertex -0.0473667 0.0224404 -0.0145311
         vertex -0.0473665 0.0224912 -0.0143233
      endloop
   endfacet
   facet normal -0.0469825 -0.963371 0.264024
      outer loop
         vertex -0.0483578 0.0225 -0.0144937
         vertex -0.0483577 0.0224904 -0.0145277
         vertex -0.0473667 0.0224404 -0.0145311
      endloop
   endfacet
   facet normal -0.0469616 -0.957443 0.284777
      outer loop
         vertex -0.0473667 0.0224382 -0.0145402
         vertex -0.0483577 0.0224855 -0.0145433
         vertex -0.0483576 0.0224507 -0.0146543
      endloop
   endfacet
   facet normal -0.0469195 -0.945399 0.322519
      outer loop
         vertex -0.0483576 0.0224507 -0.0146543
         vertex -0.0473669 0.0223786 -0.0147107
         vertex -0.0473667 0.0224382 -0.0145402
      endloop
   endfacet
   facet normal -0.0469195 -0.945399 0.322519
      outer loop
         vertex -0.0483576 0.0224507 -0.0146543
         vertex -0.0483576 0.0224223 -0.0147257
         vertex -0.0473669 0.0223786 -0.0147107
      endloop
   endfacet
   facet normal -0.0467889 -0.907862 0.41665
      outer loop
         vertex -0.0483575 0.0223584 -0.0148864
         vertex -0.0473671 0.0223115 -0.0148708
         vertex -0.047367 0.0223566 -0.0147736
      endloop
   endfacet
   facet normal -0.0468497 -0.925342 0.376228
      outer loop
         vertex -0.047367 0.0223566 -0.0147736
         vertex -0.0483576 0.0224223 -0.0147257
         vertex -0.0483575 0.0223584 -0.0148864
      endloop
   endfacet
   facet normal -0.0467889 -0.907862 0.41665
      outer loop
         vertex -0.0483575 0.0223584 -0.0148864
         vertex -0.0483575 0.0223565 -0.0148899
         vertex -0.0473671 0.0223115 -0.0148708
      endloop
   endfacet
   facet normal -0.0467864 -0.907143 0.418213
      outer loop
         vertex -0.0473671 0.0223115 -0.0148708
         vertex -0.0483575 0.0223565 -0.0148899
         vertex -0.0483573 0.0223041 -0.0149898
      endloop
   endfacet
   facet normal -0.0466714 -0.874093 0.483512
      outer loop
         vertex -0.0483573 0.0222802 -0.0150353
         vertex -0.0473674 0.0222398 -0.0150148
         vertex -0.0473673 0.0222634 -0.0149747
      endloop
   endfacet
   facet normal -0.0467073 -0.884395 0.464396
      outer loop
         vertex -0.0473673 0.0222634 -0.0149747
         vertex -0.0483573 0.0223041 -0.0149898
         vertex -0.0483573 0.0222802 -0.0150353
      endloop
   endfacet
   facet normal -0.0465384 -0.836287 0.546313
      outer loop
         vertex -0.0473676 0.0221635 -0.0151445
         vertex -0.0473674 0.0222398 -0.0150148
         vertex -0.0483572 0.0222476 -0.0150974
      endloop
   endfacet
   facet normal -0.0466714 -0.874095 0.483508
      outer loop
         vertex -0.0473674 0.0222398 -0.0150148
         vertex -0.0483573 0.0222802 -0.0150353
         vertex -0.0483572 0.0222476 -0.0150974
      endloop
   endfacet
   facet normal -0.0465335 -0.834903 0.548427
      outer loop
         vertex -0.0473677 0.022161 -0.0151489
         vertex -0.0483571 0.0221976 -0.015177
         vertex -0.0483568 0.0221076 -0.0152996
      endloop
   endfacet
   facet normal -0.0465335 -0.834903 0.548427
      outer loop
         vertex -0.0473677 0.022161 -0.0151489
         vertex -0.0483571 0.0222032 -0.0151682
         vertex -0.0483571 0.0221976 -0.015177
      endloop
   endfacet
   facet normal -0.0463734 -0.789253 0.612314
      outer loop
         vertex -0.0483568 0.0221076 -0.0152996
         vertex -0.047368 0.0220703 -0.0152733
         vertex -0.0473677 0.022161 -0.0151489
      endloop
   endfacet
   facet normal -0.0463734 -0.789253 0.612314
      outer loop
         vertex -0.0483568 0.0221076 -0.0152996
         vertex -0.0483567 0.0220809 -0.0153361
         vertex -0.047368 0.0220485 -0.0153032
      endloop
   endfacet
   facet normal -0.046332 -0.777291 0.627432
      outer loop
         vertex -0.047368 0.0220485 -0.0153032
         vertex -0.0483567 0.0220809 -0.0153361
         vertex -0.0483566 0.0220232 -0.0154001
      endloop
   endfacet
   facet normal -0.0462235 -0.745922 0.664427
      outer loop
         vertex -0.0483566 0.0220232 -0.0154001
         vertex -0.0473683 0.0219716 -0.015389
         vertex -0.047368 0.0220485 -0.0153032
      endloop
   endfacet
   facet normal -0.0462235 -0.745922 0.664427
      outer loop
         vertex -0.0483566 0.0220232 -0.0154001
         vertex -0.0483566 0.0220069 -0.0154181
         vertex -0.0473683 0.0219716 -0.015389
      endloop
   endfacet
   facet normal -0.0461935 -0.737364 0.673914
      outer loop
         vertex -0.0483566 0.0220069 -0.0154181
         vertex -0.0483565 0.0219561 -0.0154744
         vertex -0.0473685 0.0219221 -0.0154442
      endloop
   endfacet
   facet normal -0.0460964 -0.709891 0.702802
      outer loop
         vertex -0.0483565 0.0219561 -0.0154744
         vertex -0.0483565 0.0219506 -0.0154805
         vertex -0.0473685 0.0219189 -0.0154478
      endloop
   endfacet
   facet normal -0.04609 -0.708089 0.704618
      outer loop
         vertex -0.0473685 0.0219189 -0.0154478
         vertex -0.0483565 0.0219506 -0.0154805
         vertex -0.0483564 0.0218471 -0.0155741
      endloop
   endfacet
   facet normal -0.0458984 -0.653448 0.755579
      outer loop
         vertex -0.0483564 0.0218471 -0.0155741
         vertex -0.0473689 0.0218155 -0.0155415
         vertex -0.0473685 0.0219189 -0.0154478
      endloop
   endfacet
   facet normal -0.0458984 -0.653448 0.755579
      outer loop
         vertex -0.0483564 0.0218471 -0.0155741
         vertex -0.0483563 0.0218052 -0.0156119
         vertex -0.047369 0.0217751 -0.015578
      endloop
   endfacet
   facet normal -0.0458215 -0.631151 0.774305
      outer loop
         vertex -0.047369 0.0217751 -0.015578
         vertex -0.0483563 0.0218052 -0.0156119
         vertex -0.0483563 0.0217413 -0.0156618
      endloop
   endfacet
   facet normal -0.0457053 -0.59745 0.800602
      outer loop
         vertex -0.0483563 0.0217413 -0.0156618
         vertex -0.0473693 0.021702 -0.0156316
         vertex -0.047369 0.0217751 -0.015578
      endloop
   endfacet
   facet normal -0.0457053 -0.59745 0.800602
      outer loop
         vertex -0.0483563 0.0217413 -0.0156618
         vertex -0.0483563 0.0217322 -0.0156679
         vertex -0.0473693 0.021702 -0.0156316
      endloop
   endfacet
   facet normal -0.0456893 -0.592863 0.804006
      outer loop
         vertex -0.0473693 0.021702 -0.0156316
         vertex -0.0483563 0.0217322 -0.0156679
         vertex -0.0483561 0.0216467 -0.0157254
      endloop
   endfacet
   facet normal -0.0454712 -0.530494 0.846468
      outer loop
         vertex -0.0483561 0.0216087 -0.0157509
         vertex -0.0473697 0.0215822 -0.0157141
         vertex -0.0473695 0.0216189 -0.0156925
      endloop
   endfacet
   facet normal -0.0455351 -0.548734 0.834756
      outer loop
         vertex -0.0473695 0.0216189 -0.0156925
         vertex -0.0483561 0.0216467 -0.0157254
         vertex -0.0483561 0.0216087 -0.0157509
      endloop
   endfacet
   facet normal -0.0452467 -0.466132 0.883557
      outer loop
         vertex -0.0473701 0.0214529 -0.0157902
         vertex -0.0473697 0.0215822 -0.0157141
         vertex -0.0483561 0.0215821 -0.0157688
      endloop
   endfacet
   facet normal -0.0454712 -0.530491 0.84647
      outer loop
         vertex -0.0473697 0.0215822 -0.0157141
         vertex -0.0483561 0.0216087 -0.0157509
         vertex -0.0483561 0.0215821 -0.0157688
      endloop
   endfacet
   facet normal -0.0450131 -0.399351 0.915692
      outer loop
         vertex -0.0473706 0.0213105 -0.0158568
         vertex -0.0473701 0.0214494 -0.0157923
         vertex -0.0483559 0.0214077 -0.0158632
      endloop
   endfacet
   facet normal -0.0452406 -0.464371 0.884484
      outer loop
         vertex -0.0473701 0.0214494 -0.0157923
         vertex -0.048356 0.0214755 -0.0158265
         vertex -0.0483559 0.0214077 -0.0158632
      endloop
   endfacet
   facet normal -0.045134 -0.43385 0.899854
      outer loop
         vertex -0.0483559 0.0214077 -0.0158632
         vertex -0.0483558 0.021331 -0.0158958
         vertex -0.0473706 0.0213105 -0.0158568
      endloop
   endfacet
   facet normal -0.0448375 -0.349078 0.936021
      outer loop
         vertex -0.0483558 0.0212164 -0.0159446
         vertex -0.0473712 0.021156 -0.0159167
         vertex -0.0473708 0.0212601 -0.0158801
      endloop
   endfacet
   facet normal -0.0449324 -0.376276 0.925418
      outer loop
         vertex -0.0473708 0.0212601 -0.0158801
         vertex -0.0483558 0.021331 -0.0158958
         vertex -0.0483558 0.0212164 -0.0159446
      endloop
   endfacet
   facet normal -0.0448375 -0.349078 0.936021
      outer loop
         vertex -0.0483558 0.0212164 -0.0159446
         vertex -0.0483558 0.0212036 -0.0159486
         vertex -0.0473712 0.021156 -0.0159167
      endloop
   endfacet
   facet normal -0.0448191 -0.343795 0.937975
      outer loop
         vertex -0.0483558 0.0212036 -0.0159486
         vertex -0.0483558 0.021174 -0.015958
         vertex -0.0473712 0.021156 -0.0159167
      endloop
   endfacet
   facet normal -0.0447768 -0.331638 0.942343
      outer loop
         vertex -0.0483558 0.021174 -0.015958
         vertex -0.0483558 0.021 -0.0160127
         vertex -0.0473715 0.0210479 -0.0159547
      endloop
   endfacet
   facet normal -0.0445398 -0.263271 0.963693
      outer loop
         vertex -0.0483558 0.021 -0.0160127
         vertex -0.0473718 0.0209851 -0.0159704
         vertex -0.0473715 0.0210479 -0.0159547
      endloop
   endfacet
   facet normal -0.0443095 -0.19754 0.979293
      outer loop
         vertex -0.0473724 0.0208033 -0.0160157
         vertex -0.0473718 0.0209851 -0.0159704
         vertex -0.0483558 0.0209691 -0.0160224
      endloop
   endfacet
   facet normal -0.0445398 -0.263267 0.963694
      outer loop
         vertex -0.0473718 0.0209851 -0.0159704
         vertex -0.0483558 0.021 -0.0160127
         vertex -0.0483558 0.0209691 -0.0160224
      endloop
   endfacet
   facet normal -0.0442973 -0.194054 0.97999
      outer loop
         vertex -0.0483557 0.0208043 -0.0160572
         vertex -0.0473724 0.020793 -0.0160173
         vertex -0.0473724 0.0208033 -0.0160157
      endloop
   endfacet
   facet normal -0.0440528 -0.124199 0.991279
      outer loop
         vertex -0.0473732 0.0205749 -0.0160508
         vertex -0.0473724 0.020793 -0.0160173
         vertex -0.0483557 0.0207083 -0.0160774
      endloop
   endfacet
   facet normal -0.0442973 -0.194062 0.979989
      outer loop
         vertex -0.0473724 0.020793 -0.0160173
         vertex -0.0483557 0.0208043 -0.0160572
         vertex -0.0483557 0.0207083 -0.0160774
      endloop
   endfacet
   facet normal -0.0439925 -0.106889 0.993297
      outer loop
         vertex -0.0473734 0.0205168 -0.0160597
         vertex -0.0483557 0.0205836 -0.0160924
         vertex -0.0483557 0.020421 -0.0161119
      endloop
   endfacet
   facet normal -0.043892 -0.0780337 0.995984
      outer loop
         vertex -0.0483557 0.020421 -0.0161119
         vertex -0.0473741 0.0203259 -0.0160695
         vertex -0.0473734 0.0205168 -0.0160597
      endloop
   endfacet
   facet normal -0.043892 -0.0780337 0.995984
      outer loop
         vertex -0.0483557 0.020421 -0.0161119
         vertex -0.0483556 0.0203318 -0.0161153
         vertex -0.0473741 0.0203259 -0.0160695
      endloop
   endfacet
   facet normal -0.0436194 0.000152261 0.999048
      outer loop
         vertex -0.0473749 0.0200995 -0.0160812
         vertex -0.0473741 0.0203259 -0.0160695
         vertex -0.0483555 0.0202353 -0.016119
      endloop
   endfacet
   facet normal -0.0438111 -0.0547631 0.997538
      outer loop
         vertex -0.0473741 0.0203259 -0.0160695
         vertex -0.0483556 0.0203318 -0.0161153
         vertex -0.0483555 0.0202353 -0.016119
      endloop
   endfacet
   facet normal -0.0437277 -0.0308055 0.998568
      outer loop
         vertex -0.0483555 0.0202353 -0.016119
         vertex -0.0483554 0.0201029 -0.016124
         vertex -0.0473749 0.0200995 -0.0160812
      endloop
   endfacet
   facet normal -0.0439925 -0.106889 0.993297
      outer loop
         vertex -0.0473734 0.0205168 -0.0160597
         vertex -0.0473732 0.0205749 -0.0160508
         vertex -0.0483557 0.0205836 -0.0160924
      endloop
   endfacet
   facet normal -0.0441867 -0.162533 0.985713
      outer loop
         vertex -0.0483557 0.0207083 -0.0160774
         vertex -0.0483557 0.0205836 -0.0160924
         vertex -0.0473732 0.0205749 -0.0160508
      endloop
   endfacet
   facet normal -0.0444994 -0.25167 0.96679
      outer loop
         vertex -0.0483558 0.0209691 -0.0160224
         vertex -0.0483557 0.0208043 -0.0160572
         vertex -0.0473724 0.0208033 -0.0160157
      endloop
   endfacet
   facet normal -0.0446233 -0.287322 0.956794
      outer loop
         vertex -0.0473715 0.0210479 -0.0159547
         vertex -0.0473712 0.021156 -0.0159167
         vertex -0.0483558 0.021174 -0.015958
      endloop
   endfacet
   facet normal -0.0449324 -0.376276 0.925418
      outer loop
         vertex -0.0473708 0.0212601 -0.0158801
         vertex -0.0473706 0.0213105 -0.0158568
         vertex -0.0483558 0.021331 -0.0158958
      endloop
   endfacet
   facet normal -0.0452406 -0.464371 0.884484
      outer loop
         vertex -0.0473701 0.0214494 -0.0157923
         vertex -0.0473701 0.0214529 -0.0157902
         vertex -0.048356 0.0214755 -0.0158265
      endloop
   endfacet
   facet normal -0.0454241 -0.51703 0.854761
      outer loop
         vertex -0.0483561 0.0215821 -0.0157688
         vertex -0.048356 0.0214755 -0.0158265
         vertex -0.0473701 0.0214529 -0.0157902
      endloop
   endfacet
   facet normal -0.0455385 -0.549724 0.834104
      outer loop
         vertex -0.0483561 0.0216467 -0.0157254
         vertex -0.0473695 0.0216189 -0.0156925
         vertex -0.0473693 0.021702 -0.0156316
      endloop
   endfacet
   facet normal -0.0458215 -0.631151 0.774305
      outer loop
         vertex -0.047369 0.0217751 -0.015578
         vertex -0.0473689 0.0218155 -0.0155415
         vertex -0.0483564 0.0218471 -0.0155741
      endloop
   endfacet
   facet normal -0.04609 -0.708089 0.704618
      outer loop
         vertex -0.0473685 0.0219189 -0.0154478
         vertex -0.0473685 0.0219221 -0.0154442
         vertex -0.0483565 0.0219561 -0.0154744
      endloop
   endfacet
   facet normal -0.0460965 -0.709903 0.70279
      outer loop
         vertex -0.0473685 0.0219221 -0.0154442
         vertex -0.0473683 0.0219716 -0.015389
         vertex -0.0483566 0.0220069 -0.0154181
      endloop
   endfacet
   facet normal -0.046332 -0.777291 0.627432
      outer loop
         vertex -0.047368 0.0220485 -0.0153032
         vertex -0.047368 0.0220703 -0.0152733
         vertex -0.0483568 0.0221076 -0.0152996
      endloop
   endfacet
   facet normal -0.0465335 -0.834903 0.548427
      outer loop
         vertex -0.0473677 0.022161 -0.0151489
         vertex -0.0473676 0.0221635 -0.0151445
         vertex -0.0483571 0.0222032 -0.0151682
      endloop
   endfacet
   facet normal -0.0466141 -0.857709 0.512018
      outer loop
         vertex -0.0483572 0.0222476 -0.0150974
         vertex -0.0483571 0.0222032 -0.0151682
         vertex -0.0473676 0.0221635 -0.0151445
      endloop
   endfacet
   facet normal -0.0467102 -0.885224 0.462813
      outer loop
         vertex -0.0483573 0.0223041 -0.0149898
         vertex -0.0473673 0.0222634 -0.0149747
         vertex -0.0473671 0.0223115 -0.0148708
      endloop
   endfacet
   facet normal -0.0468497 -0.925342 0.376228
      outer loop
         vertex -0.047367 0.0223566 -0.0147736
         vertex -0.0473669 0.0223786 -0.0147107
         vertex -0.0483576 0.0224223 -0.0147257
      endloop
   endfacet
   facet normal -0.0469616 -0.957443 0.284777
      outer loop
         vertex -0.0473667 0.0224382 -0.0145402
         vertex -0.0473667 0.0224404 -0.0145311
         vertex -0.0483577 0.0224855 -0.0145433
      endloop
   endfacet
   facet normal -0.0469707 -0.960033 0.275917
      outer loop
         vertex -0.0483577 0.0224904 -0.0145277
         vertex -0.0483577 0.0224855 -0.0145433
         vertex -0.0473667 0.0224404 -0.0145311
      endloop
   endfacet
   facet normal -0.0470564 -0.984425 0.169388
      outer loop
         vertex -0.0483581 0.0225658 -0.0141961
         vertex -0.0483579 0.0225357 -0.0143322
         vertex -0.0473665 0.0225064 -0.0142609
      endloop
   endfacet
   facet normal -0.0470948 -0.995602 0.0809891
      outer loop
         vertex -0.0483583 0.0226072 -0.0138651
         vertex -0.0473663 0.0225552 -0.0139214
         vertex -0.0473663 0.0225607 -0.0138034
      endloop
   endfacet
   facet normal -0.0471068 -0.99889 6.93444e-11
      outer loop
         vertex -0.0473662 0.0225749 -0.0134952
         vertex -0.0483583 0.0226217 -0.0134952
         vertex -0.0483583 0.0226095 -0.0138064
      endloop
   endfacet
   facet normal -0.965943 -0.258756 -7.69662e-05
      outer loop
         vertex -0.048358 0.0226217 -0.00742416
         vertex -0.0483584 0.0226217 1.22101e-07
         vertex -0.0488468 0.0244444 -0.00245914
      endloop
   endfacet
   facet normal -0.965916 -0.258855 -1.32585e-08
      outer loop
         vertex -0.0483584 0.0226217 1.22101e-07
         vertex -0.0488468 0.0244442 1.30009e-07
         vertex -0.0488468 0.0244444 -0.00245914
      endloop
   endfacet
   facet normal -0.965943 -0.258755 -0.000130215
      outer loop
         vertex -0.0488468 0.0244468 -0.00741359
         vertex -0.0488468 0.0244487 -0.0111491
         vertex -0.0483579 0.0226217 -0.0093306
      endloop
   endfacet
   facet normal -0.965978 -0.258624 -0.000197659
      outer loop
         vertex -0.0488468 0.0244487 -0.0111491
         vertex -0.0483577 0.0226217 -0.0111965
         vertex -0.0483579 0.0226217 -0.0093306
      endloop
   endfacet
   facet normal -0.965978 -0.258624 -0.000197659
      outer loop
         vertex -0.0488468 0.0244487 -0.0111491
         vertex -0.0488468 0.0244492 -0.0121134
         vertex -0.0483576 0.0226217 -0.0117435
      endloop
   endfacet
   facet normal -0.965991 -0.258576 0.000376095
      outer loop
         vertex -0.0483581 0.0226217 -0.0130868
         vertex -0.0483576 0.0226217 -0.0117435
         vertex -0.0488468 0.0244492 -0.0121134
      endloop
   endfacet
   facet normal -0.96599 -0.25858 -0.000215342
      outer loop
         vertex -0.0488468 0.0244492 -0.0121134
         vertex -0.0488468 0.0244375 -0.0130122
         vertex -0.0483581 0.0226217 -0.0130868
      endloop
   endfacet
   facet normal -0.966012 -0.258022 0.0156672
      outer loop
         vertex -0.0488468 0.0244238 -0.0140711
         vertex -0.0483583 0.0226095 -0.0138064
         vertex -0.0483583 0.0226217 -0.0134952
      endloop
   endfacet
   facet normal -0.966012 -0.258022 0.0156672
      outer loop
         vertex -0.0488468 0.0244238 -0.0140711
         vertex -0.0488468 0.0244185 -0.0141217
         vertex -0.0483583 0.0226073 -0.0138621
      endloop
   endfacet
   facet normal -0.966088 -0.257483 0.0194164
      outer loop
         vertex -0.0483583 0.0226073 -0.0138621
         vertex -0.0483583 0.0226095 -0.0138064
         vertex -0.0488468 0.0244238 -0.0140711
      endloop
   endfacet
   facet normal -0.965918 -0.258817 0.00407903
      outer loop
         vertex -0.0483583 0.0226217 -0.0134952
         vertex -0.0488468 0.0244375 -0.0130122
         vertex -0.0488468 0.0244238 -0.0140711
      endloop
   endfacet
   facet normal -0.966046 -0.257803 0.0171034
      outer loop
         vertex -0.0488468 0.0244185 -0.0141217
         vertex -0.0488468 0.0243564 -0.0147116
         vertex -0.0483581 0.0225658 -0.0141961
      endloop
   endfacet
   facet normal -0.966903 -0.251534 0.0427599
      outer loop
         vertex -0.0483581 0.0225658 -0.0141961
         vertex -0.0483582 0.0225791 -0.0140892
         vertex -0.0488468 0.0244185 -0.0141217
      endloop
   endfacet
   facet normal -0.966624 -0.25374 0.0354245
      outer loop
         vertex -0.0483582 0.0225791 -0.0140892
         vertex -0.0483583 0.0226072 -0.0138651
         vertex -0.0488468 0.0244185 -0.0141217
      endloop
   endfacet
   facet normal -0.966801 -0.252405 0.0398383
      outer loop
         vertex -0.0488468 0.0243564 -0.0147116
         vertex -0.0483578 0.0225 -0.0144937
         vertex -0.0483579 0.0225357 -0.0143322
      endloop
   endfacet
   facet normal -0.967856 -0.243153 0.0642807
      outer loop
         vertex -0.0488468 0.0242283 -0.0153175
         vertex -0.0483577 0.0224904 -0.0145277
         vertex -0.0483578 0.0225 -0.0144937
      endloop
   endfacet
   facet normal -0.967872 -0.242821 0.0652734
      outer loop
         vertex -0.0483578 0.0225 -0.0144937
         vertex -0.0488468 0.0243564 -0.0147116
         vertex -0.0488468 0.0242283 -0.0153175
      endloop
   endfacet
   facet normal -0.967297 -0.248135 0.0525784
      outer loop
         vertex -0.0483579 0.0225357 -0.0143322
         vertex -0.0483581 0.0225658 -0.0141961
         vertex -0.0488468 0.0243564 -0.0147116
      endloop
   endfacet
   facet normal -0.966093 -0.257449 0.0196121
      outer loop
         vertex -0.0483583 0.0226072 -0.0138651
         vertex -0.0483583 0.0226073 -0.0138621
         vertex -0.0488468 0.0244185 -0.0141217
      endloop
   endfacet
   facet normal -0.965918 -0.258817 0.00407903
      outer loop
         vertex -0.0483583 0.0226217 -0.0134952
         vertex -0.0483581 0.0226217 -0.0130868
         vertex -0.0488468 0.0244375 -0.0130122
      endloop
   endfacet
   facet normal -0.965984 -0.258603 -0.000120833
      outer loop
         vertex -0.0483576 0.0226217 -0.0117435
         vertex -0.0483577 0.0226217 -0.0111965
         vertex -0.0488468 0.0244487 -0.0111491
      endloop
   endfacet
   facet normal -0.965958 -0.258697 -9.64553e-05
      outer loop
         vertex -0.0483579 0.0226217 -0.0093306
         vertex -0.048358 0.0226217 -0.00742416
         vertex -0.0488468 0.0244468 -0.00741359
      endloop
   endfacet
   facet normal -0.965919 -0.258845 -4.27538e-05
      outer loop
         vertex -0.0488468 0.0244444 -0.00245914
         vertex -0.0488468 0.0244468 -0.00741359
         vertex -0.048358 0.0226217 -0.00742416
      endloop
   endfacet
   facet normal -0.0471065 -0.99889 -2.28809e-13
      outer loop
         vertex -0.0473662 0.0225749 0.0134953
         vertex -0.048358 0.0226217 0.00742436
         vertex -0.0483584 0.0226217 1.22101e-07
      endloop
   endfacet
   facet normal -0.0471065 -0.99889 -2.28809e-13
      outer loop
         vertex -0.0473662 0.0225749 -0.0134952
         vertex -0.048358 0.0226217 -0.00742416
         vertex -0.0483579 0.0226217 -0.0093306
      endloop
   endfacet
   facet normal -0.0471065 -0.99889 -2.28809e-13
      outer loop
         vertex -0.0483584 0.0226217 1.22101e-07
         vertex -0.0473662 0.0225749 -0.0134952
         vertex -0.0473662 0.0225749 0.0134953
      endloop
   endfacet
   facet normal -0.0471065 -0.99889 -2.28809e-13
      outer loop
         vertex -0.0483584 0.0226217 1.22101e-07
         vertex -0.048358 0.0226217 -0.00742416
         vertex -0.0473662 0.0225749 -0.0134952
      endloop
   endfacet
   facet normal -0.0471065 -0.99889 -2.28809e-13
      outer loop
         vertex -0.0473662 0.0225749 0.0134953
         vertex -0.0483579 0.0226217 0.00950309
         vertex -0.048358 0.0226217 0.00742436
      endloop
   endfacet
   facet normal -0.0471065 -0.99889 -2.28809e-13
      outer loop
         vertex -0.0473662 0.0225749 0.0134953
         vertex -0.0483583 0.0226217 0.0134953
         vertex -0.0483582 0.0226217 0.013087
      endloop
   endfacet
   facet normal -0.0471065 -0.99889 -2.28809e-13
      outer loop
         vertex -0.0483579 0.0226217 -0.0093306
         vertex -0.0483577 0.0226217 -0.0111965
         vertex -0.0473662 0.0225749 -0.0134952
      endloop
   endfacet
   facet normal -0.0471065 -0.99889 -2.28809e-13
      outer loop
         vertex -0.0483582 0.0226217 0.013087
         vertex -0.0483581 0.0226217 0.0111966
         vertex -0.0473662 0.0225749 0.0134953
      endloop
   endfacet
   facet normal -0.0471065 -0.99889 -2.28809e-13
      outer loop
         vertex -0.0473662 0.0225749 -0.0134952
         vertex -0.0483576 0.0226217 -0.0117435
         vertex -0.0483581 0.0226217 -0.0130868
      endloop
   endfacet
   facet normal -0.0471065 -0.99889 -2.28809e-13
      outer loop
         vertex -0.0483581 0.0226217 0.0111966
         vertex -0.0483579 0.0226217 0.00950309
         vertex -0.0473662 0.0225749 0.0134953
      endloop
   endfacet
   facet normal -0.0471065 -0.99889 -2.28809e-13
      outer loop
         vertex -0.0483577 0.0226217 -0.0111965
         vertex -0.0483576 0.0226217 -0.0117435
         vertex -0.0473662 0.0225749 -0.0134952
      endloop
   endfacet
   facet normal -0.0471065 -0.99889 -2.28809e-13
      outer loop
         vertex -0.0483581 0.0226217 -0.0130868
         vertex -0.0483583 0.0226217 -0.0134952
         vertex -0.0473662 0.0225749 -0.0134952
      endloop
   endfacet
   facet normal -0.965916 -0.258855 1.44776e-08
      outer loop
         vertex -0.0483584 0.0226217 1.22101e-07
         vertex -0.048358 0.0226217 0.00742436
         vertex -0.0488468 0.024446 0.00741378
      endloop
   endfacet
   facet normal -0.965943 -0.258754 0.000131013
      outer loop
         vertex -0.0488468 0.024446 0.00745843
         vertex -0.048358 0.0226217 0.00742436
         vertex -0.0483579 0.0226217 0.00950309
      endloop
   endfacet
   facet normal -0.965978 -0.258626 0.000115395
      outer loop
         vertex -0.0483581 0.0226217 0.0111966
         vertex -0.0488468 0.0244484 0.0111492
         vertex -0.0488468 0.0244477 0.0101647
      endloop
   endfacet
   facet normal -0.965967 -0.258664 0.000179727
      outer loop
         vertex -0.0488468 0.0244477 0.0101647
         vertex -0.0483579 0.0226217 0.00950309
         vertex -0.0483581 0.0226217 0.0111966
      endloop
   endfacet
   facet normal -0.96596 -0.258691 9.82077e-05
      outer loop
         vertex -0.0483579 0.0226217 0.00950309
         vertex -0.0488468 0.0244477 0.0101647
         vertex -0.0488468 0.024446 0.00745843
      endloop
   endfacet
   facet normal -0.965991 -0.258576 -0.000376218
      outer loop
         vertex -0.0483582 0.0226217 0.013087
         vertex -0.0488468 0.0244494 0.0130125
         vertex -0.0488468 0.024449 0.011966
      endloop
   endfacet
   facet normal -0.965988 -0.258587 0.000212627
      outer loop
         vertex -0.0488468 0.024449 0.011966
         vertex -0.0483581 0.0226217 0.0111966
         vertex -0.0483582 0.0226217 0.013087
      endloop
   endfacet
   facet normal -0.966088 -0.257483 -0.019417
      outer loop
         vertex -0.0483583 0.0226048 0.0138621
         vertex -0.0488468 0.0244144 0.0141216
         vertex -0.0488468 0.0244326 0.0139029
      endloop
   endfacet
   facet normal -0.965981 -0.258612 -0.00105604
      outer loop
         vertex -0.0488468 0.0244494 0.0130804
         vertex -0.0483582 0.0226217 0.013087
         vertex -0.0483583 0.0226217 0.0134953
      endloop
   endfacet
   facet normal -0.965918 -0.258817 -0.00407839
      outer loop
         vertex -0.0483583 0.0226217 0.0134953
         vertex -0.0488468 0.0244326 0.0139029
         vertex -0.0488468 0.0244494 0.0130804
      endloop
   endfacet
   facet normal -0.965981 -0.258612 -0.00105604
      outer loop
         vertex -0.0488468 0.0244494 0.0130804
         vertex -0.0488468 0.0244494 0.0130125
         vertex -0.0483582 0.0226217 0.013087
      endloop
   endfacet
   facet normal -0.966582 -0.254116 -0.0338382
      outer loop
         vertex -0.0488468 0.024377 0.0145702
         vertex -0.0483581 0.0225573 0.0142436
         vertex -0.0483577 0.0224904 0.0145278
      endloop
   endfacet
   facet normal -0.968023 -0.241397 -0.0682502
      outer loop
         vertex -0.0483577 0.0224904 0.0145278
         vertex -0.0488468 0.0242283 0.0153176
         vertex -0.0488468 0.0242692 0.015154
      endloop
   endfacet
   facet normal -0.966046 -0.257803 -0.0171038
      outer loop
         vertex -0.0488468 0.0244144 0.0141216
         vertex -0.0483583 0.0226017 0.0139288
         vertex -0.0483581 0.0225573 0.0142436
      endloop
   endfacet
   facet normal -0.967033 -0.250448 -0.0460728
      outer loop
         vertex -0.0483581 0.0225573 0.0142436
         vertex -0.0488468 0.024377 0.0145702
         vertex -0.0488468 0.0244144 0.0141216
      endloop
   endfacet
   facet normal -0.966046 -0.257803 -0.0171038
      outer loop
         vertex -0.0488468 0.0244144 0.0141216
         vertex -0.0483583 0.0226048 0.0138621
         vertex -0.0483583 0.0226017 0.0139288
      endloop
   endfacet
   facet normal -0.968023 -0.241397 -0.0682502
      outer loop
         vertex -0.0483577 0.0224904 0.0145278
         vertex -0.0488468 0.0242692 0.015154
         vertex -0.0488468 0.024377 0.0145702
      endloop
   endfacet
   facet normal -0.965935 -0.258529 -0.0115025
      outer loop
         vertex -0.0488468 0.0244326 0.0139029
         vertex -0.0483583 0.0226217 0.0134953
         vertex -0.0483583 0.0226048 0.0138621
      endloop
   endfacet
   facet normal -0.965988 -0.258587 0.000212627
      outer loop
         vertex -0.0488468 0.024449 0.011966
         vertex -0.0488468 0.0244484 0.0111492
         vertex -0.0483581 0.0226217 0.0111966
      endloop
   endfacet
   facet normal -0.965943 -0.258754 0.000131013
      outer loop
         vertex -0.0488468 0.024446 0.00745843
         vertex -0.0488468 0.024446 0.00741378
         vertex -0.048358 0.0226217 0.00742436
      endloop
   endfacet
   facet normal -0.965943 -0.258755 0.000130216
      outer loop
         vertex -0.0488468 0.024446 0.00741378
         vertex -0.0488468 0.0244442 1.30009e-07
         vertex -0.0483584 0.0226217 1.22101e-07
      endloop
   endfacet
endsolid 1111. Units = meters