solid 1111. STL generated by ONSHAPE BY PTC INC, 1.216. Units = meters
   facet normal 0 0.0436194 -0.999048
      outer loop
         vertex 0.00877253 0.024154 -0.0210969
         vertex 0.00936441 0.0241451 -0.0210973
         vertex 0.00918285 0.0235986 -0.0211212
      endloop
   endfacet
   facet normal 0 0.0436194 -0.999048
      outer loop
         vertex 0.0075655 0.0241451 -0.0210973
         vertex 0.00707218 0.0248936 -0.0210646
         vertex 0.00773931 0.0246816 -0.0210739
      endloop
   endfacet
   facet normal 0 0.0436194 -0.999048
      outer loop
         vertex 0.00813336 0.0241511 -0.0210971
         vertex 0.00794293 0.0235958 -0.0211213
         vertex 0.00774373 0.0238786 -0.021109
      endloop
   endfacet
   facet normal 0 0.0436194 -0.999048
      outer loop
         vertex 0.00918285 0.0235986 -0.0211212
         vertex 0.00855549 0.0235601 -0.0211229
         vertex 0.00877253 0.024154 -0.0210969
      endloop
   endfacet
   facet normal 0 0.0436194 -0.999048
      outer loop
         vertex 0.00774373 0.0238786 -0.021109
         vertex 0.0075655 0.0241451 -0.0210973
         vertex 0.00813336 0.0241511 -0.0210971
      endloop
   endfacet
   facet normal 0 0.0436194 -0.999048
      outer loop
         vertex 0.00855549 0.0235601 -0.0211229
         vertex 0.00829603 0.023099 -0.021143
         vertex 0.00794293 0.0235958 -0.0211213
      endloop
   endfacet
   facet normal 0 0.0436194 -0.999048
      outer loop
         vertex 0.00843135 0.0229064 -0.0211514
         vertex 0.00855549 0.0235601 -0.0211229
         vertex 0.00901301 0.0231203 -0.0211421
      endloop
   endfacet
   facet normal 0 0.0436194 -0.999048
      outer loop
         vertex 0.00918285 0.0235986 -0.0211212
         vertex 0.00901301 0.0231203 -0.0211421
         vertex 0.00855549 0.0235601 -0.0211229
      endloop
   endfacet
   facet normal 0 0.0436194 -0.999048
      outer loop
         vertex 0.00794293 0.0235958 -0.0211213
         vertex 0.00813336 0.0241511 -0.0210971
         vertex 0.00855549 0.0235601 -0.0211229
      endloop
   endfacet
   facet normal 0 0.0436194 -0.999048
      outer loop
         vertex 0.0105091 0.0229064 -0.0211514
         vertex 0.00990547 0.0229064 -0.0211514
         vertex 0.00959637 0.0235986 -0.0211212
      endloop
   endfacet
   facet normal 0 0.0436194 -0.999048
      outer loop
         vertex 0.00877253 0.024154 -0.0210969
         vertex 0.00881771 0.0242703 -0.0210919
         vertex 0.00936441 0.0241451 -0.0210973
      endloop
   endfacet
   facet normal 0 0.0436194 -0.999048
      outer loop
         vertex 0.00855549 0.0235601 -0.0211229
         vertex 0.00843135 0.0229064 -0.0211514
         vertex 0.00829603 0.023099 -0.021143
      endloop
   endfacet
   facet normal 0 0.0436194 -0.999048
      outer loop
         vertex 0.00959637 0.0235986 -0.0211212
         vertex 0.00970245 0.0246231 -0.0210765
         vertex 0.0105091 0.0229064 -0.0211514
      endloop
   endfacet
   facet normal 0 0.0436194 -0.999048
      outer loop
         vertex 0.00901301 0.0231203 -0.0211421
         vertex 0.00893862 0.0229064 -0.0211514
         vertex 0.00843135 0.0229064 -0.0211514
      endloop
   endfacet
   facet normal 0 0.0436194 -0.999048
      outer loop
         vertex 0.00707218 0.0248936 -0.0210646
         vertex 0.00786259 0.0248936 -0.0210646
         vertex 0.00773931 0.0246816 -0.0210739
      endloop
   endfacet
   facet normal 0 0.0436194 -0.999048
      outer loop
         vertex 0.00959637 0.0235986 -0.0211212
         vertex 0.00936441 0.0241451 -0.0210973
         vertex 0.00970245 0.0246231 -0.0210765
      endloop
   endfacet
   facet normal 0 0.0436194 -0.999048
      outer loop
         vertex 0.00684887 0.0229064 -0.0211514
         vertex 0.00707218 0.0248936 -0.0210646
         vertex 0.0075655 0.0241451 -0.0210973
      endloop
   endfacet
   facet normal 0 0.0436194 -0.999048
      outer loop
         vertex 0.00773931 0.0246816 -0.0210739
         vertex 0.00813336 0.0241511 -0.0210971
         vertex 0.0075655 0.0241451 -0.0210973
      endloop
   endfacet
   facet normal 0 0.0436194 -0.999048
      outer loop
         vertex 0.0090539 0.0248936 -0.0210646
         vertex 0.00985971 0.0248936 -0.0210646
         vertex 0.00970245 0.0246231 -0.0210765
      endloop
   endfacet
   facet normal 0 0.0436194 -0.999048
      outer loop
         vertex 0.0075655 0.0241451 -0.0210973
         vertex 0.00752973 0.0235986 -0.0211212
         vertex 0.00684887 0.0229064 -0.0211514
      endloop
   endfacet
   facet normal 0 0.0436194 -0.999048
      outer loop
         vertex 0.00936441 0.0241451 -0.0210973
         vertex 0.0090539 0.0248936 -0.0210646
         vertex 0.00970245 0.0246231 -0.0210765
      endloop
   endfacet
   facet normal 0 0.0436194 -0.999048
      outer loop
         vertex 0.00881771 0.0242703 -0.0210919
         vertex 0.0090539 0.0248936 -0.0210646
         vertex 0.00936441 0.0241451 -0.0210973
      endloop
   endfacet
   facet normal 0 0.0436194 -0.999048
      outer loop
         vertex 0.00752973 0.0235986 -0.0211212
         vertex 0.00746137 0.0229064 -0.0211514
         vertex 0.00684887 0.0229064 -0.0211514
      endloop
   endfacet
endsolid 1111. Units = meters