solid 1111. STL generated by ONSHAPE BY PTC INC, 1.216. Units = meters
   facet normal -4.33778e-06 -1 1.10184e-06
      outer loop
         vertex 0.175403 -0.000981694 0.00460126
         vertex 0.175442 -0.000981694 0.00458513
         vertex 0.175502 -0.000981694 0.00474409
      endloop
   endfacet
   facet normal -4.33778e-06 -1 1.10184e-06
      outer loop
         vertex 0.175366 -0.000981694 0.0046212
         vertex 0.175475 -0.000981694 0.00476026
         vertex 0.175449 -0.000981694 0.00477912
      endloop
   endfacet
   facet normal -4.33778e-06 -1 1.10184e-06
      outer loop
         vertex 0.175475 -0.000981694 0.00476026
         vertex 0.175366 -0.000981694 0.0046212
         vertex 0.175403 -0.000981694 0.00460126
      endloop
   endfacet
   facet normal -4.33778e-06 -1 1.10184e-06
      outer loop
         vertex 0.175502 -0.000981694 0.00474409
         vertex 0.175475 -0.000981694 0.00476026
         vertex 0.175403 -0.000981694 0.00460126
      endloop
   endfacet
   facet normal -4.33778e-06 -1 1.10184e-06
      outer loop
         vertex 0.175515 -0.000981694 0.00457118
         vertex 0.175589 -0.000981695 0.00456374
         vertex 0.175592 -0.000981695 0.00471338
      endloop
   endfacet
   facet normal -4.33778e-06 -1 1.10184e-06
      outer loop
         vertex 0.175222 -0.000981693 0.00476965
         vertex 0.175385 -0.000981694 0.00484989
         vertex 0.175369 -0.000981693 0.00487739
      endloop
   endfacet
   facet normal -4.33778e-06 -1 1.10184e-06
      outer loop
         vertex 0.175245 -0.000981693 0.00473442
         vertex 0.175271 -0.000981693 0.00470164
         vertex 0.175404 -0.000981694 0.00482418
      endloop
   endfacet
   facet normal -4.33778e-06 -1 1.10184e-06
      outer loop
         vertex 0.175271 -0.000981693 0.00470164
         vertex 0.1753 -0.000981693 0.00467165
         vertex 0.175425 -0.000981694 0.00480051
      endloop
   endfacet
   facet normal -4.33778e-06 -1 1.10184e-06
      outer loop
         vertex 0.175332 -0.000981694 0.00464474
         vertex 0.175449 -0.000981694 0.00477912
         vertex 0.175425 -0.000981694 0.00480051
      endloop
   endfacet
   facet normal -4.33778e-06 -1 1.10184e-06
      outer loop
         vertex 0.175442 -0.000981694 0.00458513
         vertex 0.175531 -0.000981694 0.00473081
         vertex 0.175502 -0.000981694 0.00474409
      endloop
   endfacet
   facet normal -4.33778e-06 -1 1.10184e-06
      outer loop
         vertex 0.175515 -0.000981694 0.00457118
         vertex 0.175561 -0.000981695 0.00472054
         vertex 0.175531 -0.000981694 0.00473081
      endloop
   endfacet
   facet normal -4.33778e-06 -1 1.10184e-06
      outer loop
         vertex 0.175589 -0.000981695 0.00456374
         vertex 0.175624 -0.000981695 0.00470942
         vertex 0.175592 -0.000981695 0.00471338
      endloop
   endfacet
   facet normal -4.33778e-06 -1 1.10184e-06
      outer loop
         vertex 0.175664 -0.000981695 0.00456286
         vertex 0.175656 -0.000981695 0.00470869
         vertex 0.175624 -0.000981695 0.00470942
      endloop
   endfacet
   facet normal -4.33778e-06 -1 1.10184e-06
      outer loop
         vertex 0.175622 -0.000981694 0.00542544
         vertex 0.175648 -0.000981694 0.00526034
         vertex 0.175699 -0.000981694 0.00526837
      endloop
   endfacet
   facet normal -4.33778e-06 -1 1.10184e-06
      outer loop
         vertex 0.175555 -0.000981694 0.00540761
         vertex 0.175597 -0.000981694 0.00524729
         vertex 0.175648 -0.000981694 0.00526034
      endloop
   endfacet
   facet normal -4.33778e-06 -1 1.10184e-06
      outer loop
         vertex 0.175203 -0.000981693 0.00480696
         vertex 0.175369 -0.000981693 0.00487739
         vertex 0.175356 -0.000981693 0.00490637
      endloop
   endfacet
   facet normal -4.33778e-06 -1 1.10184e-06
      outer loop
         vertex 0.175369 -0.000981693 0.00487739
         vertex 0.175203 -0.000981693 0.00480696
         vertex 0.175222 -0.000981693 0.00476965
      endloop
   endfacet
   facet normal -4.33778e-06 -1 1.10184e-06
      outer loop
         vertex 0.175425 -0.000981694 0.00480051
         vertex 0.175404 -0.000981694 0.00482418
         vertex 0.175271 -0.000981693 0.00470164
      endloop
   endfacet
   facet normal -4.33778e-06 -1 1.10184e-06
      outer loop
         vertex 0.175449 -0.000981694 0.00477912
         vertex 0.175332 -0.000981694 0.00464474
         vertex 0.175366 -0.000981694 0.0046212
      endloop
   endfacet
   facet normal -4.33778e-06 -1 1.10184e-06
      outer loop
         vertex 0.175592 -0.000981695 0.00471338
         vertex 0.175561 -0.000981695 0.00472054
         vertex 0.175515 -0.000981694 0.00457118
      endloop
   endfacet
   facet normal -4.33778e-06 -1 1.10184e-06
      outer loop
         vertex 0.175664 -0.000981695 0.00456286
         vertex 0.175687 -0.000981695 0.00471121
         vertex 0.175656 -0.000981695 0.00470869
      endloop
   endfacet
   facet normal -4.33778e-06 -1 1.10184e-06
      outer loop
         vertex 0.175691 -0.000981694 0.00543642
         vertex 0.175699 -0.000981694 0.00526837
         vertex 0.175751 -0.000981695 0.00527129
      endloop
   endfacet
   facet normal -4.33778e-06 -1 1.10184e-06
      outer loop
         vertex 0.175648 -0.000981694 0.00526034
         vertex 0.175622 -0.000981694 0.00542544
         vertex 0.175555 -0.000981694 0.00540761
      endloop
   endfacet
   facet normal -4.33778e-06 -1 1.10184e-06
      outer loop
         vertex 0.17549 -0.000981693 0.0053831
         vertex 0.175548 -0.000981694 0.00522935
         vertex 0.175597 -0.000981694 0.00524729
      endloop
   endfacet
   facet normal -4.33778e-06 -1 1.10184e-06
      outer loop
         vertex 0.175428 -0.000981693 0.00535217
         vertex 0.175501 -0.000981694 0.00520668
         vertex 0.175548 -0.000981694 0.00522935
      endloop
   endfacet
   facet normal -4.33778e-06 -1 1.10184e-06
      outer loop
         vertex 0.175369 -0.000981693 0.00531513
         vertex 0.175457 -0.000981694 0.00517951
         vertex 0.175501 -0.000981694 0.00520668
      endloop
   endfacet
   facet normal -4.33778e-06 -1 1.10184e-06
      outer loop
         vertex 0.175314 -0.000981693 0.00527236
         vertex 0.175415 -0.000981693 0.0051481
         vertex 0.175457 -0.000981694 0.00517951
      endloop
   endfacet
   facet normal -4.33778e-06 -1 1.10184e-06
      outer loop
         vertex 0.175172 -0.000981693 0.00492948
         vertex 0.175346 -0.000981693 0.00493656
         vertex 0.175339 -0.000981693 0.00496762
      endloop
   endfacet
   facet normal -4.33778e-06 -1 1.10184e-06
      outer loop
         vertex 0.175188 -0.000981693 0.00484599
         vertex 0.175356 -0.000981693 0.00490637
         vertex 0.175346 -0.000981693 0.00493656
      endloop
   endfacet
   facet normal -4.33778e-06 -1 1.10184e-06
      outer loop
         vertex 0.175222 -0.000981693 0.00476965
         vertex 0.175245 -0.000981693 0.00473442
         vertex 0.175385 -0.000981694 0.00484989
      endloop
   endfacet
   facet normal -4.33778e-06 -1 1.10184e-06
      outer loop
         vertex 0.175425 -0.000981694 0.00480051
         vertex 0.1753 -0.000981693 0.00467165
         vertex 0.175332 -0.000981694 0.00464474
      endloop
   endfacet
   facet normal -4.33778e-06 -1 1.10184e-06
      outer loop
         vertex 0.175624 -0.000981695 0.00470942
         vertex 0.175589 -0.000981695 0.00456374
         vertex 0.175664 -0.000981695 0.00456286
      endloop
   endfacet
   facet normal -4.33778e-06 -1 1.10184e-06
      outer loop
         vertex 0.17576 -0.000981695 0.00544044
         vertex 0.175751 -0.000981695 0.00527129
         vertex 0.175803 -0.000981695 0.00526909
      endloop
   endfacet
   facet normal -4.33778e-06 -1 1.10184e-06
      outer loop
         vertex 0.175699 -0.000981694 0.00526837
         vertex 0.175691 -0.000981694 0.00543642
         vertex 0.175622 -0.000981694 0.00542544
      endloop
   endfacet
   facet normal -4.33778e-06 -1 1.10184e-06
      outer loop
         vertex 0.175548 -0.000981694 0.00522935
         vertex 0.17549 -0.000981693 0.0053831
         vertex 0.175428 -0.000981693 0.00535217
      endloop
   endfacet
   facet normal -4.33778e-06 -1 1.10184e-06
      outer loop
         vertex 0.175457 -0.000981694 0.00517951
         vertex 0.175369 -0.000981693 0.00531513
         vertex 0.175314 -0.000981693 0.00527236
      endloop
   endfacet
   facet normal -4.33778e-06 -1 1.10184e-06
      outer loop
         vertex 0.175377 -0.000981693 0.00511276
         vertex 0.175202 -0.000981692 0.00513384
         vertex 0.175188 -0.000981692 0.00509475
      endloop
   endfacet
   facet normal -4.33778e-06 -1 1.10184e-06
      outer loop
         vertex 0.175377 -0.000981693 0.00511276
         vertex 0.175264 -0.000981693 0.00522429
         vertex 0.175219 -0.000981693 0.00517142
      endloop
   endfacet
   facet normal -4.33778e-06 -1 1.10184e-06
      outer loop
         vertex 0.175264 -0.000981693 0.00522429
         vertex 0.175377 -0.000981693 0.00511276
         vertex 0.175415 -0.000981693 0.0051481
      endloop
   endfacet
   facet normal -4.33778e-06 -1 1.10184e-06
      outer loop
         vertex 0.175339 -0.000981693 0.00496762
         vertex 0.17517 -0.000981693 0.00497205
         vertex 0.175172 -0.000981693 0.00492948
      endloop
   endfacet
   facet normal -4.33778e-06 -1 1.10184e-06
      outer loop
         vertex 0.175356 -0.000981693 0.00490637
         vertex 0.175188 -0.000981693 0.00484599
         vertex 0.175203 -0.000981693 0.00480696
      endloop
   endfacet
   facet normal -4.33778e-06 -1 1.10184e-06
      outer loop
         vertex 0.175531 -0.000981694 0.00473081
         vertex 0.175442 -0.000981694 0.00458513
         vertex 0.175515 -0.000981694 0.00457118
      endloop
   endfacet
   facet normal -4.33778e-06 -1 1.10184e-06
      outer loop
         vertex 0.175751 -0.000981695 0.00527129
         vertex 0.17576 -0.000981695 0.00544044
         vertex 0.175691 -0.000981694 0.00543642
      endloop
   endfacet
   facet normal -4.33778e-06 -1 1.10184e-06
      outer loop
         vertex 0.175501 -0.000981694 0.00520668
         vertex 0.175428 -0.000981693 0.00535217
         vertex 0.175369 -0.000981693 0.00531513
      endloop
   endfacet
   facet normal -4.33778e-06 -1 1.10184e-06
      outer loop
         vertex 0.175188 -0.000981692 0.00509475
         vertex 0.175178 -0.000981692 0.0050545
         vertex 0.175377 -0.000981693 0.00511276
      endloop
   endfacet
   facet normal -4.33778e-06 -1 1.10184e-06
      outer loop
         vertex 0.175415 -0.000981693 0.0051481
         vertex 0.175314 -0.000981693 0.00527236
         vertex 0.175264 -0.000981693 0.00522429
      endloop
   endfacet
   facet normal -4.33778e-06 -1 1.10184e-06
      outer loop
         vertex 0.175728 -0.000981695 0.00496762
         vertex 0.175751 -0.000981695 0.00511276
         vertex 0.175377 -0.000981693 0.00511276
      endloop
   endfacet
   facet normal -4.33778e-06 -1 1.10184e-06
      outer loop
         vertex 0.175339 -0.000981693 0.00496762
         vertex 0.175172 -0.000981692 0.00501347
         vertex 0.17517 -0.000981693 0.00497205
      endloop
   endfacet
   facet normal -4.33778e-06 -1 1.10184e-06
      outer loop
         vertex 0.175404 -0.000981694 0.00482418
         vertex 0.175385 -0.000981694 0.00484989
         vertex 0.175245 -0.000981693 0.00473442
      endloop
   endfacet
   facet normal -4.33778e-06 -1 1.10184e-06
      outer loop
         vertex 0.175597 -0.000981694 0.00524729
         vertex 0.175555 -0.000981694 0.00540761
         vertex 0.17549 -0.000981693 0.0053831
      endloop
   endfacet
   facet normal -4.33778e-06 -1 1.10184e-06
      outer loop
         vertex 0.175219 -0.000981693 0.00517142
         vertex 0.175202 -0.000981692 0.00513384
         vertex 0.175377 -0.000981693 0.00511276
      endloop
   endfacet
   facet normal -4.33778e-06 -1 1.10184e-06
      outer loop
         vertex 0.175377 -0.000981693 0.00511276
         vertex 0.175172 -0.000981692 0.00501347
         vertex 0.175339 -0.000981693 0.00496762
      endloop
   endfacet
   facet normal -4.33778e-06 -1 1.10184e-06
      outer loop
         vertex 0.175346 -0.000981693 0.00493656
         vertex 0.175178 -0.000981693 0.00488732
         vertex 0.175188 -0.000981693 0.00484599
      endloop
   endfacet
   facet normal -4.33778e-06 -1 1.10184e-06
      outer loop
         vertex 0.175178 -0.000981692 0.0050545
         vertex 0.175172 -0.000981692 0.00501347
         vertex 0.175377 -0.000981693 0.00511276
      endloop
   endfacet
   facet normal -4.33778e-06 -1 1.10184e-06
      outer loop
         vertex 0.175172 -0.000981693 0.00492948
         vertex 0.175178 -0.000981693 0.00488732
         vertex 0.175346 -0.000981693 0.00493656
      endloop
   endfacet
   facet normal -4.33778e-06 -1 1.10184e-06
      outer loop
         vertex 0.175377 -0.000981693 0.00511276
         vertex 0.175339 -0.000981693 0.00496762
         vertex 0.175728 -0.000981695 0.00496762
      endloop
   endfacet
   facet normal -4.33778e-06 -1 1.10184e-06
      outer loop
         vertex 0.175803 -0.000981695 0.00526909
         vertex 0.17583 -0.000981695 0.00543745
         vertex 0.17576 -0.000981695 0.00544044
      endloop
   endfacet
endsolid 1111. Units = meters