solid 1111. STL generated by ONSHAPE BY PTC INC, 1.216. Units = meters
   facet normal 0 0.0436194 -0.999048
      outer loop
         vertex -0.00709002 0.0241914 -0.0210953
         vertex -0.00764811 0.0239394 -0.0211063
         vertex -0.0076776 0.0239996 -0.0211037
      endloop
   endfacet
   facet normal 0 0.0436194 -0.999048
      outer loop
         vertex -0.00709002 0.0241914 -0.0210953
         vertex -0.00745494 0.0237143 -0.0211161
         vertex -0.00751335 0.0237646 -0.0211139
      endloop
   endfacet
   facet normal 0 0.0436194 -0.999048
      outer loop
         vertex -0.00709002 0.0241914 -0.0210953
         vertex -0.00770586 0.024076 -0.0211003
         vertex -0.00772486 0.0241482 -0.0210972
      endloop
   endfacet
   facet normal 0 0.0436194 -0.999048
      outer loop
         vertex -0.00709002 0.0241914 -0.0210953
         vertex -0.00761172 0.0238807 -0.0211089
         vertex -0.00764811 0.0239394 -0.0211063
      endloop
   endfacet
   facet normal 0 0.0436194 -0.999048
      outer loop
         vertex -0.00751335 0.0237646 -0.0211139
         vertex -0.00756659 0.0238214 -0.0211115
         vertex -0.00709002 0.0241914 -0.0210953
      endloop
   endfacet
   facet normal 0 0.0436194 -0.999048
      outer loop
         vertex -0.0076776 0.0239996 -0.0211037
         vertex -0.00770586 0.024076 -0.0211003
         vertex -0.00709002 0.0241914 -0.0210953
      endloop
   endfacet
   facet normal 0 0.0436194 -0.999048
      outer loop
         vertex -0.00709002 0.0241914 -0.0210953
         vertex -0.00738974 0.0236684 -0.0211181
         vertex -0.00745494 0.0237143 -0.0211161
      endloop
   endfacet
   facet normal 0 0.0436194 -0.999048
      outer loop
         vertex -0.00709002 0.0241914 -0.0210953
         vertex -0.0072542 0.0235998 -0.0211211
         vertex -0.00732331 0.0236306 -0.0211198
      endloop
   endfacet
   facet normal 0 0.0436194 -0.999048
      outer loop
         vertex -0.00709597 0.0235541 -0.0211231
         vertex -0.00692155 0.0239627 -0.0211053
         vertex -0.00688066 0.0239478 -0.0211059
      endloop
   endfacet
   facet normal 0 0.0436194 -0.999048
      outer loop
         vertex -0.00756659 0.0238214 -0.0211115
         vertex -0.00761172 0.0238807 -0.0211089
         vertex -0.00709002 0.0241914 -0.0210953
      endloop
   endfacet
   facet normal 0 0.0436194 -0.999048
      outer loop
         vertex -0.00709002 0.0241914 -0.0210953
         vertex -0.00717375 0.023573 -0.0211223
         vertex -0.0072542 0.0235998 -0.0211211
      endloop
   endfacet
   facet normal 0 0.0436194 -0.999048
      outer loop
         vertex -0.00709597 0.0235541 -0.0211231
         vertex -0.00695482 0.0239787 -0.0211046
         vertex -0.00692155 0.0239627 -0.0211053
      endloop
   endfacet
   facet normal 0 0.0436194 -0.999048
      outer loop
         vertex -0.00732331 0.0236306 -0.0211198
         vertex -0.00738974 0.0236684 -0.0211181
         vertex -0.00709002 0.0241914 -0.0210953
      endloop
   endfacet
   facet normal 0 0.0436194 -0.999048
      outer loop
         vertex -0.00645088 0.0234323 -0.0211285
         vertex -0.00709597 0.0235541 -0.0211231
         vertex -0.00677492 0.0239262 -0.0211069
      endloop
   endfacet
   facet normal 0 0.0436194 -0.999048
      outer loop
         vertex -0.00688066 0.0239478 -0.0211059
         vertex -0.00683119 0.023935 -0.0211065
         vertex -0.00709597 0.0235541 -0.0211231
      endloop
   endfacet
   facet normal 0 0.0436194 -0.999048
      outer loop
         vertex -0.00709597 0.0235541 -0.0211231
         vertex -0.00709002 0.0241914 -0.0210953
         vertex -0.00708989 0.0241708 -0.0210962
      endloop
   endfacet
   facet normal 0 0.0436194 -0.999048
      outer loop
         vertex -0.00709002 0.0241914 -0.0210953
         vertex -0.00709597 0.0235541 -0.0211231
         vertex -0.00717375 0.023573 -0.0211223
      endloop
   endfacet
   facet normal 0 0.0436194 -0.999048
      outer loop
         vertex -0.0070884 0.0242105 -0.0210945
         vertex -0.00709002 0.0241914 -0.0210953
         vertex -0.00773412 0.0242076 -0.0210946
      endloop
   endfacet
   facet normal 0 0.0436194 -0.999048
      outer loop
         vertex -0.00702107 0.0243203 -0.0210897
         vertex -0.00736954 0.0248037 -0.0210686
         vertex -0.00728497 0.0248338 -0.0210673
      endloop
   endfacet
   facet normal 0 0.0436194 -0.999048
      outer loop
         vertex -0.00683119 0.023935 -0.0211065
         vertex -0.00677492 0.0239262 -0.0211069
         vertex -0.00709597 0.0235541 -0.0211231
      endloop
   endfacet
   facet normal 0 0.0436194 -0.999048
      outer loop
         vertex -0.00709597 0.0235541 -0.0211231
         vertex -0.00707065 0.0240933 -0.0210996
         vertex -0.00706091 0.0240755 -0.0211004
      endloop
   endfacet
   facet normal 0 0.0436194 -0.999048
      outer loop
         vertex -0.00708989 0.0241708 -0.0210962
         vertex -0.00708789 0.0241501 -0.0210971
         vertex -0.00709597 0.0235541 -0.0211231
      endloop
   endfacet
   facet normal 0 0.0436194 -0.999048
      outer loop
         vertex -0.00773412 0.0242076 -0.0210946
         vertex -0.00773793 0.0242775 -0.0210915
         vertex -0.0070884 0.0242105 -0.0210945
      endloop
   endfacet
   facet normal 0 0.0436194 -0.999048
      outer loop
         vertex -0.00773462 0.0243622 -0.0210879
         vertex -0.00708547 0.0242263 -0.0210938
         vertex -0.0070884 0.0242105 -0.0210945
      endloop
   endfacet
   facet normal 0 0.0436194 -0.999048
      outer loop
         vertex -0.00772825 0.0244095 -0.0210858
         vertex -0.00708124 0.0242409 -0.0210931
         vertex -0.00708547 0.0242263 -0.0210938
      endloop
   endfacet
   facet normal 0 0.0436194 -0.999048
      outer loop
         vertex -0.00728497 0.0248338 -0.0210673
         vertex -0.00699531 0.0243366 -0.021089
         vertex -0.0070029 0.0243322 -0.0210892
      endloop
   endfacet
   facet normal 0 0.0436194 -0.999048
      outer loop
         vertex -0.00699531 0.0243366 -0.021089
         vertex -0.00728497 0.0248338 -0.0210673
         vertex -0.00717429 0.024862 -0.021066
      endloop
   endfacet
   facet normal 0 0.0436194 -0.999048
      outer loop
         vertex -0.00709597 0.0235541 -0.0211231
         vertex -0.00698249 0.0239955 -0.0211039
         vertex -0.00695482 0.0239787 -0.0211046
      endloop
   endfacet
   facet normal 0 0.0436194 -0.999048
      outer loop
         vertex -0.00709597 0.0235541 -0.0211231
         vertex -0.00707863 0.0241124 -0.0210988
         vertex -0.00707065 0.0240933 -0.0210996
      endloop
   endfacet
   facet normal 0 0.0436194 -0.999048
      outer loop
         vertex -0.00708789 0.0241501 -0.0210971
         vertex -0.0070842 0.024131 -0.0210979
         vertex -0.00709597 0.0235541 -0.0211231
      endloop
   endfacet
   facet normal 0 0.0436194 -0.999048
      outer loop
         vertex -0.0070884 0.0242105 -0.0210945
         vertex -0.00773793 0.0242775 -0.0210915
         vertex -0.00773462 0.0243622 -0.0210879
      endloop
   endfacet
   facet normal 0 0.0436194 -0.999048
      outer loop
         vertex -0.00708547 0.0242263 -0.0210938
         vertex -0.00773462 0.0243622 -0.0210879
         vertex -0.00772825 0.0244095 -0.0210858
      endloop
   endfacet
   facet normal 0 0.0436194 -0.999048
      outer loop
         vertex -0.00770712 0.0244845 -0.0210825
         vertex -0.00768806 0.0245284 -0.0210806
         vertex -0.00707516 0.0242561 -0.0210925
      endloop
   endfacet
   facet normal 0 0.0436194 -0.999048
      outer loop
         vertex -0.0070481 0.0242967 -0.0210907
         vertex -0.00749868 0.024735 -0.0210716
         vertex -0.00743673 0.0247721 -0.02107
      endloop
   endfacet
   facet normal 0 0.0436194 -0.999048
      outer loop
         vertex -0.00703714 0.0243074 -0.0210902
         vertex -0.00743673 0.0247721 -0.02107
         vertex -0.00736954 0.0248037 -0.0210686
      endloop
   endfacet
   facet normal 0 0.0436194 -0.999048
      outer loop
         vertex -0.00717429 0.024862 -0.021066
         vertex -0.00697132 0.0243482 -0.0210885
         vertex -0.00699531 0.0243366 -0.021089
      endloop
   endfacet
   facet normal 0 0.0436194 -0.999048
      outer loop
         vertex -0.00717429 0.024862 -0.021066
         vertex -0.00704707 0.0248811 -0.0210652
         vertex -0.00694514 0.0243577 -0.021088
      endloop
   endfacet
   facet normal 0 0.0436194 -0.999048
      outer loop
         vertex -0.00678685 0.0243768 -0.0210872
         vertex -0.00682862 0.0248936 -0.0210646
         vertex -0.00514659 0.0248936 -0.0210646
      endloop
   endfacet
   facet normal 0 0.0436194 -0.999048
      outer loop
         vertex -0.00709597 0.0235541 -0.0211231
         vertex -0.00700754 0.0240144 -0.021103
         vertex -0.00698249 0.0239955 -0.0211039
      endloop
   endfacet
   facet normal 0 0.0436194 -0.999048
      outer loop
         vertex -0.0070842 0.024131 -0.0210979
         vertex -0.00707863 0.0241124 -0.0210988
         vertex -0.00709597 0.0235541 -0.0211231
      endloop
   endfacet
   facet normal 0 0.0436194 -0.999048
      outer loop
         vertex -0.0068017 0.0229064 -0.0211514
         vertex -0.00721495 0.0234272 -0.0211287
         vertex -0.00709597 0.0235541 -0.0211231
      endloop
   endfacet
   facet normal 0 0.0436194 -0.999048
      outer loop
         vertex -0.00772825 0.0244095 -0.0210858
         vertex -0.00771887 0.0244494 -0.021084
         vertex -0.00708124 0.0242409 -0.0210931
      endloop
   endfacet
   facet normal 0 0.0436194 -0.999048
      outer loop
         vertex -0.00708124 0.0242409 -0.0210931
         vertex -0.00771887 0.0244494 -0.021084
         vertex -0.00770712 0.0244845 -0.0210825
      endloop
   endfacet
   facet normal 0 0.0436194 -0.999048
      outer loop
         vertex -0.00707516 0.0242561 -0.0210925
         vertex -0.0076658 0.0245686 -0.0210788
         vertex -0.00764088 0.0246047 -0.0210773
      endloop
   endfacet
   facet normal 0 0.0436194 -0.999048
      outer loop
         vertex -0.0070481 0.0242967 -0.0210907
         vertex -0.00750967 0.0247274 -0.0210719
         vertex -0.00749868 0.024735 -0.0210716
      endloop
   endfacet
   facet normal 0 0.0436194 -0.999048
      outer loop
         vertex -0.00728497 0.0248338 -0.0210673
         vertex -0.0070029 0.0243322 -0.0210892
         vertex -0.00702107 0.0243203 -0.0210897
      endloop
   endfacet
   facet normal 0 0.0436194 -0.999048
      outer loop
         vertex -0.00704707 0.0248811 -0.0210652
         vertex -0.006915 0.0243655 -0.0210877
         vertex -0.00694514 0.0243577 -0.021088
      endloop
   endfacet
   facet normal 0 0.0436194 -0.999048
      outer loop
         vertex -0.00704707 0.0248811 -0.0210652
         vertex -0.00682862 0.0248936 -0.0210646
         vertex -0.00686732 0.024373 -0.0210874
      endloop
   endfacet
   facet normal 0 0.0436194 -0.999048
      outer loop
         vertex -0.00514659 0.0248936 -0.0210646
         vertex -0.0050562 0.0243768 -0.0210872
         vertex -0.00678685 0.0243768 -0.0210872
      endloop
   endfacet
   facet normal 0 0.0436194 -0.999048
      outer loop
         vertex -0.00709597 0.0235541 -0.0211231
         vertex -0.00702922 0.0240347 -0.0211022
         vertex -0.00700754 0.0240144 -0.021103
      endloop
   endfacet
   facet normal 0 0.0436194 -0.999048
      outer loop
         vertex -0.00706091 0.0240755 -0.0211004
         vertex -0.00704686 0.0240552 -0.0211013
         vertex -0.00709597 0.0235541 -0.0211231
      endloop
   endfacet
   facet normal 0 0.0436194 -0.999048
      outer loop
         vertex -0.0068017 0.0229064 -0.0211514
         vertex -0.00732507 0.0232927 -0.0211345
         vertex -0.00721495 0.0234272 -0.0211287
      endloop
   endfacet
   facet normal 0 0.0436194 -0.999048
      outer loop
         vertex -0.00707516 0.0242561 -0.0210925
         vertex -0.00708124 0.0242409 -0.0210931
         vertex -0.00770712 0.0244845 -0.0210825
      endloop
   endfacet
   facet normal 0 0.0436194 -0.999048
      outer loop
         vertex -0.00707516 0.0242561 -0.0210925
         vertex -0.00768806 0.0245284 -0.0210806
         vertex -0.0076658 0.0245686 -0.0210788
      endloop
   endfacet
   facet normal 0 0.0436194 -0.999048
      outer loop
         vertex -0.00706738 0.0242709 -0.0210918
         vertex -0.00761 0.0246411 -0.0210757
         vertex -0.00756441 0.0246849 -0.0210738
      endloop
   endfacet
   facet normal 0 0.0436194 -0.999048
      outer loop
         vertex -0.00705811 0.0242848 -0.0210912
         vertex -0.00756441 0.0246849 -0.0210738
         vertex -0.00750967 0.0247274 -0.0210719
      endloop
   endfacet
   facet normal 0 0.0436194 -0.999048
      outer loop
         vertex -0.00736954 0.0248037 -0.0210686
         vertex -0.00702107 0.0243203 -0.0210897
         vertex -0.00703714 0.0243074 -0.0210902
      endloop
   endfacet
   facet normal 0 0.0436194 -0.999048
      outer loop
         vertex -0.00686732 0.024373 -0.0210874
         vertex -0.006915 0.0243655 -0.0210877
         vertex -0.00704707 0.0248811 -0.0210652
      endloop
   endfacet
   facet normal 0 0.0436194 -0.999048
      outer loop
         vertex -0.00678685 0.0243768 -0.0210872
         vertex -0.00679968 0.0243768 -0.0210872
         vertex -0.00682862 0.0248936 -0.0210646
      endloop
   endfacet
   facet normal 0 0.0436194 -0.999048
      outer loop
         vertex -0.00704686 0.0240552 -0.0211013
         vertex -0.00702922 0.0240347 -0.0211022
         vertex -0.00709597 0.0235541 -0.0211231
      endloop
   endfacet
   facet normal 0 0.0436194 -0.999048
      outer loop
         vertex -0.0068017 0.0229064 -0.0211514
         vertex -0.00762532 0.0229064 -0.0211514
         vertex -0.00732507 0.0232927 -0.0211345
      endloop
   endfacet
   facet normal 0 0.0436194 -0.999048
      outer loop
         vertex -0.00764088 0.0246047 -0.0210773
         vertex -0.00706738 0.0242709 -0.0210918
         vertex -0.00707516 0.0242561 -0.0210925
      endloop
   endfacet
   facet normal 0 0.0436194 -0.999048
      outer loop
         vertex -0.00706738 0.0242709 -0.0210918
         vertex -0.00764088 0.0246047 -0.0210773
         vertex -0.00761 0.0246411 -0.0210757
      endloop
   endfacet
   facet normal 0 0.0436194 -0.999048
      outer loop
         vertex -0.00743673 0.0247721 -0.02107
         vertex -0.00703714 0.0243074 -0.0210902
         vertex -0.0070481 0.0242967 -0.0210907
      endloop
   endfacet
   facet normal 0 0.0436194 -0.999048
      outer loop
         vertex -0.00679968 0.0243768 -0.0210872
         vertex -0.00686732 0.024373 -0.0210874
         vertex -0.00682862 0.0248936 -0.0210646
      endloop
   endfacet
   facet normal 0 0.0436194 -0.999048
      outer loop
         vertex -0.00709597 0.0235541 -0.0211231
         vertex -0.00645088 0.0234323 -0.0211285
         vertex -0.0068017 0.0229064 -0.0211514
      endloop
   endfacet
   facet normal 0 0.0436194 -0.999048
      outer loop
         vertex -0.00670653 0.0239223 -0.0211071
         vertex -0.00497614 0.0239223 -0.0211071
         vertex -0.00550549 0.0234323 -0.0211285
      endloop
   endfacet
   facet normal 0 0.0436194 -0.999048
      outer loop
         vertex -0.00756441 0.0246849 -0.0210738
         vertex -0.00705811 0.0242848 -0.0210912
         vertex -0.00706738 0.0242709 -0.0210918
      endloop
   endfacet
   facet normal 0 0.0436194 -0.999048
      outer loop
         vertex -0.00694514 0.0243577 -0.021088
         vertex -0.00697132 0.0243482 -0.0210885
         vertex -0.00717429 0.024862 -0.021066
      endloop
   endfacet
   facet normal 0 0.0436194 -0.999048
      outer loop
         vertex -0.00550549 0.0234323 -0.0211285
         vertex -0.00645088 0.0234323 -0.0211285
         vertex -0.00670653 0.0239223 -0.0211071
      endloop
   endfacet
   facet normal 0 0.0436194 -0.999048
      outer loop
         vertex -0.00479771 0.0229064 -0.0211514
         vertex -0.00541311 0.0229064 -0.0211514
         vertex -0.00550549 0.0234323 -0.0211285
      endloop
   endfacet
   facet normal 0 0.0436194 -0.999048
      outer loop
         vertex -0.00750967 0.0247274 -0.0210719
         vertex -0.0070481 0.0242967 -0.0210907
         vertex -0.00705811 0.0242848 -0.0210912
      endloop
   endfacet
   facet normal 0 0.0436194 -0.999048
      outer loop
         vertex -0.00550549 0.0234323 -0.0211285
         vertex -0.00497614 0.0239223 -0.0211071
         vertex -0.00479771 0.0229064 -0.0211514
      endloop
   endfacet
   facet normal 0 0.0436194 -0.999048
      outer loop
         vertex -0.00677492 0.0239262 -0.0211069
         vertex -0.00670653 0.0239223 -0.0211071
         vertex -0.00645088 0.0234323 -0.0211285
      endloop
   endfacet
   facet normal 0 0.0436194 -0.999048
      outer loop
         vertex -0.00772486 0.0241482 -0.0210972
         vertex -0.00773412 0.0242076 -0.0210946
         vertex -0.00709002 0.0241914 -0.0210953
      endloop
   endfacet
endsolid 1111. Units = meters