solid 1111. STL generated by ONSHAPE BY PTC INC, 1.216. Units = meters
   facet normal 1 0 0
      outer loop
         vertex 0.0191736 0.0117889 0.0177
         vertex 0.0191736 0.0117889 0.0155
         vertex 0.0191736 0.0119889 0.0155
      endloop
   endfacet
   facet normal 1 0 0
      outer loop
         vertex 0.0191736 0.0119889 0.0155
         vertex 0.0191736 0.0119889 0.0177
         vertex 0.0191736 0.0117889 0.0177
      endloop
   endfacet
   facet normal 0 1 0
      outer loop
         vertex 0.0171236 0.0119889 0.0177
         vertex 0.0191736 0.0119889 0.0177
         vertex 0.0184736 0.0119889 0.01705
      endloop
   endfacet
   facet normal 0 1 0
      outer loop
         vertex 0.0191736 0.0119889 0.0155
         vertex 0.0184736 0.0119889 0.0155
         vertex 0.0184736 0.0119889 0.01705
      endloop
   endfacet
   facet normal 0 1 0
      outer loop
         vertex 0.0184736 0.0119889 0.01705
         vertex 0.0191736 0.0119889 0.0177
         vertex 0.0191736 0.0119889 0.0155
      endloop
   endfacet
   facet normal 0 1 0
      outer loop
         vertex 0.0184736 0.0119889 0.01705
         vertex 0.0171236 0.0119889 0.01705
         vertex 0.0171236 0.0119889 0.0177
      endloop
   endfacet
   facet normal 0 0 1
      outer loop
         vertex 0.0171236 0.0122889 0.01705
         vertex 0.0171236 0.0119889 0.01705
         vertex 0.0184736 0.0119889 0.01705
      endloop
   endfacet
   facet normal 0 0 1
      outer loop
         vertex 0.0184736 0.0119889 0.01705
         vertex 0.0184736 0.0122889 0.01705
         vertex 0.0171236 0.0122889 0.01705
      endloop
   endfacet
   facet normal 1 0 0
      outer loop
         vertex 0.0171236 0.0122889 0.0177
         vertex 0.0171236 0.0119889 0.0177
         vertex 0.0171236 0.0119889 0.01705
      endloop
   endfacet
   facet normal 1 0 0
      outer loop
         vertex 0.0171236 0.0119889 0.01705
         vertex 0.0171236 0.0122889 0.01705
         vertex 0.0171236 0.0122889 0.0177
      endloop
   endfacet
   facet normal 1 0 0
      outer loop
         vertex 0.0184736 0.0117889 0.01545
         vertex 0.0184736 0.0122889 0.01545
         vertex 0.0184736 0.0119889 0.0155
      endloop
   endfacet
   facet normal 1 0 0
      outer loop
         vertex 0.0184736 0.0122889 0.01705
         vertex 0.0184736 0.0119889 0.01705
         vertex 0.0184736 0.0119889 0.0155
      endloop
   endfacet
   facet normal 1 0 0
      outer loop
         vertex 0.0184736 0.0119889 0.0155
         vertex 0.0184736 0.0122889 0.01545
         vertex 0.0184736 0.0122889 0.01705
      endloop
   endfacet
   facet normal 1 0 0
      outer loop
         vertex 0.0184736 0.0119889 0.0155
         vertex 0.0184736 0.0117889 0.0155
         vertex 0.0184736 0.0117889 0.01545
      endloop
   endfacet
   facet normal 0 0 1
      outer loop
         vertex 0.0190736 0.0122889 0.01545
         vertex 0.0184736 0.0122889 0.01545
         vertex 0.0184736 0.0117889 0.01545
      endloop
   endfacet
   facet normal 0 0 1
      outer loop
         vertex 0.0184736 0.0117889 0.01545
         vertex 0.0190736 0.0117889 0.01545
         vertex 0.0190736 0.0122889 0.01545
      endloop
   endfacet
   facet normal 0 1 0
      outer loop
         vertex 0.0181236 0.0122889 0.01415
         vertex 0.0184736 0.0122889 0.01545
         vertex 0.0188736 0.0122889 0.0143
      endloop
   endfacet
   facet normal 0 1 0
      outer loop
         vertex 0.0148236 0.0122889 0.0177
         vertex 0.0171236 0.0122889 0.0177
         vertex 0.0171236 0.0122889 0.01705
      endloop
   endfacet
   facet normal 0 1 0
      outer loop
         vertex 0.0170736 0.0122889 0.01425
         vertex 0.0154236 0.0122889 0.01425
         vertex 0.0154236 0.0122889 0.01555
      endloop
   endfacet
   facet normal 0 1 0
      outer loop
         vertex 0.0171236 0.0122889 0.01705
         vertex 0.0184736 0.0122889 0.01705
         vertex 0.0184736 0.0122889 0.01545
      endloop
   endfacet
   facet normal 0 1 0
      outer loop
         vertex 0.0170736 0.0122889 0.01365
         vertex 0.0170736 0.0122889 0.01425
         vertex 0.0181236 0.0122889 0.01415
      endloop
   endfacet
   facet normal 0 1 0
      outer loop
         vertex 0.0188736 0.0122889 0.0143
         vertex 0.0188736 0.0122889 0.01415
         vertex 0.0181236 0.0122889 0.01415
      endloop
   endfacet
   facet normal 0 1 0
      outer loop
         vertex 0.0171236 0.0122889 0.01705
         vertex 0.0154236 0.0122889 0.01555
         vertex 0.0148236 0.0122889 0.0177
      endloop
   endfacet
   facet normal 0 1 0
      outer loop
         vertex 0.0184736 0.0122889 0.01545
         vertex 0.0170736 0.0122889 0.01425
         vertex 0.0171236 0.0122889 0.01705
      endloop
   endfacet
   facet normal 0 1 0
      outer loop
         vertex 0.0181236 0.0122889 0.01415
         vertex 0.0170736 0.0122889 0.01425
         vertex 0.0184736 0.0122889 0.01545
      endloop
   endfacet
   facet normal 0 1 0
      outer loop
         vertex 0.0190736 0.0122889 0.01545
         vertex 0.0190736 0.0122889 0.0143
         vertex 0.0188736 0.0122889 0.0143
      endloop
   endfacet
   facet normal 0 1 0
      outer loop
         vertex 0.0154236 0.0122889 0.01555
         vertex 0.0171236 0.0122889 0.01705
         vertex 0.0170736 0.0122889 0.01425
      endloop
   endfacet
   facet normal 0 1 0
      outer loop
         vertex 0.0188736 0.0122889 0.0143
         vertex 0.0184736 0.0122889 0.01545
         vertex 0.0190736 0.0122889 0.01545
      endloop
   endfacet
   facet normal 0 1 0
      outer loop
         vertex 0.0181236 0.0122889 0.01415
         vertex 0.0181236 0.0122889 0.01365
         vertex 0.0170736 0.0122889 0.01365
      endloop
   endfacet
   facet normal 0 1 0
      outer loop
         vertex 0.0154236 0.0122889 0.01555
         vertex 0.0148236 0.0122889 0.01555
         vertex 0.0148236 0.0122889 0.0177
      endloop
   endfacet
   facet normal -1 0 0
      outer loop
         vertex 0.0148236 0.00528886 0.0177
         vertex 0.0148236 0.0117889 0.01555
         vertex 0.0148236 0.00578886 0.01555
      endloop
   endfacet
   facet normal -1 0 0
      outer loop
         vertex 0.0148236 0.00578886 0.01365
         vertex 0.0148236 0.00578886 0.01555
         vertex 0.0148236 0.0117889 0.01555
      endloop
   endfacet
   facet normal -1 0 0
      outer loop
         vertex 0.0148236 0.0117889 0.01555
         vertex 0.0148236 0.0117889 0.01365
         vertex 0.0148236 0.00578886 0.01365
      endloop
   endfacet
   facet normal -1 0 0
      outer loop
         vertex 0.0148236 0.0122889 0.0177
         vertex 0.0148236 0.0122889 0.01555
         vertex 0.0148236 0.0117889 0.01555
      endloop
   endfacet
   facet normal -1 0 0
      outer loop
         vertex 0.0148236 0.0117889 0.01555
         vertex 0.0148236 0.00528886 0.0177
         vertex 0.0148236 0.0122889 0.0177
      endloop
   endfacet
   facet normal -1 0 0
      outer loop
         vertex 0.0148236 0.00578886 0.01555
         vertex 0.0148236 0.00528886 0.01555
         vertex 0.0148236 0.00528886 0.0177
      endloop
   endfacet
   facet normal 1 0 0
      outer loop
         vertex 0.0190736 0.00528886 0.0143
         vertex 0.0190736 0.0117889 0.01545
         vertex 0.0190736 0.00578886 0.01545
      endloop
   endfacet
   facet normal 1 0 0
      outer loop
         vertex 0.0190736 0.00578886 0.0177
         vertex 0.0190736 0.00578886 0.01545
         vertex 0.0190736 0.0117889 0.01545
      endloop
   endfacet
   facet normal 1 0 0
      outer loop
         vertex 0.0190736 0.0117889 0.01545
         vertex 0.0190736 0.0117889 0.0177
         vertex 0.0190736 0.00578886 0.0177
      endloop
   endfacet
   facet normal 1 0 0
      outer loop
         vertex 0.0190736 0.0122889 0.0143
         vertex 0.0190736 0.0122889 0.01545
         vertex 0.0190736 0.0117889 0.01545
      endloop
   endfacet
   facet normal 1 0 0
      outer loop
         vertex 0.0190736 0.0117889 0.01545
         vertex 0.0190736 0.00528886 0.0143
         vertex 0.0190736 0.0122889 0.0143
      endloop
   endfacet
   facet normal 1 0 0
      outer loop
         vertex 0.0190736 0.00578886 0.01545
         vertex 0.0190736 0.00528886 0.01545
         vertex 0.0190736 0.00528886 0.0143
      endloop
   endfacet
   facet normal 0 0 1
      outer loop
         vertex 0.0184736 0.00528886 0.01545
         vertex 0.0190736 0.00528886 0.01545
         vertex 0.0190736 0.00578886 0.01545
      endloop
   endfacet
   facet normal 0 0 1
      outer loop
         vertex 0.0190736 0.00578886 0.01545
         vertex 0.0184736 0.00578886 0.01545
         vertex 0.0184736 0.00528886 0.01545
      endloop
   endfacet
   facet normal 0 -1 0
      outer loop
         vertex 0.0181236 0.00528886 0.01415
         vertex 0.0188736 0.00528886 0.01415
         vertex 0.0188736 0.00528886 0.0143
      endloop
   endfacet
   facet normal 0 -1 0
      outer loop
         vertex 0.0190736 0.00528886 0.01545
         vertex 0.0184736 0.00528886 0.01545
         vertex 0.0188736 0.00528886 0.0143
      endloop
   endfacet
   facet normal 0 -1 0
      outer loop
         vertex 0.0184736 0.00528886 0.01545
         vertex 0.0170736 0.00528886 0.01425
         vertex 0.0181236 0.00528886 0.01415
      endloop
   endfacet
   facet normal 0 -1 0
      outer loop
         vertex 0.0148236 0.00528886 0.0177
         vertex 0.0154236 0.00528886 0.01555
         vertex 0.0171236 0.00528886 0.01705
      endloop
   endfacet
   facet normal 0 -1 0
      outer loop
         vertex 0.0171236 0.00528886 0.01705
         vertex 0.0170736 0.00528886 0.01425
         vertex 0.0184736 0.00528886 0.01545
      endloop
   endfacet
   facet normal 0 -1 0
      outer loop
         vertex 0.0170736 0.00528886 0.01425
         vertex 0.0171236 0.00528886 0.01705
         vertex 0.0154236 0.00528886 0.01555
      endloop
   endfacet
   facet normal 0 -1 0
      outer loop
         vertex 0.0188736 0.00528886 0.0143
         vertex 0.0184736 0.00528886 0.01545
         vertex 0.0181236 0.00528886 0.01415
      endloop
   endfacet
   facet normal 0 -1 0
      outer loop
         vertex 0.0170736 0.00528886 0.01365
         vertex 0.0181236 0.00528886 0.01365
         vertex 0.0181236 0.00528886 0.01415
      endloop
   endfacet
   facet normal 0 -1 0
      outer loop
         vertex 0.0148236 0.00528886 0.0177
         vertex 0.0148236 0.00528886 0.01555
         vertex 0.0154236 0.00528886 0.01555
      endloop
   endfacet
   facet normal 0 -1 0
      outer loop
         vertex 0.0154236 0.00528886 0.01555
         vertex 0.0154236 0.00528886 0.01425
         vertex 0.0170736 0.00528886 0.01425
      endloop
   endfacet
   facet normal 0 -1 0
      outer loop
         vertex 0.0181236 0.00528886 0.01415
         vertex 0.0170736 0.00528886 0.01425
         vertex 0.0170736 0.00528886 0.01365
      endloop
   endfacet
   facet normal 0 -1 0
      outer loop
         vertex 0.0184736 0.00528886 0.01545
         vertex 0.0184736 0.00528886 0.01705
         vertex 0.0171236 0.00528886 0.01705
      endloop
   endfacet
   facet normal 0 -1 0
      outer loop
         vertex 0.0171236 0.00528886 0.01705
         vertex 0.0171236 0.00528886 0.0177
         vertex 0.0148236 0.00528886 0.0177
      endloop
   endfacet
   facet normal 0 -1 0
      outer loop
         vertex 0.0188736 0.00528886 0.0143
         vertex 0.0190736 0.00528886 0.0143
         vertex 0.0190736 0.00528886 0.01545
      endloop
   endfacet
   facet normal 0 0 1
      outer loop
         vertex 0.0184736 0.00558886 0.01705
         vertex 0.0171236 0.00558886 0.01705
         vertex 0.0171236 0.00528886 0.01705
      endloop
   endfacet
   facet normal 0 0 1
      outer loop
         vertex 0.0171236 0.00528886 0.01705
         vertex 0.0184736 0.00528886 0.01705
         vertex 0.0184736 0.00558886 0.01705
      endloop
   endfacet
   facet normal 1 0 0
      outer loop
         vertex 0.0184736 0.00528886 0.01705
         vertex 0.0184736 0.00528886 0.01545
         vertex 0.0184736 0.00558886 0.0155
      endloop
   endfacet
   facet normal 1 0 0
      outer loop
         vertex 0.0184736 0.00578886 0.01545
         vertex 0.0184736 0.00578886 0.0155
         vertex 0.0184736 0.00558886 0.0155
      endloop
   endfacet
   facet normal 1 0 0
      outer loop
         vertex 0.0184736 0.00558886 0.0155
         vertex 0.0184736 0.00528886 0.01545
         vertex 0.0184736 0.00578886 0.01545
      endloop
   endfacet
   facet normal 1 0 0
      outer loop
         vertex 0.0184736 0.00558886 0.0155
         vertex 0.0184736 0.00558886 0.01705
         vertex 0.0184736 0.00528886 0.01705
      endloop
   endfacet
   facet normal 0 -1 0
      outer loop
         vertex 0.0191736 0.00558886 0.0155
         vertex 0.0191736 0.00558886 0.0177
         vertex 0.0184736 0.00558886 0.01705
      endloop
   endfacet
   facet normal 0 -1 0
      outer loop
         vertex 0.0171236 0.00558886 0.0177
         vertex 0.0171236 0.00558886 0.01705
         vertex 0.0184736 0.00558886 0.01705
      endloop
   endfacet
   facet normal 0 -1 0
      outer loop
         vertex 0.0184736 0.00558886 0.01705
         vertex 0.0191736 0.00558886 0.0177
         vertex 0.0171236 0.00558886 0.0177
      endloop
   endfacet
   facet normal 0 -1 0
      outer loop
         vertex 0.0184736 0.00558886 0.01705
         vertex 0.0184736 0.00558886 0.0155
         vertex 0.0191736 0.00558886 0.0155
      endloop
   endfacet
   facet normal 1 0 0
      outer loop
         vertex 0.0171236 0.00558886 0.01705
         vertex 0.0171236 0.00558886 0.0177
         vertex 0.0171236 0.00528886 0.0177
      endloop
   endfacet
   facet normal 1 0 0
      outer loop
         vertex 0.0171236 0.00528886 0.0177
         vertex 0.0171236 0.00528886 0.01705
         vertex 0.0171236 0.00558886 0.01705
      endloop
   endfacet
endsolid 1111. Units = meters