solid 1111. STL generated by ONSHAPE BY PTC INC, 1.216. Units = meters
   facet normal -4.33778e-06 -1 1.10184e-06
      outer loop
         vertex 0.17351 -0.000981686 0.00457312
         vertex 0.173494 -0.000981686 0.00457641
         vertex 0.173498 -0.000981686 0.00457499
      endloop
   endfacet
   facet normal -4.33778e-06 -1 1.10184e-06
      outer loop
         vertex 0.173622 -0.000981686 0.00457312
         vertex 0.173634 -0.000981686 0.00457501
         vertex 0.173638 -0.000981686 0.00457646
      endloop
   endfacet
   facet normal -4.33778e-06 -1 1.10184e-06
      outer loop
         vertex 0.173622 -0.000981686 0.00457312
         vertex 0.173626 -0.000981686 0.00457334
         vertex 0.17363 -0.000981686 0.00457397
      endloop
   endfacet
   facet normal -4.33778e-06 -1 1.10184e-06
      outer loop
         vertex 0.173498 -0.000981686 0.00457499
         vertex 0.173502 -0.000981686 0.00457396
         vertex 0.17351 -0.000981686 0.00457312
      endloop
   endfacet
   facet normal -4.33778e-06 -1 1.10184e-06
      outer loop
         vertex 0.17351 -0.000981686 0.00457312
         vertex 0.173487 -0.000981686 0.00458039
         vertex 0.173491 -0.000981686 0.00457822
      endloop
   endfacet
   facet normal -4.33778e-06 -1 1.10184e-06
      outer loop
         vertex 0.173914 -0.000981687 0.00526246
         vertex 0.173951 -0.000981687 0.00547226
         vertex 0.173922 -0.000981687 0.00547309
      endloop
   endfacet
   facet normal -4.33778e-06 -1 1.10184e-06
      outer loop
         vertex 0.173906 -0.000981687 0.00526347
         vertex 0.173922 -0.000981687 0.00547309
         vertex 0.173894 -0.000981686 0.00547084
      endloop
   endfacet
   facet normal -4.33778e-06 -1 1.10184e-06
      outer loop
         vertex 0.173622 -0.000981686 0.00457312
         vertex 0.173657 -0.000981686 0.00459593
         vertex 0.173659 -0.000981686 0.00459967
      endloop
   endfacet
   facet normal -4.33778e-06 -1 1.10184e-06
      outer loop
         vertex 0.173622 -0.000981686 0.00457312
         vertex 0.173642 -0.000981686 0.00457829
         vertex 0.173645 -0.000981686 0.00458048
      endloop
   endfacet
   facet normal -4.33778e-06 -1 1.10184e-06
      outer loop
         vertex 0.17363 -0.000981686 0.00457397
         vertex 0.173634 -0.000981686 0.00457501
         vertex 0.173622 -0.000981686 0.00457312
      endloop
   endfacet
   facet normal -4.33778e-06 -1 1.10184e-06
      outer loop
         vertex 0.173491 -0.000981686 0.00457822
         vertex 0.173494 -0.000981686 0.00457641
         vertex 0.17351 -0.000981686 0.00457312
      endloop
   endfacet
   facet normal -4.33778e-06 -1 1.10184e-06
      outer loop
         vertex 0.17351 -0.000981686 0.00457312
         vertex 0.173481 -0.000981686 0.0045857
         vertex 0.173484 -0.000981686 0.00458289
      endloop
   endfacet
   facet normal -4.33778e-06 -1 1.10184e-06
      outer loop
         vertex 0.17398 -0.000981687 0.00546836
         vertex 0.173951 -0.000981687 0.00547226
         vertex 0.173914 -0.000981687 0.00526246
      endloop
   endfacet
   facet normal -4.33778e-06 -1 1.10184e-06
      outer loop
         vertex 0.173894 -0.000981686 0.00547084
         vertex 0.173898 -0.000981687 0.00526363
         vertex 0.173906 -0.000981687 0.00526347
      endloop
   endfacet
   facet normal -4.33778e-06 -1 1.10184e-06
      outer loop
         vertex 0.173898 -0.000981687 0.00526363
         vertex 0.173894 -0.000981686 0.00547084
         vertex 0.173866 -0.000981686 0.00546553
      endloop
   endfacet
   facet normal -4.33778e-06 -1 1.10184e-06
      outer loop
         vertex 0.17389 -0.000981687 0.00526295
         vertex 0.173866 -0.000981686 0.00546553
         vertex 0.173838 -0.000981686 0.00545724
      endloop
   endfacet
   facet normal -4.33778e-06 -1 1.10184e-06
      outer loop
         vertex 0.173917 -0.000981688 0.00458339
         vertex 0.173907 -0.000981687 0.00459086
         vertex 0.17391 -0.000981687 0.00458806
      endloop
   endfacet
   facet normal -4.33778e-06 -1 1.10184e-06
      outer loop
         vertex 0.173622 -0.000981686 0.00457312
         vertex 0.173655 -0.000981686 0.00459235
         vertex 0.173657 -0.000981686 0.00459593
      endloop
   endfacet
   facet normal -4.33778e-06 -1 1.10184e-06
      outer loop
         vertex 0.173622 -0.000981686 0.00457312
         vertex 0.173651 -0.000981686 0.00458585
         vertex 0.173653 -0.000981686 0.00458898
      endloop
   endfacet
   facet normal -4.33778e-06 -1 1.10184e-06
      outer loop
         vertex 0.173638 -0.000981686 0.00457646
         vertex 0.173642 -0.000981686 0.00457829
         vertex 0.173622 -0.000981686 0.00457312
      endloop
   endfacet
   facet normal -4.33778e-06 -1 1.10184e-06
      outer loop
         vertex 0.173484 -0.000981686 0.00458289
         vertex 0.173487 -0.000981686 0.00458039
         vertex 0.17351 -0.000981686 0.00457312
      endloop
   endfacet
   facet normal -4.33778e-06 -1 1.10184e-06
      outer loop
         vertex 0.17351 -0.000981686 0.00457312
         vertex 0.173477 -0.000981686 0.00459213
         vertex 0.173479 -0.000981686 0.00458879
      endloop
   endfacet
   facet normal -4.33778e-06 -1 1.10184e-06
      outer loop
         vertex 0.17351 -0.000981686 0.00457312
         vertex 0.173474 -0.000981686 0.00459938
         vertex 0.173475 -0.000981686 0.00459567
      endloop
   endfacet
   facet normal -4.33778e-06 -1 1.10184e-06
      outer loop
         vertex 0.173943 -0.000981687 0.00525034
         vertex 0.173949 -0.000981687 0.00524545
         vertex 0.17409 -0.000981687 0.00540048
      endloop
   endfacet
   facet normal -4.33778e-06 -1 1.10184e-06
      outer loop
         vertex 0.17406 -0.000981687 0.00543889
         vertex 0.174034 -0.000981687 0.00545158
         vertex 0.173936 -0.000981687 0.00525452
      endloop
   endfacet
   facet normal -4.33778e-06 -1 1.10184e-06
      outer loop
         vertex 0.174034 -0.000981687 0.00545158
         vertex 0.174007 -0.000981687 0.00546144
         vertex 0.173929 -0.000981687 0.00525796
      endloop
   endfacet
   facet normal -4.33778e-06 -1 1.10184e-06
      outer loop
         vertex 0.174007 -0.000981687 0.00546144
         vertex 0.17398 -0.000981687 0.00546836
         vertex 0.173921 -0.000981687 0.00526062
      endloop
   endfacet
   facet normal -4.33778e-06 -1 1.10184e-06
      outer loop
         vertex 0.173922 -0.000981687 0.00547309
         vertex 0.173906 -0.000981687 0.00526347
         vertex 0.173914 -0.000981687 0.00526246
      endloop
   endfacet
   facet normal -4.33778e-06 -1 1.10184e-06
      outer loop
         vertex 0.173838 -0.000981686 0.00545724
         vertex 0.173882 -0.000981687 0.00526143
         vertex 0.17389 -0.000981687 0.00526295
      endloop
   endfacet
   facet normal -4.33778e-06 -1 1.10184e-06
      outer loop
         vertex 0.173882 -0.000981687 0.00526143
         vertex 0.173838 -0.000981686 0.00545724
         vertex 0.173812 -0.000981686 0.00544605
      endloop
   endfacet
   facet normal -4.33778e-06 -1 1.10184e-06
      outer loop
         vertex 0.173874 -0.000981687 0.00525908
         vertex 0.173812 -0.000981686 0.00544605
         vertex 0.173787 -0.000981686 0.0054321
      endloop
   endfacet
   facet normal -4.33778e-06 -1 1.10184e-06
      outer loop
         vertex 0.174051 -0.000981688 0.00457796
         vertex 0.174076 -0.000981688 0.00458788
         vertex 0.174078 -0.000981688 0.00459053
      endloop
   endfacet
   facet normal -4.33778e-06 -1 1.10184e-06
      outer loop
         vertex 0.174061 -0.000981688 0.00457906
         vertex 0.174068 -0.000981688 0.00458161
         vertex 0.174071 -0.000981688 0.00458339
      endloop
   endfacet
   facet normal -4.33778e-06 -1 1.10184e-06
      outer loop
         vertex 0.174074 -0.000981688 0.00458549
         vertex 0.174054 -0.000981688 0.00457795
         vertex 0.174058 -0.000981688 0.00457832
      endloop
   endfacet
   facet normal -4.33778e-06 -1 1.10184e-06
      outer loop
         vertex 0.17391 -0.000981687 0.00458806
         vertex 0.173913 -0.000981688 0.00458556
         vertex 0.173917 -0.000981688 0.00458339
      endloop
   endfacet
   facet normal -4.33778e-06 -1 1.10184e-06
      outer loop
         vertex 0.173932 -0.000981688 0.00457847
         vertex 0.173901 -0.000981687 0.00460081
         vertex 0.173903 -0.000981687 0.00459727
      endloop
   endfacet
   facet normal -4.33778e-06 -1 1.10184e-06
      outer loop
         vertex 0.173653 -0.000981686 0.00458898
         vertex 0.173655 -0.000981686 0.00459235
         vertex 0.173622 -0.000981686 0.00457312
      endloop
   endfacet
   facet normal -4.33778e-06 -1 1.10184e-06
      outer loop
         vertex 0.173645 -0.000981686 0.00458048
         vertex 0.173648 -0.000981686 0.00458301
         vertex 0.173622 -0.000981686 0.00457312
      endloop
   endfacet
   facet normal -4.33778e-06 -1 1.10184e-06
      outer loop
         vertex 0.173479 -0.000981686 0.00458879
         vertex 0.173481 -0.000981686 0.0045857
         vertex 0.17351 -0.000981686 0.00457312
      endloop
   endfacet
   facet normal -4.33778e-06 -1 1.10184e-06
      outer loop
         vertex 0.17351 -0.000981686 0.00457312
         vertex 0.173473 -0.000981686 0.00460322
         vertex 0.173474 -0.000981686 0.00459938
      endloop
   endfacet
   facet normal -4.33778e-06 -1 1.10184e-06
      outer loop
         vertex 0.17351 -0.000981686 0.00457312
         vertex 0.173472 -0.000981686 0.00461639
         vertex 0.173472 -0.000981686 0.00461112
      endloop
   endfacet
   facet normal -4.33778e-06 -1 1.10184e-06
      outer loop
         vertex 0.173936 -0.000981687 0.00525452
         vertex 0.173943 -0.000981687 0.00525034
         vertex 0.17406 -0.000981687 0.00543889
      endloop
   endfacet
   facet normal -4.33778e-06 -1 1.10184e-06
      outer loop
         vertex 0.173921 -0.000981687 0.00526062
         vertex 0.173929 -0.000981687 0.00525796
         vertex 0.174007 -0.000981687 0.00546144
      endloop
   endfacet
   facet normal -4.33778e-06 -1 1.10184e-06
      outer loop
         vertex 0.173866 -0.000981686 0.00546553
         vertex 0.17389 -0.000981687 0.00526295
         vertex 0.173898 -0.000981687 0.00526363
      endloop
   endfacet
   facet normal -4.33778e-06 -1 1.10184e-06
      outer loop
         vertex 0.173787 -0.000981686 0.0054321
         vertex 0.173867 -0.000981687 0.00525594
         vertex 0.173874 -0.000981687 0.00525908
      endloop
   endfacet
   facet normal -4.33778e-06 -1 1.10184e-06
      outer loop
         vertex 0.174051 -0.000981688 0.00457796
         vertex 0.174081 -0.000981688 0.00459342
         vertex 0.174082 -0.000981688 0.0045965
      endloop
   endfacet
   facet normal -4.33778e-06 -1 1.10184e-06
      outer loop
         vertex 0.174051 -0.000981688 0.00457796
         vertex 0.174074 -0.000981688 0.00458549
         vertex 0.174076 -0.000981688 0.00458788
      endloop
   endfacet
   facet normal -4.33778e-06 -1 1.10184e-06
      outer loop
         vertex 0.174061 -0.000981688 0.00457906
         vertex 0.174064 -0.000981688 0.00458016
         vertex 0.174068 -0.000981688 0.00458161
      endloop
   endfacet
   facet normal -4.33778e-06 -1 1.10184e-06
      outer loop
         vertex 0.174074 -0.000981688 0.00458549
         vertex 0.174051 -0.000981688 0.00457796
         vertex 0.174054 -0.000981688 0.00457795
      endloop
   endfacet
   facet normal -4.33778e-06 -1 1.10184e-06
      outer loop
         vertex 0.173907 -0.000981687 0.00459086
         vertex 0.173924 -0.000981688 0.00458015
         vertex 0.173928 -0.000981688 0.00457911
      endloop
   endfacet
   facet normal -4.33778e-06 -1 1.10184e-06
      outer loop
         vertex 0.173917 -0.000981688 0.00458339
         vertex 0.17392 -0.000981688 0.00458158
         vertex 0.173907 -0.000981687 0.00459086
      endloop
   endfacet
   facet normal -4.33778e-06 -1 1.10184e-06
      outer loop
         vertex 0.173903 -0.000981687 0.00459727
         vertex 0.173905 -0.000981687 0.00459395
         vertex 0.173932 -0.000981688 0.00457847
      endloop
   endfacet
   facet normal -4.33778e-06 -1 1.10184e-06
      outer loop
         vertex 0.173932 -0.000981688 0.00457847
         vertex 0.173899 -0.000981687 0.00460834
         vertex 0.1739 -0.000981687 0.00460451
      endloop
   endfacet
   facet normal -4.33778e-06 -1 1.10184e-06
      outer loop
         vertex 0.173932 -0.000981688 0.00457847
         vertex 0.17396 -0.000981687 0.00493884
         vertex 0.173898 -0.000981687 0.0046215
      endloop
   endfacet
   facet normal -4.33778e-06 -1 1.10184e-06
      outer loop
         vertex 0.173648 -0.000981686 0.00458301
         vertex 0.173651 -0.000981686 0.00458585
         vertex 0.173622 -0.000981686 0.00457312
      endloop
   endfacet
   facet normal -4.33778e-06 -1 1.10184e-06
      outer loop
         vertex 0.173472 -0.000981686 0.00461639
         vertex 0.17351 -0.000981686 0.00457312
         vertex 0.173622 -0.000981686 0.00457312
      endloop
   endfacet
   facet normal -4.33778e-06 -1 1.10184e-06
      outer loop
         vertex 0.173475 -0.000981686 0.00459567
         vertex 0.173477 -0.000981686 0.00459213
         vertex 0.17351 -0.000981686 0.00457312
      endloop
   endfacet
   facet normal -4.33778e-06 -1 1.10184e-06
      outer loop
         vertex 0.173472 -0.000981686 0.00461112
         vertex 0.173472 -0.000981686 0.00460715
         vertex 0.17351 -0.000981686 0.00457312
      endloop
   endfacet
   facet normal -4.33778e-06 -1 1.10184e-06
      outer loop
         vertex 0.174175 -0.000981688 0.00517419
         vertex 0.174167 -0.000981688 0.00522246
         vertex 0.173983 -0.000981687 0.00516716
      endloop
   endfacet
   facet normal -4.33778e-06 -1 1.10184e-06
      outer loop
         vertex 0.173929 -0.000981687 0.00525796
         vertex 0.173936 -0.000981687 0.00525452
         vertex 0.174034 -0.000981687 0.00545158
      endloop
   endfacet
   facet normal -4.33778e-06 -1 1.10184e-06
      outer loop
         vertex 0.173812 -0.000981686 0.00544605
         vertex 0.173874 -0.000981687 0.00525908
         vertex 0.173882 -0.000981687 0.00526143
      endloop
   endfacet
   facet normal -4.33778e-06 -1 1.10184e-06
      outer loop
         vertex 0.173593 -0.000981685 0.00518217
         vertex 0.173756 -0.000981686 0.00509089
         vertex 0.173776 -0.000981686 0.00513288
      endloop
   endfacet
   facet normal -4.33778e-06 -1 1.10184e-06
      outer loop
         vertex 0.174078 -0.000981688 0.00459053
         vertex 0.174081 -0.000981688 0.00459342
         vertex 0.174051 -0.000981688 0.00457796
      endloop
   endfacet
   facet normal -4.33778e-06 -1 1.10184e-06
      outer loop
         vertex 0.174058 -0.000981688 0.00457832
         vertex 0.174061 -0.000981688 0.00457906
         vertex 0.174074 -0.000981688 0.00458549
      endloop
   endfacet
   facet normal -4.33778e-06 -1 1.10184e-06
      outer loop
         vertex 0.17392 -0.000981688 0.00458158
         vertex 0.173924 -0.000981688 0.00458015
         vertex 0.173907 -0.000981687 0.00459086
      endloop
   endfacet
   facet normal -4.33778e-06 -1 1.10184e-06
      outer loop
         vertex 0.1739 -0.000981687 0.00460451
         vertex 0.173901 -0.000981687 0.00460081
         vertex 0.173932 -0.000981688 0.00457847
      endloop
   endfacet
   facet normal -4.33778e-06 -1 1.10184e-06
      outer loop
         vertex 0.173898 -0.000981687 0.0046215
         vertex 0.173898 -0.000981687 0.00461621
         vertex 0.173932 -0.000981688 0.00457847
      endloop
   endfacet
   facet normal -4.33778e-06 -1 1.10184e-06
      outer loop
         vertex 0.173622 -0.000981686 0.00457312
         vertex 0.17366 -0.000981686 0.00460355
         vertex 0.173472 -0.000981686 0.00461639
      endloop
   endfacet
   facet normal -4.33778e-06 -1 1.10184e-06
      outer loop
         vertex 0.173472 -0.000981686 0.00460715
         vertex 0.173473 -0.000981686 0.00460322
         vertex 0.17351 -0.000981686 0.00457312
      endloop
   endfacet
   facet normal -4.33778e-06 -1 1.10184e-06
      outer loop
         vertex 0.174167 -0.000981688 0.00522246
         vertex 0.173978 -0.000981687 0.00519008
         vertex 0.173983 -0.000981687 0.00516716
      endloop
   endfacet
   facet normal -4.33778e-06 -1 1.10184e-06
      outer loop
         vertex 0.174155 -0.000981688 0.00526971
         vertex 0.17397 -0.000981687 0.00521237
         vertex 0.173978 -0.000981687 0.00519008
      endloop
   endfacet
   facet normal -4.33778e-06 -1 1.10184e-06
      outer loop
         vertex 0.173914 -0.000981687 0.00526246
         vertex 0.173921 -0.000981687 0.00526062
         vertex 0.17398 -0.000981687 0.00546836
      endloop
   endfacet
   facet normal -4.33778e-06 -1 1.10184e-06
      outer loop
         vertex 0.173764 -0.000981686 0.00541554
         vertex 0.17386 -0.000981687 0.00525203
         vertex 0.173867 -0.000981687 0.00525594
      endloop
   endfacet
   facet normal -4.33778e-06 -1 1.10184e-06
      outer loop
         vertex 0.173764 -0.000981686 0.00541554
         vertex 0.173721 -0.000981686 0.00537582
         vertex 0.173853 -0.000981687 0.00524741
      endloop
   endfacet
   facet normal -4.33778e-06 -1 1.10184e-06
      outer loop
         vertex 0.173776 -0.000981686 0.00513288
         vertex 0.173618 -0.000981686 0.00523495
         vertex 0.173593 -0.000981685 0.00518217
      endloop
   endfacet
   facet normal -4.33778e-06 -1 1.10184e-06
      outer loop
         vertex 0.174071 -0.000981688 0.00458339
         vertex 0.174074 -0.000981688 0.00458549
         vertex 0.174061 -0.000981688 0.00457906
      endloop
   endfacet
   facet normal -4.33778e-06 -1 1.10184e-06
      outer loop
         vertex 0.173905 -0.000981687 0.00459395
         vertex 0.173907 -0.000981687 0.00459086
         vertex 0.173932 -0.000981688 0.00457847
      endloop
   endfacet
   facet normal -4.33778e-06 -1 1.10184e-06
      outer loop
         vertex 0.173898 -0.000981687 0.00461621
         vertex 0.173898 -0.000981687 0.00461225
         vertex 0.173932 -0.000981688 0.00457847
      endloop
   endfacet
   facet normal -4.33778e-06 -1 1.10184e-06
      outer loop
         vertex 0.173502 -0.000981686 0.00457396
         vertex 0.173506 -0.000981686 0.00457333
         vertex 0.17351 -0.000981686 0.00457312
      endloop
   endfacet
   facet normal -4.33778e-06 -1 1.10184e-06
      outer loop
         vertex 0.174177 -0.000981688 0.00512541
         vertex 0.174175 -0.000981688 0.00517419
         vertex 0.173987 -0.000981687 0.0051438
      endloop
   endfacet
   facet normal -4.33778e-06 -1 1.10184e-06
      outer loop
         vertex 0.173978 -0.000981687 0.00519008
         vertex 0.174167 -0.000981688 0.00522246
         vertex 0.174155 -0.000981688 0.00526971
      endloop
   endfacet
   facet normal -4.33778e-06 -1 1.10184e-06
      outer loop
         vertex 0.174138 -0.000981688 0.00531545
         vertex 0.17396 -0.000981687 0.00523382
         vertex 0.17397 -0.000981687 0.00521237
      endloop
   endfacet
   facet normal -4.33778e-06 -1 1.10184e-06
      outer loop
         vertex 0.17409 -0.000981687 0.00540048
         vertex 0.17406 -0.000981687 0.00543889
         vertex 0.173943 -0.000981687 0.00525034
      endloop
   endfacet
   facet normal -4.33778e-06 -1 1.10184e-06
      outer loop
         vertex 0.173853 -0.000981687 0.00524741
         vertex 0.17386 -0.000981687 0.00525203
         vertex 0.173764 -0.000981686 0.00541554
      endloop
   endfacet
   facet normal -4.33778e-06 -1 1.10184e-06
      outer loop
         vertex 0.173648 -0.000981686 0.00528511
         vertex 0.173798 -0.000981686 0.00517314
         vertex 0.173824 -0.000981686 0.0052114
      endloop
   endfacet
   facet normal -4.33778e-06 -1 1.10184e-06
      outer loop
         vertex 0.173618 -0.000981686 0.00523495
         vertex 0.173776 -0.000981686 0.00513288
         vertex 0.173798 -0.000981686 0.00517314
      endloop
   endfacet
   facet normal -4.33778e-06 -1 1.10184e-06
      outer loop
         vertex 0.173593 -0.000981685 0.00518217
         vertex 0.173573 -0.000981685 0.00512727
         vertex 0.173756 -0.000981686 0.00509089
      endloop
   endfacet
   facet normal -4.33778e-06 -1 1.10184e-06
      outer loop
         vertex 0.174047 -0.000981688 0.00457834
         vertex 0.174084 -0.000981688 0.00459976
         vertex 0.174085 -0.000981688 0.00460314
      endloop
   endfacet
   facet normal -4.33778e-06 -1 1.10184e-06
      outer loop
         vertex 0.174084 -0.000981688 0.00459976
         vertex 0.174047 -0.000981688 0.00457834
         vertex 0.174051 -0.000981688 0.00457796
      endloop
   endfacet
   facet normal -4.33778e-06 -1 1.10184e-06
      outer loop
         vertex 0.173898 -0.000981687 0.00461225
         vertex 0.173899 -0.000981687 0.00460834
         vertex 0.173932 -0.000981688 0.00457847
      endloop
   endfacet
   facet normal -4.33778e-06 -1 1.10184e-06
      outer loop
         vertex 0.173659 -0.000981686 0.00459967
         vertex 0.17366 -0.000981686 0.00460355
         vertex 0.173622 -0.000981686 0.00457312
      endloop
   endfacet
   facet normal -4.33778e-06 -1 1.10184e-06
      outer loop
         vertex 0.173983 -0.000981687 0.00516716
         vertex 0.173987 -0.000981687 0.0051438
         vertex 0.174175 -0.000981688 0.00517419
      endloop
   endfacet
   facet normal -4.33778e-06 -1 1.10184e-06
      outer loop
         vertex 0.17397 -0.000981687 0.00521237
         vertex 0.174155 -0.000981688 0.00526971
         vertex 0.174138 -0.000981688 0.00531545
      endloop
   endfacet
   facet normal -4.33778e-06 -1 1.10184e-06
      outer loop
         vertex 0.174116 -0.000981688 0.00535919
         vertex 0.17409 -0.000981687 0.00540048
         vertex 0.173955 -0.000981687 0.00523993
      endloop
   endfacet
   facet normal -4.33778e-06 -1 1.10184e-06
      outer loop
         vertex 0.173867 -0.000981687 0.00525594
         vertex 0.173787 -0.000981686 0.0054321
         vertex 0.173764 -0.000981686 0.00541554
      endloop
   endfacet
   facet normal -4.33778e-06 -1 1.10184e-06
      outer loop
         vertex 0.173798 -0.000981686 0.00517314
         vertex 0.173648 -0.000981686 0.00528511
         vertex 0.173618 -0.000981686 0.00523495
      endloop
   endfacet
   facet normal -4.33778e-06 -1 1.10184e-06
      outer loop
         vertex 0.173573 -0.000981685 0.00512727
         vertex 0.173559 -0.000981685 0.00507074
         vertex 0.173756 -0.000981686 0.00509089
      endloop
   endfacet
   facet normal -4.33778e-06 -1 1.10184e-06
      outer loop
         vertex 0.174047 -0.000981688 0.00457834
         vertex 0.174085 -0.000981688 0.00460661
         vertex 0.174174 -0.000981688 0.00507145
      endloop
   endfacet
   facet normal -4.33778e-06 -1 1.10184e-06
      outer loop
         vertex 0.174082 -0.000981688 0.0045965
         vertex 0.174084 -0.000981688 0.00459976
         vertex 0.174051 -0.000981688 0.00457796
      endloop
   endfacet
   facet normal -4.33778e-06 -1 1.10184e-06
      outer loop
         vertex 0.174047 -0.000981688 0.00457834
         vertex 0.174177 -0.000981688 0.00512541
         vertex 0.17396 -0.000981687 0.00493884
      endloop
   endfacet
   facet normal -4.33778e-06 -1 1.10184e-06
      outer loop
         vertex 0.173928 -0.000981688 0.00457911
         vertex 0.173932 -0.000981688 0.00457847
         vertex 0.173907 -0.000981687 0.00459086
      endloop
   endfacet
   facet normal -4.33778e-06 -1 1.10184e-06
      outer loop
         vertex 0.17396 -0.000981687 0.00493884
         vertex 0.173986 -0.000981687 0.00509089
         vertex 0.173756 -0.000981686 0.00509089
      endloop
   endfacet
   facet normal -4.33778e-06 -1 1.10184e-06
      outer loop
         vertex 0.17366 -0.000981686 0.00460355
         vertex 0.173729 -0.000981686 0.00493883
         vertex 0.173472 -0.000981686 0.00461639
      endloop
   endfacet
   facet normal -4.33778e-06 -1 1.10184e-06
      outer loop
         vertex 0.174138 -0.000981688 0.00531545
         vertex 0.174116 -0.000981688 0.00535919
         vertex 0.17396 -0.000981687 0.00523382
      endloop
   endfacet
   facet normal -4.33778e-06 -1 1.10184e-06
      outer loop
         vertex 0.173949 -0.000981687 0.00524545
         vertex 0.173955 -0.000981687 0.00523993
         vertex 0.17409 -0.000981687 0.00540048
      endloop
   endfacet
   facet normal -4.33778e-06 -1 1.10184e-06
      outer loop
         vertex 0.173682 -0.000981686 0.00533222
         vertex 0.173824 -0.000981686 0.0052114
         vertex 0.173853 -0.000981687 0.00524741
      endloop
   endfacet
   facet normal -4.33778e-06 -1 1.10184e-06
      outer loop
         vertex 0.173559 -0.000981685 0.00507074
         vertex 0.173472 -0.000981686 0.00461639
         vertex 0.173756 -0.000981686 0.00509089
      endloop
   endfacet
   facet normal -4.33778e-06 -1 1.10184e-06
      outer loop
         vertex 0.174085 -0.000981688 0.00460314
         vertex 0.174085 -0.000981688 0.00460661
         vertex 0.174047 -0.000981688 0.00457834
      endloop
   endfacet
   facet normal -4.33778e-06 -1 1.10184e-06
      outer loop
         vertex 0.173932 -0.000981688 0.00457847
         vertex 0.173936 -0.000981688 0.00457825
         vertex 0.17396 -0.000981687 0.00493884
      endloop
   endfacet
   facet normal -4.33778e-06 -1 1.10184e-06
      outer loop
         vertex 0.173729 -0.000981686 0.00493883
         vertex 0.173756 -0.000981686 0.00509089
         vertex 0.173472 -0.000981686 0.00461639
      endloop
   endfacet
   facet normal -4.33778e-06 -1 1.10184e-06
      outer loop
         vertex 0.174177 -0.000981688 0.00512541
         vertex 0.173988 -0.000981687 0.00512023
         vertex 0.173986 -0.000981687 0.00509089
      endloop
   endfacet
   facet normal -4.33778e-06 -1 1.10184e-06
      outer loop
         vertex 0.173955 -0.000981687 0.00523993
         vertex 0.17396 -0.000981687 0.00523382
         vertex 0.174116 -0.000981688 0.00535919
      endloop
   endfacet
   facet normal -4.33778e-06 -1 1.10184e-06
      outer loop
         vertex 0.173824 -0.000981686 0.0052114
         vertex 0.173682 -0.000981686 0.00533222
         vertex 0.173648 -0.000981686 0.00528511
      endloop
   endfacet
   facet normal -4.33778e-06 -1 1.10184e-06
      outer loop
         vertex 0.17396 -0.000981687 0.00493884
         vertex 0.173936 -0.000981688 0.00457825
         vertex 0.174047 -0.000981688 0.00457834
      endloop
   endfacet
   facet normal -4.33778e-06 -1 1.10184e-06
      outer loop
         vertex 0.173986 -0.000981687 0.00509089
         vertex 0.17396 -0.000981687 0.00493884
         vertex 0.174177 -0.000981688 0.00512541
      endloop
   endfacet
   facet normal -4.33778e-06 -1 1.10184e-06
      outer loop
         vertex 0.173853 -0.000981687 0.00524741
         vertex 0.173721 -0.000981686 0.00537582
         vertex 0.173682 -0.000981686 0.00533222
      endloop
   endfacet
   facet normal -4.33778e-06 -1 1.10184e-06
      outer loop
         vertex 0.173756 -0.000981686 0.00509089
         vertex 0.173729 -0.000981686 0.00493883
         vertex 0.17396 -0.000981687 0.00493884
      endloop
   endfacet
   facet normal -4.33778e-06 -1 1.10184e-06
      outer loop
         vertex 0.174174 -0.000981688 0.00507145
         vertex 0.174177 -0.000981688 0.00512541
         vertex 0.174047 -0.000981688 0.00457834
      endloop
   endfacet
   facet normal -4.33778e-06 -1 1.10184e-06
      outer loop
         vertex 0.173987 -0.000981687 0.0051438
         vertex 0.173988 -0.000981687 0.00512023
         vertex 0.174177 -0.000981688 0.00512541
      endloop
   endfacet
endsolid 1111. Units = meters