solid 1111. STL generated by ONSHAPE BY PTC INC, 1.216. Units = meters
   facet normal 0 0.0436194 -0.999048
      outer loop
         vertex 0.0120951 0.0234848 -0.0211162
         vertex 0.0123412 0.0229509 -0.0211495
         vertex 0.0122488 0.0229264 -0.0211505
      endloop
   endfacet
   facet normal 0 0.0436194 -0.999048
      outer loop
         vertex 0.0120558 0.0234676 -0.0211169
         vertex 0.0122488 0.0229264 -0.0211505
         vertex 0.0121558 0.0229115 -0.0211512
      endloop
   endfacet
   facet normal 0 0.0436194 -0.999048
      outer loop
         vertex 0.0114639 0.0229045 -0.0211515
         vertex 0.0115108 0.0234353 -0.0211233
         vertex 0.0118852 0.0234353 -0.0211233
      endloop
   endfacet
   facet normal 0 0.0436194 -0.999048
      outer loop
         vertex 0.0125894 0.0230684 -0.0211443
         vertex 0.0125151 0.0230237 -0.0211463
         vertex 0.0121646 0.0235283 -0.0211143
      endloop
   endfacet
   facet normal 0 0.0436194 -0.999048
      outer loop
         vertex 0.0121558 0.0229115 -0.0211512
         vertex 0.0120085 0.0234519 -0.0211176
         vertex 0.0120558 0.0234676 -0.0211169
      endloop
   endfacet
   facet normal 0 0.0436194 -0.999048
      outer loop
         vertex 0.0120085 0.0234519 -0.0211176
         vertex 0.0121558 0.0229115 -0.0211512
         vertex 0.0120413 0.0229045 -0.0211515
      endloop
   endfacet
   facet normal 0 0.0436194 -0.999048
      outer loop
         vertex 0.0118852 0.0234353 -0.0211233
         vertex 0.0120413 0.0229045 -0.0211515
         vertex 0.0114639 0.0229045 -0.0211515
      endloop
   endfacet
   facet normal 0 0.0436194 -0.999048
      outer loop
         vertex 0.0114576 0.023438 -0.0211182
         vertex 0.0115108 0.0234353 -0.0211233
         vertex 0.0114639 0.0229045 -0.0211515
      endloop
   endfacet
   facet normal 0 0.0436194 -0.999048
      outer loop
         vertex 0.0129637 0.0237131 -0.0211162
         vertex 0.0129509 0.0236269 -0.02112
         vertex 0.0123105 0.0237709 -0.0211037
      endloop
   endfacet
   facet normal 0 0.0436194 -0.999048
      outer loop
         vertex 0.0129509 0.0236269 -0.02112
         vertex 0.0129274 0.023533 -0.0211241
         vertex 0.0122995 0.0237282 -0.0211055
      endloop
   endfacet
   facet normal 0 0.0436194 -0.999048
      outer loop
         vertex 0.0128159 0.0232947 -0.0211345
         vertex 0.0127673 0.023229 -0.0211373
         vertex 0.0122457 0.0236143 -0.0211105
      endloop
   endfacet
   facet normal 0 0.0436194 -0.999048
      outer loop
         vertex 0.0121942 0.0235538 -0.0211131
         vertex 0.0126635 0.0231241 -0.0211419
         vertex 0.0125894 0.0230684 -0.0211443
      endloop
   endfacet
   facet normal 0 0.0436194 -0.999048
      outer loop
         vertex 0.0125151 0.0230237 -0.0211463
         vertex 0.0124322 0.0229843 -0.021148
         vertex 0.0121309 0.0235047 -0.0211153
      endloop
   endfacet
   facet normal 0 0.0436194 -0.999048
      outer loop
         vertex 0.0121309 0.0235047 -0.0211153
         vertex 0.0124322 0.0229843 -0.021148
         vertex 0.0123412 0.0229509 -0.0211495
      endloop
   endfacet
   facet normal 0 0.0436194 -0.999048
      outer loop
         vertex 0.0120413 0.0229045 -0.0211515
         vertex 0.0119638 0.0234417 -0.021118
         vertex 0.0120085 0.0234519 -0.0211176
      endloop
   endfacet
   facet normal 0 0.0436194 -0.999048
      outer loop
         vertex 0.0114639 0.0229045 -0.0211515
         vertex 0.0114147 0.0229056 -0.0211514
         vertex 0.0114576 0.023438 -0.0211182
      endloop
   endfacet
   facet normal 0 0.0436194 -0.999048
      outer loop
         vertex 0.0122995 0.0237282 -0.0211055
         vertex 0.0123105 0.0237709 -0.0211037
         vertex 0.0129509 0.0236269 -0.02112
      endloop
   endfacet
   facet normal 0 0.0436194 -0.999048
      outer loop
         vertex 0.0128971 0.0234475 -0.0211278
         vertex 0.0122832 0.0236835 -0.0211075
         vertex 0.0122995 0.0237282 -0.0211055
      endloop
   endfacet
   facet normal 0 0.0436194 -0.999048
      outer loop
         vertex 0.0128592 0.0233671 -0.0211313
         vertex 0.0122655 0.0236468 -0.0211091
         vertex 0.0122832 0.0236835 -0.0211075
      endloop
   endfacet
   facet normal 0 0.0436194 -0.999048
      outer loop
         vertex 0.0122655 0.0236468 -0.0211091
         vertex 0.0128592 0.0233671 -0.0211313
         vertex 0.0128159 0.0232947 -0.0211345
      endloop
   endfacet
   facet normal 0 0.0436194 -0.999048
      outer loop
         vertex 0.0122211 0.0235821 -0.0211119
         vertex 0.0127211 0.0231774 -0.0211396
         vertex 0.0126635 0.0231241 -0.0211419
      endloop
   endfacet
   facet normal 0 0.0436194 -0.999048
      outer loop
         vertex 0.0121309 0.0235047 -0.0211153
         vertex 0.0121646 0.0235283 -0.0211143
         vertex 0.0125151 0.0230237 -0.0211463
      endloop
   endfacet
   facet normal 0 0.0436194 -0.999048
      outer loop
         vertex 0.0122488 0.0229264 -0.0211505
         vertex 0.0120558 0.0234676 -0.0211169
         vertex 0.0120951 0.0234848 -0.0211162
      endloop
   endfacet
   facet normal 0 0.0436194 -0.999048
      outer loop
         vertex 0.0118852 0.0234353 -0.0211233
         vertex 0.0119215 0.0234363 -0.0211183
         vertex 0.0120413 0.0229045 -0.0211515
      endloop
   endfacet
   facet normal 0 0.0436194 -0.999048
      outer loop
         vertex 0.0110782 0.0229747 -0.0211484
         vertex 0.0112998 0.0234803 -0.0211163
         vertex 0.0113508 0.0234608 -0.0211172
      endloop
   endfacet
   facet normal 0 0.0436194 -0.999048
      outer loop
         vertex 0.0110782 0.0229747 -0.0211484
         vertex 0.0109683 0.0230215 -0.0211464
         vertex 0.0112479 0.0235062 -0.0211152
      endloop
   endfacet
   facet normal 0 0.0436194 -0.999048
      outer loop
         vertex 0.0105306 0.0233932 -0.0211302
         vertex 0.0110513 0.0236988 -0.0211068
         vertex 0.0110815 0.0236532 -0.0211088
      endloop
   endfacet
   facet normal 0 0.0436194 -0.999048
      outer loop
         vertex 0.0105306 0.0233932 -0.0211302
         vertex 0.0104686 0.0234915 -0.0211259
         vertex 0.0110256 0.0237477 -0.0211047
      endloop
   endfacet
   facet normal 0 0.0436194 -0.999048
      outer loop
         vertex 0.0103347 0.0240786 -0.0211002
         vertex 0.0103458 0.0241637 -0.0210965
         vertex 0.0109893 0.0240352 -0.0210921
      endloop
   endfacet
   facet normal 0 0.0436194 -0.999048
      outer loop
         vertex 0.0103683 0.0242598 -0.0210923
         vertex 0.0110004 0.024078 -0.0210903
         vertex 0.0109893 0.0240352 -0.0210921
      endloop
   endfacet
   facet normal 0 0.0436194 -0.999048
      outer loop
         vertex 0.0104343 0.0244276 -0.021085
         vertex 0.0104768 0.0245013 -0.0210818
         vertex 0.0110345 0.0241594 -0.0210867
      endloop
   endfacet
   facet normal 0 0.0436194 -0.999048
      outer loop
         vertex 0.0112052 0.0243212 -0.0210796
         vertex 0.0109588 0.0248561 -0.0210663
         vertex 0.0110512 0.0248806 -0.0210652
      endloop
   endfacet
   facet normal 0 0.0436194 -0.999048
      outer loop
         vertex 0.0112447 0.0243384 -0.0210789
         vertex 0.0110512 0.0248806 -0.0210652
         vertex 0.0111443 0.0248955 -0.0210646
      endloop
   endfacet
   facet normal 0 0.0436194 -0.999048
      outer loop
         vertex 0.0122229 0.0248318 -0.0210673
         vertex 0.0120003 0.0243254 -0.0210795
         vertex 0.0119493 0.0243448 -0.0210786
      endloop
   endfacet
   facet normal 0 0.0436194 -0.999048
      outer loop
         vertex 0.0122229 0.0248318 -0.0210673
         vertex 0.0123328 0.0247849 -0.0210694
         vertex 0.0120523 0.0242994 -0.0210806
      endloop
   endfacet
   facet normal 0 0.0436194 -0.999048
      outer loop
         vertex 0.0122995 0.0237282 -0.0211055
         vertex 0.0129274 0.023533 -0.0211241
         vertex 0.0128971 0.0234475 -0.0211278
      endloop
   endfacet
   facet normal 0 0.0436194 -0.999048
      outer loop
         vertex 0.0122457 0.0236143 -0.0211105
         vertex 0.0122655 0.0236468 -0.0211091
         vertex 0.0128159 0.0232947 -0.0211345
      endloop
   endfacet
   facet normal 0 0.0436194 -0.999048
      outer loop
         vertex 0.0121646 0.0235283 -0.0211143
         vertex 0.0121942 0.0235538 -0.0211131
         vertex 0.0125894 0.0230684 -0.0211443
      endloop
   endfacet
   facet normal 0 0.0436194 -0.999048
      outer loop
         vertex 0.0119215 0.0234363 -0.0211183
         vertex 0.0119638 0.0234417 -0.021118
         vertex 0.0120413 0.0229045 -0.0211515
      endloop
   endfacet
   facet normal 0 0.0436194 -0.999048
      outer loop
         vertex 0.0111925 0.0229392 -0.02115
         vertex 0.0113508 0.0234608 -0.0211172
         vertex 0.0114024 0.0234468 -0.0211178
      endloop
   endfacet
   facet normal 0 0.0436194 -0.999048
      outer loop
         vertex 0.0112479 0.0235062 -0.0211152
         vertex 0.0112998 0.0234803 -0.0211163
         vertex 0.0110782 0.0229747 -0.0211484
      endloop
   endfacet
   facet normal 0 0.0436194 -0.999048
      outer loop
         vertex 0.0106044 0.0232991 -0.0211343
         vertex 0.0110815 0.0236532 -0.0211088
         vertex 0.0111163 0.023611 -0.0211106
      endloop
   endfacet
   facet normal 0 0.0436194 -0.999048
      outer loop
         vertex 0.0110256 0.0237477 -0.0211047
         vertex 0.0110513 0.0236988 -0.0211068
         vertex 0.0105306 0.0233932 -0.0211302
      endloop
   endfacet
   facet normal 0 0.0436194 -0.999048
      outer loop
         vertex 0.0109893 0.0240352 -0.0210921
         vertex 0.0103458 0.0241637 -0.0210965
         vertex 0.0103683 0.0242598 -0.0210923
      endloop
   endfacet
   facet normal 0 0.0436194 -0.999048
      outer loop
         vertex 0.0103975 0.0243462 -0.0210885
         vertex 0.0110168 0.0241228 -0.0210883
         vertex 0.0110004 0.024078 -0.0210903
      endloop
   endfacet
   facet normal 0 0.0436194 -0.999048
      outer loop
         vertex 0.0110168 0.0241228 -0.0210883
         vertex 0.0103975 0.0243462 -0.0210885
         vertex 0.0104343 0.0244276 -0.021085
      endloop
   endfacet
   facet normal 0 0.0436194 -0.999048
      outer loop
         vertex 0.0104768 0.0245013 -0.0210818
         vertex 0.0105245 0.024568 -0.0210789
         vertex 0.0110544 0.0241918 -0.0210853
      endloop
   endfacet
   facet normal 0 0.0436194 -0.999048
      outer loop
         vertex 0.0107106 0.0247385 -0.0210714
         vertex 0.0107849 0.0247833 -0.0210695
         vertex 0.0111356 0.0242777 -0.0210815
      endloop
   endfacet
   facet normal 0 0.0436194 -0.999048
      outer loop
         vertex 0.0111443 0.0248955 -0.0210646
         vertex 0.0112921 0.024354 -0.0210782
         vertex 0.0112447 0.0243384 -0.0210789
      endloop
   endfacet
   facet normal 0 0.0436194 -0.999048
      outer loop
         vertex 0.0112921 0.024354 -0.0210782
         vertex 0.0111443 0.0248955 -0.0210646
         vertex 0.0112586 0.0249025 -0.0210643
      endloop
   endfacet
   facet normal 0 0.0436194 -0.999048
      outer loop
         vertex 0.011836 0.0249025 -0.0210643
         vertex 0.0117888 0.0243709 -0.0210825
         vertex 0.0114148 0.0243709 -0.0210825
      endloop
   endfacet
   facet normal 0 0.0436194 -0.999048
      outer loop
         vertex 0.0121087 0.0248674 -0.0210658
         vertex 0.0119493 0.0243448 -0.0210786
         vertex 0.0118976 0.0243589 -0.021078
      endloop
   endfacet
   facet normal 0 0.0436194 -0.999048
      outer loop
         vertex 0.0120523 0.0242994 -0.0210806
         vertex 0.0120003 0.0243254 -0.0210795
         vertex 0.0122229 0.0248318 -0.0210673
      endloop
   endfacet
   facet normal 0 0.0436194 -0.999048
      outer loop
         vertex 0.0126953 0.0245081 -0.0210815
         vertex 0.0127692 0.024414 -0.0210856
         vertex 0.0122457 0.0241118 -0.0210888
      endloop
   endfacet
   facet normal 0 0.0436194 -0.999048
      outer loop
         vertex 0.0127692 0.024414 -0.0210856
         vertex 0.0128312 0.0243156 -0.0210899
         vertex 0.012272 0.0240632 -0.0210909
      endloop
   endfacet
   facet normal 0 0.0436194 -0.999048
      outer loop
         vertex 0.0129678 0.0238067 -0.0211121
         vertex 0.0123169 0.0238122 -0.0211019
         vertex 0.0123191 0.0238551 -0.0211
      endloop
   endfacet
   facet normal 0 0.0436194 -0.999048
      outer loop
         vertex 0.0122832 0.0236835 -0.0211075
         vertex 0.0128971 0.0234475 -0.0211278
         vertex 0.0128592 0.0233671 -0.0211313
      endloop
   endfacet
   facet normal 0 0.0436194 -0.999048
      outer loop
         vertex 0.0122457 0.0236143 -0.0211105
         vertex 0.0127673 0.023229 -0.0211373
         vertex 0.0127211 0.0231774 -0.0211396
      endloop
   endfacet
   facet normal 0 0.0436194 -0.999048
      outer loop
         vertex 0.0123412 0.0229509 -0.0211495
         vertex 0.0120951 0.0234848 -0.0211162
         vertex 0.0121309 0.0235047 -0.0211153
      endloop
   endfacet
   facet normal 0 0.0436194 -0.999048
      outer loop
         vertex 0.0113005 0.022917 -0.021151
         vertex 0.0114024 0.0234468 -0.0211178
         vertex 0.0114576 0.023438 -0.0211182
      endloop
   endfacet
   facet normal 0 0.0436194 -0.999048
      outer loop
         vertex 0.0113508 0.0234608 -0.0211172
         vertex 0.0111925 0.0229392 -0.02115
         vertex 0.0110782 0.0229747 -0.0211484
      endloop
   endfacet
   facet normal 0 0.0436194 -0.999048
      outer loop
         vertex 0.0109683 0.0230215 -0.0211464
         vertex 0.0108643 0.0230789 -0.0211439
         vertex 0.0111984 0.0235378 -0.0211138
      endloop
   endfacet
   facet normal 0 0.0436194 -0.999048
      outer loop
         vertex 0.0107657 0.0231472 -0.0211409
         vertex 0.0106866 0.0232143 -0.021138
         vertex 0.0111163 0.023611 -0.0211106
      endloop
   endfacet
   facet normal 0 0.0436194 -0.999048
      outer loop
         vertex 0.0110815 0.0236532 -0.0211088
         vertex 0.0106044 0.0232991 -0.0211343
         vertex 0.0105306 0.0233932 -0.0211302
      endloop
   endfacet
   facet normal 0 0.0436194 -0.999048
      outer loop
         vertex 0.0110004 0.024078 -0.0210903
         vertex 0.0103683 0.0242598 -0.0210923
         vertex 0.0103975 0.0243462 -0.0210885
      endloop
   endfacet
   facet normal 0 0.0436194 -0.999048
      outer loop
         vertex 0.0110544 0.0241918 -0.0210853
         vertex 0.0110345 0.0241594 -0.0210867
         vertex 0.0104768 0.0245013 -0.0210818
      endloop
   endfacet
   facet normal 0 0.0436194 -0.999048
      outer loop
         vertex 0.0111059 0.0242523 -0.0210826
         vertex 0.0106364 0.0246828 -0.0210739
         vertex 0.0107106 0.0247385 -0.0210714
      endloop
   endfacet
   facet normal 0 0.0436194 -0.999048
      outer loop
         vertex 0.0107849 0.0247833 -0.0210695
         vertex 0.0108678 0.0248227 -0.0210677
         vertex 0.0111694 0.0243012 -0.0210805
      endloop
   endfacet
   facet normal 0 0.0436194 -0.999048
      outer loop
         vertex 0.0111694 0.0243012 -0.0210805
         vertex 0.0108678 0.0248227 -0.0210677
         vertex 0.0109588 0.0248561 -0.0210663
      endloop
   endfacet
   facet normal 0 0.0436194 -0.999048
      outer loop
         vertex 0.0112586 0.0249025 -0.0210643
         vertex 0.0113368 0.0243642 -0.0210778
         vertex 0.0112921 0.024354 -0.0210782
      endloop
   endfacet
   facet normal 0 0.0436194 -0.999048
      outer loop
         vertex 0.0114148 0.0243709 -0.0210825
         vertex 0.0112586 0.0249025 -0.0210643
         vertex 0.011836 0.0249025 -0.0210643
      endloop
   endfacet
   facet normal 0 0.0436194 -0.999048
      outer loop
         vertex 0.0119493 0.0243448 -0.0210786
         vertex 0.0121087 0.0248674 -0.0210658
         vertex 0.0122229 0.0248318 -0.0210673
      endloop
   endfacet
   facet normal 0 0.0436194 -0.999048
      outer loop
         vertex 0.0123328 0.0247849 -0.0210694
         vertex 0.0124367 0.0247274 -0.0210719
         vertex 0.0120969 0.0242712 -0.0210818
      endloop
   endfacet
   facet normal 0 0.0436194 -0.999048
      outer loop
         vertex 0.012613 0.0245929 -0.0210778
         vertex 0.0126953 0.0245081 -0.0210815
         vertex 0.0122151 0.0241569 -0.0210868
      endloop
   endfacet
   facet normal 0 0.0436194 -0.999048
      outer loop
         vertex 0.012272 0.0240632 -0.0210909
         vertex 0.0122457 0.0241118 -0.0210888
         vertex 0.0127692 0.024414 -0.0210856
      endloop
   endfacet
   facet normal 0 0.0436194 -0.999048
      outer loop
         vertex 0.0123191 0.0238551 -0.0211
         vertex 0.0129635 0.0238875 -0.0211086
         vertex 0.0129678 0.0238067 -0.0211121
      endloop
   endfacet
   facet normal 0 0.0436194 -0.999048
      outer loop
         vertex 0.0127211 0.0231774 -0.0211396
         vertex 0.0122211 0.0235821 -0.0211119
         vertex 0.0122457 0.0236143 -0.0211105
      endloop
   endfacet
   facet normal 0 0.0436194 -0.999048
      outer loop
         vertex 0.0114576 0.023438 -0.0211182
         vertex 0.0114147 0.0229056 -0.0211514
         vertex 0.0113005 0.022917 -0.021151
      endloop
   endfacet
   facet normal 0 0.0436194 -0.999048
      outer loop
         vertex 0.0111984 0.0235378 -0.0211138
         vertex 0.0112479 0.0235062 -0.0211152
         vertex 0.0109683 0.0230215 -0.0211464
      endloop
   endfacet
   facet normal 0 0.0436194 -0.999048
      outer loop
         vertex 0.0108643 0.0230789 -0.0211439
         vertex 0.0107657 0.0231472 -0.0211409
         vertex 0.011155 0.0235726 -0.0211123
      endloop
   endfacet
   facet normal 0 0.0436194 -0.999048
      outer loop
         vertex 0.0111163 0.023611 -0.0211106
         vertex 0.0106866 0.0232143 -0.021138
         vertex 0.0106044 0.0232991 -0.0211343
      endloop
   endfacet
   facet normal 0 0.0436194 -0.999048
      outer loop
         vertex 0.010419 0.0235909 -0.0211215
         vertex 0.0110055 0.0237982 -0.0211025
         vertex 0.0110256 0.0237477 -0.0211047
      endloop
   endfacet
   facet normal 0 0.0436194 -0.999048
      outer loop
         vertex 0.0103816 0.0236893 -0.0211172
         vertex 0.0109933 0.0238413 -0.0211006
         vertex 0.0110055 0.0237982 -0.0211025
      endloop
   endfacet
   facet normal 0 0.0436194 -0.999048
      outer loop
         vertex 0.0103321 0.0239866 -0.0211043
         vertex 0.0109828 0.0239938 -0.0210939
         vertex 0.0109806 0.0239508 -0.0210958
      endloop
   endfacet
   facet normal 0 0.0436194 -0.999048
      outer loop
         vertex 0.0110345 0.0241594 -0.0210867
         vertex 0.0110168 0.0241228 -0.0210883
         vertex 0.0104343 0.0244276 -0.021085
      endloop
   endfacet
   facet normal 0 0.0436194 -0.999048
      outer loop
         vertex 0.0110544 0.0241918 -0.0210853
         vertex 0.0105245 0.024568 -0.0210789
         vertex 0.0105788 0.0246295 -0.0210762
      endloop
   endfacet
   facet normal 0 0.0436194 -0.999048
      outer loop
         vertex 0.011079 0.024224 -0.0210839
         vertex 0.0105788 0.0246295 -0.0210762
         vertex 0.0106364 0.0246828 -0.0210739
      endloop
   endfacet
   facet normal 0 0.0436194 -0.999048
      outer loop
         vertex 0.0111694 0.0243012 -0.0210805
         vertex 0.0111356 0.0242777 -0.0210815
         vertex 0.0107849 0.0247833 -0.0210695
      endloop
   endfacet
   facet normal 0 0.0436194 -0.999048
      outer loop
         vertex 0.0110512 0.0248806 -0.0210652
         vertex 0.0112447 0.0243384 -0.0210789
         vertex 0.0112052 0.0243212 -0.0210796
      endloop
   endfacet
   facet normal 0 0.0436194 -0.999048
      outer loop
         vertex 0.0114148 0.0243709 -0.0210825
         vertex 0.0113791 0.0243695 -0.0210775
         vertex 0.0112586 0.0249025 -0.0210643
      endloop
   endfacet
   facet normal 0 0.0436194 -0.999048
      outer loop
         vertex 0.0120969 0.0242712 -0.0210818
         vertex 0.0120523 0.0242994 -0.0210806
         vertex 0.0123328 0.0247849 -0.0210694
      endloop
   endfacet
   facet normal 0 0.0436194 -0.999048
      outer loop
         vertex 0.0124367 0.0247274 -0.0210719
         vertex 0.0125353 0.024659 -0.0210749
         vertex 0.0121408 0.0242367 -0.0210833
      endloop
   endfacet
   facet normal 0 0.0436194 -0.999048
      outer loop
         vertex 0.0125353 0.024659 -0.0210749
         vertex 0.012613 0.0245929 -0.0210778
         vertex 0.0121799 0.0241988 -0.021085
      endloop
   endfacet
   facet normal 0 0.0436194 -0.999048
      outer loop
         vertex 0.0122457 0.0241118 -0.0210888
         vertex 0.0122151 0.0241569 -0.0210868
         vertex 0.0126953 0.0245081 -0.0210815
      endloop
   endfacet
   facet normal 0 0.0436194 -0.999048
      outer loop
         vertex 0.0129605 0.0239191 -0.0211072
         vertex 0.0123191 0.0238551 -0.0211
         vertex 0.0123162 0.0239031 -0.0211029
      endloop
   endfacet
   facet normal 0 0.0436194 -0.999048
      outer loop
         vertex 0.0123105 0.0237709 -0.0211037
         vertex 0.0123169 0.0238122 -0.0211019
         vertex 0.0129637 0.0237131 -0.0211162
      endloop
   endfacet
   facet normal 0 0.0436194 -0.999048
      outer loop
         vertex 0.0114024 0.0234468 -0.0211178
         vertex 0.0113005 0.022917 -0.021151
         vertex 0.0111925 0.0229392 -0.02115
      endloop
   endfacet
   facet normal 0 0.0436194 -0.999048
      outer loop
         vertex 0.0111163 0.023611 -0.0211106
         vertex 0.011155 0.0235726 -0.0211123
         vertex 0.0107657 0.0231472 -0.0211409
      endloop
   endfacet
   facet normal 0 0.0436194 -0.999048
      outer loop
         vertex 0.0110055 0.0237982 -0.0211025
         vertex 0.010419 0.0235909 -0.0211215
         vertex 0.0103816 0.0236893 -0.0211172
      endloop
   endfacet
   facet normal 0 0.0436194 -0.999048
      outer loop
         vertex 0.0103396 0.0238875 -0.0211086
         vertex 0.0109806 0.0239508 -0.0210958
         vertex 0.0109835 0.0239031 -0.0211029
      endloop
   endfacet
   facet normal 0 0.0436194 -0.999048
      outer loop
         vertex 0.0109806 0.0239508 -0.0210958
         vertex 0.0103361 0.0239191 -0.0211072
         vertex 0.0103321 0.0239866 -0.0211043
      endloop
   endfacet
   facet normal 0 0.0436194 -0.999048
      outer loop
         vertex 0.0105788 0.0246295 -0.0210762
         vertex 0.011079 0.024224 -0.0210839
         vertex 0.0110544 0.0241918 -0.0210853
      endloop
   endfacet
   facet normal 0 0.0436194 -0.999048
      outer loop
         vertex 0.0111356 0.0242777 -0.0210815
         vertex 0.0111059 0.0242523 -0.0210826
         vertex 0.0107106 0.0247385 -0.0210714
      endloop
   endfacet
   facet normal 0 0.0436194 -0.999048
      outer loop
         vertex 0.0113791 0.0243695 -0.0210775
         vertex 0.0113368 0.0243642 -0.0210778
         vertex 0.0112586 0.0249025 -0.0210643
      endloop
   endfacet
   facet normal 0 0.0436194 -0.999048
      outer loop
         vertex 0.0121408 0.0242367 -0.0210833
         vertex 0.0120969 0.0242712 -0.0210818
         vertex 0.0124367 0.0247274 -0.0210719
      endloop
   endfacet
   facet normal 0 0.0436194 -0.999048
      outer loop
         vertex 0.0122151 0.0241569 -0.0210868
         vertex 0.0121799 0.0241988 -0.021085
         vertex 0.012613 0.0245929 -0.0210778
      endloop
   endfacet
   facet normal 0 0.0436194 -0.999048
      outer loop
         vertex 0.0128312 0.0243156 -0.0210899
         vertex 0.012881 0.024216 -0.0210942
         vertex 0.0122927 0.0240127 -0.0210931
      endloop
   endfacet
   facet normal 0 0.0436194 -0.999048
      outer loop
         vertex 0.012881 0.024216 -0.0210942
         vertex 0.0129183 0.0241176 -0.0210985
         vertex 0.0123054 0.0239694 -0.021095
      endloop
   endfacet
   facet normal 0 0.0436194 -0.999048
      outer loop
         vertex 0.0129443 0.024021 -0.0211028
         vertex 0.0123162 0.0239031 -0.0211029
         vertex 0.0123054 0.0239694 -0.021095
      endloop
   endfacet
   facet normal 0 0.0436194 -0.999048
      outer loop
         vertex 0.0123162 0.0239031 -0.0211029
         vertex 0.0129443 0.024021 -0.0211028
         vertex 0.0129605 0.0239191 -0.0211072
      endloop
   endfacet
   facet normal 0 0.0436194 -0.999048
      outer loop
         vertex 0.0126635 0.0231241 -0.0211419
         vertex 0.0121942 0.0235538 -0.0211131
         vertex 0.0122211 0.0235821 -0.0211119
      endloop
   endfacet
   facet normal 0 0.0436194 -0.999048
      outer loop
         vertex 0.0110256 0.0237477 -0.0211047
         vertex 0.0104686 0.0234915 -0.0211259
         vertex 0.010419 0.0235909 -0.0211215
      endloop
   endfacet
   facet normal 0 0.0436194 -0.999048
      outer loop
         vertex 0.0103557 0.0237858 -0.021113
         vertex 0.0109835 0.0239031 -0.0211029
         vertex 0.0109933 0.0238413 -0.0211006
      endloop
   endfacet
   facet normal 0 0.0436194 -0.999048
      outer loop
         vertex 0.0109835 0.0239031 -0.0211029
         vertex 0.0103557 0.0237858 -0.021113
         vertex 0.0103396 0.0238875 -0.0211086
      endloop
   endfacet
   facet normal 0 0.0436194 -0.999048
      outer loop
         vertex 0.0109893 0.0240352 -0.0210921
         vertex 0.0109828 0.0239938 -0.0210939
         vertex 0.0103347 0.0240786 -0.0211002
      endloop
   endfacet
   facet normal 0 0.0436194 -0.999048
      outer loop
         vertex 0.0109588 0.0248561 -0.0210663
         vertex 0.0112052 0.0243212 -0.0210796
         vertex 0.0111694 0.0243012 -0.0210805
      endloop
   endfacet
   facet normal 0 0.0436194 -0.999048
      outer loop
         vertex 0.0118422 0.0243677 -0.0210776
         vertex 0.0117888 0.0243709 -0.0210825
         vertex 0.011836 0.0249025 -0.0210643
      endloop
   endfacet
   facet normal 0 0.0436194 -0.999048
      outer loop
         vertex 0.0119886 0.0248916 -0.0210647
         vertex 0.0118976 0.0243589 -0.021078
         vertex 0.0118422 0.0243677 -0.0210776
      endloop
   endfacet
   facet normal 0 0.0436194 -0.999048
      outer loop
         vertex 0.0121799 0.0241988 -0.021085
         vertex 0.0121408 0.0242367 -0.0210833
         vertex 0.0125353 0.024659 -0.0210749
      endloop
   endfacet
   facet normal 0 0.0436194 -0.999048
      outer loop
         vertex 0.0123054 0.0239694 -0.021095
         vertex 0.0122927 0.0240127 -0.0210931
         vertex 0.012881 0.024216 -0.0210942
      endloop
   endfacet
   facet normal 0 0.0436194 -0.999048
      outer loop
         vertex 0.0129605 0.0239191 -0.0211072
         vertex 0.0129635 0.0238875 -0.0211086
         vertex 0.0123191 0.0238551 -0.0211
      endloop
   endfacet
   facet normal 0 0.0436194 -0.999048
      outer loop
         vertex 0.011155 0.0235726 -0.0211123
         vertex 0.0111984 0.0235378 -0.0211138
         vertex 0.0108643 0.0230789 -0.0211439
      endloop
   endfacet
   facet normal 0 0.0436194 -0.999048
      outer loop
         vertex 0.0103396 0.0238875 -0.0211086
         vertex 0.0103361 0.0239191 -0.0211072
         vertex 0.0109806 0.0239508 -0.0210958
      endloop
   endfacet
   facet normal 0 0.0436194 -0.999048
      outer loop
         vertex 0.0106364 0.0246828 -0.0210739
         vertex 0.0111059 0.0242523 -0.0210826
         vertex 0.011079 0.024224 -0.0210839
      endloop
   endfacet
   facet normal 0 0.0436194 -0.999048
      outer loop
         vertex 0.0118422 0.0243677 -0.0210776
         vertex 0.0118747 0.0249019 -0.0210643
         vertex 0.0119886 0.0248916 -0.0210647
      endloop
   endfacet
   facet normal 0 0.0436194 -0.999048
      outer loop
         vertex 0.0122927 0.0240127 -0.0210931
         vertex 0.012272 0.0240632 -0.0210909
         vertex 0.0128312 0.0243156 -0.0210899
      endloop
   endfacet
   facet normal 0 0.0436194 -0.999048
      outer loop
         vertex 0.0129678 0.0238067 -0.0211121
         vertex 0.0129637 0.0237131 -0.0211162
         vertex 0.0123169 0.0238122 -0.0211019
      endloop
   endfacet
   facet normal 0 0.0436194 -0.999048
      outer loop
         vertex 0.0103321 0.0239866 -0.0211043
         vertex 0.0103347 0.0240786 -0.0211002
         vertex 0.0109828 0.0239938 -0.0210939
      endloop
   endfacet
   facet normal 0 0.0436194 -0.999048
      outer loop
         vertex 0.0118976 0.0243589 -0.021078
         vertex 0.0119886 0.0248916 -0.0210647
         vertex 0.0121087 0.0248674 -0.0210658
      endloop
   endfacet
   facet normal 0 0.0436194 -0.999048
      outer loop
         vertex 0.0109933 0.0238413 -0.0211006
         vertex 0.0103816 0.0236893 -0.0211172
         vertex 0.0103557 0.0237858 -0.021113
      endloop
   endfacet
   facet normal 0 0.0436194 -0.999048
      outer loop
         vertex 0.0123054 0.0239694 -0.021095
         vertex 0.0129183 0.0241176 -0.0210985
         vertex 0.0129443 0.024021 -0.0211028
      endloop
   endfacet
   facet normal 0 0.0436194 -0.999048
      outer loop
         vertex 0.011836 0.0249025 -0.0210643
         vertex 0.0118747 0.0249019 -0.0210643
         vertex 0.0118422 0.0243677 -0.0210776
      endloop
   endfacet
   facet normal 0 0.0436194 -0.999048
      outer loop
         vertex 0.0118422 0.0243677 -0.0210776
         vertex 0.0122457 0.0236143 -0.0211105
         vertex 0.0122211 0.0235821 -0.0211119
      endloop
   endfacet
   facet normal 0 0.0436194 -0.999048
      outer loop
         vertex 0.0120969 0.0242712 -0.0210818
         vertex 0.0121408 0.0242367 -0.0210833
         vertex 0.0121799 0.0241988 -0.021085
      endloop
   endfacet
   facet normal 0 0.0436194 -0.999048
      outer loop
         vertex 0.0114576 0.023438 -0.0211182
         vertex 0.0110544 0.0241918 -0.0210853
         vertex 0.011079 0.024224 -0.0210839
      endloop
   endfacet
   facet normal 0 0.0436194 -0.999048
      outer loop
         vertex 0.0118422 0.0243677 -0.0210776
         vertex 0.0122655 0.0236468 -0.0211091
         vertex 0.0122457 0.0236143 -0.0211105
      endloop
   endfacet
   facet normal 0 0.0436194 -0.999048
      outer loop
         vertex 0.0120523 0.0242994 -0.0210806
         vertex 0.0122927 0.0240127 -0.0210931
         vertex 0.0123054 0.0239694 -0.021095
      endloop
   endfacet
   facet normal 0 0.0436194 -0.999048
      outer loop
         vertex 0.0120523 0.0242994 -0.0210806
         vertex 0.0122457 0.0241118 -0.0210888
         vertex 0.012272 0.0240632 -0.0210909
      endloop
   endfacet
   facet normal 0 0.0436194 -0.999048
      outer loop
         vertex 0.0122151 0.0241569 -0.0210868
         vertex 0.0120523 0.0242994 -0.0210806
         vertex 0.0120969 0.0242712 -0.0210818
      endloop
   endfacet
   facet normal 0 0.0436194 -0.999048
      outer loop
         vertex 0.0114576 0.023438 -0.0211182
         vertex 0.0110345 0.0241594 -0.0210867
         vertex 0.0110544 0.0241918 -0.0210853
      endloop
   endfacet
   facet normal 0 0.0436194 -0.999048
      outer loop
         vertex 0.0118422 0.0243677 -0.0210776
         vertex 0.0121646 0.0235283 -0.0211143
         vertex 0.0121309 0.0235047 -0.0211153
      endloop
   endfacet
   facet normal 0 0.0436194 -0.999048
      outer loop
         vertex 0.0122211 0.0235821 -0.0211119
         vertex 0.0121942 0.0235538 -0.0211131
         vertex 0.0118422 0.0243677 -0.0210776
      endloop
   endfacet
   facet normal 0 0.0436194 -0.999048
      outer loop
         vertex 0.0120523 0.0242994 -0.0210806
         vertex 0.0123162 0.0239031 -0.0211029
         vertex 0.0123191 0.0238551 -0.0211
      endloop
   endfacet
   facet normal 0 0.0436194 -0.999048
      outer loop
         vertex 0.012272 0.0240632 -0.0210909
         vertex 0.0122927 0.0240127 -0.0210931
         vertex 0.0120523 0.0242994 -0.0210806
      endloop
   endfacet
   facet normal 0 0.0436194 -0.999048
      outer loop
         vertex 0.0121799 0.0241988 -0.021085
         vertex 0.0122151 0.0241569 -0.0210868
         vertex 0.0120969 0.0242712 -0.0210818
      endloop
   endfacet
   facet normal 0 0.0436194 -0.999048
      outer loop
         vertex 0.0114576 0.023438 -0.0211182
         vertex 0.0111356 0.0242777 -0.0210815
         vertex 0.0111694 0.0243012 -0.0210805
      endloop
   endfacet
   facet normal 0 0.0436194 -0.999048
      outer loop
         vertex 0.011079 0.024224 -0.0210839
         vertex 0.0111059 0.0242523 -0.0210826
         vertex 0.0114576 0.023438 -0.0211182
      endloop
   endfacet
   facet normal 0 0.0436194 -0.999048
      outer loop
         vertex 0.011155 0.0235726 -0.0211123
         vertex 0.0112998 0.0234803 -0.0211163
         vertex 0.0112479 0.0235062 -0.0211152
      endloop
   endfacet
   facet normal 0 0.0436194 -0.999048
      outer loop
         vertex 0.0121942 0.0235538 -0.0211131
         vertex 0.0121646 0.0235283 -0.0211143
         vertex 0.0118422 0.0243677 -0.0210776
      endloop
   endfacet
   facet normal 0 0.0436194 -0.999048
      outer loop
         vertex 0.0118422 0.0243677 -0.0210776
         vertex 0.0122995 0.0237282 -0.0211055
         vertex 0.0122832 0.0236835 -0.0211075
      endloop
   endfacet
   facet normal 0 0.0436194 -0.999048
      outer loop
         vertex 0.0123191 0.0238551 -0.0211
         vertex 0.0123169 0.0238122 -0.0211019
         vertex 0.0120523 0.0242994 -0.0210806
      endloop
   endfacet
   facet normal 0 0.0436194 -0.999048
      outer loop
         vertex 0.0122151 0.0241569 -0.0210868
         vertex 0.0122457 0.0241118 -0.0210888
         vertex 0.0120523 0.0242994 -0.0210806
      endloop
   endfacet
   facet normal 0 0.0436194 -0.999048
      outer loop
         vertex 0.0111059 0.0242523 -0.0210826
         vertex 0.0111356 0.0242777 -0.0210815
         vertex 0.0114576 0.023438 -0.0211182
      endloop
   endfacet
   facet normal 0 0.0436194 -0.999048
      outer loop
         vertex 0.0114576 0.023438 -0.0211182
         vertex 0.0110004 0.024078 -0.0210903
         vertex 0.0110168 0.0241228 -0.0210883
      endloop
   endfacet
   facet normal 0 0.0436194 -0.999048
      outer loop
         vertex 0.0112479 0.0235062 -0.0211152
         vertex 0.0111984 0.0235378 -0.0211138
         vertex 0.011155 0.0235726 -0.0211123
      endloop
   endfacet
   facet normal 0 0.0436194 -0.999048
      outer loop
         vertex 0.0122832 0.0236835 -0.0211075
         vertex 0.0122655 0.0236468 -0.0211091
         vertex 0.0118422 0.0243677 -0.0210776
      endloop
   endfacet
   facet normal 0 0.0436194 -0.999048
      outer loop
         vertex 0.0123054 0.0239694 -0.021095
         vertex 0.0123162 0.0239031 -0.0211029
         vertex 0.0120523 0.0242994 -0.0210806
      endloop
   endfacet
   facet normal 0 0.0436194 -0.999048
      outer loop
         vertex 0.0123105 0.0237709 -0.0211037
         vertex 0.0118422 0.0243677 -0.0210776
         vertex 0.0118976 0.0243589 -0.021078
      endloop
   endfacet
   facet normal 0 0.0436194 -0.999048
      outer loop
         vertex 0.0110168 0.0241228 -0.0210883
         vertex 0.0110345 0.0241594 -0.0210867
         vertex 0.0114576 0.023438 -0.0211182
      endloop
   endfacet
   facet normal 0 0.0436194 -0.999048
      outer loop
         vertex 0.0112998 0.0234803 -0.0211163
         vertex 0.0110055 0.0237982 -0.0211025
         vertex 0.0109933 0.0238413 -0.0211006
      endloop
   endfacet
   facet normal 0 0.0436194 -0.999048
      outer loop
         vertex 0.0112998 0.0234803 -0.0211163
         vertex 0.0110513 0.0236988 -0.0211068
         vertex 0.0110256 0.0237477 -0.0211047
      endloop
   endfacet
   facet normal 0 0.0436194 -0.999048
      outer loop
         vertex 0.011155 0.0235726 -0.0211123
         vertex 0.0111163 0.023611 -0.0211106
         vertex 0.0112998 0.0234803 -0.0211163
      endloop
   endfacet
   facet normal 0 0.0436194 -0.999048
      outer loop
         vertex 0.0118422 0.0243677 -0.0210776
         vertex 0.0123105 0.0237709 -0.0211037
         vertex 0.0122995 0.0237282 -0.0211055
      endloop
   endfacet
   facet normal 0 0.0436194 -0.999048
      outer loop
         vertex 0.0123105 0.0237709 -0.0211037
         vertex 0.0120003 0.0243254 -0.0210795
         vertex 0.0120523 0.0242994 -0.0210806
      endloop
   endfacet
   facet normal 0 0.0436194 -0.999048
      outer loop
         vertex 0.0118976 0.0243589 -0.021078
         vertex 0.0119493 0.0243448 -0.0210786
         vertex 0.0123105 0.0237709 -0.0211037
      endloop
   endfacet
   facet normal 0 0.0436194 -0.999048
      outer loop
         vertex 0.0114576 0.023438 -0.0211182
         vertex 0.0109893 0.0240352 -0.0210921
         vertex 0.0110004 0.024078 -0.0210903
      endloop
   endfacet
   facet normal 0 0.0436194 -0.999048
      outer loop
         vertex 0.0114576 0.023438 -0.0211182
         vertex 0.0109835 0.0239031 -0.0211029
         vertex 0.0109806 0.0239508 -0.0210958
      endloop
   endfacet
   facet normal 0 0.0436194 -0.999048
      outer loop
         vertex 0.0110256 0.0237477 -0.0211047
         vertex 0.0110055 0.0237982 -0.0211025
         vertex 0.0112998 0.0234803 -0.0211163
      endloop
   endfacet
   facet normal 0 0.0436194 -0.999048
      outer loop
         vertex 0.0111163 0.023611 -0.0211106
         vertex 0.0110815 0.0236532 -0.0211088
         vertex 0.0112998 0.0234803 -0.0211163
      endloop
   endfacet
   facet normal 0 0.0436194 -0.999048
      outer loop
         vertex 0.0109835 0.0239031 -0.0211029
         vertex 0.0114576 0.023438 -0.0211182
         vertex 0.0114024 0.0234468 -0.0211178
      endloop
   endfacet
   facet normal 0 0.0436194 -0.999048
      outer loop
         vertex 0.0118422 0.0243677 -0.0210776
         vertex 0.0120085 0.0234519 -0.0211176
         vertex 0.0119638 0.0234417 -0.021118
      endloop
   endfacet
   facet normal 0 0.0436194 -0.999048
      outer loop
         vertex 0.0121309 0.0235047 -0.0211153
         vertex 0.0120951 0.0234848 -0.0211162
         vertex 0.0118422 0.0243677 -0.0210776
      endloop
   endfacet
   facet normal 0 0.0436194 -0.999048
      outer loop
         vertex 0.0119493 0.0243448 -0.0210786
         vertex 0.0120003 0.0243254 -0.0210795
         vertex 0.0123105 0.0237709 -0.0211037
      endloop
   endfacet
   facet normal 0 0.0436194 -0.999048
      outer loop
         vertex 0.0111694 0.0243012 -0.0210805
         vertex 0.0112052 0.0243212 -0.0210796
         vertex 0.0114576 0.023438 -0.0211182
      endloop
   endfacet
   facet normal 0 0.0436194 -0.999048
      outer loop
         vertex 0.0109806 0.0239508 -0.0210958
         vertex 0.0109828 0.0239938 -0.0210939
         vertex 0.0114576 0.023438 -0.0211182
      endloop
   endfacet
   facet normal 0 0.0436194 -0.999048
      outer loop
         vertex 0.0110815 0.0236532 -0.0211088
         vertex 0.0110513 0.0236988 -0.0211068
         vertex 0.0112998 0.0234803 -0.0211163
      endloop
   endfacet
   facet normal 0 0.0436194 -0.999048
      outer loop
         vertex 0.0114024 0.0234468 -0.0211178
         vertex 0.0113508 0.0234608 -0.0211172
         vertex 0.0109835 0.0239031 -0.0211029
      endloop
   endfacet
   facet normal 0 0.0436194 -0.999048
      outer loop
         vertex 0.0115108 0.0234353 -0.0211233
         vertex 0.0114148 0.0243709 -0.0210825
         vertex 0.0117888 0.0243709 -0.0210825
      endloop
   endfacet
   facet normal 0 0.0436194 -0.999048
      outer loop
         vertex 0.0118422 0.0243677 -0.0210776
         vertex 0.0120558 0.0234676 -0.0211169
         vertex 0.0120085 0.0234519 -0.0211176
      endloop
   endfacet
   facet normal 0 0.0436194 -0.999048
      outer loop
         vertex 0.0123169 0.0238122 -0.0211019
         vertex 0.0123105 0.0237709 -0.0211037
         vertex 0.0120523 0.0242994 -0.0210806
      endloop
   endfacet
   facet normal 0 0.0436194 -0.999048
      outer loop
         vertex 0.0114576 0.023438 -0.0211182
         vertex 0.0112921 0.024354 -0.0210782
         vertex 0.0113368 0.0243642 -0.0210778
      endloop
   endfacet
   facet normal 0 0.0436194 -0.999048
      outer loop
         vertex 0.0109828 0.0239938 -0.0210939
         vertex 0.0109893 0.0240352 -0.0210921
         vertex 0.0114576 0.023438 -0.0211182
      endloop
   endfacet
   facet normal 0 0.0436194 -0.999048
      outer loop
         vertex 0.0113508 0.0234608 -0.0211172
         vertex 0.0112998 0.0234803 -0.0211163
         vertex 0.0109835 0.0239031 -0.0211029
      endloop
   endfacet
   facet normal 0 0.0436194 -0.999048
      outer loop
         vertex 0.0117888 0.0243709 -0.0210825
         vertex 0.0118852 0.0234353 -0.0211233
         vertex 0.0115108 0.0234353 -0.0211233
      endloop
   endfacet
   facet normal 0 0.0436194 -0.999048
      outer loop
         vertex 0.0120951 0.0234848 -0.0211162
         vertex 0.0120558 0.0234676 -0.0211169
         vertex 0.0118422 0.0243677 -0.0210776
      endloop
   endfacet
   facet normal 0 0.0436194 -0.999048
      outer loop
         vertex 0.0114576 0.023438 -0.0211182
         vertex 0.0112447 0.0243384 -0.0210789
         vertex 0.0112921 0.024354 -0.0210782
      endloop
   endfacet
   facet normal 0 0.0436194 -0.999048
      outer loop
         vertex 0.0109933 0.0238413 -0.0211006
         vertex 0.0109835 0.0239031 -0.0211029
         vertex 0.0112998 0.0234803 -0.0211163
      endloop
   endfacet
   facet normal 0 0.0436194 -0.999048
      outer loop
         vertex 0.0117888 0.0243709 -0.0210825
         vertex 0.0118422 0.0243677 -0.0210776
         vertex 0.0118852 0.0234353 -0.0211233
      endloop
   endfacet
   facet normal 0 0.0436194 -0.999048
      outer loop
         vertex 0.0119638 0.0234417 -0.021118
         vertex 0.0119215 0.0234363 -0.0211183
         vertex 0.0118422 0.0243677 -0.0210776
      endloop
   endfacet
   facet normal 0 0.0436194 -0.999048
      outer loop
         vertex 0.0112052 0.0243212 -0.0210796
         vertex 0.0112447 0.0243384 -0.0210789
         vertex 0.0114576 0.023438 -0.0211182
      endloop
   endfacet
   facet normal 0 0.0436194 -0.999048
      outer loop
         vertex 0.0119215 0.0234363 -0.0211183
         vertex 0.0118852 0.0234353 -0.0211233
         vertex 0.0118422 0.0243677 -0.0210776
      endloop
   endfacet
   facet normal 0 0.0436194 -0.999048
      outer loop
         vertex 0.0113368 0.0243642 -0.0210778
         vertex 0.0113791 0.0243695 -0.0210775
         vertex 0.0114576 0.023438 -0.0211182
      endloop
   endfacet
   facet normal 0 0.0436194 -0.999048
      outer loop
         vertex 0.0113791 0.0243695 -0.0210775
         vertex 0.0114148 0.0243709 -0.0210825
         vertex 0.0114576 0.023438 -0.0211182
      endloop
   endfacet
   facet normal 0 0.0436194 -0.999048
      outer loop
         vertex 0.0115108 0.0234353 -0.0211233
         vertex 0.0114576 0.023438 -0.0211182
         vertex 0.0114148 0.0243709 -0.0210825
      endloop
   endfacet
endsolid 1111. Units = meters