solid 1111. STL generated by ONSHAPE BY PTC INC, 1.216. Units = meters
   facet normal 0 0 1
      outer loop
         vertex 0.0165577 0.0234289 0.01164
         vertex 0.0165577 0.0227903 0.01164
         vertex 0.0172136 0.0231039 0.01164
      endloop
   endfacet
   facet normal 0 0 1
      outer loop
         vertex 0.0173136 0.0227903 0.01164
         vertex 0.0173136 0.0231039 0.01164
         vertex 0.0172136 0.0231039 0.01164
      endloop
   endfacet
   facet normal 0 0 1
      outer loop
         vertex 0.0172136 0.0231039 0.01164
         vertex 0.0165577 0.0227903 0.01164
         vertex 0.0173136 0.0227903 0.01164
      endloop
   endfacet
   facet normal 0 0 1
      outer loop
         vertex 0.0172136 0.0231039 0.01164
         vertex 0.0172136 0.0234289 0.01164
         vertex 0.0165577 0.0234289 0.01164
      endloop
   endfacet
   facet normal 0 1 0
      outer loop
         vertex 0.0173136 0.0234289 0.01154
         vertex 0.0164577 0.0234289 0.01154
         vertex 0.0165577 0.0234289 0.01164
      endloop
   endfacet
   facet normal 0 1 0
      outer loop
         vertex 0.0173136 0.0234289 0.01154
         vertex 0.0164577 0.0234289 0.01095
         vertex 0.0164577 0.0234289 0.01154
      endloop
   endfacet
   facet normal 0 1 0
      outer loop
         vertex 0.0165577 0.0234289 0.01164
         vertex 0.0172136 0.0234289 0.01164
         vertex 0.0173136 0.0234289 0.01154
      endloop
   endfacet
   facet normal 0 1 0
      outer loop
         vertex 0.0173136 0.0234289 0.01154
         vertex 0.0173136 0.0234289 0.01095
         vertex 0.0164577 0.0234289 0.01095
      endloop
   endfacet
endsolid 1111. Units = meters