solid 1111. STL generated by ONSHAPE BY PTC INC, 1.216. Units = meters
   facet normal 0.517738 0.84217 0.150653
      outer loop
         vertex -0.0192646 0.0298513 0.0198639
         vertex -0.0190933 0.0297497 0.0198683
         vertex -0.0190846 0.0297848 0.0196847
      endloop
   endfacet
   facet normal 0.207123 0.880834 0.425713
      outer loop
         vertex -0.0178038 0.0292456 0.0198903
         vertex -0.0176101 0.0292021 0.0198922
         vertex -0.0175949 0.0292932 0.019711
      endloop
   endfacet
   facet normal 0.14951 0.878432 0.453876
      outer loop
         vertex -0.0175949 0.0292932 0.019711
         vertex -0.0177881 0.0293317 0.0197044
         vertex -0.0178038 0.0292456 0.0198903
      endloop
   endfacet
   facet normal 0.3916 0.900232 0.190348
      outer loop
         vertex -0.0190673 0.0298549 0.0193174
         vertex -0.0192442 0.0299372 0.0193138
         vertex -0.019251 0.0299086 0.0194971
      endloop
   endfacet
   facet normal 0.605428 0.795317 0.0304551
      outer loop
         vertex -0.0199137 0.0303339 0.0194786
         vertex -0.0199132 0.0303195 0.0198435
         vertex -0.019755 0.0302057 0.0196663
      endloop
   endfacet
   facet normal 0.635123 0.771848 0.0294887
      outer loop
         vertex -0.0199132 0.0303195 0.0198435
         vertex -0.0197562 0.0301941 0.0198489
         vertex -0.019755 0.0302057 0.0196663
      endloop
   endfacet
   facet normal 0.58293 0.808245 0.0832676
      outer loop
         vertex -0.0195959 0.0300739 0.0198542
         vertex -0.0194321 0.0299595 0.0198592
         vertex -0.0194273 0.029982 0.0196761
      endloop
   endfacet
   facet normal 0.4222 0.886544 0.189177
      outer loop
         vertex -0.019076 0.0298199 0.019501
         vertex -0.019251 0.0299086 0.0194971
         vertex -0.0192578 0.0298799 0.0196805
      endloop
   endfacet
   facet normal 0.551975 0.825755 0.115981
      outer loop
         vertex -0.0194321 0.0299595 0.0198592
         vertex -0.0192646 0.0298513 0.0198639
         vertex -0.0192578 0.0298799 0.0196805
      endloop
   endfacet
   facet normal 0.526513 0.842035 0.117305
      outer loop
         vertex -0.0194273 0.029982 0.0196761
         vertex -0.0192578 0.0298799 0.0196805
         vertex -0.019251 0.0299086 0.0194971
      endloop
   endfacet
   facet normal 0.560078 0.824133 0.0843602
      outer loop
         vertex -0.019593 0.0300907 0.0196713
         vertex -0.0194273 0.029982 0.0196761
         vertex -0.0194224 0.0300045 0.019493
      endloop
   endfacet
   facet normal 0.610311 0.790328 0.0538677
      outer loop
         vertex -0.0197562 0.0301941 0.0198489
         vertex -0.0195959 0.0300739 0.0198542
         vertex -0.019593 0.0300907 0.0196713
      endloop
   endfacet
   facet normal 0.591072 0.804765 0.0546647
      outer loop
         vertex -0.019755 0.0302057 0.0196663
         vertex -0.019593 0.0300907 0.0196713
         vertex -0.0195901 0.0301074 0.0194885
      endloop
   endfacet
   facet normal 0.662144 0.749286 0.011666
      outer loop
         vertex -0.0200665 0.0304503 0.0198377
         vertex -0.0200685 0.0304578 0.0194732
         vertex -0.0202172 0.0305898 0.0194674
      endloop
   endfacet
   facet normal 0.683914 0.72956 0.00202526
      outer loop
         vertex -0.0202172 0.0305898 0.0194674
         vertex -0.0203595 0.0307289 0.0198256
         vertex -0.0200665 0.0304503 0.0198377
      endloop
   endfacet
   facet normal 0.662144 0.749286 0.011666
      outer loop
         vertex -0.0200665 0.0304503 0.0198377
         vertex -0.0199132 0.0303195 0.0198435
         vertex -0.0199137 0.0303339 0.0194786
      endloop
   endfacet
   facet normal 0.500184 0.857767 0.118539
      outer loop
         vertex -0.0194224 0.0300045 0.019493
         vertex -0.019251 0.0299086 0.0194971
         vertex -0.0192442 0.0299372 0.0193138
      endloop
   endfacet
   facet normal 0.286374 0.899419 0.330206
      outer loop
         vertex -0.0183588 0.0294797 0.019698
         vertex -0.0185447 0.0295441 0.0196952
         vertex -0.0185579 0.0294882 0.0198797
      endloop
   endfacet
   facet normal 0.116474 0.883526 0.453669
      outer loop
         vertex -0.0175784 0.0293926 0.0195132
         vertex -0.0175633 0.0294828 0.0193336
         vertex -0.0179492 0.0295308 0.0193315
      endloop
   endfacet
   facet normal 0.174686 0.901439 0.396097
      outer loop
         vertex -0.0179647 0.0294523 0.0195171
         vertex -0.0175789 0.0293892 0.0195198
         vertex -0.0175784 0.0293926 0.0195132
      endloop
   endfacet
   facet normal 0.208626 0.894281 0.395899
      outer loop
         vertex -0.0179802 0.0293737 0.0197026
         vertex -0.0181705 0.0294229 0.0197005
         vertex -0.0181855 0.029352 0.0198857
      endloop
   endfacet
   facet normal 0.174686 0.901439 0.396097
      outer loop
         vertex -0.0179647 0.0294523 0.0195171
         vertex -0.0179802 0.0293737 0.0197026
         vertex -0.0177881 0.0293317 0.0197044
      endloop
   endfacet
   facet normal 0.174645 0.887645 0.426129
      outer loop
         vertex -0.0177881 0.0293317 0.0197044
         vertex -0.0175789 0.0293892 0.0195198
         vertex -0.0179647 0.0294523 0.0195171
      endloop
   endfacet
   facet normal 0.174645 0.887645 0.426129
      outer loop
         vertex -0.0177881 0.0293317 0.0197044
         vertex -0.0179802 0.0293737 0.0197026
         vertex -0.0179956 0.0292952 0.0198882
      endloop
   endfacet
   facet normal 0.174686 0.901439 0.396097
      outer loop
         vertex -0.0179647 0.0294523 0.0195171
         vertex -0.0181556 0.0294938 0.0195152
         vertex -0.0181705 0.0294229 0.0197005
      endloop
   endfacet
   facet normal 0.246519 0.898256 0.363819
      outer loop
         vertex -0.0181705 0.0294229 0.0197005
         vertex -0.0183588 0.0294797 0.019698
         vertex -0.0183731 0.0294163 0.0198829
      endloop
   endfacet
   facet normal 0.212418 0.906731 0.364304
      outer loop
         vertex -0.0181556 0.0294938 0.0195152
         vertex -0.0183446 0.029543 0.0195131
         vertex -0.0183588 0.0294797 0.019698
      endloop
   endfacet
   facet normal 0.140143 0.907575 0.395812
      outer loop
         vertex -0.0179492 0.0295308 0.0193315
         vertex -0.0181406 0.0295648 0.01933
         vertex -0.0181556 0.0294938 0.0195152
      endloop
   endfacet
   facet normal 0.17767 0.914162 0.364337
      outer loop
         vertex -0.0181406 0.0295648 0.01933
         vertex -0.0183304 0.0296064 0.0193282
         vertex -0.0183446 0.029543 0.0195131
      endloop
   endfacet
   facet normal 0.217914 0.918011 0.331315
      outer loop
         vertex -0.0183304 0.0296064 0.0193282
         vertex -0.0185184 0.029656 0.019326
         vertex -0.0185316 0.0296001 0.0195106
      endloop
   endfacet
   facet normal 0.370547 0.891745 0.259782
      outer loop
         vertex -0.0187278 0.0296166 0.019692
         vertex -0.0189079 0.0296969 0.0196885
         vertex -0.0189182 0.0296551 0.0198725
      endloop
   endfacet
   facet normal 0.327992 0.897311 0.295389
      outer loop
         vertex -0.0185447 0.0295441 0.0196952
         vertex -0.0187278 0.0296166 0.019692
         vertex -0.0187397 0.0295678 0.0198763
      endloop
   endfacet
   facet normal 0.252492 0.909236 0.330966
      outer loop
         vertex -0.0183446 0.029543 0.0195131
         vertex -0.0185316 0.0296001 0.0195106
         vertex -0.0185447 0.0295441 0.0196952
      endloop
   endfacet
   facet normal 0.294736 0.90845 0.296393
      outer loop
         vertex -0.0185316 0.0296001 0.0195106
         vertex -0.018716 0.0296653 0.0195078
         vertex -0.0187278 0.0296166 0.019692
      endloop
   endfacet
   facet normal 0.411987 0.883275 0.223811
      outer loop
         vertex -0.0189079 0.0296969 0.0196885
         vertex -0.0190846 0.0297848 0.0196847
         vertex -0.0190933 0.0297497 0.0198683
      endloop
   endfacet
   facet normal 0.338282 0.904132 0.260979
      outer loop
         vertex -0.018716 0.0296653 0.0195078
         vertex -0.0188975 0.0297387 0.0195046
         vertex -0.0189079 0.0296969 0.0196885
      endloop
   endfacet
   facet normal 0.380889 0.896794 0.225129
      outer loop
         vertex -0.0188975 0.0297387 0.0195046
         vertex -0.019076 0.0298199 0.019501
         vertex -0.0190846 0.0297848 0.0196847
      endloop
   endfacet
   facet normal 0.305241 0.91556 0.261873
      outer loop
         vertex -0.0187041 0.0297141 0.0193235
         vertex -0.0188872 0.0297805 0.0193206
         vertex -0.0188975 0.0297387 0.0195046
      endloop
   endfacet
   facet normal 0.26074 0.918577 0.297037
      outer loop
         vertex -0.0185184 0.029656 0.019326
         vertex -0.0187041 0.0297141 0.0193235
         vertex -0.018716 0.0296653 0.0195078
      endloop
   endfacet
   facet normal 0.348987 0.909418 0.226199
      outer loop
         vertex -0.0188872 0.0297805 0.0193206
         vertex -0.0190673 0.0298549 0.0193174
         vertex -0.019076 0.0298199 0.019501
      endloop
   endfacet
   facet normal 0.269774 0.864769 0.423553
      outer loop
         vertex -0.0178351 0.0290733 0.0202621
         vertex -0.0176413 0.029015 0.0202647
         vertex -0.0176281 0.0290944 0.0201067
      endloop
   endfacet
   facet normal 0.213495 0.865664 0.452819
      outer loop
         vertex -0.0176281 0.0290944 0.0201067
         vertex -0.0178194 0.0291594 0.0200762
         vertex -0.0178351 0.0290733 0.0202621
      endloop
   endfacet
   facet normal 0.299808 0.855656 0.421863
      outer loop
         vertex -0.0178508 0.0289871 0.020448
         vertex -0.0176569 0.0289214 0.0204509
         vertex -0.0176446 0.028995 0.0203045
      endloop
   endfacet
   facet normal 0.244289 0.858121 0.451609
      outer loop
         vertex -0.0176446 0.028995 0.0203045
         vertex -0.0178351 0.0290733 0.0202621
         vertex -0.0178508 0.0289871 0.020448
      endloop
   endfacet
   facet normal 0.269774 0.864769 0.423553
      outer loop
         vertex -0.0178351 0.0290733 0.0202621
         vertex -0.0180266 0.0291381 0.0202593
         vertex -0.0180421 0.0290596 0.0204448
      endloop
   endfacet
   facet normal 0.305831 0.867363 0.392618
      outer loop
         vertex -0.0180266 0.0291381 0.0202593
         vertex -0.0182155 0.0292102 0.0202561
         vertex -0.0182305 0.0291393 0.0204414
      endloop
   endfacet
   facet normal 0.343919 0.867309 0.359853
      outer loop
         vertex -0.0182155 0.0292102 0.0202561
         vertex -0.0184015 0.0292896 0.0202527
         vertex -0.0184157 0.0292262 0.0204376
      endloop
   endfacet
   facet normal 0.382852 0.864507 0.325658
      outer loop
         vertex -0.0184015 0.0292896 0.0202527
         vertex -0.0185842 0.0293763 0.0202489
         vertex -0.0185974 0.0293204 0.0204334
      endloop
   endfacet
   facet normal 0.490203 0.834295 0.252296
      outer loop
         vertex -0.0187753 0.0294216 0.020429
         vertex -0.0185974 0.0293204 0.0204334
         vertex -0.0185842 0.0293763 0.0202489
      endloop
   endfacet
   facet normal 0.526862 0.821953 0.216355
      outer loop
         vertex -0.0189493 0.0295298 0.0204243
         vertex -0.0187753 0.0294216 0.020429
         vertex -0.0187635 0.0294704 0.0202448
      endloop
   endfacet
   facet normal 0.561539 0.807489 0.180655
      outer loop
         vertex -0.0191193 0.0296445 0.0204193
         vertex -0.0189493 0.0295298 0.0204243
         vertex -0.018939 0.0295716 0.0202404
      endloop
   endfacet
   facet normal 0.351641 0.876968 0.327529
      outer loop
         vertex -0.0183873 0.0293529 0.0200678
         vertex -0.0185711 0.0294322 0.0200643
         vertex -0.0185842 0.0293763 0.0202489
      endloop
   endfacet
   facet normal 0.274286 0.877168 0.394136
      outer loop
         vertex -0.0180111 0.0292167 0.0200737
         vertex -0.0182005 0.0292811 0.0200709
         vertex -0.0182155 0.0292102 0.0202561
      endloop
   endfacet
   facet normal 0.238858 0.873186 0.424845
      outer loop
         vertex -0.0178194 0.0291594 0.0200762
         vertex -0.0176257 0.0291086 0.0200784
         vertex -0.0176115 0.0291938 0.0199088
      endloop
   endfacet
   facet normal 0.181878 0.872457 0.453585
      outer loop
         vertex -0.0176115 0.0291938 0.0199088
         vertex -0.0178038 0.0292456 0.0198903
         vertex -0.0178194 0.0291594 0.0200762
      endloop
   endfacet
   facet normal 0.238858 0.873186 0.424845
      outer loop
         vertex -0.0178194 0.0291594 0.0200762
         vertex -0.0180111 0.0292167 0.0200737
         vertex -0.0180266 0.0291381 0.0202593
      endloop
   endfacet
   facet normal 0.207123 0.880834 0.425713
      outer loop
         vertex -0.0178038 0.0292456 0.0198903
         vertex -0.0179956 0.0292952 0.0198882
         vertex -0.0180111 0.0292167 0.0200737
      endloop
   endfacet
   facet normal 0.241857 0.886167 0.395238
      outer loop
         vertex -0.0179956 0.0292952 0.0198882
         vertex -0.0181855 0.029352 0.0198857
         vertex -0.0182005 0.0292811 0.0200709
      endloop
   endfacet
   facet normal 0.312358 0.878465 0.36157
      outer loop
         vertex -0.0182005 0.0292811 0.0200709
         vertex -0.0183873 0.0293529 0.0200678
         vertex -0.0184015 0.0292896 0.0202527
      endloop
   endfacet
   facet normal 0.279864 0.888808 0.3629
      outer loop
         vertex -0.0181855 0.029352 0.0198857
         vertex -0.0183731 0.0294163 0.0198829
         vertex -0.0183873 0.0293529 0.0200678
      endloop
   endfacet
   facet normal 0.499686 0.838192 0.218512
      outer loop
         vertex -0.018939 0.0295716 0.0202404
         vertex -0.0187635 0.0294704 0.0202448
         vertex -0.0187516 0.0295191 0.0200605
      endloop
   endfacet
   facet normal 0.319455 0.888635 0.329053
      outer loop
         vertex -0.0183731 0.0294163 0.0198829
         vertex -0.0185579 0.0294882 0.0198797
         vertex -0.0185711 0.0294322 0.0200643
      endloop
   endfacet
   facet normal 0.391896 0.872317 0.292371
      outer loop
         vertex -0.0185711 0.0294322 0.0200643
         vertex -0.0187516 0.0295191 0.0200605
         vertex -0.0187635 0.0294704 0.0202448
      endloop
   endfacet
   facet normal 0.360408 0.885238 0.294042
      outer loop
         vertex -0.0185579 0.0294882 0.0198797
         vertex -0.0187397 0.0295678 0.0198763
         vertex -0.0187516 0.0295191 0.0200605
      endloop
   endfacet
   facet normal 0.401945 0.878478 0.258296
      outer loop
         vertex -0.0187397 0.0295678 0.0198763
         vertex -0.0189182 0.0296551 0.0198725
         vertex -0.0189286 0.0296134 0.0200564
      endloop
   endfacet
   facet normal 0.535674 0.824431 0.18267
      outer loop
         vertex -0.0191106 0.0296796 0.0202356
         vertex -0.018939 0.0295716 0.0202404
         vertex -0.0189286 0.0296134 0.0200564
      endloop
   endfacet
   facet normal 0.508764 0.840894 0.184544
      outer loop
         vertex -0.0191019 0.0297147 0.020052
         vertex -0.0189286 0.0296134 0.0200564
         vertex -0.0189182 0.0296551 0.0198725
      endloop
   endfacet
   facet normal 0.569658 0.808568 0.147335
      outer loop
         vertex -0.0192782 0.0297941 0.0202306
         vertex -0.0191106 0.0296796 0.0202356
         vertex -0.0191019 0.0297147 0.020052
      endloop
   endfacet
   facet normal 0.594109 0.791113 0.145518
      outer loop
         vertex -0.019285 0.0297655 0.020414
         vertex -0.0191193 0.0296445 0.0204193
         vertex -0.0191106 0.0296796 0.0202356
      endloop
   endfacet
   facet normal 0.622828 0.774366 0.111549
      outer loop
         vertex -0.0194432 0.0298961 0.0204085
         vertex -0.019285 0.0297655 0.020414
         vertex -0.0192782 0.0297941 0.0202306
      endloop
   endfacet
   facet normal 0.600157 0.791847 0.113095
      outer loop
         vertex -0.0194418 0.0299146 0.0202254
         vertex -0.0197584 0.0301709 0.0202142
         vertex -0.0197371 0.0301516 0.0203961
      endloop
   endfacet
   facet normal 0.600157 0.791847 0.113095
      outer loop
         vertex -0.0194418 0.0299146 0.0202254
         vertex -0.019437 0.0299371 0.0200423
         vertex -0.0195988 0.0300572 0.020037
      endloop
   endfacet
   facet normal 0.604968 0.792003 0.0821298
      outer loop
         vertex -0.0195988 0.0300572 0.020037
         vertex -0.0197584 0.0301709 0.0202142
         vertex -0.0194418 0.0299146 0.0202254
      endloop
   endfacet
   facet normal 0.544192 0.825614 0.149051
      outer loop
         vertex -0.0192714 0.0298227 0.0200473
         vertex -0.0191019 0.0297147 0.020052
         vertex -0.0190933 0.0297497 0.0198683
      endloop
   endfacet
   facet normal 0.600157 0.791847 0.113095
      outer loop
         vertex -0.0194418 0.0299146 0.0202254
         vertex -0.0192782 0.0297941 0.0202306
         vertex -0.0192714 0.0298227 0.0200473
      endloop
   endfacet
   facet normal 0.576533 0.809001 0.114575
      outer loop
         vertex -0.019437 0.0299371 0.0200423
         vertex -0.0192714 0.0298227 0.0200473
         vertex -0.0192646 0.0298513 0.0198639
      endloop
   endfacet
   facet normal 0.604968 0.792003 0.0821298
      outer loop
         vertex -0.0195988 0.0300572 0.020037
         vertex -0.019437 0.0299371 0.0200423
         vertex -0.0194321 0.0299595 0.0198592
      endloop
   endfacet
   facet normal 0.628893 0.77568 0.0530532
      outer loop
         vertex -0.0197573 0.0301825 0.0200316
         vertex -0.0195988 0.0300572 0.020037
         vertex -0.0195959 0.0300739 0.0198542
      endloop
   endfacet
   facet normal 0.628893 0.77568 0.0530532
      outer loop
         vertex -0.0197573 0.0301825 0.0200316
         vertex -0.0197562 0.0301941 0.0198489
         vertex -0.0199132 0.0303195 0.0198435
      endloop
   endfacet
   facet normal 0.679713 0.733392 0.0112416
      outer loop
         vertex -0.0200645 0.0304428 0.0202023
         vertex -0.0197584 0.0301709 0.0202142
         vertex -0.0197573 0.0301825 0.0200316
      endloop
   endfacet
   facet normal 0.635123 0.771848 0.0294887
      outer loop
         vertex -0.0199132 0.0303195 0.0198435
         vertex -0.0200645 0.0304428 0.0202023
         vertex -0.0197573 0.0301825 0.0200316
      endloop
   endfacet
   facet normal 0.679713 0.733392 0.0112416
      outer loop
         vertex -0.0200645 0.0304428 0.0202023
         vertex -0.0200621 0.0304404 0.0203953
         vertex -0.0197527 0.0301655 0.0204217
      endloop
   endfacet
   facet normal 0.666386 0.743843 0.0512651
      outer loop
         vertex -0.0197527 0.0301655 0.0204217
         vertex -0.0197371 0.0301516 0.0203961
         vertex -0.0200645 0.0304428 0.0202023
      endloop
   endfacet
   facet normal 0.627605 0.770549 0.111207
      outer loop
         vertex -0.0194441 0.0298913 0.0204479
         vertex -0.0194432 0.0298961 0.0204085
         vertex -0.0197371 0.0301516 0.0203961
      endloop
   endfacet
   facet normal 0.622828 0.774366 0.111549
      outer loop
         vertex -0.0194432 0.0298961 0.0204085
         vertex -0.0194441 0.0298913 0.0204479
         vertex -0.0193527 0.0298101 0.0204557
      endloop
   endfacet
   facet normal 0.611939 0.779967 0.131082
      outer loop
         vertex -0.0193527 0.0298101 0.0204557
         vertex -0.019285 0.0297655 0.020414
         vertex -0.0194432 0.0298961 0.0204085
      endloop
   endfacet
   facet normal 0.561539 0.807489 0.180655
      outer loop
         vertex -0.0191193 0.0296445 0.0204193
         vertex -0.019285 0.0297655 0.020414
         vertex -0.0192846 0.0297608 0.0204631
      endloop
   endfacet
   facet normal 0.526862 0.821953 0.216355
      outer loop
         vertex -0.0189493 0.0295298 0.0204243
         vertex -0.0191193 0.0296445 0.0204193
         vertex -0.0191171 0.0296397 0.0204814
      endloop
   endfacet
   facet normal 0.490203 0.834295 0.252296
      outer loop
         vertex -0.0187753 0.0294216 0.020429
         vertex -0.0189493 0.0295298 0.0204243
         vertex -0.0189494 0.0295184 0.0204996
      endloop
   endfacet
   facet normal 0.467795 0.836016 0.286782
      outer loop
         vertex -0.0186012 0.0292952 0.0205365
         vertex -0.0185974 0.0293204 0.0204334
         vertex -0.0187753 0.0294216 0.020429
      endloop
   endfacet
   facet normal 0.413022 0.851342 0.323465
      outer loop
         vertex -0.0184157 0.0292262 0.0204376
         vertex -0.0185974 0.0293204 0.0204334
         vertex -0.0186012 0.0292952 0.0205365
      endloop
   endfacet
   facet normal 0.374478 0.85543 0.357778
      outer loop
         vertex -0.0182305 0.0291393 0.0204414
         vertex -0.0184157 0.0292262 0.0204376
         vertex -0.0184216 0.0291913 0.0205551
      endloop
   endfacet
   facet normal 0.360006 0.848007 0.388946
      outer loop
         vertex -0.0180512 0.0290041 0.0205919
         vertex -0.0180421 0.0290596 0.0204448
         vertex -0.0182305 0.0291393 0.0204414
      endloop
   endfacet
   facet normal 0.299808 0.855656 0.421863
      outer loop
         vertex -0.0178508 0.0289871 0.020448
         vertex -0.0180421 0.0290596 0.0204448
         vertex -0.0180512 0.0290041 0.0205919
      endloop
   endfacet
   facet normal 0.325277 0.847185 0.420086
      outer loop
         vertex -0.0178616 0.0289183 0.0206101
         vertex -0.0176717 0.0288323 0.0206282
         vertex -0.0176612 0.0288956 0.0205023
      endloop
   endfacet
   facet normal 0.2742 0.8499 0.449983
      outer loop
         vertex -0.0176612 0.0288956 0.0205023
         vertex -0.0178508 0.0289871 0.020448
         vertex -0.0178616 0.0289183 0.0206101
      endloop
   endfacet
   facet normal 0.082864 0.887681 0.452942
      outer loop
         vertex -0.0175618 0.029492 0.0193153
         vertex -0.0175485 0.0295719 0.0191562
         vertex -0.0178157 0.0295896 0.0191624
      endloop
   endfacet
   facet normal 0.140143 0.907575 0.395812
      outer loop
         vertex -0.0179492 0.0295308 0.0193315
         vertex -0.0175633 0.0294828 0.0193336
         vertex -0.0175618 0.029492 0.0193153
      endloop
   endfacet
   facet normal 0.087257 0.906273 0.413589
      outer loop
         vertex -0.0178157 0.0295896 0.0191624
         vertex -0.0179492 0.0295308 0.0193315
         vertex -0.0175618 0.029492 0.0193153
      endloop
   endfacet
   facet normal 0.140143 0.907575 0.395812
      outer loop
         vertex -0.0179492 0.0295308 0.0193315
         vertex -0.0179347 0.0296055 0.0191646
         vertex -0.0181269 0.0296312 0.0191681
      endloop
   endfacet
   facet normal 0.17767 0.914162 0.364337
      outer loop
         vertex -0.0181406 0.0295648 0.01933
         vertex -0.0181269 0.0296312 0.0191681
         vertex -0.0182631 0.0296495 0.0191706
      endloop
   endfacet
   facet normal 0.232192 0.926124 0.297289
      outer loop
         vertex -0.0185065 0.0297068 0.0191734
         vertex -0.0185184 0.029656 0.019326
         vertex -0.0183304 0.0296064 0.0193282
      endloop
   endfacet
   facet normal 0.26074 0.918577 0.297037
      outer loop
         vertex -0.0185184 0.029656 0.019326
         vertex -0.0185065 0.0297068 0.0191734
         vertex -0.0186575 0.0297424 0.0191752
      endloop
   endfacet
   facet normal 0.323448 0.91865 0.226857
      outer loop
         vertex -0.0188775 0.0298177 0.0191761
         vertex -0.0188872 0.0297805 0.0193206
         vertex -0.0187041 0.0297141 0.0193235
      endloop
   endfacet
   facet normal 0.348987 0.909418 0.226199
      outer loop
         vertex -0.0188872 0.0297805 0.0193206
         vertex -0.0188775 0.0298177 0.0191761
         vertex -0.0190367 0.0298722 0.0191767
      endloop
   endfacet
   facet normal 0.410492 0.898514 0.155466
      outer loop
         vertex -0.0192365 0.0299643 0.0191757
         vertex -0.0192442 0.0299372 0.0193138
         vertex -0.0190673 0.0298549 0.0193174
      endloop
   endfacet
   facet normal 0.410492 0.898514 0.155466
      outer loop
         vertex -0.0192365 0.0299643 0.0191757
         vertex -0.019413 0.0300458 0.0191748
         vertex -0.0194176 0.030027 0.0193099
      endloop
   endfacet
   facet normal 0.536438 0.839607 0.0854023
      outer loop
         vertex -0.0195901 0.0301074 0.0194885
         vertex -0.0194224 0.0300045 0.019493
         vertex -0.0194595 0.0300672 0.0191745
      endloop
   endfacet
   facet normal 0.463503 0.879059 0.111442
      outer loop
         vertex -0.0194595 0.0300672 0.0191745
         vertex -0.0194224 0.0300045 0.019493
         vertex -0.0194176 0.030027 0.0193099
      endloop
   endfacet
   facet normal 0.473036 0.872877 0.119675
      outer loop
         vertex -0.0194176 0.030027 0.0193099
         vertex -0.019413 0.0300458 0.0191748
         vertex -0.0194595 0.0300672 0.0191745
      endloop
   endfacet
   facet normal 0.493855 0.865174 0.0870681
      outer loop
         vertex -0.019583 0.03014 0.0191726
         vertex -0.0197942 0.0302644 0.0191692
         vertex -0.0197539 0.0302172 0.0194837
      endloop
   endfacet
   facet normal 0.605428 0.795317 0.0304551
      outer loop
         vertex -0.0199137 0.0303339 0.0194786
         vertex -0.0197539 0.0302172 0.0194837
         vertex -0.0197942 0.0302644 0.0191692
      endloop
   endfacet
   facet normal 0.643603 0.765264 0.0120976
      outer loop
         vertex -0.0200685 0.0304578 0.0194732
         vertex -0.0199137 0.0303339 0.0194786
         vertex -0.0199117 0.0303495 0.0191658
      endloop
   endfacet
   facet normal 0.683914 0.72956 0.00202526
      outer loop
         vertex -0.0202172 0.0305898 0.0194674
         vertex -0.0200685 0.0304578 0.0194732
         vertex -0.0200703 0.0304642 0.0191613
      endloop
   endfacet
   facet normal 0.7076 0.706613 -4.65854e-05
      outer loop
         vertex -0.0203595 0.0307289 0.0194613
         vertex -0.0202172 0.0305898 0.0194674
         vertex -0.0202149 0.0305965 0.0191557
      endloop
   endfacet
   facet normal 0.691755 0.722091 0.00773127
      outer loop
         vertex -0.0201038 0.0304775 0.0203918
         vertex -0.0200621 0.0304404 0.0203953
         vertex -0.0200645 0.0304428 0.0202023
      endloop
   endfacet
   facet normal 0.662144 0.749286 0.011666
      outer loop
         vertex -0.0200665 0.0304503 0.0198377
         vertex -0.0203595 0.0307289 0.0198256
         vertex -0.0202289 0.030599 0.0203844
      endloop
   endfacet
   facet normal 0.701661 0.71251 0.00130595
      outer loop
         vertex -0.0202289 0.030599 0.0203844
         vertex -0.0201038 0.0304775 0.0203918
         vertex -0.0200665 0.0304503 0.0198377
      endloop
   endfacet
   facet normal 0.707526 0.706687 -4.65854e-05
      outer loop
         vertex -0.0203595 0.0307289 0.0198256
         vertex -0.0203595 0.0307289 0.0203818
         vertex -0.020294 0.0306635 0.0203829
      endloop
   endfacet
   facet normal 0.705697 0.708514 0.000162841
      outer loop
         vertex -0.020294 0.0306635 0.0203829
         vertex -0.0202289 0.030599 0.0203844
         vertex -0.0203595 0.0307289 0.0198256
      endloop
   endfacet
   facet normal 0.679713 0.733392 0.0112416
      outer loop
         vertex -0.0200645 0.0304428 0.0202023
         vertex -0.0200665 0.0304503 0.0198377
         vertex -0.0201038 0.0304775 0.0203918
      endloop
   endfacet
   facet normal 0.677932 0.735122 0.00209855
      outer loop
         vertex -0.0202149 0.0305965 0.0191557
         vertex -0.0203595 0.0307289 0.01915
         vertex -0.0203595 0.0307289 0.0194613
      endloop
   endfacet
   facet normal 0.626936 0.778971 0.0124746
      outer loop
         vertex -0.0200703 0.0304642 0.0191613
         vertex -0.0202149 0.0305965 0.0191557
         vertex -0.0202172 0.0305898 0.0194674
      endloop
   endfacet
   facet normal 0.578538 0.815056 0.0312706
      outer loop
         vertex -0.0199117 0.0303495 0.0191658
         vertex -0.0200703 0.0304642 0.0191613
         vertex -0.0200685 0.0304578 0.0194732
      endloop
   endfacet
   facet normal 0.546354 0.836082 0.0496346
      outer loop
         vertex -0.0197942 0.0302644 0.0191692
         vertex -0.0199117 0.0303495 0.0191658
         vertex -0.0199137 0.0303339 0.0194786
      endloop
   endfacet
   facet normal 0.571183 0.818948 0.0554418
      outer loop
         vertex -0.0197539 0.0302172 0.0194837
         vertex -0.0195901 0.0301074 0.0194885
         vertex -0.019583 0.03014 0.0191726
      endloop
   endfacet
   facet normal 0.463503 0.879059 0.111442
      outer loop
         vertex -0.0194595 0.0300672 0.0191745
         vertex -0.019583 0.03014 0.0191726
         vertex -0.0195901 0.0301074 0.0194885
      endloop
   endfacet
   facet normal 0.473036 0.872877 0.119675
      outer loop
         vertex -0.0194176 0.030027 0.0193099
         vertex -0.0192442 0.0299372 0.0193138
         vertex -0.0192365 0.0299643 0.0191757
      endloop
   endfacet
   facet normal 0.3916 0.900232 0.190348
      outer loop
         vertex -0.0190673 0.0298549 0.0193174
         vertex -0.0190367 0.0298722 0.0191767
         vertex -0.0192365 0.0299643 0.0191757
      endloop
   endfacet
   facet normal 0.361853 0.911428 0.19586
      outer loop
         vertex -0.0190367 0.0298722 0.0191767
         vertex -0.0190673 0.0298549 0.0193174
         vertex -0.0188872 0.0297805 0.0193206
      endloop
   endfacet
   facet normal 0.305241 0.91556 0.261873
      outer loop
         vertex -0.0187041 0.0297141 0.0193235
         vertex -0.0186575 0.0297424 0.0191752
         vertex -0.0188775 0.0298177 0.0191761
      endloop
   endfacet
   facet normal 0.269084 0.924682 0.269364
      outer loop
         vertex -0.0186575 0.0297424 0.0191752
         vertex -0.0187041 0.0297141 0.0193235
         vertex -0.0185184 0.029656 0.019326
      endloop
   endfacet
   facet normal 0.217914 0.918011 0.331315
      outer loop
         vertex -0.0183304 0.0296064 0.0193282
         vertex -0.0182631 0.0296495 0.0191706
         vertex -0.0185065 0.0297068 0.0191734
      endloop
   endfacet
   facet normal 0.17588 0.923495 0.340916
      outer loop
         vertex -0.0182631 0.0296495 0.0191706
         vertex -0.0183304 0.0296064 0.0193282
         vertex -0.0181406 0.0295648 0.01933
      endloop
   endfacet
   facet normal 0.146903 0.919747 0.363986
      outer loop
         vertex -0.0181269 0.0296312 0.0191681
         vertex -0.0181406 0.0295648 0.01933
         vertex -0.0179492 0.0295308 0.0193315
      endloop
   endfacet
   facet normal 0.087257 0.906273 0.413589
      outer loop
         vertex -0.0178157 0.0295896 0.0191624
         vertex -0.0179347 0.0296055 0.0191646
         vertex -0.0179492 0.0295308 0.0193315
      endloop
   endfacet
   facet normal 0.2742 0.8499 0.449983
      outer loop
         vertex -0.0176612 0.0288956 0.0205023
         vertex -0.0176569 0.0289214 0.0204509
         vertex -0.0178508 0.0289871 0.020448
      endloop
   endfacet
   facet normal 0.360006 0.848007 0.388946
      outer loop
         vertex -0.0180512 0.0290041 0.0205919
         vertex -0.0178616 0.0289183 0.0206101
         vertex -0.0178508 0.0289871 0.020448
      endloop
   endfacet
   facet normal 0.374478 0.85543 0.357778
      outer loop
         vertex -0.0182305 0.0291393 0.0204414
         vertex -0.0182663 0.0291015 0.0205713
         vertex -0.0180512 0.0290041 0.0205919
      endloop
   endfacet
   facet normal 0.431683 0.842628 0.321913
      outer loop
         vertex -0.0184216 0.0291913 0.0205551
         vertex -0.0182663 0.0291015 0.0205713
         vertex -0.0182305 0.0291393 0.0204414
      endloop
   endfacet
   facet normal 0.467795 0.836016 0.286782
      outer loop
         vertex -0.0186012 0.0292952 0.0205365
         vertex -0.0184216 0.0291913 0.0205551
         vertex -0.0184157 0.0292262 0.0204376
      endloop
   endfacet
   facet normal 0.490203 0.834295 0.252296
      outer loop
         vertex -0.0187753 0.0294216 0.020429
         vertex -0.0187992 0.0294098 0.0205159
         vertex -0.0186012 0.0292952 0.0205365
      endloop
   endfacet
   facet normal 0.537708 0.815147 0.21542
      outer loop
         vertex -0.0189494 0.0295184 0.0204996
         vertex -0.0187992 0.0294098 0.0205159
         vertex -0.0187753 0.0294216 0.020429
      endloop
   endfacet
   facet normal 0.57008 0.801642 0.179941
      outer loop
         vertex -0.0191171 0.0296397 0.0204814
         vertex -0.0189494 0.0295184 0.0204996
         vertex -0.0189493 0.0295298 0.0204243
      endloop
   endfacet
   facet normal 0.600499 0.786366 0.145015
      outer loop
         vertex -0.0192846 0.0297608 0.0204631
         vertex -0.0191171 0.0296397 0.0204814
         vertex -0.0191193 0.0296445 0.0204193
      endloop
   endfacet
   facet normal 0.611939 0.779967 0.131082
      outer loop
         vertex -0.0193527 0.0298101 0.0204557
         vertex -0.0192846 0.0297608 0.0204631
         vertex -0.019285 0.0297655 0.020414
      endloop
   endfacet
   facet normal 0.664062 0.74591 0.0513819
      outer loop
         vertex -0.0197371 0.0301516 0.0203961
         vertex -0.0197527 0.0301655 0.0204217
         vertex -0.0194441 0.0298913 0.0204479
      endloop
   endfacet
   facet normal 0.664062 0.74591 0.0513819
      outer loop
         vertex -0.0197371 0.0301516 0.0203961
         vertex -0.0197584 0.0301709 0.0202142
         vertex -0.0200645 0.0304428 0.0202023
      endloop
   endfacet
   facet normal 0.635123 0.771848 0.0294887
      outer loop
         vertex -0.0199132 0.0303195 0.0198435
         vertex -0.0200665 0.0304503 0.0198377
         vertex -0.0200645 0.0304428 0.0202023
      endloop
   endfacet
   facet normal 0.58293 0.808245 0.0832676
      outer loop
         vertex -0.0195959 0.0300739 0.0198542
         vertex -0.0197562 0.0301941 0.0198489
         vertex -0.0197573 0.0301825 0.0200316
      endloop
   endfacet
   facet normal 0.551975 0.825755 0.115981
      outer loop
         vertex -0.0194321 0.0299595 0.0198592
         vertex -0.0195959 0.0300739 0.0198542
         vertex -0.0195988 0.0300572 0.020037
      endloop
   endfacet
   facet normal 0.517738 0.84217 0.150653
      outer loop
         vertex -0.0192646 0.0298513 0.0198639
         vertex -0.0194321 0.0299595 0.0198592
         vertex -0.019437 0.0299371 0.0200423
      endloop
   endfacet
   facet normal 0.544192 0.825614 0.149051
      outer loop
         vertex -0.0192714 0.0298227 0.0200473
         vertex -0.019437 0.0299371 0.0200423
         vertex -0.0194418 0.0299146 0.0202254
      endloop
   endfacet
   facet normal 0.480848 0.856791 0.186263
      outer loop
         vertex -0.0190933 0.0297497 0.0198683
         vertex -0.0192646 0.0298513 0.0198639
         vertex -0.0192714 0.0298227 0.0200473
      endloop
   endfacet
   facet normal 0.604968 0.792003 0.0821298
      outer loop
         vertex -0.0195988 0.0300572 0.020037
         vertex -0.0197573 0.0301825 0.0200316
         vertex -0.0197584 0.0301709 0.0202142
      endloop
   endfacet
   facet normal 0.664062 0.74591 0.0513819
      outer loop
         vertex -0.0197371 0.0301516 0.0203961
         vertex -0.0194432 0.0298961 0.0204085
         vertex -0.0194418 0.0299146 0.0202254
      endloop
   endfacet
   facet normal 0.569658 0.808568 0.147335
      outer loop
         vertex -0.0192782 0.0297941 0.0202306
         vertex -0.0194418 0.0299146 0.0202254
         vertex -0.0194432 0.0298961 0.0204085
      endloop
   endfacet
   facet normal 0.535674 0.824431 0.18267
      outer loop
         vertex -0.0191106 0.0296796 0.0202356
         vertex -0.0192782 0.0297941 0.0202306
         vertex -0.019285 0.0297655 0.020414
      endloop
   endfacet
   facet normal 0.508764 0.840894 0.184544
      outer loop
         vertex -0.0191019 0.0297147 0.020052
         vertex -0.0192714 0.0298227 0.0200473
         vertex -0.0192782 0.0297941 0.0202306
      endloop
   endfacet
   facet normal 0.442197 0.868944 0.222258
      outer loop
         vertex -0.0189182 0.0296551 0.0198725
         vertex -0.0190933 0.0297497 0.0198683
         vertex -0.0191019 0.0297147 0.020052
      endloop
   endfacet
   facet normal 0.471449 0.853886 0.220486
      outer loop
         vertex -0.0189286 0.0296134 0.0200564
         vertex -0.0191019 0.0297147 0.020052
         vertex -0.0191106 0.0296796 0.0202356
      endloop
   endfacet
   facet normal 0.471449 0.853886 0.220486
      outer loop
         vertex -0.0189286 0.0296134 0.0200564
         vertex -0.0187516 0.0295191 0.0200605
         vertex -0.0187397 0.0295678 0.0198763
      endloop
   endfacet
   facet normal 0.432395 0.86442 0.256539
      outer loop
         vertex -0.0187516 0.0295191 0.0200605
         vertex -0.0185711 0.0294322 0.0200643
         vertex -0.0185579 0.0294882 0.0198797
      endloop
   endfacet
   facet normal 0.461832 0.849661 0.254532
      outer loop
         vertex -0.0187635 0.0294704 0.0202448
         vertex -0.0185842 0.0293763 0.0202489
         vertex -0.0185711 0.0294322 0.0200643
      endloop
   endfacet
   facet normal 0.391896 0.872317 0.292371
      outer loop
         vertex -0.0185711 0.0294322 0.0200643
         vertex -0.0183873 0.0293529 0.0200678
         vertex -0.0183731 0.0294163 0.0198829
      endloop
   endfacet
   facet normal 0.432395 0.86442 0.256539
      outer loop
         vertex -0.0187516 0.0295191 0.0200605
         vertex -0.0189286 0.0296134 0.0200564
         vertex -0.018939 0.0295716 0.0202404
      endloop
   endfacet
   facet normal 0.351641 0.876968 0.327529
      outer loop
         vertex -0.0183873 0.0293529 0.0200678
         vertex -0.0182005 0.0292811 0.0200709
         vertex -0.0181855 0.029352 0.0198857
      endloop
   endfacet
   facet normal 0.382852 0.864507 0.325658
      outer loop
         vertex -0.0184015 0.0292896 0.0202527
         vertex -0.0182155 0.0292102 0.0202561
         vertex -0.0182005 0.0292811 0.0200709
      endloop
   endfacet
   facet normal 0.312358 0.878465 0.36157
      outer loop
         vertex -0.0182005 0.0292811 0.0200709
         vertex -0.0180111 0.0292167 0.0200737
         vertex -0.0179956 0.0292952 0.0198882
      endloop
   endfacet
   facet normal 0.274286 0.877168 0.394136
      outer loop
         vertex -0.0180111 0.0292167 0.0200737
         vertex -0.0178194 0.0291594 0.0200762
         vertex -0.0178038 0.0292456 0.0198903
      endloop
   endfacet
   facet normal 0.305831 0.867363 0.392618
      outer loop
         vertex -0.0180266 0.0291381 0.0202593
         vertex -0.0178351 0.0290733 0.0202621
         vertex -0.0178194 0.0291594 0.0200762
      endloop
   endfacet
   facet normal 0.181878 0.872457 0.453585
      outer loop
         vertex -0.0176115 0.0291938 0.0199088
         vertex -0.0176101 0.0292021 0.0198922
         vertex -0.0178038 0.0292456 0.0198903
      endloop
   endfacet
   facet normal 0.343919 0.867309 0.359853
      outer loop
         vertex -0.0182155 0.0292102 0.0202561
         vertex -0.0180266 0.0291381 0.0202593
         vertex -0.0180111 0.0292167 0.0200737
      endloop
   endfacet
   facet normal 0.422381 0.85864 0.2904
      outer loop
         vertex -0.0185842 0.0293763 0.0202489
         vertex -0.0184015 0.0292896 0.0202527
         vertex -0.0183873 0.0293529 0.0200678
      endloop
   endfacet
   facet normal 0.499686 0.838192 0.218512
      outer loop
         vertex -0.018939 0.0295716 0.0202404
         vertex -0.0191106 0.0296796 0.0202356
         vertex -0.0191193 0.0296445 0.0204193
      endloop
   endfacet
   facet normal 0.461832 0.849661 0.254532
      outer loop
         vertex -0.0187635 0.0294704 0.0202448
         vertex -0.018939 0.0295716 0.0202404
         vertex -0.0189493 0.0295298 0.0204243
      endloop
   endfacet
   facet normal 0.422381 0.85864 0.2904
      outer loop
         vertex -0.0185842 0.0293763 0.0202489
         vertex -0.0187635 0.0294704 0.0202448
         vertex -0.0187753 0.0294216 0.020429
      endloop
   endfacet
   facet normal 0.451804 0.844299 0.288152
      outer loop
         vertex -0.0185974 0.0293204 0.0204334
         vertex -0.0184157 0.0292262 0.0204376
         vertex -0.0184015 0.0292896 0.0202527
      endloop
   endfacet
   facet normal 0.413022 0.851342 0.323465
      outer loop
         vertex -0.0184157 0.0292262 0.0204376
         vertex -0.0182305 0.0291393 0.0204414
         vertex -0.0182155 0.0292102 0.0202561
      endloop
   endfacet
   facet normal 0.374478 0.85543 0.357778
      outer loop
         vertex -0.0182305 0.0291393 0.0204414
         vertex -0.0180421 0.0290596 0.0204448
         vertex -0.0180266 0.0291381 0.0202593
      endloop
   endfacet
   facet normal 0.336424 0.856832 0.390714
      outer loop
         vertex -0.0180421 0.0290596 0.0204448
         vertex -0.0178508 0.0289871 0.020448
         vertex -0.0178351 0.0290733 0.0202621
      endloop
   endfacet
   facet normal 0.244289 0.858121 0.451609
      outer loop
         vertex -0.0176446 0.028995 0.0203045
         vertex -0.0176413 0.029015 0.0202647
         vertex -0.0178351 0.0290733 0.0202621
      endloop
   endfacet
   facet normal 0.213495 0.865664 0.452819
      outer loop
         vertex -0.0176281 0.0290944 0.0201067
         vertex -0.0176257 0.0291086 0.0200784
         vertex -0.0178194 0.0291594 0.0200762
      endloop
   endfacet
   facet normal 0.4222 0.886544 0.189177
      outer loop
         vertex -0.019076 0.0298199 0.019501
         vertex -0.0188975 0.0297387 0.0195046
         vertex -0.0188872 0.0297805 0.0193206
      endloop
   endfacet
   facet normal 0.338282 0.904132 0.260979
      outer loop
         vertex -0.018716 0.0296653 0.0195078
         vertex -0.0185316 0.0296001 0.0195106
         vertex -0.0185184 0.029656 0.019326
      endloop
   endfacet
   facet normal 0.380889 0.896794 0.225129
      outer loop
         vertex -0.0188975 0.0297387 0.0195046
         vertex -0.018716 0.0296653 0.0195078
         vertex -0.0187041 0.0297141 0.0193235
      endloop
   endfacet
   facet normal 0.451973 0.872036 0.187812
      outer loop
         vertex -0.0190846 0.0297848 0.0196847
         vertex -0.0189079 0.0296969 0.0196885
         vertex -0.0188975 0.0297387 0.0195046
      endloop
   endfacet
   facet normal 0.411987 0.883275 0.223811
      outer loop
         vertex -0.0189079 0.0296969 0.0196885
         vertex -0.0187278 0.0296166 0.019692
         vertex -0.018716 0.0296653 0.0195078
      endloop
   endfacet
   facet normal 0.480848 0.856791 0.186263
      outer loop
         vertex -0.0190933 0.0297497 0.0198683
         vertex -0.0189182 0.0296551 0.0198725
         vertex -0.0189079 0.0296969 0.0196885
      endloop
   endfacet
   facet normal 0.370547 0.891745 0.259782
      outer loop
         vertex -0.0187278 0.0296166 0.019692
         vertex -0.0185447 0.0295441 0.0196952
         vertex -0.0185316 0.0296001 0.0195106
      endloop
   endfacet
   facet normal 0.327992 0.897311 0.295389
      outer loop
         vertex -0.0185447 0.0295441 0.0196952
         vertex -0.0183588 0.0294797 0.019698
         vertex -0.0183446 0.029543 0.0195131
      endloop
   endfacet
   facet normal 0.401945 0.878478 0.258296
      outer loop
         vertex -0.0187397 0.0295678 0.0198763
         vertex -0.0185579 0.0294882 0.0198797
         vertex -0.0185447 0.0295441 0.0196952
      endloop
   endfacet
   facet normal 0.442197 0.868944 0.222258
      outer loop
         vertex -0.0189182 0.0296551 0.0198725
         vertex -0.0187397 0.0295678 0.0198763
         vertex -0.0187278 0.0296166 0.019692
      endloop
   endfacet
   facet normal 0.294736 0.90845 0.296393
      outer loop
         vertex -0.0185316 0.0296001 0.0195106
         vertex -0.0183446 0.029543 0.0195131
         vertex -0.0183304 0.0296064 0.0193282
      endloop
   endfacet
   facet normal 0.252492 0.909236 0.330966
      outer loop
         vertex -0.0183446 0.029543 0.0195131
         vertex -0.0181556 0.0294938 0.0195152
         vertex -0.0181406 0.0295648 0.01933
      endloop
   endfacet
   facet normal 0.212418 0.906731 0.364304
      outer loop
         vertex -0.0181556 0.0294938 0.0195152
         vertex -0.0179647 0.0294523 0.0195171
         vertex -0.0179492 0.0295308 0.0193315
      endloop
   endfacet
   facet normal 0.286374 0.899419 0.330206
      outer loop
         vertex -0.0183588 0.0294797 0.019698
         vertex -0.0181705 0.0294229 0.0197005
         vertex -0.0181556 0.0294938 0.0195152
      endloop
   endfacet
   facet normal 0.319455 0.888635 0.329053
      outer loop
         vertex -0.0183731 0.0294163 0.0198829
         vertex -0.0181855 0.029352 0.0198857
         vertex -0.0181705 0.0294229 0.0197005
      endloop
   endfacet
   facet normal 0.246519 0.898256 0.363819
      outer loop
         vertex -0.0181705 0.0294229 0.0197005
         vertex -0.0179802 0.0293737 0.0197026
         vertex -0.0179647 0.0294523 0.0195171
      endloop
   endfacet
   facet normal 0.241857 0.886167 0.395238
      outer loop
         vertex -0.0179956 0.0292952 0.0198882
         vertex -0.0178038 0.0292456 0.0198903
         vertex -0.0177881 0.0293317 0.0197044
      endloop
   endfacet
   facet normal 0.174645 0.887645 0.426129
      outer loop
         vertex -0.0177881 0.0293317 0.0197044
         vertex -0.0175945 0.0292957 0.019706
         vertex -0.0175789 0.0293892 0.0195198
      endloop
   endfacet
   facet normal 0.279864 0.888808 0.3629
      outer loop
         vertex -0.0181855 0.029352 0.0198857
         vertex -0.0179956 0.0292952 0.0198882
         vertex -0.0179802 0.0293737 0.0197026
      endloop
   endfacet
   facet normal 0.140143 0.907575 0.395812
      outer loop
         vertex -0.0179492 0.0295308 0.0193315
         vertex -0.0179647 0.0294523 0.0195171
         vertex -0.0175784 0.0293926 0.0195132
      endloop
   endfacet
   facet normal 0.360408 0.885238 0.294042
      outer loop
         vertex -0.0185579 0.0294882 0.0198797
         vertex -0.0183731 0.0294163 0.0198829
         vertex -0.0183588 0.0294797 0.019698
      endloop
   endfacet
   facet normal 0.432902 0.888073 0.154668
      outer loop
         vertex -0.0192442 0.0299372 0.0193138
         vertex -0.0194176 0.030027 0.0193099
         vertex -0.0194224 0.0300045 0.019493
      endloop
   endfacet
   facet normal 0.605428 0.795317 0.0304551
      outer loop
         vertex -0.0199137 0.0303339 0.0194786
         vertex -0.0200685 0.0304578 0.0194732
         vertex -0.0200665 0.0304503 0.0198377
      endloop
   endfacet
   facet normal 0.683914 0.72956 0.00202526
      outer loop
         vertex -0.0202172 0.0305898 0.0194674
         vertex -0.0203595 0.0307289 0.0194613
         vertex -0.0203595 0.0307289 0.0198256
      endloop
   endfacet
   facet normal 0.536438 0.839607 0.0854023
      outer loop
         vertex -0.0195901 0.0301074 0.0194885
         vertex -0.0197539 0.0302172 0.0194837
         vertex -0.019755 0.0302057 0.0196663
      endloop
   endfacet
   facet normal 0.560078 0.824133 0.0843602
      outer loop
         vertex -0.019593 0.0300907 0.0196713
         vertex -0.019755 0.0302057 0.0196663
         vertex -0.0197562 0.0301941 0.0198489
      endloop
   endfacet
   facet normal 0.500184 0.857767 0.118539
      outer loop
         vertex -0.0194224 0.0300045 0.019493
         vertex -0.0195901 0.0301074 0.0194885
         vertex -0.019593 0.0300907 0.0196713
      endloop
   endfacet
   facet normal 0.462038 0.87348 0.153472
      outer loop
         vertex -0.019251 0.0299086 0.0194971
         vertex -0.0194224 0.0300045 0.019493
         vertex -0.0194273 0.029982 0.0196761
      endloop
   endfacet
   facet normal 0.490337 0.858153 0.15213
      outer loop
         vertex -0.0192578 0.0298799 0.0196805
         vertex -0.0194273 0.029982 0.0196761
         vertex -0.0194321 0.0299595 0.0198592
      endloop
   endfacet
   facet normal 0.490337 0.858153 0.15213
      outer loop
         vertex -0.0192578 0.0298799 0.0196805
         vertex -0.0190846 0.0297848 0.0196847
         vertex -0.019076 0.0298199 0.019501
      endloop
   endfacet
   facet normal 0.526513 0.842035 0.117305
      outer loop
         vertex -0.0194273 0.029982 0.0196761
         vertex -0.019593 0.0300907 0.0196713
         vertex -0.0195959 0.0300739 0.0198542
      endloop
   endfacet
   facet normal 0.591072 0.804765 0.0546647
      outer loop
         vertex -0.019755 0.0302057 0.0196663
         vertex -0.0197539 0.0302172 0.0194837
         vertex -0.0199137 0.0303339 0.0194786
      endloop
   endfacet
   facet normal 0.462038 0.87348 0.153472
      outer loop
         vertex -0.019251 0.0299086 0.0194971
         vertex -0.019076 0.0298199 0.019501
         vertex -0.0190673 0.0298549 0.0193174
      endloop
   endfacet
   facet normal 0.14951 0.878432 0.453876
      outer loop
         vertex -0.0175949 0.0292932 0.019711
         vertex -0.0175945 0.0292957 0.019706
         vertex -0.0177881 0.0293317 0.0197044
      endloop
   endfacet
   facet normal 0.451973 0.872036 0.187812
      outer loop
         vertex -0.0190846 0.0297848 0.0196847
         vertex -0.0192578 0.0298799 0.0196805
         vertex -0.0192646 0.0298513 0.0198639
      endloop
   endfacet
   facet normal 6.1059e-06 0.818569 0.574409
      outer loop
         vertex 0.00259855 0.0292548 0.0195192
         vertex -0.00751909 0.0292548 0.0195192
         vertex -0.00751811 0.0289747 0.0199184
      endloop
   endfacet
   facet normal -1.05179e-05 0.818562 0.574419
      outer loop
         vertex -0.00751909 0.0292548 0.0195192
         vertex -0.0125777 0.0292547 0.0195192
         vertex -0.0125762 0.0289745 0.0199184
      endloop
   endfacet
   facet normal 0.000499642 0.818479 0.574537
      outer loop
         vertex -0.0151055 0.0289744 0.0199184
         vertex -0.0125762 0.0289745 0.0199184
         vertex -0.0125777 0.0292547 0.0195192
      endloop
   endfacet
   facet normal 0.000499642 0.818479 0.574537
      outer loop
         vertex -0.0151055 0.0289744 0.0199184
         vertex -0.0151056 0.0292547 0.0195192
         vertex -0.0163497 0.0292788 0.0195181
      endloop
   endfacet
   facet normal 0.0418427 0.830053 0.556112
      outer loop
         vertex -0.0163497 0.0292788 0.0195181
         vertex -0.0169673 0.0293233 0.0195162
         vertex -0.0169819 0.0292035 0.0197149
      endloop
   endfacet
   facet normal 0.0986017 0.848949 0.519195
      outer loop
         vertex -0.0169819 0.0292035 0.0197149
         vertex -0.0163705 0.0290128 0.0199167
         vertex -0.0163497 0.0292788 0.0195181
      endloop
   endfacet
   facet normal 0.179191 0.87299 0.453628
      outer loop
         vertex -0.0176101 0.0292021 0.0198922
         vertex -0.0176115 0.0291938 0.0199088
         vertex -0.0173056 0.0291338 0.0199114
      endloop
   endfacet
   facet normal 0.0986017 0.848949 0.519195
      outer loop
         vertex -0.0169819 0.0292035 0.0197149
         vertex -0.0175949 0.0292932 0.019711
         vertex -0.0176101 0.0292021 0.0198922
      endloop
   endfacet
   facet normal 0.179191 0.87299 0.453628
      outer loop
         vertex -0.0176101 0.0292021 0.0198922
         vertex -0.0169964 0.0290836 0.0199136
         vertex -0.0169819 0.0292035 0.0197149
      endloop
   endfacet
   facet normal 0.0986017 0.848949 0.519195
      outer loop
         vertex -0.0169819 0.0292035 0.0197149
         vertex -0.0169673 0.0293233 0.0195162
         vertex -0.0175789 0.0293892 0.0195198
      endloop
   endfacet
   facet normal 0.0767312 0.851311 0.519021
      outer loop
         vertex -0.0169673 0.0293233 0.0195162
         vertex -0.0175784 0.0293926 0.0195132
         vertex -0.0175789 0.0293892 0.0195198
      endloop
   endfacet
   facet normal 0.117595 0.88337 0.453684
      outer loop
         vertex -0.0175789 0.0293892 0.0195198
         vertex -0.0175945 0.0292957 0.019706
         vertex -0.0169819 0.0292035 0.0197149
      endloop
   endfacet
   facet normal 0.0767312 0.851311 0.519021
      outer loop
         vertex -0.0169673 0.0293233 0.0195162
         vertex -0.0169528 0.0294432 0.0193175
         vertex -0.0175633 0.0294828 0.0193336
      endloop
   endfacet
   facet normal 0.0544784 0.853288 0.518587
      outer loop
         vertex -0.0169528 0.0294432 0.0193175
         vertex -0.0175618 0.029492 0.0193153
         vertex -0.0175633 0.0294828 0.0193336
      endloop
   endfacet
   facet normal -1.67833e-05 0.818562 0.574419
      outer loop
         vertex -0.00751811 0.0289747 0.0199184
         vertex -0.0125762 0.0289745 0.0199184
         vertex -0.0125748 0.0286943 0.0203176
      endloop
   endfacet
   facet normal 0.201841 0.848586 0.489041
      outer loop
         vertex -0.0173373 0.0289128 0.0203081
         vertex -0.0176446 0.028995 0.0203045
         vertex -0.0176569 0.0289214 0.0204509
      endloop
   endfacet
   facet normal 0.266508 0.8521 0.450444
      outer loop
         vertex -0.0176569 0.0289214 0.0204509
         vertex -0.0173531 0.0288022 0.0205064
         vertex -0.0173373 0.0289128 0.0203081
      endloop
   endfacet
   facet normal 0.000678493 0.818479 0.574537
      outer loop
         vertex -0.0151053 0.0286942 0.0203176
         vertex -0.0125748 0.0286943 0.0203176
         vertex -0.0125762 0.0289745 0.0199184
      endloop
   endfacet
   facet normal 0.0654042 0.828429 0.556263
      outer loop
         vertex -0.0163705 0.0290128 0.0199167
         vertex -0.0163914 0.0287468 0.0203153
         vertex -0.0157495 0.0287018 0.0203173
      endloop
   endfacet
   facet normal 0.026128 0.819792 0.572065
      outer loop
         vertex -0.0157495 0.0287018 0.0203173
         vertex -0.0151055 0.0289744 0.0199184
         vertex -0.0163705 0.0290128 0.0199167
      endloop
   endfacet
   facet normal 0.141114 0.843161 0.518812
      outer loop
         vertex -0.0170109 0.0289638 0.0201124
         vertex -0.0170254 0.0288439 0.0203111
         vertex -0.0167099 0.0287886 0.0203135
      endloop
   endfacet
   facet normal 0.123857 0.832284 0.540336
      outer loop
         vertex -0.0167099 0.0287886 0.0203135
         vertex -0.0163705 0.0290128 0.0199167
         vertex -0.0170109 0.0289638 0.0201124
      endloop
   endfacet
   facet normal 0.0654042 0.828429 0.556263
      outer loop
         vertex -0.0163705 0.0290128 0.0199167
         vertex -0.0169964 0.0290836 0.0199136
         vertex -0.0170109 0.0289638 0.0201124
      endloop
   endfacet
   facet normal 0.141114 0.843161 0.518812
      outer loop
         vertex -0.0170109 0.0289638 0.0201124
         vertex -0.0173214 0.0290233 0.0201098
         vertex -0.0173373 0.0289128 0.0203081
      endloop
   endfacet
   facet normal 0.120069 0.846225 0.519121
      outer loop
         vertex -0.0169964 0.0290836 0.0199136
         vertex -0.0173056 0.0291338 0.0199114
         vertex -0.0173214 0.0290233 0.0201098
      endloop
   endfacet
   facet normal 0.176168 0.853797 0.489894
      outer loop
         vertex -0.0173214 0.0290233 0.0201098
         vertex -0.0176281 0.0290944 0.0201067
         vertex -0.0176413 0.029015 0.0202647
      endloop
   endfacet
   facet normal 0.238157 0.859697 0.451887
      outer loop
         vertex -0.0176413 0.029015 0.0202647
         vertex -0.0173373 0.0289128 0.0203081
         vertex -0.0173214 0.0290233 0.0201098
      endloop
   endfacet
   facet normal 0.149889 0.858502 0.490416
      outer loop
         vertex -0.0173056 0.0291338 0.0199114
         vertex -0.0176115 0.0291938 0.0199088
         vertex -0.0176257 0.0291086 0.0200784
      endloop
   endfacet
   facet normal 0.209035 0.86668 0.452957
      outer loop
         vertex -0.0176257 0.0291086 0.0200784
         vertex -0.0173214 0.0290233 0.0201098
         vertex -0.0173056 0.0291338 0.0199114
      endloop
   endfacet
   facet normal 6.1059e-06 0.818569 0.574409
      outer loop
         vertex 0.00259855 0.0292548 0.0195192
         vertex 0.0127145 0.0289745 0.0199184
         vertex 0.00888593 0.0295279 0.01913
      endloop
   endfacet
   facet normal 1.3463e-05 0.818509 0.574494
      outer loop
         vertex 0.0127145 0.0289745 0.0199184
         vertex 0.0127115 0.0295279 0.01913
         vertex 0.00888593 0.0295279 0.01913
      endloop
   endfacet
   facet normal 3.906e-06 0.818533 0.57446
      outer loop
         vertex 0.00888593 0.0295279 0.01913
         vertex 0.00259908 0.0295279 0.01913
         vertex 0.00259855 0.0292548 0.0195192
      endloop
   endfacet
   facet normal 2.53629e-06 0.818569 0.574409
      outer loop
         vertex 0.00259908 0.0295279 0.01913
         vertex -0.00752006 0.0295279 0.01913
         vertex -0.00751909 0.0292548 0.0195192
      endloop
   endfacet
   facet normal -4.41181e-06 0.818562 0.574419
      outer loop
         vertex -0.00752006 0.0295279 0.01913
         vertex -0.0125791 0.0295279 0.01913
         vertex -0.0125777 0.0292547 0.0195192
      endloop
   endfacet
   facet normal -2.41729e-05 0.818501 0.574505
      outer loop
         vertex -0.0125777 0.0292547 0.0195192
         vertex -0.0125791 0.0295279 0.01913
         vertex -0.0141919 0.0295279 0.01913
      endloop
   endfacet
   facet normal -1.22004e-05 0.818471 0.574548
      outer loop
         vertex -0.0141919 0.0295279 0.01913
         vertex -0.0151056 0.0292547 0.0195192
         vertex -0.0125777 0.0292547 0.0195192
      endloop
   endfacet
   facet normal 0.000317104 0.818479 0.574537
      outer loop
         vertex -0.0151056 0.0292547 0.0195192
         vertex -0.0151055 0.0295399 0.0191371
         vertex -0.0163299 0.0295559 0.0191467
      endloop
   endfacet
   facet normal 0.0191907 0.831178 0.555676
      outer loop
         vertex -0.0163299 0.0295559 0.0191467
         vertex -0.0169405 0.0295639 0.0191515
         vertex -0.0169528 0.0294432 0.0193175
      endloop
   endfacet
   facet normal 0.0544784 0.853288 0.518587
      outer loop
         vertex -0.0169528 0.0294432 0.0193175
         vertex -0.0163497 0.0292788 0.0195181
         vertex -0.0163299 0.0295559 0.0191467
      endloop
   endfacet
   facet normal 0.0544784 0.853288 0.518587
      outer loop
         vertex -0.0169528 0.0294432 0.0193175
         vertex -0.0169405 0.0295639 0.0191515
         vertex -0.0175485 0.0295719 0.0191562
      endloop
   endfacet
   facet normal 0.226876 0.842912 0.487879
      outer loop
         vertex -0.0173531 0.0288022 0.0205064
         vertex -0.0176612 0.0288956 0.0205023
         vertex -0.0175938 0.0288026 0.0206344
      endloop
   endfacet
   facet normal 0.2742 0.8499 0.449983
      outer loop
         vertex -0.0176612 0.0288956 0.0205023
         vertex -0.0176717 0.0288323 0.0206282
         vertex -0.0175938 0.0288026 0.0206344
      endloop
   endfacet
   facet normal 0.161721 0.839781 0.518279
      outer loop
         vertex -0.0170254 0.0288439 0.0203111
         vertex -0.0173373 0.0289128 0.0203081
         vertex -0.0173531 0.0288022 0.0205064
      endloop
   endfacet
   facet normal 0.226876 0.842912 0.487879
      outer loop
         vertex -0.0173531 0.0288022 0.0205064
         vertex -0.0170515 0.0286287 0.0206684
         vertex -0.0170254 0.0288439 0.0203111
      endloop
   endfacet
   facet normal 0.123857 0.832284 0.540336
      outer loop
         vertex -0.0167099 0.0287886 0.0203135
         vertex -0.0170254 0.0288439 0.0203111
         vertex -0.0170458 0.0286268 0.0206688
      endloop
   endfacet
   facet normal 0.161721 0.839781 0.518279
      outer loop
         vertex -0.0170254 0.0288439 0.0203111
         vertex -0.0170515 0.0286287 0.0206684
         vertex -0.0170458 0.0286268 0.0206688
      endloop
   endfacet
   facet normal 0.0881157 0.826422 0.556114
      outer loop
         vertex -0.0163914 0.0287468 0.0203153
         vertex -0.0167099 0.0287886 0.0203135
         vertex -0.0167321 0.028559 0.0206812
      endloop
   endfacet
   facet normal 0.152231 0.828121 0.539483
      outer loop
         vertex -0.0167321 0.028559 0.0206812
         vertex -0.0164984 0.0285085 0.0206905
         vertex -0.0163914 0.0287468 0.0203153
      endloop
   endfacet
   facet normal 0.0881157 0.826422 0.556114
      outer loop
         vertex -0.0163914 0.0287468 0.0203153
         vertex -0.0164108 0.0284981 0.0206923
         vertex -0.015949 0.0284435 0.0207019
      endloop
   endfacet
   facet normal 0.0529035 0.820424 0.569302
      outer loop
         vertex -0.015949 0.0284435 0.0207019
         vertex -0.0157495 0.0287018 0.0203173
         vertex -0.0163914 0.0287468 0.0203153
      endloop
   endfacet
   facet normal 0.00091687 0.818481 0.574533
      outer loop
         vertex -0.0151181 0.0284221 0.0207052
         vertex -0.0151053 0.0286942 0.0203176
         vertex -0.0157495 0.0287018 0.0203173
      endloop
   endfacet
   facet normal -6.71105e-05 0.818501 0.574505
      outer loop
         vertex -0.0125734 0.0284223 0.0207052
         vertex -0.0125748 0.0286943 0.0203176
         vertex -0.0151053 0.0286942 0.0203176
      endloop
   endfacet
   facet normal -2.30506e-05 0.818562 0.574419
      outer loop
         vertex -0.00751712 0.0286945 0.0203176
         vertex -0.0125748 0.0286943 0.0203176
         vertex -0.0125734 0.0284223 0.0207052
      endloop
   endfacet
   facet normal 9.7682e-06 0.818569 0.574409
      outer loop
         vertex 0.00259801 0.0289747 0.0199184
         vertex -0.00751811 0.0289747 0.0199184
         vertex -0.0047416 0.0284226 0.0207052
      endloop
   endfacet
   facet normal -1.25177e-05 0.818576 0.574398
      outer loop
         vertex -0.0047416 0.0284226 0.0207052
         vertex -0.00751811 0.0289747 0.0199184
         vertex -0.00751712 0.0286945 0.0203176
      endloop
   endfacet
   facet normal -2.30506e-05 0.818562 0.574419
      outer loop
         vertex -0.00751712 0.0286945 0.0203176
         vertex -0.00751616 0.0284225 0.0207052
         vertex -0.0047416 0.0284226 0.0207052
      endloop
   endfacet
   facet normal 9.7682e-06 0.818569 0.574409
      outer loop
         vertex 0.00259801 0.0289747 0.0199184
         vertex 0.00259695 0.0284225 0.0207052
         vertex 0.0108874 0.0284223 0.0207053
      endloop
   endfacet
   facet normal 2.50696e-05 0.81852 0.574478
      outer loop
         vertex 0.0108874 0.0284223 0.0207053
         vertex 0.0127145 0.0289745 0.0199184
         vertex 0.00259801 0.0289747 0.0199184
      endloop
   endfacet
   facet normal 1.3463e-05 0.818509 0.574494
      outer loop
         vertex 0.0127145 0.0289745 0.0199184
         vertex 0.0127175 0.0284223 0.0207053
         vertex 0.0188993 0.0284222 0.0207052
      endloop
   endfacet
   facet normal 7.55224e-06 0.818483 0.574531
      outer loop
         vertex 0.0188993 0.0284222 0.0207052
         vertex 0.0225788 0.0289687 0.0199187
         vertex 0.0127145 0.0289745 0.0199184
      endloop
   endfacet
   facet normal 1.3463e-05 0.818509 0.574494
      outer loop
         vertex 0.0127145 0.0289745 0.0199184
         vertex 0.0225788 0.0289687 0.0199187
         vertex 0.0214334 0.0295278 0.01913
      endloop
   endfacet
   facet normal 0.0133924 0.816119 0.577729
      outer loop
         vertex 0.0225788 0.0289687 0.0199187
         vertex 0.0227688 0.0295242 0.0191296
         vertex 0.0222246 0.0295273 0.01913
      endloop
   endfacet
   facet normal 0.00228875 0.818193 0.574939
      outer loop
         vertex 0.0222246 0.0295273 0.01913
         vertex 0.0216708 0.0295278 0.0191301
         vertex 0.0225788 0.0289687 0.0199187
      endloop
   endfacet
   facet normal 7.57089e-05 0.81848 0.574535
      outer loop
         vertex 0.0216708 0.0295278 0.0191301
         vertex 0.0214334 0.0295278 0.01913
         vertex 0.0225788 0.0289687 0.0199187
      endloop
   endfacet
   facet normal -1.05266e-05 0.818482 0.574533
      outer loop
         vertex 0.0214334 0.0295278 0.01913
         vertex 0.0127115 0.0295279 0.01913
         vertex 0.0127145 0.0289745 0.0199184
      endloop
   endfacet
   facet normal 7.55224e-06 0.818483 0.574531
      outer loop
         vertex 0.0188993 0.0284222 0.0207052
         vertex 0.0223888 0.0284133 0.0207077
         vertex 0.0225788 0.0289687 0.0199187
      endloop
   endfacet
   facet normal 2.50696e-05 0.81852 0.574478
      outer loop
         vertex 0.0108874 0.0284223 0.0207053
         vertex 0.0127175 0.0284223 0.0207053
         vertex 0.0127145 0.0289745 0.0199184
      endloop
   endfacet
   facet normal -1.25177e-05 0.818576 0.574398
      outer loop
         vertex -0.0047416 0.0284226 0.0207052
         vertex 0.00259695 0.0284225 0.0207052
         vertex 0.00259801 0.0289747 0.0199184
      endloop
   endfacet
   facet normal -6.71105e-05 0.818501 0.574505
      outer loop
         vertex -0.0125734 0.0284223 0.0207052
         vertex -0.00751616 0.0284225 0.0207052
         vertex -0.00751712 0.0286945 0.0203176
      endloop
   endfacet
   facet normal 0.000678493 0.818479 0.574537
      outer loop
         vertex -0.0151053 0.0286942 0.0203176
         vertex -0.0151181 0.0284221 0.0207052
         vertex -0.0125734 0.0284223 0.0207052
      endloop
   endfacet
   facet normal 0.026128 0.819792 0.572065
      outer loop
         vertex -0.0157495 0.0287018 0.0203173
         vertex -0.0157597 0.0284386 0.0207027
         vertex -0.0151181 0.0284221 0.0207052
      endloop
   endfacet
   facet normal 0.0529035 0.820424 0.569302
      outer loop
         vertex -0.015949 0.0284435 0.0207019
         vertex -0.0157597 0.0284386 0.0207027
         vertex -0.0157495 0.0287018 0.0203173
      endloop
   endfacet
   facet normal 0.120258 0.82517 0.551935
      outer loop
         vertex -0.0164984 0.0285085 0.0206905
         vertex -0.0164108 0.0284981 0.0206923
         vertex -0.0163914 0.0287468 0.0203153
      endloop
   endfacet
   facet normal 0.196794 0.832883 0.51728
      outer loop
         vertex -0.0170458 0.0286268 0.0206688
         vertex -0.0167321 0.028559 0.0206812
         vertex -0.0167099 0.0287886 0.0203135
      endloop
   endfacet
   facet normal 0.226876 0.842912 0.487879
      outer loop
         vertex -0.0173531 0.0288022 0.0205064
         vertex -0.0173627 0.0287284 0.0206489
         vertex -0.0170515 0.0286287 0.0206684
      endloop
   endfacet
   facet normal 0.280394 0.842862 0.459307
      outer loop
         vertex -0.0175938 0.0288026 0.0206344
         vertex -0.0173627 0.0287284 0.0206489
         vertex -0.0173531 0.0288022 0.0205064
      endloop
   endfacet
   facet normal 0.0554882 0.890306 0.451968
      outer loop
         vertex -0.0175485 0.0295719 0.0191562
         vertex -0.0175618 0.029492 0.0193153
         vertex -0.0169528 0.0294432 0.0193175
      endloop
   endfacet
   facet normal 0.0544784 0.853288 0.518587
      outer loop
         vertex -0.0169528 0.0294432 0.0193175
         vertex -0.0169673 0.0293233 0.0195162
         vertex -0.0163497 0.0292788 0.0195181
      endloop
   endfacet
   facet normal 0.0191907 0.831178 0.555676
      outer loop
         vertex -0.0163299 0.0295559 0.0191467
         vertex -0.0163497 0.0292788 0.0195181
         vertex -0.0151056 0.0292547 0.0195192
      endloop
   endfacet
   facet normal -1.22004e-05 0.818471 0.574548
      outer loop
         vertex -0.0141919 0.0295279 0.01913
         vertex -0.0151055 0.0295399 0.0191371
         vertex -0.0151056 0.0292547 0.0195192
      endloop
   endfacet
   facet normal -2.41729e-05 0.818501 0.574505
      outer loop
         vertex -0.0125777 0.0292547 0.0195192
         vertex -0.00751909 0.0292548 0.0195192
         vertex -0.00752006 0.0295279 0.01913
      endloop
   endfacet
   facet normal -1.05179e-05 0.818562 0.574419
      outer loop
         vertex -0.00751909 0.0292548 0.0195192
         vertex 0.00259855 0.0292548 0.0195192
         vertex 0.00259908 0.0295279 0.01913
      endloop
   endfacet
   facet normal 6.1059e-06 0.818569 0.574409
      outer loop
         vertex 0.00259855 0.0292548 0.0195192
         vertex 0.00259801 0.0289747 0.0199184
         vertex 0.0127145 0.0289745 0.0199184
      endloop
   endfacet
   facet normal 0.209035 0.86668 0.452957
      outer loop
         vertex -0.0176257 0.0291086 0.0200784
         vertex -0.0176281 0.0290944 0.0201067
         vertex -0.0173214 0.0290233 0.0201098
      endloop
   endfacet
   facet normal 0.238157 0.859697 0.451887
      outer loop
         vertex -0.0176413 0.029015 0.0202647
         vertex -0.0176446 0.028995 0.0203045
         vertex -0.0173373 0.0289128 0.0203081
      endloop
   endfacet
   facet normal 0.176168 0.853797 0.489894
      outer loop
         vertex -0.0173214 0.0290233 0.0201098
         vertex -0.0170109 0.0289638 0.0201124
         vertex -0.0169964 0.0290836 0.0199136
      endloop
   endfacet
   facet normal 0.201841 0.848586 0.489041
      outer loop
         vertex -0.0173373 0.0289128 0.0203081
         vertex -0.0170254 0.0288439 0.0203111
         vertex -0.0170109 0.0289638 0.0201124
      endloop
   endfacet
   facet normal 0.123857 0.832284 0.540336
      outer loop
         vertex -0.0167099 0.0287886 0.0203135
         vertex -0.0163914 0.0287468 0.0203153
         vertex -0.0163705 0.0290128 0.0199167
      endloop
   endfacet
   facet normal 0.026128 0.819792 0.572065
      outer loop
         vertex -0.0157495 0.0287018 0.0203173
         vertex -0.0151053 0.0286942 0.0203176
         vertex -0.0151055 0.0289744 0.0199184
      endloop
   endfacet
   facet normal -3.86256e-05 0.818501 0.574505
      outer loop
         vertex -0.0125762 0.0289745 0.0199184
         vertex -0.0151055 0.0289744 0.0199184
         vertex -0.0151053 0.0286942 0.0203176
      endloop
   endfacet
   facet normal 0.266508 0.8521 0.450444
      outer loop
         vertex -0.0176569 0.0289214 0.0204509
         vertex -0.0176612 0.0288956 0.0205023
         vertex -0.0173531 0.0288022 0.0205064
      endloop
   endfacet
   facet normal -5.30785e-05 0.818501 0.574505
      outer loop
         vertex -0.0125748 0.0286943 0.0203176
         vertex -0.00751712 0.0286945 0.0203176
         vertex -0.00751811 0.0289747 0.0199184
      endloop
   endfacet
   facet normal 0.0859906 0.887338 0.453031
      outer loop
         vertex -0.0175633 0.0294828 0.0193336
         vertex -0.0175784 0.0293926 0.0195132
         vertex -0.0169673 0.0293233 0.0195162
      endloop
   endfacet
   facet normal 0.148688 0.878571 0.453877
      outer loop
         vertex -0.0175945 0.0292957 0.019706
         vertex -0.0175949 0.0292932 0.019711
         vertex -0.0169819 0.0292035 0.0197149
      endloop
   endfacet
   facet normal 0.149889 0.858502 0.490416
      outer loop
         vertex -0.0173056 0.0291338 0.0199114
         vertex -0.0169964 0.0290836 0.0199136
         vertex -0.0176101 0.0292021 0.0198922
      endloop
   endfacet
   facet normal 0.0986017 0.848949 0.519195
      outer loop
         vertex -0.0169819 0.0292035 0.0197149
         vertex -0.0169964 0.0290836 0.0199136
         vertex -0.0163705 0.0290128 0.0199167
      endloop
   endfacet
   facet normal 0.0418427 0.830053 0.556112
      outer loop
         vertex -0.0163497 0.0292788 0.0195181
         vertex -0.0163705 0.0290128 0.0199167
         vertex -0.0151055 0.0289744 0.0199184
      endloop
   endfacet
   facet normal -2.41729e-05 0.818501 0.574505
      outer loop
         vertex -0.0125777 0.0292547 0.0195192
         vertex -0.0151056 0.0292547 0.0195192
         vertex -0.0151055 0.0289744 0.0199184
      endloop
   endfacet
   facet normal -3.86256e-05 0.818501 0.574505
      outer loop
         vertex -0.0125762 0.0289745 0.0199184
         vertex -0.00751811 0.0289747 0.0199184
         vertex -0.00751909 0.0292548 0.0195192
      endloop
   endfacet
   facet normal -1.67833e-05 0.818562 0.574419
      outer loop
         vertex -0.00751811 0.0289747 0.0199184
         vertex 0.00259801 0.0289747 0.0199184
         vertex 0.00259855 0.0292548 0.0195192
      endloop
   endfacet
endsolid 1111. Units = meters