solid 1111. STL generated by ONSHAPE BY PTC INC, 1.216. Units = meters
   facet normal -1 4.33778e-06 -4.77955e-12
      outer loop
         vertex -0.0473457 0.00118736 -0.0169976
         vertex -0.0473457 0.00109123 -0.0169785
         vertex -0.0473457 0.00104503 -0.0169619
      endloop
   endfacet
   facet normal -1 4.33778e-06 -4.77955e-12
      outer loop
         vertex -0.0473456 0.0251158 0.0163101
         vertex -0.0473456 0.0251703 0.0162286
         vertex -0.0473456 0.0251912 0.0161842
      endloop
   endfacet
   facet normal -1 4.33778e-06 -4.77955e-12
      outer loop
         vertex -0.0473457 0.00100071 0.016941
         vertex -0.0473457 0.00109126 0.0169785
         vertex -0.0473457 0.00113886 0.0169904
      endloop
   endfacet
   facet normal -1 4.33778e-06 -4.77955e-12
      outer loop
         vertex -0.0473457 0.000229296 0.0159929
         vertex -0.0473457 0.000267362 0.0161842
         vertex -0.0473457 0.000288341 0.0162286
      endloop
   endfacet
   facet normal -1 4.33778e-06 -4.77955e-12
      outer loop
         vertex -0.0473457 0.000250831 0.016138
         vertex -0.0473457 0.000229296 0.0159929
         vertex -0.0473457 0.000231706 0.0160419
      endloop
   endfacet
   facet normal -1 4.33778e-06 -4.77955e-12
      outer loop
         vertex -0.0473457 0.00118736 -0.0169976
         vertex -0.0473457 0.00113882 -0.0169904
         vertex -0.0473457 0.00109123 -0.0169785
      endloop
   endfacet
   facet normal -1 4.33778e-06 -4.77955e-12
      outer loop
         vertex -0.0473456 0.0252269 -0.0160419
         vertex -0.0473456 0.0251702 -0.0162286
         vertex -0.0473456 0.025145 -0.0162707
      endloop
   endfacet
   facet normal -1 4.33778e-06 -4.77955e-12
      outer loop
         vertex -0.0473456 0.0252269 -0.0160419
         vertex -0.0473456 0.0252077 -0.0161381
         vertex -0.0473456 0.0251912 -0.0161843
      endloop
   endfacet
   facet normal -1 4.33778e-06 -4.77955e-12
      outer loop
         vertex -0.0473456 0.0251158 0.0163101
         vertex -0.0473456 0.025145 0.0162706
         vertex -0.0473456 0.0251703 0.0162286
      endloop
   endfacet
   facet normal -1 4.33778e-06 -4.77955e-12
      outer loop
         vertex -0.0473456 0.0245757 0.0168535
         vertex -0.0473456 0.0243197 0.0169904
         vertex -0.0473456 0.0243673 0.0169784
      endloop
   endfacet
   facet normal -1 4.33778e-06 -4.77955e-12
      outer loop
         vertex -0.0473457 0.00100071 0.016941
         vertex -0.0473457 0.00104506 0.0169619
         vertex -0.0473457 0.00109126 0.0169785
      endloop
   endfacet
   facet normal -1 4.33778e-06 -4.77955e-12
      outer loop
         vertex -0.0473457 0.000288341 0.0162286
         vertex -0.0473457 0.000313566 0.0162707
         vertex -0.0473457 0.000229296 0.0159929
      endloop
   endfacet
   facet normal -1 4.33778e-06 -4.77955e-12
      outer loop
         vertex -0.0473457 0.000231706 0.0160419
         vertex -0.0473457 0.000238908 0.0160904
         vertex -0.0473457 0.000250831 0.016138
      endloop
   endfacet
   facet normal -1 4.33778e-06 -4.77955e-12
      outer loop
         vertex -0.0473457 0.00104503 -0.0169619
         vertex -0.0473457 0.00100067 -0.016941
         vertex -0.0473457 0.00118736 -0.0169976
      endloop
   endfacet
   facet normal -1 4.33778e-06 -4.77955e-12
      outer loop
         vertex -0.0473456 0.0244135 -0.016962
         vertex -0.0473456 0.0243673 -0.0169785
         vertex -0.0473456 0.0243197 -0.0169904
      endloop
   endfacet
   facet normal -1 4.33778e-06 -4.77955e-12
      outer loop
         vertex -0.0473456 0.0242712 -0.0169976
         vertex -0.0473456 0.0244999 -0.0169158
         vertex -0.0473456 0.0244578 -0.016941
      endloop
   endfacet
   facet normal -1 4.33778e-06 -4.77955e-12
      outer loop
         vertex -0.0473456 0.025145 -0.0162707
         vertex -0.0473456 0.0251158 -0.0163101
         vertex -0.0473456 0.0252269 -0.0160419
      endloop
   endfacet
   facet normal -1 4.33778e-06 -4.77955e-12
      outer loop
         vertex -0.0473456 0.0252269 -0.0160419
         vertex -0.0473456 0.0252196 -0.0160905
         vertex -0.0473456 0.0252077 -0.0161381
      endloop
   endfacet
   facet normal -1 4.33778e-06 -4.77955e-12
      outer loop
         vertex -0.0473456 0.0251912 0.0161842
         vertex -0.0473456 0.0252078 0.016138
         vertex -0.0473456 0.0251158 0.0163101
      endloop
   endfacet
   facet normal -1 4.33778e-06 -4.77955e-12
      outer loop
         vertex -0.0473456 0.0245757 0.0168535
         vertex -0.0473456 0.0244135 0.0169619
         vertex -0.0473456 0.0244579 0.0169409
      endloop
   endfacet
   facet normal -1 4.33778e-06 -4.77955e-12
      outer loop
         vertex -0.0473456 0.0245757 0.0168535
         vertex -0.0473456 0.0242712 0.0169976
         vertex -0.0473456 0.0243197 0.0169904
      endloop
   endfacet
   facet normal -1 4.33778e-06 -4.77955e-12
      outer loop
         vertex -0.0473457 0.0011874 0.0169976
         vertex -0.0473457 0.000958621 0.0169157
         vertex -0.0473457 0.00100071 0.016941
      endloop
   endfacet
   facet normal -1 4.33778e-06 -4.77955e-12
      outer loop
         vertex -0.0473457 0.0011874 0.0169976
         vertex -0.0473457 0.000882851 0.0168536
         vertex -0.0473457 0.000919209 0.0168865
      endloop
   endfacet
   facet normal -1 4.33778e-06 -4.77955e-12
      outer loop
         vertex -0.0473457 0.000250831 0.016138
         vertex -0.0473457 0.000267362 0.0161842
         vertex -0.0473457 0.000229296 0.0159929
      endloop
   endfacet
   facet normal -1 4.33778e-06 -4.77955e-12
      outer loop
         vertex -0.0473457 0.000342758 -0.0163101
         vertex -0.0473457 0.00031353 -0.0162707
         vertex -0.0473457 0.000288305 -0.0162286
      endloop
   endfacet
   facet normal -1 4.33778e-06 -4.77955e-12
      outer loop
         vertex -0.0473457 0.00100067 -0.016941
         vertex -0.0473457 0.000958584 -0.0169157
         vertex -0.0473457 0.00118736 -0.0169976
      endloop
   endfacet
   facet normal -1 4.33778e-06 -4.77955e-12
      outer loop
         vertex -0.0473456 0.0244578 -0.016941
         vertex -0.0473456 0.0244135 -0.016962
         vertex -0.0473456 0.0242712 -0.0169976
      endloop
   endfacet
   facet normal -1 4.33778e-06 -4.77955e-12
      outer loop
         vertex -0.0473456 0.0242712 -0.0169976
         vertex -0.0473456 0.0245757 -0.0168536
         vertex -0.0473456 0.0245393 -0.0168865
      endloop
   endfacet
   facet normal -1 4.33778e-06 -4.77955e-12
      outer loop
         vertex -0.0473456 0.0251912 -0.0161843
         vertex -0.0473456 0.0251702 -0.0162286
         vertex -0.0473456 0.0252269 -0.0160419
      endloop
   endfacet
   facet normal -1 4.33778e-06 -4.77955e-12
      outer loop
         vertex -0.0473456 0.0252078 0.016138
         vertex -0.0473456 0.0252197 0.0160904
         vertex -0.0473456 0.0251158 0.0163101
      endloop
   endfacet
   facet normal -1 4.33778e-06 -4.77955e-12
      outer loop
         vertex -0.0473456 0.0244579 0.0169409
         vertex -0.0473456 0.0245 0.0169157
         vertex -0.0473456 0.0245757 0.0168535
      endloop
   endfacet
   facet normal -1 4.33778e-06 -4.77955e-12
      outer loop
         vertex -0.0473456 0.0245757 0.0168535
         vertex -0.0473456 0.0242222 0.017
         vertex -0.0473456 0.0242712 0.0169976
      endloop
   endfacet
   facet normal -1 4.33778e-06 -4.77955e-12
      outer loop
         vertex -0.0473457 0.000919209 0.0168865
         vertex -0.0473457 0.000958621 0.0169157
         vertex -0.0473457 0.0011874 0.0169976
      endloop
   endfacet
   facet normal -1 4.33778e-06 -4.77955e-12
      outer loop
         vertex -0.0473457 0.000229296 0.0159929
         vertex -0.0473457 0.000375743 0.0163464
         vertex -0.0473457 0.000882851 0.0168536
      endloop
   endfacet
   facet normal -1 4.33778e-06 -4.77955e-12
      outer loop
         vertex -0.0473457 0.000313566 0.0162707
         vertex -0.0473457 0.000342794 0.0163101
         vertex -0.0473457 0.000229296 0.0159929
      endloop
   endfacet
   facet normal -1 4.33778e-06 -4.77955e-12
      outer loop
         vertex -0.0473457 0.000375707 -0.0163464
         vertex -0.0473457 0.000250796 -0.016138
         vertex -0.0473457 0.000238873 -0.0160904
      endloop
   endfacet
   facet normal -1 4.33778e-06 -4.77955e-12
      outer loop
         vertex -0.0473457 0.000267326 -0.0161842
         vertex -0.0473457 0.000375707 -0.0163464
         vertex -0.0473457 0.000342758 -0.0163101
      endloop
   endfacet
   facet normal -1 4.33778e-06 -4.77955e-12
      outer loop
         vertex -0.0473457 0.000919172 -0.0168865
         vertex -0.0473457 0.00123637 -0.017
         vertex -0.0473457 0.00118736 -0.0169976
      endloop
   endfacet
   facet normal -1 4.33778e-06 -4.77955e-12
      outer loop
         vertex -0.0473456 0.0245393 -0.0168865
         vertex -0.0473456 0.0244999 -0.0169158
         vertex -0.0473456 0.0242712 -0.0169976
      endloop
   endfacet
   facet normal -1 4.33778e-06 -4.77955e-12
      outer loop
         vertex -0.0473456 0.0252293 -0.0159929
         vertex -0.0473456 0.0250828 -0.0163465
         vertex -0.0473456 0.0245757 -0.0168536
      endloop
   endfacet
   facet normal -1 4.33778e-06 -4.77955e-12
      outer loop
         vertex -0.0473456 0.0250828 -0.0163465
         vertex -0.0473456 0.0252293 -0.0159929
         vertex -0.0473456 0.0252269 -0.0160419
      endloop
   endfacet
   facet normal -1 4.33778e-06 -4.77955e-12
      outer loop
         vertex -0.0473456 0.0252269 0.0160419
         vertex -0.0473456 0.0250829 0.0163464
         vertex -0.0473456 0.0251158 0.0163101
      endloop
   endfacet
   facet normal -1 4.33778e-06 -4.77955e-12
      outer loop
         vertex -0.0473456 0.0252293 0.0159929
         vertex -0.0473456 0.0242222 0.017
         vertex -0.0473456 0.0245757 0.0168535
      endloop
   endfacet
   facet normal -1 4.33778e-06 -4.77955e-12
      outer loop
         vertex -0.0473456 0.0243673 0.0169784
         vertex -0.0473456 0.0244135 0.0169619
         vertex -0.0473456 0.0245757 0.0168535
      endloop
   endfacet
   facet normal -1 4.33778e-06 -4.77955e-12
      outer loop
         vertex -0.0473457 0.00113886 0.0169904
         vertex -0.0473457 0.0011874 0.0169976
         vertex -0.0473457 0.00100071 0.016941
      endloop
   endfacet
   facet normal -1 4.33778e-06 -4.77955e-12
      outer loop
         vertex -0.0473457 0.000342794 0.0163101
         vertex -0.0473457 0.000375743 0.0163464
         vertex -0.0473457 0.000229296 0.0159929
      endloop
   endfacet
   facet normal -1 4.33778e-06 -4.77955e-12
      outer loop
         vertex -0.0473457 0.000238873 -0.0160904
         vertex -0.0473457 0.000231671 -0.0160419
         vertex -0.0473457 0.000375707 -0.0163464
      endloop
   endfacet
   facet normal -1 4.33778e-06 -4.77955e-12
      outer loop
         vertex -0.0473457 0.000288305 -0.0162286
         vertex -0.0473457 0.000267326 -0.0161842
         vertex -0.0473457 0.000342758 -0.0163101
      endloop
   endfacet
   facet normal -1 4.33778e-06 -4.77955e-12
      outer loop
         vertex -0.0473457 0.00123637 -0.017
         vertex -0.0473457 0.000882813 -0.0168536
         vertex -0.0473457 0.000375707 -0.0163464
      endloop
   endfacet
   facet normal -1 4.33778e-06 -4.77955e-12
      outer loop
         vertex -0.0473457 0.000958584 -0.0169157
         vertex -0.0473457 0.000919172 -0.0168865
         vertex -0.0473457 0.00118736 -0.0169976
      endloop
   endfacet
   facet normal -1 4.33778e-06 -4.77955e-12
      outer loop
         vertex -0.0473456 0.0243197 -0.0169904
         vertex -0.0473456 0.0242712 -0.0169976
         vertex -0.0473456 0.0244135 -0.016962
      endloop
   endfacet
   facet normal -1 4.33778e-06 -4.77955e-12
      outer loop
         vertex -0.0473456 0.0251158 -0.0163101
         vertex -0.0473456 0.0250828 -0.0163465
         vertex -0.0473456 0.0252269 -0.0160419
      endloop
   endfacet
   facet normal -1 4.33778e-06 -4.77955e-12
      outer loop
         vertex -0.0473456 0.0252197 0.0160904
         vertex -0.0473456 0.0252269 0.0160419
         vertex -0.0473456 0.0251158 0.0163101
      endloop
   endfacet
   facet normal -1 4.33778e-06 -4.77955e-12
      outer loop
         vertex -0.0473456 0.0245 0.0169157
         vertex -0.0473456 0.0245394 0.0168865
         vertex -0.0473456 0.0245757 0.0168535
      endloop
   endfacet
   facet normal -1 4.33778e-06 -4.77955e-12
      outer loop
         vertex -0.0473456 0.0252293 0.0159929
         vertex -0.0473457 0.000229296 0.0159929
         vertex -0.0473457 0.0012364 0.017
      endloop
   endfacet
   facet normal -1 4.33778e-06 -4.77955e-12
      outer loop
         vertex -0.0473457 0.000882851 0.0168536
         vertex -0.0473457 0.0012364 0.017
         vertex -0.0473457 0.000229296 0.0159929
      endloop
   endfacet
   facet normal -1 4.33778e-06 -4.77955e-12
      outer loop
         vertex -0.0473457 0.000267326 -0.0161842
         vertex -0.0473457 0.000250796 -0.016138
         vertex -0.0473457 0.000375707 -0.0163464
      endloop
   endfacet
   facet normal -1 4.33778e-06 -4.77955e-12
      outer loop
         vertex -0.0473457 0.000919172 -0.0168865
         vertex -0.0473457 0.000882813 -0.0168536
         vertex -0.0473457 0.00123637 -0.017
      endloop
   endfacet
   facet normal -1 4.33778e-06 -4.77955e-12
      outer loop
         vertex -0.0473456 0.0252293 -0.0159929
         vertex -0.0473456 0.0242222 -0.017
         vertex -0.0473457 0.00123637 -0.017
      endloop
   endfacet
   facet normal -1 4.33778e-06 -4.77955e-12
      outer loop
         vertex -0.0473456 0.0245757 -0.0168536
         vertex -0.0473456 0.0242222 -0.017
         vertex -0.0473456 0.0252293 -0.0159929
      endloop
   endfacet
   facet normal -1 4.33778e-06 -4.77955e-12
      outer loop
         vertex -0.0473456 0.0245757 0.0168535
         vertex -0.0473456 0.0250829 0.0163464
         vertex -0.0473456 0.0252293 0.0159929
      endloop
   endfacet
   facet normal -1 4.33778e-06 -4.77955e-12
      outer loop
         vertex -0.0473457 0.0011874 0.0169976
         vertex -0.0473457 0.0012364 0.017
         vertex -0.0473457 0.000882851 0.0168536
      endloop
   endfacet
   facet normal -1 4.33778e-06 -4.77955e-12
      outer loop
         vertex -0.0473457 0.000375707 -0.0163464
         vertex -0.0473457 0.000229261 -0.0159929
         vertex -0.0473457 0.00123637 -0.017
      endloop
   endfacet
   facet normal -1 4.33778e-06 -4.77955e-12
      outer loop
         vertex -0.0473456 0.0242712 -0.0169976
         vertex -0.0473456 0.0242222 -0.017
         vertex -0.0473456 0.0245757 -0.0168536
      endloop
   endfacet
   facet normal -1 4.33778e-06 -4.77955e-12
      outer loop
         vertex -0.0473457 0.000229261 -0.0159929
         vertex -0.0473457 0.000229296 0.0159929
         vertex -0.0473456 0.0252293 0.0159929
      endloop
   endfacet
   facet normal -1 4.33778e-06 -4.77955e-12
      outer loop
         vertex -0.0473457 0.0012364 0.017
         vertex -0.0473456 0.0242222 0.017
         vertex -0.0473456 0.0252293 0.0159929
      endloop
   endfacet
   facet normal -1 4.33778e-06 -4.77955e-12
      outer loop
         vertex -0.0473457 0.00123637 -0.017
         vertex -0.0473457 0.000229261 -0.0159929
         vertex -0.0473456 0.0252293 -0.0159929
      endloop
   endfacet
   facet normal -1 4.33778e-06 -4.77955e-12
      outer loop
         vertex -0.0473456 0.0252269 0.0160419
         vertex -0.0473456 0.0252293 0.0159929
         vertex -0.0473456 0.0250829 0.0163464
      endloop
   endfacet
   facet normal -1 4.33778e-06 -4.77955e-12
      outer loop
         vertex -0.0473456 0.0252293 0.0159929
         vertex -0.0473456 0.0252293 -0.0159929
         vertex -0.0473457 0.000229261 -0.0159929
      endloop
   endfacet
   facet normal -1 4.33778e-06 -4.77955e-12
      outer loop
         vertex -0.0473457 0.000231671 -0.0160419
         vertex -0.0473457 0.000229261 -0.0159929
         vertex -0.0473457 0.000375707 -0.0163464
      endloop
   endfacet
endsolid 1111. Units = meters