solid 1111. STL generated by ONSHAPE BY PTC INC, 1.216. Units = meters
   facet normal 4.33778e-06 1 -1.10184e-06
      outer loop
         vertex 0.172241 0.00783832 -0.00548177
         vertex 0.172906 0.00783832 -0.00548177
         vertex 0.172399 0.00783832 -0.00603711
      endloop
   endfacet
   facet normal 4.33778e-06 1 -1.10184e-06
      outer loop
         vertex 0.172001 0.00783832 -0.00624809
         vertex 0.172154 0.00783832 -0.00547758
         vertex 0.172241 0.00783832 -0.00548177
      endloop
   endfacet
   facet normal 4.33778e-06 1 -1.10184e-06
      outer loop
         vertex 0.172001 0.00783832 -0.00624809
         vertex 0.171355 0.00783832 -0.0062481
         vertex 0.172067 0.00783832 -0.00546511
      endloop
   endfacet
   facet normal 4.33778e-06 1 -1.10184e-06
      outer loop
         vertex 0.172067 0.00783832 -0.00546511
         vertex 0.172154 0.00783832 -0.00547758
         vertex 0.172001 0.00783832 -0.00624809
      endloop
   endfacet
   facet normal 4.33778e-06 1 -1.10184e-06
      outer loop
         vertex 0.173106 0.00783832 -0.0060371
         vertex 0.171433 0.00783832 -0.00686264
         vertex 0.172001 0.00783832 -0.00624809
      endloop
   endfacet
   facet normal 4.33778e-06 1 -1.10184e-06
      outer loop
         vertex 0.172001 0.00783832 -0.00624809
         vertex 0.172399 0.00783832 -0.00603711
         vertex 0.173106 0.00783832 -0.0060371
      endloop
   endfacet
   facet normal 4.33778e-06 1 -1.10184e-06
      outer loop
         vertex 0.172399 0.00783832 -0.00603711
         vertex 0.172001 0.00783832 -0.00624809
         vertex 0.172241 0.00783832 -0.00548177
      endloop
   endfacet
endsolid 1111. Units = meters