solid 1111. STL generated by ONSHAPE BY PTC INC, 1.216. Units = meters
   facet normal 1 -4.33778e-06 -1.30939e-08
      outer loop
         vertex 0.0293579 0.00252897 0.0196932
         vertex 0.0293579 0.00222897 0.0196932
         vertex 0.0293579 0.00222895 0.0078
      endloop
   endfacet
   facet normal 1 -4.33778e-06 -1.30939e-08
      outer loop
         vertex 0.0293579 0.00222895 0.0078
         vertex 0.0293579 0.00252895 0.00748386
         vertex 0.0293579 0.00252897 0.0196932
      endloop
   endfacet
   facet normal 0.998595 -4.27331e-06 0.0529841
      outer loop
         vertex 0.0293565 0.00222897 0.019761
         vertex 0.0293579 0.00222897 0.0196932
         vertex 0.0293579 0.00252897 0.0196932
      endloop
   endfacet
   facet normal 0.989488 -4.13284e-06 0.144612
      outer loop
         vertex 0.0293528 0.00222897 0.0198003
         vertex 0.0293565 0.00222897 0.019761
         vertex 0.0293565 0.00252897 0.019761
      endloop
   endfacet
   facet normal 0.971511 -3.95307e-06 0.236993
      outer loop
         vertex 0.0293485 0.00252897 0.0198227
         vertex 0.0293485 0.00222897 0.0198227
         vertex 0.0293528 0.00222897 0.0198003
      endloop
   endfacet
   facet normal 0.94425 -3.73318e-06 0.329231
      outer loop
         vertex 0.029343 0.00252897 0.0198415
         vertex 0.029343 0.00222897 0.0198415
         vertex 0.0293485 0.00222897 0.0198227
      endloop
   endfacet
   facet normal 0.907067 -3.4708e-06 0.420985
      outer loop
         vertex 0.029336 0.00222897 0.0198587
         vertex 0.029343 0.00222897 0.0198415
         vertex 0.029343 0.00252897 0.0198415
      endloop
   endfacet
   facet normal 0.865385 -3.20171e-06 0.501107
      outer loop
         vertex 0.0293271 0.00222897 0.0198758
         vertex 0.029336 0.00222897 0.0198587
         vertex 0.029336 0.00252897 0.0198587
      endloop
   endfacet
   facet normal 0.817151 -2.90949e-06 0.576424
      outer loop
         vertex 0.0293179 0.00252897 0.0198902
         vertex 0.0293179 0.00222897 0.0198902
         vertex 0.0293271 0.00222897 0.0198758
      endloop
   endfacet
   facet normal 0.754786 -2.55132e-06 0.655971
      outer loop
         vertex 0.0293056 0.00252897 0.0199059
         vertex 0.0293056 0.00222897 0.0199059
         vertex 0.0293179 0.00222897 0.0198902
      endloop
   endfacet
   facet normal 0.692502 -2.20903e-06 0.721416
      outer loop
         vertex 0.0292917 0.00222897 0.0199204
         vertex 0.0293056 0.00222897 0.0199059
         vertex 0.0293056 0.00252897 0.0199059
      endloop
   endfacet
   facet normal 0.621148 -1.8309e-06 0.783693
      outer loop
         vertex 0.0292667 0.00222897 0.019942
         vertex 0.0292917 0.00222897 0.0199204
         vertex 0.0292917 0.00252897 0.0199204
      endloop
   endfacet
   facet normal 0.560013 -1.51635e-06 0.828484
      outer loop
         vertex 0.0292078 0.00222897 0.0199842
         vertex 0.0292667 0.00222897 0.019942
         vertex 0.0292667 0.00252897 0.019942
      endloop
   endfacet
   facet normal 0.556866 -1.50037e-06 0.830602
      outer loop
         vertex 0.0291999 0.00252897 0.0199896
         vertex 0.0291999 0.00222897 0.0199896
         vertex 0.0292078 0.00222897 0.0199842
      endloop
   endfacet
   facet normal 0.560013 -1.51635e-06 0.828484
      outer loop
         vertex 0.0292078 0.00222897 0.0199842
         vertex 0.0292078 0.00252897 0.0199842
         vertex 0.0291999 0.00252897 0.0199896
      endloop
   endfacet
   facet normal 0.621148 -1.8309e-06 0.783693
      outer loop
         vertex 0.0292667 0.00252897 0.019942
         vertex 0.0292078 0.00252897 0.0199842
         vertex 0.0292078 0.00222897 0.0199842
      endloop
   endfacet
   facet normal 0.692502 -2.20903e-06 0.721416
      outer loop
         vertex 0.0292917 0.00252897 0.0199204
         vertex 0.0292667 0.00252897 0.019942
         vertex 0.0292667 0.00222897 0.019942
      endloop
   endfacet
   facet normal 0.754786 -2.55132e-06 0.655971
      outer loop
         vertex 0.0293056 0.00252897 0.0199059
         vertex 0.0292917 0.00252897 0.0199204
         vertex 0.0292917 0.00222897 0.0199204
      endloop
   endfacet
   facet normal 0.817151 -2.90949e-06 0.576424
      outer loop
         vertex 0.0293179 0.00222897 0.0198902
         vertex 0.0293179 0.00252897 0.0198902
         vertex 0.0293056 0.00252897 0.0199059
      endloop
   endfacet
   facet normal 0.865385 -3.20171e-06 0.501107
      outer loop
         vertex 0.0293271 0.00222897 0.0198758
         vertex 0.0293271 0.00252897 0.0198758
         vertex 0.0293179 0.00252897 0.0198902
      endloop
   endfacet
   facet normal 0.907067 -3.4708e-06 0.420985
      outer loop
         vertex 0.029336 0.00252897 0.0198587
         vertex 0.0293271 0.00252897 0.0198758
         vertex 0.0293271 0.00222897 0.0198758
      endloop
   endfacet
   facet normal 0.94425 -3.73318e-06 0.329231
      outer loop
         vertex 0.029343 0.00252897 0.0198415
         vertex 0.029336 0.00252897 0.0198587
         vertex 0.029336 0.00222897 0.0198587
      endloop
   endfacet
   facet normal 0.971511 -3.95307e-06 0.236993
      outer loop
         vertex 0.0293485 0.00222897 0.0198227
         vertex 0.0293485 0.00252897 0.0198227
         vertex 0.029343 0.00252897 0.0198415
      endloop
   endfacet
   facet normal 0.989488 -4.13284e-06 0.144612
      outer loop
         vertex 0.0293528 0.00222897 0.0198003
         vertex 0.0293528 0.00252897 0.0198003
         vertex 0.0293485 0.00252897 0.0198227
      endloop
   endfacet
   facet normal 0.998595 -4.27331e-06 0.0529841
      outer loop
         vertex 0.0293565 0.00252897 0.019761
         vertex 0.0293528 0.00252897 0.0198003
         vertex 0.0293528 0.00222897 0.0198003
      endloop
   endfacet
   facet normal 1 -4.33778e-06 -9.6673e-08
      outer loop
         vertex 0.0293579 0.00252897 0.0196932
         vertex 0.0293565 0.00252897 0.019761
         vertex 0.0293565 0.00222897 0.019761
      endloop
   endfacet
   facet normal 0.556866 -1.50037e-06 0.830602
      outer loop
         vertex 0.0291999 0.00252897 0.0199896
         vertex 0.0266337 0.00252898 0.02171
         vertex 0.0266337 0.00222898 0.02171
      endloop
   endfacet
   facet normal 0.556866 -1.50037e-06 0.830602
      outer loop
         vertex 0.0266337 0.00222898 0.02171
         vertex 0.0291999 0.00222897 0.0199896
         vertex 0.0291999 0.00252897 0.0199896
      endloop
   endfacet
   facet normal 0.556866 -1.50037e-06 0.830602
      outer loop
         vertex 0.0266337 0.00222898 0.02171
         vertex 0.0266337 0.00252898 0.02171
         vertex 0.0266169 0.00252898 0.0217202
      endloop
   endfacet
   facet normal 0.472588 -1.07895e-06 0.881283
      outer loop
         vertex 0.0266169 0.00222898 0.0217202
         vertex 0.0266169 0.00252898 0.0217202
         vertex 0.0265991 0.00252898 0.0217286
      endloop
   endfacet
   facet normal 0.38374 -6.47089e-07 0.923441
      outer loop
         vertex 0.0265991 0.00222898 0.0217286
         vertex 0.0265991 0.00252898 0.0217286
         vertex 0.0265806 0.00252898 0.0217352
      endloop
   endfacet
   facet normal 0.29118 -2.08974e-07 0.956668
      outer loop
         vertex 0.0265805 0.00222898 0.0217352
         vertex 0.0265806 0.00252898 0.0217352
         vertex 0.0265615 0.00252898 0.02174
      endloop
   endfacet
   facet normal 0.195804 2.31161e-07 0.980643
      outer loop
         vertex 0.0265615 0.00222898 0.02174
         vertex 0.0265615 0.00252898 0.02174
         vertex 0.026542 0.00252898 0.0217429
      endloop
   endfacet
   facet normal 0.0985348 6.69061e-07 0.995134
      outer loop
         vertex 0.026542 0.00222898 0.0217429
         vertex 0.026542 0.00252898 0.0217429
         vertex 0.0265223 0.00252898 0.0217439
      endloop
   endfacet
   facet normal 0.000312456 1.10049e-06 1
      outer loop
         vertex 0.0265223 0.00252898 0.0217439
         vertex 0.0265223 0.00222898 0.0217439
         vertex 0.026542 0.00222898 0.0217429
      endloop
   endfacet
   facet normal 0.0985348 6.69061e-07 0.995134
      outer loop
         vertex 0.026542 0.00252898 0.0217429
         vertex 0.026542 0.00222898 0.0217429
         vertex 0.0265615 0.00222898 0.02174
      endloop
   endfacet
   facet normal 0.195804 2.31161e-07 0.980643
      outer loop
         vertex 0.0265615 0.00252898 0.02174
         vertex 0.0265615 0.00222898 0.02174
         vertex 0.0265805 0.00222898 0.0217352
      endloop
   endfacet
   facet normal 0.29118 -2.08974e-07 0.956668
      outer loop
         vertex 0.0265806 0.00252898 0.0217352
         vertex 0.0265805 0.00222898 0.0217352
         vertex 0.0265991 0.00222898 0.0217286
      endloop
   endfacet
   facet normal 0.38374 -6.47089e-07 0.923441
      outer loop
         vertex 0.0265991 0.00252898 0.0217286
         vertex 0.0265991 0.00222898 0.0217286
         vertex 0.0266169 0.00222898 0.0217202
      endloop
   endfacet
   facet normal 0.472588 -1.07895e-06 0.881283
      outer loop
         vertex 0.0266169 0.00252898 0.0217202
         vertex 0.0266169 0.00222898 0.0217202
         vertex 0.0266337 0.00222898 0.02171
      endloop
   endfacet
   facet normal -1.89387e-07 1.10184e-06 1
      outer loop
         vertex -0.0151186 0.00222916 0.0217439
         vertex 0.0265223 0.00222898 0.0217439
         vertex 0.0265223 0.00252898 0.0217439
      endloop
   endfacet
   facet normal -1.89387e-07 1.10184e-06 1
      outer loop
         vertex 0.0265223 0.00252898 0.0217439
         vertex -0.0151186 0.00252916 0.0217439
         vertex -0.0151186 0.00222916 0.0217439
      endloop
   endfacet
   facet normal 4.09184e-07 1.10184e-06 1
      outer loop
         vertex -0.0151186 0.00252916 0.0217439
         vertex -0.0192925 0.00252918 0.0219095
         vertex -0.0192925 0.00222918 0.0219095
      endloop
   endfacet
   facet normal 0.105937 6.36111e-07 0.994373
      outer loop
         vertex -0.0192925 0.00252918 0.0219095
         vertex -0.0227658 0.0025292 0.0224518
         vertex -0.0227658 0.0022292 0.0224518
      endloop
   endfacet
   facet normal 0.191221 2.52037e-07 0.981547
      outer loop
         vertex -0.0227658 0.0022292 0.0224518
         vertex -0.0192925 0.00222918 0.0219095
         vertex -0.0192925 0.00252918 0.0219095
      endloop
   endfacet
   facet normal 0.105937 6.36111e-07 0.994373
      outer loop
         vertex -0.0192925 0.00222918 0.0219095
         vertex -0.0151186 0.00222916 0.0217439
         vertex -0.0151186 0.00252916 0.0217439
      endloop
   endfacet
   facet normal 0.190904 2.53481e-07 0.981609
      outer loop
         vertex -0.0227658 0.0025292 0.0224518
         vertex -0.0240609 0.0025292 0.0227332
         vertex -0.0240609 0.0022292 0.0227332
      endloop
   endfacet
   facet normal 0.233733 5.74401e-08 0.972301
      outer loop
         vertex -0.0240609 0.0022292 0.0227332
         vertex -0.0227658 0.0022292 0.0224518
         vertex -0.0227658 0.0025292 0.0224518
      endloop
   endfacet
   facet normal 0.260982 -6.84246e-08 0.965344
      outer loop
         vertex -0.0259213 0.00252921 0.0232141
         vertex -0.0259213 0.00222921 0.0232141
         vertex -0.0240609 0.0022292 0.0227332
      endloop
   endfacet
   facet normal 0.260982 -6.84246e-08 0.965344
      outer loop
         vertex -0.0259213 0.00222921 0.0232141
         vertex -0.0259213 0.00252921 0.0232141
         vertex -0.0277414 0.00252922 0.0237178
      endloop
   endfacet
   facet normal 0.270886 -1.14395e-07 0.962611
      outer loop
         vertex -0.0277414 0.00252922 0.0237178
         vertex -0.0277414 0.00222922 0.0237178
         vertex -0.0259213 0.00222921 0.0232141
      endloop
   endfacet
   facet normal 0.233875 5.6786e-08 0.972267
      outer loop
         vertex -0.0240609 0.0022292 0.0227332
         vertex -0.0240609 0.0025292 0.0227332
         vertex -0.0259213 0.00252921 0.0232141
      endloop
   endfacet
   facet normal 0.271304 -1.16337e-07 0.962494
      outer loop
         vertex -0.0277414 0.00222922 0.0237178
         vertex -0.0277414 0.00252922 0.0237178
         vertex -0.0278037 0.00252922 0.0237323
      endloop
   endfacet
   facet normal 0.181989 2.94013e-07 0.9833
      outer loop
         vertex -0.0278037 0.00222922 0.0237323
         vertex -0.0278037 0.00252922 0.0237323
         vertex -0.027867 0.00252922 0.023741
      endloop
   endfacet
   facet normal 0.091145 7.01891e-07 0.995838
      outer loop
         vertex -0.027867 0.00222922 0.023741
         vertex -0.027867 0.00252922 0.023741
         vertex -0.0279308 0.00252922 0.0237439
      endloop
   endfacet
   facet normal -0.000466092 1.10387e-06 1
      outer loop
         vertex -0.0279308 0.00252922 0.0237439
         vertex -0.0279308 0.00222922 0.0237439
         vertex -0.027867 0.00222922 0.023741
      endloop
   endfacet
   facet normal 0.091145 7.01891e-07 0.995838
      outer loop
         vertex -0.027867 0.00252922 0.023741
         vertex -0.027867 0.00222922 0.023741
         vertex -0.0278037 0.00222922 0.0237323
      endloop
   endfacet
   facet normal 0.181989 2.94013e-07 0.9833
      outer loop
         vertex -0.0278037 0.00252922 0.0237323
         vertex -0.0278037 0.00222922 0.0237323
         vertex -0.0277414 0.00222922 0.0237178
      endloop
   endfacet
   facet normal -1.89387e-07 1.10184e-06 1
      outer loop
         vertex -0.0455442 0.0022293 0.0237439
         vertex -0.0279308 0.00222922 0.0237439
         vertex -0.0279308 0.00252922 0.0237439
      endloop
   endfacet
   facet normal -1.89387e-07 1.10184e-06 1
      outer loop
         vertex -0.0279308 0.00252922 0.0237439
         vertex -0.0455442 0.0025293 0.0237439
         vertex -0.0455442 0.0022293 0.0237439
      endloop
   endfacet
endsolid 1111. Units = meters