solid 1111. STL generated by ONSHAPE BY PTC INC, 1.216. Units = meters
   facet normal -4.33778e-06 -1 1.10184e-06
      outer loop
         vertex 0.170396 -0.000981671 0.00601752
         vertex 0.170392 -0.000981671 0.00601895
         vertex 0.170388 -0.000981671 0.00601998
      endloop
   endfacet
   facet normal -4.33778e-06 -1 1.10184e-06
      outer loop
         vertex 0.170384 -0.000981671 0.0060206
         vertex 0.170403 -0.000981671 0.00601355
         vertex 0.170399 -0.000981671 0.00601571
      endloop
   endfacet
   facet normal -4.33778e-06 -1 1.10184e-06
      outer loop
         vertex 0.170384 -0.000981671 0.0060206
         vertex 0.170409 -0.000981671 0.00600823
         vertex 0.170406 -0.000981671 0.00601104
      endloop
   endfacet
   facet normal -4.33778e-06 -1 1.10184e-06
      outer loop
         vertex 0.170384 -0.000981671 0.0060206
         vertex 0.170413 -0.000981671 0.00600181
         vertex 0.170411 -0.000981671 0.00600514
      endloop
   endfacet
   facet normal -4.33778e-06 -1 1.10184e-06
      outer loop
         vertex 0.170323 -0.000981671 0.00574561
         vertex 0.170335 -0.000981671 0.00574982
         vertex 0.170345 -0.000981671 0.00575515
      endloop
   endfacet
   facet normal -4.33778e-06 -1 1.10184e-06
      outer loop
         vertex 0.170355 -0.000981671 0.00576155
         vertex 0.1703 -0.000981671 0.00574073
         vertex 0.170312 -0.000981671 0.00574257
      endloop
   endfacet
   facet normal -4.33778e-06 -1 1.10184e-06
      outer loop
         vertex 0.170399 -0.000981671 0.00601571
         vertex 0.170396 -0.000981671 0.00601752
         vertex 0.170384 -0.000981671 0.0060206
      endloop
   endfacet
   facet normal -4.33778e-06 -1 1.10184e-06
      outer loop
         vertex 0.170411 -0.000981671 0.00600514
         vertex 0.170409 -0.000981671 0.00600823
         vertex 0.170384 -0.000981671 0.0060206
      endloop
   endfacet
   facet normal -4.33778e-06 -1 1.10184e-06
      outer loop
         vertex 0.170384 -0.000981671 0.0060206
         vertex 0.170416 -0.000981671 0.00599455
         vertex 0.170415 -0.000981671 0.00599826
      endloop
   endfacet
   facet normal -4.33778e-06 -1 1.10184e-06
      outer loop
         vertex 0.170289 -0.000981671 0.00574011
         vertex 0.170397 -0.000981671 0.0058178
         vertex 0.1704 -0.000981671 0.0058292
      endloop
   endfacet
   facet normal -4.33778e-06 -1 1.10184e-06
      outer loop
         vertex 0.170289 -0.000981671 0.00574011
         vertex 0.170387 -0.000981671 0.00579629
         vertex 0.170392 -0.000981671 0.00580679
      endloop
   endfacet
   facet normal -4.33778e-06 -1 1.10184e-06
      outer loop
         vertex 0.170312 -0.000981671 0.00574257
         vertex 0.170323 -0.000981671 0.00574561
         vertex 0.170355 -0.000981671 0.00576155
      endloop
   endfacet
   facet normal -4.33778e-06 -1 1.10184e-06
      outer loop
         vertex 0.170406 -0.000981671 0.00601104
         vertex 0.170403 -0.000981671 0.00601355
         vertex 0.170384 -0.000981671 0.0060206
      endloop
   endfacet
   facet normal -4.33778e-06 -1 1.10184e-06
      outer loop
         vertex 0.170384 -0.000981671 0.0060206
         vertex 0.170417 -0.000981671 0.00599071
         vertex 0.170416 -0.000981671 0.00599455
      endloop
   endfacet
   facet normal -4.33778e-06 -1 1.10184e-06
      outer loop
         vertex 0.170384 -0.000981671 0.0060206
         vertex 0.170417 -0.000981671 0.00597437
         vertex 0.170418 -0.000981671 0.00598281
      endloop
   endfacet
   facet normal -4.33778e-06 -1 1.10184e-06
      outer loop
         vertex 0.170392 -0.000981671 0.00580679
         vertex 0.170397 -0.000981671 0.0058178
         vertex 0.170289 -0.000981671 0.00574011
      endloop
   endfacet
   facet normal -4.33778e-06 -1 1.10184e-06
      outer loop
         vertex 0.170289 -0.000981671 0.00574011
         vertex 0.170373 -0.000981671 0.00577727
         vertex 0.17038 -0.000981671 0.00578641
      endloop
   endfacet
   facet normal -4.33778e-06 -1 1.10184e-06
      outer loop
         vertex 0.170289 -0.000981671 0.00574011
         vertex 0.170355 -0.000981671 0.00576155
         vertex 0.170364 -0.000981671 0.00576895
      endloop
   endfacet
   facet normal -4.33778e-06 -1 1.10184e-06
      outer loop
         vertex 0.170355 -0.000981671 0.00576155
         vertex 0.170289 -0.000981671 0.00574011
         vertex 0.1703 -0.000981671 0.00574073
      endloop
   endfacet
   facet normal -4.33778e-06 -1 1.10184e-06
      outer loop
         vertex 0.170415 -0.000981671 0.00599826
         vertex 0.170413 -0.000981671 0.00600181
         vertex 0.170384 -0.000981671 0.0060206
      endloop
   endfacet
   facet normal -4.33778e-06 -1 1.10184e-06
      outer loop
         vertex 0.170418 -0.000981671 0.00598281
         vertex 0.170418 -0.000981671 0.00598678
         vertex 0.170384 -0.000981671 0.0060206
      endloop
   endfacet
   facet normal -4.33778e-06 -1 1.10184e-06
      outer loop
         vertex 0.17038 -0.000981671 0.00578641
         vertex 0.170387 -0.000981671 0.00579629
         vertex 0.170289 -0.000981671 0.00574011
      endloop
   endfacet
   facet normal -4.33778e-06 -1 1.10184e-06
      outer loop
         vertex 0.170345 -0.000981671 0.00575515
         vertex 0.170355 -0.000981671 0.00576155
         vertex 0.170323 -0.000981671 0.00574561
      endloop
   endfacet
   facet normal -4.33778e-06 -1 1.10184e-06
      outer loop
         vertex 0.170418 -0.000981671 0.00598678
         vertex 0.170417 -0.000981671 0.00599071
         vertex 0.170384 -0.000981671 0.0060206
      endloop
   endfacet
   facet normal -4.33778e-06 -1 1.10184e-06
      outer loop
         vertex 0.170364 -0.000981671 0.00576895
         vertex 0.170373 -0.000981671 0.00577727
         vertex 0.170289 -0.000981671 0.00574011
      endloop
   endfacet
   facet normal -4.33778e-06 -1 1.10184e-06
      outer loop
         vertex 0.169875 -0.000981668 0.00602081
         vertex 0.170118 -0.00098167 0.00574011
         vertex 0.170289 -0.000981671 0.00574011
      endloop
   endfacet
   facet normal -4.33778e-06 -1 1.10184e-06
      outer loop
         vertex 0.170388 -0.000981671 0.00601998
         vertex 0.170384 -0.000981671 0.0060206
         vertex 0.170396 -0.000981671 0.00601752
      endloop
   endfacet
   facet normal -4.33778e-06 -1 1.10184e-06
      outer loop
         vertex 0.170289 -0.000981671 0.00574011
         vertex 0.170402 -0.000981671 0.00584087
         vertex 0.169875 -0.000981668 0.00602081
      endloop
   endfacet
   facet normal -4.33778e-06 -1 1.10184e-06
      outer loop
         vertex 0.170305 -0.000981671 0.00548099
         vertex 0.170287 -0.000981671 0.00552234
         vertex 0.170283 -0.000981671 0.00552415
      endloop
   endfacet
   facet normal -4.33778e-06 -1 1.10184e-06
      outer loop
         vertex 0.17029 -0.000981671 0.00552017
         vertex 0.170303 -0.000981671 0.00550489
         vertex 0.170301 -0.000981671 0.00550843
      endloop
   endfacet
   facet normal -4.33778e-06 -1 1.10184e-06
      outer loop
         vertex 0.17024 -0.000981671 0.0052357
         vertex 0.170247 -0.000981671 0.00524027
         vertex 0.17025 -0.000981671 0.00524303
      endloop
   endfacet
   facet normal -4.33778e-06 -1 1.10184e-06
      outer loop
         vertex 0.169673 -0.000981668 0.00523071
         vertex 0.169254 -0.000981667 0.0045918
         vertex 0.169258 -0.000981667 0.00458998
      endloop
   endfacet
   facet normal -4.33778e-06 -1 1.10184e-06
      outer loop
         vertex 0.170384 -0.000981671 0.0060206
         vertex 0.17038 -0.000981671 0.00602081
         vertex 0.170417 -0.000981671 0.00597437
      endloop
   endfacet
   facet normal -4.33778e-06 -1 1.10184e-06
      outer loop
         vertex 0.1704 -0.000981671 0.0058292
         vertex 0.170402 -0.000981671 0.00584087
         vertex 0.170289 -0.000981671 0.00574011
      endloop
   endfacet
   facet normal -4.33778e-06 -1 1.10184e-06
      outer loop
         vertex 0.170283 -0.000981671 0.00552415
         vertex 0.17028 -0.000981671 0.00552557
         vertex 0.170305 -0.000981671 0.00548099
      endloop
   endfacet
   facet normal -4.33778e-06 -1 1.10184e-06
      outer loop
         vertex 0.17029 -0.000981671 0.00552017
         vertex 0.170299 -0.000981671 0.00551177
         vertex 0.170296 -0.000981671 0.00551486
      endloop
   endfacet
   facet normal -4.33778e-06 -1 1.10184e-06
      outer loop
         vertex 0.17029 -0.000981671 0.00552017
         vertex 0.170304 -0.000981671 0.00550118
         vertex 0.170303 -0.000981671 0.00550489
      endloop
   endfacet
   facet normal -4.33778e-06 -1 1.10184e-06
      outer loop
         vertex 0.17029 -0.000981671 0.00552017
         vertex 0.170306 -0.000981671 0.00549341
         vertex 0.170305 -0.000981671 0.00549734
      endloop
   endfacet
   facet normal -4.33778e-06 -1 1.10184e-06
      outer loop
         vertex 0.17029 -0.000981671 0.00552017
         vertex 0.170305 -0.000981671 0.00548099
         vertex 0.170306 -0.000981671 0.00548944
      endloop
   endfacet
   facet normal -4.33778e-06 -1 1.10184e-06
      outer loop
         vertex 0.17024 -0.000981671 0.0052357
         vertex 0.170244 -0.000981671 0.00523782
         vertex 0.170247 -0.000981671 0.00524027
      endloop
   endfacet
   facet normal -4.33778e-06 -1 1.10184e-06
      outer loop
         vertex 0.170252 -0.000981671 0.00524606
         vertex 0.170229 -0.000981671 0.00523153
         vertex 0.170233 -0.000981671 0.00523253
      endloop
   endfacet
   facet normal -4.33778e-06 -1 1.10184e-06
      outer loop
         vertex 0.169673 -0.000981668 0.00523071
         vertex 0.169265 -0.000981667 0.00458745
         vertex 0.169269 -0.000981667 0.00458677
      endloop
   endfacet
   facet normal -4.33778e-06 -1 1.10184e-06
      outer loop
         vertex 0.169258 -0.000981667 0.00458998
         vertex 0.169261 -0.000981667 0.00458852
         vertex 0.169673 -0.000981668 0.00523071
      endloop
   endfacet
   facet normal -4.33778e-06 -1 1.10184e-06
      outer loop
         vertex 0.170402 -0.000981671 0.00584087
         vertex 0.170417 -0.000981671 0.00597437
         vertex 0.169875 -0.000981668 0.00602081
      endloop
   endfacet
   facet normal -4.33778e-06 -1 1.10184e-06
      outer loop
         vertex 0.17028 -0.000981671 0.00552557
         vertex 0.170276 -0.000981671 0.0055266
         vertex 0.170305 -0.000981671 0.00548099
      endloop
   endfacet
   facet normal -4.33778e-06 -1 1.10184e-06
      outer loop
         vertex 0.170301 -0.000981671 0.00550843
         vertex 0.170299 -0.000981671 0.00551177
         vertex 0.17029 -0.000981671 0.00552017
      endloop
   endfacet
   facet normal -4.33778e-06 -1 1.10184e-06
      outer loop
         vertex 0.170306 -0.000981671 0.00548944
         vertex 0.170306 -0.000981671 0.00549341
         vertex 0.17029 -0.000981671 0.00552017
      endloop
   endfacet
   facet normal -4.33778e-06 -1 1.10184e-06
      outer loop
         vertex 0.170252 -0.000981671 0.00524606
         vertex 0.170237 -0.000981671 0.00523393
         vertex 0.17024 -0.000981671 0.0052357
      endloop
   endfacet
   facet normal -4.33778e-06 -1 1.10184e-06
      outer loop
         vertex 0.170252 -0.000981671 0.00524606
         vertex 0.170225 -0.000981671 0.00523092
         vertex 0.170229 -0.000981671 0.00523153
      endloop
   endfacet
   facet normal -4.33778e-06 -1 1.10184e-06
      outer loop
         vertex 0.169517 -0.000981668 0.00459343
         vertex 0.16953 -0.000981668 0.00460864
         vertex 0.169532 -0.000981668 0.00461236
      endloop
   endfacet
   facet normal -4.33778e-06 -1 1.10184e-06
      outer loop
         vertex 0.169526 -0.000981668 0.00460176
         vertex 0.169517 -0.000981668 0.00459343
         vertex 0.16952 -0.000981668 0.0045959
      endloop
   endfacet
   facet normal -4.33778e-06 -1 1.10184e-06
      outer loop
         vertex 0.169533 -0.000981668 0.00461622
         vertex 0.169506 -0.000981668 0.00458816
         vertex 0.16951 -0.000981668 0.00458954
      endloop
   endfacet
   facet normal -4.33778e-06 -1 1.10184e-06
      outer loop
         vertex 0.169533 -0.000981668 0.00461622
         vertex 0.169499 -0.000981668 0.00458663
         vertex 0.169503 -0.000981668 0.00458719
      endloop
   endfacet
   facet normal -4.33778e-06 -1 1.10184e-06
      outer loop
         vertex 0.169261 -0.000981667 0.00458852
         vertex 0.169265 -0.000981667 0.00458745
         vertex 0.169673 -0.000981668 0.00523071
      endloop
   endfacet
   facet normal -4.33778e-06 -1 1.10184e-06
      outer loop
         vertex 0.169673 -0.000981668 0.00523071
         vertex 0.169248 -0.000981667 0.00459647
         vertex 0.169251 -0.000981667 0.00459397
      endloop
   endfacet
   facet normal -4.33778e-06 -1 1.10184e-06
      outer loop
         vertex 0.169673 -0.000981668 0.00523071
         vertex 0.169243 -0.000981667 0.00460232
         vertex 0.169245 -0.000981667 0.00459926
      endloop
   endfacet
   facet normal -4.33778e-06 -1 1.10184e-06
      outer loop
         vertex 0.169673 -0.000981668 0.00523071
         vertex 0.169239 -0.000981667 0.00460911
         vertex 0.169241 -0.000981667 0.00460562
      endloop
   endfacet
   facet normal -4.33778e-06 -1 1.10184e-06
      outer loop
         vertex 0.169673 -0.000981668 0.00523071
         vertex 0.169237 -0.000981667 0.00463276
         vertex 0.169236 -0.000981667 0.00462431
      endloop
   endfacet
   facet normal -4.33778e-06 -1 1.10184e-06
      outer loop
         vertex 0.169875 -0.000981668 0.00602081
         vertex 0.17007 -0.00098167 0.00573809
         vertex 0.170118 -0.00098167 0.00574011
      endloop
   endfacet
   facet normal -4.33778e-06 -1 1.10184e-06
      outer loop
         vertex 0.169703 -0.000981668 0.00594665
         vertex 0.169651 -0.000981668 0.0059112
         vertex 0.16985 -0.000981669 0.00565697
      endloop
   endfacet
   facet normal -4.33778e-06 -1 1.10184e-06
      outer loop
         vertex 0.170305 -0.000981671 0.00548099
         vertex 0.17029 -0.000981671 0.00552017
         vertex 0.170287 -0.000981671 0.00552234
      endloop
   endfacet
   facet normal -4.33778e-06 -1 1.10184e-06
      outer loop
         vertex 0.170305 -0.000981671 0.00549734
         vertex 0.170304 -0.000981671 0.00550118
         vertex 0.17029 -0.000981671 0.00552017
      endloop
   endfacet
   facet normal -4.33778e-06 -1 1.10184e-06
      outer loop
         vertex 0.170222 -0.000981671 0.00523071
         vertex 0.170252 -0.000981671 0.00524606
         vertex 0.170254 -0.000981671 0.00524934
      endloop
   endfacet
   facet normal -4.33778e-06 -1 1.10184e-06
      outer loop
         vertex 0.170233 -0.000981671 0.00523253
         vertex 0.170237 -0.000981671 0.00523393
         vertex 0.170252 -0.000981671 0.00524606
      endloop
   endfacet
   facet normal -4.33778e-06 -1 1.10184e-06
      outer loop
         vertex 0.169517 -0.000981668 0.00459343
         vertex 0.169528 -0.000981668 0.00460509
         vertex 0.16953 -0.000981668 0.00460864
      endloop
   endfacet
   facet normal -4.33778e-06 -1 1.10184e-06
      outer loop
         vertex 0.16952 -0.000981668 0.0045959
         vertex 0.169523 -0.000981668 0.00459869
         vertex 0.169526 -0.000981668 0.00460176
      endloop
   endfacet
   facet normal -4.33778e-06 -1 1.10184e-06
      outer loop
         vertex 0.16951 -0.000981668 0.00458954
         vertex 0.169514 -0.000981668 0.0045913
         vertex 0.169533 -0.000981668 0.00461622
      endloop
   endfacet
   facet normal -4.33778e-06 -1 1.10184e-06
      outer loop
         vertex 0.169533 -0.000981668 0.00461622
         vertex 0.169495 -0.000981668 0.00458649
         vertex 0.169499 -0.000981668 0.00458663
      endloop
   endfacet
   facet normal -4.33778e-06 -1 1.10184e-06
      outer loop
         vertex 0.169251 -0.000981667 0.00459397
         vertex 0.169254 -0.000981667 0.0045918
         vertex 0.169673 -0.000981668 0.00523071
      endloop
   endfacet
   facet normal -4.33778e-06 -1 1.10184e-06
      outer loop
         vertex 0.169241 -0.000981667 0.00460562
         vertex 0.169243 -0.000981667 0.00460232
         vertex 0.169673 -0.000981668 0.00523071
      endloop
   endfacet
   facet normal -4.33778e-06 -1 1.10184e-06
      outer loop
         vertex 0.169673 -0.000981668 0.00523071
         vertex 0.169237 -0.000981667 0.00461655
         vertex 0.169238 -0.000981667 0.00461277
      endloop
   endfacet
   facet normal -4.33778e-06 -1 1.10184e-06
      outer loop
         vertex 0.169236 -0.000981667 0.00462431
         vertex 0.169236 -0.000981667 0.00462041
         vertex 0.169673 -0.000981668 0.00523071
      endloop
   endfacet
   facet normal -4.33778e-06 -1 1.10184e-06
      outer loop
         vertex 0.169875 -0.000981668 0.00602081
         vertex 0.170023 -0.000981669 0.00573118
         vertex 0.17007 -0.00098167 0.00573809
      endloop
   endfacet
   facet normal -4.33778e-06 -1 1.10184e-06
      outer loop
         vertex 0.169758 -0.000981668 0.00597692
         vertex 0.16989 -0.000981669 0.00568216
         vertex 0.169933 -0.000981669 0.00570307
      endloop
   endfacet
   facet normal -4.33778e-06 -1 1.10184e-06
      outer loop
         vertex 0.16989 -0.000981669 0.00568216
         vertex 0.169758 -0.000981668 0.00597692
         vertex 0.169703 -0.000981668 0.00594665
      endloop
   endfacet
   facet normal -4.33778e-06 -1 1.10184e-06
      outer loop
         vertex 0.169651 -0.000981668 0.0059112
         vertex 0.169603 -0.000981667 0.0058709
         vertex 0.169812 -0.000981669 0.00562776
      endloop
   endfacet
   facet normal -4.33778e-06 -1 1.10184e-06
      outer loop
         vertex 0.169559 -0.000981667 0.00582613
         vertex 0.169778 -0.000981668 0.00559484
         vertex 0.169812 -0.000981669 0.00562776
      endloop
   endfacet
   facet normal -4.33778e-06 -1 1.10184e-06
      outer loop
         vertex 0.170296 -0.000981671 0.00551486
         vertex 0.170293 -0.000981671 0.00551767
         vertex 0.17029 -0.000981671 0.00552017
      endloop
   endfacet
   facet normal -4.33778e-06 -1 1.10184e-06
      outer loop
         vertex 0.170254 -0.000981671 0.00524934
         vertex 0.170256 -0.000981671 0.00525282
         vertex 0.170222 -0.000981671 0.00523071
      endloop
   endfacet
   facet normal -4.33778e-06 -1 1.10184e-06
      outer loop
         vertex 0.170252 -0.000981671 0.00524606
         vertex 0.170222 -0.000981671 0.00523071
         vertex 0.170225 -0.000981671 0.00523092
      endloop
   endfacet
   facet normal -4.33778e-06 -1 1.10184e-06
      outer loop
         vertex 0.169526 -0.000981668 0.00460176
         vertex 0.169528 -0.000981668 0.00460509
         vertex 0.169517 -0.000981668 0.00459343
      endloop
   endfacet
   facet normal -4.33778e-06 -1 1.10184e-06
      outer loop
         vertex 0.169503 -0.000981668 0.00458719
         vertex 0.169506 -0.000981668 0.00458816
         vertex 0.169533 -0.000981668 0.00461622
      endloop
   endfacet
   facet normal -4.33778e-06 -1 1.10184e-06
      outer loop
         vertex 0.169245 -0.000981667 0.00459926
         vertex 0.169248 -0.000981667 0.00459647
         vertex 0.169673 -0.000981668 0.00523071
      endloop
   endfacet
   facet normal -4.33778e-06 -1 1.10184e-06
      outer loop
         vertex 0.169236 -0.000981667 0.00462041
         vertex 0.169237 -0.000981667 0.00461655
         vertex 0.169673 -0.000981668 0.00523071
      endloop
   endfacet
   facet normal -4.33778e-06 -1 1.10184e-06
      outer loop
         vertex 0.169875 -0.000981668 0.00602081
         vertex 0.169977 -0.000981669 0.00571946
         vertex 0.170023 -0.000981669 0.00573118
      endloop
   endfacet
   facet normal -4.33778e-06 -1 1.10184e-06
      outer loop
         vertex 0.169816 -0.000981668 0.00600171
         vertex 0.169933 -0.000981669 0.00570307
         vertex 0.169977 -0.000981669 0.00571946
      endloop
   endfacet
   facet normal -4.33778e-06 -1 1.10184e-06
      outer loop
         vertex 0.16985 -0.000981669 0.00565697
         vertex 0.16989 -0.000981669 0.00568216
         vertex 0.169703 -0.000981668 0.00594665
      endloop
   endfacet
   facet normal -4.33778e-06 -1 1.10184e-06
      outer loop
         vertex 0.169812 -0.000981669 0.00562776
         vertex 0.169603 -0.000981667 0.0058709
         vertex 0.169559 -0.000981667 0.00582613
      endloop
   endfacet
   facet normal -4.33778e-06 -1 1.10184e-06
      outer loop
         vertex 0.170276 -0.000981671 0.0055266
         vertex 0.170272 -0.000981671 0.00552723
         vertex 0.170305 -0.000981671 0.00548099
      endloop
   endfacet
   facet normal -4.33778e-06 -1 1.10184e-06
      outer loop
         vertex 0.170268 -0.000981671 0.00552744
         vertex 0.170222 -0.000981671 0.00523071
         vertex 0.170259 -0.000981671 0.00526026
      endloop
   endfacet
   facet normal -4.33778e-06 -1 1.10184e-06
      outer loop
         vertex 0.17025 -0.000981671 0.00524303
         vertex 0.170252 -0.000981671 0.00524606
         vertex 0.17024 -0.000981671 0.0052357
      endloop
   endfacet
   facet normal -4.33778e-06 -1 1.10184e-06
      outer loop
         vertex 0.169514 -0.000981668 0.0045913
         vertex 0.169517 -0.000981668 0.00459343
         vertex 0.169533 -0.000981668 0.00461622
      endloop
   endfacet
   facet normal -4.33778e-06 -1 1.10184e-06
      outer loop
         vertex 0.169238 -0.000981667 0.00461277
         vertex 0.169239 -0.000981667 0.00460911
         vertex 0.169673 -0.000981668 0.00523071
      endloop
   endfacet
   facet normal -4.33778e-06 -1 1.10184e-06
      outer loop
         vertex 0.169977 -0.000981669 0.00571946
         vertex 0.169875 -0.000981668 0.00602081
         vertex 0.169816 -0.000981668 0.00600171
      endloop
   endfacet
   facet normal -4.33778e-06 -1 1.10184e-06
      outer loop
         vertex 0.169812 -0.000981669 0.00562776
         vertex 0.16985 -0.000981669 0.00565697
         vertex 0.169651 -0.000981668 0.0059112
      endloop
   endfacet
   facet normal -4.33778e-06 -1 1.10184e-06
      outer loop
         vertex 0.16952 -0.000981667 0.00577731
         vertex 0.169486 -0.000981667 0.00572491
         vertex 0.169747 -0.000981668 0.00555857
      endloop
   endfacet
   facet normal -4.33778e-06 -1 1.10184e-06
      outer loop
         vertex 0.170259 -0.000981671 0.00526026
         vertex 0.170305 -0.000981671 0.00548099
         vertex 0.170268 -0.000981671 0.00552744
      endloop
   endfacet
   facet normal -4.33778e-06 -1 1.10184e-06
      outer loop
         vertex 0.170256 -0.000981671 0.00525282
         vertex 0.170258 -0.000981671 0.00525647
         vertex 0.170222 -0.000981671 0.00523071
      endloop
   endfacet
   facet normal -4.33778e-06 -1 1.10184e-06
      outer loop
         vertex 0.169532 -0.000981668 0.00461236
         vertex 0.169533 -0.000981668 0.00461622
         vertex 0.169517 -0.000981668 0.00459343
      endloop
   endfacet
   facet normal -4.33778e-06 -1 1.10184e-06
      outer loop
         vertex 0.169269 -0.000981667 0.00458677
         vertex 0.169273 -0.000981667 0.00458649
         vertex 0.169673 -0.000981668 0.00523071
      endloop
   endfacet
   facet normal -4.33778e-06 -1 1.10184e-06
      outer loop
         vertex 0.169933 -0.000981669 0.00570307
         vertex 0.169816 -0.000981668 0.00600171
         vertex 0.169758 -0.000981668 0.00597692
      endloop
   endfacet
   facet normal -4.33778e-06 -1 1.10184e-06
      outer loop
         vertex 0.169778 -0.000981668 0.00559484
         vertex 0.169559 -0.000981667 0.00582613
         vertex 0.16952 -0.000981667 0.00577731
      endloop
   endfacet
   facet normal -4.33778e-06 -1 1.10184e-06
      outer loop
         vertex 0.170258 -0.000981671 0.00525647
         vertex 0.170259 -0.000981671 0.00526026
         vertex 0.170222 -0.000981671 0.00523071
      endloop
   endfacet
   facet normal -4.33778e-06 -1 1.10184e-06
      outer loop
         vertex 0.170222 -0.000981671 0.00523071
         vertex 0.170268 -0.000981671 0.00552744
         vertex 0.16974 -0.000981668 0.00552743
      endloop
   endfacet
   facet normal -4.33778e-06 -1 1.10184e-06
      outer loop
         vertex 0.169273 -0.000981667 0.00458649
         vertex 0.169495 -0.000981668 0.00458649
         vertex 0.169673 -0.000981668 0.00523071
      endloop
   endfacet
   facet normal -4.33778e-06 -1 1.10184e-06
      outer loop
         vertex 0.169747 -0.000981668 0.00555857
         vertex 0.169778 -0.000981668 0.00559484
         vertex 0.16952 -0.000981667 0.00577731
      endloop
   endfacet
   facet normal -4.33778e-06 -1 1.10184e-06
      outer loop
         vertex 0.169486 -0.000981667 0.00572491
         vertex 0.169237 -0.000981667 0.00463276
         vertex 0.16974 -0.000981668 0.00552743
      endloop
   endfacet
   facet normal -4.33778e-06 -1 1.10184e-06
      outer loop
         vertex 0.16974 -0.000981668 0.00552743
         vertex 0.169673 -0.000981668 0.00523071
         vertex 0.170222 -0.000981671 0.00523071
      endloop
   endfacet
   facet normal -4.33778e-06 -1 1.10184e-06
      outer loop
         vertex 0.169533 -0.000981668 0.00461622
         vertex 0.169673 -0.000981668 0.00523071
         vertex 0.169495 -0.000981668 0.00458649
      endloop
   endfacet
   facet normal -4.33778e-06 -1 1.10184e-06
      outer loop
         vertex 0.16974 -0.000981668 0.00552743
         vertex 0.169747 -0.000981668 0.00555857
         vertex 0.169486 -0.000981667 0.00572491
      endloop
   endfacet
   facet normal -4.33778e-06 -1 1.10184e-06
      outer loop
         vertex 0.169673 -0.000981668 0.00523071
         vertex 0.16974 -0.000981668 0.00552743
         vertex 0.169237 -0.000981667 0.00463276
      endloop
   endfacet
   facet normal -4.33778e-06 -1 1.10184e-06
      outer loop
         vertex 0.170272 -0.000981671 0.00552723
         vertex 0.170268 -0.000981671 0.00552744
         vertex 0.170305 -0.000981671 0.00548099
      endloop
   endfacet
   facet normal -4.33778e-06 -1 1.10184e-06
      outer loop
         vertex 0.17038 -0.000981671 0.00602081
         vertex 0.169875 -0.000981668 0.00602081
         vertex 0.170417 -0.000981671 0.00597437
      endloop
   endfacet
endsolid 1111. Units = meters