solid 1111. STL generated by ONSHAPE BY PTC INC, 1.216. Units = meters
   facet normal -1 4.33778e-06 -8.82512e-08
      outer loop
         vertex -0.0480512 0.0022293 0.0161381
         vertex -0.0480512 0.0025293 0.0161381
         vertex -0.0480512 0.0025293 0.0161081
      endloop
   endfacet
   facet normal -1 4.33778e-06 -8.82512e-08
      outer loop
         vertex -0.0480512 0.0025293 0.0161081
         vertex -0.0480512 0.0022293 0.0161081
         vertex -0.0480512 0.0022293 0.0161381
      endloop
   endfacet
   facet normal -4.33778e-06 -1 1.10184e-06
      outer loop
         vertex -0.0260455 0.00252921 0.023546
         vertex -0.0274948 0.00252922 0.0239475
         vertex -0.0271472 0.00252922 0.0235509
      endloop
   endfacet
   facet normal -4.33778e-06 -1 1.10184e-06
      outer loop
         vertex -0.0274948 0.00252922 0.0239475
         vertex -0.0275367 0.00252922 0.02366
         vertex -0.0271472 0.00252922 0.0235509
      endloop
   endfacet
   facet normal -4.33778e-06 -1 1.10184e-06
      outer loop
         vertex -0.0274948 0.00252922 0.0239475
         vertex -0.0277311 0.00252922 0.0240107
         vertex -0.0277313 0.00252922 0.0237151
      endloop
   endfacet
   facet normal -4.33778e-06 -1 1.10184e-06
      outer loop
         vertex -0.0277313 0.00252922 0.0237151
         vertex -0.0275367 0.00252922 0.02366
         vertex -0.0274948 0.00252922 0.0239475
      endloop
   endfacet
   facet normal -4.33778e-06 -1 1.10184e-06
      outer loop
         vertex -0.0260455 0.00252921 0.023546
         vertex -0.0263675 0.00252921 0.0233355
         vertex -0.0234503 0.0025292 0.0225927
      endloop
   endfacet
   facet normal -4.33778e-06 -1 1.10184e-06
      outer loop
         vertex -0.0234503 0.0025292 0.0225927
         vertex -0.0230685 0.0025292 0.0228057
         vertex -0.0260455 0.00252921 0.023546
      endloop
   endfacet
   facet normal -4.33778e-06 -1 1.10184e-06
      outer loop
         vertex 0.0293544 0.00252897 0.020226
         vertex 0.0291999 0.00252897 0.0199896
         vertex 0.0292441 0.00252897 0.0199592
      endloop
   endfacet
   facet normal -4.33778e-06 -1 1.10184e-06
      outer loop
         vertex 0.0293544 0.00252897 0.020226
         vertex 0.0267881 0.00252898 0.0219465
         vertex 0.0266337 0.00252898 0.02171
      endloop
   endfacet
   facet normal -4.33778e-06 -1 1.10184e-06
      outer loop
         vertex -0.0277311 0.00252922 0.0240107
         vertex -0.0278174 0.00252922 0.0237343
         vertex -0.0277313 0.00252922 0.0237151
      endloop
   endfacet
   facet normal -4.33778e-06 -1 1.10184e-06
      outer loop
         vertex -0.0203677 0.00252919 0.0220434
         vertex -0.0203303 0.00252919 0.0223273
         vertex -0.0230685 0.0025292 0.0228057
      endloop
   endfacet
   facet normal -4.33778e-06 -1 1.10184e-06
      outer loop
         vertex -0.0151186 0.00252916 0.0217439
         vertex -0.0151186 0.00252916 0.0220311
         vertex -0.0178001 0.00252917 0.0220801
      endloop
   endfacet
   facet normal -4.33778e-06 -1 1.10184e-06
      outer loop
         vertex -0.0151186 0.00252916 0.0217439
         vertex 0.0265224 0.00252898 0.0217439
         vertex 0.0265098 0.00252898 0.0220311
      endloop
   endfacet
   facet normal -4.33778e-06 -1 1.10184e-06
      outer loop
         vertex 0.0266337 0.00252898 0.02171
         vertex 0.0291999 0.00252897 0.0199896
         vertex 0.0293544 0.00252897 0.020226
      endloop
   endfacet
   facet normal -4.33778e-06 -1 1.10184e-06
      outer loop
         vertex 0.0267881 0.00252898 0.0219465
         vertex 0.026746 0.00252898 0.0219718
         vertex 0.0266168 0.00252898 0.0217202
      endloop
   endfacet
   facet normal -4.33778e-06 -1 1.10184e-06
      outer loop
         vertex -0.0230685 0.0025292 0.0228057
         vertex -0.0234503 0.0025292 0.0225927
         vertex -0.0203677 0.00252919 0.0220434
      endloop
   endfacet
   facet normal -4.33778e-06 -1 1.10184e-06
      outer loop
         vertex -0.0203303 0.00252919 0.0223273
         vertex -0.0203677 0.00252919 0.0220434
         vertex -0.0179679 0.00252918 0.0218012
      endloop
   endfacet
   facet normal -4.33778e-06 -1 1.10184e-06
      outer loop
         vertex 0.0265589 0.00252898 0.0220287
         vertex 0.0265098 0.00252898 0.0220311
         vertex 0.0265224 0.00252898 0.0217439
      endloop
   endfacet
   facet normal -4.33778e-06 -1 1.10184e-06
      outer loop
         vertex 0.0265098 0.00252898 0.0220311
         vertex -0.0151186 0.00252916 0.0220311
         vertex -0.0151186 0.00252916 0.0217439
      endloop
   endfacet
   facet normal -4.33778e-06 -1 1.10184e-06
      outer loop
         vertex 0.029419 0.00252897 0.0201814
         vertex 0.0292441 0.00252897 0.0199592
         vertex 0.0292845 0.00252897 0.019927
      endloop
   endfacet
   facet normal -4.33778e-06 -1 1.10184e-06
      outer loop
         vertex 0.0266168 0.00252898 0.0217202
         vertex 0.0266337 0.00252898 0.02171
         vertex 0.0267881 0.00252898 0.0219465
      endloop
   endfacet
   facet normal -4.33778e-06 -1 1.10184e-06
      outer loop
         vertex -0.0179679 0.00252918 0.0218012
         vertex -0.0178001 0.00252917 0.0220801
         vertex -0.0203303 0.00252919 0.0223273
      endloop
   endfacet
   facet normal -4.33778e-06 -1 1.10184e-06
      outer loop
         vertex -0.0178001 0.00252917 0.0220801
         vertex -0.0179679 0.00252918 0.0218012
         vertex -0.0151186 0.00252916 0.0217439
      endloop
   endfacet
   facet normal -4.33778e-06 -1 1.10184e-06
      outer loop
         vertex 0.0292441 0.00252897 0.0199592
         vertex 0.029419 0.00252897 0.0201814
         vertex 0.0293544 0.00252897 0.020226
      endloop
   endfacet
   facet normal -4.33778e-06 -1 1.10184e-06
      outer loop
         vertex 0.026746 0.00252898 0.0219718
         vertex 0.0267015 0.00252898 0.0219929
         vertex 0.0265991 0.00252898 0.0217286
      endloop
   endfacet
   facet normal -4.33778e-06 -1 1.10184e-06
      outer loop
         vertex 0.0266076 0.00252898 0.0220214
         vertex 0.0265589 0.00252898 0.0220287
         vertex 0.026542 0.00252898 0.0217429
      endloop
   endfacet
   facet normal -4.33778e-06 -1 1.10184e-06
      outer loop
         vertex 0.0265224 0.00252898 0.0217439
         vertex 0.026542 0.00252898 0.0217429
         vertex 0.0265589 0.00252898 0.0220287
      endloop
   endfacet
   facet normal -4.33778e-06 -1 1.10184e-06
      outer loop
         vertex 0.0296294 0.00252897 0.0198703
         vertex 0.0296162 0.00252897 0.0199193
         vertex 0.0293475 0.00252897 0.0198266
      endloop
   endfacet
   facet normal -4.33778e-06 -1 1.10184e-06
      outer loop
         vertex 0.0296162 0.00252897 0.0199193
         vertex 0.0295974 0.00252897 0.0199677
         vertex 0.0293414 0.00252897 0.0198459
      endloop
   endfacet
   facet normal -4.33778e-06 -1 1.10184e-06
      outer loop
         vertex 0.0295169 0.00252897 0.0200925
         vertex 0.0293005 0.00252897 0.0199114
         vertex 0.0293138 0.00252897 0.0198957
      endloop
   endfacet
   facet normal -4.33778e-06 -1 1.10184e-06
      outer loop
         vertex 0.0294808 0.00252897 0.0201294
         vertex 0.0292845 0.00252897 0.019927
         vertex 0.0293005 0.00252897 0.0199114
      endloop
   endfacet
   facet normal -4.33778e-06 -1 1.10184e-06
      outer loop
         vertex 0.0265991 0.00252898 0.0217286
         vertex 0.0266168 0.00252898 0.0217202
         vertex 0.026746 0.00252898 0.0219718
      endloop
   endfacet
   facet normal -4.33778e-06 -1 1.10184e-06
      outer loop
         vertex 0.0267015 0.00252898 0.0219929
         vertex 0.0266552 0.00252898 0.0220095
         vertex 0.0265805 0.00252898 0.0217352
      endloop
   endfacet
   facet normal -4.33778e-06 -1 1.10184e-06
      outer loop
         vertex 0.0266552 0.00252898 0.0220095
         vertex 0.0266076 0.00252898 0.0220214
         vertex 0.0265615 0.00252898 0.02174
      endloop
   endfacet
   facet normal -4.33778e-06 -1 1.10184e-06
      outer loop
         vertex -0.0271472 0.00252922 0.0235509
         vertex -0.0263675 0.00252921 0.0233355
         vertex -0.0260455 0.00252921 0.023546
      endloop
   endfacet
   facet normal -4.33778e-06 -1 1.10184e-06
      outer loop
         vertex 0.0296456 0.00252897 0.019716
         vertex 0.0296399 0.00252897 0.0198062
         vertex 0.0293561 0.00252897 0.0197666
      endloop
   endfacet
   facet normal -4.33778e-06 -1 1.10184e-06
      outer loop
         vertex 0.0293414 0.00252897 0.0198459
         vertex 0.0293475 0.00252897 0.0198266
         vertex 0.0296162 0.00252897 0.0199193
      endloop
   endfacet
   facet normal -4.33778e-06 -1 1.10184e-06
      outer loop
         vertex 0.0295465 0.00252897 0.0200556
         vertex 0.0293138 0.00252897 0.0198957
         vertex 0.0293247 0.00252897 0.0198799
      endloop
   endfacet
   facet normal -4.33778e-06 -1 1.10184e-06
      outer loop
         vertex 0.0293005 0.00252897 0.0199114
         vertex 0.0295169 0.00252897 0.0200925
         vertex 0.0294808 0.00252897 0.0201294
      endloop
   endfacet
   facet normal -4.33778e-06 -1 1.10184e-06
      outer loop
         vertex 0.0265805 0.00252898 0.0217352
         vertex 0.0265991 0.00252898 0.0217286
         vertex 0.0267015 0.00252898 0.0219929
      endloop
   endfacet
   facet normal -4.33778e-06 -1 1.10184e-06
      outer loop
         vertex 0.026542 0.00252898 0.0217429
         vertex 0.0265615 0.00252898 0.02174
         vertex 0.0266076 0.00252898 0.0220214
      endloop
   endfacet
   facet normal -4.33778e-06 -1 1.10184e-06
      outer loop
         vertex -0.0279308 0.00252922 0.0240311
         vertex -0.0279308 0.00252922 0.0237439
         vertex -0.0278846 0.00252922 0.0237423
      endloop
   endfacet
   facet normal -4.33778e-06 -1 1.10184e-06
      outer loop
         vertex -0.0455442 0.0025293 0.0240311
         vertex -0.0455442 0.0025293 0.0237439
         vertex -0.0279308 0.00252922 0.0237439
      endloop
   endfacet
   facet normal -4.33778e-06 -1 1.10184e-06
      outer loop
         vertex -0.0457387 0.0025293 0.0240113
         vertex -0.0456802 0.0025293 0.0237292
         vertex -0.0456126 0.0025293 0.0237397
      endloop
   endfacet
   facet normal -4.33778e-06 -1 1.10184e-06
      outer loop
         vertex -0.0457387 0.0025293 0.0240113
         vertex -0.0458336 0.0025293 0.0239874
         vertex -0.0457465 0.0025293 0.0237124
      endloop
   endfacet
   facet normal -4.33778e-06 -1 1.10184e-06
      outer loop
         vertex -0.0458336 0.0025293 0.0239874
         vertex -0.0459258 0.0025293 0.0239546
         vertex -0.045811 0.0025293 0.0236896
      endloop
   endfacet
   facet normal -4.33778e-06 -1 1.10184e-06
      outer loop
         vertex -0.0459258 0.0025293 0.0239546
         vertex -0.0460144 0.0025293 0.0239131
         vertex -0.0458731 0.0025293 0.0236608
      endloop
   endfacet
   facet normal -4.33778e-06 -1 1.10184e-06
      outer loop
         vertex -0.0460986 0.0025293 0.0238632
         vertex -0.0486233 0.00252931 0.0221801
         vertex -0.0484565 0.00252931 0.0219436
      endloop
   endfacet
   facet normal -4.33778e-06 -1 1.10184e-06
      outer loop
         vertex -0.0486233 0.00252931 0.0221801
         vertex -0.0486629 0.00252931 0.0221508
         vertex -0.0484729 0.00252931 0.0219322
      endloop
   endfacet
   facet normal -4.33778e-06 -1 1.10184e-06
      outer loop
         vertex -0.0488444 0.00252931 0.0218115
         vertex -0.0488468 0.00252931 0.0217622
         vertex -0.0485468 0.00252931 0.0217747
      endloop
   endfacet
   facet normal -4.33778e-06 -1 1.10184e-06
      outer loop
         vertex -0.0488468 0.00252931 0.0217622
         vertex -0.0488468 0.00252931 0.0186796
         vertex -0.0485468 0.0025293 0.0187063
      endloop
   endfacet
   facet normal -4.33778e-06 -1 1.10184e-06
      outer loop
         vertex 0.0293579 0.00252895 0.00748427
         vertex 0.029645 0.00252895 0.00748427
         vertex 0.029645 0.00252897 0.0196808
      endloop
   endfacet
   facet normal -4.33778e-06 -1 1.10184e-06
      outer loop
         vertex 0.0293579 0.00252897 0.0196932
         vertex 0.029645 0.00252897 0.0196808
         vertex 0.0296456 0.00252897 0.019716
      endloop
   endfacet
   facet normal -4.33778e-06 -1 1.10184e-06
      outer loop
         vertex 0.0295974 0.00252897 0.0199677
         vertex 0.029334 0.00252897 0.0198632
         vertex 0.0293414 0.00252897 0.0198459
      endloop
   endfacet
   facet normal -4.33778e-06 -1 1.10184e-06
      outer loop
         vertex 0.0295736 0.00252897 0.0200139
         vertex 0.0293247 0.00252897 0.0198799
         vertex 0.029334 0.00252897 0.0198632
      endloop
   endfacet
   facet normal -4.33778e-06 -1 1.10184e-06
      outer loop
         vertex 0.0293138 0.00252897 0.0198957
         vertex 0.0295465 0.00252897 0.0200556
         vertex 0.0295169 0.00252897 0.0200925
      endloop
   endfacet
   facet normal -4.33778e-06 -1 1.10184e-06
      outer loop
         vertex 0.0265615 0.00252898 0.02174
         vertex 0.0265805 0.00252898 0.0217352
         vertex 0.0266552 0.00252898 0.0220095
      endloop
   endfacet
   facet normal -4.33778e-06 -1 1.10184e-06
      outer loop
         vertex -0.0279308 0.00252922 0.0237439
         vertex -0.0279308 0.00252922 0.0240311
         vertex -0.0455442 0.0025293 0.0240311
      endloop
   endfacet
   facet normal -4.33778e-06 -1 1.10184e-06
      outer loop
         vertex -0.045642 0.0025293 0.0240259
         vertex -0.0456126 0.0025293 0.0237397
         vertex -0.0455442 0.0025293 0.0237439
      endloop
   endfacet
   facet normal -4.33778e-06 -1 1.10184e-06
      outer loop
         vertex -0.0457465 0.0025293 0.0237124
         vertex -0.0456802 0.0025293 0.0237292
         vertex -0.0457387 0.0025293 0.0240113
      endloop
   endfacet
   facet normal -4.33778e-06 -1 1.10184e-06
      outer loop
         vertex -0.0458731 0.0025293 0.0236608
         vertex -0.045811 0.0025293 0.0236896
         vertex -0.0459258 0.0025293 0.0239546
      endloop
   endfacet
   facet normal -4.33778e-06 -1 1.10184e-06
      outer loop
         vertex -0.0460144 0.0025293 0.0239131
         vertex -0.0460986 0.0025293 0.0238632
         vertex -0.0459323 0.0025293 0.0236264
      endloop
   endfacet
   facet normal -4.33778e-06 -1 1.10184e-06
      outer loop
         vertex -0.0484729 0.00252931 0.0219322
         vertex -0.0484565 0.00252931 0.0219436
         vertex -0.0486233 0.00252931 0.0221801
      endloop
   endfacet
   facet normal -4.33778e-06 -1 1.10184e-06
      outer loop
         vertex -0.0486995 0.00252931 0.0221177
         vertex -0.0487327 0.00252931 0.0220811
         vertex -0.0485018 0.00252931 0.0219044
      endloop
   endfacet
   facet normal -4.33778e-06 -1 1.10184e-06
      outer loop
         vertex -0.0487327 0.00252931 0.0220811
         vertex -0.0487621 0.00252931 0.0220415
         vertex -0.0485139 0.00252931 0.0218884
      endloop
   endfacet
   facet normal -4.33778e-06 -1 1.10184e-06
      outer loop
         vertex -0.0488086 0.00252931 0.0219546
         vertex -0.0488252 0.00252931 0.0219082
         vertex -0.0485393 0.00252931 0.0218342
      endloop
   endfacet
   facet normal -4.33778e-06 -1 1.10184e-06
      outer loop
         vertex -0.0488252 0.00252931 0.0219082
         vertex -0.0488372 0.00252931 0.0218603
         vertex -0.0485439 0.00252931 0.0218147
      endloop
   endfacet
   facet normal -4.33778e-06 -1 1.10184e-06
      outer loop
         vertex -0.0488372 0.00252931 0.0218603
         vertex -0.0488444 0.00252931 0.0218115
         vertex -0.0485464 0.00252931 0.0217948
      endloop
   endfacet
   facet normal -4.33778e-06 -1 1.10184e-06
      outer loop
         vertex -0.0485468 0.0025293 0.0187063
         vertex -0.0485468 0.00252931 0.0217747
         vertex -0.0488468 0.00252931 0.0217622
      endloop
   endfacet
   facet normal -4.33778e-06 -1 1.10184e-06
      outer loop
         vertex 0.0293561 0.00252897 0.0197666
         vertex 0.0293579 0.00252897 0.0196932
         vertex 0.0296456 0.00252897 0.019716
      endloop
   endfacet
   facet normal -4.33778e-06 -1 1.10184e-06
      outer loop
         vertex 0.0296399 0.00252897 0.0198062
         vertex 0.0296294 0.00252897 0.0198703
         vertex 0.029352 0.00252897 0.0198051
      endloop
   endfacet
   facet normal -4.33778e-06 -1 1.10184e-06
      outer loop
         vertex 0.029334 0.00252897 0.0198632
         vertex 0.0295974 0.00252897 0.0199677
         vertex 0.0295736 0.00252897 0.0200139
      endloop
   endfacet
   facet normal -4.33778e-06 -1 1.10184e-06
      outer loop
         vertex 0.0292845 0.00252897 0.019927
         vertex 0.0294808 0.00252897 0.0201294
         vertex 0.029419 0.00252897 0.0201814
      endloop
   endfacet
   facet normal -4.33778e-06 -1 1.10184e-06
      outer loop
         vertex -0.0278335 0.00252922 0.0240264
         vertex -0.0278846 0.00252922 0.0237423
         vertex -0.0278174 0.00252922 0.0237343
      endloop
   endfacet
   facet normal -4.33778e-06 -1 1.10184e-06
      outer loop
         vertex -0.0455442 0.0025293 0.0237439
         vertex -0.0455442 0.0025293 0.0240311
         vertex -0.045642 0.0025293 0.0240259
      endloop
   endfacet
   facet normal -4.33778e-06 -1 1.10184e-06
      outer loop
         vertex -0.045811 0.0025293 0.0236896
         vertex -0.0457465 0.0025293 0.0237124
         vertex -0.0458336 0.0025293 0.0239874
      endloop
   endfacet
   facet normal -4.33778e-06 -1 1.10184e-06
      outer loop
         vertex -0.0484565 0.00252931 0.0219436
         vertex -0.0459323 0.0025293 0.0236264
         vertex -0.0460986 0.0025293 0.0238632
      endloop
   endfacet
   facet normal -4.33778e-06 -1 1.10184e-06
      outer loop
         vertex -0.0486629 0.00252931 0.0221508
         vertex -0.0486995 0.00252931 0.0221177
         vertex -0.0484881 0.00252931 0.021919
      endloop
   endfacet
   facet normal -4.33778e-06 -1 1.10184e-06
      outer loop
         vertex -0.0485139 0.00252931 0.0218884
         vertex -0.0485018 0.00252931 0.0219044
         vertex -0.0487327 0.00252931 0.0220811
      endloop
   endfacet
   facet normal -4.33778e-06 -1 1.10184e-06
      outer loop
         vertex -0.0485439 0.00252931 0.0218147
         vertex -0.0485393 0.00252931 0.0218342
         vertex -0.0488252 0.00252931 0.0219082
      endloop
   endfacet
   facet normal -4.33778e-06 -1 1.10184e-06
      outer loop
         vertex -0.0485468 0.00252931 0.0217747
         vertex -0.0485464 0.00252931 0.0217948
         vertex -0.0488444 0.00252931 0.0218115
      endloop
   endfacet
   facet normal -4.33778e-06 -1 1.10184e-06
      outer loop
         vertex 0.029352 0.00252897 0.0198051
         vertex 0.0293561 0.00252897 0.0197666
         vertex 0.0296399 0.00252897 0.0198062
      endloop
   endfacet
   facet normal -4.33778e-06 -1 1.10184e-06
      outer loop
         vertex 0.0293247 0.00252897 0.0198799
         vertex 0.0295736 0.00252897 0.0200139
         vertex 0.0295465 0.00252897 0.0200556
      endloop
   endfacet
   facet normal -4.33778e-06 -1 1.10184e-06
      outer loop
         vertex -0.0278846 0.00252922 0.0237423
         vertex -0.0278335 0.00252922 0.0240264
         vertex -0.0279308 0.00252922 0.0240311
      endloop
   endfacet
   facet normal -4.33778e-06 -1 1.10184e-06
      outer loop
         vertex -0.0459323 0.0025293 0.0236264
         vertex -0.0458731 0.0025293 0.0236608
         vertex -0.0460144 0.0025293 0.0239131
      endloop
   endfacet
   facet normal -4.33778e-06 -1 1.10184e-06
      outer loop
         vertex -0.0485018 0.00252931 0.0219044
         vertex -0.0484881 0.00252931 0.021919
         vertex -0.0486995 0.00252931 0.0221177
      endloop
   endfacet
   facet normal -4.33778e-06 -1 1.10184e-06
      outer loop
         vertex -0.0487621 0.00252931 0.0220415
         vertex -0.0487875 0.00252931 0.0219992
         vertex -0.0485242 0.00252931 0.0218713
      endloop
   endfacet
   facet normal -4.33778e-06 -1 1.10184e-06
      outer loop
         vertex -0.0487875 0.00252931 0.0219992
         vertex -0.0488086 0.00252931 0.0219546
         vertex -0.0485327 0.00252931 0.0218531
      endloop
   endfacet
   facet normal -4.33778e-06 -1 1.10184e-06
      outer loop
         vertex -0.0485464 0.00252931 0.0217948
         vertex -0.0485439 0.00252931 0.0218147
         vertex -0.0488372 0.00252931 0.0218603
      endloop
   endfacet
   facet normal -4.33778e-06 -1 1.10184e-06
      outer loop
         vertex 0.0293475 0.00252897 0.0198266
         vertex 0.029352 0.00252897 0.0198051
         vertex 0.0296294 0.00252897 0.0198703
      endloop
   endfacet
   facet normal -4.33778e-06 -1 1.10184e-06
      outer loop
         vertex -0.0456126 0.0025293 0.0237397
         vertex -0.045642 0.0025293 0.0240259
         vertex -0.0457387 0.0025293 0.0240113
      endloop
   endfacet
   facet normal -4.33778e-06 -1 1.10184e-06
      outer loop
         vertex -0.0485242 0.00252931 0.0218713
         vertex -0.0485139 0.00252931 0.0218884
         vertex -0.0487621 0.00252931 0.0220415
      endloop
   endfacet
   facet normal -4.33778e-06 -1 1.10184e-06
      outer loop
         vertex -0.0485393 0.00252931 0.0218342
         vertex -0.0485327 0.00252931 0.0218531
         vertex -0.0488086 0.00252931 0.0219546
      endloop
   endfacet
   facet normal -4.33778e-06 -1 1.10184e-06
      outer loop
         vertex -0.0278174 0.00252922 0.0237343
         vertex -0.0277311 0.00252922 0.0240107
         vertex -0.0278335 0.00252922 0.0240264
      endloop
   endfacet
   facet normal -4.33778e-06 -1 1.10184e-06
      outer loop
         vertex -0.0485327 0.00252931 0.0218531
         vertex -0.0485242 0.00252931 0.0218713
         vertex -0.0487875 0.00252931 0.0219992
      endloop
   endfacet
   facet normal -4.33778e-06 -1 1.10184e-06
      outer loop
         vertex -0.0485468 0.0025293 0.0187063
         vertex -0.0488468 0.00252931 0.0186796
         vertex -0.0483535 0.0025293 0.0161213
      endloop
   endfacet
   facet normal -4.33778e-06 -1 1.10184e-06
      outer loop
         vertex -0.0484881 0.00252931 0.021919
         vertex -0.0484729 0.00252931 0.0219322
         vertex -0.0486629 0.00252931 0.0221508
      endloop
   endfacet
   facet normal -4.33778e-06 -1 1.10184e-06
      outer loop
         vertex -0.0483535 0.0025293 0.0161213
         vertex -0.0480512 0.0025293 0.0161081
         vertex -0.0480512 0.0025293 0.0161381
      endloop
   endfacet
   facet normal -4.33778e-06 -1 1.10184e-06
      outer loop
         vertex -0.0483535 0.0025293 0.0161213
         vertex -0.0480512 0.0025293 0.0161381
         vertex -0.0485468 0.0025293 0.0187063
      endloop
   endfacet
   facet normal -4.33778e-06 -1 1.10184e-06
      outer loop
         vertex 0.029645 0.00252897 0.0196808
         vertex 0.0293579 0.00252897 0.0196932
         vertex 0.0293579 0.00252895 0.00748427
      endloop
   endfacet
endsolid 1111. Units = meters