solid 1111. STL generated by ONSHAPE BY PTC INC, 1.216. Units = meters
   facet normal 1 -4.33778e-06 -1.30939e-08
      outer loop
         vertex 0.0293579 0.00252895 0.00251593
         vertex 0.0293579 0.00222895 0.0022
         vertex 0.0293579 0.00222894 -0.0022
      endloop
   endfacet
   facet normal 1 -4.33778e-06 -1.30939e-08
      outer loop
         vertex 0.0293579 0.00222894 -0.0022
         vertex 0.0293579 0.00252894 -0.00251593
         vertex 0.0293579 0.00252895 0.00251593
      endloop
   endfacet
   facet normal -4.33778e-06 -1 1.10184e-06
      outer loop
         vertex 0.0293579 0.00252895 0.00251593
         vertex 0.0293579 0.00252894 -0.00251593
         vertex 0.029645 0.00252894 -0.00251573
      endloop
   endfacet
   facet normal -4.33778e-06 -1 1.10184e-06
      outer loop
         vertex 0.029645 0.00252894 -0.00251573
         vertex 0.029645 0.00252895 0.00251572
         vertex 0.0293579 0.00252895 0.00251593
      endloop
   endfacet
endsolid 1111. Units = meters