solid 1111. STL generated by ONSHAPE BY PTC INC, 1.216. Units = meters
   facet normal -4.33778e-06 -1 1.10184e-06
      outer loop
         vertex 0.172886 -0.000981683 -0.00540072
         vertex 0.172883 -0.000981683 -0.0054518
         vertex 0.173101 -0.000981684 -0.00542741
      endloop
   endfacet
   facet normal -4.33778e-06 -1 1.10184e-06
      outer loop
         vertex 0.173105 -0.000981684 -0.00545345
         vertex 0.173101 -0.000981684 -0.00542741
         vertex 0.172883 -0.000981683 -0.0054518
      endloop
   endfacet
   facet normal -4.33778e-06 -1 1.10184e-06
      outer loop
         vertex 0.172889 -0.000981683 -0.00552791
         vertex 0.173112 -0.000981684 -0.00547895
         vertex 0.173105 -0.000981684 -0.00545345
      endloop
   endfacet
   facet normal -4.33778e-06 -1 1.10184e-06
      outer loop
         vertex 0.172946 -0.000981683 -0.0056658
         vertex 0.172969 -0.000981683 -0.00569578
         vertex 0.173147 -0.000981684 -0.00554952
      endloop
   endfacet
   facet normal -4.33778e-06 -1 1.10184e-06
      outer loop
         vertex 0.172883 -0.000981683 -0.0054518
         vertex 0.172885 -0.000981683 -0.00548994
         vertex 0.173105 -0.000981684 -0.00545345
      endloop
   endfacet
   facet normal -4.33778e-06 -1 1.10184e-06
      outer loop
         vertex 0.173105 -0.000981684 -0.00545345
         vertex 0.172885 -0.000981683 -0.00548994
         vertex 0.172889 -0.000981683 -0.00552791
      endloop
   endfacet
   facet normal -4.33778e-06 -1 1.10184e-06
      outer loop
         vertex 0.172927 -0.000981683 -0.00563368
         vertex 0.173133 -0.000981684 -0.00552723
         vertex 0.173121 -0.000981684 -0.00550363
      endloop
   endfacet
   facet normal -4.33778e-06 -1 1.10184e-06
      outer loop
         vertex 0.173133 -0.000981684 -0.00552723
         vertex 0.172927 -0.000981683 -0.00563368
         vertex 0.172946 -0.000981683 -0.0056658
      endloop
   endfacet
   facet normal -4.33778e-06 -1 1.10184e-06
      outer loop
         vertex 0.172969 -0.000981683 -0.00569578
         vertex 0.172995 -0.000981683 -0.00572333
         vertex 0.173163 -0.000981684 -0.00557024
      endloop
   endfacet
   facet normal -4.33778e-06 -1 1.10184e-06
      outer loop
         vertex 0.173163 -0.000981684 -0.00557024
         vertex 0.172995 -0.000981683 -0.00572333
         vertex 0.173023 -0.000981684 -0.00574816
      endloop
   endfacet
   facet normal -4.33778e-06 -1 1.10184e-06
      outer loop
         vertex 0.172889 -0.000981683 -0.00552791
         vertex 0.172898 -0.000981683 -0.00556439
         vertex 0.173112 -0.000981684 -0.00547895
      endloop
   endfacet
   facet normal -4.33778e-06 -1 1.10184e-06
      outer loop
         vertex 0.172898 -0.000981683 -0.00556439
         vertex 0.17291 -0.000981683 -0.00559977
         vertex 0.173121 -0.000981684 -0.00550363
      endloop
   endfacet
   facet normal -4.33778e-06 -1 1.10184e-06
      outer loop
         vertex 0.173147 -0.000981684 -0.00554952
         vertex 0.173133 -0.000981684 -0.00552723
         vertex 0.172946 -0.000981683 -0.0056658
      endloop
   endfacet
   facet normal -4.33778e-06 -1 1.10184e-06
      outer loop
         vertex 0.173023 -0.000981684 -0.00574816
         vertex 0.173182 -0.000981684 -0.0055892
         vertex 0.173163 -0.000981684 -0.00557024
      endloop
   endfacet
   facet normal -4.33778e-06 -1 1.10184e-06
      outer loop
         vertex 0.173053 -0.000981684 -0.00577003
         vertex 0.173086 -0.000981684 -0.00578872
         vertex 0.173202 -0.000981684 -0.00560618
      endloop
   endfacet
   facet normal -4.33778e-06 -1 1.10184e-06
      outer loop
         vertex 0.173202 -0.000981684 -0.00560618
         vertex 0.173086 -0.000981684 -0.00578872
         vertex 0.17312 -0.000981684 -0.00580402
      endloop
   endfacet
   facet normal -4.33778e-06 -1 1.10184e-06
      outer loop
         vertex 0.173223 -0.000981684 -0.00562102
         vertex 0.17312 -0.000981684 -0.00580402
         vertex 0.173156 -0.000981684 -0.0058158
      endloop
   endfacet
   facet normal -4.33778e-06 -1 1.10184e-06
      outer loop
         vertex 0.172921 -0.000981683 -0.00525185
         vertex 0.173112 -0.000981684 -0.0053217
         vertex 0.173122 -0.000981684 -0.00529659
      endloop
   endfacet
   facet normal -4.33778e-06 -1 1.10184e-06
      outer loop
         vertex 0.172904 -0.000981683 -0.00530032
         vertex 0.173105 -0.000981684 -0.00534768
         vertex 0.173112 -0.000981684 -0.0053217
      endloop
   endfacet
   facet normal -4.33778e-06 -1 1.10184e-06
      outer loop
         vertex 0.173121 -0.000981684 -0.00550363
         vertex 0.173112 -0.000981684 -0.00547895
         vertex 0.172898 -0.000981683 -0.00556439
      endloop
   endfacet
   facet normal -4.33778e-06 -1 1.10184e-06
      outer loop
         vertex 0.173163 -0.000981684 -0.00557024
         vertex 0.173147 -0.000981684 -0.00554952
         vertex 0.172969 -0.000981683 -0.00569578
      endloop
   endfacet
   facet normal -4.33778e-06 -1 1.10184e-06
      outer loop
         vertex 0.173182 -0.000981684 -0.0055892
         vertex 0.173023 -0.000981684 -0.00574816
         vertex 0.173053 -0.000981684 -0.00577003
      endloop
   endfacet
   facet normal -4.33778e-06 -1 1.10184e-06
      outer loop
         vertex 0.173156 -0.000981684 -0.0058158
         vertex 0.173247 -0.000981684 -0.00563355
         vertex 0.173223 -0.000981684 -0.00562102
      endloop
   endfacet
   facet normal -4.33778e-06 -1 1.10184e-06
      outer loop
         vertex 0.173548 -0.000981685 -0.004891
         vertex 0.173502 -0.000981685 -0.0051137
         vertex 0.173548 -0.000981685 -0.00511922
      endloop
   endfacet
   facet normal -4.33778e-06 -1 1.10184e-06
      outer loop
         vertex 0.173479 -0.000981685 -0.00489023
         vertex 0.173457 -0.000981685 -0.00511275
         vertex 0.173502 -0.000981685 -0.0051137
      endloop
   endfacet
   facet normal -4.33778e-06 -1 1.10184e-06
      outer loop
         vertex 0.173274 -0.000981684 -0.00493204
         vertex 0.173322 -0.000981684 -0.00513718
         vertex 0.173366 -0.000981684 -0.00512455
      endloop
   endfacet
   facet normal -4.33778e-06 -1 1.10184e-06
      outer loop
         vertex 0.173211 -0.000981684 -0.00496016
         vertex 0.17328 -0.000981684 -0.00515414
         vertex 0.173322 -0.000981684 -0.00513718
      endloop
   endfacet
   facet normal -4.33778e-06 -1 1.10184e-06
      outer loop
         vertex 0.172996 -0.000981683 -0.0051346
         vertex 0.172955 -0.000981683 -0.00519123
         vertex 0.173134 -0.000981684 -0.00527261
      endloop
   endfacet
   facet normal -4.33778e-06 -1 1.10184e-06
      outer loop
         vertex 0.173112 -0.000981684 -0.0053217
         vertex 0.172921 -0.000981683 -0.00525185
         vertex 0.172904 -0.000981683 -0.00530032
      endloop
   endfacet
   facet normal -4.33778e-06 -1 1.10184e-06
      outer loop
         vertex 0.172893 -0.000981683 -0.00535009
         vertex 0.173101 -0.000981684 -0.00537424
         vertex 0.173105 -0.000981684 -0.00534768
      endloop
   endfacet
   facet normal -4.33778e-06 -1 1.10184e-06
      outer loop
         vertex 0.173121 -0.000981684 -0.00550363
         vertex 0.17291 -0.000981683 -0.00559977
         vertex 0.172927 -0.000981683 -0.00563368
      endloop
   endfacet
   facet normal -4.33778e-06 -1 1.10184e-06
      outer loop
         vertex 0.17312 -0.000981684 -0.00580402
         vertex 0.173223 -0.000981684 -0.00562102
         vertex 0.173202 -0.000981684 -0.00560618
      endloop
   endfacet
   facet normal -4.33778e-06 -1 1.10184e-06
      outer loop
         vertex 0.173502 -0.000981685 -0.0051137
         vertex 0.173548 -0.000981685 -0.004891
         vertex 0.173479 -0.000981685 -0.00489023
      endloop
   endfacet
   facet normal -4.33778e-06 -1 1.10184e-06
      outer loop
         vertex 0.173409 -0.000981684 -0.00489687
         vertex 0.173411 -0.000981685 -0.00511638
         vertex 0.173457 -0.000981685 -0.00511275
      endloop
   endfacet
   facet normal -4.33778e-06 -1 1.10184e-06
      outer loop
         vertex 0.173341 -0.000981684 -0.00491086
         vertex 0.173366 -0.000981684 -0.00512455
         vertex 0.173411 -0.000981685 -0.00511638
      endloop
   endfacet
   facet normal -4.33778e-06 -1 1.10184e-06
      outer loop
         vertex 0.173322 -0.000981684 -0.00513718
         vertex 0.173274 -0.000981684 -0.00493204
         vertex 0.173211 -0.000981684 -0.00496016
      endloop
   endfacet
   facet normal -4.33778e-06 -1 1.10184e-06
      outer loop
         vertex 0.173094 -0.000981683 -0.00503588
         vertex 0.173201 -0.000981684 -0.00520034
         vertex 0.173239 -0.000981684 -0.00517527
      endloop
   endfacet
   facet normal -4.33778e-06 -1 1.10184e-06
      outer loop
         vertex 0.173042 -0.000981683 -0.00508262
         vertex 0.173166 -0.000981684 -0.00522912
         vertex 0.173201 -0.000981684 -0.00520034
      endloop
   endfacet
   facet normal -4.33778e-06 -1 1.10184e-06
      outer loop
         vertex 0.172955 -0.000981683 -0.00519123
         vertex 0.173122 -0.000981684 -0.00529659
         vertex 0.173134 -0.000981684 -0.00527261
      endloop
   endfacet
   facet normal -4.33778e-06 -1 1.10184e-06
      outer loop
         vertex 0.173105 -0.000981684 -0.00534768
         vertex 0.172904 -0.000981683 -0.00530032
         vertex 0.172893 -0.000981683 -0.00535009
      endloop
   endfacet
   facet normal -4.33778e-06 -1 1.10184e-06
      outer loop
         vertex 0.172886 -0.000981683 -0.00540072
         vertex 0.1731 -0.000981684 -0.00540109
         vertex 0.173101 -0.000981684 -0.00537424
      endloop
   endfacet
   facet normal -4.33778e-06 -1 1.10184e-06
      outer loop
         vertex 0.173202 -0.000981684 -0.00560618
         vertex 0.173182 -0.000981684 -0.0055892
         vertex 0.173053 -0.000981684 -0.00577003
      endloop
   endfacet
   facet normal -4.33778e-06 -1 1.10184e-06
      outer loop
         vertex 0.173457 -0.000981685 -0.00511275
         vertex 0.173479 -0.000981685 -0.00489023
         vertex 0.173409 -0.000981684 -0.00489687
      endloop
   endfacet
   facet normal -4.33778e-06 -1 1.10184e-06
      outer loop
         vertex 0.173366 -0.000981684 -0.00512455
         vertex 0.173341 -0.000981684 -0.00491086
         vertex 0.173274 -0.000981684 -0.00493204
      endloop
   endfacet
   facet normal -4.33778e-06 -1 1.10184e-06
      outer loop
         vertex 0.17315 -0.000981683 -0.00499491
         vertex 0.173239 -0.000981684 -0.00517527
         vertex 0.17328 -0.000981684 -0.00515414
      endloop
   endfacet
   facet normal -4.33778e-06 -1 1.10184e-06
      outer loop
         vertex 0.173201 -0.000981684 -0.00520034
         vertex 0.173094 -0.000981683 -0.00503588
         vertex 0.173042 -0.000981683 -0.00508262
      endloop
   endfacet
   facet normal -4.33778e-06 -1 1.10184e-06
      outer loop
         vertex 0.173122 -0.000981684 -0.00529659
         vertex 0.172955 -0.000981683 -0.00519123
         vertex 0.172921 -0.000981683 -0.00525185
      endloop
   endfacet
   facet normal -4.33778e-06 -1 1.10184e-06
      outer loop
         vertex 0.173101 -0.000981684 -0.00542741
         vertex 0.1731 -0.000981684 -0.00540109
         vertex 0.172886 -0.000981683 -0.00540072
      endloop
   endfacet
   facet normal -4.33778e-06 -1 1.10184e-06
      outer loop
         vertex 0.173355 -0.000981685 -0.00564674
         vertex 0.173247 -0.000981684 -0.00563355
         vertex 0.173285 -0.000981685 -0.00583377
      endloop
   endfacet
   facet normal -4.33778e-06 -1 1.10184e-06
      outer loop
         vertex 0.173411 -0.000981685 -0.00511638
         vertex 0.173409 -0.000981684 -0.00489687
         vertex 0.173341 -0.000981684 -0.00491086
      endloop
   endfacet
   facet normal -4.33778e-06 -1 1.10184e-06
      outer loop
         vertex 0.173239 -0.000981684 -0.00517527
         vertex 0.17315 -0.000981683 -0.00499491
         vertex 0.173094 -0.000981683 -0.00503588
      endloop
   endfacet
   facet normal -4.33778e-06 -1 1.10184e-06
      outer loop
         vertex 0.172996 -0.000981683 -0.0051346
         vertex 0.173149 -0.000981684 -0.00525004
         vertex 0.173166 -0.000981684 -0.00522912
      endloop
   endfacet
   facet normal -4.33778e-06 -1 1.10184e-06
      outer loop
         vertex 0.173101 -0.000981684 -0.00537424
         vertex 0.172893 -0.000981683 -0.00535009
         vertex 0.172886 -0.000981683 -0.00540072
      endloop
   endfacet
   facet normal -4.33778e-06 -1 1.10184e-06
      outer loop
         vertex 0.173247 -0.000981684 -0.00563355
         vertex 0.17322 -0.000981685 -0.00582816
         vertex 0.173285 -0.000981685 -0.00583377
      endloop
   endfacet
   facet normal -4.33778e-06 -1 1.10184e-06
      outer loop
         vertex 0.17328 -0.000981684 -0.00515414
         vertex 0.173211 -0.000981684 -0.00496016
         vertex 0.17315 -0.000981683 -0.00499491
      endloop
   endfacet
   facet normal -4.33778e-06 -1 1.10184e-06
      outer loop
         vertex 0.173134 -0.000981684 -0.00527261
         vertex 0.173149 -0.000981684 -0.00525004
         vertex 0.172996 -0.000981683 -0.0051346
      endloop
   endfacet
   facet normal -4.33778e-06 -1 1.10184e-06
      outer loop
         vertex 0.173247 -0.000981684 -0.00563355
         vertex 0.173156 -0.000981684 -0.0058158
         vertex 0.17322 -0.000981685 -0.00582816
      endloop
   endfacet
   facet normal -4.33778e-06 -1 1.10184e-06
      outer loop
         vertex 0.173355 -0.000981685 -0.00564674
         vertex 0.17335 -0.000981685 -0.00583257
         vertex 0.173415 -0.000981685 -0.00582456
      endloop
   endfacet
   facet normal -4.33778e-06 -1 1.10184e-06
      outer loop
         vertex 0.173166 -0.000981684 -0.00522912
         vertex 0.173042 -0.000981683 -0.00508262
         vertex 0.172996 -0.000981683 -0.0051346
      endloop
   endfacet
   facet normal -4.33778e-06 -1 1.10184e-06
      outer loop
         vertex 0.173415 -0.000981685 -0.00582456
         vertex 0.173464 -0.000981685 -0.00564991
         vertex 0.173355 -0.000981685 -0.00564674
      endloop
   endfacet
   facet normal -4.33778e-06 -1 1.10184e-06
      outer loop
         vertex 0.173285 -0.000981685 -0.00583377
         vertex 0.17335 -0.000981685 -0.00583257
         vertex 0.173355 -0.000981685 -0.00564674
      endloop
   endfacet
   facet normal -4.33778e-06 -1 1.10184e-06
      outer loop
         vertex 0.173548 -0.000981685 -0.00511922
         vertex 0.173617 -0.000981685 -0.00489918
         vertex 0.173548 -0.000981685 -0.004891
      endloop
   endfacet
endsolid 1111. Units = meters