solid 1111. STL generated by ONSHAPE BY PTC INC, 1.216. Units = meters
   facet normal -4.33778e-06 -1 1.10184e-06
      outer loop
         vertex 0.174609 -0.000981691 0.00457464
         vertex 0.174571 -0.00098169 0.0047198
         vertex 0.174548 -0.00098169 0.00471152
      endloop
   endfacet
   facet normal -4.33778e-06 -1 1.10184e-06
      outer loop
         vertex 0.174524 -0.00098169 0.00470548
         vertex 0.1745 -0.00098169 0.00470174
         vertex 0.174533 -0.00098169 0.00456666
      endloop
   endfacet
   facet normal -4.33778e-06 -1 1.10184e-06
      outer loop
         vertex 0.174548 -0.00098169 0.00471152
         vertex 0.174584 -0.00098169 0.00456923
         vertex 0.174609 -0.000981691 0.00457464
      endloop
   endfacet
   facet normal -4.33778e-06 -1 1.10184e-06
      outer loop
         vertex 0.174298 -0.000981689 0.00457082
         vertex 0.174318 -0.000981689 0.0045677
         vertex 0.174341 -0.000981689 0.00471831
      endloop
   endfacet
   facet normal -4.33778e-06 -1 1.10184e-06
      outer loop
         vertex 0.174533 -0.00098169 0.00456666
         vertex 0.174475 -0.00098169 0.00470033
         vertex 0.17445 -0.00098169 0.00470126
      endloop
   endfacet
   facet normal -4.33778e-06 -1 1.10184e-06
      outer loop
         vertex 0.174533 -0.00098169 0.00456666
         vertex 0.174559 -0.00098169 0.00456656
         vertex 0.174524 -0.00098169 0.00470548
      endloop
   endfacet
   facet normal -4.33778e-06 -1 1.10184e-06
      outer loop
         vertex 0.174548 -0.00098169 0.00471152
         vertex 0.174524 -0.00098169 0.00470548
         vertex 0.174559 -0.00098169 0.00456656
      endloop
   endfacet
   facet normal -4.33778e-06 -1 1.10184e-06
      outer loop
         vertex 0.174609 -0.000981691 0.00457464
         vertex 0.174634 -0.000981691 0.00458274
         vertex 0.174571 -0.00098169 0.0047198
      endloop
   endfacet
   facet normal -4.33778e-06 -1 1.10184e-06
      outer loop
         vertex 0.1747 -0.00098169 0.00501522
         vertex 0.174582 -0.00098169 0.00514089
         vertex 0.174573 -0.00098169 0.00513169
      endloop
   endfacet
   facet normal -4.33778e-06 -1 1.10184e-06
      outer loop
         vertex 0.174337 -0.000981689 0.00471939
         vertex 0.174279 -0.000981689 0.00457596
         vertex 0.174298 -0.000981689 0.00457082
      endloop
   endfacet
   facet normal -4.33778e-06 -1 1.10184e-06
      outer loop
         vertex 0.174318 -0.000981689 0.0045677
         vertex 0.174338 -0.000981689 0.00456666
         vertex 0.174345 -0.000981689 0.00471765
      endloop
   endfacet
   facet normal -4.33778e-06 -1 1.10184e-06
      outer loop
         vertex 0.174338 -0.000981689 0.00456666
         vertex 0.174426 -0.00098169 0.00470453
         vertex 0.174349 -0.000981689 0.00471742
      endloop
   endfacet
   facet normal -4.33778e-06 -1 1.10184e-06
      outer loop
         vertex 0.1745 -0.00098169 0.00470174
         vertex 0.174475 -0.00098169 0.00470033
         vertex 0.174533 -0.00098169 0.00456666
      endloop
   endfacet
   facet normal -4.33778e-06 -1 1.10184e-06
      outer loop
         vertex 0.174634 -0.000981691 0.00458274
         vertex 0.174657 -0.000981691 0.00459341
         vertex 0.174571 -0.00098169 0.0047198
      endloop
   endfacet
   facet normal -4.33778e-06 -1 1.10184e-06
      outer loop
         vertex 0.174573 -0.00098169 0.00513169
         vertex 0.174679 -0.00098169 0.00499738
         vertex 0.1747 -0.00098169 0.00501522
      endloop
   endfacet
   facet normal -4.33778e-06 -1 1.10184e-06
      outer loop
         vertex 0.174719 -0.000981691 0.00503512
         vertex 0.174736 -0.000981691 0.00505687
         vertex 0.17459 -0.00098169 0.00515098
      endloop
   endfacet
   facet normal -4.33778e-06 -1 1.10184e-06
      outer loop
         vertex 0.174243 -0.000981689 0.00459212
         vertex 0.17433 -0.000981689 0.00472277
         vertex 0.174327 -0.000981689 0.00472503
      endloop
   endfacet
   facet normal -4.33778e-06 -1 1.10184e-06
      outer loop
         vertex 0.17426 -0.000981689 0.00458309
         vertex 0.174334 -0.000981689 0.00472089
         vertex 0.17433 -0.000981689 0.00472277
      endloop
   endfacet
   facet normal -4.33778e-06 -1 1.10184e-06
      outer loop
         vertex 0.174279 -0.000981689 0.00457596
         vertex 0.174337 -0.000981689 0.00471939
         vertex 0.174334 -0.000981689 0.00472089
      endloop
   endfacet
   facet normal -4.33778e-06 -1 1.10184e-06
      outer loop
         vertex 0.174345 -0.000981689 0.00471765
         vertex 0.174341 -0.000981689 0.00471831
         vertex 0.174318 -0.000981689 0.0045677
      endloop
   endfacet
   facet normal -4.33778e-06 -1 1.10184e-06
      outer loop
         vertex 0.174338 -0.000981689 0.00456666
         vertex 0.17445 -0.00098169 0.00470126
         vertex 0.174426 -0.00098169 0.00470453
      endloop
   endfacet
   facet normal -4.33778e-06 -1 1.10184e-06
      outer loop
         vertex 0.174559 -0.00098169 0.00456656
         vertex 0.174584 -0.00098169 0.00456923
         vertex 0.174548 -0.00098169 0.00471152
      endloop
   endfacet
   facet normal -4.33778e-06 -1 1.10184e-06
      outer loop
         vertex 0.17459 -0.00098169 0.00515098
         vertex 0.174582 -0.00098169 0.00514089
         vertex 0.174719 -0.000981691 0.00503512
      endloop
   endfacet
   facet normal -4.33778e-06 -1 1.10184e-06
      outer loop
         vertex 0.174736 -0.000981691 0.00505687
         vertex 0.174751 -0.000981691 0.00508025
         vertex 0.174597 -0.00098169 0.00516183
      endloop
   endfacet
   facet normal -4.33778e-06 -1 1.10184e-06
      outer loop
         vertex 0.174751 -0.000981691 0.00508025
         vertex 0.174763 -0.000981691 0.00510502
         vertex 0.174602 -0.00098169 0.00517334
      endloop
   endfacet
   facet normal -4.33778e-06 -1 1.10184e-06
      outer loop
         vertex 0.174173 -0.000981689 0.00466166
         vertex 0.174316 -0.000981689 0.00473721
         vertex 0.174314 -0.000981689 0.00474086
      endloop
   endfacet
   facet normal -4.33778e-06 -1 1.10184e-06
      outer loop
         vertex 0.174184 -0.000981689 0.00464498
         vertex 0.174318 -0.000981689 0.00473376
         vertex 0.174316 -0.000981689 0.00473721
      endloop
   endfacet
   facet normal -4.33778e-06 -1 1.10184e-06
      outer loop
         vertex 0.174196 -0.000981689 0.00462953
         vertex 0.174321 -0.000981689 0.00473056
         vertex 0.174318 -0.000981689 0.00473376
      endloop
   endfacet
   facet normal -4.33778e-06 -1 1.10184e-06
      outer loop
         vertex 0.174211 -0.000981689 0.00461547
         vertex 0.174324 -0.000981689 0.00472764
         vertex 0.174321 -0.000981689 0.00473056
      endloop
   endfacet
   facet normal -4.33778e-06 -1 1.10184e-06
      outer loop
         vertex 0.174226 -0.000981689 0.00460295
         vertex 0.174327 -0.000981689 0.00472503
         vertex 0.174324 -0.000981689 0.00472764
      endloop
   endfacet
   facet normal -4.33778e-06 -1 1.10184e-06
      outer loop
         vertex 0.17433 -0.000981689 0.00472277
         vertex 0.174243 -0.000981689 0.00459212
         vertex 0.17426 -0.000981689 0.00458309
      endloop
   endfacet
   facet normal -4.33778e-06 -1 1.10184e-06
      outer loop
         vertex 0.174341 -0.000981689 0.00471831
         vertex 0.174337 -0.000981689 0.00471939
         vertex 0.174298 -0.000981689 0.00457082
      endloop
   endfacet
   facet normal -4.33778e-06 -1 1.10184e-06
      outer loop
         vertex 0.17445 -0.00098169 0.00470126
         vertex 0.174338 -0.000981689 0.00456666
         vertex 0.174533 -0.00098169 0.00456666
      endloop
   endfacet
   facet normal -4.33778e-06 -1 1.10184e-06
      outer loop
         vertex 0.174749 -0.000981691 0.00468017
         vertex 0.174603 -0.00098169 0.00476276
         vertex 0.174597 -0.00098169 0.00475081
      endloop
   endfacet
   facet normal -4.33778e-06 -1 1.10184e-06
      outer loop
         vertex 0.17477 -0.000981691 0.00472652
         vertex 0.174777 -0.000981691 0.00475117
         vertex 0.174611 -0.00098169 0.00478829
      endloop
   endfacet
   facet normal -4.33778e-06 -1 1.10184e-06
      outer loop
         vertex 0.174781 -0.000981691 0.00477642
         vertex 0.174614 -0.00098169 0.00480158
         vertex 0.174611 -0.00098169 0.00478829
      endloop
   endfacet
   facet normal -4.33778e-06 -1 1.10184e-06
      outer loop
         vertex 0.174574 -0.000981689 0.00547641
         vertex 0.174547 -0.000981689 0.00548111
         vertex 0.174522 -0.000981689 0.00534347
      endloop
   endfacet
   facet normal -4.33778e-06 -1 1.10184e-06
      outer loop
         vertex 0.174519 -0.000981689 0.00548292
         vertex 0.174497 -0.000981689 0.00548395
         vertex 0.174495 -0.000981689 0.0053479
      endloop
   endfacet
   facet normal -4.33778e-06 -1 1.10184e-06
      outer loop
         vertex 0.174497 -0.000981689 0.00548395
         vertex 0.174475 -0.000981689 0.00548276
         vertex 0.174482 -0.000981689 0.00534794
      endloop
   endfacet
   facet normal -4.33778e-06 -1 1.10184e-06
      outer loop
         vertex 0.1747 -0.00098169 0.00501522
         vertex 0.174719 -0.000981691 0.00503512
         vertex 0.174582 -0.00098169 0.00514089
      endloop
   endfacet
   facet normal -4.33778e-06 -1 1.10184e-06
      outer loop
         vertex 0.174602 -0.00098169 0.00517334
         vertex 0.174597 -0.00098169 0.00516183
         vertex 0.174751 -0.000981691 0.00508025
      endloop
   endfacet
   facet normal -4.33778e-06 -1 1.10184e-06
      outer loop
         vertex 0.174763 -0.000981691 0.00510502
         vertex 0.174773 -0.000981691 0.0051309
         vertex 0.174607 -0.00098169 0.00518538
      endloop
   endfacet
   facet normal -4.33778e-06 -1 1.10184e-06
      outer loop
         vertex 0.17478 -0.000981691 0.00515764
         vertex 0.17461 -0.00098169 0.00519783
         vertex 0.174607 -0.00098169 0.00518538
      endloop
   endfacet
   facet normal -4.33778e-06 -1 1.10184e-06
      outer loop
         vertex 0.174784 -0.000981691 0.00518495
         vertex 0.174612 -0.00098169 0.00521055
         vertex 0.17461 -0.00098169 0.00519783
      endloop
   endfacet
   facet normal -4.33778e-06 -1 1.10184e-06
      outer loop
         vertex 0.174152 -0.000981688 0.00471716
         vertex 0.174157 -0.000981688 0.00469795
         vertex 0.174313 -0.000981689 0.00474468
      endloop
   endfacet
   facet normal -4.33778e-06 -1 1.10184e-06
      outer loop
         vertex 0.174157 -0.000981688 0.00469795
         vertex 0.174164 -0.000981688 0.00467938
         vertex 0.174314 -0.000981689 0.00474086
      endloop
   endfacet
   facet normal -4.33778e-06 -1 1.10184e-06
      outer loop
         vertex 0.174316 -0.000981689 0.00473721
         vertex 0.174173 -0.000981689 0.00466166
         vertex 0.174184 -0.000981689 0.00464498
      endloop
   endfacet
   facet normal -4.33778e-06 -1 1.10184e-06
      outer loop
         vertex 0.174321 -0.000981689 0.00473056
         vertex 0.174196 -0.000981689 0.00462953
         vertex 0.174211 -0.000981689 0.00461547
      endloop
   endfacet
   facet normal -4.33778e-06 -1 1.10184e-06
      outer loop
         vertex 0.174327 -0.000981689 0.00472503
         vertex 0.174226 -0.000981689 0.00460295
         vertex 0.174243 -0.000981689 0.00459212
      endloop
   endfacet
   facet normal -4.33778e-06 -1 1.10184e-06
      outer loop
         vertex 0.174349 -0.000981689 0.00471742
         vertex 0.174345 -0.000981689 0.00471765
         vertex 0.174338 -0.000981689 0.00456666
      endloop
   endfacet
   facet normal -4.33778e-06 -1 1.10184e-06
      outer loop
         vertex 0.174735 -0.000981691 0.00465901
         vertex 0.174597 -0.00098169 0.00475081
         vertex 0.174589 -0.00098169 0.00473958
      endloop
   endfacet
   facet normal -4.33778e-06 -1 1.10184e-06
      outer loop
         vertex 0.174597 -0.00098169 0.00475081
         vertex 0.174735 -0.000981691 0.00465901
         vertex 0.174749 -0.000981691 0.00468017
      endloop
   endfacet
   facet normal -4.33778e-06 -1 1.10184e-06
      outer loop
         vertex 0.174761 -0.000981691 0.00470276
         vertex 0.17477 -0.000981691 0.00472652
         vertex 0.174608 -0.00098169 0.0047753
      endloop
   endfacet
   facet normal -4.33778e-06 -1 1.10184e-06
      outer loop
         vertex 0.174611 -0.00098169 0.00478829
         vertex 0.174777 -0.000981691 0.00475117
         vertex 0.174781 -0.000981691 0.00477642
      endloop
   endfacet
   facet normal -4.33778e-06 -1 1.10184e-06
      outer loop
         vertex 0.174679 -0.00098169 0.00499738
         vertex 0.174371 -0.000981689 0.00494165
         vertex 0.174488 -0.00098169 0.00494165
      endloop
   endfacet
   facet normal -4.33778e-06 -1 1.10184e-06
      outer loop
         vertex 0.174601 -0.00098169 0.00546886
         vertex 0.174535 -0.000981689 0.00533913
         vertex 0.174547 -0.000981689 0.00533345
      endloop
   endfacet
   facet normal -4.33778e-06 -1 1.10184e-06
      outer loop
         vertex 0.174535 -0.000981689 0.00533913
         vertex 0.174601 -0.00098169 0.00546886
         vertex 0.174574 -0.000981689 0.00547641
      endloop
   endfacet
   facet normal -4.33778e-06 -1 1.10184e-06
      outer loop
         vertex 0.174547 -0.000981689 0.00548111
         vertex 0.174519 -0.000981689 0.00548292
         vertex 0.174509 -0.000981689 0.0053464
      endloop
   endfacet
   facet normal -4.33778e-06 -1 1.10184e-06
      outer loop
         vertex 0.174482 -0.000981689 0.00534794
         vertex 0.174495 -0.000981689 0.0053479
         vertex 0.174497 -0.000981689 0.00548395
      endloop
   endfacet
   facet normal -4.33778e-06 -1 1.10184e-06
      outer loop
         vertex 0.174412 -0.000981689 0.00546611
         vertex 0.17447 -0.000981689 0.00534395
         vertex 0.174474 -0.000981689 0.00534569
      endloop
   endfacet
   facet normal -4.33778e-06 -1 1.10184e-06
      outer loop
         vertex 0.174679 -0.00098169 0.00499738
         vertex 0.174552 -0.00098169 0.00511631
         vertex 0.174541 -0.00098169 0.0051103
      endloop
   endfacet
   facet normal -4.33778e-06 -1 1.10184e-06
      outer loop
         vertex 0.174573 -0.00098169 0.00513169
         vertex 0.174563 -0.00098169 0.00512347
         vertex 0.174679 -0.00098169 0.00499738
      endloop
   endfacet
   facet normal -4.33778e-06 -1 1.10184e-06
      outer loop
         vertex 0.174607 -0.00098169 0.00518538
         vertex 0.174602 -0.00098169 0.00517334
         vertex 0.174763 -0.000981691 0.00510502
      endloop
   endfacet
   facet normal -4.33778e-06 -1 1.10184e-06
      outer loop
         vertex 0.17461 -0.00098169 0.00519783
         vertex 0.17478 -0.000981691 0.00515764
         vertex 0.174784 -0.000981691 0.00518495
      endloop
   endfacet
   facet normal -4.33778e-06 -1 1.10184e-06
      outer loop
         vertex 0.174148 -0.000981688 0.00475666
         vertex 0.174149 -0.000981688 0.0047368
         vertex 0.174312 -0.000981689 0.00475262
      endloop
   endfacet
   facet normal -4.33778e-06 -1 1.10184e-06
      outer loop
         vertex 0.174149 -0.000981688 0.0047368
         vertex 0.174152 -0.000981688 0.00471716
         vertex 0.174312 -0.000981689 0.00474861
      endloop
   endfacet
   facet normal -4.33778e-06 -1 1.10184e-06
      outer loop
         vertex 0.174314 -0.000981689 0.00474086
         vertex 0.174313 -0.000981689 0.00474468
         vertex 0.174157 -0.000981688 0.00469795
      endloop
   endfacet
   facet normal -4.33778e-06 -1 1.10184e-06
      outer loop
         vertex 0.174318 -0.000981689 0.00473376
         vertex 0.174184 -0.000981689 0.00464498
         vertex 0.174196 -0.000981689 0.00462953
      endloop
   endfacet
   facet normal -4.33778e-06 -1 1.10184e-06
      outer loop
         vertex 0.174334 -0.000981689 0.00472089
         vertex 0.17426 -0.000981689 0.00458309
         vertex 0.174279 -0.000981689 0.00457596
      endloop
   endfacet
   facet normal -4.33778e-06 -1 1.10184e-06
      outer loop
         vertex 0.174749 -0.000981691 0.00468017
         vertex 0.174761 -0.000981691 0.00470276
         vertex 0.174603 -0.00098169 0.00476276
      endloop
   endfacet
   facet normal -4.33778e-06 -1 1.10184e-06
      outer loop
         vertex 0.174611 -0.00098169 0.00478829
         vertex 0.174608 -0.00098169 0.0047753
         vertex 0.17477 -0.000981691 0.00472652
      endloop
   endfacet
   facet normal -4.33778e-06 -1 1.10184e-06
      outer loop
         vertex 0.174783 -0.000981691 0.00480197
         vertex 0.174781 -0.000981691 0.00482752
         vertex 0.174614 -0.00098169 0.00481503
      endloop
   endfacet
   facet normal -4.33778e-06 -1 1.10184e-06
      outer loop
         vertex 0.174679 -0.00098169 0.00499738
         vertex 0.174514 -0.00098169 0.00493888
         vertex 0.174527 -0.00098169 0.00493545
      endloop
   endfacet
   facet normal -4.33778e-06 -1 1.10184e-06
      outer loop
         vertex 0.174488 -0.00098169 0.00494165
         vertex 0.174501 -0.00098169 0.00494096
         vertex 0.174679 -0.00098169 0.00499738
      endloop
   endfacet
   facet normal -4.33778e-06 -1 1.10184e-06
      outer loop
         vertex 0.17475 -0.00098169 0.00534678
         vertex 0.174735 -0.00098169 0.0053704
         vertex 0.174595 -0.00098169 0.00528758
      endloop
   endfacet
   facet normal -4.33778e-06 -1 1.10184e-06
      outer loop
         vertex 0.174717 -0.00098169 0.00539231
         vertex 0.174587 -0.00098169 0.00529874
         vertex 0.174595 -0.00098169 0.00528758
      endloop
   endfacet
   facet normal -4.33778e-06 -1 1.10184e-06
      outer loop
         vertex 0.174697 -0.00098169 0.00541229
         vertex 0.174579 -0.00098169 0.00530902
         vertex 0.174587 -0.00098169 0.00529874
      endloop
   endfacet
   facet normal -4.33778e-06 -1 1.10184e-06
      outer loop
         vertex 0.174676 -0.00098169 0.00543011
         vertex 0.174569 -0.00098169 0.0053183
         vertex 0.174579 -0.00098169 0.00530902
      endloop
   endfacet
   facet normal -4.33778e-06 -1 1.10184e-06
      outer loop
         vertex 0.174652 -0.00098169 0.00544559
         vertex 0.174558 -0.000981689 0.00532648
         vertex 0.174569 -0.00098169 0.0053183
      endloop
   endfacet
   facet normal -4.33778e-06 -1 1.10184e-06
      outer loop
         vertex 0.174627 -0.00098169 0.00545855
         vertex 0.174547 -0.000981689 0.00533345
         vertex 0.174558 -0.000981689 0.00532648
      endloop
   endfacet
   facet normal -4.33778e-06 -1 1.10184e-06
      outer loop
         vertex 0.174522 -0.000981689 0.00534347
         vertex 0.174535 -0.000981689 0.00533913
         vertex 0.174574 -0.000981689 0.00547641
      endloop
   endfacet
   facet normal -4.33778e-06 -1 1.10184e-06
      outer loop
         vertex 0.174495 -0.000981689 0.0053479
         vertex 0.174509 -0.000981689 0.0053464
         vertex 0.174519 -0.000981689 0.00548292
      endloop
   endfacet
   facet normal -4.33778e-06 -1 1.10184e-06
      outer loop
         vertex 0.174474 -0.000981689 0.00534569
         vertex 0.174432 -0.000981689 0.0054738
         vertex 0.174412 -0.000981689 0.00546611
      endloop
   endfacet
   facet normal -4.33778e-06 -1 1.10184e-06
      outer loop
         vertex 0.174392 -0.000981689 0.00545639
         vertex 0.174466 -0.000981689 0.00534183
         vertex 0.17447 -0.000981689 0.00534395
      endloop
   endfacet
   facet normal -4.33778e-06 -1 1.10184e-06
      outer loop
         vertex 0.174392 -0.000981689 0.00545639
         vertex 0.174374 -0.000981689 0.00544474
         vertex 0.174463 -0.000981689 0.00533935
      endloop
   endfacet
   facet normal -4.33778e-06 -1 1.10184e-06
      outer loop
         vertex 0.174374 -0.000981689 0.00544474
         vertex 0.174356 -0.000981688 0.00543127
         vertex 0.17446 -0.000981689 0.00533654
      endloop
   endfacet
   facet normal -4.33778e-06 -1 1.10184e-06
      outer loop
         vertex 0.174356 -0.000981688 0.00543127
         vertex 0.174341 -0.000981688 0.00541612
         vertex 0.174457 -0.000981689 0.00533342
      endloop
   endfacet
   facet normal -4.33778e-06 -1 1.10184e-06
      outer loop
         vertex 0.174326 -0.000981688 0.00539945
         vertex 0.174452 -0.000981689 0.0053264
         vertex 0.174455 -0.000981689 0.00533003
      endloop
   endfacet
   facet normal -4.33778e-06 -1 1.10184e-06
      outer loop
         vertex 0.174314 -0.000981688 0.00538143
         vertex 0.174451 -0.000981689 0.00532258
         vertex 0.174452 -0.000981689 0.0053264
      endloop
   endfacet
   facet normal -4.33778e-06 -1 1.10184e-06
      outer loop
         vertex 0.174563 -0.00098169 0.00512347
         vertex 0.174552 -0.00098169 0.00511631
         vertex 0.174679 -0.00098169 0.00499738
      endloop
   endfacet
   facet normal -4.33778e-06 -1 1.10184e-06
      outer loop
         vertex 0.174607 -0.00098169 0.00518538
         vertex 0.174773 -0.000981691 0.0051309
         vertex 0.17478 -0.000981691 0.00515764
      endloop
   endfacet
   facet normal -4.33778e-06 -1 1.10184e-06
      outer loop
         vertex 0.174312 -0.000981689 0.00475666
         vertex 0.174148 -0.000981688 0.00477281
         vertex 0.174148 -0.000981688 0.00475666
      endloop
   endfacet
   facet normal -4.33778e-06 -1 1.10184e-06
      outer loop
         vertex 0.174313 -0.000981689 0.00474468
         vertex 0.174312 -0.000981689 0.00474861
         vertex 0.174152 -0.000981688 0.00471716
      endloop
   endfacet
   facet normal -4.33778e-06 -1 1.10184e-06
      outer loop
         vertex 0.174324 -0.000981689 0.00472764
         vertex 0.174211 -0.000981689 0.00461547
         vertex 0.174226 -0.000981689 0.00460295
      endloop
   endfacet
   facet normal -4.33778e-06 -1 1.10184e-06
      outer loop
         vertex 0.174608 -0.00098169 0.0047753
         vertex 0.174603 -0.00098169 0.00476276
         vertex 0.174761 -0.000981691 0.00470276
      endloop
   endfacet
   facet normal -4.33778e-06 -1 1.10184e-06
      outer loop
         vertex 0.174614 -0.00098169 0.00480158
         vertex 0.174781 -0.000981691 0.00477642
         vertex 0.174783 -0.000981691 0.00480197
      endloop
   endfacet
   facet normal -4.33778e-06 -1 1.10184e-06
      outer loop
         vertex 0.174718 -0.000981691 0.00496438
         vertex 0.174699 -0.00098169 0.00498194
         vertex 0.17459 -0.00098169 0.00488945
      endloop
   endfacet
   facet normal -4.33778e-06 -1 1.10184e-06
      outer loop
         vertex 0.17459 -0.00098169 0.00488945
         vertex 0.174699 -0.00098169 0.00498194
         vertex 0.174679 -0.00098169 0.00499738
      endloop
   endfacet
   facet normal -4.33778e-06 -1 1.10184e-06
      outer loop
         vertex 0.174679 -0.00098169 0.00499738
         vertex 0.174562 -0.00098169 0.00491746
         vertex 0.174572 -0.00098169 0.00490912
      endloop
   endfacet
   facet normal -4.33778e-06 -1 1.10184e-06
      outer loop
         vertex 0.174679 -0.00098169 0.00499738
         vertex 0.174539 -0.00098169 0.0049307
         vertex 0.174551 -0.00098169 0.00492468
      endloop
   endfacet
   facet normal -4.33778e-06 -1 1.10184e-06
      outer loop
         vertex 0.174501 -0.00098169 0.00494096
         vertex 0.174514 -0.00098169 0.00493888
         vertex 0.174679 -0.00098169 0.00499738
      endloop
   endfacet
   facet normal -4.33778e-06 -1 1.10184e-06
      outer loop
         vertex 0.17478 -0.000981691 0.00526833
         vertex 0.174773 -0.00098169 0.00529547
         vertex 0.17461 -0.00098169 0.00525016
      endloop
   endfacet
   facet normal -4.33778e-06 -1 1.10184e-06
      outer loop
         vertex 0.174773 -0.00098169 0.00529547
         vertex 0.174763 -0.00098169 0.00532171
         vertex 0.174606 -0.00098169 0.00526315
      endloop
   endfacet
   facet normal -4.33778e-06 -1 1.10184e-06
      outer loop
         vertex 0.174595 -0.00098169 0.00528758
         vertex 0.174735 -0.00098169 0.0053704
         vertex 0.174717 -0.00098169 0.00539231
      endloop
   endfacet
   facet normal -4.33778e-06 -1 1.10184e-06
      outer loop
         vertex 0.174579 -0.00098169 0.00530902
         vertex 0.174697 -0.00098169 0.00541229
         vertex 0.174676 -0.00098169 0.00543011
      endloop
   endfacet
   facet normal -4.33778e-06 -1 1.10184e-06
      outer loop
         vertex 0.174558 -0.000981689 0.00532648
         vertex 0.174652 -0.00098169 0.00544559
         vertex 0.174627 -0.00098169 0.00545855
      endloop
   endfacet
   facet normal -4.33778e-06 -1 1.10184e-06
      outer loop
         vertex 0.174509 -0.000981689 0.0053464
         vertex 0.174522 -0.000981689 0.00534347
         vertex 0.174547 -0.000981689 0.00548111
      endloop
   endfacet
   facet normal -4.33778e-06 -1 1.10184e-06
      outer loop
         vertex 0.17447 -0.000981689 0.00534395
         vertex 0.174412 -0.000981689 0.00546611
         vertex 0.174392 -0.000981689 0.00545639
      endloop
   endfacet
   facet normal -4.33778e-06 -1 1.10184e-06
      outer loop
         vertex 0.17446 -0.000981689 0.00533654
         vertex 0.174463 -0.000981689 0.00533935
         vertex 0.174374 -0.000981689 0.00544474
      endloop
   endfacet
   facet normal -4.33778e-06 -1 1.10184e-06
      outer loop
         vertex 0.174341 -0.000981688 0.00541612
         vertex 0.174455 -0.000981689 0.00533003
         vertex 0.174457 -0.000981689 0.00533342
      endloop
   endfacet
   facet normal -4.33778e-06 -1 1.10184e-06
      outer loop
         vertex 0.174452 -0.000981689 0.0053264
         vertex 0.174326 -0.000981688 0.00539945
         vertex 0.174314 -0.000981688 0.00538143
      endloop
   endfacet
   facet normal -4.33778e-06 -1 1.10184e-06
      outer loop
         vertex 0.174289 -0.000981688 0.0053212
         vertex 0.174154 -0.000981688 0.00480465
         vertex 0.174382 -0.000981689 0.0050968
      endloop
   endfacet
   facet normal -4.33778e-06 -1 1.10184e-06
      outer loop
         vertex 0.174449 -0.000981689 0.0053186
         vertex 0.174304 -0.000981688 0.00536225
         vertex 0.174295 -0.000981688 0.00534211
      endloop
   endfacet
   facet normal -4.33778e-06 -1 1.10184e-06
      outer loop
         vertex 0.174597 -0.00098169 0.00516183
         vertex 0.17459 -0.00098169 0.00515098
         vertex 0.174736 -0.000981691 0.00505687
      endloop
   endfacet
   facet normal -4.33778e-06 -1 1.10184e-06
      outer loop
         vertex 0.174786 -0.000981691 0.00521255
         vertex 0.174613 -0.00098169 0.00522341
         vertex 0.174612 -0.00098169 0.00521055
      endloop
   endfacet
   facet normal -4.33778e-06 -1 1.10184e-06
      outer loop
         vertex 0.174312 -0.000981689 0.00475666
         vertex 0.174371 -0.000981689 0.00494165
         vertex 0.174154 -0.000981688 0.00480465
      endloop
   endfacet
   facet normal -4.33778e-06 -1 1.10184e-06
      outer loop
         vertex 0.174312 -0.000981689 0.00475666
         vertex 0.17415 -0.000981688 0.00478885
         vertex 0.174148 -0.000981688 0.00477281
      endloop
   endfacet
   facet normal -4.33778e-06 -1 1.10184e-06
      outer loop
         vertex 0.174314 -0.000981689 0.00474086
         vertex 0.174164 -0.000981688 0.00467938
         vertex 0.174173 -0.000981689 0.00466166
      endloop
   endfacet
   facet normal -4.33778e-06 -1 1.10184e-06
      outer loop
         vertex 0.174679 -0.000981691 0.00460655
         vertex 0.174581 -0.00098169 0.00472921
         vertex 0.174571 -0.00098169 0.0047198
      endloop
   endfacet
   facet normal -4.33778e-06 -1 1.10184e-06
      outer loop
         vertex 0.174589 -0.00098169 0.00473958
         vertex 0.174581 -0.00098169 0.00472921
         vertex 0.174699 -0.000981691 0.00462198
      endloop
   endfacet
   facet normal -4.33778e-06 -1 1.10184e-06
      outer loop
         vertex 0.174614 -0.00098169 0.00481503
         vertex 0.174614 -0.00098169 0.00480158
         vertex 0.174783 -0.000981691 0.00480197
      endloop
   endfacet
   facet normal -4.33778e-06 -1 1.10184e-06
      outer loop
         vertex 0.174603 -0.00098169 0.00486653
         vertex 0.174749 -0.000981691 0.00492376
         vertex 0.174735 -0.000981691 0.00494491
      endloop
   endfacet
   facet normal -4.33778e-06 -1 1.10184e-06
      outer loop
         vertex 0.174597 -0.00098169 0.00487834
         vertex 0.174735 -0.000981691 0.00494491
         vertex 0.174718 -0.000981691 0.00496438
      endloop
   endfacet
   facet normal -4.33778e-06 -1 1.10184e-06
      outer loop
         vertex 0.174572 -0.00098169 0.00490912
         vertex 0.174582 -0.00098169 0.00489975
         vertex 0.174679 -0.00098169 0.00499738
      endloop
   endfacet
   facet normal -4.33778e-06 -1 1.10184e-06
      outer loop
         vertex 0.174527 -0.00098169 0.00493545
         vertex 0.174539 -0.00098169 0.0049307
         vertex 0.174679 -0.00098169 0.00499738
      endloop
   endfacet
   facet normal -4.33778e-06 -1 1.10184e-06
      outer loop
         vertex 0.174606 -0.00098169 0.00526315
         vertex 0.17461 -0.00098169 0.00525016
         vertex 0.174773 -0.00098169 0.00529547
      endloop
   endfacet
   facet normal -4.33778e-06 -1 1.10184e-06
      outer loop
         vertex 0.174763 -0.00098169 0.00532171
         vertex 0.17475 -0.00098169 0.00534678
         vertex 0.174601 -0.00098169 0.00527567
      endloop
   endfacet
   facet normal -4.33778e-06 -1 1.10184e-06
      outer loop
         vertex 0.174587 -0.00098169 0.00529874
         vertex 0.174717 -0.00098169 0.00539231
         vertex 0.174697 -0.00098169 0.00541229
      endloop
   endfacet
   facet normal -4.33778e-06 -1 1.10184e-06
      outer loop
         vertex 0.174547 -0.000981689 0.00533345
         vertex 0.174627 -0.00098169 0.00545855
         vertex 0.174601 -0.00098169 0.00546886
      endloop
   endfacet
   facet normal -4.33778e-06 -1 1.10184e-06
      outer loop
         vertex 0.174463 -0.000981689 0.00533935
         vertex 0.174466 -0.000981689 0.00534183
         vertex 0.174392 -0.000981689 0.00545639
      endloop
   endfacet
   facet normal -4.33778e-06 -1 1.10184e-06
      outer loop
         vertex 0.174455 -0.000981689 0.00533003
         vertex 0.174341 -0.000981688 0.00541612
         vertex 0.174326 -0.000981688 0.00539945
      endloop
   endfacet
   facet normal -4.33778e-06 -1 1.10184e-06
      outer loop
         vertex 0.174449 -0.000981689 0.0053186
         vertex 0.174451 -0.000981689 0.00532258
         vertex 0.174314 -0.000981688 0.00538143
      endloop
   endfacet
   facet normal -4.33778e-06 -1 1.10184e-06
      outer loop
         vertex 0.174295 -0.000981688 0.00534211
         vertex 0.174289 -0.000981688 0.0053212
         vertex 0.174449 -0.000981689 0.0053186
      endloop
   endfacet
   facet normal -4.33778e-06 -1 1.10184e-06
      outer loop
         vertex 0.174612 -0.00098169 0.00521055
         vertex 0.174784 -0.000981691 0.00518495
         vertex 0.174786 -0.000981691 0.00521255
      endloop
   endfacet
   facet normal -4.33778e-06 -1 1.10184e-06
      outer loop
         vertex 0.174154 -0.000981688 0.00480465
         vertex 0.17415 -0.000981688 0.00478885
         vertex 0.174312 -0.000981689 0.00475666
      endloop
   endfacet
   facet normal -4.33778e-06 -1 1.10184e-06
      outer loop
         vertex 0.174312 -0.000981689 0.00474861
         vertex 0.174312 -0.000981689 0.00475262
         vertex 0.174149 -0.000981688 0.0047368
      endloop
   endfacet
   facet normal -4.33778e-06 -1 1.10184e-06
      outer loop
         vertex 0.174571 -0.00098169 0.0047198
         vertex 0.174657 -0.000981691 0.00459341
         vertex 0.174679 -0.000981691 0.00460655
      endloop
   endfacet
   facet normal -4.33778e-06 -1 1.10184e-06
      outer loop
         vertex 0.174589 -0.00098169 0.00473958
         vertex 0.174718 -0.000981691 0.00463954
         vertex 0.174735 -0.000981691 0.00465901
      endloop
   endfacet
   facet normal -4.33778e-06 -1 1.10184e-06
      outer loop
         vertex 0.174612 -0.00098169 0.00484135
         vertex 0.17477 -0.000981691 0.00487741
         vertex 0.174761 -0.000981691 0.00490117
      endloop
   endfacet
   facet normal -4.33778e-06 -1 1.10184e-06
      outer loop
         vertex 0.174608 -0.00098169 0.00485416
         vertex 0.174761 -0.000981691 0.00490117
         vertex 0.174749 -0.000981691 0.00492376
      endloop
   endfacet
   facet normal -4.33778e-06 -1 1.10184e-06
      outer loop
         vertex 0.17459 -0.00098169 0.00488945
         vertex 0.174597 -0.00098169 0.00487834
         vertex 0.174718 -0.000981691 0.00496438
      endloop
   endfacet
   facet normal -4.33778e-06 -1 1.10184e-06
      outer loop
         vertex 0.174551 -0.00098169 0.00492468
         vertex 0.174562 -0.00098169 0.00491746
         vertex 0.174679 -0.00098169 0.00499738
      endloop
   endfacet
   facet normal -4.33778e-06 -1 1.10184e-06
      outer loop
         vertex 0.174784 -0.000981691 0.00524059
         vertex 0.17478 -0.000981691 0.00526833
         vertex 0.174612 -0.00098169 0.00523687
      endloop
   endfacet
   facet normal -4.33778e-06 -1 1.10184e-06
      outer loop
         vertex 0.174601 -0.00098169 0.00527567
         vertex 0.174606 -0.00098169 0.00526315
         vertex 0.174763 -0.00098169 0.00532171
      endloop
   endfacet
   facet normal -4.33778e-06 -1 1.10184e-06
      outer loop
         vertex 0.174569 -0.00098169 0.0053183
         vertex 0.174676 -0.00098169 0.00543011
         vertex 0.174652 -0.00098169 0.00544559
      endloop
   endfacet
   facet normal -4.33778e-06 -1 1.10184e-06
      outer loop
         vertex 0.174453 -0.000981689 0.00547937
         vertex 0.174432 -0.000981689 0.0054738
         vertex 0.174478 -0.000981689 0.00534702
      endloop
   endfacet
   facet normal -4.33778e-06 -1 1.10184e-06
      outer loop
         vertex 0.174457 -0.000981689 0.00533342
         vertex 0.17446 -0.000981689 0.00533654
         vertex 0.174356 -0.000981688 0.00543127
      endloop
   endfacet
   facet normal -4.33778e-06 -1 1.10184e-06
      outer loop
         vertex 0.174382 -0.000981689 0.0050968
         vertex 0.174449 -0.000981689 0.0053186
         vertex 0.174289 -0.000981688 0.0053212
      endloop
   endfacet
   facet normal -4.33778e-06 -1 1.10184e-06
      outer loop
         vertex 0.174371 -0.000981689 0.00494165
         vertex 0.174679 -0.00098169 0.00499738
         vertex 0.174516 -0.00098169 0.00510194
      endloop
   endfacet
   facet normal -4.33778e-06 -1 1.10184e-06
      outer loop
         vertex 0.174541 -0.00098169 0.0051103
         vertex 0.174529 -0.00098169 0.00510549
         vertex 0.174679 -0.00098169 0.00499738
      endloop
   endfacet
   facet normal -4.33778e-06 -1 1.10184e-06
      outer loop
         vertex 0.174312 -0.000981689 0.00475262
         vertex 0.174312 -0.000981689 0.00475666
         vertex 0.174148 -0.000981688 0.00475666
      endloop
   endfacet
   facet normal -4.33778e-06 -1 1.10184e-06
      outer loop
         vertex 0.174699 -0.000981691 0.00462198
         vertex 0.174718 -0.000981691 0.00463954
         vertex 0.174589 -0.00098169 0.00473958
      endloop
   endfacet
   facet normal -4.33778e-06 -1 1.10184e-06
      outer loop
         vertex 0.174781 -0.000981691 0.00482752
         vertex 0.174777 -0.000981691 0.00485276
         vertex 0.174614 -0.00098169 0.00482826
      endloop
   endfacet
   facet normal -4.33778e-06 -1 1.10184e-06
      outer loop
         vertex 0.174777 -0.000981691 0.00485276
         vertex 0.17477 -0.000981691 0.00487741
         vertex 0.174612 -0.00098169 0.00484135
      endloop
   endfacet
   facet normal -4.33778e-06 -1 1.10184e-06
      outer loop
         vertex 0.174749 -0.000981691 0.00492376
         vertex 0.174603 -0.00098169 0.00486653
         vertex 0.174608 -0.00098169 0.00485416
      endloop
   endfacet
   facet normal -4.33778e-06 -1 1.10184e-06
      outer loop
         vertex 0.174679 -0.00098169 0.00499738
         vertex 0.174582 -0.00098169 0.00489975
         vertex 0.17459 -0.00098169 0.00488945
      endloop
   endfacet
   facet normal -4.33778e-06 -1 1.10184e-06
      outer loop
         vertex 0.174613 -0.00098169 0.00522341
         vertex 0.174786 -0.000981691 0.00521255
         vertex 0.174784 -0.000981691 0.00524059
      endloop
   endfacet
   facet normal -4.33778e-06 -1 1.10184e-06
      outer loop
         vertex 0.174595 -0.00098169 0.00528758
         vertex 0.174601 -0.00098169 0.00527567
         vertex 0.17475 -0.00098169 0.00534678
      endloop
   endfacet
   facet normal -4.33778e-06 -1 1.10184e-06
      outer loop
         vertex 0.174482 -0.000981689 0.00534794
         vertex 0.174475 -0.000981689 0.00548276
         vertex 0.174453 -0.000981689 0.00547937
      endloop
   endfacet
   facet normal -4.33778e-06 -1 1.10184e-06
      outer loop
         vertex 0.174314 -0.000981688 0.00538143
         vertex 0.174304 -0.000981688 0.00536225
         vertex 0.174449 -0.000981689 0.0053186
      endloop
   endfacet
   facet normal -4.33778e-06 -1 1.10184e-06
      outer loop
         vertex 0.174529 -0.00098169 0.00510549
         vertex 0.174516 -0.00098169 0.00510194
         vertex 0.174679 -0.00098169 0.00499738
      endloop
   endfacet
   facet normal -4.33778e-06 -1 1.10184e-06
      outer loop
         vertex 0.174679 -0.000981691 0.00460655
         vertex 0.174699 -0.000981691 0.00462198
         vertex 0.174581 -0.00098169 0.00472921
      endloop
   endfacet
   facet normal -4.33778e-06 -1 1.10184e-06
      outer loop
         vertex 0.174612 -0.00098169 0.00484135
         vertex 0.174614 -0.00098169 0.00482826
         vertex 0.174777 -0.000981691 0.00485276
      endloop
   endfacet
   facet normal -4.33778e-06 -1 1.10184e-06
      outer loop
         vertex 0.174735 -0.000981691 0.00494491
         vertex 0.174597 -0.00098169 0.00487834
         vertex 0.174603 -0.00098169 0.00486653
      endloop
   endfacet
   facet normal -4.33778e-06 -1 1.10184e-06
      outer loop
         vertex 0.17461 -0.00098169 0.00525016
         vertex 0.174612 -0.00098169 0.00523687
         vertex 0.17478 -0.000981691 0.00526833
      endloop
   endfacet
   facet normal -4.33778e-06 -1 1.10184e-06
      outer loop
         vertex 0.174474 -0.000981689 0.00534569
         vertex 0.174478 -0.000981689 0.00534702
         vertex 0.174432 -0.000981689 0.0054738
      endloop
   endfacet
   facet normal -4.33778e-06 -1 1.10184e-06
      outer loop
         vertex 0.174371 -0.000981689 0.00494165
         vertex 0.174382 -0.000981689 0.0050968
         vertex 0.174154 -0.000981688 0.00480465
      endloop
   endfacet
   facet normal -4.33778e-06 -1 1.10184e-06
      outer loop
         vertex 0.174761 -0.000981691 0.00490117
         vertex 0.174608 -0.00098169 0.00485416
         vertex 0.174612 -0.00098169 0.00484135
      endloop
   endfacet
   facet normal -4.33778e-06 -1 1.10184e-06
      outer loop
         vertex 0.174478 -0.000981689 0.00534702
         vertex 0.174482 -0.000981689 0.00534794
         vertex 0.174453 -0.000981689 0.00547937
      endloop
   endfacet
   facet normal -4.33778e-06 -1 1.10184e-06
      outer loop
         vertex 0.174614 -0.00098169 0.00482826
         vertex 0.174614 -0.00098169 0.00481503
         vertex 0.174781 -0.000981691 0.00482752
      endloop
   endfacet
   facet normal -4.33778e-06 -1 1.10184e-06
      outer loop
         vertex 0.174516 -0.00098169 0.00510194
         vertex 0.174382 -0.000981689 0.0050968
         vertex 0.174371 -0.000981689 0.00494165
      endloop
   endfacet
   facet normal -4.33778e-06 -1 1.10184e-06
      outer loop
         vertex 0.174612 -0.00098169 0.00523687
         vertex 0.174613 -0.00098169 0.00522341
         vertex 0.174784 -0.000981691 0.00524059
      endloop
   endfacet
endsolid 1111. Units = meters