solid 1111. STL generated by ONSHAPE BY PTC INC, 1.216. Units = meters
   facet normal -4.33778e-06 -1 1.10184e-06
      outer loop
         vertex 0.171944 -0.000981678 -0.00523811
         vertex 0.17222 -0.00098168 -0.00522627
         vertex 0.172209 -0.000981679 -0.00517696
      endloop
   endfacet
   facet normal -4.33778e-06 -1 1.10184e-06
      outer loop
         vertex 0.172209 -0.000981679 -0.00517696
         vertex 0.171941 -0.000981678 -0.00517083
         vertex 0.171944 -0.000981678 -0.00523811
      endloop
   endfacet
   facet normal -4.33778e-06 -1 1.10184e-06
      outer loop
         vertex 0.172025 -0.000981679 -0.00549121
         vertex 0.172283 -0.00098168 -0.00536383
         vertex 0.172257 -0.00098168 -0.00532019
      endloop
   endfacet
   facet normal -4.33778e-06 -1 1.10184e-06
      outer loop
         vertex 0.172198 -0.00098168 -0.00568947
         vertex 0.172384 -0.000981681 -0.00547616
         vertex 0.172347 -0.00098168 -0.00544222
      endloop
   endfacet
   facet normal -4.33778e-06 -1 1.10184e-06
      outer loop
         vertex 0.172253 -0.00098168 -0.00572684
         vertex 0.172425 -0.000981681 -0.00550611
         vertex 0.172384 -0.000981681 -0.00547616
      endloop
   endfacet
   facet normal -4.33778e-06 -1 1.10184e-06
      outer loop
         vertex 0.172726 -0.000981682 -0.00581943
         vertex 0.172712 -0.000981682 -0.00558795
         vertex 0.172662 -0.000981682 -0.0055868
      endloop
   endfacet
   facet normal -4.33778e-06 -1 1.10184e-06
      outer loop
         vertex 0.172209 -0.000981679 -0.00517696
         vertex 0.171944 -0.000981678 -0.0051049
         vertex 0.171941 -0.000981678 -0.00517083
      endloop
   endfacet
   facet normal -4.33778e-06 -1 1.10184e-06
      outer loop
         vertex 0.172237 -0.00098168 -0.00527417
         vertex 0.17222 -0.00098168 -0.00522627
         vertex 0.171954 -0.000981678 -0.00530472
      endloop
   endfacet
   facet normal -4.33778e-06 -1 1.10184e-06
      outer loop
         vertex 0.172257 -0.00098168 -0.00532019
         vertex 0.171995 -0.000981679 -0.00543197
         vertex 0.172025 -0.000981679 -0.00549121
      endloop
   endfacet
   facet normal -4.33778e-06 -1 1.10184e-06
      outer loop
         vertex 0.17206 -0.000981679 -0.00554712
         vertex 0.172101 -0.000981679 -0.00559915
         vertex 0.172313 -0.00098168 -0.00540465
      endloop
   endfacet
   facet normal -4.33778e-06 -1 1.10184e-06
      outer loop
         vertex 0.172101 -0.000981679 -0.00559915
         vertex 0.172148 -0.00098168 -0.00564676
         vertex 0.172347 -0.00098168 -0.00544222
      endloop
   endfacet
   facet normal -4.33778e-06 -1 1.10184e-06
      outer loop
         vertex 0.172384 -0.000981681 -0.00547616
         vertex 0.172198 -0.00098168 -0.00568947
         vertex 0.172253 -0.00098168 -0.00572684
      endloop
   endfacet
   facet normal -4.33778e-06 -1 1.10184e-06
      outer loop
         vertex 0.172489 -0.000981681 -0.00580622
         vertex 0.172562 -0.000981681 -0.00556916
         vertex 0.172514 -0.000981681 -0.00555285
      endloop
   endfacet
   facet normal -4.33778e-06 -1 1.10184e-06
      outer loop
         vertex 0.172489 -0.000981681 -0.00580622
         vertex 0.172607 -0.000981682 -0.00581804
         vertex 0.172612 -0.000981682 -0.00558051
      endloop
   endfacet
   facet normal -4.33778e-06 -1 1.10184e-06
      outer loop
         vertex 0.172662 -0.000981682 -0.0055868
         vertex 0.172607 -0.000981682 -0.00581804
         vertex 0.172726 -0.000981682 -0.00581943
      endloop
   endfacet
   facet normal -4.33778e-06 -1 1.10184e-06
      outer loop
         vertex 0.172859 -0.000981681 -0.00442806
         vertex 0.172834 -0.000981682 -0.00469679
         vertex 0.172925 -0.000981682 -0.00469844
      endloop
   endfacet
   facet normal -4.33778e-06 -1 1.10184e-06
      outer loop
         vertex 0.172751 -0.000981681 -0.00443568
         vertex 0.172745 -0.000981681 -0.00470495
         vertex 0.172834 -0.000981682 -0.00469679
      endloop
   endfacet
   facet normal -4.33778e-06 -1 1.10184e-06
      outer loop
         vertex 0.172644 -0.000981681 -0.00445398
         vertex 0.17254 -0.00098168 -0.0044828
         vertex 0.172656 -0.000981681 -0.00472281
      endloop
   endfacet
   facet normal -4.33778e-06 -1 1.10184e-06
      outer loop
         vertex 0.171954 -0.000981678 -0.00530472
         vertex 0.171971 -0.000981679 -0.00537002
         vertex 0.172237 -0.00098168 -0.00527417
      endloop
   endfacet
   facet normal -4.33778e-06 -1 1.10184e-06
      outer loop
         vertex 0.171995 -0.000981679 -0.00543197
         vertex 0.172257 -0.00098168 -0.00532019
         vertex 0.172237 -0.00098168 -0.00527417
      endloop
   endfacet
   facet normal -4.33778e-06 -1 1.10184e-06
      outer loop
         vertex 0.172313 -0.00098168 -0.00540465
         vertex 0.172283 -0.00098168 -0.00536383
         vertex 0.17206 -0.000981679 -0.00554712
      endloop
   endfacet
   facet normal -4.33778e-06 -1 1.10184e-06
      outer loop
         vertex 0.172347 -0.00098168 -0.00544222
         vertex 0.172148 -0.00098168 -0.00564676
         vertex 0.172198 -0.00098168 -0.00568947
      endloop
   endfacet
   facet normal -4.33778e-06 -1 1.10184e-06
      outer loop
         vertex 0.172312 -0.000981681 -0.00575848
         vertex 0.172373 -0.000981681 -0.00578408
         vertex 0.172469 -0.000981681 -0.00553176
      endloop
   endfacet
   facet normal -4.33778e-06 -1 1.10184e-06
      outer loop
         vertex 0.172514 -0.000981681 -0.00555285
         vertex 0.172373 -0.000981681 -0.00578408
         vertex 0.172489 -0.000981681 -0.00580622
      endloop
   endfacet
   facet normal -4.33778e-06 -1 1.10184e-06
      outer loop
         vertex 0.172662 -0.000981682 -0.0055868
         vertex 0.172612 -0.000981682 -0.00558051
         vertex 0.172607 -0.000981682 -0.00581804
      endloop
   endfacet
   facet normal -4.33778e-06 -1 1.10184e-06
      outer loop
         vertex 0.172834 -0.000981682 -0.00469679
         vertex 0.172859 -0.000981681 -0.00442806
         vertex 0.172751 -0.000981681 -0.00443568
      endloop
   endfacet
   facet normal -4.33778e-06 -1 1.10184e-06
      outer loop
         vertex 0.172745 -0.000981681 -0.00470495
         vertex 0.172751 -0.000981681 -0.00443568
         vertex 0.172644 -0.000981681 -0.00445398
      endloop
   endfacet
   facet normal -4.33778e-06 -1 1.10184e-06
      outer loop
         vertex 0.17254 -0.00098168 -0.0044828
         vertex 0.172439 -0.00098168 -0.00452183
         vertex 0.17257 -0.000981681 -0.00475018
      endloop
   endfacet
   facet normal -4.33778e-06 -1 1.10184e-06
      outer loop
         vertex 0.172439 -0.00098168 -0.00452183
         vertex 0.172343 -0.000981679 -0.00457071
         vertex 0.172488 -0.00098168 -0.00478673
      endloop
   endfacet
   facet normal -4.33778e-06 -1 1.10184e-06
      outer loop
         vertex 0.17227 -0.000981679 -0.00494659
         vertex 0.17209 -0.000981678 -0.00477101
         vertex 0.17202 -0.000981678 -0.00485347
      endloop
   endfacet
   facet normal -4.33778e-06 -1 1.10184e-06
      outer loop
         vertex 0.172167 -0.000981679 -0.00469592
         vertex 0.17209 -0.000981678 -0.00477101
         vertex 0.17227 -0.000981679 -0.00494659
      endloop
   endfacet
   facet normal -4.33778e-06 -1 1.10184e-06
      outer loop
         vertex 0.172237 -0.00098168 -0.00527417
         vertex 0.171971 -0.000981679 -0.00537002
         vertex 0.171995 -0.000981679 -0.00543197
      endloop
   endfacet
   facet normal -4.33778e-06 -1 1.10184e-06
      outer loop
         vertex 0.172347 -0.00098168 -0.00544222
         vertex 0.172313 -0.00098168 -0.00540465
         vertex 0.172101 -0.000981679 -0.00559915
      endloop
   endfacet
   facet normal -4.33778e-06 -1 1.10184e-06
      outer loop
         vertex 0.172425 -0.000981681 -0.00550611
         vertex 0.172253 -0.00098168 -0.00572684
         vertex 0.172312 -0.000981681 -0.00575848
      endloop
   endfacet
   facet normal -4.33778e-06 -1 1.10184e-06
      outer loop
         vertex 0.172612 -0.000981682 -0.00558051
         vertex 0.172562 -0.000981681 -0.00556916
         vertex 0.172489 -0.000981681 -0.00580622
      endloop
   endfacet
   facet normal -4.33778e-06 -1 1.10184e-06
      outer loop
         vertex 0.172656 -0.000981681 -0.00472281
         vertex 0.172745 -0.000981681 -0.00470495
         vertex 0.172644 -0.000981681 -0.00445398
      endloop
   endfacet
   facet normal -4.33778e-06 -1 1.10184e-06
      outer loop
         vertex 0.172488 -0.00098168 -0.00478673
         vertex 0.17257 -0.000981681 -0.00475018
         vertex 0.172439 -0.00098168 -0.00452183
      endloop
   endfacet
   facet normal -4.33778e-06 -1 1.10184e-06
      outer loop
         vertex 0.172343 -0.000981679 -0.00457071
         vertex 0.172252 -0.000981679 -0.00462893
         vertex 0.172409 -0.00098168 -0.00483201
      endloop
   endfacet
   facet normal -4.33778e-06 -1 1.10184e-06
      outer loop
         vertex 0.172252 -0.000981679 -0.00462893
         vertex 0.172167 -0.000981679 -0.00469592
         vertex 0.172337 -0.00098168 -0.00488551
      endloop
   endfacet
   facet normal -4.33778e-06 -1 1.10184e-06
      outer loop
         vertex 0.17227 -0.000981679 -0.00494659
         vertex 0.172337 -0.00098168 -0.00488551
         vertex 0.172167 -0.000981679 -0.00469592
      endloop
   endfacet
   facet normal -4.33778e-06 -1 1.10184e-06
      outer loop
         vertex 0.172025 -0.000981679 -0.00549121
         vertex 0.17206 -0.000981679 -0.00554712
         vertex 0.172283 -0.00098168 -0.00536383
      endloop
   endfacet
   facet normal -4.33778e-06 -1 1.10184e-06
      outer loop
         vertex 0.172514 -0.000981681 -0.00555285
         vertex 0.172469 -0.000981681 -0.00553176
         vertex 0.172373 -0.000981681 -0.00578408
      endloop
   endfacet
   facet normal -4.33778e-06 -1 1.10184e-06
      outer loop
         vertex 0.17257 -0.000981681 -0.00475018
         vertex 0.172656 -0.000981681 -0.00472281
         vertex 0.17254 -0.00098168 -0.0044828
      endloop
   endfacet
   facet normal -4.33778e-06 -1 1.10184e-06
      outer loop
         vertex 0.172337 -0.00098168 -0.00488551
         vertex 0.172409 -0.00098168 -0.00483201
         vertex 0.172252 -0.000981679 -0.00462893
      endloop
   endfacet
   facet normal -4.33778e-06 -1 1.10184e-06
      outer loop
         vertex 0.17227 -0.000981679 -0.00494659
         vertex 0.17197 -0.000981678 -0.00497552
         vertex 0.171954 -0.000981678 -0.00503959
      endloop
   endfacet
   facet normal -4.33778e-06 -1 1.10184e-06
      outer loop
         vertex 0.17202 -0.000981678 -0.00485347
         vertex 0.171992 -0.000981678 -0.00491328
         vertex 0.17227 -0.000981679 -0.00494659
      endloop
   endfacet
   facet normal -4.33778e-06 -1 1.10184e-06
      outer loop
         vertex 0.172827 -0.000981682 -0.00517696
         vertex 0.172863 -0.000981682 -0.00494658
         vertex 0.17227 -0.000981679 -0.00494659
      endloop
   endfacet
   facet normal -4.33778e-06 -1 1.10184e-06
      outer loop
         vertex 0.172469 -0.000981681 -0.00553176
         vertex 0.172425 -0.000981681 -0.00550611
         vertex 0.172312 -0.000981681 -0.00575848
      endloop
   endfacet
   facet normal -4.33778e-06 -1 1.10184e-06
      outer loop
         vertex 0.172409 -0.00098168 -0.00483201
         vertex 0.172488 -0.00098168 -0.00478673
         vertex 0.172343 -0.000981679 -0.00457071
      endloop
   endfacet
   facet normal -4.33778e-06 -1 1.10184e-06
      outer loop
         vertex 0.171992 -0.000981678 -0.00491328
         vertex 0.17197 -0.000981678 -0.00497552
         vertex 0.17227 -0.000981679 -0.00494659
      endloop
   endfacet
   facet normal -4.33778e-06 -1 1.10184e-06
      outer loop
         vertex 0.17227 -0.000981679 -0.00494659
         vertex 0.171944 -0.000981678 -0.0051049
         vertex 0.172209 -0.000981679 -0.00517696
      endloop
   endfacet
   facet normal -4.33778e-06 -1 1.10184e-06
      outer loop
         vertex 0.172726 -0.000981682 -0.00581943
         vertex 0.172763 -0.000981682 -0.00558396
         vertex 0.172712 -0.000981682 -0.00558795
      endloop
   endfacet
   facet normal -4.33778e-06 -1 1.10184e-06
      outer loop
         vertex 0.171954 -0.000981678 -0.00503959
         vertex 0.171944 -0.000981678 -0.0051049
         vertex 0.17227 -0.000981679 -0.00494659
      endloop
   endfacet
   facet normal -4.33778e-06 -1 1.10184e-06
      outer loop
         vertex 0.171944 -0.000981678 -0.00523811
         vertex 0.171954 -0.000981678 -0.00530472
         vertex 0.17222 -0.00098168 -0.00522627
      endloop
   endfacet
   facet normal -4.33778e-06 -1 1.10184e-06
      outer loop
         vertex 0.17227 -0.000981679 -0.00494659
         vertex 0.172209 -0.000981679 -0.00517696
         vertex 0.172827 -0.000981682 -0.00517696
      endloop
   endfacet
   facet normal -4.33778e-06 -1 1.10184e-06
      outer loop
         vertex 0.172925 -0.000981682 -0.00469844
         vertex 0.172967 -0.000981682 -0.0044312
         vertex 0.172859 -0.000981681 -0.00442806
      endloop
   endfacet
endsolid 1111. Units = meters