solid 1111. STL generated by ONSHAPE BY PTC INC, 1.216. Units = meters
   facet normal -4.33778e-06 -1 1.10184e-06
      outer loop
         vertex 0.170493 -0.000981673 0.00461565
         vertex 0.170178 -0.000981671 0.00463312
         vertex 0.170178 -0.000981671 0.00462467
      endloop
   endfacet
   facet normal -4.33778e-06 -1 1.10184e-06
      outer loop
         vertex 0.170476 -0.000981673 0.00459195
         vertex 0.17048 -0.000981673 0.00459405
         vertex 0.170482 -0.000981673 0.00459645
      endloop
   endfacet
   facet normal -4.33778e-06 -1 1.10184e-06
      outer loop
         vertex 0.170178 -0.000981671 0.00462467
         vertex 0.170178 -0.000981671 0.00462047
         vertex 0.170493 -0.000981673 0.00461565
      endloop
   endfacet
   facet normal -4.33778e-06 -1 1.10184e-06
      outer loop
         vertex 0.170466 -0.000981673 0.00458768
         vertex 0.170491 -0.000981673 0.00460855
         vertex 0.170492 -0.000981673 0.00461204
      endloop
   endfacet
   facet normal -4.33778e-06 -1 1.10184e-06
      outer loop
         vertex 0.170482 -0.000981673 0.00459645
         vertex 0.170485 -0.000981673 0.00459913
         vertex 0.170476 -0.000981673 0.00459195
      endloop
   endfacet
   facet normal -4.33778e-06 -1 1.10184e-06
      outer loop
         vertex 0.170493 -0.000981673 0.00461565
         vertex 0.170206 -0.000981671 0.00458751
         vertex 0.170211 -0.000981671 0.00458666
      endloop
   endfacet
   facet normal -4.33778e-06 -1 1.10184e-06
      outer loop
         vertex 0.170178 -0.000981671 0.00462047
         vertex 0.170179 -0.000981671 0.00461632
         vertex 0.170493 -0.000981673 0.00461565
      endloop
   endfacet
   facet normal -4.33778e-06 -1 1.10184e-06
      outer loop
         vertex 0.170466 -0.000981673 0.00458768
         vertex 0.170489 -0.000981673 0.00460521
         vertex 0.170491 -0.000981673 0.00460855
      endloop
   endfacet
   facet normal -4.33778e-06 -1 1.10184e-06
      outer loop
         vertex 0.170487 -0.000981673 0.00460206
         vertex 0.170473 -0.000981673 0.00459018
         vertex 0.170476 -0.000981673 0.00459195
      endloop
   endfacet
   facet normal -4.33778e-06 -1 1.10184e-06
      outer loop
         vertex 0.170487 -0.000981673 0.00460206
         vertex 0.170466 -0.000981673 0.00458768
         vertex 0.17047 -0.000981673 0.00458875
      endloop
   endfacet
   facet normal -4.33778e-06 -1 1.10184e-06
      outer loop
         vertex 0.170493 -0.000981673 0.00461565
         vertex 0.170202 -0.000981671 0.00458881
         vertex 0.170206 -0.000981671 0.00458751
      endloop
   endfacet
   facet normal -4.33778e-06 -1 1.10184e-06
      outer loop
         vertex 0.170493 -0.000981673 0.00461565
         vertex 0.170188 -0.000981671 0.00459803
         vertex 0.170192 -0.000981671 0.00459517
      endloop
   endfacet
   facet normal -4.33778e-06 -1 1.10184e-06
      outer loop
         vertex 0.170179 -0.000981671 0.00461632
         vertex 0.17018 -0.000981671 0.00461227
         vertex 0.170493 -0.000981673 0.00461565
      endloop
   endfacet
   facet normal -4.33778e-06 -1 1.10184e-06
      outer loop
         vertex 0.170524 -0.000981671 0.00602053
         vertex 0.170516 -0.000981671 0.00601961
         vertex 0.170513 -0.000981671 0.00601857
      endloop
   endfacet
   facet normal -4.33778e-06 -1 1.10184e-06
      outer loop
         vertex 0.170493 -0.000981673 0.00461565
         vertex 0.170788 -0.000981672 0.00601348
         vertex 0.170784 -0.000981672 0.00601565
      endloop
   endfacet
   facet normal -4.33778e-06 -1 1.10184e-06
      outer loop
         vertex 0.170466 -0.000981673 0.00458768
         vertex 0.170487 -0.000981673 0.00460206
         vertex 0.170489 -0.000981673 0.00460521
      endloop
   endfacet
   facet normal -4.33778e-06 -1 1.10184e-06
      outer loop
         vertex 0.17047 -0.000981673 0.00458875
         vertex 0.170473 -0.000981673 0.00459018
         vertex 0.170487 -0.000981673 0.00460206
      endloop
   endfacet
   facet normal -4.33778e-06 -1 1.10184e-06
      outer loop
         vertex 0.170493 -0.000981673 0.00461565
         vertex 0.170199 -0.000981671 0.00459053
         vertex 0.170202 -0.000981671 0.00458881
      endloop
   endfacet
   facet normal -4.33778e-06 -1 1.10184e-06
      outer loop
         vertex 0.170192 -0.000981671 0.00459517
         vertex 0.170195 -0.000981671 0.00459266
         vertex 0.170493 -0.000981673 0.00461565
      endloop
   endfacet
   facet normal -4.33778e-06 -1 1.10184e-06
      outer loop
         vertex 0.170493 -0.000981673 0.00461565
         vertex 0.170183 -0.000981671 0.00460467
         vertex 0.170186 -0.000981671 0.00460121
      endloop
   endfacet
   facet normal -4.33778e-06 -1 1.10184e-06
      outer loop
         vertex 0.17018 -0.000981671 0.00461227
         vertex 0.170181 -0.000981671 0.00460837
         vertex 0.170493 -0.000981673 0.00461565
      endloop
   endfacet
   facet normal -4.33778e-06 -1 1.10184e-06
      outer loop
         vertex 0.170524 -0.000981671 0.00602053
         vertex 0.17049 -0.000981671 0.00599853
         vertex 0.170489 -0.000981671 0.00599496
      endloop
   endfacet
   facet normal -4.33778e-06 -1 1.10184e-06
      outer loop
         vertex 0.170524 -0.000981671 0.00602053
         vertex 0.170499 -0.000981671 0.00601085
         vertex 0.170497 -0.000981671 0.00600814
      endloop
   endfacet
   facet normal -4.33778e-06 -1 1.10184e-06
      outer loop
         vertex 0.170524 -0.000981671 0.00602053
         vertex 0.170509 -0.000981671 0.00601716
         vertex 0.170506 -0.000981671 0.00601539
      endloop
   endfacet
   facet normal -4.33778e-06 -1 1.10184e-06
      outer loop
         vertex 0.170524 -0.000981671 0.00602053
         vertex 0.17052 -0.000981671 0.00602026
         vertex 0.170516 -0.000981671 0.00601961
      endloop
   endfacet
   facet normal -4.33778e-06 -1 1.10184e-06
      outer loop
         vertex 0.170493 -0.000981673 0.00461565
         vertex 0.17078 -0.000981672 0.00601744
         vertex 0.170777 -0.000981672 0.00601883
      endloop
   endfacet
   facet normal -4.33778e-06 -1 1.10184e-06
      outer loop
         vertex 0.170493 -0.000981673 0.00461565
         vertex 0.170791 -0.000981672 0.00601097
         vertex 0.170788 -0.000981672 0.00601348
      endloop
   endfacet
   facet normal -4.33778e-06 -1 1.10184e-06
      outer loop
         vertex 0.170493 -0.000981673 0.00461565
         vertex 0.170798 -0.000981672 0.00600162
         vertex 0.170796 -0.000981672 0.006005
      endloop
   endfacet
   facet normal -4.33778e-06 -1 1.10184e-06
      outer loop
         vertex 0.170804 -0.000981672 0.0059863
         vertex 0.170493 -0.000981673 0.00461565
         vertex 0.170803 -0.000981672 0.0059738
      endloop
   endfacet
   facet normal -4.33778e-06 -1 1.10184e-06
      outer loop
         vertex 0.170485 -0.000981673 0.00459913
         vertex 0.170487 -0.000981673 0.00460206
         vertex 0.170476 -0.000981673 0.00459195
      endloop
   endfacet
   facet normal -4.33778e-06 -1 1.10184e-06
      outer loop
         vertex 0.170493 -0.000981673 0.00461565
         vertex 0.170459 -0.000981673 0.00458666
         vertex 0.170462 -0.000981673 0.00458698
      endloop
   endfacet
   facet normal -4.33778e-06 -1 1.10184e-06
      outer loop
         vertex 0.170195 -0.000981671 0.00459266
         vertex 0.170199 -0.000981671 0.00459053
         vertex 0.170493 -0.000981673 0.00461565
      endloop
   endfacet
   facet normal -4.33778e-06 -1 1.10184e-06
      outer loop
         vertex 0.170181 -0.000981671 0.00460837
         vertex 0.170183 -0.000981671 0.00460467
         vertex 0.170493 -0.000981673 0.00461565
      endloop
   endfacet
   facet normal -4.33778e-06 -1 1.10184e-06
      outer loop
         vertex 0.170524 -0.000981671 0.00602053
         vertex 0.170492 -0.000981671 0.00600194
         vertex 0.17049 -0.000981671 0.00599853
      endloop
   endfacet
   facet normal -4.33778e-06 -1 1.10184e-06
      outer loop
         vertex 0.170497 -0.000981671 0.00600814
         vertex 0.170494 -0.000981671 0.00600516
         vertex 0.170524 -0.000981671 0.00602053
      endloop
   endfacet
   facet normal -4.33778e-06 -1 1.10184e-06
      outer loop
         vertex 0.170513 -0.000981671 0.00601857
         vertex 0.170509 -0.000981671 0.00601716
         vertex 0.170524 -0.000981671 0.00602053
      endloop
   endfacet
   facet normal -4.33778e-06 -1 1.10184e-06
      outer loop
         vertex 0.170784 -0.000981672 0.00601565
         vertex 0.17078 -0.000981672 0.00601744
         vertex 0.170493 -0.000981673 0.00461565
      endloop
   endfacet
   facet normal -4.33778e-06 -1 1.10184e-06
      outer loop
         vertex 0.170796 -0.000981672 0.006005
         vertex 0.170794 -0.000981672 0.00600813
         vertex 0.170493 -0.000981673 0.00461565
      endloop
   endfacet
   facet normal -4.33778e-06 -1 1.10184e-06
      outer loop
         vertex 0.170803 -0.000981672 0.0059738
         vertex 0.170804 -0.000981672 0.00598224
         vertex 0.170804 -0.000981672 0.0059863
      endloop
   endfacet
   facet normal -4.33778e-06 -1 1.10184e-06
      outer loop
         vertex 0.170462 -0.000981673 0.00458698
         vertex 0.170466 -0.000981673 0.00458768
         vertex 0.170493 -0.000981673 0.00461565
      endloop
   endfacet
   facet normal -4.33778e-06 -1 1.10184e-06
      outer loop
         vertex 0.170186 -0.000981671 0.00460121
         vertex 0.170188 -0.000981671 0.00459803
         vertex 0.170493 -0.000981673 0.00461565
      endloop
   endfacet
   facet normal -4.33778e-06 -1 1.10184e-06
      outer loop
         vertex 0.170494 -0.000981671 0.00600516
         vertex 0.170492 -0.000981671 0.00600194
         vertex 0.170524 -0.000981671 0.00602053
      endloop
   endfacet
   facet normal -4.33778e-06 -1 1.10184e-06
      outer loop
         vertex 0.170506 -0.000981671 0.00601539
         vertex 0.170502 -0.000981671 0.00601328
         vertex 0.170524 -0.000981671 0.00602053
      endloop
   endfacet
   facet normal -4.33778e-06 -1 1.10184e-06
      outer loop
         vertex 0.170794 -0.000981672 0.00600813
         vertex 0.170791 -0.000981672 0.00601097
         vertex 0.170493 -0.000981673 0.00461565
      endloop
   endfacet
   facet normal -4.33778e-06 -1 1.10184e-06
      outer loop
         vertex 0.170493 -0.000981673 0.00461565
         vertex 0.170802 -0.000981672 0.00599423
         vertex 0.1708 -0.000981672 0.00599801
      endloop
   endfacet
   facet normal -4.33778e-06 -1 1.10184e-06
      outer loop
         vertex 0.170804 -0.000981672 0.0059863
         vertex 0.170803 -0.000981672 0.00599031
         vertex 0.170493 -0.000981673 0.00461565
      endloop
   endfacet
   facet normal -4.33778e-06 -1 1.10184e-06
      outer loop
         vertex 0.170493 -0.000981673 0.00461565
         vertex 0.170765 -0.000981672 0.00602053
         vertex 0.170488 -0.000981671 0.00599127
      endloop
   endfacet
   facet normal -4.33778e-06 -1 1.10184e-06
      outer loop
         vertex 0.170211 -0.000981671 0.00458666
         vertex 0.170459 -0.000981673 0.00458666
         vertex 0.170493 -0.000981673 0.00461565
      endloop
   endfacet
   facet normal -4.33778e-06 -1 1.10184e-06
      outer loop
         vertex 0.170502 -0.000981671 0.00601328
         vertex 0.170499 -0.000981671 0.00601085
         vertex 0.170524 -0.000981671 0.00602053
      endloop
   endfacet
   facet normal -4.33778e-06 -1 1.10184e-06
      outer loop
         vertex 0.170777 -0.000981672 0.00601883
         vertex 0.170773 -0.000981672 0.00601982
         vertex 0.170493 -0.000981673 0.00461565
      endloop
   endfacet
   facet normal -4.33778e-06 -1 1.10184e-06
      outer loop
         vertex 0.170803 -0.000981672 0.00599031
         vertex 0.170802 -0.000981672 0.00599423
         vertex 0.170493 -0.000981673 0.00461565
      endloop
   endfacet
   facet normal -4.33778e-06 -1 1.10184e-06
      outer loop
         vertex 0.170492 -0.000981673 0.00461204
         vertex 0.170493 -0.000981673 0.00461565
         vertex 0.170466 -0.000981673 0.00458768
      endloop
   endfacet
   facet normal -4.33778e-06 -1 1.10184e-06
      outer loop
         vertex 0.170488 -0.000981671 0.00599127
         vertex 0.170765 -0.000981672 0.00602053
         vertex 0.170524 -0.000981671 0.00602053
      endloop
   endfacet
   facet normal -4.33778e-06 -1 1.10184e-06
      outer loop
         vertex 0.1708 -0.000981672 0.00599801
         vertex 0.170798 -0.000981672 0.00600162
         vertex 0.170493 -0.000981673 0.00461565
      endloop
   endfacet
   facet normal -4.33778e-06 -1 1.10184e-06
      outer loop
         vertex 0.170489 -0.000981671 0.00599496
         vertex 0.170488 -0.000981671 0.00599127
         vertex 0.170524 -0.000981671 0.00602053
      endloop
   endfacet
   facet normal -4.33778e-06 -1 1.10184e-06
      outer loop
         vertex 0.170773 -0.000981672 0.00601982
         vertex 0.170769 -0.000981672 0.00602039
         vertex 0.170493 -0.000981673 0.00461565
      endloop
   endfacet
   facet normal -4.33778e-06 -1 1.10184e-06
      outer loop
         vertex 0.170769 -0.000981672 0.00602039
         vertex 0.170765 -0.000981672 0.00602053
         vertex 0.170493 -0.000981673 0.00461565
      endloop
   endfacet
   facet normal -4.33778e-06 -1 1.10184e-06
      outer loop
         vertex 0.170488 -0.000981671 0.00599127
         vertex 0.170178 -0.000981671 0.00463312
         vertex 0.170493 -0.000981673 0.00461565
      endloop
   endfacet
endsolid 1111. Units = meters