solid 1111. STL generated by ONSHAPE BY PTC INC, 1.216. Units = meters
   facet normal 0.746965 0.664741 0.0127295
      outer loop
         vertex 0.0281736 0.0277378 0.00936332
         vertex 0.0281691 0.0277527 0.00919681
         vertex 0.0281403 0.0277816 0.00922355
      endloop
   endfacet
   facet normal 0.709018 0.662898 0.240539
      outer loop
         vertex 0.0281299 0.0278197 0.00901143
         vertex 0.028089 0.0278504 0.00903542
         vertex 0.0280996 0.0278371 0.00905307
      endloop
   endfacet
   facet normal 0.46106 0.887367 0.00160427
      outer loop
         vertex 0.0279624 0.0279109 0.00948943
         vertex 0.0279628 0.027911 0.0093278
         vertex 0.0279127 0.0279339 0.00936577
      endloop
   endfacet
   facet normal 0.394484 0.918903 -2.02024e-05
      outer loop
         vertex 0.0279127 0.0279339 0.00936577
         vertex 0.0279424 0.0279207 0.00949192
         vertex 0.0279624 0.0279109 0.00948943
      endloop
   endfacet
   facet normal 0.394484 0.918903 -2.02024e-05
      outer loop
         vertex 0.0279127 0.0279339 0.00936577
         vertex 0.0279127 0.0279339 0.00949278
         vertex 0.0279424 0.0279207 0.00949192
      endloop
   endfacet
   facet normal 0.450948 0.892549 0.00162309
      outer loop
         vertex 0.0279628 0.027911 0.0093278
         vertex 0.0279127 0.0279339 0.009331
         vertex 0.0279127 0.0279339 0.00936577
      endloop
   endfacet
   facet normal 0.397963 0.888635 0.227934
      outer loop
         vertex 0.0278894 0.0279537 0.0091658
         vertex 0.0278702 0.0279579 0.0091833
         vertex 0.0278802 0.0279514 0.00919568
      endloop
   endfacet
   facet normal 0.387978 0.910041 0.145938
      outer loop
         vertex 0.0278802 0.0279514 0.00919568
         vertex 0.0279013 0.0279448 0.00918131
         vertex 0.0278894 0.0279537 0.0091658
      endloop
   endfacet
   facet normal 0.882069 0.471111 0.00298397
      outer loop
         vertex 0.0282687 0.0276089 0.00929048
         vertex 0.0282564 0.0276391 0.00910636
         vertex 0.0282397 0.0276661 0.0091245
      endloop
   endfacet
   facet normal 0.847015 0.528828 0.0539174
      outer loop
         vertex 0.0282397 0.0276661 0.0091245
         vertex 0.028248 0.0276436 0.00930406
         vertex 0.0282566 0.0276302 0.00929793
      endloop
   endfacet
   facet normal 0.808132 0.588937 0.00875819
      outer loop
         vertex 0.0282266 0.0276741 0.00932039
         vertex 0.0282193 0.0276943 0.00914615
         vertex 0.0281957 0.0277234 0.00917058
      endloop
   endfacet
   facet normal 0.782502 0.619549 0.0620444
      outer loop
         vertex 0.0281957 0.0277234 0.00917058
         vertex 0.0282018 0.027706 0.00934019
         vertex 0.0282083 0.0276986 0.00933482
      endloop
   endfacet
   facet normal 0.776949 0.629467 0.0110563
      outer loop
         vertex 0.0282018 0.027706 0.00934019
         vertex 0.0281957 0.0277234 0.00917058
         vertex 0.0281691 0.0277527 0.00919681
      endloop
   endfacet
   facet normal 0.841195 0.540697 0.00610357
      outer loop
         vertex 0.028248 0.0276436 0.00930406
         vertex 0.0282397 0.0276661 0.0091245
         vertex 0.0282193 0.0276943 0.00914615
      endloop
   endfacet
   facet normal 0.814928 0.576367 0.0607672
      outer loop
         vertex 0.0282193 0.0276943 0.00914615
         vertex 0.0282266 0.0276741 0.00932039
         vertex 0.02824 0.0276559 0.00930971
      endloop
   endfacet
   facet normal 0.926395 0.376554 0.000428521
      outer loop
         vertex 0.0282876 0.0275688 0.00928298
         vertex 0.0282983 0.0275403 0.00918503
         vertex 0.0282951 0.0275493 0.00913115
      endloop
   endfacet
   facet normal 0.941855 0.336019 1.30795e-05
      outer loop
         vertex 0.0282951 0.0275493 0.00913115
         vertex 0.0282899 0.0275637 0.00907835
         vertex 0.0282876 0.0275688 0.00928298
      endloop
   endfacet
   facet normal 0.926395 0.376554 0.000428521
      outer loop
         vertex 0.0282876 0.0275688 0.00928298
         vertex 0.0282987 0.0275391 0.00919591
         vertex 0.0282983 0.0275403 0.00918503
      endloop
   endfacet
   facet normal 0.926395 0.376554 0.000428521
      outer loop
         vertex 0.0282876 0.0275688 0.00928298
         vertex 0.0282995 0.0275369 0.00924631
         vertex 0.0282987 0.0275391 0.00919591
      endloop
   endfacet
   facet normal 0.926395 0.376554 0.000428521
      outer loop
         vertex 0.0282876 0.0275688 0.00928298
         vertex 0.0282995 0.0275369 0.00928199
         vertex 0.0282995 0.0275369 0.00924631
      endloop
   endfacet
   facet normal 0.926395 0.376554 0.000428521
      outer loop
         vertex 0.0282876 0.0275688 0.00928298
         vertex 0.0282889 0.0275663 0.00907128
         vertex 0.0282698 0.0276136 0.00909181
      endloop
   endfacet
   facet normal 0.907696 0.418912 0.0244972
      outer loop
         vertex 0.0282698 0.0276136 0.00909181
         vertex 0.0282795 0.0275873 0.00928539
         vertex 0.0282876 0.0275688 0.00928298
      endloop
   endfacet
   facet normal 0.906743 0.421682 0.00139615
      outer loop
         vertex 0.0282792 0.0275879 0.00928547
         vertex 0.0282698 0.0276136 0.00909181
         vertex 0.0282564 0.0276391 0.00910636
      endloop
   endfacet
   facet normal 0.878488 0.475967 0.0414071
      outer loop
         vertex 0.0282564 0.0276391 0.00910636
         vertex 0.0282687 0.0276089 0.00929048
         vertex 0.0282792 0.0275879 0.00928547
      endloop
   endfacet
   facet normal 0.671695 0.738785 0.0549852
      outer loop
         vertex 0.0281272 0.0277991 0.0091276
         vertex 0.0281366 0.0277885 0.00918265
         vertex 0.0281649 0.0277613 0.00915599
      endloop
   endfacet
   facet normal 0.858828 0.498742 0.116919
      outer loop
         vertex 0.0282216 0.0277238 0.00893858
         vertex 0.0282038 0.0277471 0.00895728
         vertex 0.0282149 0.0277213 0.00899618
      endloop
   endfacet
   facet normal 0.817018 0.565194 0.114182
      outer loop
         vertex 0.0282149 0.0277213 0.00899618
         vertex 0.0282319 0.0276982 0.00897831
         vertex 0.0282216 0.0277238 0.00893858
      endloop
   endfacet
   facet normal 0.668093 0.732681 0.129729
      outer loop
         vertex 0.0281106 0.0278221 0.0090757
         vertex 0.0281272 0.0277991 0.0091276
         vertex 0.0281559 0.0277736 0.00910406
      endloop
   endfacet
   facet normal 0.735417 0.653649 0.17862
      outer loop
         vertex 0.0281603 0.0277857 0.00901429
         vertex 0.0281862 0.02776 0.00899539
         vertex 0.0281765 0.0277769 0.00897989
      endloop
   endfacet
   facet normal 0.772658 0.612788 0.165801
      outer loop
         vertex 0.0281862 0.02776 0.00899539
         vertex 0.0281788 0.0277745 0.00897805
         vertex 0.0281765 0.0277769 0.00897989
      endloop
   endfacet
   facet normal 0.668093 0.732681 0.129729
      outer loop
         vertex 0.0281106 0.0278221 0.0090757
         vertex 0.0281409 0.0277969 0.00905515
         vertex 0.0281311 0.0278116 0.00903358
      endloop
   endfacet
   facet normal 0.70086 0.689003 0.184579
      outer loop
         vertex 0.0281311 0.0278116 0.00903358
         vertex 0.0281603 0.0277857 0.00901429
         vertex 0.0281517 0.0277997 0.0089967
      endloop
   endfacet
   facet normal 0.702207 0.699715 0.131548
      outer loop
         vertex 0.0281409 0.0277969 0.00905515
         vertex 0.0281689 0.0277712 0.00903483
         vertex 0.0281603 0.0277857 0.00901429
      endloop
   endfacet
   facet normal 0.817018 0.565194 0.114182
      outer loop
         vertex 0.0282149 0.0277213 0.00899618
         vertex 0.0282012 0.02775 0.00895945
         vertex 0.0281862 0.02776 0.00899539
      endloop
   endfacet
   facet normal 0.811428 0.558873 0.171013
      outer loop
         vertex 0.0282012 0.02775 0.00895945
         vertex 0.0281788 0.0277745 0.00897805
         vertex 0.0281862 0.02776 0.00899539
      endloop
   endfacet
   facet normal 0.738162 0.661633 0.13175
      outer loop
         vertex 0.0281689 0.0277712 0.00903483
         vertex 0.0281938 0.0277458 0.00901509
         vertex 0.0281862 0.02776 0.00899539
      endloop
   endfacet
   facet normal 0.738162 0.661633 0.13175
      outer loop
         vertex 0.0281689 0.0277712 0.00903483
         vertex 0.0281824 0.0277477 0.00908077
         vertex 0.0282059 0.0277221 0.00905849
      endloop
   endfacet
   facet normal 0.702207 0.699715 0.131548
      outer loop
         vertex 0.0281409 0.0277969 0.00905515
         vertex 0.0281559 0.0277736 0.00910406
         vertex 0.0281824 0.0277477 0.00908077
      endloop
   endfacet
   facet normal 0.77645 0.617189 0.127294
      outer loop
         vertex 0.0281938 0.0277458 0.00901509
         vertex 0.0282059 0.0277221 0.00905849
         vertex 0.028226 0.0276973 0.00903782
      endloop
   endfacet
   facet normal 0.925401 0.378753 0.0133986
      outer loop
         vertex 0.028265 0.02763 0.00898808
         vertex 0.0282424 0.0276873 0.00890609
         vertex 0.0282449 0.0276767 0.00896148
      endloop
   endfacet
   facet normal 0.895095 0.442636 0.0536445
      outer loop
         vertex 0.0282449 0.0276767 0.00896148
         vertex 0.0282424 0.0276873 0.00890609
         vertex 0.0282338 0.0277046 0.00892201
      endloop
   endfacet
   facet normal 0.893901 0.443428 0.0656682
      outer loop
         vertex 0.0282338 0.0277046 0.00892201
         vertex 0.0282327 0.0277063 0.00892352
         vertex 0.0282449 0.0276767 0.00896148
      endloop
   endfacet
   facet normal 0.857864 0.50605 0.0893464
      outer loop
         vertex 0.0282319 0.0276982 0.00897831
         vertex 0.0282449 0.0276767 0.00896148
         vertex 0.0282327 0.0277063 0.00892352
      endloop
   endfacet
   facet normal 0.827804 0.555169 0.0807901
      outer loop
         vertex 0.028226 0.0276973 0.00903782
         vertex 0.0282423 0.0276736 0.0090192
         vertex 0.0282319 0.0276982 0.00897831
      endloop
   endfacet
   facet normal 0.900415 0.433113 0.0408084
      outer loop
         vertex 0.0282552 0.0276512 0.00900268
         vertex 0.0282449 0.0276767 0.00896148
         vertex 0.0282319 0.0276982 0.00897831
      endloop
   endfacet
   facet normal 0.919817 0.391876 0.0192457
      outer loop
         vertex 0.0282431 0.0276859 0.00890485
         vertex 0.028265 0.02763 0.00898808
         vertex 0.0282631 0.0276356 0.00893297
      endloop
   endfacet
   facet normal 0.925401 0.378753 0.0133986
      outer loop
         vertex 0.028265 0.02763 0.00898808
         vertex 0.028273 0.0276096 0.00897469
         vertex 0.0282631 0.0276356 0.00893297
      endloop
   endfacet
   facet normal 0.933513 0.358543 1.64266e-07
      outer loop
         vertex 0.0282631 0.0276356 0.00893297
         vertex 0.02825 0.0276693 0.00888887
         vertex 0.0282431 0.0276859 0.00890485
      endloop
   endfacet
   facet normal 0.878488 0.475967 0.0414071
      outer loop
         vertex 0.0282564 0.0276391 0.00910636
         vertex 0.0282423 0.0276736 0.0090192
         vertex 0.028226 0.0276973 0.00903782
      endloop
   endfacet
   facet normal 0.787992 0.609923 0.0840424
      outer loop
         vertex 0.0282059 0.0277221 0.00905849
         vertex 0.0281824 0.0277477 0.00908077
         vertex 0.028191 0.0277337 0.0091296
      endloop
   endfacet
   facet normal 0.772826 0.63111 0.0666351
      outer loop
         vertex 0.028191 0.0277337 0.0091296
         vertex 0.0282193 0.0276943 0.00914615
         vertex 0.0282059 0.0277221 0.00905849
      endloop
   endfacet
   facet normal 0.709487 0.701454 0.0677481
      outer loop
         vertex 0.0281559 0.0277736 0.00910406
         vertex 0.0281649 0.0277613 0.00915599
         vertex 0.028191 0.0277337 0.0091296
      endloop
   endfacet
   facet normal 0.749061 0.659911 0.0585211
      outer loop
         vertex 0.0281691 0.0277527 0.00919681
         vertex 0.0281649 0.0277613 0.00915599
         vertex 0.0281366 0.0277885 0.00918265
      endloop
   endfacet
   facet normal 0.782502 0.619549 0.0620444
      outer loop
         vertex 0.0281957 0.0277234 0.00917058
         vertex 0.028191 0.0277337 0.0091296
         vertex 0.0281649 0.0277613 0.00915599
      endloop
   endfacet
   facet normal 0.847015 0.528828 0.0539174
      outer loop
         vertex 0.0282397 0.0276661 0.0091245
         vertex 0.028226 0.0276973 0.00903782
         vertex 0.0282059 0.0277221 0.00905849
      endloop
   endfacet
   facet normal 0.94031 0.340318 -1.6848e-05
      outer loop
         vertex 0.0282889 0.0275663 0.00907128
         vertex 0.028265 0.02763 0.00898808
         vertex 0.0282552 0.0276512 0.00900268
      endloop
   endfacet
   facet normal 0.925401 0.378753 0.0133986
      outer loop
         vertex 0.028265 0.02763 0.00898808
         vertex 0.0282889 0.0275663 0.00907128
         vertex 0.0282828 0.0275834 0.00902665
      endloop
   endfacet
   facet normal 0.938685 0.344775 8.0422e-06
      outer loop
         vertex 0.0282828 0.0275834 0.00902665
         vertex 0.0282737 0.0276077 0.0089776
         vertex 0.028265 0.02763 0.00898808
      endloop
   endfacet
   facet normal 0.936319 0.351151 2.85951e-06
      outer loop
         vertex 0.0282737 0.0276077 0.0089776
         vertex 0.028273 0.0276096 0.00897469
         vertex 0.028265 0.02763 0.00898808
      endloop
   endfacet
   facet normal 0.907696 0.418912 0.0244972
      outer loop
         vertex 0.0282698 0.0276136 0.00909181
         vertex 0.0282552 0.0276512 0.00900268
         vertex 0.0282423 0.0276736 0.0090192
      endloop
   endfacet
   facet normal 0.567372 0.784598 0.249989
      outer loop
         vertex 0.0279898 0.0279157 0.00909339
         vertex 0.0279548 0.0279327 0.00911539
         vertex 0.0279732 0.0279173 0.00912927
      endloop
   endfacet
   facet normal 0.567003 0.801773 0.18886
      outer loop
         vertex 0.0280027 0.0279018 0.00911082
         vertex 0.0279908 0.0279152 0.00909282
         vertex 0.0279898 0.0279157 0.00909339
      endloop
   endfacet
   facet normal 0.450948 0.892549 0.00162309
      outer loop
         vertex 0.0279628 0.027911 0.0093278
         vertex 0.0279124 0.0279341 0.00928394
         vertex 0.0279127 0.0279339 0.00930482
      endloop
   endfacet
   facet normal 0.443238 0.896391 0.00477601
      outer loop
         vertex 0.0279541 0.027915 0.00923422
         vertex 0.0279112 0.0279346 0.00927008
         vertex 0.0279124 0.0279341 0.00928394
      endloop
   endfacet
   facet normal 0.394404 0.918937 -0.000267039
      outer loop
         vertex 0.0279124 0.0279341 0.00928394
         vertex 0.0279628 0.027911 0.0093278
         vertex 0.0279541 0.027915 0.00923422
      endloop
   endfacet
   facet normal 0.443238 0.896391 0.00477601
      outer loop
         vertex 0.0279541 0.027915 0.00923422
         vertex 0.0279071 0.0279364 0.00925072
         vertex 0.0279084 0.0279358 0.00925527
      endloop
   endfacet
   facet normal 0.39483 0.918749 -0.00303369
      outer loop
         vertex 0.0279084 0.0279358 0.00925527
         vertex 0.0279112 0.0279346 0.00927008
         vertex 0.0279541 0.027915 0.00923422
      endloop
   endfacet
   facet normal 0.467536 0.848919 0.246469
      outer loop
         vertex 0.0279255 0.027944 0.00913586
         vertex 0.0279002 0.0279513 0.00915589
         vertex 0.0279225 0.0279383 0.00916445
      endloop
   endfacet
   facet normal 0.484265 0.853315 0.19324
      outer loop
         vertex 0.0279464 0.0279294 0.00914714
         vertex 0.0279339 0.0279407 0.00912997
         vertex 0.0279255 0.027944 0.00913586
      endloop
   endfacet
   facet normal 0.407051 0.905052 0.12325
      outer loop
         vertex 0.0279132 0.0279364 0.0091999
         vertex 0.0278945 0.0279426 0.00921753
         vertex 0.0278991 0.02794 0.00922732
      endloop
   endfacet
   facet normal 0.393581 0.918486 0.0384376
      outer loop
         vertex 0.0278991 0.02794 0.00922732
         vertex 0.0279229 0.02793 0.00922108
         vertex 0.0279132 0.0279364 0.0091999
      endloop
   endfacet
   facet normal 0.402124 0.898226 0.177444
      outer loop
         vertex 0.0279013 0.0279448 0.00918131
         vertex 0.0278819 0.0279503 0.00919802
         vertex 0.0278888 0.027946 0.00920771
      endloop
   endfacet
   facet normal 0.391101 0.914099 0.107061
      outer loop
         vertex 0.0278888 0.027946 0.00920771
         vertex 0.0279132 0.0279364 0.0091999
         vertex 0.0279013 0.0279448 0.00918131
      endloop
   endfacet
   facet normal 0.402124 0.898226 0.177444
      outer loop
         vertex 0.0279013 0.0279448 0.00918131
         vertex 0.0279225 0.0279383 0.00916445
         vertex 0.0279002 0.0279513 0.00915589
      endloop
   endfacet
   facet normal 0.439435 0.877612 0.191559
      outer loop
         vertex 0.0279225 0.0279383 0.00916445
         vertex 0.0279013 0.0279448 0.00918131
         vertex 0.0279132 0.0279364 0.0091999
      endloop
   endfacet
   facet normal 0.443238 0.896391 0.00477601
      outer loop
         vertex 0.0279541 0.027915 0.00923422
         vertex 0.0279461 0.0279199 0.00920948
         vertex 0.0279039 0.0279377 0.00923991
      endloop
   endfacet
   facet normal 0.392994 0.919524 0.00551636
      outer loop
         vertex 0.0279039 0.0279377 0.00923991
         vertex 0.0279461 0.0279199 0.00920948
         vertex 0.0279229 0.02793 0.00922108
      endloop
   endfacet
   facet normal 0.406135 0.912428 0.0502918
      outer loop
         vertex 0.0279229 0.02793 0.00922108
         vertex 0.0279008 0.0279392 0.00923175
         vertex 0.0279039 0.0279377 0.00923991
      endloop
   endfacet
   facet normal 0.441922 0.886775 0.135407
      outer loop
         vertex 0.0279354 0.027928 0.00918537
         vertex 0.0279132 0.0279364 0.0091999
         vertex 0.0279229 0.02793 0.00922108
      endloop
   endfacet
   facet normal 0.484505 0.864151 0.13601
      outer loop
         vertex 0.02796 0.0279174 0.00916981
         vertex 0.0279354 0.027928 0.00918537
         vertex 0.0279461 0.0279199 0.00920948
      endloop
   endfacet
   facet normal 0.484265 0.853315 0.19324
      outer loop
         vertex 0.0279464 0.0279294 0.00914714
         vertex 0.0279225 0.0279383 0.00916445
         vertex 0.0279354 0.027928 0.00918537
      endloop
   endfacet
   facet normal 0.484265 0.853315 0.19324
      outer loop
         vertex 0.0279464 0.0279294 0.00914714
         vertex 0.0279732 0.0279173 0.00912927
         vertex 0.0279548 0.0279327 0.00911539
      endloop
   endfacet
   facet normal 0.527587 0.827704 0.191201
      outer loop
         vertex 0.0279732 0.0279173 0.00912927
         vertex 0.0279464 0.0279294 0.00914714
         vertex 0.02796 0.0279174 0.00916981
      endloop
   endfacet
   facet normal 0.482812 0.875681 0.00870268
      outer loop
         vertex 0.0279798 0.0279017 0.00922289
         vertex 0.0279714 0.0279078 0.00919612
         vertex 0.0279461 0.0279199 0.00920948
      endloop
   endfacet
   facet normal 0.526359 0.839795 0.133004
      outer loop
         vertex 0.027987 0.027904 0.00915306
         vertex 0.02796 0.0279174 0.00916981
         vertex 0.0279714 0.0279078 0.00919612
      endloop
   endfacet
   facet normal 0.522639 0.852437 0.0141196
      outer loop
         vertex 0.0280072 0.0278859 0.00920878
         vertex 0.0279987 0.027893 0.00918075
         vertex 0.0279714 0.0279078 0.00919612
      endloop
   endfacet
   facet normal 0.499107 0.866524 0.00536496
      outer loop
         vertex 0.0279898 0.0278965 0.00932105
         vertex 0.0279798 0.0279017 0.00922289
         vertex 0.0279541 0.027915 0.00923422
      endloop
   endfacet
   facet normal 0.547535 0.836701 0.0117205
      outer loop
         vertex 0.0280184 0.027879 0.00930968
         vertex 0.0280072 0.0278859 0.00920878
         vertex 0.0279798 0.0279017 0.00922289
      endloop
   endfacet
   facet normal 0.593613 0.80449 0.0204948
      outer loop
         vertex 0.0280483 0.0278585 0.00929354
         vertex 0.0280364 0.0278674 0.00919178
         vertex 0.0280072 0.0278859 0.00920878
      endloop
   endfacet
   facet normal 0.602655 0.775643 0.187578
      outer loop
         vertex 0.0280343 0.0278829 0.00909188
         vertex 0.0280669 0.0278611 0.00907257
         vertex 0.0280498 0.0278798 0.00905843
      endloop
   endfacet
   facet normal 0.572927 0.813469 0.100117
      outer loop
         vertex 0.0280279 0.0278755 0.00916329
         vertex 0.0280584 0.0278555 0.00914399
         vertex 0.0280473 0.0278681 0.00911601
      endloop
   endfacet
   facet normal 0.565132 0.814714 0.129876
      outer loop
         vertex 0.0280164 0.0278875 0.00913507
         vertex 0.027987 0.027904 0.00915306
         vertex 0.0279987 0.027893 0.00918075
      endloop
   endfacet
   facet normal 0.531864 0.841808 0.0920875
      outer loop
         vertex 0.0279987 0.027893 0.00918075
         vertex 0.0280279 0.0278755 0.00916329
         vertex 0.0280164 0.0278875 0.00913507
      endloop
   endfacet
   facet normal 0.567003 0.801773 0.18886
      outer loop
         vertex 0.0280027 0.0279018 0.00911082
         vertex 0.0279732 0.0279173 0.00912927
         vertex 0.027987 0.027904 0.00915306
      endloop
   endfacet
   facet normal 0.567003 0.801773 0.18886
      outer loop
         vertex 0.0280027 0.0279018 0.00911082
         vertex 0.0280343 0.0278829 0.00909188
         vertex 0.0280227 0.027896 0.00907424
      endloop
   endfacet
   facet normal 0.602655 0.775643 0.187578
      outer loop
         vertex 0.0280343 0.0278829 0.00909188
         vertex 0.0280027 0.0279018 0.00911082
         vertex 0.0280164 0.0278875 0.00913507
      endloop
   endfacet
   facet normal 0.561049 0.827503 0.0214902
      outer loop
         vertex 0.0280364 0.0278674 0.00919178
         vertex 0.0280279 0.0278755 0.00916329
         vertex 0.0279987 0.027893 0.00918075
      endloop
   endfacet
   facet normal 0.598144 0.80079 0.0309588
      outer loop
         vertex 0.0280665 0.0278466 0.00917221
         vertex 0.0280584 0.0278555 0.00914399
         vertex 0.0280279 0.0278755 0.00916329
      endloop
   endfacet
   facet normal 0.610661 0.78457 0.107437
      outer loop
         vertex 0.0280584 0.0278555 0.00914399
         vertex 0.0280894 0.0278331 0.00912322
         vertex 0.028079 0.027846 0.00909611
      endloop
   endfacet
   facet normal 0.600847 0.789015 0.128214
      outer loop
         vertex 0.0280473 0.0278681 0.00911601
         vertex 0.028079 0.027846 0.00909611
         vertex 0.0280669 0.0278611 0.00907257
      endloop
   endfacet
   facet normal 0.669075 0.699815 0.250193
      outer loop
         vertex 0.028089 0.0278504 0.00903542
         vertex 0.0280498 0.0278798 0.00905843
         vertex 0.0280669 0.0278611 0.00907257
      endloop
   endfacet
   facet normal 0.634725 0.762018 0.128271
      outer loop
         vertex 0.028079 0.027846 0.00909611
         vertex 0.0281106 0.0278221 0.0090757
         vertex 0.0280996 0.0278371 0.00905307
      endloop
   endfacet
   facet normal 0.668093 0.732681 0.129729
      outer loop
         vertex 0.0281106 0.0278221 0.0090757
         vertex 0.028079 0.027846 0.00909611
         vertex 0.0280894 0.0278331 0.00912322
      endloop
   endfacet
   facet normal 0.646098 0.754678 0.114097
      outer loop
         vertex 0.0280894 0.0278331 0.00912322
         vertex 0.0281272 0.0277991 0.0091276
         vertex 0.0281106 0.0278221 0.0090757
      endloop
   endfacet
   facet normal 0.610661 0.78457 0.107437
      outer loop
         vertex 0.0280584 0.0278555 0.00914399
         vertex 0.0280665 0.0278466 0.00917221
         vertex 0.0280971 0.0278236 0.00915058
      endloop
   endfacet
   facet normal 0.598144 0.80079 0.0309588
      outer loop
         vertex 0.0280665 0.0278466 0.00917221
         vertex 0.0280764 0.027839 0.00923176
         vertex 0.0281068 0.0278146 0.00920831
      endloop
   endfacet
   facet normal 0.593613 0.80449 0.0204948
      outer loop
         vertex 0.0280483 0.0278585 0.00929354
         vertex 0.0280791 0.0278351 0.00927319
         vertex 0.0280764 0.027839 0.00923176
      endloop
   endfacet
   facet normal 0.62067 0.783596 0.0273178
      outer loop
         vertex 0.0280764 0.027839 0.00923176
         vertex 0.0280364 0.0278674 0.00919178
         vertex 0.0280483 0.0278585 0.00929354
      endloop
   endfacet
   facet normal 0.676595 0.735182 0.0415592
      outer loop
         vertex 0.02811 0.0278093 0.00924945
         vertex 0.0281068 0.0278146 0.00920831
         vertex 0.0280764 0.027839 0.00923176
      endloop
   endfacet
   facet normal 0.634747 0.77156 0.0423201
      outer loop
         vertex 0.0280971 0.0278236 0.00915058
         vertex 0.0281068 0.0278146 0.00920831
         vertex 0.0281366 0.0277885 0.00918265
      endloop
   endfacet
   facet normal 0.713955 0.698313 0.0512597
      outer loop
         vertex 0.0281403 0.0277816 0.00922355
         vertex 0.0281366 0.0277885 0.00918265
         vertex 0.0281068 0.0278146 0.00920831
      endloop
   endfacet
   facet normal 0.547535 0.836701 0.0117205
      outer loop
         vertex 0.0280184 0.027879 0.00930968
         vertex 0.0280341 0.0278662 0.00946326
         vertex 0.0280489 0.0278547 0.00945446
      endloop
   endfacet
   facet normal 0.547535 0.836701 0.0117205
      outer loop
         vertex 0.0280184 0.027879 0.00930968
         vertex 0.0280184 0.0278769 0.00947062
         vertex 0.0280341 0.0278662 0.00946326
      endloop
   endfacet
   facet normal 0.450948 0.892549 0.00162309
      outer loop
         vertex 0.0279628 0.027911 0.0093278
         vertex 0.0279625 0.0279109 0.00948939
         vertex 0.0279821 0.0279001 0.00948481
      endloop
   endfacet
   facet normal 0.499107 0.866524 0.00536496
      outer loop
         vertex 0.0279898 0.0278965 0.00932105
         vertex 0.0280055 0.0278858 0.00947667
         vertex 0.0280184 0.0278769 0.00947062
      endloop
   endfacet
   facet normal 0.499107 0.866524 0.00536496
      outer loop
         vertex 0.0279898 0.0278965 0.00932105
         vertex 0.0279821 0.0279001 0.00948481
         vertex 0.0280055 0.0278858 0.00947667
      endloop
   endfacet
   facet normal 0.685675 0.727784 0.0134323
      outer loop
         vertex 0.0281121 0.0278005 0.00941145
         vertex 0.02811 0.0278093 0.00924945
         vertex 0.0280791 0.0278351 0.00927319
      endloop
   endfacet
   facet normal 0.593613 0.80449 0.0204948
      outer loop
         vertex 0.0280483 0.0278585 0.00929354
         vertex 0.0280712 0.0278374 0.00944117
         vertex 0.0280804 0.0278291 0.00943449
      endloop
   endfacet
   facet normal 0.593613 0.80449 0.0204948
      outer loop
         vertex 0.0280483 0.0278585 0.00929354
         vertex 0.0280489 0.0278547 0.00945446
         vertex 0.0280712 0.0278374 0.00944117
      endloop
   endfacet
   facet normal 0.676595 0.735182 0.0415592
      outer loop
         vertex 0.02811 0.0278093 0.00924945
         vertex 0.0281325 0.0277822 0.00939669
         vertex 0.0281481 0.0277665 0.00938425
      endloop
   endfacet
   facet normal 0.676595 0.735182 0.0415592
      outer loop
         vertex 0.02811 0.0278093 0.00924945
         vertex 0.0281121 0.0278005 0.00941145
         vertex 0.0281325 0.0277822 0.00939669
      endloop
   endfacet
   facet normal 0.720898 0.692909 0.013517
      outer loop
         vertex 0.0281481 0.0277665 0.00938425
         vertex 0.0281403 0.0277816 0.00922355
         vertex 0.02811 0.0278093 0.00924945
      endloop
   endfacet
   facet normal 0.651207 0.758801 0.0122447
      outer loop
         vertex 0.0280804 0.0278291 0.00943449
         vertex 0.0280791 0.0278351 0.00927319
         vertex 0.0280483 0.0278585 0.00929354
      endloop
   endfacet
   facet normal 0.636553 0.770617 0.0308289
      outer loop
         vertex 0.0280791 0.0278351 0.00927319
         vertex 0.0280804 0.0278291 0.00943449
         vertex 0.0281121 0.0278005 0.00941145
      endloop
   endfacet
   facet normal 0.56684 0.823797 0.00719942
      outer loop
         vertex 0.0280184 0.0278769 0.00947062
         vertex 0.0280184 0.027879 0.00930968
         vertex 0.0279898 0.0278965 0.00932105
      endloop
   endfacet
   facet normal 0.501078 0.865395 0.00337534
      outer loop
         vertex 0.0279821 0.0279001 0.00948481
         vertex 0.0279898 0.0278965 0.00932105
         vertex 0.0279628 0.027911 0.0093278
      endloop
   endfacet
   facet normal 0.612074 0.790736 0.0100768
      outer loop
         vertex 0.0280489 0.0278547 0.00945446
         vertex 0.0280483 0.0278585 0.00929354
         vertex 0.0280184 0.027879 0.00930968
      endloop
   endfacet
   facet normal 0.660411 0.749942 0.0379981
      outer loop
         vertex 0.0281068 0.0278146 0.00920831
         vertex 0.02811 0.0278093 0.00924945
         vertex 0.0281403 0.0277816 0.00922355
      endloop
   endfacet
   facet normal 0.69888 0.713552 0.0491036
      outer loop
         vertex 0.0281366 0.0277885 0.00918265
         vertex 0.0281272 0.0277991 0.0091276
         vertex 0.0280971 0.0278236 0.00915058
      endloop
   endfacet
   facet normal 0.62067 0.783596 0.0273178
      outer loop
         vertex 0.0280764 0.027839 0.00923176
         vertex 0.0280791 0.0278351 0.00927319
         vertex 0.02811 0.0278093 0.00924945
      endloop
   endfacet
   facet normal 0.62067 0.783596 0.0273178
      outer loop
         vertex 0.0280764 0.027839 0.00923176
         vertex 0.0280665 0.0278466 0.00917221
         vertex 0.0280364 0.0278674 0.00919178
      endloop
   endfacet
   facet normal 0.660411 0.749942 0.0379981
      outer loop
         vertex 0.0281068 0.0278146 0.00920831
         vertex 0.0280971 0.0278236 0.00915058
         vertex 0.0280665 0.0278466 0.00917221
      endloop
   endfacet
   facet normal 0.634747 0.77156 0.0423201
      outer loop
         vertex 0.0280971 0.0278236 0.00915058
         vertex 0.0280894 0.0278331 0.00912322
         vertex 0.0280584 0.0278555 0.00914399
      endloop
   endfacet
   facet normal 0.646098 0.754678 0.114097
      outer loop
         vertex 0.0280894 0.0278331 0.00912322
         vertex 0.0280971 0.0278236 0.00915058
         vertex 0.0281272 0.0277991 0.0091276
      endloop
   endfacet
   facet normal 0.66814 0.720249 0.186632
      outer loop
         vertex 0.0280996 0.0278371 0.00905307
         vertex 0.0280669 0.0278611 0.00907257
         vertex 0.028079 0.027846 0.00909611
      endloop
   endfacet
   facet normal 0.635879 0.748765 0.187108
      outer loop
         vertex 0.0280669 0.0278611 0.00907257
         vertex 0.0280996 0.0278371 0.00905307
         vertex 0.028089 0.0278504 0.00903542
      endloop
   endfacet
   facet normal 0.635879 0.748765 0.187108
      outer loop
         vertex 0.0280669 0.0278611 0.00907257
         vertex 0.0280343 0.0278829 0.00909188
         vertex 0.0280473 0.0278681 0.00911601
      endloop
   endfacet
   facet normal 0.634725 0.762018 0.128271
      outer loop
         vertex 0.028079 0.027846 0.00909611
         vertex 0.0280473 0.0278681 0.00911601
         vertex 0.0280584 0.0278555 0.00914399
      endloop
   endfacet
   facet normal 0.572927 0.813469 0.100117
      outer loop
         vertex 0.0280279 0.0278755 0.00916329
         vertex 0.0280364 0.0278674 0.00919178
         vertex 0.0280665 0.0278466 0.00917221
      endloop
   endfacet
   facet normal 0.531864 0.841808 0.0920875
      outer loop
         vertex 0.0279987 0.027893 0.00918075
         vertex 0.0280072 0.0278859 0.00920878
         vertex 0.0280364 0.0278674 0.00919178
      endloop
   endfacet
   facet normal 0.565132 0.814714 0.129876
      outer loop
         vertex 0.0280164 0.0278875 0.00913507
         vertex 0.0280473 0.0278681 0.00911601
         vertex 0.0280343 0.0278829 0.00909188
      endloop
   endfacet
   facet normal 0.604535 0.755767 0.251703
      outer loop
         vertex 0.0280227 0.027896 0.00907424
         vertex 0.0279908 0.0279152 0.00909282
         vertex 0.0280027 0.0279018 0.00911082
      endloop
   endfacet
   facet normal 0.526359 0.839795 0.133004
      outer loop
         vertex 0.027987 0.027904 0.00915306
         vertex 0.0280164 0.0278875 0.00913507
         vertex 0.0280027 0.0279018 0.00911082
      endloop
   endfacet
   facet normal 0.600847 0.789015 0.128214
      outer loop
         vertex 0.0280473 0.0278681 0.00911601
         vertex 0.0280164 0.0278875 0.00913507
         vertex 0.0280279 0.0278755 0.00916329
      endloop
   endfacet
   facet normal 0.63127 0.733366 0.252334
      outer loop
         vertex 0.0280498 0.0278798 0.00905843
         vertex 0.0280227 0.027896 0.00907424
         vertex 0.0280343 0.0278829 0.00909188
      endloop
   endfacet
   facet normal 0.522639 0.852437 0.0141196
      outer loop
         vertex 0.0280072 0.0278859 0.00920878
         vertex 0.0280184 0.027879 0.00930968
         vertex 0.0280483 0.0278585 0.00929354
      endloop
   endfacet
   facet normal 0.482812 0.875681 0.00870268
      outer loop
         vertex 0.0279798 0.0279017 0.00922289
         vertex 0.0279898 0.0278965 0.00932105
         vertex 0.0280184 0.027879 0.00930968
      endloop
   endfacet
   facet normal 0.443238 0.896391 0.00477601
      outer loop
         vertex 0.0279541 0.027915 0.00923422
         vertex 0.0279628 0.027911 0.0093278
         vertex 0.0279898 0.0278965 0.00932105
      endloop
   endfacet
   facet normal 0.487578 0.869183 0.0823996
      outer loop
         vertex 0.0279714 0.0279078 0.00919612
         vertex 0.0279798 0.0279017 0.00922289
         vertex 0.0280072 0.0278859 0.00920878
      endloop
   endfacet
   facet normal 0.487578 0.869183 0.0823996
      outer loop
         vertex 0.0279714 0.0279078 0.00919612
         vertex 0.0279987 0.027893 0.00918075
         vertex 0.027987 0.027904 0.00915306
      endloop
   endfacet
   facet normal 0.442756 0.893941 0.0695455
      outer loop
         vertex 0.0279461 0.0279199 0.00920948
         vertex 0.0279541 0.027915 0.00923422
         vertex 0.0279798 0.0279017 0.00922289
      endloop
   endfacet
   facet normal 0.484505 0.864151 0.13601
      outer loop
         vertex 0.02796 0.0279174 0.00916981
         vertex 0.027987 0.027904 0.00915306
         vertex 0.0279732 0.0279173 0.00912927
      endloop
   endfacet
   facet normal 0.518685 0.818009 0.248651
      outer loop
         vertex 0.0279548 0.0279327 0.00911539
         vertex 0.0279339 0.0279407 0.00912997
         vertex 0.0279464 0.0279294 0.00914714
      endloop
   endfacet
   facet normal 0.441922 0.886775 0.135407
      outer loop
         vertex 0.0279354 0.027928 0.00918537
         vertex 0.02796 0.0279174 0.00916981
         vertex 0.0279464 0.0279294 0.00914714
      endloop
   endfacet
   facet normal 0.442756 0.893941 0.0695455
      outer loop
         vertex 0.0279461 0.0279199 0.00920948
         vertex 0.0279714 0.0279078 0.00919612
         vertex 0.02796 0.0279174 0.00916981
      endloop
   endfacet
   facet normal 0.406135 0.912428 0.0502918
      outer loop
         vertex 0.0279229 0.02793 0.00922108
         vertex 0.0279461 0.0279199 0.00920948
         vertex 0.0279354 0.027928 0.00918537
      endloop
   endfacet
   facet normal 0.392994 0.919524 0.00551636
      outer loop
         vertex 0.0279039 0.0279377 0.00923991
         vertex 0.0279071 0.0279364 0.00925072
         vertex 0.0279541 0.027915 0.00923422
      endloop
   endfacet
   facet normal 0.407051 0.905052 0.12325
      outer loop
         vertex 0.0279132 0.0279364 0.0091999
         vertex 0.0279354 0.027928 0.00918537
         vertex 0.0279225 0.0279383 0.00916445
      endloop
   endfacet
   facet normal 0.416436 0.877166 0.239082
      outer loop
         vertex 0.0279002 0.0279513 0.00915589
         vertex 0.0278894 0.0279537 0.0091658
         vertex 0.0279013 0.0279448 0.00918131
      endloop
   endfacet
   facet normal 0.391101 0.914099 0.107061
      outer loop
         vertex 0.0278888 0.027946 0.00920771
         vertex 0.0278945 0.0279426 0.00921753
         vertex 0.0279132 0.0279364 0.0091999
      endloop
   endfacet
   facet normal 0.393581 0.918486 0.0384376
      outer loop
         vertex 0.0278991 0.02794 0.00922732
         vertex 0.0279008 0.0279392 0.00923175
         vertex 0.0279229 0.02793 0.00922108
      endloop
   endfacet
   facet normal 0.439435 0.877612 0.191559
      outer loop
         vertex 0.0279225 0.0279383 0.00916445
         vertex 0.0279464 0.0279294 0.00914714
         vertex 0.0279255 0.027944 0.00913586
      endloop
   endfacet
   facet normal 0.3946 0.918853 -1.69183e-05
      outer loop
         vertex 0.0279127 0.0279339 0.00930482
         vertex 0.0279127 0.0279339 0.009331
         vertex 0.0279628 0.027911 0.0093278
      endloop
   endfacet
   facet normal 0.527587 0.827704 0.191201
      outer loop
         vertex 0.0279732 0.0279173 0.00912927
         vertex 0.0280027 0.0279018 0.00911082
         vertex 0.0279898 0.0279157 0.00909339
      endloop
   endfacet
   facet normal 0.86616 0.495379 0.0660815
      outer loop
         vertex 0.0282423 0.0276736 0.0090192
         vertex 0.0282564 0.0276391 0.00910636
         vertex 0.0282698 0.0276136 0.00909181
      endloop
   endfacet
   facet normal 0.900415 0.433113 0.0408084
      outer loop
         vertex 0.0282552 0.0276512 0.00900268
         vertex 0.0282698 0.0276136 0.00909181
         vertex 0.0282889 0.0275663 0.00907128
      endloop
   endfacet
   facet normal 0.787992 0.609923 0.0840424
      outer loop
         vertex 0.0282059 0.0277221 0.00905849
         vertex 0.0282193 0.0276943 0.00914615
         vertex 0.0282397 0.0276661 0.0091245
      endloop
   endfacet
   facet normal 0.736322 0.67403 0.0592737
      outer loop
         vertex 0.0281649 0.0277613 0.00915599
         vertex 0.0281691 0.0277527 0.00919681
         vertex 0.0281957 0.0277234 0.00917058
      endloop
   endfacet
   facet normal 0.69888 0.713552 0.0491036
      outer loop
         vertex 0.0281366 0.0277885 0.00918265
         vertex 0.0281403 0.0277816 0.00922355
         vertex 0.0281691 0.0277527 0.00919681
      endloop
   endfacet
   facet normal 0.772826 0.63111 0.0666351
      outer loop
         vertex 0.028191 0.0277337 0.0091296
         vertex 0.0281824 0.0277477 0.00908077
         vertex 0.0281559 0.0277736 0.00910406
      endloop
   endfacet
   facet normal 0.772826 0.63111 0.0666351
      outer loop
         vertex 0.028191 0.0277337 0.0091296
         vertex 0.0281957 0.0277234 0.00917058
         vertex 0.0282193 0.0276943 0.00914615
      endloop
   endfacet
   facet normal 0.827804 0.555169 0.0807901
      outer loop
         vertex 0.028226 0.0276973 0.00903782
         vertex 0.0282397 0.0276661 0.0091245
         vertex 0.0282564 0.0276391 0.00910636
      endloop
   endfacet
   facet normal 0.919817 0.391876 0.0192457
      outer loop
         vertex 0.0282431 0.0276859 0.00890485
         vertex 0.0282424 0.0276873 0.00890609
         vertex 0.028265 0.02763 0.00898808
      endloop
   endfacet
   facet normal 0.857864 0.50605 0.0893464
      outer loop
         vertex 0.0282319 0.0276982 0.00897831
         vertex 0.0282423 0.0276736 0.0090192
         vertex 0.0282552 0.0276512 0.00900268
      endloop
   endfacet
   facet normal 0.857864 0.50605 0.0893464
      outer loop
         vertex 0.0282319 0.0276982 0.00897831
         vertex 0.0282149 0.0277213 0.00899618
         vertex 0.028226 0.0276973 0.00903782
      endloop
   endfacet
   facet normal 0.890771 0.44891 0.0707527
      outer loop
         vertex 0.0282327 0.0277063 0.00892352
         vertex 0.0282216 0.0277238 0.00893858
         vertex 0.0282319 0.0276982 0.00897831
      endloop
   endfacet
   facet normal 0.895095 0.442636 0.0536445
      outer loop
         vertex 0.0282449 0.0276767 0.00896148
         vertex 0.0282552 0.0276512 0.00900268
         vertex 0.028265 0.02763 0.00898808
      endloop
   endfacet
   facet normal 0.827804 0.555169 0.0807901
      outer loop
         vertex 0.028226 0.0276973 0.00903782
         vertex 0.0282149 0.0277213 0.00899618
         vertex 0.0281938 0.0277458 0.00901509
      endloop
   endfacet
   facet normal 0.748379 0.658613 0.0784674
      outer loop
         vertex 0.0281824 0.0277477 0.00908077
         vertex 0.0281689 0.0277712 0.00903483
         vertex 0.0281409 0.0277969 0.00905515
      endloop
   endfacet
   facet normal 0.787992 0.609923 0.0840424
      outer loop
         vertex 0.0282059 0.0277221 0.00905849
         vertex 0.0281938 0.0277458 0.00901509
         vertex 0.0281689 0.0277712 0.00903483
      endloop
   endfacet
   facet normal 0.772658 0.612788 0.165801
      outer loop
         vertex 0.0281862 0.02776 0.00899539
         vertex 0.0281603 0.0277857 0.00901429
         vertex 0.0281689 0.0277712 0.00903483
      endloop
   endfacet
   facet normal 0.772658 0.612788 0.165801
      outer loop
         vertex 0.0281862 0.02776 0.00899539
         vertex 0.0281938 0.0277458 0.00901509
         vertex 0.0282149 0.0277213 0.00899618
      endloop
   endfacet
   facet normal 0.735417 0.653649 0.17862
      outer loop
         vertex 0.0281603 0.0277857 0.00901429
         vertex 0.0281311 0.0278116 0.00903358
         vertex 0.0281409 0.0277969 0.00905515
      endloop
   endfacet
   facet normal 0.734785 0.638439 0.229098
      outer loop
         vertex 0.0281517 0.0277997 0.0089967
         vertex 0.0281299 0.0278197 0.00901143
         vertex 0.0281311 0.0278116 0.00903358
      endloop
   endfacet
   facet normal 0.70086 0.689003 0.184579
      outer loop
         vertex 0.0281311 0.0278116 0.00903358
         vertex 0.0280996 0.0278371 0.00905307
         vertex 0.0281106 0.0278221 0.0090757
      endloop
   endfacet
   facet normal 0.767913 0.605723 0.208349
      outer loop
         vertex 0.0281765 0.0277769 0.00897989
         vertex 0.0281517 0.0277997 0.0089967
         vertex 0.0281603 0.0277857 0.00901429
      endloop
   endfacet
   facet normal 0.709487 0.701454 0.0677481
      outer loop
         vertex 0.0281559 0.0277736 0.00910406
         vertex 0.0281409 0.0277969 0.00905515
         vertex 0.0281106 0.0278221 0.0090757
      endloop
   endfacet
   facet normal 0.816623 0.552857 0.165757
      outer loop
         vertex 0.0282038 0.0277471 0.00895728
         vertex 0.0282012 0.02775 0.00895945
         vertex 0.0282149 0.0277213 0.00899618
      endloop
   endfacet
   facet normal 0.736322 0.67403 0.0592737
      outer loop
         vertex 0.0281649 0.0277613 0.00915599
         vertex 0.0281559 0.0277736 0.00910406
         vertex 0.0281272 0.0277991 0.0091276
      endloop
   endfacet
   facet normal 0.906743 0.421682 0.00139615
      outer loop
         vertex 0.0282792 0.0275879 0.00928547
         vertex 0.0282795 0.0275873 0.00928539
         vertex 0.0282698 0.0276136 0.00909181
      endloop
   endfacet
   facet normal 0.940533 0.339703 -1.56417e-05
      outer loop
         vertex 0.0282899 0.0275637 0.00907835
         vertex 0.0282889 0.0275663 0.00907128
         vertex 0.0282876 0.0275688 0.00928298
      endloop
   endfacet
   facet normal 0.814928 0.576367 0.0607672
      outer loop
         vertex 0.0282193 0.0276943 0.00914615
         vertex 0.02824 0.0276559 0.00930971
         vertex 0.028248 0.0276436 0.00930406
      endloop
   endfacet
   facet normal 0.749061 0.659911 0.0585211
      outer loop
         vertex 0.0281691 0.0277527 0.00919681
         vertex 0.0281736 0.0277378 0.00936332
         vertex 0.0282018 0.027706 0.00934019
      endloop
   endfacet
   facet normal 0.782502 0.619549 0.0620444
      outer loop
         vertex 0.0281957 0.0277234 0.00917058
         vertex 0.0282083 0.0276986 0.00933482
         vertex 0.0282266 0.0276741 0.00932039
      endloop
   endfacet
   facet normal 0.847015 0.528828 0.0539174
      outer loop
         vertex 0.0282397 0.0276661 0.0091245
         vertex 0.0282566 0.0276302 0.00929793
         vertex 0.0282687 0.0276089 0.00929048
      endloop
   endfacet
   facet normal 0.387978 0.910041 0.145938
      outer loop
         vertex 0.0278802 0.0279514 0.00919568
         vertex 0.0278819 0.0279503 0.00919802
         vertex 0.0279013 0.0279448 0.00918131
      endloop
   endfacet
   facet normal 0.46106 0.887367 0.00160427
      outer loop
         vertex 0.0279624 0.0279109 0.00948943
         vertex 0.0279625 0.0279109 0.00948939
         vertex 0.0279628 0.027911 0.0093278
      endloop
   endfacet
   facet normal 0.66814 0.720249 0.186632
      outer loop
         vertex 0.0280996 0.0278371 0.00905307
         vertex 0.0281311 0.0278116 0.00903358
         vertex 0.0281299 0.0278197 0.00901143
      endloop
   endfacet
   facet normal 0.713955 0.698313 0.0512597
      outer loop
         vertex 0.0281403 0.0277816 0.00922355
         vertex 0.0281481 0.0277665 0.00938425
         vertex 0.0281736 0.0277378 0.00936332
      endloop
   endfacet
endsolid 1111. Units = meters