solid 1111. STL generated by ONSHAPE BY PTC INC, 1.216. Units = meters
   facet normal -4.33778e-06 -1 1.10184e-06
      outer loop
         vertex 0.170971 -0.000981673 0.00602078
         vertex 0.170955 -0.000981673 0.00601922
         vertex 0.170948 -0.000981673 0.00601722
      endloop
   endfacet
   facet normal -4.33778e-06 -1 1.10184e-06
      outer loop
         vertex 0.170971 -0.000981673 0.00602078
         vertex 0.17091 -0.000981673 0.00599014
         vertex 0.170905 -0.000981673 0.00598357
      endloop
   endfacet
   facet normal -4.33778e-06 -1 1.10184e-06
      outer loop
         vertex 0.170971 -0.000981673 0.00602078
         vertex 0.17094 -0.000981673 0.00601444
         vertex 0.170933 -0.000981673 0.00601091
      endloop
   endfacet
   facet normal -4.33778e-06 -1 1.10184e-06
      outer loop
         vertex 0.170971 -0.000981673 0.00602078
         vertex 0.170963 -0.000981673 0.00602041
         vertex 0.170955 -0.000981673 0.00601922
      endloop
   endfacet
   facet normal -4.33778e-06 -1 1.10184e-06
      outer loop
         vertex 0.17063 -0.000981673 0.00458664
         vertex 0.170598 -0.000981673 0.00460567
         vertex 0.1706 -0.000981673 0.00460235
      endloop
   endfacet
   facet normal -4.33778e-06 -1 1.10184e-06
      outer loop
         vertex 0.170905 -0.000981673 0.00598357
         vertex 0.170902 -0.000981673 0.00597657
         vertex 0.170971 -0.000981673 0.00602078
      endloop
   endfacet
   facet normal -4.33778e-06 -1 1.10184e-06
      outer loop
         vertex 0.170971 -0.000981673 0.00602078
         vertex 0.17092 -0.000981673 0.00600176
         vertex 0.170915 -0.000981673 0.00599623
      endloop
   endfacet
   facet normal -4.33778e-06 -1 1.10184e-06
      outer loop
         vertex 0.170948 -0.000981673 0.00601722
         vertex 0.17094 -0.000981673 0.00601444
         vertex 0.170971 -0.000981673 0.00602078
      endloop
   endfacet
   facet normal -4.33778e-06 -1 1.10184e-06
      outer loop
         vertex 0.170626 -0.000981673 0.00458686
         vertex 0.170605 -0.000981673 0.00459646
         vertex 0.170608 -0.000981673 0.00459395
      endloop
   endfacet
   facet normal -4.33778e-06 -1 1.10184e-06
      outer loop
         vertex 0.17063 -0.000981673 0.00458664
         vertex 0.170596 -0.000981673 0.00460921
         vertex 0.170598 -0.000981673 0.00460567
      endloop
   endfacet
   facet normal -4.33778e-06 -1 1.10184e-06
      outer loop
         vertex 0.170971 -0.000981673 0.00602078
         vertex 0.170899 -0.000981673 0.00596924
         vertex 0.170896 -0.000981673 0.00596163
      endloop
   endfacet
   facet normal -4.33778e-06 -1 1.10184e-06
      outer loop
         vertex 0.170915 -0.000981673 0.00599623
         vertex 0.17091 -0.000981673 0.00599014
         vertex 0.170971 -0.000981673 0.00602078
      endloop
   endfacet
   facet normal -4.33778e-06 -1 1.10184e-06
      outer loop
         vertex 0.170933 -0.000981673 0.00601091
         vertex 0.170926 -0.000981673 0.00600667
         vertex 0.170971 -0.000981673 0.00602078
      endloop
   endfacet
   facet normal -4.33778e-06 -1 1.10184e-06
      outer loop
         vertex 0.170615 -0.000981673 0.00458998
         vertex 0.170619 -0.000981673 0.00458854
         vertex 0.170623 -0.000981673 0.0045875
      endloop
   endfacet
   facet normal -4.33778e-06 -1 1.10184e-06
      outer loop
         vertex 0.170608 -0.000981673 0.00459395
         vertex 0.170611 -0.000981673 0.00459179
         vertex 0.170626 -0.000981673 0.00458686
      endloop
   endfacet
   facet normal -4.33778e-06 -1 1.10184e-06
      outer loop
         vertex 0.17063 -0.000981673 0.00458664
         vertex 0.170594 -0.000981673 0.00461291
         vertex 0.170596 -0.000981673 0.00460921
      endloop
   endfacet
   facet normal -4.33778e-06 -1 1.10184e-06
      outer loop
         vertex 0.170896 -0.000981673 0.00596163
         vertex 0.170907 -0.000981674 0.00461243
         vertex 0.170908 -0.000981674 0.00461623
      endloop
   endfacet
   facet normal -4.33778e-06 -1 1.10184e-06
      outer loop
         vertex 0.170926 -0.000981673 0.00600667
         vertex 0.17092 -0.000981673 0.00600176
         vertex 0.170971 -0.000981673 0.00602078
      endloop
   endfacet
   facet normal -4.33778e-06 -1 1.10184e-06
      outer loop
         vertex 0.170611 -0.000981673 0.00459179
         vertex 0.170615 -0.000981673 0.00458998
         vertex 0.170626 -0.000981673 0.00458686
      endloop
   endfacet
   facet normal -4.33778e-06 -1 1.10184e-06
      outer loop
         vertex 0.1706 -0.000981673 0.00460235
         vertex 0.170602 -0.000981673 0.00459926
         vertex 0.17063 -0.000981673 0.00458664
      endloop
   endfacet
   facet normal -4.33778e-06 -1 1.10184e-06
      outer loop
         vertex 0.172035 -0.000981678 0.00597604
         vertex 0.172006 -0.000981678 0.00600531
         vertex 0.172002 -0.000981678 0.00600593
      endloop
   endfacet
   facet normal -4.33778e-06 -1 1.10184e-06
      outer loop
         vertex 0.172035 -0.000981678 0.00597604
         vertex 0.172023 -0.000981678 0.00599637
         vertex 0.17202 -0.000981678 0.00599888
      endloop
   endfacet
   facet normal -4.33778e-06 -1 1.10184e-06
      outer loop
         vertex 0.172026 -0.000981678 0.00599356
         vertex 0.172033 -0.000981678 0.00598359
         vertex 0.172031 -0.000981678 0.00598714
      endloop
   endfacet
   facet normal -4.33778e-06 -1 1.10184e-06
      outer loop
         vertex 0.172026 -0.000981678 0.00599356
         vertex 0.172035 -0.000981678 0.00597604
         vertex 0.172034 -0.000981678 0.00597988
      endloop
   endfacet
   facet normal -4.33778e-06 -1 1.10184e-06
      outer loop
         vertex 0.170902 -0.000981673 0.00597657
         vertex 0.170899 -0.000981673 0.00596924
         vertex 0.170971 -0.000981673 0.00602078
      endloop
   endfacet
   facet normal -4.33778e-06 -1 1.10184e-06
      outer loop
         vertex 0.170896 -0.000981673 0.00596163
         vertex 0.170875 -0.000981674 0.00458683
         vertex 0.170879 -0.000981674 0.00458743
      endloop
   endfacet
   facet normal -4.33778e-06 -1 1.10184e-06
      outer loop
         vertex 0.170623 -0.000981673 0.0045875
         vertex 0.170626 -0.000981673 0.00458686
         vertex 0.170615 -0.000981673 0.00458998
      endloop
   endfacet
   facet normal -4.33778e-06 -1 1.10184e-06
      outer loop
         vertex 0.17063 -0.000981673 0.00458664
         vertex 0.170593 -0.000981673 0.00461673
         vertex 0.170594 -0.000981673 0.00461291
      endloop
   endfacet
   facet normal -4.33778e-06 -1 1.10184e-06
      outer loop
         vertex 0.171732 -0.000981678 0.00463111
         vertex 0.171732 -0.000981676 0.00599658
         vertex 0.171729 -0.000981676 0.00599382
      endloop
   endfacet
   facet normal -4.33778e-06 -1 1.10184e-06
      outer loop
         vertex 0.171732 -0.000981678 0.00463111
         vertex 0.171749 -0.000981677 0.00600533
         vertex 0.171746 -0.000981677 0.00600432
      endloop
   endfacet
   facet normal -4.33778e-06 -1 1.10184e-06
      outer loop
         vertex 0.172035 -0.000981678 0.00597604
         vertex 0.17201 -0.000981678 0.00600428
         vertex 0.172006 -0.000981678 0.00600531
      endloop
   endfacet
   facet normal -4.33778e-06 -1 1.10184e-06
      outer loop
         vertex 0.172035 -0.000981678 0.00597604
         vertex 0.172017 -0.000981678 0.00600104
         vertex 0.172013 -0.000981678 0.00600285
      endloop
   endfacet
   facet normal -4.33778e-06 -1 1.10184e-06
      outer loop
         vertex 0.172035 -0.000981678 0.00597604
         vertex 0.172026 -0.000981678 0.00599356
         vertex 0.172023 -0.000981678 0.00599637
      endloop
   endfacet
   facet normal -4.33778e-06 -1 1.10184e-06
      outer loop
         vertex 0.172034 -0.000981678 0.00597988
         vertex 0.172033 -0.000981678 0.00598359
         vertex 0.172026 -0.000981678 0.00599356
      endloop
   endfacet
   facet normal -4.33778e-06 -1 1.10184e-06
      outer loop
         vertex 0.171998 -0.000981678 0.00600614
         vertex 0.172035 -0.000981678 0.0059597
         vertex 0.172036 -0.000981678 0.00596814
      endloop
   endfacet
   facet normal -4.33778e-06 -1 1.10184e-06
      outer loop
         vertex 0.171658 -0.000981678 0.004572
         vertex 0.171674 -0.000981678 0.00457363
         vertex 0.171681 -0.000981678 0.00457565
      endloop
   endfacet
   facet normal -4.33778e-06 -1 1.10184e-06
      outer loop
         vertex 0.170896 -0.000981673 0.00596163
         vertex 0.170906 -0.000981674 0.00460876
         vertex 0.170907 -0.000981674 0.00461243
      endloop
   endfacet
   facet normal -4.33778e-06 -1 1.10184e-06
      outer loop
         vertex 0.170896 -0.000981673 0.00596163
         vertex 0.170896 -0.000981674 0.00459617
         vertex 0.170899 -0.000981674 0.00459893
      endloop
   endfacet
   facet normal -4.33778e-06 -1 1.10184e-06
      outer loop
         vertex 0.170896 -0.000981673 0.00596163
         vertex 0.17089 -0.000981674 0.00459159
         vertex 0.170893 -0.000981674 0.00459371
      endloop
   endfacet
   facet normal -4.33778e-06 -1 1.10184e-06
      outer loop
         vertex 0.170896 -0.000981673 0.00596163
         vertex 0.170871 -0.000981674 0.00458664
         vertex 0.170875 -0.000981674 0.00458683
      endloop
   endfacet
   facet normal -4.33778e-06 -1 1.10184e-06
      outer loop
         vertex 0.170602 -0.000981673 0.00459926
         vertex 0.170605 -0.000981673 0.00459646
         vertex 0.17063 -0.000981673 0.00458664
      endloop
   endfacet
   facet normal -4.33778e-06 -1 1.10184e-06
      outer loop
         vertex 0.17063 -0.000981673 0.00458664
         vertex 0.170594 -0.000981673 0.00463305
         vertex 0.170593 -0.000981673 0.0046246
      endloop
   endfacet
   facet normal -4.33778e-06 -1 1.10184e-06
      outer loop
         vertex 0.171732 -0.000981678 0.00463111
         vertex 0.171721 -0.000981676 0.00598038
         vertex 0.17172 -0.000981676 0.0059766
      endloop
   endfacet
   facet normal -4.33778e-06 -1 1.10184e-06
      outer loop
         vertex 0.171729 -0.000981676 0.00599382
         vertex 0.171727 -0.000981676 0.00599079
         vertex 0.171732 -0.000981678 0.00463111
      endloop
   endfacet
   facet normal -4.33778e-06 -1 1.10184e-06
      outer loop
         vertex 0.171732 -0.000981678 0.00463111
         vertex 0.171738 -0.000981677 0.00600115
         vertex 0.171735 -0.000981676 0.00599903
      endloop
   endfacet
   facet normal -4.33778e-06 -1 1.10184e-06
      outer loop
         vertex 0.171746 -0.000981677 0.00600432
         vertex 0.171742 -0.000981677 0.00600292
         vertex 0.171732 -0.000981678 0.00463111
      endloop
   endfacet
   facet normal -4.33778e-06 -1 1.10184e-06
      outer loop
         vertex 0.172013 -0.000981678 0.00600285
         vertex 0.17201 -0.000981678 0.00600428
         vertex 0.172035 -0.000981678 0.00597604
      endloop
   endfacet
   facet normal -4.33778e-06 -1 1.10184e-06
      outer loop
         vertex 0.172031 -0.000981678 0.00598714
         vertex 0.172029 -0.000981678 0.00599047
         vertex 0.172026 -0.000981678 0.00599356
      endloop
   endfacet
   facet normal -4.33778e-06 -1 1.10184e-06
      outer loop
         vertex 0.171998 -0.000981678 0.00600614
         vertex 0.171732 -0.000981678 0.00463111
         vertex 0.172035 -0.000981678 0.0059597
      endloop
   endfacet
   facet normal -4.33778e-06 -1 1.10184e-06
      outer loop
         vertex 0.171658 -0.000981678 0.004572
         vertex 0.171666 -0.000981678 0.00457241
         vertex 0.171674 -0.000981678 0.00457363
      endloop
   endfacet
   facet normal -4.33778e-06 -1 1.10184e-06
      outer loop
         vertex 0.171119 -0.000981674 0.00554002
         vertex 0.171523 -0.000981677 0.00511057
         vertex 0.171268 -0.000981674 0.00597707
      endloop
   endfacet
   facet normal -4.33778e-06 -1 1.10184e-06
      outer loop
         vertex 0.171523 -0.000981677 0.00511057
         vertex 0.171119 -0.000981674 0.00554002
         vertex 0.171398 -0.000981677 0.0046156
      endloop
   endfacet
   facet normal -4.33778e-06 -1 1.10184e-06
      outer loop
         vertex 0.170896 -0.000981673 0.00596163
         vertex 0.170904 -0.000981674 0.00460526
         vertex 0.170906 -0.000981674 0.00460876
      endloop
   endfacet
   facet normal -4.33778e-06 -1 1.10184e-06
      outer loop
         vertex 0.170899 -0.000981674 0.00459893
         vertex 0.170902 -0.000981674 0.00460197
         vertex 0.170896 -0.000981673 0.00596163
      endloop
   endfacet
   facet normal -4.33778e-06 -1 1.10184e-06
      outer loop
         vertex 0.170896 -0.000981673 0.00596163
         vertex 0.170887 -0.000981674 0.00458982
         vertex 0.17089 -0.000981674 0.00459159
      endloop
   endfacet
   facet normal -4.33778e-06 -1 1.10184e-06
      outer loop
         vertex 0.170879 -0.000981674 0.00458743
         vertex 0.170883 -0.000981674 0.00458843
         vertex 0.170896 -0.000981673 0.00596163
      endloop
   endfacet
   facet normal -4.33778e-06 -1 1.10184e-06
      outer loop
         vertex 0.17063 -0.000981673 0.00458664
         vertex 0.170593 -0.000981673 0.00462065
         vertex 0.170593 -0.000981673 0.00461673
      endloop
   endfacet
   facet normal -4.33778e-06 -1 1.10184e-06
      outer loop
         vertex 0.17063 -0.000981673 0.00458664
         vertex 0.170896 -0.000981673 0.00596163
         vertex 0.170594 -0.000981673 0.00463305
      endloop
   endfacet
   facet normal -4.33778e-06 -1 1.10184e-06
      outer loop
         vertex 0.171732 -0.000981678 0.00463111
         vertex 0.171723 -0.000981676 0.00598403
         vertex 0.171721 -0.000981676 0.00598038
      endloop
   endfacet
   facet normal -4.33778e-06 -1 1.10184e-06
      outer loop
         vertex 0.171727 -0.000981676 0.00599079
         vertex 0.171725 -0.000981676 0.00598752
         vertex 0.171732 -0.000981678 0.00463111
      endloop
   endfacet
   facet normal -4.33778e-06 -1 1.10184e-06
      outer loop
         vertex 0.171742 -0.000981677 0.00600292
         vertex 0.171738 -0.000981677 0.00600115
         vertex 0.171732 -0.000981678 0.00463111
      endloop
   endfacet
   facet normal -4.33778e-06 -1 1.10184e-06
      outer loop
         vertex 0.171732 -0.000981678 0.00463111
         vertex 0.171757 -0.000981677 0.00600614
         vertex 0.171753 -0.000981677 0.00600594
      endloop
   endfacet
   facet normal -4.33778e-06 -1 1.10184e-06
      outer loop
         vertex 0.17202 -0.000981678 0.00599888
         vertex 0.172017 -0.000981678 0.00600104
         vertex 0.172035 -0.000981678 0.00597604
      endloop
   endfacet
   facet normal -4.33778e-06 -1 1.10184e-06
      outer loop
         vertex 0.172036 -0.000981678 0.00596814
         vertex 0.172036 -0.000981678 0.00597211
         vertex 0.171998 -0.000981678 0.00600614
      endloop
   endfacet
   facet normal -4.33778e-06 -1 1.10184e-06
      outer loop
         vertex 0.171658 -0.000981678 0.004572
         vertex 0.171714 -0.000981678 0.00459664
         vertex 0.171719 -0.000981678 0.00460271
      endloop
   endfacet
   facet normal -4.33778e-06 -1 1.10184e-06
      outer loop
         vertex 0.171681 -0.000981678 0.00457565
         vertex 0.171689 -0.000981678 0.00457844
         vertex 0.171658 -0.000981678 0.004572
      endloop
   endfacet
   facet normal -4.33778e-06 -1 1.10184e-06
      outer loop
         vertex 0.171523 -0.000981677 0.00511057
         vertex 0.171439 -0.000981677 0.0045869
         vertex 0.171454 -0.000981677 0.0045803
      endloop
   endfacet
   facet normal -4.33778e-06 -1 1.10184e-06
      outer loop
         vertex 0.171523 -0.000981677 0.00511057
         vertex 0.171411 -0.000981677 0.00460465
         vertex 0.171424 -0.000981677 0.00459505
      endloop
   endfacet
   facet normal -4.33778e-06 -1 1.10184e-06
      outer loop
         vertex 0.171119 -0.000981674 0.00554002
         vertex 0.171213 -0.000981674 0.00601245
         vertex 0.171197 -0.000981674 0.00601745
      endloop
   endfacet
   facet normal -4.33778e-06 -1 1.10184e-06
      outer loop
         vertex 0.171119 -0.000981674 0.00554002
         vertex 0.171242 -0.000981674 0.00599767
         vertex 0.171228 -0.000981674 0.00600583
      endloop
   endfacet
   facet normal -4.33778e-06 -1 1.10184e-06
      outer loop
         vertex 0.171398 -0.000981677 0.0046156
         vertex 0.171411 -0.000981677 0.00460465
         vertex 0.171523 -0.000981677 0.00511057
      endloop
   endfacet
   facet normal -4.33778e-06 -1 1.10184e-06
      outer loop
         vertex 0.170902 -0.000981674 0.00460197
         vertex 0.170904 -0.000981674 0.00460526
         vertex 0.170896 -0.000981673 0.00596163
      endloop
   endfacet
   facet normal -4.33778e-06 -1 1.10184e-06
      outer loop
         vertex 0.170883 -0.000981674 0.00458843
         vertex 0.170887 -0.000981674 0.00458982
         vertex 0.170896 -0.000981673 0.00596163
      endloop
   endfacet
   facet normal -4.33778e-06 -1 1.10184e-06
      outer loop
         vertex 0.170593 -0.000981673 0.0046246
         vertex 0.170593 -0.000981673 0.00462065
         vertex 0.17063 -0.000981673 0.00458664
      endloop
   endfacet
   facet normal -4.33778e-06 -1 1.10184e-06
      outer loop
         vertex 0.171725 -0.000981676 0.00598752
         vertex 0.171723 -0.000981676 0.00598403
         vertex 0.171732 -0.000981678 0.00463111
      endloop
   endfacet
   facet normal -4.33778e-06 -1 1.10184e-06
      outer loop
         vertex 0.171753 -0.000981677 0.00600594
         vertex 0.171749 -0.000981677 0.00600533
         vertex 0.171732 -0.000981678 0.00463111
      endloop
   endfacet
   facet normal -4.33778e-06 -1 1.10184e-06
      outer loop
         vertex 0.172036 -0.000981678 0.00597211
         vertex 0.172035 -0.000981678 0.00597604
         vertex 0.171998 -0.000981678 0.00600614
      endloop
   endfacet
   facet normal -4.33778e-06 -1 1.10184e-06
      outer loop
         vertex 0.171658 -0.000981678 0.004572
         vertex 0.171727 -0.000981678 0.00461623
         vertex 0.17173 -0.000981678 0.00462354
      endloop
   endfacet
   facet normal -4.33778e-06 -1 1.10184e-06
      outer loop
         vertex 0.171719 -0.000981678 0.00460271
         vertex 0.171723 -0.000981678 0.00460926
         vertex 0.171658 -0.000981678 0.004572
      endloop
   endfacet
   facet normal -4.33778e-06 -1 1.10184e-06
      outer loop
         vertex 0.171658 -0.000981678 0.004572
         vertex 0.171702 -0.000981678 0.00458622
         vertex 0.171708 -0.000981678 0.00459113
      endloop
   endfacet
   facet normal -4.33778e-06 -1 1.10184e-06
      outer loop
         vertex 0.171689 -0.000981678 0.00457844
         vertex 0.171696 -0.000981678 0.00458198
         vertex 0.171658 -0.000981678 0.004572
      endloop
   endfacet
   facet normal -4.33778e-06 -1 1.10184e-06
      outer loop
         vertex 0.171424 -0.000981677 0.00459505
         vertex 0.171439 -0.000981677 0.0045869
         vertex 0.171523 -0.000981677 0.00511057
      endloop
   endfacet
   facet normal -4.33778e-06 -1 1.10184e-06
      outer loop
         vertex 0.171228 -0.000981674 0.00600583
         vertex 0.171213 -0.000981674 0.00601245
         vertex 0.171119 -0.000981674 0.00554002
      endloop
   endfacet
   facet normal -4.33778e-06 -1 1.10184e-06
      outer loop
         vertex 0.171268 -0.000981674 0.00597707
         vertex 0.171256 -0.000981674 0.00598804
         vertex 0.171119 -0.000981674 0.00554002
      endloop
   endfacet
   facet normal -4.33778e-06 -1 1.10184e-06
      outer loop
         vertex 0.170893 -0.000981674 0.00459371
         vertex 0.170896 -0.000981674 0.00459617
         vertex 0.170896 -0.000981673 0.00596163
      endloop
   endfacet
   facet normal -4.33778e-06 -1 1.10184e-06
      outer loop
         vertex 0.170626 -0.000981673 0.00458686
         vertex 0.17063 -0.000981673 0.00458664
         vertex 0.170605 -0.000981673 0.00459646
      endloop
   endfacet
   facet normal -4.33778e-06 -1 1.10184e-06
      outer loop
         vertex 0.171735 -0.000981676 0.00599903
         vertex 0.171732 -0.000981676 0.00599658
         vertex 0.171732 -0.000981678 0.00463111
      endloop
   endfacet
   facet normal -4.33778e-06 -1 1.10184e-06
      outer loop
         vertex 0.172002 -0.000981678 0.00600593
         vertex 0.171998 -0.000981678 0.00600614
         vertex 0.172035 -0.000981678 0.00597604
      endloop
   endfacet
   facet normal -4.33778e-06 -1 1.10184e-06
      outer loop
         vertex 0.171723 -0.000981678 0.00460926
         vertex 0.171727 -0.000981678 0.00461623
         vertex 0.171658 -0.000981678 0.004572
      endloop
   endfacet
   facet normal -4.33778e-06 -1 1.10184e-06
      outer loop
         vertex 0.171696 -0.000981678 0.00458198
         vertex 0.171702 -0.000981678 0.00458622
         vertex 0.171658 -0.000981678 0.004572
      endloop
   endfacet
   facet normal -4.33778e-06 -1 1.10184e-06
      outer loop
         vertex 0.171454 -0.000981677 0.0045803
         vertex 0.17147 -0.000981677 0.00457532
         vertex 0.171523 -0.000981677 0.00511057
      endloop
   endfacet
   facet normal -4.33778e-06 -1 1.10184e-06
      outer loop
         vertex 0.171256 -0.000981674 0.00598804
         vertex 0.171242 -0.000981674 0.00599767
         vertex 0.171119 -0.000981674 0.00554002
      endloop
   endfacet
   facet normal -4.33778e-06 -1 1.10184e-06
      outer loop
         vertex 0.17063 -0.000981673 0.00458664
         vertex 0.170871 -0.000981674 0.00458664
         vertex 0.170896 -0.000981673 0.00596163
      endloop
   endfacet
   facet normal -4.33778e-06 -1 1.10184e-06
      outer loop
         vertex 0.170971 -0.000981673 0.00602078
         vertex 0.170908 -0.000981674 0.00461623
         vertex 0.171119 -0.000981674 0.00554002
      endloop
   endfacet
   facet normal -4.33778e-06 -1 1.10184e-06
      outer loop
         vertex 0.171998 -0.000981678 0.00600614
         vertex 0.171757 -0.000981677 0.00600614
         vertex 0.171732 -0.000981678 0.00463111
      endloop
   endfacet
   facet normal -4.33778e-06 -1 1.10184e-06
      outer loop
         vertex 0.171708 -0.000981678 0.00459113
         vertex 0.171714 -0.000981678 0.00459664
         vertex 0.171658 -0.000981678 0.004572
      endloop
   endfacet
   facet normal -4.33778e-06 -1 1.10184e-06
      outer loop
         vertex 0.171197 -0.000981674 0.00601745
         vertex 0.171181 -0.000981674 0.00602078
         vertex 0.171119 -0.000981674 0.00554002
      endloop
   endfacet
   facet normal -4.33778e-06 -1 1.10184e-06
      outer loop
         vertex 0.171119 -0.000981674 0.00554002
         vertex 0.171181 -0.000981674 0.00602078
         vertex 0.170971 -0.000981673 0.00602078
      endloop
   endfacet
   facet normal -4.33778e-06 -1 1.10184e-06
      outer loop
         vertex 0.17173 -0.000981678 0.00462354
         vertex 0.171732 -0.000981678 0.00463111
         vertex 0.171658 -0.000981678 0.004572
      endloop
   endfacet
   facet normal -4.33778e-06 -1 1.10184e-06
      outer loop
         vertex 0.171658 -0.000981678 0.004572
         vertex 0.17172 -0.000981676 0.0059766
         vertex 0.171523 -0.000981677 0.00511057
      endloop
   endfacet
   facet normal -4.33778e-06 -1 1.10184e-06
      outer loop
         vertex 0.170896 -0.000981673 0.00596163
         vertex 0.170908 -0.000981674 0.00461623
         vertex 0.170971 -0.000981673 0.00602078
      endloop
   endfacet
   facet normal -4.33778e-06 -1 1.10184e-06
      outer loop
         vertex 0.171523 -0.000981677 0.00511057
         vertex 0.171486 -0.000981677 0.004572
         vertex 0.171658 -0.000981678 0.004572
      endloop
   endfacet
   facet normal -4.33778e-06 -1 1.10184e-06
      outer loop
         vertex 0.17172 -0.000981676 0.0059766
         vertex 0.171658 -0.000981678 0.004572
         vertex 0.171732 -0.000981678 0.00463111
      endloop
   endfacet
   facet normal -4.33778e-06 -1 1.10184e-06
      outer loop
         vertex 0.17147 -0.000981677 0.00457532
         vertex 0.171486 -0.000981677 0.004572
         vertex 0.171523 -0.000981677 0.00511057
      endloop
   endfacet
endsolid 1111. Units = meters