solid 1111. STL generated by ONSHAPE BY PTC INC, 1.216. Units = meters
   facet normal 0 0.0436194 -0.999048
      outer loop
         vertex 0.00221865 0.0241782 -0.0210959
         vertex 0.00273892 0.0239152 -0.0211074
         vertex 0.00271554 0.0238858 -0.0211087
      endloop
   endfacet
   facet normal 0 0.0436194 -0.999048
      outer loop
         vertex 0.00221401 0.0241688 -0.0210963
         vertex 0.00269075 0.02386 -0.0211098
         vertex 0.00265901 0.0238331 -0.021111
      endloop
   endfacet
   facet normal 0 0.0436194 -0.999048
      outer loop
         vertex 0.000949114 0.0236813 -0.0211176
         vertex 0.00068042 0.0240747 -0.0211004
         vertex 0.00079341 0.0240927 -0.0210996
      endloop
   endfacet
   facet normal 0 0.0436194 -0.999048
      outer loop
         vertex 0.00108163 0.0237055 -0.0211165
         vertex 0.000953778 0.0241006 -0.0210993
         vertex 0.00203615 0.0241006 -0.0210993
      endloop
   endfacet
   facet normal 0 0.0436194 -0.999048
      outer loop
         vertex 0.00271384 0.024562 -0.0210791
         vertex 0.00220954 0.0242869 -0.0210911
         vertex 0.00220144 0.0243021 -0.0210905
      endloop
   endfacet
   facet normal 0 0.0436194 -0.999048
      outer loop
         vertex 0.00222205 0.0241871 -0.0210955
         vertex 0.00278046 0.0239857 -0.0211043
         vertex 0.00276174 0.02395 -0.0211058
      endloop
   endfacet
   facet normal 0 0.0436194 -0.999048
      outer loop
         vertex 0.00221865 0.0241782 -0.0210959
         vertex 0.00276174 0.02395 -0.0211058
         vertex 0.00273892 0.0239152 -0.0211074
      endloop
   endfacet
   facet normal 0 0.0436194 -0.999048
      outer loop
         vertex 0.00221401 0.0241688 -0.0210963
         vertex 0.00271554 0.0238858 -0.0211087
         vertex 0.00269075 0.02386 -0.0211098
      endloop
   endfacet
   facet normal 0 0.0436194 -0.999048
      outer loop
         vertex 0.00079341 0.0240927 -0.0210996
         vertex 0.000959307 0.023687 -0.0211173
         vertex 0.000949114 0.0236813 -0.0211176
      endloop
   endfacet
   facet normal 0 0.0436194 -0.999048
      outer loop
         vertex 0.00203615 0.0241006 -0.0210993
         vertex 0.00216688 0.0237055 -0.0211165
         vertex 0.00108163 0.0237055 -0.0211165
      endloop
   endfacet
   facet normal 0 0.0436194 -0.999048
      outer loop
         vertex 0.00127181 0.0229064 -0.0211514
         vertex 0.00113226 0.0234175 -0.0211291
         vertex 0.00263953 0.0234175 -0.0211291
      endloop
   endfacet
   facet normal 0 0.0436194 -0.999048
      outer loop
         vertex 0.00220144 0.0243021 -0.0210905
         vertex 0.00219337 0.0243145 -0.0210899
         vertex 0.00263391 0.0246567 -0.021075
      endloop
   endfacet
   facet normal 0 0.0436194 -0.999048
      outer loop
         vertex 0.00220144 0.0243021 -0.0210905
         vertex 0.0026768 0.0246108 -0.021077
         vertex 0.00271384 0.024562 -0.0210791
      endloop
   endfacet
   facet normal 0 0.0436194 -0.999048
      outer loop
         vertex 0.00222205 0.0241871 -0.0210955
         vertex 0.00279475 0.0240208 -0.0211028
         vertex 0.00278046 0.0239857 -0.0211043
      endloop
   endfacet
   facet normal 0 0.0436194 -0.999048
      outer loop
         vertex 0.00265901 0.0238331 -0.021111
         vertex 0.00220775 0.0241587 -0.0210967
         vertex 0.00221401 0.0241688 -0.0210963
      endloop
   endfacet
   facet normal 0 0.0436194 -0.999048
      outer loop
         vertex 0.00219976 0.0241482 -0.0210972
         vertex 0.00258767 0.0237868 -0.021113
         vertex 0.00254458 0.0237666 -0.0211139
      endloop
   endfacet
   facet normal 0 0.0436194 -0.999048
      outer loop
         vertex 0.000932879 0.023669 -0.0211181
         vertex 0.000597252 0.0240518 -0.0211014
         vertex 0.00068042 0.0240747 -0.0211004
      endloop
   endfacet
   facet normal 0 0.0436194 -0.999048
      outer loop
         vertex 0.00079341 0.0240927 -0.0210996
         vertex 0.000971414 0.0236923 -0.0211171
         vertex 0.000959307 0.023687 -0.0211173
      endloop
   endfacet
   facet normal 0 0.0436194 -0.999048
      outer loop
         vertex 0.00108163 0.0237055 -0.0211165
         vertex 0.00107833 0.0237055 -0.0211165
         vertex 0.000953778 0.0241006 -0.0210993
      endloop
   endfacet
   facet normal 0 0.0436194 -0.999048
      outer loop
         vertex 0.00263953 0.0234175 -0.0211291
         vertex 0.00312423 0.0229064 -0.0211514
         vertex 0.00127181 0.0229064 -0.0211514
      endloop
   endfacet
   facet normal 0 0.0436194 -0.999048
      outer loop
         vertex 0.000449185 0.0231853 -0.0211392
         vertex 0.000920016 0.0234958 -0.0211257
         vertex 0.000928283 0.0234832 -0.0211262
      endloop
   endfacet
   facet normal 0 0.0436194 -0.999048
      outer loop
         vertex 0.000409593 0.023237 -0.021137
         vertex 0.000911809 0.0235111 -0.021125
         vertex 0.000920016 0.0234958 -0.0211257
      endloop
   endfacet
   facet normal 0 0.0436194 -0.999048
      outer loop
         vertex 0.00219337 0.0243145 -0.0210899
         vertex 0.00218529 0.0243248 -0.0210895
         vertex 0.00258463 0.0246999 -0.0210731
      endloop
   endfacet
   facet normal 0 0.0436194 -0.999048
      outer loop
         vertex 0.00271384 0.024562 -0.0210791
         vertex 0.00274523 0.0245105 -0.0210814
         vertex 0.00220954 0.0242869 -0.0210911
      endloop
   endfacet
   facet normal 0 0.0436194 -0.999048
      outer loop
         vertex 0.00271554 0.0238858 -0.0211087
         vertex 0.00221401 0.0241688 -0.0210963
         vertex 0.00221865 0.0241782 -0.0210959
      endloop
   endfacet
   facet normal 0 0.0436194 -0.999048
      outer loop
         vertex 0.00220775 0.0241587 -0.0210967
         vertex 0.00265901 0.0238331 -0.021111
         vertex 0.00263235 0.0238138 -0.0211118
      endloop
   endfacet
   facet normal 0 0.0436194 -0.999048
      outer loop
         vertex 0.00219976 0.0241482 -0.0210972
         vertex 0.00263235 0.0238138 -0.0211118
         vertex 0.00258767 0.0237868 -0.021113
      endloop
   endfacet
   facet normal 0 0.0436194 -0.999048
      outer loop
         vertex 0.0021919 0.0241398 -0.0210976
         vertex 0.00254458 0.0237666 -0.0211139
         vertex 0.00247404 0.023742 -0.0211149
      endloop
   endfacet
   facet normal 0 0.0436194 -0.999048
      outer loop
         vertex 0.00216434 0.0241201 -0.0210984
         vertex 0.00239853 0.0237241 -0.0211157
         vertex 0.00230279 0.023711 -0.0211163
      endloop
   endfacet
   facet normal 0 0.0436194 -0.999048
      outer loop
         vertex 0.000949114 0.0236813 -0.0211176
         vertex 0.000941024 0.0236758 -0.0211178
         vertex 0.00068042 0.0240747 -0.0211004
      endloop
   endfacet
   facet normal 0 0.0436194 -0.999048
      outer loop
         vertex 0.00203615 0.0241006 -0.0210993
         vertex 0.00204705 0.0241004 -0.0210993
         vertex 0.00216688 0.0237055 -0.0211165
      endloop
   endfacet
   facet normal 0 0.0436194 -0.999048
      outer loop
         vertex 0.00106856 0.0229158 -0.021151
         vertex 0.00106861 0.0234194 -0.021129
         vertex 0.00113226 0.0234175 -0.0211291
      endloop
   endfacet
   facet normal 0 0.0436194 -0.999048
      outer loop
         vertex 0.000933611 0.0229346 -0.0211502
         vertex 0.00103744 0.023423 -0.0211289
         vertex 0.00106861 0.0234194 -0.021129
      endloop
   endfacet
   facet normal 0 0.0436194 -0.999048
      outer loop
         vertex 0.000928283 0.0234832 -0.0211262
         vertex 0.000936748 0.0234726 -0.0211267
         vertex 0.000543395 0.0230955 -0.0211432
      endloop
   endfacet
   facet normal 0 0.0436194 -0.999048
      outer loop
         vertex 0.000920016 0.0234958 -0.0211257
         vertex 0.000449185 0.0231853 -0.0211392
         vertex 0.000409593 0.023237 -0.021137
      endloop
   endfacet
   facet normal 0 0.0436194 -0.999048
      outer loop
         vertex 0.00037606 0.0232917 -0.0211346
         vertex 0.000904927 0.0235274 -0.0211243
         vertex 0.000911809 0.0235111 -0.021125
      endloop
   endfacet
   facet normal 0 0.0436194 -0.999048
      outer loop
         vertex 0.00263391 0.0246567 -0.021075
         vertex 0.0026768 0.0246108 -0.021077
         vertex 0.00220144 0.0243021 -0.0210905
      endloop
   endfacet
   facet normal 0 0.0436194 -0.999048
      outer loop
         vertex 0.00274523 0.0245105 -0.0210814
         vertex 0.00277151 0.0244552 -0.0210838
         vertex 0.00221615 0.0242711 -0.0210918
      endloop
   endfacet
   facet normal 0 0.0436194 -0.999048
      outer loop
         vertex 0.00281712 0.024266 -0.0210921
         vertex 0.00222609 0.0242202 -0.0210941
         vertex 0.0022243 0.0242385 -0.0210933
      endloop
   endfacet
   facet normal 0 0.0436194 -0.999048
      outer loop
         vertex 0.00281712 0.024266 -0.0210921
         vertex 0.0028211 0.0241837 -0.0210956
         vertex 0.00222633 0.0242135 -0.0210943
      endloop
   endfacet
   facet normal 0 0.0436194 -0.999048
      outer loop
         vertex 0.000903986 0.0236289 -0.0211199
         vertex 0.000382123 0.0239148 -0.0211074
         vertex 0.000409978 0.0239444 -0.0211061
      endloop
   endfacet
   facet normal 0 0.0436194 -0.999048
      outer loop
         vertex 0.00263235 0.0238138 -0.0211118
         vertex 0.00219976 0.0241482 -0.0210972
         vertex 0.00220775 0.0241587 -0.0210967
      endloop
   endfacet
   facet normal 0 0.0436194 -0.999048
      outer loop
         vertex 0.00247404 0.023742 -0.0211149
         vertex 0.00218375 0.0241326 -0.0210979
         vertex 0.0021919 0.0241398 -0.0210976
      endloop
   endfacet
   facet normal 0 0.0436194 -0.999048
      outer loop
         vertex 0.00230279 0.023711 -0.0211163
         vertex 0.00215223 0.0241145 -0.0210987
         vertex 0.00216434 0.0241201 -0.0210984
      endloop
   endfacet
   facet normal 0 0.0436194 -0.999048
      outer loop
         vertex 0.00079341 0.0240927 -0.0210996
         vertex 0.000985456 0.023697 -0.0211169
         vertex 0.000971414 0.0236923 -0.0211171
      endloop
   endfacet
   facet normal 0 0.0436194 -0.999048
      outer loop
         vertex 0.000953778 0.0241006 -0.0210993
         vertex 0.00100094 0.0237005 -0.0211167
         vertex 0.000985456 0.023697 -0.0211169
      endloop
   endfacet
   facet normal 0 0.0436194 -0.999048
      outer loop
         vertex 0.00107833 0.0237055 -0.0211165
         vertex 0.00102733 0.0237039 -0.0211166
         vertex 0.000953778 0.0241006 -0.0210993
      endloop
   endfacet
   facet normal 0 0.0436194 -0.999048
      outer loop
         vertex 0.00106861 0.0234194 -0.021129
         vertex 0.00106856 0.0229158 -0.021151
         vertex 0.000933611 0.0229346 -0.0211502
      endloop
   endfacet
   facet normal 0 0.0436194 -0.999048
      outer loop
         vertex 0.000928283 0.0234832 -0.0211262
         vertex 0.000494446 0.0231374 -0.0211413
         vertex 0.000449185 0.0231853 -0.0211392
      endloop
   endfacet
   facet normal 0 0.0436194 -0.999048
      outer loop
         vertex 0.000911809 0.0235111 -0.021125
         vertex 0.000409593 0.023237 -0.021137
         vertex 0.00037606 0.0232917 -0.0211346
      endloop
   endfacet
   facet normal 0 0.0436194 -0.999048
      outer loop
         vertex 0.00184885 0.0248936 -0.0210646
         vertex 0.0019884 0.0243768 -0.0210872
         vertex 0.000608885 0.0243768 -0.0210872
      endloop
   endfacet
   facet normal 0 0.0436194 -0.999048
      outer loop
         vertex 0.00218529 0.0243248 -0.0210895
         vertex 0.0021765 0.0243339 -0.0210891
         vertex 0.0025281 0.0247397 -0.0210714
      endloop
   endfacet
   facet normal 0 0.0436194 -0.999048
      outer loop
         vertex 0.00221615 0.0242711 -0.0210918
         vertex 0.00220954 0.0242869 -0.0210911
         vertex 0.00274523 0.0245105 -0.0210814
      endloop
   endfacet
   facet normal 0 0.0436194 -0.999048
      outer loop
         vertex 0.00222633 0.0242135 -0.0210943
         vertex 0.00222609 0.0242202 -0.0210941
         vertex 0.00281712 0.024266 -0.0210921
      endloop
   endfacet
   facet normal 0 0.0436194 -0.999048
      outer loop
         vertex 0.00222584 0.0242049 -0.0210947
         vertex 0.00222633 0.0242135 -0.0210943
         vertex 0.0028211 0.0241837 -0.0210956
      endloop
   endfacet
   facet normal 0 0.0436194 -0.999048
      outer loop
         vertex 0.000899912 0.0236187 -0.0211203
         vertex 0.000338828 0.0238505 -0.0211102
         vertex 0.000358633 0.0238837 -0.0211087
      endloop
   endfacet
   facet normal 0 0.0436194 -0.999048
      outer loop
         vertex 0.000903986 0.0236289 -0.0211199
         vertex 0.000358633 0.0238837 -0.0211087
         vertex 0.000382123 0.0239148 -0.0211074
      endloop
   endfacet
   facet normal 0 0.0436194 -0.999048
      outer loop
         vertex 0.000909378 0.0236393 -0.0211194
         vertex 0.000409978 0.0239444 -0.0211061
         vertex 0.000443286 0.0239728 -0.0211049
      endloop
   endfacet
   facet normal 0 0.0436194 -0.999048
      outer loop
         vertex 0.00254458 0.0237666 -0.0211139
         vertex 0.0021919 0.0241398 -0.0210976
         vertex 0.00219976 0.0241482 -0.0210972
      endloop
   endfacet
   facet normal 0 0.0436194 -0.999048
      outer loop
         vertex 0.00218375 0.0241326 -0.0210979
         vertex 0.00247404 0.023742 -0.0211149
         vertex 0.00239853 0.0237241 -0.0211157
      endloop
   endfacet
   facet normal 0 0.0436194 -0.999048
      outer loop
         vertex 0.00230279 0.023711 -0.0211163
         vertex 0.0021377 0.0241094 -0.0210989
         vertex 0.00215223 0.0241145 -0.0210987
      endloop
   endfacet
   facet normal 0 0.0436194 -0.999048
      outer loop
         vertex 0.00216688 0.0237055 -0.0211165
         vertex 0.0021219 0.0241056 -0.0210991
         vertex 0.0021377 0.0241094 -0.0210989
      endloop
   endfacet
   facet normal 0 0.0436194 -0.999048
      outer loop
         vertex 0.000985456 0.023697 -0.0211169
         vertex 0.00079341 0.0240927 -0.0210996
         vertex 0.000953778 0.0241006 -0.0210993
      endloop
   endfacet
   facet normal 0 0.0436194 -0.999048
      outer loop
         vertex 0.00204705 0.0241004 -0.0210993
         vertex 0.00209915 0.0241025 -0.0210992
         vertex 0.00216688 0.0237055 -0.0211165
      endloop
   endfacet
   facet normal 0 0.0436194 -0.999048
      outer loop
         vertex 0.000933611 0.0229346 -0.0211502
         vertex 0.00101419 0.0234279 -0.0211286
         vertex 0.00103744 0.023423 -0.0211289
      endloop
   endfacet
   facet normal 0 0.0436194 -0.999048
      outer loop
         vertex 0.000822269 0.0229613 -0.021149
         vertex 0.000995108 0.0234338 -0.0211284
         vertex 0.00101419 0.0234279 -0.0211286
      endloop
   endfacet
   facet normal 0 0.0436194 -0.999048
      outer loop
         vertex 0.00037606 0.0232917 -0.0211346
         vertex 0.000347722 0.0233511 -0.021132
         vertex 0.000904927 0.0235274 -0.0211243
      endloop
   endfacet
   facet normal 0 0.0436194 -0.999048
      outer loop
         vertex 0.000347722 0.0233511 -0.021132
         vertex 0.000326491 0.0234107 -0.0211294
         vertex 0.000900004 0.0235432 -0.0211236
      endloop
   endfacet
   facet normal 0 0.0436194 -0.999048
      outer loop
         vertex 0.000309846 0.0234776 -0.0211265
         vertex 0.000298351 0.0235557 -0.0211231
         vertex 0.000894608 0.023579 -0.021122
      endloop
   endfacet
   facet normal 0 0.0436194 -0.999048
      outer loop
         vertex 0.000608885 0.0243768 -0.0210872
         vertex 0.000121082 0.0248936 -0.0210646
         vertex 0.00184885 0.0248936 -0.0210646
      endloop
   endfacet
   facet normal 0 0.0436194 -0.999048
      outer loop
         vertex 0.00217428 0.0248681 -0.0210658
         vertex 0.00230484 0.0248373 -0.0210671
         vertex 0.00211363 0.024367 -0.0210876
      endloop
   endfacet
   facet normal 0 0.0436194 -0.999048
      outer loop
         vertex 0.00258463 0.0246999 -0.0210731
         vertex 0.00263391 0.0246567 -0.021075
         vertex 0.00219337 0.0243145 -0.0210899
      endloop
   endfacet
   facet normal 0 0.0436194 -0.999048
      outer loop
         vertex 0.00277151 0.0244552 -0.0210838
         vertex 0.00279107 0.0244002 -0.0210862
         vertex 0.00222089 0.0242556 -0.0210925
      endloop
   endfacet
   facet normal 0 0.0436194 -0.999048
      outer loop
         vertex 0.00280649 0.0243382 -0.0210889
         vertex 0.0022243 0.0242385 -0.0210933
         vertex 0.00222089 0.0242556 -0.0210925
      endloop
   endfacet
   facet normal 0 0.0436194 -0.999048
      outer loop
         vertex 0.0028211 0.0241837 -0.0210956
         vertex 0.0028207 0.0241737 -0.0210961
         vertex 0.00222584 0.0242049 -0.0210947
      endloop
   endfacet
   facet normal 0 0.0436194 -0.999048
      outer loop
         vertex 0.000899912 0.0236187 -0.0211203
         vertex 0.000322355 0.0238143 -0.0211118
         vertex 0.000338828 0.0238505 -0.0211102
      endloop
   endfacet
   facet normal 0 0.0436194 -0.999048
      outer loop
         vertex 0.000443286 0.0239728 -0.0211049
         vertex 0.000916385 0.0236502 -0.0211189
         vertex 0.000909378 0.0236393 -0.0211194
      endloop
   endfacet
   facet normal 0 0.0436194 -0.999048
      outer loop
         vertex 0.000916385 0.0236502 -0.0211189
         vertex 0.000483701 0.0240002 -0.0211037
         vertex 0.000533732 0.0240267 -0.0211025
      endloop
   endfacet
   facet normal 0 0.0436194 -0.999048
      outer loop
         vertex 0.00239853 0.0237241 -0.0211157
         vertex 0.00217471 0.0241261 -0.0210982
         vertex 0.00218375 0.0241326 -0.0210979
      endloop
   endfacet
   facet normal 0 0.0436194 -0.999048
      outer loop
         vertex 0.0021377 0.0241094 -0.0210989
         vertex 0.00230279 0.023711 -0.0211163
         vertex 0.00216688 0.0237055 -0.0211165
      endloop
   endfacet
   facet normal 0 0.0436194 -0.999048
      outer loop
         vertex 0.00102733 0.0237039 -0.0211166
         vertex 0.00100094 0.0237005 -0.0211167
         vertex 0.000953778 0.0241006 -0.0210993
      endloop
   endfacet
   facet normal 0 0.0436194 -0.999048
      outer loop
         vertex 0.00101419 0.0234279 -0.0211286
         vertex 0.000933611 0.0229346 -0.0211502
         vertex 0.000822269 0.0229613 -0.021149
      endloop
   endfacet
   facet normal 0 0.0436194 -0.999048
      outer loop
         vertex 0.000822269 0.0229613 -0.021149
         vertex 0.000733228 0.0229912 -0.0211477
         vertex 0.000980088 0.0234401 -0.0211281
      endloop
   endfacet
   facet normal 0 0.0436194 -0.999048
      outer loop
         vertex 0.000936748 0.0234726 -0.0211267
         vertex 0.000946088 0.023463 -0.0211271
         vertex 0.000598417 0.0230575 -0.0211448
      endloop
   endfacet
   facet normal 0 0.0436194 -0.999048
      outer loop
         vertex 0.000900004 0.0235432 -0.0211236
         vertex 0.000904927 0.0235274 -0.0211243
         vertex 0.000347722 0.0233511 -0.021132
      endloop
   endfacet
   facet normal 0 0.0436194 -0.999048
      outer loop
         vertex 0.000326491 0.0234107 -0.0211294
         vertex 0.000309846 0.0234776 -0.0211265
         vertex 0.000896464 0.0235606 -0.0211228
      endloop
   endfacet
   facet normal 0 0.0436194 -0.999048
      outer loop
         vertex 0.000298351 0.0235557 -0.0211231
         vertex 0.000894337 0.0235866 -0.0211217
         vertex 0.000894608 0.023579 -0.021122
      endloop
   endfacet
   facet normal 0 0.0436194 -0.999048
      outer loop
         vertex 0.00201701 0.0248872 -0.0210649
         vertex 0.00205922 0.0243753 -0.0210873
         vertex 0.0019884 0.0243768 -0.0210872
      endloop
   endfacet
   facet normal 0 0.0436194 -0.999048
      outer loop
         vertex 0.00217428 0.0248681 -0.0210658
         vertex 0.00209254 0.0243715 -0.0210874
         vertex 0.00205922 0.0243753 -0.0210873
      endloop
   endfacet
   facet normal 0 0.0436194 -0.999048
      outer loop
         vertex 0.00230484 0.0248373 -0.0210671
         vertex 0.00213076 0.0243617 -0.0210879
         vertex 0.00211363 0.024367 -0.0210876
      endloop
   endfacet
   facet normal 0 0.0436194 -0.999048
      outer loop
         vertex 0.00230484 0.0248373 -0.0210671
         vertex 0.00239317 0.0248071 -0.0210684
         vertex 0.00214427 0.024356 -0.0210881
      endloop
   endfacet
   facet normal 0 0.0436194 -0.999048
      outer loop
         vertex 0.00222089 0.0242556 -0.0210925
         vertex 0.00221615 0.0242711 -0.0210918
         vertex 0.00277151 0.0244552 -0.0210838
      endloop
   endfacet
   facet normal 0 0.0436194 -0.999048
      outer loop
         vertex 0.0022243 0.0242385 -0.0210933
         vertex 0.00280649 0.0243382 -0.0210889
         vertex 0.00281712 0.024266 -0.0210921
      endloop
   endfacet
   facet normal 0 0.0436194 -0.999048
      outer loop
         vertex 0.00281417 0.0241019 -0.0210992
         vertex 0.00222441 0.0241959 -0.0210951
         vertex 0.00222584 0.0242049 -0.0210947
      endloop
   endfacet
   facet normal 0 0.0436194 -0.999048
      outer loop
         vertex 0.000309168 0.0237743 -0.0211135
         vertex 0.000899912 0.0236187 -0.0211203
         vertex 0.000896949 0.0236082 -0.0211208
      endloop
   endfacet
   facet normal 0 0.0436194 -0.999048
      outer loop
         vertex 0.000409978 0.0239444 -0.0211061
         vertex 0.000909378 0.0236393 -0.0211194
         vertex 0.000903986 0.0236289 -0.0211199
      endloop
   endfacet
   facet normal 0 0.0436194 -0.999048
      outer loop
         vertex 0.000916385 0.0236502 -0.0211189
         vertex 0.000443286 0.0239728 -0.0211049
         vertex 0.000483701 0.0240002 -0.0211037
      endloop
   endfacet
   facet normal 0 0.0436194 -0.999048
      outer loop
         vertex 0.00279475 0.0240208 -0.0211028
         vertex 0.00222205 0.0241871 -0.0210955
         vertex 0.00222441 0.0241959 -0.0210951
      endloop
   endfacet
   facet normal 0 0.0436194 -0.999048
      outer loop
         vertex 0.00216434 0.0241201 -0.0210984
         vertex 0.00217471 0.0241261 -0.0210982
         vertex 0.00239853 0.0237241 -0.0211157
      endloop
   endfacet
   facet normal 0 0.0436194 -0.999048
      outer loop
         vertex 0.000925053 0.023661 -0.0211185
         vertex 0.000533732 0.0240267 -0.0211025
         vertex 0.000597252 0.0240518 -0.0211014
      endloop
   endfacet
   facet normal 0 0.0436194 -0.999048
      outer loop
         vertex 0.00068042 0.0240747 -0.0211004
         vertex 0.000941024 0.0236758 -0.0211178
         vertex 0.000932879 0.023669 -0.0211181
      endloop
   endfacet
   facet normal 0 0.0436194 -0.999048
      outer loop
         vertex 0.000980088 0.0234401 -0.0211281
         vertex 0.000995108 0.0234338 -0.0211284
         vertex 0.000822269 0.0229613 -0.021149
      endloop
   endfacet
   facet normal 0 0.0436194 -0.999048
      outer loop
         vertex 0.000543395 0.0230955 -0.0211432
         vertex 0.000494446 0.0231374 -0.0211413
         vertex 0.000928283 0.0234832 -0.0211262
      endloop
   endfacet
   facet normal 0 0.0436194 -0.999048
      outer loop
         vertex 0.000894608 0.023579 -0.021122
         vertex 0.000896464 0.0235606 -0.0211228
         vertex 0.000309846 0.0234776 -0.0211265
      endloop
   endfacet
   facet normal 0 0.0436194 -0.999048
      outer loop
         vertex 0.00029379 0.0236492 -0.021119
         vertex 0.000895052 0.0235972 -0.0211213
         vertex 0.000894337 0.0235866 -0.0211217
      endloop
   endfacet
   facet normal 0 0.0436194 -0.999048
      outer loop
         vertex 0.00205922 0.0243753 -0.0210873
         vertex 0.00201701 0.0248872 -0.0210649
         vertex 0.00217428 0.0248681 -0.0210658
      endloop
   endfacet
   facet normal 0 0.0436194 -0.999048
      outer loop
         vertex 0.00214427 0.024356 -0.0210881
         vertex 0.00213076 0.0243617 -0.0210879
         vertex 0.00230484 0.0248373 -0.0210671
      endloop
   endfacet
   facet normal 0 0.0436194 -0.999048
      outer loop
         vertex 0.00222089 0.0242556 -0.0210925
         vertex 0.00279107 0.0244002 -0.0210862
         vertex 0.00280649 0.0243382 -0.0210889
      endloop
   endfacet
   facet normal 0 0.0436194 -0.999048
      outer loop
         vertex 0.00222584 0.0242049 -0.0210947
         vertex 0.0028207 0.0241737 -0.0210961
         vertex 0.00281417 0.0241019 -0.0210992
      endloop
   endfacet
   facet normal 0 0.0436194 -0.999048
      outer loop
         vertex 0.000896949 0.0236082 -0.0211208
         vertex 0.000299574 0.023729 -0.0211155
         vertex 0.000309168 0.0237743 -0.0211135
      endloop
   endfacet
   facet normal 0 0.0436194 -0.999048
      outer loop
         vertex 0.000533732 0.0240267 -0.0211025
         vertex 0.000925053 0.023661 -0.0211185
         vertex 0.000916385 0.0236502 -0.0211189
      endloop
   endfacet
   facet normal 0 0.0436194 -0.999048
      outer loop
         vertex 0.00276174 0.02395 -0.0211058
         vertex 0.00221865 0.0241782 -0.0210959
         vertex 0.00222205 0.0241871 -0.0210955
      endloop
   endfacet
   facet normal 0 0.0436194 -0.999048
      outer loop
         vertex 0.00209915 0.0241025 -0.0210992
         vertex 0.0021219 0.0241056 -0.0210991
         vertex 0.00216688 0.0237055 -0.0211165
      endloop
   endfacet
   facet normal 0 0.0436194 -0.999048
      outer loop
         vertex 0.000733228 0.0229912 -0.0211477
         vertex 0.000967799 0.0234467 -0.0211278
         vertex 0.000980088 0.0234401 -0.0211281
      endloop
   endfacet
   facet normal 0 0.0436194 -0.999048
      outer loop
         vertex 0.000659233 0.0230238 -0.0211463
         vertex 0.000956563 0.0234542 -0.0211275
         vertex 0.000967799 0.0234467 -0.0211278
      endloop
   endfacet
   facet normal 0 0.0436194 -0.999048
      outer loop
         vertex 0.000896464 0.0235606 -0.0211228
         vertex 0.000900004 0.0235432 -0.0211236
         vertex 0.000326491 0.0234107 -0.0211294
      endloop
   endfacet
   facet normal 0 0.0436194 -0.999048
      outer loop
         vertex 0.000894337 0.0235866 -0.0211217
         vertex 0.000298351 0.0235557 -0.0211231
         vertex 0.00029379 0.0236492 -0.021119
      endloop
   endfacet
   facet normal 0 0.0436194 -0.999048
      outer loop
         vertex 0.00211363 0.024367 -0.0210876
         vertex 0.00209254 0.0243715 -0.0210874
         vertex 0.00217428 0.0248681 -0.0210658
      endloop
   endfacet
   facet normal 0 0.0436194 -0.999048
      outer loop
         vertex 0.0025281 0.0247397 -0.0210714
         vertex 0.0021765 0.0243339 -0.0210891
         vertex 0.00216663 0.0243423 -0.0210887
      endloop
   endfacet
   facet normal 0 0.0436194 -0.999048
      outer loop
         vertex 0.00281417 0.0241019 -0.0210992
         vertex 0.00280574 0.0240579 -0.0211011
         vertex 0.00222441 0.0241959 -0.0210951
      endloop
   endfacet
   facet normal 0 0.0436194 -0.999048
      outer loop
         vertex 0.000358633 0.0238837 -0.0211087
         vertex 0.000903986 0.0236289 -0.0211199
         vertex 0.000899912 0.0236187 -0.0211203
      endloop
   endfacet
   facet normal 0 0.0436194 -0.999048
      outer loop
         vertex 0.000597252 0.0240518 -0.0211014
         vertex 0.000932879 0.023669 -0.0211181
         vertex 0.000925053 0.023661 -0.0211185
      endloop
   endfacet
   facet normal 0 0.0436194 -0.999048
      outer loop
         vertex 0.000967799 0.0234467 -0.0211278
         vertex 0.000733228 0.0229912 -0.0211477
         vertex 0.000659233 0.0230238 -0.0211463
      endloop
   endfacet
   facet normal 0 0.0436194 -0.999048
      outer loop
         vertex 0.000946088 0.023463 -0.0211271
         vertex 0.000956563 0.0234542 -0.0211275
         vertex 0.000659233 0.0230238 -0.0211463
      endloop
   endfacet
   facet normal 0 0.0436194 -0.999048
      outer loop
         vertex 0.00029379 0.0236492 -0.021119
         vertex 0.000294349 0.0236764 -0.0211178
         vertex 0.000895052 0.0235972 -0.0211213
      endloop
   endfacet
   facet normal 0 0.0436194 -0.999048
      outer loop
         vertex 0.000299574 0.023729 -0.0211155
         vertex 0.000896949 0.0236082 -0.0211208
         vertex 0.000895052 0.0235972 -0.0211213
      endloop
   endfacet
   facet normal 0 0.0436194 -0.999048
      outer loop
         vertex 0.00239317 0.0248071 -0.0210684
         vertex 0.00215575 0.0243497 -0.0210884
         vertex 0.00214427 0.024356 -0.0210881
      endloop
   endfacet
   facet normal 0 0.0436194 -0.999048
      outer loop
         vertex 0.00246653 0.0247743 -0.0210699
         vertex 0.00216663 0.0243423 -0.0210887
         vertex 0.00215575 0.0243497 -0.0210884
      endloop
   endfacet
   facet normal 0 0.0436194 -0.999048
      outer loop
         vertex 0.0025281 0.0247397 -0.0210714
         vertex 0.00258463 0.0246999 -0.0210731
         vertex 0.00218529 0.0243248 -0.0210895
      endloop
   endfacet
   facet normal 0 0.0436194 -0.999048
      outer loop
         vertex 0.00222441 0.0241959 -0.0210951
         vertex 0.00280574 0.0240579 -0.0211011
         vertex 0.00279475 0.0240208 -0.0211028
      endloop
   endfacet
   facet normal 0 0.0436194 -0.999048
      outer loop
         vertex 0.000659233 0.0230238 -0.0211463
         vertex 0.000598417 0.0230575 -0.0211448
         vertex 0.000946088 0.023463 -0.0211271
      endloop
   endfacet
   facet normal 0 0.0436194 -0.999048
      outer loop
         vertex 0.000895052 0.0235972 -0.0211213
         vertex 0.000294349 0.0236764 -0.0211178
         vertex 0.000299574 0.023729 -0.0211155
      endloop
   endfacet
   facet normal 0 0.0436194 -0.999048
      outer loop
         vertex 0.00215575 0.0243497 -0.0210884
         vertex 0.00239317 0.0248071 -0.0210684
         vertex 0.00246653 0.0247743 -0.0210699
      endloop
   endfacet
   facet normal 0 0.0436194 -0.999048
      outer loop
         vertex 0.000309168 0.0237743 -0.0211135
         vertex 0.000322355 0.0238143 -0.0211118
         vertex 0.000899912 0.0236187 -0.0211203
      endloop
   endfacet
   facet normal 0 0.0436194 -0.999048
      outer loop
         vertex 0.000598417 0.0230575 -0.0211448
         vertex 0.000543395 0.0230955 -0.0211432
         vertex 0.000936748 0.0234726 -0.0211267
      endloop
   endfacet
   facet normal 0 0.0436194 -0.999048
      outer loop
         vertex 0.00216663 0.0243423 -0.0210887
         vertex 0.00246653 0.0247743 -0.0210699
         vertex 0.0025281 0.0247397 -0.0210714
      endloop
   endfacet
   facet normal 0 0.0436194 -0.999048
      outer loop
         vertex 0.00184885 0.0248936 -0.0210646
         vertex 0.00201701 0.0248872 -0.0210649
         vertex 0.0019884 0.0243768 -0.0210872
      endloop
   endfacet
   facet normal 0 0.0436194 -0.999048
      outer loop
         vertex 0.00127181 0.0229064 -0.0211514
         vertex 0.00106856 0.0229158 -0.021151
         vertex 0.00113226 0.0234175 -0.0211291
      endloop
   endfacet
endsolid 1111. Units = meters