solid 1111. STL generated by ONSHAPE BY PTC INC, 1.216. Units = meters
   facet normal 0 -0.707107 0.707107
      outer loop
         vertex 0.0116532 -0.00182103 -0.01745
         vertex 0.0118099 -0.00182103 -0.0174415
         vertex 0.0117883 -0.00162103 -0.0172427
      endloop
   endfacet
   facet normal -0.0764517 -0.707107 0.702962
      outer loop
         vertex 0.0118099 -0.00182103 -0.0174415
         vertex 0.0119649 -0.00182103 -0.0174161
         vertex 0.0119219 -0.00162103 -0.0172208
      endloop
   endfacet
   facet normal -0.152007 -0.707107 0.690575
      outer loop
         vertex 0.0119649 -0.00182103 -0.0174161
         vertex 0.0121161 -0.00182103 -0.0173741
         vertex 0.0120523 -0.00162103 -0.0171846
      endloop
   endfacet
   facet normal -0.22578 -0.707107 0.670092
      outer loop
         vertex 0.0121161 -0.00182103 -0.0173741
         vertex 0.012262 -0.00182103 -0.017316
         vertex 0.012178 -0.00162103 -0.0171345
      endloop
   endfacet
   facet normal -0.296906 -0.707107 0.641753
      outer loop
         vertex 0.012262 -0.00182103 -0.017316
         vertex 0.0124007 -0.00182103 -0.0172424
         vertex 0.0122976 -0.00162103 -0.0170711
      endloop
   endfacet
   facet normal -0.364552 -0.707107 0.60589
      outer loop
         vertex 0.0124007 -0.00182103 -0.0172424
         vertex 0.0125307 -0.00182103 -0.0171543
         vertex 0.0124096 -0.00162103 -0.0169951
      endloop
   endfacet
   facet normal -0.427923 -0.707107 0.562923
      outer loop
         vertex 0.0125307 -0.00182103 -0.0171543
         vertex 0.0126503 -0.00182103 -0.0170527
         vertex 0.0125128 -0.00162103 -0.0169075
      endloop
   endfacet
   facet normal -0.486277 -0.707107 0.513356
      outer loop
         vertex 0.0126503 -0.00182103 -0.0170527
         vertex 0.0127583 -0.00182103 -0.0169387
         vertex 0.0126059 -0.00162103 -0.0168092
      endloop
   endfacet
   facet normal -0.53893 -0.707107 0.457771
      outer loop
         vertex 0.0127583 -0.00182103 -0.0169387
         vertex 0.0128533 -0.00182103 -0.0168137
         vertex 0.0126878 -0.00162103 -0.0167015
      endloop
   endfacet
   facet normal -0.585265 -0.707107 0.396819
      outer loop
         vertex 0.0128533 -0.00182103 -0.0168137
         vertex 0.0129342 -0.00182103 -0.0166792
         vertex 0.0127575 -0.00162103 -0.0165855
      endloop
   endfacet
   facet normal -0.624737 -0.707107 0.331215
      outer loop
         vertex 0.0129342 -0.00182103 -0.0166792
         vertex 0.0130002 -0.00182103 -0.0165367
         vertex 0.0128144 -0.00162103 -0.0164627
      endloop
   endfacet
   facet normal -0.656886 -0.707107 0.261727
      outer loop
         vertex 0.0130002 -0.00182103 -0.0165367
         vertex 0.0130503 -0.00182103 -0.0163879
         vertex 0.0128576 -0.00162103 -0.0163344
      endloop
   endfacet
   facet normal -0.681333 -0.707107 0.189171
      outer loop
         vertex 0.0130503 -0.00182103 -0.0163879
         vertex 0.0130841 -0.00182103 -0.0162346
         vertex 0.0128867 -0.00162103 -0.0162022
      endloop
   endfacet
   facet normal -0.697792 -0.707107 0.114397
      outer loop
         vertex 0.0130841 -0.00182103 -0.0162346
         vertex 0.013101 -0.00182103 -0.0160785
         vertex 0.0129013 -0.00162103 -0.0160677
      endloop
   endfacet
   facet normal -0.70607 -0.707107 0.038282
      outer loop
         vertex 0.013101 -0.00182103 -0.0160785
         vertex 0.013101 -0.00182103 -0.0159215
         vertex 0.0129013 -0.00162103 -0.0159323
      endloop
   endfacet
   facet normal -0.70607 -0.707107 -0.038282
      outer loop
         vertex 0.013101 -0.00182103 -0.0159215
         vertex 0.0130841 -0.00182103 -0.0157654
         vertex 0.0128867 -0.00162103 -0.0157978
      endloop
   endfacet
   facet normal -0.697792 -0.707107 -0.114397
      outer loop
         vertex 0.0130841 -0.00182103 -0.0157654
         vertex 0.0130503 -0.00182103 -0.0156121
         vertex 0.0128576 -0.00162103 -0.0156656
      endloop
   endfacet
   facet normal -0.681333 -0.707107 -0.189171
      outer loop
         vertex 0.0130503 -0.00182103 -0.0156121
         vertex 0.0130002 -0.00182103 -0.0154633
         vertex 0.0128144 -0.00162103 -0.0155373
      endloop
   endfacet
   facet normal -0.656886 -0.707107 -0.261727
      outer loop
         vertex 0.0130002 -0.00182103 -0.0154633
         vertex 0.0129342 -0.00182103 -0.0153208
         vertex 0.0127575 -0.00162103 -0.0154145
      endloop
   endfacet
   facet normal -0.624737 -0.707107 -0.331215
      outer loop
         vertex 0.0129342 -0.00182103 -0.0153208
         vertex 0.0128533 -0.00182103 -0.0151863
         vertex 0.0126878 -0.00162103 -0.0152985
      endloop
   endfacet
   facet normal -0.585265 -0.707107 -0.396819
      outer loop
         vertex 0.0128533 -0.00182103 -0.0151863
         vertex 0.0127583 -0.00182103 -0.0150613
         vertex 0.0126059 -0.00162103 -0.0151908
      endloop
   endfacet
   facet normal -0.53893 -0.707107 -0.457771
      outer loop
         vertex 0.0127583 -0.00182103 -0.0150613
         vertex 0.0126503 -0.00182103 -0.0149473
         vertex 0.0125128 -0.00162103 -0.0150925
      endloop
   endfacet
   facet normal -0.486277 -0.707107 -0.513356
      outer loop
         vertex 0.0126503 -0.00182103 -0.0149473
         vertex 0.0125307 -0.00182103 -0.0148457
         vertex 0.0124096 -0.00162103 -0.0150049
      endloop
   endfacet
   facet normal -0.427923 -0.707107 -0.562923
      outer loop
         vertex 0.0125307 -0.00182103 -0.0148457
         vertex 0.0124007 -0.00182103 -0.0147576
         vertex 0.0122976 -0.00162103 -0.0149289
      endloop
   endfacet
   facet normal -0.364552 -0.707107 -0.60589
      outer loop
         vertex 0.0124007 -0.00182103 -0.0147576
         vertex 0.012262 -0.00182103 -0.014684
         vertex 0.012178 -0.00162103 -0.0148655
      endloop
   endfacet
   facet normal -0.296906 -0.707107 -0.641753
      outer loop
         vertex 0.012262 -0.00182103 -0.014684
         vertex 0.0121161 -0.00182103 -0.0146259
         vertex 0.0120523 -0.00162103 -0.0148154
      endloop
   endfacet
   facet normal -0.22578 -0.707107 -0.670092
      outer loop
         vertex 0.0121161 -0.00182103 -0.0146259
         vertex 0.0119649 -0.00182103 -0.0145839
         vertex 0.0119219 -0.00162103 -0.0147792
      endloop
   endfacet
   facet normal -0.152007 -0.707107 -0.690575
      outer loop
         vertex 0.0119649 -0.00182103 -0.0145839
         vertex 0.0118099 -0.00182103 -0.0145585
         vertex 0.0117883 -0.00162103 -0.0147573
      endloop
   endfacet
   facet normal -0.0764517 -0.707107 -0.702962
      outer loop
         vertex 0.0118099 -0.00182103 -0.0145585
         vertex 0.0116532 -0.00182103 -0.01455
         vertex 0.0116532 -0.00162103 -0.01475
      endloop
   endfacet
   facet normal 1.47196e-16 -0.707107 -0.707107
      outer loop
         vertex 0.0116532 -0.00182103 -0.01455
         vertex 0.0114964 -0.00182103 -0.0145585
         vertex 0.011518 -0.00162103 -0.0147573
      endloop
   endfacet
   facet normal 0.0764517 -0.707107 -0.702962
      outer loop
         vertex 0.0114964 -0.00182103 -0.0145585
         vertex 0.0113414 -0.00182103 -0.0145839
         vertex 0.0113844 -0.00162103 -0.0147792
      endloop
   endfacet
   facet normal 0.152007 -0.707107 -0.690575
      outer loop
         vertex 0.0113414 -0.00182103 -0.0145839
         vertex 0.0111902 -0.00182103 -0.0146259
         vertex 0.011254 -0.00162103 -0.0148154
      endloop
   endfacet
   facet normal 0.22578 -0.707107 -0.670092
      outer loop
         vertex 0.0111902 -0.00182103 -0.0146259
         vertex 0.0110443 -0.00182103 -0.014684
         vertex 0.0111283 -0.00162103 -0.0148655
      endloop
   endfacet
   facet normal 0.296906 -0.707107 -0.641753
      outer loop
         vertex 0.0110443 -0.00182103 -0.014684
         vertex 0.0109056 -0.00182103 -0.0147576
         vertex 0.0110087 -0.00162103 -0.0149289
      endloop
   endfacet
   facet normal 0.364552 -0.707107 -0.60589
      outer loop
         vertex 0.0109056 -0.00182103 -0.0147576
         vertex 0.0107757 -0.00182103 -0.0148457
         vertex 0.0108967 -0.00162103 -0.0150049
      endloop
   endfacet
   facet normal 0.427923 -0.707107 -0.562923
      outer loop
         vertex 0.0107757 -0.00182103 -0.0148457
         vertex 0.010656 -0.00182103 -0.0149473
         vertex 0.0107935 -0.00162103 -0.0150925
      endloop
   endfacet
   facet normal 0.486277 -0.707107 -0.513356
      outer loop
         vertex 0.010656 -0.00182103 -0.0149473
         vertex 0.010548 -0.00182103 -0.0150613
         vertex 0.0107005 -0.00162103 -0.0151908
      endloop
   endfacet
   facet normal 0.53893 -0.707107 -0.457771
      outer loop
         vertex 0.010548 -0.00182103 -0.0150613
         vertex 0.010453 -0.00182103 -0.0151863
         vertex 0.0106185 -0.00162103 -0.0152985
      endloop
   endfacet
   facet normal 0.585265 -0.707107 -0.396819
      outer loop
         vertex 0.010453 -0.00182103 -0.0151863
         vertex 0.0103721 -0.00182103 -0.0153208
         vertex 0.0105488 -0.00162103 -0.0154145
      endloop
   endfacet
   facet normal 0.624737 -0.707107 -0.331215
      outer loop
         vertex 0.0103721 -0.00182103 -0.0153208
         vertex 0.0103061 -0.00182103 -0.0154633
         vertex 0.0104919 -0.00162103 -0.0155373
      endloop
   endfacet
   facet normal 0.656886 -0.707107 -0.261727
      outer loop
         vertex 0.0103061 -0.00182103 -0.0154633
         vertex 0.010256 -0.00182103 -0.0156121
         vertex 0.0104487 -0.00162103 -0.0156656
      endloop
   endfacet
   facet normal 0.681333 -0.707107 -0.189171
      outer loop
         vertex 0.010256 -0.00182103 -0.0156121
         vertex 0.0102223 -0.00182103 -0.0157654
         vertex 0.0104196 -0.00162103 -0.0157978
      endloop
   endfacet
   facet normal 0.697792 -0.707107 -0.114397
      outer loop
         vertex 0.0102223 -0.00182103 -0.0157654
         vertex 0.0102053 -0.00182103 -0.0159215
         vertex 0.010405 -0.00162103 -0.0159323
      endloop
   endfacet
   facet normal 0.70607 -0.707107 -0.038282
      outer loop
         vertex 0.0102053 -0.00182103 -0.0159215
         vertex 0.0102053 -0.00182103 -0.0160785
         vertex 0.010405 -0.00162103 -0.0160677
      endloop
   endfacet
   facet normal 0.70607 -0.707107 0.038282
      outer loop
         vertex 0.0102053 -0.00182103 -0.0160785
         vertex 0.0102223 -0.00182103 -0.0162346
         vertex 0.0104196 -0.00162103 -0.0162022
      endloop
   endfacet
   facet normal 0.697792 -0.707107 0.114397
      outer loop
         vertex 0.0102223 -0.00182103 -0.0162346
         vertex 0.010256 -0.00182103 -0.0163879
         vertex 0.0104487 -0.00162103 -0.0163344
      endloop
   endfacet
   facet normal 0.681333 -0.707107 0.189171
      outer loop
         vertex 0.010256 -0.00182103 -0.0163879
         vertex 0.0103061 -0.00182103 -0.0165367
         vertex 0.0104919 -0.00162103 -0.0164627
      endloop
   endfacet
   facet normal 0.656886 -0.707107 0.261727
      outer loop
         vertex 0.0103061 -0.00182103 -0.0165367
         vertex 0.0103721 -0.00182103 -0.0166792
         vertex 0.0105488 -0.00162103 -0.0165855
      endloop
   endfacet
   facet normal 0.624737 -0.707107 0.331215
      outer loop
         vertex 0.0103721 -0.00182103 -0.0166792
         vertex 0.010453 -0.00182103 -0.0168137
         vertex 0.0106185 -0.00162103 -0.0167015
      endloop
   endfacet
   facet normal 0.585265 -0.707107 0.396819
      outer loop
         vertex 0.010453 -0.00182103 -0.0168137
         vertex 0.010548 -0.00182103 -0.0169387
         vertex 0.0107005 -0.00162103 -0.0168092
      endloop
   endfacet
   facet normal 0.53893 -0.707107 0.457771
      outer loop
         vertex 0.010548 -0.00182103 -0.0169387
         vertex 0.010656 -0.00182103 -0.0170527
         vertex 0.0107935 -0.00162103 -0.0169075
      endloop
   endfacet
   facet normal 0.486277 -0.707107 0.513356
      outer loop
         vertex 0.010656 -0.00182103 -0.0170527
         vertex 0.0107757 -0.00182103 -0.0171543
         vertex 0.0108967 -0.00162103 -0.0169951
      endloop
   endfacet
   facet normal 0.427923 -0.707107 0.562923
      outer loop
         vertex 0.0107757 -0.00182103 -0.0171543
         vertex 0.0109056 -0.00182103 -0.0172424
         vertex 0.0110087 -0.00162103 -0.0170711
      endloop
   endfacet
   facet normal 0.364552 -0.707107 0.60589
      outer loop
         vertex 0.0109056 -0.00182103 -0.0172424
         vertex 0.0110443 -0.00182103 -0.017316
         vertex 0.0111283 -0.00162103 -0.0171345
      endloop
   endfacet
   facet normal 0.296906 -0.707107 0.641753
      outer loop
         vertex 0.0110443 -0.00182103 -0.017316
         vertex 0.0111902 -0.00182103 -0.0173741
         vertex 0.011254 -0.00162103 -0.0171846
      endloop
   endfacet
   facet normal 0.22578 -0.707107 0.670092
      outer loop
         vertex 0.0111902 -0.00182103 -0.0173741
         vertex 0.0113414 -0.00182103 -0.0174161
         vertex 0.0113844 -0.00162103 -0.0172208
      endloop
   endfacet
   facet normal 0.152007 -0.707107 0.690575
      outer loop
         vertex 0.0113414 -0.00182103 -0.0174161
         vertex 0.0114964 -0.00182103 -0.0174415
         vertex 0.011518 -0.00162103 -0.0172427
      endloop
   endfacet
   facet normal 0.0764517 -0.707107 0.702962
      outer loop
         vertex 0.0114964 -0.00182103 -0.0174415
         vertex 0.0116532 -0.00182103 -0.01745
         vertex 0.0116532 -0.00162103 -0.01725
      endloop
   endfacet
   facet normal 0 -0.707107 0.707107
      outer loop
         vertex 0.0116532 -0.00162103 -0.01725
         vertex 0.011518 -0.00162103 -0.0172427
         vertex 0.0114964 -0.00182103 -0.0174415
      endloop
   endfacet
   facet normal 0.0764517 -0.707107 0.702962
      outer loop
         vertex 0.011518 -0.00162103 -0.0172427
         vertex 0.0113844 -0.00162103 -0.0172208
         vertex 0.0113414 -0.00182103 -0.0174161
      endloop
   endfacet
   facet normal 0.152007 -0.707107 0.690575
      outer loop
         vertex 0.0113844 -0.00162103 -0.0172208
         vertex 0.011254 -0.00162103 -0.0171846
         vertex 0.0111902 -0.00182103 -0.0173741
      endloop
   endfacet
   facet normal 0.22578 -0.707107 0.670092
      outer loop
         vertex 0.011254 -0.00162103 -0.0171846
         vertex 0.0111283 -0.00162103 -0.0171345
         vertex 0.0110443 -0.00182103 -0.017316
      endloop
   endfacet
   facet normal 0.296906 -0.707107 0.641753
      outer loop
         vertex 0.0111283 -0.00162103 -0.0171345
         vertex 0.0110087 -0.00162103 -0.0170711
         vertex 0.0109056 -0.00182103 -0.0172424
      endloop
   endfacet
   facet normal 0.364552 -0.707107 0.60589
      outer loop
         vertex 0.0110087 -0.00162103 -0.0170711
         vertex 0.0108967 -0.00162103 -0.0169951
         vertex 0.0107757 -0.00182103 -0.0171543
      endloop
   endfacet
   facet normal 0.427923 -0.707107 0.562923
      outer loop
         vertex 0.0108967 -0.00162103 -0.0169951
         vertex 0.0107935 -0.00162103 -0.0169075
         vertex 0.010656 -0.00182103 -0.0170527
      endloop
   endfacet
   facet normal 0.486277 -0.707107 0.513356
      outer loop
         vertex 0.0107935 -0.00162103 -0.0169075
         vertex 0.0107005 -0.00162103 -0.0168092
         vertex 0.010548 -0.00182103 -0.0169387
      endloop
   endfacet
   facet normal 0.53893 -0.707107 0.457771
      outer loop
         vertex 0.0107005 -0.00162103 -0.0168092
         vertex 0.0106185 -0.00162103 -0.0167015
         vertex 0.010453 -0.00182103 -0.0168137
      endloop
   endfacet
   facet normal 0.585265 -0.707107 0.396819
      outer loop
         vertex 0.0106185 -0.00162103 -0.0167015
         vertex 0.0105488 -0.00162103 -0.0165855
         vertex 0.0103721 -0.00182103 -0.0166792
      endloop
   endfacet
   facet normal 0.624737 -0.707107 0.331215
      outer loop
         vertex 0.0105488 -0.00162103 -0.0165855
         vertex 0.0104919 -0.00162103 -0.0164627
         vertex 0.0103061 -0.00182103 -0.0165367
      endloop
   endfacet
   facet normal 0.656886 -0.707107 0.261727
      outer loop
         vertex 0.0104919 -0.00162103 -0.0164627
         vertex 0.0104487 -0.00162103 -0.0163344
         vertex 0.010256 -0.00182103 -0.0163879
      endloop
   endfacet
   facet normal 0.681333 -0.707107 0.189171
      outer loop
         vertex 0.0104487 -0.00162103 -0.0163344
         vertex 0.0104196 -0.00162103 -0.0162022
         vertex 0.0102223 -0.00182103 -0.0162346
      endloop
   endfacet
   facet normal 0.697792 -0.707107 0.114397
      outer loop
         vertex 0.0104196 -0.00162103 -0.0162022
         vertex 0.010405 -0.00162103 -0.0160677
         vertex 0.0102053 -0.00182103 -0.0160785
      endloop
   endfacet
   facet normal 0.70607 -0.707107 0.038282
      outer loop
         vertex 0.010405 -0.00162103 -0.0160677
         vertex 0.010405 -0.00162103 -0.0159323
         vertex 0.0102053 -0.00182103 -0.0159215
      endloop
   endfacet
   facet normal 0.70607 -0.707107 -0.038282
      outer loop
         vertex 0.010405 -0.00162103 -0.0159323
         vertex 0.0104196 -0.00162103 -0.0157978
         vertex 0.0102223 -0.00182103 -0.0157654
      endloop
   endfacet
   facet normal 0.697792 -0.707107 -0.114397
      outer loop
         vertex 0.0104196 -0.00162103 -0.0157978
         vertex 0.0104487 -0.00162103 -0.0156656
         vertex 0.010256 -0.00182103 -0.0156121
      endloop
   endfacet
   facet normal 0.681333 -0.707107 -0.189171
      outer loop
         vertex 0.0104487 -0.00162103 -0.0156656
         vertex 0.0104919 -0.00162103 -0.0155373
         vertex 0.0103061 -0.00182103 -0.0154633
      endloop
   endfacet
   facet normal 0.656886 -0.707107 -0.261727
      outer loop
         vertex 0.0104919 -0.00162103 -0.0155373
         vertex 0.0105488 -0.00162103 -0.0154145
         vertex 0.0103721 -0.00182103 -0.0153208
      endloop
   endfacet
   facet normal 0.624737 -0.707107 -0.331215
      outer loop
         vertex 0.0105488 -0.00162103 -0.0154145
         vertex 0.0106185 -0.00162103 -0.0152985
         vertex 0.010453 -0.00182103 -0.0151863
      endloop
   endfacet
   facet normal 0.585265 -0.707107 -0.396819
      outer loop
         vertex 0.0106185 -0.00162103 -0.0152985
         vertex 0.0107005 -0.00162103 -0.0151908
         vertex 0.010548 -0.00182103 -0.0150613
      endloop
   endfacet
   facet normal 0.53893 -0.707107 -0.457771
      outer loop
         vertex 0.0107005 -0.00162103 -0.0151908
         vertex 0.0107935 -0.00162103 -0.0150925
         vertex 0.010656 -0.00182103 -0.0149473
      endloop
   endfacet
   facet normal 0.486277 -0.707107 -0.513356
      outer loop
         vertex 0.0107935 -0.00162103 -0.0150925
         vertex 0.0108967 -0.00162103 -0.0150049
         vertex 0.0107757 -0.00182103 -0.0148457
      endloop
   endfacet
   facet normal 0.427923 -0.707107 -0.562923
      outer loop
         vertex 0.0108967 -0.00162103 -0.0150049
         vertex 0.0110087 -0.00162103 -0.0149289
         vertex 0.0109056 -0.00182103 -0.0147576
      endloop
   endfacet
   facet normal 0.364552 -0.707107 -0.60589
      outer loop
         vertex 0.0110087 -0.00162103 -0.0149289
         vertex 0.0111283 -0.00162103 -0.0148655
         vertex 0.0110443 -0.00182103 -0.014684
      endloop
   endfacet
   facet normal 0.296906 -0.707107 -0.641753
      outer loop
         vertex 0.0111283 -0.00162103 -0.0148655
         vertex 0.011254 -0.00162103 -0.0148154
         vertex 0.0111902 -0.00182103 -0.0146259
      endloop
   endfacet
   facet normal 0.22578 -0.707107 -0.670092
      outer loop
         vertex 0.011254 -0.00162103 -0.0148154
         vertex 0.0113844 -0.00162103 -0.0147792
         vertex 0.0113414 -0.00182103 -0.0145839
      endloop
   endfacet
   facet normal 0.152007 -0.707107 -0.690575
      outer loop
         vertex 0.0113844 -0.00162103 -0.0147792
         vertex 0.011518 -0.00162103 -0.0147573
         vertex 0.0114964 -0.00182103 -0.0145585
      endloop
   endfacet
   facet normal 0.0764517 -0.707107 -0.702962
      outer loop
         vertex 0.011518 -0.00162103 -0.0147573
         vertex 0.0116532 -0.00162103 -0.01475
         vertex 0.0116532 -0.00182103 -0.01455
      endloop
   endfacet
   facet normal 1.47196e-16 -0.707107 -0.707107
      outer loop
         vertex 0.0116532 -0.00162103 -0.01475
         vertex 0.0117883 -0.00162103 -0.0147573
         vertex 0.0118099 -0.00182103 -0.0145585
      endloop
   endfacet
   facet normal -0.0764517 -0.707107 -0.702962
      outer loop
         vertex 0.0117883 -0.00162103 -0.0147573
         vertex 0.0119219 -0.00162103 -0.0147792
         vertex 0.0119649 -0.00182103 -0.0145839
      endloop
   endfacet
   facet normal -0.152007 -0.707107 -0.690575
      outer loop
         vertex 0.0119219 -0.00162103 -0.0147792
         vertex 0.0120523 -0.00162103 -0.0148154
         vertex 0.0121161 -0.00182103 -0.0146259
      endloop
   endfacet
   facet normal -0.22578 -0.707107 -0.670092
      outer loop
         vertex 0.0120523 -0.00162103 -0.0148154
         vertex 0.012178 -0.00162103 -0.0148655
         vertex 0.012262 -0.00182103 -0.014684
      endloop
   endfacet
   facet normal -0.296906 -0.707107 -0.641753
      outer loop
         vertex 0.012178 -0.00162103 -0.0148655
         vertex 0.0122976 -0.00162103 -0.0149289
         vertex 0.0124007 -0.00182103 -0.0147576
      endloop
   endfacet
   facet normal -0.364552 -0.707107 -0.60589
      outer loop
         vertex 0.0122976 -0.00162103 -0.0149289
         vertex 0.0124096 -0.00162103 -0.0150049
         vertex 0.0125307 -0.00182103 -0.0148457
      endloop
   endfacet
   facet normal -0.427923 -0.707107 -0.562923
      outer loop
         vertex 0.0124096 -0.00162103 -0.0150049
         vertex 0.0125128 -0.00162103 -0.0150925
         vertex 0.0126503 -0.00182103 -0.0149473
      endloop
   endfacet
   facet normal -0.486277 -0.707107 -0.513356
      outer loop
         vertex 0.0125128 -0.00162103 -0.0150925
         vertex 0.0126059 -0.00162103 -0.0151908
         vertex 0.0127583 -0.00182103 -0.0150613
      endloop
   endfacet
   facet normal -0.53893 -0.707107 -0.457771
      outer loop
         vertex 0.0126059 -0.00162103 -0.0151908
         vertex 0.0126878 -0.00162103 -0.0152985
         vertex 0.0128533 -0.00182103 -0.0151863
      endloop
   endfacet
   facet normal -0.585265 -0.707107 -0.396819
      outer loop
         vertex 0.0126878 -0.00162103 -0.0152985
         vertex 0.0127575 -0.00162103 -0.0154145
         vertex 0.0129342 -0.00182103 -0.0153208
      endloop
   endfacet
   facet normal -0.624737 -0.707107 -0.331215
      outer loop
         vertex 0.0127575 -0.00162103 -0.0154145
         vertex 0.0128144 -0.00162103 -0.0155373
         vertex 0.0130002 -0.00182103 -0.0154633
      endloop
   endfacet
   facet normal -0.656886 -0.707107 -0.261727
      outer loop
         vertex 0.0128144 -0.00162103 -0.0155373
         vertex 0.0128576 -0.00162103 -0.0156656
         vertex 0.0130503 -0.00182103 -0.0156121
      endloop
   endfacet
   facet normal -0.681333 -0.707107 -0.189171
      outer loop
         vertex 0.0128576 -0.00162103 -0.0156656
         vertex 0.0128867 -0.00162103 -0.0157978
         vertex 0.0130841 -0.00182103 -0.0157654
      endloop
   endfacet
   facet normal -0.697792 -0.707107 -0.114397
      outer loop
         vertex 0.0128867 -0.00162103 -0.0157978
         vertex 0.0129013 -0.00162103 -0.0159323
         vertex 0.013101 -0.00182103 -0.0159215
      endloop
   endfacet
   facet normal -0.70607 -0.707107 -0.038282
      outer loop
         vertex 0.0129013 -0.00162103 -0.0159323
         vertex 0.0129013 -0.00162103 -0.0160677
         vertex 0.013101 -0.00182103 -0.0160785
      endloop
   endfacet
   facet normal -0.70607 -0.707107 0.038282
      outer loop
         vertex 0.0129013 -0.00162103 -0.0160677
         vertex 0.0128867 -0.00162103 -0.0162022
         vertex 0.0130841 -0.00182103 -0.0162346
      endloop
   endfacet
   facet normal -0.697792 -0.707107 0.114397
      outer loop
         vertex 0.0128867 -0.00162103 -0.0162022
         vertex 0.0128576 -0.00162103 -0.0163344
         vertex 0.0130503 -0.00182103 -0.0163879
      endloop
   endfacet
   facet normal -0.681333 -0.707107 0.189171
      outer loop
         vertex 0.0128576 -0.00162103 -0.0163344
         vertex 0.0128144 -0.00162103 -0.0164627
         vertex 0.0130002 -0.00182103 -0.0165367
      endloop
   endfacet
   facet normal -0.656886 -0.707107 0.261727
      outer loop
         vertex 0.0128144 -0.00162103 -0.0164627
         vertex 0.0127575 -0.00162103 -0.0165855
         vertex 0.0129342 -0.00182103 -0.0166792
      endloop
   endfacet
   facet normal -0.624737 -0.707107 0.331215
      outer loop
         vertex 0.0127575 -0.00162103 -0.0165855
         vertex 0.0126878 -0.00162103 -0.0167015
         vertex 0.0128533 -0.00182103 -0.0168137
      endloop
   endfacet
   facet normal -0.585265 -0.707107 0.396819
      outer loop
         vertex 0.0126878 -0.00162103 -0.0167015
         vertex 0.0126059 -0.00162103 -0.0168092
         vertex 0.0127583 -0.00182103 -0.0169387
      endloop
   endfacet
   facet normal -0.53893 -0.707107 0.457771
      outer loop
         vertex 0.0126059 -0.00162103 -0.0168092
         vertex 0.0125128 -0.00162103 -0.0169075
         vertex 0.0126503 -0.00182103 -0.0170527
      endloop
   endfacet
   facet normal -0.486277 -0.707107 0.513356
      outer loop
         vertex 0.0125128 -0.00162103 -0.0169075
         vertex 0.0124096 -0.00162103 -0.0169951
         vertex 0.0125307 -0.00182103 -0.0171543
      endloop
   endfacet
   facet normal -0.427923 -0.707107 0.562923
      outer loop
         vertex 0.0124096 -0.00162103 -0.0169951
         vertex 0.0122976 -0.00162103 -0.0170711
         vertex 0.0124007 -0.00182103 -0.0172424
      endloop
   endfacet
   facet normal -0.364552 -0.707107 0.60589
      outer loop
         vertex 0.0122976 -0.00162103 -0.0170711
         vertex 0.012178 -0.00162103 -0.0171345
         vertex 0.012262 -0.00182103 -0.017316
      endloop
   endfacet
   facet normal -0.296906 -0.707107 0.641753
      outer loop
         vertex 0.012178 -0.00162103 -0.0171345
         vertex 0.0120523 -0.00162103 -0.0171846
         vertex 0.0121161 -0.00182103 -0.0173741
      endloop
   endfacet
   facet normal -0.22578 -0.707107 0.670092
      outer loop
         vertex 0.0120523 -0.00162103 -0.0171846
         vertex 0.0119219 -0.00162103 -0.0172208
         vertex 0.0119649 -0.00182103 -0.0174161
      endloop
   endfacet
   facet normal -0.152007 -0.707107 0.690575
      outer loop
         vertex 0.0119219 -0.00162103 -0.0172208
         vertex 0.0117883 -0.00162103 -0.0172427
         vertex 0.0118099 -0.00182103 -0.0174415
      endloop
   endfacet
   facet normal -0.0764517 -0.707107 0.702962
      outer loop
         vertex 0.0117883 -0.00162103 -0.0172427
         vertex 0.0116532 -0.00162103 -0.01725
         vertex 0.0116532 -0.00182103 -0.01745
      endloop
   endfacet
   facet normal -0.108119 0 0.994138
      outer loop
         vertex 0.0117883 0.00267897 -0.0172427
         vertex 0.0116532 0.00267897 -0.01725
         vertex 0.0116532 -0.00162103 -0.01725
      endloop
   endfacet
   facet normal -0.21497 0 0.976621
      outer loop
         vertex 0.0119219 0.00267897 -0.0172208
         vertex 0.0117883 0.00267897 -0.0172427
         vertex 0.0117883 -0.00162103 -0.0172427
      endloop
   endfacet
   facet normal -0.319302 0 0.947653
      outer loop
         vertex 0.0120523 0.00267897 -0.0171846
         vertex 0.0119219 0.00267897 -0.0172208
         vertex 0.0119219 -0.00162103 -0.0172208
      endloop
   endfacet
   facet normal -0.419889 0 0.907575
      outer loop
         vertex 0.012178 0.00267897 -0.0171345
         vertex 0.0120523 0.00267897 -0.0171846
         vertex 0.0120523 -0.00162103 -0.0171846
      endloop
   endfacet
   facet normal -0.515554 0 0.856857
      outer loop
         vertex 0.0122976 0.00267897 -0.0170711
         vertex 0.012178 0.00267897 -0.0171345
         vertex 0.012178 -0.00162103 -0.0171345
      endloop
   endfacet
   facet normal -0.605174 0 0.796093
      outer loop
         vertex 0.0124096 0.00267897 -0.0169951
         vertex 0.0122976 0.00267897 -0.0170711
         vertex 0.0122976 -0.00162103 -0.0170711
      endloop
   endfacet
   facet normal -0.687699 0 0.725995
      outer loop
         vertex 0.0125128 0.00267897 -0.0169075
         vertex 0.0124096 0.00267897 -0.0169951
         vertex 0.0124096 -0.00162103 -0.0169951
      endloop
   endfacet
   facet normal -0.762162 0 0.647386
      outer loop
         vertex 0.0126059 0.00267897 -0.0168092
         vertex 0.0125128 0.00267897 -0.0169075
         vertex 0.0125128 -0.00162103 -0.0169075
      endloop
   endfacet
   facet normal -0.827689 0 0.561187
      outer loop
         vertex 0.0126878 0.00267897 -0.0167015
         vertex 0.0126059 0.00267897 -0.0168092
         vertex 0.0126059 -0.00162103 -0.0168092
      endloop
   endfacet
   facet normal -0.883512 0 0.468408
      outer loop
         vertex 0.0127575 0.00267897 -0.0165855
         vertex 0.0126878 0.00267897 -0.0167015
         vertex 0.0126878 -0.00162103 -0.0167015
      endloop
   endfacet
   facet normal -0.928977 0 0.370138
      outer loop
         vertex 0.0128144 0.00267897 -0.0164627
         vertex 0.0127575 0.00267897 -0.0165855
         vertex 0.0127575 -0.00162103 -0.0165855
      endloop
   endfacet
   facet normal -0.96355 0 0.267528
      outer loop
         vertex 0.0128576 0.00267897 -0.0163344
         vertex 0.0128144 0.00267897 -0.0164627
         vertex 0.0128144 -0.00162103 -0.0164627
      endloop
   endfacet
   facet normal -0.986827 0 0.161782
      outer loop
         vertex 0.0128867 0.00267897 -0.0162022
         vertex 0.0128576 0.00267897 -0.0163344
         vertex 0.0128576 -0.00162103 -0.0163344
      endloop
   endfacet
   facet normal -0.998533 0 0.0541389
      outer loop
         vertex 0.0129013 0.00267897 -0.0160677
         vertex 0.0128867 0.00267897 -0.0162022
         vertex 0.0128867 -0.00162103 -0.0162022
      endloop
   endfacet
   facet normal -0.998533 0 -0.0541389
      outer loop
         vertex 0.0129013 0.00267897 -0.0159323
         vertex 0.0129013 0.00267897 -0.0160677
         vertex 0.0129013 -0.00162103 -0.0160677
      endloop
   endfacet
   facet normal -0.986827 0 -0.161782
      outer loop
         vertex 0.0128867 0.00267897 -0.0157978
         vertex 0.0129013 0.00267897 -0.0159323
         vertex 0.0129013 -0.00162103 -0.0159323
      endloop
   endfacet
   facet normal -0.96355 0 -0.267528
      outer loop
         vertex 0.0128576 0.00267897 -0.0156656
         vertex 0.0128867 0.00267897 -0.0157978
         vertex 0.0128867 -0.00162103 -0.0157978
      endloop
   endfacet
   facet normal -0.928977 0 -0.370138
      outer loop
         vertex 0.0128144 0.00267897 -0.0155373
         vertex 0.0128576 0.00267897 -0.0156656
         vertex 0.0128576 -0.00162103 -0.0156656
      endloop
   endfacet
   facet normal -0.883512 0 -0.468408
      outer loop
         vertex 0.0127575 0.00267897 -0.0154145
         vertex 0.0128144 0.00267897 -0.0155373
         vertex 0.0128144 -0.00162103 -0.0155373
      endloop
   endfacet
   facet normal -0.827689 0 -0.561187
      outer loop
         vertex 0.0126878 0.00267897 -0.0152985
         vertex 0.0127575 0.00267897 -0.0154145
         vertex 0.0127575 -0.00162103 -0.0154145
      endloop
   endfacet
   facet normal -0.762162 0 -0.647386
      outer loop
         vertex 0.0126059 0.00267897 -0.0151908
         vertex 0.0126878 0.00267897 -0.0152985
         vertex 0.0126878 -0.00162103 -0.0152985
      endloop
   endfacet
   facet normal -0.687699 0 -0.725995
      outer loop
         vertex 0.0125128 0.00267897 -0.0150925
         vertex 0.0126059 0.00267897 -0.0151908
         vertex 0.0126059 -0.00162103 -0.0151908
      endloop
   endfacet
   facet normal -0.605174 0 -0.796093
      outer loop
         vertex 0.0124096 0.00267897 -0.0150049
         vertex 0.0125128 0.00267897 -0.0150925
         vertex 0.0125128 -0.00162103 -0.0150925
      endloop
   endfacet
   facet normal -0.515554 0 -0.856857
      outer loop
         vertex 0.0122976 0.00267897 -0.0149289
         vertex 0.0124096 0.00267897 -0.0150049
         vertex 0.0124096 -0.00162103 -0.0150049
      endloop
   endfacet
   facet normal -0.419889 0 -0.907575
      outer loop
         vertex 0.012178 0.00267897 -0.0148655
         vertex 0.0122976 0.00267897 -0.0149289
         vertex 0.0122976 -0.00162103 -0.0149289
      endloop
   endfacet
   facet normal -0.319302 0 -0.947653
      outer loop
         vertex 0.0120523 0.00267897 -0.0148154
         vertex 0.012178 0.00267897 -0.0148655
         vertex 0.012178 -0.00162103 -0.0148655
      endloop
   endfacet
   facet normal -0.21497 0 -0.976621
      outer loop
         vertex 0.0119219 0.00267897 -0.0147792
         vertex 0.0120523 0.00267897 -0.0148154
         vertex 0.0120523 -0.00162103 -0.0148154
      endloop
   endfacet
   facet normal -0.108119 0 -0.994138
      outer loop
         vertex 0.0117883 0.00267897 -0.0147573
         vertex 0.0119219 0.00267897 -0.0147792
         vertex 0.0119219 -0.00162103 -0.0147792
      endloop
   endfacet
   facet normal 1.22465e-16 0 -1
      outer loop
         vertex 0.0116532 0.00267897 -0.01475
         vertex 0.0117883 0.00267897 -0.0147573
         vertex 0.0117883 -0.00162103 -0.0147573
      endloop
   endfacet
   facet normal 0.108119 0 -0.994138
      outer loop
         vertex 0.011518 0.00267897 -0.0147573
         vertex 0.0116532 0.00267897 -0.01475
         vertex 0.0116532 -0.00162103 -0.01475
      endloop
   endfacet
   facet normal 0.21497 0 -0.976621
      outer loop
         vertex 0.0113844 0.00267897 -0.0147792
         vertex 0.011518 0.00267897 -0.0147573
         vertex 0.011518 -0.00162103 -0.0147573
      endloop
   endfacet
   facet normal 0.319302 0 -0.947653
      outer loop
         vertex 0.011254 0.00267897 -0.0148154
         vertex 0.0113844 0.00267897 -0.0147792
         vertex 0.0113844 -0.00162103 -0.0147792
      endloop
   endfacet
   facet normal 0.419889 0 -0.907575
      outer loop
         vertex 0.0111283 0.00267897 -0.0148655
         vertex 0.011254 0.00267897 -0.0148154
         vertex 0.011254 -0.00162103 -0.0148154
      endloop
   endfacet
   facet normal 0.515554 0 -0.856857
      outer loop
         vertex 0.0110087 0.00267897 -0.0149289
         vertex 0.0111283 0.00267897 -0.0148655
         vertex 0.0111283 -0.00162103 -0.0148655
      endloop
   endfacet
   facet normal 0.605174 0 -0.796093
      outer loop
         vertex 0.0108967 0.00267897 -0.0150049
         vertex 0.0110087 0.00267897 -0.0149289
         vertex 0.0110087 -0.00162103 -0.0149289
      endloop
   endfacet
   facet normal 0.687699 0 -0.725995
      outer loop
         vertex 0.0107935 0.00267897 -0.0150925
         vertex 0.0108967 0.00267897 -0.0150049
         vertex 0.0108967 -0.00162103 -0.0150049
      endloop
   endfacet
   facet normal 0.762162 0 -0.647386
      outer loop
         vertex 0.0107005 0.00267897 -0.0151908
         vertex 0.0107935 0.00267897 -0.0150925
         vertex 0.0107935 -0.00162103 -0.0150925
      endloop
   endfacet
   facet normal 0.827689 0 -0.561187
      outer loop
         vertex 0.0106185 0.00267897 -0.0152985
         vertex 0.0107005 0.00267897 -0.0151908
         vertex 0.0107005 -0.00162103 -0.0151908
      endloop
   endfacet
   facet normal 0.883512 0 -0.468408
      outer loop
         vertex 0.0105488 0.00267897 -0.0154145
         vertex 0.0106185 0.00267897 -0.0152985
         vertex 0.0106185 -0.00162103 -0.0152985
      endloop
   endfacet
   facet normal 0.928977 0 -0.370138
      outer loop
         vertex 0.0104919 0.00267897 -0.0155373
         vertex 0.0105488 0.00267897 -0.0154145
         vertex 0.0105488 -0.00162103 -0.0154145
      endloop
   endfacet
   facet normal 0.96355 0 -0.267528
      outer loop
         vertex 0.0104487 0.00267897 -0.0156656
         vertex 0.0104919 0.00267897 -0.0155373
         vertex 0.0104919 -0.00162103 -0.0155373
      endloop
   endfacet
   facet normal 0.986827 0 -0.161782
      outer loop
         vertex 0.0104196 0.00267897 -0.0157978
         vertex 0.0104487 0.00267897 -0.0156656
         vertex 0.0104487 -0.00162103 -0.0156656
      endloop
   endfacet
   facet normal 0.998533 0 -0.0541389
      outer loop
         vertex 0.010405 0.00267897 -0.0159323
         vertex 0.0104196 0.00267897 -0.0157978
         vertex 0.0104196 -0.00162103 -0.0157978
      endloop
   endfacet
   facet normal 0.998533 0 0.0541389
      outer loop
         vertex 0.010405 0.00267897 -0.0160677
         vertex 0.010405 0.00267897 -0.0159323
         vertex 0.010405 -0.00162103 -0.0159323
      endloop
   endfacet
   facet normal 0.986827 0 0.161782
      outer loop
         vertex 0.0104196 0.00267897 -0.0162022
         vertex 0.010405 0.00267897 -0.0160677
         vertex 0.010405 -0.00162103 -0.0160677
      endloop
   endfacet
   facet normal 0.96355 0 0.267528
      outer loop
         vertex 0.0104487 0.00267897 -0.0163344
         vertex 0.0104196 0.00267897 -0.0162022
         vertex 0.0104196 -0.00162103 -0.0162022
      endloop
   endfacet
   facet normal 0.928977 0 0.370138
      outer loop
         vertex 0.0104919 0.00267897 -0.0164627
         vertex 0.0104487 0.00267897 -0.0163344
         vertex 0.0104487 -0.00162103 -0.0163344
      endloop
   endfacet
   facet normal 0.883512 0 0.468408
      outer loop
         vertex 0.0105488 0.00267897 -0.0165855
         vertex 0.0104919 0.00267897 -0.0164627
         vertex 0.0104919 -0.00162103 -0.0164627
      endloop
   endfacet
   facet normal 0.827689 0 0.561187
      outer loop
         vertex 0.0106185 0.00267897 -0.0167015
         vertex 0.0105488 0.00267897 -0.0165855
         vertex 0.0105488 -0.00162103 -0.0165855
      endloop
   endfacet
   facet normal 0.762162 0 0.647386
      outer loop
         vertex 0.0107005 0.00267897 -0.0168092
         vertex 0.0106185 0.00267897 -0.0167015
         vertex 0.0106185 -0.00162103 -0.0167015
      endloop
   endfacet
   facet normal 0.687699 0 0.725995
      outer loop
         vertex 0.0107935 0.00267897 -0.0169075
         vertex 0.0107005 0.00267897 -0.0168092
         vertex 0.0107005 -0.00162103 -0.0168092
      endloop
   endfacet
   facet normal 0.605174 0 0.796093
      outer loop
         vertex 0.0108967 0.00267897 -0.0169951
         vertex 0.0107935 0.00267897 -0.0169075
         vertex 0.0107935 -0.00162103 -0.0169075
      endloop
   endfacet
   facet normal 0.515554 0 0.856857
      outer loop
         vertex 0.0110087 0.00267897 -0.0170711
         vertex 0.0108967 0.00267897 -0.0169951
         vertex 0.0108967 -0.00162103 -0.0169951
      endloop
   endfacet
   facet normal 0.419889 0 0.907575
      outer loop
         vertex 0.0111283 0.00267897 -0.0171345
         vertex 0.0110087 0.00267897 -0.0170711
         vertex 0.0110087 -0.00162103 -0.0170711
      endloop
   endfacet
   facet normal 0.319302 0 0.947653
      outer loop
         vertex 0.011254 0.00267897 -0.0171846
         vertex 0.0111283 0.00267897 -0.0171345
         vertex 0.0111283 -0.00162103 -0.0171345
      endloop
   endfacet
   facet normal 0.21497 0 0.976621
      outer loop
         vertex 0.0113844 0.00267897 -0.0172208
         vertex 0.011254 0.00267897 -0.0171846
         vertex 0.011254 -0.00162103 -0.0171846
      endloop
   endfacet
   facet normal 0.108119 0 0.994138
      outer loop
         vertex 0.011518 0.00267897 -0.0172427
         vertex 0.0113844 0.00267897 -0.0172208
         vertex 0.0113844 -0.00162103 -0.0172208
      endloop
   endfacet
   facet normal -2.44929e-16 0 1
      outer loop
         vertex 0.0116532 0.00267897 -0.01725
         vertex 0.011518 0.00267897 -0.0172427
         vertex 0.011518 -0.00162103 -0.0172427
      endloop
   endfacet
   facet normal 0.108119 0 0.994138
      outer loop
         vertex 0.011518 -0.00162103 -0.0172427
         vertex 0.0116532 -0.00162103 -0.01725
         vertex 0.0116532 0.00267897 -0.01725
      endloop
   endfacet
   facet normal 0.21497 0 0.976621
      outer loop
         vertex 0.0113844 -0.00162103 -0.0172208
         vertex 0.011518 -0.00162103 -0.0172427
         vertex 0.011518 0.00267897 -0.0172427
      endloop
   endfacet
   facet normal 0.319302 0 0.947653
      outer loop
         vertex 0.011254 -0.00162103 -0.0171846
         vertex 0.0113844 -0.00162103 -0.0172208
         vertex 0.0113844 0.00267897 -0.0172208
      endloop
   endfacet
   facet normal 0.419889 0 0.907575
      outer loop
         vertex 0.0111283 -0.00162103 -0.0171345
         vertex 0.011254 -0.00162103 -0.0171846
         vertex 0.011254 0.00267897 -0.0171846
      endloop
   endfacet
   facet normal 0.515554 0 0.856857
      outer loop
         vertex 0.0110087 -0.00162103 -0.0170711
         vertex 0.0111283 -0.00162103 -0.0171345
         vertex 0.0111283 0.00267897 -0.0171345
      endloop
   endfacet
   facet normal 0.605174 0 0.796093
      outer loop
         vertex 0.0108967 -0.00162103 -0.0169951
         vertex 0.0110087 -0.00162103 -0.0170711
         vertex 0.0110087 0.00267897 -0.0170711
      endloop
   endfacet
   facet normal 0.687699 0 0.725995
      outer loop
         vertex 0.0107935 -0.00162103 -0.0169075
         vertex 0.0108967 -0.00162103 -0.0169951
         vertex 0.0108967 0.00267897 -0.0169951
      endloop
   endfacet
   facet normal 0.762162 0 0.647386
      outer loop
         vertex 0.0107005 -0.00162103 -0.0168092
         vertex 0.0107935 -0.00162103 -0.0169075
         vertex 0.0107935 0.00267897 -0.0169075
      endloop
   endfacet
   facet normal 0.827689 0 0.561187
      outer loop
         vertex 0.0106185 -0.00162103 -0.0167015
         vertex 0.0107005 -0.00162103 -0.0168092
         vertex 0.0107005 0.00267897 -0.0168092
      endloop
   endfacet
   facet normal 0.883512 0 0.468408
      outer loop
         vertex 0.0105488 -0.00162103 -0.0165855
         vertex 0.0106185 -0.00162103 -0.0167015
         vertex 0.0106185 0.00267897 -0.0167015
      endloop
   endfacet
   facet normal 0.928977 0 0.370138
      outer loop
         vertex 0.0104919 -0.00162103 -0.0164627
         vertex 0.0105488 -0.00162103 -0.0165855
         vertex 0.0105488 0.00267897 -0.0165855
      endloop
   endfacet
   facet normal 0.96355 0 0.267528
      outer loop
         vertex 0.0104487 -0.00162103 -0.0163344
         vertex 0.0104919 -0.00162103 -0.0164627
         vertex 0.0104919 0.00267897 -0.0164627
      endloop
   endfacet
   facet normal 0.986827 0 0.161782
      outer loop
         vertex 0.0104196 -0.00162103 -0.0162022
         vertex 0.0104487 -0.00162103 -0.0163344
         vertex 0.0104487 0.00267897 -0.0163344
      endloop
   endfacet
   facet normal 0.998533 0 0.0541389
      outer loop
         vertex 0.010405 -0.00162103 -0.0160677
         vertex 0.0104196 -0.00162103 -0.0162022
         vertex 0.0104196 0.00267897 -0.0162022
      endloop
   endfacet
   facet normal 0.998533 0 -0.0541389
      outer loop
         vertex 0.010405 -0.00162103 -0.0159323
         vertex 0.010405 -0.00162103 -0.0160677
         vertex 0.010405 0.00267897 -0.0160677
      endloop
   endfacet
   facet normal 0.986827 0 -0.161782
      outer loop
         vertex 0.0104196 -0.00162103 -0.0157978
         vertex 0.010405 -0.00162103 -0.0159323
         vertex 0.010405 0.00267897 -0.0159323
      endloop
   endfacet
   facet normal 0.96355 0 -0.267528
      outer loop
         vertex 0.0104487 -0.00162103 -0.0156656
         vertex 0.0104196 -0.00162103 -0.0157978
         vertex 0.0104196 0.00267897 -0.0157978
      endloop
   endfacet
   facet normal 0.928977 0 -0.370138
      outer loop
         vertex 0.0104919 -0.00162103 -0.0155373
         vertex 0.0104487 -0.00162103 -0.0156656
         vertex 0.0104487 0.00267897 -0.0156656
      endloop
   endfacet
   facet normal 0.883512 0 -0.468408
      outer loop
         vertex 0.0105488 -0.00162103 -0.0154145
         vertex 0.0104919 -0.00162103 -0.0155373
         vertex 0.0104919 0.00267897 -0.0155373
      endloop
   endfacet
   facet normal 0.827689 0 -0.561187
      outer loop
         vertex 0.0106185 -0.00162103 -0.0152985
         vertex 0.0105488 -0.00162103 -0.0154145
         vertex 0.0105488 0.00267897 -0.0154145
      endloop
   endfacet
   facet normal 0.762162 0 -0.647386
      outer loop
         vertex 0.0107005 -0.00162103 -0.0151908
         vertex 0.0106185 -0.00162103 -0.0152985
         vertex 0.0106185 0.00267897 -0.0152985
      endloop
   endfacet
   facet normal 0.687699 0 -0.725995
      outer loop
         vertex 0.0107935 -0.00162103 -0.0150925
         vertex 0.0107005 -0.00162103 -0.0151908
         vertex 0.0107005 0.00267897 -0.0151908
      endloop
   endfacet
   facet normal 0.605174 0 -0.796093
      outer loop
         vertex 0.0108967 -0.00162103 -0.0150049
         vertex 0.0107935 -0.00162103 -0.0150925
         vertex 0.0107935 0.00267897 -0.0150925
      endloop
   endfacet
   facet normal 0.515554 0 -0.856857
      outer loop
         vertex 0.0110087 -0.00162103 -0.0149289
         vertex 0.0108967 -0.00162103 -0.0150049
         vertex 0.0108967 0.00267897 -0.0150049
      endloop
   endfacet
   facet normal 0.419889 0 -0.907575
      outer loop
         vertex 0.0111283 -0.00162103 -0.0148655
         vertex 0.0110087 -0.00162103 -0.0149289
         vertex 0.0110087 0.00267897 -0.0149289
      endloop
   endfacet
   facet normal 0.319302 0 -0.947653
      outer loop
         vertex 0.011254 -0.00162103 -0.0148154
         vertex 0.0111283 -0.00162103 -0.0148655
         vertex 0.0111283 0.00267897 -0.0148655
      endloop
   endfacet
   facet normal 0.21497 0 -0.976621
      outer loop
         vertex 0.0113844 -0.00162103 -0.0147792
         vertex 0.011254 -0.00162103 -0.0148154
         vertex 0.011254 0.00267897 -0.0148154
      endloop
   endfacet
   facet normal 0.108119 0 -0.994138
      outer loop
         vertex 0.011518 -0.00162103 -0.0147573
         vertex 0.0113844 -0.00162103 -0.0147792
         vertex 0.0113844 0.00267897 -0.0147792
      endloop
   endfacet
   facet normal 1.22465e-16 0 -1
      outer loop
         vertex 0.0116532 -0.00162103 -0.01475
         vertex 0.011518 -0.00162103 -0.0147573
         vertex 0.011518 0.00267897 -0.0147573
      endloop
   endfacet
   facet normal -0.108119 0 -0.994138
      outer loop
         vertex 0.0117883 -0.00162103 -0.0147573
         vertex 0.0116532 -0.00162103 -0.01475
         vertex 0.0116532 0.00267897 -0.01475
      endloop
   endfacet
   facet normal -0.21497 0 -0.976621
      outer loop
         vertex 0.0119219 -0.00162103 -0.0147792
         vertex 0.0117883 -0.00162103 -0.0147573
         vertex 0.0117883 0.00267897 -0.0147573
      endloop
   endfacet
   facet normal -0.319302 0 -0.947653
      outer loop
         vertex 0.0120523 -0.00162103 -0.0148154
         vertex 0.0119219 -0.00162103 -0.0147792
         vertex 0.0119219 0.00267897 -0.0147792
      endloop
   endfacet
   facet normal -0.419889 0 -0.907575
      outer loop
         vertex 0.012178 -0.00162103 -0.0148655
         vertex 0.0120523 -0.00162103 -0.0148154
         vertex 0.0120523 0.00267897 -0.0148154
      endloop
   endfacet
   facet normal -0.515554 0 -0.856857
      outer loop
         vertex 0.0122976 -0.00162103 -0.0149289
         vertex 0.012178 -0.00162103 -0.0148655
         vertex 0.012178 0.00267897 -0.0148655
      endloop
   endfacet
   facet normal -0.605174 0 -0.796093
      outer loop
         vertex 0.0124096 -0.00162103 -0.0150049
         vertex 0.0122976 -0.00162103 -0.0149289
         vertex 0.0122976 0.00267897 -0.0149289
      endloop
   endfacet
   facet normal -0.687699 0 -0.725995
      outer loop
         vertex 0.0125128 -0.00162103 -0.0150925
         vertex 0.0124096 -0.00162103 -0.0150049
         vertex 0.0124096 0.00267897 -0.0150049
      endloop
   endfacet
   facet normal -0.762162 0 -0.647386
      outer loop
         vertex 0.0126059 -0.00162103 -0.0151908
         vertex 0.0125128 -0.00162103 -0.0150925
         vertex 0.0125128 0.00267897 -0.0150925
      endloop
   endfacet
   facet normal -0.827689 0 -0.561187
      outer loop
         vertex 0.0126878 -0.00162103 -0.0152985
         vertex 0.0126059 -0.00162103 -0.0151908
         vertex 0.0126059 0.00267897 -0.0151908
      endloop
   endfacet
   facet normal -0.883512 0 -0.468408
      outer loop
         vertex 0.0127575 -0.00162103 -0.0154145
         vertex 0.0126878 -0.00162103 -0.0152985
         vertex 0.0126878 0.00267897 -0.0152985
      endloop
   endfacet
   facet normal -0.928977 0 -0.370138
      outer loop
         vertex 0.0128144 -0.00162103 -0.0155373
         vertex 0.0127575 -0.00162103 -0.0154145
         vertex 0.0127575 0.00267897 -0.0154145
      endloop
   endfacet
   facet normal -0.96355 0 -0.267528
      outer loop
         vertex 0.0128576 -0.00162103 -0.0156656
         vertex 0.0128144 -0.00162103 -0.0155373
         vertex 0.0128144 0.00267897 -0.0155373
      endloop
   endfacet
   facet normal -0.986827 0 -0.161782
      outer loop
         vertex 0.0128867 -0.00162103 -0.0157978
         vertex 0.0128576 -0.00162103 -0.0156656
         vertex 0.0128576 0.00267897 -0.0156656
      endloop
   endfacet
   facet normal -0.998533 0 -0.0541389
      outer loop
         vertex 0.0129013 -0.00162103 -0.0159323
         vertex 0.0128867 -0.00162103 -0.0157978
         vertex 0.0128867 0.00267897 -0.0157978
      endloop
   endfacet
   facet normal -0.998533 0 0.0541389
      outer loop
         vertex 0.0129013 -0.00162103 -0.0160677
         vertex 0.0129013 -0.00162103 -0.0159323
         vertex 0.0129013 0.00267897 -0.0159323
      endloop
   endfacet
   facet normal -0.986827 0 0.161782
      outer loop
         vertex 0.0128867 -0.00162103 -0.0162022
         vertex 0.0129013 -0.00162103 -0.0160677
         vertex 0.0129013 0.00267897 -0.0160677
      endloop
   endfacet
   facet normal -0.96355 0 0.267528
      outer loop
         vertex 0.0128576 -0.00162103 -0.0163344
         vertex 0.0128867 -0.00162103 -0.0162022
         vertex 0.0128867 0.00267897 -0.0162022
      endloop
   endfacet
   facet normal -0.928977 0 0.370138
      outer loop
         vertex 0.0128144 -0.00162103 -0.0164627
         vertex 0.0128576 -0.00162103 -0.0163344
         vertex 0.0128576 0.00267897 -0.0163344
      endloop
   endfacet
   facet normal -0.883512 0 0.468408
      outer loop
         vertex 0.0127575 -0.00162103 -0.0165855
         vertex 0.0128144 -0.00162103 -0.0164627
         vertex 0.0128144 0.00267897 -0.0164627
      endloop
   endfacet
   facet normal -0.827689 0 0.561187
      outer loop
         vertex 0.0126878 -0.00162103 -0.0167015
         vertex 0.0127575 -0.00162103 -0.0165855
         vertex 0.0127575 0.00267897 -0.0165855
      endloop
   endfacet
   facet normal -0.762162 0 0.647386
      outer loop
         vertex 0.0126059 -0.00162103 -0.0168092
         vertex 0.0126878 -0.00162103 -0.0167015
         vertex 0.0126878 0.00267897 -0.0167015
      endloop
   endfacet
   facet normal -0.687699 0 0.725995
      outer loop
         vertex 0.0125128 -0.00162103 -0.0169075
         vertex 0.0126059 -0.00162103 -0.0168092
         vertex 0.0126059 0.00267897 -0.0168092
      endloop
   endfacet
   facet normal -0.605174 0 0.796093
      outer loop
         vertex 0.0124096 -0.00162103 -0.0169951
         vertex 0.0125128 -0.00162103 -0.0169075
         vertex 0.0125128 0.00267897 -0.0169075
      endloop
   endfacet
   facet normal -0.515554 0 0.856857
      outer loop
         vertex 0.0122976 -0.00162103 -0.0170711
         vertex 0.0124096 -0.00162103 -0.0169951
         vertex 0.0124096 0.00267897 -0.0169951
      endloop
   endfacet
   facet normal -0.419889 0 0.907575
      outer loop
         vertex 0.012178 -0.00162103 -0.0171345
         vertex 0.0122976 -0.00162103 -0.0170711
         vertex 0.0122976 0.00267897 -0.0170711
      endloop
   endfacet
   facet normal -0.319302 0 0.947653
      outer loop
         vertex 0.0120523 -0.00162103 -0.0171846
         vertex 0.012178 -0.00162103 -0.0171345
         vertex 0.012178 0.00267897 -0.0171345
      endloop
   endfacet
   facet normal -0.21497 0 0.976621
      outer loop
         vertex 0.0119219 -0.00162103 -0.0172208
         vertex 0.0120523 -0.00162103 -0.0171846
         vertex 0.0120523 0.00267897 -0.0171846
      endloop
   endfacet
   facet normal -0.108119 0 0.994138
      outer loop
         vertex 0.0117883 -0.00162103 -0.0172427
         vertex 0.0119219 -0.00162103 -0.0172208
         vertex 0.0119219 0.00267897 -0.0172208
      endloop
   endfacet
   facet normal -2.44929e-16 0 1
      outer loop
         vertex 0.0116532 -0.00162103 -0.01725
         vertex 0.0117883 -0.00162103 -0.0172427
         vertex 0.0117883 0.00267897 -0.0172427
      endloop
   endfacet
endsolid 1111. Units = meters