solid 1111. STL generated by ONSHAPE BY PTC INC, 1.216. Units = meters
   facet normal -4.33778e-06 -1 1.10184e-06
      outer loop
         vertex 0.176333 -0.000981698 0.00472979
         vertex 0.176167 -0.000981697 0.0047836
         vertex 0.176165 -0.000981697 0.00477594
      endloop
   endfacet
   facet normal -4.33778e-06 -1 1.10184e-06
      outer loop
         vertex 0.17634 -0.000981698 0.00475361
         vertex 0.176169 -0.000981697 0.00479145
         vertex 0.176167 -0.000981697 0.0047836
      endloop
   endfacet
   facet normal -4.33778e-06 -1 1.10184e-06
      outer loop
         vertex 0.176167 -0.000981697 0.0047836
         vertex 0.176333 -0.000981698 0.00472979
         vertex 0.17634 -0.000981698 0.00475361
      endloop
   endfacet
   facet normal -4.33778e-06 -1 1.10184e-06
      outer loop
         vertex 0.176344 -0.000981698 0.004778
         vertex 0.17617 -0.000981697 0.00479944
         vertex 0.176169 -0.000981697 0.00479145
      endloop
   endfacet
   facet normal -4.33778e-06 -1 1.10184e-06
      outer loop
         vertex 0.176169 -0.000981697 0.00479145
         vertex 0.17634 -0.000981698 0.00475361
         vertex 0.176344 -0.000981698 0.004778
      endloop
   endfacet
   facet normal -4.33778e-06 -1 1.10184e-06
      outer loop
         vertex 0.17617 -0.000981697 0.00479944
         vertex 0.176344 -0.000981698 0.004778
         vertex 0.176343 -0.000981698 0.00479874
      endloop
   endfacet
   facet normal -4.33778e-06 -1 1.10184e-06
      outer loop
         vertex 0.176166 -0.000981697 0.00483579
         vertex 0.176309 -0.000981698 0.00489549
         vertex 0.176297 -0.000981697 0.00491207
      endloop
   endfacet
   facet normal -4.33778e-06 -1 1.10184e-06
      outer loop
         vertex 0.175864 -0.000981695 0.00527023
         vertex 0.175855 -0.000981695 0.00524897
         vertex 0.17603 -0.000981696 0.0051969
      endloop
   endfacet
   facet normal -4.33778e-06 -1 1.10184e-06
      outer loop
         vertex 0.175855 -0.000981695 0.00524897
         vertex 0.175849 -0.000981695 0.00522691
         vertex 0.176028 -0.000981696 0.00518866
      endloop
   endfacet
   facet normal -4.33778e-06 -1 1.10184e-06
      outer loop
         vertex 0.175845 -0.000981695 0.00518714
         vertex 0.175846 -0.000981695 0.00516614
         vertex 0.176026 -0.000981696 0.00517173
      endloop
   endfacet
   facet normal -4.33778e-06 -1 1.10184e-06
      outer loop
         vertex 0.176028 -0.000981696 0.00515424
         vertex 0.175863 -0.000981695 0.00510559
         vertex 0.175873 -0.000981695 0.00508701
      endloop
   endfacet
   facet normal -4.33778e-06 -1 1.10184e-06
      outer loop
         vertex 0.176265 -0.000981698 0.00462889
         vertex 0.176149 -0.000981697 0.0047513
         vertex 0.176141 -0.000981697 0.00474372
      endloop
   endfacet
   facet normal -4.33778e-06 -1 1.10184e-06
      outer loop
         vertex 0.176324 -0.000981698 0.00470682
         vertex 0.176165 -0.000981697 0.00477594
         vertex 0.176161 -0.000981697 0.00476855
      endloop
   endfacet
   facet normal -4.33778e-06 -1 1.10184e-06
      outer loop
         vertex 0.176343 -0.000981698 0.00479874
         vertex 0.17617 -0.000981697 0.00480749
         vertex 0.17617 -0.000981697 0.00479944
      endloop
   endfacet
   facet normal -4.33778e-06 -1 1.10184e-06
      outer loop
         vertex 0.17617 -0.000981697 0.00480749
         vertex 0.176341 -0.000981698 0.00481928
         vertex 0.176336 -0.000981698 0.00483944
      endloop
   endfacet
   facet normal -4.33778e-06 -1 1.10184e-06
      outer loop
         vertex 0.176166 -0.000981697 0.00483579
         vertex 0.17632 -0.000981698 0.00487774
         vertex 0.176309 -0.000981698 0.00489549
      endloop
   endfacet
   facet normal -4.33778e-06 -1 1.10184e-06
      outer loop
         vertex 0.176162 -0.000981697 0.00484471
         vertex 0.176297 -0.000981697 0.00491207
         vertex 0.176282 -0.000981697 0.00492731
      endloop
   endfacet
   facet normal -4.33778e-06 -1 1.10184e-06
      outer loop
         vertex 0.175875 -0.000981695 0.00529043
         vertex 0.175864 -0.000981695 0.00527023
         vertex 0.176033 -0.000981696 0.00520488
      endloop
   endfacet
   facet normal -4.33778e-06 -1 1.10184e-06
      outer loop
         vertex 0.176028 -0.000981696 0.00518866
         vertex 0.17603 -0.000981696 0.0051969
         vertex 0.175855 -0.000981695 0.00524897
      endloop
   endfacet
   facet normal -4.33778e-06 -1 1.10184e-06
      outer loop
         vertex 0.175846 -0.000981695 0.00520713
         vertex 0.176026 -0.000981696 0.00518024
         vertex 0.176028 -0.000981696 0.00518866
      endloop
   endfacet
   facet normal -4.33778e-06 -1 1.10184e-06
      outer loop
         vertex 0.176026 -0.000981696 0.00518024
         vertex 0.175846 -0.000981695 0.00520713
         vertex 0.175845 -0.000981695 0.00518714
      endloop
   endfacet
   facet normal -4.33778e-06 -1 1.10184e-06
      outer loop
         vertex 0.176026 -0.000981696 0.00516294
         vertex 0.175849 -0.000981695 0.00514539
         vertex 0.175855 -0.000981695 0.00512513
      endloop
   endfacet
   facet normal -4.33778e-06 -1 1.10184e-06
      outer loop
         vertex 0.176028 -0.000981696 0.00515424
         vertex 0.175855 -0.000981695 0.00512513
         vertex 0.175863 -0.000981695 0.00510559
      endloop
   endfacet
   facet normal -4.33778e-06 -1 1.10184e-06
      outer loop
         vertex 0.17603 -0.000981696 0.00514574
         vertex 0.175873 -0.000981695 0.00508701
         vertex 0.175884 -0.000981696 0.00506959
      endloop
   endfacet
   facet normal -4.33778e-06 -1 1.10184e-06
      outer loop
         vertex 0.176033 -0.000981696 0.00513753
         vertex 0.175884 -0.000981696 0.00506959
         vertex 0.175898 -0.000981696 0.00505355
      endloop
   endfacet
   facet normal -4.33778e-06 -1 1.10184e-06
      outer loop
         vertex 0.176433 -0.000981697 0.00543594
         vertex 0.176091 -0.000981696 0.00541448
         vertex 0.176161 -0.000981697 0.00526657
      endloop
   endfacet
   facet normal -4.33778e-06 -1 1.10184e-06
      outer loop
         vertex 0.176245 -0.000981698 0.00461397
         vertex 0.176141 -0.000981697 0.00474372
         vertex 0.176133 -0.000981697 0.00473695
      endloop
   endfacet
   facet normal -4.33778e-06 -1 1.10184e-06
      outer loop
         vertex 0.176141 -0.000981697 0.00474372
         vertex 0.176245 -0.000981698 0.00461397
         vertex 0.176265 -0.000981698 0.00462889
      endloop
   endfacet
   facet normal -4.33778e-06 -1 1.10184e-06
      outer loop
         vertex 0.176165 -0.000981697 0.00477594
         vertex 0.176324 -0.000981698 0.00470682
         vertex 0.176333 -0.000981698 0.00472979
      endloop
   endfacet
   facet normal -4.33778e-06 -1 1.10184e-06
      outer loop
         vertex 0.17617 -0.000981697 0.00480749
         vertex 0.176343 -0.000981698 0.00479874
         vertex 0.176341 -0.000981698 0.00481928
      endloop
   endfacet
   facet normal -4.33778e-06 -1 1.10184e-06
      outer loop
         vertex 0.176282 -0.000981697 0.00492731
         vertex 0.176158 -0.000981697 0.00485318
         vertex 0.176162 -0.000981697 0.00484471
      endloop
   endfacet
   facet normal -4.33778e-06 -1 1.10184e-06
      outer loop
         vertex 0.176158 -0.000981697 0.00485318
         vertex 0.176282 -0.000981697 0.00492731
         vertex 0.176267 -0.000981697 0.00494105
      endloop
   endfacet
   facet normal -4.33778e-06 -1 1.10184e-06
      outer loop
         vertex 0.176037 -0.000981696 0.00521252
         vertex 0.175903 -0.000981695 0.00532678
         vertex 0.175888 -0.000981695 0.00530936
      endloop
   endfacet
   facet normal -4.33778e-06 -1 1.10184e-06
      outer loop
         vertex 0.175903 -0.000981695 0.00532678
         vertex 0.176037 -0.000981696 0.00521252
         vertex 0.176041 -0.000981696 0.00521974
      endloop
   endfacet
   facet normal -4.33778e-06 -1 1.10184e-06
      outer loop
         vertex 0.17603 -0.000981696 0.0051969
         vertex 0.176033 -0.000981696 0.00520488
         vertex 0.175864 -0.000981695 0.00527023
      endloop
   endfacet
   facet normal -4.33778e-06 -1 1.10184e-06
      outer loop
         vertex 0.176026 -0.000981696 0.00517173
         vertex 0.176026 -0.000981696 0.00518024
         vertex 0.175845 -0.000981695 0.00518714
      endloop
   endfacet
   facet normal -4.33778e-06 -1 1.10184e-06
      outer loop
         vertex 0.175873 -0.000981695 0.00508701
         vertex 0.17603 -0.000981696 0.00514574
         vertex 0.176028 -0.000981696 0.00515424
      endloop
   endfacet
   facet normal -4.33778e-06 -1 1.10184e-06
      outer loop
         vertex 0.175898 -0.000981696 0.00505355
         vertex 0.176037 -0.000981696 0.00512969
         vertex 0.176033 -0.000981696 0.00513753
      endloop
   endfacet
   facet normal -4.33778e-06 -1 1.10184e-06
      outer loop
         vertex 0.176037 -0.000981696 0.00512969
         vertex 0.175898 -0.000981696 0.00505355
         vertex 0.175913 -0.000981696 0.00503907
      endloop
   endfacet
   facet normal -4.33778e-06 -1 1.10184e-06
      outer loop
         vertex 0.175913 -0.000981696 0.00503907
         vertex 0.176054 -0.000981696 0.0051093
         vertex 0.176048 -0.000981696 0.0051155
      endloop
   endfacet
   facet normal -4.33778e-06 -1 1.10184e-06
      outer loop
         vertex 0.176091 -0.000981696 0.00541448
         vertex 0.176142 -0.000981696 0.00526522
         vertex 0.176161 -0.000981697 0.00526657
      endloop
   endfacet
   facet normal -4.33778e-06 -1 1.10184e-06
      outer loop
         vertex 0.176137 -0.000981697 0.00457104
         vertex 0.176094 -0.000981697 0.00471908
         vertex 0.176083 -0.000981697 0.00471714
      endloop
   endfacet
   facet normal -4.33778e-06 -1 1.10184e-06
      outer loop
         vertex 0.176179 -0.000981697 0.00458244
         vertex 0.176114 -0.000981697 0.00472606
         vertex 0.176104 -0.000981697 0.00472206
      endloop
   endfacet
   facet normal -4.33778e-06 -1 1.10184e-06
      outer loop
         vertex 0.176124 -0.000981697 0.00473104
         vertex 0.176114 -0.000981697 0.00472606
         vertex 0.176179 -0.000981697 0.00458244
      endloop
   endfacet
   facet normal -4.33778e-06 -1 1.10184e-06
      outer loop
         vertex 0.176224 -0.000981698 0.00460116
         vertex 0.176133 -0.000981697 0.00473695
         vertex 0.176124 -0.000981697 0.00473104
      endloop
   endfacet
   facet normal -4.33778e-06 -1 1.10184e-06
      outer loop
         vertex 0.176265 -0.000981698 0.00462889
         vertex 0.176283 -0.000981698 0.00464576
         vertex 0.176149 -0.000981697 0.0047513
      endloop
   endfacet
   facet normal -4.33778e-06 -1 1.10184e-06
      outer loop
         vertex 0.176283 -0.000981698 0.00464576
         vertex 0.176299 -0.000981698 0.0046644
         vertex 0.176155 -0.000981697 0.0047596
      endloop
   endfacet
   facet normal -4.33778e-06 -1 1.10184e-06
      outer loop
         vertex 0.176299 -0.000981698 0.0046644
         vertex 0.176312 -0.000981698 0.00468494
         vertex 0.176161 -0.000981697 0.00476855
      endloop
   endfacet
   facet normal -4.33778e-06 -1 1.10184e-06
      outer loop
         vertex 0.176336 -0.000981698 0.00483944
         vertex 0.17617 -0.000981697 0.00481707
         vertex 0.17617 -0.000981697 0.00480749
      endloop
   endfacet
   facet normal -4.33778e-06 -1 1.10184e-06
      outer loop
         vertex 0.17617 -0.000981697 0.00481707
         vertex 0.176336 -0.000981698 0.00483944
         vertex 0.176329 -0.000981698 0.00485899
      endloop
   endfacet
   facet normal -4.33778e-06 -1 1.10184e-06
      outer loop
         vertex 0.176168 -0.000981697 0.00482654
         vertex 0.176329 -0.000981698 0.00485899
         vertex 0.17632 -0.000981698 0.00487774
      endloop
   endfacet
   facet normal -4.33778e-06 -1 1.10184e-06
      outer loop
         vertex 0.176267 -0.000981697 0.00494105
         vertex 0.176152 -0.000981697 0.00486113
         vertex 0.176158 -0.000981697 0.00485318
      endloop
   endfacet
   facet normal -4.33778e-06 -1 1.10184e-06
      outer loop
         vertex 0.176041 -0.000981696 0.00521974
         vertex 0.17592 -0.000981695 0.0053425
         vertex 0.175903 -0.000981695 0.00532678
      endloop
   endfacet
   facet normal -4.33778e-06 -1 1.10184e-06
      outer loop
         vertex 0.176028 -0.000981696 0.00518866
         vertex 0.175849 -0.000981695 0.00522691
         vertex 0.175846 -0.000981695 0.00520713
      endloop
   endfacet
   facet normal -4.33778e-06 -1 1.10184e-06
      outer loop
         vertex 0.175884 -0.000981696 0.00506959
         vertex 0.176033 -0.000981696 0.00513753
         vertex 0.17603 -0.000981696 0.00514574
      endloop
   endfacet
   facet normal -4.33778e-06 -1 1.10184e-06
      outer loop
         vertex 0.176048 -0.000981696 0.0051155
         vertex 0.176042 -0.000981696 0.00512232
         vertex 0.175913 -0.000981696 0.00503907
      endloop
   endfacet
   facet normal -4.33778e-06 -1 1.10184e-06
      outer loop
         vertex 0.176139 -0.000981697 0.00487504
         vertex 0.176267 -0.000981697 0.00494105
         vertex 0.176061 -0.000981696 0.00510379
      endloop
   endfacet
   facet normal -4.33778e-06 -1 1.10184e-06
      outer loop
         vertex 0.176091 -0.000981696 0.00541448
         vertex 0.176124 -0.000981696 0.005262
         vertex 0.176142 -0.000981696 0.00526522
      endloop
   endfacet
   facet normal -4.33778e-06 -1 1.10184e-06
      outer loop
         vertex 0.176106 -0.000981696 0.00525696
         vertex 0.176124 -0.000981696 0.005262
         vertex 0.176091 -0.000981696 0.00541448
      endloop
   endfacet
   facet normal -4.33778e-06 -1 1.10184e-06
      outer loop
         vertex 0.176029 -0.000981696 0.00540211
         vertex 0.176088 -0.000981696 0.00525013
         vertex 0.176106 -0.000981696 0.00525696
      endloop
   endfacet
   facet normal -4.33778e-06 -1 1.10184e-06
      outer loop
         vertex 0.176 -0.000981696 0.0053914
         vertex 0.176072 -0.000981696 0.00524159
         vertex 0.176088 -0.000981696 0.00525013
      endloop
   endfacet
   facet normal -4.33778e-06 -1 1.10184e-06
      outer loop
         vertex 0.176137 -0.000981697 0.00457104
         vertex 0.176104 -0.000981697 0.00472206
         vertex 0.176094 -0.000981697 0.00471908
      endloop
   endfacet
   facet normal -4.33778e-06 -1 1.10184e-06
      outer loop
         vertex 0.176179 -0.000981697 0.00458244
         vertex 0.176202 -0.000981697 0.00459061
         vertex 0.176124 -0.000981697 0.00473104
      endloop
   endfacet
   facet normal -4.33778e-06 -1 1.10184e-06
      outer loop
         vertex 0.176133 -0.000981697 0.00473695
         vertex 0.176224 -0.000981698 0.00460116
         vertex 0.176245 -0.000981698 0.00461397
      endloop
   endfacet
   facet normal -4.33778e-06 -1 1.10184e-06
      outer loop
         vertex 0.176161 -0.000981697 0.00476855
         vertex 0.176155 -0.000981697 0.0047596
         vertex 0.176299 -0.000981698 0.0046644
      endloop
   endfacet
   facet normal -4.33778e-06 -1 1.10184e-06
      outer loop
         vertex 0.176329 -0.000981698 0.00485899
         vertex 0.176168 -0.000981697 0.00482654
         vertex 0.17617 -0.000981697 0.00481707
      endloop
   endfacet
   facet normal -4.33778e-06 -1 1.10184e-06
      outer loop
         vertex 0.176297 -0.000981697 0.00491207
         vertex 0.176162 -0.000981697 0.00484471
         vertex 0.176166 -0.000981697 0.00483579
      endloop
   endfacet
   facet normal -4.33778e-06 -1 1.10184e-06
      outer loop
         vertex 0.176033 -0.000981696 0.00520488
         vertex 0.176037 -0.000981696 0.00521252
         vertex 0.175875 -0.000981695 0.00529043
      endloop
   endfacet
   facet normal -4.33778e-06 -1 1.10184e-06
      outer loop
         vertex 0.176026 -0.000981696 0.00517173
         vertex 0.175846 -0.000981695 0.00516614
         vertex 0.175849 -0.000981695 0.00514539
      endloop
   endfacet
   facet normal -4.33778e-06 -1 1.10184e-06
      outer loop
         vertex 0.175913 -0.000981696 0.00503907
         vertex 0.176042 -0.000981696 0.00512232
         vertex 0.176037 -0.000981696 0.00512969
      endloop
   endfacet
   facet normal -4.33778e-06 -1 1.10184e-06
      outer loop
         vertex 0.176061 -0.000981696 0.00510379
         vertex 0.175913 -0.000981696 0.00503907
         vertex 0.176139 -0.000981697 0.00487504
      endloop
   endfacet
   facet normal -4.33778e-06 -1 1.10184e-06
      outer loop
         vertex 0.176091 -0.000981696 0.00541448
         vertex 0.17606 -0.000981696 0.00540983
         vertex 0.176106 -0.000981696 0.00525696
      endloop
   endfacet
   facet normal -4.33778e-06 -1 1.10184e-06
      outer loop
         vertex 0.176088 -0.000981696 0.00525013
         vertex 0.176029 -0.000981696 0.00540211
         vertex 0.176 -0.000981696 0.0053914
      endloop
   endfacet
   facet normal -4.33778e-06 -1 1.10184e-06
      outer loop
         vertex 0.175971 -0.000981696 0.0053778
         vertex 0.176056 -0.000981696 0.00523143
         vertex 0.176072 -0.000981696 0.00524159
      endloop
   endfacet
   facet normal -4.33778e-06 -1 1.10184e-06
      outer loop
         vertex 0.176104 -0.000981697 0.00472206
         vertex 0.176137 -0.000981697 0.00457104
         vertex 0.176179 -0.000981697 0.00458244
      endloop
   endfacet
   facet normal -4.33778e-06 -1 1.10184e-06
      outer loop
         vertex 0.176155 -0.000981697 0.0047596
         vertex 0.176149 -0.000981697 0.0047513
         vertex 0.176283 -0.000981698 0.00464576
      endloop
   endfacet
   facet normal -4.33778e-06 -1 1.10184e-06
      outer loop
         vertex 0.17632 -0.000981698 0.00487774
         vertex 0.176166 -0.000981697 0.00483579
         vertex 0.176168 -0.000981697 0.00482654
      endloop
   endfacet
   facet normal -4.33778e-06 -1 1.10184e-06
      outer loop
         vertex 0.176267 -0.000981697 0.00494105
         vertex 0.176139 -0.000981697 0.00487504
         vertex 0.176146 -0.000981697 0.00486844
      endloop
   endfacet
   facet normal -4.33778e-06 -1 1.10184e-06
      outer loop
         vertex 0.175849 -0.000981695 0.00514539
         vertex 0.176026 -0.000981696 0.00516294
         vertex 0.176026 -0.000981696 0.00517173
      endloop
   endfacet
   facet normal -4.33778e-06 -1 1.10184e-06
      outer loop
         vertex 0.176061 -0.000981696 0.00510379
         vertex 0.176054 -0.000981696 0.0051093
         vertex 0.175913 -0.000981696 0.00503907
      endloop
   endfacet
   facet normal -4.33778e-06 -1 1.10184e-06
      outer loop
         vertex 0.176106 -0.000981696 0.00525696
         vertex 0.17606 -0.000981696 0.00540983
         vertex 0.176029 -0.000981696 0.00540211
      endloop
   endfacet
   facet normal -4.33778e-06 -1 1.10184e-06
      outer loop
         vertex 0.176072 -0.000981696 0.00524159
         vertex 0.176 -0.000981696 0.0053914
         vertex 0.175971 -0.000981696 0.0053778
      endloop
   endfacet
   facet normal -4.33778e-06 -1 1.10184e-06
      outer loop
         vertex 0.176093 -0.000981697 0.00456287
         vertex 0.176083 -0.000981697 0.00471714
         vertex 0.175747 -0.000981695 0.00470858
      endloop
   endfacet
   facet normal -4.33778e-06 -1 1.10184e-06
      outer loop
         vertex 0.176124 -0.000981697 0.00473104
         vertex 0.176202 -0.000981697 0.00459061
         vertex 0.176224 -0.000981698 0.00460116
      endloop
   endfacet
   facet normal -4.33778e-06 -1 1.10184e-06
      outer loop
         vertex 0.176146 -0.000981697 0.00486844
         vertex 0.176152 -0.000981697 0.00486113
         vertex 0.176267 -0.000981697 0.00494105
      endloop
   endfacet
   facet normal -4.33778e-06 -1 1.10184e-06
      outer loop
         vertex 0.175855 -0.000981695 0.00512513
         vertex 0.176028 -0.000981696 0.00515424
         vertex 0.176026 -0.000981696 0.00516294
      endloop
   endfacet
   facet normal -4.33778e-06 -1 1.10184e-06
      outer loop
         vertex 0.175971 -0.000981696 0.0053778
         vertex 0.175945 -0.000981695 0.00536144
         vertex 0.176056 -0.000981696 0.00523143
      endloop
   endfacet
   facet normal -4.33778e-06 -1 1.10184e-06
      outer loop
         vertex 0.175945 -0.000981695 0.00536144
         vertex 0.17592 -0.000981695 0.0053425
         vertex 0.176041 -0.000981696 0.00521974
      endloop
   endfacet
   facet normal -4.33778e-06 -1 1.10184e-06
      outer loop
         vertex 0.176083 -0.000981697 0.00471714
         vertex 0.176093 -0.000981697 0.00456287
         vertex 0.176137 -0.000981697 0.00457104
      endloop
   endfacet
   facet normal -4.33778e-06 -1 1.10184e-06
      outer loop
         vertex 0.175888 -0.000981695 0.00530936
         vertex 0.175875 -0.000981695 0.00529043
         vertex 0.176037 -0.000981696 0.00521252
      endloop
   endfacet
   facet normal -4.33778e-06 -1 1.10184e-06
      outer loop
         vertex 0.176041 -0.000981696 0.00521974
         vertex 0.176056 -0.000981696 0.00523143
         vertex 0.175945 -0.000981695 0.00536144
      endloop
   endfacet
   facet normal -4.33778e-06 -1 1.10184e-06
      outer loop
         vertex 0.176161 -0.000981697 0.00476855
         vertex 0.176312 -0.000981698 0.00468494
         vertex 0.176324 -0.000981698 0.00470682
      endloop
   endfacet
   facet normal -4.33778e-06 -1 1.10184e-06
      outer loop
         vertex 0.175747 -0.000981695 0.00470858
         vertex 0.175723 -0.000981695 0.00456286
         vertex 0.176093 -0.000981697 0.00456287
      endloop
   endfacet
   facet normal -4.33778e-06 -1 1.10184e-06
      outer loop
         vertex 0.176161 -0.000981697 0.00526657
         vertex 0.176412 -0.000981698 0.00527955
         vertex 0.176433 -0.000981697 0.00543594
      endloop
   endfacet
endsolid 1111. Units = meters