solid 1111. STL generated by ONSHAPE BY PTC INC, 1.216. Units = meters
   facet normal -4.33778e-06 -1 1.10184e-06
      outer loop
         vertex 0.175222 -0.000981693 -0.00561465
         vertex 0.175385 -0.000981694 -0.00553441
         vertex 0.175369 -0.000981693 -0.00550691
      endloop
   endfacet
   facet normal -4.33778e-06 -1 1.10184e-06
      outer loop
         vertex 0.175403 -0.000981694 -0.00578304
         vertex 0.175442 -0.000981694 -0.00579917
         vertex 0.175502 -0.000981694 -0.00564021
      endloop
   endfacet
   facet normal -4.33778e-06 -1 1.10184e-06
      outer loop
         vertex 0.175515 -0.000981694 -0.00581312
         vertex 0.175561 -0.000981695 -0.00566376
         vertex 0.175531 -0.000981694 -0.00565349
      endloop
   endfacet
   facet normal -4.33778e-06 -1 1.10184e-06
      outer loop
         vertex 0.175515 -0.000981694 -0.00581312
         vertex 0.175589 -0.000981695 -0.00582056
         vertex 0.175592 -0.000981695 -0.00567092
      endloop
   endfacet
   facet normal -4.33778e-06 -1 1.10184e-06
      outer loop
         vertex 0.175664 -0.000981695 -0.00582144
         vertex 0.175656 -0.000981695 -0.00567561
         vertex 0.175624 -0.000981695 -0.00567488
      endloop
   endfacet
   facet normal -4.33778e-06 -1 1.10184e-06
      outer loop
         vertex 0.175203 -0.000981693 -0.00557734
         vertex 0.175369 -0.000981693 -0.00550691
         vertex 0.175356 -0.000981693 -0.00547793
      endloop
   endfacet
   facet normal -4.33778e-06 -1 1.10184e-06
      outer loop
         vertex 0.175369 -0.000981693 -0.00550691
         vertex 0.175203 -0.000981693 -0.00557734
         vertex 0.175222 -0.000981693 -0.00561465
      endloop
   endfacet
   facet normal -4.33778e-06 -1 1.10184e-06
      outer loop
         vertex 0.175271 -0.000981693 -0.00568266
         vertex 0.1753 -0.000981693 -0.00571265
         vertex 0.175425 -0.000981694 -0.00558379
      endloop
   endfacet
   facet normal -4.33778e-06 -1 1.10184e-06
      outer loop
         vertex 0.175332 -0.000981694 -0.00573956
         vertex 0.175449 -0.000981694 -0.00560518
         vertex 0.175425 -0.000981694 -0.00558379
      endloop
   endfacet
   facet normal -4.33778e-06 -1 1.10184e-06
      outer loop
         vertex 0.175475 -0.000981694 -0.00562404
         vertex 0.175366 -0.000981694 -0.0057631
         vertex 0.175403 -0.000981694 -0.00578304
      endloop
   endfacet
   facet normal -4.33778e-06 -1 1.10184e-06
      outer loop
         vertex 0.175531 -0.000981694 -0.00565349
         vertex 0.175442 -0.000981694 -0.00579917
         vertex 0.175515 -0.000981694 -0.00581312
      endloop
   endfacet
   facet normal -4.33778e-06 -1 1.10184e-06
      outer loop
         vertex 0.175589 -0.000981695 -0.00582056
         vertex 0.175624 -0.000981695 -0.00567488
         vertex 0.175592 -0.000981695 -0.00567092
      endloop
   endfacet
   facet normal -4.33778e-06 -1 1.10184e-06
      outer loop
         vertex 0.175664 -0.000981695 -0.00582144
         vertex 0.175687 -0.000981695 -0.00567309
         vertex 0.175656 -0.000981695 -0.00567561
      endloop
   endfacet
   facet normal -4.33778e-06 -1 1.10184e-06
      outer loop
         vertex 0.175188 -0.000981693 -0.00553831
         vertex 0.175356 -0.000981693 -0.00547793
         vertex 0.175346 -0.000981693 -0.00544774
      endloop
   endfacet
   facet normal -4.33778e-06 -1 1.10184e-06
      outer loop
         vertex 0.175222 -0.000981693 -0.00561465
         vertex 0.175245 -0.000981693 -0.00564988
         vertex 0.175385 -0.000981694 -0.00553441
      endloop
   endfacet
   facet normal -4.33778e-06 -1 1.10184e-06
      outer loop
         vertex 0.175425 -0.000981694 -0.00558379
         vertex 0.1753 -0.000981693 -0.00571265
         vertex 0.175332 -0.000981694 -0.00573956
      endloop
   endfacet
   facet normal -4.33778e-06 -1 1.10184e-06
      outer loop
         vertex 0.175366 -0.000981694 -0.0057631
         vertex 0.175475 -0.000981694 -0.00562404
         vertex 0.175449 -0.000981694 -0.00560518
      endloop
   endfacet
   facet normal -4.33778e-06 -1 1.10184e-06
      outer loop
         vertex 0.175531 -0.000981694 -0.00565349
         vertex 0.175502 -0.000981694 -0.00564021
         vertex 0.175442 -0.000981694 -0.00579917
      endloop
   endfacet
   facet normal -4.33778e-06 -1 1.10184e-06
      outer loop
         vertex 0.175624 -0.000981695 -0.00567488
         vertex 0.175589 -0.000981695 -0.00582056
         vertex 0.175664 -0.000981695 -0.00582144
      endloop
   endfacet
   facet normal -4.33778e-06 -1 1.10184e-06
      outer loop
         vertex 0.17576 -0.000981695 -0.00494386
         vertex 0.175751 -0.000981695 -0.00511301
         vertex 0.175803 -0.000981695 -0.00511521
      endloop
   endfacet
   facet normal -4.33778e-06 -1 1.10184e-06
      outer loop
         vertex 0.175691 -0.000981694 -0.00494788
         vertex 0.175699 -0.000981694 -0.00511593
         vertex 0.175751 -0.000981695 -0.00511301
      endloop
   endfacet
   facet normal -4.33778e-06 -1 1.10184e-06
      outer loop
         vertex 0.175622 -0.000981694 -0.00495886
         vertex 0.175648 -0.000981694 -0.00512396
         vertex 0.175699 -0.000981694 -0.00511593
      endloop
   endfacet
   facet normal -4.33778e-06 -1 1.10184e-06
      outer loop
         vertex 0.175555 -0.000981694 -0.00497669
         vertex 0.175597 -0.000981694 -0.00513701
         vertex 0.175648 -0.000981694 -0.00512396
      endloop
   endfacet
   facet normal -4.33778e-06 -1 1.10184e-06
      outer loop
         vertex 0.17549 -0.000981693 -0.0050012
         vertex 0.175548 -0.000981694 -0.00515495
         vertex 0.175597 -0.000981694 -0.00513701
      endloop
   endfacet
   facet normal -4.33778e-06 -1 1.10184e-06
      outer loop
         vertex 0.175428 -0.000981693 -0.00503213
         vertex 0.175501 -0.000981694 -0.00517762
         vertex 0.175548 -0.000981694 -0.00515495
      endloop
   endfacet
   facet normal -4.33778e-06 -1 1.10184e-06
      outer loop
         vertex 0.175369 -0.000981693 -0.00506917
         vertex 0.175457 -0.000981694 -0.00520479
         vertex 0.175501 -0.000981694 -0.00517762
      endloop
   endfacet
   facet normal -4.33778e-06 -1 1.10184e-06
      outer loop
         vertex 0.175314 -0.000981693 -0.00511194
         vertex 0.175415 -0.000981693 -0.0052362
         vertex 0.175457 -0.000981694 -0.00520479
      endloop
   endfacet
   facet normal -4.33778e-06 -1 1.10184e-06
      outer loop
         vertex 0.175172 -0.000981693 -0.00545482
         vertex 0.175346 -0.000981693 -0.00544774
         vertex 0.175339 -0.000981693 -0.00541668
      endloop
   endfacet
   facet normal -4.33778e-06 -1 1.10184e-06
      outer loop
         vertex 0.175356 -0.000981693 -0.00547793
         vertex 0.175188 -0.000981693 -0.00553831
         vertex 0.175203 -0.000981693 -0.00557734
      endloop
   endfacet
   facet normal -4.33778e-06 -1 1.10184e-06
      outer loop
         vertex 0.175245 -0.000981693 -0.00564988
         vertex 0.175271 -0.000981693 -0.00568266
         vertex 0.175404 -0.000981694 -0.00556012
      endloop
   endfacet
   facet normal -4.33778e-06 -1 1.10184e-06
      outer loop
         vertex 0.175449 -0.000981694 -0.00560518
         vertex 0.175332 -0.000981694 -0.00573956
         vertex 0.175366 -0.000981694 -0.0057631
      endloop
   endfacet
   facet normal -4.33778e-06 -1 1.10184e-06
      outer loop
         vertex 0.175592 -0.000981695 -0.00567092
         vertex 0.175561 -0.000981695 -0.00566376
         vertex 0.175515 -0.000981694 -0.00581312
      endloop
   endfacet
   facet normal -4.33778e-06 -1 1.10184e-06
      outer loop
         vertex 0.175751 -0.000981695 -0.00511301
         vertex 0.17576 -0.000981695 -0.00494386
         vertex 0.175691 -0.000981694 -0.00494788
      endloop
   endfacet
   facet normal -4.33778e-06 -1 1.10184e-06
      outer loop
         vertex 0.175648 -0.000981694 -0.00512396
         vertex 0.175622 -0.000981694 -0.00495886
         vertex 0.175555 -0.000981694 -0.00497669
      endloop
   endfacet
   facet normal -4.33778e-06 -1 1.10184e-06
      outer loop
         vertex 0.175548 -0.000981694 -0.00515495
         vertex 0.17549 -0.000981693 -0.0050012
         vertex 0.175428 -0.000981693 -0.00503213
      endloop
   endfacet
   facet normal -4.33778e-06 -1 1.10184e-06
      outer loop
         vertex 0.175457 -0.000981694 -0.00520479
         vertex 0.175369 -0.000981693 -0.00506917
         vertex 0.175314 -0.000981693 -0.00511194
      endloop
   endfacet
   facet normal -4.33778e-06 -1 1.10184e-06
      outer loop
         vertex 0.175377 -0.000981693 -0.00527154
         vertex 0.175188 -0.000981692 -0.00528955
         vertex 0.175178 -0.000981692 -0.0053298
      endloop
   endfacet
   facet normal -4.33778e-06 -1 1.10184e-06
      outer loop
         vertex 0.175377 -0.000981693 -0.00527154
         vertex 0.175264 -0.000981693 -0.00516001
         vertex 0.175219 -0.000981693 -0.00521288
      endloop
   endfacet
   facet normal -4.33778e-06 -1 1.10184e-06
      outer loop
         vertex 0.175264 -0.000981693 -0.00516001
         vertex 0.175377 -0.000981693 -0.00527154
         vertex 0.175415 -0.000981693 -0.0052362
      endloop
   endfacet
   facet normal -4.33778e-06 -1 1.10184e-06
      outer loop
         vertex 0.175339 -0.000981693 -0.00541668
         vertex 0.17517 -0.000981693 -0.00541225
         vertex 0.175172 -0.000981693 -0.00545482
      endloop
   endfacet
   facet normal -4.33778e-06 -1 1.10184e-06
      outer loop
         vertex 0.175404 -0.000981694 -0.00556012
         vertex 0.175385 -0.000981694 -0.00553441
         vertex 0.175245 -0.000981693 -0.00564988
      endloop
   endfacet
   facet normal -4.33778e-06 -1 1.10184e-06
      outer loop
         vertex 0.175502 -0.000981694 -0.00564021
         vertex 0.175475 -0.000981694 -0.00562404
         vertex 0.175403 -0.000981694 -0.00578304
      endloop
   endfacet
   facet normal -4.33778e-06 -1 1.10184e-06
      outer loop
         vertex 0.175699 -0.000981694 -0.00511593
         vertex 0.175691 -0.000981694 -0.00494788
         vertex 0.175622 -0.000981694 -0.00495886
      endloop
   endfacet
   facet normal -4.33778e-06 -1 1.10184e-06
      outer loop
         vertex 0.175501 -0.000981694 -0.00517762
         vertex 0.175428 -0.000981693 -0.00503213
         vertex 0.175369 -0.000981693 -0.00506917
      endloop
   endfacet
   facet normal -4.33778e-06 -1 1.10184e-06
      outer loop
         vertex 0.175377 -0.000981693 -0.00527154
         vertex 0.175202 -0.000981692 -0.00525046
         vertex 0.175188 -0.000981692 -0.00528955
      endloop
   endfacet
   facet normal -4.33778e-06 -1 1.10184e-06
      outer loop
         vertex 0.175415 -0.000981693 -0.0052362
         vertex 0.175314 -0.000981693 -0.00511194
         vertex 0.175264 -0.000981693 -0.00516001
      endloop
   endfacet
   facet normal -4.33778e-06 -1 1.10184e-06
      outer loop
         vertex 0.175728 -0.000981695 -0.00541668
         vertex 0.175751 -0.000981695 -0.00527154
         vertex 0.175377 -0.000981693 -0.00527154
      endloop
   endfacet
   facet normal -4.33778e-06 -1 1.10184e-06
      outer loop
         vertex 0.175339 -0.000981693 -0.00541668
         vertex 0.175172 -0.000981692 -0.00537083
         vertex 0.17517 -0.000981693 -0.00541225
      endloop
   endfacet
   facet normal -4.33778e-06 -1 1.10184e-06
      outer loop
         vertex 0.175425 -0.000981694 -0.00558379
         vertex 0.175404 -0.000981694 -0.00556012
         vertex 0.175271 -0.000981693 -0.00568266
      endloop
   endfacet
   facet normal -4.33778e-06 -1 1.10184e-06
      outer loop
         vertex 0.175597 -0.000981694 -0.00513701
         vertex 0.175555 -0.000981694 -0.00497669
         vertex 0.17549 -0.000981693 -0.0050012
      endloop
   endfacet
   facet normal -4.33778e-06 -1 1.10184e-06
      outer loop
         vertex 0.175219 -0.000981693 -0.00521288
         vertex 0.175202 -0.000981692 -0.00525046
         vertex 0.175377 -0.000981693 -0.00527154
      endloop
   endfacet
   facet normal -4.33778e-06 -1 1.10184e-06
      outer loop
         vertex 0.175377 -0.000981693 -0.00527154
         vertex 0.175172 -0.000981692 -0.00537083
         vertex 0.175339 -0.000981693 -0.00541668
      endloop
   endfacet
   facet normal -4.33778e-06 -1 1.10184e-06
      outer loop
         vertex 0.175346 -0.000981693 -0.00544774
         vertex 0.175178 -0.000981693 -0.00549698
         vertex 0.175188 -0.000981693 -0.00553831
      endloop
   endfacet
   facet normal -4.33778e-06 -1 1.10184e-06
      outer loop
         vertex 0.175178 -0.000981692 -0.0053298
         vertex 0.175172 -0.000981692 -0.00537083
         vertex 0.175377 -0.000981693 -0.00527154
      endloop
   endfacet
   facet normal -4.33778e-06 -1 1.10184e-06
      outer loop
         vertex 0.175172 -0.000981693 -0.00545482
         vertex 0.175178 -0.000981693 -0.00549698
         vertex 0.175346 -0.000981693 -0.00544774
      endloop
   endfacet
   facet normal -4.33778e-06 -1 1.10184e-06
      outer loop
         vertex 0.175377 -0.000981693 -0.00527154
         vertex 0.175339 -0.000981693 -0.00541668
         vertex 0.175728 -0.000981695 -0.00541668
      endloop
   endfacet
   facet normal -4.33778e-06 -1 1.10184e-06
      outer loop
         vertex 0.175803 -0.000981695 -0.00511521
         vertex 0.17583 -0.000981695 -0.00494685
         vertex 0.17576 -0.000981695 -0.00494386
      endloop
   endfacet
endsolid 1111. Units = meters