solid 1111. STL generated by ONSHAPE BY PTC INC, 1.216. Units = meters
   facet normal 0 0.0436194 -0.999048
      outer loop
         vertex 0.0193799 0.0241924 -0.0210953
         vertex 0.0191979 0.0236068 -0.0211208
         vertex 0.0191306 0.0236387 -0.0211194
      endloop
   endfacet
   facet normal 0 0.0436194 -0.999048
      outer loop
         vertex 0.0193799 0.0241924 -0.0210953
         vertex 0.0192766 0.0235787 -0.0211221
         vertex 0.0191979 0.0236068 -0.0211208
      endloop
   endfacet
   facet normal 0 0.0436194 -0.999048
      outer loop
         vertex 0.0193736 0.0235541 -0.0211231
         vertex 0.0195478 0.0239629 -0.0211053
         vertex 0.0195889 0.0239479 -0.0211059
      endloop
   endfacet
   facet normal 0 0.0436194 -0.999048
      outer loop
         vertex 0.0193799 0.0241924 -0.0210953
         vertex 0.0188513 0.023891 -0.0211084
         vertex 0.0188154 0.0239513 -0.0211058
      endloop
   endfacet
   facet normal 0 0.0436194 -0.999048
      outer loop
         vertex 0.0193799 0.0241924 -0.0210953
         vertex 0.0189965 0.0237289 -0.0211155
         vertex 0.0189418 0.0237791 -0.0211133
      endloop
   endfacet
   facet normal 0 0.0436194 -0.999048
      outer loop
         vertex 0.0191306 0.0236387 -0.0211194
         vertex 0.0190582 0.0236827 -0.0211175
         vertex 0.0193799 0.0241924 -0.0210953
      endloop
   endfacet
   facet normal 0 0.0436194 -0.999048
      outer loop
         vertex 0.0193736 0.0235541 -0.0211231
         vertex 0.0195145 0.0239789 -0.0211046
         vertex 0.0195478 0.0239629 -0.0211053
      endloop
   endfacet
   facet normal 0 0.0436194 -0.999048
      outer loop
         vertex 0.0193799 0.0241924 -0.0210953
         vertex 0.0188939 0.0238329 -0.021111
         vertex 0.0188513 0.023891 -0.0211084
      endloop
   endfacet
   facet normal 0 0.0436194 -0.999048
      outer loop
         vertex 0.0190582 0.0236827 -0.0211175
         vertex 0.0189965 0.0237289 -0.0211155
         vertex 0.0193799 0.0241924 -0.0210953
      endloop
   endfacet
   facet normal 0 0.0436194 -0.999048
      outer loop
         vertex 0.020019 0.0234323 -0.0211285
         vertex 0.0193736 0.0235541 -0.0211231
         vertex 0.0196947 0.0239263 -0.0211069
      endloop
   endfacet
   facet normal 0 0.0436194 -0.999048
      outer loop
         vertex 0.0195889 0.0239479 -0.0211059
         vertex 0.0196385 0.0239351 -0.0211065
         vertex 0.0193736 0.0235541 -0.0211231
      endloop
   endfacet
   facet normal 0 0.0436194 -0.999048
      outer loop
         vertex 0.0188154 0.0239513 -0.0211058
         vertex 0.0187865 0.0240136 -0.0211031
         vertex 0.0193799 0.0241924 -0.0210953
      endloop
   endfacet
   facet normal 0 0.0436194 -0.999048
      outer loop
         vertex 0.0193799 0.0241924 -0.0210953
         vertex 0.0193736 0.0235541 -0.0211231
         vertex 0.0192766 0.0235787 -0.0211221
      endloop
   endfacet
   facet normal 0 0.0436194 -0.999048
      outer loop
         vertex 0.0196385 0.0239351 -0.0211065
         vertex 0.0196947 0.0239263 -0.0211069
         vertex 0.0193736 0.0235541 -0.0211231
      endloop
   endfacet
   facet normal 0 0.0436194 -0.999048
      outer loop
         vertex 0.0193799 0.0241924 -0.0210953
         vertex 0.0187602 0.0240884 -0.0210998
         vertex 0.0187435 0.0241551 -0.0210969
      endloop
   endfacet
   facet normal 0 0.0436194 -0.999048
      outer loop
         vertex 0.0189418 0.0237791 -0.0211133
         vertex 0.0188939 0.0238329 -0.021111
         vertex 0.0193799 0.0241924 -0.0210953
      endloop
   endfacet
   facet normal 0 0.0436194 -0.999048
      outer loop
         vertex 0.0193736 0.0235541 -0.0211231
         vertex 0.0194867 0.0239957 -0.0211039
         vertex 0.0195145 0.0239789 -0.0211046
      endloop
   endfacet
   facet normal 0 0.0436194 -0.999048
      outer loop
         vertex 0.0193736 0.0235541 -0.0211231
         vertex 0.019442 0.0240329 -0.0211022
         vertex 0.0194616 0.0240147 -0.021103
      endloop
   endfacet
   facet normal 0 0.0436194 -0.999048
      outer loop
         vertex 0.0187865 0.0240136 -0.0211031
         vertex 0.0187602 0.0240884 -0.0210998
         vertex 0.0193799 0.0241924 -0.0210953
      endloop
   endfacet
   facet normal 0 0.0436194 -0.999048
      outer loop
         vertex 0.0193816 0.0242113 -0.0210944
         vertex 0.0193799 0.0241924 -0.0210953
         vertex 0.018735 0.0242137 -0.0210943
      endloop
   endfacet
   facet normal 0 0.0436194 -0.999048
      outer loop
         vertex 0.0194495 0.0243208 -0.0210897
         vertex 0.0191 0.0248037 -0.0210686
         vertex 0.019184 0.0248336 -0.0210673
      endloop
   endfacet
   facet normal 0 0.0436194 -0.999048
      outer loop
         vertex 0.0194616 0.0240147 -0.021103
         vertex 0.0194867 0.0239957 -0.0211039
         vertex 0.0193736 0.0235541 -0.0211231
      endloop
   endfacet
   facet normal 0 0.0436194 -0.999048
      outer loop
         vertex 0.0193736 0.0235541 -0.0211231
         vertex 0.0193799 0.0241924 -0.0210953
         vertex 0.01938 0.0241709 -0.0210962
      endloop
   endfacet
   facet normal 0 0.0436194 -0.999048
      outer loop
         vertex 0.018735 0.0242137 -0.0210943
         vertex 0.0187317 0.0242874 -0.0210911
         vertex 0.0193816 0.0242113 -0.0210944
      endloop
   endfacet
   facet normal 0 0.0436194 -0.999048
      outer loop
         vertex 0.0187356 0.0243682 -0.0210876
         vertex 0.0193846 0.0242271 -0.0210937
         vertex 0.0193816 0.0242113 -0.0210944
      endloop
   endfacet
   facet normal 0 0.0436194 -0.999048
      outer loop
         vertex 0.0187424 0.0244147 -0.0210856
         vertex 0.0193889 0.0242417 -0.0210931
         vertex 0.0193846 0.0242271 -0.0210937
      endloop
   endfacet
   facet normal 0 0.0436194 -0.999048
      outer loop
         vertex 0.019184 0.0248336 -0.0210673
         vertex 0.0194736 0.0243361 -0.021089
         vertex 0.0194678 0.0243328 -0.0210891
      endloop
   endfacet
   facet normal 0 0.0436194 -0.999048
      outer loop
         vertex 0.0194736 0.0243361 -0.021089
         vertex 0.019184 0.0248336 -0.0210673
         vertex 0.0192954 0.0248619 -0.021066
      endloop
   endfacet
   facet normal 0 0.0436194 -0.999048
      outer loop
         vertex 0.0193736 0.0235541 -0.0211231
         vertex 0.0194242 0.0240531 -0.0211013
         vertex 0.019442 0.0240329 -0.0211022
      endloop
   endfacet
   facet normal 0 0.0436194 -0.999048
      outer loop
         vertex 0.01938 0.0241709 -0.0210962
         vertex 0.019382 0.0241499 -0.0210971
         vertex 0.0193736 0.0235541 -0.0211231
      endloop
   endfacet
   facet normal 0 0.0436194 -0.999048
      outer loop
         vertex 0.0193816 0.0242113 -0.0210944
         vertex 0.0187317 0.0242874 -0.0210911
         vertex 0.0187356 0.0243682 -0.0210876
      endloop
   endfacet
   facet normal 0 0.0436194 -0.999048
      outer loop
         vertex 0.0193846 0.0242271 -0.0210937
         vertex 0.0187356 0.0243682 -0.0210876
         vertex 0.0187424 0.0244147 -0.0210856
      endloop
   endfacet
   facet normal 0 0.0436194 -0.999048
      outer loop
         vertex 0.0187616 0.0244817 -0.0210826
         vertex 0.0187805 0.0245258 -0.0210807
         vertex 0.019395 0.0242567 -0.0210925
      endloop
   endfacet
   facet normal 0 0.0436194 -0.999048
      outer loop
         vertex 0.0194222 0.0242972 -0.0210907
         vertex 0.0189715 0.0247353 -0.0210716
         vertex 0.0190332 0.0247722 -0.02107
      endloop
   endfacet
   facet normal 0 0.0436194 -0.999048
      outer loop
         vertex 0.0194333 0.0243079 -0.0210902
         vertex 0.0190332 0.0247722 -0.02107
         vertex 0.0191 0.0248037 -0.0210686
      endloop
   endfacet
   facet normal 0 0.0436194 -0.999048
      outer loop
         vertex 0.0192954 0.0248619 -0.021066
         vertex 0.0194975 0.0243478 -0.0210885
         vertex 0.0194736 0.0243361 -0.021089
      endloop
   endfacet
   facet normal 0 0.0436194 -0.999048
      outer loop
         vertex 0.0192954 0.0248619 -0.021066
         vertex 0.0194232 0.0248811 -0.0210652
         vertex 0.0195236 0.0243574 -0.0210881
      endloop
   endfacet
   facet normal 0 0.0436194 -0.999048
      outer loop
         vertex 0.019683 0.0243768 -0.0210872
         vertex 0.0196413 0.0248936 -0.0210646
         vertex 0.0213253 0.0248936 -0.0210646
      endloop
   endfacet
   facet normal 0 0.0436194 -0.999048
      outer loop
         vertex 0.0193736 0.0235541 -0.0211231
         vertex 0.0194102 0.0240732 -0.0211005
         vertex 0.0194242 0.0240531 -0.0211013
      endloop
   endfacet
   facet normal 0 0.0436194 -0.999048
      outer loop
         vertex 0.019382 0.0241499 -0.0210971
         vertex 0.0193857 0.0241305 -0.021098
         vertex 0.0193736 0.0235541 -0.0211231
      endloop
   endfacet
   facet normal 0 0.0436194 -0.999048
      outer loop
         vertex 0.0196681 0.0229064 -0.0211514
         vertex 0.0192549 0.0234271 -0.0211287
         vertex 0.0193736 0.0235541 -0.0211231
      endloop
   endfacet
   facet normal 0 0.0436194 -0.999048
      outer loop
         vertex 0.0187424 0.0244147 -0.0210856
         vertex 0.0187523 0.0244541 -0.0210838
         vertex 0.0193889 0.0242417 -0.0210931
      endloop
   endfacet
   facet normal 0 0.0436194 -0.999048
      outer loop
         vertex 0.0193889 0.0242417 -0.0210931
         vertex 0.0187523 0.0244541 -0.0210838
         vertex 0.0187616 0.0244817 -0.0210826
      endloop
   endfacet
   facet normal 0 0.0436194 -0.999048
      outer loop
         vertex 0.019395 0.0242567 -0.0210925
         vertex 0.0188026 0.0245662 -0.0210789
         vertex 0.0188274 0.0246025 -0.0210774
      endloop
   endfacet
   facet normal 0 0.0436194 -0.999048
      outer loop
         vertex 0.0194222 0.0242972 -0.0210907
         vertex 0.0189571 0.0247253 -0.021072
         vertex 0.0189715 0.0247353 -0.0210716
      endloop
   endfacet
   facet normal 0 0.0436194 -0.999048
      outer loop
         vertex 0.019184 0.0248336 -0.0210673
         vertex 0.0194678 0.0243328 -0.0210891
         vertex 0.0194495 0.0243208 -0.0210897
      endloop
   endfacet
   facet normal 0 0.0436194 -0.999048
      outer loop
         vertex 0.0194232 0.0248811 -0.0210652
         vertex 0.0195535 0.0243652 -0.0210877
         vertex 0.0195236 0.0243574 -0.0210881
      endloop
   endfacet
   facet normal 0 0.0436194 -0.999048
      outer loop
         vertex 0.0194232 0.0248811 -0.0210652
         vertex 0.0196413 0.0248936 -0.0210646
         vertex 0.0196006 0.0243728 -0.0210874
      endloop
   endfacet
   facet normal 0 0.0436194 -0.999048
      outer loop
         vertex 0.0213253 0.0248936 -0.0210646
         vertex 0.0214134 0.0243768 -0.0210872
         vertex 0.019683 0.0243768 -0.0210872
      endloop
   endfacet
   facet normal 0 0.0436194 -0.999048
      outer loop
         vertex 0.0193736 0.0235541 -0.0211231
         vertex 0.0193993 0.0240928 -0.0210996
         vertex 0.0194102 0.0240732 -0.0211005
      endloop
   endfacet
   facet normal 0 0.0436194 -0.999048
      outer loop
         vertex 0.0193857 0.0241305 -0.021098
         vertex 0.0193914 0.0241118 -0.0210988
         vertex 0.0193736 0.0235541 -0.0211231
      endloop
   endfacet
   facet normal 0 0.0436194 -0.999048
      outer loop
         vertex 0.0196681 0.0229064 -0.0211514
         vertex 0.0191448 0.0232927 -0.0211345
         vertex 0.0192549 0.0234271 -0.0211287
      endloop
   endfacet
   facet normal 0 0.0436194 -0.999048
      outer loop
         vertex 0.019395 0.0242567 -0.0210925
         vertex 0.0193889 0.0242417 -0.0210931
         vertex 0.0187616 0.0244817 -0.0210826
      endloop
   endfacet
   facet normal 0 0.0436194 -0.999048
      outer loop
         vertex 0.019395 0.0242567 -0.0210925
         vertex 0.0187805 0.0245258 -0.0210807
         vertex 0.0188026 0.0245662 -0.0210789
      endloop
   endfacet
   facet normal 0 0.0436194 -0.999048
      outer loop
         vertex 0.0194028 0.0242714 -0.0210918
         vertex 0.0188581 0.0246391 -0.0210758
         vertex 0.0189031 0.0246829 -0.0210739
      endloop
   endfacet
   facet normal 0 0.0436194 -0.999048
      outer loop
         vertex 0.0194121 0.0242852 -0.0210912
         vertex 0.0189031 0.0246829 -0.0210739
         vertex 0.0189571 0.0247253 -0.021072
      endloop
   endfacet
   facet normal 0 0.0436194 -0.999048
      outer loop
         vertex 0.0191 0.0248037 -0.0210686
         vertex 0.0194495 0.0243208 -0.0210897
         vertex 0.0194333 0.0243079 -0.0210902
      endloop
   endfacet
   facet normal 0 0.0436194 -0.999048
      outer loop
         vertex 0.0196006 0.0243728 -0.0210874
         vertex 0.0195535 0.0243652 -0.0210877
         vertex 0.0194232 0.0248811 -0.0210652
      endloop
   endfacet
   facet normal 0 0.0436194 -0.999048
      outer loop
         vertex 0.019683 0.0243768 -0.0210872
         vertex 0.0196676 0.0243768 -0.0210872
         vertex 0.0196413 0.0248936 -0.0210646
      endloop
   endfacet
   facet normal 0 0.0436194 -0.999048
      outer loop
         vertex 0.0193914 0.0241118 -0.0210988
         vertex 0.0193993 0.0240928 -0.0210996
         vertex 0.0193736 0.0235541 -0.0211231
      endloop
   endfacet
   facet normal 0 0.0436194 -0.999048
      outer loop
         vertex 0.0196681 0.0229064 -0.0211514
         vertex 0.0188446 0.0229064 -0.0211514
         vertex 0.0191448 0.0232927 -0.0211345
      endloop
   endfacet
   facet normal 0 0.0436194 -0.999048
      outer loop
         vertex 0.0188274 0.0246025 -0.0210774
         vertex 0.0194028 0.0242714 -0.0210918
         vertex 0.019395 0.0242567 -0.0210925
      endloop
   endfacet
   facet normal 0 0.0436194 -0.999048
      outer loop
         vertex 0.0194028 0.0242714 -0.0210918
         vertex 0.0188274 0.0246025 -0.0210774
         vertex 0.0188581 0.0246391 -0.0210758
      endloop
   endfacet
   facet normal 0 0.0436194 -0.999048
      outer loop
         vertex 0.0190332 0.0247722 -0.02107
         vertex 0.0194333 0.0243079 -0.0210902
         vertex 0.0194222 0.0242972 -0.0210907
      endloop
   endfacet
   facet normal 0 0.0436194 -0.999048
      outer loop
         vertex 0.0196676 0.0243768 -0.0210872
         vertex 0.0196006 0.0243728 -0.0210874
         vertex 0.0196413 0.0248936 -0.0210646
      endloop
   endfacet
   facet normal 0 0.0436194 -0.999048
      outer loop
         vertex 0.0193736 0.0235541 -0.0211231
         vertex 0.020019 0.0234323 -0.0211285
         vertex 0.0196681 0.0229064 -0.0211514
      endloop
   endfacet
   facet normal 0 0.0436194 -0.999048
      outer loop
         vertex 0.0197634 0.0239223 -0.0211071
         vertex 0.0214937 0.0239223 -0.0211071
         vertex 0.0209644 0.0234323 -0.0211285
      endloop
   endfacet
   facet normal 0 0.0436194 -0.999048
      outer loop
         vertex 0.0189031 0.0246829 -0.0210739
         vertex 0.0194121 0.0242852 -0.0210912
         vertex 0.0194028 0.0242714 -0.0210918
      endloop
   endfacet
   facet normal 0 0.0436194 -0.999048
      outer loop
         vertex 0.0195236 0.0243574 -0.0210881
         vertex 0.0194975 0.0243478 -0.0210885
         vertex 0.0192954 0.0248619 -0.021066
      endloop
   endfacet
   facet normal 0 0.0436194 -0.999048
      outer loop
         vertex 0.0209644 0.0234323 -0.0211285
         vertex 0.020019 0.0234323 -0.0211285
         vertex 0.0197634 0.0239223 -0.0211071
      endloop
   endfacet
   facet normal 0 0.0436194 -0.999048
      outer loop
         vertex 0.0216722 0.0229064 -0.0211514
         vertex 0.0210568 0.0229064 -0.0211514
         vertex 0.0209644 0.0234323 -0.0211285
      endloop
   endfacet
   facet normal 0 0.0436194 -0.999048
      outer loop
         vertex 0.0189571 0.0247253 -0.021072
         vertex 0.0194222 0.0242972 -0.0210907
         vertex 0.0194121 0.0242852 -0.0210912
      endloop
   endfacet
   facet normal 0 0.0436194 -0.999048
      outer loop
         vertex 0.0209644 0.0234323 -0.0211285
         vertex 0.0214937 0.0239223 -0.0211071
         vertex 0.0216722 0.0229064 -0.0211514
      endloop
   endfacet
   facet normal 0 0.0436194 -0.999048
      outer loop
         vertex 0.0196947 0.0239263 -0.0211069
         vertex 0.0197634 0.0239223 -0.0211071
         vertex 0.020019 0.0234323 -0.0211285
      endloop
   endfacet
   facet normal 0 0.0436194 -0.999048
      outer loop
         vertex 0.0187435 0.0241551 -0.0210969
         vertex 0.018735 0.0242137 -0.0210943
         vertex 0.0193799 0.0241924 -0.0210953
      endloop
   endfacet
endsolid 1111. Units = meters