solid 1111. STL generated by ONSHAPE BY PTC INC, 1.216. Units = meters
   facet normal 0 0.0436194 -0.999048
      outer loop
         vertex -0.00245832 0.0241391 -0.0210976
         vertex -0.00203023 0.0236878 -0.0211173
         vertex -0.00439222 0.0236878 -0.0211173
      endloop
   endfacet
   facet normal 0 0.0436194 -0.999048
      outer loop
         vertex -0.00439222 0.0236878 -0.0211173
         vertex -0.00482059 0.0241391 -0.0210976
         vertex -0.00245832 0.0241391 -0.0210976
      endloop
   endfacet
endsolid 1111. Units = meters