solid 1111. STL generated by ONSHAPE BY PTC INC, 1.216. Units = meters
   facet normal 4.33778e-06 1 -1.10184e-06
      outer loop
         vertex 0.15562 0.00392839 0.00352375
         vertex 0.15562 0.00392839 0.0013642
         vertex 0.15432 0.00392839 0.00142663
      endloop
   endfacet
   facet normal 4.33778e-06 1 -1.10184e-06
      outer loop
         vertex 0.15432 0.00392839 0.00142663
         vertex 0.15432 0.0039284 0.00352374
         vertex 0.15562 0.00392839 0.00352375
      endloop
   endfacet
   facet normal 5.95209e-06 0.958315 -0.285715
      outer loop
         vertex 0.15432 0.00510545 0.00470079
         vertex 0.15562 0.00510544 0.0047008
         vertex 0.15562 0.00504773 0.00453728
      endloop
   endfacet
   facet normal 6.3961e-06 0.925333 -0.379154
      outer loop
         vertex 0.15432 0.00504773 0.00453727
         vertex 0.15562 0.00504773 0.00453728
         vertex 0.15562 0.00497411 0.00438028
      endloop
   endfacet
   facet normal 6.77731e-06 0.883267 -0.46887
      outer loop
         vertex 0.15432 0.00497412 0.00438027
         vertex 0.15562 0.00497411 0.00438028
         vertex 0.15562 0.00488532 0.00423133
      endloop
   endfacet
   facet normal 7.09198e-06 0.832528 -0.553983
      outer loop
         vertex 0.15432 0.00488532 0.00423132
         vertex 0.15562 0.00488532 0.00423133
         vertex 0.15562 0.00478222 0.0040919
      endloop
   endfacet
   facet normal 7.33701e-06 0.773615 -0.633656
      outer loop
         vertex 0.15432 0.00478222 0.00409189
         vertex 0.15562 0.00478222 0.0040919
         vertex 0.15562 0.00466583 0.00396336
      endloop
   endfacet
   facet normal 7.51001e-06 0.707106 -0.707108
      outer loop
         vertex 0.15432 0.00466583 0.00396335
         vertex 0.15562 0.00466583 0.00396336
         vertex 0.15562 0.00453729 0.00384697
      endloop
   endfacet
   facet normal 7.60926e-06 0.633654 -0.773616
      outer loop
         vertex 0.15432 0.00453729 0.00384696
         vertex 0.15562 0.00453729 0.00384697
         vertex 0.15562 0.00439786 0.00374387
      endloop
   endfacet
   facet normal 7.63381e-06 0.553981 -0.832529
      outer loop
         vertex 0.15432 0.00439786 0.00374387
         vertex 0.15562 0.00439786 0.00374387
         vertex 0.15562 0.00424891 0.00365508
      endloop
   endfacet
   facet normal 7.5834e-06 0.468868 -0.883268
      outer loop
         vertex 0.15432 0.00424892 0.00365507
         vertex 0.15562 0.00424891 0.00365508
         vertex 0.15562 0.00409191 0.00358147
      endloop
   endfacet
   facet normal 7.45853e-06 0.379152 -0.925334
      outer loop
         vertex 0.15432 0.00409191 0.00358146
         vertex 0.15562 0.00409191 0.00358147
         vertex 0.15562 0.00392839 0.00352375
      endloop
   endfacet
   facet normal 7.26043e-06 0.285713 -0.958315
      outer loop
         vertex 0.15562 0.00392839 0.00352375
         vertex 0.15432 0.0039284 0.00352374
         vertex 0.15432 0.00409191 0.00358146
      endloop
   endfacet
   facet normal 7.45853e-06 0.379152 -0.925334
      outer loop
         vertex 0.15562 0.00409191 0.00358147
         vertex 0.15432 0.00409191 0.00358146
         vertex 0.15432 0.00424892 0.00365507
      endloop
   endfacet
   facet normal 7.5834e-06 0.468868 -0.883268
      outer loop
         vertex 0.15562 0.00424891 0.00365508
         vertex 0.15432 0.00424892 0.00365507
         vertex 0.15432 0.00439786 0.00374387
      endloop
   endfacet
   facet normal 7.63381e-06 0.553981 -0.832529
      outer loop
         vertex 0.15562 0.00439786 0.00374387
         vertex 0.15432 0.00439786 0.00374387
         vertex 0.15432 0.00453729 0.00384696
      endloop
   endfacet
   facet normal 7.60926e-06 0.633654 -0.773616
      outer loop
         vertex 0.15562 0.00453729 0.00384697
         vertex 0.15432 0.00453729 0.00384696
         vertex 0.15432 0.00466583 0.00396335
      endloop
   endfacet
   facet normal 7.51001e-06 0.707106 -0.707108
      outer loop
         vertex 0.15562 0.00466583 0.00396336
         vertex 0.15432 0.00466583 0.00396335
         vertex 0.15432 0.00478222 0.00409189
      endloop
   endfacet
   facet normal 7.33701e-06 0.773615 -0.633656
      outer loop
         vertex 0.15562 0.00478222 0.0040919
         vertex 0.15432 0.00478222 0.00409189
         vertex 0.15432 0.00488532 0.00423132
      endloop
   endfacet
   facet normal 7.09198e-06 0.832528 -0.553983
      outer loop
         vertex 0.15562 0.00488532 0.00423133
         vertex 0.15432 0.00488532 0.00423132
         vertex 0.15432 0.00497412 0.00438027
      endloop
   endfacet
   facet normal 6.77731e-06 0.883267 -0.46887
      outer loop
         vertex 0.15562 0.00497411 0.00438028
         vertex 0.15432 0.00497412 0.00438027
         vertex 0.15432 0.00504773 0.00453727
      endloop
   endfacet
   facet normal 6.3961e-06 0.925333 -0.379154
      outer loop
         vertex 0.15562 0.00504773 0.00453728
         vertex 0.15432 0.00504773 0.00453727
         vertex 0.15432 0.00510545 0.00470079
      endloop
   endfacet
   facet normal 1 -4.33777e-06 6.28298e-06
      outer loop
         vertex 0.15432 0.00547484 0.00199044
         vertex 0.15432 0.00439786 0.00374387
         vertex 0.15432 0.00424892 0.00365507
      endloop
   endfacet
   facet normal 1 -4.33777e-06 6.28298e-06
      outer loop
         vertex 0.15432 0.00581177 0.00223198
         vertex 0.15432 0.00453729 0.00384696
         vertex 0.15432 0.00439786 0.00374387
      endloop
   endfacet
   facet normal 1 -4.33777e-06 6.28298e-06
      outer loop
         vertex 0.15432 0.00612045 0.00250874
         vertex 0.15432 0.0063972 0.00281741
         vertex 0.15432 0.00478222 0.00409189
      endloop
   endfacet
   facet normal 1 -4.33777e-06 6.28298e-06
      outer loop
         vertex 0.15432 0.0063972 0.00281741
         vertex 0.15432 0.00663875 0.00315435
         vertex 0.15432 0.00488532 0.00423132
      endloop
   endfacet
   facet normal 1 -4.33777e-06 6.28298e-06
      outer loop
         vertex 0.15432 0.00473245 0.00162396
         vertex 0.15432 0.00409191 0.00358146
         vertex 0.15432 0.0039284 0.00352374
      endloop
   endfacet
   facet normal 1 -4.33777e-06 6.28298e-06
      outer loop
         vertex 0.15432 0.00439786 0.00374387
         vertex 0.15432 0.00547484 0.00199044
         vertex 0.15432 0.00581177 0.00223198
      endloop
   endfacet
   facet normal 1 -4.33777e-06 6.28298e-06
      outer loop
         vertex 0.15432 0.00612045 0.00250874
         vertex 0.15432 0.00466583 0.00396335
         vertex 0.15432 0.00453729 0.00384696
      endloop
   endfacet
   facet normal 1 -4.33777e-06 6.28298e-06
      outer loop
         vertex 0.15432 0.00488532 0.00423132
         vertex 0.15432 0.00478222 0.00409189
         vertex 0.15432 0.0063972 0.00281741
      endloop
   endfacet
   facet normal 1 -4.33777e-06 6.28298e-06
      outer loop
         vertex 0.15432 0.00663875 0.00315435
         vertex 0.15432 0.00684223 0.00351555
         vertex 0.15432 0.00497412 0.00438027
      endloop
   endfacet
   facet normal 1 -4.33777e-06 6.28298e-06
      outer loop
         vertex 0.15432 0.0039284 0.00352374
         vertex 0.15432 0.00392839 0.00142663
         vertex 0.15432 0.0043358 0.00150337
      endloop
   endfacet
   facet normal 1 -4.33777e-06 6.28298e-06
      outer loop
         vertex 0.15432 0.00511364 0.00178696
         vertex 0.15432 0.00424892 0.00365507
         vertex 0.15432 0.00409191 0.00358146
      endloop
   endfacet
   facet normal 1 -4.33777e-06 6.28298e-06
      outer loop
         vertex 0.15432 0.00453729 0.00384696
         vertex 0.15432 0.00581177 0.00223198
         vertex 0.15432 0.00612045 0.00250874
      endloop
   endfacet
   facet normal 1 -4.33777e-06 6.28298e-06
      outer loop
         vertex 0.15432 0.00497412 0.00438027
         vertex 0.15432 0.00488532 0.00423132
         vertex 0.15432 0.00663875 0.00315435
      endloop
   endfacet
   facet normal 1 -4.33777e-06 6.28298e-06
      outer loop
         vertex 0.15432 0.00700523 0.00389673
         vertex 0.15432 0.00712582 0.00429338
         vertex 0.15432 0.00510545 0.00470079
      endloop
   endfacet
   facet normal 1 -4.33777e-06 6.28298e-06
      outer loop
         vertex 0.15432 0.00409191 0.00358146
         vertex 0.15432 0.00473245 0.00162396
         vertex 0.15432 0.00511364 0.00178696
      endloop
   endfacet
   facet normal 1 -4.33777e-06 6.28298e-06
      outer loop
         vertex 0.15432 0.00478222 0.00409189
         vertex 0.15432 0.00466583 0.00396335
         vertex 0.15432 0.00612045 0.00250874
      endloop
   endfacet
   facet normal 1 -4.33777e-06 6.28298e-06
      outer loop
         vertex 0.15432 0.00684223 0.00351555
         vertex 0.15432 0.00700523 0.00389673
         vertex 0.15432 0.00504773 0.00453727
      endloop
   endfacet
   facet normal 1 -4.33777e-06 6.28298e-06
      outer loop
         vertex 0.15432 0.00510545 0.00470079
         vertex 0.15432 0.00504773 0.00453727
         vertex 0.15432 0.00700523 0.00389673
      endloop
   endfacet
   facet normal 1 -4.33777e-06 6.28298e-06
      outer loop
         vertex 0.15432 0.00424892 0.00365507
         vertex 0.15432 0.00511364 0.00178696
         vertex 0.15432 0.00547484 0.00199044
      endloop
   endfacet
   facet normal 1 -4.33777e-06 6.28298e-06
      outer loop
         vertex 0.15432 0.00712582 0.00429338
         vertex 0.15432 0.00720256 0.00470079
         vertex 0.15432 0.00510545 0.00470079
      endloop
   endfacet
   facet normal 1 -4.33777e-06 6.28298e-06
      outer loop
         vertex 0.15432 0.00504773 0.00453727
         vertex 0.15432 0.00497412 0.00438027
         vertex 0.15432 0.00684223 0.00351555
      endloop
   endfacet
   facet normal 1 -4.33777e-06 6.28298e-06
      outer loop
         vertex 0.15432 0.0039284 0.00352374
         vertex 0.15432 0.0043358 0.00150337
         vertex 0.15432 0.00473245 0.00162396
      endloop
   endfacet
   facet normal 6.28297e-06 -1.10187e-06 -1
      outer loop
         vertex 0.15562 0.00510544 0.0047008
         vertex 0.15432 0.00510545 0.00470079
         vertex 0.15432 0.00720256 0.00470079
      endloop
   endfacet
   facet normal 6.28297e-06 -1.10187e-06 -1
      outer loop
         vertex 0.15432 0.00720256 0.00470079
         vertex 0.15562 0.007265 0.0047008
         vertex 0.15562 0.00510544 0.0047008
      endloop
   endfacet
   facet normal -1 4.33777e-06 -6.28298e-06
      outer loop
         vertex 0.15562 0.00708694 0.00394201
         vertex 0.15562 0.00694155 0.00357992
         vertex 0.15562 0.00504773 0.00453728
      endloop
   endfacet
   facet normal -1 4.33777e-06 -6.28298e-06
      outer loop
         vertex 0.15562 0.00510544 0.0047008
         vertex 0.15562 0.00719512 0.00431691
         vertex 0.15562 0.00708694 0.00394201
      endloop
   endfacet
   facet normal -1 4.33777e-06 -6.28298e-06
      outer loop
         vertex 0.15562 0.00510544 0.0047008
         vertex 0.15562 0.007265 0.0047008
         vertex 0.15562 0.00719512 0.00431691
      endloop
   endfacet
   facet normal -1 4.33777e-06 -6.28298e-06
      outer loop
         vertex 0.15562 0.00694155 0.00357992
         vertex 0.15562 0.00676042 0.00323431
         vertex 0.15562 0.00497411 0.00438028
      endloop
   endfacet
   facet normal -1 4.33777e-06 -6.28298e-06
      outer loop
         vertex 0.15562 0.00497411 0.00438028
         vertex 0.15562 0.00504773 0.00453728
         vertex 0.15562 0.00694155 0.00357992
      endloop
   endfacet
   facet normal -1 4.33777e-06 -6.28298e-06
      outer loop
         vertex 0.15562 0.00676042 0.00323431
         vertex 0.15562 0.00654541 0.0029087
         vertex 0.15562 0.00488532 0.00423133
      endloop
   endfacet
   facet normal -1 4.33777e-06 -6.28298e-06
      outer loop
         vertex 0.15562 0.00602278 0.0023305
         vertex 0.15562 0.00453729 0.00384697
         vertex 0.15562 0.00466583 0.00396336
      endloop
   endfacet
   facet normal -1 4.33777e-06 -6.28298e-06
      outer loop
         vertex 0.15562 0.00488532 0.00423133
         vertex 0.15562 0.00497411 0.00438028
         vertex 0.15562 0.00676042 0.00323431
      endloop
   endfacet
   facet normal -1 4.33777e-06 -6.28298e-06
      outer loop
         vertex 0.15562 0.00654541 0.0029087
         vertex 0.15562 0.00629869 0.00260641
         vertex 0.15562 0.00478222 0.0040919
      endloop
   endfacet
   facet normal -1 4.33777e-06 -6.28298e-06
      outer loop
         vertex 0.15562 0.00466583 0.00396336
         vertex 0.15562 0.00629869 0.00260641
         vertex 0.15562 0.00602278 0.0023305
      endloop
   endfacet
   facet normal -1 4.33777e-06 -6.28298e-06
      outer loop
         vertex 0.15562 0.00572049 0.00208378
         vertex 0.15562 0.00439786 0.00374387
         vertex 0.15562 0.00453729 0.00384697
      endloop
   endfacet
   facet normal -1 4.33777e-06 -6.28298e-06
      outer loop
         vertex 0.15562 0.00478222 0.0040919
         vertex 0.15562 0.00488532 0.00423133
         vertex 0.15562 0.00654541 0.0029087
      endloop
   endfacet
   facet normal -1 4.33777e-06 -6.28298e-06
      outer loop
         vertex 0.15562 0.00453729 0.00384697
         vertex 0.15562 0.00602278 0.0023305
         vertex 0.15562 0.00572049 0.00208378
      endloop
   endfacet
   facet normal -1 4.33777e-06 -6.28298e-06
      outer loop
         vertex 0.15562 0.00539488 0.00186877
         vertex 0.15562 0.00424891 0.00365508
         vertex 0.15562 0.00439786 0.00374387
      endloop
   endfacet
   facet normal -1 4.33777e-06 -6.28298e-06
      outer loop
         vertex 0.15562 0.00504927 0.00168764
         vertex 0.15562 0.00409191 0.00358147
         vertex 0.15562 0.00424891 0.00365508
      endloop
   endfacet
   facet normal -1 4.33777e-06 -6.28298e-06
      outer loop
         vertex 0.15562 0.00468717 0.00154225
         vertex 0.15562 0.00392839 0.00352375
         vertex 0.15562 0.00409191 0.00358147
      endloop
   endfacet
   facet normal -1 4.33777e-06 -6.28298e-06
      outer loop
         vertex 0.15562 0.00466583 0.00396336
         vertex 0.15562 0.00478222 0.0040919
         vertex 0.15562 0.00629869 0.00260641
      endloop
   endfacet
   facet normal -1 4.33777e-06 -6.28298e-06
      outer loop
         vertex 0.15562 0.00424891 0.00365508
         vertex 0.15562 0.00539488 0.00186877
         vertex 0.15562 0.00504927 0.00168764
      endloop
   endfacet
   facet normal -1 4.33777e-06 -6.28298e-06
      outer loop
         vertex 0.15562 0.00409191 0.00358147
         vertex 0.15562 0.00504927 0.00168764
         vertex 0.15562 0.00468717 0.00154225
      endloop
   endfacet
   facet normal -1 4.33777e-06 -6.28298e-06
      outer loop
         vertex 0.15562 0.00439786 0.00374387
         vertex 0.15562 0.00572049 0.00208378
         vertex 0.15562 0.00539488 0.00186877
      endloop
   endfacet
   facet normal -1 4.33777e-06 -6.28298e-06
      outer loop
         vertex 0.15562 0.00468717 0.00154225
         vertex 0.15562 0.00431228 0.00143407
         vertex 0.15562 0.00392839 0.00352375
      endloop
   endfacet
   facet normal -1 4.33777e-06 -6.28298e-06
      outer loop
         vertex 0.15562 0.00431228 0.00143407
         vertex 0.15562 0.00392839 0.0013642
         vertex 0.15562 0.00392839 0.00352375
      endloop
   endfacet
   facet normal -1 4.33777e-06 -6.28298e-06
      outer loop
         vertex 0.15562 0.00504773 0.00453728
         vertex 0.15562 0.00510544 0.0047008
         vertex 0.15562 0.00708694 0.00394201
      endloop
   endfacet
endsolid 1111. Units = meters