solid 1111. STL generated by ONSHAPE BY PTC INC, 1.216. Units = meters
   facet normal 4.33778e-06 1 -1.10184e-06
      outer loop
         vertex 0.15562 0.00392839 -0.00686055
         vertex 0.15562 0.00392839 -0.0090201
         vertex 0.15432 0.00392839 -0.00895767
      endloop
   endfacet
   facet normal 4.33778e-06 1 -1.10184e-06
      outer loop
         vertex 0.15432 0.00392839 -0.00895767
         vertex 0.15432 0.0039284 -0.00686056
         vertex 0.15562 0.00392839 -0.00686055
      endloop
   endfacet
   facet normal 5.95209e-06 0.958315 -0.285715
      outer loop
         vertex 0.15432 0.00510545 -0.00568351
         vertex 0.15562 0.00510544 -0.0056835
         vertex 0.15562 0.00504773 -0.00584702
      endloop
   endfacet
   facet normal 6.3961e-06 0.925333 -0.379154
      outer loop
         vertex 0.15432 0.00504773 -0.00584703
         vertex 0.15562 0.00504773 -0.00584702
         vertex 0.15562 0.00497411 -0.00600402
      endloop
   endfacet
   facet normal 6.77731e-06 0.883267 -0.46887
      outer loop
         vertex 0.15432 0.00497412 -0.00600403
         vertex 0.15562 0.00497411 -0.00600402
         vertex 0.15562 0.00488532 -0.00615297
      endloop
   endfacet
   facet normal 7.09198e-06 0.832528 -0.553983
      outer loop
         vertex 0.15432 0.00488532 -0.00615298
         vertex 0.15562 0.00488532 -0.00615297
         vertex 0.15562 0.00478222 -0.0062924
      endloop
   endfacet
   facet normal 7.33701e-06 0.773615 -0.633656
      outer loop
         vertex 0.15432 0.00478222 -0.00629241
         vertex 0.15562 0.00478222 -0.0062924
         vertex 0.15562 0.00466583 -0.00642094
      endloop
   endfacet
   facet normal 7.51001e-06 0.707106 -0.707108
      outer loop
         vertex 0.15432 0.00466583 -0.00642095
         vertex 0.15562 0.00466583 -0.00642094
         vertex 0.15562 0.00453729 -0.00653733
      endloop
   endfacet
   facet normal 7.60926e-06 0.633654 -0.773616
      outer loop
         vertex 0.15432 0.00453729 -0.00653734
         vertex 0.15562 0.00453729 -0.00653733
         vertex 0.15562 0.00439786 -0.00664043
      endloop
   endfacet
   facet normal 7.63381e-06 0.553981 -0.832529
      outer loop
         vertex 0.15432 0.00439786 -0.00664043
         vertex 0.15562 0.00439786 -0.00664043
         vertex 0.15562 0.00424891 -0.00672922
      endloop
   endfacet
   facet normal 7.5834e-06 0.468868 -0.883268
      outer loop
         vertex 0.15432 0.00424892 -0.00672923
         vertex 0.15562 0.00424891 -0.00672922
         vertex 0.15562 0.00409191 -0.00680283
      endloop
   endfacet
   facet normal 7.45853e-06 0.379152 -0.925334
      outer loop
         vertex 0.15432 0.00409191 -0.00680284
         vertex 0.15562 0.00409191 -0.00680283
         vertex 0.15562 0.00392839 -0.00686055
      endloop
   endfacet
   facet normal 7.26043e-06 0.285713 -0.958315
      outer loop
         vertex 0.15562 0.00392839 -0.00686055
         vertex 0.15432 0.0039284 -0.00686056
         vertex 0.15432 0.00409191 -0.00680284
      endloop
   endfacet
   facet normal 7.45853e-06 0.379152 -0.925334
      outer loop
         vertex 0.15562 0.00409191 -0.00680283
         vertex 0.15432 0.00409191 -0.00680284
         vertex 0.15432 0.00424892 -0.00672923
      endloop
   endfacet
   facet normal 7.5834e-06 0.468868 -0.883268
      outer loop
         vertex 0.15562 0.00424891 -0.00672922
         vertex 0.15432 0.00424892 -0.00672923
         vertex 0.15432 0.00439786 -0.00664043
      endloop
   endfacet
   facet normal 7.63381e-06 0.553981 -0.832529
      outer loop
         vertex 0.15562 0.00439786 -0.00664043
         vertex 0.15432 0.00439786 -0.00664043
         vertex 0.15432 0.00453729 -0.00653734
      endloop
   endfacet
   facet normal 7.60926e-06 0.633654 -0.773616
      outer loop
         vertex 0.15562 0.00453729 -0.00653733
         vertex 0.15432 0.00453729 -0.00653734
         vertex 0.15432 0.00466583 -0.00642095
      endloop
   endfacet
   facet normal 7.51001e-06 0.707106 -0.707108
      outer loop
         vertex 0.15562 0.00466583 -0.00642094
         vertex 0.15432 0.00466583 -0.00642095
         vertex 0.15432 0.00478222 -0.00629241
      endloop
   endfacet
   facet normal 7.33701e-06 0.773615 -0.633656
      outer loop
         vertex 0.15562 0.00478222 -0.0062924
         vertex 0.15432 0.00478222 -0.00629241
         vertex 0.15432 0.00488532 -0.00615298
      endloop
   endfacet
   facet normal 7.09198e-06 0.832528 -0.553983
      outer loop
         vertex 0.15562 0.00488532 -0.00615297
         vertex 0.15432 0.00488532 -0.00615298
         vertex 0.15432 0.00497412 -0.00600403
      endloop
   endfacet
   facet normal 6.77731e-06 0.883267 -0.46887
      outer loop
         vertex 0.15562 0.00497411 -0.00600402
         vertex 0.15432 0.00497412 -0.00600403
         vertex 0.15432 0.00504773 -0.00584703
      endloop
   endfacet
   facet normal 6.3961e-06 0.925333 -0.379154
      outer loop
         vertex 0.15562 0.00504773 -0.00584702
         vertex 0.15432 0.00504773 -0.00584703
         vertex 0.15432 0.00510545 -0.00568351
      endloop
   endfacet
   facet normal 1 -4.33777e-06 6.28298e-06
      outer loop
         vertex 0.15432 0.00700523 -0.00648757
         vertex 0.15432 0.00712582 -0.00609092
         vertex 0.15432 0.00510545 -0.00568351
      endloop
   endfacet
   facet normal 1 -4.33777e-06 6.28298e-06
      outer loop
         vertex 0.15432 0.00612045 -0.00787556
         vertex 0.15432 0.00466583 -0.00642095
         vertex 0.15432 0.00453729 -0.00653734
      endloop
   endfacet
   facet normal 1 -4.33777e-06 6.28298e-06
      outer loop
         vertex 0.15432 0.00612045 -0.00787556
         vertex 0.15432 0.0063972 -0.00756689
         vertex 0.15432 0.00478222 -0.00629241
      endloop
   endfacet
   facet normal 1 -4.33777e-06 6.28298e-06
      outer loop
         vertex 0.15432 0.00684223 -0.00686875
         vertex 0.15432 0.00700523 -0.00648757
         vertex 0.15432 0.00504773 -0.00584703
      endloop
   endfacet
   facet normal 1 -4.33777e-06 6.28298e-06
      outer loop
         vertex 0.15432 0.00510545 -0.00568351
         vertex 0.15432 0.00504773 -0.00584703
         vertex 0.15432 0.00700523 -0.00648757
      endloop
   endfacet
   facet normal 1 -4.33777e-06 6.28298e-06
      outer loop
         vertex 0.15432 0.00478222 -0.00629241
         vertex 0.15432 0.00466583 -0.00642095
         vertex 0.15432 0.00612045 -0.00787556
      endloop
   endfacet
   facet normal 1 -4.33777e-06 6.28298e-06
      outer loop
         vertex 0.15432 0.0063972 -0.00756689
         vertex 0.15432 0.00663875 -0.00722995
         vertex 0.15432 0.00488532 -0.00615298
      endloop
   endfacet
   facet normal 1 -4.33777e-06 6.28298e-06
      outer loop
         vertex 0.15432 0.00663875 -0.00722995
         vertex 0.15432 0.00684223 -0.00686875
         vertex 0.15432 0.00497412 -0.00600403
      endloop
   endfacet
   facet normal 1 -4.33777e-06 6.28298e-06
      outer loop
         vertex 0.15432 0.00712582 -0.00609092
         vertex 0.15432 0.00720256 -0.00568351
         vertex 0.15432 0.00510545 -0.00568351
      endloop
   endfacet
   facet normal 1 -4.33777e-06 6.28298e-06
      outer loop
         vertex 0.15432 0.00473245 -0.00876034
         vertex 0.15432 0.00409191 -0.00680284
         vertex 0.15432 0.0039284 -0.00686056
      endloop
   endfacet
   facet normal 1 -4.33777e-06 6.28298e-06
      outer loop
         vertex 0.15432 0.00547484 -0.00839386
         vertex 0.15432 0.00439786 -0.00664043
         vertex 0.15432 0.00424892 -0.00672923
      endloop
   endfacet
   facet normal 1 -4.33777e-06 6.28298e-06
      outer loop
         vertex 0.15432 0.00581177 -0.00815232
         vertex 0.15432 0.00453729 -0.00653734
         vertex 0.15432 0.00439786 -0.00664043
      endloop
   endfacet
   facet normal 1 -4.33777e-06 6.28298e-06
      outer loop
         vertex 0.15432 0.00488532 -0.00615298
         vertex 0.15432 0.00478222 -0.00629241
         vertex 0.15432 0.0063972 -0.00756689
      endloop
   endfacet
   facet normal 1 -4.33777e-06 6.28298e-06
      outer loop
         vertex 0.15432 0.00504773 -0.00584703
         vertex 0.15432 0.00497412 -0.00600403
         vertex 0.15432 0.00684223 -0.00686875
      endloop
   endfacet
   facet normal 1 -4.33777e-06 6.28298e-06
      outer loop
         vertex 0.15432 0.0039284 -0.00686056
         vertex 0.15432 0.00392839 -0.00895767
         vertex 0.15432 0.0043358 -0.00888093
      endloop
   endfacet
   facet normal 1 -4.33777e-06 6.28298e-06
      outer loop
         vertex 0.15432 0.00511364 -0.00859734
         vertex 0.15432 0.00424892 -0.00672923
         vertex 0.15432 0.00409191 -0.00680284
      endloop
   endfacet
   facet normal 1 -4.33777e-06 6.28298e-06
      outer loop
         vertex 0.15432 0.00439786 -0.00664043
         vertex 0.15432 0.00547484 -0.00839386
         vertex 0.15432 0.00581177 -0.00815232
      endloop
   endfacet
   facet normal 1 -4.33777e-06 6.28298e-06
      outer loop
         vertex 0.15432 0.00497412 -0.00600403
         vertex 0.15432 0.00488532 -0.00615298
         vertex 0.15432 0.00663875 -0.00722995
      endloop
   endfacet
   facet normal 1 -4.33777e-06 6.28298e-06
      outer loop
         vertex 0.15432 0.00409191 -0.00680284
         vertex 0.15432 0.00473245 -0.00876034
         vertex 0.15432 0.00511364 -0.00859734
      endloop
   endfacet
   facet normal 1 -4.33777e-06 6.28298e-06
      outer loop
         vertex 0.15432 0.00453729 -0.00653734
         vertex 0.15432 0.00581177 -0.00815232
         vertex 0.15432 0.00612045 -0.00787556
      endloop
   endfacet
   facet normal 1 -4.33777e-06 6.28298e-06
      outer loop
         vertex 0.15432 0.00424892 -0.00672923
         vertex 0.15432 0.00511364 -0.00859734
         vertex 0.15432 0.00547484 -0.00839386
      endloop
   endfacet
   facet normal 1 -4.33777e-06 6.28298e-06
      outer loop
         vertex 0.15432 0.0039284 -0.00686056
         vertex 0.15432 0.0043358 -0.00888093
         vertex 0.15432 0.00473245 -0.00876034
      endloop
   endfacet
   facet normal 6.28297e-06 -1.10187e-06 -1
      outer loop
         vertex 0.15562 0.00510544 -0.0056835
         vertex 0.15432 0.00510545 -0.00568351
         vertex 0.15432 0.00720256 -0.00568351
      endloop
   endfacet
   facet normal 6.28297e-06 -1.10187e-06 -1
      outer loop
         vertex 0.15432 0.00720256 -0.00568351
         vertex 0.15562 0.007265 -0.0056835
         vertex 0.15562 0.00510544 -0.0056835
      endloop
   endfacet
   facet normal -1 4.33777e-06 -6.28298e-06
      outer loop
         vertex 0.15562 0.00708694 -0.00644229
         vertex 0.15562 0.00694155 -0.00680438
         vertex 0.15562 0.00504773 -0.00584702
      endloop
   endfacet
   facet normal -1 4.33777e-06 -6.28298e-06
      outer loop
         vertex 0.15562 0.00510544 -0.0056835
         vertex 0.15562 0.007265 -0.0056835
         vertex 0.15562 0.00719512 -0.00606739
      endloop
   endfacet
   facet normal -1 4.33777e-06 -6.28298e-06
      outer loop
         vertex 0.15562 0.00602278 -0.0080538
         vertex 0.15562 0.00453729 -0.00653733
         vertex 0.15562 0.00466583 -0.00642094
      endloop
   endfacet
   facet normal -1 4.33777e-06 -6.28298e-06
      outer loop
         vertex 0.15562 0.00719512 -0.00606739
         vertex 0.15562 0.00708694 -0.00644229
         vertex 0.15562 0.00510544 -0.0056835
      endloop
   endfacet
   facet normal -1 4.33777e-06 -6.28298e-06
      outer loop
         vertex 0.15562 0.00694155 -0.00680438
         vertex 0.15562 0.00676042 -0.00714999
         vertex 0.15562 0.00497411 -0.00600402
      endloop
   endfacet
   facet normal -1 4.33777e-06 -6.28298e-06
      outer loop
         vertex 0.15562 0.00676042 -0.00714999
         vertex 0.15562 0.00654541 -0.0074756
         vertex 0.15562 0.00488532 -0.00615297
      endloop
   endfacet
   facet normal -1 4.33777e-06 -6.28298e-06
      outer loop
         vertex 0.15562 0.00654541 -0.0074756
         vertex 0.15562 0.00629869 -0.00777789
         vertex 0.15562 0.00478222 -0.0062924
      endloop
   endfacet
   facet normal -1 4.33777e-06 -6.28298e-06
      outer loop
         vertex 0.15562 0.00466583 -0.00642094
         vertex 0.15562 0.00629869 -0.00777789
         vertex 0.15562 0.00602278 -0.0080538
      endloop
   endfacet
   facet normal -1 4.33777e-06 -6.28298e-06
      outer loop
         vertex 0.15562 0.00572049 -0.00830052
         vertex 0.15562 0.00439786 -0.00664043
         vertex 0.15562 0.00453729 -0.00653733
      endloop
   endfacet
   facet normal -1 4.33777e-06 -6.28298e-06
      outer loop
         vertex 0.15562 0.00539488 -0.00851553
         vertex 0.15562 0.00424891 -0.00672922
         vertex 0.15562 0.00439786 -0.00664043
      endloop
   endfacet
   facet normal -1 4.33777e-06 -6.28298e-06
      outer loop
         vertex 0.15562 0.00504927 -0.00869666
         vertex 0.15562 0.00409191 -0.00680283
         vertex 0.15562 0.00424891 -0.00672922
      endloop
   endfacet
   facet normal -1 4.33777e-06 -6.28298e-06
      outer loop
         vertex 0.15562 0.00497411 -0.00600402
         vertex 0.15562 0.00504773 -0.00584702
         vertex 0.15562 0.00694155 -0.00680438
      endloop
   endfacet
   facet normal -1 4.33777e-06 -6.28298e-06
      outer loop
         vertex 0.15562 0.00478222 -0.0062924
         vertex 0.15562 0.00488532 -0.00615297
         vertex 0.15562 0.00654541 -0.0074756
      endloop
   endfacet
   facet normal -1 4.33777e-06 -6.28298e-06
      outer loop
         vertex 0.15562 0.00453729 -0.00653733
         vertex 0.15562 0.00602278 -0.0080538
         vertex 0.15562 0.00572049 -0.00830052
      endloop
   endfacet
   facet normal -1 4.33777e-06 -6.28298e-06
      outer loop
         vertex 0.15562 0.00424891 -0.00672922
         vertex 0.15562 0.00539488 -0.00851553
         vertex 0.15562 0.00504927 -0.00869666
      endloop
   endfacet
   facet normal -1 4.33777e-06 -6.28298e-06
      outer loop
         vertex 0.15562 0.00468717 -0.00884205
         vertex 0.15562 0.00392839 -0.00686055
         vertex 0.15562 0.00409191 -0.00680283
      endloop
   endfacet
   facet normal -1 4.33777e-06 -6.28298e-06
      outer loop
         vertex 0.15562 0.00488532 -0.00615297
         vertex 0.15562 0.00497411 -0.00600402
         vertex 0.15562 0.00676042 -0.00714999
      endloop
   endfacet
   facet normal -1 4.33777e-06 -6.28298e-06
      outer loop
         vertex 0.15562 0.00439786 -0.00664043
         vertex 0.15562 0.00572049 -0.00830052
         vertex 0.15562 0.00539488 -0.00851553
      endloop
   endfacet
   facet normal -1 4.33777e-06 -6.28298e-06
      outer loop
         vertex 0.15562 0.00409191 -0.00680283
         vertex 0.15562 0.00504927 -0.00869666
         vertex 0.15562 0.00468717 -0.00884205
      endloop
   endfacet
   facet normal -1 4.33777e-06 -6.28298e-06
      outer loop
         vertex 0.15562 0.00466583 -0.00642094
         vertex 0.15562 0.00478222 -0.0062924
         vertex 0.15562 0.00629869 -0.00777789
      endloop
   endfacet
   facet normal -1 4.33777e-06 -6.28298e-06
      outer loop
         vertex 0.15562 0.00468717 -0.00884205
         vertex 0.15562 0.00431228 -0.00895023
         vertex 0.15562 0.00392839 -0.00686055
      endloop
   endfacet
   facet normal -1 4.33777e-06 -6.28298e-06
      outer loop
         vertex 0.15562 0.00431228 -0.00895023
         vertex 0.15562 0.00392839 -0.0090201
         vertex 0.15562 0.00392839 -0.00686055
      endloop
   endfacet
   facet normal -1 4.33777e-06 -6.28298e-06
      outer loop
         vertex 0.15562 0.00504773 -0.00584702
         vertex 0.15562 0.00510544 -0.0056835
         vertex 0.15562 0.00708694 -0.00644229
      endloop
   endfacet
endsolid 1111. Units = meters