solid 1111. STL generated by ONSHAPE BY PTC INC, 1.216. Units = meters
   facet normal -4.33778e-06 -1 1.10184e-06
      outer loop
         vertex 0.174939 -0.000981691 -0.00492314
         vertex 0.17493 -0.000981691 -0.00492653
         vertex 0.174928 -0.000981691 -0.00492796
      endloop
   endfacet
   facet normal -4.33778e-06 -1 1.10184e-06
      outer loop
         vertex 0.175094 -0.000981692 -0.00492306
         vertex 0.175102 -0.000981692 -0.004926
         vertex 0.1751 -0.000981692 -0.00492492
      endloop
   endfacet
   facet normal -4.33778e-06 -1 1.10184e-06
      outer loop
         vertex 0.175001 -0.000981692 -0.00557154
         vertex 0.174997 -0.000981692 -0.00556202
         vertex 0.174811 -0.000981691 -0.00561705
      endloop
   endfacet
   facet normal -4.33778e-06 -1 1.10184e-06
      outer loop
         vertex 0.174939 -0.000981691 -0.00492314
         vertex 0.174923 -0.000981691 -0.00493335
         vertex 0.174922 -0.000981691 -0.00493546
      endloop
   endfacet
   facet normal -4.33778e-06 -1 1.10184e-06
      outer loop
         vertex 0.174939 -0.000981691 -0.00492314
         vertex 0.174926 -0.000981691 -0.00492958
         vertex 0.174925 -0.000981691 -0.00493139
      endloop
   endfacet
   facet normal -4.33778e-06 -1 1.10184e-06
      outer loop
         vertex 0.174939 -0.000981691 -0.00492314
         vertex 0.174932 -0.000981691 -0.00492532
         vertex 0.17493 -0.000981691 -0.00492653
      endloop
   endfacet
   facet normal -4.33778e-06 -1 1.10184e-06
      outer loop
         vertex 0.174939 -0.000981691 -0.00492314
         vertex 0.174936 -0.000981691 -0.00492362
         vertex 0.174934 -0.000981691 -0.00492435
      endloop
   endfacet
   facet normal -4.33778e-06 -1 1.10184e-06
      outer loop
         vertex 0.1751 -0.000981692 -0.00492492
         vertex 0.175098 -0.000981692 -0.00492406
         vertex 0.175094 -0.000981692 -0.00492306
      endloop
   endfacet
   facet normal -4.33778e-06 -1 1.10184e-06
      outer loop
         vertex 0.175094 -0.000981692 -0.00492306
         vertex 0.175106 -0.000981692 -0.00492879
         vertex 0.175104 -0.000981692 -0.0049273
      endloop
   endfacet
   facet normal -4.33778e-06 -1 1.10184e-06
      outer loop
         vertex 0.175094 -0.000981692 -0.00492306
         vertex 0.175109 -0.000981692 -0.0049323
         vertex 0.175108 -0.000981692 -0.00493046
      endloop
   endfacet
   facet normal -4.33778e-06 -1 1.10184e-06
      outer loop
         vertex 0.174811 -0.000981691 -0.00561705
         vertex 0.174812 -0.000981691 -0.00563863
         vertex 0.175001 -0.000981692 -0.00557154
      endloop
   endfacet
   facet normal -4.33778e-06 -1 1.10184e-06
      outer loop
         vertex 0.175005 -0.000981692 -0.00558065
         vertex 0.175001 -0.000981692 -0.00557154
         vertex 0.174816 -0.000981691 -0.00565996
      endloop
   endfacet
   facet normal -4.33778e-06 -1 1.10184e-06
      outer loop
         vertex 0.175011 -0.000981692 -0.00558925
         vertex 0.175005 -0.000981692 -0.00558065
         vertex 0.174821 -0.000981691 -0.0056808
      endloop
   endfacet
   facet normal -4.33778e-06 -1 1.10184e-06
      outer loop
         vertex 0.174865 -0.000981692 -0.00575452
         vertex 0.175024 -0.000981692 -0.00560462
         vertex 0.175017 -0.000981692 -0.00559727
      endloop
   endfacet
   facet normal -4.33778e-06 -1 1.10184e-06
      outer loop
         vertex 0.174917 -0.000981692 -0.00579397
         vertex 0.174936 -0.000981692 -0.00580322
         vertex 0.17504 -0.000981692 -0.00561701
      endloop
   endfacet
   facet normal -4.33778e-06 -1 1.10184e-06
      outer loop
         vertex 0.174925 -0.000981691 -0.00493139
         vertex 0.174923 -0.000981691 -0.00493335
         vertex 0.174939 -0.000981691 -0.00492314
      endloop
   endfacet
   facet normal -4.33778e-06 -1 1.10184e-06
      outer loop
         vertex 0.174934 -0.000981691 -0.00492435
         vertex 0.174932 -0.000981691 -0.00492532
         vertex 0.174939 -0.000981691 -0.00492314
      endloop
   endfacet
   facet normal -4.33778e-06 -1 1.10184e-06
      outer loop
         vertex 0.175104 -0.000981692 -0.0049273
         vertex 0.175102 -0.000981692 -0.004926
         vertex 0.175094 -0.000981692 -0.00492306
      endloop
   endfacet
   facet normal -4.33778e-06 -1 1.10184e-06
      outer loop
         vertex 0.175094 -0.000981692 -0.00492306
         vertex 0.17511 -0.000981692 -0.00493427
         vertex 0.175109 -0.000981692 -0.0049323
      endloop
   endfacet
   facet normal -4.33778e-06 -1 1.10184e-06
      outer loop
         vertex 0.175094 -0.000981692 -0.00492306
         vertex 0.175112 -0.000981692 -0.00493856
         vertex 0.175111 -0.000981692 -0.00493637
      endloop
   endfacet
   facet normal -4.33778e-06 -1 1.10184e-06
      outer loop
         vertex 0.175094 -0.000981692 -0.00492306
         vertex 0.175113 -0.000981692 -0.00494314
         vertex 0.175113 -0.000981692 -0.00494083
      endloop
   endfacet
   facet normal -4.33778e-06 -1 1.10184e-06
      outer loop
         vertex 0.174997 -0.000981692 -0.00556202
         vertex 0.174995 -0.000981692 -0.0055522
         vertex 0.174811 -0.000981691 -0.00560578
      endloop
   endfacet
   facet normal -4.33778e-06 -1 1.10184e-06
      outer loop
         vertex 0.174816 -0.000981691 -0.00565996
         vertex 0.174821 -0.000981691 -0.0056808
         vertex 0.175005 -0.000981692 -0.00558065
      endloop
   endfacet
   facet normal -4.33778e-06 -1 1.10184e-06
      outer loop
         vertex 0.174821 -0.000981691 -0.0056808
         vertex 0.174829 -0.000981691 -0.0057009
         vertex 0.175011 -0.000981692 -0.00558925
      endloop
   endfacet
   facet normal -4.33778e-06 -1 1.10184e-06
      outer loop
         vertex 0.175017 -0.000981692 -0.00559727
         vertex 0.175011 -0.000981692 -0.00558925
         vertex 0.174839 -0.000981691 -0.00572003
      endloop
   endfacet
   facet normal -4.33778e-06 -1 1.10184e-06
      outer loop
         vertex 0.175017 -0.000981692 -0.00559727
         vertex 0.174852 -0.000981692 -0.00573797
         vertex 0.174865 -0.000981692 -0.00575452
      endloop
   endfacet
   facet normal -4.33778e-06 -1 1.10184e-06
      outer loop
         vertex 0.174881 -0.000981692 -0.00576948
         vertex 0.174898 -0.000981692 -0.00578268
         vertex 0.175032 -0.000981692 -0.00561122
      endloop
   endfacet
   facet normal -4.33778e-06 -1 1.10184e-06
      outer loop
         vertex 0.175032 -0.000981692 -0.00561122
         vertex 0.174898 -0.000981692 -0.00578268
         vertex 0.174917 -0.000981692 -0.00579397
      endloop
   endfacet
   facet normal -4.33778e-06 -1 1.10184e-06
      outer loop
         vertex 0.17504 -0.000981692 -0.00561701
         vertex 0.174936 -0.000981692 -0.00580322
         vertex 0.174956 -0.000981692 -0.00581032
      endloop
   endfacet
   facet normal -4.33778e-06 -1 1.10184e-06
      outer loop
         vertex 0.175166 -0.000981693 -0.00580685
         vertex 0.175169 -0.000981693 -0.00580529
         vertex 0.175171 -0.000981693 -0.00580349
      endloop
   endfacet
   facet normal -4.33778e-06 -1 1.10184e-06
      outer loop
         vertex 0.174995 -0.000981692 -0.00551075
         vertex 0.174941 -0.000981691 -0.00492292
         vertex 0.174921 -0.000981691 -0.00493998
      endloop
   endfacet
   facet normal -4.33778e-06 -1 1.10184e-06
      outer loop
         vertex 0.174928 -0.000981691 -0.00492796
         vertex 0.174926 -0.000981691 -0.00492958
         vertex 0.174939 -0.000981691 -0.00492314
      endloop
   endfacet
   facet normal -4.33778e-06 -1 1.10184e-06
      outer loop
         vertex 0.175108 -0.000981692 -0.00493046
         vertex 0.175106 -0.000981692 -0.00492879
         vertex 0.175094 -0.000981692 -0.00492306
      endloop
   endfacet
   facet normal -4.33778e-06 -1 1.10184e-06
      outer loop
         vertex 0.175113 -0.000981692 -0.00494083
         vertex 0.175112 -0.000981692 -0.00493856
         vertex 0.175094 -0.000981692 -0.00492306
      endloop
   endfacet
   facet normal -4.33778e-06 -1 1.10184e-06
      outer loop
         vertex 0.175094 -0.000981692 -0.00492306
         vertex 0.174995 -0.000981692 -0.00551075
         vertex 0.175113 -0.000981692 -0.00494779
      endloop
   endfacet
   facet normal -4.33778e-06 -1 1.10184e-06
      outer loop
         vertex 0.174812 -0.000981691 -0.00563863
         vertex 0.174816 -0.000981691 -0.00565996
         vertex 0.175001 -0.000981692 -0.00557154
      endloop
   endfacet
   facet normal -4.33778e-06 -1 1.10184e-06
      outer loop
         vertex 0.174839 -0.000981691 -0.00572003
         vertex 0.174852 -0.000981692 -0.00573797
         vertex 0.175017 -0.000981692 -0.00559727
      endloop
   endfacet
   facet normal -4.33778e-06 -1 1.10184e-06
      outer loop
         vertex 0.175032 -0.000981692 -0.00561122
         vertex 0.175024 -0.000981692 -0.00560462
         vertex 0.174881 -0.000981692 -0.00576948
      endloop
   endfacet
   facet normal -4.33778e-06 -1 1.10184e-06
      outer loop
         vertex 0.174956 -0.000981692 -0.00581032
         vertex 0.175049 -0.000981692 -0.00562191
         vertex 0.17504 -0.000981692 -0.00561701
      endloop
   endfacet
   facet normal -4.33778e-06 -1 1.10184e-06
      outer loop
         vertex 0.175198 -0.000981693 -0.00565517
         vertex 0.17517 -0.000981693 -0.00562975
         vertex 0.175166 -0.000981693 -0.00562912
      endloop
   endfacet
   facet normal -4.33778e-06 -1 1.10184e-06
      outer loop
         vertex 0.175198 -0.000981693 -0.00565517
         vertex 0.175188 -0.000981693 -0.00563868
         vertex 0.175185 -0.000981693 -0.00563618
      endloop
   endfacet
   facet normal -4.33778e-06 -1 1.10184e-06
      outer loop
         vertex 0.175198 -0.000981693 -0.00565517
         vertex 0.175195 -0.000981693 -0.00564792
         vertex 0.175193 -0.000981693 -0.00564458
      endloop
   endfacet
   facet normal -4.33778e-06 -1 1.10184e-06
      outer loop
         vertex 0.175164 -0.000981693 -0.00580814
         vertex 0.175173 -0.000981693 -0.00580147
         vertex 0.175174 -0.000981693 -0.00579926
      endloop
   endfacet
   facet normal -4.33778e-06 -1 1.10184e-06
      outer loop
         vertex 0.175173 -0.000981693 -0.00580147
         vertex 0.175164 -0.000981693 -0.00580814
         vertex 0.175166 -0.000981693 -0.00580685
      endloop
   endfacet
   facet normal -4.33778e-06 -1 1.10184e-06
      outer loop
         vertex 0.174941 -0.000981691 -0.00492292
         vertex 0.174921 -0.000981691 -0.00493767
         vertex 0.174921 -0.000981691 -0.00493998
      endloop
   endfacet
   facet normal -4.33778e-06 -1 1.10184e-06
      outer loop
         vertex 0.174921 -0.000981691 -0.00493767
         vertex 0.174941 -0.000981691 -0.00492292
         vertex 0.174939 -0.000981691 -0.00492314
      endloop
   endfacet
   facet normal -4.33778e-06 -1 1.10184e-06
      outer loop
         vertex 0.175111 -0.000981692 -0.00493637
         vertex 0.17511 -0.000981692 -0.00493427
         vertex 0.175094 -0.000981692 -0.00492306
      endloop
   endfacet
   facet normal -4.33778e-06 -1 1.10184e-06
      outer loop
         vertex 0.175113 -0.000981692 -0.00494779
         vertex 0.175113 -0.000981692 -0.00494547
         vertex 0.175094 -0.000981692 -0.00492306
      endloop
   endfacet
   facet normal -4.33778e-06 -1 1.10184e-06
      outer loop
         vertex 0.174829 -0.000981691 -0.0057009
         vertex 0.174839 -0.000981691 -0.00572003
         vertex 0.175011 -0.000981692 -0.00558925
      endloop
   endfacet
   facet normal -4.33778e-06 -1 1.10184e-06
      outer loop
         vertex 0.17504 -0.000981692 -0.00561701
         vertex 0.175032 -0.000981692 -0.00561122
         vertex 0.174917 -0.000981692 -0.00579397
      endloop
   endfacet
   facet normal -4.33778e-06 -1 1.10184e-06
      outer loop
         vertex 0.175198 -0.000981693 -0.00565517
         vertex 0.175174 -0.000981693 -0.00563078
         vertex 0.17517 -0.000981693 -0.00562975
      endloop
   endfacet
   facet normal -4.33778e-06 -1 1.10184e-06
      outer loop
         vertex 0.175198 -0.000981693 -0.00565517
         vertex 0.175181 -0.000981693 -0.00563401
         vertex 0.175178 -0.000981693 -0.0056322
      endloop
   endfacet
   facet normal -4.33778e-06 -1 1.10184e-06
      outer loop
         vertex 0.175198 -0.000981693 -0.00565517
         vertex 0.17519 -0.000981693 -0.00564149
         vertex 0.175188 -0.000981693 -0.00563868
      endloop
   endfacet
   facet normal -4.33778e-06 -1 1.10184e-06
      outer loop
         vertex 0.175198 -0.000981693 -0.00565517
         vertex 0.175197 -0.000981693 -0.00565146
         vertex 0.175195 -0.000981693 -0.00564792
      endloop
   endfacet
   facet normal -4.33778e-06 -1 1.10184e-06
      outer loop
         vertex 0.175171 -0.000981693 -0.00580349
         vertex 0.175173 -0.000981693 -0.00580147
         vertex 0.175166 -0.000981693 -0.00580685
      endloop
   endfacet
   facet normal -4.33778e-06 -1 1.10184e-06
      outer loop
         vertex 0.174922 -0.000981691 -0.00493546
         vertex 0.174921 -0.000981691 -0.00493767
         vertex 0.174939 -0.000981691 -0.00492314
      endloop
   endfacet
   facet normal -4.33778e-06 -1 1.10184e-06
      outer loop
         vertex 0.175113 -0.000981692 -0.00494547
         vertex 0.175113 -0.000981692 -0.00494314
         vertex 0.175094 -0.000981692 -0.00492306
      endloop
   endfacet
   facet normal -4.33778e-06 -1 1.10184e-06
      outer loop
         vertex 0.174811 -0.000981691 -0.00560578
         vertex 0.174811 -0.000981691 -0.00561705
         vertex 0.174997 -0.000981692 -0.00556202
      endloop
   endfacet
   facet normal -4.33778e-06 -1 1.10184e-06
      outer loop
         vertex 0.174956 -0.000981692 -0.00581032
         vertex 0.175058 -0.000981692 -0.0056259
         vertex 0.175049 -0.000981692 -0.00562191
      endloop
   endfacet
   facet normal -4.33778e-06 -1 1.10184e-06
      outer loop
         vertex 0.175178 -0.000981693 -0.0056322
         vertex 0.175174 -0.000981693 -0.00563078
         vertex 0.175198 -0.000981693 -0.00565517
      endloop
   endfacet
   facet normal -4.33778e-06 -1 1.10184e-06
      outer loop
         vertex 0.175193 -0.000981693 -0.00564458
         vertex 0.17519 -0.000981693 -0.00564149
         vertex 0.175198 -0.000981693 -0.00565517
      endloop
   endfacet
   facet normal -4.33778e-06 -1 1.10184e-06
      outer loop
         vertex 0.175162 -0.000981693 -0.00562891
         vertex 0.1752 -0.000981693 -0.00566294
         vertex 0.175199 -0.000981693 -0.00565901
      endloop
   endfacet
   facet normal -4.33778e-06 -1 1.10184e-06
      outer loop
         vertex 0.175162 -0.000981693 -0.00562891
         vertex 0.175198 -0.000981693 -0.00567867
         vertex 0.1752 -0.000981693 -0.00566691
      endloop
   endfacet
   facet normal -4.33778e-06 -1 1.10184e-06
      outer loop
         vertex 0.175174 -0.000981693 -0.00579926
         vertex 0.175176 -0.000981693 -0.00579687
         vertex 0.175164 -0.000981693 -0.00580814
      endloop
   endfacet
   facet normal -4.33778e-06 -1 1.10184e-06
      outer loop
         vertex 0.175177 -0.000981693 -0.00579434
         vertex 0.175158 -0.000981693 -0.00580989
         vertex 0.175161 -0.000981693 -0.00580916
      endloop
   endfacet
   facet normal -4.33778e-06 -1 1.10184e-06
      outer loop
         vertex 0.174995 -0.000981692 -0.00551075
         vertex 0.175091 -0.000981692 -0.00492292
         vertex 0.174941 -0.000981691 -0.00492292
      endloop
   endfacet
   facet normal -4.33778e-06 -1 1.10184e-06
      outer loop
         vertex 0.175098 -0.000981692 -0.00492406
         vertex 0.175096 -0.000981692 -0.00492344
         vertex 0.175094 -0.000981692 -0.00492306
      endloop
   endfacet
   facet normal -4.33778e-06 -1 1.10184e-06
      outer loop
         vertex 0.174865 -0.000981692 -0.00575452
         vertex 0.174881 -0.000981692 -0.00576948
         vertex 0.175024 -0.000981692 -0.00560462
      endloop
   endfacet
   facet normal -4.33778e-06 -1 1.10184e-06
      outer loop
         vertex 0.175185 -0.000981693 -0.00563618
         vertex 0.175181 -0.000981693 -0.00563401
         vertex 0.175198 -0.000981693 -0.00565517
      endloop
   endfacet
   facet normal -4.33778e-06 -1 1.10184e-06
      outer loop
         vertex 0.1752 -0.000981693 -0.00566691
         vertex 0.1752 -0.000981693 -0.00566294
         vertex 0.175162 -0.000981693 -0.00562891
      endloop
   endfacet
   facet normal -4.33778e-06 -1 1.10184e-06
      outer loop
         vertex 0.175068 -0.000981692 -0.00562891
         vertex 0.174956 -0.000981692 -0.00581032
         vertex 0.175178 -0.000981693 -0.0057917
      endloop
   endfacet
   facet normal -4.33778e-06 -1 1.10184e-06
      outer loop
         vertex 0.175161 -0.000981693 -0.00580916
         vertex 0.175164 -0.000981693 -0.00580814
         vertex 0.175177 -0.000981693 -0.00579434
      endloop
   endfacet
   facet normal -4.33778e-06 -1 1.10184e-06
      outer loop
         vertex 0.175177 -0.000981693 -0.00579434
         vertex 0.174956 -0.000981692 -0.00581032
         vertex 0.175156 -0.000981693 -0.00581032
      endloop
   endfacet
   facet normal -4.33778e-06 -1 1.10184e-06
      outer loop
         vertex 0.175094 -0.000981692 -0.00492306
         vertex 0.175091 -0.000981692 -0.00492292
         vertex 0.174995 -0.000981692 -0.00551075
      endloop
   endfacet
   facet normal -4.33778e-06 -1 1.10184e-06
      outer loop
         vertex 0.174956 -0.000981692 -0.00581032
         vertex 0.175068 -0.000981692 -0.00562891
         vertex 0.175058 -0.000981692 -0.0056259
      endloop
   endfacet
   facet normal -4.33778e-06 -1 1.10184e-06
      outer loop
         vertex 0.175199 -0.000981693 -0.00565901
         vertex 0.175198 -0.000981693 -0.00565517
         vertex 0.175162 -0.000981693 -0.00562891
      endloop
   endfacet
   facet normal -4.33778e-06 -1 1.10184e-06
      outer loop
         vertex 0.174956 -0.000981692 -0.00581032
         vertex 0.175177 -0.000981693 -0.00579434
         vertex 0.175178 -0.000981693 -0.0057917
      endloop
   endfacet
   facet normal -4.33778e-06 -1 1.10184e-06
      outer loop
         vertex 0.175156 -0.000981693 -0.00581032
         vertex 0.175158 -0.000981693 -0.00580989
         vertex 0.175177 -0.000981693 -0.00579434
      endloop
   endfacet
   facet normal -4.33778e-06 -1 1.10184e-06
      outer loop
         vertex 0.174811 -0.000981691 -0.00560578
         vertex 0.174993 -0.000981692 -0.00553203
         vertex 0.174995 -0.000981692 -0.00551075
      endloop
   endfacet
   facet normal -4.33778e-06 -1 1.10184e-06
      outer loop
         vertex 0.174995 -0.000981692 -0.0055522
         vertex 0.174993 -0.000981692 -0.00554217
         vertex 0.174811 -0.000981691 -0.00560578
      endloop
   endfacet
   facet normal -4.33778e-06 -1 1.10184e-06
      outer loop
         vertex 0.175166 -0.000981693 -0.00562912
         vertex 0.175162 -0.000981693 -0.00562891
         vertex 0.175198 -0.000981693 -0.00565517
      endloop
   endfacet
   facet normal -4.33778e-06 -1 1.10184e-06
      outer loop
         vertex 0.175176 -0.000981693 -0.00579687
         vertex 0.175177 -0.000981693 -0.00579434
         vertex 0.175164 -0.000981693 -0.00580814
      endloop
   endfacet
   facet normal -4.33778e-06 -1 1.10184e-06
      outer loop
         vertex 0.174993 -0.000981692 -0.00554217
         vertex 0.174993 -0.000981692 -0.00553203
         vertex 0.174811 -0.000981691 -0.00560578
      endloop
   endfacet
   facet normal -4.33778e-06 -1 1.10184e-06
      outer loop
         vertex 0.175178 -0.000981693 -0.0057917
         vertex 0.175198 -0.000981693 -0.00567867
         vertex 0.175068 -0.000981692 -0.00562891
      endloop
   endfacet
   facet normal -4.33778e-06 -1 1.10184e-06
      outer loop
         vertex 0.175162 -0.000981693 -0.00562891
         vertex 0.175068 -0.000981692 -0.00562891
         vertex 0.175198 -0.000981693 -0.00567867
      endloop
   endfacet
   facet normal -4.33778e-06 -1 1.10184e-06
      outer loop
         vertex 0.174921 -0.000981691 -0.00493998
         vertex 0.174811 -0.000981691 -0.00560578
         vertex 0.174995 -0.000981692 -0.00551075
      endloop
   endfacet
endsolid 1111. Units = meters