solid 1111. STL generated by ONSHAPE BY PTC INC, 1.216. Units = meters
   facet normal -0.479449 1.1128e-06 -0.87757
      outer loop
         vertex -0.0458852 0.00222925 -0.0236544
         vertex -0.0458852 0.00252925 -0.0236544
         vertex -0.0458174 0.00252925 -0.023687
      endloop
   endfacet
   facet normal -0.386685 6.61222e-07 -0.922212
      outer loop
         vertex -0.0458174 0.00222925 -0.023687
         vertex -0.0458174 0.00252925 -0.023687
         vertex -0.0457465 0.00252925 -0.0237125
      endloop
   endfacet
   facet normal -0.289824 2.02638e-07 -0.95708
      outer loop
         vertex -0.0457465 0.00222925 -0.0237125
         vertex -0.0457465 0.00252925 -0.0237125
         vertex -0.0456735 0.00252925 -0.0237306
      endloop
   endfacet
   facet normal -0.189891 -2.58093e-07 -0.981805
      outer loop
         vertex -0.0456735 0.00222925 -0.0237306
         vertex -0.0456735 0.00252925 -0.0237306
         vertex -0.0455989 0.00252924 -0.0237411
      endloop
   endfacet
   facet normal -0.543776 1.43408e-06 -0.839231
      outer loop
         vertex -0.0459322 0.00222925 -0.0236263
         vertex -0.0459322 0.00252925 -0.0236263
         vertex -0.0458852 0.00252925 -0.0236544
      endloop
   endfacet
   facet normal -0.087945 -7.16089e-07 -0.996125
      outer loop
         vertex -0.0455989 0.00252924 -0.0237411
         vertex -0.0455442 0.00252924 -0.0237439
         vertex -0.0455442 0.00222924 -0.0237439
      endloop
   endfacet
   facet normal -0.0131551 -1.04468e-06 -0.999913
      outer loop
         vertex -0.0455442 0.00222924 -0.0237439
         vertex -0.0455989 0.00222924 -0.0237411
         vertex -0.0455989 0.00252924 -0.0237411
      endloop
   endfacet
   facet normal -0.479449 1.1128e-06 -0.87757
      outer loop
         vertex -0.0458852 0.00252925 -0.0236544
         vertex -0.0458852 0.00222925 -0.0236544
         vertex -0.0459322 0.00222925 -0.0236263
      endloop
   endfacet
   facet normal -0.087945 -7.16089e-07 -0.996125
      outer loop
         vertex -0.0455989 0.00252924 -0.0237411
         vertex -0.0455989 0.00222924 -0.0237411
         vertex -0.0456735 0.00222925 -0.0237306
      endloop
   endfacet
   facet normal -0.189891 -2.58093e-07 -0.981805
      outer loop
         vertex -0.0456735 0.00252925 -0.0237306
         vertex -0.0456735 0.00222925 -0.0237306
         vertex -0.0457465 0.00222925 -0.0237125
      endloop
   endfacet
   facet normal -0.289824 2.02638e-07 -0.95708
      outer loop
         vertex -0.0457465 0.00252925 -0.0237125
         vertex -0.0457465 0.00222925 -0.0237125
         vertex -0.0458174 0.00222925 -0.023687
      endloop
   endfacet
   facet normal -0.386685 6.61222e-07 -0.922212
      outer loop
         vertex -0.0458174 0.00252925 -0.023687
         vertex -0.0458174 0.00222925 -0.023687
         vertex -0.0458852 0.00222925 -0.0236544
      endloop
   endfacet
   facet normal -1.89396e-07 -1.10184e-06 -1
      outer loop
         vertex -0.0455442 0.00222924 -0.0237439
         vertex -0.0455442 0.00252924 -0.0237439
         vertex -0.0279305 0.00252917 -0.0237439
      endloop
   endfacet
   facet normal -1.89396e-07 -1.10184e-06 -1
      outer loop
         vertex -0.0279305 0.00252917 -0.0237439
         vertex -0.0279305 0.00222917 -0.0237439
         vertex -0.0455442 0.00222924 -0.0237439
      endloop
   endfacet
   facet normal 0.0912591 -1.49311e-06 -0.995827
      outer loop
         vertex -0.0278669 0.00222917 -0.023741
         vertex -0.0278669 0.00252917 -0.023741
         vertex -0.0278036 0.00252917 -0.0237323
      endloop
   endfacet
   facet normal 0.182064 -1.87318e-06 -0.983287
      outer loop
         vertex -0.0278036 0.00222917 -0.0237323
         vertex -0.0278036 0.00252917 -0.0237323
         vertex -0.0277414 0.00252917 -0.0237178
      endloop
   endfacet
   facet normal 0.0912591 -1.49311e-06 -0.995827
      outer loop
         vertex -0.0278669 0.00252917 -0.023741
         vertex -0.0278669 0.00222917 -0.023741
         vertex -0.0279305 0.00222917 -0.0237439
      endloop
   endfacet
   facet normal -1.34152e-05 -1.10179e-06 -1
      outer loop
         vertex -0.0279305 0.00222917 -0.0237439
         vertex -0.0279305 0.00252917 -0.0237439
         vertex -0.0278669 0.00252917 -0.023741
      endloop
   endfacet
   facet normal 0.271339 -2.23752e-06 -0.962484
      outer loop
         vertex -0.0277414 0.00252917 -0.0237178
         vertex -0.0277414 0.00222917 -0.0237178
         vertex -0.0278036 0.00222917 -0.0237323
      endloop
   endfacet
   facet normal 0.182064 -1.87318e-06 -0.983287
      outer loop
         vertex -0.0278036 0.00252917 -0.0237323
         vertex -0.0278036 0.00222917 -0.0237323
         vertex -0.0278669 0.00222917 -0.023741
      endloop
   endfacet
   facet normal 0.260982 -2.19574e-06 -0.965344
      outer loop
         vertex -0.0259213 0.00222916 -0.0232141
         vertex -0.0277414 0.00222917 -0.0237178
         vertex -0.0277414 0.00252917 -0.0237178
      endloop
   endfacet
   facet normal 0.260982 -2.19574e-06 -0.965344
      outer loop
         vertex -0.0259213 0.00252916 -0.0232141
         vertex -0.0240609 0.00252915 -0.0227332
         vertex -0.0240609 0.00222915 -0.0227332
      endloop
   endfacet
   facet normal 0.233875 -2.08579e-06 -0.972267
      outer loop
         vertex -0.0240609 0.00222915 -0.0227332
         vertex -0.0259213 0.00222916 -0.0232141
         vertex -0.0259213 0.00252916 -0.0232141
      endloop
   endfacet
   facet normal 0.270886 -2.23569e-06 -0.962612
      outer loop
         vertex -0.0277414 0.00252917 -0.0237178
         vertex -0.0259213 0.00252916 -0.0232141
         vertex -0.0259213 0.00222916 -0.0232141
      endloop
   endfacet
   facet normal 0.23327 -2.08332e-06 -0.972412
      outer loop
         vertex -0.0240609 0.00252915 -0.0227332
         vertex -0.0227658 0.00252915 -0.0224518
         vertex -0.0227658 0.00222915 -0.0224518
      endloop
   endfacet
   facet normal 0.191371 -1.91161e-06 -0.981518
      outer loop
         vertex -0.0227658 0.00222915 -0.0224518
         vertex -0.0240609 0.00222915 -0.0227332
         vertex -0.0240609 0.00252915 -0.0227332
      endloop
   endfacet
   facet normal 0.0891813 -1.4843e-06 -0.996015
      outer loop
         vertex -0.01882 0.00222913 -0.0218631
         vertex -0.0227658 0.00222915 -0.0224518
         vertex -0.0227658 0.00252915 -0.0224518
      endloop
   endfacet
   facet normal 0.0252553 -1.21104e-06 -0.999681
      outer loop
         vertex -0.0169692 0.00222912 -0.0217593
         vertex -0.01882 0.00222913 -0.0218631
         vertex -0.01882 0.00252913 -0.0218631
      endloop
   endfacet
   facet normal 4.1063e-07 -1.10185e-06 -1
      outer loop
         vertex -0.0151186 0.00222911 -0.0217439
         vertex -0.0169692 0.00222912 -0.0217593
         vertex -0.0169692 0.00252912 -0.0217593
      endloop
   endfacet
   facet normal 0.0252553 -1.21104e-06 -0.999681
      outer loop
         vertex -0.0169692 0.00252912 -0.0217593
         vertex -0.0151186 0.00252911 -0.0217439
         vertex -0.0151186 0.00222911 -0.0217439
      endloop
   endfacet
   facet normal 0.0891813 -1.4843e-06 -0.996015
      outer loop
         vertex -0.01882 0.00252913 -0.0218631
         vertex -0.0169692 0.00252912 -0.0217593
         vertex -0.0169692 0.00222912 -0.0217593
      endloop
   endfacet
   facet normal 0.191221 -1.91099e-06 -0.981547
      outer loop
         vertex -0.0227658 0.00252915 -0.0224518
         vertex -0.01882 0.00252913 -0.0218631
         vertex -0.01882 0.00222913 -0.0218631
      endloop
   endfacet
endsolid 1111. Units = meters