solid 1111. STL generated by ONSHAPE BY PTC INC, 1.216. Units = meters
   facet normal -0.0471068 -0.99889 3.26952e-11
      outer loop
         vertex -0.0473662 0.0225749 0.0134953
         vertex -0.0473662 0.022574 0.0135738
         vertex -0.0483582 0.022618 0.0135743
      endloop
   endfacet
   facet normal -0.0470936 -0.995266 -0.0850194
      outer loop
         vertex -0.048358 0.0226038 0.0138816
         vertex -0.0483582 0.022618 0.0135743
         vertex -0.0473662 0.0225734 0.0136153
      endloop
   endfacet
   facet normal -0.0471064 -0.998762 -0.0160018
      outer loop
         vertex -0.0483582 0.022618 0.0135743
         vertex -0.0473662 0.022574 0.0135738
         vertex -0.0473662 0.0225734 0.0136153
      endloop
   endfacet
   facet normal -0.0470646 -0.986877 -0.154462
      outer loop
         vertex -0.0483578 0.0225704 0.0141437
         vertex -0.0483579 0.0226018 0.0139259
         vertex -0.0473663 0.0225478 0.0139922
      endloop
   endfacet
   facet normal -0.0470936 -0.995266 -0.085018
      outer loop
         vertex -0.0473663 0.0225556 0.0138778
         vertex -0.0473663 0.0225478 0.0139922
         vertex -0.0483579 0.0226018 0.0139259
      endloop
   endfacet
   facet normal -0.04709 -0.994261 -0.0960563
      outer loop
         vertex -0.0483579 0.0226018 0.0139259
         vertex -0.048358 0.0226038 0.0138816
         vertex -0.0473663 0.0225556 0.0138778
      endloop
   endfacet
   facet normal -0.0470189 -0.973608 -0.223329
      outer loop
         vertex -0.0483578 0.0225279 0.0143713
         vertex -0.0483578 0.0225523 0.0142696
         vertex -0.0473665 0.0224983 0.0143013
      endloop
   endfacet
   facet normal -0.0470646 -0.986876 -0.154468
      outer loop
         vertex -0.0473664 0.0225246 0.014137
         vertex -0.0473665 0.0224983 0.0143013
         vertex -0.0483578 0.0225523 0.0142696
      endloop
   endfacet
   facet normal -0.0470428 -0.980422 -0.191207
      outer loop
         vertex -0.0483578 0.0225523 0.0142696
         vertex -0.0483578 0.0225704 0.0141437
         vertex -0.0473664 0.0225246 0.014137
      endloop
   endfacet
   facet normal -0.0470189 -0.973609 -0.223325
      outer loop
         vertex -0.0473665 0.0224829 0.0143617
         vertex -0.0473667 0.0224329 0.0145576
         vertex -0.0483577 0.0224904 0.0145278
      endloop
   endfacet
   facet normal -0.0469551 -0.955535 -0.291116
      outer loop
         vertex -0.0473667 0.0224329 0.0145576
         vertex -0.0483576 0.0224762 0.0145697
         vertex -0.0483577 0.0224904 0.0145278
      endloop
   endfacet
   facet normal -0.0469551 -0.955535 -0.291116
      outer loop
         vertex -0.0483576 0.0224762 0.0145697
         vertex -0.0473667 0.0224329 0.0145576
         vertex -0.0473667 0.0224323 0.0145598
      endloop
   endfacet
   facet normal -0.0469542 -0.955294 -0.291906
      outer loop
         vertex -0.0473667 0.0224323 0.0145598
         vertex -0.0483572 0.022416 0.014747
         vertex -0.0483576 0.0224762 0.0145697
      endloop
   endfacet
   facet normal -0.046775 -0.90392 -0.425136
      outer loop
         vertex -0.0483568 0.0223469 0.0149053
         vertex -0.0483571 0.0224085 0.014769
         vertex -0.047367 0.0223529 0.0147827
      endloop
   endfacet
   facet normal -0.0468737 -0.932176 -0.358959
      outer loop
         vertex -0.0473669 0.0223713 0.0147311
         vertex -0.047367 0.0223529 0.0147827
         vertex -0.0483571 0.0224085 0.014769
      endloop
   endfacet
   facet normal -0.0468618 -0.928772 -0.367677
      outer loop
         vertex -0.0483571 0.0224085 0.014769
         vertex -0.0483572 0.022416 0.014747
         vertex -0.0473669 0.0223713 0.0147311
      endloop
   endfacet
   facet normal -0.0466593 -0.870685 -0.489623
      outer loop
         vertex -0.0483565 0.0222731 0.0150486
         vertex -0.0483567 0.0223146 0.0149766
         vertex -0.0473673 0.0222623 0.0149768
      endloop
   endfacet
   facet normal -0.046775 -0.903922 -0.425133
      outer loop
         vertex -0.0473672 0.0223043 0.0148868
         vertex -0.0473673 0.0222623 0.0149768
         vertex -0.0483567 0.0223146 0.0149766
      endloop
   endfacet
   facet normal -0.046722 -0.888687 -0.456128
      outer loop
         vertex -0.0483567 0.0223146 0.0149766
         vertex -0.0483568 0.0223469 0.0149053
         vertex -0.0473672 0.0223043 0.0148868
      endloop
   endfacet
   facet normal -0.0466593 -0.870688 -0.489617
      outer loop
         vertex -0.0473674 0.0222324 0.0150276
         vertex -0.0473677 0.0221595 0.0151511
         vertex -0.0483563 0.0222111 0.0151564
      endloop
   endfacet
   facet normal -0.0465307 -0.834114 -0.549625
      outer loop
         vertex -0.0473677 0.0221595 0.0151511
         vertex -0.0483562 0.0221929 0.0151818
         vertex -0.0483563 0.0222111 0.0151564
      endloop
   endfacet
   facet normal -0.0465515 -0.840009 -0.540572
      outer loop
         vertex -0.0483563 0.0222111 0.0151564
         vertex -0.0483565 0.0222731 0.0150486
         vertex -0.0473674 0.0222324 0.0150276
      endloop
   endfacet
   facet normal -0.046369 -0.787843 -0.614128
      outer loop
         vertex -0.048356 0.0221056 0.015304
         vertex -0.0483562 0.0221929 0.0151818
         vertex -0.0473677 0.0221542 0.0151584
      endloop
   endfacet
   facet normal -0.0461981 -0.738695 -0.672455
      outer loop
         vertex -0.0483558 0.0220091 0.0154155
         vertex -0.048356 0.0220969 0.0153162
         vertex -0.0473681 0.022045 0.0153077
      endloop
   endfacet
   facet normal -0.046369 -0.787838 -0.614134
      outer loop
         vertex -0.047368 0.0220674 0.015277
         vertex -0.0473681 0.022045 0.0153077
         vertex -0.048356 0.0220969 0.0153162
      endloop
   endfacet
   facet normal -0.0463527 -0.783144 -0.62011
      outer loop
         vertex -0.048356 0.0220969 0.0153162
         vertex -0.048356 0.0221056 0.015304
         vertex -0.047368 0.0220674 0.015277
      endloop
   endfacet
   facet normal -0.0461981 -0.738703 -0.672446
      outer loop
         vertex -0.0473683 0.0219739 0.0153865
         vertex -0.0473683 0.0219639 0.0153977
         vertex -0.0483558 0.021999 0.015427
      endloop
   endfacet
   facet normal -0.0459843 -0.678226 -0.733413
      outer loop
         vertex -0.0483557 0.0218942 0.0155314
         vertex -0.0483558 0.0219594 0.0154718
         vertex -0.0473685 0.0219159 0.0154509
      endloop
   endfacet
   facet normal -0.0461788 -0.733251 -0.678389
      outer loop
         vertex -0.0473683 0.0219639 0.0153977
         vertex -0.0473685 0.0219159 0.0154509
         vertex -0.0483558 0.0219594 0.0154718
      endloop
   endfacet
   facet normal -0.0461017 -0.711513 -0.701159
      outer loop
         vertex -0.0483558 0.0219594 0.0154718
         vertex -0.0483558 0.021999 0.015427
         vertex -0.0473683 0.0219639 0.0153977
      endloop
   endfacet
   facet normal -0.0457773 -0.618275 -0.784627
      outer loop
         vertex -0.0483555 0.0217803 0.0156298
         vertex -0.0483556 0.0218127 0.0156059
         vertex -0.047369 0.0217703 0.0155821
      endloop
   endfacet
   facet normal -0.0459843 -0.678228 -0.733411
      outer loop
         vertex -0.0473687 0.0218616 0.0154999
         vertex -0.047369 0.0217703 0.0155821
         vertex -0.0483556 0.0218127 0.0156059
      endloop
   endfacet
   facet normal -0.0458337 -0.634699 -0.771399
      outer loop
         vertex -0.0483556 0.0218127 0.0156059
         vertex -0.0483557 0.0218942 0.0155314
         vertex -0.0473687 0.0218616 0.0154999
      endloop
   endfacet
   facet normal -0.0457773 -0.618275 -0.784627
      outer loop
         vertex -0.0483555 0.0217803 0.0156298
         vertex -0.0473691 0.0217506 0.0155965
         vertex -0.0473695 0.0216262 0.0156874
      endloop
   endfacet
   facet normal -0.045549 -0.552616 -0.83219
      outer loop
         vertex -0.0473695 0.0216262 0.0156874
         vertex -0.0483554 0.0216536 0.0157235
         vertex -0.0483554 0.0216537 0.0157235
      endloop
   endfacet
   facet normal -0.045307 -0.483378 -0.874238
      outer loop
         vertex -0.0483553 0.0215119 0.0158078
         vertex -0.0483554 0.0216536 0.0157235
         vertex -0.0473695 0.0216202 0.0156918
      endloop
   endfacet
   facet normal -0.045549 -0.552618 -0.832189
      outer loop
         vertex -0.0483554 0.0216536 0.0157235
         vertex -0.0473695 0.0216262 0.0156874
         vertex -0.0473695 0.0216202 0.0156918
      endloop
   endfacet
   facet normal -0.0450778 -0.417925 -0.907362
      outer loop
         vertex -0.0483553 0.021372 0.0158773
         vertex -0.0483553 0.0214808 0.0158263
         vertex -0.0473701 0.0214513 0.0157915
      endloop
   endfacet
   facet normal -0.045307 -0.483378 -0.874239
      outer loop
         vertex -0.04737 0.0214876 0.0157701
         vertex -0.0473701 0.0214513 0.0157915
         vertex -0.0483553 0.0214808 0.0158263
      endloop
   endfacet
   facet normal -0.045254 -0.468182 -0.882472
      outer loop
         vertex -0.0483553 0.0214808 0.0158263
         vertex -0.0483553 0.0215119 0.0158078
         vertex -0.04737 0.0214876 0.0157701
      endloop
   endfacet
   facet normal -0.0448418 -0.350365 -0.935539
      outer loop
         vertex -0.0483553 0.0212187 0.0159413
         vertex -0.0483553 0.0212883 0.0159166
         vertex -0.0473708 0.0212616 0.0158796
      endloop
   endfacet
   facet normal -0.0450779 -0.417931 -0.90736
      outer loop
         vertex -0.0473705 0.0213506 0.0158383
         vertex -0.0473708 0.0212616 0.0158796
         vertex -0.0483553 0.0212883 0.0159166
      endloop
   endfacet
   facet normal -0.044945 -0.379984 -0.923901
      outer loop
         vertex -0.0483553 0.0212883 0.0159166
         vertex -0.0483553 0.021372 0.0158773
         vertex -0.0473705 0.0213506 0.0158383
      endloop
   endfacet
   facet normal -0.0448417 -0.350358 -0.935542
      outer loop
         vertex -0.047371 0.0212002 0.0159012
         vertex -0.0473716 0.0210428 0.0159564
         vertex -0.0483552 0.0210729 0.0159932
      endloop
   endfacet
   facet normal -0.0446166 -0.285331 -0.95739
      outer loop
         vertex -0.0473716 0.0210428 0.0159564
         vertex -0.0483552 0.0210471 0.0159997
         vertex -0.0483552 0.0210729 0.0159932
      endloop
   endfacet
   facet normal -0.0446358 -0.29089 -0.955715
      outer loop
         vertex -0.0483552 0.0210729 0.0159932
         vertex -0.0483553 0.0212187 0.0159413
         vertex -0.047371 0.0212002 0.0159012
      endloop
   endfacet
   facet normal -0.0443544 -0.210302 -0.97663
      outer loop
         vertex -0.0483552 0.0208524 0.016049
         vertex -0.0483552 0.0210471 0.0159997
         vertex -0.0473716 0.0210317 0.0159591
      endloop
   endfacet
   facet normal -0.0441028 -0.138537 -0.989375
      outer loop
         vertex -0.0483553 0.0206311 0.0160863
         vertex -0.0483552 0.0208255 0.0160558
         vertex -0.0473725 0.020785 0.0160195
      endloop
   endfacet
   facet normal -0.0443545 -0.210311 -0.976628
      outer loop
         vertex -0.0473723 0.0208397 0.0160061
         vertex -0.0473725 0.020785 0.0160195
         vertex -0.0483552 0.0208255 0.0160558
      endloop
   endfacet
   facet normal -0.0443218 -0.201026 -0.978583
      outer loop
         vertex -0.0483552 0.0208255 0.0160558
         vertex -0.0483552 0.0208524 0.016049
         vertex -0.0473723 0.0208397 0.0160061
      endloop
   endfacet
   facet normal -0.0438511 -0.0662773 -0.996837
      outer loop
         vertex -0.0483553 0.0203762 0.0161114
         vertex -0.0483553 0.0205368 0.0161011
         vertex -0.0473735 0.0204786 0.0160637
      endloop
   endfacet
   facet normal -0.0441028 -0.138536 -0.989375
      outer loop
         vertex -0.047373 0.0206216 0.0160431
         vertex -0.0473735 0.0204786 0.0160637
         vertex -0.0483553 0.0205368 0.0161011
      endloop
   endfacet
   facet normal -0.0440045 -0.110352 -0.992918
      outer loop
         vertex -0.0483553 0.0205368 0.0161011
         vertex -0.0483553 0.0206311 0.0160863
         vertex -0.047373 0.0206216 0.0160431
      endloop
   endfacet
   facet normal -0.0438511 -0.0662732 -0.996837
      outer loop
         vertex -0.0473739 0.02037 0.0160687
         vertex -0.0473749 0.0200995 0.0160813
         vertex -0.0483554 0.0201942 0.0161232
      endloop
   endfacet
   facet normal -0.0436194 0.000152261 -0.999048
      outer loop
         vertex -0.0473749 0.0200995 0.0160813
         vertex -0.0483554 0.0201029 0.0161241
         vertex -0.0483554 0.0201942 0.0161232
      endloop
   endfacet
   facet normal -0.0436933 -0.0209303 -0.998826
      outer loop
         vertex -0.0483554 0.0201942 0.0161232
         vertex -0.0483553 0.0203762 0.0161114
         vertex -0.0473739 0.02037 0.0160687
      endloop
   endfacet
   facet normal -0.0439543 -0.0959293 -0.994417
      outer loop
         vertex -0.0473735 0.0204786 0.0160637
         vertex -0.0473739 0.02037 0.0160687
         vertex -0.0483553 0.0203762 0.0161114
      endloop
   endfacet
   facet normal -0.0442877 -0.191348 -0.980523
      outer loop
         vertex -0.0473725 0.020785 0.0160195
         vertex -0.047373 0.0206216 0.0160431
         vertex -0.0483553 0.0206311 0.0160863
      endloop
   endfacet
   facet normal -0.0446017 -0.281041 -0.958659
      outer loop
         vertex -0.0473716 0.0210317 0.0159591
         vertex -0.0473723 0.0208397 0.0160061
         vertex -0.0483552 0.0208524 0.016049
      endloop
   endfacet
   facet normal -0.0446166 -0.285331 -0.95739
      outer loop
         vertex -0.0473716 0.0210428 0.0159564
         vertex -0.0473716 0.0210317 0.0159591
         vertex -0.0483552 0.0210471 0.0159997
      endloop
   endfacet
   facet normal -0.0449342 -0.376908 -0.92516
      outer loop
         vertex -0.0473708 0.0212616 0.0158796
         vertex -0.047371 0.0212002 0.0159012
         vertex -0.0483553 0.0212187 0.0159413
      endloop
   endfacet
   facet normal -0.0452439 -0.465307 -0.883993
      outer loop
         vertex -0.0473701 0.0214513 0.0157915
         vertex -0.0473705 0.0213506 0.0158383
         vertex -0.0483553 0.021372 0.0158773
      endloop
   endfacet
   facet normal -0.0455379 -0.549443 -0.834289
      outer loop
         vertex -0.0473695 0.0216202 0.0156918
         vertex -0.04737 0.0214876 0.0157701
         vertex -0.0483553 0.0215119 0.0158078
      endloop
   endfacet
   facet normal -0.045549 -0.552616 -0.83219
      outer loop
         vertex -0.0473695 0.0216262 0.0156874
         vertex -0.0483554 0.0216537 0.0157235
         vertex -0.0483555 0.0217803 0.0156298
      endloop
   endfacet
   facet normal -0.0458123 -0.62846 -0.776492
      outer loop
         vertex -0.047369 0.0217703 0.0155821
         vertex -0.0473691 0.0217506 0.0155965
         vertex -0.0483555 0.0217803 0.0156298
      endloop
   endfacet
   facet normal -0.046084 -0.706529 -0.706182
      outer loop
         vertex -0.0473685 0.0219159 0.0154509
         vertex -0.0473687 0.0218616 0.0154999
         vertex -0.0483557 0.0218942 0.0155314
      endloop
   endfacet
   facet normal -0.0461788 -0.73324 -0.6784
      outer loop
         vertex -0.0483558 0.021999 0.015427
         vertex -0.0483558 0.0220091 0.0154155
         vertex -0.0473683 0.0219739 0.0153865
      endloop
   endfacet
   facet normal -0.0463262 -0.775489 -0.629659
      outer loop
         vertex -0.0473681 0.022045 0.0153077
         vertex -0.0473683 0.0219739 0.0153865
         vertex -0.0483558 0.0220091 0.0154155
      endloop
   endfacet
   facet normal -0.0465219 -0.831624 -0.553387
      outer loop
         vertex -0.0473677 0.0221542 0.0151584
         vertex -0.047368 0.0220674 0.015277
         vertex -0.048356 0.0221056 0.015304
      endloop
   endfacet
   facet normal -0.0465307 -0.834114 -0.549625
      outer loop
         vertex -0.0473677 0.0221595 0.0151511
         vertex -0.0473677 0.0221542 0.0151584
         vertex -0.0483562 0.0221929 0.0151818
      endloop
   endfacet
   facet normal -0.0467054 -0.883931 -0.465278
      outer loop
         vertex -0.0473673 0.0222623 0.0149768
         vertex -0.0473674 0.0222324 0.0150276
         vertex -0.0483565 0.0222731 0.0150486
      endloop
   endfacet
   facet normal -0.0468444 -0.9238 -0.379999
      outer loop
         vertex -0.047367 0.0223529 0.0147827
         vertex -0.0473672 0.0223043 0.0148868
         vertex -0.0483568 0.0223469 0.0149053
      endloop
   endfacet
   facet normal -0.0469542 -0.955294 -0.291906
      outer loop
         vertex -0.0473667 0.0224323 0.0145598
         vertex -0.0473669 0.0223713 0.0147311
         vertex -0.0483572 0.022416 0.014747
      endloop
   endfacet
   facet normal -0.0469707 -0.960037 -0.275903
      outer loop
         vertex -0.0483577 0.0224904 0.0145278
         vertex -0.0483578 0.0225279 0.0143713
         vertex -0.0473665 0.0224829 0.0143617
      endloop
   endfacet
   facet normal -0.0470341 -0.977898 -0.203721
      outer loop
         vertex -0.0473665 0.0224983 0.0143013
         vertex -0.0473665 0.0224829 0.0143617
         vertex -0.0483578 0.0225279 0.0143713
      endloop
   endfacet
   facet normal -0.0470832 -0.992317 -0.114413
      outer loop
         vertex -0.0473663 0.0225478 0.0139922
         vertex -0.0473664 0.0225246 0.014137
         vertex -0.0483578 0.0225704 0.0141437
      endloop
   endfacet
   facet normal -0.0471058 -0.998583 -0.0247419
      outer loop
         vertex -0.0473662 0.0225734 0.0136153
         vertex -0.0473663 0.0225556 0.0138778
         vertex -0.048358 0.0226038 0.0138816
      endloop
   endfacet
   facet normal -0.0471064 -0.998762 -0.0160018
      outer loop
         vertex -0.0483582 0.022618 0.0135743
         vertex -0.0483583 0.0226217 0.0134953
         vertex -0.0473662 0.0225749 0.0134953
      endloop
   endfacet
endsolid 1111. Units = meters