solid 1111. STL generated by ONSHAPE BY PTC INC, 1.216. Units = meters
   facet normal 0.653072 0.568894 -0.499856
      outer loop
         vertex 0.0279993 0.0280512 0.0164789
         vertex 0.0280221 0.0280126 0.0164636
         vertex 0.0279901 0.0280266 0.0164386
      endloop
   endfacet
   facet normal 0.685899 0.642587 -0.341503
      outer loop
         vertex 0.0280852 0.0279024 0.0164004
         vertex 0.0281043 0.0278684 0.0163727
         vertex 0.0280747 0.0278872 0.0163482
      endloop
   endfacet
   facet normal 0.317904 0.7269 -0.608731
      outer loop
         vertex 0.0277693 0.0280673 0.0163011
         vertex 0.0277819 0.028054 0.0162914
         vertex 0.0277614 0.028049 0.0162726
      endloop
   endfacet
   facet normal 0.389083 0.882049 -0.265714
      outer loop
         vertex 0.0278818 0.0279602 0.0161951
         vertex 0.027862 0.0279635 0.0161761
         vertex 0.0278499 0.0279724 0.01619
      endloop
   endfacet
   facet normal 0.815403 0.522847 -0.248493
      outer loop
         vertex 0.0280831 0.0280059 0.0165716
         vertex 0.0281061 0.0279623 0.016555
         vertex 0.0280975 0.0279689 0.0165418
      endloop
   endfacet
   facet normal 0.638931 0.532218 -0.555438
      outer loop
         vertex 0.0279517 0.0281297 0.0165024
         vertex 0.0279759 0.0280902 0.0164917
         vertex 0.0279437 0.0281014 0.0164666
      endloop
   endfacet
   facet normal 0.747299 0.546613 -0.377834
      outer loop
         vertex 0.028054 0.0280244 0.0165313
         vertex 0.0280767 0.027983 0.0165154
         vertex 0.0280513 0.0279978 0.0164892
      endloop
   endfacet
   facet normal 0.645843 0.549797 -0.529727
      outer loop
         vertex 0.0279759 0.0280902 0.0164917
         vertex 0.0279993 0.0280512 0.0164789
         vertex 0.0279671 0.0280638 0.0164538
      endloop
   endfacet
   facet normal 0.699686 0.558325 -0.445772
      outer loop
         vertex 0.0280287 0.0280378 0.0165048
         vertex 0.0280513 0.0279978 0.0164892
         vertex 0.0280221 0.0280126 0.0164636
      endloop
   endfacet
   facet normal 0.694192 0.544842 -0.470367
      outer loop
         vertex 0.0280052 0.0280783 0.0165178
         vertex 0.0280287 0.0280378 0.0165048
         vertex 0.0279993 0.0280512 0.0164789
      endloop
   endfacet
   facet normal 0.699686 0.558325 -0.445772
      outer loop
         vertex 0.0280287 0.0280378 0.0165048
         vertex 0.0280183 0.0280724 0.0165311
         vertex 0.0280303 0.0280665 0.0165446
      endloop
   endfacet
   facet normal 0.699686 0.558325 -0.445772
      outer loop
         vertex 0.0280287 0.0280378 0.0165048
         vertex 0.0280052 0.0280783 0.0165178
         vertex 0.0280183 0.0280724 0.0165311
      endloop
   endfacet
   facet normal 0.770723 0.539767 -0.338582
      outer loop
         vertex 0.028065 0.028018 0.0165447
         vertex 0.0280877 0.0279758 0.0165285
         vertex 0.0280767 0.027983 0.0165154
      endloop
   endfacet
   facet normal 0.793769 0.531881 -0.295013
      outer loop
         vertex 0.0280747 0.0280118 0.0165581
         vertex 0.0280975 0.0279689 0.0165418
         vertex 0.0280877 0.0279758 0.0165285
      endloop
   endfacet
   facet normal 0.766781 0.535071 -0.354606
      outer loop
         vertex 0.0280411 0.0280608 0.0165582
         vertex 0.028065 0.028018 0.0165447
         vertex 0.028054 0.0280244 0.0165313
      endloop
   endfacet
   facet normal 0.789908 0.530205 -0.308103
      outer loop
         vertex 0.0280507 0.0280554 0.0165718
         vertex 0.0280747 0.0280118 0.0165581
         vertex 0.028065 0.028018 0.0165447
      endloop
   endfacet
   facet normal 0.718818 0.542145 -0.435178
      outer loop
         vertex 0.0280183 0.0280724 0.0165311
         vertex 0.0280052 0.0280783 0.0165178
         vertex 0.0279807 0.0281193 0.0165286
      endloop
   endfacet
   facet normal 0.688887 0.53284 -0.491442
      outer loop
         vertex 0.0279807 0.0281193 0.0165286
         vertex 0.0279681 0.0281561 0.0165506
         vertex 0.0280183 0.0280724 0.0165311
      endloop
   endfacet
   facet normal 0.688887 0.53284 -0.491442
      outer loop
         vertex 0.0279807 0.0281193 0.0165286
         vertex 0.0280052 0.0280783 0.0165178
         vertex 0.0279759 0.0280902 0.0164917
      endloop
   endfacet
   facet normal 0.631917 0.516946 -0.577449
      outer loop
         vertex 0.0279265 0.0281695 0.016511
         vertex 0.0279517 0.0281297 0.0165024
         vertex 0.0279196 0.0281393 0.0164773
      endloop
   endfacet
   facet normal 0.683339 0.522872 -0.509561
      outer loop
         vertex 0.0279552 0.0281606 0.0165372
         vertex 0.0279807 0.0281193 0.0165286
         vertex 0.0279517 0.0281297 0.0165024
      endloop
   endfacet
   facet normal 0.758165 0.52987 -0.38003
      outer loop
         vertex 0.0279901 0.0281475 0.0165779
         vertex 0.0280411 0.0280608 0.0165582
         vertex 0.0280303 0.0280665 0.0165446
      endloop
   endfacet
   facet normal 0.734075 0.528132 -0.426861
      outer loop
         vertex 0.0279797 0.0281517 0.0165642
         vertex 0.0280303 0.0280665 0.0165446
         vertex 0.0280183 0.0280724 0.0165311
      endloop
   endfacet
   facet normal 0.781145 0.53075 -0.32881
      outer loop
         vertex 0.0279992 0.0281435 0.0165917
         vertex 0.0280507 0.0280554 0.0165718
         vertex 0.0280411 0.0280608 0.0165582
      endloop
   endfacet
   facet normal 0.801925 0.530434 -0.274876
      outer loop
         vertex 0.028007 0.0281399 0.0166055
         vertex 0.0280589 0.0280503 0.0165855
         vertex 0.0280507 0.0280554 0.0165718
      endloop
   endfacet
   facet normal 0.875631 0.478748 -0.0637969
      outer loop
         vertex 0.0281046 0.0279863 0.0166256
         vertex 0.0281285 0.0279395 0.0166078
         vertex 0.0281245 0.0279447 0.0165947
      endloop
   endfacet
   facet normal 0.81135 0.52418 -0.25874
      outer loop
         vertex 0.0280589 0.0280503 0.0165855
         vertex 0.0280831 0.0280059 0.0165716
         vertex 0.0280747 0.0280118 0.0165581
      endloop
   endfacet
   facet normal 0.851173 0.501895 -0.153643
      outer loop
         vertex 0.0280961 0.0279953 0.0165986
         vertex 0.0281195 0.0279502 0.0165815
         vertex 0.0281134 0.027956 0.0165682
      endloop
   endfacet
   facet normal 0.834585 0.512825 -0.201191
      outer loop
         vertex 0.0280902 0.0280005 0.0165851
         vertex 0.0281134 0.027956 0.0165682
         vertex 0.0281061 0.0279623 0.016555
      endloop
   endfacet
   facet normal 0.865107 0.490177 -0.106381
      outer loop
         vertex 0.0281009 0.0279906 0.0166121
         vertex 0.0281245 0.0279447 0.0165947
         vertex 0.0281195 0.0279502 0.0165815
      endloop
   endfacet
   facet normal 0.846 0.508937 -0.15896
      outer loop
         vertex 0.0280715 0.0280412 0.0166129
         vertex 0.0280961 0.0279953 0.0165986
         vertex 0.0280902 0.0280005 0.0165851
      endloop
   endfacet
   facet normal 0.830084 0.517061 -0.208827
      outer loop
         vertex 0.0280658 0.0280455 0.0165992
         vertex 0.0280902 0.0280005 0.0165851
         vertex 0.0280831 0.0280059 0.0165716
      endloop
   endfacet
   facet normal 0.859081 0.499943 -0.109715
      outer loop
         vertex 0.028076 0.0280372 0.0166266
         vertex 0.0281009 0.0279906 0.0166121
         vertex 0.0280961 0.0279953 0.0165986
      endloop
   endfacet
   facet normal 0.868707 0.490963 -0.0656052
      outer loop
         vertex 0.0280794 0.0280336 0.0166402
         vertex 0.0281046 0.0279863 0.0166256
         vertex 0.0281009 0.0279906 0.0166121
      endloop
   endfacet
   facet normal 0.888669 0.458549 -3.1209e-05
      outer loop
         vertex 0.0281117 0.0279748 0.0166658
         vertex 0.0281365 0.0279257 0.0166471
         vertex 0.0281317 0.0279347 0.0166209
      endloop
   endfacet
   facet normal 0.882545 0.469199 -0.0310875
      outer loop
         vertex 0.0281075 0.0279823 0.016639
         vertex 0.0281317 0.0279347 0.0166209
         vertex 0.0281285 0.0279395 0.0166078
      endloop
   endfacet
   facet normal 0.880098 0.474793 -2.27465e-05
      outer loop
         vertex 0.0280856 0.0280244 0.016681
         vertex 0.0281117 0.0279748 0.0166658
         vertex 0.0281075 0.0279823 0.016639
      endloop
   endfacet
   facet normal 0.874848 0.483347 -0.0318813
      outer loop
         vertex 0.028082 0.0280304 0.0166538
         vertex 0.0281075 0.0279823 0.016639
         vertex 0.0281046 0.0279863 0.0166256
      endloop
   endfacet
   facet normal 0.861202 0.503815 -0.0670904
      outer loop
         vertex 0.0280529 0.0280813 0.0166519
         vertex 0.0280794 0.0280336 0.0166402
         vertex 0.028076 0.0280372 0.0166266
      endloop
   endfacet
   facet normal 0.833931 0.525924 -0.167221
      outer loop
         vertex 0.0280185 0.0281337 0.0166333
         vertex 0.0280715 0.0280412 0.0166129
         vertex 0.0280658 0.0280455 0.0165992
      endloop
   endfacet
   facet normal 0.819535 0.528791 -0.220779
      outer loop
         vertex 0.0280134 0.0281366 0.0166194
         vertex 0.0280658 0.0280455 0.0165992
         vertex 0.0280589 0.0280503 0.0165855
      endloop
   endfacet
   facet normal 0.833931 0.525924 -0.167221
      outer loop
         vertex 0.0280185 0.0281337 0.0166333
         vertex 0.0280224 0.0281311 0.0166471
         vertex 0.0280498 0.0280841 0.0166382
      endloop
   endfacet
   facet normal 0.852506 0.510474 -0.112468
      outer loop
         vertex 0.0280498 0.0280841 0.0166382
         vertex 0.0280715 0.0280412 0.0166129
         vertex 0.0280185 0.0281337 0.0166333
      endloop
   endfacet
   facet normal 0.852942 0.517507 -0.0683886
      outer loop
         vertex 0.0280252 0.028129 0.0166609
         vertex 0.0280529 0.0280813 0.0166519
         vertex 0.0280498 0.0280841 0.0166382
      endloop
   endfacet
   facet normal 0.870917 0.491429 -4.03076e-05
      outer loop
         vertex 0.0280581 0.0280742 0.016693
         vertex 0.0280856 0.0280244 0.016681
         vertex 0.028082 0.0280304 0.0166538
      endloop
   endfacet
   facet normal 0.866555 0.49802 -0.0325365
      outer loop
         vertex 0.0280551 0.0280787 0.0166656
         vertex 0.028082 0.0280304 0.0166538
         vertex 0.0280794 0.0280336 0.0166402
      endloop
   endfacet
   facet normal 0.860982 0.508635 -9.83551e-05
      outer loop
         vertex 0.0280294 0.0281239 0.016702
         vertex 0.0280581 0.0280742 0.016693
         vertex 0.0280551 0.0280787 0.0166656
      endloop
   endfacet
   facet normal 0.857503 0.513411 -0.0331273
      outer loop
         vertex 0.0280271 0.0281271 0.0166746
         vertex 0.0280551 0.0280787 0.0166656
         vertex 0.0280529 0.0280813 0.0166519
      endloop
   endfacet
   facet normal 0.669135 0.60697 -0.428774
      outer loop
         vertex 0.028044 0.0279748 0.0164456
         vertex 0.0280649 0.0279381 0.0164247
         vertex 0.0280338 0.0279546 0.0163999
      endloop
   endfacet
   facet normal 0.855263 0.499342 -0.138504
      outer loop
         vertex 0.0281922 0.0277914 0.0164684
         vertex 0.028176 0.0278098 0.0164453
         vertex 0.028167 0.0278385 0.0164865
      endloop
   endfacet
   facet normal 0.815695 0.544421 -0.195571
      outer loop
         vertex 0.028176 0.0278098 0.0164453
         vertex 0.0281584 0.0278472 0.0164744
         vertex 0.028167 0.0278385 0.0164865
      endloop
   endfacet
   facet normal 0.67723 0.625598 -0.38728
      outer loop
         vertex 0.0280649 0.0279381 0.0164247
         vertex 0.0280852 0.0279024 0.0164004
         vertex 0.0280548 0.02792 0.0163758
      endloop
   endfacet
   facet normal 0.767372 0.580616 -0.272075
      outer loop
         vertex 0.0281377 0.0278653 0.0164499
         vertex 0.0281557 0.0278291 0.0164215
         vertex 0.0281316 0.0278488 0.0163973
      endloop
   endfacet
   facet normal 0.725724 0.612913 -0.31251
      outer loop
         vertex 0.0281131 0.0278839 0.0164251
         vertex 0.0281316 0.0278488 0.0163973
         vertex 0.0281043 0.0278684 0.0163727
      endloop
   endfacet
   facet normal 0.81006 0.544087 -0.218569
      outer loop
         vertex 0.0281584 0.0278472 0.0164744
         vertex 0.028176 0.0278098 0.0164453
         vertex 0.0281557 0.0278291 0.0164215
      endloop
   endfacet
   facet normal 0.761616 0.57276 -0.303127
      outer loop
         vertex 0.0281185 0.0279033 0.016475
         vertex 0.0281377 0.0278653 0.0164499
         vertex 0.0281131 0.0278839 0.0164251
      endloop
   endfacet
   facet normal 0.718504 0.600311 -0.351253
      outer loop
         vertex 0.0280935 0.0279207 0.0164497
         vertex 0.0281131 0.0278839 0.0164251
         vertex 0.0280852 0.0279024 0.0164004
      endloop
   endfacet
   facet normal 0.805475 0.541241 -0.24139
      outer loop
         vertex 0.0281393 0.0278865 0.0165001
         vertex 0.0281584 0.0278472 0.0164744
         vertex 0.0281377 0.0278653 0.0164499
      endloop
   endfacet
   facet normal 0.826853 0.523535 -0.205488
      outer loop
         vertex 0.028148 0.0278784 0.0165127
         vertex 0.028167 0.0278385 0.0164865
         vertex 0.0281584 0.0278472 0.0164744
      endloop
   endfacet
   facet normal 0.907367 0.419588 -0.0251135
      outer loop
         vertex 0.0281953 0.0277993 0.0165453
         vertex 0.0282134 0.0277576 0.0165127
         vertex 0.0282045 0.027774 0.0164909
      endloop
   endfacet
   facet normal 0.889201 0.451153 -0.0760384
      outer loop
         vertex 0.0282045 0.027774 0.0164909
         vertex 0.0281922 0.0277914 0.0164684
         vertex 0.0281811 0.0278219 0.0165103
      endloop
   endfacet
   facet normal 0.855263 0.499342 -0.138504
      outer loop
         vertex 0.0281922 0.0277914 0.0164684
         vertex 0.0281746 0.02783 0.0164985
         vertex 0.0281811 0.0278219 0.0165103
      endloop
   endfacet
   facet normal 0.916401 0.400261 -2.38933e-05
      outer loop
         vertex 0.0282018 0.0277852 0.0165682
         vertex 0.0282204 0.0277419 0.0165342
         vertex 0.0282134 0.0277576 0.0165127
      endloop
   endfacet
   facet normal 0.907367 0.419588 -0.0251135
      outer loop
         vertex 0.0281953 0.0277993 0.0165453
         vertex 0.0281867 0.0278141 0.0165221
         vertex 0.0281719 0.0278494 0.0165621
      endloop
   endfacet
   facet normal 0.884777 0.458424 -0.0837625
      outer loop
         vertex 0.0281867 0.0278141 0.0165221
         vertex 0.0281674 0.0278561 0.0165498
         vertex 0.0281719 0.0278494 0.0165621
      endloop
   endfacet
   facet normal 0.864428 0.485686 -0.129897
      outer loop
         vertex 0.028162 0.0278632 0.0165375
         vertex 0.0281811 0.0278219 0.0165103
         vertex 0.0281746 0.02783 0.0164985
      endloop
   endfacet
   facet normal 0.846568 0.505004 -0.168209
      outer loop
         vertex 0.0281555 0.0278707 0.0165251
         vertex 0.0281746 0.02783 0.0164985
         vertex 0.028167 0.0278385 0.0164865
      endloop
   endfacet
   facet normal 0.880283 0.465655 -0.0909182
      outer loop
         vertex 0.0281674 0.0278561 0.0165498
         vertex 0.0281867 0.0278141 0.0165221
         vertex 0.0281811 0.0278219 0.0165103
      endloop
   endfacet
   facet normal 0.910426 0.413672 1.6914e-05
      outer loop
         vertex 0.0281816 0.0278305 0.0165985
         vertex 0.0282018 0.0277852 0.0165682
         vertex 0.0281953 0.0277993 0.0165453
      endloop
   endfacet
   facet normal 0.823118 0.522754 -0.221822
      outer loop
         vertex 0.0281277 0.0279197 0.0165354
         vertex 0.028148 0.0278784 0.0165127
         vertex 0.0281393 0.0278865 0.0165001
      endloop
   endfacet
   facet normal 0.660895 0.588337 -0.465916
      outer loop
         vertex 0.0280221 0.0280126 0.0164636
         vertex 0.028044 0.0279748 0.0164456
         vertex 0.0280123 0.0279901 0.0164207
      endloop
   endfacet
   facet normal 0.756694 0.563804 -0.330967
      outer loop
         vertex 0.0280982 0.0279425 0.0164967
         vertex 0.0281185 0.0279033 0.016475
         vertex 0.0280935 0.0279207 0.0164497
      endloop
   endfacet
   facet normal 0.712078 0.586317 -0.386236
      outer loop
         vertex 0.0280729 0.0279587 0.016471
         vertex 0.0280935 0.0279207 0.0164497
         vertex 0.0280649 0.0279381 0.0164247
      endloop
   endfacet
   facet normal 0.761616 0.57276 -0.303127
      outer loop
         vertex 0.0281185 0.0279033 0.016475
         vertex 0.0281092 0.0279347 0.0165096
         vertex 0.0281191 0.027927 0.0165225
      endloop
   endfacet
   facet normal 0.761616 0.57276 -0.303127
      outer loop
         vertex 0.0281185 0.0279033 0.016475
         vertex 0.0280982 0.0279425 0.0164967
         vertex 0.0281092 0.0279347 0.0165096
      endloop
   endfacet
   facet normal 0.751875 0.555075 -0.355774
      outer loop
         vertex 0.0280767 0.027983 0.0165154
         vertex 0.0280982 0.0279425 0.0164967
         vertex 0.0280729 0.0279587 0.016471
      endloop
   endfacet
   facet normal 0.705688 0.572441 -0.417512
      outer loop
         vertex 0.0280513 0.0279978 0.0164892
         vertex 0.0280729 0.0279587 0.016471
         vertex 0.028044 0.0279748 0.0164456
      endloop
   endfacet
   facet normal 0.774844 0.545324 -0.319747
      outer loop
         vertex 0.0280877 0.0279758 0.0165285
         vertex 0.0281092 0.0279347 0.0165096
         vertex 0.0280982 0.0279425 0.0164967
      endloop
   endfacet
   facet normal 0.797664 0.534442 -0.27947
      outer loop
         vertex 0.0280975 0.0279689 0.0165418
         vertex 0.0281191 0.027927 0.0165225
         vertex 0.0281092 0.0279347 0.0165096
      endloop
   endfacet
   facet normal 0.81934 0.5224 -0.23618
      outer loop
         vertex 0.0281061 0.0279623 0.016555
         vertex 0.0281277 0.0279197 0.0165354
         vertex 0.0281191 0.027927 0.0165225
      endloop
   endfacet
   facet normal 0.887766 0.45656 -0.0585133
      outer loop
         vertex 0.0281509 0.0278938 0.0165867
         vertex 0.0281719 0.0278494 0.0165621
         vertex 0.0281674 0.0278561 0.0165498
      endloop
   endfacet
   facet normal 0.860329 0.490395 -0.139097
      outer loop
         vertex 0.0281415 0.027906 0.0165612
         vertex 0.028162 0.0278632 0.0165375
         vertex 0.0281555 0.0278707 0.0165251
      endloop
   endfacet
   facet normal 0.842772 0.506979 -0.180852
      outer loop
         vertex 0.0281352 0.0279127 0.0165483
         vertex 0.0281555 0.0278707 0.0165251
         vertex 0.028148 0.0278784 0.0165127
      endloop
   endfacet
   facet normal 0.875659 0.473092 -0.0969761
      outer loop
         vertex 0.0281467 0.0278997 0.016574
         vertex 0.0281674 0.0278561 0.0165498
         vertex 0.028162 0.0278632 0.0165375
      endloop
   endfacet
   facet normal 0.903848 0.427854 1.77367e-05
      outer loop
         vertex 0.0281599 0.0278775 0.0166247
         vertex 0.0281816 0.0278305 0.0165985
         vertex 0.0281756 0.0278429 0.0165743
      endloop
   endfacet
   facet normal 0.896094 0.442938 -0.0286549
      outer loop
         vertex 0.0281544 0.0278882 0.0165994
         vertex 0.0281756 0.0278429 0.0165743
         vertex 0.0281719 0.0278494 0.0165621
      endloop
   endfacet
   facet normal 0.882018 0.46719 -0.0614702
      outer loop
         vertex 0.0281285 0.0279395 0.0166078
         vertex 0.0281509 0.0278938 0.0165867
         vertex 0.0281467 0.0278997 0.016574
      endloop
   endfacet
   facet normal 0.855972 0.495668 -0.147056
      outer loop
         vertex 0.0281195 0.0279502 0.0165815
         vertex 0.0281415 0.027906 0.0165612
         vertex 0.0281352 0.0279127 0.0165483
      endloop
   endfacet
   facet normal 0.838832 0.509452 -0.191885
      outer loop
         vertex 0.0281134 0.027956 0.0165682
         vertex 0.0281352 0.0279127 0.0165483
         vertex 0.0281277 0.0279197 0.0165354
      endloop
   endfacet
   facet normal 0.870661 0.481155 -0.102175
      outer loop
         vertex 0.0281245 0.0279447 0.0165947
         vertex 0.0281467 0.0278997 0.016574
         vertex 0.0281415 0.027906 0.0165612
      endloop
   endfacet
   facet normal 0.896625 0.442791 -3.92637e-05
      outer loop
         vertex 0.0281365 0.0279257 0.0166471
         vertex 0.0281599 0.0278775 0.0166247
         vertex 0.0281544 0.0278882 0.0165994
      endloop
   endfacet
   facet normal 0.889664 0.455627 -0.0300427
      outer loop
         vertex 0.0281317 0.0279347 0.0166209
         vertex 0.0281544 0.0278882 0.0165994
         vertex 0.0281509 0.0278938 0.0165867
      endloop
   endfacet
   facet normal 0.532758 0.752955 -0.386299
      outer loop
         vertex 0.0279599 0.0279617 0.0163053
         vertex 0.0279824 0.0279331 0.0162774
         vertex 0.0279536 0.0279435 0.0162554
      endloop
   endfacet
   facet normal 0.354161 0.806262 -0.473827
      outer loop
         vertex 0.0278199 0.0280158 0.0162595
         vertex 0.0278324 0.0280037 0.0162478
         vertex 0.0278123 0.0280026 0.0162282
      endloop
   endfacet
   facet normal 0.454693 0.820366 -0.346777
      outer loop
         vertex 0.0279155 0.0279633 0.0162488
         vertex 0.0279272 0.0279511 0.0162345
         vertex 0.0279033 0.0279565 0.0162144
      endloop
   endfacet
   facet normal 0.370114 0.839903 -0.396961
      outer loop
         vertex 0.0278449 0.0279921 0.0162355
         vertex 0.0278574 0.0279809 0.0162227
         vertex 0.0278375 0.0279819 0.0162032
      endloop
   endfacet
   facet normal 0.413758 0.845984 -0.336328
      outer loop
         vertex 0.0278914 0.0279676 0.0162287
         vertex 0.0279033 0.0279565 0.0162144
         vertex 0.0278818 0.0279602 0.0161951
      endloop
   endfacet
   facet normal 0.377128 0.855149 -0.355661
      outer loop
         vertex 0.0278574 0.0279809 0.0162227
         vertex 0.0278698 0.0279702 0.0162092
         vertex 0.0278499 0.0279724 0.01619
      endloop
   endfacet
   facet normal 0.407013 0.831319 -0.378482
      outer loop
         vertex 0.0278791 0.0279794 0.0162423
         vertex 0.0278914 0.0279676 0.0162287
         vertex 0.0278698 0.0279702 0.0162092
      endloop
   endfacet
   facet normal 0.399869 0.815407 -0.418589
      outer loop
         vertex 0.0278667 0.0279917 0.0162552
         vertex 0.0278791 0.0279794 0.0162423
         vertex 0.0278574 0.0279809 0.0162227
      endloop
   endfacet
   facet normal 0.362351 0.823682 -0.436177
      outer loop
         vertex 0.0278324 0.0280037 0.0162478
         vertex 0.0278449 0.0279921 0.0162355
         vertex 0.0278249 0.027992 0.0162159
      endloop
   endfacet
   facet normal 0.392184 0.798462 -0.456783
      outer loop
         vertex 0.0278543 0.0280044 0.0162674
         vertex 0.0278667 0.0279917 0.0162552
         vertex 0.0278449 0.0279921 0.0162355
      endloop
   endfacet
   facet normal 0.447881 0.806129 -0.386728
      outer loop
         vertex 0.0279035 0.0279761 0.0162625
         vertex 0.0278791 0.0279794 0.0162423
         vertex 0.0278667 0.0279917 0.0162552
      endloop
   endfacet
   facet normal 0.399869 0.815407 -0.418589
      outer loop
         vertex 0.0278667 0.0279917 0.0162552
         vertex 0.027879 0.0280032 0.0162874
         vertex 0.0279035 0.0279761 0.0162625
      endloop
   endfacet
   facet normal 0.504939 0.804283 -0.313314
      outer loop
         vertex 0.0279536 0.0279435 0.0162554
         vertex 0.0279272 0.0279511 0.0162345
         vertex 0.0279155 0.0279633 0.0162488
      endloop
   endfacet
   facet normal 0.454693 0.820366 -0.346777
      outer loop
         vertex 0.0279155 0.0279633 0.0162488
         vertex 0.0279305 0.0279704 0.0162834
         vertex 0.0279536 0.0279435 0.0162554
      endloop
   endfacet
   facet normal 0.447881 0.806129 -0.386728
      outer loop
         vertex 0.0279035 0.0279761 0.0162625
         vertex 0.0279155 0.0279633 0.0162488
         vertex 0.0278914 0.0279676 0.0162287
      endloop
   endfacet
   facet normal 0.477542 0.748635 -0.459891
      outer loop
         vertex 0.0279065 0.0279993 0.0163082
         vertex 0.0279305 0.0279704 0.0162834
         vertex 0.0279035 0.0279761 0.0162625
      endloop
   endfacet
   facet normal 0.433662 0.773639 -0.461975
      outer loop
         vertex 0.027879 0.0280032 0.0162874
         vertex 0.0278543 0.0280044 0.0162674
         vertex 0.0278419 0.0280175 0.0162789
      endloop
   endfacet
   facet normal 0.384055 0.78045 -0.493355
      outer loop
         vertex 0.0278419 0.0280175 0.0162789
         vertex 0.0278546 0.0280314 0.0163095
         vertex 0.027879 0.0280032 0.0162874
      endloop
   endfacet
   facet normal 0.3365 0.768437 -0.544308
      outer loop
         vertex 0.0277946 0.0280409 0.0162813
         vertex 0.0278073 0.0280282 0.0162707
         vertex 0.027787 0.028025 0.0162513
      endloop
   endfacet
   facet normal 0.384055 0.78045 -0.493355
      outer loop
         vertex 0.0278419 0.0280175 0.0162789
         vertex 0.0278543 0.0280044 0.0162674
         vertex 0.0278324 0.0280037 0.0162478
      endloop
   endfacet
   facet normal 0.345515 0.787811 -0.509875
      outer loop
         vertex 0.0278073 0.0280282 0.0162707
         vertex 0.0278199 0.0280158 0.0162595
         vertex 0.0277997 0.0280136 0.01624
      endloop
   endfacet
   facet normal 0.375412 0.761602 -0.528231
      outer loop
         vertex 0.0278295 0.0280308 0.0162899
         vertex 0.0278419 0.0280175 0.0162789
         vertex 0.0278199 0.0280158 0.0162595
      endloop
   endfacet
   facet normal 0.375412 0.761602 -0.528231
      outer loop
         vertex 0.0278295 0.0280308 0.0162899
         vertex 0.0278073 0.0280282 0.0162707
         vertex 0.0277946 0.0280409 0.0162813
      endloop
   endfacet
   facet normal 0.3365 0.768437 -0.544308
      outer loop
         vertex 0.0277946 0.0280409 0.0162813
         vertex 0.0278045 0.0280584 0.01631
         vertex 0.0278295 0.0280308 0.0162899
      endloop
   endfacet
   facet normal 0.327346 0.748056 -0.577284
      outer loop
         vertex 0.0277819 0.028054 0.0162914
         vertex 0.0277946 0.0280409 0.0162813
         vertex 0.0277742 0.0280368 0.0162622
      endloop
   endfacet
   facet normal 0.400066 0.698979 -0.59277
      outer loop
         vertex 0.0278299 0.0280607 0.016329
         vertex 0.0278546 0.0280314 0.0163095
         vertex 0.0278295 0.0280308 0.0162899
      endloop
   endfacet
   facet normal 0.462632 0.71424 -0.525199
      outer loop
         vertex 0.0278826 0.0280292 0.0163298
         vertex 0.0279065 0.0279993 0.0163082
         vertex 0.027879 0.0280032 0.0162874
      endloop
   endfacet
   facet normal 0.446148 0.677971 -0.584216
      outer loop
         vertex 0.0278583 0.0280601 0.0163488
         vertex 0.0278826 0.0280292 0.0163298
         vertex 0.0278546 0.0280314 0.0163095
      endloop
   endfacet
   facet normal 0.506374 0.691359 -0.515371
      outer loop
         vertex 0.0279132 0.0280238 0.0163511
         vertex 0.0279366 0.0279923 0.0163298
         vertex 0.0279065 0.0279993 0.0163082
      endloop
   endfacet
   facet normal 0.610284 0.69839 -0.373904
      outer loop
         vertex 0.028023 0.0279362 0.0163516
         vertex 0.0280438 0.0279046 0.016324
         vertex 0.0280127 0.0279201 0.0163003
      endloop
   endfacet
   facet normal 0.520114 0.723547 -0.45383
      outer loop
         vertex 0.0279366 0.0279923 0.0163298
         vertex 0.0279599 0.0279617 0.0163053
         vertex 0.0279305 0.0279704 0.0162834
      endloop
   endfacet
   facet normal 0.572321 0.72574 -0.381772
      outer loop
         vertex 0.027991 0.0279503 0.016328
         vertex 0.0280127 0.0279201 0.0163003
         vertex 0.0279824 0.0279331 0.0162774
      endloop
   endfacet
   facet normal 0.560468 0.69864 -0.444723
      outer loop
         vertex 0.0279685 0.0279823 0.0163524
         vertex 0.027991 0.0279503 0.016328
         vertex 0.0279599 0.0279617 0.0163053
      endloop
   endfacet
   facet normal 0.599305 0.674118 -0.431739
      outer loop
         vertex 0.0280013 0.0279695 0.0163758
         vertex 0.028023 0.0279362 0.0163516
         vertex 0.027991 0.0279503 0.016328
      endloop
   endfacet
   facet normal 0.647768 0.670795 -0.361153
      outer loop
         vertex 0.0280548 0.02792 0.0163758
         vertex 0.0280747 0.0278872 0.0163482
         vertex 0.0280438 0.0279046 0.016324
      endloop
   endfacet
   facet normal 0.637834 0.649899 -0.413279
      outer loop
         vertex 0.0280338 0.0279546 0.0163999
         vertex 0.0280548 0.02792 0.0163758
         vertex 0.028023 0.0279362 0.0163516
      endloop
   endfacet
   facet normal 0.588121 0.647703 -0.484349
      outer loop
         vertex 0.0279792 0.0280038 0.0163966
         vertex 0.0280013 0.0279695 0.0163758
         vertex 0.0279685 0.0279823 0.0163524
      endloop
   endfacet
   facet normal 0.491266 0.657881 -0.570833
      outer loop
         vertex 0.0278895 0.0280562 0.0163696
         vertex 0.0279132 0.0280238 0.0163511
         vertex 0.0278826 0.0280292 0.0163298
      endloop
   endfacet
   facet normal 0.547954 0.6691 -0.502046
      outer loop
         vertex 0.0279458 0.0280153 0.0163734
         vertex 0.0279685 0.0279823 0.0163524
         vertex 0.0279366 0.0279923 0.0163298
      endloop
   endfacet
   facet normal 0.534371 0.638754 -0.553571
      outer loop
         vertex 0.0279225 0.0280491 0.0163915
         vertex 0.0279458 0.0280153 0.0163734
         vertex 0.0279132 0.0280238 0.0163511
      endloop
   endfacet
   facet normal 0.576201 0.620852 -0.531541
      outer loop
         vertex 0.0279564 0.028039 0.0164145
         vertex 0.0279792 0.0280038 0.0163966
         vertex 0.0279458 0.0280153 0.0163734
      endloop
   endfacet
   facet normal 0.628123 0.627123 -0.460629
      outer loop
         vertex 0.0280123 0.0279901 0.0164207
         vertex 0.0280338 0.0279546 0.0163999
         vertex 0.0280013 0.0279695 0.0163758
      endloop
   endfacet
   facet normal 0.617998 0.604169 -0.503048
      outer loop
         vertex 0.0279901 0.0280266 0.0164386
         vertex 0.0280123 0.0279901 0.0164207
         vertex 0.0279792 0.0280038 0.0163966
      endloop
   endfacet
   facet normal 0.28756 0.698219 -0.655591
      outer loop
         vertex 0.0277105 0.0281008 0.0163108
         vertex 0.027698 0.0281144 0.0163195
         vertex 0.0277192 0.0281231 0.0163358
      endloop
   endfacet
   facet normal 0.476032 0.621647 -0.622051
      outer loop
         vertex 0.0278655 0.0280892 0.0163855
         vertex 0.0278895 0.0280562 0.0163696
         vertex 0.0278583 0.0280601 0.0163488
      endloop
   endfacet
   facet normal 0.297888 0.682623 -0.6673
      outer loop
         vertex 0.0277441 0.0280947 0.0163192
         vertex 0.0277567 0.0280809 0.0163104
         vertex 0.0277358 0.0280743 0.0162924
      endloop
   endfacet
   facet normal 0.381875 0.657414 -0.649599
      outer loop
         vertex 0.0278052 0.0280907 0.0163462
         vertex 0.0278299 0.0280607 0.016329
         vertex 0.0278045 0.0280584 0.01631
      endloop
   endfacet
   facet normal 0.357101 0.721535 -0.593183
      outer loop
         vertex 0.0278045 0.0280584 0.01631
         vertex 0.0277819 0.028054 0.0162914
         vertex 0.0277693 0.0280673 0.0163011
      endloop
   endfacet
   facet normal 0.317904 0.7269 -0.608731
      outer loop
         vertex 0.0277693 0.0280673 0.0163011
         vertex 0.0277795 0.0280869 0.0163281
         vertex 0.0278045 0.0280584 0.01631
      endloop
   endfacet
   facet normal 0.308022 0.705174 -0.638633
      outer loop
         vertex 0.0277567 0.0280809 0.0163104
         vertex 0.0277693 0.0280673 0.0163011
         vertex 0.0277486 0.0280615 0.0162827
      endloop
   endfacet
   facet normal 0.429332 0.638773 -0.63847
      outer loop
         vertex 0.027834 0.0280917 0.0163653
         vertex 0.0278583 0.0280601 0.0163488
         vertex 0.0278299 0.0280607 0.016329
      endloop
   endfacet
   facet normal 0.363234 0.613169 -0.701487
      outer loop
         vertex 0.0277808 0.0281213 0.0163615
         vertex 0.0278052 0.0280907 0.0163462
         vertex 0.0277795 0.0280869 0.0163281
      endloop
   endfacet
   facet normal 0.337931 0.678492 -0.652266
      outer loop
         vertex 0.0277795 0.0280869 0.0163281
         vertex 0.0277567 0.0280809 0.0163104
         vertex 0.0277441 0.0280947 0.0163192
      endloop
   endfacet
   facet normal 0.297888 0.682623 -0.6673
      outer loop
         vertex 0.0277441 0.0280947 0.0163192
         vertex 0.0277548 0.0281161 0.0163444
         vertex 0.0277795 0.0280869 0.0163281
      endloop
   endfacet
   facet normal 0.287475 0.659201 -0.694846
      outer loop
         vertex 0.0277317 0.0281088 0.0163277
         vertex 0.0277441 0.0280947 0.0163192
         vertex 0.0277231 0.0280874 0.0163018
      endloop
   endfacet
   facet normal 0.412322 0.597284 -0.687926
      outer loop
         vertex 0.0278099 0.0281236 0.0163797
         vertex 0.027834 0.0280917 0.0163653
         vertex 0.0278052 0.0280907 0.0163462
      endloop
   endfacet
   facet normal 0.460834 0.58365 -0.668569
      outer loop
         vertex 0.0278416 0.0281225 0.0163992
         vertex 0.0278655 0.0280892 0.0163855
         vertex 0.027834 0.0280917 0.0163653
      endloop
   endfacet
   facet normal 0.564504 0.592044 -0.575169
      outer loop
         vertex 0.0279332 0.0280748 0.0164298
         vertex 0.0279564 0.028039 0.0164145
         vertex 0.0279225 0.0280491 0.0163915
      endloop
   endfacet
   facet normal 0.520845 0.605984 -0.601252
      outer loop
         vertex 0.0278989 0.0280835 0.016407
         vertex 0.0279225 0.0280491 0.0163915
         vertex 0.0278895 0.0280562 0.0163696
      endloop
   endfacet
   facet normal 0.608226 0.579816 -0.542102
      outer loop
         vertex 0.0279671 0.0280638 0.0164538
         vertex 0.0279901 0.0280266 0.0164386
         vertex 0.0279564 0.028039 0.0164145
      endloop
   endfacet
   facet normal 0.553248 0.562658 -0.614274
      outer loop
         vertex 0.0279097 0.0281109 0.0164427
         vertex 0.0279332 0.0280748 0.0164298
         vertex 0.0278989 0.0280835 0.016407
      endloop
   endfacet
   facet normal 0.507574 0.572046 -0.644307
      outer loop
         vertex 0.0278752 0.0281182 0.0164202
         vertex 0.0278989 0.0280835 0.016407
         vertex 0.0278655 0.0280892 0.0163855
      endloop
   endfacet
   facet normal 0.599018 0.555401 -0.576808
      outer loop
         vertex 0.0279437 0.0281014 0.0164666
         vertex 0.0279671 0.0280638 0.0164538
         vertex 0.0279332 0.0280748 0.0164298
      endloop
   endfacet
   facet normal 0.445462 0.545518 -0.709911
      outer loop
         vertex 0.0278175 0.0281562 0.016411
         vertex 0.0278416 0.0281225 0.0163992
         vertex 0.0278099 0.0281236 0.0163797
      endloop
   endfacet
   facet normal 0.266127 0.651291 -0.710631
      outer loop
         vertex 0.0276854 0.0281284 0.0163279
         vertex 0.027673 0.0281425 0.0163359
         vertex 0.0276944 0.0281523 0.0163509
      endloop
   endfacet
   facet normal 0.343861 0.567071 -0.748459
      outer loop
         vertex 0.0277564 0.0281525 0.016375
         vertex 0.0277808 0.0281213 0.0163615
         vertex 0.0277548 0.0281161 0.0163444
      endloop
   endfacet
   facet normal 0.317987 0.632527 -0.706253
      outer loop
         vertex 0.0277548 0.0281161 0.0163444
         vertex 0.0277317 0.0281088 0.0163277
         vertex 0.0277192 0.0281231 0.0163358
      endloop
   endfacet
   facet normal 0.276724 0.634969 -0.721275
      outer loop
         vertex 0.0277192 0.0281231 0.0163358
         vertex 0.0277302 0.0281461 0.016359
         vertex 0.0277548 0.0281161 0.0163444
      endloop
   endfacet
   facet normal 0.277028 0.675204 -0.683633
      outer loop
         vertex 0.027698 0.0281144 0.0163195
         vertex 0.0276854 0.0281284 0.0163279
         vertex 0.0277068 0.0281376 0.0163436
      endloop
   endfacet
   facet normal 0.394857 0.554807 -0.73231
      outer loop
         vertex 0.0277856 0.028156 0.0163922
         vertex 0.0278099 0.0281236 0.0163797
         vertex 0.0277808 0.0281213 0.0163615
      endloop
   endfacet
   facet normal 0.323565 0.520675 -0.790065
      outer loop
         vertex 0.0277316 0.0281845 0.0163869
         vertex 0.0277564 0.0281525 0.016375
         vertex 0.0277302 0.0281461 0.016359
      endloop
   endfacet
   facet normal 0.297035 0.583939 -0.755503
      outer loop
         vertex 0.0277302 0.0281461 0.016359
         vertex 0.0277068 0.0281376 0.0163436
         vertex 0.0276944 0.0281523 0.0163509
      endloop
   endfacet
   facet normal 0.254229 0.584408 -0.770607
      outer loop
         vertex 0.0276944 0.0281523 0.0163509
         vertex 0.0277054 0.028177 0.0163721
         vertex 0.0277302 0.0281461 0.016359
      endloop
   endfacet
   facet normal 0.242637 0.558314 -0.793355
      outer loop
         vertex 0.027682 0.0281673 0.0163579
         vertex 0.0276944 0.0281523 0.0163509
         vertex 0.027673 0.0281425 0.0163359
      endloop
   endfacet
   facet normal 0.376726 0.51311 -0.77123
      outer loop
         vertex 0.0277608 0.0281892 0.0164031
         vertex 0.0277856 0.028156 0.0163922
         vertex 0.0277564 0.0281525 0.016375
      endloop
   endfacet
   facet normal 0.429697 0.509041 -0.745813
      outer loop
         vertex 0.0277927 0.0281907 0.016421
         vertex 0.0278175 0.0281562 0.016411
         vertex 0.0277856 0.028156 0.0163922
      endloop
   endfacet
   facet normal 0.542253 0.534387 -0.648377
      outer loop
         vertex 0.0278856 0.0281474 0.0164536
         vertex 0.0279097 0.0281109 0.0164427
         vertex 0.0278752 0.0281182 0.0164202
      endloop
   endfacet
   facet normal 0.49438 0.5387 -0.682196
      outer loop
         vertex 0.0278512 0.0281532 0.0164314
         vertex 0.0278752 0.0281182 0.0164202
         vertex 0.0278416 0.0281225 0.0163992
      endloop
   endfacet
   facet normal 0.590153 0.532402 -0.606851
      outer loop
         vertex 0.0279196 0.0281393 0.0164773
         vertex 0.0279437 0.0281014 0.0164666
         vertex 0.0279097 0.0281109 0.0164427
      endloop
   endfacet
   facet normal 0.531213 0.508615 -0.677586
      outer loop
         vertex 0.0278607 0.0281845 0.0164626
         vertex 0.0278856 0.0281474 0.0164536
         vertex 0.0278512 0.0281532 0.0164314
      endloop
   endfacet
   facet normal 0.481013 0.507587 -0.71483
      outer loop
         vertex 0.0278264 0.028189 0.0164408
         vertex 0.0278512 0.0281532 0.0164314
         vertex 0.0278175 0.0281562 0.016411
      endloop
   endfacet
   facet normal 0.581262 0.511895 -0.632533
      outer loop
         vertex 0.0278946 0.0281778 0.016486
         vertex 0.0279196 0.0281393 0.0164773
         vertex 0.0278856 0.0281474 0.0164536
      endloop
   endfacet
   facet normal 0.542253 0.534387 -0.648377
      outer loop
         vertex 0.0278856 0.0281474 0.0164536
         vertex 0.0278607 0.0281845 0.0164626
         vertex 0.0278946 0.0281778 0.016486
      endloop
   endfacet
   facet normal 0.445462 0.545518 -0.709911
      outer loop
         vertex 0.0278175 0.0281562 0.016411
         vertex 0.0277927 0.0281907 0.016421
         vertex 0.0278264 0.028189 0.0164408
      endloop
   endfacet
   facet normal 0.49438 0.5387 -0.682196
      outer loop
         vertex 0.0278512 0.0281532 0.0164314
         vertex 0.0278264 0.028189 0.0164408
         vertex 0.0278607 0.0281845 0.0164626
      endloop
   endfacet
   facet normal 0.553248 0.562658 -0.614274
      outer loop
         vertex 0.0279097 0.0281109 0.0164427
         vertex 0.0278856 0.0281474 0.0164536
         vertex 0.0279196 0.0281393 0.0164773
      endloop
   endfacet
   facet normal 0.460834 0.58365 -0.668569
      outer loop
         vertex 0.0278416 0.0281225 0.0163992
         vertex 0.0278175 0.0281562 0.016411
         vertex 0.0278512 0.0281532 0.0164314
      endloop
   endfacet
   facet normal 0.507574 0.572046 -0.644307
      outer loop
         vertex 0.0278752 0.0281182 0.0164202
         vertex 0.0278512 0.0281532 0.0164314
         vertex 0.0278856 0.0281474 0.0164536
      endloop
   endfacet
   facet normal 0.394857 0.554807 -0.73231
      outer loop
         vertex 0.0277856 0.028156 0.0163922
         vertex 0.0277608 0.0281892 0.0164031
         vertex 0.0277927 0.0281907 0.016421
      endloop
   endfacet
   facet normal 0.343861 0.567071 -0.748459
      outer loop
         vertex 0.0277564 0.0281525 0.016375
         vertex 0.0277316 0.0281845 0.0163869
         vertex 0.0277608 0.0281892 0.0164031
      endloop
   endfacet
   facet normal 0.254965 0.626528 -0.736516
      outer loop
         vertex 0.027673 0.0281425 0.0163359
         vertex 0.0276605 0.0281569 0.0163436
         vertex 0.027682 0.0281673 0.0163579
      endloop
   endfacet
   facet normal 0.254229 0.584408 -0.770607
      outer loop
         vertex 0.0276944 0.0281523 0.0163509
         vertex 0.027682 0.0281673 0.0163579
         vertex 0.0277054 0.028177 0.0163721
      endloop
   endfacet
   facet normal 0.297035 0.583939 -0.755503
      outer loop
         vertex 0.0277302 0.0281461 0.016359
         vertex 0.0277054 0.028177 0.0163721
         vertex 0.0277316 0.0281845 0.0163869
      endloop
   endfacet
   facet normal 0.363234 0.613169 -0.701487
      outer loop
         vertex 0.0277808 0.0281213 0.0163615
         vertex 0.0277564 0.0281525 0.016375
         vertex 0.0277856 0.028156 0.0163922
      endloop
   endfacet
   facet normal 0.265626 0.610004 -0.74655
      outer loop
         vertex 0.0277068 0.0281376 0.0163436
         vertex 0.0277192 0.0281231 0.0163358
         vertex 0.027698 0.0281144 0.0163195
      endloop
   endfacet
   facet normal 0.276724 0.634969 -0.721275
      outer loop
         vertex 0.0277192 0.0281231 0.0163358
         vertex 0.0277068 0.0281376 0.0163436
         vertex 0.0277302 0.0281461 0.016359
      endloop
   endfacet
   facet normal 0.317987 0.632527 -0.706253
      outer loop
         vertex 0.0277548 0.0281161 0.0163444
         vertex 0.0277302 0.0281461 0.016359
         vertex 0.0277564 0.0281525 0.016375
      endloop
   endfacet
   facet normal 0.254229 0.584408 -0.770607
      outer loop
         vertex 0.0276944 0.0281523 0.0163509
         vertex 0.0277068 0.0281376 0.0163436
         vertex 0.0276854 0.0281284 0.0163279
      endloop
   endfacet
   facet normal 0.412322 0.597284 -0.687926
      outer loop
         vertex 0.0278099 0.0281236 0.0163797
         vertex 0.0277856 0.028156 0.0163922
         vertex 0.0278175 0.0281562 0.016411
      endloop
   endfacet
   facet normal 0.564504 0.592044 -0.575169
      outer loop
         vertex 0.0279332 0.0280748 0.0164298
         vertex 0.0279097 0.0281109 0.0164427
         vertex 0.0279437 0.0281014 0.0164666
      endloop
   endfacet
   facet normal 0.476032 0.621647 -0.622051
      outer loop
         vertex 0.0278655 0.0280892 0.0163855
         vertex 0.0278416 0.0281225 0.0163992
         vertex 0.0278752 0.0281182 0.0164202
      endloop
   endfacet
   facet normal 0.520845 0.605984 -0.601252
      outer loop
         vertex 0.0278989 0.0280835 0.016407
         vertex 0.0278752 0.0281182 0.0164202
         vertex 0.0279097 0.0281109 0.0164427
      endloop
   endfacet
   facet normal 0.576201 0.620852 -0.531541
      outer loop
         vertex 0.0279564 0.028039 0.0164145
         vertex 0.0279332 0.0280748 0.0164298
         vertex 0.0279671 0.0280638 0.0164538
      endloop
   endfacet
   facet normal 0.491266 0.657881 -0.570833
      outer loop
         vertex 0.0278895 0.0280562 0.0163696
         vertex 0.0278655 0.0280892 0.0163855
         vertex 0.0278989 0.0280835 0.016407
      endloop
   endfacet
   facet normal 0.534371 0.638754 -0.553571
      outer loop
         vertex 0.0279225 0.0280491 0.0163915
         vertex 0.0278989 0.0280835 0.016407
         vertex 0.0279332 0.0280748 0.0164298
      endloop
   endfacet
   facet normal 0.429332 0.638773 -0.63847
      outer loop
         vertex 0.027834 0.0280917 0.0163653
         vertex 0.0278099 0.0281236 0.0163797
         vertex 0.0278416 0.0281225 0.0163992
      endloop
   endfacet
   facet normal 0.381875 0.657414 -0.649599
      outer loop
         vertex 0.0278052 0.0280907 0.0163462
         vertex 0.0277808 0.0281213 0.0163615
         vertex 0.0278099 0.0281236 0.0163797
      endloop
   endfacet
   facet normal 0.297673 0.720312 -0.626531
      outer loop
         vertex 0.0277231 0.0280874 0.0163018
         vertex 0.0277105 0.0281008 0.0163108
         vertex 0.0277317 0.0281088 0.0163277
      endloop
   endfacet
   facet normal 0.297888 0.682623 -0.6673
      outer loop
         vertex 0.0277441 0.0280947 0.0163192
         vertex 0.0277317 0.0281088 0.0163277
         vertex 0.0277548 0.0281161 0.0163444
      endloop
   endfacet
   facet normal 0.337931 0.678492 -0.652266
      outer loop
         vertex 0.0277795 0.0280869 0.0163281
         vertex 0.0277548 0.0281161 0.0163444
         vertex 0.0277808 0.0281213 0.0163615
      endloop
   endfacet
   facet normal 0.400066 0.698979 -0.59277
      outer loop
         vertex 0.0278299 0.0280607 0.016329
         vertex 0.0278052 0.0280907 0.0163462
         vertex 0.027834 0.0280917 0.0163653
      endloop
   endfacet
   facet normal 0.316663 0.761784 -0.565163
      outer loop
         vertex 0.0277486 0.0280615 0.0162827
         vertex 0.0277358 0.0280743 0.0162924
         vertex 0.0277567 0.0280809 0.0163104
      endloop
   endfacet
   facet normal 0.317904 0.7269 -0.608731
      outer loop
         vertex 0.0277693 0.0280673 0.0163011
         vertex 0.0277567 0.0280809 0.0163104
         vertex 0.0277795 0.0280869 0.0163281
      endloop
   endfacet
   facet normal 0.357101 0.721535 -0.593183
      outer loop
         vertex 0.0278045 0.0280584 0.01631
         vertex 0.0277795 0.0280869 0.0163281
         vertex 0.0278052 0.0280907 0.0163462
      endloop
   endfacet
   facet normal 0.307377 0.741478 -0.596431
      outer loop
         vertex 0.0277358 0.0280743 0.0162924
         vertex 0.0277231 0.0280874 0.0163018
         vertex 0.0277441 0.0280947 0.0163192
      endloop
   endfacet
   facet normal 0.446148 0.677971 -0.584216
      outer loop
         vertex 0.0278583 0.0280601 0.0163488
         vertex 0.027834 0.0280917 0.0163653
         vertex 0.0278655 0.0280892 0.0163855
      endloop
   endfacet
   facet normal 0.276724 0.634969 -0.721275
      outer loop
         vertex 0.0277192 0.0281231 0.0163358
         vertex 0.0277317 0.0281088 0.0163277
         vertex 0.0277105 0.0281008 0.0163108
      endloop
   endfacet
   facet normal 0.588121 0.647703 -0.484349
      outer loop
         vertex 0.0279792 0.0280038 0.0163966
         vertex 0.0279564 0.028039 0.0164145
         vertex 0.0279901 0.0280266 0.0164386
      endloop
   endfacet
   facet normal 0.599305 0.674118 -0.431739
      outer loop
         vertex 0.0280013 0.0279695 0.0163758
         vertex 0.0279792 0.0280038 0.0163966
         vertex 0.0280123 0.0279901 0.0164207
      endloop
   endfacet
   facet normal 0.547954 0.6691 -0.502046
      outer loop
         vertex 0.0279458 0.0280153 0.0163734
         vertex 0.0279225 0.0280491 0.0163915
         vertex 0.0279564 0.028039 0.0164145
      endloop
   endfacet
   facet normal 0.506374 0.691359 -0.515371
      outer loop
         vertex 0.0279132 0.0280238 0.0163511
         vertex 0.0278895 0.0280562 0.0163696
         vertex 0.0279225 0.0280491 0.0163915
      endloop
   endfacet
   facet normal 0.520114 0.723547 -0.45383
      outer loop
         vertex 0.0279366 0.0279923 0.0163298
         vertex 0.0279132 0.0280238 0.0163511
         vertex 0.0279458 0.0280153 0.0163734
      endloop
   endfacet
   facet normal 0.462632 0.71424 -0.525199
      outer loop
         vertex 0.0278826 0.0280292 0.0163298
         vertex 0.0278583 0.0280601 0.0163488
         vertex 0.0278895 0.0280562 0.0163696
      endloop
   endfacet
   facet normal 0.560468 0.69864 -0.444723
      outer loop
         vertex 0.0279685 0.0279823 0.0163524
         vertex 0.0279458 0.0280153 0.0163734
         vertex 0.0279792 0.0280038 0.0163966
      endloop
   endfacet
   facet normal 0.610284 0.69839 -0.373904
      outer loop
         vertex 0.028023 0.0279362 0.0163516
         vertex 0.0280013 0.0279695 0.0163758
         vertex 0.0280338 0.0279546 0.0163999
      endloop
   endfacet
   facet normal 0.623093 0.714631 -0.317895
      outer loop
         vertex 0.0280438 0.0279046 0.016324
         vertex 0.028023 0.0279362 0.0163516
         vertex 0.0280548 0.02792 0.0163758
      endloop
   endfacet
   facet normal 0.572321 0.72574 -0.381772
      outer loop
         vertex 0.027991 0.0279503 0.016328
         vertex 0.0279685 0.0279823 0.0163524
         vertex 0.0280013 0.0279695 0.0163758
      endloop
   endfacet
   facet normal 0.532758 0.752955 -0.386299
      outer loop
         vertex 0.0279599 0.0279617 0.0163053
         vertex 0.0279366 0.0279923 0.0163298
         vertex 0.0279685 0.0279823 0.0163524
      endloop
   endfacet
   facet normal 0.546591 0.774768 -0.317762
      outer loop
         vertex 0.0279824 0.0279331 0.0162774
         vertex 0.0279599 0.0279617 0.0163053
         vertex 0.027991 0.0279503 0.016328
      endloop
   endfacet
   facet normal 0.490977 0.779869 -0.388259
      outer loop
         vertex 0.0279305 0.0279704 0.0162834
         vertex 0.0279065 0.0279993 0.0163082
         vertex 0.0279366 0.0279923 0.0163298
      endloop
   endfacet
   facet normal 0.58578 0.744805 -0.319575
      outer loop
         vertex 0.0280127 0.0279201 0.0163003
         vertex 0.027991 0.0279503 0.016328
         vertex 0.028023 0.0279362 0.0163516
      endloop
   endfacet
   facet normal 0.477542 0.748635 -0.459891
      outer loop
         vertex 0.0279065 0.0279993 0.0163082
         vertex 0.0278826 0.0280292 0.0163298
         vertex 0.0279132 0.0280238 0.0163511
      endloop
   endfacet
   facet normal 0.417683 0.737572 -0.530592
      outer loop
         vertex 0.0278546 0.0280314 0.0163095
         vertex 0.0278299 0.0280607 0.016329
         vertex 0.0278583 0.0280601 0.0163488
      endloop
   endfacet
   facet normal 0.433662 0.773639 -0.461975
      outer loop
         vertex 0.027879 0.0280032 0.0162874
         vertex 0.0278546 0.0280314 0.0163095
         vertex 0.0278826 0.0280292 0.0163298
      endloop
   endfacet
   facet normal 0.375412 0.761602 -0.528231
      outer loop
         vertex 0.0278295 0.0280308 0.0162899
         vertex 0.0278045 0.0280584 0.01631
         vertex 0.0278299 0.0280607 0.016329
      endloop
   endfacet
   facet normal 0.333801 0.80013 -0.498365
      outer loop
         vertex 0.0277742 0.0280368 0.0162622
         vertex 0.0277614 0.028049 0.0162726
         vertex 0.0277819 0.028054 0.0162914
      endloop
   endfacet
   facet normal 0.3365 0.768437 -0.544308
      outer loop
         vertex 0.0277946 0.0280409 0.0162813
         vertex 0.0277819 0.028054 0.0162914
         vertex 0.0278045 0.0280584 0.01631
      endloop
   endfacet
   facet normal 0.354161 0.806262 -0.473827
      outer loop
         vertex 0.0278199 0.0280158 0.0162595
         vertex 0.0278073 0.0280282 0.0162707
         vertex 0.0278295 0.0280308 0.0162899
      endloop
   endfacet
   facet normal 0.350004 0.834193 -0.426168
      outer loop
         vertex 0.0277997 0.0280136 0.01624
         vertex 0.027787 0.028025 0.0162513
         vertex 0.0278073 0.0280282 0.0162707
      endloop
   endfacet
   facet normal 0.362351 0.823682 -0.436177
      outer loop
         vertex 0.0278324 0.0280037 0.0162478
         vertex 0.0278199 0.0280158 0.0162595
         vertex 0.0278419 0.0280175 0.0162789
      endloop
   endfacet
   facet normal 0.342062 0.817713 -0.462968
      outer loop
         vertex 0.027787 0.028025 0.0162513
         vertex 0.0277742 0.0280368 0.0162622
         vertex 0.0277946 0.0280409 0.0162813
      endloop
   endfacet
   facet normal 0.384055 0.78045 -0.493355
      outer loop
         vertex 0.0278419 0.0280175 0.0162789
         vertex 0.0278295 0.0280308 0.0162899
         vertex 0.0278546 0.0280314 0.0163095
      endloop
   endfacet
   facet normal 0.447881 0.806129 -0.386728
      outer loop
         vertex 0.0279035 0.0279761 0.0162625
         vertex 0.027879 0.0280032 0.0162874
         vertex 0.0279065 0.0279993 0.0163082
      endloop
   endfacet
   facet normal 0.413758 0.845984 -0.336328
      outer loop
         vertex 0.0278914 0.0279676 0.0162287
         vertex 0.0278791 0.0279794 0.0162423
         vertex 0.0279035 0.0279761 0.0162625
      endloop
   endfacet
   facet normal 0.454693 0.820366 -0.346777
      outer loop
         vertex 0.0279155 0.0279633 0.0162488
         vertex 0.0279035 0.0279761 0.0162625
         vertex 0.0279305 0.0279704 0.0162834
      endloop
   endfacet
   facet normal 0.399869 0.815407 -0.418589
      outer loop
         vertex 0.0278667 0.0279917 0.0162552
         vertex 0.0278543 0.0280044 0.0162674
         vertex 0.027879 0.0280032 0.0162874
      endloop
   endfacet
   facet normal 0.370114 0.839903 -0.396961
      outer loop
         vertex 0.0278449 0.0279921 0.0162355
         vertex 0.0278324 0.0280037 0.0162478
         vertex 0.0278543 0.0280044 0.0162674
      endloop
   endfacet
   facet normal 0.364581 0.86355 -0.348371
      outer loop
         vertex 0.0278249 0.027992 0.0162159
         vertex 0.0278123 0.0280026 0.0162282
         vertex 0.0278324 0.0280037 0.0162478
      endloop
   endfacet
   facet normal 0.377128 0.855149 -0.355661
      outer loop
         vertex 0.0278574 0.0279809 0.0162227
         vertex 0.0278449 0.0279921 0.0162355
         vertex 0.0278667 0.0279917 0.0162552
      endloop
   endfacet
   facet normal 0.383453 0.869269 -0.311985
      outer loop
         vertex 0.0278698 0.0279702 0.0162092
         vertex 0.0278574 0.0279809 0.0162227
         vertex 0.0278791 0.0279794 0.0162423
      endloop
   endfacet
   facet normal 0.376026 0.888541 -0.262866
      outer loop
         vertex 0.0278499 0.0279724 0.01619
         vertex 0.0278375 0.0279819 0.0162032
         vertex 0.0278574 0.0279809 0.0162227
      endloop
   endfacet
   facet normal 0.389083 0.882049 -0.265714
      outer loop
         vertex 0.0278818 0.0279602 0.0161951
         vertex 0.0278698 0.0279702 0.0162092
         vertex 0.0278914 0.0279676 0.0162287
      endloop
   endfacet
   facet normal 0.370746 0.876611 -0.306758
      outer loop
         vertex 0.0278375 0.0279819 0.0162032
         vertex 0.0278249 0.027992 0.0162159
         vertex 0.0278449 0.0279921 0.0162355
      endloop
   endfacet
   facet normal 0.420219 0.859142 -0.292045
      outer loop
         vertex 0.0279033 0.0279565 0.0162144
         vertex 0.0278914 0.0279676 0.0162287
         vertex 0.0279155 0.0279633 0.0162488
      endloop
   endfacet
   facet normal 0.357515 0.849507 -0.38797
      outer loop
         vertex 0.0278123 0.0280026 0.0162282
         vertex 0.0277997 0.0280136 0.01624
         vertex 0.0278199 0.0280158 0.0162595
      endloop
   endfacet
   facet normal 0.504939 0.804283 -0.313314
      outer loop
         vertex 0.0279536 0.0279435 0.0162554
         vertex 0.0279305 0.0279704 0.0162834
         vertex 0.0279599 0.0279617 0.0163053
      endloop
   endfacet
   facet normal 0.887766 0.45656 -0.0585133
      outer loop
         vertex 0.0281509 0.0278938 0.0165867
         vertex 0.0281285 0.0279395 0.0166078
         vertex 0.0281317 0.0279347 0.0166209
      endloop
   endfacet
   facet normal 0.896094 0.442938 -0.0286549
      outer loop
         vertex 0.0281544 0.0278882 0.0165994
         vertex 0.0281317 0.0279347 0.0166209
         vertex 0.0281365 0.0279257 0.0166471
      endloop
   endfacet
   facet normal 0.860329 0.490395 -0.139097
      outer loop
         vertex 0.0281415 0.027906 0.0165612
         vertex 0.0281195 0.0279502 0.0165815
         vertex 0.0281245 0.0279447 0.0165947
      endloop
   endfacet
   facet normal 0.823118 0.522754 -0.221822
      outer loop
         vertex 0.0281277 0.0279197 0.0165354
         vertex 0.0281061 0.0279623 0.016555
         vertex 0.0281134 0.027956 0.0165682
      endloop
   endfacet
   facet normal 0.842772 0.506979 -0.180852
      outer loop
         vertex 0.0281352 0.0279127 0.0165483
         vertex 0.0281134 0.027956 0.0165682
         vertex 0.0281195 0.0279502 0.0165815
      endloop
   endfacet
   facet normal 0.875659 0.473092 -0.0969761
      outer loop
         vertex 0.0281467 0.0278997 0.016574
         vertex 0.0281245 0.0279447 0.0165947
         vertex 0.0281285 0.0279395 0.0166078
      endloop
   endfacet
   facet normal 0.893035 0.446606 -0.0550543
      outer loop
         vertex 0.0281719 0.0278494 0.0165621
         vertex 0.0281509 0.0278938 0.0165867
         vertex 0.0281544 0.0278882 0.0165994
      endloop
   endfacet
   facet normal 0.901965 0.430961 -0.027049
      outer loop
         vertex 0.0281756 0.0278429 0.0165743
         vertex 0.0281544 0.0278882 0.0165994
         vertex 0.0281599 0.0278775 0.0166247
      endloop
   endfacet
   facet normal 0.864428 0.485686 -0.129897
      outer loop
         vertex 0.028162 0.0278632 0.0165375
         vertex 0.0281415 0.027906 0.0165612
         vertex 0.0281467 0.0278997 0.016574
      endloop
   endfacet
   facet normal 0.826853 0.523535 -0.205488
      outer loop
         vertex 0.028148 0.0278784 0.0165127
         vertex 0.0281277 0.0279197 0.0165354
         vertex 0.0281352 0.0279127 0.0165483
      endloop
   endfacet
   facet normal 0.846568 0.505004 -0.168209
      outer loop
         vertex 0.0281555 0.0278707 0.0165251
         vertex 0.0281352 0.0279127 0.0165483
         vertex 0.0281415 0.027906 0.0165612
      endloop
   endfacet
   facet normal 0.880283 0.465655 -0.0909182
      outer loop
         vertex 0.0281674 0.0278561 0.0165498
         vertex 0.0281467 0.0278997 0.016574
         vertex 0.0281509 0.0278938 0.0165867
      endloop
   endfacet
   facet normal 0.801551 0.537664 -0.261598
      outer loop
         vertex 0.0281191 0.027927 0.0165225
         vertex 0.0280975 0.0279689 0.0165418
         vertex 0.0281061 0.0279623 0.016555
      endloop
   endfacet
   facet normal 0.779096 0.55136 -0.298347
      outer loop
         vertex 0.0281092 0.0279347 0.0165096
         vertex 0.0280877 0.0279758 0.0165285
         vertex 0.0280975 0.0279689 0.0165418
      endloop
   endfacet
   facet normal 0.756694 0.563804 -0.330967
      outer loop
         vertex 0.0280982 0.0279425 0.0164967
         vertex 0.0280767 0.027983 0.0165154
         vertex 0.0280877 0.0279758 0.0165285
      endloop
   endfacet
   facet normal 0.669135 0.60697 -0.428774
      outer loop
         vertex 0.028044 0.0279748 0.0164456
         vertex 0.0280221 0.0280126 0.0164636
         vertex 0.0280513 0.0279978 0.0164892
      endloop
   endfacet
   facet normal 0.712078 0.586317 -0.386236
      outer loop
         vertex 0.0280729 0.0279587 0.016471
         vertex 0.0280513 0.0279978 0.0164892
         vertex 0.0280767 0.027983 0.0165154
      endloop
   endfacet
   facet normal 0.801551 0.537664 -0.261598
      outer loop
         vertex 0.0281191 0.027927 0.0165225
         vertex 0.0281393 0.0278865 0.0165001
         vertex 0.0281185 0.0279033 0.016475
      endloop
   endfacet
   facet normal 0.67723 0.625598 -0.38728
      outer loop
         vertex 0.0280649 0.0279381 0.0164247
         vertex 0.028044 0.0279748 0.0164456
         vertex 0.0280729 0.0279587 0.016471
      endloop
   endfacet
   facet normal 0.718504 0.600311 -0.351253
      outer loop
         vertex 0.0280935 0.0279207 0.0164497
         vertex 0.0280729 0.0279587 0.016471
         vertex 0.0280982 0.0279425 0.0164967
      endloop
   endfacet
   facet normal 0.628123 0.627123 -0.460629
      outer loop
         vertex 0.0280123 0.0279901 0.0164207
         vertex 0.0279901 0.0280266 0.0164386
         vertex 0.0280221 0.0280126 0.0164636
      endloop
   endfacet
   facet normal 0.805475 0.541241 -0.24139
      outer loop
         vertex 0.0281393 0.0278865 0.0165001
         vertex 0.0281191 0.027927 0.0165225
         vertex 0.0281277 0.0279197 0.0165354
      endloop
   endfacet
   facet normal 0.907367 0.419588 -0.0251135
      outer loop
         vertex 0.0281953 0.0277993 0.0165453
         vertex 0.0281756 0.0278429 0.0165743
         vertex 0.0281816 0.0278305 0.0165985
      endloop
   endfacet
   facet normal 0.868617 0.480938 -0.119173
      outer loop
         vertex 0.0281811 0.0278219 0.0165103
         vertex 0.028162 0.0278632 0.0165375
         vertex 0.0281674 0.0278561 0.0165498
      endloop
   endfacet
   facet normal 0.831085 0.523807 -0.186879
      outer loop
         vertex 0.028167 0.0278385 0.0164865
         vertex 0.028148 0.0278784 0.0165127
         vertex 0.0281555 0.0278707 0.0165251
      endloop
   endfacet
   facet normal 0.850667 0.50275 -0.15365
      outer loop
         vertex 0.0281746 0.02783 0.0164985
         vertex 0.0281555 0.0278707 0.0165251
         vertex 0.028162 0.0278632 0.0165375
      endloop
   endfacet
   facet normal 0.893035 0.446606 -0.0550543
      outer loop
         vertex 0.0281719 0.0278494 0.0165621
         vertex 0.0281756 0.0278429 0.0165743
         vertex 0.0281953 0.0277993 0.0165453
      endloop
   endfacet
   facet normal 0.912288 0.408908 -0.0229235
      outer loop
         vertex 0.0282134 0.0277576 0.0165127
         vertex 0.0281953 0.0277993 0.0165453
         vertex 0.0282018 0.0277852 0.0165682
      endloop
   endfacet
   facet normal 0.868617 0.480938 -0.119173
      outer loop
         vertex 0.0281811 0.0278219 0.0165103
         vertex 0.0281867 0.0278141 0.0165221
         vertex 0.0282045 0.027774 0.0164909
      endloop
   endfacet
   facet normal 0.889201 0.451153 -0.0760384
      outer loop
         vertex 0.0282045 0.027774 0.0164909
         vertex 0.0281867 0.0278141 0.0165221
         vertex 0.0281953 0.0277993 0.0165453
      endloop
   endfacet
   facet normal 0.81006 0.544087 -0.218569
      outer loop
         vertex 0.0281584 0.0278472 0.0164744
         vertex 0.0281393 0.0278865 0.0165001
         vertex 0.028148 0.0278784 0.0165127
      endloop
   endfacet
   facet normal 0.767372 0.580616 -0.272075
      outer loop
         vertex 0.0281377 0.0278653 0.0164499
         vertex 0.0281185 0.0279033 0.016475
         vertex 0.0281393 0.0278865 0.0165001
      endloop
   endfacet
   facet normal 0.685899 0.642587 -0.341503
      outer loop
         vertex 0.0280852 0.0279024 0.0164004
         vertex 0.0280649 0.0279381 0.0164247
         vertex 0.0280935 0.0279207 0.0164497
      endloop
   endfacet
   facet normal 0.725724 0.612913 -0.31251
      outer loop
         vertex 0.0281131 0.0278839 0.0164251
         vertex 0.0280935 0.0279207 0.0164497
         vertex 0.0281185 0.0279033 0.016475
      endloop
   endfacet
   facet normal 0.774606 0.584487 -0.241577
      outer loop
         vertex 0.0281557 0.0278291 0.0164215
         vertex 0.0281377 0.0278653 0.0164499
         vertex 0.0281584 0.0278472 0.0164744
      endloop
   endfacet
   facet normal 0.696461 0.652922 -0.297716
      outer loop
         vertex 0.0281043 0.0278684 0.0163727
         vertex 0.0280852 0.0279024 0.0164004
         vertex 0.0281131 0.0278839 0.0164251
      endloop
   endfacet
   facet normal 0.734698 0.620099 -0.275128
      outer loop
         vertex 0.0281316 0.0278488 0.0163973
         vertex 0.0281131 0.0278839 0.0164251
         vertex 0.0281377 0.0278653 0.0164499
      endloop
   endfacet
   facet normal 0.647768 0.670795 -0.361153
      outer loop
         vertex 0.0280548 0.02792 0.0163758
         vertex 0.0280338 0.0279546 0.0163999
         vertex 0.0280649 0.0279381 0.0164247
      endloop
   endfacet
   facet normal 0.831085 0.523807 -0.186879
      outer loop
         vertex 0.028167 0.0278385 0.0164865
         vertex 0.0281746 0.02783 0.0164985
         vertex 0.0281922 0.0277914 0.0164684
      endloop
   endfacet
   facet normal 0.637834 0.649899 -0.413279
      outer loop
         vertex 0.0280338 0.0279546 0.0163999
         vertex 0.0280123 0.0279901 0.0164207
         vertex 0.028044 0.0279748 0.0164456
      endloop
   endfacet
   facet normal 0.861202 0.503815 -0.0670904
      outer loop
         vertex 0.0280529 0.0280813 0.0166519
         vertex 0.0280252 0.028129 0.0166609
         vertex 0.0280271 0.0281271 0.0166746
      endloop
   endfacet
   facet normal 0.866555 0.49802 -0.0325365
      outer loop
         vertex 0.0280551 0.0280787 0.0166656
         vertex 0.0280271 0.0281271 0.0166746
         vertex 0.0280294 0.0281239 0.016702
      endloop
   endfacet
   facet normal 0.868707 0.490963 -0.0656052
      outer loop
         vertex 0.0280794 0.0280336 0.0166402
         vertex 0.0280529 0.0280813 0.0166519
         vertex 0.0280551 0.0280787 0.0166656
      endloop
   endfacet
   facet normal 0.874848 0.483347 -0.0318813
      outer loop
         vertex 0.028082 0.0280304 0.0166538
         vertex 0.0280551 0.0280787 0.0166656
         vertex 0.0280581 0.0280742 0.016693
      endloop
   endfacet
   facet normal 0.852506 0.510474 -0.112468
      outer loop
         vertex 0.0280498 0.0280841 0.0166382
         vertex 0.0280224 0.0281311 0.0166471
         vertex 0.0280252 0.028129 0.0166609
      endloop
   endfacet
   facet normal 0.852506 0.510474 -0.112468
      outer loop
         vertex 0.0280498 0.0280841 0.0166382
         vertex 0.028076 0.0280372 0.0166266
         vertex 0.0280715 0.0280412 0.0166129
      endloop
   endfacet
   facet normal 0.81135 0.52418 -0.25874
      outer loop
         vertex 0.0280589 0.0280503 0.0165855
         vertex 0.028007 0.0281399 0.0166055
         vertex 0.0280134 0.0281366 0.0166194
      endloop
   endfacet
   facet normal 0.830084 0.517061 -0.208827
      outer loop
         vertex 0.0280658 0.0280455 0.0165992
         vertex 0.0280134 0.0281366 0.0166194
         vertex 0.0280185 0.0281337 0.0166333
      endloop
   endfacet
   facet normal 0.859081 0.499943 -0.109715
      outer loop
         vertex 0.028076 0.0280372 0.0166266
         vertex 0.0280498 0.0280841 0.0166382
         vertex 0.0280529 0.0280813 0.0166519
      endloop
   endfacet
   facet normal 0.875631 0.478748 -0.0637969
      outer loop
         vertex 0.0281046 0.0279863 0.0166256
         vertex 0.0280794 0.0280336 0.0166402
         vertex 0.028082 0.0280304 0.0166538
      endloop
   endfacet
   facet normal 0.882545 0.469199 -0.0310875
      outer loop
         vertex 0.0281075 0.0279823 0.016639
         vertex 0.028082 0.0280304 0.0166538
         vertex 0.0280856 0.0280244 0.016681
      endloop
   endfacet
   facet normal 0.882018 0.46719 -0.0614702
      outer loop
         vertex 0.0281285 0.0279395 0.0166078
         vertex 0.0281046 0.0279863 0.0166256
         vertex 0.0281075 0.0279823 0.016639
      endloop
   endfacet
   facet normal 0.889664 0.455627 -0.0300427
      outer loop
         vertex 0.0281317 0.0279347 0.0166209
         vertex 0.0281075 0.0279823 0.016639
         vertex 0.0281117 0.0279748 0.0166658
      endloop
   endfacet
   facet normal 0.865107 0.490177 -0.106381
      outer loop
         vertex 0.0281009 0.0279906 0.0166121
         vertex 0.028076 0.0280372 0.0166266
         vertex 0.0280794 0.0280336 0.0166402
      endloop
   endfacet
   facet normal 0.851173 0.501895 -0.153643
      outer loop
         vertex 0.0280961 0.0279953 0.0165986
         vertex 0.0280715 0.0280412 0.0166129
         vertex 0.028076 0.0280372 0.0166266
      endloop
   endfacet
   facet normal 0.815403 0.522847 -0.248493
      outer loop
         vertex 0.0280831 0.0280059 0.0165716
         vertex 0.0280589 0.0280503 0.0165855
         vertex 0.0280658 0.0280455 0.0165992
      endloop
   endfacet
   facet normal 0.834585 0.512825 -0.201191
      outer loop
         vertex 0.0280902 0.0280005 0.0165851
         vertex 0.0280658 0.0280455 0.0165992
         vertex 0.0280715 0.0280412 0.0166129
      endloop
   endfacet
   facet normal 0.855972 0.495668 -0.147056
      outer loop
         vertex 0.0281195 0.0279502 0.0165815
         vertex 0.0280961 0.0279953 0.0165986
         vertex 0.0281009 0.0279906 0.0166121
      endloop
   endfacet
   facet normal 0.81934 0.5224 -0.23618
      outer loop
         vertex 0.0281061 0.0279623 0.016555
         vertex 0.0280831 0.0280059 0.0165716
         vertex 0.0280902 0.0280005 0.0165851
      endloop
   endfacet
   facet normal 0.838832 0.509452 -0.191885
      outer loop
         vertex 0.0281134 0.027956 0.0165682
         vertex 0.0280902 0.0280005 0.0165851
         vertex 0.0280961 0.0279953 0.0165986
      endloop
   endfacet
   facet normal 0.793769 0.531881 -0.295013
      outer loop
         vertex 0.0280747 0.0280118 0.0165581
         vertex 0.0280507 0.0280554 0.0165718
         vertex 0.0280589 0.0280503 0.0165855
      endloop
   endfacet
   facet normal 0.870661 0.481155 -0.102175
      outer loop
         vertex 0.0281245 0.0279447 0.0165947
         vertex 0.0281009 0.0279906 0.0166121
         vertex 0.0281046 0.0279863 0.0166256
      endloop
   endfacet
   facet normal 0.789908 0.530205 -0.308103
      outer loop
         vertex 0.0280507 0.0280554 0.0165718
         vertex 0.0279992 0.0281435 0.0165917
         vertex 0.028007 0.0281399 0.0166055
      endloop
   endfacet
   facet normal 0.766781 0.535071 -0.354606
      outer loop
         vertex 0.0280411 0.0280608 0.0165582
         vertex 0.0279901 0.0281475 0.0165779
         vertex 0.0279992 0.0281435 0.0165917
      endloop
   endfacet
   facet normal 0.718818 0.542145 -0.435178
      outer loop
         vertex 0.0280183 0.0280724 0.0165311
         vertex 0.0279681 0.0281561 0.0165506
         vertex 0.0279797 0.0281517 0.0165642
      endloop
   endfacet
   facet normal 0.743035 0.538959 -0.396765
      outer loop
         vertex 0.0280303 0.0280665 0.0165446
         vertex 0.0279797 0.0281517 0.0165642
         vertex 0.0279901 0.0281475 0.0165779
      endloop
   endfacet
   facet normal 0.638931 0.532218 -0.555438
      outer loop
         vertex 0.0279517 0.0281297 0.0165024
         vertex 0.0279265 0.0281695 0.016511
         vertex 0.0279552 0.0281606 0.0165372
      endloop
   endfacet
   facet normal 0.590153 0.532402 -0.606851
      outer loop
         vertex 0.0279196 0.0281393 0.0164773
         vertex 0.0278946 0.0281778 0.016486
         vertex 0.0279265 0.0281695 0.016511
      endloop
   endfacet
   facet normal 0.645843 0.549797 -0.529727
      outer loop
         vertex 0.0279759 0.0280902 0.0164917
         vertex 0.0279517 0.0281297 0.0165024
         vertex 0.0279807 0.0281193 0.0165286
      endloop
   endfacet
   facet normal 0.688887 0.53284 -0.491442
      outer loop
         vertex 0.0279807 0.0281193 0.0165286
         vertex 0.0279552 0.0281606 0.0165372
         vertex 0.0279681 0.0281561 0.0165506
      endloop
   endfacet
   facet normal 0.770723 0.539767 -0.338582
      outer loop
         vertex 0.028065 0.028018 0.0165447
         vertex 0.0280411 0.0280608 0.0165582
         vertex 0.0280507 0.0280554 0.0165718
      endloop
   endfacet
   facet normal 0.747299 0.546613 -0.377834
      outer loop
         vertex 0.028054 0.0280244 0.0165313
         vertex 0.0280303 0.0280665 0.0165446
         vertex 0.0280411 0.0280608 0.0165582
      endloop
   endfacet
   facet normal 0.774844 0.545324 -0.319747
      outer loop
         vertex 0.0280877 0.0279758 0.0165285
         vertex 0.028065 0.028018 0.0165447
         vertex 0.0280747 0.0280118 0.0165581
      endloop
   endfacet
   facet normal 0.751875 0.555075 -0.355774
      outer loop
         vertex 0.0280767 0.027983 0.0165154
         vertex 0.028054 0.0280244 0.0165313
         vertex 0.028065 0.028018 0.0165447
      endloop
   endfacet
   facet normal 0.743035 0.538959 -0.396765
      outer loop
         vertex 0.0280303 0.0280665 0.0165446
         vertex 0.028054 0.0280244 0.0165313
         vertex 0.0280287 0.0280378 0.0165048
      endloop
   endfacet
   facet normal 0.653072 0.568894 -0.499856
      outer loop
         vertex 0.0279993 0.0280512 0.0164789
         vertex 0.0279759 0.0280902 0.0164917
         vertex 0.0280052 0.0280783 0.0165178
      endloop
   endfacet
   facet normal 0.660895 0.588337 -0.465916
      outer loop
         vertex 0.0280221 0.0280126 0.0164636
         vertex 0.0279993 0.0280512 0.0164789
         vertex 0.0280287 0.0280378 0.0165048
      endloop
   endfacet
   facet normal 0.608226 0.579816 -0.542102
      outer loop
         vertex 0.0279671 0.0280638 0.0164538
         vertex 0.0279437 0.0281014 0.0164666
         vertex 0.0279759 0.0280902 0.0164917
      endloop
   endfacet
   facet normal 0.705688 0.572441 -0.417512
      outer loop
         vertex 0.0280513 0.0279978 0.0164892
         vertex 0.0280287 0.0280378 0.0165048
         vertex 0.028054 0.0280244 0.0165313
      endloop
   endfacet
   facet normal 0.599018 0.555401 -0.576808
      outer loop
         vertex 0.0279437 0.0281014 0.0164666
         vertex 0.0279196 0.0281393 0.0164773
         vertex 0.0279517 0.0281297 0.0165024
      endloop
   endfacet
   facet normal 0.797664 0.534442 -0.27947
      outer loop
         vertex 0.0280975 0.0279689 0.0165418
         vertex 0.0280747 0.0280118 0.0165581
         vertex 0.0280831 0.0280059 0.0165716
      endloop
   endfacet
   facet normal 0.376026 0.888541 -0.262866
      outer loop
         vertex 0.0278499 0.0279724 0.01619
         vertex 0.0278698 0.0279702 0.0162092
         vertex 0.0278818 0.0279602 0.0161951
      endloop
   endfacet
   facet normal 0.325402 0.781408 -0.532462
      outer loop
         vertex 0.0277614 0.028049 0.0162726
         vertex 0.0277486 0.0280615 0.0162827
         vertex 0.0277693 0.0280673 0.0163011
      endloop
   endfacet
   facet normal 0.65962 0.684132 -0.311231
      outer loop
         vertex 0.0280747 0.0278872 0.0163482
         vertex 0.0280548 0.02792 0.0163758
         vertex 0.0280852 0.0279024 0.0164004
      endloop
   endfacet
   facet normal 0.617998 0.604169 -0.503048
      outer loop
         vertex 0.0279901 0.0280266 0.0164386
         vertex 0.0279671 0.0280638 0.0164538
         vertex 0.0279993 0.0280512 0.0164789
      endloop
   endfacet
endsolid 1111. Units = meters