solid 1111. STL generated by ONSHAPE BY PTC INC, 1.216. Units = meters
   facet normal -4.33778e-06 -1 1.10184e-06
      outer loop
         vertex 0.170417 -0.000981671 -0.00440993
         vertex 0.170417 -0.000981671 -0.00439359
         vertex 0.170416 -0.000981671 -0.00438975
      endloop
   endfacet
   facet normal -4.33778e-06 -1 1.10184e-06
      outer loop
         vertex 0.170417 -0.000981671 -0.00440993
         vertex 0.170418 -0.000981671 -0.00440149
         vertex 0.170418 -0.000981671 -0.00439752
      endloop
   endfacet
   facet normal -4.33778e-06 -1 1.10184e-06
      outer loop
         vertex 0.170289 -0.000981671 -0.00464419
         vertex 0.170387 -0.000981671 -0.00458801
         vertex 0.170392 -0.000981671 -0.00457751
      endloop
   endfacet
   facet normal -4.33778e-06 -1 1.10184e-06
      outer loop
         vertex 0.170312 -0.000981671 -0.00464173
         vertex 0.170345 -0.000981671 -0.00462915
         vertex 0.170355 -0.000981671 -0.00462275
      endloop
   endfacet
   facet normal -4.33778e-06 -1 1.10184e-06
      outer loop
         vertex 0.170312 -0.000981671 -0.00464173
         vertex 0.170323 -0.000981671 -0.00463869
         vertex 0.170335 -0.000981671 -0.00463448
      endloop
   endfacet
   facet normal -4.33778e-06 -1 1.10184e-06
      outer loop
         vertex 0.170417 -0.000981671 -0.00440993
         vertex 0.170399 -0.000981671 -0.00436859
         vertex 0.170396 -0.000981671 -0.00436678
      endloop
   endfacet
   facet normal -4.33778e-06 -1 1.10184e-06
      outer loop
         vertex 0.170417 -0.000981671 -0.00440993
         vertex 0.170406 -0.000981671 -0.00437326
         vertex 0.170403 -0.000981671 -0.00437075
      endloop
   endfacet
   facet normal -4.33778e-06 -1 1.10184e-06
      outer loop
         vertex 0.170417 -0.000981671 -0.00440993
         vertex 0.170415 -0.000981671 -0.00438604
         vertex 0.170413 -0.000981671 -0.00438249
      endloop
   endfacet
   facet normal -4.33778e-06 -1 1.10184e-06
      outer loop
         vertex 0.170418 -0.000981671 -0.00439752
         vertex 0.170417 -0.000981671 -0.00439359
         vertex 0.170417 -0.000981671 -0.00440993
      endloop
   endfacet
   facet normal -4.33778e-06 -1 1.10184e-06
      outer loop
         vertex 0.170289 -0.000981671 -0.00464419
         vertex 0.17038 -0.000981671 -0.00459789
         vertex 0.170387 -0.000981671 -0.00458801
      endloop
   endfacet
   facet normal -4.33778e-06 -1 1.10184e-06
      outer loop
         vertex 0.170289 -0.000981671 -0.00464419
         vertex 0.170364 -0.000981671 -0.00461535
         vertex 0.170373 -0.000981671 -0.00460703
      endloop
   endfacet
   facet normal -4.33778e-06 -1 1.10184e-06
      outer loop
         vertex 0.170335 -0.000981671 -0.00463448
         vertex 0.170345 -0.000981671 -0.00462915
         vertex 0.170312 -0.000981671 -0.00464173
      endloop
   endfacet
   facet normal -4.33778e-06 -1 1.10184e-06
      outer loop
         vertex 0.170364 -0.000981671 -0.00461535
         vertex 0.170289 -0.000981671 -0.00464419
         vertex 0.1703 -0.000981671 -0.00464357
      endloop
   endfacet
   facet normal -4.33778e-06 -1 1.10184e-06
      outer loop
         vertex 0.170417 -0.000981671 -0.00440993
         vertex 0.170392 -0.000981671 -0.00436535
         vertex 0.170388 -0.000981671 -0.00436432
      endloop
   endfacet
   facet normal -4.33778e-06 -1 1.10184e-06
      outer loop
         vertex 0.170403 -0.000981671 -0.00437075
         vertex 0.170399 -0.000981671 -0.00436859
         vertex 0.170417 -0.000981671 -0.00440993
      endloop
   endfacet
   facet normal -4.33778e-06 -1 1.10184e-06
      outer loop
         vertex 0.170417 -0.000981671 -0.00440993
         vertex 0.170411 -0.000981671 -0.00437916
         vertex 0.170409 -0.000981671 -0.00437607
      endloop
   endfacet
   facet normal -4.33778e-06 -1 1.10184e-06
      outer loop
         vertex 0.170416 -0.000981671 -0.00438975
         vertex 0.170415 -0.000981671 -0.00438604
         vertex 0.170417 -0.000981671 -0.00440993
      endloop
   endfacet
   facet normal -4.33778e-06 -1 1.10184e-06
      outer loop
         vertex 0.170373 -0.000981671 -0.00460703
         vertex 0.17038 -0.000981671 -0.00459789
         vertex 0.170289 -0.000981671 -0.00464419
      endloop
   endfacet
   facet normal -4.33778e-06 -1 1.10184e-06
      outer loop
         vertex 0.1703 -0.000981671 -0.00464357
         vertex 0.170312 -0.000981671 -0.00464173
         vertex 0.170364 -0.000981671 -0.00461535
      endloop
   endfacet
   facet normal -4.33778e-06 -1 1.10184e-06
      outer loop
         vertex 0.170396 -0.000981671 -0.00436678
         vertex 0.170392 -0.000981671 -0.00436535
         vertex 0.170417 -0.000981671 -0.00440993
      endloop
   endfacet
   facet normal -4.33778e-06 -1 1.10184e-06
      outer loop
         vertex 0.170413 -0.000981671 -0.00438249
         vertex 0.170411 -0.000981671 -0.00437916
         vertex 0.170417 -0.000981671 -0.00440993
      endloop
   endfacet
   facet normal -4.33778e-06 -1 1.10184e-06
      outer loop
         vertex 0.170289 -0.000981671 -0.00464419
         vertex 0.170397 -0.000981671 -0.0045665
         vertex 0.1704 -0.000981671 -0.0045551
      endloop
   endfacet
   facet normal -4.33778e-06 -1 1.10184e-06
      outer loop
         vertex 0.170355 -0.000981671 -0.00462275
         vertex 0.170364 -0.000981671 -0.00461535
         vertex 0.170312 -0.000981671 -0.00464173
      endloop
   endfacet
   facet normal -4.33778e-06 -1 1.10184e-06
      outer loop
         vertex 0.170409 -0.000981671 -0.00437607
         vertex 0.170406 -0.000981671 -0.00437326
         vertex 0.170417 -0.000981671 -0.00440993
      endloop
   endfacet
   facet normal -4.33778e-06 -1 1.10184e-06
      outer loop
         vertex 0.170392 -0.000981671 -0.00457751
         vertex 0.170397 -0.000981671 -0.0045665
         vertex 0.170289 -0.000981671 -0.00464419
      endloop
   endfacet
   facet normal -4.33778e-06 -1 1.10184e-06
      outer loop
         vertex 0.169875 -0.000981668 -0.00436349
         vertex 0.170118 -0.00098167 -0.00464419
         vertex 0.170289 -0.000981671 -0.00464419
      endloop
   endfacet
   facet normal -4.33778e-06 -1 1.10184e-06
      outer loop
         vertex 0.170287 -0.000981671 -0.00486196
         vertex 0.170283 -0.000981671 -0.00486015
         vertex 0.17028 -0.000981671 -0.00485873
      endloop
   endfacet
   facet normal -4.33778e-06 -1 1.10184e-06
      outer loop
         vertex 0.170388 -0.000981671 -0.00436432
         vertex 0.170384 -0.000981671 -0.0043637
         vertex 0.170417 -0.000981671 -0.00440993
      endloop
   endfacet
   facet normal -4.33778e-06 -1 1.10184e-06
      outer loop
         vertex 0.170289 -0.000981671 -0.00464419
         vertex 0.170402 -0.000981671 -0.00454343
         vertex 0.169875 -0.000981668 -0.00436349
      endloop
   endfacet
   facet normal -4.33778e-06 -1 1.10184e-06
      outer loop
         vertex 0.17028 -0.000981671 -0.00485873
         vertex 0.170276 -0.000981671 -0.0048577
         vertex 0.170287 -0.000981671 -0.00486196
      endloop
   endfacet
   facet normal -4.33778e-06 -1 1.10184e-06
      outer loop
         vertex 0.170272 -0.000981671 -0.00485707
         vertex 0.170296 -0.000981671 -0.00486944
         vertex 0.170293 -0.000981671 -0.00486663
      endloop
   endfacet
   facet normal -4.33778e-06 -1 1.10184e-06
      outer loop
         vertex 0.170272 -0.000981671 -0.00485707
         vertex 0.170301 -0.000981671 -0.00487587
         vertex 0.170299 -0.000981671 -0.00487253
      endloop
   endfacet
   facet normal -4.33778e-06 -1 1.10184e-06
      outer loop
         vertex 0.169673 -0.000981668 -0.00515359
         vertex 0.169261 -0.000981667 -0.00579578
         vertex 0.169265 -0.000981667 -0.00579685
      endloop
   endfacet
   facet normal -4.33778e-06 -1 1.10184e-06
      outer loop
         vertex 0.170384 -0.000981671 -0.0043637
         vertex 0.17038 -0.000981671 -0.00436349
         vertex 0.170417 -0.000981671 -0.00440993
      endloop
   endfacet
   facet normal -4.33778e-06 -1 1.10184e-06
      outer loop
         vertex 0.1704 -0.000981671 -0.0045551
         vertex 0.170402 -0.000981671 -0.00454343
         vertex 0.170289 -0.000981671 -0.00464419
      endloop
   endfacet
   facet normal -4.33778e-06 -1 1.10184e-06
      outer loop
         vertex 0.170272 -0.000981671 -0.00485707
         vertex 0.17029 -0.000981671 -0.00486413
         vertex 0.170287 -0.000981671 -0.00486196
      endloop
   endfacet
   facet normal -4.33778e-06 -1 1.10184e-06
      outer loop
         vertex 0.170299 -0.000981671 -0.00487253
         vertex 0.170296 -0.000981671 -0.00486944
         vertex 0.170272 -0.000981671 -0.00485707
      endloop
   endfacet
   facet normal -4.33778e-06 -1 1.10184e-06
      outer loop
         vertex 0.170272 -0.000981671 -0.00485707
         vertex 0.170304 -0.000981671 -0.00488312
         vertex 0.170303 -0.000981671 -0.00487941
      endloop
   endfacet
   facet normal -4.33778e-06 -1 1.10184e-06
      outer loop
         vertex 0.170222 -0.000981671 -0.00515359
         vertex 0.17024 -0.000981671 -0.0051486
         vertex 0.170244 -0.000981671 -0.00514648
      endloop
   endfacet
   facet normal -4.33778e-06 -1 1.10184e-06
      outer loop
         vertex 0.170222 -0.000981671 -0.00515359
         vertex 0.170229 -0.000981671 -0.00515277
         vertex 0.170233 -0.000981671 -0.00515177
      endloop
   endfacet
   facet normal -4.33778e-06 -1 1.10184e-06
      outer loop
         vertex 0.16951 -0.000981668 -0.00579476
         vertex 0.169495 -0.000981668 -0.00579781
         vertex 0.169499 -0.000981668 -0.00579767
      endloop
   endfacet
   facet normal -4.33778e-06 -1 1.10184e-06
      outer loop
         vertex 0.169265 -0.000981667 -0.00579685
         vertex 0.169269 -0.000981667 -0.00579753
         vertex 0.169673 -0.000981668 -0.00515359
      endloop
   endfacet
   facet normal -4.33778e-06 -1 1.10184e-06
      outer loop
         vertex 0.169673 -0.000981668 -0.00515359
         vertex 0.169243 -0.000981667 -0.00578198
         vertex 0.169245 -0.000981667 -0.00578504
      endloop
   endfacet
   facet normal -4.33778e-06 -1 1.10184e-06
      outer loop
         vertex 0.169673 -0.000981668 -0.00515359
         vertex 0.169237 -0.000981667 -0.00575154
         vertex 0.169236 -0.000981667 -0.00575999
      endloop
   endfacet
   facet normal -4.33778e-06 -1 1.10184e-06
      outer loop
         vertex 0.170402 -0.000981671 -0.00454343
         vertex 0.170417 -0.000981671 -0.00440993
         vertex 0.169875 -0.000981668 -0.00436349
      endloop
   endfacet
   facet normal -4.33778e-06 -1 1.10184e-06
      outer loop
         vertex 0.170293 -0.000981671 -0.00486663
         vertex 0.17029 -0.000981671 -0.00486413
         vertex 0.170272 -0.000981671 -0.00485707
      endloop
   endfacet
   facet normal -4.33778e-06 -1 1.10184e-06
      outer loop
         vertex 0.170272 -0.000981671 -0.00485707
         vertex 0.170305 -0.000981671 -0.00488696
         vertex 0.170304 -0.000981671 -0.00488312
      endloop
   endfacet
   facet normal -4.33778e-06 -1 1.10184e-06
      outer loop
         vertex 0.170272 -0.000981671 -0.00485707
         vertex 0.170305 -0.000981671 -0.00490331
         vertex 0.170306 -0.000981671 -0.00489486
      endloop
   endfacet
   facet normal -4.33778e-06 -1 1.10184e-06
      outer loop
         vertex 0.170222 -0.000981671 -0.00515359
         vertex 0.17025 -0.000981671 -0.00514127
         vertex 0.170252 -0.000981671 -0.00513824
      endloop
   endfacet
   facet normal -4.33778e-06 -1 1.10184e-06
      outer loop
         vertex 0.170222 -0.000981671 -0.00515359
         vertex 0.170237 -0.000981671 -0.00515037
         vertex 0.17024 -0.000981671 -0.0051486
      endloop
   endfacet
   facet normal -4.33778e-06 -1 1.10184e-06
      outer loop
         vertex 0.170222 -0.000981671 -0.00515359
         vertex 0.170225 -0.000981671 -0.00515338
         vertex 0.170229 -0.000981671 -0.00515277
      endloop
   endfacet
   facet normal -4.33778e-06 -1 1.10184e-06
      outer loop
         vertex 0.169495 -0.000981668 -0.00579781
         vertex 0.16953 -0.000981668 -0.00577566
         vertex 0.169532 -0.000981668 -0.00577194
      endloop
   endfacet
   facet normal -4.33778e-06 -1 1.10184e-06
      outer loop
         vertex 0.169495 -0.000981668 -0.00579781
         vertex 0.16952 -0.000981668 -0.0057884
         vertex 0.169523 -0.000981668 -0.00578561
      endloop
   endfacet
   facet normal -4.33778e-06 -1 1.10184e-06
      outer loop
         vertex 0.169495 -0.000981668 -0.00579781
         vertex 0.169514 -0.000981668 -0.005793
         vertex 0.169517 -0.000981668 -0.00579087
      endloop
   endfacet
   facet normal -4.33778e-06 -1 1.10184e-06
      outer loop
         vertex 0.169499 -0.000981668 -0.00579767
         vertex 0.169503 -0.000981668 -0.00579711
         vertex 0.16951 -0.000981668 -0.00579476
      endloop
   endfacet
   facet normal -4.33778e-06 -1 1.10184e-06
      outer loop
         vertex 0.169673 -0.000981668 -0.00515359
         vertex 0.169258 -0.000981667 -0.00579432
         vertex 0.169261 -0.000981667 -0.00579578
      endloop
   endfacet
   facet normal -4.33778e-06 -1 1.10184e-06
      outer loop
         vertex 0.169673 -0.000981668 -0.00515359
         vertex 0.169251 -0.000981667 -0.00579033
         vertex 0.169254 -0.000981667 -0.0057925
      endloop
   endfacet
   facet normal -4.33778e-06 -1 1.10184e-06
      outer loop
         vertex 0.169673 -0.000981668 -0.00515359
         vertex 0.169241 -0.000981667 -0.00577868
         vertex 0.169243 -0.000981667 -0.00578198
      endloop
   endfacet
   facet normal -4.33778e-06 -1 1.10184e-06
      outer loop
         vertex 0.169236 -0.000981667 -0.00575999
         vertex 0.169236 -0.000981667 -0.00576389
         vertex 0.169673 -0.000981668 -0.00515359
      endloop
   endfacet
   facet normal -4.33778e-06 -1 1.10184e-06
      outer loop
         vertex 0.169875 -0.000981668 -0.00436349
         vertex 0.17007 -0.00098167 -0.00464621
         vertex 0.170118 -0.00098167 -0.00464419
      endloop
   endfacet
   facet normal -4.33778e-06 -1 1.10184e-06
      outer loop
         vertex 0.169703 -0.000981668 -0.00443765
         vertex 0.169651 -0.000981668 -0.0044731
         vertex 0.16985 -0.000981669 -0.00472733
      endloop
   endfacet
   facet normal -4.33778e-06 -1 1.10184e-06
      outer loop
         vertex 0.170303 -0.000981671 -0.00487941
         vertex 0.170301 -0.000981671 -0.00487587
         vertex 0.170272 -0.000981671 -0.00485707
      endloop
   endfacet
   facet normal -4.33778e-06 -1 1.10184e-06
      outer loop
         vertex 0.170306 -0.000981671 -0.00489486
         vertex 0.170306 -0.000981671 -0.00489089
         vertex 0.170272 -0.000981671 -0.00485707
      endloop
   endfacet
   facet normal -4.33778e-06 -1 1.10184e-06
      outer loop
         vertex 0.170222 -0.000981671 -0.00515359
         vertex 0.170247 -0.000981671 -0.00514403
         vertex 0.17025 -0.000981671 -0.00514127
      endloop
   endfacet
   facet normal -4.33778e-06 -1 1.10184e-06
      outer loop
         vertex 0.170233 -0.000981671 -0.00515177
         vertex 0.170237 -0.000981671 -0.00515037
         vertex 0.170222 -0.000981671 -0.00515359
      endloop
   endfacet
   facet normal -4.33778e-06 -1 1.10184e-06
      outer loop
         vertex 0.169495 -0.000981668 -0.00579781
         vertex 0.169528 -0.000981668 -0.00577921
         vertex 0.16953 -0.000981668 -0.00577566
      endloop
   endfacet
   facet normal -4.33778e-06 -1 1.10184e-06
      outer loop
         vertex 0.169517 -0.000981668 -0.00579087
         vertex 0.16952 -0.000981668 -0.0057884
         vertex 0.169495 -0.000981668 -0.00579781
      endloop
   endfacet
   facet normal -4.33778e-06 -1 1.10184e-06
      outer loop
         vertex 0.169503 -0.000981668 -0.00579711
         vertex 0.169506 -0.000981668 -0.00579614
         vertex 0.16951 -0.000981668 -0.00579476
      endloop
   endfacet
   facet normal -4.33778e-06 -1 1.10184e-06
      outer loop
         vertex 0.169254 -0.000981667 -0.0057925
         vertex 0.169258 -0.000981667 -0.00579432
         vertex 0.169673 -0.000981668 -0.00515359
      endloop
   endfacet
   facet normal -4.33778e-06 -1 1.10184e-06
      outer loop
         vertex 0.169245 -0.000981667 -0.00578504
         vertex 0.169248 -0.000981667 -0.00578783
         vertex 0.169673 -0.000981668 -0.00515359
      endloop
   endfacet
   facet normal -4.33778e-06 -1 1.10184e-06
      outer loop
         vertex 0.169673 -0.000981668 -0.00515359
         vertex 0.169238 -0.000981667 -0.00577153
         vertex 0.169239 -0.000981667 -0.00577519
      endloop
   endfacet
   facet normal -4.33778e-06 -1 1.10184e-06
      outer loop
         vertex 0.169236 -0.000981667 -0.00576389
         vertex 0.169237 -0.000981667 -0.00576775
         vertex 0.169673 -0.000981668 -0.00515359
      endloop
   endfacet
   facet normal -4.33778e-06 -1 1.10184e-06
      outer loop
         vertex 0.169875 -0.000981668 -0.00436349
         vertex 0.170023 -0.000981669 -0.00465312
         vertex 0.17007 -0.00098167 -0.00464621
      endloop
   endfacet
   facet normal -4.33778e-06 -1 1.10184e-06
      outer loop
         vertex 0.169758 -0.000981668 -0.00440738
         vertex 0.16989 -0.000981669 -0.00470214
         vertex 0.169933 -0.000981669 -0.00468123
      endloop
   endfacet
   facet normal -4.33778e-06 -1 1.10184e-06
      outer loop
         vertex 0.16989 -0.000981669 -0.00470214
         vertex 0.169758 -0.000981668 -0.00440738
         vertex 0.169703 -0.000981668 -0.00443765
      endloop
   endfacet
   facet normal -4.33778e-06 -1 1.10184e-06
      outer loop
         vertex 0.169651 -0.000981668 -0.0044731
         vertex 0.169603 -0.000981667 -0.0045134
         vertex 0.169812 -0.000981669 -0.00475654
      endloop
   endfacet
   facet normal -4.33778e-06 -1 1.10184e-06
      outer loop
         vertex 0.169559 -0.000981667 -0.00455817
         vertex 0.169778 -0.000981668 -0.00478946
         vertex 0.169812 -0.000981669 -0.00475654
      endloop
   endfacet
   facet normal -4.33778e-06 -1 1.10184e-06
      outer loop
         vertex 0.170306 -0.000981671 -0.00489089
         vertex 0.170305 -0.000981671 -0.00488696
         vertex 0.170272 -0.000981671 -0.00485707
      endloop
   endfacet
   facet normal -4.33778e-06 -1 1.10184e-06
      outer loop
         vertex 0.170222 -0.000981671 -0.00515359
         vertex 0.170254 -0.000981671 -0.00513496
         vertex 0.170256 -0.000981671 -0.00513148
      endloop
   endfacet
   facet normal -4.33778e-06 -1 1.10184e-06
      outer loop
         vertex 0.170244 -0.000981671 -0.00514648
         vertex 0.170247 -0.000981671 -0.00514403
         vertex 0.170222 -0.000981671 -0.00515359
      endloop
   endfacet
   facet normal -4.33778e-06 -1 1.10184e-06
      outer loop
         vertex 0.169495 -0.000981668 -0.00579781
         vertex 0.169526 -0.000981668 -0.00578254
         vertex 0.169528 -0.000981668 -0.00577921
      endloop
   endfacet
   facet normal -4.33778e-06 -1 1.10184e-06
      outer loop
         vertex 0.16951 -0.000981668 -0.00579476
         vertex 0.169514 -0.000981668 -0.005793
         vertex 0.169495 -0.000981668 -0.00579781
      endloop
   endfacet
   facet normal -4.33778e-06 -1 1.10184e-06
      outer loop
         vertex 0.169248 -0.000981667 -0.00578783
         vertex 0.169251 -0.000981667 -0.00579033
         vertex 0.169673 -0.000981668 -0.00515359
      endloop
   endfacet
   facet normal -4.33778e-06 -1 1.10184e-06
      outer loop
         vertex 0.169237 -0.000981667 -0.00576775
         vertex 0.169238 -0.000981667 -0.00577153
         vertex 0.169673 -0.000981668 -0.00515359
      endloop
   endfacet
   facet normal -4.33778e-06 -1 1.10184e-06
      outer loop
         vertex 0.169875 -0.000981668 -0.00436349
         vertex 0.169977 -0.000981669 -0.00466484
         vertex 0.170023 -0.000981669 -0.00465312
      endloop
   endfacet
   facet normal -4.33778e-06 -1 1.10184e-06
      outer loop
         vertex 0.169816 -0.000981668 -0.00438259
         vertex 0.169933 -0.000981669 -0.00468123
         vertex 0.169977 -0.000981669 -0.00466484
      endloop
   endfacet
   facet normal -4.33778e-06 -1 1.10184e-06
      outer loop
         vertex 0.16985 -0.000981669 -0.00472733
         vertex 0.16989 -0.000981669 -0.00470214
         vertex 0.169703 -0.000981668 -0.00443765
      endloop
   endfacet
   facet normal -4.33778e-06 -1 1.10184e-06
      outer loop
         vertex 0.169812 -0.000981669 -0.00475654
         vertex 0.169603 -0.000981667 -0.0045134
         vertex 0.169559 -0.000981667 -0.00455817
      endloop
   endfacet
   facet normal -4.33778e-06 -1 1.10184e-06
      outer loop
         vertex 0.170276 -0.000981671 -0.0048577
         vertex 0.170272 -0.000981671 -0.00485707
         vertex 0.170287 -0.000981671 -0.00486196
      endloop
   endfacet
   facet normal -4.33778e-06 -1 1.10184e-06
      outer loop
         vertex 0.170268 -0.000981671 -0.00485686
         vertex 0.170222 -0.000981671 -0.00515359
         vertex 0.170259 -0.000981671 -0.00512404
      endloop
   endfacet
   facet normal -4.33778e-06 -1 1.10184e-06
      outer loop
         vertex 0.170252 -0.000981671 -0.00513824
         vertex 0.170254 -0.000981671 -0.00513496
         vertex 0.170222 -0.000981671 -0.00515359
      endloop
   endfacet
   facet normal -4.33778e-06 -1 1.10184e-06
      outer loop
         vertex 0.169523 -0.000981668 -0.00578561
         vertex 0.169526 -0.000981668 -0.00578254
         vertex 0.169495 -0.000981668 -0.00579781
      endloop
   endfacet
   facet normal -4.33778e-06 -1 1.10184e-06
      outer loop
         vertex 0.169239 -0.000981667 -0.00577519
         vertex 0.169241 -0.000981667 -0.00577868
         vertex 0.169673 -0.000981668 -0.00515359
      endloop
   endfacet
   facet normal -4.33778e-06 -1 1.10184e-06
      outer loop
         vertex 0.169977 -0.000981669 -0.00466484
         vertex 0.169875 -0.000981668 -0.00436349
         vertex 0.169816 -0.000981668 -0.00438259
      endloop
   endfacet
   facet normal -4.33778e-06 -1 1.10184e-06
      outer loop
         vertex 0.169812 -0.000981669 -0.00475654
         vertex 0.16985 -0.000981669 -0.00472733
         vertex 0.169651 -0.000981668 -0.0044731
      endloop
   endfacet
   facet normal -4.33778e-06 -1 1.10184e-06
      outer loop
         vertex 0.16952 -0.000981667 -0.00460699
         vertex 0.169486 -0.000981667 -0.00465939
         vertex 0.169747 -0.000981668 -0.00482573
      endloop
   endfacet
   facet normal -4.33778e-06 -1 1.10184e-06
      outer loop
         vertex 0.170259 -0.000981671 -0.00512404
         vertex 0.170305 -0.000981671 -0.00490331
         vertex 0.170268 -0.000981671 -0.00485686
      endloop
   endfacet
   facet normal -4.33778e-06 -1 1.10184e-06
      outer loop
         vertex 0.170256 -0.000981671 -0.00513148
         vertex 0.170258 -0.000981671 -0.00512783
         vertex 0.170222 -0.000981671 -0.00515359
      endloop
   endfacet
   facet normal -4.33778e-06 -1 1.10184e-06
      outer loop
         vertex 0.169532 -0.000981668 -0.00577194
         vertex 0.169533 -0.000981668 -0.00576808
         vertex 0.169495 -0.000981668 -0.00579781
      endloop
   endfacet
   facet normal -4.33778e-06 -1 1.10184e-06
      outer loop
         vertex 0.169269 -0.000981667 -0.00579753
         vertex 0.169273 -0.000981667 -0.00579781
         vertex 0.169673 -0.000981668 -0.00515359
      endloop
   endfacet
   facet normal -4.33778e-06 -1 1.10184e-06
      outer loop
         vertex 0.169933 -0.000981669 -0.00468123
         vertex 0.169816 -0.000981668 -0.00438259
         vertex 0.169758 -0.000981668 -0.00440738
      endloop
   endfacet
   facet normal -4.33778e-06 -1 1.10184e-06
      outer loop
         vertex 0.169778 -0.000981668 -0.00478946
         vertex 0.169559 -0.000981667 -0.00455817
         vertex 0.16952 -0.000981667 -0.00460699
      endloop
   endfacet
   facet normal -4.33778e-06 -1 1.10184e-06
      outer loop
         vertex 0.170258 -0.000981671 -0.00512783
         vertex 0.170259 -0.000981671 -0.00512404
         vertex 0.170222 -0.000981671 -0.00515359
      endloop
   endfacet
   facet normal -4.33778e-06 -1 1.10184e-06
      outer loop
         vertex 0.170222 -0.000981671 -0.00515359
         vertex 0.170268 -0.000981671 -0.00485686
         vertex 0.16974 -0.000981668 -0.00485687
      endloop
   endfacet
   facet normal -4.33778e-06 -1 1.10184e-06
      outer loop
         vertex 0.169273 -0.000981667 -0.00579781
         vertex 0.169495 -0.000981668 -0.00579781
         vertex 0.169673 -0.000981668 -0.00515359
      endloop
   endfacet
   facet normal -4.33778e-06 -1 1.10184e-06
      outer loop
         vertex 0.169747 -0.000981668 -0.00482573
         vertex 0.169778 -0.000981668 -0.00478946
         vertex 0.16952 -0.000981667 -0.00460699
      endloop
   endfacet
   facet normal -4.33778e-06 -1 1.10184e-06
      outer loop
         vertex 0.169486 -0.000981667 -0.00465939
         vertex 0.169237 -0.000981667 -0.00575154
         vertex 0.16974 -0.000981668 -0.00485687
      endloop
   endfacet
   facet normal -4.33778e-06 -1 1.10184e-06
      outer loop
         vertex 0.16974 -0.000981668 -0.00485687
         vertex 0.169673 -0.000981668 -0.00515359
         vertex 0.170222 -0.000981671 -0.00515359
      endloop
   endfacet
   facet normal -4.33778e-06 -1 1.10184e-06
      outer loop
         vertex 0.169533 -0.000981668 -0.00576808
         vertex 0.169673 -0.000981668 -0.00515359
         vertex 0.169495 -0.000981668 -0.00579781
      endloop
   endfacet
   facet normal -4.33778e-06 -1 1.10184e-06
      outer loop
         vertex 0.16974 -0.000981668 -0.00485687
         vertex 0.169747 -0.000981668 -0.00482573
         vertex 0.169486 -0.000981667 -0.00465939
      endloop
   endfacet
   facet normal -4.33778e-06 -1 1.10184e-06
      outer loop
         vertex 0.169673 -0.000981668 -0.00515359
         vertex 0.16974 -0.000981668 -0.00485687
         vertex 0.169237 -0.000981667 -0.00575154
      endloop
   endfacet
   facet normal -4.33778e-06 -1 1.10184e-06
      outer loop
         vertex 0.170272 -0.000981671 -0.00485707
         vertex 0.170268 -0.000981671 -0.00485686
         vertex 0.170305 -0.000981671 -0.00490331
      endloop
   endfacet
   facet normal -4.33778e-06 -1 1.10184e-06
      outer loop
         vertex 0.17038 -0.000981671 -0.00436349
         vertex 0.169875 -0.000981668 -0.00436349
         vertex 0.170417 -0.000981671 -0.00440993
      endloop
   endfacet
endsolid 1111. Units = meters