solid 1111. STL generated by ONSHAPE BY PTC INC, 1.216. Units = meters
   facet normal -1.89396e-07 -1.10184e-06 -1
      outer loop
         vertex -0.0151186 0.00222911 -0.0217439
         vertex -0.0151186 0.00252911 -0.0217439
         vertex 0.0265223 0.00252893 -0.0217439
      endloop
   endfacet
   facet normal -1.89396e-07 -1.10184e-06 -1
      outer loop
         vertex 0.0265223 0.00252893 -0.0217439
         vertex 0.0265223 0.00222893 -0.0217439
         vertex -0.0151186 0.00222911 -0.0217439
      endloop
   endfacet
   facet normal -1.95488e-07 -1.10184e-06 -1
      outer loop
         vertex 0.0265223 0.00222893 -0.0217439
         vertex 0.0265223 0.00252893 -0.0217439
         vertex 0.0265419 0.00252893 -0.0217429
      endloop
   endfacet
   facet normal 0.0982756 -1.52281e-06 -0.995159
      outer loop
         vertex 0.0265419 0.00222893 -0.0217429
         vertex 0.0265419 0.00252893 -0.0217429
         vertex 0.0265614 0.00252893 -0.0217401
      endloop
   endfacet
   facet normal 0.1956 -1.92903e-06 -0.980684
      outer loop
         vertex 0.0265614 0.00222893 -0.02174
         vertex 0.0265614 0.00252893 -0.0217401
         vertex 0.0265805 0.00252893 -0.0217353
      endloop
   endfacet
   facet normal 0.291031 -2.31657e-06 -0.956714
      outer loop
         vertex 0.0265805 0.00222893 -0.0217353
         vertex 0.0265805 0.00252893 -0.0217353
         vertex 0.0265991 0.00252893 -0.0217286
      endloop
   endfacet
   facet normal 0.383643 -2.68169e-06 -0.923481
      outer loop
         vertex 0.0265991 0.00222893 -0.0217286
         vertex 0.0265991 0.00252893 -0.0217286
         vertex 0.0266169 0.00252893 -0.0217202
      endloop
   endfacet
   facet normal 0.472542 -3.02085e-06 -0.881308
      outer loop
         vertex 0.0266169 0.00222893 -0.0217202
         vertex 0.0266169 0.00252893 -0.0217202
         vertex 0.0266337 0.00252893 -0.02171
      endloop
   endfacet
   facet normal 0.556866 -3.33075e-06 -0.830602
      outer loop
         vertex 0.0266337 0.00252893 -0.02171
         vertex 0.0266337 0.00222893 -0.02171
         vertex 0.0266169 0.00222893 -0.0217202
      endloop
   endfacet
   facet normal 0.472542 -3.02085e-06 -0.881308
      outer loop
         vertex 0.0266169 0.00252893 -0.0217202
         vertex 0.0266169 0.00222893 -0.0217202
         vertex 0.0265991 0.00222893 -0.0217286
      endloop
   endfacet
   facet normal 0.383643 -2.68169e-06 -0.923481
      outer loop
         vertex 0.0265991 0.00252893 -0.0217286
         vertex 0.0265991 0.00222893 -0.0217286
         vertex 0.0265805 0.00222893 -0.0217353
      endloop
   endfacet
   facet normal 0.291031 -2.31657e-06 -0.956714
      outer loop
         vertex 0.0265805 0.00252893 -0.0217353
         vertex 0.0265805 0.00222893 -0.0217353
         vertex 0.0265614 0.00222893 -0.02174
      endloop
   endfacet
   facet normal 0.1956 -1.92903e-06 -0.980684
      outer loop
         vertex 0.0265614 0.00252893 -0.0217401
         vertex 0.0265614 0.00222893 -0.02174
         vertex 0.0265419 0.00222893 -0.0217429
      endloop
   endfacet
   facet normal 0.0982756 -1.52281e-06 -0.995159
      outer loop
         vertex 0.0265419 0.00252893 -0.0217429
         vertex 0.0265419 0.00222893 -0.0217429
         vertex 0.0265223 0.00222893 -0.0217439
      endloop
   endfacet
   facet normal 0.556866 -3.33075e-06 -0.830602
      outer loop
         vertex 0.0266337 0.00222893 -0.02171
         vertex 0.0266337 0.00252893 -0.02171
         vertex 0.0291999 0.00252892 -0.0199896
      endloop
   endfacet
   facet normal 0.556866 -3.33075e-06 -0.830602
      outer loop
         vertex 0.0291999 0.00252892 -0.0199896
         vertex 0.0291999 0.00222892 -0.0199896
         vertex 0.0266337 0.00222893 -0.02171
      endloop
   endfacet
   facet normal 0.600927 -3.4874e-06 -0.799304
      outer loop
         vertex 0.0292557 0.00222892 -0.0199505
         vertex 0.0291999 0.00222892 -0.0199896
         vertex 0.0291999 0.00252892 -0.0199896
      endloop
   endfacet
   facet normal 0.681714 -3.76325e-06 -0.731618
      outer loop
         vertex 0.0292888 0.00222892 -0.0199232
         vertex 0.0292557 0.00222892 -0.0199505
         vertex 0.0292557 0.00252892 -0.0199505
      endloop
   endfacet
   facet normal 0.744816 -3.96607e-06 -0.66727
      outer loop
         vertex 0.0293036 0.00222892 -0.0199082
         vertex 0.0292888 0.00222892 -0.0199232
         vertex 0.0292888 0.00252892 -0.0199232
      endloop
   endfacet
   facet normal 0.805702 -4.1476e-06 -0.592321
      outer loop
         vertex 0.0293157 0.00222892 -0.0198933
         vertex 0.0293036 0.00222892 -0.0199082
         vertex 0.0293036 0.00252892 -0.0199082
      endloop
   endfacet
   facet normal 0.864507 -4.30385e-06 -0.502622
      outer loop
         vertex 0.0293269 0.00222892 -0.0198761
         vertex 0.0293157 0.00222892 -0.0198933
         vertex 0.0293157 0.00252892 -0.0198933
      endloop
   endfacet
   facet normal 0.907281 -4.39894e-06 -0.420524
      outer loop
         vertex 0.029336 0.00222892 -0.0198587
         vertex 0.0293269 0.00222892 -0.0198761
         vertex 0.0293269 0.00252892 -0.0198761
      endloop
   endfacet
   facet normal 0.946128 -4.46086e-06 -0.323793
      outer loop
         vertex 0.0293434 0.00252892 -0.0198403
         vertex 0.0293434 0.00222892 -0.0198403
         vertex 0.029336 0.00222892 -0.0198587
      endloop
   endfacet
   facet normal 0.972927 -4.47499e-06 -0.231114
      outer loop
         vertex 0.0293488 0.00252892 -0.0198216
         vertex 0.0293488 0.00222892 -0.0198216
         vertex 0.0293434 0.00222892 -0.0198403
      endloop
   endfacet
   facet normal 0.991134 -4.44572e-06 -0.132869
      outer loop
         vertex 0.0293533 0.00252892 -0.0197966
         vertex 0.0293533 0.00222892 -0.0197966
         vertex 0.0293488 0.00222892 -0.0198216
      endloop
   endfacet
   facet normal 0.999088 -4.38086e-06 -0.0426906
      outer loop
         vertex 0.0293568 0.00222892 -0.0197539
         vertex 0.0293533 0.00222892 -0.0197966
         vertex 0.0293533 0.00252892 -0.0197966
      endloop
   endfacet
   facet normal 1 -4.33778e-06 7.52557e-08
      outer loop
         vertex 0.0293579 0.00252892 -0.0196932
         vertex 0.0293579 0.00222892 -0.0196932
         vertex 0.0293568 0.00222892 -0.0197539
      endloop
   endfacet
   facet normal 0.999088 -4.38086e-06 -0.0426906
      outer loop
         vertex 0.0293568 0.00222892 -0.0197539
         vertex 0.0293568 0.00252892 -0.0197539
         vertex 0.0293579 0.00252892 -0.0196932
      endloop
   endfacet
   facet normal 0.991134 -4.44572e-06 -0.132869
      outer loop
         vertex 0.0293533 0.00252892 -0.0197966
         vertex 0.0293568 0.00252892 -0.0197539
         vertex 0.0293568 0.00222892 -0.0197539
      endloop
   endfacet
   facet normal 0.972927 -4.47499e-06 -0.231114
      outer loop
         vertex 0.0293488 0.00222892 -0.0198216
         vertex 0.0293488 0.00252892 -0.0198216
         vertex 0.0293533 0.00252892 -0.0197966
      endloop
   endfacet
   facet normal 0.946128 -4.46086e-06 -0.323793
      outer loop
         vertex 0.0293434 0.00222892 -0.0198403
         vertex 0.0293434 0.00252892 -0.0198403
         vertex 0.0293488 0.00252892 -0.0198216
      endloop
   endfacet
   facet normal 0.907281 -4.39894e-06 -0.420524
      outer loop
         vertex 0.029336 0.00222892 -0.0198587
         vertex 0.029336 0.00252892 -0.0198587
         vertex 0.0293434 0.00252892 -0.0198403
      endloop
   endfacet
   facet normal 0.864507 -4.30385e-06 -0.502622
      outer loop
         vertex 0.0293269 0.00252892 -0.0198761
         vertex 0.029336 0.00252892 -0.0198587
         vertex 0.029336 0.00222892 -0.0198587
      endloop
   endfacet
   facet normal 0.805702 -4.1476e-06 -0.592321
      outer loop
         vertex 0.0293157 0.00252892 -0.0198933
         vertex 0.0293269 0.00252892 -0.0198761
         vertex 0.0293269 0.00222892 -0.0198761
      endloop
   endfacet
   facet normal 0.744816 -3.96607e-06 -0.66727
      outer loop
         vertex 0.0293036 0.00252892 -0.0199082
         vertex 0.0293157 0.00252892 -0.0198933
         vertex 0.0293157 0.00222892 -0.0198933
      endloop
   endfacet
   facet normal 0.681714 -3.76325e-06 -0.731618
      outer loop
         vertex 0.0292888 0.00252892 -0.0199232
         vertex 0.0293036 0.00252892 -0.0199082
         vertex 0.0293036 0.00222892 -0.0199082
      endloop
   endfacet
   facet normal 0.600927 -3.4874e-06 -0.799304
      outer loop
         vertex 0.0292557 0.00252892 -0.0199505
         vertex 0.0292888 0.00252892 -0.0199232
         vertex 0.0292888 0.00222892 -0.0199232
      endloop
   endfacet
   facet normal 0.556866 -3.33075e-06 -0.830602
      outer loop
         vertex 0.0291999 0.00252892 -0.0199896
         vertex 0.0292557 0.00252892 -0.0199505
         vertex 0.0292557 0.00222892 -0.0199505
      endloop
   endfacet
   facet normal 1 -4.33778e-06 -1.30939e-08
      outer loop
         vertex 0.0293579 0.00252892 -0.0196932
         vertex 0.0293579 0.00252894 -0.00748387
         vertex 0.0293579 0.00222894 -0.0078
      endloop
   endfacet
   facet normal 1 -4.33778e-06 -1.30939e-08
      outer loop
         vertex 0.0293579 0.00222894 -0.0078
         vertex 0.0293579 0.00222892 -0.0196932
         vertex 0.0293579 0.00252892 -0.0196932
      endloop
   endfacet
endsolid 1111. Units = meters