solid 1111. STL generated by ONSHAPE BY PTC INC, 1.216. Units = meters
   facet normal 0 1 0
      outer loop
         vertex -0.0346177 0.0309889 -0.00530595
         vertex -0.0349328 0.0309889 -0.00534021
         vertex -0.0350458 0.0309889 -0.00325396
      endloop
   endfacet
   facet normal 0 1 0
      outer loop
         vertex -0.0349328 0.0309889 -0.00534021
         vertex -0.0352497 0.0309889 -0.00534021
         vertex -0.0351365 0.0309889 -0.00325396
      endloop
   endfacet
   facet normal 0 1 0
      outer loop
         vertex -0.0325834 0.0309889 -0.00392666
         vertex -0.0327613 0.0309889 -0.00418896
         vertex -0.0344245 0.0309889 -0.00292456
      endloop
   endfacet
   facet normal 0 1 0
      outer loop
         vertex -0.0327613 0.0309889 -0.00418896
         vertex -0.0329664 0.0309889 -0.00443048
         vertex -0.0344832 0.0309889 -0.00299366
      endloop
   endfacet
   facet normal 0 1 0
      outer loop
         vertex -0.0334488 0.0309889 -0.0048402
         vertex -0.0337203 0.0309889 -0.00500357
         vertex -0.0346989 0.0309889 -0.00315764
      endloop
   endfacet
   facet normal 0 1 0
      outer loop
         vertex -0.0337203 0.0309889 -0.00500357
         vertex -0.0340079 0.0309889 -0.00513664
         vertex -0.0347812 0.0309889 -0.00319571
      endloop
   endfacet
   facet normal 0 1 0
      outer loop
         vertex -0.0351365 0.0309889 -0.00325396
         vertex -0.0350458 0.0309889 -0.00325396
         vertex -0.0349328 0.0309889 -0.00534021
      endloop
   endfacet
   facet normal 0 1 0
      outer loop
         vertex -0.0352497 0.0309889 -0.00534021
         vertex -0.0355647 0.0309889 -0.00530595
         vertex -0.0352267 0.0309889 -0.00324416
      endloop
   endfacet
   facet normal 0 1 0
      outer loop
         vertex -0.0355647 0.0309889 -0.00530595
         vertex -0.0358742 0.0309889 -0.00523782
         vertex -0.0353152 0.0309889 -0.00322467
      endloop
   endfacet
   facet normal 0 1 0
      outer loop
         vertex -0.0358742 0.0309889 -0.00523782
         vertex -0.0361745 0.0309889 -0.00513664
         vertex -0.0354011 0.0309889 -0.00319571
      endloop
   endfacet
   facet normal 0 1 0
      outer loop
         vertex -0.0344832 0.0309889 -0.00299366
         vertex -0.0344245 0.0309889 -0.00292456
         vertex -0.0327613 0.0309889 -0.00418896
      endloop
   endfacet
   facet normal 0 1 0
      outer loop
         vertex -0.0329664 0.0309889 -0.00443048
         vertex -0.0331965 0.0309889 -0.00464842
         vertex -0.0345491 0.0309889 -0.00305602
      endloop
   endfacet
   facet normal 0 1 0
      outer loop
         vertex -0.0331965 0.0309889 -0.00464842
         vertex -0.0334488 0.0309889 -0.0048402
         vertex -0.0346212 0.0309889 -0.00311089
      endloop
   endfacet
   facet normal 0 1 0
      outer loop
         vertex -0.0347812 0.0309889 -0.00319571
         vertex -0.0346989 0.0309889 -0.00315764
         vertex -0.0337203 0.0309889 -0.00500357
      endloop
   endfacet
   facet normal 0 1 0
      outer loop
         vertex -0.0340079 0.0309889 -0.00513664
         vertex -0.0343082 0.0309889 -0.00523782
         vertex -0.0348672 0.0309889 -0.00322467
      endloop
   endfacet
   facet normal 0 1 0
      outer loop
         vertex -0.0343082 0.0309889 -0.00523782
         vertex -0.0346177 0.0309889 -0.00530595
         vertex -0.0349557 0.0309889 -0.00324416
      endloop
   endfacet
   facet normal 0 1 0
      outer loop
         vertex -0.0352267 0.0309889 -0.00324416
         vertex -0.0351365 0.0309889 -0.00325396
         vertex -0.0352497 0.0309889 -0.00534021
      endloop
   endfacet
   facet normal 0 1 0
      outer loop
         vertex -0.0354011 0.0309889 -0.00319571
         vertex -0.0353152 0.0309889 -0.00322467
         vertex -0.0358742 0.0309889 -0.00523782
      endloop
   endfacet
   facet normal 0 1 0
      outer loop
         vertex -0.0343312 0.0309889 -0.0027694
         vertex -0.0321817 0.0309889 -0.00273421
         vertex -0.0322329 0.0309889 -0.00304694
      endloop
   endfacet
   facet normal 0 1 0
      outer loop
         vertex -0.0345491 0.0309889 -0.00305602
         vertex -0.0344832 0.0309889 -0.00299366
         vertex -0.0329664 0.0309889 -0.00443048
      endloop
   endfacet
   facet normal 0 1 0
      outer loop
         vertex -0.0346989 0.0309889 -0.00315764
         vertex -0.0346212 0.0309889 -0.00311089
         vertex -0.0334488 0.0309889 -0.0048402
      endloop
   endfacet
   facet normal 0 1 0
      outer loop
         vertex -0.0349557 0.0309889 -0.00324416
         vertex -0.0348672 0.0309889 -0.00322467
         vertex -0.0343082 0.0309889 -0.00523782
      endloop
   endfacet
   facet normal 0 1 0
      outer loop
         vertex -0.0353152 0.0309889 -0.00322467
         vertex -0.0352267 0.0309889 -0.00324416
         vertex -0.0355647 0.0309889 -0.00530595
      endloop
   endfacet
   facet normal 0 1 0
      outer loop
         vertex -0.0361745 0.0309889 -0.00513664
         vertex -0.0364621 0.0309889 -0.00500357
         vertex -0.0354834 0.0309889 -0.00315764
      endloop
   endfacet
   facet normal 0 1 0
      outer loop
         vertex -0.0364621 0.0309889 -0.00500357
         vertex -0.0367337 0.0309889 -0.0048402
         vertex -0.0355611 0.0309889 -0.00311089
      endloop
   endfacet
   facet normal 0 1 0
      outer loop
         vertex -0.037216 0.0309889 -0.00443048
         vertex -0.0374212 0.0309889 -0.00418896
         vertex -0.0357578 0.0309889 -0.00292456
      endloop
   endfacet
   facet normal 0 1 0
      outer loop
         vertex -0.0374212 0.0309889 -0.00418896
         vertex -0.037599 0.0309889 -0.00392666
         vertex -0.0358087 0.0309889 -0.00284951
      endloop
   endfacet
   facet normal 0 1 0
      outer loop
         vertex -0.0343312 0.0309889 -0.0027694
         vertex -0.0321645 0.0309889 -0.00241778
         vertex -0.0321817 0.0309889 -0.00273421
      endloop
   endfacet
   facet normal 0 1 0
      outer loop
         vertex -0.0346212 0.0309889 -0.00311089
         vertex -0.0345491 0.0309889 -0.00305602
         vertex -0.0331965 0.0309889 -0.00464842
      endloop
   endfacet
   facet normal 0 1 0
      outer loop
         vertex -0.0350458 0.0309889 -0.00325396
         vertex -0.0349557 0.0309889 -0.00324416
         vertex -0.0346177 0.0309889 -0.00530595
      endloop
   endfacet
   facet normal 0 1 0
      outer loop
         vertex -0.0355611 0.0309889 -0.00311089
         vertex -0.0354834 0.0309889 -0.00315764
         vertex -0.0364621 0.0309889 -0.00500357
      endloop
   endfacet
   facet normal 0 1 0
      outer loop
         vertex -0.0367337 0.0309889 -0.0048402
         vertex -0.0369859 0.0309889 -0.00464842
         vertex -0.0356333 0.0309889 -0.00305602
      endloop
   endfacet
   facet normal 0 1 0
      outer loop
         vertex -0.0358087 0.0309889 -0.00284951
         vertex -0.0357578 0.0309889 -0.00292456
         vertex -0.0374212 0.0309889 -0.00418896
      endloop
   endfacet
   facet normal 0 1 0
      outer loop
         vertex -0.037599 0.0309889 -0.00392666
         vertex -0.0377474 0.0309889 -0.00364668
         vertex -0.0358512 0.0309889 -0.0027694
      endloop
   endfacet
   facet normal 0 1 0
      outer loop
         vertex -0.0322329 0.0309889 -0.00304694
         vertex -0.0323177 0.0309889 -0.00335228
         vertex -0.0343312 0.0309889 -0.0027694
      endloop
   endfacet
   facet normal 0 1 0
      outer loop
         vertex -0.0348672 0.0309889 -0.00322467
         vertex -0.0347812 0.0309889 -0.00319571
         vertex -0.0340079 0.0309889 -0.00513664
      endloop
   endfacet
   facet normal 0 1 0
      outer loop
         vertex -0.0356333 0.0309889 -0.00305602
         vertex -0.0355611 0.0309889 -0.00311089
         vertex -0.0367337 0.0309889 -0.0048402
      endloop
   endfacet
   facet normal 0 1 0
      outer loop
         vertex -0.0369859 0.0309889 -0.00464842
         vertex -0.037216 0.0309889 -0.00443048
         vertex -0.0356991 0.0309889 -0.00299366
      endloop
   endfacet
   facet normal 0 1 0
      outer loop
         vertex -0.0358512 0.0309889 -0.0027694
         vertex -0.0358087 0.0309889 -0.00284951
         vertex -0.037599 0.0309889 -0.00392666
      endloop
   endfacet
   facet normal 0 1 0
      outer loop
         vertex -0.0380008 0.0309889 -0.00273421
         vertex -0.038018 0.0309889 -0.00241778
         vertex -0.0359286 0.0309889 -0.00241778
      endloop
   endfacet
   facet normal 0 1 0
      outer loop
         vertex -0.038018 0.0309889 -0.00241778
         vertex -0.038018 0.0309889 0.00494617
         vertex -0.0359286 0.0309889 0.000577481
      endloop
   endfacet
   facet normal 0 1 0
      outer loop
         vertex -0.0321645 0.0309889 0.00145986
         vertex -0.0342587 0.0309889 -0.00250832
         vertex -0.0342538 0.0309889 -0.00241778
      endloop
   endfacet
   facet normal 0 1 0
      outer loop
         vertex -0.0343312 0.0309889 -0.0027694
         vertex -0.0321645 0.0309889 0.00145986
         vertex -0.0321645 0.0309889 -0.00241778
      endloop
   endfacet
   facet normal 0 1 0
      outer loop
         vertex -0.032435 0.0309889 -0.00364668
         vertex -0.0325834 0.0309889 -0.00392666
         vertex -0.0343736 0.0309889 -0.00284951
      endloop
   endfacet
   facet normal 0 1 0
      outer loop
         vertex -0.0354834 0.0309889 -0.00315764
         vertex -0.0354011 0.0309889 -0.00319571
         vertex -0.0361745 0.0309889 -0.00513664
      endloop
   endfacet
   facet normal 0 1 0
      outer loop
         vertex -0.0357578 0.0309889 -0.00292456
         vertex -0.0356991 0.0309889 -0.00299366
         vertex -0.037216 0.0309889 -0.00443048
      endloop
   endfacet
   facet normal 0 1 0
      outer loop
         vertex -0.0377474 0.0309889 -0.00364668
         vertex -0.0378647 0.0309889 -0.00335228
         vertex -0.0358848 0.0309889 -0.00268516
      endloop
   endfacet
   facet normal 0 1 0
      outer loop
         vertex -0.0378647 0.0309889 -0.00335228
         vertex -0.0379495 0.0309889 -0.00304694
         vertex -0.035909 0.0309889 -0.00259779
      endloop
   endfacet
   facet normal 0 1 0
      outer loop
         vertex -0.0379495 0.0309889 -0.00304694
         vertex -0.0380008 0.0309889 -0.00273421
         vertex -0.0359237 0.0309889 -0.00250832
      endloop
   endfacet
   facet normal 0 1 0
      outer loop
         vertex -0.0359286 0.0309889 0.000577481
         vertex -0.0359286 0.0309889 -0.00241778
         vertex -0.038018 0.0309889 -0.00241778
      endloop
   endfacet
   facet normal 0 1 0
      outer loop
         vertex -0.0321645 0.0309889 0.00145986
         vertex -0.0342733 0.0309889 -0.00259779
         vertex -0.0342587 0.0309889 -0.00250832
      endloop
   endfacet
   facet normal 0 1 0
      outer loop
         vertex -0.0321645 0.0309889 0.00145986
         vertex -0.0343312 0.0309889 -0.0027694
         vertex -0.0342976 0.0309889 -0.00268516
      endloop
   endfacet
   facet normal 0 1 0
      outer loop
         vertex -0.0343736 0.0309889 -0.00284951
         vertex -0.0343312 0.0309889 -0.0027694
         vertex -0.032435 0.0309889 -0.00364668
      endloop
   endfacet
   facet normal 0 1 0
      outer loop
         vertex -0.0356991 0.0309889 -0.00299366
         vertex -0.0356333 0.0309889 -0.00305602
         vertex -0.0369859 0.0309889 -0.00464842
      endloop
   endfacet
   facet normal 0 1 0
      outer loop
         vertex -0.035909 0.0309889 -0.00259779
         vertex -0.0358848 0.0309889 -0.00268516
         vertex -0.0378647 0.0309889 -0.00335228
      endloop
   endfacet
   facet normal 0 1 0
      outer loop
         vertex -0.0359286 0.0309889 -0.00241778
         vertex -0.0359237 0.0309889 -0.00250832
         vertex -0.0380008 0.0309889 -0.00273421
      endloop
   endfacet
   facet normal 0 1 0
      outer loop
         vertex -0.0342976 0.0309889 -0.00268516
         vertex -0.0342733 0.0309889 -0.00259779
         vertex -0.0321645 0.0309889 0.00145986
      endloop
   endfacet
   facet normal 0 1 0
      outer loop
         vertex -0.0289761 0.0309889 0.00501455
         vertex -0.0287491 0.0309889 0.00240109
         vertex -0.0321645 0.0309889 0.00145986
      endloop
   endfacet
   facet normal 0 1 0
      outer loop
         vertex -0.0344245 0.0309889 -0.00292456
         vertex -0.0343736 0.0309889 -0.00284951
         vertex -0.0325834 0.0309889 -0.00392666
      endloop
   endfacet
   facet normal 0 1 0
      outer loop
         vertex -0.0359237 0.0309889 -0.00250832
         vertex -0.035909 0.0309889 -0.00259779
         vertex -0.0379495 0.0309889 -0.00304694
      endloop
   endfacet
   facet normal 0 1 0
      outer loop
         vertex -0.0321645 0.0309889 0.00145986
         vertex -0.0342538 0.0309889 0.00356001
         vertex -0.0289761 0.0309889 0.00501455
      endloop
   endfacet
   facet normal 0 1 0
      outer loop
         vertex -0.0358848 0.0309889 -0.00268516
         vertex -0.0358512 0.0309889 -0.0027694
         vertex -0.0377474 0.0309889 -0.00364668
      endloop
   endfacet
   facet normal 0 1 0
      outer loop
         vertex -0.0342538 0.0309889 -0.00241778
         vertex -0.0342538 0.0309889 0.00356001
         vertex -0.0321645 0.0309889 0.00145986
      endloop
   endfacet
   facet normal 0 1 0
      outer loop
         vertex -0.0359286 0.0309889 0.000577481
         vertex -0.0359286 0.0309889 0.00356082
         vertex -0.0345034 0.0309889 0.00225927
      endloop
   endfacet
   facet normal 0 1 0
      outer loop
         vertex -0.0289761 0.0309889 0.00501455
         vertex -0.0287491 0.0309889 0.00549987
         vertex -0.0287491 0.0309889 0.00240109
      endloop
   endfacet
   facet normal 0 1 0
      outer loop
         vertex -0.0359286 0.0309889 0.000577481
         vertex -0.038018 0.0309889 0.00494617
         vertex -0.0359286 0.0309889 0.00356082
      endloop
   endfacet
   facet normal 0 1 0
      outer loop
         vertex -0.0345034 0.0309889 0.00225927
         vertex -0.0345034 0.0309889 -0.000719383
         vertex -0.0359286 0.0309889 0.000577481
      endloop
   endfacet
   facet normal 0 1 0
      outer loop
         vertex -0.0323177 0.0309889 -0.00335228
         vertex -0.032435 0.0309889 -0.00364668
         vertex -0.0343312 0.0309889 -0.0027694
      endloop
   endfacet
endsolid 1111. Units = meters