solid 1111. STL generated by ONSHAPE BY PTC INC, 1.216. Units = meters
   facet normal 0 0 1
      outer loop
         vertex 0.0189736 0.00578876 0.0176997
         vertex 0.0189736 0.0117888 0.0176997
         vertex 0.0183736 0.0112888 0.0176997
      endloop
   endfacet
   facet normal 0 0 1
      outer loop
         vertex 0.0170236 0.00558876 0.0176997
         vertex 0.0189736 0.00578876 0.0176997
         vertex 0.0183736 0.00628876 0.0176997
      endloop
   endfacet
   facet normal 0 0 1
      outer loop
         vertex 0.0183736 0.0112888 0.0176997
         vertex 0.0183736 0.00628876 0.0176997
         vertex 0.0189736 0.00578876 0.0176997
      endloop
   endfacet
   facet normal 0 0 1
      outer loop
         vertex 0.0151236 0.00718876 0.0176997
         vertex 0.0147236 0.00528876 0.0176997
         vertex 0.0163236 0.00628876 0.0176997
      endloop
   endfacet
   facet normal 0 0 1
      outer loop
         vertex 0.0147236 0.00528876 0.0176997
         vertex 0.0170236 0.00528876 0.0176997
         vertex 0.0170236 0.00558876 0.0176997
      endloop
   endfacet
   facet normal 0 0 1
      outer loop
         vertex 0.0147236 0.0122888 0.0176997
         vertex 0.0163236 0.0112888 0.0176997
         vertex 0.0170236 0.0119888 0.0176997
      endloop
   endfacet
   facet normal 0 0 1
      outer loop
         vertex 0.0170236 0.0119888 0.0176997
         vertex 0.0163236 0.0112888 0.0176997
         vertex 0.0183736 0.0112888 0.0176997
      endloop
   endfacet
   facet normal 0 0 1
      outer loop
         vertex 0.0189736 0.0117888 0.0176997
         vertex 0.0190736 0.0119888 0.0176997
         vertex 0.0183736 0.0112888 0.0176997
      endloop
   endfacet
   facet normal 0 0 1
      outer loop
         vertex 0.0165236 0.00718876 0.0176997
         vertex 0.0151236 0.00718876 0.0176997
         vertex 0.0163236 0.00678876 0.0176997
      endloop
   endfacet
   facet normal 0 0 1
      outer loop
         vertex 0.0168236 0.00678876 0.0176997
         vertex 0.0168236 0.0107888 0.0176997
         vertex 0.0165236 0.0103888 0.0176997
      endloop
   endfacet
   facet normal 0 0 1
      outer loop
         vertex 0.0147236 0.0122888 0.0176997
         vertex 0.0147236 0.00528876 0.0176997
         vertex 0.0151236 0.00718876 0.0176997
      endloop
   endfacet
   facet normal 0 0 1
      outer loop
         vertex 0.0170236 0.00558876 0.0176997
         vertex 0.0163236 0.00628876 0.0176997
         vertex 0.0147236 0.00528876 0.0176997
      endloop
   endfacet
   facet normal 0 0 1
      outer loop
         vertex 0.0183736 0.0112888 0.0176997
         vertex 0.0190736 0.0119888 0.0176997
         vertex 0.0170236 0.0119888 0.0176997
      endloop
   endfacet
   facet normal 0 0 1
      outer loop
         vertex 0.0151236 0.0103888 0.0176997
         vertex 0.0163236 0.0107888 0.0176997
         vertex 0.0163236 0.0112888 0.0176997
      endloop
   endfacet
   facet normal 0 0 1
      outer loop
         vertex 0.0183736 0.00628876 0.0176997
         vertex 0.0163236 0.00628876 0.0176997
         vertex 0.0170236 0.00558876 0.0176997
      endloop
   endfacet
   facet normal 0 0 1
      outer loop
         vertex 0.0190736 0.00558876 0.0176997
         vertex 0.0190736 0.00578876 0.0176997
         vertex 0.0189736 0.00578876 0.0176997
      endloop
   endfacet
   facet normal 0 0 1
      outer loop
         vertex 0.0165236 0.0103888 0.0176997
         vertex 0.0165236 0.00718876 0.0176997
         vertex 0.0168236 0.00678876 0.0176997
      endloop
   endfacet
   facet normal 0 0 1
      outer loop
         vertex 0.0163236 0.00628876 0.0176997
         vertex 0.0163236 0.00678876 0.0176997
         vertex 0.0151236 0.00718876 0.0176997
      endloop
   endfacet
   facet normal 0 0 1
      outer loop
         vertex 0.0163236 0.0112888 0.0176997
         vertex 0.0147236 0.0122888 0.0176997
         vertex 0.0151236 0.0103888 0.0176997
      endloop
   endfacet
   facet normal 0 0 1
      outer loop
         vertex 0.0165236 0.0103888 0.0176997
         vertex 0.0168236 0.0107888 0.0176997
         vertex 0.0163236 0.0107888 0.0176997
      endloop
   endfacet
   facet normal 0 0 1
      outer loop
         vertex 0.0189736 0.00578876 0.0176997
         vertex 0.0170236 0.00558876 0.0176997
         vertex 0.0190736 0.00558876 0.0176997
      endloop
   endfacet
   facet normal 0 0 1
      outer loop
         vertex 0.0151236 0.00718876 0.0176997
         vertex 0.0151236 0.0103888 0.0176997
         vertex 0.0147236 0.0122888 0.0176997
      endloop
   endfacet
   facet normal 0 0 1
      outer loop
         vertex 0.0163236 0.0107888 0.0176997
         vertex 0.0151236 0.0103888 0.0176997
         vertex 0.0165236 0.0103888 0.0176997
      endloop
   endfacet
   facet normal 0 0 1
      outer loop
         vertex 0.0163236 0.00678876 0.0176997
         vertex 0.0168236 0.00678876 0.0176997
         vertex 0.0165236 0.00718876 0.0176997
      endloop
   endfacet
   facet normal 0 0 1
      outer loop
         vertex 0.0189736 0.0117888 0.0176997
         vertex 0.0190736 0.0117888 0.0176997
         vertex 0.0190736 0.0119888 0.0176997
      endloop
   endfacet
   facet normal 0 0 1
      outer loop
         vertex 0.0170236 0.0119888 0.0176997
         vertex 0.0170236 0.0122888 0.0176997
         vertex 0.0147236 0.0122888 0.0176997
      endloop
   endfacet
endsolid 1111. Units = meters