solid 1111. STL generated by ONSHAPE BY PTC INC, 1.216. Units = meters
   facet normal 0.312533 0.947673 0.0651143
      outer loop
         vertex -0.00841172 0.0293978 0.00862233
         vertex -0.00841231 0.0293958 0.00864388
         vertex -0.00812474 0.029304 0.00863509
      endloop
   endfacet
   facet normal 0.309577 0.941824 0.130881
      outer loop
         vertex -0.00841231 0.0293958 0.00864388
         vertex -0.00812515 0.0293006 0.00866043
         vertex -0.00812474 0.029304 0.00863509
      endloop
   endfacet
   facet normal 0.309658 0.941773 0.131056
      outer loop
         vertex -0.00881063 0.0295275 0.00863809
         vertex -0.00841231 0.0293958 0.00864388
         vertex -0.00841172 0.0293978 0.00862233
      endloop
   endfacet
   facet normal 0.312454 0.947701 0.0650807
      outer loop
         vertex -0.00891703 0.0295647 0.00861502
         vertex -0.00891777 0.029562 0.00864269
         vertex -0.00881063 0.0295275 0.00863809
      endloop
   endfacet
   facet normal 0.304845 0.93089 0.201276
      outer loop
         vertex -0.00841306 0.0293927 0.00866296
         vertex -0.0081253 0.0292991 0.00866709
         vertex -0.00812515 0.0293006 0.00866043
      endloop
   endfacet
   facet normal 0.30507 0.930769 0.201497
      outer loop
         vertex -0.00881154 0.0295244 0.00865716
         vertex -0.00841306 0.0293927 0.00866296
         vertex -0.00841231 0.0293958 0.00864388
      endloop
   endfacet
   facet normal 0.309658 0.941773 0.131056
      outer loop
         vertex -0.00881063 0.0295275 0.00863809
         vertex -0.00891777 0.029562 0.00864269
         vertex -0.00891832 0.0295595 0.00865563
      endloop
   endfacet
   facet normal 0.298426 0.914909 0.271815
      outer loop
         vertex -0.00841397 0.0293885 0.00868027
         vertex -0.00812565 0.0292954 0.00868349
         vertex -0.0081253 0.0292991 0.00866709
      endloop
   endfacet
   facet normal 0.298818 0.91471 0.272055
      outer loop
         vertex -0.00881264 0.0295204 0.00867446
         vertex -0.00841397 0.0293885 0.00868027
         vertex -0.00841306 0.0293927 0.00866296
      endloop
   endfacet
   facet normal 0.30507 0.930769 0.201497
      outer loop
         vertex -0.00881154 0.0295244 0.00865716
         vertex -0.00891832 0.0295595 0.00865563
         vertex -0.00891873 0.0295576 0.00866546
      endloop
   endfacet
   facet normal 0.290342 0.893889 0.34156
      outer loop
         vertex -0.00841505 0.0293833 0.00869668
         vertex -0.00812615 0.0292896 0.00870083
         vertex -0.00812565 0.0292954 0.00868349
      endloop
   endfacet
   facet normal 0.290918 0.893613 0.341792
      outer loop
         vertex -0.00881397 0.0295152 0.00869085
         vertex -0.00841505 0.0293833 0.00869668
         vertex -0.00841397 0.0293885 0.00868027
      endloop
   endfacet
   facet normal 0.291066 0.893709 0.341416
      outer loop
         vertex -0.00892015 0.0295504 0.0086894
         vertex -0.00881397 0.0295152 0.00869085
         vertex -0.00881264 0.0295204 0.00867446
      endloop
   endfacet
   facet normal 0.280484 0.867513 0.410791
      outer loop
         vertex -0.00841647 0.0293763 0.00871423
         vertex -0.00812628 0.0292881 0.00870528
         vertex -0.00812615 0.0292896 0.00870083
      endloop
   endfacet
   facet normal 0.280484 0.867513 0.410791
      outer loop
         vertex -0.00841647 0.0293763 0.00871423
         vertex -0.00812714 0.0292777 0.00872851
         vertex -0.00812628 0.0292881 0.00870528
      endloop
   endfacet
   facet normal 0.281264 0.867167 0.41099
      outer loop
         vertex -0.00881572 0.0295083 0.0087084
         vertex -0.00841647 0.0293763 0.00871423
         vertex -0.00841505 0.0293833 0.00869668
      endloop
   endfacet
   facet normal 0.278248 0.858288 0.431184
      outer loop
         vertex -0.00892198 0.0295407 0.00871265
         vertex -0.00881572 0.0295083 0.0087084
         vertex -0.00881397 0.0295152 0.00869085
      endloop
   endfacet
   facet normal 0.290918 0.893613 0.341792
      outer loop
         vertex -0.00881397 0.0295152 0.00869085
         vertex -0.00892015 0.0295504 0.0086894
         vertex -0.00892016 0.0295503 0.00868963
      endloop
   endfacet
   facet normal 0.269692 0.838047 0.474282
      outer loop
         vertex -0.00841826 0.0293673 0.00873252
         vertex -0.00812754 0.0292731 0.00873661
         vertex -0.00812714 0.0292777 0.00872851
      endloop
   endfacet
   facet normal 0.270673 0.837648 0.474428
      outer loop
         vertex -0.0088179 0.0294995 0.00872668
         vertex -0.00841826 0.0293673 0.00873252
         vertex -0.00841647 0.0293763 0.00871423
      endloop
   endfacet
   facet normal 0.281264 0.867167 0.41099
      outer loop
         vertex -0.00881572 0.0295083 0.0087084
         vertex -0.00892198 0.0295407 0.00871265
         vertex -0.00892323 0.029534 0.00872507
      endloop
   endfacet
   facet normal 0.257247 0.803521 0.536822
      outer loop
         vertex -0.00842059 0.0293558 0.00875242
         vertex -0.00812836 0.0292635 0.00875356
         vertex -0.00812754 0.0292731 0.00873661
      endloop
   endfacet
   facet normal 0.258426 0.803089 0.536902
      outer loop
         vertex -0.00882072 0.0294881 0.00874657
         vertex -0.00842059 0.0293558 0.00875242
         vertex -0.00841826 0.0293673 0.00873252
      endloop
   endfacet
   facet normal 0.270673 0.837648 0.474428
      outer loop
         vertex -0.0088179 0.0294995 0.00872668
         vertex -0.00892323 0.029534 0.00872507
         vertex -0.0089246 0.0295268 0.00873861
      endloop
   endfacet
   facet normal 0.243055 0.763593 0.598206
      outer loop
         vertex -0.00842349 0.0293416 0.00877328
         vertex -0.00812992 0.0292469 0.00877744
         vertex -0.00812836 0.0292635 0.00875356
      endloop
   endfacet
   facet normal 0.244402 0.763157 0.598213
      outer loop
         vertex -0.00882421 0.0294741 0.00876743
         vertex -0.00842349 0.0293416 0.00877328
         vertex -0.00842059 0.0293558 0.00875242
      endloop
   endfacet
   facet normal 0.244725 0.763186 0.598044
      outer loop
         vertex -0.00892814 0.0295084 0.00876594
         vertex -0.00882421 0.0294741 0.00876743
         vertex -0.00882072 0.0294881 0.00874657
      endloop
   endfacet
   facet normal 0.226976 0.717786 0.658229
      outer loop
         vertex -0.00842699 0.029325 0.00879417
         vertex -0.00813013 0.0292446 0.00878073
         vertex -0.00812992 0.0292469 0.00877744
      endloop
   endfacet
   facet normal 0.226976 0.717786 0.658229
      outer loop
         vertex -0.00842699 0.029325 0.00879417
         vertex -0.0081317 0.0292297 0.00879816
         vertex -0.00813013 0.0292446 0.00878073
      endloop
   endfacet
   facet normal 0.22844 0.717378 0.658167
      outer loop
         vertex -0.00882834 0.0294577 0.00878832
         vertex -0.00842699 0.029325 0.00879417
         vertex -0.00842349 0.0293416 0.00877328
      endloop
   endfacet
   facet normal 0.243399 0.759388 0.603396
      outer loop
         vertex -0.00892838 0.0295071 0.00876786
         vertex -0.00893289 0.0294848 0.00879486
         vertex -0.00882834 0.0294577 0.00878832
      endloop
   endfacet
   facet normal 0.244402 0.763157 0.598213
      outer loop
         vertex -0.00882421 0.0294741 0.00876743
         vertex -0.00892814 0.0295084 0.00876594
         vertex -0.00892838 0.0295071 0.00876786
      endloop
   endfacet
   facet normal 0.209395 0.667149 0.714888
      outer loop
         vertex -0.00843092 0.029307 0.00881364
         vertex -0.00813259 0.0292212 0.00880806
         vertex -0.0081317 0.0292297 0.00879816
      endloop
   endfacet
   facet normal 0.209395 0.667149 0.714888
      outer loop
         vertex -0.00843092 0.029307 0.00881364
         vertex -0.00813352 0.0292131 0.00881636
         vertex -0.00813259 0.0292212 0.00880806
      endloop
   endfacet
   facet normal 0.210905 0.666801 0.71477
      outer loop
         vertex -0.00883292 0.0294399 0.00880779
         vertex -0.00843092 0.029307 0.00881364
         vertex -0.00842699 0.029325 0.00879417
      endloop
   endfacet
   facet normal 0.22844 0.717378 0.658167
      outer loop
         vertex -0.00882834 0.0294577 0.00878832
         vertex -0.00893386 0.0294801 0.00879988
         vertex -0.00893527 0.0294735 0.00880611
      endloop
   endfacet
   facet normal 0.22844 0.717378 0.658167
      outer loop
         vertex -0.00882834 0.0294577 0.00878832
         vertex -0.00893289 0.0294848 0.00879486
         vertex -0.00893386 0.0294801 0.00879988
      endloop
   endfacet
   facet normal 0.190927 0.613457 0.766301
      outer loop
         vertex -0.00843528 0.0292876 0.00883153
         vertex -0.0081362 0.0291916 0.0088356
         vertex -0.00813352 0.0292131 0.00881636
      endloop
   endfacet
   facet normal 0.192407 0.61319 0.766144
      outer loop
         vertex -0.00883792 0.0294207 0.00882568
         vertex -0.00843528 0.0292876 0.00883153
         vertex -0.00843092 0.029307 0.00881364
      endloop
   endfacet
   facet normal 0.210905 0.666801 0.71477
      outer loop
         vertex -0.00883292 0.0294399 0.00880779
         vertex -0.00893527 0.0294735 0.00880611
         vertex -0.00893941 0.0294543 0.00882433
      endloop
   endfacet
   facet normal 0.171003 0.55507 0.814036
      outer loop
         vertex -0.00844012 0.029267 0.00884789
         vertex -0.00813681 0.0291867 0.00883994
         vertex -0.0081362 0.0291916 0.0088356
      endloop
   endfacet
   facet normal 0.171003 0.55507 0.814036
      outer loop
         vertex -0.00844012 0.029267 0.00884789
         vertex -0.00813913 0.0291704 0.0088518
         vertex -0.00813681 0.0291867 0.00883994
      endloop
   endfacet
   facet normal 0.172382 0.554901 0.813861
      outer loop
         vertex -0.00884337 0.0294003 0.00884204
         vertex -0.00844012 0.029267 0.00884789
         vertex -0.00843528 0.0292876 0.00883153
      endloop
   endfacet
   facet normal 0.192407 0.61319 0.766144
      outer loop
         vertex -0.00883792 0.0294207 0.00882568
         vertex -0.00893941 0.0294543 0.00882433
         vertex -0.00894412 0.0294335 0.00884042
      endloop
   endfacet
   facet normal 0.149243 0.490868 0.858356
      outer loop
         vertex -0.00844531 0.0292458 0.00886214
         vertex -0.00814087 0.0291582 0.00886069
         vertex -0.00813913 0.0291704 0.0088518
      endloop
   endfacet
   facet normal 0.150454 0.490801 0.858183
      outer loop
         vertex -0.00884912 0.0293793 0.00885629
         vertex -0.00844531 0.0292458 0.00886214
         vertex -0.00844012 0.029267 0.00884789
      endloop
   endfacet
   facet normal 0.167277 0.539184 0.825409
      outer loop
         vertex -0.00894529 0.0294284 0.00884441
         vertex -0.00895108 0.0294044 0.00885964
         vertex -0.00884912 0.0293793 0.00885629
      endloop
   endfacet
   facet normal 0.172382 0.554901 0.813861
      outer loop
         vertex -0.00884337 0.0294003 0.00884204
         vertex -0.00894412 0.0294335 0.00884042
         vertex -0.00894529 0.0294284 0.00884441
      endloop
   endfacet
   facet normal 0.128777 0.430164 0.893518
      outer loop
         vertex -0.00844991 0.0292279 0.00887233
         vertex -0.00814489 0.0291333 0.00887526
         vertex -0.00814087 0.0291582 0.00886069
      endloop
   endfacet
   facet normal 0.128777 0.430164 0.893518
      outer loop
         vertex -0.00844991 0.0292279 0.00887233
         vertex -0.00814538 0.0291306 0.0088765
         vertex -0.00814489 0.0291333 0.00887526
      endloop
   endfacet
   facet normal 0.129805 0.43018 0.893362
      outer loop
         vertex -0.00885413 0.0293615 0.00886648
         vertex -0.00844991 0.0292279 0.00887233
         vertex -0.00844531 0.0292458 0.00886214
      endloop
   endfacet
   facet normal 0.150454 0.490801 0.858183
      outer loop
         vertex -0.00884912 0.0293793 0.00885629
         vertex -0.00895108 0.0294044 0.00885964
         vertex -0.00895367 0.0293944 0.0088648
      endloop
   endfacet
   facet normal 0.107702 0.367395 0.923808
      outer loop
         vertex -0.00845427 0.0292116 0.00888007
         vertex -0.00814889 0.0291113 0.00888548
         vertex -0.00814538 0.0291306 0.0088765
      endloop
   endfacet
   facet normal 0.108534 0.367472 0.92368
      outer loop
         vertex -0.00885881 0.0293453 0.00887421
         vertex -0.00845427 0.0292116 0.00888007
         vertex -0.00844991 0.0292279 0.00887233
      endloop
   endfacet
   facet normal 0.108534 0.367472 0.92368
      outer loop
         vertex -0.00885881 0.0293453 0.00887421
         vertex -0.00885413 0.0293615 0.00886648
         vertex -0.00895679 0.0293822 0.00887101
      endloop
   endfacet
   facet normal 0.129805 0.43018 0.893362
      outer loop
         vertex -0.00885413 0.0293615 0.00886648
         vertex -0.00895367 0.0293944 0.0088648
         vertex -0.00895679 0.0293822 0.00887101
      endloop
   endfacet
   facet normal 0.0837777 0.295874 0.951546
      outer loop
         vertex -0.00845906 0.0291945 0.00888661
         vertex -0.00815192 0.0290965 0.00889062
         vertex -0.00814889 0.0291113 0.00888548
      endloop
   endfacet
   facet normal 0.0843934 0.295992 0.951455
      outer loop
         vertex -0.00886387 0.0293283 0.00888075
         vertex -0.00845906 0.0291945 0.00888661
         vertex -0.00845427 0.0292116 0.00888007
      endloop
   endfacet
   facet normal 0.108534 0.367472 0.92368
      outer loop
         vertex -0.00885881 0.0293453 0.00887421
         vertex -0.00895791 0.0293781 0.00887263
         vertex -0.00896249 0.0293614 0.00887922
      endloop
   endfacet
   facet normal 0.0620769 0.230772 0.971026
      outer loop
         vertex -0.0084638 0.0291782 0.0088914
         vertex -0.00815358 0.0290884 0.00889345
         vertex -0.00815192 0.0290965 0.00889062
      endloop
   endfacet
   facet normal 0.062501 0.230903 0.970967
      outer loop
         vertex -0.0088688 0.0293121 0.00888555
         vertex -0.0084638 0.0291782 0.0088914
         vertex -0.00845906 0.0291945 0.00888661
      endloop
   endfacet
   facet normal 0.0843934 0.295992 0.951455
      outer loop
         vertex -0.00886387 0.0293283 0.00888075
         vertex -0.00896249 0.0293614 0.00887922
         vertex -0.00896733 0.0293447 0.00888393
      endloop
   endfacet
   facet normal 0.0410744 0.167585 0.985002
      outer loop
         vertex -0.00846905 0.0291609 0.00889519
         vertex -0.00815856 0.0290662 0.00889878
         vertex -0.00815358 0.0290884 0.00889345
      endloop
   endfacet
   facet normal 0.0410744 0.167585 0.985002
      outer loop
         vertex -0.00846905 0.0291609 0.00889519
         vertex -0.00815951 0.0290623 0.00889932
         vertex -0.00815856 0.0290662 0.00889878
      endloop
   endfacet
   facet normal 0.0413259 0.167704 0.984971
      outer loop
         vertex -0.00887419 0.0292949 0.00888934
         vertex -0.00846905 0.0291609 0.00889519
         vertex -0.0084638 0.0291782 0.0088914
      endloop
   endfacet
   facet normal 0.062501 0.230903 0.970967
      outer loop
         vertex -0.0088688 0.0293121 0.00888555
         vertex -0.00896733 0.0293447 0.00888393
         vertex -0.00896889 0.0293394 0.00888546
      endloop
   endfacet
   facet normal 0.0177385 0.0972019 0.995107
      outer loop
         vertex -0.0084765 0.0291373 0.00889853
         vertex -0.00816544 0.0290382 0.00890272
         vertex -0.00815951 0.0290623 0.00889932
      endloop
   endfacet
   facet normal 0.0178256 0.0972753 0.995098
      outer loop
         vertex -0.00888176 0.0292713 0.00889268
         vertex -0.0084765 0.0291373 0.00889853
         vertex -0.00846905 0.0291609 0.00889519
      endloop
   endfacet
   facet normal 0.0178256 0.0972753 0.995098
      outer loop
         vertex -0.00888176 0.0292713 0.00889268
         vertex -0.00887419 0.0292949 0.00888934
         vertex -0.00897629 0.0293152 0.00888989
      endloop
   endfacet
   facet normal 0.0413259 0.167704 0.984971
      outer loop
         vertex -0.00887419 0.0292949 0.00888934
         vertex -0.00896889 0.0293394 0.00888546
         vertex -0.00897629 0.0293152 0.00888989
      endloop
   endfacet
   facet normal -7.5791e-13 0.0436196 0.999048
      outer loop
         vertex -0.00848586 0.0291086 0.00890055
         vertex -0.00816623 0.029035 0.00890317
         vertex -0.00816544 0.0290382 0.00890272
      endloop
   endfacet
   facet normal -7.5791e-13 0.0436196 0.999048
      outer loop
         vertex -0.00848586 0.0291086 0.00890055
         vertex -0.00817329 0.0290081 0.00890494
         vertex -0.00816623 0.029035 0.00890317
      endloop
   endfacet
   facet normal 0.0178256 0.0972753 0.995098
      outer loop
         vertex -0.00888176 0.0292713 0.00889268
         vertex -0.00889145 0.0292418 0.00889473
         vertex -0.00859297 0.029143 0.00889904
      endloop
   endfacet
   facet normal -7.5791e-13 0.0436196 0.999048
      outer loop
         vertex -0.00859297 0.029143 0.00889904
         vertex -0.0084765 0.0291373 0.00889853
         vertex -0.00888176 0.0292713 0.00889268
      endloop
   endfacet
   facet normal 0.0178256 0.0972753 0.995098
      outer loop
         vertex -0.00888176 0.0292713 0.00889268
         vertex -0.00897999 0.0293038 0.00889084
         vertex -0.00898955 0.0292742 0.00889332
      endloop
   endfacet
   facet normal 0.312533 0.947673 0.0651143
      outer loop
         vertex -0.00841172 0.0293978 0.00862233
         vertex -0.00812463 0.0293043 0.00862644
         vertex -0.00820389 0.0293301 0.00859085
      endloop
   endfacet
   facet normal 0.270131 0.960641 0.0647859
      outer loop
         vertex -0.00812463 0.0293043 0.00862644
         vertex -0.00816416 0.0293174 0.00859141
         vertex -0.00820389 0.0293301 0.00859085
      endloop
   endfacet
   facet normal 0.270131 0.960641 0.0647859
      outer loop
         vertex -0.00812463 0.0293043 0.00862644
         vertex -0.00812421 0.0293055 0.00859193
         vertex -0.00816416 0.0293174 0.00859141
      endloop
   endfacet
   facet normal 0.312511 0.947672 0.0652221
      outer loop
         vertex -0.00880994 0.0295295 0.00861655
         vertex -0.00841172 0.0293978 0.00862233
         vertex -0.00841114 0.0293986 0.00858786
      endloop
   endfacet
   facet normal 0.314007 0.949421 1.37293e-06
      outer loop
         vertex -0.0088093 0.0295303 0.00858211
         vertex -0.00891644 0.0295657 0.00858056
         vertex -0.00891692 0.0295651 0.008611
      endloop
   endfacet
   facet normal 0.312775 0.948249 0.054741
      outer loop
         vertex -0.00891692 0.0295651 0.008611
         vertex -0.00880994 0.0295295 0.00861655
         vertex -0.0088093 0.0295303 0.00858211
      endloop
   endfacet
   facet normal 0.312775 0.948249 0.054741
      outer loop
         vertex -0.00891692 0.0295651 0.008611
         vertex -0.00891703 0.0295647 0.00861502
         vertex -0.00880994 0.0295295 0.00861655
      endloop
   endfacet
   facet normal 0.314076 0.949398 -9.77248e-06
      outer loop
         vertex -0.00841114 0.0293986 0.00858786
         vertex -0.0088093 0.0295303 0.00858211
         vertex -0.00880994 0.0295295 0.00861655
      endloop
   endfacet
   facet normal 0.310587 0.950545 -7.72501e-07
      outer loop
         vertex -0.00820389 0.0293301 0.00859085
         vertex -0.00841114 0.0293986 0.00858786
         vertex -0.00841172 0.0293978 0.00862233
      endloop
   endfacet
   facet normal -5.14028e-12 0.0436196 0.999048
      outer loop
         vertex -0.00898955 0.0292742 0.00889332
         vertex -0.00889145 0.0292418 0.00889473
         vertex -0.00888176 0.0292713 0.00889268
      endloop
   endfacet
   facet normal -7.5791e-13 0.0436196 0.999048
      outer loop
         vertex -0.00859297 0.029143 0.00889904
         vertex -0.00848586 0.0291086 0.00890055
         vertex -0.0084765 0.0291373 0.00889853
      endloop
   endfacet
   facet normal 0.0145848 0.0979356 0.995086
      outer loop
         vertex -0.00816544 0.0290382 0.00890272
         vertex -0.0084765 0.0291373 0.00889853
         vertex -0.00848586 0.0291086 0.00890055
      endloop
   endfacet
   facet normal 0.0282171 0.128423 0.991318
      outer loop
         vertex -0.00897629 0.0293152 0.00888989
         vertex -0.00897999 0.0293038 0.00889084
         vertex -0.00888176 0.0292713 0.00889268
      endloop
   endfacet
   facet normal 0.0410744 0.167585 0.985002
      outer loop
         vertex -0.00846905 0.0291609 0.00889519
         vertex -0.00887419 0.0292949 0.00888934
         vertex -0.00888176 0.0292713 0.00889268
      endloop
   endfacet
   facet normal 0.0338795 0.169309 0.984981
      outer loop
         vertex -0.00815951 0.0290623 0.00889932
         vertex -0.00846905 0.0291609 0.00889519
         vertex -0.0084765 0.0291373 0.00889853
      endloop
   endfacet
   facet normal 0.0555453 0.21003 0.976116
      outer loop
         vertex -0.00896889 0.0293394 0.00888546
         vertex -0.00887419 0.0292949 0.00888934
         vertex -0.0088688 0.0293121 0.00888555
      endloop
   endfacet
   facet normal 0.0620769 0.230772 0.971026
      outer loop
         vertex -0.0084638 0.0291782 0.0088914
         vertex -0.0088688 0.0293121 0.00888555
         vertex -0.00887419 0.0292949 0.00888934
      endloop
   endfacet
   facet normal 0.0602867 0.266098 0.962059
      outer loop
         vertex -0.00815358 0.0290884 0.00889345
         vertex -0.0084638 0.0291782 0.0088914
         vertex -0.00846905 0.0291609 0.00889519
      endloop
   endfacet
   facet normal 0.0624561 0.230597 0.971043
      outer loop
         vertex -0.00896733 0.0293447 0.00888393
         vertex -0.0088688 0.0293121 0.00888555
         vertex -0.00886387 0.0293283 0.00888075
      endloop
   endfacet
   facet normal 0.0837777 0.295874 0.951546
      outer loop
         vertex -0.00845906 0.0291945 0.00888661
         vertex -0.00886387 0.0293283 0.00888075
         vertex -0.0088688 0.0293121 0.00888555
      endloop
   endfacet
   facet normal 0.0694587 0.299454 0.951579
      outer loop
         vertex -0.00815192 0.0290965 0.00889062
         vertex -0.00845906 0.0291945 0.00888661
         vertex -0.0084638 0.0291782 0.0088914
      endloop
   endfacet
   facet normal 0.0848646 0.297099 0.951068
      outer loop
         vertex -0.00896249 0.0293614 0.00887922
         vertex -0.00886387 0.0293283 0.00888075
         vertex -0.00885881 0.0293453 0.00887421
      endloop
   endfacet
   facet normal 0.107702 0.367395 0.923808
      outer loop
         vertex -0.00845427 0.0292116 0.00888007
         vertex -0.00885881 0.0293453 0.00887421
         vertex -0.00886387 0.0293283 0.00888075
      endloop
   endfacet
   facet normal 0.0864131 0.360713 0.928665
      outer loop
         vertex -0.00814889 0.0291113 0.00888548
         vertex -0.00845427 0.0292116 0.00888007
         vertex -0.00845906 0.0291945 0.00888661
      endloop
   endfacet
   facet normal 0.114133 0.383537 0.916446
      outer loop
         vertex -0.00895679 0.0293822 0.00887101
         vertex -0.00895791 0.0293781 0.00887263
         vertex -0.00885881 0.0293453 0.00887421
      endloop
   endfacet
   facet normal 0.128777 0.430164 0.893518
      outer loop
         vertex -0.00844991 0.0292279 0.00887233
         vertex -0.00885413 0.0293615 0.00886648
         vertex -0.00885881 0.0293453 0.00887421
      endloop
   endfacet
   facet normal 0.107438 0.435773 0.893621
      outer loop
         vertex -0.00814538 0.0291306 0.0088765
         vertex -0.00844991 0.0292279 0.00887233
         vertex -0.00845427 0.0292116 0.00888007
      endloop
   endfacet
   facet normal 0.129874 0.429815 0.893528
      outer loop
         vertex -0.00895367 0.0293944 0.0088648
         vertex -0.00885413 0.0293615 0.00886648
         vertex -0.00884912 0.0293793 0.00885629
      endloop
   endfacet
   facet normal 0.149243 0.490868 0.858356
      outer loop
         vertex -0.00844531 0.0292458 0.00886214
         vertex -0.00884912 0.0293793 0.00885629
         vertex -0.00885413 0.0293615 0.00886648
      endloop
   endfacet
   facet normal 0.133158 0.525764 0.840144
      outer loop
         vertex -0.00814087 0.0291582 0.00886069
         vertex -0.00844531 0.0292458 0.00886214
         vertex -0.00844991 0.0292279 0.00887233
      endloop
   endfacet
   facet normal 0.150454 0.490801 0.858183
      outer loop
         vertex -0.00884912 0.0293793 0.00885629
         vertex -0.00884337 0.0294003 0.00884204
         vertex -0.00894529 0.0294284 0.00884441
      endloop
   endfacet
   facet normal 0.171003 0.55507 0.814036
      outer loop
         vertex -0.00844012 0.029267 0.00884789
         vertex -0.00884337 0.0294003 0.00884204
         vertex -0.00884912 0.0293793 0.00885629
      endloop
   endfacet
   facet normal 0.143892 0.562636 0.814086
      outer loop
         vertex -0.00813913 0.0291704 0.0088518
         vertex -0.00844012 0.029267 0.00884789
         vertex -0.00844531 0.0292458 0.00886214
      endloop
   endfacet
   facet normal 0.172585 0.554641 0.813995
      outer loop
         vertex -0.00894412 0.0294335 0.00884042
         vertex -0.00884337 0.0294003 0.00884204
         vertex -0.00883792 0.0294207 0.00882568
      endloop
   endfacet
   facet normal 0.190927 0.613457 0.766301
      outer loop
         vertex -0.00843528 0.0292876 0.00883153
         vertex -0.00883792 0.0294207 0.00882568
         vertex -0.00884337 0.0294003 0.00884204
      endloop
   endfacet
   facet normal 0.161424 0.621939 0.766247
      outer loop
         vertex -0.0081362 0.0291916 0.0088356
         vertex -0.00843528 0.0292876 0.00883153
         vertex -0.00844012 0.029267 0.00884789
      endloop
   endfacet
   facet normal 0.19259 0.612773 0.766432
      outer loop
         vertex -0.00893941 0.0294543 0.00882433
         vertex -0.00883792 0.0294207 0.00882568
         vertex -0.00883292 0.0294399 0.00880779
      endloop
   endfacet
   facet normal 0.209395 0.667149 0.714888
      outer loop
         vertex -0.00843092 0.029307 0.00881364
         vertex -0.00883292 0.0294399 0.00880779
         vertex -0.00883792 0.0294207 0.00882568
      endloop
   endfacet
   facet normal 0.179166 0.680822 0.710198
      outer loop
         vertex -0.00813352 0.0292131 0.00881636
         vertex -0.00843092 0.029307 0.00881364
         vertex -0.00843528 0.0292876 0.00883153
      endloop
   endfacet
   facet normal 0.21121 0.666696 0.714777
      outer loop
         vertex -0.00893527 0.0294735 0.00880611
         vertex -0.00883292 0.0294399 0.00880779
         vertex -0.00882834 0.0294577 0.00878832
      endloop
   endfacet
   facet normal 0.226976 0.717786 0.658229
      outer loop
         vertex -0.00842699 0.029325 0.00879417
         vertex -0.00882834 0.0294577 0.00878832
         vertex -0.00883292 0.0294399 0.00880779
      endloop
   endfacet
   facet normal 0.193583 0.727857 0.657837
      outer loop
         vertex -0.0081317 0.0292297 0.00879816
         vertex -0.00842699 0.029325 0.00879417
         vertex -0.00843092 0.029307 0.00881364
      endloop
   endfacet
   facet normal 0.22844 0.717378 0.658167
      outer loop
         vertex -0.00882834 0.0294577 0.00878832
         vertex -0.00882421 0.0294741 0.00876743
         vertex -0.00892838 0.0295071 0.00876786
      endloop
   endfacet
   facet normal 0.243055 0.763593 0.598206
      outer loop
         vertex -0.00842349 0.0293416 0.00877328
         vertex -0.00882421 0.0294741 0.00876743
         vertex -0.00882834 0.0294577 0.00878832
      endloop
   endfacet
   facet normal 0.208087 0.774311 0.597613
      outer loop
         vertex -0.00812992 0.0292469 0.00877744
         vertex -0.00842349 0.0293416 0.00877328
         vertex -0.00842699 0.029325 0.00879417
      endloop
   endfacet
   facet normal 0.258426 0.803089 0.536902
      outer loop
         vertex -0.00882072 0.0294881 0.00874657
         vertex -0.0089246 0.0295268 0.00873861
         vertex -0.00892814 0.0295084 0.00876594
      endloop
   endfacet
   facet normal 0.257247 0.803521 0.536822
      outer loop
         vertex -0.00842059 0.0293558 0.00875242
         vertex -0.00882072 0.0294881 0.00874657
         vertex -0.00882421 0.0294741 0.00876743
      endloop
   endfacet
   facet normal 0.222739 0.820423 0.526587
      outer loop
         vertex -0.00812836 0.0292635 0.00875356
         vertex -0.00842059 0.0293558 0.00875242
         vertex -0.00842349 0.0293416 0.00877328
      endloop
   endfacet
   facet normal 0.262831 0.814835 0.516686
      outer loop
         vertex -0.0089246 0.0295268 0.00873861
         vertex -0.00882072 0.0294881 0.00874657
         vertex -0.0088179 0.0294995 0.00872668
      endloop
   endfacet
   facet normal 0.269692 0.838047 0.474282
      outer loop
         vertex -0.00841826 0.0293673 0.00873252
         vertex -0.0088179 0.0294995 0.00872668
         vertex -0.00882072 0.0294881 0.00874657
      endloop
   endfacet
   facet normal 0.232171 0.849715 0.473372
      outer loop
         vertex -0.00812754 0.0292731 0.00873661
         vertex -0.00841826 0.0293673 0.00873252
         vertex -0.00842059 0.0293558 0.00875242
      endloop
   endfacet
   facet normal 0.27093 0.837744 0.474111
      outer loop
         vertex -0.00892323 0.029534 0.00872507
         vertex -0.0088179 0.0294995 0.00872668
         vertex -0.00881572 0.0295083 0.0087084
      endloop
   endfacet
   facet normal 0.280484 0.867513 0.410791
      outer loop
         vertex -0.00841647 0.0293763 0.00871423
         vertex -0.00881572 0.0295083 0.0087084
         vertex -0.0088179 0.0294995 0.00872668
      endloop
   endfacet
   facet normal 0.23661 0.863396 0.445603
      outer loop
         vertex -0.00812714 0.0292777 0.00872851
         vertex -0.00841647 0.0293763 0.00871423
         vertex -0.00841826 0.0293673 0.00873252
      endloop
   endfacet
   facet normal 0.290918 0.893613 0.341792
      outer loop
         vertex -0.00881397 0.0295152 0.00869085
         vertex -0.00892016 0.0295503 0.00868963
         vertex -0.00892198 0.0295407 0.00871265
      endloop
   endfacet
   facet normal 0.290342 0.893889 0.34156
      outer loop
         vertex -0.00841505 0.0293833 0.00869668
         vertex -0.00881397 0.0295152 0.00869085
         vertex -0.00881572 0.0295083 0.0087084
      endloop
   endfacet
   facet normal 0.250654 0.90619 0.340576
      outer loop
         vertex -0.00812615 0.0292896 0.00870083
         vertex -0.00841505 0.0293833 0.00869668
         vertex -0.00841647 0.0293763 0.00871423
      endloop
   endfacet
   facet normal 0.298818 0.91471 0.272055
      outer loop
         vertex -0.00881264 0.0295204 0.00867446
         vertex -0.00891873 0.0295576 0.00866546
         vertex -0.00892015 0.0295504 0.0086894
      endloop
   endfacet
   facet normal 0.298426 0.914909 0.271815
      outer loop
         vertex -0.00841397 0.0293885 0.00868027
         vertex -0.00881264 0.0295204 0.00867446
         vertex -0.00881397 0.0295152 0.00869085
      endloop
   endfacet
   facet normal 0.258174 0.928519 0.266829
      outer loop
         vertex -0.00812565 0.0292954 0.00868349
         vertex -0.00841397 0.0293885 0.00868027
         vertex -0.00841505 0.0293833 0.00869668
      endloop
   endfacet
   facet normal 0.30186 0.922529 0.240461
      outer loop
         vertex -0.00891873 0.0295576 0.00866546
         vertex -0.00881264 0.0295204 0.00867446
         vertex -0.00881154 0.0295244 0.00865716
      endloop
   endfacet
   facet normal 0.304845 0.93089 0.201276
      outer loop
         vertex -0.00841306 0.0293927 0.00866296
         vertex -0.00881154 0.0295244 0.00865716
         vertex -0.00881264 0.0295204 0.00867446
      endloop
   endfacet
   facet normal 0.263456 0.943603 0.200509
      outer loop
         vertex -0.0081253 0.0292991 0.00866709
         vertex -0.00841306 0.0293927 0.00866296
         vertex -0.00841397 0.0293885 0.00868027
      endloop
   endfacet
   facet normal 0.305102 0.930827 0.201182
      outer loop
         vertex -0.00891832 0.0295595 0.00865563
         vertex -0.00881154 0.0295244 0.00865716
         vertex -0.00881063 0.0295275 0.00863809
      endloop
   endfacet
   facet normal 0.309577 0.941824 0.130881
      outer loop
         vertex -0.00841231 0.0293958 0.00864388
         vertex -0.00881063 0.0295275 0.00863809
         vertex -0.00881154 0.0295244 0.00865716
      endloop
   endfacet
   facet normal 0.265143 0.948235 0.174784
      outer loop
         vertex -0.00812515 0.0293006 0.00866043
         vertex -0.00841231 0.0293958 0.00864388
         vertex -0.00841306 0.0293927 0.00866296
      endloop
   endfacet
   facet normal 0.309658 0.941773 0.131056
      outer loop
         vertex -0.00881063 0.0295275 0.00863809
         vertex -0.00880994 0.0295295 0.00861655
         vertex -0.00891703 0.0295647 0.00861502
      endloop
   endfacet
   facet normal 0.312533 0.947673 0.0651143
      outer loop
         vertex -0.00841172 0.0293978 0.00862233
         vertex -0.00880994 0.0295295 0.00861655
         vertex -0.00881063 0.0295275 0.00863809
      endloop
   endfacet
   facet normal 0.269342 0.958926 0.0889698
      outer loop
         vertex -0.00812474 0.029304 0.00863509
         vertex -0.00812463 0.0293043 0.00862644
         vertex -0.00841172 0.0293978 0.00862233
      endloop
   endfacet
endsolid 1111. Units = meters