solid 1111. STL generated by ONSHAPE BY PTC INC, 1.216. Units = meters
   facet normal 0 0.0436194 -0.999048
      outer loop
         vertex -0.00239421 0.0248936 -0.0210646
         vertex -0.000574633 0.0243768 -0.0210872
         vertex -0.00119317 0.0243768 -0.0210872
      endloop
   endfacet
   facet normal 0 0.0436194 -0.999048
      outer loop
         vertex -0.000574633 0.0243768 -0.0210872
         vertex -0.000315885 0.0229064 -0.0211514
         vertex -0.000931593 0.0229064 -0.0211514
      endloop
   endfacet
   facet normal 0 0.0436194 -0.999048
      outer loop
         vertex -0.000931593 0.0229064 -0.0211514
         vertex -0.00119317 0.0243768 -0.0210872
         vertex -0.000574633 0.0243768 -0.0210872
      endloop
   endfacet
   facet normal 0 0.0436194 -0.999048
      outer loop
         vertex -0.000134572 0.0248936 -0.0210646
         vertex 0.000359002 0.0243768 -0.0210872
         vertex -0.000574633 0.0243768 -0.0210872
      endloop
   endfacet
   facet normal 0 0.0436194 -0.999048
      outer loop
         vertex -0.000574633 0.0243768 -0.0210872
         vertex -0.00239421 0.0248936 -0.0210646
         vertex -0.000134572 0.0248936 -0.0210646
      endloop
   endfacet
   facet normal 0 0.0436194 -0.999048
      outer loop
         vertex -0.00119317 0.0243768 -0.0210872
         vertex -0.00190064 0.0243768 -0.0210872
         vertex -0.00239421 0.0248936 -0.0210646
      endloop
   endfacet
endsolid 1111. Units = meters