solid 1111. STL generated by ONSHAPE BY PTC INC, 1.216. Units = meters
   facet normal 0.185313 0.0428875 0.981743
      outer loop
         vertex -0.0223597 0.00284646 0.0226611
         vertex -0.0223597 0.0203149 0.0219018
         vertex -0.02271 0.0203149 0.0219561
      endloop
   endfacet
   facet normal 0.191489 0.0428359 0.98056
      outer loop
         vertex -0.0227332 0.00284641 0.022724
         vertex -0.02271 0.0203149 0.0219561
         vertex -0.0240283 0.0203148 0.0222438
      endloop
   endfacet
   facet normal 0.270714 0.0420162 0.961742
      outer loop
         vertex -0.0276602 0.0203149 0.0232169
         vertex -0.0276601 0.00284628 0.0239801
         vertex -0.0250882 0.00284606 0.0232756
      endloop
   endfacet
   facet normal 0.253757 0.0422168 0.966346
      outer loop
         vertex -0.0250882 0.00284606 0.0232756
         vertex -0.0240283 0.0203148 0.0222438
         vertex -0.0276602 0.0203149 0.0232169
      endloop
   endfacet
   facet normal 0.234734 0.0424254 0.971133
      outer loop
         vertex -0.0240283 0.0203148 0.0222438
         vertex -0.0250882 0.00284606 0.0232756
         vertex -0.0227332 0.00284641 0.022724
      endloop
   endfacet
   facet normal 0.185313 0.0428875 0.981743
      outer loop
         vertex -0.0223597 0.00284646 0.0226611
         vertex -0.020455 0.00284671 0.0223406
         vertex -0.0208457 0.0203149 0.0216673
      endloop
   endfacet
   facet normal 0.143115 0.0431929 0.988763
      outer loop
         vertex -0.020455 0.00284671 0.0223406
         vertex -0.0204512 0.0203149 0.0216061
         vertex -0.0208457 0.0203149 0.0216673
      endloop
   endfacet
   facet normal 0.133867 0.0432491 0.990055
      outer loop
         vertex -0.020134 0.00284676 0.0222866
         vertex -0.0178206 0.00284609 0.0220659
         vertex -0.018934 0.0203149 0.0213996
      endloop
   endfacet
   facet normal 0.094049 0.0434473 0.994619
      outer loop
         vertex -0.018934 0.0203149 0.0213996
         vertex -0.0191781 0.0203149 0.0214089
         vertex -0.020134 0.00284676 0.0222866
      endloop
   endfacet
   facet normal 0.0530766 0.0435781 0.997639
      outer loop
         vertex -0.0178206 0.00284609 0.0220659
         vertex -0.0174932 0.0203149 0.0213448
         vertex -0.018934 0.0203149 0.0213996
      endloop
   endfacet
   facet normal 0.102709 0.0434102 0.993764
      outer loop
         vertex -0.0191781 0.0203149 0.0214089
         vertex -0.0204512 0.0203149 0.0216061
         vertex -0.020134 0.00284676 0.0222866
      endloop
   endfacet
   facet normal 0.143115 0.0431929 0.988763
      outer loop
         vertex -0.0204512 0.0203149 0.0216061
         vertex -0.020455 0.00284671 0.0223406
         vertex -0.020134 0.00284676 0.0222866
      endloop
   endfacet
   facet normal 0.00595745 0.0436375 0.99903
      outer loop
         vertex -0.0160379 0.0203149 0.0212895
         vertex -0.0153769 0.0162089 0.0214338
         vertex -0.0151186 0.0162934 0.0214301
      endloop
   endfacet
   facet normal -6.06205e-07 0.0436381 0.999047
      outer loop
         vertex -0.0151186 0.0162934 0.0214301
         vertex -0.0151186 0.0203149 0.0212545
         vertex -0.0160379 0.0203149 0.0212895
      endloop
   endfacet
   facet normal 0.00166672 0.0436381 0.999046
      outer loop
         vertex -0.0156191 0.0161001 0.0214388
         vertex -0.0153769 0.0162089 0.0214338
         vertex -0.0170034 0.0203149 0.0213262
      endloop
   endfacet
   facet normal 0.0417627 0.0436012 0.998176
      outer loop
         vertex -0.0174932 0.0203149 0.0213448
         vertex -0.016044 0.0158252 0.0214523
         vertex -0.0158569 0.0159616 0.0214454
      endloop
   endfacet
   facet normal 0.0417627 0.0436012 0.998176
      outer loop
         vertex -0.0174932 0.0203149 0.0213448
         vertex -0.016912 0.0144393 0.021525
         vertex -0.0168581 0.0146373 0.0215151
      endloop
   endfacet
   facet normal 0.0224876 0.0436277 0.998795
      outer loop
         vertex -0.0168581 0.0146373 0.0215151
         vertex -0.0167798 0.0148492 0.0215042
         vertex -0.0174932 0.0203149 0.0213448
      endloop
   endfacet
   facet normal 0.0204659 0.0436296 0.998838
      outer loop
         vertex -0.0167798 0.0148492 0.0215042
         vertex -0.0166776 0.0150625 0.0214929
         vertex -0.0174932 0.0203149 0.0213448
      endloop
   endfacet
   facet normal 0.0179581 0.0436316 0.998886
      outer loop
         vertex -0.0166776 0.0150625 0.0214929
         vertex -0.016554 0.0152674 0.0214819
         vertex -0.0174932 0.0203149 0.0213448
      endloop
   endfacet
   facet normal 0.0151363 0.0436336 0.998933
      outer loop
         vertex -0.016554 0.0152674 0.0214819
         vertex -0.016411 0.0154598 0.0214715
         vertex -0.0174932 0.0203149 0.0213448
      endloop
   endfacet
   facet normal 0.0417627 0.0436012 0.998176
      outer loop
         vertex -0.0174932 0.0203149 0.0213448
         vertex -0.0169568 0.0141768 0.0215376
         vertex -0.016912 0.0144393 0.021525
      endloop
   endfacet
   facet normal 0.0417627 0.0436012 0.998176
      outer loop
         vertex -0.0174947 0.00284611 0.02206
         vertex -0.0169763 0.00947746 0.0217433
         vertex -0.0169756 0.0130762 0.0215861
      endloop
   endfacet
   facet normal 0.0256823 0.0436245 0.998718
      outer loop
         vertex -0.0169756 0.0130762 0.0215861
         vertex -0.0174932 0.0203149 0.0213448
         vertex -0.0174947 0.00284611 0.02206
      endloop
   endfacet
   facet normal 0.0417627 0.0436012 0.998176
      outer loop
         vertex -0.0174947 0.00284611 0.02206
         vertex -0.0169731 0.00854936 0.0217838
         vertex -0.0169763 0.00947746 0.0217433
      endloop
   endfacet
   facet normal 0.0256823 0.0436245 0.998718
      outer loop
         vertex -0.0169756 0.0130762 0.0215861
         vertex -0.0169759 0.0139028 0.02155
         vertex -0.0174932 0.0203149 0.0213448
      endloop
   endfacet
   facet normal 0.0256883 0.0436244 0.998718
      outer loop
         vertex -0.0169759 0.0139028 0.02155
         vertex -0.0169568 0.0141768 0.0215376
         vertex -0.0174932 0.0203149 0.0213448
      endloop
   endfacet
   facet normal 0.0417627 0.0436012 0.998176
      outer loop
         vertex -0.0174947 0.00284611 0.02206
         vertex -0.0168984 0.00805881 0.0218034
         vertex -0.0169468 0.00829868 0.0217941
      endloop
   endfacet
   facet normal 0.0417627 0.0436012 0.998176
      outer loop
         vertex -0.0174947 0.00284611 0.02206
         vertex -0.0168266 0.00782488 0.021812
         vertex -0.0168984 0.00805881 0.0218034
      endloop
   endfacet
   facet normal 0.0417627 0.0436012 0.998176
      outer loop
         vertex -0.0174947 0.00284611 0.02206
         vertex -0.0167298 0.00759449 0.0218201
         vertex -0.0168266 0.00782488 0.021812
      endloop
   endfacet
   facet normal 0.0248844 0.0436253 0.998738
      outer loop
         vertex -0.0169468 0.00829868 0.0217941
         vertex -0.0169731 0.00854936 0.0217838
         vertex -0.0174947 0.00284611 0.02206
      endloop
   endfacet
   facet normal 0.0417627 0.0436012 0.998176
      outer loop
         vertex -0.0174947 0.00284611 0.02206
         vertex -0.0163369 0.00700707 0.0218399
         vertex -0.0164826 0.00718536 0.0218339
      endloop
   endfacet
   facet normal 0.0417627 0.0436012 0.998176
      outer loop
         vertex -0.0174947 0.00284611 0.02206
         vertex -0.0161742 0.00684229 0.0218456
         vertex -0.0163369 0.00700707 0.0218399
      endloop
   endfacet
   facet normal 0.0417627 0.0436012 0.998176
      outer loop
         vertex -0.0174947 0.00284611 0.02206
         vertex -0.0159931 0.00669028 0.021851
         vertex -0.0161742 0.00684229 0.0218456
      endloop
   endfacet
   facet normal 0.0417627 0.0436012 0.998176
      outer loop
         vertex -0.0174947 0.00284611 0.02206
         vertex -0.0157917 0.00655151 0.0218562
         vertex -0.0159931 0.00669028 0.021851
      endloop
   endfacet
   facet normal 0.0136169 0.0436345 0.998955
      outer loop
         vertex -0.0164826 0.00718536 0.0218339
         vertex -0.0166073 0.00736981 0.0218277
         vertex -0.0174947 0.00284611 0.02206
      endloop
   endfacet
   facet normal 0.0417627 0.0436012 0.998176
      outer loop
         vertex -0.0174947 0.00284611 0.02206
         vertex -0.0155718 0.00643012 0.0218611
         vertex -0.0157917 0.00655151 0.0218562
      endloop
   endfacet
   facet normal 0.0163297 0.0436328 0.998914
      outer loop
         vertex -0.0166073 0.00736981 0.0218277
         vertex -0.0167298 0.00759449 0.0218201
         vertex -0.0174947 0.00284611 0.02206
      endloop
   endfacet
   facet normal 0.0121649 0.0436352 0.998973
      outer loop
         vertex -0.016411 0.0154598 0.0214715
         vertex -0.0162412 0.0156474 0.0214616
         vertex -0.0174932 0.0203149 0.0213448
      endloop
   endfacet
   facet normal 0.0417627 0.0436012 0.998176
      outer loop
         vertex -0.0174947 0.00284611 0.02206
         vertex -0.0151186 0.00284628 0.0220173
         vertex -0.0151186 0.00626116 0.0218682
      endloop
   endfacet
   facet normal -6.31208e-07 0.0436381 0.999047
      outer loop
         vertex -0.0151186 0.00626116 0.0218682
         vertex -0.015349 0.00633551 0.021865
         vertex -0.0174947 0.00284611 0.02206
      endloop
   endfacet
   facet normal 0.000330944 0.0436381 0.999047
      outer loop
         vertex -0.015349 0.00633551 0.021865
         vertex -0.0155718 0.00643012 0.0218611
         vertex -0.0174947 0.00284611 0.02206
      endloop
   endfacet
   facet normal 0.00905798 0.0436366 0.999006
      outer loop
         vertex -0.0162412 0.0156474 0.0214616
         vertex -0.016044 0.0158252 0.0214523
         vertex -0.0174932 0.0203149 0.0213448
      endloop
   endfacet
   facet normal 0.00375913 0.0436379 0.99904
      outer loop
         vertex -0.0158569 0.0159616 0.0214454
         vertex -0.0156191 0.0161001 0.0214388
         vertex -0.0174932 0.0203149 0.0213448
      endloop
   endfacet
   facet normal 0.0264984 0.0436235 0.998697
      outer loop
         vertex -0.0170034 0.0203149 0.0213262
         vertex -0.0174932 0.0203149 0.0213448
         vertex -0.0156191 0.0161001 0.0214388
      endloop
   endfacet
   facet normal 0.00595745 0.0436375 0.99903
      outer loop
         vertex -0.0160379 0.0203149 0.0212895
         vertex -0.0170034 0.0203149 0.0213262
         vertex -0.0153769 0.0162089 0.0214338
      endloop
   endfacet
   facet normal 0.0530766 0.0435781 0.997639
      outer loop
         vertex -0.0178206 0.00284609 0.0220659
         vertex -0.0174947 0.00284611 0.02206
         vertex -0.0174932 0.0203149 0.0213448
      endloop
   endfacet
   facet normal 0.153551 0.0431249 0.987199
      outer loop
         vertex -0.0208457 0.0203149 0.0216673
         vertex -0.0223597 0.0203149 0.0219018
         vertex -0.0223597 0.00284646 0.0226611
      endloop
   endfacet
   facet normal 0.191085 0.0428394 0.980638
      outer loop
         vertex -0.02271 0.0203149 0.0219561
         vertex -0.0227332 0.00284641 0.022724
         vertex -0.0223597 0.00284646 0.0226611
      endloop
   endfacet
   facet normal 0 0.0436194 0.999048
      outer loop
         vertex -0.0151186 0.00252916 0.0220311
         vertex 0.012162 0.00400218 0.0219668
         vertex 0.00735172 0.00617724 0.0218718
      endloop
   endfacet
   facet normal 0 0.0436194 0.999048
      outer loop
         vertex 0.00735172 0.00617724 0.0218718
         vertex -0.0141326 0.00617723 0.0218718
         vertex -0.0151186 0.00252916 0.0220311
      endloop
   endfacet
   facet normal 0 0.0436194 0.999048
      outer loop
         vertex 0.0135436 0.0259475 0.0210086
         vertex 0.0202936 0.0259475 0.0210086
         vertex 0.0178275 0.0280338 0.0209175
      endloop
   endfacet
   facet normal 0 0.0436194 0.999048
      outer loop
         vertex 0.0118744 0.0242813 0.0210814
         vertex 0.00890332 0.0159612 0.0214446
         vertex 0.00910825 0.0158086 0.0214513
      endloop
   endfacet
   facet normal 0 0.0436194 0.999048
      outer loop
         vertex 0.0118838 0.0244555 0.0210738
         vertex -0.0151186 0.0280347 0.0209175
         vertex -0.0055702 0.0163772 0.0214265
      endloop
   endfacet
   facet normal 0 0.0436194 0.999048
      outer loop
         vertex -0.0151186 0.0280347 0.0209175
         vertex -0.0139313 0.0163775 0.0214265
         vertex -0.0127369 0.0163772 0.0214265
      endloop
   endfacet
   facet normal 0 0.0436194 0.999048
      outer loop
         vertex 0.012162 0.00400218 0.0219668
         vertex 0.00766404 0.00618127 0.0218716
         vertex 0.00735172 0.00617724 0.0218718
      endloop
   endfacet
   facet normal 0 0.0436194 0.999048
      outer loop
         vertex 0.0202936 0.0259475 0.0210086
         vertex 0.0193683 0.0280342 0.0209175
         vertex 0.0178275 0.0280338 0.0209175
      endloop
   endfacet
   facet normal 0 0.0436194 0.999048
      outer loop
         vertex 0.0118744 0.0242813 0.0210814
         vertex 0.00870223 0.016082 0.0214394
         vertex 0.00890332 0.0159612 0.0214446
      endloop
   endfacet
   facet normal 0 0.0436194 0.999048
      outer loop
         vertex 0.00847877 0.0161875 0.0214348
         vertex 0.00870223 0.016082 0.0214394
         vertex 0.0118744 0.0242813 0.0210814
      endloop
   endfacet
   facet normal 0 0.0436194 0.999048
      outer loop
         vertex 0.0118838 0.0244555 0.0210738
         vertex 0.00798644 0.0163342 0.0214284
         vertex 0.00824061 0.0162718 0.0214311
      endloop
   endfacet
   facet normal 0 0.0436194 0.999048
      outer loop
         vertex -0.0055702 0.0163772 0.0214265
         vertex 0.00561147 0.0163772 0.0214265
         vertex 0.0118838 0.0244555 0.0210738
      endloop
   endfacet
   facet normal 0 0.0436194 0.999048
      outer loop
         vertex -0.0127369 0.0163772 0.0214265
         vertex -0.010348 0.0163771 0.0214265
         vertex -0.0151186 0.0280347 0.0209175
      endloop
   endfacet
   facet normal 0 0.0436194 0.999048
      outer loop
         vertex -0.0146064 0.00618117 0.0218716
         vertex -0.0148586 0.00620681 0.0218705
         vertex -0.0151186 0.00284628 0.0220173
      endloop
   endfacet
   facet normal 0 0.0436194 0.999048
      outer loop
         vertex -0.0141326 0.00617723 0.0218718
         vertex -0.0144752 0.00617723 0.0218718
         vertex -0.0151186 0.00252916 0.0220311
      endloop
   endfacet
   facet normal 0 0.0436194 0.999048
      outer loop
         vertex 0.0178275 0.0280338 0.0209175
         vertex 0.0156424 0.0280334 0.0209176
         vertex 0.0135436 0.0259475 0.0210086
      endloop
   endfacet
   facet normal 0 0.0436194 0.999048
      outer loop
         vertex 0.00918538 0.0280329 0.0209176
         vertex 0.0124274 0.0255194 0.0210273
         vertex 0.0125632 0.0256291 0.0210225
      endloop
   endfacet
   facet normal 0 0.0436194 0.999048
      outer loop
         vertex 0.0118744 0.0242813 0.0210814
         vertex 0.0118838 0.0244555 0.0210738
         vertex 0.00847877 0.0161875 0.0214348
      endloop
   endfacet
   facet normal 0 0.0436194 0.999048
      outer loop
         vertex 0.0118838 0.0244555 0.0210738
         vertex 0.00775709 0.0163666 0.0214269
         vertex 0.00798644 0.0163342 0.0214284
      endloop
   endfacet
   facet normal 0 0.0436194 0.999048
      outer loop
         vertex -0.010348 0.0163771 0.0214265
         vertex -0.0055702 0.0163772 0.0214265
         vertex -0.0151186 0.0280347 0.0209175
      endloop
   endfacet
   facet normal 0 0.0436194 0.999048
      outer loop
         vertex -0.0144752 0.00617723 0.0218718
         vertex -0.0146064 0.00618117 0.0218716
         vertex -0.0151186 0.00252916 0.0220311
      endloop
   endfacet
   facet normal 0 0.0436194 0.999048
      outer loop
         vertex 0.00926823 0.00688639 0.0218409
         vertex 0.012162 0.00400218 0.0219668
         vertex 0.0120648 0.00415222 0.0219602
      endloop
   endfacet
   facet normal 0 0.0436194 0.999048
      outer loop
         vertex 0.0120648 0.00415222 0.0219602
         vertex 0.00970917 0.00746208 0.0218157
         vertex 0.00957908 0.007255 0.0218248
      endloop
   endfacet
   facet normal 0 0.0436194 0.999048
      outer loop
         vertex 0.0219997 0.00500633 0.0219229
         vertex 0.0265098 0.00252898 0.0220311
         vertex 0.0256889 0.0213222 0.0212106
      endloop
   endfacet
   facet normal 0 0.0436194 0.999048
      outer loop
         vertex 0.0218179 0.024959 0.0210518
         vertex 0.0218806 0.0247962 0.0210589
         vertex 0.0254467 0.0259421 0.0210089
      endloop
   endfacet
   facet normal 0 0.0436194 0.999048
      outer loop
         vertex 0.0217385 0.0251144 0.021045
         vertex 0.0247664 0.0273958 0.0209454
         vertex 0.0246309 0.0275075 0.0209405
      endloop
   endfacet
   facet normal 0 0.0436194 0.999048
      outer loop
         vertex 0.0202936 0.0259475 0.0210086
         vertex 0.0206161 0.0280346 0.0209175
         vertex 0.0193683 0.0280342 0.0209175
      endloop
   endfacet
   facet normal 0 0.0436194 0.999048
      outer loop
         vertex 0.0128703 0.028033 0.0209176
         vertex 0.00918538 0.0280329 0.0209176
         vertex 0.0127096 0.0257241 0.0210184
      endloop
   endfacet
   facet normal 0 0.0436194 0.999048
      outer loop
         vertex 0.00918538 0.0280329 0.0209176
         vertex 0.0123039 0.0253961 0.0210327
         vertex 0.0124274 0.0255194 0.0210273
      endloop
   endfacet
   facet normal 0 0.0436194 0.999048
      outer loop
         vertex 0.00824061 0.0162718 0.0214311
         vertex 0.00847877 0.0161875 0.0214348
         vertex 0.0118838 0.0244555 0.0210738
      endloop
   endfacet
   facet normal 0 0.0436194 0.999048
      outer loop
         vertex -0.0151186 0.0280347 0.0209175
         vertex -0.0145286 0.0163755 0.0214265
         vertex -0.0139313 0.0163775 0.0214265
      endloop
   endfacet
   facet normal 0 0.0436194 0.999048
      outer loop
         vertex -0.0145286 0.0163755 0.0214265
         vertex -0.0151186 0.024168 0.0210863
         vertex -0.0151186 0.0203149 0.0212545
      endloop
   endfacet
   facet normal 0 0.0436194 0.999048
      outer loop
         vertex 0.012162 0.00400218 0.0219668
         vertex 0.00792123 0.00620934 0.0218704
         vertex 0.00766404 0.00618127 0.0218716
      endloop
   endfacet
   facet normal 0 0.0436194 0.999048
      outer loop
         vertex 0.00957908 0.007255 0.0218248
         vertex 0.00942869 0.00705842 0.0218333
         vertex 0.0120648 0.00415222 0.0219602
      endloop
   endfacet
   facet normal 0 0.0436194 0.999048
      outer loop
         vertex 0.0120648 0.00415222 0.0219602
         vertex 0.00989659 0.00789179 0.021797
         vertex 0.00981105 0.00766744 0.0218068
      endloop
   endfacet
   facet normal 0 0.0436194 0.999048
      outer loop
         vertex 0.0256889 0.0213222 0.0212106
         vertex 0.0219629 0.0242813 0.0210814
         vertex 0.0219997 0.00500633 0.0219229
      endloop
   endfacet
   facet normal 0 0.0436194 0.999048
      outer loop
         vertex 0.0254467 0.0259421 0.0210089
         vertex 0.0218806 0.0247962 0.0210589
         vertex 0.021926 0.0246278 0.0210662
      endloop
   endfacet
   facet normal 0 0.0436194 0.999048
      outer loop
         vertex 0.0254467 0.0259421 0.0210089
         vertex 0.02537 0.0263323 0.0209918
         vertex 0.0218179 0.024959 0.0210518
      endloop
   endfacet
   facet normal 0 0.0436194 0.999048
      outer loop
         vertex 0.0217385 0.0251144 0.021045
         vertex 0.0218179 0.024959 0.0210518
         vertex 0.0252815 0.0266126 0.0209796
      endloop
   endfacet
   facet normal 0 0.0436194 0.999048
      outer loop
         vertex 0.0217385 0.0251144 0.021045
         vertex 0.0249018 0.027261 0.0209513
         vertex 0.0247664 0.0273958 0.0209454
      endloop
   endfacet
   facet normal 0 0.0436194 0.999048
      outer loop
         vertex 0.0217385 0.0251144 0.021045
         vertex 0.0250997 0.0270014 0.0209626
         vertex 0.025014 0.0271273 0.0209571
      endloop
   endfacet
   facet normal 0 0.0436194 0.999048
      outer loop
         vertex 0.0216433 0.0252606 0.0210386
         vertex 0.0243215 0.0276915 0.0209325
         vertex 0.0241059 0.0277796 0.0209286
      endloop
   endfacet
   facet normal 0 0.0436194 0.999048
      outer loop
         vertex 0.0216433 0.0252606 0.0210386
         vertex 0.0246309 0.0275075 0.0209405
         vertex 0.0244834 0.0276058 0.0209362
      endloop
   endfacet
   facet normal 0 0.0436194 0.999048
      outer loop
         vertex 0.0215334 0.0253961 0.0210327
         vertex 0.023786 0.0278767 0.0209244
         vertex 0.0234463 0.0279445 0.0209214
      endloop
   endfacet
   facet normal 0 0.0436194 0.999048
      outer loop
         vertex 0.0128703 0.028033 0.0209176
         vertex 0.0133693 0.0259383 0.021009
         vertex 0.0135436 0.0259475 0.0210086
      endloop
   endfacet
   facet normal 0 0.0436194 0.999048
      outer loop
         vertex 0.0125632 0.0256291 0.0210225
         vertex 0.0127096 0.0257241 0.0210184
         vertex 0.00918538 0.0280329 0.0209176
      endloop
   endfacet
   facet normal 0 0.0436194 0.999048
      outer loop
         vertex 0.0120988 0.0251144 0.021045
         vertex 0.012194 0.0252606 0.0210386
         vertex 0.00918538 0.0280329 0.0209176
      endloop
   endfacet
   facet normal 0 0.0436194 0.999048
      outer loop
         vertex 0.0118744 0.0242813 0.0210814
         vertex 0.00983533 0.014832 0.0214939
         vertex 0.00991408 0.0146086 0.0215037
      endloop
   endfacet
   facet normal 0 0.0436194 0.999048
      outer loop
         vertex 0.0118744 0.0242813 0.0210814
         vertex 0.00945626 0.015466 0.0214663
         vertex 0.00958042 0.0152965 0.0214737
      endloop
   endfacet
   facet normal 0 0.0436194 0.999048
      outer loop
         vertex 0.00910825 0.0158086 0.0214513
         vertex 0.00932153 0.0156155 0.0214597
         vertex 0.0118744 0.0242813 0.0210814
      endloop
   endfacet
   facet normal 0 0.0436194 0.999048
      outer loop
         vertex 0.00561147 0.0163772 0.0214265
         vertex 0.00738147 0.0163809 0.0214263
         vertex 0.0118838 0.0244555 0.0210738
      endloop
   endfacet
   facet normal 0 0.0436194 0.999048
      outer loop
         vertex -0.0145286 0.0163755 0.0214265
         vertex -0.0151186 0.0280347 0.0209175
         vertex -0.0151186 0.024168 0.0210863
      endloop
   endfacet
   facet normal 0 0.0436194 0.999048
      outer loop
         vertex 0.012162 0.00400218 0.0219668
         vertex 0.00815803 0.00625911 0.0218682
         vertex 0.00792123 0.00620934 0.0218704
      endloop
   endfacet
   facet normal 0 0.0436194 0.999048
      outer loop
         vertex 0.0120648 0.00415222 0.0219602
         vertex 0.00942869 0.00705842 0.0218333
         vertex 0.00926823 0.00688639 0.0218409
      endloop
   endfacet
   facet normal 0 0.0436194 0.999048
      outer loop
         vertex 0.0120648 0.00415222 0.0219602
         vertex 0.00996636 0.00814799 0.0217858
         vertex 0.00989659 0.00789179 0.021797
      endloop
   endfacet
   facet normal 0 0.0436194 0.999048
      outer loop
         vertex 0.0255135 0.0252766 0.0210379
         vertex 0.0219535 0.0244555 0.0210738
         vertex 0.0219629 0.0242813 0.0210814
      endloop
   endfacet
   facet normal 0 0.0436194 0.999048
      outer loop
         vertex 0.02537 0.0263323 0.0209918
         vertex 0.0252815 0.0266126 0.0209796
         vertex 0.0218179 0.024959 0.0210518
      endloop
   endfacet
   facet normal 0 0.0436194 0.999048
      outer loop
         vertex 0.0252815 0.0266126 0.0209796
         vertex 0.0251719 0.026869 0.0209684
         vertex 0.0217385 0.0251144 0.021045
      endloop
   endfacet
   facet normal 0 0.0436194 0.999048
      outer loop
         vertex 0.025014 0.0271273 0.0209571
         vertex 0.0249018 0.027261 0.0209513
         vertex 0.0217385 0.0251144 0.021045
      endloop
   endfacet
   facet normal 0 0.0436194 0.999048
      outer loop
         vertex 0.0244834 0.0276058 0.0209362
         vertex 0.0243215 0.0276915 0.0209325
         vertex 0.0216433 0.0252606 0.0210386
      endloop
   endfacet
   facet normal 0 0.0436194 0.999048
      outer loop
         vertex 0.0215334 0.0253961 0.0210327
         vertex 0.0241059 0.0277796 0.0209286
         vertex 0.023786 0.0278767 0.0209244
      endloop
   endfacet
   facet normal 0 0.0436194 0.999048
      outer loop
         vertex 0.0214098 0.0255194 0.0210273
         vertex 0.0234463 0.0279445 0.0209214
         vertex 0.0228176 0.0280084 0.0209186
      endloop
   endfacet
   facet normal 0 0.0436194 0.999048
      outer loop
         vertex 0.0211277 0.0257241 0.0210184
         vertex 0.0228176 0.0280084 0.0209186
         vertex 0.0219227 0.0280346 0.0209175
      endloop
   endfacet
   facet normal 0 0.0436194 0.999048
      outer loop
         vertex 0.0219227 0.0280346 0.0209175
         vertex 0.0206161 0.0280346 0.0209175
         vertex 0.0206404 0.025911 0.0210102
      endloop
   endfacet
   facet normal 0 0.0436194 0.999048
      outer loop
         vertex 0.0156424 0.0280334 0.0209176
         vertex 0.0128703 0.028033 0.0209176
         vertex 0.0135436 0.0259475 0.0210086
      endloop
   endfacet
   facet normal 0 0.0436194 0.999048
      outer loop
         vertex 0.0127096 0.0257241 0.0210184
         vertex 0.0128652 0.0258033 0.0210149
         vertex 0.0128703 0.028033 0.0209176
      endloop
   endfacet
   facet normal 0 0.0436194 0.999048
      outer loop
         vertex 0.00918538 0.0280329 0.0209176
         vertex 0.00407392 0.0280331 0.0209176
         vertex 0.0120988 0.0251144 0.021045
      endloop
   endfacet
   facet normal 0 0.0436194 0.999048
      outer loop
         vertex 0.0119113 0.0246278 0.0210662
         vertex 0.0119566 0.0247962 0.0210589
         vertex 0.00407392 0.0280331 0.0209176
      endloop
   endfacet
   facet normal 0 0.0436194 0.999048
      outer loop
         vertex 0.0118744 0.0242813 0.0210814
         vertex 0.00974452 0.0150246 0.0214855
         vertex 0.00983533 0.014832 0.0214939
      endloop
   endfacet
   facet normal 0 0.0436194 0.999048
      outer loop
         vertex 0.00932153 0.0156155 0.0214597
         vertex 0.00945626 0.015466 0.0214663
         vertex 0.0118744 0.0242813 0.0210814
      endloop
   endfacet
   facet normal 0 0.0436194 0.999048
      outer loop
         vertex -0.0151186 0.0203149 0.0212545
         vertex -0.0147927 0.0163573 0.0214273
         vertex -0.0145286 0.0163755 0.0214265
      endloop
   endfacet
   facet normal 0 0.0436194 0.999048
      outer loop
         vertex 0.012162 0.00400218 0.0219668
         vertex 0.00840115 0.00633637 0.0218649
         vertex 0.00815803 0.00625911 0.0218682
      endloop
   endfacet
   facet normal 0 0.0436194 0.999048
      outer loop
         vertex 0.012162 0.00400218 0.0219668
         vertex 0.00886077 0.00656515 0.0218549
         vertex 0.00863591 0.00643864 0.0218604
      endloop
   endfacet
   facet normal 0 0.0436194 0.999048
      outer loop
         vertex 0.00981105 0.00766744 0.0218068
         vertex 0.00970917 0.00746208 0.0218157
         vertex 0.0120648 0.00415222 0.0219602
      endloop
   endfacet
   facet normal 0 0.0436194 0.999048
      outer loop
         vertex 0.0256889 0.0213222 0.0212106
         vertex 0.0255135 0.0252766 0.0210379
         vertex 0.0219629 0.0242813 0.0210814
      endloop
   endfacet
   facet normal 0 0.0436194 0.999048
      outer loop
         vertex 0.0251719 0.026869 0.0209684
         vertex 0.0250997 0.0270014 0.0209626
         vertex 0.0217385 0.0251144 0.021045
      endloop
   endfacet
   facet normal 0 0.0436194 0.999048
      outer loop
         vertex 0.0241059 0.0277796 0.0209286
         vertex 0.0215334 0.0253961 0.0210327
         vertex 0.0216433 0.0252606 0.0210386
      endloop
   endfacet
   facet normal 0 0.0436194 0.999048
      outer loop
         vertex 0.0228176 0.0280084 0.0209186
         vertex 0.0212741 0.0256291 0.0210225
         vertex 0.0214098 0.0255194 0.0210273
      endloop
   endfacet
   facet normal 0 0.0436194 0.999048
      outer loop
         vertex 0.0219227 0.0280346 0.0209175
         vertex 0.0209721 0.0258033 0.0210149
         vertex 0.0211277 0.0257241 0.0210184
      endloop
   endfacet
   facet normal 0 0.0436194 0.999048
      outer loop
         vertex 0.0206404 0.025911 0.0210102
         vertex 0.0208091 0.0258658 0.0210122
         vertex 0.0219227 0.0280346 0.0209175
      endloop
   endfacet
   facet normal 0 0.0436194 0.999048
      outer loop
         vertex 0.0202936 0.0259475 0.0210086
         vertex 0.020468 0.0259383 0.021009
         vertex 0.0206161 0.0280346 0.0209175
      endloop
   endfacet
   facet normal 0 0.0436194 0.999048
      outer loop
         vertex 0.0128703 0.028033 0.0209176
         vertex 0.0130282 0.0258658 0.0210122
         vertex 0.0131968 0.025911 0.0210102
      endloop
   endfacet
   facet normal 0 0.0436194 0.999048
      outer loop
         vertex 0.012194 0.0252606 0.0210386
         vertex 0.0123039 0.0253961 0.0210327
         vertex 0.00918538 0.0280329 0.0209176
      endloop
   endfacet
   facet normal 0 0.0436194 0.999048
      outer loop
         vertex 0.00407392 0.0280331 0.0209176
         vertex -0.0151186 0.0280347 0.0209175
         vertex 0.0119113 0.0246278 0.0210662
      endloop
   endfacet
   facet normal 0 0.0436194 0.999048
      outer loop
         vertex 0.00991408 0.0146086 0.0215037
         vertex 0.00997786 0.0143515 0.0215149
         vertex 0.0118744 0.0242813 0.0210814
      endloop
   endfacet
   facet normal 0 0.0436194 0.999048
      outer loop
         vertex 0.00738147 0.0163809 0.0214263
         vertex 0.00775709 0.0163666 0.0214269
         vertex 0.0118838 0.0244555 0.0210738
      endloop
   endfacet
   facet normal 0 0.0436194 0.999048
      outer loop
         vertex 0.00863591 0.00643864 0.0218604
         vertex 0.00840115 0.00633637 0.0218649
         vertex 0.012162 0.00400218 0.0219668
      endloop
   endfacet
   facet normal 0 0.0436194 0.999048
      outer loop
         vertex 0.00926823 0.00688639 0.0218409
         vertex 0.00907649 0.00671813 0.0218482
         vertex 0.012162 0.00400218 0.0219668
      endloop
   endfacet
   facet normal 0 0.0436194 0.999048
      outer loop
         vertex -0.0151186 0.00252916 0.0220311
         vertex 0.0130156 0.0033809 0.0219939
         vertex 0.0128487 0.0034451 0.0219911
      endloop
   endfacet
   facet normal 0 0.0436194 0.999048
      outer loop
         vertex 0.0265098 0.00252898 0.0220311
         vertex 0.0202936 0.00329697 0.0219976
         vertex 0.0135436 0.00329697 0.0219976
      endloop
   endfacet
   facet normal 0 0.0436194 0.999048
      outer loop
         vertex 0.0265098 0.00252898 0.0220311
         vertex 0.0212978 0.00362392 0.0219833
         vertex 0.0211479 0.00352641 0.0219876
      endloop
   endfacet
   facet normal 0 0.0436194 0.999048
      outer loop
         vertex 0.0265098 0.00252898 0.0220311
         vertex 0.021563 0.00386312 0.0219729
         vertex 0.0214367 0.00373657 0.0219784
      endloop
   endfacet
   facet normal 0 0.0436194 0.999048
      outer loop
         vertex 0.0255135 0.0252766 0.0210379
         vertex 0.021926 0.0246278 0.0210662
         vertex 0.0219535 0.0244555 0.0210738
      endloop
   endfacet
   facet normal 0 0.0436194 0.999048
      outer loop
         vertex 0.0246309 0.0275075 0.0209405
         vertex 0.0216433 0.0252606 0.0210386
         vertex 0.0217385 0.0251144 0.021045
      endloop
   endfacet
   facet normal 0 0.0436194 0.999048
      outer loop
         vertex 0.0211277 0.0257241 0.0210184
         vertex 0.0212741 0.0256291 0.0210225
         vertex 0.0228176 0.0280084 0.0209186
      endloop
   endfacet
   facet normal 0 0.0436194 0.999048
      outer loop
         vertex 0.020468 0.0259383 0.021009
         vertex 0.0206404 0.025911 0.0210102
         vertex 0.0206161 0.0280346 0.0209175
      endloop
   endfacet
   facet normal 0 0.0436194 0.999048
      outer loop
         vertex 0.0128652 0.0258033 0.0210149
         vertex 0.0130282 0.0258658 0.0210122
         vertex 0.0128703 0.028033 0.0209176
      endloop
   endfacet
   facet normal 0 0.0436194 0.999048
      outer loop
         vertex 0.0119566 0.0247962 0.0210589
         vertex 0.0120194 0.024959 0.0210518
         vertex 0.00407392 0.0280331 0.0209176
      endloop
   endfacet
   facet normal 0 0.0436194 0.999048
      outer loop
         vertex 0.00958042 0.0152965 0.0214737
         vertex 0.00974452 0.0150246 0.0214855
         vertex 0.0118744 0.0242813 0.0210814
      endloop
   endfacet
   facet normal 0 0.0436194 0.999048
      outer loop
         vertex 0.00907649 0.00671813 0.0218482
         vertex 0.00886077 0.00656515 0.0218549
         vertex 0.012162 0.00400218 0.0219668
      endloop
   endfacet
   facet normal 0 0.0436194 0.999048
      outer loop
         vertex -0.0151186 0.00252916 0.0220311
         vertex 0.0131884 0.00333451 0.0219959
         vertex 0.0130156 0.0033809 0.0219939
      endloop
   endfacet
   facet normal 0 0.0436194 0.999048
      outer loop
         vertex 0.0135436 0.00329697 0.0219976
         vertex -0.0151186 0.00252916 0.0220311
         vertex 0.0265098 0.00252898 0.0220311
      endloop
   endfacet
   facet normal 0 0.0436194 0.999048
      outer loop
         vertex 0.0214367 0.00373657 0.0219784
         vertex 0.0212978 0.00362392 0.0219833
         vertex 0.0265098 0.00252898 0.0220311
      endloop
   endfacet
   facet normal 0 0.0436194 0.999048
      outer loop
         vertex 0.0265098 0.00252898 0.0220311
         vertex 0.0219172 0.00447856 0.021946
         vertex 0.0218534 0.0043116 0.0219533
      endloop
   endfacet
   facet normal 0 0.0436194 0.999048
      outer loop
         vertex 0.021926 0.0246278 0.0210662
         vertex 0.0255135 0.0252766 0.0210379
         vertex 0.0254467 0.0259421 0.0210089
      endloop
   endfacet
   facet normal 0 0.0436194 0.999048
      outer loop
         vertex 0.0208091 0.0258658 0.0210122
         vertex 0.0209721 0.0258033 0.0210149
         vertex 0.0219227 0.0280346 0.0209175
      endloop
   endfacet
   facet normal 0 0.0436194 0.999048
      outer loop
         vertex 0.0120194 0.024959 0.0210518
         vertex 0.0120988 0.0251144 0.021045
         vertex 0.00407392 0.0280331 0.0209176
      endloop
   endfacet
   facet normal 0 0.0436194 0.999048
      outer loop
         vertex 0.00997786 0.0143515 0.0215149
         vertex 0.0100131 0.0141028 0.0215258
         vertex 0.0118744 0.0242813 0.0210814
      endloop
   endfacet
   facet normal 0 0.0436194 0.999048
      outer loop
         vertex -0.0151186 0.00252916 0.0220311
         vertex 0.0122743 0.00386312 0.0219729
         vertex 0.012162 0.00400218 0.0219668
      endloop
   endfacet
   facet normal 0 0.0436194 0.999048
      outer loop
         vertex -0.0151186 0.00252916 0.0220311
         vertex 0.0125395 0.00362392 0.0219833
         vertex 0.0124006 0.00373657 0.0219784
      endloop
   endfacet
   facet normal 0 0.0436194 0.999048
      outer loop
         vertex 0.0128487 0.0034451 0.0219911
         vertex 0.0126894 0.00352641 0.0219876
         vertex -0.0151186 0.00252916 0.0220311
      endloop
   endfacet
   facet normal 0 0.0436194 0.999048
      outer loop
         vertex 0.0135436 0.00329697 0.0219976
         vertex 0.013365 0.00330643 0.0219972
         vertex -0.0151186 0.00252916 0.0220311
      endloop
   endfacet
   facet normal 0 0.0436194 0.999048
      outer loop
         vertex 0.0265098 0.00252898 0.0220311
         vertex 0.0208217 0.0033809 0.0219939
         vertex 0.0206489 0.00333451 0.0219959
      endloop
   endfacet
   facet normal 0 0.0436194 0.999048
      outer loop
         vertex 0.0211479 0.00352641 0.0219876
         vertex 0.0209886 0.0034451 0.0219911
         vertex 0.0265098 0.00252898 0.0220311
      endloop
   endfacet
   facet normal 0 0.0436194 0.999048
      outer loop
         vertex 0.0218534 0.0043116 0.0219533
         vertex 0.0217725 0.00415222 0.0219602
         vertex 0.0265098 0.00252898 0.0220311
      endloop
   endfacet
   facet normal 0 0.0436194 0.999048
      outer loop
         vertex 0.0234463 0.0279445 0.0209214
         vertex 0.0214098 0.0255194 0.0210273
         vertex 0.0215334 0.0253961 0.0210327
      endloop
   endfacet
   facet normal 0 0.0436194 0.999048
      outer loop
         vertex 0.0118838 0.0244555 0.0210738
         vertex 0.0119113 0.0246278 0.0210662
         vertex -0.0151186 0.0280347 0.0209175
      endloop
   endfacet
   facet normal 0 0.0436194 0.999048
      outer loop
         vertex 0.0124006 0.00373657 0.0219784
         vertex 0.0122743 0.00386312 0.0219729
         vertex -0.0151186 0.00252916 0.0220311
      endloop
   endfacet
   facet normal 0 0.0436194 0.999048
      outer loop
         vertex 0.013365 0.00330643 0.0219972
         vertex 0.0131884 0.00333451 0.0219959
         vertex -0.0151186 0.00252916 0.0220311
      endloop
   endfacet
   facet normal 0 0.0436194 0.999048
      outer loop
         vertex 0.0118376 0.00500633 0.0219229
         vertex 0.0100237 0.0123858 0.0216007
         vertex 0.010023 0.0101083 0.0217002
      endloop
   endfacet
   facet normal 0 0.0436194 0.999048
      outer loop
         vertex 0.0118376 0.00500633 0.0219229
         vertex 0.0118744 0.0242813 0.0210814
         vertex 0.0100131 0.0141028 0.0215258
      endloop
   endfacet
   facet normal 0 0.0436194 0.999048
      outer loop
         vertex 0.0209886 0.0034451 0.0219911
         vertex 0.0208217 0.0033809 0.0219939
         vertex 0.0265098 0.00252898 0.0220311
      endloop
   endfacet
   facet normal 0 0.0436194 0.999048
      outer loop
         vertex 0.0217725 0.00415222 0.0219602
         vertex 0.0216753 0.00400218 0.0219668
         vertex 0.0265098 0.00252898 0.0220311
      endloop
   endfacet
   facet normal 0 0.0436194 0.999048
      outer loop
         vertex 0.0265098 0.00252898 0.0220311
         vertex 0.0219907 0.00482784 0.0219307
         vertex 0.0219631 0.00465128 0.0219384
      endloop
   endfacet
   facet normal 0 0.0436194 0.999048
      outer loop
         vertex 0.0131968 0.025911 0.0210102
         vertex 0.0133693 0.0259383 0.021009
         vertex 0.0128703 0.028033 0.0209176
      endloop
   endfacet
   facet normal 0 0.0436194 0.999048
      outer loop
         vertex 0.0126894 0.00352641 0.0219876
         vertex 0.0125395 0.00362392 0.0219833
         vertex -0.0151186 0.00252916 0.0220311
      endloop
   endfacet
   facet normal 0 0.0436194 0.999048
      outer loop
         vertex 0.0100083 0.0084077 0.0217744
         vertex 0.0118466 0.00482784 0.0219307
         vertex 0.0118376 0.00500633 0.0219229
      endloop
   endfacet
   facet normal 0 0.0436194 0.999048
      outer loop
         vertex 0.0100131 0.0141028 0.0215258
         vertex 0.0100237 0.0123858 0.0216007
         vertex 0.0118376 0.00500633 0.0219229
      endloop
   endfacet
   facet normal 0 0.0436194 0.999048
      outer loop
         vertex 0.0100083 0.0084077 0.0217744
         vertex 0.0119839 0.0043116 0.0219533
         vertex 0.0119201 0.00447856 0.021946
      endloop
   endfacet
   facet normal 0 0.0436194 0.999048
      outer loop
         vertex 0.0216753 0.00400218 0.0219668
         vertex 0.021563 0.00386312 0.0219729
         vertex 0.0265098 0.00252898 0.0220311
      endloop
   endfacet
   facet normal 0 0.0436194 0.999048
      outer loop
         vertex 0.0219997 0.00500633 0.0219229
         vertex 0.0219907 0.00482784 0.0219307
         vertex 0.0265098 0.00252898 0.0220311
      endloop
   endfacet
   facet normal 0 0.0436194 0.999048
      outer loop
         vertex -0.0151186 0.00284628 0.0220173
         vertex -0.0151186 0.00252916 0.0220311
         vertex -0.0146064 0.00618117 0.0218716
      endloop
   endfacet
   facet normal 0 0.0436194 0.999048
      outer loop
         vertex 0.00996636 0.00814799 0.0217858
         vertex 0.0120648 0.00415222 0.0219602
         vertex 0.0119839 0.0043116 0.0219533
      endloop
   endfacet
   facet normal 0 0.0436194 0.999048
      outer loop
         vertex 0.010023 0.0101083 0.0217002
         vertex 0.010025 0.00872515 0.0217606
         vertex 0.0118376 0.00500633 0.0219229
      endloop
   endfacet
   facet normal 0 0.0436194 0.999048
      outer loop
         vertex 0.0119201 0.00447856 0.021946
         vertex 0.0118742 0.00465128 0.0219384
         vertex 0.0100083 0.0084077 0.0217744
      endloop
   endfacet
   facet normal 0 0.0436194 0.999048
      outer loop
         vertex 0.0219631 0.00465128 0.0219384
         vertex 0.0219172 0.00447856 0.021946
         vertex 0.0265098 0.00252898 0.0220311
      endloop
   endfacet
   facet normal 0 0.0436194 0.999048
      outer loop
         vertex 0.0119839 0.0043116 0.0219533
         vertex 0.0100083 0.0084077 0.0217744
         vertex 0.00996636 0.00814799 0.0217858
      endloop
   endfacet
   facet normal 0 0.0436194 0.999048
      outer loop
         vertex 0.0118742 0.00465128 0.0219384
         vertex 0.0118466 0.00482784 0.0219307
         vertex 0.0100083 0.0084077 0.0217744
      endloop
   endfacet
   facet normal 0 0.0436194 0.999048
      outer loop
         vertex 0.0206489 0.00333451 0.0219959
         vertex 0.0204723 0.00330643 0.0219972
         vertex 0.0265098 0.00252898 0.0220311
      endloop
   endfacet
   facet normal 0 0.0436194 0.999048
      outer loop
         vertex -0.0151186 0.0203149 0.0212545
         vertex -0.0151186 0.0162934 0.0214301
         vertex -0.0150271 0.0163159 0.0214292
      endloop
   endfacet
   facet normal 0 0.0436194 0.999048
      outer loop
         vertex 0.0118376 0.00500633 0.0219229
         vertex 0.010025 0.00872515 0.0217606
         vertex 0.0100083 0.0084077 0.0217744
      endloop
   endfacet
   facet normal 0 0.0436194 0.999048
      outer loop
         vertex -0.0150271 0.0163159 0.0214292
         vertex -0.0147927 0.0163573 0.0214273
         vertex -0.0151186 0.0203149 0.0212545
      endloop
   endfacet
   facet normal 0 0.0436194 0.999048
      outer loop
         vertex 0.0204723 0.00330643 0.0219972
         vertex 0.0202936 0.00329697 0.0219976
         vertex 0.0265098 0.00252898 0.0220311
      endloop
   endfacet
   facet normal 0 0.0436194 0.999048
      outer loop
         vertex -0.0148586 0.00620681 0.0218705
         vertex -0.0151186 0.00626116 0.0218682
         vertex -0.0151186 0.00284628 0.0220173
      endloop
   endfacet
   facet normal 0.163738 0.0731473 0.983788
      outer loop
         vertex -0.0209414 0.0269891 0.0212985
         vertex -0.0199846 0.0261956 0.0212108
         vertex -0.0201336 0.0284582 0.0210463
      endloop
   endfacet
   facet normal 0.172936 0.122799 0.977248
      outer loop
         vertex -0.0210662 0.0293213 0.0210932
         vertex -0.0219386 0.0290982 0.0212911
         vertex -0.0218958 0.027844 0.0214047
      endloop
   endfacet
   facet normal 0.172936 0.122799 0.977248
      outer loop
         vertex -0.0210662 0.0293213 0.0210932
         vertex -0.0219971 0.0302228 0.0211531
         vertex -0.0219386 0.0290982 0.0212911
      endloop
   endfacet
   facet normal 0.216043 0.150094 0.964778
      outer loop
         vertex -0.0219971 0.0302228 0.0211531
         vertex -0.0210662 0.0293213 0.0210932
         vertex -0.0211651 0.0303951 0.0209588
      endloop
   endfacet
   facet normal 0.023694 0.0460076 0.99866
      outer loop
         vertex -0.0170654 0.0244562 0.0210881
         vertex -0.0162845 0.0280832 0.0209155
         vertex -0.0169727 0.0281946 0.0209113
      endloop
   endfacet
   facet normal 0.00509668 0.0438911 0.999023
      outer loop
         vertex -0.0160695 0.0242242 0.0210854
         vertex -0.0162726 0.0280825 0.0209156
         vertex -0.0162845 0.0280832 0.0209155
      endloop
   endfacet
   facet normal 0.000534441 0.0442928 0.999018
      outer loop
         vertex -0.0162845 0.0280832 0.0209155
         vertex -0.0170654 0.0244562 0.0210881
         vertex -0.0160695 0.0242242 0.0210854
      endloop
   endfacet
   facet normal 0.0553526 0.0510423 0.997161
      outer loop
         vertex -0.0180523 0.024876 0.0211059
         vertex -0.0176288 0.0283731 0.0209051
         vertex -0.0182217 0.0286008 0.0208985
      endloop
   endfacet
   facet normal 0.0553526 0.0510423 0.997161
      outer loop
         vertex -0.0180523 0.024876 0.0211059
         vertex -0.0170654 0.0244562 0.0210881
         vertex -0.0174412 0.028322 0.0209069
      endloop
   endfacet
   facet normal 0.00482722 0.0499701 0.998739
      outer loop
         vertex -0.0174412 0.028322 0.0209069
         vertex -0.0176288 0.0283731 0.0209051
         vertex -0.0180523 0.024876 0.0211059
      endloop
   endfacet
   facet normal 0.0944863 0.0579433 0.993838
      outer loop
         vertex -0.019024 0.025474 0.0211459
         vertex -0.0187576 0.0288711 0.0208926
         vertex -0.0192265 0.0291707 0.0208884
      endloop
   endfacet
   facet normal 0.0944863 0.0579433 0.993838
      outer loop
         vertex -0.019024 0.025474 0.0211459
         vertex -0.0180523 0.024876 0.0211059
         vertex -0.0185091 0.0287458 0.0208954
      endloop
   endfacet
   facet normal 0.0229278 0.0666769 0.997511
      outer loop
         vertex -0.0185091 0.0287458 0.0208954
         vertex -0.0187576 0.0288711 0.0208926
         vertex -0.019024 0.025474 0.0211459
      endloop
   endfacet
   facet normal 0.0944863 0.0579433 0.993838
      outer loop
         vertex -0.019024 0.025474 0.0211459
         vertex -0.0194486 0.0293449 0.0208869
         vertex -0.0201336 0.0284582 0.0210463
      endloop
   endfacet
   facet normal 0.0677924 0.0956926 0.9931
      outer loop
         vertex -0.0194486 0.0293449 0.0208869
         vertex -0.0197479 0.0295799 0.0208849
         vertex -0.0201336 0.0284582 0.0210463
      endloop
   endfacet
   facet normal 0.130581 0.0986369 0.986519
      outer loop
         vertex -0.0201336 0.0284582 0.0210463
         vertex -0.0199846 0.0261956 0.0212108
         vertex -0.019024 0.025474 0.0211459
      endloop
   endfacet
   facet normal 0.119879 0.13537 0.983516
      outer loop
         vertex -0.0204828 0.0302734 0.0208761
         vertex -0.0212375 0.0310679 0.0208586
         vertex -0.0211651 0.0303951 0.0209588
      endloop
   endfacet
   facet normal 0.172936 0.122799 0.977248
      outer loop
         vertex -0.0210662 0.0293213 0.0210932
         vertex -0.0201336 0.0284582 0.0210463
         vertex -0.0203391 0.0301377 0.0208778
      endloop
   endfacet
   facet normal 0.112663 0.129389 0.985173
      outer loop
         vertex -0.0203391 0.0301377 0.0208778
         vertex -0.0204828 0.0302734 0.0208761
         vertex -0.0210662 0.0293213 0.0210932
      endloop
   endfacet
   facet normal 0.217522 0.192068 0.956971
      outer loop
         vertex -0.0220751 0.0312843 0.0209818
         vertex -0.0211651 0.0303951 0.0209588
         vertex -0.0212375 0.0310679 0.0208586
      endloop
   endfacet
   facet normal 0.207891 0.218485 0.953439
      outer loop
         vertex -0.022139 0.0320171 0.0208376
         vertex -0.0226948 0.0320399 0.0209679
         vertex -0.0226917 0.0318928 0.0209944
      endloop
   endfacet
   facet normal 0.207891 0.218485 0.953439
      outer loop
         vertex -0.022139 0.0320171 0.0208376
         vertex -0.0227172 0.0326259 0.0208242
         vertex -0.0227075 0.0323734 0.0208861
      endloop
   endfacet
   facet normal 0.246435 0.241609 0.93856
      outer loop
         vertex -0.0227075 0.0323734 0.0208861
         vertex -0.0226948 0.0320399 0.0209679
         vertex -0.022139 0.0320171 0.0208376
      endloop
   endfacet
   facet normal 0.217522 0.192068 0.956971
      outer loop
         vertex -0.0220751 0.0312843 0.0209818
         vertex -0.0226861 0.0316316 0.0210413
         vertex -0.0226702 0.0308802 0.0211764
      endloop
   endfacet
   facet normal 0.217522 0.192068 0.956971
      outer loop
         vertex -0.0220751 0.0312843 0.0209818
         vertex -0.0226917 0.0318928 0.0209944
         vertex -0.0226861 0.0316316 0.0210413
      endloop
   endfacet
   facet normal 0.216043 0.150094 0.964778
      outer loop
         vertex -0.0219971 0.0302228 0.0211531
         vertex -0.0226497 0.0299112 0.0213507
         vertex -0.0226497 0.029799 0.0213611
      endloop
   endfacet
   facet normal 0.216043 0.150094 0.964778
      outer loop
         vertex -0.0219971 0.0302228 0.0211531
         vertex -0.0226702 0.0308802 0.0211764
         vertex -0.0226545 0.0301385 0.0213098
      endloop
   endfacet
   facet normal 0.234686 0.137458 0.962303
      outer loop
         vertex -0.0226545 0.0301385 0.0213098
         vertex -0.0226497 0.0299112 0.0213507
         vertex -0.0219971 0.0302228 0.0211531
      endloop
   endfacet
   facet normal 0.211229 0.0876934 0.973495
      outer loop
         vertex -0.0226495 0.0285479 0.0214774
         vertex -0.0218958 0.027844 0.0214047
         vertex -0.0219386 0.0290982 0.0212911
      endloop
   endfacet
   facet normal 0.185023 0.0429887 0.981794
      outer loop
         vertex -0.0223597 0.0203149 0.0219018
         vertex -0.0226762 0.0237688 0.021795
         vertex -0.0227093 0.0203804 0.0219529
      endloop
   endfacet
   facet normal 0.191071 0.0429413 0.980637
      outer loop
         vertex -0.0227093 0.0203804 0.0219529
         vertex -0.02271 0.0203149 0.0219561
         vertex -0.0223597 0.0203149 0.0219018
      endloop
   endfacet
   facet normal 0.163738 0.0731473 0.983788
      outer loop
         vertex -0.0209414 0.0269891 0.0212985
         vertex -0.0218958 0.027844 0.0214047
         vertex -0.0226492 0.0271556 0.0216069
      endloop
   endfacet
   facet normal 0.199459 0.0650043 0.977748
      outer loop
         vertex -0.0226492 0.0271556 0.0216069
         vertex -0.0226762 0.0237688 0.021795
         vertex -0.0209414 0.0269891 0.0212985
      endloop
   endfacet
   facet normal 0.191136 0.0458305 0.980493
      outer loop
         vertex -0.0226762 0.0237688 0.021795
         vertex -0.0208457 0.0203149 0.0216673
         vertex -0.0209414 0.0269891 0.0212985
      endloop
   endfacet
   facet normal 0.185023 0.0429887 0.981794
      outer loop
         vertex -0.0223597 0.0203149 0.0219018
         vertex -0.0208457 0.0203149 0.0216673
         vertex -0.0226762 0.0237688 0.021795
      endloop
   endfacet
   facet normal 0.143035 0.043284 0.988771
      outer loop
         vertex -0.0204512 0.0203149 0.0216061
         vertex -0.0191781 0.0203149 0.0214089
         vertex -0.019024 0.025474 0.0211459
      endloop
   endfacet
   facet normal 0.131206 0.0652856 0.989203
      outer loop
         vertex -0.0199846 0.0261956 0.0212108
         vertex -0.0208457 0.0203149 0.0216673
         vertex -0.0204512 0.0203149 0.0216061
      endloop
   endfacet
   facet normal 0.0944863 0.0579433 0.993838
      outer loop
         vertex -0.019024 0.025474 0.0211459
         vertex -0.0199846 0.0261956 0.0212108
         vertex -0.0204512 0.0203149 0.0216061
      endloop
   endfacet
   facet normal 0.102592 0.0434758 0.993773
      outer loop
         vertex -0.0191781 0.0203149 0.0214089
         vertex -0.018934 0.0203149 0.0213996
         vertex -0.019024 0.025474 0.0211459
      endloop
   endfacet
   facet normal 0.0938768 0.0435067 0.994633
      outer loop
         vertex -0.018934 0.0203149 0.0213996
         vertex -0.0174932 0.0203149 0.0213448
         vertex -0.0170654 0.0244562 0.0210881
      endloop
   endfacet
   facet normal 0.023694 0.0460076 0.99866
      outer loop
         vertex -0.0170654 0.0244562 0.0210881
         vertex -0.0180523 0.024876 0.0211059
         vertex -0.018934 0.0203149 0.0213996
      endloop
   endfacet
   facet normal 0.0416329 0.0436197 0.99818
      outer loop
         vertex -0.0174932 0.0203149 0.0213448
         vertex -0.0170034 0.0203149 0.0213262
         vertex -0.0170654 0.0244562 0.0210881
      endloop
   endfacet
   facet normal 0.026431 0.0436292 0.998698
      outer loop
         vertex -0.0170034 0.0203149 0.0213262
         vertex -0.0160379 0.0203149 0.0212895
         vertex -0.0160695 0.0242242 0.0210854
      endloop
   endfacet
   facet normal 0.00592444 0.043625 0.99903
      outer loop
         vertex -0.0160379 0.0203149 0.0212895
         vertex -0.0151186 0.0203149 0.0212545
         vertex -0.0151186 0.024168 0.0210863
      endloop
   endfacet
   facet normal 0.00509668 0.0438911 0.999023
      outer loop
         vertex -0.0160695 0.0242242 0.0210854
         vertex -0.0151186 0.024168 0.0210863
         vertex -0.0154327 0.0280375 0.0209174
      endloop
   endfacet
   facet normal -3.99522e-09 0.0436194 0.999048
      outer loop
         vertex -0.0151186 0.024168 0.0210863
         vertex -0.0151186 0.0280347 0.0209175
         vertex -0.0154327 0.0280375 0.0209174
      endloop
   endfacet
   facet normal 2.38667e-05 0.0436279 0.999048
      outer loop
         vertex -0.0154327 0.0280375 0.0209174
         vertex -0.0162726 0.0280825 0.0209156
         vertex -0.0160695 0.0242242 0.0210854
      endloop
   endfacet
   facet normal -3.99522e-09 0.0436194 0.999048
      outer loop
         vertex -0.0151186 0.024168 0.0210863
         vertex -0.0160695 0.0242242 0.0210854
         vertex -0.0160379 0.0203149 0.0212895
      endloop
   endfacet
   facet normal 0.00509668 0.0438911 0.999023
      outer loop
         vertex -0.0160695 0.0242242 0.0210854
         vertex -0.0170654 0.0244562 0.0210881
         vertex -0.0170034 0.0203149 0.0213262
      endloop
   endfacet
   facet normal 0.0553526 0.0510423 0.997161
      outer loop
         vertex -0.0180523 0.024876 0.0211059
         vertex -0.019024 0.025474 0.0211459
         vertex -0.018934 0.0203149 0.0213996
      endloop
   endfacet
   facet normal 0.131206 0.0652856 0.989203
      outer loop
         vertex -0.0199846 0.0261956 0.0212108
         vertex -0.0209414 0.0269891 0.0212985
         vertex -0.0208457 0.0203149 0.0216673
      endloop
   endfacet
   facet normal 0.19233 0.0812776 0.977959
      outer loop
         vertex -0.0218958 0.027844 0.0214047
         vertex -0.0226495 0.0285479 0.0214774
         vertex -0.0226492 0.0271556 0.0216069
      endloop
   endfacet
   facet normal 0.204862 0.1113 0.972442
      outer loop
         vertex -0.0219386 0.0290982 0.0212911
         vertex -0.0226497 0.029799 0.0213611
         vertex -0.0226495 0.0285479 0.0214774
      endloop
   endfacet
   facet normal 0.228994 0.124155 0.965478
      outer loop
         vertex -0.0226497 0.029799 0.0213611
         vertex -0.0219386 0.0290982 0.0212911
         vertex -0.0219971 0.0302228 0.0211531
      endloop
   endfacet
   facet normal 0.246175 0.171149 0.953995
      outer loop
         vertex -0.0226702 0.0308802 0.0211764
         vertex -0.0219971 0.0302228 0.0211531
         vertex -0.0220751 0.0312843 0.0209818
      endloop
   endfacet
   facet normal 0.25166 0.220492 0.942365
      outer loop
         vertex -0.0226917 0.0318928 0.0209944
         vertex -0.0220751 0.0312843 0.0209818
         vertex -0.022139 0.0320171 0.0208376
      endloop
   endfacet
   facet normal 0.15831 0.170795 0.972506
      outer loop
         vertex -0.0212375 0.0310679 0.0208586
         vertex -0.022139 0.0320171 0.0208376
         vertex -0.0220751 0.0312843 0.0209818
      endloop
   endfacet
   facet normal 0.168209 0.152991 0.973807
      outer loop
         vertex -0.0211651 0.0303951 0.0209588
         vertex -0.0210662 0.0293213 0.0210932
         vertex -0.0204828 0.0302734 0.0208761
      endloop
   endfacet
   facet normal 0.0843319 0.106408 0.99074
      outer loop
         vertex -0.0197479 0.0295799 0.0208849
         vertex -0.0203391 0.0301377 0.0208778
         vertex -0.0201336 0.0284582 0.0210463
      endloop
   endfacet
   facet normal 0.0545269 0.0876879 0.994655
      outer loop
         vertex -0.0192265 0.0291707 0.0208884
         vertex -0.0194486 0.0293449 0.0208869
         vertex -0.019024 0.025474 0.0211459
      endloop
   endfacet
   facet normal 0.0154251 0.0605336 0.998047
      outer loop
         vertex -0.0182217 0.0286008 0.0208985
         vertex -0.0185091 0.0287458 0.0208954
         vertex -0.0180523 0.024876 0.0211059
      endloop
   endfacet
   facet normal 0.00215082 0.0466202 0.99891
      outer loop
         vertex -0.0169727 0.0281946 0.0209113
         vertex -0.0174412 0.028322 0.0209069
         vertex -0.0170654 0.0244562 0.0210881
      endloop
   endfacet
   facet normal 0.168209 0.152991 0.973807
      outer loop
         vertex -0.0211651 0.0303951 0.0209588
         vertex -0.0220751 0.0312843 0.0209818
         vertex -0.0219971 0.0302228 0.0211531
      endloop
   endfacet
   facet normal 0.19233 0.0812776 0.977959
      outer loop
         vertex -0.0218958 0.027844 0.0214047
         vertex -0.0209414 0.0269891 0.0212985
         vertex -0.0210662 0.0293213 0.0210932
      endloop
   endfacet
   facet normal 0.130581 0.0986369 0.986519
      outer loop
         vertex -0.0201336 0.0284582 0.0210463
         vertex -0.0210662 0.0293213 0.0210932
         vertex -0.0209414 0.0269891 0.0212985
      endloop
   endfacet
   facet normal 0.311657 0.213875 0.925812
      outer loop
         vertex -0.024826 0.0322974 0.0215733
         vertex -0.0250211 0.0330169 0.0214475
         vertex -0.0256318 0.0328836 0.0216947
      endloop
   endfacet
   facet normal 0.311657 0.213875 0.925812
      outer loop
         vertex -0.024826 0.0322974 0.0215733
         vertex -0.024964 0.0330232 0.0214259
         vertex -0.0250211 0.0330169 0.0214475
      endloop
   endfacet
   facet normal 0.299724 0.155944 0.941194
      outer loop
         vertex -0.02476 0.0315575 0.021697
         vertex -0.0246911 0.0300647 0.0218629
         vertex -0.0235811 0.0301473 0.0215533
      endloop
   endfacet
   facet normal 0.269111 0.0924508 0.958662
      outer loop
         vertex -0.0246911 0.0300647 0.0218629
         vertex -0.02476 0.0315575 0.021697
         vertex -0.0260958 0.0312537 0.0221717
      endloop
   endfacet
   facet normal 0.312004 0.107623 0.943966
      outer loop
         vertex -0.0260958 0.0312537 0.0221717
         vertex -0.02476 0.0315575 0.021697
         vertex -0.0254685 0.0321744 0.0218169
      endloop
   endfacet
   facet normal 0.299724 0.155944 0.941194
      outer loop
         vertex -0.02476 0.0315575 0.021697
         vertex -0.024826 0.0322974 0.0215733
         vertex -0.0254685 0.0321744 0.0218169
      endloop
   endfacet
   facet normal 0.306826 0.26187 0.915031
      outer loop
         vertex -0.0258826 0.0328288 0.0217963
         vertex -0.0263604 0.0326682 0.0219973
         vertex -0.0262495 0.0323342 0.022046
      endloop
   endfacet
   facet normal 0.313665 0.193549 0.929598
      outer loop
         vertex -0.0254685 0.0321744 0.0218169
         vertex -0.0256318 0.0328836 0.0216947
         vertex -0.0258826 0.0328288 0.0217963
      endloop
   endfacet
   facet normal 0.311044 0.209618 0.926991
      outer loop
         vertex -0.0262495 0.0323342 0.022046
         vertex -0.0254685 0.0321744 0.0218169
         vertex -0.0258826 0.0328288 0.0217963
      endloop
   endfacet
   facet normal 0.312004 0.107623 0.943966
      outer loop
         vertex -0.0260958 0.0312537 0.0221717
         vertex -0.026171 0.031978 0.0220921
         vertex -0.0269418 0.0316926 0.0224005
      endloop
   endfacet
   facet normal 0.305354 0.172657 0.936455
      outer loop
         vertex -0.0278443 0.0317083 0.0227002
         vertex -0.0262495 0.0323342 0.022046
         vertex -0.0267901 0.0325238 0.0221781
      endloop
   endfacet
   facet normal 0.311044 0.209618 0.926991
      outer loop
         vertex -0.0262495 0.0323342 0.022046
         vertex -0.0263604 0.0326682 0.0219973
         vertex -0.0267901 0.0325238 0.0221781
      endloop
   endfacet
   facet normal 0.296847 0.243682 0.92331
      outer loop
         vertex -0.0267901 0.0325238 0.0221781
         vertex -0.0279795 0.031972 0.0226874
         vertex -0.0279399 0.0319044 0.0226908
      endloop
   endfacet
   facet normal 0.296847 0.243682 0.92331
      outer loop
         vertex -0.0267901 0.0325238 0.0221781
         vertex -0.0279399 0.0319044 0.0226908
         vertex -0.0278443 0.0317083 0.0227002
      endloop
   endfacet
   facet normal 0.316461 0.140779 0.938101
      outer loop
         vertex -0.0277692 0.0315036 0.0227094
         vertex -0.0277254 0.031335 0.0227166
         vertex -0.0269418 0.0316926 0.0224005
      endloop
   endfacet
   facet normal 0.308141 0.165314 0.936867
      outer loop
         vertex -0.0278277 0.0316631 0.0227022
         vertex -0.0277692 0.0315036 0.0227094
         vertex -0.026171 0.031978 0.0220921
      endloop
   endfacet
   facet normal 0.315239 0.169769 0.933704
      outer loop
         vertex -0.026171 0.031978 0.0220921
         vertex -0.0262495 0.0323342 0.022046
         vertex -0.0278277 0.0316631 0.0227022
      endloop
   endfacet
   facet normal 0.320572 0.080918 0.943762
      outer loop
         vertex -0.0268657 0.030985 0.0224562
         vertex -0.0269418 0.0316926 0.0224005
         vertex -0.0277036 0.0312511 0.0227201
      endloop
   endfacet
   facet normal 0.325468 0.10697 0.939483
      outer loop
         vertex -0.0277036 0.0312511 0.0227201
         vertex -0.0276673 0.0310274 0.0227299
         vertex -0.0268657 0.030985 0.0224562
      endloop
   endfacet
   facet normal 0.318133 0.143491 0.937124
      outer loop
         vertex -0.0269418 0.0316926 0.0224005
         vertex -0.0277254 0.031335 0.0227166
         vertex -0.0277036 0.0312511 0.0227201
      endloop
   endfacet
   facet normal 0.289566 0.0667471 0.954828
      outer loop
         vertex -0.0260403 0.0297956 0.0222789
         vertex -0.0260958 0.0312537 0.0221717
         vertex -0.027637 0.0305948 0.0227496
      endloop
   endfacet
   facet normal 0.330061 0.0527408 0.942485
      outer loop
         vertex -0.027637 0.0305948 0.0227496
         vertex -0.0276412 0.0294583 0.0228051
         vertex -0.0260403 0.0297956 0.0222789
      endloop
   endfacet
   facet normal 0.330061 0.0527408 0.942485
      outer loop
         vertex -0.027637 0.0305948 0.0227496
         vertex -0.0260958 0.0312537 0.0221717
         vertex -0.0268657 0.030985 0.0224562
      endloop
   endfacet
   facet normal 0.320572 0.080918 0.943762
      outer loop
         vertex -0.0268657 0.030985 0.0224562
         vertex -0.0276412 0.0306546 0.0227468
         vertex -0.027637 0.0305948 0.0227496
      endloop
   endfacet
   facet normal 0.268233 0.0518633 0.961957
      outer loop
         vertex -0.0259122 0.0268931 0.0224237
         vertex -0.0260403 0.0297956 0.0222789
         vertex -0.0276419 0.0292694 0.0228139
      endloop
   endfacet
   facet normal 0.269111 0.0924508 0.958662
      outer loop
         vertex -0.0246911 0.0300647 0.0218629
         vertex -0.0260403 0.0297956 0.0222789
         vertex -0.0251919 0.0270219 0.0222163
      endloop
   endfacet
   facet normal 0.289566 0.0667471 0.954828
      outer loop
         vertex -0.0260403 0.0297956 0.0222789
         vertex -0.0253724 0.0270036 0.0222634
         vertex -0.0251919 0.0270219 0.0222163
      endloop
   endfacet
   facet normal 0.289566 0.0667471 0.954828
      outer loop
         vertex -0.0260403 0.0297956 0.0222789
         vertex -0.0259122 0.0268931 0.0224237
         vertex -0.0253724 0.0270036 0.0222634
      endloop
   endfacet
   facet normal 0.230704 0.128461 0.964507
      outer loop
         vertex -0.0226497 0.0299112 0.0213507
         vertex -0.0226545 0.0301385 0.0213098
         vertex -0.0235811 0.0301473 0.0215533
      endloop
   endfacet
   facet normal 0.269111 0.0924508 0.958662
      outer loop
         vertex -0.0246911 0.0300647 0.0218629
         vertex -0.0226495 0.0285479 0.0214774
         vertex -0.0226497 0.029799 0.0213611
      endloop
   endfacet
   facet normal 0.228864 0.124263 0.965495
      outer loop
         vertex -0.0226497 0.029799 0.0213611
         vertex -0.0226497 0.0299112 0.0213507
         vertex -0.0246911 0.0300647 0.0218629
      endloop
   endfacet
   facet normal 0.231027 0.0585458 0.971184
      outer loop
         vertex -0.0239704 0.027146 0.0218979
         vertex -0.0226492 0.0271556 0.0216069
         vertex -0.0226495 0.0285479 0.0214774
      endloop
   endfacet
   facet normal 0.211041 0.0875769 0.973546
      outer loop
         vertex -0.0226495 0.0285479 0.0214774
         vertex -0.0246911 0.0300647 0.0218629
         vertex -0.0239704 0.027146 0.0218979
      endloop
   endfacet
   facet normal 0.269111 0.0924508 0.958662
      outer loop
         vertex -0.0246911 0.0300647 0.0218629
         vertex -0.0245523 0.0270869 0.0220496
         vertex -0.0239704 0.027146 0.0218979
      endloop
   endfacet
   facet normal 0.251 0.117507 0.960828
      outer loop
         vertex -0.0235811 0.0301473 0.0215533
         vertex -0.0226545 0.0301385 0.0213098
         vertex -0.0226702 0.0308802 0.0211764
      endloop
   endfacet
   facet normal 0.246205 0.171123 0.953992
      outer loop
         vertex -0.0226702 0.0308802 0.0211764
         vertex -0.0236378 0.031646 0.0213308
         vertex -0.0235811 0.0301473 0.0215533
      endloop
   endfacet
   facet normal 0.284847 0.192155 0.939116
      outer loop
         vertex -0.0236378 0.031646 0.0213308
         vertex -0.0226861 0.0316316 0.0210413
         vertex -0.0226917 0.0318928 0.0209944
      endloop
   endfacet
   facet normal 0.251715 0.220541 0.942338
      outer loop
         vertex -0.0226917 0.0318928 0.0209944
         vertex -0.0226948 0.0320399 0.0209679
         vertex -0.0236378 0.031646 0.0213308
      endloop
   endfacet
   facet normal 0.311657 0.213875 0.925812
      outer loop
         vertex -0.024826 0.0322974 0.0215733
         vertex -0.02476 0.0315575 0.021697
         vertex -0.0236378 0.031646 0.0213308
      endloop
   endfacet
   facet normal 0.284847 0.192155 0.939116
      outer loop
         vertex -0.0236378 0.031646 0.0213308
         vertex -0.0227075 0.0323734 0.0208861
         vertex -0.024826 0.0322974 0.0215733
      endloop
   endfacet
   facet normal 0.311657 0.213875 0.925812
      outer loop
         vertex -0.024826 0.0322974 0.0215733
         vertex -0.0229565 0.0328775 0.0208181
         vertex -0.0232666 0.0331187 0.020835
      endloop
   endfacet
   facet normal 0.270489 0.280092 0.921078
      outer loop
         vertex -0.0232666 0.0331187 0.020835
         vertex -0.0242444 0.0331024 0.0211544
         vertex -0.024826 0.0322974 0.0215733
      endloop
   endfacet
   facet normal 0.254115 0.265246 0.930091
      outer loop
         vertex -0.0229565 0.0328775 0.0208181
         vertex -0.0231849 0.0331172 0.0208117
         vertex -0.0232666 0.0331187 0.020835
      endloop
   endfacet
   facet normal 0.311657 0.213875 0.925812
      outer loop
         vertex -0.024826 0.0322974 0.0215733
         vertex -0.0227075 0.0323734 0.0208861
         vertex -0.0227172 0.0326259 0.0208242
      endloop
   endfacet
   facet normal 0.241146 0.251388 0.937365
      outer loop
         vertex -0.0227172 0.0326259 0.0208242
         vertex -0.0229565 0.0328775 0.0208181
         vertex -0.024826 0.0322974 0.0215733
      endloop
   endfacet
   facet normal 0.308055 0.284875 0.907716
      outer loop
         vertex -0.0242444 0.0331024 0.0211544
         vertex -0.024964 0.0330232 0.0214259
         vertex -0.024826 0.0322974 0.0215733
      endloop
   endfacet
   facet normal 0.250759 0.227176 0.941016
      outer loop
         vertex -0.0226948 0.0320399 0.0209679
         vertex -0.0227075 0.0323734 0.0208861
         vertex -0.0236378 0.031646 0.0213308
      endloop
   endfacet
   facet normal 0.246205 0.171123 0.953992
      outer loop
         vertex -0.0226702 0.0308802 0.0211764
         vertex -0.0226861 0.0316316 0.0210413
         vertex -0.0236378 0.031646 0.0213308
      endloop
   endfacet
   facet normal 0.251 0.117507 0.960828
      outer loop
         vertex -0.0235811 0.0301473 0.0215533
         vertex -0.0246911 0.0300647 0.0218629
         vertex -0.0226497 0.0299112 0.0213507
      endloop
   endfacet
   facet normal 0.256936 0.0545285 0.964889
      outer loop
         vertex -0.0251919 0.0270219 0.0222163
         vertex -0.0245523 0.0270869 0.0220496
         vertex -0.0246911 0.0300647 0.0218629
      endloop
   endfacet
   facet normal 0.310749 0.0432768 0.949506
      outer loop
         vertex -0.0276419 0.0292694 0.0228139
         vertex -0.0276524 0.026537 0.0229405
         vertex -0.0259122 0.0268931 0.0224237
      endloop
   endfacet
   facet normal 0.312903 0.043437 0.948791
      outer loop
         vertex -0.0276412 0.0294583 0.0228051
         vertex -0.0276419 0.0292694 0.0228139
         vertex -0.0260403 0.0297956 0.0222789
      endloop
   endfacet
   facet normal 0.329804 0.0826636 0.940423
      outer loop
         vertex -0.0276673 0.0310274 0.0227299
         vertex -0.0276412 0.0306546 0.0227468
         vertex -0.0268657 0.030985 0.0224562
      endloop
   endfacet
   facet normal 0.318133 0.143491 0.937124
      outer loop
         vertex -0.0269418 0.0316926 0.0224005
         vertex -0.026171 0.031978 0.0220921
         vertex -0.0277692 0.0315036 0.0227094
      endloop
   endfacet
   facet normal 0.305354 0.172657 0.936455
      outer loop
         vertex -0.0278443 0.0317083 0.0227002
         vertex -0.0278277 0.0316631 0.0227022
         vertex -0.0262495 0.0323342 0.022046
      endloop
   endfacet
   facet normal 0.318133 0.143491 0.937124
      outer loop
         vertex -0.0269418 0.0316926 0.0224005
         vertex -0.0268657 0.030985 0.0224562
         vertex -0.0260958 0.0312537 0.0221717
      endloop
   endfacet
   facet normal 0.311044 0.209618 0.926991
      outer loop
         vertex -0.0262495 0.0323342 0.022046
         vertex -0.026171 0.031978 0.0220921
         vertex -0.0254685 0.0321744 0.0218169
      endloop
   endfacet
   facet normal 0.313665 0.193549 0.929598
      outer loop
         vertex -0.0254685 0.0321744 0.0218169
         vertex -0.026171 0.031978 0.0220921
         vertex -0.0260958 0.0312537 0.0221717
      endloop
   endfacet
   facet normal 0.312004 0.107623 0.943966
      outer loop
         vertex -0.0260958 0.0312537 0.0221717
         vertex -0.0260403 0.0297956 0.0222789
         vertex -0.0246911 0.0300647 0.0218629
      endloop
   endfacet
   facet normal 0.251 0.117507 0.960828
      outer loop
         vertex -0.0235811 0.0301473 0.0215533
         vertex -0.0236378 0.031646 0.0213308
         vertex -0.02476 0.0315575 0.021697
      endloop
   endfacet
   facet normal 0.309121 0.266599 0.912891
      outer loop
         vertex -0.0256318 0.0328836 0.0216947
         vertex -0.0254685 0.0321744 0.0218169
         vertex -0.024826 0.0322974 0.0215733
      endloop
   endfacet
   facet normal 0.193301 0.0457822 0.980071
      outer loop
         vertex -0.0226762 0.0237688 0.021795
         vertex -0.0226492 0.0271556 0.0216069
         vertex -0.0239704 0.027146 0.0218979
      endloop
   endfacet
   facet normal 0.231006 0.0585486 0.971189
      outer loop
         vertex -0.0239704 0.027146 0.0218979
         vertex -0.0245523 0.0270869 0.0220496
         vertex -0.0226762 0.0237688 0.021795
      endloop
   endfacet
   facet normal 0.255213 0.0441119 0.965878
      outer loop
         vertex -0.0251963 0.0203793 0.0225377
         vertex -0.0227093 0.0203804 0.0219529
         vertex -0.0226762 0.0237688 0.021795
      endloop
   endfacet
   facet normal 0.193301 0.0457822 0.980071
      outer loop
         vertex -0.0226762 0.0237688 0.021795
         vertex -0.0251919 0.0270219 0.0222163
         vertex -0.0251963 0.0203793 0.0225377
      endloop
   endfacet
   facet normal 0.255213 0.0441119 0.965878
      outer loop
         vertex -0.0251963 0.0203793 0.0225377
         vertex -0.0259122 0.0268931 0.0224237
         vertex -0.0276524 0.026537 0.0229405
      endloop
   endfacet
   facet normal 0.255213 0.0441119 0.965878
      outer loop
         vertex -0.0251963 0.0203793 0.0225377
         vertex -0.0251919 0.0270219 0.0222163
         vertex -0.0253724 0.0270036 0.0222634
      endloop
   endfacet
   facet normal 0.259945 0.0539494 0.964115
      outer loop
         vertex -0.0253724 0.0270036 0.0222634
         vertex -0.0259122 0.0268931 0.0224237
         vertex -0.0251963 0.0203793 0.0225377
      endloop
   endfacet
   facet normal 0.287779 0.0427015 0.956744
      outer loop
         vertex -0.0276524 0.026537 0.0229405
         vertex -0.02766 0.0203746 0.0232145
         vertex -0.0251963 0.0203793 0.0225377
      endloop
   endfacet
   facet normal 0.244553 0.0567767 0.967972
      outer loop
         vertex -0.0245523 0.0270869 0.0220496
         vertex -0.0251919 0.0270219 0.0222163
         vertex -0.0226762 0.0237688 0.021795
      endloop
   endfacet
endsolid 1111. Units = meters