solid 1111. STL generated by ONSHAPE BY PTC INC, 1.216. Units = meters
   facet normal 0 0.0436194 -0.999048
      outer loop
         vertex 0.0137471 0.0242728 -0.0210918
         vertex 0.0137474 0.024256 -0.0210925
         vertex 0.0131766 0.0242254 -0.0210938
      endloop
   endfacet
   facet normal 0 0.0436194 -0.999048
      outer loop
         vertex 0.0137473 0.0242837 -0.0210913
         vertex 0.0137471 0.0242728 -0.0210918
         vertex 0.0131601 0.0242744 -0.0210917
      endloop
   endfacet
   facet normal 0 0.0436194 -0.999048
      outer loop
         vertex 0.0137491 0.0242395 -0.0210932
         vertex 0.0137521 0.0242249 -0.0210938
         vertex 0.0132535 0.0240917 -0.0210997
      endloop
   endfacet
   facet normal 0 0.0436194 -0.999048
      outer loop
         vertex 0.0137474 0.024256 -0.0210925
         vertex 0.0137491 0.0242395 -0.0210932
         vertex 0.0131978 0.0241784 -0.0210959
      endloop
   endfacet
   facet normal 0 0.0436194 -0.999048
      outer loop
         vertex 0.0131601 0.0242744 -0.0210917
         vertex 0.0131485 0.0243247 -0.0210895
         vertex 0.0137473 0.0242837 -0.0210913
      endloop
   endfacet
   facet normal 0 0.0436194 -0.999048
      outer loop
         vertex 0.0133865 0.0231532 -0.0211406
         vertex 0.013872 0.0235096 -0.0211151
         vertex 0.0138873 0.0234828 -0.0211162
      endloop
   endfacet
   facet normal 0 0.0436194 -0.999048
      outer loop
         vertex 0.0132535 0.0240917 -0.0210997
         vertex 0.0132235 0.0241336 -0.0210978
         vertex 0.0137491 0.0242395 -0.0210932
      endloop
   endfacet
   facet normal 0 0.0436194 -0.999048
      outer loop
         vertex 0.0131766 0.0242254 -0.0210938
         vertex 0.0131601 0.0242744 -0.0210917
         vertex 0.0137471 0.0242728 -0.0210918
      endloop
   endfacet
   facet normal 0 0.0436194 -0.999048
      outer loop
         vertex 0.0137649 0.0243317 -0.0210892
         vertex 0.013283 0.0247468 -0.0210711
         vertex 0.0133245 0.0247768 -0.0210698
      endloop
   endfacet
   facet normal 0 0.0436194 -0.999048
      outer loop
         vertex 0.0137699 0.0243373 -0.0210889
         vertex 0.0133245 0.0247768 -0.0210698
         vertex 0.0133742 0.0248056 -0.0210685
      endloop
   endfacet
   facet normal 0 0.0436194 -0.999048
      outer loop
         vertex 0.013776 0.0243429 -0.0210887
         vertex 0.0133742 0.0248056 -0.0210685
         vertex 0.0134268 0.0248297 -0.0210674
      endloop
   endfacet
   facet normal 0 0.0436194 -0.999048
      outer loop
         vertex 0.0141694 0.0229063 -0.0211514
         vertex 0.0140774 0.0234172 -0.0211241
         vertex 0.01521 0.0234172 -0.0211241
      endloop
   endfacet
   facet normal 0 0.0436194 -0.999048
      outer loop
         vertex 0.0138873 0.0234828 -0.0211162
         vertex 0.0134231 0.023117 -0.0211422
         vertex 0.0133865 0.0231532 -0.0211406
      endloop
   endfacet
   facet normal 0 0.0436194 -0.999048
      outer loop
         vertex 0.0134945 0.0239283 -0.0211068
         vertex 0.01383 0.0241373 -0.0210977
         vertex 0.0138498 0.0241298 -0.021098
      endloop
   endfacet
   facet normal 0 0.0436194 -0.999048
      outer loop
         vertex 0.0137561 0.0242119 -0.0210944
         vertex 0.0137609 0.0242003 -0.0210949
         vertex 0.013362 0.0239923 -0.021104
      endloop
   endfacet
   facet normal 0 0.0436194 -0.999048
      outer loop
         vertex 0.0137521 0.0242249 -0.0210938
         vertex 0.0137561 0.0242119 -0.0210944
         vertex 0.0132864 0.0240551 -0.0211013
      endloop
   endfacet
   facet normal 0 0.0436194 -0.999048
      outer loop
         vertex 0.0131978 0.0241784 -0.0210959
         vertex 0.0131766 0.0242254 -0.0210938
         vertex 0.0137474 0.024256 -0.0210925
      endloop
   endfacet
   facet normal 0 0.0436194 -0.999048
      outer loop
         vertex 0.0137649 0.0243317 -0.0210892
         vertex 0.0132547 0.0247215 -0.0210722
         vertex 0.013283 0.0247468 -0.0210711
      endloop
   endfacet
   facet normal 0 0.0436194 -0.999048
      outer loop
         vertex 0.0134268 0.0248297 -0.0210674
         vertex 0.0137833 0.0243485 -0.0210884
         vertex 0.013776 0.0243429 -0.0210887
      endloop
   endfacet
   facet normal 0 0.0436194 -0.999048
      outer loop
         vertex 0.0137833 0.0243485 -0.0210884
         vertex 0.0134268 0.0248297 -0.0210674
         vertex 0.013487 0.0248503 -0.0210665
      endloop
   endfacet
   facet normal 0 0.0436194 -0.999048
      outer loop
         vertex 0.0137926 0.0243542 -0.0210882
         vertex 0.013487 0.0248503 -0.0210665
         vertex 0.0135735 0.0248711 -0.0210656
      endloop
   endfacet
   facet normal 0 0.0436194 -0.999048
      outer loop
         vertex 0.01521 0.0234172 -0.0211241
         vertex 0.0159178 0.0229063 -0.0211514
         vertex 0.0141694 0.0229063 -0.0211514
      endloop
   endfacet
   facet normal 0 0.0436194 -0.999048
      outer loop
         vertex 0.0133865 0.0231532 -0.0211406
         vertex 0.0133567 0.0231894 -0.0211391
         vertex 0.013872 0.0235096 -0.0211151
      endloop
   endfacet
   facet normal 0 0.0436194 -0.999048
      outer loop
         vertex 0.013289 0.023315 -0.0211336
         vertex 0.0132719 0.0233724 -0.0211311
         vertex 0.0138617 0.0235401 -0.0211137
      endloop
   endfacet
   facet normal 0 0.0436194 -0.999048
      outer loop
         vertex 0.0134945 0.0239283 -0.0211068
         vertex 0.0138151 0.0241446 -0.0210974
         vertex 0.01383 0.0241373 -0.0210977
      endloop
   endfacet
   facet normal 0 0.0436194 -0.999048
      outer loop
         vertex 0.013362 0.0239923 -0.021104
         vertex 0.0133227 0.0240219 -0.0211027
         vertex 0.0137561 0.0242119 -0.0210944
      endloop
   endfacet
   facet normal 0 0.0436194 -0.999048
      outer loop
         vertex 0.0132235 0.0241336 -0.0210978
         vertex 0.0131978 0.0241784 -0.0210959
         vertex 0.0137491 0.0242395 -0.0210932
      endloop
   endfacet
   facet normal 0 0.0436194 -0.999048
      outer loop
         vertex 0.0137538 0.0243127 -0.02109
         vertex 0.013751 0.0243047 -0.0210904
         vertex 0.0131432 0.0244823 -0.0210826
      endloop
   endfacet
   facet normal 0 0.0436194 -0.999048
      outer loop
         vertex 0.013757 0.0243198 -0.0210897
         vertex 0.0137538 0.0243127 -0.02109
         vertex 0.0131603 0.0245668 -0.0210789
      endloop
   endfacet
   facet normal 0 0.0436194 -0.999048
      outer loop
         vertex 0.0137606 0.0243258 -0.0210894
         vertex 0.0132282 0.0246926 -0.0210734
         vertex 0.0132547 0.0247215 -0.0210722
      endloop
   endfacet
   facet normal 0 0.0436194 -0.999048
      outer loop
         vertex 0.0133742 0.0248056 -0.0210685
         vertex 0.013776 0.0243429 -0.0210887
         vertex 0.0137699 0.0243373 -0.0210889
      endloop
   endfacet
   facet normal 0 0.0436194 -0.999048
      outer loop
         vertex 0.0135735 0.0248711 -0.0210656
         vertex 0.0138027 0.0243592 -0.021088
         vertex 0.0137926 0.0243542 -0.0210882
      endloop
   endfacet
   facet normal 0 0.0436194 -0.999048
      outer loop
         vertex 0.0135735 0.0248711 -0.0210656
         vertex 0.0136878 0.0248873 -0.0210649
         vertex 0.0138182 0.024365 -0.0210877
      endloop
   endfacet
   facet normal 0 0.0436194 -0.999048
      outer loop
         vertex 0.0140433 0.0229093 -0.0211513
         vertex 0.0140338 0.0234184 -0.021119
         vertex 0.0140774 0.0234172 -0.0211241
      endloop
   endfacet
   facet normal 0 0.0436194 -0.999048
      outer loop
         vertex 0.0138733 0.0229263 -0.0211505
         vertex 0.0139991 0.0234229 -0.0211189
         vertex 0.0140338 0.0234184 -0.021119
      endloop
   endfacet
   facet normal 0 0.0436194 -0.999048
      outer loop
         vertex 0.0135186 0.023047 -0.0211453
         vertex 0.0138873 0.0234828 -0.0211162
         vertex 0.0139106 0.0234587 -0.0211223
      endloop
   endfacet
   facet normal 0 0.0436194 -0.999048
      outer loop
         vertex 0.0133567 0.0231894 -0.0211391
         vertex 0.0133277 0.023233 -0.0211372
         vertex 0.013872 0.0235096 -0.0211151
      endloop
   endfacet
   facet normal 0 0.0436194 -0.999048
      outer loop
         vertex 0.013872 0.0235096 -0.0211151
         vertex 0.0133058 0.0232739 -0.0211354
         vertex 0.013289 0.023315 -0.0211336
      endloop
   endfacet
   facet normal 0 0.0436194 -0.999048
      outer loop
         vertex 0.0132491 0.023519 -0.0211247
         vertex 0.0132487 0.0235954 -0.0211213
         vertex 0.0138571 0.0235775 -0.0211171
      endloop
   endfacet
   facet normal 0 0.0436194 -0.999048
      outer loop
         vertex 0.0138617 0.0235401 -0.0211137
         vertex 0.0132719 0.0233724 -0.0211311
         vertex 0.0132564 0.0234477 -0.0211278
      endloop
   endfacet
   facet normal 0 0.0436194 -0.999048
      outer loop
         vertex 0.0138571 0.0235775 -0.0211171
         vertex 0.0133217 0.023809 -0.021112
         vertex 0.0133452 0.0238363 -0.0211108
      endloop
   endfacet
   facet normal 0 0.0436194 -0.999048
      outer loop
         vertex 0.0138571 0.0235775 -0.0211171
         vertex 0.0132852 0.0237497 -0.0211146
         vertex 0.0133016 0.0237799 -0.0211133
      endloop
   endfacet
   facet normal 0 0.0436194 -0.999048
      outer loop
         vertex 0.0138659 0.0236173 -0.0211104
         vertex 0.0134619 0.0239166 -0.0211073
         vertex 0.0134945 0.0239283 -0.0211068
      endloop
   endfacet
   facet normal 0 0.0436194 -0.999048
      outer loop
         vertex 0.0138659 0.0236173 -0.0211104
         vertex 0.0133994 0.0238826 -0.0211088
         vertex 0.0134291 0.0239009 -0.021108
      endloop
   endfacet
   facet normal 0 0.0436194 -0.999048
      outer loop
         vertex 0.0134945 0.0239283 -0.0211068
         vertex 0.0138025 0.0241524 -0.021097
         vertex 0.0138151 0.0241446 -0.0210974
      endloop
   endfacet
   facet normal 0 0.0436194 -0.999048
      outer loop
         vertex 0.0137609 0.0242003 -0.0210949
         vertex 0.0137668 0.0241896 -0.0210954
         vertex 0.0134041 0.0239667 -0.0211051
      endloop
   endfacet
   facet normal 0 0.0436194 -0.999048
      outer loop
         vertex 0.0132864 0.0240551 -0.0211013
         vertex 0.0132535 0.0240917 -0.0210997
         vertex 0.0137521 0.0242249 -0.0210938
      endloop
   endfacet
   facet normal 0 0.0436194 -0.999048
      outer loop
         vertex 0.0137487 0.0242947 -0.0210908
         vertex 0.0137473 0.0242837 -0.0210913
         vertex 0.0131485 0.0243247 -0.0210895
      endloop
   endfacet
   facet normal 0 0.0436194 -0.999048
      outer loop
         vertex 0.0131432 0.0244823 -0.0210826
         vertex 0.0131502 0.0245276 -0.0210806
         vertex 0.0137538 0.0243127 -0.02109
      endloop
   endfacet
   facet normal 0 0.0436194 -0.999048
      outer loop
         vertex 0.0131603 0.0245668 -0.0210789
         vertex 0.0131722 0.0246004 -0.0210775
         vertex 0.013757 0.0243198 -0.0210897
      endloop
   endfacet
   facet normal 0 0.0436194 -0.999048
      outer loop
         vertex 0.0132057 0.0246626 -0.0210747
         vertex 0.0132282 0.0246926 -0.0210734
         vertex 0.0137606 0.0243258 -0.0210894
      endloop
   endfacet
   facet normal 0 0.0436194 -0.999048
      outer loop
         vertex 0.0133245 0.0247768 -0.0210698
         vertex 0.0137699 0.0243373 -0.0210889
         vertex 0.0137649 0.0243317 -0.0210892
      endloop
   endfacet
   facet normal 0 0.0436194 -0.999048
      outer loop
         vertex 0.0138182 0.024365 -0.0210877
         vertex 0.0138027 0.0243592 -0.021088
         vertex 0.0135735 0.0248711 -0.0210656
      endloop
   endfacet
   facet normal 0 0.0436194 -0.999048
      outer loop
         vertex 0.0140338 0.0234184 -0.021119
         vertex 0.0140433 0.0229093 -0.0211513
         vertex 0.0138733 0.0229263 -0.0211505
      endloop
   endfacet
   facet normal 0 0.0436194 -0.999048
      outer loop
         vertex 0.0138733 0.0229263 -0.0211505
         vertex 0.0137631 0.0229483 -0.0211496
         vertex 0.0139519 0.0234357 -0.0211183
      endloop
   endfacet
   facet normal 0 0.0436194 -0.999048
      outer loop
         vertex 0.0136695 0.0229764 -0.0211484
         vertex 0.0139106 0.0234587 -0.0211223
         vertex 0.0139519 0.0234357 -0.0211183
      endloop
   endfacet
   facet normal 0 0.0436194 -0.999048
      outer loop
         vertex 0.0139106 0.0234587 -0.0211223
         vertex 0.013589 0.0230094 -0.0211469
         vertex 0.0135186 0.023047 -0.0211453
      endloop
   endfacet
   facet normal 0 0.0436194 -0.999048
      outer loop
         vertex 0.0138617 0.0235401 -0.0211137
         vertex 0.013872 0.0235096 -0.0211151
         vertex 0.013289 0.023315 -0.0211336
      endloop
   endfacet
   facet normal 0 0.0436194 -0.999048
      outer loop
         vertex 0.0132564 0.0234477 -0.0211278
         vertex 0.0132491 0.023519 -0.0211247
         vertex 0.0138617 0.0235401 -0.0211137
      endloop
   endfacet
   facet normal 0 0.0436194 -0.999048
      outer loop
         vertex 0.0133016 0.0237799 -0.0211133
         vertex 0.0133217 0.023809 -0.021112
         vertex 0.0138571 0.0235775 -0.0211171
      endloop
   endfacet
   facet normal 0 0.0436194 -0.999048
      outer loop
         vertex 0.0134291 0.0239009 -0.021108
         vertex 0.0134619 0.0239166 -0.0211073
         vertex 0.0138659 0.0236173 -0.0211104
      endloop
   endfacet
   facet normal 0 0.0436194 -0.999048
      outer loop
         vertex 0.0134945 0.0239283 -0.0211068
         vertex 0.013791 0.0241612 -0.0210966
         vertex 0.0138025 0.0241524 -0.021097
      endloop
   endfacet
   facet normal 0 0.0436194 -0.999048
      outer loop
         vertex 0.0133227 0.0240219 -0.0211027
         vertex 0.0132864 0.0240551 -0.0211013
         vertex 0.0137561 0.0242119 -0.0210944
      endloop
   endfacet
   facet normal 0 0.0436194 -0.999048
      outer loop
         vertex 0.0131485 0.0243247 -0.0210895
         vertex 0.013142 0.0243758 -0.0210873
         vertex 0.0137487 0.0242947 -0.0210908
      endloop
   endfacet
   facet normal 0 0.0436194 -0.999048
      outer loop
         vertex 0.0131722 0.0246004 -0.0210775
         vertex 0.013188 0.0246336 -0.021076
         vertex 0.013757 0.0243198 -0.0210897
      endloop
   endfacet
   facet normal 0 0.0436194 -0.999048
      outer loop
         vertex 0.013757 0.0243198 -0.0210897
         vertex 0.013188 0.0246336 -0.021076
         vertex 0.0132057 0.0246626 -0.0210747
      endloop
   endfacet
   facet normal 0 0.0436194 -0.999048
      outer loop
         vertex 0.013487 0.0248503 -0.0210665
         vertex 0.0137926 0.0243542 -0.0210882
         vertex 0.0137833 0.0243485 -0.0210884
      endloop
   endfacet
   facet normal 0 0.0436194 -0.999048
      outer loop
         vertex 0.0139519 0.0234357 -0.0211183
         vertex 0.0139991 0.0234229 -0.0211189
         vertex 0.0138733 0.0229263 -0.0211505
      endloop
   endfacet
   facet normal 0 0.0436194 -0.999048
      outer loop
         vertex 0.0139519 0.0234357 -0.0211183
         vertex 0.0137631 0.0229483 -0.0211496
         vertex 0.0136695 0.0229764 -0.0211484
      endloop
   endfacet
   facet normal 0 0.0436194 -0.999048
      outer loop
         vertex 0.0135186 0.023047 -0.0211453
         vertex 0.0134658 0.0230822 -0.0211437
         vertex 0.0138873 0.0234828 -0.0211162
      endloop
   endfacet
   facet normal 0 0.0436194 -0.999048
      outer loop
         vertex 0.0138571 0.0235775 -0.0211171
         vertex 0.0138617 0.0235401 -0.0211137
         vertex 0.0132491 0.023519 -0.0211247
      endloop
   endfacet
   facet normal 0 0.0436194 -0.999048
      outer loop
         vertex 0.0138571 0.0235775 -0.0211171
         vertex 0.0132718 0.0237178 -0.021116
         vertex 0.0132852 0.0237497 -0.0211146
      endloop
   endfacet
   facet normal 0 0.0436194 -0.999048
      outer loop
         vertex 0.0138571 0.0235775 -0.0211171
         vertex 0.0132527 0.02364 -0.0211194
         vertex 0.0132605 0.0236805 -0.0211176
      endloop
   endfacet
   facet normal 0 0.0436194 -0.999048
      outer loop
         vertex 0.0138659 0.0236173 -0.0211104
         vertex 0.0133715 0.0238611 -0.0211097
         vertex 0.0133994 0.0238826 -0.0211088
      endloop
   endfacet
   facet normal 0 0.0436194 -0.999048
      outer loop
         vertex 0.0134945 0.0239283 -0.0211068
         vertex 0.0137821 0.0241697 -0.0210963
         vertex 0.013791 0.0241612 -0.0210966
      endloop
   endfacet
   facet normal 0 0.0436194 -0.999048
      outer loop
         vertex 0.0137737 0.0241795 -0.0210958
         vertex 0.0137821 0.0241697 -0.0210963
         vertex 0.0134945 0.0239283 -0.0211068
      endloop
   endfacet
   facet normal 0 0.0436194 -0.999048
      outer loop
         vertex 0.0137668 0.0241896 -0.0210954
         vertex 0.0137737 0.0241795 -0.0210958
         vertex 0.0134484 0.0239453 -0.0211061
      endloop
   endfacet
   facet normal 0 0.0436194 -0.999048
      outer loop
         vertex 0.013142 0.0243758 -0.0210873
         vertex 0.0131405 0.0244274 -0.021085
         vertex 0.0137487 0.0242947 -0.0210908
      endloop
   endfacet
   facet normal 0 0.0436194 -0.999048
      outer loop
         vertex 0.013751 0.0243047 -0.0210904
         vertex 0.0137487 0.0242947 -0.0210908
         vertex 0.0131405 0.0244274 -0.021085
      endloop
   endfacet
   facet normal 0 0.0436194 -0.999048
      outer loop
         vertex 0.0137606 0.0243258 -0.0210894
         vertex 0.013757 0.0243198 -0.0210897
         vertex 0.0132057 0.0246626 -0.0210747
      endloop
   endfacet
   facet normal 0 0.0436194 -0.999048
      outer loop
         vertex 0.0136878 0.0248873 -0.0210649
         vertex 0.0138412 0.0243711 -0.0210875
         vertex 0.0138182 0.024365 -0.0210877
      endloop
   endfacet
   facet normal 0 0.0436194 -0.999048
      outer loop
         vertex 0.0151626 0.0236904 -0.0211122
         vertex 0.0138769 0.0241225 -0.0210983
         vertex 0.0139054 0.0241179 -0.0210985
      endloop
   endfacet
   facet normal 0 0.0436194 -0.999048
      outer loop
         vertex 0.0136695 0.0229764 -0.0211484
         vertex 0.013589 0.0230094 -0.0211469
         vertex 0.0139106 0.0234587 -0.0211223
      endloop
   endfacet
   facet normal 0 0.0436194 -0.999048
      outer loop
         vertex 0.0133277 0.023233 -0.0211372
         vertex 0.0133058 0.0232739 -0.0211354
         vertex 0.013872 0.0235096 -0.0211151
      endloop
   endfacet
   facet normal 0 0.0436194 -0.999048
      outer loop
         vertex 0.0132605 0.0236805 -0.0211176
         vertex 0.0132718 0.0237178 -0.021116
         vertex 0.0138571 0.0235775 -0.0211171
      endloop
   endfacet
   facet normal 0 0.0436194 -0.999048
      outer loop
         vertex 0.0138659 0.0236173 -0.0211104
         vertex 0.0133452 0.0238363 -0.0211108
         vertex 0.0133715 0.0238611 -0.0211097
      endloop
   endfacet
   facet normal 0 0.0436194 -0.999048
      outer loop
         vertex 0.0134945 0.0239283 -0.0211068
         vertex 0.0151626 0.0236904 -0.0211122
         vertex 0.0140296 0.0236904 -0.0211122
      endloop
   endfacet
   facet normal 0 0.0436194 -0.999048
      outer loop
         vertex 0.0134945 0.0239283 -0.0211068
         vertex 0.0134484 0.0239453 -0.0211061
         vertex 0.0137737 0.0241795 -0.0210958
      endloop
   endfacet
   facet normal 0 0.0436194 -0.999048
      outer loop
         vertex 0.0134041 0.0239667 -0.0211051
         vertex 0.013362 0.0239923 -0.021104
         vertex 0.0137609 0.0242003 -0.0210949
      endloop
   endfacet
   facet normal 0 0.0436194 -0.999048
      outer loop
         vertex 0.0131405 0.0244274 -0.021085
         vertex 0.0131405 0.0244351 -0.0210847
         vertex 0.013751 0.0243047 -0.0210904
      endloop
   endfacet
   facet normal 0 0.0436194 -0.999048
      outer loop
         vertex 0.0132547 0.0247215 -0.0210722
         vertex 0.0137649 0.0243317 -0.0210892
         vertex 0.0137606 0.0243258 -0.0210894
      endloop
   endfacet
   facet normal 0 0.0436194 -0.999048
      outer loop
         vertex 0.0138989 0.0243769 -0.0210872
         vertex 0.0138306 0.0248936 -0.0210646
         vertex 0.0155715 0.0248936 -0.0210646
      endloop
   endfacet
   facet normal 0 0.0436194 -0.999048
      outer loop
         vertex 0.0151626 0.0236904 -0.0211122
         vertex 0.0138498 0.0241298 -0.021098
         vertex 0.0138769 0.0241225 -0.0210983
      endloop
   endfacet
   facet normal 0 0.0436194 -0.999048
      outer loop
         vertex 0.0134658 0.0230822 -0.0211437
         vertex 0.0134231 0.023117 -0.0211422
         vertex 0.0138873 0.0234828 -0.0211162
      endloop
   endfacet
   facet normal 0 0.0436194 -0.999048
      outer loop
         vertex 0.0138571 0.0235775 -0.0211171
         vertex 0.0132487 0.0235954 -0.0211213
         vertex 0.0132527 0.02364 -0.0211194
      endloop
   endfacet
   facet normal 0 0.0436194 -0.999048
      outer loop
         vertex 0.0134945 0.0239283 -0.0211068
         vertex 0.0139152 0.0236716 -0.021108
         vertex 0.0138851 0.0236475 -0.021109
      endloop
   endfacet
   facet normal 0 0.0436194 -0.999048
      outer loop
         vertex 0.0140296 0.0236904 -0.0211122
         vertex 0.0139524 0.0236846 -0.0211074
         vertex 0.0134945 0.0239283 -0.0211068
      endloop
   endfacet
   facet normal 0 0.0436194 -0.999048
      outer loop
         vertex 0.0134484 0.0239453 -0.0211061
         vertex 0.0134041 0.0239667 -0.0211051
         vertex 0.0137668 0.0241896 -0.0210954
      endloop
   endfacet
   facet normal 0 0.0436194 -0.999048
      outer loop
         vertex 0.0131502 0.0245276 -0.0210806
         vertex 0.0131603 0.0245668 -0.0210789
         vertex 0.0137538 0.0243127 -0.02109
      endloop
   endfacet
   facet normal 0 0.0436194 -0.999048
      outer loop
         vertex 0.0138306 0.0248936 -0.0210646
         vertex 0.013867 0.024375 -0.0210873
         vertex 0.0138412 0.0243711 -0.0210875
      endloop
   endfacet
   facet normal 0 0.0436194 -0.999048
      outer loop
         vertex 0.0155715 0.0248936 -0.0210646
         vertex 0.015659 0.0243769 -0.0210872
         vertex 0.0138989 0.0243769 -0.0210872
      endloop
   endfacet
   facet normal 0 0.0436194 -0.999048
      outer loop
         vertex 0.0139054 0.0241179 -0.0210985
         vertex 0.0139435 0.0241155 -0.0210986
         vertex 0.0151626 0.0236904 -0.0211122
      endloop
   endfacet
   facet normal 0 0.0436194 -0.999048
      outer loop
         vertex 0.0157036 0.0241155 -0.0210986
         vertex 0.0159178 0.0229063 -0.0211514
         vertex 0.01521 0.0234172 -0.0211241
      endloop
   endfacet
   facet normal 0 0.0436194 -0.999048
      outer loop
         vertex 0.0133452 0.0238363 -0.0211108
         vertex 0.0138659 0.0236173 -0.0211104
         vertex 0.0138571 0.0235775 -0.0211171
      endloop
   endfacet
   facet normal 0 0.0436194 -0.999048
      outer loop
         vertex 0.0139524 0.0236846 -0.0211074
         vertex 0.0139152 0.0236716 -0.021108
         vertex 0.0134945 0.0239283 -0.0211068
      endloop
   endfacet
   facet normal 0 0.0436194 -0.999048
      outer loop
         vertex 0.0131405 0.0244351 -0.0210847
         vertex 0.0131432 0.0244823 -0.0210826
         vertex 0.013751 0.0243047 -0.0210904
      endloop
   endfacet
   facet normal 0 0.0436194 -0.999048
      outer loop
         vertex 0.0138989 0.0243769 -0.0210872
         vertex 0.013867 0.024375 -0.0210873
         vertex 0.0138306 0.0248936 -0.0210646
      endloop
   endfacet
   facet normal 0 0.0436194 -0.999048
      outer loop
         vertex 0.01521 0.0234172 -0.0211241
         vertex 0.0151626 0.0236904 -0.0211122
         vertex 0.0157036 0.0241155 -0.0210986
      endloop
   endfacet
   facet normal 0 0.0436194 -0.999048
      outer loop
         vertex 0.0134945 0.0239283 -0.0211068
         vertex 0.0138851 0.0236475 -0.021109
         vertex 0.0138659 0.0236173 -0.0211104
      endloop
   endfacet
   facet normal 0 0.0436194 -0.999048
      outer loop
         vertex 0.0138412 0.0243711 -0.0210875
         vertex 0.0136878 0.0248873 -0.0210649
         vertex 0.0138306 0.0248936 -0.0210646
      endloop
   endfacet
   facet normal 0 0.0436194 -0.999048
      outer loop
         vertex 0.0141694 0.0229063 -0.0211514
         vertex 0.0140433 0.0229093 -0.0211513
         vertex 0.0140774 0.0234172 -0.0211241
      endloop
   endfacet
   facet normal 0 0.0436194 -0.999048
      outer loop
         vertex 0.0139435 0.0241155 -0.0210986
         vertex 0.0157036 0.0241155 -0.0210986
         vertex 0.0151626 0.0236904 -0.0211122
      endloop
   endfacet
   facet normal 0 0.0436194 -0.999048
      outer loop
         vertex 0.0138498 0.0241298 -0.021098
         vertex 0.0151626 0.0236904 -0.0211122
         vertex 0.0134945 0.0239283 -0.0211068
      endloop
   endfacet
   facet normal 0 0.0436194 -0.999048
      outer loop
         vertex 0.0138617 0.0235401 -0.0211137
         vertex 0.0138851 0.0236475 -0.021109
         vertex 0.0139152 0.0236716 -0.021108
      endloop
   endfacet
   facet normal 0 0.0436194 -0.999048
      outer loop
         vertex 0.0138617 0.0235401 -0.0211137
         vertex 0.0138571 0.0235775 -0.0211171
         vertex 0.0138659 0.0236173 -0.0211104
      endloop
   endfacet
   facet normal 0 0.0436194 -0.999048
      outer loop
         vertex 0.0138659 0.0236173 -0.0211104
         vertex 0.0138851 0.0236475 -0.021109
         vertex 0.0138617 0.0235401 -0.0211137
      endloop
   endfacet
   facet normal 0 0.0436194 -0.999048
      outer loop
         vertex 0.0140296 0.0236904 -0.0211122
         vertex 0.0139519 0.0234357 -0.0211183
         vertex 0.0139106 0.0234587 -0.0211223
      endloop
   endfacet
   facet normal 0 0.0436194 -0.999048
      outer loop
         vertex 0.0139152 0.0236716 -0.021108
         vertex 0.0139524 0.0236846 -0.0211074
         vertex 0.0138617 0.0235401 -0.0211137
      endloop
   endfacet
   facet normal 0 0.0436194 -0.999048
      outer loop
         vertex 0.0139106 0.0234587 -0.0211223
         vertex 0.0138873 0.0234828 -0.0211162
         vertex 0.0140296 0.0236904 -0.0211122
      endloop
   endfacet
   facet normal 0 0.0436194 -0.999048
      outer loop
         vertex 0.0140296 0.0236904 -0.0211122
         vertex 0.013872 0.0235096 -0.0211151
         vertex 0.0138617 0.0235401 -0.0211137
      endloop
   endfacet
   facet normal 0 0.0436194 -0.999048
      outer loop
         vertex 0.0140296 0.0236904 -0.0211122
         vertex 0.0139991 0.0234229 -0.0211189
         vertex 0.0139519 0.0234357 -0.0211183
      endloop
   endfacet
   facet normal 0 0.0436194 -0.999048
      outer loop
         vertex 0.0138873 0.0234828 -0.0211162
         vertex 0.013872 0.0235096 -0.0211151
         vertex 0.0140296 0.0236904 -0.0211122
      endloop
   endfacet
   facet normal 0 0.0436194 -0.999048
      outer loop
         vertex 0.0140296 0.0236904 -0.0211122
         vertex 0.0140338 0.0234184 -0.021119
         vertex 0.0139991 0.0234229 -0.0211189
      endloop
   endfacet
   facet normal 0 0.0436194 -0.999048
      outer loop
         vertex 0.0140296 0.0236904 -0.0211122
         vertex 0.0140774 0.0234172 -0.0211241
         vertex 0.0140338 0.0234184 -0.021119
      endloop
   endfacet
   facet normal 0 0.0436194 -0.999048
      outer loop
         vertex 0.0151626 0.0236904 -0.0211122
         vertex 0.01521 0.0234172 -0.0211241
         vertex 0.0140774 0.0234172 -0.0211241
      endloop
   endfacet
   facet normal 0 0.0436194 -0.999048
      outer loop
         vertex 0.0140774 0.0234172 -0.0211241
         vertex 0.0140296 0.0236904 -0.0211122
         vertex 0.0151626 0.0236904 -0.0211122
      endloop
   endfacet
   facet normal 0 0.0436194 -0.999048
      outer loop
         vertex 0.0139524 0.0236846 -0.0211074
         vertex 0.0140296 0.0236904 -0.0211122
         vertex 0.0138617 0.0235401 -0.0211137
      endloop
   endfacet
endsolid 1111. Units = meters