solid 1111. STL generated by ONSHAPE BY PTC INC, 1.216. Units = meters
   facet normal 0.751009 0.660006 0.0194344
      outer loop
         vertex 0.0281734 0.0277416 0.0144691
         vertex 0.0281724 0.0277516 0.0143256
         vertex 0.028144 0.0277807 0.0143578
      endloop
   endfacet
   facet normal 0.755844 0.650572 0.0738611
      outer loop
         vertex 0.0281668 0.0277645 0.0142595
         vertex 0.028139 0.0277995 0.0142167
         vertex 0.0281312 0.0278056 0.0142253
      endloop
   endfacet
   facet normal 0.755844 0.650572 0.0738611
      outer loop
         vertex 0.0281668 0.0277645 0.0142595
         vertex 0.0281569 0.0277823 0.0141928
         vertex 0.028139 0.0277995 0.0142167
      endloop
   endfacet
   facet normal 0.872548 0.488493 0.00583587
      outer loop
         vertex 0.0282612 0.027624 0.0143878
         vertex 0.0282592 0.0276331 0.0142217
         vertex 0.0282422 0.0276619 0.0142414
      endloop
   endfacet
   facet normal 0.857312 0.513141 0.0412617
      outer loop
         vertex 0.0282422 0.0276619 0.0142414
         vertex 0.028247 0.0276476 0.0143992
         vertex 0.0282482 0.0276459 0.0143981
      endloop
   endfacet
   facet normal 0.814603 0.579874 0.0129512
      outer loop
         vertex 0.0282267 0.0276776 0.0144174
         vertex 0.0282219 0.0276916 0.014266
         vertex 0.0281985 0.0277217 0.0142945
      endloop
   endfacet
   facet normal 0.762017 0.645339 0.0535555
      outer loop
         vertex 0.0281724 0.0277516 0.0143256
         vertex 0.0281893 0.0277251 0.0144539
         vertex 0.0282012 0.02771 0.0144423
      endloop
   endfacet
   facet normal 0.762017 0.645339 0.0535555
      outer loop
         vertex 0.0281724 0.0277516 0.0143256
         vertex 0.0281734 0.0277416 0.0144691
         vertex 0.0281893 0.0277251 0.0144539
      endloop
   endfacet
   facet normal 0.846263 0.532689 0.00901064
      outer loop
         vertex 0.028247 0.0276476 0.0143992
         vertex 0.0282422 0.0276619 0.0142414
         vertex 0.0282219 0.0276916 0.014266
      endloop
   endfacet
   facet normal 0.912409 0.408938 0.0166872
      outer loop
         vertex 0.028273 0.0276052 0.0142069
         vertex 0.0282877 0.0275687 0.0143743
         vertex 0.0282995 0.0275369 0.0143257
      endloop
   endfacet
   facet normal 0.942968 0.332883 -2.19629e-06
      outer loop
         vertex 0.0282995 0.0275369 0.0143257
         vertex 0.0282989 0.0275385 0.0142732
         vertex 0.028273 0.0276052 0.0142069
      endloop
   endfacet
   facet normal 0.942827 0.333281 -4.2497e-05
      outer loop
         vertex 0.0282989 0.0275385 0.0142732
         vertex 0.0282964 0.0275455 0.0142197
         vertex 0.028273 0.0276052 0.0142069
      endloop
   endfacet
   facet normal 0.928755 0.370695 0.00053069
      outer loop
         vertex 0.0282877 0.0275687 0.0143743
         vertex 0.0282995 0.0275369 0.0143733
         vertex 0.0282995 0.0275369 0.0143257
      endloop
   endfacet
   facet normal 0.912409 0.408938 0.0166872
      outer loop
         vertex 0.028273 0.0276052 0.0142069
         vertex 0.0282796 0.0275876 0.0143769
         vertex 0.0282877 0.0275687 0.0143743
      endloop
   endfacet
   facet normal 0.912409 0.408938 0.0166872
      outer loop
         vertex 0.028273 0.0276052 0.0142069
         vertex 0.0282787 0.0275897 0.0143774
         vertex 0.0282796 0.0275876 0.0143769
      endloop
   endfacet
   facet normal 0.909681 0.415303 0.00195326
      outer loop
         vertex 0.0282787 0.0275897 0.0143774
         vertex 0.028273 0.0276052 0.0142069
         vertex 0.0282592 0.0276331 0.0142217
      endloop
   endfacet
   facet normal 0.886188 0.462361 0.0298873
      outer loop
         vertex 0.0282592 0.0276331 0.0142217
         vertex 0.0282612 0.027624 0.0143878
         vertex 0.0282713 0.0276051 0.0143811
      endloop
   endfacet
   facet normal 0.886188 0.462361 0.0298873
      outer loop
         vertex 0.0282592 0.0276331 0.0142217
         vertex 0.0282365 0.0276894 0.0140762
         vertex 0.0282254 0.0277073 0.0140948
      endloop
   endfacet
   facet normal 0.827018 0.560005 0.0493498
      outer loop
         vertex 0.0282219 0.0276916 0.014266
         vertex 0.0281957 0.0277448 0.0141406
         vertex 0.028181 0.027759 0.0141603
      endloop
   endfacet
   facet normal 0.827018 0.560005 0.0493498
      outer loop
         vertex 0.0282219 0.0276916 0.014266
         vertex 0.0282029 0.0277357 0.0141295
         vertex 0.0281957 0.0277448 0.0141406
      endloop
   endfacet
   facet normal 0.772289 0.629262 0.0871694
      outer loop
         vertex 0.028181 0.027759 0.0141603
         vertex 0.0281569 0.0277823 0.0141928
         vertex 0.0281668 0.0277645 0.0142595
      endloop
   endfacet
   facet normal 0.755844 0.650572 0.0738611
      outer loop
         vertex 0.0281668 0.0277645 0.0142595
         vertex 0.0281985 0.0277217 0.0142945
         vertex 0.028181 0.027759 0.0141603
      endloop
   endfacet
   facet normal 0.762017 0.645339 0.0535555
      outer loop
         vertex 0.0281724 0.0277516 0.0143256
         vertex 0.0281668 0.0277645 0.0142595
         vertex 0.0281394 0.027791 0.0142923
      endloop
   endfacet
   facet normal 0.857312 0.513141 0.0412617
      outer loop
         vertex 0.0282422 0.0276619 0.0142414
         vertex 0.0282254 0.0277073 0.0140948
         vertex 0.0282029 0.0277357 0.0141295
      endloop
   endfacet
   facet normal 0.941065 0.338226 -4.23834e-05
      outer loop
         vertex 0.028292 0.0275579 0.0141673
         vertex 0.0282587 0.0276465 0.0140372
         vertex 0.0282489 0.027667 0.0140548
      endloop
   endfacet
   facet normal 0.912409 0.408938 0.0166872
      outer loop
         vertex 0.028273 0.0276052 0.0142069
         vertex 0.0282938 0.0275528 0.0141889
         vertex 0.028292 0.0275579 0.0141673
      endloop
   endfacet
   facet normal 0.925434 0.378713 0.0121797
      outer loop
         vertex 0.0282587 0.0276465 0.0140372
         vertex 0.0282864 0.0275735 0.0141206
         vertex 0.0282782 0.0275958 0.0140702
      endloop
   endfacet
   facet normal 0.925434 0.378713 0.0121797
      outer loop
         vertex 0.0282587 0.0276465 0.0140372
         vertex 0.028292 0.0275579 0.0141673
         vertex 0.0282864 0.0275735 0.0141206
      endloop
   endfacet
   facet normal 0.937492 0.348006 1.22187e-05
      outer loop
         vertex 0.0282782 0.0275958 0.0140702
         vertex 0.0282675 0.027624 0.0140204
         vertex 0.0282587 0.0276465 0.0140372
      endloop
   endfacet
   facet normal 0.912409 0.408938 0.0166872
      outer loop
         vertex 0.028273 0.0276052 0.0142069
         vertex 0.0282438 0.0276777 0.014064
         vertex 0.0282365 0.0276894 0.0140762
      endloop
   endfacet
   facet normal 0.912409 0.408938 0.0166872
      outer loop
         vertex 0.028273 0.0276052 0.0142069
         vertex 0.0282489 0.027667 0.0140548
         vertex 0.0282438 0.0276777 0.014064
      endloop
   endfacet
   facet normal 0.574061 0.818244 0.0305202
      outer loop
         vertex 0.0280506 0.0278611 0.0143776
         vertex 0.0280229 0.0278805 0.0143252
         vertex 0.0280172 0.0278836 0.0143284
      endloop
   endfacet
   facet normal 0.574061 0.818244 0.0305202
      outer loop
         vertex 0.0280506 0.0278611 0.0143776
         vertex 0.0280513 0.0278635 0.0143053
         vertex 0.0280229 0.0278805 0.0143252
      endloop
   endfacet
   facet normal 0.490621 0.871342 0.00742574
      outer loop
         vertex 0.0279926 0.0278957 0.0144763
         vertex 0.0279627 0.0279117 0.0143507
         vertex 0.027962 0.027912 0.0143509
      endloop
   endfacet
   facet normal 0.490621 0.871342 0.00742574
      outer loop
         vertex 0.0279926 0.0278957 0.0144763
         vertex 0.0279891 0.0278987 0.0143421
         vertex 0.0279813 0.0279027 0.0143453
      endloop
   endfacet
   facet normal 0.447148 0.894453 0.00340811
      outer loop
         vertex 0.0279813 0.0279027 0.0143453
         vertex 0.0279627 0.0279117 0.0143507
         vertex 0.0279926 0.0278957 0.0144763
      endloop
   endfacet
   facet normal 0.456929 0.889489 0.00497374
      outer loop
         vertex 0.0279891 0.0278987 0.0143421
         vertex 0.0279926 0.0278957 0.0144763
         vertex 0.0280208 0.0278802 0.014397
      endloop
   endfacet
   facet normal 0.490621 0.871342 0.00742574
      outer loop
         vertex 0.0279926 0.0278957 0.0144763
         vertex 0.0280221 0.0278781 0.0144626
         vertex 0.0280208 0.0278802 0.014397
      endloop
   endfacet
   facet normal 0.524277 0.851354 0.0181844
      outer loop
         vertex 0.0280208 0.0278802 0.014397
         vertex 0.0280172 0.0278836 0.0143284
         vertex 0.0280013 0.0278924 0.014337
      endloop
   endfacet
   facet normal 0.647896 0.760037 0.0507524
      outer loop
         vertex 0.0280956 0.0278282 0.0143389
         vertex 0.0280883 0.0278388 0.0142726
         vertex 0.0280747 0.0278479 0.0142847
      endloop
   endfacet
   facet normal 0.623607 0.780493 0.0441004
      outer loop
         vertex 0.0280806 0.0278397 0.0143529
         vertex 0.0280747 0.0278479 0.0142847
         vertex 0.0280513 0.0278635 0.0143053
      endloop
   endfacet
   facet normal 0.592533 0.805176 0.0244011
      outer loop
         vertex 0.0280526 0.0278575 0.014443
         vertex 0.0280506 0.0278611 0.0143776
         vertex 0.0280208 0.0278802 0.014397
      endloop
   endfacet
   facet normal 0.640587 0.767122 0.0342533
      outer loop
         vertex 0.0280834 0.0278342 0.0144181
         vertex 0.0280806 0.0278397 0.0143529
         vertex 0.0280506 0.0278611 0.0143776
      endloop
   endfacet
   facet normal 0.693846 0.71739 0.0626787
      outer loop
         vertex 0.0281251 0.0278038 0.0143084
         vertex 0.0281171 0.0278165 0.0142409
         vertex 0.0281031 0.0278273 0.0142563
      endloop
   endfacet
   facet normal 0.685074 0.727192 0.043184
      outer loop
         vertex 0.0281142 0.0278085 0.0143892
         vertex 0.0280956 0.0278282 0.0143389
         vertex 0.0280806 0.0278397 0.0143529
      endloop
   endfacet
   facet normal 0.685074 0.727192 0.043184
      outer loop
         vertex 0.0281142 0.0278085 0.0143892
         vertex 0.0281105 0.0278162 0.014324
         vertex 0.0280956 0.0278282 0.0143389
      endloop
   endfacet
   facet normal 0.671304 0.738984 0.0570314
      outer loop
         vertex 0.0281105 0.0278162 0.014324
         vertex 0.0281031 0.0278273 0.0142563
         vertex 0.0280883 0.0278388 0.0142726
      endloop
   endfacet
   facet normal 0.725416 0.686496 0.0499382
      outer loop
         vertex 0.028144 0.0277807 0.0143578
         vertex 0.0281251 0.0278038 0.0143084
         vertex 0.0281105 0.0278162 0.014324
      endloop
   endfacet
   facet normal 0.725416 0.686496 0.0499382
      outer loop
         vertex 0.028144 0.0277807 0.0143578
         vertex 0.0281394 0.027791 0.0142923
         vertex 0.0281251 0.0278038 0.0143084
      endloop
   endfacet
   facet normal 0.715551 0.695296 0.0674564
      outer loop
         vertex 0.0281394 0.027791 0.0142923
         vertex 0.0281312 0.0278056 0.0142253
         vertex 0.0281171 0.0278165 0.0142409
      endloop
   endfacet
   facet normal 0.541639 0.840477 0.0150162
      outer loop
         vertex 0.0280221 0.0278781 0.0144626
         vertex 0.028035 0.0278672 0.0145861
         vertex 0.0280499 0.027856 0.014576
      endloop
   endfacet
   facet normal 0.541639 0.840477 0.0150162
      outer loop
         vertex 0.0280221 0.0278781 0.0144626
         vertex 0.0280193 0.0278777 0.0145946
         vertex 0.028035 0.0278672 0.0145861
      endloop
   endfacet
   facet normal 0.442869 0.896583 0.0024596
      outer loop
         vertex 0.0279642 0.0279106 0.0144844
         vertex 0.0279689 0.0279078 0.0146143
         vertex 0.0279875 0.0278976 0.0146089
      endloop
   endfacet
   facet normal 0.442869 0.896583 0.0024596
      outer loop
         vertex 0.0279642 0.0279106 0.0144844
         vertex 0.0279622 0.0279112 0.0146155
         vertex 0.0279689 0.0279078 0.0146143
      endloop
   endfacet
   facet normal 0.490621 0.871342 0.00742574
      outer loop
         vertex 0.0279926 0.0278957 0.0144763
         vertex 0.0280092 0.0278845 0.0146001
         vertex 0.0280193 0.0278777 0.0145946
      endloop
   endfacet
   facet normal 0.490621 0.871342 0.00742574
      outer loop
         vertex 0.0279926 0.0278957 0.0144763
         vertex 0.0279875 0.0278976 0.0146089
         vertex 0.0280092 0.0278845 0.0146001
      endloop
   endfacet
   facet normal 0.689856 0.723645 0.0208936
      outer loop
         vertex 0.0281172 0.0278 0.0145229
         vertex 0.0281142 0.0278085 0.0143892
         vertex 0.0280834 0.0278342 0.0144181
      endloop
   endfacet
   facet normal 0.592533 0.805176 0.0244011
      outer loop
         vertex 0.0280526 0.0278575 0.014443
         vertex 0.0280679 0.0278424 0.0145637
         vertex 0.0280812 0.027831 0.0145527
      endloop
   endfacet
   facet normal 0.592533 0.805176 0.0244011
      outer loop
         vertex 0.0280526 0.0278575 0.014443
         vertex 0.0280499 0.027856 0.014576
         vertex 0.0280679 0.0278424 0.0145637
      endloop
   endfacet
   facet normal 0.719394 0.694288 0.0208947
      outer loop
         vertex 0.0281435 0.0277727 0.0144977
         vertex 0.028144 0.0277807 0.0143578
         vertex 0.0281142 0.0278085 0.0143892
      endloop
   endfacet
   facet normal 0.406884 0.91348 -0.00018895
      outer loop
         vertex 0.0279423 0.0279211 0.0143543
         vertex 0.0279126 0.027934 0.0143694
         vertex 0.0279126 0.0279339 0.0144344
      endloop
   endfacet
   facet normal 0.394496 0.918898 5.06972e-06
      outer loop
         vertex 0.0279126 0.0279339 0.0144344
         vertex 0.0279642 0.0279106 0.0144844
         vertex 0.0279423 0.0279211 0.0143543
      endloop
   endfacet
   facet normal 0.406884 0.91348 -0.00018895
      outer loop
         vertex 0.0279423 0.0279211 0.0143543
         vertex 0.0279125 0.027934 0.0143567
         vertex 0.0279126 0.027934 0.0143694
      endloop
   endfacet
   facet normal 0.442869 0.896583 0.0024596
      outer loop
         vertex 0.0279642 0.0279106 0.0144844
         vertex 0.027962 0.027912 0.0143509
         vertex 0.0279423 0.0279211 0.0143543
      endloop
   endfacet
   facet normal 0.394483 0.918903 -6.8386e-07
      outer loop
         vertex 0.0279127 0.0279339 0.0144943
         vertex 0.0279498 0.0279174 0.0146176
         vertex 0.0279622 0.0279112 0.0146155
      endloop
   endfacet
   facet normal 0.394483 0.918903 -6.8386e-07
      outer loop
         vertex 0.0279127 0.0279339 0.0144943
         vertex 0.0279247 0.0279287 0.0146191
         vertex 0.0279498 0.0279174 0.0146176
      endloop
   endfacet
   facet normal 0.394483 0.918903 -6.8386e-07
      outer loop
         vertex 0.0279127 0.0279339 0.0144943
         vertex 0.0279127 0.0279339 0.0146192
         vertex 0.0279247 0.0279287 0.0146191
      endloop
   endfacet
   facet normal 0.442869 0.896583 0.0024596
      outer loop
         vertex 0.0279642 0.0279106 0.0144844
         vertex 0.0279127 0.0279339 0.014488
         vertex 0.0279127 0.0279339 0.0144943
      endloop
   endfacet
   facet normal 0.451848 0.892092 0.00219597
      outer loop
         vertex 0.0279622 0.0279112 0.0146155
         vertex 0.0279642 0.0279106 0.0144844
         vertex 0.0279127 0.0279339 0.0144943
      endloop
   endfacet
   facet normal 0.394496 0.918898 5.06972e-06
      outer loop
         vertex 0.0279126 0.0279339 0.0144344
         vertex 0.0279127 0.0279339 0.014488
         vertex 0.0279642 0.0279106 0.0144844
      endloop
   endfacet
   facet normal 0.685074 0.727192 0.043184
      outer loop
         vertex 0.0281142 0.0278085 0.0143892
         vertex 0.0281172 0.0278 0.0145229
         vertex 0.0281435 0.0277727 0.0144977
      endloop
   endfacet
   facet normal 0.648051 0.761361 0.0189564
      outer loop
         vertex 0.0280812 0.027831 0.0145527
         vertex 0.0280834 0.0278342 0.0144181
         vertex 0.0280526 0.0278575 0.014443
      endloop
   endfacet
   facet normal 0.640587 0.767122 0.0342533
      outer loop
         vertex 0.0280834 0.0278342 0.0144181
         vertex 0.0280812 0.027831 0.0145527
         vertex 0.0281172 0.0278 0.0145229
      endloop
   endfacet
   facet normal 0.557204 0.830304 0.0108479
      outer loop
         vertex 0.0280193 0.0278777 0.0145946
         vertex 0.0280221 0.0278781 0.0144626
         vertex 0.0279926 0.0278957 0.0144763
      endloop
   endfacet
   facet normal 0.499954 0.866034 0.00562493
      outer loop
         vertex 0.0279875 0.0278976 0.0146089
         vertex 0.0279926 0.0278957 0.0144763
         vertex 0.0279642 0.0279106 0.0144844
      endloop
   endfacet
   facet normal 0.605546 0.79566 0.015482
      outer loop
         vertex 0.0280499 0.027856 0.014576
         vertex 0.0280526 0.0278575 0.014443
         vertex 0.0280221 0.0278781 0.0144626
      endloop
   endfacet
   facet normal 0.656708 0.751725 0.0603647
      outer loop
         vertex 0.0281171 0.0278165 0.0142409
         vertex 0.0281251 0.0278038 0.0143084
         vertex 0.0281394 0.027791 0.0142923
      endloop
   endfacet
   facet normal 0.671304 0.738984 0.0570314
      outer loop
         vertex 0.0281105 0.0278162 0.014324
         vertex 0.0281142 0.0278085 0.0143892
         vertex 0.028144 0.0277807 0.0143578
      endloop
   endfacet
   facet normal 0.606053 0.794183 0.0444144
      outer loop
         vertex 0.0280883 0.0278388 0.0142726
         vertex 0.0280956 0.0278282 0.0143389
         vertex 0.0281105 0.0278162 0.014324
      endloop
   endfacet
   facet normal 0.623607 0.780493 0.0441004
      outer loop
         vertex 0.0280806 0.0278397 0.0143529
         vertex 0.0280834 0.0278342 0.0144181
         vertex 0.0281142 0.0278085 0.0143892
      endloop
   endfacet
   facet normal 0.632368 0.77287 0.0527576
      outer loop
         vertex 0.0281031 0.0278273 0.0142563
         vertex 0.0281105 0.0278162 0.014324
         vertex 0.0281251 0.0278038 0.0143084
      endloop
   endfacet
   facet normal 0.574061 0.818244 0.0305202
      outer loop
         vertex 0.0280506 0.0278611 0.0143776
         vertex 0.0280526 0.0278575 0.014443
         vertex 0.0280834 0.0278342 0.0144181
      endloop
   endfacet
   facet normal 0.524277 0.851354 0.0181844
      outer loop
         vertex 0.0280208 0.0278802 0.014397
         vertex 0.0280221 0.0278781 0.0144626
         vertex 0.0280526 0.0278575 0.014443
      endloop
   endfacet
   facet normal 0.54592 0.83743 0.0261196
      outer loop
         vertex 0.0280513 0.0278635 0.0143053
         vertex 0.0280506 0.0278611 0.0143776
         vertex 0.0280806 0.0278397 0.0143529
      endloop
   endfacet
   facet normal 0.584045 0.810852 0.0375675
      outer loop
         vertex 0.0280747 0.0278479 0.0142847
         vertex 0.0280806 0.0278397 0.0143529
         vertex 0.0280956 0.0278282 0.0143389
      endloop
   endfacet
   facet normal 0.524277 0.851354 0.0181844
      outer loop
         vertex 0.0280208 0.0278802 0.014397
         vertex 0.0280013 0.0278924 0.014337
         vertex 0.0279891 0.0278987 0.0143421
      endloop
   endfacet
   facet normal 0.424853 0.905262 0.000786574
      outer loop
         vertex 0.027962 0.027912 0.0143509
         vertex 0.0279642 0.0279106 0.0144844
         vertex 0.0279926 0.0278957 0.0144763
      endloop
   endfacet
   facet normal 0.495027 0.868785 0.0126873
      outer loop
         vertex 0.0280172 0.0278836 0.0143284
         vertex 0.0280208 0.0278802 0.014397
         vertex 0.0280506 0.0278611 0.0143776
      endloop
   endfacet
   facet normal 0.88006 0.471 0.06044
      outer loop
         vertex 0.0282365 0.0276894 0.0140762
         vertex 0.0282592 0.0276331 0.0142217
         vertex 0.028273 0.0276052 0.0142069
      endloop
   endfacet
   facet normal 0.90673 0.420197 0.0357093
      outer loop
         vertex 0.0282489 0.027667 0.0140548
         vertex 0.028273 0.0276052 0.0142069
         vertex 0.028292 0.0275579 0.0141673
      endloop
   endfacet
   facet normal 0.812481 0.57643 0.0871959
      outer loop
         vertex 0.0282029 0.0277357 0.0141295
         vertex 0.0282219 0.0276916 0.014266
         vertex 0.0282422 0.0276619 0.0142414
      endloop
   endfacet
   facet normal 0.715551 0.695296 0.0674564
      outer loop
         vertex 0.0281394 0.027791 0.0142923
         vertex 0.028144 0.0277807 0.0143578
         vertex 0.0281724 0.0277516 0.0143256
      endloop
   endfacet
   facet normal 0.755844 0.650572 0.0738611
      outer loop
         vertex 0.0281668 0.0277645 0.0142595
         vertex 0.0281724 0.0277516 0.0143256
         vertex 0.0281985 0.0277217 0.0142945
      endloop
   endfacet
   facet normal 0.772289 0.629262 0.0871694
      outer loop
         vertex 0.028181 0.027759 0.0141603
         vertex 0.0281985 0.0277217 0.0142945
         vertex 0.0282219 0.0276916 0.014266
      endloop
   endfacet
   facet normal 0.856382 0.510894 0.0748099
      outer loop
         vertex 0.0282254 0.0277073 0.0140948
         vertex 0.0282422 0.0276619 0.0142414
         vertex 0.0282592 0.0276331 0.0142217
      endloop
   endfacet
   facet normal 0.886188 0.462361 0.0298873
      outer loop
         vertex 0.0282592 0.0276331 0.0142217
         vertex 0.0282713 0.0276051 0.0143811
         vertex 0.0282787 0.0275897 0.0143774
      endloop
   endfacet
   facet normal 0.942196 0.335062 5.35823e-05
      outer loop
         vertex 0.0282964 0.0275455 0.0142197
         vertex 0.0282938 0.0275528 0.0141889
         vertex 0.028273 0.0276052 0.0142069
      endloop
   endfacet
   facet normal 0.827018 0.560005 0.0493498
      outer loop
         vertex 0.0282219 0.0276916 0.014266
         vertex 0.0282267 0.0276776 0.0144174
         vertex 0.028247 0.0276476 0.0143992
      endloop
   endfacet
   facet normal 0.781888 0.623195 0.0167123
      outer loop
         vertex 0.0282012 0.02771 0.0144423
         vertex 0.0281985 0.0277217 0.0142945
         vertex 0.0281724 0.0277516 0.0143256
      endloop
   endfacet
   facet normal 0.795494 0.603597 0.0534729
      outer loop
         vertex 0.0281985 0.0277217 0.0142945
         vertex 0.0282012 0.02771 0.0144423
         vertex 0.0282267 0.0276776 0.0144174
      endloop
   endfacet
   facet normal 0.857312 0.513141 0.0412617
      outer loop
         vertex 0.0282422 0.0276619 0.0142414
         vertex 0.0282482 0.0276459 0.0143981
         vertex 0.0282612 0.027624 0.0143878
      endloop
   endfacet
   facet normal 0.681026 0.729134 0.0675836
      outer loop
         vertex 0.0281312 0.0278056 0.0142253
         vertex 0.0281394 0.027791 0.0142923
         vertex 0.0281668 0.0277645 0.0142595
      endloop
   endfacet
   facet normal 0.725416 0.686496 0.0499382
      outer loop
         vertex 0.028144 0.0277807 0.0143578
         vertex 0.0281435 0.0277727 0.0144977
         vertex 0.0281734 0.0277416 0.0144691
      endloop
   endfacet
endsolid 1111. Units = meters