solid 1111. STL generated by ONSHAPE BY PTC INC, 1.216. Units = meters
   facet normal 0 0.0436194 -0.999048
      outer loop
         vertex 0.0177105 0.0234847 -0.0211162
         vertex 0.0179566 0.0229509 -0.0211495
         vertex 0.0178642 0.0229264 -0.0211505
      endloop
   endfacet
   facet normal 0 0.0436194 -0.999048
      outer loop
         vertex 0.0176712 0.0234675 -0.0211169
         vertex 0.0178642 0.0229264 -0.0211505
         vertex 0.0177711 0.0229115 -0.0211512
      endloop
   endfacet
   facet normal 0 0.0436194 -0.999048
      outer loop
         vertex 0.0170794 0.0229045 -0.0211515
         vertex 0.0171263 0.0234353 -0.0211233
         vertex 0.0175006 0.0234353 -0.0211233
      endloop
   endfacet
   facet normal 0 0.0436194 -0.999048
      outer loop
         vertex 0.0182048 0.0230684 -0.0211443
         vertex 0.0181305 0.0230237 -0.0211463
         vertex 0.01778 0.0235283 -0.0211143
      endloop
   endfacet
   facet normal 0 0.0436194 -0.999048
      outer loop
         vertex 0.0177711 0.0229115 -0.0211512
         vertex 0.0176239 0.0234519 -0.0211176
         vertex 0.0176712 0.0234675 -0.0211169
      endloop
   endfacet
   facet normal 0 0.0436194 -0.999048
      outer loop
         vertex 0.0176239 0.0234519 -0.0211176
         vertex 0.0177711 0.0229115 -0.0211512
         vertex 0.0176567 0.0229045 -0.0211515
      endloop
   endfacet
   facet normal 0 0.0436194 -0.999048
      outer loop
         vertex 0.0175006 0.0234353 -0.0211233
         vertex 0.0176567 0.0229045 -0.0211515
         vertex 0.0170794 0.0229045 -0.0211515
      endloop
   endfacet
   facet normal 0 0.0436194 -0.999048
      outer loop
         vertex 0.017073 0.023438 -0.0211182
         vertex 0.0171263 0.0234353 -0.0211233
         vertex 0.0170794 0.0229045 -0.0211515
      endloop
   endfacet
   facet normal 0 0.0436194 -0.999048
      outer loop
         vertex 0.0185792 0.0237131 -0.0211162
         vertex 0.0185663 0.0236269 -0.02112
         vertex 0.0179259 0.0237707 -0.0211037
      endloop
   endfacet
   facet normal 0 0.0436194 -0.999048
      outer loop
         vertex 0.0185663 0.0236269 -0.02112
         vertex 0.0185429 0.023533 -0.0211241
         vertex 0.0179149 0.023728 -0.0211055
      endloop
   endfacet
   facet normal 0 0.0436194 -0.999048
      outer loop
         vertex 0.0184313 0.0232947 -0.0211345
         vertex 0.0183827 0.023229 -0.0211373
         vertex 0.017861 0.0236141 -0.0211105
      endloop
   endfacet
   facet normal 0 0.0436194 -0.999048
      outer loop
         vertex 0.0178096 0.0235537 -0.0211131
         vertex 0.0182789 0.0231242 -0.0211419
         vertex 0.0182048 0.0230684 -0.0211443
      endloop
   endfacet
   facet normal 0 0.0436194 -0.999048
      outer loop
         vertex 0.0181305 0.0230237 -0.0211463
         vertex 0.0180476 0.0229843 -0.021148
         vertex 0.0177463 0.0235047 -0.0211153
      endloop
   endfacet
   facet normal 0 0.0436194 -0.999048
      outer loop
         vertex 0.0177463 0.0235047 -0.0211153
         vertex 0.0180476 0.0229843 -0.021148
         vertex 0.0179566 0.0229509 -0.0211495
      endloop
   endfacet
   facet normal 0 0.0436194 -0.999048
      outer loop
         vertex 0.0176567 0.0229045 -0.0211515
         vertex 0.0175791 0.0234417 -0.021118
         vertex 0.0176239 0.0234519 -0.0211176
      endloop
   endfacet
   facet normal 0 0.0436194 -0.999048
      outer loop
         vertex 0.0170794 0.0229045 -0.0211515
         vertex 0.0170304 0.0229056 -0.0211514
         vertex 0.017073 0.023438 -0.0211182
      endloop
   endfacet
   facet normal 0 0.0436194 -0.999048
      outer loop
         vertex 0.0179149 0.023728 -0.0211055
         vertex 0.0179259 0.0237707 -0.0211037
         vertex 0.0185663 0.0236269 -0.02112
      endloop
   endfacet
   facet normal 0 0.0436194 -0.999048
      outer loop
         vertex 0.0185125 0.0234474 -0.0211278
         vertex 0.0178986 0.0236832 -0.0211075
         vertex 0.0179149 0.023728 -0.0211055
      endloop
   endfacet
   facet normal 0 0.0436194 -0.999048
      outer loop
         vertex 0.0184746 0.0233671 -0.0211313
         vertex 0.0178809 0.0236466 -0.0211091
         vertex 0.0178986 0.0236832 -0.0211075
      endloop
   endfacet
   facet normal 0 0.0436194 -0.999048
      outer loop
         vertex 0.0178809 0.0236466 -0.0211091
         vertex 0.0184746 0.0233671 -0.0211313
         vertex 0.0184313 0.0232947 -0.0211345
      endloop
   endfacet
   facet normal 0 0.0436194 -0.999048
      outer loop
         vertex 0.0178365 0.023582 -0.0211119
         vertex 0.0183365 0.0231774 -0.0211396
         vertex 0.0182789 0.0231242 -0.0211419
      endloop
   endfacet
   facet normal 0 0.0436194 -0.999048
      outer loop
         vertex 0.0177463 0.0235047 -0.0211153
         vertex 0.01778 0.0235283 -0.0211143
         vertex 0.0181305 0.0230237 -0.0211463
      endloop
   endfacet
   facet normal 0 0.0436194 -0.999048
      outer loop
         vertex 0.0178642 0.0229264 -0.0211505
         vertex 0.0176712 0.0234675 -0.0211169
         vertex 0.0177105 0.0234847 -0.0211162
      endloop
   endfacet
   facet normal 0 0.0436194 -0.999048
      outer loop
         vertex 0.0175006 0.0234353 -0.0211233
         vertex 0.0175368 0.0234363 -0.0211183
         vertex 0.0176567 0.0229045 -0.0211515
      endloop
   endfacet
   facet normal 0 0.0436194 -0.999048
      outer loop
         vertex 0.0166938 0.0229747 -0.0211484
         vertex 0.0169151 0.0234803 -0.0211163
         vertex 0.0169661 0.0234608 -0.0211172
      endloop
   endfacet
   facet normal 0 0.0436194 -0.999048
      outer loop
         vertex 0.0166938 0.0229747 -0.0211484
         vertex 0.0165839 0.0230214 -0.0211464
         vertex 0.0168632 0.0235062 -0.0211152
      endloop
   endfacet
   facet normal 0 0.0436194 -0.999048
      outer loop
         vertex 0.0161459 0.0233932 -0.0211302
         vertex 0.0166667 0.0236988 -0.0211068
         vertex 0.0166969 0.0236533 -0.0211088
      endloop
   endfacet
   facet normal 0 0.0436194 -0.999048
      outer loop
         vertex 0.0161459 0.0233932 -0.0211302
         vertex 0.0160839 0.0234915 -0.0211259
         vertex 0.016641 0.0237477 -0.0211047
      endloop
   endfacet
   facet normal 0 0.0436194 -0.999048
      outer loop
         vertex 0.0159501 0.0240785 -0.0211002
         vertex 0.0159612 0.0241637 -0.0210965
         vertex 0.0166049 0.0240351 -0.0210921
      endloop
   endfacet
   facet normal 0 0.0436194 -0.999048
      outer loop
         vertex 0.0159836 0.0242597 -0.0210923
         vertex 0.0166159 0.0240777 -0.0210903
         vertex 0.0166049 0.0240351 -0.0210921
      endloop
   endfacet
   facet normal 0 0.0436194 -0.999048
      outer loop
         vertex 0.0160497 0.0244276 -0.021085
         vertex 0.0160922 0.0245013 -0.0210818
         vertex 0.0166499 0.0241591 -0.0210867
      endloop
   endfacet
   facet normal 0 0.0436194 -0.999048
      outer loop
         vertex 0.0168202 0.024321 -0.0210796
         vertex 0.0165742 0.0248561 -0.0210663
         vertex 0.0166666 0.0248806 -0.0210652
      endloop
   endfacet
   facet normal 0 0.0436194 -0.999048
      outer loop
         vertex 0.0168595 0.0243382 -0.0210789
         vertex 0.0166666 0.0248806 -0.0210652
         vertex 0.0167597 0.0248955 -0.0210646
      endloop
   endfacet
   facet normal 0 0.0436194 -0.999048
      outer loop
         vertex 0.0178376 0.0248321 -0.0210673
         vertex 0.0176158 0.0243254 -0.0210795
         vertex 0.0175647 0.0243448 -0.0210786
      endloop
   endfacet
   facet normal 0 0.0436194 -0.999048
      outer loop
         vertex 0.0178376 0.0248321 -0.0210673
         vertex 0.0179475 0.0247853 -0.0210694
         vertex 0.0176677 0.0242994 -0.0210806
      endloop
   endfacet
   facet normal 0 0.0436194 -0.999048
      outer loop
         vertex 0.0179149 0.023728 -0.0211055
         vertex 0.0185429 0.023533 -0.0211241
         vertex 0.0185125 0.0234474 -0.0211278
      endloop
   endfacet
   facet normal 0 0.0436194 -0.999048
      outer loop
         vertex 0.017861 0.0236141 -0.0211105
         vertex 0.0178809 0.0236466 -0.0211091
         vertex 0.0184313 0.0232947 -0.0211345
      endloop
   endfacet
   facet normal 0 0.0436194 -0.999048
      outer loop
         vertex 0.01778 0.0235283 -0.0211143
         vertex 0.0178096 0.0235537 -0.0211131
         vertex 0.0182048 0.0230684 -0.0211443
      endloop
   endfacet
   facet normal 0 0.0436194 -0.999048
      outer loop
         vertex 0.0175368 0.0234363 -0.0211183
         vertex 0.0175791 0.0234417 -0.021118
         vertex 0.0176567 0.0229045 -0.0211515
      endloop
   endfacet
   facet normal 0 0.0436194 -0.999048
      outer loop
         vertex 0.0168081 0.0229392 -0.02115
         vertex 0.0169661 0.0234608 -0.0211172
         vertex 0.0170178 0.0234469 -0.0211178
      endloop
   endfacet
   facet normal 0 0.0436194 -0.999048
      outer loop
         vertex 0.0168632 0.0235062 -0.0211152
         vertex 0.0169151 0.0234803 -0.0211163
         vertex 0.0166938 0.0229747 -0.0211484
      endloop
   endfacet
   facet normal 0 0.0436194 -0.999048
      outer loop
         vertex 0.0162197 0.0232992 -0.0211343
         vertex 0.0166969 0.0236533 -0.0211088
         vertex 0.0167316 0.023611 -0.0211106
      endloop
   endfacet
   facet normal 0 0.0436194 -0.999048
      outer loop
         vertex 0.016641 0.0237477 -0.0211047
         vertex 0.0166667 0.0236988 -0.0211068
         vertex 0.0161459 0.0233932 -0.0211302
      endloop
   endfacet
   facet normal 0 0.0436194 -0.999048
      outer loop
         vertex 0.0166049 0.0240351 -0.0210921
         vertex 0.0159612 0.0241637 -0.0210965
         vertex 0.0159836 0.0242597 -0.0210923
      endloop
   endfacet
   facet normal 0 0.0436194 -0.999048
      outer loop
         vertex 0.0160129 0.0243462 -0.0210886
         vertex 0.0166322 0.0241225 -0.0210883
         vertex 0.0166159 0.0240777 -0.0210903
      endloop
   endfacet
   facet normal 0 0.0436194 -0.999048
      outer loop
         vertex 0.0166322 0.0241225 -0.0210883
         vertex 0.0160129 0.0243462 -0.0210886
         vertex 0.0160497 0.0244276 -0.021085
      endloop
   endfacet
   facet normal 0 0.0436194 -0.999048
      outer loop
         vertex 0.0160922 0.0245013 -0.0210818
         vertex 0.01614 0.024568 -0.0210789
         vertex 0.0166697 0.0241916 -0.0210853
      endloop
   endfacet
   facet normal 0 0.0436194 -0.999048
      outer loop
         vertex 0.016326 0.0247385 -0.0210714
         vertex 0.0164003 0.0247833 -0.0210695
         vertex 0.0167507 0.0242775 -0.0210815
      endloop
   endfacet
   facet normal 0 0.0436194 -0.999048
      outer loop
         vertex 0.0167597 0.0248955 -0.0210646
         vertex 0.0169068 0.0243539 -0.0210782
         vertex 0.0168595 0.0243382 -0.0210789
      endloop
   endfacet
   facet normal 0 0.0436194 -0.999048
      outer loop
         vertex 0.0169068 0.0243539 -0.0210782
         vertex 0.0167597 0.0248955 -0.0210646
         vertex 0.016874 0.0249025 -0.0210643
      endloop
   endfacet
   facet normal 0 0.0436194 -0.999048
      outer loop
         vertex 0.0174514 0.0249025 -0.0210643
         vertex 0.0174042 0.0243709 -0.0210825
         vertex 0.0170301 0.0243709 -0.0210825
      endloop
   endfacet
   facet normal 0 0.0436194 -0.999048
      outer loop
         vertex 0.0177233 0.0248676 -0.0210658
         vertex 0.0175647 0.0243448 -0.0210786
         vertex 0.017513 0.0243589 -0.021078
      endloop
   endfacet
   facet normal 0 0.0436194 -0.999048
      outer loop
         vertex 0.0176677 0.0242994 -0.0210806
         vertex 0.0176158 0.0243254 -0.0210795
         vertex 0.0178376 0.0248321 -0.0210673
      endloop
   endfacet
   facet normal 0 0.0436194 -0.999048
      outer loop
         vertex 0.0183109 0.0245078 -0.0210815
         vertex 0.0183848 0.0244138 -0.0210856
         vertex 0.0178612 0.0241118 -0.0210888
      endloop
   endfacet
   facet normal 0 0.0436194 -0.999048
      outer loop
         vertex 0.0183848 0.0244138 -0.0210856
         vertex 0.0184467 0.0243154 -0.0210899
         vertex 0.0178874 0.0240632 -0.0210909
      endloop
   endfacet
   facet normal 0 0.0436194 -0.999048
      outer loop
         vertex 0.0185832 0.0238067 -0.0211121
         vertex 0.0179324 0.023812 -0.0211019
         vertex 0.0179345 0.023855 -0.0211
      endloop
   endfacet
   facet normal 0 0.0436194 -0.999048
      outer loop
         vertex 0.0178986 0.0236832 -0.0211075
         vertex 0.0185125 0.0234474 -0.0211278
         vertex 0.0184746 0.0233671 -0.0211313
      endloop
   endfacet
   facet normal 0 0.0436194 -0.999048
      outer loop
         vertex 0.017861 0.0236141 -0.0211105
         vertex 0.0183827 0.023229 -0.0211373
         vertex 0.0183365 0.0231774 -0.0211396
      endloop
   endfacet
   facet normal 0 0.0436194 -0.999048
      outer loop
         vertex 0.0179566 0.0229509 -0.0211495
         vertex 0.0177105 0.0234847 -0.0211162
         vertex 0.0177463 0.0235047 -0.0211153
      endloop
   endfacet
   facet normal 0 0.0436194 -0.999048
      outer loop
         vertex 0.0169161 0.022917 -0.021151
         vertex 0.0170178 0.0234469 -0.0211178
         vertex 0.017073 0.023438 -0.0211182
      endloop
   endfacet
   facet normal 0 0.0436194 -0.999048
      outer loop
         vertex 0.0169661 0.0234608 -0.0211172
         vertex 0.0168081 0.0229392 -0.02115
         vertex 0.0166938 0.0229747 -0.0211484
      endloop
   endfacet
   facet normal 0 0.0436194 -0.999048
      outer loop
         vertex 0.0165839 0.0230214 -0.0211464
         vertex 0.0164798 0.0230788 -0.0211439
         vertex 0.0168138 0.0235378 -0.0211138
      endloop
   endfacet
   facet normal 0 0.0436194 -0.999048
      outer loop
         vertex 0.0163812 0.0231471 -0.0211409
         vertex 0.0163019 0.0232144 -0.021138
         vertex 0.0167316 0.023611 -0.0211106
      endloop
   endfacet
   facet normal 0 0.0436194 -0.999048
      outer loop
         vertex 0.0166969 0.0236533 -0.0211088
         vertex 0.0162197 0.0232992 -0.0211343
         vertex 0.0161459 0.0233932 -0.0211302
      endloop
   endfacet
   facet normal 0 0.0436194 -0.999048
      outer loop
         vertex 0.0166159 0.0240777 -0.0210903
         vertex 0.0159836 0.0242597 -0.0210923
         vertex 0.0160129 0.0243462 -0.0210886
      endloop
   endfacet
   facet normal 0 0.0436194 -0.999048
      outer loop
         vertex 0.0166697 0.0241916 -0.0210853
         vertex 0.0166499 0.0241591 -0.0210867
         vertex 0.0160922 0.0245013 -0.0210818
      endloop
   endfacet
   facet normal 0 0.0436194 -0.999048
      outer loop
         vertex 0.0167211 0.024252 -0.0210827
         vertex 0.0162518 0.0246828 -0.0210739
         vertex 0.016326 0.0247385 -0.0210714
      endloop
   endfacet
   facet normal 0 0.0436194 -0.999048
      outer loop
         vertex 0.0164003 0.0247833 -0.0210695
         vertex 0.0164833 0.0248227 -0.0210677
         vertex 0.0167844 0.024301 -0.0210805
      endloop
   endfacet
   facet normal 0 0.0436194 -0.999048
      outer loop
         vertex 0.0167844 0.024301 -0.0210805
         vertex 0.0164833 0.0248227 -0.0210677
         vertex 0.0165742 0.0248561 -0.0210663
      endloop
   endfacet
   facet normal 0 0.0436194 -0.999048
      outer loop
         vertex 0.016874 0.0249025 -0.0210643
         vertex 0.0169516 0.0243641 -0.0210778
         vertex 0.0169068 0.0243539 -0.0210782
      endloop
   endfacet
   facet normal 0 0.0436194 -0.999048
      outer loop
         vertex 0.0170301 0.0243709 -0.0210825
         vertex 0.016874 0.0249025 -0.0210643
         vertex 0.0174514 0.0249025 -0.0210643
      endloop
   endfacet
   facet normal 0 0.0436194 -0.999048
      outer loop
         vertex 0.0175647 0.0243448 -0.0210786
         vertex 0.0177233 0.0248676 -0.0210658
         vertex 0.0178376 0.0248321 -0.0210673
      endloop
   endfacet
   facet normal 0 0.0436194 -0.999048
      outer loop
         vertex 0.0179475 0.0247853 -0.0210694
         vertex 0.0180514 0.0247278 -0.0210719
         vertex 0.0177123 0.0242712 -0.0210818
      endloop
   endfacet
   facet normal 0 0.0436194 -0.999048
      outer loop
         vertex 0.0182287 0.0245926 -0.0210778
         vertex 0.0183109 0.0245078 -0.0210815
         vertex 0.0178305 0.0241569 -0.0210868
      endloop
   endfacet
   facet normal 0 0.0436194 -0.999048
      outer loop
         vertex 0.0178874 0.0240632 -0.0210909
         vertex 0.0178612 0.0241118 -0.0210888
         vertex 0.0183848 0.0244138 -0.0210856
      endloop
   endfacet
   facet normal 0 0.0436194 -0.999048
      outer loop
         vertex 0.0179345 0.023855 -0.0211
         vertex 0.018579 0.0238875 -0.0211086
         vertex 0.0185832 0.0238067 -0.0211121
      endloop
   endfacet
   facet normal 0 0.0436194 -0.999048
      outer loop
         vertex 0.0183365 0.0231774 -0.0211396
         vertex 0.0178365 0.023582 -0.0211119
         vertex 0.017861 0.0236141 -0.0211105
      endloop
   endfacet
   facet normal 0 0.0436194 -0.999048
      outer loop
         vertex 0.017073 0.023438 -0.0211182
         vertex 0.0170304 0.0229056 -0.0211514
         vertex 0.0169161 0.022917 -0.021151
      endloop
   endfacet
   facet normal 0 0.0436194 -0.999048
      outer loop
         vertex 0.0168138 0.0235378 -0.0211138
         vertex 0.0168632 0.0235062 -0.0211152
         vertex 0.0165839 0.0230214 -0.0211464
      endloop
   endfacet
   facet normal 0 0.0436194 -0.999048
      outer loop
         vertex 0.0164798 0.0230788 -0.0211439
         vertex 0.0163812 0.0231471 -0.0211409
         vertex 0.0167704 0.0235727 -0.0211123
      endloop
   endfacet
   facet normal 0 0.0436194 -0.999048
      outer loop
         vertex 0.0167316 0.023611 -0.0211106
         vertex 0.0163019 0.0232144 -0.021138
         vertex 0.0162197 0.0232992 -0.0211343
      endloop
   endfacet
   facet normal 0 0.0436194 -0.999048
      outer loop
         vertex 0.0160343 0.023591 -0.0211215
         vertex 0.0166209 0.0237982 -0.0211025
         vertex 0.016641 0.0237477 -0.0211047
      endloop
   endfacet
   facet normal 0 0.0436194 -0.999048
      outer loop
         vertex 0.015997 0.0236893 -0.0211172
         vertex 0.0166088 0.0238413 -0.0211006
         vertex 0.0166209 0.0237982 -0.0211025
      endloop
   endfacet
   facet normal 0 0.0436194 -0.999048
      outer loop
         vertex 0.0159475 0.0239866 -0.0211043
         vertex 0.0165984 0.0239937 -0.0210939
         vertex 0.0165962 0.0239507 -0.0210958
      endloop
   endfacet
   facet normal 0 0.0436194 -0.999048
      outer loop
         vertex 0.0166499 0.0241591 -0.0210867
         vertex 0.0166322 0.0241225 -0.0210883
         vertex 0.0160497 0.0244276 -0.021085
      endloop
   endfacet
   facet normal 0 0.0436194 -0.999048
      outer loop
         vertex 0.0166697 0.0241916 -0.0210853
         vertex 0.01614 0.024568 -0.0210789
         vertex 0.0161942 0.0246295 -0.0210762
      endloop
   endfacet
   facet normal 0 0.0436194 -0.999048
      outer loop
         vertex 0.0166942 0.0242237 -0.0210839
         vertex 0.0161942 0.0246295 -0.0210762
         vertex 0.0162518 0.0246828 -0.0210739
      endloop
   endfacet
   facet normal 0 0.0436194 -0.999048
      outer loop
         vertex 0.0167844 0.024301 -0.0210805
         vertex 0.0167507 0.0242775 -0.0210815
         vertex 0.0164003 0.0247833 -0.0210695
      endloop
   endfacet
   facet normal 0 0.0436194 -0.999048
      outer loop
         vertex 0.0166666 0.0248806 -0.0210652
         vertex 0.0168595 0.0243382 -0.0210789
         vertex 0.0168202 0.024321 -0.0210796
      endloop
   endfacet
   facet normal 0 0.0436194 -0.999048
      outer loop
         vertex 0.0170301 0.0243709 -0.0210825
         vertex 0.0169939 0.0243694 -0.0210775
         vertex 0.016874 0.0249025 -0.0210643
      endloop
   endfacet
   facet normal 0 0.0436194 -0.999048
      outer loop
         vertex 0.0177123 0.0242712 -0.0210818
         vertex 0.0176677 0.0242994 -0.0210806
         vertex 0.0179475 0.0247853 -0.0210694
      endloop
   endfacet
   facet normal 0 0.0436194 -0.999048
      outer loop
         vertex 0.0180514 0.0247278 -0.0210719
         vertex 0.01815 0.0246595 -0.0210749
         vertex 0.0177562 0.0242367 -0.0210833
      endloop
   endfacet
   facet normal 0 0.0436194 -0.999048
      outer loop
         vertex 0.01815 0.0246595 -0.0210749
         vertex 0.0182287 0.0245926 -0.0210778
         vertex 0.0177953 0.0241988 -0.021085
      endloop
   endfacet
   facet normal 0 0.0436194 -0.999048
      outer loop
         vertex 0.0178612 0.0241118 -0.0210888
         vertex 0.0178305 0.0241569 -0.0210868
         vertex 0.0183109 0.0245078 -0.0210815
      endloop
   endfacet
   facet normal 0 0.0436194 -0.999048
      outer loop
         vertex 0.0185758 0.0239191 -0.0211072
         vertex 0.0179345 0.023855 -0.0211
         vertex 0.0179317 0.0239031 -0.0211029
      endloop
   endfacet
   facet normal 0 0.0436194 -0.999048
      outer loop
         vertex 0.0179259 0.0237707 -0.0211037
         vertex 0.0179324 0.023812 -0.0211019
         vertex 0.0185792 0.0237131 -0.0211162
      endloop
   endfacet
   facet normal 0 0.0436194 -0.999048
      outer loop
         vertex 0.0170178 0.0234469 -0.0211178
         vertex 0.0169161 0.022917 -0.021151
         vertex 0.0168081 0.0229392 -0.02115
      endloop
   endfacet
   facet normal 0 0.0436194 -0.999048
      outer loop
         vertex 0.0167316 0.023611 -0.0211106
         vertex 0.0167704 0.0235727 -0.0211123
         vertex 0.0163812 0.0231471 -0.0211409
      endloop
   endfacet
   facet normal 0 0.0436194 -0.999048
      outer loop
         vertex 0.0166209 0.0237982 -0.0211025
         vertex 0.0160343 0.023591 -0.0211215
         vertex 0.015997 0.0236893 -0.0211172
      endloop
   endfacet
   facet normal 0 0.0436194 -0.999048
      outer loop
         vertex 0.0159549 0.0238875 -0.0211086
         vertex 0.0165962 0.0239507 -0.0210958
         vertex 0.0165991 0.0239031 -0.0211029
      endloop
   endfacet
   facet normal 0 0.0436194 -0.999048
      outer loop
         vertex 0.0165962 0.0239507 -0.0210958
         vertex 0.0159515 0.0239191 -0.0211072
         vertex 0.0159475 0.0239866 -0.0211043
      endloop
   endfacet
   facet normal 0 0.0436194 -0.999048
      outer loop
         vertex 0.0161942 0.0246295 -0.0210762
         vertex 0.0166942 0.0242237 -0.0210839
         vertex 0.0166697 0.0241916 -0.0210853
      endloop
   endfacet
   facet normal 0 0.0436194 -0.999048
      outer loop
         vertex 0.0167507 0.0242775 -0.0210815
         vertex 0.0167211 0.024252 -0.0210827
         vertex 0.016326 0.0247385 -0.0210714
      endloop
   endfacet
   facet normal 0 0.0436194 -0.999048
      outer loop
         vertex 0.0169939 0.0243694 -0.0210775
         vertex 0.0169516 0.0243641 -0.0210778
         vertex 0.016874 0.0249025 -0.0210643
      endloop
   endfacet
   facet normal 0 0.0436194 -0.999048
      outer loop
         vertex 0.0177562 0.0242367 -0.0210833
         vertex 0.0177123 0.0242712 -0.0210818
         vertex 0.0180514 0.0247278 -0.0210719
      endloop
   endfacet
   facet normal 0 0.0436194 -0.999048
      outer loop
         vertex 0.0178305 0.0241569 -0.0210868
         vertex 0.0177953 0.0241988 -0.021085
         vertex 0.0182287 0.0245926 -0.0210778
      endloop
   endfacet
   facet normal 0 0.0436194 -0.999048
      outer loop
         vertex 0.0184467 0.0243154 -0.0210899
         vertex 0.0184964 0.0242159 -0.0210942
         vertex 0.0179081 0.0240127 -0.0210931
      endloop
   endfacet
   facet normal 0 0.0436194 -0.999048
      outer loop
         vertex 0.0184964 0.0242159 -0.0210942
         vertex 0.0185338 0.0241175 -0.0210985
         vertex 0.0179208 0.0239694 -0.021095
      endloop
   endfacet
   facet normal 0 0.0436194 -0.999048
      outer loop
         vertex 0.0185597 0.0240209 -0.0211028
         vertex 0.0179317 0.0239031 -0.0211029
         vertex 0.0179208 0.0239694 -0.021095
      endloop
   endfacet
   facet normal 0 0.0436194 -0.999048
      outer loop
         vertex 0.0179317 0.0239031 -0.0211029
         vertex 0.0185597 0.0240209 -0.0211028
         vertex 0.0185758 0.0239191 -0.0211072
      endloop
   endfacet
   facet normal 0 0.0436194 -0.999048
      outer loop
         vertex 0.0182789 0.0231242 -0.0211419
         vertex 0.0178096 0.0235537 -0.0211131
         vertex 0.0178365 0.023582 -0.0211119
      endloop
   endfacet
   facet normal 0 0.0436194 -0.999048
      outer loop
         vertex 0.016641 0.0237477 -0.0211047
         vertex 0.0160839 0.0234915 -0.0211259
         vertex 0.0160343 0.023591 -0.0211215
      endloop
   endfacet
   facet normal 0 0.0436194 -0.999048
      outer loop
         vertex 0.0159711 0.0237858 -0.021113
         vertex 0.0165991 0.0239031 -0.0211029
         vertex 0.0166088 0.0238413 -0.0211006
      endloop
   endfacet
   facet normal 0 0.0436194 -0.999048
      outer loop
         vertex 0.0165991 0.0239031 -0.0211029
         vertex 0.0159711 0.0237858 -0.021113
         vertex 0.0159549 0.0238875 -0.0211086
      endloop
   endfacet
   facet normal 0 0.0436194 -0.999048
      outer loop
         vertex 0.0166049 0.0240351 -0.0210921
         vertex 0.0165984 0.0239937 -0.0210939
         vertex 0.0159501 0.0240785 -0.0211002
      endloop
   endfacet
   facet normal 0 0.0436194 -0.999048
      outer loop
         vertex 0.0165742 0.0248561 -0.0210663
         vertex 0.0168202 0.024321 -0.0210796
         vertex 0.0167844 0.024301 -0.0210805
      endloop
   endfacet
   facet normal 0 0.0436194 -0.999048
      outer loop
         vertex 0.0174577 0.0243677 -0.0210776
         vertex 0.0174042 0.0243709 -0.0210825
         vertex 0.0174514 0.0249025 -0.0210643
      endloop
   endfacet
   facet normal 0 0.0436194 -0.999048
      outer loop
         vertex 0.0176153 0.0248899 -0.0210648
         vertex 0.017513 0.0243589 -0.021078
         vertex 0.0174577 0.0243677 -0.0210776
      endloop
   endfacet
   facet normal 0 0.0436194 -0.999048
      outer loop
         vertex 0.0177953 0.0241988 -0.021085
         vertex 0.0177562 0.0242367 -0.0210833
         vertex 0.01815 0.0246595 -0.0210749
      endloop
   endfacet
   facet normal 0 0.0436194 -0.999048
      outer loop
         vertex 0.0179208 0.0239694 -0.021095
         vertex 0.0179081 0.0240127 -0.0210931
         vertex 0.0184964 0.0242159 -0.0210942
      endloop
   endfacet
   facet normal 0 0.0436194 -0.999048
      outer loop
         vertex 0.0185758 0.0239191 -0.0211072
         vertex 0.018579 0.0238875 -0.0211086
         vertex 0.0179345 0.023855 -0.0211
      endloop
   endfacet
   facet normal 0 0.0436194 -0.999048
      outer loop
         vertex 0.0167704 0.0235727 -0.0211123
         vertex 0.0168138 0.0235378 -0.0211138
         vertex 0.0164798 0.0230788 -0.0211439
      endloop
   endfacet
   facet normal 0 0.0436194 -0.999048
      outer loop
         vertex 0.0159549 0.0238875 -0.0211086
         vertex 0.0159515 0.0239191 -0.0211072
         vertex 0.0165962 0.0239507 -0.0210958
      endloop
   endfacet
   facet normal 0 0.0436194 -0.999048
      outer loop
         vertex 0.0162518 0.0246828 -0.0210739
         vertex 0.0167211 0.024252 -0.0210827
         vertex 0.0166942 0.0242237 -0.0210839
      endloop
   endfacet
   facet normal 0 0.0436194 -0.999048
      outer loop
         vertex 0.0174577 0.0243677 -0.0210776
         vertex 0.017501 0.0249014 -0.0210643
         vertex 0.0176153 0.0248899 -0.0210648
      endloop
   endfacet
   facet normal 0 0.0436194 -0.999048
      outer loop
         vertex 0.0179081 0.0240127 -0.0210931
         vertex 0.0178874 0.0240632 -0.0210909
         vertex 0.0184467 0.0243154 -0.0210899
      endloop
   endfacet
   facet normal 0 0.0436194 -0.999048
      outer loop
         vertex 0.0185832 0.0238067 -0.0211121
         vertex 0.0185792 0.0237131 -0.0211162
         vertex 0.0179324 0.023812 -0.0211019
      endloop
   endfacet
   facet normal 0 0.0436194 -0.999048
      outer loop
         vertex 0.0159475 0.0239866 -0.0211043
         vertex 0.0159501 0.0240785 -0.0211002
         vertex 0.0165984 0.0239937 -0.0210939
      endloop
   endfacet
   facet normal 0 0.0436194 -0.999048
      outer loop
         vertex 0.017513 0.0243589 -0.021078
         vertex 0.0176153 0.0248899 -0.0210648
         vertex 0.0177233 0.0248676 -0.0210658
      endloop
   endfacet
   facet normal 0 0.0436194 -0.999048
      outer loop
         vertex 0.0166088 0.0238413 -0.0211006
         vertex 0.015997 0.0236893 -0.0211172
         vertex 0.0159711 0.0237858 -0.021113
      endloop
   endfacet
   facet normal 0 0.0436194 -0.999048
      outer loop
         vertex 0.0179208 0.0239694 -0.021095
         vertex 0.0185338 0.0241175 -0.0210985
         vertex 0.0185597 0.0240209 -0.0211028
      endloop
   endfacet
   facet normal 0 0.0436194 -0.999048
      outer loop
         vertex 0.0174514 0.0249025 -0.0210643
         vertex 0.017501 0.0249014 -0.0210643
         vertex 0.0174577 0.0243677 -0.0210776
      endloop
   endfacet
   facet normal 0 0.0436194 -0.999048
      outer loop
         vertex 0.017073 0.023438 -0.0211182
         vertex 0.0166697 0.0241916 -0.0210853
         vertex 0.0166942 0.0242237 -0.0210839
      endloop
   endfacet
   facet normal 0 0.0436194 -0.999048
      outer loop
         vertex 0.017073 0.023438 -0.0211182
         vertex 0.0166499 0.0241591 -0.0210867
         vertex 0.0166697 0.0241916 -0.0210853
      endloop
   endfacet
   facet normal 0 0.0436194 -0.999048
      outer loop
         vertex 0.017073 0.023438 -0.0211182
         vertex 0.0167507 0.0242775 -0.0210815
         vertex 0.0167844 0.024301 -0.0210805
      endloop
   endfacet
   facet normal 0 0.0436194 -0.999048
      outer loop
         vertex 0.0166942 0.0242237 -0.0210839
         vertex 0.0167211 0.024252 -0.0210827
         vertex 0.017073 0.023438 -0.0211182
      endloop
   endfacet
   facet normal 0 0.0436194 -0.999048
      outer loop
         vertex 0.0167704 0.0235727 -0.0211123
         vertex 0.0169151 0.0234803 -0.0211163
         vertex 0.0168632 0.0235062 -0.0211152
      endloop
   endfacet
   facet normal 0 0.0436194 -0.999048
      outer loop
         vertex 0.0174577 0.0243677 -0.0210776
         vertex 0.017861 0.0236141 -0.0211105
         vertex 0.0178365 0.023582 -0.0211119
      endloop
   endfacet
   facet normal 0 0.0436194 -0.999048
      outer loop
         vertex 0.0177123 0.0242712 -0.0210818
         vertex 0.0177562 0.0242367 -0.0210833
         vertex 0.0177953 0.0241988 -0.021085
      endloop
   endfacet
   facet normal 0 0.0436194 -0.999048
      outer loop
         vertex 0.0167211 0.024252 -0.0210827
         vertex 0.0167507 0.0242775 -0.0210815
         vertex 0.017073 0.023438 -0.0211182
      endloop
   endfacet
   facet normal 0 0.0436194 -0.999048
      outer loop
         vertex 0.017073 0.023438 -0.0211182
         vertex 0.0166159 0.0240777 -0.0210903
         vertex 0.0166322 0.0241225 -0.0210883
      endloop
   endfacet
   facet normal 0 0.0436194 -0.999048
      outer loop
         vertex 0.0168632 0.0235062 -0.0211152
         vertex 0.0168138 0.0235378 -0.0211138
         vertex 0.0167704 0.0235727 -0.0211123
      endloop
   endfacet
   facet normal 0 0.0436194 -0.999048
      outer loop
         vertex 0.0174577 0.0243677 -0.0210776
         vertex 0.0178809 0.0236466 -0.0211091
         vertex 0.017861 0.0236141 -0.0211105
      endloop
   endfacet
   facet normal 0 0.0436194 -0.999048
      outer loop
         vertex 0.0176677 0.0242994 -0.0210806
         vertex 0.0179081 0.0240127 -0.0210931
         vertex 0.0179208 0.0239694 -0.021095
      endloop
   endfacet
   facet normal 0 0.0436194 -0.999048
      outer loop
         vertex 0.0176677 0.0242994 -0.0210806
         vertex 0.0178612 0.0241118 -0.0210888
         vertex 0.0178874 0.0240632 -0.0210909
      endloop
   endfacet
   facet normal 0 0.0436194 -0.999048
      outer loop
         vertex 0.0178305 0.0241569 -0.0210868
         vertex 0.0176677 0.0242994 -0.0210806
         vertex 0.0177123 0.0242712 -0.0210818
      endloop
   endfacet
   facet normal 0 0.0436194 -0.999048
      outer loop
         vertex 0.0166322 0.0241225 -0.0210883
         vertex 0.0166499 0.0241591 -0.0210867
         vertex 0.017073 0.023438 -0.0211182
      endloop
   endfacet
   facet normal 0 0.0436194 -0.999048
      outer loop
         vertex 0.0169151 0.0234803 -0.0211163
         vertex 0.0166209 0.0237982 -0.0211025
         vertex 0.0166088 0.0238413 -0.0211006
      endloop
   endfacet
   facet normal 0 0.0436194 -0.999048
      outer loop
         vertex 0.0169151 0.0234803 -0.0211163
         vertex 0.0166667 0.0236988 -0.0211068
         vertex 0.016641 0.0237477 -0.0211047
      endloop
   endfacet
   facet normal 0 0.0436194 -0.999048
      outer loop
         vertex 0.0167704 0.0235727 -0.0211123
         vertex 0.0167316 0.023611 -0.0211106
         vertex 0.0169151 0.0234803 -0.0211163
      endloop
   endfacet
   facet normal 0 0.0436194 -0.999048
      outer loop
         vertex 0.0174577 0.0243677 -0.0210776
         vertex 0.01778 0.0235283 -0.0211143
         vertex 0.0177463 0.0235047 -0.0211153
      endloop
   endfacet
   facet normal 0 0.0436194 -0.999048
      outer loop
         vertex 0.0178365 0.023582 -0.0211119
         vertex 0.0178096 0.0235537 -0.0211131
         vertex 0.0174577 0.0243677 -0.0210776
      endloop
   endfacet
   facet normal 0 0.0436194 -0.999048
      outer loop
         vertex 0.0176677 0.0242994 -0.0210806
         vertex 0.0179317 0.0239031 -0.0211029
         vertex 0.0179345 0.023855 -0.0211
      endloop
   endfacet
   facet normal 0 0.0436194 -0.999048
      outer loop
         vertex 0.0178874 0.0240632 -0.0210909
         vertex 0.0179081 0.0240127 -0.0210931
         vertex 0.0176677 0.0242994 -0.0210806
      endloop
   endfacet
   facet normal 0 0.0436194 -0.999048
      outer loop
         vertex 0.0177953 0.0241988 -0.021085
         vertex 0.0178305 0.0241569 -0.0210868
         vertex 0.0177123 0.0242712 -0.0210818
      endloop
   endfacet
   facet normal 0 0.0436194 -0.999048
      outer loop
         vertex 0.017073 0.023438 -0.0211182
         vertex 0.0166049 0.0240351 -0.0210921
         vertex 0.0166159 0.0240777 -0.0210903
      endloop
   endfacet
   facet normal 0 0.0436194 -0.999048
      outer loop
         vertex 0.017073 0.023438 -0.0211182
         vertex 0.0165991 0.0239031 -0.0211029
         vertex 0.0165962 0.0239507 -0.0210958
      endloop
   endfacet
   facet normal 0 0.0436194 -0.999048
      outer loop
         vertex 0.016641 0.0237477 -0.0211047
         vertex 0.0166209 0.0237982 -0.0211025
         vertex 0.0169151 0.0234803 -0.0211163
      endloop
   endfacet
   facet normal 0 0.0436194 -0.999048
      outer loop
         vertex 0.0167316 0.023611 -0.0211106
         vertex 0.0166969 0.0236533 -0.0211088
         vertex 0.0169151 0.0234803 -0.0211163
      endloop
   endfacet
   facet normal 0 0.0436194 -0.999048
      outer loop
         vertex 0.0165991 0.0239031 -0.0211029
         vertex 0.017073 0.023438 -0.0211182
         vertex 0.0170178 0.0234469 -0.0211178
      endloop
   endfacet
   facet normal 0 0.0436194 -0.999048
      outer loop
         vertex 0.0178096 0.0235537 -0.0211131
         vertex 0.01778 0.0235283 -0.0211143
         vertex 0.0174577 0.0243677 -0.0210776
      endloop
   endfacet
   facet normal 0 0.0436194 -0.999048
      outer loop
         vertex 0.0174577 0.0243677 -0.0210776
         vertex 0.0179149 0.023728 -0.0211055
         vertex 0.0178986 0.0236832 -0.0211075
      endloop
   endfacet
   facet normal 0 0.0436194 -0.999048
      outer loop
         vertex 0.0179345 0.023855 -0.0211
         vertex 0.0179324 0.023812 -0.0211019
         vertex 0.0176677 0.0242994 -0.0210806
      endloop
   endfacet
   facet normal 0 0.0436194 -0.999048
      outer loop
         vertex 0.0178305 0.0241569 -0.0210868
         vertex 0.0178612 0.0241118 -0.0210888
         vertex 0.0176677 0.0242994 -0.0210806
      endloop
   endfacet
   facet normal 0 0.0436194 -0.999048
      outer loop
         vertex 0.0167844 0.024301 -0.0210805
         vertex 0.0168202 0.024321 -0.0210796
         vertex 0.017073 0.023438 -0.0211182
      endloop
   endfacet
   facet normal 0 0.0436194 -0.999048
      outer loop
         vertex 0.0165962 0.0239507 -0.0210958
         vertex 0.0165984 0.0239937 -0.0210939
         vertex 0.017073 0.023438 -0.0211182
      endloop
   endfacet
   facet normal 0 0.0436194 -0.999048
      outer loop
         vertex 0.0166969 0.0236533 -0.0211088
         vertex 0.0166667 0.0236988 -0.0211068
         vertex 0.0169151 0.0234803 -0.0211163
      endloop
   endfacet
   facet normal 0 0.0436194 -0.999048
      outer loop
         vertex 0.0170178 0.0234469 -0.0211178
         vertex 0.0169661 0.0234608 -0.0211172
         vertex 0.0165991 0.0239031 -0.0211029
      endloop
   endfacet
   facet normal 0 0.0436194 -0.999048
      outer loop
         vertex 0.0178986 0.0236832 -0.0211075
         vertex 0.0178809 0.0236466 -0.0211091
         vertex 0.0174577 0.0243677 -0.0210776
      endloop
   endfacet
   facet normal 0 0.0436194 -0.999048
      outer loop
         vertex 0.0179208 0.0239694 -0.021095
         vertex 0.0179317 0.0239031 -0.0211029
         vertex 0.0176677 0.0242994 -0.0210806
      endloop
   endfacet
   facet normal 0 0.0436194 -0.999048
      outer loop
         vertex 0.0179259 0.0237707 -0.0211037
         vertex 0.0174577 0.0243677 -0.0210776
         vertex 0.017513 0.0243589 -0.021078
      endloop
   endfacet
   facet normal 0 0.0436194 -0.999048
      outer loop
         vertex 0.017073 0.023438 -0.0211182
         vertex 0.0169068 0.0243539 -0.0210782
         vertex 0.0169516 0.0243641 -0.0210778
      endloop
   endfacet
   facet normal 0 0.0436194 -0.999048
      outer loop
         vertex 0.0165984 0.0239937 -0.0210939
         vertex 0.0166049 0.0240351 -0.0210921
         vertex 0.017073 0.023438 -0.0211182
      endloop
   endfacet
   facet normal 0 0.0436194 -0.999048
      outer loop
         vertex 0.0169661 0.0234608 -0.0211172
         vertex 0.0169151 0.0234803 -0.0211163
         vertex 0.0165991 0.0239031 -0.0211029
      endloop
   endfacet
   facet normal 0 0.0436194 -0.999048
      outer loop
         vertex 0.0174577 0.0243677 -0.0210776
         vertex 0.0179259 0.0237707 -0.0211037
         vertex 0.0179149 0.023728 -0.0211055
      endloop
   endfacet
   facet normal 0 0.0436194 -0.999048
      outer loop
         vertex 0.0179259 0.0237707 -0.0211037
         vertex 0.0176158 0.0243254 -0.0210795
         vertex 0.0176677 0.0242994 -0.0210806
      endloop
   endfacet
   facet normal 0 0.0436194 -0.999048
      outer loop
         vertex 0.017513 0.0243589 -0.021078
         vertex 0.0175647 0.0243448 -0.0210786
         vertex 0.0179259 0.0237707 -0.0211037
      endloop
   endfacet
   facet normal 0 0.0436194 -0.999048
      outer loop
         vertex 0.0171263 0.0234353 -0.0211233
         vertex 0.0170301 0.0243709 -0.0210825
         vertex 0.0174042 0.0243709 -0.0210825
      endloop
   endfacet
   facet normal 0 0.0436194 -0.999048
      outer loop
         vertex 0.017073 0.023438 -0.0211182
         vertex 0.0168595 0.0243382 -0.0210789
         vertex 0.0169068 0.0243539 -0.0210782
      endloop
   endfacet
   facet normal 0 0.0436194 -0.999048
      outer loop
         vertex 0.0166088 0.0238413 -0.0211006
         vertex 0.0165991 0.0239031 -0.0211029
         vertex 0.0169151 0.0234803 -0.0211163
      endloop
   endfacet
   facet normal 0 0.0436194 -0.999048
      outer loop
         vertex 0.0174577 0.0243677 -0.0210776
         vertex 0.0176239 0.0234519 -0.0211176
         vertex 0.0175791 0.0234417 -0.021118
      endloop
   endfacet
   facet normal 0 0.0436194 -0.999048
      outer loop
         vertex 0.0177463 0.0235047 -0.0211153
         vertex 0.0177105 0.0234847 -0.0211162
         vertex 0.0174577 0.0243677 -0.0210776
      endloop
   endfacet
   facet normal 0 0.0436194 -0.999048
      outer loop
         vertex 0.0175647 0.0243448 -0.0210786
         vertex 0.0176158 0.0243254 -0.0210795
         vertex 0.0179259 0.0237707 -0.0211037
      endloop
   endfacet
   facet normal 0 0.0436194 -0.999048
      outer loop
         vertex 0.0174042 0.0243709 -0.0210825
         vertex 0.0175006 0.0234353 -0.0211233
         vertex 0.0171263 0.0234353 -0.0211233
      endloop
   endfacet
   facet normal 0 0.0436194 -0.999048
      outer loop
         vertex 0.0168202 0.024321 -0.0210796
         vertex 0.0168595 0.0243382 -0.0210789
         vertex 0.017073 0.023438 -0.0211182
      endloop
   endfacet
   facet normal 0 0.0436194 -0.999048
      outer loop
         vertex 0.0174577 0.0243677 -0.0210776
         vertex 0.0176712 0.0234675 -0.0211169
         vertex 0.0176239 0.0234519 -0.0211176
      endloop
   endfacet
   facet normal 0 0.0436194 -0.999048
      outer loop
         vertex 0.0179324 0.023812 -0.0211019
         vertex 0.0179259 0.0237707 -0.0211037
         vertex 0.0176677 0.0242994 -0.0210806
      endloop
   endfacet
   facet normal 0 0.0436194 -0.999048
      outer loop
         vertex 0.0174042 0.0243709 -0.0210825
         vertex 0.0174577 0.0243677 -0.0210776
         vertex 0.0175006 0.0234353 -0.0211233
      endloop
   endfacet
   facet normal 0 0.0436194 -0.999048
      outer loop
         vertex 0.0169516 0.0243641 -0.0210778
         vertex 0.0169939 0.0243694 -0.0210775
         vertex 0.017073 0.023438 -0.0211182
      endloop
   endfacet
   facet normal 0 0.0436194 -0.999048
      outer loop
         vertex 0.0177105 0.0234847 -0.0211162
         vertex 0.0176712 0.0234675 -0.0211169
         vertex 0.0174577 0.0243677 -0.0210776
      endloop
   endfacet
   facet normal 0 0.0436194 -0.999048
      outer loop
         vertex 0.0169939 0.0243694 -0.0210775
         vertex 0.0170301 0.0243709 -0.0210825
         vertex 0.017073 0.023438 -0.0211182
      endloop
   endfacet
   facet normal 0 0.0436194 -0.999048
      outer loop
         vertex 0.0175791 0.0234417 -0.021118
         vertex 0.0175368 0.0234363 -0.0211183
         vertex 0.0174577 0.0243677 -0.0210776
      endloop
   endfacet
   facet normal 0 0.0436194 -0.999048
      outer loop
         vertex 0.0175368 0.0234363 -0.0211183
         vertex 0.0175006 0.0234353 -0.0211233
         vertex 0.0174577 0.0243677 -0.0210776
      endloop
   endfacet
   facet normal 0 0.0436194 -0.999048
      outer loop
         vertex 0.0171263 0.0234353 -0.0211233
         vertex 0.017073 0.023438 -0.0211182
         vertex 0.0170301 0.0243709 -0.0210825
      endloop
   endfacet
endsolid 1111. Units = meters