solid 155-0746-000. STL generated by ONSHAPE BY PTC INC, 1.216. Units = meters
   facet normal 0.994138 -0.108119 0
      outer loop
         vertex -0.00101899 0.000110822 0.00657
         vertex -0.001025 2.51053e-19 0.00657
         vertex -0.001025 2.51053e-19 0
      endloop
   endfacet
   facet normal 0.976621 -0.21497 0
      outer loop
         vertex -0.00100104 0.000220345 0.00657
         vertex -0.00101899 0.000110822 0.00657
         vertex -0.00101899 0.000110822 0
      endloop
   endfacet
   facet normal 0.947653 -0.319302 0
      outer loop
         vertex -0.000971345 0.000327284 0.00657
         vertex -0.00100104 0.000220345 0.00657
         vertex -0.00100104 0.000220345 0
      endloop
   endfacet
   facet normal 0.907575 -0.419889 0
      outer loop
         vertex -0.000930265 0.000430386 0.00657
         vertex -0.000971345 0.000327284 0.00657
         vertex -0.000971345 0.000327284 0
      endloop
   endfacet
   facet normal 0.856857 -0.515554 0
      outer loop
         vertex -0.000878279 0.000528443 0.00657
         vertex -0.000930265 0.000430386 0.00657
         vertex -0.000930265 0.000430386 0
      endloop
   endfacet
   facet normal 0.796093 -0.605174 0
      outer loop
         vertex -0.000815995 0.000620304 0.00657
         vertex -0.000878279 0.000528443 0.00657
         vertex -0.000878279 0.000528443 0
      endloop
   endfacet
   facet normal 0.725995 -0.687699 0
      outer loop
         vertex -0.000744145 0.000704892 0.00657
         vertex -0.000815995 0.000620304 0.00657
         vertex -0.000815995 0.000620304 0
      endloop
   endfacet
   facet normal 0.647386 -0.762162 0
      outer loop
         vertex -0.000663571 0.000781216 0.00657
         vertex -0.000744145 0.000704892 0.00657
         vertex -0.000744145 0.000704892 0
      endloop
   endfacet
   facet normal 0.561187 -0.827689 0
      outer loop
         vertex -0.000575217 0.000848381 0.00657
         vertex -0.000663571 0.000781216 0.00657
         vertex -0.000663571 0.000781216 0
      endloop
   endfacet
   facet normal 0.468408 -0.883512 0
      outer loop
         vertex -0.000480119 0.0009056 0.00657
         vertex -0.000575217 0.000848381 0.00657
         vertex -0.000575217 0.000848381 0
      endloop
   endfacet
   facet normal 0.370138 -0.928977 0
      outer loop
         vertex -0.000379392 0.000952201 0.00657
         vertex -0.000480119 0.0009056 0.00657
         vertex -0.000480119 0.0009056 0
      endloop
   endfacet
   facet normal 0.267528 -0.96355 0
      outer loop
         vertex -0.000274217 0.000987639 0.00657
         vertex -0.000379392 0.000952201 0.00657
         vertex -0.000379392 0.000952201 0
      endloop
   endfacet
   facet normal 0.161782 -0.986827 0
      outer loop
         vertex -0.000165827 0.0010115 0.00657
         vertex -0.000274217 0.000987639 0.00657
         vertex -0.000274217 0.000987639 0
      endloop
   endfacet
   facet normal 0.0541389 -0.998533 0
      outer loop
         vertex -5.54924e-05 0.0010235 0.00657
         vertex -0.000165827 0.0010115 0.00657
         vertex -0.000165827 0.0010115 0
      endloop
   endfacet
   facet normal -0.0541389 -0.998533 0
      outer loop
         vertex 5.54924e-05 0.0010235 0.00657
         vertex -5.54924e-05 0.0010235 0.00657
         vertex -5.54924e-05 0.0010235 0
      endloop
   endfacet
   facet normal -0.161782 -0.986827 0
      outer loop
         vertex 0.000165827 0.0010115 0.00657
         vertex 5.54924e-05 0.0010235 0.00657
         vertex 5.54924e-05 0.0010235 0
      endloop
   endfacet
   facet normal -0.267528 -0.96355 0
      outer loop
         vertex 0.000274217 0.000987639 0.00657
         vertex 0.000165827 0.0010115 0.00657
         vertex 0.000165827 0.0010115 0
      endloop
   endfacet
   facet normal -0.370138 -0.928977 0
      outer loop
         vertex 0.000379392 0.000952201 0.00657
         vertex 0.000274217 0.000987639 0.00657
         vertex 0.000274217 0.000987639 0
      endloop
   endfacet
   facet normal -0.468408 -0.883512 0
      outer loop
         vertex 0.000480119 0.0009056 0.00657
         vertex 0.000379392 0.000952201 0.00657
         vertex 0.000379392 0.000952201 0
      endloop
   endfacet
   facet normal -0.561187 -0.827689 0
      outer loop
         vertex 0.000575217 0.000848381 0.00657
         vertex 0.000480119 0.0009056 0.00657
         vertex 0.000480119 0.0009056 0
      endloop
   endfacet
   facet normal -0.647386 -0.762162 0
      outer loop
         vertex 0.000663571 0.000781216 0.00657
         vertex 0.000575217 0.000848381 0.00657
         vertex 0.000575217 0.000848381 0
      endloop
   endfacet
   facet normal -0.725995 -0.687699 0
      outer loop
         vertex 0.000744145 0.000704892 0.00657
         vertex 0.000663571 0.000781216 0.00657
         vertex 0.000663571 0.000781216 0
      endloop
   endfacet
   facet normal -0.796093 -0.605174 0
      outer loop
         vertex 0.000815995 0.000620304 0.00657
         vertex 0.000744145 0.000704892 0.00657
         vertex 0.000744145 0.000704892 0
      endloop
   endfacet
   facet normal -0.856857 -0.515554 0
      outer loop
         vertex 0.000878279 0.000528443 0.00657
         vertex 0.000815995 0.000620304 0.00657
         vertex 0.000815995 0.000620304 0
      endloop
   endfacet
   facet normal -0.907575 -0.419889 0
      outer loop
         vertex 0.000930265 0.000430386 0.00657
         vertex 0.000878279 0.000528443 0.00657
         vertex 0.000878279 0.000528443 0
      endloop
   endfacet
   facet normal -0.947653 -0.319302 0
      outer loop
         vertex 0.000971345 0.000327284 0.00657
         vertex 0.000930265 0.000430386 0.00657
         vertex 0.000930265 0.000430386 0
      endloop
   endfacet
   facet normal -0.976621 -0.21497 0
      outer loop
         vertex 0.00100104 0.000220345 0.00657
         vertex 0.000971345 0.000327284 0.00657
         vertex 0.000971345 0.000327284 0
      endloop
   endfacet
   facet normal -0.994138 -0.108119 0
      outer loop
         vertex 0.00101899 0.000110822 0.00657
         vertex 0.00100104 0.000220345 0.00657
         vertex 0.00100104 0.000220345 0
      endloop
   endfacet
   facet normal -1 5.66554e-16 0
      outer loop
         vertex 0.001025 -3.76579e-19 0.00657
         vertex 0.00101899 0.000110822 0.00657
         vertex 0.00101899 0.000110822 0
      endloop
   endfacet
   facet normal -0.994138 0.108119 0
      outer loop
         vertex 0.00101899 -0.000110822 0.00657
         vertex 0.001025 -3.76579e-19 0.00657
         vertex 0.001025 -1.25526e-19 0
      endloop
   endfacet
   facet normal -0.976621 0.21497 0
      outer loop
         vertex 0.00100104 -0.000220345 0.00657
         vertex 0.00101899 -0.000110822 0.00657
         vertex 0.00101899 -0.000110822 0
      endloop
   endfacet
   facet normal -0.947653 0.319302 0
      outer loop
         vertex 0.000971345 -0.000327284 0.00657
         vertex 0.00100104 -0.000220345 0.00657
         vertex 0.00100104 -0.000220345 0
      endloop
   endfacet
   facet normal -0.907575 0.419889 0
      outer loop
         vertex 0.000930265 -0.000430386 0.00657
         vertex 0.000971345 -0.000327284 0.00657
         vertex 0.000971345 -0.000327284 0
      endloop
   endfacet
   facet normal -0.856857 0.515554 0
      outer loop
         vertex 0.000878279 -0.000528443 0.00657
         vertex 0.000930265 -0.000430386 0.00657
         vertex 0.000930265 -0.000430386 0
      endloop
   endfacet
   facet normal -0.796093 0.605174 0
      outer loop
         vertex 0.000815995 -0.000620304 0.00657
         vertex 0.000878279 -0.000528443 0.00657
         vertex 0.000878279 -0.000528443 0
      endloop
   endfacet
   facet normal -0.725995 0.687699 0
      outer loop
         vertex 0.000744145 -0.000704892 0.00657
         vertex 0.000815995 -0.000620304 0.00657
         vertex 0.000815995 -0.000620304 0
      endloop
   endfacet
   facet normal -0.647386 0.762162 0
      outer loop
         vertex 0.000663571 -0.000781216 0.00657
         vertex 0.000744145 -0.000704892 0.00657
         vertex 0.000744145 -0.000704892 0
      endloop
   endfacet
   facet normal -0.561187 0.827689 0
      outer loop
         vertex 0.000575217 -0.000848381 0.00657
         vertex 0.000663571 -0.000781216 0.00657
         vertex 0.000663571 -0.000781216 0
      endloop
   endfacet
   facet normal -0.468408 0.883512 0
      outer loop
         vertex 0.000480119 -0.0009056 0.00657
         vertex 0.000575217 -0.000848381 0.00657
         vertex 0.000575217 -0.000848381 0
      endloop
   endfacet
   facet normal -0.370138 0.928977 0
      outer loop
         vertex 0.000379392 -0.000952201 0.00657
         vertex 0.000480119 -0.0009056 0.00657
         vertex 0.000480119 -0.0009056 0
      endloop
   endfacet
   facet normal -0.267528 0.96355 0
      outer loop
         vertex 0.000274217 -0.000987639 0.00657
         vertex 0.000379392 -0.000952201 0.00657
         vertex 0.000379392 -0.000952201 0
      endloop
   endfacet
   facet normal -0.161782 0.986827 0
      outer loop
         vertex 0.000165827 -0.0010115 0.00657
         vertex 0.000274217 -0.000987639 0.00657
         vertex 0.000274217 -0.000987639 0
      endloop
   endfacet
   facet normal -0.0541389 0.998533 0
      outer loop
         vertex 5.54924e-05 -0.0010235 0.00657
         vertex 0.000165827 -0.0010115 0.00657
         vertex 0.000165827 -0.0010115 0
      endloop
   endfacet
   facet normal 0.0541389 0.998533 0
      outer loop
         vertex -5.54924e-05 -0.0010235 0.00657
         vertex 5.54924e-05 -0.0010235 0.00657
         vertex 5.54924e-05 -0.0010235 0
      endloop
   endfacet
   facet normal 0.161782 0.986827 0
      outer loop
         vertex -0.000165827 -0.0010115 0.00657
         vertex -5.54924e-05 -0.0010235 0.00657
         vertex -5.54924e-05 -0.0010235 0
      endloop
   endfacet
   facet normal 0.267528 0.96355 0
      outer loop
         vertex -0.000274217 -0.000987639 0.00657
         vertex -0.000165827 -0.0010115 0.00657
         vertex -0.000165827 -0.0010115 0
      endloop
   endfacet
   facet normal 0.370138 0.928977 0
      outer loop
         vertex -0.000379392 -0.000952201 0.00657
         vertex -0.000274217 -0.000987639 0.00657
         vertex -0.000274217 -0.000987639 0
      endloop
   endfacet
   facet normal 0.468408 0.883512 0
      outer loop
         vertex -0.000480119 -0.0009056 0.00657
         vertex -0.000379392 -0.000952201 0.00657
         vertex -0.000379392 -0.000952201 0
      endloop
   endfacet
   facet normal 0.561187 0.827689 0
      outer loop
         vertex -0.000575217 -0.000848381 0.00657
         vertex -0.000480119 -0.0009056 0.00657
         vertex -0.000480119 -0.0009056 0
      endloop
   endfacet
   facet normal 0.647386 0.762162 0
      outer loop
         vertex -0.000663571 -0.000781216 0.00657
         vertex -0.000575217 -0.000848381 0.00657
         vertex -0.000575217 -0.000848381 0
      endloop
   endfacet
   facet normal 0.725995 0.687699 0
      outer loop
         vertex -0.000744145 -0.000704892 0.00657
         vertex -0.000663571 -0.000781216 0.00657
         vertex -0.000663571 -0.000781216 0
      endloop
   endfacet
   facet normal 0.796093 0.605174 0
      outer loop
         vertex -0.000815995 -0.000620304 0.00657
         vertex -0.000744145 -0.000704892 0.00657
         vertex -0.000744145 -0.000704892 0
      endloop
   endfacet
   facet normal 0.856857 0.515554 0
      outer loop
         vertex -0.000878279 -0.000528443 0.00657
         vertex -0.000815995 -0.000620304 0.00657
         vertex -0.000815995 -0.000620304 0
      endloop
   endfacet
   facet normal 0.907575 0.419889 0
      outer loop
         vertex -0.000930265 -0.000430386 0.00657
         vertex -0.000878279 -0.000528443 0.00657
         vertex -0.000878279 -0.000528443 0
      endloop
   endfacet
   facet normal 0.947653 0.319302 0
      outer loop
         vertex -0.000971345 -0.000327284 0.00657
         vertex -0.000930265 -0.000430386 0.00657
         vertex -0.000930265 -0.000430386 0
      endloop
   endfacet
   facet normal 0.976621 0.21497 0
      outer loop
         vertex -0.00100104 -0.000220345 0.00657
         vertex -0.000971345 -0.000327284 0.00657
         vertex -0.000971345 -0.000327284 0
      endloop
   endfacet
   facet normal 0.994138 0.108119 0
      outer loop
         vertex -0.00101899 -0.000110822 0.00657
         vertex -0.00100104 -0.000220345 0.00657
         vertex -0.00100104 -0.000220345 0
      endloop
   endfacet
   facet normal 1 -2.44929e-16 0
      outer loop
         vertex -0.001025 2.51053e-19 0.00657
         vertex -0.00101899 -0.000110822 0.00657
         vertex -0.00101899 -0.000110822 0
      endloop
   endfacet
   facet normal 0.994138 0.108119 0
      outer loop
         vertex -0.00101899 -0.000110822 0
         vertex -0.001025 2.51053e-19 0
         vertex -0.001025 2.51053e-19 0.00657
      endloop
   endfacet
   facet normal 0.976621 0.21497 0
      outer loop
         vertex -0.00100104 -0.000220345 0
         vertex -0.00101899 -0.000110822 0
         vertex -0.00101899 -0.000110822 0.00657
      endloop
   endfacet
   facet normal 0.947653 0.319302 0
      outer loop
         vertex -0.000971345 -0.000327284 0
         vertex -0.00100104 -0.000220345 0
         vertex -0.00100104 -0.000220345 0.00657
      endloop
   endfacet
   facet normal 0.907575 0.419889 0
      outer loop
         vertex -0.000930265 -0.000430386 0
         vertex -0.000971345 -0.000327284 0
         vertex -0.000971345 -0.000327284 0.00657
      endloop
   endfacet
   facet normal 0.856857 0.515554 0
      outer loop
         vertex -0.000878279 -0.000528443 0
         vertex -0.000930265 -0.000430386 0
         vertex -0.000930265 -0.000430386 0.00657
      endloop
   endfacet
   facet normal 0.796093 0.605174 0
      outer loop
         vertex -0.000815995 -0.000620304 0
         vertex -0.000878279 -0.000528443 0
         vertex -0.000878279 -0.000528443 0.00657
      endloop
   endfacet
   facet normal 0.725995 0.687699 0
      outer loop
         vertex -0.000744145 -0.000704892 0
         vertex -0.000815995 -0.000620304 0
         vertex -0.000815995 -0.000620304 0.00657
      endloop
   endfacet
   facet normal 0.647386 0.762162 0
      outer loop
         vertex -0.000663571 -0.000781216 0
         vertex -0.000744145 -0.000704892 0
         vertex -0.000744145 -0.000704892 0.00657
      endloop
   endfacet
   facet normal 0.561187 0.827689 0
      outer loop
         vertex -0.000575217 -0.000848381 0
         vertex -0.000663571 -0.000781216 0
         vertex -0.000663571 -0.000781216 0.00657
      endloop
   endfacet
   facet normal 0.468408 0.883512 0
      outer loop
         vertex -0.000480119 -0.0009056 0
         vertex -0.000575217 -0.000848381 0
         vertex -0.000575217 -0.000848381 0.00657
      endloop
   endfacet
   facet normal 0.370138 0.928977 0
      outer loop
         vertex -0.000379392 -0.000952201 0
         vertex -0.000480119 -0.0009056 0
         vertex -0.000480119 -0.0009056 0.00657
      endloop
   endfacet
   facet normal 0.267528 0.96355 0
      outer loop
         vertex -0.000274217 -0.000987639 0
         vertex -0.000379392 -0.000952201 0
         vertex -0.000379392 -0.000952201 0.00657
      endloop
   endfacet
   facet normal 0.161782 0.986827 0
      outer loop
         vertex -0.000165827 -0.0010115 0
         vertex -0.000274217 -0.000987639 0
         vertex -0.000274217 -0.000987639 0.00657
      endloop
   endfacet
   facet normal 0.0541389 0.998533 0
      outer loop
         vertex -5.54924e-05 -0.0010235 0
         vertex -0.000165827 -0.0010115 0
         vertex -0.000165827 -0.0010115 0.00657
      endloop
   endfacet
   facet normal -0.0541389 0.998533 0
      outer loop
         vertex 5.54924e-05 -0.0010235 0
         vertex -5.54924e-05 -0.0010235 0
         vertex -5.54924e-05 -0.0010235 0.00657
      endloop
   endfacet
   facet normal -0.161782 0.986827 0
      outer loop
         vertex 0.000165827 -0.0010115 0
         vertex 5.54924e-05 -0.0010235 0
         vertex 5.54924e-05 -0.0010235 0.00657
      endloop
   endfacet
   facet normal -0.267528 0.96355 0
      outer loop
         vertex 0.000274217 -0.000987639 0
         vertex 0.000165827 -0.0010115 0
         vertex 0.000165827 -0.0010115 0.00657
      endloop
   endfacet
   facet normal -0.370138 0.928977 0
      outer loop
         vertex 0.000379392 -0.000952201 0
         vertex 0.000274217 -0.000987639 0
         vertex 0.000274217 -0.000987639 0.00657
      endloop
   endfacet
   facet normal -0.468408 0.883512 0
      outer loop
         vertex 0.000480119 -0.0009056 0
         vertex 0.000379392 -0.000952201 0
         vertex 0.000379392 -0.000952201 0.00657
      endloop
   endfacet
   facet normal -0.561187 0.827689 0
      outer loop
         vertex 0.000575217 -0.000848381 0
         vertex 0.000480119 -0.0009056 0
         vertex 0.000480119 -0.0009056 0.00657
      endloop
   endfacet
   facet normal -0.647386 0.762162 0
      outer loop
         vertex 0.000663571 -0.000781216 0
         vertex 0.000575217 -0.000848381 0
         vertex 0.000575217 -0.000848381 0.00657
      endloop
   endfacet
   facet normal -0.725995 0.687699 0
      outer loop
         vertex 0.000744145 -0.000704892 0
         vertex 0.000663571 -0.000781216 0
         vertex 0.000663571 -0.000781216 0.00657
      endloop
   endfacet
   facet normal -0.796093 0.605174 0
      outer loop
         vertex 0.000815995 -0.000620304 0
         vertex 0.000744145 -0.000704892 0
         vertex 0.000744145 -0.000704892 0.00657
      endloop
   endfacet
   facet normal -0.856857 0.515554 0
      outer loop
         vertex 0.000878279 -0.000528443 0
         vertex 0.000815995 -0.000620304 0
         vertex 0.000815995 -0.000620304 0.00657
      endloop
   endfacet
   facet normal -0.907575 0.419889 0
      outer loop
         vertex 0.000930265 -0.000430386 0
         vertex 0.000878279 -0.000528443 0
         vertex 0.000878279 -0.000528443 0.00657
      endloop
   endfacet
   facet normal -0.947653 0.319302 0
      outer loop
         vertex 0.000971345 -0.000327284 0
         vertex 0.000930265 -0.000430386 0
         vertex 0.000930265 -0.000430386 0.00657
      endloop
   endfacet
   facet normal -0.976621 0.21497 0
      outer loop
         vertex 0.00100104 -0.000220345 0
         vertex 0.000971345 -0.000327284 0
         vertex 0.000971345 -0.000327284 0.00657
      endloop
   endfacet
   facet normal -0.994138 0.108119 0
      outer loop
         vertex 0.00101899 -0.000110822 0
         vertex 0.00100104 -0.000220345 0
         vertex 0.00100104 -0.000220345 0.00657
      endloop
   endfacet
   facet normal -1 1.22465e-16 0
      outer loop
         vertex 0.001025 -1.25526e-19 0
         vertex 0.00101899 -0.000110822 0
         vertex 0.00101899 -0.000110822 0.00657
      endloop
   endfacet
   facet normal -0.994138 -0.108119 0
      outer loop
         vertex 0.00101899 0.000110822 0
         vertex 0.001025 -1.25526e-19 0
         vertex 0.001025 -3.76579e-19 0.00657
      endloop
   endfacet
   facet normal -0.976621 -0.21497 0
      outer loop
         vertex 0.00100104 0.000220345 0
         vertex 0.00101899 0.000110822 0
         vertex 0.00101899 0.000110822 0.00657
      endloop
   endfacet
   facet normal -0.947653 -0.319302 0
      outer loop
         vertex 0.000971345 0.000327284 0
         vertex 0.00100104 0.000220345 0
         vertex 0.00100104 0.000220345 0.00657
      endloop
   endfacet
   facet normal -0.907575 -0.419889 0
      outer loop
         vertex 0.000930265 0.000430386 0
         vertex 0.000971345 0.000327284 0
         vertex 0.000971345 0.000327284 0.00657
      endloop
   endfacet
   facet normal -0.856857 -0.515554 0
      outer loop
         vertex 0.000878279 0.000528443 0
         vertex 0.000930265 0.000430386 0
         vertex 0.000930265 0.000430386 0.00657
      endloop
   endfacet
   facet normal -0.796093 -0.605174 0
      outer loop
         vertex 0.000815995 0.000620304 0
         vertex 0.000878279 0.000528443 0
         vertex 0.000878279 0.000528443 0.00657
      endloop
   endfacet
   facet normal -0.725995 -0.687699 0
      outer loop
         vertex 0.000744145 0.000704892 0
         vertex 0.000815995 0.000620304 0
         vertex 0.000815995 0.000620304 0.00657
      endloop
   endfacet
   facet normal -0.647386 -0.762162 0
      outer loop
         vertex 0.000663571 0.000781216 0
         vertex 0.000744145 0.000704892 0
         vertex 0.000744145 0.000704892 0.00657
      endloop
   endfacet
   facet normal -0.561187 -0.827689 0
      outer loop
         vertex 0.000575217 0.000848381 0
         vertex 0.000663571 0.000781216 0
         vertex 0.000663571 0.000781216 0.00657
      endloop
   endfacet
   facet normal -0.468408 -0.883512 0
      outer loop
         vertex 0.000480119 0.0009056 0
         vertex 0.000575217 0.000848381 0
         vertex 0.000575217 0.000848381 0.00657
      endloop
   endfacet
   facet normal -0.370138 -0.928977 0
      outer loop
         vertex 0.000379392 0.000952201 0
         vertex 0.000480119 0.0009056 0
         vertex 0.000480119 0.0009056 0.00657
      endloop
   endfacet
   facet normal -0.267528 -0.96355 0
      outer loop
         vertex 0.000274217 0.000987639 0
         vertex 0.000379392 0.000952201 0
         vertex 0.000379392 0.000952201 0.00657
      endloop
   endfacet
   facet normal -0.161782 -0.986827 0
      outer loop
         vertex 0.000165827 0.0010115 0
         vertex 0.000274217 0.000987639 0
         vertex 0.000274217 0.000987639 0.00657
      endloop
   endfacet
   facet normal -0.0541389 -0.998533 0
      outer loop
         vertex 5.54924e-05 0.0010235 0
         vertex 0.000165827 0.0010115 0
         vertex 0.000165827 0.0010115 0.00657
      endloop
   endfacet
   facet normal 0.0541389 -0.998533 0
      outer loop
         vertex -5.54924e-05 0.0010235 0
         vertex 5.54924e-05 0.0010235 0
         vertex 5.54924e-05 0.0010235 0.00657
      endloop
   endfacet
   facet normal 0.161782 -0.986827 0
      outer loop
         vertex -0.000165827 0.0010115 0
         vertex -5.54924e-05 0.0010235 0
         vertex -5.54924e-05 0.0010235 0.00657
      endloop
   endfacet
   facet normal 0.267528 -0.96355 0
      outer loop
         vertex -0.000274217 0.000987639 0
         vertex -0.000165827 0.0010115 0
         vertex -0.000165827 0.0010115 0.00657
      endloop
   endfacet
   facet normal 0.370138 -0.928977 0
      outer loop
         vertex -0.000379392 0.000952201 0
         vertex -0.000274217 0.000987639 0
         vertex -0.000274217 0.000987639 0.00657
      endloop
   endfacet
   facet normal 0.468408 -0.883512 0
      outer loop
         vertex -0.000480119 0.0009056 0
         vertex -0.000379392 0.000952201 0
         vertex -0.000379392 0.000952201 0.00657
      endloop
   endfacet
   facet normal 0.561187 -0.827689 0
      outer loop
         vertex -0.000575217 0.000848381 0
         vertex -0.000480119 0.0009056 0
         vertex -0.000480119 0.0009056 0.00657
      endloop
   endfacet
   facet normal 0.647386 -0.762162 0
      outer loop
         vertex -0.000663571 0.000781216 0
         vertex -0.000575217 0.000848381 0
         vertex -0.000575217 0.000848381 0.00657
      endloop
   endfacet
   facet normal 0.725995 -0.687699 0
      outer loop
         vertex -0.000744145 0.000704892 0
         vertex -0.000663571 0.000781216 0
         vertex -0.000663571 0.000781216 0.00657
      endloop
   endfacet
   facet normal 0.796093 -0.605174 0
      outer loop
         vertex -0.000815995 0.000620304 0
         vertex -0.000744145 0.000704892 0
         vertex -0.000744145 0.000704892 0.00657
      endloop
   endfacet
   facet normal 0.856857 -0.515554 0
      outer loop
         vertex -0.000878279 0.000528443 0
         vertex -0.000815995 0.000620304 0
         vertex -0.000815995 0.000620304 0.00657
      endloop
   endfacet
   facet normal 0.907575 -0.419889 0
      outer loop
         vertex -0.000930265 0.000430386 0
         vertex -0.000878279 0.000528443 0
         vertex -0.000878279 0.000528443 0.00657
      endloop
   endfacet
   facet normal 0.947653 -0.319302 0
      outer loop
         vertex -0.000971345 0.000327284 0
         vertex -0.000930265 0.000430386 0
         vertex -0.000930265 0.000430386 0.00657
      endloop
   endfacet
   facet normal 0.976621 -0.21497 0
      outer loop
         vertex -0.00100104 0.000220345 0
         vertex -0.000971345 0.000327284 0
         vertex -0.000971345 0.000327284 0.00657
      endloop
   endfacet
   facet normal 0.994138 -0.108119 0
      outer loop
         vertex -0.00101899 0.000110822 0
         vertex -0.00100104 0.000220345 0
         vertex -0.00100104 0.000220345 0.00657
      endloop
   endfacet
   facet normal 1 -2.44929e-16 0
      outer loop
         vertex -0.001025 2.51053e-19 0
         vertex -0.00101899 0.000110822 0
         vertex -0.00101899 0.000110822 0.00657
      endloop
   endfacet
   facet normal 0 0 1
      outer loop
         vertex -0.0012846 -0.002225 0.00657
         vertex -5.54924e-05 -0.0010235 0.00657
         vertex -0.000165827 -0.0010115 0.00657
      endloop
   endfacet
   facet normal 0 0 1
      outer loop
         vertex -0.0012846 -0.002225 0.00657
         vertex 0.0012846 -0.002225 0.00657
         vertex 5.54924e-05 -0.0010235 0.00657
      endloop
   endfacet
   facet normal 0 0 1
      outer loop
         vertex 0.00256921 0 0.00657
         vertex 0.0012846 0.002225 0.00657
         vertex 0.000878279 0.000528443 0.00657
      endloop
   endfacet
   facet normal 0 0 1
      outer loop
         vertex 5.54924e-05 -0.0010235 0.00657
         vertex -5.54924e-05 -0.0010235 0.00657
         vertex -0.0012846 -0.002225 0.00657
      endloop
   endfacet
   facet normal 0 0 1
      outer loop
         vertex 0.0012846 -0.002225 0.00657
         vertex 0.000274217 -0.000987639 0.00657
         vertex 0.000165827 -0.0010115 0.00657
      endloop
   endfacet
   facet normal 0 0 1
      outer loop
         vertex 0.0012846 -0.002225 0.00657
         vertex 0.000663571 -0.000781216 0.00657
         vertex 0.000575217 -0.000848381 0.00657
      endloop
   endfacet
   facet normal 0 0 1
      outer loop
         vertex 0.000878279 0.000528443 0.00657
         vertex 0.000930265 0.000430386 0.00657
         vertex 0.00256921 0 0.00657
      endloop
   endfacet
   facet normal 0 0 1
      outer loop
         vertex 0.0012846 0.002225 0.00657
         vertex 0.000480119 0.0009056 0.00657
         vertex 0.000575217 0.000848381 0.00657
      endloop
   endfacet
   facet normal 0 0 1
      outer loop
         vertex -0.00256921 0 0.00657
         vertex -0.0012846 -0.002225 0.00657
         vertex -0.000878279 -0.000528443 0.00657
      endloop
   endfacet
   facet normal 0 0 1
      outer loop
         vertex 0.000165827 -0.0010115 0.00657
         vertex 5.54924e-05 -0.0010235 0.00657
         vertex 0.0012846 -0.002225 0.00657
      endloop
   endfacet
   facet normal 0 0 1
      outer loop
         vertex 0.0012846 -0.002225 0.00657
         vertex 0.000480119 -0.0009056 0.00657
         vertex 0.000379392 -0.000952201 0.00657
      endloop
   endfacet
   facet normal 0 0 1
      outer loop
         vertex 0.0012846 -0.002225 0.00657
         vertex 0.000744145 -0.000704892 0.00657
         vertex 0.000663571 -0.000781216 0.00657
      endloop
   endfacet
   facet normal 0 0 1
      outer loop
         vertex 0.00256921 0 0.00657
         vertex 0.000930265 -0.000430386 0.00657
         vertex 0.000878279 -0.000528443 0.00657
      endloop
   endfacet
   facet normal 0 0 1
      outer loop
         vertex 0.000930265 0.000430386 0.00657
         vertex 0.000971345 0.000327284 0.00657
         vertex 0.00256921 0 0.00657
      endloop
   endfacet
   facet normal 0 0 1
      outer loop
         vertex 0.0012846 0.002225 0.00657
         vertex 0.000744145 0.000704892 0.00657
         vertex 0.000815995 0.000620304 0.00657
      endloop
   endfacet
   facet normal 0 0 1
      outer loop
         vertex 0.0012846 0.002225 0.00657
         vertex 0.000379392 0.000952201 0.00657
         vertex 0.000480119 0.0009056 0.00657
      endloop
   endfacet
   facet normal 0 0 1
      outer loop
         vertex 0.0012846 0.002225 0.00657
         vertex 0.000165827 0.0010115 0.00657
         vertex 0.000274217 0.000987639 0.00657
      endloop
   endfacet
   facet normal 0 0 1
      outer loop
         vertex -0.0012846 0.002225 0.00657
         vertex -0.000480119 0.0009056 0.00657
         vertex -0.000379392 0.000952201 0.00657
      endloop
   endfacet
   facet normal 0 0 1
      outer loop
         vertex -0.0012846 0.002225 0.00657
         vertex -0.000815995 0.000620304 0.00657
         vertex -0.000744145 0.000704892 0.00657
      endloop
   endfacet
   facet normal 0 0 1
      outer loop
         vertex -0.0012846 -0.002225 0.00657
         vertex -0.000815995 -0.000620304 0.00657
         vertex -0.000878279 -0.000528443 0.00657
      endloop
   endfacet
   facet normal 0 0 1
      outer loop
         vertex -0.0012846 -0.002225 0.00657
         vertex -0.000575217 -0.000848381 0.00657
         vertex -0.000663571 -0.000781216 0.00657
      endloop
   endfacet
   facet normal 0 0 1
      outer loop
         vertex -0.0012846 -0.002225 0.00657
         vertex -0.000274217 -0.000987639 0.00657
         vertex -0.000379392 -0.000952201 0.00657
      endloop
   endfacet
   facet normal 0 0 1
      outer loop
         vertex 0.000379392 -0.000952201 0.00657
         vertex 0.000274217 -0.000987639 0.00657
         vertex 0.0012846 -0.002225 0.00657
      endloop
   endfacet
   facet normal 0 0 1
      outer loop
         vertex 0.0012846 -0.002225 0.00657
         vertex 0.000815995 -0.000620304 0.00657
         vertex 0.000744145 -0.000704892 0.00657
      endloop
   endfacet
   facet normal 0 0 1
      outer loop
         vertex 0.000878279 -0.000528443 0.00657
         vertex 0.0012846 -0.002225 0.00657
         vertex 0.00256921 0 0.00657
      endloop
   endfacet
   facet normal 0 0 1
      outer loop
         vertex 0.000815995 0.000620304 0.00657
         vertex 0.000878279 0.000528443 0.00657
         vertex 0.0012846 0.002225 0.00657
      endloop
   endfacet
   facet normal 0 0 1
      outer loop
         vertex 0.000575217 0.000848381 0.00657
         vertex 0.000663571 0.000781216 0.00657
         vertex 0.0012846 0.002225 0.00657
      endloop
   endfacet
   facet normal 0 0 1
      outer loop
         vertex 0.0012846 0.002225 0.00657
         vertex 5.54924e-05 0.0010235 0.00657
         vertex 0.000165827 0.0010115 0.00657
      endloop
   endfacet
   facet normal 0 0 1
      outer loop
         vertex 0.0012846 0.002225 0.00657
         vertex -0.0012846 0.002225 0.00657
         vertex -5.54924e-05 0.0010235 0.00657
      endloop
   endfacet
   facet normal 0 0 1
      outer loop
         vertex -0.0012846 0.002225 0.00657
         vertex -0.000575217 0.000848381 0.00657
         vertex -0.000480119 0.0009056 0.00657
      endloop
   endfacet
   facet normal 0 0 1
      outer loop
         vertex -0.000744145 0.000704892 0.00657
         vertex -0.000663571 0.000781216 0.00657
         vertex -0.0012846 0.002225 0.00657
      endloop
   endfacet
   facet normal 0 0 1
      outer loop
         vertex -0.00256921 0 0.00657
         vertex -0.000930265 0.000430386 0.00657
         vertex -0.000878279 0.000528443 0.00657
      endloop
   endfacet
   facet normal 0 0 1
      outer loop
         vertex -0.00256921 0 0.00657
         vertex -0.001025 2.51053e-19 0.00657
         vertex -0.00101899 0.000110822 0.00657
      endloop
   endfacet
   facet normal 0 0 1
      outer loop
         vertex -0.00256921 0 0.00657
         vertex -0.00100104 -0.000220345 0.00657
         vertex -0.00101899 -0.000110822 0.00657
      endloop
   endfacet
   facet normal 0 0 1
      outer loop
         vertex -0.0012846 -0.002225 0.00657
         vertex -0.000744145 -0.000704892 0.00657
         vertex -0.000815995 -0.000620304 0.00657
      endloop
   endfacet
   facet normal 0 0 1
      outer loop
         vertex -0.0012846 -0.002225 0.00657
         vertex -0.000480119 -0.0009056 0.00657
         vertex -0.000575217 -0.000848381 0.00657
      endloop
   endfacet
   facet normal 0 0 1
      outer loop
         vertex -0.000165827 -0.0010115 0.00657
         vertex -0.000274217 -0.000987639 0.00657
         vertex -0.0012846 -0.002225 0.00657
      endloop
   endfacet
   facet normal 0 0 1
      outer loop
         vertex 0.000878279 -0.000528443 0.00657
         vertex 0.000815995 -0.000620304 0.00657
         vertex 0.0012846 -0.002225 0.00657
      endloop
   endfacet
   facet normal 0 0 1
      outer loop
         vertex 0.00256921 0 0.00657
         vertex 0.00100104 0.000220345 0.00657
         vertex 0.00101899 0.000110822 0.00657
      endloop
   endfacet
   facet normal 0 0 1
      outer loop
         vertex 0.000663571 0.000781216 0.00657
         vertex 0.000744145 0.000704892 0.00657
         vertex 0.0012846 0.002225 0.00657
      endloop
   endfacet
   facet normal 0 0 1
      outer loop
         vertex -5.54924e-05 0.0010235 0.00657
         vertex 5.54924e-05 0.0010235 0.00657
         vertex 0.0012846 0.002225 0.00657
      endloop
   endfacet
   facet normal 0 0 1
      outer loop
         vertex -0.0012846 0.002225 0.00657
         vertex -0.000274217 0.000987639 0.00657
         vertex -0.000165827 0.0010115 0.00657
      endloop
   endfacet
   facet normal 0 0 1
      outer loop
         vertex -0.000663571 0.000781216 0.00657
         vertex -0.000575217 0.000848381 0.00657
         vertex -0.0012846 0.002225 0.00657
      endloop
   endfacet
   facet normal 0 0 1
      outer loop
         vertex -0.000878279 0.000528443 0.00657
         vertex -0.0012846 0.002225 0.00657
         vertex -0.00256921 0 0.00657
      endloop
   endfacet
   facet normal 0 0 1
      outer loop
         vertex -0.00101899 -0.000110822 0.00657
         vertex -0.001025 2.51053e-19 0.00657
         vertex -0.00256921 0 0.00657
      endloop
   endfacet
   facet normal 0 0 1
      outer loop
         vertex -0.00256921 0 0.00657
         vertex -0.000930265 -0.000430386 0.00657
         vertex -0.000971345 -0.000327284 0.00657
      endloop
   endfacet
   facet normal 0 0 1
      outer loop
         vertex -0.000663571 -0.000781216 0.00657
         vertex -0.000744145 -0.000704892 0.00657
         vertex -0.0012846 -0.002225 0.00657
      endloop
   endfacet
   facet normal 0 0 1
      outer loop
         vertex 0.000575217 -0.000848381 0.00657
         vertex 0.000480119 -0.0009056 0.00657
         vertex 0.0012846 -0.002225 0.00657
      endloop
   endfacet
   facet normal 0 0 1
      outer loop
         vertex 0.000971345 0.000327284 0.00657
         vertex 0.00100104 0.000220345 0.00657
         vertex 0.00256921 0 0.00657
      endloop
   endfacet
   facet normal 0 0 1
      outer loop
         vertex -0.000165827 0.0010115 0.00657
         vertex -5.54924e-05 0.0010235 0.00657
         vertex -0.0012846 0.002225 0.00657
      endloop
   endfacet
   facet normal 0 0 1
      outer loop
         vertex -0.000878279 0.000528443 0.00657
         vertex -0.000815995 0.000620304 0.00657
         vertex -0.0012846 0.002225 0.00657
      endloop
   endfacet
   facet normal 0 0 1
      outer loop
         vertex -0.00256921 0 0.00657
         vertex -0.00100104 0.000220345 0.00657
         vertex -0.000971345 0.000327284 0.00657
      endloop
   endfacet
   facet normal 0 0 1
      outer loop
         vertex -0.000971345 -0.000327284 0.00657
         vertex -0.00100104 -0.000220345 0.00657
         vertex -0.00256921 0 0.00657
      endloop
   endfacet
   facet normal 0 0 1
      outer loop
         vertex -0.000379392 -0.000952201 0.00657
         vertex -0.000480119 -0.0009056 0.00657
         vertex -0.0012846 -0.002225 0.00657
      endloop
   endfacet
   facet normal 0 0 1
      outer loop
         vertex 0.00256921 0 0.00657
         vertex 0.00100104 -0.000220345 0.00657
         vertex 0.000971345 -0.000327284 0.00657
      endloop
   endfacet
   facet normal 0 0 1
      outer loop
         vertex 0.00256921 0 0.00657
         vertex 0.001025 -3.76579e-19 0.00657
         vertex 0.00101899 -0.000110822 0.00657
      endloop
   endfacet
   facet normal 0 0 1
      outer loop
         vertex 0.000274217 0.000987639 0.00657
         vertex 0.000379392 0.000952201 0.00657
         vertex 0.0012846 0.002225 0.00657
      endloop
   endfacet
   facet normal 0 0 1
      outer loop
         vertex -0.000971345 0.000327284 0.00657
         vertex -0.000930265 0.000430386 0.00657
         vertex -0.00256921 0 0.00657
      endloop
   endfacet
   facet normal 0 0 1
      outer loop
         vertex -0.000878279 -0.000528443 0.00657
         vertex -0.000930265 -0.000430386 0.00657
         vertex -0.00256921 0 0.00657
      endloop
   endfacet
   facet normal 0 0 1
      outer loop
         vertex 0.00101899 -0.000110822 0.00657
         vertex 0.00100104 -0.000220345 0.00657
         vertex 0.00256921 0 0.00657
      endloop
   endfacet
   facet normal 0 0 1
      outer loop
         vertex -0.000379392 0.000952201 0.00657
         vertex -0.000274217 0.000987639 0.00657
         vertex -0.0012846 0.002225 0.00657
      endloop
   endfacet
   facet normal 0 0 1
      outer loop
         vertex 0.000971345 -0.000327284 0.00657
         vertex 0.000930265 -0.000430386 0.00657
         vertex 0.00256921 0 0.00657
      endloop
   endfacet
   facet normal 0 0 1
      outer loop
         vertex -0.00101899 0.000110822 0.00657
         vertex -0.00100104 0.000220345 0.00657
         vertex -0.00256921 0 0.00657
      endloop
   endfacet
   facet normal 0 0 1
      outer loop
         vertex 0.00101899 0.000110822 0.00657
         vertex 0.001025 -3.76579e-19 0.00657
         vertex 0.00256921 0 0.00657
      endloop
   endfacet
   facet normal 0 0 -1
      outer loop
         vertex 0.0012846 0.002225 0
         vertex 0.000575217 0.000848381 0
         vertex 0.000480119 0.0009056 0
      endloop
   endfacet
   facet normal 0 0 -1
      outer loop
         vertex 0.0012846 0.002225 0
         vertex 0.000663571 0.000781216 0
         vertex 0.000575217 0.000848381 0
      endloop
   endfacet
   facet normal 0 0 -1
      outer loop
         vertex 0.00256921 0 0
         vertex 0.000930265 0.000430386 0
         vertex 0.000878279 0.000528443 0
      endloop
   endfacet
   facet normal 0 0 -1
      outer loop
         vertex -0.00256921 0 0
         vertex -0.0012846 0.002225 0
         vertex -0.000878279 0.000528443 0
      endloop
   endfacet
   facet normal 0 0 -1
      outer loop
         vertex 0.0012846 0.002225 0
         vertex 0.000744145 0.000704892 0
         vertex 0.000663571 0.000781216 0
      endloop
   endfacet
   facet normal 0 0 -1
      outer loop
         vertex 0.0012846 0.002225 0
         vertex 0.000878279 0.000528443 0
         vertex 0.000815995 0.000620304 0
      endloop
   endfacet
   facet normal 0 0 -1
      outer loop
         vertex 0.00256921 0 0
         vertex 0.000971345 0.000327284 0
         vertex 0.000930265 0.000430386 0
      endloop
   endfacet
   facet normal 0 0 -1
      outer loop
         vertex 0.00256921 0 0
         vertex 0.0012846 -0.002225 0
         vertex 0.000878279 -0.000528443 0
      endloop
   endfacet
   facet normal 0 0 -1
      outer loop
         vertex 0.0012846 -0.002225 0
         vertex 5.54924e-05 -0.0010235 0
         vertex 0.000165827 -0.0010115 0
      endloop
   endfacet
   facet normal 0 0 -1
      outer loop
         vertex 0.0012846 -0.002225 0
         vertex -0.0012846 -0.002225 0
         vertex -5.54924e-05 -0.0010235 0
      endloop
   endfacet
   facet normal 0 0 -1
      outer loop
         vertex -0.00256921 0 0
         vertex -0.000930265 0.000430386 0
         vertex -0.000971345 0.000327284 0
      endloop
   endfacet
   facet normal 0 0 -1
      outer loop
         vertex -0.0012846 0.002225 0
         vertex -0.000815995 0.000620304 0
         vertex -0.000878279 0.000528443 0
      endloop
   endfacet
   facet normal 0 0 -1
      outer loop
         vertex -0.0012846 0.002225 0
         vertex -0.000663571 0.000781216 0
         vertex -0.000744145 0.000704892 0
      endloop
   endfacet
   facet normal 0 0 -1
      outer loop
         vertex 0.0012846 0.002225 0
         vertex 0.000379392 0.000952201 0
         vertex 0.000274217 0.000987639 0
      endloop
   endfacet
   facet normal 0 0 -1
      outer loop
         vertex 0.000815995 0.000620304 0
         vertex 0.000744145 0.000704892 0
         vertex 0.0012846 0.002225 0
      endloop
   endfacet
   facet normal 0 0 -1
      outer loop
         vertex 0.00256921 0 0
         vertex 0.00100104 0.000220345 0
         vertex 0.000971345 0.000327284 0
      endloop
   endfacet
   facet normal 0 0 -1
      outer loop
         vertex 0.0012846 -0.002225 0
         vertex 0.000815995 -0.000620304 0
         vertex 0.000878279 -0.000528443 0
      endloop
   endfacet
   facet normal 0 0 -1
      outer loop
         vertex 0.0012846 -0.002225 0
         vertex 0.000480119 -0.0009056 0
         vertex 0.000575217 -0.000848381 0
      endloop
   endfacet
   facet normal 0 0 -1
      outer loop
         vertex -5.54924e-05 -0.0010235 0
         vertex 5.54924e-05 -0.0010235 0
         vertex 0.0012846 -0.002225 0
      endloop
   endfacet
   facet normal 0 0 -1
      outer loop
         vertex -0.0012846 -0.002225 0
         vertex -0.000274217 -0.000987639 0
         vertex -0.000165827 -0.0010115 0
      endloop
   endfacet
   facet normal 0 0 -1
      outer loop
         vertex -0.000878279 0.000528443 0
         vertex -0.000930265 0.000430386 0
         vertex -0.00256921 0 0
      endloop
   endfacet
   facet normal 0 0 -1
      outer loop
         vertex -0.0012846 0.002225 0
         vertex -0.000575217 0.000848381 0
         vertex -0.000663571 0.000781216 0
      endloop
   endfacet
   facet normal 0 0 -1
      outer loop
         vertex -0.0012846 0.002225 0
         vertex -0.000379392 0.000952201 0
         vertex -0.000480119 0.0009056 0
      endloop
   endfacet
   facet normal 0 0 -1
      outer loop
         vertex -0.0012846 0.002225 0
         vertex 0.0012846 0.002225 0
         vertex 5.54924e-05 0.0010235 0
      endloop
   endfacet
   facet normal 0 0 -1
      outer loop
         vertex 0.000274217 0.000987639 0
         vertex 0.000165827 0.0010115 0
         vertex 0.0012846 0.002225 0
      endloop
   endfacet
   facet normal 0 0 -1
      outer loop
         vertex 0.000878279 0.000528443 0
         vertex 0.0012846 0.002225 0
         vertex 0.00256921 0 0
      endloop
   endfacet
   facet normal 0 0 -1
      outer loop
         vertex 0.00256921 0 0
         vertex 0.001025 -1.25526e-19 0
         vertex 0.00101899 0.000110822 0
      endloop
   endfacet
   facet normal 0 0 -1
      outer loop
         vertex 0.0012846 -0.002225 0
         vertex 0.000744145 -0.000704892 0
         vertex 0.000815995 -0.000620304 0
      endloop
   endfacet
   facet normal 0 0 -1
      outer loop
         vertex 0.000575217 -0.000848381 0
         vertex 0.000663571 -0.000781216 0
         vertex 0.0012846 -0.002225 0
      endloop
   endfacet
   facet normal 0 0 -1
      outer loop
         vertex 0.0012846 -0.002225 0
         vertex 0.000274217 -0.000987639 0
         vertex 0.000379392 -0.000952201 0
      endloop
   endfacet
   facet normal 0 0 -1
      outer loop
         vertex -0.000165827 -0.0010115 0
         vertex -5.54924e-05 -0.0010235 0
         vertex -0.0012846 -0.002225 0
      endloop
   endfacet
   facet normal 0 0 -1
      outer loop
         vertex -0.0012846 -0.002225 0
         vertex -0.000663571 -0.000781216 0
         vertex -0.000575217 -0.000848381 0
      endloop
   endfacet
   facet normal 0 0 -1
      outer loop
         vertex -0.000744145 0.000704892 0
         vertex -0.000815995 0.000620304 0
         vertex -0.0012846 0.002225 0
      endloop
   endfacet
   facet normal 0 0 -1
      outer loop
         vertex -0.0012846 0.002225 0
         vertex -0.000274217 0.000987639 0
         vertex -0.000379392 0.000952201 0
      endloop
   endfacet
   facet normal 0 0 -1
      outer loop
         vertex -0.0012846 0.002225 0
         vertex -5.54924e-05 0.0010235 0
         vertex -0.000165827 0.0010115 0
      endloop
   endfacet
   facet normal 0 0 -1
      outer loop
         vertex 0.000165827 0.0010115 0
         vertex 5.54924e-05 0.0010235 0
         vertex 0.0012846 0.002225 0
      endloop
   endfacet
   facet normal 0 0 -1
      outer loop
         vertex 0.00101899 0.000110822 0
         vertex 0.00100104 0.000220345 0
         vertex 0.00256921 0 0
      endloop
   endfacet
   facet normal 0 0 -1
      outer loop
         vertex 0.00256921 0 0
         vertex 0.00100104 -0.000220345 0
         vertex 0.00101899 -0.000110822 0
      endloop
   endfacet
   facet normal 0 0 -1
      outer loop
         vertex 0.000663571 -0.000781216 0
         vertex 0.000744145 -0.000704892 0
         vertex 0.0012846 -0.002225 0
      endloop
   endfacet
   facet normal 0 0 -1
      outer loop
         vertex 0.000165827 -0.0010115 0
         vertex 0.000274217 -0.000987639 0
         vertex 0.0012846 -0.002225 0
      endloop
   endfacet
   facet normal 0 0 -1
      outer loop
         vertex -0.0012846 -0.002225 0
         vertex -0.000744145 -0.000704892 0
         vertex -0.000663571 -0.000781216 0
      endloop
   endfacet
   facet normal 0 0 -1
      outer loop
         vertex -0.000480119 0.0009056 0
         vertex -0.000575217 0.000848381 0
         vertex -0.0012846 0.002225 0
      endloop
   endfacet
   facet normal 0 0 -1
      outer loop
         vertex 5.54924e-05 0.0010235 0
         vertex -5.54924e-05 0.0010235 0
         vertex -0.0012846 0.002225 0
      endloop
   endfacet
   facet normal 0 0 -1
      outer loop
         vertex 0.00101899 -0.000110822 0
         vertex 0.001025 -1.25526e-19 0
         vertex 0.00256921 0 0
      endloop
   endfacet
   facet normal 0 0 -1
      outer loop
         vertex 0.00256921 0 0
         vertex 0.000930265 -0.000430386 0
         vertex 0.000971345 -0.000327284 0
      endloop
   endfacet
   facet normal 0 0 -1
      outer loop
         vertex 0.000379392 -0.000952201 0
         vertex 0.000480119 -0.0009056 0
         vertex 0.0012846 -0.002225 0
      endloop
   endfacet
   facet normal 0 0 -1
      outer loop
         vertex -0.0012846 -0.002225 0
         vertex -0.000480119 -0.0009056 0
         vertex -0.000379392 -0.000952201 0
      endloop
   endfacet
   facet normal 0 0 -1
      outer loop
         vertex -0.0012846 -0.002225 0
         vertex -0.000815995 -0.000620304 0
         vertex -0.000744145 -0.000704892 0
      endloop
   endfacet
   facet normal 0 0 -1
      outer loop
         vertex -0.0012846 -0.002225 0
         vertex -0.000930265 -0.000430386 0
         vertex -0.000878279 -0.000528443 0
      endloop
   endfacet
   facet normal 0 0 -1
      outer loop
         vertex -0.000165827 0.0010115 0
         vertex -0.000274217 0.000987639 0
         vertex -0.0012846 0.002225 0
      endloop
   endfacet
   facet normal 0 0 -1
      outer loop
         vertex 0.000971345 -0.000327284 0
         vertex 0.00100104 -0.000220345 0
         vertex 0.00256921 0 0
      endloop
   endfacet
   facet normal 0 0 -1
      outer loop
         vertex -0.000379392 -0.000952201 0
         vertex -0.000274217 -0.000987639 0
         vertex -0.0012846 -0.002225 0
      endloop
   endfacet
   facet normal 0 0 -1
      outer loop
         vertex -0.000878279 -0.000528443 0
         vertex -0.000815995 -0.000620304 0
         vertex -0.0012846 -0.002225 0
      endloop
   endfacet
   facet normal 0 0 -1
      outer loop
         vertex -0.00256921 0 0
         vertex -0.000971345 -0.000327284 0
         vertex -0.000930265 -0.000430386 0
      endloop
   endfacet
   facet normal 0 0 -1
      outer loop
         vertex 0.000480119 0.0009056 0
         vertex 0.000379392 0.000952201 0
         vertex 0.0012846 0.002225 0
      endloop
   endfacet
   facet normal 0 0 -1
      outer loop
         vertex -0.000575217 -0.000848381 0
         vertex -0.000480119 -0.0009056 0
         vertex -0.0012846 -0.002225 0
      endloop
   endfacet
   facet normal 0 0 -1
      outer loop
         vertex -0.00256921 0 0
         vertex -0.00100104 -0.000220345 0
         vertex -0.000971345 -0.000327284 0
      endloop
   endfacet
   facet normal 0 0 -1
      outer loop
         vertex -0.00256921 0 0
         vertex -0.001025 2.51053e-19 0
         vertex -0.00101899 -0.000110822 0
      endloop
   endfacet
   facet normal 0 0 -1
      outer loop
         vertex 0.000878279 -0.000528443 0
         vertex 0.000930265 -0.000430386 0
         vertex 0.00256921 0 0
      endloop
   endfacet
   facet normal 0 0 -1
      outer loop
         vertex -0.00101899 -0.000110822 0
         vertex -0.00100104 -0.000220345 0
         vertex -0.00256921 0 0
      endloop
   endfacet
   facet normal 0 0 -1
      outer loop
         vertex -0.00256921 0 0
         vertex -0.00100104 0.000220345 0
         vertex -0.00101899 0.000110822 0
      endloop
   endfacet
   facet normal 0 0 -1
      outer loop
         vertex -0.000930265 -0.000430386 0
         vertex -0.0012846 -0.002225 0
         vertex -0.00256921 0 0
      endloop
   endfacet
   facet normal 0 0 -1
      outer loop
         vertex -0.000971345 0.000327284 0
         vertex -0.00100104 0.000220345 0
         vertex -0.00256921 0 0
      endloop
   endfacet
   facet normal 0 0 -1
      outer loop
         vertex -0.00101899 0.000110822 0
         vertex -0.001025 2.51053e-19 0
         vertex -0.00256921 0 0
      endloop
   endfacet
   facet normal 0 -1 0
      outer loop
         vertex -0.0012846 -0.002225 0
         vertex 0.0012846 -0.002225 0
         vertex 0.0012846 -0.002225 0.00657
      endloop
   endfacet
   facet normal 0 -1 0
      outer loop
         vertex 0.0012846 -0.002225 0.00657
         vertex -0.0012846 -0.002225 0.00657
         vertex -0.0012846 -0.002225 0
      endloop
   endfacet
   facet normal 0.866025 -0.5 0
      outer loop
         vertex 0.0012846 -0.002225 0
         vertex 0.00256921 0 0
         vertex 0.00256921 0 0.00657
      endloop
   endfacet
   facet normal 0.866025 -0.5 0
      outer loop
         vertex 0.00256921 0 0.00657
         vertex 0.0012846 -0.002225 0.00657
         vertex 0.0012846 -0.002225 0
      endloop
   endfacet
   facet normal 0.866025 0.5 0
      outer loop
         vertex 0.00256921 0 0
         vertex 0.0012846 0.002225 0
         vertex 0.0012846 0.002225 0.00657
      endloop
   endfacet
   facet normal 0.866025 0.5 0
      outer loop
         vertex 0.0012846 0.002225 0.00657
         vertex 0.00256921 0 0.00657
         vertex 0.00256921 0 0
      endloop
   endfacet
   facet normal 0 1 0
      outer loop
         vertex 0.0012846 0.002225 0
         vertex -0.0012846 0.002225 0
         vertex -0.0012846 0.002225 0.00657
      endloop
   endfacet
   facet normal 0 1 0
      outer loop
         vertex -0.0012846 0.002225 0.00657
         vertex 0.0012846 0.002225 0.00657
         vertex 0.0012846 0.002225 0
      endloop
   endfacet
   facet normal -0.866025 0.5 0
      outer loop
         vertex -0.0012846 0.002225 0
         vertex -0.00256921 0 0
         vertex -0.00256921 0 0.00657
      endloop
   endfacet
   facet normal -0.866025 0.5 0
      outer loop
         vertex -0.00256921 0 0.00657
         vertex -0.0012846 0.002225 0.00657
         vertex -0.0012846 0.002225 0
      endloop
   endfacet
   facet normal -0.866025 -0.5 0
      outer loop
         vertex -0.00256921 0 0
         vertex -0.0012846 -0.002225 0
         vertex -0.0012846 -0.002225 0.00657
      endloop
   endfacet
   facet normal -0.866025 -0.5 0
      outer loop
         vertex -0.0012846 -0.002225 0.00657
         vertex -0.00256921 0 0.00657
         vertex -0.00256921 0 0
      endloop
   endfacet
endsolid 155-0746-000. Units = meters