solid 1569A371_Piano Hinge with Holes. STL generated by ONSHAPE BY PTC INC, 1.216. Units = meters
   facet normal -1 0 0
      outer loop
         vertex -0.05375 0 1.38778e-17
         vertex -0.05375 -8.58195e-05 -0.000789097
         vertex -0.05375 -0.000170633 -0.000775193
      endloop
   endfacet
   facet normal -1 0 0
      outer loop
         vertex -0.05375 -0.000170633 -0.000775193
         vertex -0.05375 -0.000253446 -0.0007522
         vertex -0.05375 0 1.38778e-17
      endloop
   endfacet
   facet normal -1 0 0
      outer loop
         vertex -0.05375 -0.000253446 -0.0007522
         vertex -0.05375 -0.000333287 -0.000720388
         vertex -0.05375 0 1.38778e-17
      endloop
   endfacet
   facet normal -1 0 0
      outer loop
         vertex -0.05375 -0.000333287 -0.000720388
         vertex -0.05375 -0.000409221 -0.00068013
         vertex -0.05375 0 1.38778e-17
      endloop
   endfacet
   facet normal -1 0 0
      outer loop
         vertex -0.05375 -0.000409221 -0.00068013
         vertex -0.05375 -0.000480357 -0.000631899
         vertex -0.05375 0 1.38778e-17
      endloop
   endfacet
   facet normal -1 0 0
      outer loop
         vertex -0.05375 -0.000480357 -0.000631899
         vertex -0.05375 -0.000545861 -0.000576259
         vertex -0.05375 0 1.38778e-17
      endloop
   endfacet
   facet normal -1 0 0
      outer loop
         vertex -0.05375 -0.000545861 -0.000576259
         vertex -0.05375 -0.000604966 -0.000513863
         vertex -0.05375 0 1.38778e-17
      endloop
   endfacet
   facet normal -1 0 0
      outer loop
         vertex -0.05375 -0.000604966 -0.000513863
         vertex -0.05375 -0.000656978 -0.000445442
         vertex -0.05375 0 1.38778e-17
      endloop
   endfacet
   facet normal -1 0 0
      outer loop
         vertex -0.05375 -0.000656978 -0.000445442
         vertex -0.05375 -0.000701288 -0.000371799
         vertex -0.05375 0 1.38778e-17
      endloop
   endfacet
   facet normal -1 0 0
      outer loop
         vertex -0.05375 -0.000701288 -0.000371799
         vertex -0.05375 -0.000737375 -0.000293797
         vertex -0.05375 0 1.38778e-17
      endloop
   endfacet
   facet normal -1 0 0
      outer loop
         vertex -0.05375 -0.000737375 -0.000293797
         vertex -0.05375 -0.000764818 -0.000212351
         vertex -0.05375 0 1.38778e-17
      endloop
   endfacet
   facet normal -1 0 0
      outer loop
         vertex -0.05375 -0.000764818 -0.000212351
         vertex -0.05375 -0.000783294 -0.000128414
         vertex -0.05375 0 1.38778e-17
      endloop
   endfacet
   facet normal -1 0 0
      outer loop
         vertex -0.05375 -0.000783294 -0.000128414
         vertex -0.05375 -0.000792586 -4.29728e-05
         vertex -0.05375 0 1.38778e-17
      endloop
   endfacet
   facet normal -1 0 0
      outer loop
         vertex -0.05375 -0.000792586 -4.29728e-05
         vertex -0.05375 -0.000792586 4.29728e-05
         vertex -0.05375 0 1.38778e-17
      endloop
   endfacet
   facet normal -1 0 0
      outer loop
         vertex -0.05375 -0.000792586 4.29728e-05
         vertex -0.05375 -0.000783294 0.000128414
         vertex -0.05375 0 1.38778e-17
      endloop
   endfacet
   facet normal -1 0 0
      outer loop
         vertex -0.05375 -0.000783294 0.000128414
         vertex -0.05375 -0.000764818 0.000212351
         vertex -0.05375 0 1.38778e-17
      endloop
   endfacet
   facet normal -1 0 0
      outer loop
         vertex -0.05375 -0.000764818 0.000212351
         vertex -0.05375 -0.000737375 0.000293797
         vertex -0.05375 0 1.38778e-17
      endloop
   endfacet
   facet normal -1 0 0
      outer loop
         vertex -0.05375 -0.000737375 0.000293797
         vertex -0.05375 -0.000701288 0.000371799
         vertex -0.05375 0 1.38778e-17
      endloop
   endfacet
   facet normal -1 0 0
      outer loop
         vertex -0.05375 -0.000701288 0.000371799
         vertex -0.05375 -0.000656978 0.000445442
         vertex -0.05375 0 1.38778e-17
      endloop
   endfacet
   facet normal -1 0 0
      outer loop
         vertex -0.05375 -0.000656978 0.000445442
         vertex -0.05375 -0.000604966 0.000513863
         vertex -0.05375 0 1.38778e-17
      endloop
   endfacet
   facet normal -1 0 0
      outer loop
         vertex -0.05375 -0.000604966 0.000513863
         vertex -0.05375 -0.000545861 0.000576259
         vertex -0.05375 0 1.38778e-17
      endloop
   endfacet
   facet normal -1 0 0
      outer loop
         vertex -0.05375 -0.000545861 0.000576259
         vertex -0.05375 -0.000480357 0.000631899
         vertex -0.05375 0 1.38778e-17
      endloop
   endfacet
   facet normal -1 0 0
      outer loop
         vertex -0.05375 -0.000480357 0.000631899
         vertex -0.05375 -0.000409221 0.00068013
         vertex -0.05375 0 1.38778e-17
      endloop
   endfacet
   facet normal -1 0 0
      outer loop
         vertex -0.05375 -0.000409221 0.00068013
         vertex -0.05375 -0.000333287 0.000720388
         vertex -0.05375 0 1.38778e-17
      endloop
   endfacet
   facet normal -1 0 0
      outer loop
         vertex -0.05375 -0.000333287 0.000720388
         vertex -0.05375 -0.000253446 0.0007522
         vertex -0.05375 0 1.38778e-17
      endloop
   endfacet
   facet normal -1 0 0
      outer loop
         vertex -0.05375 -0.000253446 0.0007522
         vertex -0.05375 -0.000170633 0.000775193
         vertex -0.05375 0 1.38778e-17
      endloop
   endfacet
   facet normal -1 0 0
      outer loop
         vertex -0.05375 -0.000170633 0.000775193
         vertex -0.05375 -8.58195e-05 0.000789097
         vertex -0.05375 0 1.38778e-17
      endloop
   endfacet
   facet normal -1 0 0
      outer loop
         vertex -0.05375 -8.58195e-05 0.000789097
         vertex -0.05375 -1.94413e-19 0.00079375
         vertex -0.05375 0 1.38778e-17
      endloop
   endfacet
   facet normal -1 0 0
      outer loop
         vertex -0.05375 -1.94413e-19 0.00079375
         vertex -0.05375 8.58195e-05 0.000789097
         vertex -0.05375 0 1.38778e-17
      endloop
   endfacet
   facet normal -1 0 0
      outer loop
         vertex -0.05375 8.58195e-05 0.000789097
         vertex -0.05375 0.000170633 0.000775193
         vertex -0.05375 0 1.38778e-17
      endloop
   endfacet
   facet normal -1 0 0
      outer loop
         vertex -0.05375 0.000170633 0.000775193
         vertex -0.05375 0.000253446 0.0007522
         vertex -0.05375 0 1.38778e-17
      endloop
   endfacet
   facet normal -1 0 0
      outer loop
         vertex -0.05375 0.000253446 0.0007522
         vertex -0.05375 0.000333287 0.000720388
         vertex -0.05375 0 1.38778e-17
      endloop
   endfacet
   facet normal -1 0 0
      outer loop
         vertex -0.05375 0.000333287 0.000720388
         vertex -0.05375 0.000409221 0.00068013
         vertex -0.05375 0 1.38778e-17
      endloop
   endfacet
   facet normal -1 0 0
      outer loop
         vertex -0.05375 0.000409221 0.00068013
         vertex -0.05375 0.000480357 0.000631899
         vertex -0.05375 0 1.38778e-17
      endloop
   endfacet
   facet normal -1 0 0
      outer loop
         vertex -0.05375 0.000480357 0.000631899
         vertex -0.05375 0.000545861 0.000576259
         vertex -0.05375 0 1.38778e-17
      endloop
   endfacet
   facet normal -1 0 0
      outer loop
         vertex -0.05375 0.000545861 0.000576259
         vertex -0.05375 0.000604966 0.000513863
         vertex -0.05375 0 1.38778e-17
      endloop
   endfacet
   facet normal -1 0 0
      outer loop
         vertex -0.05375 0.000604966 0.000513863
         vertex -0.05375 0.000656978 0.000445442
         vertex -0.05375 0 1.38778e-17
      endloop
   endfacet
   facet normal -1 0 0
      outer loop
         vertex -0.05375 0.000656978 0.000445442
         vertex -0.05375 0.000701288 0.000371799
         vertex -0.05375 0 1.38778e-17
      endloop
   endfacet
   facet normal -1 0 0
      outer loop
         vertex -0.05375 0.000701288 0.000371799
         vertex -0.05375 0.000737375 0.000293797
         vertex -0.05375 0 1.38778e-17
      endloop
   endfacet
   facet normal -1 0 0
      outer loop
         vertex -0.05375 0.000737375 0.000293797
         vertex -0.05375 0.000764818 0.000212351
         vertex -0.05375 0 1.38778e-17
      endloop
   endfacet
   facet normal -1 0 0
      outer loop
         vertex -0.05375 0.000764818 0.000212351
         vertex -0.05375 0.000783294 0.000128414
         vertex -0.05375 0 1.38778e-17
      endloop
   endfacet
   facet normal -1 0 0
      outer loop
         vertex -0.05375 0.000783294 0.000128414
         vertex -0.05375 0.000792586 4.29728e-05
         vertex -0.05375 0 1.38778e-17
      endloop
   endfacet
   facet normal -1 0 0
      outer loop
         vertex -0.05375 0.000792586 4.29728e-05
         vertex -0.05375 0.000792586 -4.29728e-05
         vertex -0.05375 0 1.38778e-17
      endloop
   endfacet
   facet normal -1 0 0
      outer loop
         vertex -0.05375 0.000792586 -4.29728e-05
         vertex -0.05375 0.000783294 -0.000128414
         vertex -0.05375 0 1.38778e-17
      endloop
   endfacet
   facet normal -1 0 0
      outer loop
         vertex -0.05375 0.000783294 -0.000128414
         vertex -0.05375 0.000764818 -0.000212351
         vertex -0.05375 0 1.38778e-17
      endloop
   endfacet
   facet normal -1 0 0
      outer loop
         vertex -0.05375 0.000764818 -0.000212351
         vertex -0.05375 0.000737375 -0.000293797
         vertex -0.05375 0 1.38778e-17
      endloop
   endfacet
   facet normal -1 0 0
      outer loop
         vertex -0.05375 0.000737375 -0.000293797
         vertex -0.05375 0.000701288 -0.000371799
         vertex -0.05375 0 1.38778e-17
      endloop
   endfacet
   facet normal -1 0 0
      outer loop
         vertex -0.05375 0.000701288 -0.000371799
         vertex -0.05375 0.000656978 -0.000445442
         vertex -0.05375 0 1.38778e-17
      endloop
   endfacet
   facet normal -1 0 0
      outer loop
         vertex -0.05375 0.000656978 -0.000445442
         vertex -0.05375 0.000604966 -0.000513863
         vertex -0.05375 0 1.38778e-17
      endloop
   endfacet
   facet normal -1 0 0
      outer loop
         vertex -0.05375 0.000604966 -0.000513863
         vertex -0.05375 0.000545861 -0.000576259
         vertex -0.05375 0 1.38778e-17
      endloop
   endfacet
   facet normal -1 0 0
      outer loop
         vertex -0.05375 0.000545861 -0.000576259
         vertex -0.05375 0.000480357 -0.000631899
         vertex -0.05375 0 1.38778e-17
      endloop
   endfacet
   facet normal -1 0 0
      outer loop
         vertex -0.05375 0.000480357 -0.000631899
         vertex -0.05375 0.000409221 -0.00068013
         vertex -0.05375 0 1.38778e-17
      endloop
   endfacet
   facet normal -1 0 0
      outer loop
         vertex -0.05375 0.000409221 -0.00068013
         vertex -0.05375 0.000333287 -0.000720388
         vertex -0.05375 0 1.38778e-17
      endloop
   endfacet
   facet normal -1 0 0
      outer loop
         vertex -0.05375 0.000333287 -0.000720388
         vertex -0.05375 0.000253446 -0.0007522
         vertex -0.05375 0 1.38778e-17
      endloop
   endfacet
   facet normal -1 0 0
      outer loop
         vertex -0.05375 0.000253446 -0.0007522
         vertex -0.05375 0.000170633 -0.000775193
         vertex -0.05375 0 1.38778e-17
      endloop
   endfacet
   facet normal -1 0 0
      outer loop
         vertex -0.05375 0.000170633 -0.000775193
         vertex -0.05375 8.58195e-05 -0.000789097
         vertex -0.05375 0 1.38778e-17
      endloop
   endfacet
   facet normal -1 0 0
      outer loop
         vertex -0.05375 8.58195e-05 -0.000789097
         vertex -0.05375 9.72063e-20 -0.00079375
         vertex -0.05375 0 1.38778e-17
      endloop
   endfacet
   facet normal -1 0 0
      outer loop
         vertex -0.05375 9.72063e-20 -0.00079375
         vertex -0.05375 -8.58195e-05 -0.000789097
         vertex -0.05375 0 1.38778e-17
      endloop
   endfacet
   facet normal 0 0 1
      outer loop
         vertex -0.05375 -1.94413e-19 0.00079375
         vertex 0.05375 -1.94413e-19 0.00079375
         vertex 0.05375 8.58195e-05 0.000789097
      endloop
   endfacet
   facet normal 0 0.108119 0.994138
      outer loop
         vertex -0.05375 8.58195e-05 0.000789097
         vertex 0.05375 8.58195e-05 0.000789097
         vertex 0.05375 0.000170633 0.000775193
      endloop
   endfacet
   facet normal 0 0.21497 0.976621
      outer loop
         vertex -0.05375 0.000170633 0.000775193
         vertex 0.05375 0.000170633 0.000775193
         vertex 0.05375 0.000253446 0.0007522
      endloop
   endfacet
   facet normal 0 0.319302 0.947653
      outer loop
         vertex -0.05375 0.000253446 0.0007522
         vertex 0.05375 0.000253446 0.0007522
         vertex 0.05375 0.000333287 0.000720388
      endloop
   endfacet
   facet normal 0 0.419889 0.907575
      outer loop
         vertex -0.05375 0.000333287 0.000720388
         vertex 0.05375 0.000333287 0.000720388
         vertex 0.05375 0.000409221 0.00068013
      endloop
   endfacet
   facet normal 0 0.515554 0.856857
      outer loop
         vertex -0.05375 0.000409221 0.00068013
         vertex 0.05375 0.000409221 0.00068013
         vertex 0.05375 0.000480357 0.000631899
      endloop
   endfacet
   facet normal 0 0.605174 0.796093
      outer loop
         vertex -0.05375 0.000480357 0.000631899
         vertex 0.05375 0.000480357 0.000631899
         vertex 0.05375 0.000545861 0.000576259
      endloop
   endfacet
   facet normal 0 0.687699 0.725995
      outer loop
         vertex -0.05375 0.000545861 0.000576259
         vertex 0.05375 0.000545861 0.000576259
         vertex 0.05375 0.000604966 0.000513863
      endloop
   endfacet
   facet normal 0 0.762162 0.647386
      outer loop
         vertex -0.05375 0.000604966 0.000513863
         vertex 0.05375 0.000604966 0.000513863
         vertex 0.05375 0.000656978 0.000445442
      endloop
   endfacet
   facet normal 0 0.827689 0.561187
      outer loop
         vertex -0.05375 0.000656978 0.000445442
         vertex 0.05375 0.000656978 0.000445442
         vertex 0.05375 0.000701288 0.000371799
      endloop
   endfacet
   facet normal 0 0.883512 0.468408
      outer loop
         vertex -0.05375 0.000701288 0.000371799
         vertex 0.05375 0.000701288 0.000371799
         vertex 0.05375 0.000737375 0.000293797
      endloop
   endfacet
   facet normal 0 0.928977 0.370138
      outer loop
         vertex -0.05375 0.000737375 0.000293797
         vertex 0.05375 0.000737375 0.000293797
         vertex 0.05375 0.000764818 0.000212351
      endloop
   endfacet
   facet normal 0 0.96355 0.267528
      outer loop
         vertex -0.05375 0.000764818 0.000212351
         vertex 0.05375 0.000764818 0.000212351
         vertex 0.05375 0.000783294 0.000128414
      endloop
   endfacet
   facet normal 0 0.986827 0.161782
      outer loop
         vertex -0.05375 0.000783294 0.000128414
         vertex 0.05375 0.000783294 0.000128414
         vertex 0.05375 0.000792586 4.29728e-05
      endloop
   endfacet
   facet normal 0 0.998533 0.0541389
      outer loop
         vertex -0.05375 0.000792586 4.29728e-05
         vertex 0.05375 0.000792586 4.29728e-05
         vertex 0.05375 0.000792586 -4.29728e-05
      endloop
   endfacet
   facet normal 0 0.998533 -0.0541389
      outer loop
         vertex -0.05375 0.000792586 -4.29728e-05
         vertex 0.05375 0.000792586 -4.29728e-05
         vertex 0.05375 0.000783294 -0.000128414
      endloop
   endfacet
   facet normal 0 0.986827 -0.161782
      outer loop
         vertex -0.05375 0.000783294 -0.000128414
         vertex 0.05375 0.000783294 -0.000128414
         vertex 0.05375 0.000764818 -0.000212351
      endloop
   endfacet
   facet normal 0 0.96355 -0.267528
      outer loop
         vertex -0.05375 0.000764818 -0.000212351
         vertex 0.05375 0.000764818 -0.000212351
         vertex 0.05375 0.000737375 -0.000293797
      endloop
   endfacet
   facet normal 0 0.928977 -0.370138
      outer loop
         vertex -0.05375 0.000737375 -0.000293797
         vertex 0.05375 0.000737375 -0.000293797
         vertex 0.05375 0.000701288 -0.000371799
      endloop
   endfacet
   facet normal 0 0.883512 -0.468408
      outer loop
         vertex -0.05375 0.000701288 -0.000371799
         vertex 0.05375 0.000701288 -0.000371799
         vertex 0.05375 0.000656978 -0.000445442
      endloop
   endfacet
   facet normal 0 0.827689 -0.561187
      outer loop
         vertex -0.05375 0.000656978 -0.000445442
         vertex 0.05375 0.000656978 -0.000445442
         vertex 0.05375 0.000604966 -0.000513863
      endloop
   endfacet
   facet normal 0 0.762162 -0.647386
      outer loop
         vertex -0.05375 0.000604966 -0.000513863
         vertex 0.05375 0.000604966 -0.000513863
         vertex 0.05375 0.000545861 -0.000576259
      endloop
   endfacet
   facet normal 0 0.687699 -0.725995
      outer loop
         vertex -0.05375 0.000545861 -0.000576259
         vertex 0.05375 0.000545861 -0.000576259
         vertex 0.05375 0.000480357 -0.000631899
      endloop
   endfacet
   facet normal 0 0.605174 -0.796093
      outer loop
         vertex -0.05375 0.000480357 -0.000631899
         vertex 0.05375 0.000480357 -0.000631899
         vertex 0.05375 0.000409221 -0.00068013
      endloop
   endfacet
   facet normal 0 0.515554 -0.856857
      outer loop
         vertex -0.05375 0.000409221 -0.00068013
         vertex 0.05375 0.000409221 -0.00068013
         vertex 0.05375 0.000333287 -0.000720388
      endloop
   endfacet
   facet normal 0 0.419889 -0.907575
      outer loop
         vertex -0.05375 0.000333287 -0.000720388
         vertex 0.05375 0.000333287 -0.000720388
         vertex 0.05375 0.000253446 -0.0007522
      endloop
   endfacet
   facet normal 0 0.319302 -0.947653
      outer loop
         vertex -0.05375 0.000253446 -0.0007522
         vertex 0.05375 0.000253446 -0.0007522
         vertex 0.05375 0.000170633 -0.000775193
      endloop
   endfacet
   facet normal 0 0.21497 -0.976621
      outer loop
         vertex -0.05375 0.000170633 -0.000775193
         vertex 0.05375 0.000170633 -0.000775193
         vertex 0.05375 8.58195e-05 -0.000789097
      endloop
   endfacet
   facet normal 0 0.108119 -0.994138
      outer loop
         vertex -0.05375 8.58195e-05 -0.000789097
         vertex 0.05375 8.58195e-05 -0.000789097
         vertex 0.05375 2.91619e-19 -0.00079375
      endloop
   endfacet
   facet normal 0 1.22465e-16 -1
      outer loop
         vertex -0.05375 9.72063e-20 -0.00079375
         vertex 0.05375 2.91619e-19 -0.00079375
         vertex 0.05375 -8.58195e-05 -0.000789097
      endloop
   endfacet
   facet normal 0 -0.108119 -0.994138
      outer loop
         vertex -0.05375 -8.58195e-05 -0.000789097
         vertex 0.05375 -8.58195e-05 -0.000789097
         vertex 0.05375 -0.000170633 -0.000775193
      endloop
   endfacet
   facet normal 0 -0.21497 -0.976621
      outer loop
         vertex -0.05375 -0.000170633 -0.000775193
         vertex 0.05375 -0.000170633 -0.000775193
         vertex 0.05375 -0.000253446 -0.0007522
      endloop
   endfacet
   facet normal 0 -0.319302 -0.947653
      outer loop
         vertex -0.05375 -0.000253446 -0.0007522
         vertex 0.05375 -0.000253446 -0.0007522
         vertex 0.05375 -0.000333287 -0.000720388
      endloop
   endfacet
   facet normal 0 -0.419889 -0.907575
      outer loop
         vertex -0.05375 -0.000333287 -0.000720388
         vertex 0.05375 -0.000333287 -0.000720388
         vertex 0.05375 -0.000409221 -0.00068013
      endloop
   endfacet
   facet normal 0 -0.515554 -0.856857
      outer loop
         vertex -0.05375 -0.000409221 -0.00068013
         vertex 0.05375 -0.000409221 -0.00068013
         vertex 0.05375 -0.000480357 -0.000631899
      endloop
   endfacet
   facet normal 0 -0.605174 -0.796093
      outer loop
         vertex -0.05375 -0.000480357 -0.000631899
         vertex 0.05375 -0.000480357 -0.000631899
         vertex 0.05375 -0.000545861 -0.000576259
      endloop
   endfacet
   facet normal 0 -0.687699 -0.725995
      outer loop
         vertex -0.05375 -0.000545861 -0.000576259
         vertex 0.05375 -0.000545861 -0.000576259
         vertex 0.05375 -0.000604966 -0.000513863
      endloop
   endfacet
   facet normal 0 -0.762162 -0.647386
      outer loop
         vertex -0.05375 -0.000604966 -0.000513863
         vertex 0.05375 -0.000604966 -0.000513863
         vertex 0.05375 -0.000656978 -0.000445442
      endloop
   endfacet
   facet normal 0 -0.827689 -0.561187
      outer loop
         vertex -0.05375 -0.000656978 -0.000445442
         vertex 0.05375 -0.000656978 -0.000445442
         vertex 0.05375 -0.000701288 -0.000371799
      endloop
   endfacet
   facet normal 0 -0.883512 -0.468408
      outer loop
         vertex -0.05375 -0.000701288 -0.000371799
         vertex 0.05375 -0.000701288 -0.000371799
         vertex 0.05375 -0.000737375 -0.000293797
      endloop
   endfacet
   facet normal 0 -0.928977 -0.370138
      outer loop
         vertex -0.05375 -0.000737375 -0.000293797
         vertex 0.05375 -0.000737375 -0.000293797
         vertex 0.05375 -0.000764818 -0.000212351
      endloop
   endfacet
   facet normal 0 -0.96355 -0.267528
      outer loop
         vertex -0.05375 -0.000764818 -0.000212351
         vertex 0.05375 -0.000764818 -0.000212351
         vertex 0.05375 -0.000783294 -0.000128414
      endloop
   endfacet
   facet normal 0 -0.986827 -0.161782
      outer loop
         vertex -0.05375 -0.000783294 -0.000128414
         vertex 0.05375 -0.000783294 -0.000128414
         vertex 0.05375 -0.000792586 -4.29728e-05
      endloop
   endfacet
   facet normal 0 -0.998533 -0.0541389
      outer loop
         vertex -0.05375 -0.000792586 -4.29728e-05
         vertex 0.05375 -0.000792586 -4.29728e-05
         vertex 0.05375 -0.000792586 4.29728e-05
      endloop
   endfacet
   facet normal 0 -0.998533 0.0541389
      outer loop
         vertex -0.05375 -0.000792586 4.29728e-05
         vertex 0.05375 -0.000792586 4.29728e-05
         vertex 0.05375 -0.000783294 0.000128414
      endloop
   endfacet
   facet normal 0 -0.986827 0.161782
      outer loop
         vertex -0.05375 -0.000783294 0.000128414
         vertex 0.05375 -0.000783294 0.000128414
         vertex 0.05375 -0.000764818 0.000212351
      endloop
   endfacet
   facet normal 0 -0.96355 0.267528
      outer loop
         vertex -0.05375 -0.000764818 0.000212351
         vertex 0.05375 -0.000764818 0.000212351
         vertex 0.05375 -0.000737375 0.000293797
      endloop
   endfacet
   facet normal 0 -0.928977 0.370138
      outer loop
         vertex -0.05375 -0.000737375 0.000293797
         vertex 0.05375 -0.000737375 0.000293797
         vertex 0.05375 -0.000701288 0.000371799
      endloop
   endfacet
   facet normal 0 -0.883512 0.468408
      outer loop
         vertex -0.05375 -0.000701288 0.000371799
         vertex 0.05375 -0.000701288 0.000371799
         vertex 0.05375 -0.000656978 0.000445442
      endloop
   endfacet
   facet normal 0 -0.827689 0.561187
      outer loop
         vertex -0.05375 -0.000656978 0.000445442
         vertex 0.05375 -0.000656978 0.000445442
         vertex 0.05375 -0.000604966 0.000513863
      endloop
   endfacet
   facet normal 0 -0.762162 0.647386
      outer loop
         vertex -0.05375 -0.000604966 0.000513863
         vertex 0.05375 -0.000604966 0.000513863
         vertex 0.05375 -0.000545861 0.000576259
      endloop
   endfacet
   facet normal 0 -0.687699 0.725995
      outer loop
         vertex -0.05375 -0.000545861 0.000576259
         vertex 0.05375 -0.000545861 0.000576259
         vertex 0.05375 -0.000480357 0.000631899
      endloop
   endfacet
   facet normal 0 -0.605174 0.796093
      outer loop
         vertex -0.05375 -0.000480357 0.000631899
         vertex 0.05375 -0.000480357 0.000631899
         vertex 0.05375 -0.000409221 0.00068013
      endloop
   endfacet
   facet normal 0 -0.515554 0.856857
      outer loop
         vertex -0.05375 -0.000409221 0.00068013
         vertex 0.05375 -0.000409221 0.00068013
         vertex 0.05375 -0.000333287 0.000720388
      endloop
   endfacet
   facet normal 0 -0.419889 0.907575
      outer loop
         vertex -0.05375 -0.000333287 0.000720388
         vertex 0.05375 -0.000333287 0.000720388
         vertex 0.05375 -0.000253446 0.0007522
      endloop
   endfacet
   facet normal 0 -0.319302 0.947653
      outer loop
         vertex -0.05375 -0.000253446 0.0007522
         vertex 0.05375 -0.000253446 0.0007522
         vertex 0.05375 -0.000170633 0.000775193
      endloop
   endfacet
   facet normal 0 -0.21497 0.976621
      outer loop
         vertex -0.05375 -0.000170633 0.000775193
         vertex 0.05375 -0.000170633 0.000775193
         vertex 0.05375 -8.58195e-05 0.000789097
      endloop
   endfacet
   facet normal 0 -0.108119 0.994138
      outer loop
         vertex -0.05375 -8.58195e-05 0.000789097
         vertex 0.05375 -8.58195e-05 0.000789097
         vertex 0.05375 -1.94413e-19 0.00079375
      endloop
   endfacet
   facet normal 0 0 1
      outer loop
         vertex 0.05375 -1.94413e-19 0.00079375
         vertex -0.05375 -1.94413e-19 0.00079375
         vertex -0.05375 -8.58195e-05 0.000789097
      endloop
   endfacet
   facet normal 0 -0.108119 0.994138
      outer loop
         vertex 0.05375 -8.58195e-05 0.000789097
         vertex -0.05375 -8.58195e-05 0.000789097
         vertex -0.05375 -0.000170633 0.000775193
      endloop
   endfacet
   facet normal 0 -0.21497 0.976621
      outer loop
         vertex 0.05375 -0.000170633 0.000775193
         vertex -0.05375 -0.000170633 0.000775193
         vertex -0.05375 -0.000253446 0.0007522
      endloop
   endfacet
   facet normal 0 -0.319302 0.947653
      outer loop
         vertex 0.05375 -0.000253446 0.0007522
         vertex -0.05375 -0.000253446 0.0007522
         vertex -0.05375 -0.000333287 0.000720388
      endloop
   endfacet
   facet normal 0 -0.419889 0.907575
      outer loop
         vertex 0.05375 -0.000333287 0.000720388
         vertex -0.05375 -0.000333287 0.000720388
         vertex -0.05375 -0.000409221 0.00068013
      endloop
   endfacet
   facet normal 0 -0.515554 0.856857
      outer loop
         vertex 0.05375 -0.000409221 0.00068013
         vertex -0.05375 -0.000409221 0.00068013
         vertex -0.05375 -0.000480357 0.000631899
      endloop
   endfacet
   facet normal 0 -0.605174 0.796093
      outer loop
         vertex 0.05375 -0.000480357 0.000631899
         vertex -0.05375 -0.000480357 0.000631899
         vertex -0.05375 -0.000545861 0.000576259
      endloop
   endfacet
   facet normal 0 -0.687699 0.725995
      outer loop
         vertex 0.05375 -0.000545861 0.000576259
         vertex -0.05375 -0.000545861 0.000576259
         vertex -0.05375 -0.000604966 0.000513863
      endloop
   endfacet
   facet normal 0 -0.762162 0.647386
      outer loop
         vertex 0.05375 -0.000604966 0.000513863
         vertex -0.05375 -0.000604966 0.000513863
         vertex -0.05375 -0.000656978 0.000445442
      endloop
   endfacet
   facet normal 0 -0.827689 0.561187
      outer loop
         vertex 0.05375 -0.000656978 0.000445442
         vertex -0.05375 -0.000656978 0.000445442
         vertex -0.05375 -0.000701288 0.000371799
      endloop
   endfacet
   facet normal 0 -0.883512 0.468408
      outer loop
         vertex 0.05375 -0.000701288 0.000371799
         vertex -0.05375 -0.000701288 0.000371799
         vertex -0.05375 -0.000737375 0.000293797
      endloop
   endfacet
   facet normal 0 -0.928977 0.370138
      outer loop
         vertex 0.05375 -0.000737375 0.000293797
         vertex -0.05375 -0.000737375 0.000293797
         vertex -0.05375 -0.000764818 0.000212351
      endloop
   endfacet
   facet normal 0 -0.96355 0.267528
      outer loop
         vertex 0.05375 -0.000764818 0.000212351
         vertex -0.05375 -0.000764818 0.000212351
         vertex -0.05375 -0.000783294 0.000128414
      endloop
   endfacet
   facet normal 0 -0.986827 0.161782
      outer loop
         vertex 0.05375 -0.000783294 0.000128414
         vertex -0.05375 -0.000783294 0.000128414
         vertex -0.05375 -0.000792586 4.29728e-05
      endloop
   endfacet
   facet normal 0 -0.998533 0.0541389
      outer loop
         vertex 0.05375 -0.000792586 4.29728e-05
         vertex -0.05375 -0.000792586 4.29728e-05
         vertex -0.05375 -0.000792586 -4.29728e-05
      endloop
   endfacet
   facet normal 0 -0.998533 -0.0541389
      outer loop
         vertex 0.05375 -0.000792586 -4.29728e-05
         vertex -0.05375 -0.000792586 -4.29728e-05
         vertex -0.05375 -0.000783294 -0.000128414
      endloop
   endfacet
   facet normal 0 -0.986827 -0.161782
      outer loop
         vertex 0.05375 -0.000783294 -0.000128414
         vertex -0.05375 -0.000783294 -0.000128414
         vertex -0.05375 -0.000764818 -0.000212351
      endloop
   endfacet
   facet normal 0 -0.96355 -0.267528
      outer loop
         vertex 0.05375 -0.000764818 -0.000212351
         vertex -0.05375 -0.000764818 -0.000212351
         vertex -0.05375 -0.000737375 -0.000293797
      endloop
   endfacet
   facet normal 0 -0.928977 -0.370138
      outer loop
         vertex 0.05375 -0.000737375 -0.000293797
         vertex -0.05375 -0.000737375 -0.000293797
         vertex -0.05375 -0.000701288 -0.000371799
      endloop
   endfacet
   facet normal 0 -0.883512 -0.468408
      outer loop
         vertex 0.05375 -0.000701288 -0.000371799
         vertex -0.05375 -0.000701288 -0.000371799
         vertex -0.05375 -0.000656978 -0.000445442
      endloop
   endfacet
   facet normal 0 -0.827689 -0.561187
      outer loop
         vertex 0.05375 -0.000656978 -0.000445442
         vertex -0.05375 -0.000656978 -0.000445442
         vertex -0.05375 -0.000604966 -0.000513863
      endloop
   endfacet
   facet normal 0 -0.762162 -0.647386
      outer loop
         vertex 0.05375 -0.000604966 -0.000513863
         vertex -0.05375 -0.000604966 -0.000513863
         vertex -0.05375 -0.000545861 -0.000576259
      endloop
   endfacet
   facet normal 0 -0.687699 -0.725995
      outer loop
         vertex 0.05375 -0.000545861 -0.000576259
         vertex -0.05375 -0.000545861 -0.000576259
         vertex -0.05375 -0.000480357 -0.000631899
      endloop
   endfacet
   facet normal 0 -0.605174 -0.796093
      outer loop
         vertex 0.05375 -0.000480357 -0.000631899
         vertex -0.05375 -0.000480357 -0.000631899
         vertex -0.05375 -0.000409221 -0.00068013
      endloop
   endfacet
   facet normal 0 -0.515554 -0.856857
      outer loop
         vertex 0.05375 -0.000409221 -0.00068013
         vertex -0.05375 -0.000409221 -0.00068013
         vertex -0.05375 -0.000333287 -0.000720388
      endloop
   endfacet
   facet normal 0 -0.419889 -0.907575
      outer loop
         vertex 0.05375 -0.000333287 -0.000720388
         vertex -0.05375 -0.000333287 -0.000720388
         vertex -0.05375 -0.000253446 -0.0007522
      endloop
   endfacet
   facet normal 0 -0.319302 -0.947653
      outer loop
         vertex 0.05375 -0.000253446 -0.0007522
         vertex -0.05375 -0.000253446 -0.0007522
         vertex -0.05375 -0.000170633 -0.000775193
      endloop
   endfacet
   facet normal 0 -0.21497 -0.976621
      outer loop
         vertex 0.05375 -0.000170633 -0.000775193
         vertex -0.05375 -0.000170633 -0.000775193
         vertex -0.05375 -8.58195e-05 -0.000789097
      endloop
   endfacet
   facet normal 0 -0.108119 -0.994138
      outer loop
         vertex 0.05375 -8.58195e-05 -0.000789097
         vertex -0.05375 -8.58195e-05 -0.000789097
         vertex -0.05375 9.72063e-20 -0.00079375
      endloop
   endfacet
   facet normal 0 1.22465e-16 -1
      outer loop
         vertex 0.05375 2.91619e-19 -0.00079375
         vertex -0.05375 9.72063e-20 -0.00079375
         vertex -0.05375 8.58195e-05 -0.000789097
      endloop
   endfacet
   facet normal 0 0.108119 -0.994138
      outer loop
         vertex 0.05375 8.58195e-05 -0.000789097
         vertex -0.05375 8.58195e-05 -0.000789097
         vertex -0.05375 0.000170633 -0.000775193
      endloop
   endfacet
   facet normal 0 0.21497 -0.976621
      outer loop
         vertex 0.05375 0.000170633 -0.000775193
         vertex -0.05375 0.000170633 -0.000775193
         vertex -0.05375 0.000253446 -0.0007522
      endloop
   endfacet
   facet normal 0 0.319302 -0.947653
      outer loop
         vertex 0.05375 0.000253446 -0.0007522
         vertex -0.05375 0.000253446 -0.0007522
         vertex -0.05375 0.000333287 -0.000720388
      endloop
   endfacet
   facet normal 0 0.419889 -0.907575
      outer loop
         vertex 0.05375 0.000333287 -0.000720388
         vertex -0.05375 0.000333287 -0.000720388
         vertex -0.05375 0.000409221 -0.00068013
      endloop
   endfacet
   facet normal 0 0.515554 -0.856857
      outer loop
         vertex 0.05375 0.000409221 -0.00068013
         vertex -0.05375 0.000409221 -0.00068013
         vertex -0.05375 0.000480357 -0.000631899
      endloop
   endfacet
   facet normal 0 0.605174 -0.796093
      outer loop
         vertex 0.05375 0.000480357 -0.000631899
         vertex -0.05375 0.000480357 -0.000631899
         vertex -0.05375 0.000545861 -0.000576259
      endloop
   endfacet
   facet normal 0 0.687699 -0.725995
      outer loop
         vertex 0.05375 0.000545861 -0.000576259
         vertex -0.05375 0.000545861 -0.000576259
         vertex -0.05375 0.000604966 -0.000513863
      endloop
   endfacet
   facet normal 0 0.762162 -0.647386
      outer loop
         vertex 0.05375 0.000604966 -0.000513863
         vertex -0.05375 0.000604966 -0.000513863
         vertex -0.05375 0.000656978 -0.000445442
      endloop
   endfacet
   facet normal 0 0.827689 -0.561187
      outer loop
         vertex 0.05375 0.000656978 -0.000445442
         vertex -0.05375 0.000656978 -0.000445442
         vertex -0.05375 0.000701288 -0.000371799
      endloop
   endfacet
   facet normal 0 0.883512 -0.468408
      outer loop
         vertex 0.05375 0.000701288 -0.000371799
         vertex -0.05375 0.000701288 -0.000371799
         vertex -0.05375 0.000737375 -0.000293797
      endloop
   endfacet
   facet normal 0 0.928977 -0.370138
      outer loop
         vertex 0.05375 0.000737375 -0.000293797
         vertex -0.05375 0.000737375 -0.000293797
         vertex -0.05375 0.000764818 -0.000212351
      endloop
   endfacet
   facet normal 0 0.96355 -0.267528
      outer loop
         vertex 0.05375 0.000764818 -0.000212351
         vertex -0.05375 0.000764818 -0.000212351
         vertex -0.05375 0.000783294 -0.000128414
      endloop
   endfacet
   facet normal 0 0.986827 -0.161782
      outer loop
         vertex 0.05375 0.000783294 -0.000128414
         vertex -0.05375 0.000783294 -0.000128414
         vertex -0.05375 0.000792586 -4.29728e-05
      endloop
   endfacet
   facet normal 0 0.998533 -0.0541389
      outer loop
         vertex 0.05375 0.000792586 -4.29728e-05
         vertex -0.05375 0.000792586 -4.29728e-05
         vertex -0.05375 0.000792586 4.29728e-05
      endloop
   endfacet
   facet normal 0 0.998533 0.0541389
      outer loop
         vertex 0.05375 0.000792586 4.29728e-05
         vertex -0.05375 0.000792586 4.29728e-05
         vertex -0.05375 0.000783294 0.000128414
      endloop
   endfacet
   facet normal 0 0.986827 0.161782
      outer loop
         vertex 0.05375 0.000783294 0.000128414
         vertex -0.05375 0.000783294 0.000128414
         vertex -0.05375 0.000764818 0.000212351
      endloop
   endfacet
   facet normal 0 0.96355 0.267528
      outer loop
         vertex 0.05375 0.000764818 0.000212351
         vertex -0.05375 0.000764818 0.000212351
         vertex -0.05375 0.000737375 0.000293797
      endloop
   endfacet
   facet normal 0 0.928977 0.370138
      outer loop
         vertex 0.05375 0.000737375 0.000293797
         vertex -0.05375 0.000737375 0.000293797
         vertex -0.05375 0.000701288 0.000371799
      endloop
   endfacet
   facet normal 0 0.883512 0.468408
      outer loop
         vertex 0.05375 0.000701288 0.000371799
         vertex -0.05375 0.000701288 0.000371799
         vertex -0.05375 0.000656978 0.000445442
      endloop
   endfacet
   facet normal 0 0.827689 0.561187
      outer loop
         vertex 0.05375 0.000656978 0.000445442
         vertex -0.05375 0.000656978 0.000445442
         vertex -0.05375 0.000604966 0.000513863
      endloop
   endfacet
   facet normal 0 0.762162 0.647386
      outer loop
         vertex 0.05375 0.000604966 0.000513863
         vertex -0.05375 0.000604966 0.000513863
         vertex -0.05375 0.000545861 0.000576259
      endloop
   endfacet
   facet normal 0 0.687699 0.725995
      outer loop
         vertex 0.05375 0.000545861 0.000576259
         vertex -0.05375 0.000545861 0.000576259
         vertex -0.05375 0.000480357 0.000631899
      endloop
   endfacet
   facet normal 0 0.605174 0.796093
      outer loop
         vertex 0.05375 0.000480357 0.000631899
         vertex -0.05375 0.000480357 0.000631899
         vertex -0.05375 0.000409221 0.00068013
      endloop
   endfacet
   facet normal 0 0.515554 0.856857
      outer loop
         vertex 0.05375 0.000409221 0.00068013
         vertex -0.05375 0.000409221 0.00068013
         vertex -0.05375 0.000333287 0.000720388
      endloop
   endfacet
   facet normal 0 0.419889 0.907575
      outer loop
         vertex 0.05375 0.000333287 0.000720388
         vertex -0.05375 0.000333287 0.000720388
         vertex -0.05375 0.000253446 0.0007522
      endloop
   endfacet
   facet normal 0 0.319302 0.947653
      outer loop
         vertex 0.05375 0.000253446 0.0007522
         vertex -0.05375 0.000253446 0.0007522
         vertex -0.05375 0.000170633 0.000775193
      endloop
   endfacet
   facet normal 0 0.21497 0.976621
      outer loop
         vertex 0.05375 0.000170633 0.000775193
         vertex -0.05375 0.000170633 0.000775193
         vertex -0.05375 8.58195e-05 0.000789097
      endloop
   endfacet
   facet normal 0 0.108119 0.994138
      outer loop
         vertex 0.05375 8.58195e-05 0.000789097
         vertex -0.05375 8.58195e-05 0.000789097
         vertex -0.05375 -1.94413e-19 0.00079375
      endloop
   endfacet
   facet normal 1 0 0
      outer loop
         vertex 0.05375 0 1.38778e-17
         vertex 0.05375 8.58195e-05 -0.000789097
         vertex 0.05375 0.000170633 -0.000775193
      endloop
   endfacet
   facet normal 1 0 0
      outer loop
         vertex 0.05375 0.000170633 -0.000775193
         vertex 0.05375 0.000253446 -0.0007522
         vertex 0.05375 0 1.38778e-17
      endloop
   endfacet
   facet normal 1 0 0
      outer loop
         vertex 0.05375 0.000253446 -0.0007522
         vertex 0.05375 0.000333287 -0.000720388
         vertex 0.05375 0 1.38778e-17
      endloop
   endfacet
   facet normal 1 0 0
      outer loop
         vertex 0.05375 0.000333287 -0.000720388
         vertex 0.05375 0.000409221 -0.00068013
         vertex 0.05375 0 1.38778e-17
      endloop
   endfacet
   facet normal 1 0 0
      outer loop
         vertex 0.05375 0.000409221 -0.00068013
         vertex 0.05375 0.000480357 -0.000631899
         vertex 0.05375 0 1.38778e-17
      endloop
   endfacet
   facet normal 1 0 0
      outer loop
         vertex 0.05375 0.000480357 -0.000631899
         vertex 0.05375 0.000545861 -0.000576259
         vertex 0.05375 0 1.38778e-17
      endloop
   endfacet
   facet normal 1 0 0
      outer loop
         vertex 0.05375 0.000545861 -0.000576259
         vertex 0.05375 0.000604966 -0.000513863
         vertex 0.05375 0 1.38778e-17
      endloop
   endfacet
   facet normal 1 0 0
      outer loop
         vertex 0.05375 0.000604966 -0.000513863
         vertex 0.05375 0.000656978 -0.000445442
         vertex 0.05375 0 1.38778e-17
      endloop
   endfacet
   facet normal 1 0 0
      outer loop
         vertex 0.05375 0.000656978 -0.000445442
         vertex 0.05375 0.000701288 -0.000371799
         vertex 0.05375 0 1.38778e-17
      endloop
   endfacet
   facet normal 1 0 0
      outer loop
         vertex 0.05375 0.000701288 -0.000371799
         vertex 0.05375 0.000737375 -0.000293797
         vertex 0.05375 0 1.38778e-17
      endloop
   endfacet
   facet normal 1 0 0
      outer loop
         vertex 0.05375 0.000737375 -0.000293797
         vertex 0.05375 0.000764818 -0.000212351
         vertex 0.05375 0 1.38778e-17
      endloop
   endfacet
   facet normal 1 0 0
      outer loop
         vertex 0.05375 0.000764818 -0.000212351
         vertex 0.05375 0.000783294 -0.000128414
         vertex 0.05375 0 1.38778e-17
      endloop
   endfacet
   facet normal 1 0 0
      outer loop
         vertex 0.05375 0.000783294 -0.000128414
         vertex 0.05375 0.000792586 -4.29728e-05
         vertex 0.05375 0 1.38778e-17
      endloop
   endfacet
   facet normal 1 0 0
      outer loop
         vertex 0.05375 0.000792586 -4.29728e-05
         vertex 0.05375 0.000792586 4.29728e-05
         vertex 0.05375 0 1.38778e-17
      endloop
   endfacet
   facet normal 1 0 0
      outer loop
         vertex 0.05375 0.000792586 4.29728e-05
         vertex 0.05375 0.000783294 0.000128414
         vertex 0.05375 0 1.38778e-17
      endloop
   endfacet
   facet normal 1 0 0
      outer loop
         vertex 0.05375 0.000783294 0.000128414
         vertex 0.05375 0.000764818 0.000212351
         vertex 0.05375 0 1.38778e-17
      endloop
   endfacet
   facet normal 1 0 0
      outer loop
         vertex 0.05375 0.000764818 0.000212351
         vertex 0.05375 0.000737375 0.000293797
         vertex 0.05375 0 1.38778e-17
      endloop
   endfacet
   facet normal 1 0 0
      outer loop
         vertex 0.05375 0.000737375 0.000293797
         vertex 0.05375 0.000701288 0.000371799
         vertex 0.05375 0 1.38778e-17
      endloop
   endfacet
   facet normal 1 0 0
      outer loop
         vertex 0.05375 0.000701288 0.000371799
         vertex 0.05375 0.000656978 0.000445442
         vertex 0.05375 0 1.38778e-17
      endloop
   endfacet
   facet normal 1 0 0
      outer loop
         vertex 0.05375 0.000656978 0.000445442
         vertex 0.05375 0.000604966 0.000513863
         vertex 0.05375 0 1.38778e-17
      endloop
   endfacet
   facet normal 1 0 0
      outer loop
         vertex 0.05375 0.000604966 0.000513863
         vertex 0.05375 0.000545861 0.000576259
         vertex 0.05375 0 1.38778e-17
      endloop
   endfacet
   facet normal 1 0 0
      outer loop
         vertex 0.05375 0.000545861 0.000576259
         vertex 0.05375 0.000480357 0.000631899
         vertex 0.05375 0 1.38778e-17
      endloop
   endfacet
   facet normal 1 0 0
      outer loop
         vertex 0.05375 0.000480357 0.000631899
         vertex 0.05375 0.000409221 0.00068013
         vertex 0.05375 0 1.38778e-17
      endloop
   endfacet
   facet normal 1 0 0
      outer loop
         vertex 0.05375 0.000409221 0.00068013
         vertex 0.05375 0.000333287 0.000720388
         vertex 0.05375 0 1.38778e-17
      endloop
   endfacet
   facet normal 1 0 0
      outer loop
         vertex 0.05375 0.000333287 0.000720388
         vertex 0.05375 0.000253446 0.0007522
         vertex 0.05375 0 1.38778e-17
      endloop
   endfacet
   facet normal 1 0 0
      outer loop
         vertex 0.05375 0.000253446 0.0007522
         vertex 0.05375 0.000170633 0.000775193
         vertex 0.05375 0 1.38778e-17
      endloop
   endfacet
   facet normal 1 0 0
      outer loop
         vertex 0.05375 0.000170633 0.000775193
         vertex 0.05375 8.58195e-05 0.000789097
         vertex 0.05375 0 1.38778e-17
      endloop
   endfacet
   facet normal 1 0 0
      outer loop
         vertex 0.05375 8.58195e-05 0.000789097
         vertex 0.05375 -1.94413e-19 0.00079375
         vertex 0.05375 0 1.38778e-17
      endloop
   endfacet
   facet normal 1 0 0
      outer loop
         vertex 0.05375 -1.94413e-19 0.00079375
         vertex 0.05375 -8.58195e-05 0.000789097
         vertex 0.05375 0 1.38778e-17
      endloop
   endfacet
   facet normal 1 0 0
      outer loop
         vertex 0.05375 -8.58195e-05 0.000789097
         vertex 0.05375 -0.000170633 0.000775193
         vertex 0.05375 0 1.38778e-17
      endloop
   endfacet
   facet normal 1 0 0
      outer loop
         vertex 0.05375 -0.000170633 0.000775193
         vertex 0.05375 -0.000253446 0.0007522
         vertex 0.05375 0 1.38778e-17
      endloop
   endfacet
   facet normal 1 0 0
      outer loop
         vertex 0.05375 -0.000253446 0.0007522
         vertex 0.05375 -0.000333287 0.000720388
         vertex 0.05375 0 1.38778e-17
      endloop
   endfacet
   facet normal 1 0 0
      outer loop
         vertex 0.05375 -0.000333287 0.000720388
         vertex 0.05375 -0.000409221 0.00068013
         vertex 0.05375 0 1.38778e-17
      endloop
   endfacet
   facet normal 1 0 0
      outer loop
         vertex 0.05375 -0.000409221 0.00068013
         vertex 0.05375 -0.000480357 0.000631899
         vertex 0.05375 0 1.38778e-17
      endloop
   endfacet
   facet normal 1 0 0
      outer loop
         vertex 0.05375 -0.000480357 0.000631899
         vertex 0.05375 -0.000545861 0.000576259
         vertex 0.05375 0 1.38778e-17
      endloop
   endfacet
   facet normal 1 0 0
      outer loop
         vertex 0.05375 -0.000545861 0.000576259
         vertex 0.05375 -0.000604966 0.000513863
         vertex 0.05375 0 1.38778e-17
      endloop
   endfacet
   facet normal 1 0 0
      outer loop
         vertex 0.05375 -0.000604966 0.000513863
         vertex 0.05375 -0.000656978 0.000445442
         vertex 0.05375 0 1.38778e-17
      endloop
   endfacet
   facet normal 1 0 0
      outer loop
         vertex 0.05375 -0.000656978 0.000445442
         vertex 0.05375 -0.000701288 0.000371799
         vertex 0.05375 0 1.38778e-17
      endloop
   endfacet
   facet normal 1 0 0
      outer loop
         vertex 0.05375 -0.000701288 0.000371799
         vertex 0.05375 -0.000737375 0.000293797
         vertex 0.05375 0 1.38778e-17
      endloop
   endfacet
   facet normal 1 0 0
      outer loop
         vertex 0.05375 -0.000737375 0.000293797
         vertex 0.05375 -0.000764818 0.000212351
         vertex 0.05375 0 1.38778e-17
      endloop
   endfacet
   facet normal 1 0 0
      outer loop
         vertex 0.05375 -0.000764818 0.000212351
         vertex 0.05375 -0.000783294 0.000128414
         vertex 0.05375 0 1.38778e-17
      endloop
   endfacet
   facet normal 1 0 0
      outer loop
         vertex 0.05375 -0.000783294 0.000128414
         vertex 0.05375 -0.000792586 4.29728e-05
         vertex 0.05375 0 1.38778e-17
      endloop
   endfacet
   facet normal 1 0 0
      outer loop
         vertex 0.05375 -0.000792586 4.29728e-05
         vertex 0.05375 -0.000792586 -4.29728e-05
         vertex 0.05375 0 1.38778e-17
      endloop
   endfacet
   facet normal 1 0 0
      outer loop
         vertex 0.05375 -0.000792586 -4.29728e-05
         vertex 0.05375 -0.000783294 -0.000128414
         vertex 0.05375 0 1.38778e-17
      endloop
   endfacet
   facet normal 1 0 0
      outer loop
         vertex 0.05375 -0.000783294 -0.000128414
         vertex 0.05375 -0.000764818 -0.000212351
         vertex 0.05375 0 1.38778e-17
      endloop
   endfacet
   facet normal 1 0 0
      outer loop
         vertex 0.05375 -0.000764818 -0.000212351
         vertex 0.05375 -0.000737375 -0.000293797
         vertex 0.05375 0 1.38778e-17
      endloop
   endfacet
   facet normal 1 0 0
      outer loop
         vertex 0.05375 -0.000737375 -0.000293797
         vertex 0.05375 -0.000701288 -0.000371799
         vertex 0.05375 0 1.38778e-17
      endloop
   endfacet
   facet normal 1 0 0
      outer loop
         vertex 0.05375 -0.000701288 -0.000371799
         vertex 0.05375 -0.000656978 -0.000445442
         vertex 0.05375 0 1.38778e-17
      endloop
   endfacet
   facet normal 1 0 0
      outer loop
         vertex 0.05375 -0.000656978 -0.000445442
         vertex 0.05375 -0.000604966 -0.000513863
         vertex 0.05375 0 1.38778e-17
      endloop
   endfacet
   facet normal 1 0 0
      outer loop
         vertex 0.05375 -0.000604966 -0.000513863
         vertex 0.05375 -0.000545861 -0.000576259
         vertex 0.05375 0 1.38778e-17
      endloop
   endfacet
   facet normal 1 0 0
      outer loop
         vertex 0.05375 -0.000545861 -0.000576259
         vertex 0.05375 -0.000480357 -0.000631899
         vertex 0.05375 0 1.38778e-17
      endloop
   endfacet
   facet normal 1 0 0
      outer loop
         vertex 0.05375 -0.000480357 -0.000631899
         vertex 0.05375 -0.000409221 -0.00068013
         vertex 0.05375 0 1.38778e-17
      endloop
   endfacet
   facet normal 1 0 0
      outer loop
         vertex 0.05375 -0.000409221 -0.00068013
         vertex 0.05375 -0.000333287 -0.000720388
         vertex 0.05375 0 1.38778e-17
      endloop
   endfacet
   facet normal 1 0 0
      outer loop
         vertex 0.05375 -0.000333287 -0.000720388
         vertex 0.05375 -0.000253446 -0.0007522
         vertex 0.05375 0 1.38778e-17
      endloop
   endfacet
   facet normal 1 0 0
      outer loop
         vertex 0.05375 -0.000253446 -0.0007522
         vertex 0.05375 -0.000170633 -0.000775193
         vertex 0.05375 0 1.38778e-17
      endloop
   endfacet
   facet normal 1 0 0
      outer loop
         vertex 0.05375 -0.000170633 -0.000775193
         vertex 0.05375 -8.58195e-05 -0.000789097
         vertex 0.05375 0 1.38778e-17
      endloop
   endfacet
   facet normal 1 0 0
      outer loop
         vertex 0.05375 -8.58195e-05 -0.000789097
         vertex 0.05375 2.91619e-19 -0.00079375
         vertex 0.05375 0 1.38778e-17
      endloop
   endfacet
   facet normal 1 0 0
      outer loop
         vertex 0.05375 2.91619e-19 -0.00079375
         vertex 0.05375 8.58195e-05 -0.000789097
         vertex 0.05375 0 1.38778e-17
      endloop
   endfacet
endsolid 1569A371_Piano Hinge with Holes. Units = meters