solid 24. STL generated by ONSHAPE BY PTC INC, 1.216. Units = meters
   facet normal 0 0.108119 -0.994138
      outer loop
         vertex -0.00021 -0.000551407 0.0050701
         vertex -0.00021 0 0.0051
         vertex 0.00021 0 0.0051
      endloop
   endfacet
   facet normal 0 0.21497 -0.976621
      outer loop
         vertex -0.00021 -0.00109635 0.00498076
         vertex -0.00021 -0.000551407 0.0050701
         vertex 0.00021 -0.000551407 0.0050701
      endloop
   endfacet
   facet normal 0 0.319302 -0.947653
      outer loop
         vertex -0.00021 -0.00162844 0.00483303
         vertex -0.00021 -0.00109635 0.00498076
         vertex 0.00021 -0.00109635 0.00498076
      endloop
   endfacet
   facet normal 0 0.419889 -0.907575
      outer loop
         vertex -0.00021 -0.00214143 0.00462863
         vertex -0.00021 -0.00162844 0.00483303
         vertex 0.00021 -0.00162844 0.00483303
      endloop
   endfacet
   facet normal 0 0.515554 -0.856857
      outer loop
         vertex -0.00021 -0.00262932 0.00436997
         vertex -0.00021 -0.00214143 0.00462863
         vertex 0.00021 -0.00214143 0.00462863
      endloop
   endfacet
   facet normal 0 0.605174 -0.796093
      outer loop
         vertex -0.00021 -0.00308639 0.00406007
         vertex -0.00021 -0.00262932 0.00436997
         vertex 0.00021 -0.00262932 0.00436997
      endloop
   endfacet
   facet normal 0 0.687699 -0.725995
      outer loop
         vertex -0.00021 -0.00350727 0.00370258
         vertex -0.00021 -0.00308639 0.00406007
         vertex 0.00021 -0.00308639 0.00406007
      endloop
   endfacet
   facet normal 0 0.762162 -0.647386
      outer loop
         vertex -0.00021 -0.00388703 0.00330167
         vertex -0.00021 -0.00350727 0.00370258
         vertex 0.00021 -0.00350727 0.00370258
      endloop
   endfacet
   facet normal 0 0.827689 -0.561187
      outer loop
         vertex -0.00021 -0.00422121 0.00286205
         vertex -0.00021 -0.00388703 0.00330167
         vertex 0.00021 -0.00388703 0.00330167
      endloop
   endfacet
   facet normal 0 0.883512 -0.468408
      outer loop
         vertex -0.00021 -0.00450591 0.00238888
         vertex -0.00021 -0.00422121 0.00286205
         vertex 0.00021 -0.00422121 0.00286205
      endloop
   endfacet
   facet normal 0 0.928977 -0.370138
      outer loop
         vertex -0.00021 -0.00473778 0.0018877
         vertex -0.00021 -0.00450591 0.00238888
         vertex 0.00021 -0.00450591 0.00238888
      endloop
   endfacet
   facet normal 0 0.96355 -0.267528
      outer loop
         vertex -0.00021 -0.0049141 0.00136439
         vertex -0.00021 -0.00473778 0.0018877
         vertex 0.00021 -0.00473778 0.0018877
      endloop
   endfacet
   facet normal 0 0.986827 -0.161782
      outer loop
         vertex -0.00021 -0.00503282 0.000825088
         vertex -0.00021 -0.0049141 0.00136439
         vertex 0.00021 -0.0049141 0.00136439
      endloop
   endfacet
   facet normal 0 0.998533 -0.0541389
      outer loop
         vertex -0.00021 -0.00509252 0.000276108
         vertex -0.00021 -0.00503282 0.000825088
         vertex 0.00021 -0.00503282 0.000825088
      endloop
   endfacet
   facet normal 0 0.998533 0.0541389
      outer loop
         vertex -0.00021 -0.00509252 -0.000276108
         vertex -0.00021 -0.00509252 0.000276108
         vertex 0.00021 -0.00509252 0.000276108
      endloop
   endfacet
   facet normal 0 0.986827 0.161782
      outer loop
         vertex -0.00021 -0.00503282 -0.000825088
         vertex -0.00021 -0.00509252 -0.000276108
         vertex 0.00021 -0.00509252 -0.000276108
      endloop
   endfacet
   facet normal 0 0.96355 0.267528
      outer loop
         vertex -0.00021 -0.0049141 -0.00136439
         vertex -0.00021 -0.00503282 -0.000825088
         vertex 0.00021 -0.00503282 -0.000825088
      endloop
   endfacet
   facet normal 0 0.928977 0.370138
      outer loop
         vertex -0.00021 -0.00473778 -0.0018877
         vertex -0.00021 -0.0049141 -0.00136439
         vertex 0.00021 -0.0049141 -0.00136439
      endloop
   endfacet
   facet normal 0 0.883512 0.468408
      outer loop
         vertex -0.00021 -0.00450591 -0.00238888
         vertex -0.00021 -0.00473778 -0.0018877
         vertex 0.00021 -0.00473778 -0.0018877
      endloop
   endfacet
   facet normal 0 0.827689 0.561187
      outer loop
         vertex -0.00021 -0.00422121 -0.00286205
         vertex -0.00021 -0.00450591 -0.00238888
         vertex 0.00021 -0.00450591 -0.00238888
      endloop
   endfacet
   facet normal 0 0.762162 0.647386
      outer loop
         vertex -0.00021 -0.00388703 -0.00330167
         vertex -0.00021 -0.00422121 -0.00286205
         vertex 0.00021 -0.00422121 -0.00286205
      endloop
   endfacet
   facet normal 0 0.687699 0.725995
      outer loop
         vertex -0.00021 -0.00350727 -0.00370258
         vertex -0.00021 -0.00388703 -0.00330167
         vertex 0.00021 -0.00388703 -0.00330167
      endloop
   endfacet
   facet normal 0 0.605174 0.796093
      outer loop
         vertex -0.00021 -0.00308639 -0.00406007
         vertex -0.00021 -0.00350727 -0.00370258
         vertex 0.00021 -0.00350727 -0.00370258
      endloop
   endfacet
   facet normal 0 0.515554 0.856857
      outer loop
         vertex -0.00021 -0.00262932 -0.00436997
         vertex -0.00021 -0.00308639 -0.00406007
         vertex 0.00021 -0.00308639 -0.00406007
      endloop
   endfacet
   facet normal 0 0.419889 0.907575
      outer loop
         vertex -0.00021 -0.00214143 -0.00462863
         vertex -0.00021 -0.00262932 -0.00436997
         vertex 0.00021 -0.00262932 -0.00436997
      endloop
   endfacet
   facet normal 0 0.319302 0.947653
      outer loop
         vertex -0.00021 -0.00162844 -0.00483303
         vertex -0.00021 -0.00214143 -0.00462863
         vertex 0.00021 -0.00214143 -0.00462863
      endloop
   endfacet
   facet normal 0 0.21497 0.976621
      outer loop
         vertex -0.00021 -0.00109635 -0.00498076
         vertex -0.00021 -0.00162844 -0.00483303
         vertex 0.00021 -0.00162844 -0.00483303
      endloop
   endfacet
   facet normal 0 0.108119 0.994138
      outer loop
         vertex -0.00021 -0.000551407 -0.0050701
         vertex -0.00021 -0.00109635 -0.00498076
         vertex 0.00021 -0.00109635 -0.00498076
      endloop
   endfacet
   facet normal 0 -1.22465e-16 1
      outer loop
         vertex -0.00021 1.87371e-18 -0.0051
         vertex -0.00021 -0.000551407 -0.0050701
         vertex 0.00021 -0.000551407 -0.0050701
      endloop
   endfacet
   facet normal 0 -0.108119 0.994138
      outer loop
         vertex -0.00021 0.000551407 -0.0050701
         vertex -0.00021 1.87371e-18 -0.0051
         vertex 0.00021 6.2457e-19 -0.0051
      endloop
   endfacet
   facet normal 0 -0.21497 0.976621
      outer loop
         vertex -0.00021 0.00109635 -0.00498076
         vertex -0.00021 0.000551407 -0.0050701
         vertex 0.00021 0.000551407 -0.0050701
      endloop
   endfacet
   facet normal 0 -0.319302 0.947653
      outer loop
         vertex -0.00021 0.00162844 -0.00483303
         vertex -0.00021 0.00109635 -0.00498076
         vertex 0.00021 0.00109635 -0.00498076
      endloop
   endfacet
   facet normal 0 -0.419889 0.907575
      outer loop
         vertex -0.00021 0.00214143 -0.00462863
         vertex -0.00021 0.00162844 -0.00483303
         vertex 0.00021 0.00162844 -0.00483303
      endloop
   endfacet
   facet normal 0 -0.515554 0.856857
      outer loop
         vertex -0.00021 0.00262932 -0.00436997
         vertex -0.00021 0.00214143 -0.00462863
         vertex 0.00021 0.00214143 -0.00462863
      endloop
   endfacet
   facet normal 0 -0.605174 0.796093
      outer loop
         vertex -0.00021 0.00308639 -0.00406007
         vertex -0.00021 0.00262932 -0.00436997
         vertex 0.00021 0.00262932 -0.00436997
      endloop
   endfacet
   facet normal 0 -0.687699 0.725995
      outer loop
         vertex -0.00021 0.00350727 -0.00370258
         vertex -0.00021 0.00308639 -0.00406007
         vertex 0.00021 0.00308639 -0.00406007
      endloop
   endfacet
   facet normal 0 -0.762162 0.647386
      outer loop
         vertex -0.00021 0.00388703 -0.00330167
         vertex -0.00021 0.00350727 -0.00370258
         vertex 0.00021 0.00350727 -0.00370258
      endloop
   endfacet
   facet normal 0 -0.827689 0.561187
      outer loop
         vertex -0.00021 0.00422121 -0.00286205
         vertex -0.00021 0.00388703 -0.00330167
         vertex 0.00021 0.00388703 -0.00330167
      endloop
   endfacet
   facet normal 0 -0.883512 0.468408
      outer loop
         vertex -0.00021 0.00450591 -0.00238888
         vertex -0.00021 0.00422121 -0.00286205
         vertex 0.00021 0.00422121 -0.00286205
      endloop
   endfacet
   facet normal 0 -0.928977 0.370138
      outer loop
         vertex -0.00021 0.00473778 -0.0018877
         vertex -0.00021 0.00450591 -0.00238888
         vertex 0.00021 0.00450591 -0.00238888
      endloop
   endfacet
   facet normal 0 -0.96355 0.267528
      outer loop
         vertex -0.00021 0.0049141 -0.00136439
         vertex -0.00021 0.00473778 -0.0018877
         vertex 0.00021 0.00473778 -0.0018877
      endloop
   endfacet
   facet normal 0 -0.986827 0.161782
      outer loop
         vertex -0.00021 0.00503282 -0.000825088
         vertex -0.00021 0.0049141 -0.00136439
         vertex 0.00021 0.0049141 -0.00136439
      endloop
   endfacet
   facet normal 0 -0.998533 0.0541389
      outer loop
         vertex -0.00021 0.00509252 -0.000276108
         vertex -0.00021 0.00503282 -0.000825088
         vertex 0.00021 0.00503282 -0.000825088
      endloop
   endfacet
   facet normal 0 -0.998533 -0.0541389
      outer loop
         vertex -0.00021 0.00509252 0.000276108
         vertex -0.00021 0.00509252 -0.000276108
         vertex 0.00021 0.00509252 -0.000276108
      endloop
   endfacet
   facet normal 0 -0.986827 -0.161782
      outer loop
         vertex -0.00021 0.00503282 0.000825088
         vertex -0.00021 0.00509252 0.000276108
         vertex 0.00021 0.00509252 0.000276108
      endloop
   endfacet
   facet normal 0 -0.96355 -0.267528
      outer loop
         vertex -0.00021 0.0049141 0.00136439
         vertex -0.00021 0.00503282 0.000825088
         vertex 0.00021 0.00503282 0.000825088
      endloop
   endfacet
   facet normal 0 -0.928977 -0.370138
      outer loop
         vertex -0.00021 0.00473778 0.0018877
         vertex -0.00021 0.0049141 0.00136439
         vertex 0.00021 0.0049141 0.00136439
      endloop
   endfacet
   facet normal 0 -0.883512 -0.468408
      outer loop
         vertex -0.00021 0.00450591 0.00238888
         vertex -0.00021 0.00473778 0.0018877
         vertex 0.00021 0.00473778 0.0018877
      endloop
   endfacet
   facet normal 0 -0.827689 -0.561187
      outer loop
         vertex -0.00021 0.00422121 0.00286205
         vertex -0.00021 0.00450591 0.00238888
         vertex 0.00021 0.00450591 0.00238888
      endloop
   endfacet
   facet normal 0 -0.762162 -0.647386
      outer loop
         vertex -0.00021 0.00388703 0.00330167
         vertex -0.00021 0.00422121 0.00286205
         vertex 0.00021 0.00422121 0.00286205
      endloop
   endfacet
   facet normal 0 -0.687699 -0.725995
      outer loop
         vertex -0.00021 0.00350727 0.00370258
         vertex -0.00021 0.00388703 0.00330167
         vertex 0.00021 0.00388703 0.00330167
      endloop
   endfacet
   facet normal 0 -0.605174 -0.796093
      outer loop
         vertex -0.00021 0.00308639 0.00406007
         vertex -0.00021 0.00350727 0.00370258
         vertex 0.00021 0.00350727 0.00370258
      endloop
   endfacet
   facet normal 0 -0.515554 -0.856857
      outer loop
         vertex -0.00021 0.00262932 0.00436997
         vertex -0.00021 0.00308639 0.00406007
         vertex 0.00021 0.00308639 0.00406007
      endloop
   endfacet
   facet normal 0 -0.419889 -0.907575
      outer loop
         vertex -0.00021 0.00214143 0.00462863
         vertex -0.00021 0.00262932 0.00436997
         vertex 0.00021 0.00262932 0.00436997
      endloop
   endfacet
   facet normal 0 -0.319302 -0.947653
      outer loop
         vertex -0.00021 0.00162844 0.00483303
         vertex -0.00021 0.00214143 0.00462863
         vertex 0.00021 0.00214143 0.00462863
      endloop
   endfacet
   facet normal 0 -0.21497 -0.976621
      outer loop
         vertex -0.00021 0.00109635 0.00498076
         vertex -0.00021 0.00162844 0.00483303
         vertex 0.00021 0.00162844 0.00483303
      endloop
   endfacet
   facet normal 0 -0.108119 -0.994138
      outer loop
         vertex -0.00021 0.000551407 0.0050701
         vertex -0.00021 0.00109635 0.00498076
         vertex 0.00021 0.00109635 0.00498076
      endloop
   endfacet
   facet normal 0 2.44929e-16 -1
      outer loop
         vertex -0.00021 0 0.0051
         vertex -0.00021 0.000551407 0.0050701
         vertex 0.00021 0.000551407 0.0050701
      endloop
   endfacet
   facet normal 0 -0.108119 -0.994138
      outer loop
         vertex 0.00021 0.000551407 0.0050701
         vertex 0.00021 0 0.0051
         vertex -0.00021 0 0.0051
      endloop
   endfacet
   facet normal 0 -0.21497 -0.976621
      outer loop
         vertex 0.00021 0.00109635 0.00498076
         vertex 0.00021 0.000551407 0.0050701
         vertex -0.00021 0.000551407 0.0050701
      endloop
   endfacet
   facet normal 0 -0.319302 -0.947653
      outer loop
         vertex 0.00021 0.00162844 0.00483303
         vertex 0.00021 0.00109635 0.00498076
         vertex -0.00021 0.00109635 0.00498076
      endloop
   endfacet
   facet normal 0 -0.419889 -0.907575
      outer loop
         vertex 0.00021 0.00214143 0.00462863
         vertex 0.00021 0.00162844 0.00483303
         vertex -0.00021 0.00162844 0.00483303
      endloop
   endfacet
   facet normal 0 -0.515554 -0.856857
      outer loop
         vertex 0.00021 0.00262932 0.00436997
         vertex 0.00021 0.00214143 0.00462863
         vertex -0.00021 0.00214143 0.00462863
      endloop
   endfacet
   facet normal 0 -0.605174 -0.796093
      outer loop
         vertex 0.00021 0.00308639 0.00406007
         vertex 0.00021 0.00262932 0.00436997
         vertex -0.00021 0.00262932 0.00436997
      endloop
   endfacet
   facet normal 0 -0.687699 -0.725995
      outer loop
         vertex 0.00021 0.00350727 0.00370258
         vertex 0.00021 0.00308639 0.00406007
         vertex -0.00021 0.00308639 0.00406007
      endloop
   endfacet
   facet normal 0 -0.762162 -0.647386
      outer loop
         vertex 0.00021 0.00388703 0.00330167
         vertex 0.00021 0.00350727 0.00370258
         vertex -0.00021 0.00350727 0.00370258
      endloop
   endfacet
   facet normal 0 -0.827689 -0.561187
      outer loop
         vertex 0.00021 0.00422121 0.00286205
         vertex 0.00021 0.00388703 0.00330167
         vertex -0.00021 0.00388703 0.00330167
      endloop
   endfacet
   facet normal 0 -0.883512 -0.468408
      outer loop
         vertex 0.00021 0.00450591 0.00238888
         vertex 0.00021 0.00422121 0.00286205
         vertex -0.00021 0.00422121 0.00286205
      endloop
   endfacet
   facet normal 0 -0.928977 -0.370138
      outer loop
         vertex 0.00021 0.00473778 0.0018877
         vertex 0.00021 0.00450591 0.00238888
         vertex -0.00021 0.00450591 0.00238888
      endloop
   endfacet
   facet normal 0 -0.96355 -0.267528
      outer loop
         vertex 0.00021 0.0049141 0.00136439
         vertex 0.00021 0.00473778 0.0018877
         vertex -0.00021 0.00473778 0.0018877
      endloop
   endfacet
   facet normal 0 -0.986827 -0.161782
      outer loop
         vertex 0.00021 0.00503282 0.000825088
         vertex 0.00021 0.0049141 0.00136439
         vertex -0.00021 0.0049141 0.00136439
      endloop
   endfacet
   facet normal 0 -0.998533 -0.0541389
      outer loop
         vertex 0.00021 0.00509252 0.000276108
         vertex 0.00021 0.00503282 0.000825088
         vertex -0.00021 0.00503282 0.000825088
      endloop
   endfacet
   facet normal 0 -0.998533 0.0541389
      outer loop
         vertex 0.00021 0.00509252 -0.000276108
         vertex 0.00021 0.00509252 0.000276108
         vertex -0.00021 0.00509252 0.000276108
      endloop
   endfacet
   facet normal 0 -0.986827 0.161782
      outer loop
         vertex 0.00021 0.00503282 -0.000825088
         vertex 0.00021 0.00509252 -0.000276108
         vertex -0.00021 0.00509252 -0.000276108
      endloop
   endfacet
   facet normal 0 -0.96355 0.267528
      outer loop
         vertex 0.00021 0.0049141 -0.00136439
         vertex 0.00021 0.00503282 -0.000825088
         vertex -0.00021 0.00503282 -0.000825088
      endloop
   endfacet
   facet normal 0 -0.928977 0.370138
      outer loop
         vertex 0.00021 0.00473778 -0.0018877
         vertex 0.00021 0.0049141 -0.00136439
         vertex -0.00021 0.0049141 -0.00136439
      endloop
   endfacet
   facet normal 0 -0.883512 0.468408
      outer loop
         vertex 0.00021 0.00450591 -0.00238888
         vertex 0.00021 0.00473778 -0.0018877
         vertex -0.00021 0.00473778 -0.0018877
      endloop
   endfacet
   facet normal 0 -0.827689 0.561187
      outer loop
         vertex 0.00021 0.00422121 -0.00286205
         vertex 0.00021 0.00450591 -0.00238888
         vertex -0.00021 0.00450591 -0.00238888
      endloop
   endfacet
   facet normal 0 -0.762162 0.647386
      outer loop
         vertex 0.00021 0.00388703 -0.00330167
         vertex 0.00021 0.00422121 -0.00286205
         vertex -0.00021 0.00422121 -0.00286205
      endloop
   endfacet
   facet normal 0 -0.687699 0.725995
      outer loop
         vertex 0.00021 0.00350727 -0.00370258
         vertex 0.00021 0.00388703 -0.00330167
         vertex -0.00021 0.00388703 -0.00330167
      endloop
   endfacet
   facet normal 0 -0.605174 0.796093
      outer loop
         vertex 0.00021 0.00308639 -0.00406007
         vertex 0.00021 0.00350727 -0.00370258
         vertex -0.00021 0.00350727 -0.00370258
      endloop
   endfacet
   facet normal 0 -0.515554 0.856857
      outer loop
         vertex 0.00021 0.00262932 -0.00436997
         vertex 0.00021 0.00308639 -0.00406007
         vertex -0.00021 0.00308639 -0.00406007
      endloop
   endfacet
   facet normal 0 -0.419889 0.907575
      outer loop
         vertex 0.00021 0.00214143 -0.00462863
         vertex 0.00021 0.00262932 -0.00436997
         vertex -0.00021 0.00262932 -0.00436997
      endloop
   endfacet
   facet normal 0 -0.319302 0.947653
      outer loop
         vertex 0.00021 0.00162844 -0.00483303
         vertex 0.00021 0.00214143 -0.00462863
         vertex -0.00021 0.00214143 -0.00462863
      endloop
   endfacet
   facet normal 0 -0.21497 0.976621
      outer loop
         vertex 0.00021 0.00109635 -0.00498076
         vertex 0.00021 0.00162844 -0.00483303
         vertex -0.00021 0.00162844 -0.00483303
      endloop
   endfacet
   facet normal 0 -0.108119 0.994138
      outer loop
         vertex 0.00021 0.000551407 -0.0050701
         vertex 0.00021 0.00109635 -0.00498076
         vertex -0.00021 0.00109635 -0.00498076
      endloop
   endfacet
   facet normal 0 -1.22465e-16 1
      outer loop
         vertex 0.00021 6.2457e-19 -0.0051
         vertex 0.00021 0.000551407 -0.0050701
         vertex -0.00021 0.000551407 -0.0050701
      endloop
   endfacet
   facet normal 0 0.108119 0.994138
      outer loop
         vertex 0.00021 -0.000551407 -0.0050701
         vertex 0.00021 6.2457e-19 -0.0051
         vertex -0.00021 1.87371e-18 -0.0051
      endloop
   endfacet
   facet normal 0 0.21497 0.976621
      outer loop
         vertex 0.00021 -0.00109635 -0.00498076
         vertex 0.00021 -0.000551407 -0.0050701
         vertex -0.00021 -0.000551407 -0.0050701
      endloop
   endfacet
   facet normal 0 0.319302 0.947653
      outer loop
         vertex 0.00021 -0.00162844 -0.00483303
         vertex 0.00021 -0.00109635 -0.00498076
         vertex -0.00021 -0.00109635 -0.00498076
      endloop
   endfacet
   facet normal 0 0.419889 0.907575
      outer loop
         vertex 0.00021 -0.00214143 -0.00462863
         vertex 0.00021 -0.00162844 -0.00483303
         vertex -0.00021 -0.00162844 -0.00483303
      endloop
   endfacet
   facet normal 0 0.515554 0.856857
      outer loop
         vertex 0.00021 -0.00262932 -0.00436997
         vertex 0.00021 -0.00214143 -0.00462863
         vertex -0.00021 -0.00214143 -0.00462863
      endloop
   endfacet
   facet normal 0 0.605174 0.796093
      outer loop
         vertex 0.00021 -0.00308639 -0.00406007
         vertex 0.00021 -0.00262932 -0.00436997
         vertex -0.00021 -0.00262932 -0.00436997
      endloop
   endfacet
   facet normal 0 0.687699 0.725995
      outer loop
         vertex 0.00021 -0.00350727 -0.00370258
         vertex 0.00021 -0.00308639 -0.00406007
         vertex -0.00021 -0.00308639 -0.00406007
      endloop
   endfacet
   facet normal 0 0.762162 0.647386
      outer loop
         vertex 0.00021 -0.00388703 -0.00330167
         vertex 0.00021 -0.00350727 -0.00370258
         vertex -0.00021 -0.00350727 -0.00370258
      endloop
   endfacet
   facet normal 0 0.827689 0.561187
      outer loop
         vertex 0.00021 -0.00422121 -0.00286205
         vertex 0.00021 -0.00388703 -0.00330167
         vertex -0.00021 -0.00388703 -0.00330167
      endloop
   endfacet
   facet normal 0 0.883512 0.468408
      outer loop
         vertex 0.00021 -0.00450591 -0.00238888
         vertex 0.00021 -0.00422121 -0.00286205
         vertex -0.00021 -0.00422121 -0.00286205
      endloop
   endfacet
   facet normal 0 0.928977 0.370138
      outer loop
         vertex 0.00021 -0.00473778 -0.0018877
         vertex 0.00021 -0.00450591 -0.00238888
         vertex -0.00021 -0.00450591 -0.00238888
      endloop
   endfacet
   facet normal 0 0.96355 0.267528
      outer loop
         vertex 0.00021 -0.0049141 -0.00136439
         vertex 0.00021 -0.00473778 -0.0018877
         vertex -0.00021 -0.00473778 -0.0018877
      endloop
   endfacet
   facet normal 0 0.986827 0.161782
      outer loop
         vertex 0.00021 -0.00503282 -0.000825088
         vertex 0.00021 -0.0049141 -0.00136439
         vertex -0.00021 -0.0049141 -0.00136439
      endloop
   endfacet
   facet normal 0 0.998533 0.0541389
      outer loop
         vertex 0.00021 -0.00509252 -0.000276108
         vertex 0.00021 -0.00503282 -0.000825088
         vertex -0.00021 -0.00503282 -0.000825088
      endloop
   endfacet
   facet normal 0 0.998533 -0.0541389
      outer loop
         vertex 0.00021 -0.00509252 0.000276108
         vertex 0.00021 -0.00509252 -0.000276108
         vertex -0.00021 -0.00509252 -0.000276108
      endloop
   endfacet
   facet normal 0 0.986827 -0.161782
      outer loop
         vertex 0.00021 -0.00503282 0.000825088
         vertex 0.00021 -0.00509252 0.000276108
         vertex -0.00021 -0.00509252 0.000276108
      endloop
   endfacet
   facet normal 0 0.96355 -0.267528
      outer loop
         vertex 0.00021 -0.0049141 0.00136439
         vertex 0.00021 -0.00503282 0.000825088
         vertex -0.00021 -0.00503282 0.000825088
      endloop
   endfacet
   facet normal 0 0.928977 -0.370138
      outer loop
         vertex 0.00021 -0.00473778 0.0018877
         vertex 0.00021 -0.0049141 0.00136439
         vertex -0.00021 -0.0049141 0.00136439
      endloop
   endfacet
   facet normal 0 0.883512 -0.468408
      outer loop
         vertex 0.00021 -0.00450591 0.00238888
         vertex 0.00021 -0.00473778 0.0018877
         vertex -0.00021 -0.00473778 0.0018877
      endloop
   endfacet
   facet normal 0 0.827689 -0.561187
      outer loop
         vertex 0.00021 -0.00422121 0.00286205
         vertex 0.00021 -0.00450591 0.00238888
         vertex -0.00021 -0.00450591 0.00238888
      endloop
   endfacet
   facet normal 0 0.762162 -0.647386
      outer loop
         vertex 0.00021 -0.00388703 0.00330167
         vertex 0.00021 -0.00422121 0.00286205
         vertex -0.00021 -0.00422121 0.00286205
      endloop
   endfacet
   facet normal 0 0.687699 -0.725995
      outer loop
         vertex 0.00021 -0.00350727 0.00370258
         vertex 0.00021 -0.00388703 0.00330167
         vertex -0.00021 -0.00388703 0.00330167
      endloop
   endfacet
   facet normal 0 0.605174 -0.796093
      outer loop
         vertex 0.00021 -0.00308639 0.00406007
         vertex 0.00021 -0.00350727 0.00370258
         vertex -0.00021 -0.00350727 0.00370258
      endloop
   endfacet
   facet normal 0 0.515554 -0.856857
      outer loop
         vertex 0.00021 -0.00262932 0.00436997
         vertex 0.00021 -0.00308639 0.00406007
         vertex -0.00021 -0.00308639 0.00406007
      endloop
   endfacet
   facet normal 0 0.419889 -0.907575
      outer loop
         vertex 0.00021 -0.00214143 0.00462863
         vertex 0.00021 -0.00262932 0.00436997
         vertex -0.00021 -0.00262932 0.00436997
      endloop
   endfacet
   facet normal 0 0.319302 -0.947653
      outer loop
         vertex 0.00021 -0.00162844 0.00483303
         vertex 0.00021 -0.00214143 0.00462863
         vertex -0.00021 -0.00214143 0.00462863
      endloop
   endfacet
   facet normal 0 0.21497 -0.976621
      outer loop
         vertex 0.00021 -0.00109635 0.00498076
         vertex 0.00021 -0.00162844 0.00483303
         vertex -0.00021 -0.00162844 0.00483303
      endloop
   endfacet
   facet normal 0 0.108119 -0.994138
      outer loop
         vertex 0.00021 -0.000551407 0.0050701
         vertex 0.00021 -0.00109635 0.00498076
         vertex -0.00021 -0.00109635 0.00498076
      endloop
   endfacet
   facet normal 0 2.44929e-16 -1
      outer loop
         vertex 0.00021 0 0.0051
         vertex 0.00021 -0.000551407 0.0050701
         vertex -0.00021 -0.000551407 0.0050701
      endloop
   endfacet
   facet normal -1 0 0
      outer loop
         vertex -0.00021 0.00789461 0.00129426
         vertex -0.00021 0.00503282 0.000825088
         vertex -0.00021 0.0049141 0.00136439
      endloop
   endfacet
   facet normal -1 0 0
      outer loop
         vertex -0.00021 0.00798827 0.000433111
         vertex -0.00021 0.00509252 0.000276108
         vertex -0.00021 0.00503282 0.000825088
      endloop
   endfacet
   facet normal -1 0 0
      outer loop
         vertex -0.00021 0.00412443 0.00685486
         vertex -0.00021 0.00262932 0.00436997
         vertex -0.00021 0.00214143 0.00462863
      endloop
   endfacet
   facet normal -1 0 0
      outer loop
         vertex -0.00021 0.00412443 0.00685486
         vertex -0.00021 0.00484139 0.00636874
         vertex -0.00021 0.00308639 0.00406007
      endloop
   endfacet
   facet normal -1 0 0
      outer loop
         vertex -0.00021 0.00484139 0.00636874
         vertex -0.00021 0.0055016 0.00580796
         vertex -0.00021 0.00350727 0.00370258
      endloop
   endfacet
   facet normal -1 0 0
      outer loop
         vertex -0.00021 0.0055016 0.00580796
         vertex -0.00021 0.0060973 0.00517909
         vertex -0.00021 0.00388703 0.00330167
      endloop
   endfacet
   facet normal -1 0 0
      outer loop
         vertex -0.00021 0.00503282 0.000825088
         vertex -0.00021 0.00789461 0.00129426
         vertex -0.00021 0.00798827 0.000433111
      endloop
   endfacet
   facet normal -1 0 0
      outer loop
         vertex -0.00021 0.00798827 0.000433111
         vertex -0.00021 0.00798827 -0.000433111
         vertex -0.00021 0.00509252 -0.000276108
      endloop
   endfacet
   facet normal -1 0 0
      outer loop
         vertex -0.00021 -0.00789461 0.00129426
         vertex -0.00021 -0.00503282 0.000825088
         vertex -0.00021 -0.00509252 0.000276108
      endloop
   endfacet
   facet normal -1 0 0
      outer loop
         vertex -0.00021 -0.00789461 0.00129426
         vertex -0.00021 -0.0077084 0.00214023
         vertex -0.00021 -0.0049141 0.00136439
      endloop
   endfacet
   facet normal -1 0 0
      outer loop
         vertex -0.00021 -0.0060973 0.00517909
         vertex -0.00021 -0.00388703 0.00330167
         vertex -0.00021 -0.00422121 0.00286205
      endloop
   endfacet
   facet normal -1 0 0
      outer loop
         vertex -0.00021 -0.0060973 0.00517909
         vertex -0.00021 -0.0055016 0.00580796
         vertex -0.00021 -0.00350727 0.00370258
      endloop
   endfacet
   facet normal -1 0 0
      outer loop
         vertex -0.00021 -0.00412443 0.00685486
         vertex -0.00021 -0.00335911 0.0072606
         vertex -0.00021 -0.00214143 0.00462863
      endloop
   endfacet
   facet normal -1 0 0
      outer loop
         vertex -0.00021 -0.00335911 0.0072606
         vertex -0.00021 -0.00255441 0.00758123
         vertex -0.00021 -0.00162844 0.00483303
      endloop
   endfacet
   facet normal -1 0 0
      outer loop
         vertex -0.00021 0.00308639 0.00406007
         vertex -0.00021 0.00262932 0.00436997
         vertex -0.00021 0.00412443 0.00685486
      endloop
   endfacet
   facet normal -1 0 0
      outer loop
         vertex -0.00021 0.00388703 0.00330167
         vertex -0.00021 0.00350727 0.00370258
         vertex -0.00021 0.0055016 0.00580796
      endloop
   endfacet
   facet normal -1 0 0
      outer loop
         vertex -0.00021 0.00662151 0.0044895
         vertex -0.00021 0.00422121 0.00286205
         vertex -0.00021 0.00388703 0.00330167
      endloop
   endfacet
   facet normal -1 0 0
      outer loop
         vertex -0.00021 0.00662151 0.0044895
         vertex -0.00021 0.0070681 0.00374727
         vertex -0.00021 0.00450591 0.00238888
      endloop
   endfacet
   facet normal -1 0 0
      outer loop
         vertex -0.00021 0.00743181 0.00296111
         vertex -0.00021 0.00473778 0.0018877
         vertex -0.00021 0.00450591 0.00238888
      endloop
   endfacet
   facet normal -1 0 0
      outer loop
         vertex -0.00021 0.00743181 0.00296111
         vertex -0.00021 0.0077084 0.00214023
         vertex -0.00021 0.0049141 0.00136439
      endloop
   endfacet
   facet normal -1 0 0
      outer loop
         vertex -0.00021 0.00509252 -0.000276108
         vertex -0.00021 0.00509252 0.000276108
         vertex -0.00021 0.00798827 0.000433111
      endloop
   endfacet
   facet normal -1 0 0
      outer loop
         vertex -0.00021 0.00798827 -0.000433111
         vertex -0.00021 0.00789461 -0.00129426
         vertex -0.00021 0.00503282 -0.000825088
      endloop
   endfacet
   facet normal -1 0 0
      outer loop
         vertex -0.00021 0.00662151 -0.0044895
         vertex -0.00021 0.00422121 -0.00286205
         vertex -0.00021 0.00450591 -0.00238888
      endloop
   endfacet
   facet normal -1 0 0
      outer loop
         vertex -0.00021 0.00662151 -0.0044895
         vertex -0.00021 0.0060973 -0.00517909
         vertex -0.00021 0.00388703 -0.00330167
      endloop
   endfacet
   facet normal -1 0 0
      outer loop
         vertex -0.00021 0.000864952 -0.0079531
         vertex -0.00021 0.000551407 -0.0050701
         vertex -0.00021 0.00109635 -0.00498076
      endloop
   endfacet
   facet normal -1 0 0
      outer loop
         vertex -0.00021 9.79717e-19 -0.008
         vertex -0.00021 1.87371e-18 -0.0051
         vertex -0.00021 0.000551407 -0.0050701
      endloop
   endfacet
   facet normal -1 0 0
      outer loop
         vertex -0.00021 -0.0077084 -0.00214023
         vertex -0.00021 -0.0049141 -0.00136439
         vertex -0.00021 -0.00473778 -0.0018877
      endloop
   endfacet
   facet normal -1 0 0
      outer loop
         vertex -0.00021 -0.0077084 -0.00214023
         vertex -0.00021 -0.00789461 -0.00129426
         vertex -0.00021 -0.00503282 -0.000825088
      endloop
   endfacet
   facet normal -1 0 0
      outer loop
         vertex -0.00021 -0.0049141 0.00136439
         vertex -0.00021 -0.00503282 0.000825088
         vertex -0.00021 -0.00789461 0.00129426
      endloop
   endfacet
   facet normal -1 0 0
      outer loop
         vertex -0.00021 -0.0077084 0.00214023
         vertex -0.00021 -0.00743181 0.00296111
         vertex -0.00021 -0.00473778 0.0018877
      endloop
   endfacet
   facet normal -1 0 0
      outer loop
         vertex -0.00021 -0.00350727 0.00370258
         vertex -0.00021 -0.00388703 0.00330167
         vertex -0.00021 -0.0060973 0.00517909
      endloop
   endfacet
   facet normal -1 0 0
      outer loop
         vertex -0.00021 -0.00484139 0.00636874
         vertex -0.00021 -0.00308639 0.00406007
         vertex -0.00021 -0.00350727 0.00370258
      endloop
   endfacet
   facet normal -1 0 0
      outer loop
         vertex -0.00021 -0.00412443 0.00685486
         vertex -0.00021 -0.00262932 0.00436997
         vertex -0.00021 -0.00308639 0.00406007
      endloop
   endfacet
   facet normal -1 0 0
      outer loop
         vertex -0.00021 -0.00162844 0.00483303
         vertex -0.00021 -0.00214143 0.00462863
         vertex -0.00021 -0.00335911 0.0072606
      endloop
   endfacet
   facet normal -1 0 0
      outer loop
         vertex -0.00021 0.00171976 0.00781296
         vertex -0.00021 0.00109635 0.00498076
         vertex -0.00021 0.000551407 0.0050701
      endloop
   endfacet
   facet normal -1 0 0
      outer loop
         vertex -0.00021 0.00171976 0.00781296
         vertex -0.00021 0.00255441 0.00758123
         vertex -0.00021 0.00162844 0.00483303
      endloop
   endfacet
   facet normal -1 0 0
      outer loop
         vertex -0.00021 0.00350727 0.00370258
         vertex -0.00021 0.00308639 0.00406007
         vertex -0.00021 0.00484139 0.00636874
      endloop
   endfacet
   facet normal -1 0 0
      outer loop
         vertex -0.00021 0.00450591 0.00238888
         vertex -0.00021 0.00422121 0.00286205
         vertex -0.00021 0.00662151 0.0044895
      endloop
   endfacet
   facet normal -1 0 0
      outer loop
         vertex -0.00021 0.0049141 0.00136439
         vertex -0.00021 0.00473778 0.0018877
         vertex -0.00021 0.00743181 0.00296111
      endloop
   endfacet
   facet normal -1 0 0
      outer loop
         vertex -0.00021 0.00503282 -0.000825088
         vertex -0.00021 0.00509252 -0.000276108
         vertex -0.00021 0.00798827 -0.000433111
      endloop
   endfacet
   facet normal -1 0 0
      outer loop
         vertex -0.00021 0.0070681 -0.00374727
         vertex -0.00021 0.00450591 -0.00238888
         vertex -0.00021 0.00473778 -0.0018877
      endloop
   endfacet
   facet normal -1 0 0
      outer loop
         vertex -0.00021 0.00388703 -0.00330167
         vertex -0.00021 0.00422121 -0.00286205
         vertex -0.00021 0.00662151 -0.0044895
      endloop
   endfacet
   facet normal -1 0 0
      outer loop
         vertex -0.00021 0.0060973 -0.00517909
         vertex -0.00021 0.0055016 -0.00580796
         vertex -0.00021 0.00350727 -0.00370258
      endloop
   endfacet
   facet normal -1 0 0
      outer loop
         vertex -0.00021 0.00484139 -0.00636874
         vertex -0.00021 0.00308639 -0.00406007
         vertex -0.00021 0.00350727 -0.00370258
      endloop
   endfacet
   facet normal -1 0 0
      outer loop
         vertex -0.00021 0.000551407 -0.0050701
         vertex -0.00021 0.000864952 -0.0079531
         vertex -0.00021 9.79717e-19 -0.008
      endloop
   endfacet
   facet normal -1 0 0
      outer loop
         vertex -0.00021 -0.000864952 -0.0079531
         vertex -0.00021 -0.000551407 -0.0050701
         vertex -0.00021 1.87371e-18 -0.0051
      endloop
   endfacet
   facet normal -1 0 0
      outer loop
         vertex -0.00021 -0.00171976 -0.00781296
         vertex -0.00021 -0.00109635 -0.00498076
         vertex -0.00021 -0.000551407 -0.0050701
      endloop
   endfacet
   facet normal -1 0 0
      outer loop
         vertex -0.00021 -0.00171976 -0.00781296
         vertex -0.00021 -0.00255441 -0.00758123
         vertex -0.00021 -0.00162844 -0.00483303
      endloop
   endfacet
   facet normal -1 0 0
      outer loop
         vertex -0.00021 -0.00484139 -0.00636874
         vertex -0.00021 -0.00308639 -0.00406007
         vertex -0.00021 -0.00262932 -0.00436997
      endloop
   endfacet
   facet normal -1 0 0
      outer loop
         vertex -0.00021 -0.00484139 -0.00636874
         vertex -0.00021 -0.0055016 -0.00580796
         vertex -0.00021 -0.00350727 -0.00370258
      endloop
   endfacet
   facet normal -1 0 0
      outer loop
         vertex -0.00021 -0.0055016 -0.00580796
         vertex -0.00021 -0.0060973 -0.00517909
         vertex -0.00021 -0.00388703 -0.00330167
      endloop
   endfacet
   facet normal -1 0 0
      outer loop
         vertex -0.00021 -0.0060973 -0.00517909
         vertex -0.00021 -0.00662151 -0.0044895
         vertex -0.00021 -0.00422121 -0.00286205
      endloop
   endfacet
   facet normal -1 0 0
      outer loop
         vertex -0.00021 -0.00503282 -0.000825088
         vertex -0.00021 -0.0049141 -0.00136439
         vertex -0.00021 -0.0077084 -0.00214023
      endloop
   endfacet
   facet normal -1 0 0
      outer loop
         vertex -0.00021 -0.00789461 -0.00129426
         vertex -0.00021 -0.00798827 -0.000433111
         vertex -0.00021 -0.00509252 -0.000276108
      endloop
   endfacet
   facet normal -1 0 0
      outer loop
         vertex -0.00021 -0.00473778 0.0018877
         vertex -0.00021 -0.0049141 0.00136439
         vertex -0.00021 -0.0077084 0.00214023
      endloop
   endfacet
   facet normal -1 0 0
      outer loop
         vertex -0.00021 -0.00743181 0.00296111
         vertex -0.00021 -0.0070681 0.00374727
         vertex -0.00021 -0.00450591 0.00238888
      endloop
   endfacet
   facet normal -1 0 0
      outer loop
         vertex -0.00021 -0.00350727 0.00370258
         vertex -0.00021 -0.0055016 0.00580796
         vertex -0.00021 -0.00484139 0.00636874
      endloop
   endfacet
   facet normal -1 0 0
      outer loop
         vertex -0.00021 -0.00214143 0.00462863
         vertex -0.00021 -0.00262932 0.00436997
         vertex -0.00021 -0.00412443 0.00685486
      endloop
   endfacet
   facet normal -1 0 0
      outer loop
         vertex -0.00021 0.00162844 0.00483303
         vertex -0.00021 0.00109635 0.00498076
         vertex -0.00021 0.00171976 0.00781296
      endloop
   endfacet
   facet normal -1 0 0
      outer loop
         vertex -0.00021 0.00255441 0.00758123
         vertex -0.00021 0.00335911 0.0072606
         vertex -0.00021 0.00214143 0.00462863
      endloop
   endfacet
   facet normal -1 0 0
      outer loop
         vertex -0.00021 0.00388703 0.00330167
         vertex -0.00021 0.0060973 0.00517909
         vertex -0.00021 0.00662151 0.0044895
      endloop
   endfacet
   facet normal -1 0 0
      outer loop
         vertex -0.00021 0.0049141 0.00136439
         vertex -0.00021 0.0077084 0.00214023
         vertex -0.00021 0.00789461 0.00129426
      endloop
   endfacet
   facet normal -1 0 0
      outer loop
         vertex -0.00021 0.0077084 -0.00214023
         vertex -0.00021 0.0049141 -0.00136439
         vertex -0.00021 0.00503282 -0.000825088
      endloop
   endfacet
   facet normal -1 0 0
      outer loop
         vertex -0.00021 0.0077084 -0.00214023
         vertex -0.00021 0.00743181 -0.00296111
         vertex -0.00021 0.00473778 -0.0018877
      endloop
   endfacet
   facet normal -1 0 0
      outer loop
         vertex -0.00021 0.00450591 -0.00238888
         vertex -0.00021 0.0070681 -0.00374727
         vertex -0.00021 0.00662151 -0.0044895
      endloop
   endfacet
   facet normal -1 0 0
      outer loop
         vertex -0.00021 0.00350727 -0.00370258
         vertex -0.00021 0.0055016 -0.00580796
         vertex -0.00021 0.00484139 -0.00636874
      endloop
   endfacet
   facet normal -1 0 0
      outer loop
         vertex -0.00021 0.00412443 -0.00685486
         vertex -0.00021 0.00262932 -0.00436997
         vertex -0.00021 0.00308639 -0.00406007
      endloop
   endfacet
   facet normal -1 0 0
      outer loop
         vertex -0.00021 0.00412443 -0.00685486
         vertex -0.00021 0.00335911 -0.0072606
         vertex -0.00021 0.00214143 -0.00462863
      endloop
   endfacet
   facet normal -1 0 0
      outer loop
         vertex -0.00021 1.87371e-18 -0.0051
         vertex -0.00021 9.79717e-19 -0.008
         vertex -0.00021 -0.000864952 -0.0079531
      endloop
   endfacet
   facet normal -1 0 0
      outer loop
         vertex -0.00021 -0.00162844 -0.00483303
         vertex -0.00021 -0.00109635 -0.00498076
         vertex -0.00021 -0.00171976 -0.00781296
      endloop
   endfacet
   facet normal -1 0 0
      outer loop
         vertex -0.00021 -0.00335911 -0.0072606
         vertex -0.00021 -0.00214143 -0.00462863
         vertex -0.00021 -0.00162844 -0.00483303
      endloop
   endfacet
   facet normal -1 0 0
      outer loop
         vertex -0.00021 -0.00335911 -0.0072606
         vertex -0.00021 -0.00412443 -0.00685486
         vertex -0.00021 -0.00262932 -0.00436997
      endloop
   endfacet
   facet normal -1 0 0
      outer loop
         vertex -0.00021 -0.00350727 -0.00370258
         vertex -0.00021 -0.00308639 -0.00406007
         vertex -0.00021 -0.00484139 -0.00636874
      endloop
   endfacet
   facet normal -1 0 0
      outer loop
         vertex -0.00021 -0.00422121 -0.00286205
         vertex -0.00021 -0.00388703 -0.00330167
         vertex -0.00021 -0.0060973 -0.00517909
      endloop
   endfacet
   facet normal -1 0 0
      outer loop
         vertex -0.00021 -0.0070681 -0.00374727
         vertex -0.00021 -0.00450591 -0.00238888
         vertex -0.00021 -0.00422121 -0.00286205
      endloop
   endfacet
   facet normal -1 0 0
      outer loop
         vertex -0.00021 -0.0070681 -0.00374727
         vertex -0.00021 -0.00743181 -0.00296111
         vertex -0.00021 -0.00473778 -0.0018877
      endloop
   endfacet
   facet normal -1 0 0
      outer loop
         vertex -0.00021 -0.00509252 -0.000276108
         vertex -0.00021 -0.00503282 -0.000825088
         vertex -0.00021 -0.00789461 -0.00129426
      endloop
   endfacet
   facet normal -1 0 0
      outer loop
         vertex -0.00021 -0.00798827 0.000433111
         vertex -0.00021 -0.00509252 0.000276108
         vertex -0.00021 -0.00509252 -0.000276108
      endloop
   endfacet
   facet normal -1 0 0
      outer loop
         vertex -0.00021 -0.00450591 0.00238888
         vertex -0.00021 -0.00473778 0.0018877
         vertex -0.00021 -0.00743181 0.00296111
      endloop
   endfacet
   facet normal -1 0 0
      outer loop
         vertex -0.00021 -0.0070681 0.00374727
         vertex -0.00021 -0.00662151 0.0044895
         vertex -0.00021 -0.00422121 0.00286205
      endloop
   endfacet
   facet normal -1 0 0
      outer loop
         vertex -0.00021 -0.00308639 0.00406007
         vertex -0.00021 -0.00484139 0.00636874
         vertex -0.00021 -0.00412443 0.00685486
      endloop
   endfacet
   facet normal -1 0 0
      outer loop
         vertex -0.00021 -0.00255441 0.00758123
         vertex -0.00021 -0.00171976 0.00781296
         vertex -0.00021 -0.00109635 0.00498076
      endloop
   endfacet
   facet normal -1 0 0
      outer loop
         vertex -0.00021 -0.000864952 0.0079531
         vertex -0.00021 -0.000551407 0.0050701
         vertex -0.00021 -0.00109635 0.00498076
      endloop
   endfacet
   facet normal -1 0 0
      outer loop
         vertex -0.00021 -1.95943e-18 0.008
         vertex -0.00021 0 0.0051
         vertex -0.00021 -0.000551407 0.0050701
      endloop
   endfacet
   facet normal -1 0 0
      outer loop
         vertex -0.00021 0.000864952 0.0079531
         vertex -0.00021 0.000551407 0.0050701
         vertex -0.00021 0 0.0051
      endloop
   endfacet
   facet normal -1 0 0
      outer loop
         vertex -0.00021 0.00214143 0.00462863
         vertex -0.00021 0.00162844 0.00483303
         vertex -0.00021 0.00255441 0.00758123
      endloop
   endfacet
   facet normal -1 0 0
      outer loop
         vertex -0.00021 0.00450591 0.00238888
         vertex -0.00021 0.0070681 0.00374727
         vertex -0.00021 0.00743181 0.00296111
      endloop
   endfacet
   facet normal -1 0 0
      outer loop
         vertex -0.00021 0.00473778 -0.0018877
         vertex -0.00021 0.0049141 -0.00136439
         vertex -0.00021 0.0077084 -0.00214023
      endloop
   endfacet
   facet normal -1 0 0
      outer loop
         vertex -0.00021 0.00350727 -0.00370258
         vertex -0.00021 0.00388703 -0.00330167
         vertex -0.00021 0.0060973 -0.00517909
      endloop
   endfacet
   facet normal -1 0 0
      outer loop
         vertex -0.00021 0.00214143 -0.00462863
         vertex -0.00021 0.00262932 -0.00436997
         vertex -0.00021 0.00412443 -0.00685486
      endloop
   endfacet
   facet normal -1 0 0
      outer loop
         vertex -0.00021 0.00255441 -0.00758123
         vertex -0.00021 0.00162844 -0.00483303
         vertex -0.00021 0.00214143 -0.00462863
      endloop
   endfacet
   facet normal -1 0 0
      outer loop
         vertex -0.00021 0.00255441 -0.00758123
         vertex -0.00021 0.00171976 -0.00781296
         vertex -0.00021 0.00109635 -0.00498076
      endloop
   endfacet
   facet normal -1 0 0
      outer loop
         vertex -0.00021 -0.000551407 -0.0050701
         vertex -0.00021 -0.000864952 -0.0079531
         vertex -0.00021 -0.00171976 -0.00781296
      endloop
   endfacet
   facet normal -1 0 0
      outer loop
         vertex -0.00021 -0.00262932 -0.00436997
         vertex -0.00021 -0.00214143 -0.00462863
         vertex -0.00021 -0.00335911 -0.0072606
      endloop
   endfacet
   facet normal -1 0 0
      outer loop
         vertex -0.00021 -0.00388703 -0.00330167
         vertex -0.00021 -0.00350727 -0.00370258
         vertex -0.00021 -0.0055016 -0.00580796
      endloop
   endfacet
   facet normal -1 0 0
      outer loop
         vertex -0.00021 -0.00473778 -0.0018877
         vertex -0.00021 -0.00450591 -0.00238888
         vertex -0.00021 -0.0070681 -0.00374727
      endloop
   endfacet
   facet normal -1 0 0
      outer loop
         vertex -0.00021 -0.00509252 -0.000276108
         vertex -0.00021 -0.00798827 -0.000433111
         vertex -0.00021 -0.00798827 0.000433111
      endloop
   endfacet
   facet normal -1 0 0
      outer loop
         vertex -0.00021 -0.00422121 0.00286205
         vertex -0.00021 -0.00450591 0.00238888
         vertex -0.00021 -0.0070681 0.00374727
      endloop
   endfacet
   facet normal -1 0 0
      outer loop
         vertex -0.00021 -0.00109635 0.00498076
         vertex -0.00021 -0.00162844 0.00483303
         vertex -0.00021 -0.00255441 0.00758123
      endloop
   endfacet
   facet normal -1 0 0
      outer loop
         vertex -0.00021 -0.000551407 0.0050701
         vertex -0.00021 -0.000864952 0.0079531
         vertex -0.00021 -1.95943e-18 0.008
      endloop
   endfacet
   facet normal -1 0 0
      outer loop
         vertex -0.00021 0.000551407 0.0050701
         vertex -0.00021 0.000864952 0.0079531
         vertex -0.00021 0.00171976 0.00781296
      endloop
   endfacet
   facet normal -1 0 0
      outer loop
         vertex -0.00021 0.00503282 -0.000825088
         vertex -0.00021 0.00789461 -0.00129426
         vertex -0.00021 0.0077084 -0.00214023
      endloop
   endfacet
   facet normal -1 0 0
      outer loop
         vertex -0.00021 0.00308639 -0.00406007
         vertex -0.00021 0.00484139 -0.00636874
         vertex -0.00021 0.00412443 -0.00685486
      endloop
   endfacet
   facet normal -1 0 0
      outer loop
         vertex -0.00021 0.00109635 -0.00498076
         vertex -0.00021 0.00162844 -0.00483303
         vertex -0.00021 0.00255441 -0.00758123
      endloop
   endfacet
   facet normal -1 0 0
      outer loop
         vertex -0.00021 -0.00162844 -0.00483303
         vertex -0.00021 -0.00255441 -0.00758123
         vertex -0.00021 -0.00335911 -0.0072606
      endloop
   endfacet
   facet normal -1 0 0
      outer loop
         vertex -0.00021 -0.00422121 -0.00286205
         vertex -0.00021 -0.00662151 -0.0044895
         vertex -0.00021 -0.0070681 -0.00374727
      endloop
   endfacet
   facet normal -1 0 0
      outer loop
         vertex -0.00021 -0.00509252 0.000276108
         vertex -0.00021 -0.00798827 0.000433111
         vertex -0.00021 -0.00789461 0.00129426
      endloop
   endfacet
   facet normal -1 0 0
      outer loop
         vertex -0.00021 -0.00109635 0.00498076
         vertex -0.00021 -0.00171976 0.00781296
         vertex -0.00021 -0.000864952 0.0079531
      endloop
   endfacet
   facet normal -1 0 0
      outer loop
         vertex -0.00021 0.00214143 0.00462863
         vertex -0.00021 0.00335911 0.0072606
         vertex -0.00021 0.00412443 0.00685486
      endloop
   endfacet
   facet normal -1 0 0
      outer loop
         vertex -0.00021 0.00214143 -0.00462863
         vertex -0.00021 0.00335911 -0.0072606
         vertex -0.00021 0.00255441 -0.00758123
      endloop
   endfacet
   facet normal -1 0 0
      outer loop
         vertex -0.00021 -0.00262932 -0.00436997
         vertex -0.00021 -0.00412443 -0.00685486
         vertex -0.00021 -0.00484139 -0.00636874
      endloop
   endfacet
   facet normal -1 0 0
      outer loop
         vertex -0.00021 -0.00422121 0.00286205
         vertex -0.00021 -0.00662151 0.0044895
         vertex -0.00021 -0.0060973 0.00517909
      endloop
   endfacet
   facet normal -1 0 0
      outer loop
         vertex -0.00021 0.00473778 -0.0018877
         vertex -0.00021 0.00743181 -0.00296111
         vertex -0.00021 0.0070681 -0.00374727
      endloop
   endfacet
   facet normal -1 0 0
      outer loop
         vertex -0.00021 -0.00473778 -0.0018877
         vertex -0.00021 -0.00743181 -0.00296111
         vertex -0.00021 -0.0077084 -0.00214023
      endloop
   endfacet
   facet normal -1 0 0
      outer loop
         vertex -0.00021 0.00109635 -0.00498076
         vertex -0.00021 0.00171976 -0.00781296
         vertex -0.00021 0.000864952 -0.0079531
      endloop
   endfacet
   facet normal -1 0 0
      outer loop
         vertex -0.00021 0 0.0051
         vertex -0.00021 -1.95943e-18 0.008
         vertex -0.00021 0.000864952 0.0079531
      endloop
   endfacet
   facet normal 0 0 1
      outer loop
         vertex -0.00021 -1.95943e-18 0.008
         vertex 0.00021 0 0.008
         vertex 0.00021 0.000864952 0.0079531
      endloop
   endfacet
   facet normal 0 0.108119 0.994138
      outer loop
         vertex -0.00021 0.000864952 0.0079531
         vertex 0.00021 0.000864952 0.0079531
         vertex 0.00021 0.00171976 0.00781296
      endloop
   endfacet
   facet normal 0 0.21497 0.976621
      outer loop
         vertex -0.00021 0.00171976 0.00781296
         vertex 0.00021 0.00171976 0.00781296
         vertex 0.00021 0.00255441 0.00758123
      endloop
   endfacet
   facet normal 0 0.319302 0.947653
      outer loop
         vertex -0.00021 0.00255441 0.00758123
         vertex 0.00021 0.00255441 0.00758123
         vertex 0.00021 0.00335911 0.0072606
      endloop
   endfacet
   facet normal 0 0.419889 0.907575
      outer loop
         vertex -0.00021 0.00335911 0.0072606
         vertex 0.00021 0.00335911 0.0072606
         vertex 0.00021 0.00412443 0.00685486
      endloop
   endfacet
   facet normal 0 0.515554 0.856857
      outer loop
         vertex -0.00021 0.00412443 0.00685486
         vertex 0.00021 0.00412443 0.00685486
         vertex 0.00021 0.00484139 0.00636874
      endloop
   endfacet
   facet normal 0 0.605174 0.796093
      outer loop
         vertex -0.00021 0.00484139 0.00636874
         vertex 0.00021 0.00484139 0.00636874
         vertex 0.00021 0.0055016 0.00580796
      endloop
   endfacet
   facet normal 0 0.687699 0.725995
      outer loop
         vertex -0.00021 0.0055016 0.00580796
         vertex 0.00021 0.0055016 0.00580796
         vertex 0.00021 0.0060973 0.00517909
      endloop
   endfacet
   facet normal 0 0.762162 0.647386
      outer loop
         vertex -0.00021 0.0060973 0.00517909
         vertex 0.00021 0.0060973 0.00517909
         vertex 0.00021 0.00662151 0.0044895
      endloop
   endfacet
   facet normal 0 0.827689 0.561187
      outer loop
         vertex -0.00021 0.00662151 0.0044895
         vertex 0.00021 0.00662151 0.0044895
         vertex 0.00021 0.0070681 0.00374727
      endloop
   endfacet
   facet normal 0 0.883512 0.468408
      outer loop
         vertex -0.00021 0.0070681 0.00374727
         vertex 0.00021 0.0070681 0.00374727
         vertex 0.00021 0.00743181 0.00296111
      endloop
   endfacet
   facet normal 0 0.928977 0.370138
      outer loop
         vertex -0.00021 0.00743181 0.00296111
         vertex 0.00021 0.00743181 0.00296111
         vertex 0.00021 0.0077084 0.00214023
      endloop
   endfacet
   facet normal 0 0.96355 0.267528
      outer loop
         vertex -0.00021 0.0077084 0.00214023
         vertex 0.00021 0.0077084 0.00214023
         vertex 0.00021 0.00789461 0.00129426
      endloop
   endfacet
   facet normal 0 0.986827 0.161782
      outer loop
         vertex -0.00021 0.00789461 0.00129426
         vertex 0.00021 0.00789461 0.00129426
         vertex 0.00021 0.00798827 0.000433111
      endloop
   endfacet
   facet normal 0 0.998533 0.0541389
      outer loop
         vertex -0.00021 0.00798827 0.000433111
         vertex 0.00021 0.00798827 0.000433111
         vertex 0.00021 0.00798827 -0.000433111
      endloop
   endfacet
   facet normal 0 0.998533 -0.0541389
      outer loop
         vertex -0.00021 0.00798827 -0.000433111
         vertex 0.00021 0.00798827 -0.000433111
         vertex 0.00021 0.00789461 -0.00129426
      endloop
   endfacet
   facet normal 0 0.986827 -0.161782
      outer loop
         vertex -0.00021 0.00789461 -0.00129426
         vertex 0.00021 0.00789461 -0.00129426
         vertex 0.00021 0.0077084 -0.00214023
      endloop
   endfacet
   facet normal 0 0.96355 -0.267528
      outer loop
         vertex -0.00021 0.0077084 -0.00214023
         vertex 0.00021 0.0077084 -0.00214023
         vertex 0.00021 0.00743181 -0.00296111
      endloop
   endfacet
   facet normal 0 0.928977 -0.370138
      outer loop
         vertex -0.00021 0.00743181 -0.00296111
         vertex 0.00021 0.00743181 -0.00296111
         vertex 0.00021 0.0070681 -0.00374727
      endloop
   endfacet
   facet normal 0 0.883512 -0.468408
      outer loop
         vertex -0.00021 0.0070681 -0.00374727
         vertex 0.00021 0.0070681 -0.00374727
         vertex 0.00021 0.00662151 -0.0044895
      endloop
   endfacet
   facet normal 0 0.827689 -0.561187
      outer loop
         vertex -0.00021 0.00662151 -0.0044895
         vertex 0.00021 0.00662151 -0.0044895
         vertex 0.00021 0.0060973 -0.00517909
      endloop
   endfacet
   facet normal 0 0.762162 -0.647386
      outer loop
         vertex -0.00021 0.0060973 -0.00517909
         vertex 0.00021 0.0060973 -0.00517909
         vertex 0.00021 0.0055016 -0.00580796
      endloop
   endfacet
   facet normal 0 0.687699 -0.725995
      outer loop
         vertex -0.00021 0.0055016 -0.00580796
         vertex 0.00021 0.0055016 -0.00580796
         vertex 0.00021 0.00484139 -0.00636874
      endloop
   endfacet
   facet normal 0 0.605174 -0.796093
      outer loop
         vertex -0.00021 0.00484139 -0.00636874
         vertex 0.00021 0.00484139 -0.00636874
         vertex 0.00021 0.00412443 -0.00685486
      endloop
   endfacet
   facet normal 0 0.515554 -0.856857
      outer loop
         vertex -0.00021 0.00412443 -0.00685486
         vertex 0.00021 0.00412443 -0.00685486
         vertex 0.00021 0.00335911 -0.0072606
      endloop
   endfacet
   facet normal 0 0.419889 -0.907575
      outer loop
         vertex -0.00021 0.00335911 -0.0072606
         vertex 0.00021 0.00335911 -0.0072606
         vertex 0.00021 0.00255441 -0.00758123
      endloop
   endfacet
   facet normal 0 0.319302 -0.947653
      outer loop
         vertex -0.00021 0.00255441 -0.00758123
         vertex 0.00021 0.00255441 -0.00758123
         vertex 0.00021 0.00171976 -0.00781296
      endloop
   endfacet
   facet normal 0 0.21497 -0.976621
      outer loop
         vertex -0.00021 0.00171976 -0.00781296
         vertex 0.00021 0.00171976 -0.00781296
         vertex 0.00021 0.000864952 -0.0079531
      endloop
   endfacet
   facet normal 0 0.108119 -0.994138
      outer loop
         vertex -0.00021 0.000864952 -0.0079531
         vertex 0.00021 0.000864952 -0.0079531
         vertex 0.00021 2.93915e-18 -0.008
      endloop
   endfacet
   facet normal 0 1.22465e-16 -1
      outer loop
         vertex -0.00021 9.79717e-19 -0.008
         vertex 0.00021 2.93915e-18 -0.008
         vertex 0.00021 -0.000864952 -0.0079531
      endloop
   endfacet
   facet normal 0 -0.108119 -0.994138
      outer loop
         vertex -0.00021 -0.000864952 -0.0079531
         vertex 0.00021 -0.000864952 -0.0079531
         vertex 0.00021 -0.00171976 -0.00781296
      endloop
   endfacet
   facet normal 0 -0.21497 -0.976621
      outer loop
         vertex -0.00021 -0.00171976 -0.00781296
         vertex 0.00021 -0.00171976 -0.00781296
         vertex 0.00021 -0.00255441 -0.00758123
      endloop
   endfacet
   facet normal 0 -0.319302 -0.947653
      outer loop
         vertex -0.00021 -0.00255441 -0.00758123
         vertex 0.00021 -0.00255441 -0.00758123
         vertex 0.00021 -0.00335911 -0.0072606
      endloop
   endfacet
   facet normal 0 -0.419889 -0.907575
      outer loop
         vertex -0.00021 -0.00335911 -0.0072606
         vertex 0.00021 -0.00335911 -0.0072606
         vertex 0.00021 -0.00412443 -0.00685486
      endloop
   endfacet
   facet normal 0 -0.515554 -0.856857
      outer loop
         vertex -0.00021 -0.00412443 -0.00685486
         vertex 0.00021 -0.00412443 -0.00685486
         vertex 0.00021 -0.00484139 -0.00636874
      endloop
   endfacet
   facet normal 0 -0.605174 -0.796093
      outer loop
         vertex -0.00021 -0.00484139 -0.00636874
         vertex 0.00021 -0.00484139 -0.00636874
         vertex 0.00021 -0.0055016 -0.00580796
      endloop
   endfacet
   facet normal 0 -0.687699 -0.725995
      outer loop
         vertex -0.00021 -0.0055016 -0.00580796
         vertex 0.00021 -0.0055016 -0.00580796
         vertex 0.00021 -0.0060973 -0.00517909
      endloop
   endfacet
   facet normal 0 -0.762162 -0.647386
      outer loop
         vertex -0.00021 -0.0060973 -0.00517909
         vertex 0.00021 -0.0060973 -0.00517909
         vertex 0.00021 -0.00662151 -0.0044895
      endloop
   endfacet
   facet normal 0 -0.827689 -0.561187
      outer loop
         vertex -0.00021 -0.00662151 -0.0044895
         vertex 0.00021 -0.00662151 -0.0044895
         vertex 0.00021 -0.0070681 -0.00374727
      endloop
   endfacet
   facet normal 0 -0.883512 -0.468408
      outer loop
         vertex -0.00021 -0.0070681 -0.00374727
         vertex 0.00021 -0.0070681 -0.00374727
         vertex 0.00021 -0.00743181 -0.00296111
      endloop
   endfacet
   facet normal 0 -0.928977 -0.370138
      outer loop
         vertex -0.00021 -0.00743181 -0.00296111
         vertex 0.00021 -0.00743181 -0.00296111
         vertex 0.00021 -0.0077084 -0.00214023
      endloop
   endfacet
   facet normal 0 -0.96355 -0.267528
      outer loop
         vertex -0.00021 -0.0077084 -0.00214023
         vertex 0.00021 -0.0077084 -0.00214023
         vertex 0.00021 -0.00789461 -0.00129426
      endloop
   endfacet
   facet normal 0 -0.986827 -0.161782
      outer loop
         vertex -0.00021 -0.00789461 -0.00129426
         vertex 0.00021 -0.00789461 -0.00129426
         vertex 0.00021 -0.00798827 -0.000433111
      endloop
   endfacet
   facet normal 0 -0.998533 -0.0541389
      outer loop
         vertex -0.00021 -0.00798827 -0.000433111
         vertex 0.00021 -0.00798827 -0.000433111
         vertex 0.00021 -0.00798827 0.000433111
      endloop
   endfacet
   facet normal 0 -0.998533 0.0541389
      outer loop
         vertex -0.00021 -0.00798827 0.000433111
         vertex 0.00021 -0.00798827 0.000433111
         vertex 0.00021 -0.00789461 0.00129426
      endloop
   endfacet
   facet normal 0 -0.986827 0.161782
      outer loop
         vertex -0.00021 -0.00789461 0.00129426
         vertex 0.00021 -0.00789461 0.00129426
         vertex 0.00021 -0.0077084 0.00214023
      endloop
   endfacet
   facet normal 0 -0.96355 0.267528
      outer loop
         vertex -0.00021 -0.0077084 0.00214023
         vertex 0.00021 -0.0077084 0.00214023
         vertex 0.00021 -0.00743181 0.00296111
      endloop
   endfacet
   facet normal 0 -0.928977 0.370138
      outer loop
         vertex -0.00021 -0.00743181 0.00296111
         vertex 0.00021 -0.00743181 0.00296111
         vertex 0.00021 -0.0070681 0.00374727
      endloop
   endfacet
   facet normal 0 -0.883512 0.468408
      outer loop
         vertex -0.00021 -0.0070681 0.00374727
         vertex 0.00021 -0.0070681 0.00374727
         vertex 0.00021 -0.00662151 0.0044895
      endloop
   endfacet
   facet normal 0 -0.827689 0.561187
      outer loop
         vertex -0.00021 -0.00662151 0.0044895
         vertex 0.00021 -0.00662151 0.0044895
         vertex 0.00021 -0.0060973 0.00517909
      endloop
   endfacet
   facet normal 0 -0.762162 0.647386
      outer loop
         vertex -0.00021 -0.0060973 0.00517909
         vertex 0.00021 -0.0060973 0.00517909
         vertex 0.00021 -0.0055016 0.00580796
      endloop
   endfacet
   facet normal 0 -0.687699 0.725995
      outer loop
         vertex -0.00021 -0.0055016 0.00580796
         vertex 0.00021 -0.0055016 0.00580796
         vertex 0.00021 -0.00484139 0.00636874
      endloop
   endfacet
   facet normal 0 -0.605174 0.796093
      outer loop
         vertex -0.00021 -0.00484139 0.00636874
         vertex 0.00021 -0.00484139 0.00636874
         vertex 0.00021 -0.00412443 0.00685486
      endloop
   endfacet
   facet normal 0 -0.515554 0.856857
      outer loop
         vertex -0.00021 -0.00412443 0.00685486
         vertex 0.00021 -0.00412443 0.00685486
         vertex 0.00021 -0.00335911 0.0072606
      endloop
   endfacet
   facet normal 0 -0.419889 0.907575
      outer loop
         vertex -0.00021 -0.00335911 0.0072606
         vertex 0.00021 -0.00335911 0.0072606
         vertex 0.00021 -0.00255441 0.00758123
      endloop
   endfacet
   facet normal 0 -0.319302 0.947653
      outer loop
         vertex -0.00021 -0.00255441 0.00758123
         vertex 0.00021 -0.00255441 0.00758123
         vertex 0.00021 -0.00171976 0.00781296
      endloop
   endfacet
   facet normal 0 -0.21497 0.976621
      outer loop
         vertex -0.00021 -0.00171976 0.00781296
         vertex 0.00021 -0.00171976 0.00781296
         vertex 0.00021 -0.000864952 0.0079531
      endloop
   endfacet
   facet normal 0 -0.108119 0.994138
      outer loop
         vertex -0.00021 -0.000864952 0.0079531
         vertex 0.00021 -0.000864952 0.0079531
         vertex 0.00021 0 0.008
      endloop
   endfacet
   facet normal 0 0 1
      outer loop
         vertex 0.00021 0 0.008
         vertex -0.00021 -1.95943e-18 0.008
         vertex -0.00021 -0.000864952 0.0079531
      endloop
   endfacet
   facet normal 0 -0.108119 0.994138
      outer loop
         vertex 0.00021 -0.000864952 0.0079531
         vertex -0.00021 -0.000864952 0.0079531
         vertex -0.00021 -0.00171976 0.00781296
      endloop
   endfacet
   facet normal 0 -0.21497 0.976621
      outer loop
         vertex 0.00021 -0.00171976 0.00781296
         vertex -0.00021 -0.00171976 0.00781296
         vertex -0.00021 -0.00255441 0.00758123
      endloop
   endfacet
   facet normal 0 -0.319302 0.947653
      outer loop
         vertex 0.00021 -0.00255441 0.00758123
         vertex -0.00021 -0.00255441 0.00758123
         vertex -0.00021 -0.00335911 0.0072606
      endloop
   endfacet
   facet normal 0 -0.419889 0.907575
      outer loop
         vertex 0.00021 -0.00335911 0.0072606
         vertex -0.00021 -0.00335911 0.0072606
         vertex -0.00021 -0.00412443 0.00685486
      endloop
   endfacet
   facet normal 0 -0.515554 0.856857
      outer loop
         vertex 0.00021 -0.00412443 0.00685486
         vertex -0.00021 -0.00412443 0.00685486
         vertex -0.00021 -0.00484139 0.00636874
      endloop
   endfacet
   facet normal 0 -0.605174 0.796093
      outer loop
         vertex 0.00021 -0.00484139 0.00636874
         vertex -0.00021 -0.00484139 0.00636874
         vertex -0.00021 -0.0055016 0.00580796
      endloop
   endfacet
   facet normal 0 -0.687699 0.725995
      outer loop
         vertex 0.00021 -0.0055016 0.00580796
         vertex -0.00021 -0.0055016 0.00580796
         vertex -0.00021 -0.0060973 0.00517909
      endloop
   endfacet
   facet normal 0 -0.762162 0.647386
      outer loop
         vertex 0.00021 -0.0060973 0.00517909
         vertex -0.00021 -0.0060973 0.00517909
         vertex -0.00021 -0.00662151 0.0044895
      endloop
   endfacet
   facet normal 0 -0.827689 0.561187
      outer loop
         vertex 0.00021 -0.00662151 0.0044895
         vertex -0.00021 -0.00662151 0.0044895
         vertex -0.00021 -0.0070681 0.00374727
      endloop
   endfacet
   facet normal 0 -0.883512 0.468408
      outer loop
         vertex 0.00021 -0.0070681 0.00374727
         vertex -0.00021 -0.0070681 0.00374727
         vertex -0.00021 -0.00743181 0.00296111
      endloop
   endfacet
   facet normal 0 -0.928977 0.370138
      outer loop
         vertex 0.00021 -0.00743181 0.00296111
         vertex -0.00021 -0.00743181 0.00296111
         vertex -0.00021 -0.0077084 0.00214023
      endloop
   endfacet
   facet normal 0 -0.96355 0.267528
      outer loop
         vertex 0.00021 -0.0077084 0.00214023
         vertex -0.00021 -0.0077084 0.00214023
         vertex -0.00021 -0.00789461 0.00129426
      endloop
   endfacet
   facet normal 0 -0.986827 0.161782
      outer loop
         vertex 0.00021 -0.00789461 0.00129426
         vertex -0.00021 -0.00789461 0.00129426
         vertex -0.00021 -0.00798827 0.000433111
      endloop
   endfacet
   facet normal 0 -0.998533 0.0541389
      outer loop
         vertex 0.00021 -0.00798827 0.000433111
         vertex -0.00021 -0.00798827 0.000433111
         vertex -0.00021 -0.00798827 -0.000433111
      endloop
   endfacet
   facet normal 0 -0.998533 -0.0541389
      outer loop
         vertex 0.00021 -0.00798827 -0.000433111
         vertex -0.00021 -0.00798827 -0.000433111
         vertex -0.00021 -0.00789461 -0.00129426
      endloop
   endfacet
   facet normal 0 -0.986827 -0.161782
      outer loop
         vertex 0.00021 -0.00789461 -0.00129426
         vertex -0.00021 -0.00789461 -0.00129426
         vertex -0.00021 -0.0077084 -0.00214023
      endloop
   endfacet
   facet normal 0 -0.96355 -0.267528
      outer loop
         vertex 0.00021 -0.0077084 -0.00214023
         vertex -0.00021 -0.0077084 -0.00214023
         vertex -0.00021 -0.00743181 -0.00296111
      endloop
   endfacet
   facet normal 0 -0.928977 -0.370138
      outer loop
         vertex 0.00021 -0.00743181 -0.00296111
         vertex -0.00021 -0.00743181 -0.00296111
         vertex -0.00021 -0.0070681 -0.00374727
      endloop
   endfacet
   facet normal 0 -0.883512 -0.468408
      outer loop
         vertex 0.00021 -0.0070681 -0.00374727
         vertex -0.00021 -0.0070681 -0.00374727
         vertex -0.00021 -0.00662151 -0.0044895
      endloop
   endfacet
   facet normal 0 -0.827689 -0.561187
      outer loop
         vertex 0.00021 -0.00662151 -0.0044895
         vertex -0.00021 -0.00662151 -0.0044895
         vertex -0.00021 -0.0060973 -0.00517909
      endloop
   endfacet
   facet normal 0 -0.762162 -0.647386
      outer loop
         vertex 0.00021 -0.0060973 -0.00517909
         vertex -0.00021 -0.0060973 -0.00517909
         vertex -0.00021 -0.0055016 -0.00580796
      endloop
   endfacet
   facet normal 0 -0.687699 -0.725995
      outer loop
         vertex 0.00021 -0.0055016 -0.00580796
         vertex -0.00021 -0.0055016 -0.00580796
         vertex -0.00021 -0.00484139 -0.00636874
      endloop
   endfacet
   facet normal 0 -0.605174 -0.796093
      outer loop
         vertex 0.00021 -0.00484139 -0.00636874
         vertex -0.00021 -0.00484139 -0.00636874
         vertex -0.00021 -0.00412443 -0.00685486
      endloop
   endfacet
   facet normal 0 -0.515554 -0.856857
      outer loop
         vertex 0.00021 -0.00412443 -0.00685486
         vertex -0.00021 -0.00412443 -0.00685486
         vertex -0.00021 -0.00335911 -0.0072606
      endloop
   endfacet
   facet normal 0 -0.419889 -0.907575
      outer loop
         vertex 0.00021 -0.00335911 -0.0072606
         vertex -0.00021 -0.00335911 -0.0072606
         vertex -0.00021 -0.00255441 -0.00758123
      endloop
   endfacet
   facet normal 0 -0.319302 -0.947653
      outer loop
         vertex 0.00021 -0.00255441 -0.00758123
         vertex -0.00021 -0.00255441 -0.00758123
         vertex -0.00021 -0.00171976 -0.00781296
      endloop
   endfacet
   facet normal 0 -0.21497 -0.976621
      outer loop
         vertex 0.00021 -0.00171976 -0.00781296
         vertex -0.00021 -0.00171976 -0.00781296
         vertex -0.00021 -0.000864952 -0.0079531
      endloop
   endfacet
   facet normal 0 -0.108119 -0.994138
      outer loop
         vertex 0.00021 -0.000864952 -0.0079531
         vertex -0.00021 -0.000864952 -0.0079531
         vertex -0.00021 9.79717e-19 -0.008
      endloop
   endfacet
   facet normal 0 1.22465e-16 -1
      outer loop
         vertex 0.00021 2.93915e-18 -0.008
         vertex -0.00021 9.79717e-19 -0.008
         vertex -0.00021 0.000864952 -0.0079531
      endloop
   endfacet
   facet normal 0 0.108119 -0.994138
      outer loop
         vertex 0.00021 0.000864952 -0.0079531
         vertex -0.00021 0.000864952 -0.0079531
         vertex -0.00021 0.00171976 -0.00781296
      endloop
   endfacet
   facet normal 0 0.21497 -0.976621
      outer loop
         vertex 0.00021 0.00171976 -0.00781296
         vertex -0.00021 0.00171976 -0.00781296
         vertex -0.00021 0.00255441 -0.00758123
      endloop
   endfacet
   facet normal 0 0.319302 -0.947653
      outer loop
         vertex 0.00021 0.00255441 -0.00758123
         vertex -0.00021 0.00255441 -0.00758123
         vertex -0.00021 0.00335911 -0.0072606
      endloop
   endfacet
   facet normal 0 0.419889 -0.907575
      outer loop
         vertex 0.00021 0.00335911 -0.0072606
         vertex -0.00021 0.00335911 -0.0072606
         vertex -0.00021 0.00412443 -0.00685486
      endloop
   endfacet
   facet normal 0 0.515554 -0.856857
      outer loop
         vertex 0.00021 0.00412443 -0.00685486
         vertex -0.00021 0.00412443 -0.00685486
         vertex -0.00021 0.00484139 -0.00636874
      endloop
   endfacet
   facet normal 0 0.605174 -0.796093
      outer loop
         vertex 0.00021 0.00484139 -0.00636874
         vertex -0.00021 0.00484139 -0.00636874
         vertex -0.00021 0.0055016 -0.00580796
      endloop
   endfacet
   facet normal 0 0.687699 -0.725995
      outer loop
         vertex 0.00021 0.0055016 -0.00580796
         vertex -0.00021 0.0055016 -0.00580796
         vertex -0.00021 0.0060973 -0.00517909
      endloop
   endfacet
   facet normal 0 0.762162 -0.647386
      outer loop
         vertex 0.00021 0.0060973 -0.00517909
         vertex -0.00021 0.0060973 -0.00517909
         vertex -0.00021 0.00662151 -0.0044895
      endloop
   endfacet
   facet normal 0 0.827689 -0.561187
      outer loop
         vertex 0.00021 0.00662151 -0.0044895
         vertex -0.00021 0.00662151 -0.0044895
         vertex -0.00021 0.0070681 -0.00374727
      endloop
   endfacet
   facet normal 0 0.883512 -0.468408
      outer loop
         vertex 0.00021 0.0070681 -0.00374727
         vertex -0.00021 0.0070681 -0.00374727
         vertex -0.00021 0.00743181 -0.00296111
      endloop
   endfacet
   facet normal 0 0.928977 -0.370138
      outer loop
         vertex 0.00021 0.00743181 -0.00296111
         vertex -0.00021 0.00743181 -0.00296111
         vertex -0.00021 0.0077084 -0.00214023
      endloop
   endfacet
   facet normal 0 0.96355 -0.267528
      outer loop
         vertex 0.00021 0.0077084 -0.00214023
         vertex -0.00021 0.0077084 -0.00214023
         vertex -0.00021 0.00789461 -0.00129426
      endloop
   endfacet
   facet normal 0 0.986827 -0.161782
      outer loop
         vertex 0.00021 0.00789461 -0.00129426
         vertex -0.00021 0.00789461 -0.00129426
         vertex -0.00021 0.00798827 -0.000433111
      endloop
   endfacet
   facet normal 0 0.998533 -0.0541389
      outer loop
         vertex 0.00021 0.00798827 -0.000433111
         vertex -0.00021 0.00798827 -0.000433111
         vertex -0.00021 0.00798827 0.000433111
      endloop
   endfacet
   facet normal 0 0.998533 0.0541389
      outer loop
         vertex 0.00021 0.00798827 0.000433111
         vertex -0.00021 0.00798827 0.000433111
         vertex -0.00021 0.00789461 0.00129426
      endloop
   endfacet
   facet normal 0 0.986827 0.161782
      outer loop
         vertex 0.00021 0.00789461 0.00129426
         vertex -0.00021 0.00789461 0.00129426
         vertex -0.00021 0.0077084 0.00214023
      endloop
   endfacet
   facet normal 0 0.96355 0.267528
      outer loop
         vertex 0.00021 0.0077084 0.00214023
         vertex -0.00021 0.0077084 0.00214023
         vertex -0.00021 0.00743181 0.00296111
      endloop
   endfacet
   facet normal 0 0.928977 0.370138
      outer loop
         vertex 0.00021 0.00743181 0.00296111
         vertex -0.00021 0.00743181 0.00296111
         vertex -0.00021 0.0070681 0.00374727
      endloop
   endfacet
   facet normal 0 0.883512 0.468408
      outer loop
         vertex 0.00021 0.0070681 0.00374727
         vertex -0.00021 0.0070681 0.00374727
         vertex -0.00021 0.00662151 0.0044895
      endloop
   endfacet
   facet normal 0 0.827689 0.561187
      outer loop
         vertex 0.00021 0.00662151 0.0044895
         vertex -0.00021 0.00662151 0.0044895
         vertex -0.00021 0.0060973 0.00517909
      endloop
   endfacet
   facet normal 0 0.762162 0.647386
      outer loop
         vertex 0.00021 0.0060973 0.00517909
         vertex -0.00021 0.0060973 0.00517909
         vertex -0.00021 0.0055016 0.00580796
      endloop
   endfacet
   facet normal 0 0.687699 0.725995
      outer loop
         vertex 0.00021 0.0055016 0.00580796
         vertex -0.00021 0.0055016 0.00580796
         vertex -0.00021 0.00484139 0.00636874
      endloop
   endfacet
   facet normal 0 0.605174 0.796093
      outer loop
         vertex 0.00021 0.00484139 0.00636874
         vertex -0.00021 0.00484139 0.00636874
         vertex -0.00021 0.00412443 0.00685486
      endloop
   endfacet
   facet normal 0 0.515554 0.856857
      outer loop
         vertex 0.00021 0.00412443 0.00685486
         vertex -0.00021 0.00412443 0.00685486
         vertex -0.00021 0.00335911 0.0072606
      endloop
   endfacet
   facet normal 0 0.419889 0.907575
      outer loop
         vertex 0.00021 0.00335911 0.0072606
         vertex -0.00021 0.00335911 0.0072606
         vertex -0.00021 0.00255441 0.00758123
      endloop
   endfacet
   facet normal 0 0.319302 0.947653
      outer loop
         vertex 0.00021 0.00255441 0.00758123
         vertex -0.00021 0.00255441 0.00758123
         vertex -0.00021 0.00171976 0.00781296
      endloop
   endfacet
   facet normal 0 0.21497 0.976621
      outer loop
         vertex 0.00021 0.00171976 0.00781296
         vertex -0.00021 0.00171976 0.00781296
         vertex -0.00021 0.000864952 0.0079531
      endloop
   endfacet
   facet normal 0 0.108119 0.994138
      outer loop
         vertex 0.00021 0.000864952 0.0079531
         vertex -0.00021 0.000864952 0.0079531
         vertex -0.00021 -1.95943e-18 0.008
      endloop
   endfacet
   facet normal 1 0 0
      outer loop
         vertex 0.00021 0.00171976 0.00781296
         vertex 0.00021 0.00109635 0.00498076
         vertex 0.00021 0.00162844 0.00483303
      endloop
   endfacet
   facet normal 1 0 0
      outer loop
         vertex 0.00021 0.00171976 0.00781296
         vertex 0.00021 0.000864952 0.0079531
         vertex 0.00021 0.000551407 0.0050701
      endloop
   endfacet
   facet normal 1 0 0
      outer loop
         vertex 0.00021 0 0.008
         vertex 0.00021 0 0.0051
         vertex 0.00021 0.000551407 0.0050701
      endloop
   endfacet
   facet normal 1 0 0
      outer loop
         vertex 0.00021 -0.000864952 0.0079531
         vertex 0.00021 -0.000551407 0.0050701
         vertex 0.00021 0 0.0051
      endloop
   endfacet
   facet normal 1 0 0
      outer loop
         vertex 0.00021 0.00255441 0.00758123
         vertex 0.00021 0.00162844 0.00483303
         vertex 0.00021 0.00214143 0.00462863
      endloop
   endfacet
   facet normal 1 0 0
      outer loop
         vertex 0.00021 0.000551407 0.0050701
         vertex 0.00021 0.00109635 0.00498076
         vertex 0.00021 0.00171976 0.00781296
      endloop
   endfacet
   facet normal 1 0 0
      outer loop
         vertex 0.00021 0 0.0051
         vertex 0.00021 0 0.008
         vertex 0.00021 -0.000864952 0.0079531
      endloop
   endfacet
   facet normal 1 0 0
      outer loop
         vertex 0.00021 -0.000864952 0.0079531
         vertex 0.00021 -0.00171976 0.00781296
         vertex 0.00021 -0.00109635 0.00498076
      endloop
   endfacet
   facet normal 1 0 0
      outer loop
         vertex 0.00021 0.00162844 0.00483303
         vertex 0.00021 0.00255441 0.00758123
         vertex 0.00021 0.00171976 0.00781296
      endloop
   endfacet
   facet normal 1 0 0
      outer loop
         vertex 0.00021 -0.00109635 0.00498076
         vertex 0.00021 -0.000551407 0.0050701
         vertex 0.00021 -0.000864952 0.0079531
      endloop
   endfacet
   facet normal 1 0 0
      outer loop
         vertex 0.00021 -0.00335911 0.0072606
         vertex 0.00021 -0.00214143 0.00462863
         vertex 0.00021 -0.00162844 0.00483303
      endloop
   endfacet
   facet normal 1 0 0
      outer loop
         vertex 0.00021 -0.00412443 0.00685486
         vertex 0.00021 -0.00262932 0.00436997
         vertex 0.00021 -0.00214143 0.00462863
      endloop
   endfacet
   facet normal 1 0 0
      outer loop
         vertex 0.00021 -0.0077084 0.00214023
         vertex 0.00021 -0.0049141 0.00136439
         vertex 0.00021 -0.00473778 0.0018877
      endloop
   endfacet
   facet normal 1 0 0
      outer loop
         vertex 0.00021 -0.0077084 0.00214023
         vertex 0.00021 -0.00789461 0.00129426
         vertex 0.00021 -0.00503282 0.000825088
      endloop
   endfacet
   facet normal 1 0 0
      outer loop
         vertex 0.00021 0.00798827 -0.000433111
         vertex 0.00021 0.00509252 -0.000276108
         vertex 0.00021 0.00503282 -0.000825088
      endloop
   endfacet
   facet normal 1 0 0
      outer loop
         vertex 0.00021 0.00798827 -0.000433111
         vertex 0.00021 0.00798827 0.000433111
         vertex 0.00021 0.00509252 0.000276108
      endloop
   endfacet
   facet normal 1 0 0
      outer loop
         vertex 0.00021 0.000551407 0.0050701
         vertex 0.00021 0.000864952 0.0079531
         vertex 0.00021 0 0.008
      endloop
   endfacet
   facet normal 1 0 0
      outer loop
         vertex 0.00021 -0.00255441 0.00758123
         vertex 0.00021 -0.00162844 0.00483303
         vertex 0.00021 -0.00109635 0.00498076
      endloop
   endfacet
   facet normal 1 0 0
      outer loop
         vertex 0.00021 -0.00214143 0.00462863
         vertex 0.00021 -0.00335911 0.0072606
         vertex 0.00021 -0.00412443 0.00685486
      endloop
   endfacet
   facet normal 1 0 0
      outer loop
         vertex 0.00021 -0.00412443 0.00685486
         vertex 0.00021 -0.00484139 0.00636874
         vertex 0.00021 -0.00308639 0.00406007
      endloop
   endfacet
   facet normal 1 0 0
      outer loop
         vertex 0.00021 -0.00503282 0.000825088
         vertex 0.00021 -0.0049141 0.00136439
         vertex 0.00021 -0.0077084 0.00214023
      endloop
   endfacet
   facet normal 1 0 0
      outer loop
         vertex 0.00021 -0.00789461 0.00129426
         vertex 0.00021 -0.00798827 0.000433111
         vertex 0.00021 -0.00509252 0.000276108
      endloop
   endfacet
   facet normal 1 0 0
      outer loop
         vertex 0.00021 0.00484139 -0.00636874
         vertex 0.00021 0.0055016 -0.00580796
         vertex 0.00021 0.00350727 -0.00370258
      endloop
   endfacet
   facet normal 1 0 0
      outer loop
         vertex 0.00021 0.0060973 -0.00517909
         vertex 0.00021 0.00388703 -0.00330167
         vertex 0.00021 0.00350727 -0.00370258
      endloop
   endfacet
   facet normal 1 0 0
      outer loop
         vertex 0.00021 0.00662151 -0.0044895
         vertex 0.00021 0.00422121 -0.00286205
         vertex 0.00021 0.00388703 -0.00330167
      endloop
   endfacet
   facet normal 1 0 0
      outer loop
         vertex 0.00021 0.00662151 -0.0044895
         vertex 0.00021 0.0070681 -0.00374727
         vertex 0.00021 0.00450591 -0.00238888
      endloop
   endfacet
   facet normal 1 0 0
      outer loop
         vertex 0.00021 0.00509252 0.000276108
         vertex 0.00021 0.00509252 -0.000276108
         vertex 0.00021 0.00798827 -0.000433111
      endloop
   endfacet
   facet normal 1 0 0
      outer loop
         vertex 0.00021 0.00798827 0.000433111
         vertex 0.00021 0.00789461 0.00129426
         vertex 0.00021 0.00503282 0.000825088
      endloop
   endfacet
   facet normal 1 0 0
      outer loop
         vertex 0.00021 -0.00109635 0.00498076
         vertex 0.00021 -0.00171976 0.00781296
         vertex 0.00021 -0.00255441 0.00758123
      endloop
   endfacet
   facet normal 1 0 0
      outer loop
         vertex 0.00021 -0.00308639 0.00406007
         vertex 0.00021 -0.00262932 0.00436997
         vertex 0.00021 -0.00412443 0.00685486
      endloop
   endfacet
   facet normal 1 0 0
      outer loop
         vertex 0.00021 -0.00743181 0.00296111
         vertex 0.00021 -0.00473778 0.0018877
         vertex 0.00021 -0.00450591 0.00238888
      endloop
   endfacet
   facet normal 1 0 0
      outer loop
         vertex 0.00021 -0.00509252 0.000276108
         vertex 0.00021 -0.00503282 0.000825088
         vertex 0.00021 -0.00789461 0.00129426
      endloop
   endfacet
   facet normal 1 0 0
      outer loop
         vertex 0.00021 -0.00798827 0.000433111
         vertex 0.00021 -0.00798827 -0.000433111
         vertex 0.00021 -0.00509252 -0.000276108
      endloop
   endfacet
   facet normal 1 0 0
      outer loop
         vertex 0.00021 -0.00798827 -0.000433111
         vertex 0.00021 -0.00789461 -0.00129426
         vertex 0.00021 -0.00503282 -0.000825088
      endloop
   endfacet
   facet normal 1 0 0
      outer loop
         vertex 0.00021 -0.0077084 -0.00214023
         vertex 0.00021 -0.0049141 -0.00136439
         vertex 0.00021 -0.00503282 -0.000825088
      endloop
   endfacet
   facet normal 1 0 0
      outer loop
         vertex 0.00021 -0.0077084 -0.00214023
         vertex 0.00021 -0.00743181 -0.00296111
         vertex 0.00021 -0.00473778 -0.0018877
      endloop
   endfacet
   facet normal 1 0 0
      outer loop
         vertex 0.00021 0.00255441 -0.00758123
         vertex 0.00021 0.00162844 -0.00483303
         vertex 0.00021 0.00109635 -0.00498076
      endloop
   endfacet
   facet normal 1 0 0
      outer loop
         vertex 0.00021 0.00255441 -0.00758123
         vertex 0.00021 0.00335911 -0.0072606
         vertex 0.00021 0.00214143 -0.00462863
      endloop
   endfacet
   facet normal 1 0 0
      outer loop
         vertex 0.00021 0.00412443 -0.00685486
         vertex 0.00021 0.00262932 -0.00436997
         vertex 0.00021 0.00214143 -0.00462863
      endloop
   endfacet
   facet normal 1 0 0
      outer loop
         vertex 0.00021 0.00412443 -0.00685486
         vertex 0.00021 0.00484139 -0.00636874
         vertex 0.00021 0.00308639 -0.00406007
      endloop
   endfacet
   facet normal 1 0 0
      outer loop
         vertex 0.00021 0.00350727 -0.00370258
         vertex 0.00021 0.0055016 -0.00580796
         vertex 0.00021 0.0060973 -0.00517909
      endloop
   endfacet
   facet normal 1 0 0
      outer loop
         vertex 0.00021 0.00450591 -0.00238888
         vertex 0.00021 0.00422121 -0.00286205
         vertex 0.00021 0.00662151 -0.0044895
      endloop
   endfacet
   facet normal 1 0 0
      outer loop
         vertex 0.00021 0.00503282 0.000825088
         vertex 0.00021 0.00509252 0.000276108
         vertex 0.00021 0.00798827 0.000433111
      endloop
   endfacet
   facet normal 1 0 0
      outer loop
         vertex 0.00021 0.00789461 0.00129426
         vertex 0.00021 0.0077084 0.00214023
         vertex 0.00021 0.0049141 0.00136439
      endloop
   endfacet
   facet normal 1 0 0
      outer loop
         vertex 0.00021 0.0077084 0.00214023
         vertex 0.00021 0.00743181 0.00296111
         vertex 0.00021 0.00473778 0.0018877
      endloop
   endfacet
   facet normal 1 0 0
      outer loop
         vertex 0.00021 0.00743181 0.00296111
         vertex 0.00021 0.0070681 0.00374727
         vertex 0.00021 0.00450591 0.00238888
      endloop
   endfacet
   facet normal 1 0 0
      outer loop
         vertex 0.00021 0.0055016 0.00580796
         vertex 0.00021 0.00350727 0.00370258
         vertex 0.00021 0.00388703 0.00330167
      endloop
   endfacet
   facet normal 1 0 0
      outer loop
         vertex 0.00021 0.00484139 0.00636874
         vertex 0.00021 0.00308639 0.00406007
         vertex 0.00021 0.00350727 0.00370258
      endloop
   endfacet
   facet normal 1 0 0
      outer loop
         vertex 0.00021 0.00412443 0.00685486
         vertex 0.00021 0.00262932 0.00436997
         vertex 0.00021 0.00308639 0.00406007
      endloop
   endfacet
   facet normal 1 0 0
      outer loop
         vertex 0.00021 0.00412443 0.00685486
         vertex 0.00021 0.00335911 0.0072606
         vertex 0.00021 0.00214143 0.00462863
      endloop
   endfacet
   facet normal 1 0 0
      outer loop
         vertex 0.00021 -0.00162844 0.00483303
         vertex 0.00021 -0.00255441 0.00758123
         vertex 0.00021 -0.00335911 0.0072606
      endloop
   endfacet
   facet normal 1 0 0
      outer loop
         vertex 0.00021 -0.00484139 0.00636874
         vertex 0.00021 -0.0055016 0.00580796
         vertex 0.00021 -0.00350727 0.00370258
      endloop
   endfacet
   facet normal 1 0 0
      outer loop
         vertex 0.00021 -0.0060973 0.00517909
         vertex 0.00021 -0.00388703 0.00330167
         vertex 0.00021 -0.00350727 0.00370258
      endloop
   endfacet
   facet normal 1 0 0
      outer loop
         vertex 0.00021 -0.0060973 0.00517909
         vertex 0.00021 -0.00662151 0.0044895
         vertex 0.00021 -0.00422121 0.00286205
      endloop
   endfacet
   facet normal 1 0 0
      outer loop
         vertex 0.00021 -0.0070681 0.00374727
         vertex 0.00021 -0.00450591 0.00238888
         vertex 0.00021 -0.00422121 0.00286205
      endloop
   endfacet
   facet normal 1 0 0
      outer loop
         vertex 0.00021 -0.00473778 0.0018877
         vertex 0.00021 -0.00743181 0.00296111
         vertex 0.00021 -0.0077084 0.00214023
      endloop
   endfacet
   facet normal 1 0 0
      outer loop
         vertex 0.00021 -0.00503282 -0.000825088
         vertex 0.00021 -0.00509252 -0.000276108
         vertex 0.00021 -0.00798827 -0.000433111
      endloop
   endfacet
   facet normal 1 0 0
      outer loop
         vertex 0.00021 -0.00473778 -0.0018877
         vertex 0.00021 -0.0049141 -0.00136439
         vertex 0.00021 -0.0077084 -0.00214023
      endloop
   endfacet
   facet normal 1 0 0
      outer loop
         vertex 0.00021 -0.0070681 -0.00374727
         vertex 0.00021 -0.00450591 -0.00238888
         vertex 0.00021 -0.00473778 -0.0018877
      endloop
   endfacet
   facet normal 1 0 0
      outer loop
         vertex 0.00021 -0.0070681 -0.00374727
         vertex 0.00021 -0.00662151 -0.0044895
         vertex 0.00021 -0.00422121 -0.00286205
      endloop
   endfacet
   facet normal 1 0 0
      outer loop
         vertex 0.00021 -0.0060973 -0.00517909
         vertex 0.00021 -0.00388703 -0.00330167
         vertex 0.00021 -0.00422121 -0.00286205
      endloop
   endfacet
   facet normal 1 0 0
      outer loop
         vertex 0.00021 -0.0060973 -0.00517909
         vertex 0.00021 -0.0055016 -0.00580796
         vertex 0.00021 -0.00350727 -0.00370258
      endloop
   endfacet
   facet normal 1 0 0
      outer loop
         vertex 0.00021 0.00214143 -0.00462863
         vertex 0.00021 0.00162844 -0.00483303
         vertex 0.00021 0.00255441 -0.00758123
      endloop
   endfacet
   facet normal 1 0 0
      outer loop
         vertex 0.00021 0.00308639 -0.00406007
         vertex 0.00021 0.00262932 -0.00436997
         vertex 0.00021 0.00412443 -0.00685486
      endloop
   endfacet
   facet normal 1 0 0
      outer loop
         vertex 0.00021 0.00388703 -0.00330167
         vertex 0.00021 0.0060973 -0.00517909
         vertex 0.00021 0.00662151 -0.0044895
      endloop
   endfacet
   facet normal 1 0 0
      outer loop
         vertex 0.00021 0.0070681 -0.00374727
         vertex 0.00021 0.00743181 -0.00296111
         vertex 0.00021 0.00473778 -0.0018877
      endloop
   endfacet
   facet normal 1 0 0
      outer loop
         vertex 0.00021 0.0077084 -0.00214023
         vertex 0.00021 0.0049141 -0.00136439
         vertex 0.00021 0.00473778 -0.0018877
      endloop
   endfacet
   facet normal 1 0 0
      outer loop
         vertex 0.00021 0.0077084 -0.00214023
         vertex 0.00021 0.00789461 -0.00129426
         vertex 0.00021 0.00503282 -0.000825088
      endloop
   endfacet
   facet normal 1 0 0
      outer loop
         vertex 0.00021 0.0049141 0.00136439
         vertex 0.00021 0.00503282 0.000825088
         vertex 0.00021 0.00789461 0.00129426
      endloop
   endfacet
   facet normal 1 0 0
      outer loop
         vertex 0.00021 0.00450591 0.00238888
         vertex 0.00021 0.00473778 0.0018877
         vertex 0.00021 0.00743181 0.00296111
      endloop
   endfacet
   facet normal 1 0 0
      outer loop
         vertex 0.00021 0.00662151 0.0044895
         vertex 0.00021 0.00422121 0.00286205
         vertex 0.00021 0.00450591 0.00238888
      endloop
   endfacet
   facet normal 1 0 0
      outer loop
         vertex 0.00021 0.00662151 0.0044895
         vertex 0.00021 0.0060973 0.00517909
         vertex 0.00021 0.00388703 0.00330167
      endloop
   endfacet
   facet normal 1 0 0
      outer loop
         vertex 0.00021 0.00350727 0.00370258
         vertex 0.00021 0.0055016 0.00580796
         vertex 0.00021 0.00484139 0.00636874
      endloop
   endfacet
   facet normal 1 0 0
      outer loop
         vertex 0.00021 0.00214143 0.00462863
         vertex 0.00021 0.00262932 0.00436997
         vertex 0.00021 0.00412443 0.00685486
      endloop
   endfacet
   facet normal 1 0 0
      outer loop
         vertex 0.00021 -0.00350727 0.00370258
         vertex 0.00021 -0.00308639 0.00406007
         vertex 0.00021 -0.00484139 0.00636874
      endloop
   endfacet
   facet normal 1 0 0
      outer loop
         vertex 0.00021 -0.00422121 0.00286205
         vertex 0.00021 -0.00388703 0.00330167
         vertex 0.00021 -0.0060973 0.00517909
      endloop
   endfacet
   facet normal 1 0 0
      outer loop
         vertex 0.00021 -0.00450591 0.00238888
         vertex 0.00021 -0.0070681 0.00374727
         vertex 0.00021 -0.00743181 0.00296111
      endloop
   endfacet
   facet normal 1 0 0
      outer loop
         vertex 0.00021 -0.00503282 -0.000825088
         vertex 0.00021 -0.00789461 -0.00129426
         vertex 0.00021 -0.0077084 -0.00214023
      endloop
   endfacet
   facet normal 1 0 0
      outer loop
         vertex 0.00021 -0.00422121 -0.00286205
         vertex 0.00021 -0.00450591 -0.00238888
         vertex 0.00021 -0.0070681 -0.00374727
      endloop
   endfacet
   facet normal 1 0 0
      outer loop
         vertex 0.00021 -0.00350727 -0.00370258
         vertex 0.00021 -0.00388703 -0.00330167
         vertex 0.00021 -0.0060973 -0.00517909
      endloop
   endfacet
   facet normal 1 0 0
      outer loop
         vertex 0.00021 -0.00484139 -0.00636874
         vertex 0.00021 -0.00308639 -0.00406007
         vertex 0.00021 -0.00350727 -0.00370258
      endloop
   endfacet
   facet normal 1 0 0
      outer loop
         vertex 0.00021 -0.00484139 -0.00636874
         vertex 0.00021 -0.00412443 -0.00685486
         vertex 0.00021 -0.00262932 -0.00436997
      endloop
   endfacet
   facet normal 1 0 0
      outer loop
         vertex 0.00021 -0.00171976 -0.00781296
         vertex 0.00021 -0.00109635 -0.00498076
         vertex 0.00021 -0.00162844 -0.00483303
      endloop
   endfacet
   facet normal 1 0 0
      outer loop
         vertex 0.00021 -0.00171976 -0.00781296
         vertex 0.00021 -0.000864952 -0.0079531
         vertex 0.00021 -0.000551407 -0.0050701
      endloop
   endfacet
   facet normal 1 0 0
      outer loop
         vertex 0.00021 2.93915e-18 -0.008
         vertex 0.00021 0.000864952 -0.0079531
         vertex 0.00021 0.000551407 -0.0050701
      endloop
   endfacet
   facet normal 1 0 0
      outer loop
         vertex 0.00021 0.000864952 -0.0079531
         vertex 0.00021 0.00171976 -0.00781296
         vertex 0.00021 0.00109635 -0.00498076
      endloop
   endfacet
   facet normal 1 0 0
      outer loop
         vertex 0.00021 0.00214143 -0.00462863
         vertex 0.00021 0.00335911 -0.0072606
         vertex 0.00021 0.00412443 -0.00685486
      endloop
   endfacet
   facet normal 1 0 0
      outer loop
         vertex 0.00021 0.00473778 -0.0018877
         vertex 0.00021 0.00450591 -0.00238888
         vertex 0.00021 0.0070681 -0.00374727
      endloop
   endfacet
   facet normal 1 0 0
      outer loop
         vertex 0.00021 0.00503282 -0.000825088
         vertex 0.00021 0.0049141 -0.00136439
         vertex 0.00021 0.0077084 -0.00214023
      endloop
   endfacet
   facet normal 1 0 0
      outer loop
         vertex 0.00021 0.00473778 0.0018877
         vertex 0.00021 0.0049141 0.00136439
         vertex 0.00021 0.0077084 0.00214023
      endloop
   endfacet
   facet normal 1 0 0
      outer loop
         vertex 0.00021 0.00388703 0.00330167
         vertex 0.00021 0.00422121 0.00286205
         vertex 0.00021 0.00662151 0.0044895
      endloop
   endfacet
   facet normal 1 0 0
      outer loop
         vertex 0.00021 0.00308639 0.00406007
         vertex 0.00021 0.00484139 0.00636874
         vertex 0.00021 0.00412443 0.00685486
      endloop
   endfacet
   facet normal 1 0 0
      outer loop
         vertex 0.00021 -0.00350727 0.00370258
         vertex 0.00021 -0.0055016 0.00580796
         vertex 0.00021 -0.0060973 0.00517909
      endloop
   endfacet
   facet normal 1 0 0
      outer loop
         vertex 0.00021 -0.00509252 -0.000276108
         vertex 0.00021 -0.00509252 0.000276108
         vertex 0.00021 -0.00798827 0.000433111
      endloop
   endfacet
   facet normal 1 0 0
      outer loop
         vertex 0.00021 -0.00422121 -0.00286205
         vertex 0.00021 -0.00662151 -0.0044895
         vertex 0.00021 -0.0060973 -0.00517909
      endloop
   endfacet
   facet normal 1 0 0
      outer loop
         vertex 0.00021 -0.00262932 -0.00436997
         vertex 0.00021 -0.00308639 -0.00406007
         vertex 0.00021 -0.00484139 -0.00636874
      endloop
   endfacet
   facet normal 1 0 0
      outer loop
         vertex 0.00021 -0.00335911 -0.0072606
         vertex 0.00021 -0.00214143 -0.00462863
         vertex 0.00021 -0.00262932 -0.00436997
      endloop
   endfacet
   facet normal 1 0 0
      outer loop
         vertex 0.00021 -0.00335911 -0.0072606
         vertex 0.00021 -0.00255441 -0.00758123
         vertex 0.00021 -0.00162844 -0.00483303
      endloop
   endfacet
   facet normal 1 0 0
      outer loop
         vertex 0.00021 -0.000551407 -0.0050701
         vertex 0.00021 -0.00109635 -0.00498076
         vertex 0.00021 -0.00171976 -0.00781296
      endloop
   endfacet
   facet normal 1 0 0
      outer loop
         vertex 0.00021 2.93915e-18 -0.008
         vertex 0.00021 6.2457e-19 -0.0051
         vertex 0.00021 -0.000551407 -0.0050701
      endloop
   endfacet
   facet normal 1 0 0
      outer loop
         vertex 0.00021 0.00109635 -0.00498076
         vertex 0.00021 0.000551407 -0.0050701
         vertex 0.00021 0.000864952 -0.0079531
      endloop
   endfacet
   facet normal 1 0 0
      outer loop
         vertex 0.00021 0.00350727 -0.00370258
         vertex 0.00021 0.00308639 -0.00406007
         vertex 0.00021 0.00484139 -0.00636874
      endloop
   endfacet
   facet normal 1 0 0
      outer loop
         vertex 0.00021 0.00503282 -0.000825088
         vertex 0.00021 0.00789461 -0.00129426
         vertex 0.00021 0.00798827 -0.000433111
      endloop
   endfacet
   facet normal 1 0 0
      outer loop
         vertex 0.00021 0.00388703 0.00330167
         vertex 0.00021 0.0060973 0.00517909
         vertex 0.00021 0.0055016 0.00580796
      endloop
   endfacet
   facet normal 1 0 0
      outer loop
         vertex 0.00021 -0.00422121 0.00286205
         vertex 0.00021 -0.00662151 0.0044895
         vertex 0.00021 -0.0070681 0.00374727
      endloop
   endfacet
   facet normal 1 0 0
      outer loop
         vertex 0.00021 -0.00350727 -0.00370258
         vertex 0.00021 -0.0055016 -0.00580796
         vertex 0.00021 -0.00484139 -0.00636874
      endloop
   endfacet
   facet normal 1 0 0
      outer loop
         vertex 0.00021 -0.00162844 -0.00483303
         vertex 0.00021 -0.00214143 -0.00462863
         vertex 0.00021 -0.00335911 -0.0072606
      endloop
   endfacet
   facet normal 1 0 0
      outer loop
         vertex 0.00021 -0.000551407 -0.0050701
         vertex 0.00021 -0.000864952 -0.0079531
         vertex 0.00021 2.93915e-18 -0.008
      endloop
   endfacet
   facet normal 1 0 0
      outer loop
         vertex 0.00021 0.00109635 -0.00498076
         vertex 0.00021 0.00171976 -0.00781296
         vertex 0.00021 0.00255441 -0.00758123
      endloop
   endfacet
   facet normal 1 0 0
      outer loop
         vertex 0.00021 0.00450591 0.00238888
         vertex 0.00021 0.0070681 0.00374727
         vertex 0.00021 0.00662151 0.0044895
      endloop
   endfacet
   facet normal 1 0 0
      outer loop
         vertex 0.00021 -0.00473778 -0.0018877
         vertex 0.00021 -0.00743181 -0.00296111
         vertex 0.00021 -0.0070681 -0.00374727
      endloop
   endfacet
   facet normal 1 0 0
      outer loop
         vertex 0.00021 -0.00162844 -0.00483303
         vertex 0.00021 -0.00255441 -0.00758123
         vertex 0.00021 -0.00171976 -0.00781296
      endloop
   endfacet
   facet normal 1 0 0
      outer loop
         vertex 0.00021 0.00473778 -0.0018877
         vertex 0.00021 0.00743181 -0.00296111
         vertex 0.00021 0.0077084 -0.00214023
      endloop
   endfacet
   facet normal 1 0 0
      outer loop
         vertex 0.00021 -0.00262932 -0.00436997
         vertex 0.00021 -0.00412443 -0.00685486
         vertex 0.00021 -0.00335911 -0.0072606
      endloop
   endfacet
   facet normal 1 0 0
      outer loop
         vertex 0.00021 0.00214143 0.00462863
         vertex 0.00021 0.00335911 0.0072606
         vertex 0.00021 0.00255441 0.00758123
      endloop
   endfacet
   facet normal 1 0 0
      outer loop
         vertex 0.00021 0.000551407 -0.0050701
         vertex 0.00021 6.2457e-19 -0.0051
         vertex 0.00021 2.93915e-18 -0.008
      endloop
   endfacet
endsolid 24. Units = meters