solid 2807 Series Stainless Steel Shim (4mm ID x 7mm OD, 1mm Thickness) - 12 Pack 2807-0407-1000. STL generated by ONSHAPE BY PTC INC, 1.216. Units = meters
   facet normal 0.108119 -0.994138 0
      outer loop
         vertex -0.000216238 0.00198828 0
         vertex 0 0.002 0
         vertex 0 0.002 0.001
      endloop
   endfacet
   facet normal 0.21497 -0.976621 0
      outer loop
         vertex -0.000429941 0.00195324 0
         vertex -0.000216238 0.00198828 0
         vertex -0.000216238 0.00198828 0.001
      endloop
   endfacet
   facet normal 0.319302 -0.947653 0
      outer loop
         vertex -0.000638603 0.00189531 0
         vertex -0.000429941 0.00195324 0
         vertex -0.000429941 0.00195324 0.001
      endloop
   endfacet
   facet normal 0.419889 -0.907575 0
      outer loop
         vertex -0.000839778 0.00181515 0
         vertex -0.000638603 0.00189531 0
         vertex -0.000638603 0.00189531 0.001
      endloop
   endfacet
   facet normal 0.515554 -0.856857 0
      outer loop
         vertex -0.00103111 0.00171371 0
         vertex -0.000839778 0.00181515 0
         vertex -0.000839778 0.00181515 0.001
      endloop
   endfacet
   facet normal 0.605174 -0.796093 0
      outer loop
         vertex -0.00121035 0.00159219 0
         vertex -0.00103111 0.00171371 0
         vertex -0.00103111 0.00171371 0.001
      endloop
   endfacet
   facet normal 0.687699 -0.725995 0
      outer loop
         vertex -0.0013754 0.00145199 0
         vertex -0.00121035 0.00159219 0
         vertex -0.00121035 0.00159219 0.001
      endloop
   endfacet
   facet normal 0.762162 -0.647386 0
      outer loop
         vertex -0.00152432 0.00129477 0
         vertex -0.0013754 0.00145199 0
         vertex -0.0013754 0.00145199 0.001
      endloop
   endfacet
   facet normal 0.827689 -0.561187 0
      outer loop
         vertex -0.00165538 0.00112237 0
         vertex -0.00152432 0.00129477 0
         vertex -0.00152432 0.00129477 0.001
      endloop
   endfacet
   facet normal 0.883512 -0.468408 0
      outer loop
         vertex -0.00176702 0.000936817 0
         vertex -0.00165538 0.00112237 0
         vertex -0.00165538 0.00112237 0.001
      endloop
   endfacet
   facet normal 0.928977 -0.370138 0
      outer loop
         vertex -0.00185795 0.000740276 0
         vertex -0.00176702 0.000936817 0
         vertex -0.00176702 0.000936817 0.001
      endloop
   endfacet
   facet normal 0.96355 -0.267528 0
      outer loop
         vertex -0.0019271 0.000535057 0
         vertex -0.00185795 0.000740276 0
         vertex -0.00185795 0.000740276 0.001
      endloop
   endfacet
   facet normal 0.986827 -0.161782 0
      outer loop
         vertex -0.00197365 0.000323564 0
         vertex -0.0019271 0.000535057 0
         vertex -0.0019271 0.000535057 0.001
      endloop
   endfacet
   facet normal 0.998533 -0.0541389 0
      outer loop
         vertex -0.00199707 0.000108278 0
         vertex -0.00197365 0.000323564 0
         vertex -0.00197365 0.000323564 0.001
      endloop
   endfacet
   facet normal 0.998533 0.0541389 0
      outer loop
         vertex -0.00199707 -0.000108278 0
         vertex -0.00199707 0.000108278 0
         vertex -0.00199707 0.000108278 0.001
      endloop
   endfacet
   facet normal 0.986827 0.161782 0
      outer loop
         vertex -0.00197365 -0.000323564 0
         vertex -0.00199707 -0.000108278 0
         vertex -0.00199707 -0.000108278 0.001
      endloop
   endfacet
   facet normal 0.96355 0.267528 0
      outer loop
         vertex -0.0019271 -0.000535057 0
         vertex -0.00197365 -0.000323564 0
         vertex -0.00197365 -0.000323564 0.001
      endloop
   endfacet
   facet normal 0.928977 0.370138 0
      outer loop
         vertex -0.00185795 -0.000740276 0
         vertex -0.0019271 -0.000535057 0
         vertex -0.0019271 -0.000535057 0.001
      endloop
   endfacet
   facet normal 0.883512 0.468408 0
      outer loop
         vertex -0.00176702 -0.000936817 0
         vertex -0.00185795 -0.000740276 0
         vertex -0.00185795 -0.000740276 0.001
      endloop
   endfacet
   facet normal 0.827689 0.561187 0
      outer loop
         vertex -0.00165538 -0.00112237 0
         vertex -0.00176702 -0.000936817 0
         vertex -0.00176702 -0.000936817 0.001
      endloop
   endfacet
   facet normal 0.762162 0.647386 0
      outer loop
         vertex -0.00152432 -0.00129477 0
         vertex -0.00165538 -0.00112237 0
         vertex -0.00165538 -0.00112237 0.001
      endloop
   endfacet
   facet normal 0.687699 0.725995 0
      outer loop
         vertex -0.0013754 -0.00145199 0
         vertex -0.00152432 -0.00129477 0
         vertex -0.00152432 -0.00129477 0.001
      endloop
   endfacet
   facet normal 0.605174 0.796093 0
      outer loop
         vertex -0.00121035 -0.00159219 0
         vertex -0.0013754 -0.00145199 0
         vertex -0.0013754 -0.00145199 0.001
      endloop
   endfacet
   facet normal 0.515554 0.856857 0
      outer loop
         vertex -0.00103111 -0.00171371 0
         vertex -0.00121035 -0.00159219 0
         vertex -0.00121035 -0.00159219 0.001
      endloop
   endfacet
   facet normal 0.419889 0.907575 0
      outer loop
         vertex -0.000839778 -0.00181515 0
         vertex -0.00103111 -0.00171371 0
         vertex -0.00103111 -0.00171371 0.001
      endloop
   endfacet
   facet normal 0.319302 0.947653 0
      outer loop
         vertex -0.000638603 -0.00189531 0
         vertex -0.000839778 -0.00181515 0
         vertex -0.000839778 -0.00181515 0.001
      endloop
   endfacet
   facet normal 0.21497 0.976621 0
      outer loop
         vertex -0.000429941 -0.00195324 0
         vertex -0.000638603 -0.00189531 0
         vertex -0.000638603 -0.00189531 0.001
      endloop
   endfacet
   facet normal 0.108119 0.994138 0
      outer loop
         vertex -0.000216238 -0.00198828 0
         vertex -0.000429941 -0.00195324 0
         vertex -0.000429941 -0.00195324 0.001
      endloop
   endfacet
   facet normal -1.22465e-16 1 0
      outer loop
         vertex 7.34788e-19 -0.002 0
         vertex -0.000216238 -0.00198828 0
         vertex -0.000216238 -0.00198828 0.001
      endloop
   endfacet
   facet normal -0.108119 0.994138 0
      outer loop
         vertex 0.000216238 -0.00198828 0
         vertex 7.34788e-19 -0.002 0
         vertex 2.44929e-19 -0.002 0.001
      endloop
   endfacet
   facet normal -0.21497 0.976621 0
      outer loop
         vertex 0.000429941 -0.00195324 0
         vertex 0.000216238 -0.00198828 0
         vertex 0.000216238 -0.00198828 0.001
      endloop
   endfacet
   facet normal -0.319302 0.947653 0
      outer loop
         vertex 0.000638603 -0.00189531 0
         vertex 0.000429941 -0.00195324 0
         vertex 0.000429941 -0.00195324 0.001
      endloop
   endfacet
   facet normal -0.419889 0.907575 0
      outer loop
         vertex 0.000839778 -0.00181515 0
         vertex 0.000638603 -0.00189531 0
         vertex 0.000638603 -0.00189531 0.001
      endloop
   endfacet
   facet normal -0.515554 0.856857 0
      outer loop
         vertex 0.00103111 -0.00171371 0
         vertex 0.000839778 -0.00181515 0
         vertex 0.000839778 -0.00181515 0.001
      endloop
   endfacet
   facet normal -0.605174 0.796093 0
      outer loop
         vertex 0.00121035 -0.00159219 0
         vertex 0.00103111 -0.00171371 0
         vertex 0.00103111 -0.00171371 0.001
      endloop
   endfacet
   facet normal -0.687699 0.725995 0
      outer loop
         vertex 0.0013754 -0.00145199 0
         vertex 0.00121035 -0.00159219 0
         vertex 0.00121035 -0.00159219 0.001
      endloop
   endfacet
   facet normal -0.762162 0.647386 0
      outer loop
         vertex 0.00152432 -0.00129477 0
         vertex 0.0013754 -0.00145199 0
         vertex 0.0013754 -0.00145199 0.001
      endloop
   endfacet
   facet normal -0.827689 0.561187 0
      outer loop
         vertex 0.00165538 -0.00112237 0
         vertex 0.00152432 -0.00129477 0
         vertex 0.00152432 -0.00129477 0.001
      endloop
   endfacet
   facet normal -0.883512 0.468408 0
      outer loop
         vertex 0.00176702 -0.000936817 0
         vertex 0.00165538 -0.00112237 0
         vertex 0.00165538 -0.00112237 0.001
      endloop
   endfacet
   facet normal -0.928977 0.370138 0
      outer loop
         vertex 0.00185795 -0.000740276 0
         vertex 0.00176702 -0.000936817 0
         vertex 0.00176702 -0.000936817 0.001
      endloop
   endfacet
   facet normal -0.96355 0.267528 0
      outer loop
         vertex 0.0019271 -0.000535057 0
         vertex 0.00185795 -0.000740276 0
         vertex 0.00185795 -0.000740276 0.001
      endloop
   endfacet
   facet normal -0.986827 0.161782 0
      outer loop
         vertex 0.00197365 -0.000323564 0
         vertex 0.0019271 -0.000535057 0
         vertex 0.0019271 -0.000535057 0.001
      endloop
   endfacet
   facet normal -0.998533 0.0541389 0
      outer loop
         vertex 0.00199707 -0.000108278 0
         vertex 0.00197365 -0.000323564 0
         vertex 0.00197365 -0.000323564 0.001
      endloop
   endfacet
   facet normal -0.998533 -0.0541389 0
      outer loop
         vertex 0.00199707 0.000108278 0
         vertex 0.00199707 -0.000108278 0
         vertex 0.00199707 -0.000108278 0.001
      endloop
   endfacet
   facet normal -0.986827 -0.161782 0
      outer loop
         vertex 0.00197365 0.000323564 0
         vertex 0.00199707 0.000108278 0
         vertex 0.00199707 0.000108278 0.001
      endloop
   endfacet
   facet normal -0.96355 -0.267528 0
      outer loop
         vertex 0.0019271 0.000535057 0
         vertex 0.00197365 0.000323564 0
         vertex 0.00197365 0.000323564 0.001
      endloop
   endfacet
   facet normal -0.928977 -0.370138 0
      outer loop
         vertex 0.00185795 0.000740276 0
         vertex 0.0019271 0.000535057 0
         vertex 0.0019271 0.000535057 0.001
      endloop
   endfacet
   facet normal -0.883512 -0.468408 0
      outer loop
         vertex 0.00176702 0.000936817 0
         vertex 0.00185795 0.000740276 0
         vertex 0.00185795 0.000740276 0.001
      endloop
   endfacet
   facet normal -0.827689 -0.561187 0
      outer loop
         vertex 0.00165538 0.00112237 0
         vertex 0.00176702 0.000936817 0
         vertex 0.00176702 0.000936817 0.001
      endloop
   endfacet
   facet normal -0.762162 -0.647386 0
      outer loop
         vertex 0.00152432 0.00129477 0
         vertex 0.00165538 0.00112237 0
         vertex 0.00165538 0.00112237 0.001
      endloop
   endfacet
   facet normal -0.687699 -0.725995 0
      outer loop
         vertex 0.0013754 0.00145199 0
         vertex 0.00152432 0.00129477 0
         vertex 0.00152432 0.00129477 0.001
      endloop
   endfacet
   facet normal -0.605174 -0.796093 0
      outer loop
         vertex 0.00121035 0.00159219 0
         vertex 0.0013754 0.00145199 0
         vertex 0.0013754 0.00145199 0.001
      endloop
   endfacet
   facet normal -0.515554 -0.856857 0
      outer loop
         vertex 0.00103111 0.00171371 0
         vertex 0.00121035 0.00159219 0
         vertex 0.00121035 0.00159219 0.001
      endloop
   endfacet
   facet normal -0.419889 -0.907575 0
      outer loop
         vertex 0.000839778 0.00181515 0
         vertex 0.00103111 0.00171371 0
         vertex 0.00103111 0.00171371 0.001
      endloop
   endfacet
   facet normal -0.319302 -0.947653 0
      outer loop
         vertex 0.000638603 0.00189531 0
         vertex 0.000839778 0.00181515 0
         vertex 0.000839778 0.00181515 0.001
      endloop
   endfacet
   facet normal -0.21497 -0.976621 0
      outer loop
         vertex 0.000429941 0.00195324 0
         vertex 0.000638603 0.00189531 0
         vertex 0.000638603 0.00189531 0.001
      endloop
   endfacet
   facet normal -0.108119 -0.994138 0
      outer loop
         vertex 0.000216238 0.00198828 0
         vertex 0.000429941 0.00195324 0
         vertex 0.000429941 0.00195324 0.001
      endloop
   endfacet
   facet normal 2.44929e-16 -1 0
      outer loop
         vertex 0 0.002 0
         vertex 0.000216238 0.00198828 0
         vertex 0.000216238 0.00198828 0.001
      endloop
   endfacet
   facet normal -0.108119 -0.994138 0
      outer loop
         vertex 0.000216238 0.00198828 0.001
         vertex 0 0.002 0.001
         vertex 0 0.002 0
      endloop
   endfacet
   facet normal -0.21497 -0.976621 0
      outer loop
         vertex 0.000429941 0.00195324 0.001
         vertex 0.000216238 0.00198828 0.001
         vertex 0.000216238 0.00198828 0
      endloop
   endfacet
   facet normal -0.319302 -0.947653 0
      outer loop
         vertex 0.000638603 0.00189531 0.001
         vertex 0.000429941 0.00195324 0.001
         vertex 0.000429941 0.00195324 0
      endloop
   endfacet
   facet normal -0.419889 -0.907575 0
      outer loop
         vertex 0.000839778 0.00181515 0.001
         vertex 0.000638603 0.00189531 0.001
         vertex 0.000638603 0.00189531 0
      endloop
   endfacet
   facet normal -0.515554 -0.856857 0
      outer loop
         vertex 0.00103111 0.00171371 0.001
         vertex 0.000839778 0.00181515 0.001
         vertex 0.000839778 0.00181515 0
      endloop
   endfacet
   facet normal -0.605174 -0.796093 0
      outer loop
         vertex 0.00121035 0.00159219 0.001
         vertex 0.00103111 0.00171371 0.001
         vertex 0.00103111 0.00171371 0
      endloop
   endfacet
   facet normal -0.687699 -0.725995 0
      outer loop
         vertex 0.0013754 0.00145199 0.001
         vertex 0.00121035 0.00159219 0.001
         vertex 0.00121035 0.00159219 0
      endloop
   endfacet
   facet normal -0.762162 -0.647386 0
      outer loop
         vertex 0.00152432 0.00129477 0.001
         vertex 0.0013754 0.00145199 0.001
         vertex 0.0013754 0.00145199 0
      endloop
   endfacet
   facet normal -0.827689 -0.561187 0
      outer loop
         vertex 0.00165538 0.00112237 0.001
         vertex 0.00152432 0.00129477 0.001
         vertex 0.00152432 0.00129477 0
      endloop
   endfacet
   facet normal -0.883512 -0.468408 0
      outer loop
         vertex 0.00176702 0.000936817 0.001
         vertex 0.00165538 0.00112237 0.001
         vertex 0.00165538 0.00112237 0
      endloop
   endfacet
   facet normal -0.928977 -0.370138 0
      outer loop
         vertex 0.00185795 0.000740276 0.001
         vertex 0.00176702 0.000936817 0.001
         vertex 0.00176702 0.000936817 0
      endloop
   endfacet
   facet normal -0.96355 -0.267528 0
      outer loop
         vertex 0.0019271 0.000535057 0.001
         vertex 0.00185795 0.000740276 0.001
         vertex 0.00185795 0.000740276 0
      endloop
   endfacet
   facet normal -0.986827 -0.161782 0
      outer loop
         vertex 0.00197365 0.000323564 0.001
         vertex 0.0019271 0.000535057 0.001
         vertex 0.0019271 0.000535057 0
      endloop
   endfacet
   facet normal -0.998533 -0.0541389 0
      outer loop
         vertex 0.00199707 0.000108278 0.001
         vertex 0.00197365 0.000323564 0.001
         vertex 0.00197365 0.000323564 0
      endloop
   endfacet
   facet normal -0.998533 0.0541389 0
      outer loop
         vertex 0.00199707 -0.000108278 0.001
         vertex 0.00199707 0.000108278 0.001
         vertex 0.00199707 0.000108278 0
      endloop
   endfacet
   facet normal -0.986827 0.161782 0
      outer loop
         vertex 0.00197365 -0.000323564 0.001
         vertex 0.00199707 -0.000108278 0.001
         vertex 0.00199707 -0.000108278 0
      endloop
   endfacet
   facet normal -0.96355 0.267528 0
      outer loop
         vertex 0.0019271 -0.000535057 0.001
         vertex 0.00197365 -0.000323564 0.001
         vertex 0.00197365 -0.000323564 0
      endloop
   endfacet
   facet normal -0.928977 0.370138 0
      outer loop
         vertex 0.00185795 -0.000740276 0.001
         vertex 0.0019271 -0.000535057 0.001
         vertex 0.0019271 -0.000535057 0
      endloop
   endfacet
   facet normal -0.883512 0.468408 0
      outer loop
         vertex 0.00176702 -0.000936817 0.001
         vertex 0.00185795 -0.000740276 0.001
         vertex 0.00185795 -0.000740276 0
      endloop
   endfacet
   facet normal -0.827689 0.561187 0
      outer loop
         vertex 0.00165538 -0.00112237 0.001
         vertex 0.00176702 -0.000936817 0.001
         vertex 0.00176702 -0.000936817 0
      endloop
   endfacet
   facet normal -0.762162 0.647386 0
      outer loop
         vertex 0.00152432 -0.00129477 0.001
         vertex 0.00165538 -0.00112237 0.001
         vertex 0.00165538 -0.00112237 0
      endloop
   endfacet
   facet normal -0.687699 0.725995 0
      outer loop
         vertex 0.0013754 -0.00145199 0.001
         vertex 0.00152432 -0.00129477 0.001
         vertex 0.00152432 -0.00129477 0
      endloop
   endfacet
   facet normal -0.605174 0.796093 0
      outer loop
         vertex 0.00121035 -0.00159219 0.001
         vertex 0.0013754 -0.00145199 0.001
         vertex 0.0013754 -0.00145199 0
      endloop
   endfacet
   facet normal -0.515554 0.856857 0
      outer loop
         vertex 0.00103111 -0.00171371 0.001
         vertex 0.00121035 -0.00159219 0.001
         vertex 0.00121035 -0.00159219 0
      endloop
   endfacet
   facet normal -0.419889 0.907575 0
      outer loop
         vertex 0.000839778 -0.00181515 0.001
         vertex 0.00103111 -0.00171371 0.001
         vertex 0.00103111 -0.00171371 0
      endloop
   endfacet
   facet normal -0.319302 0.947653 0
      outer loop
         vertex 0.000638603 -0.00189531 0.001
         vertex 0.000839778 -0.00181515 0.001
         vertex 0.000839778 -0.00181515 0
      endloop
   endfacet
   facet normal -0.21497 0.976621 0
      outer loop
         vertex 0.000429941 -0.00195324 0.001
         vertex 0.000638603 -0.00189531 0.001
         vertex 0.000638603 -0.00189531 0
      endloop
   endfacet
   facet normal -0.108119 0.994138 0
      outer loop
         vertex 0.000216238 -0.00198828 0.001
         vertex 0.000429941 -0.00195324 0.001
         vertex 0.000429941 -0.00195324 0
      endloop
   endfacet
   facet normal -1.22465e-16 1 0
      outer loop
         vertex 2.44929e-19 -0.002 0.001
         vertex 0.000216238 -0.00198828 0.001
         vertex 0.000216238 -0.00198828 0
      endloop
   endfacet
   facet normal 0.108119 0.994138 0
      outer loop
         vertex -0.000216238 -0.00198828 0.001
         vertex 2.44929e-19 -0.002 0.001
         vertex 7.34788e-19 -0.002 0
      endloop
   endfacet
   facet normal 0.21497 0.976621 0
      outer loop
         vertex -0.000429941 -0.00195324 0.001
         vertex -0.000216238 -0.00198828 0.001
         vertex -0.000216238 -0.00198828 0
      endloop
   endfacet
   facet normal 0.319302 0.947653 0
      outer loop
         vertex -0.000638603 -0.00189531 0.001
         vertex -0.000429941 -0.00195324 0.001
         vertex -0.000429941 -0.00195324 0
      endloop
   endfacet
   facet normal 0.419889 0.907575 0
      outer loop
         vertex -0.000839778 -0.00181515 0.001
         vertex -0.000638603 -0.00189531 0.001
         vertex -0.000638603 -0.00189531 0
      endloop
   endfacet
   facet normal 0.515554 0.856857 0
      outer loop
         vertex -0.00103111 -0.00171371 0.001
         vertex -0.000839778 -0.00181515 0.001
         vertex -0.000839778 -0.00181515 0
      endloop
   endfacet
   facet normal 0.605174 0.796093 0
      outer loop
         vertex -0.00121035 -0.00159219 0.001
         vertex -0.00103111 -0.00171371 0.001
         vertex -0.00103111 -0.00171371 0
      endloop
   endfacet
   facet normal 0.687699 0.725995 0
      outer loop
         vertex -0.0013754 -0.00145199 0.001
         vertex -0.00121035 -0.00159219 0.001
         vertex -0.00121035 -0.00159219 0
      endloop
   endfacet
   facet normal 0.762162 0.647386 0
      outer loop
         vertex -0.00152432 -0.00129477 0.001
         vertex -0.0013754 -0.00145199 0.001
         vertex -0.0013754 -0.00145199 0
      endloop
   endfacet
   facet normal 0.827689 0.561187 0
      outer loop
         vertex -0.00165538 -0.00112237 0.001
         vertex -0.00152432 -0.00129477 0.001
         vertex -0.00152432 -0.00129477 0
      endloop
   endfacet
   facet normal 0.883512 0.468408 0
      outer loop
         vertex -0.00176702 -0.000936817 0.001
         vertex -0.00165538 -0.00112237 0.001
         vertex -0.00165538 -0.00112237 0
      endloop
   endfacet
   facet normal 0.928977 0.370138 0
      outer loop
         vertex -0.00185795 -0.000740276 0.001
         vertex -0.00176702 -0.000936817 0.001
         vertex -0.00176702 -0.000936817 0
      endloop
   endfacet
   facet normal 0.96355 0.267528 0
      outer loop
         vertex -0.0019271 -0.000535057 0.001
         vertex -0.00185795 -0.000740276 0.001
         vertex -0.00185795 -0.000740276 0
      endloop
   endfacet
   facet normal 0.986827 0.161782 0
      outer loop
         vertex -0.00197365 -0.000323564 0.001
         vertex -0.0019271 -0.000535057 0.001
         vertex -0.0019271 -0.000535057 0
      endloop
   endfacet
   facet normal 0.998533 0.0541389 0
      outer loop
         vertex -0.00199707 -0.000108278 0.001
         vertex -0.00197365 -0.000323564 0.001
         vertex -0.00197365 -0.000323564 0
      endloop
   endfacet
   facet normal 0.998533 -0.0541389 0
      outer loop
         vertex -0.00199707 0.000108278 0.001
         vertex -0.00199707 -0.000108278 0.001
         vertex -0.00199707 -0.000108278 0
      endloop
   endfacet
   facet normal 0.986827 -0.161782 0
      outer loop
         vertex -0.00197365 0.000323564 0.001
         vertex -0.00199707 0.000108278 0.001
         vertex -0.00199707 0.000108278 0
      endloop
   endfacet
   facet normal 0.96355 -0.267528 0
      outer loop
         vertex -0.0019271 0.000535057 0.001
         vertex -0.00197365 0.000323564 0.001
         vertex -0.00197365 0.000323564 0
      endloop
   endfacet
   facet normal 0.928977 -0.370138 0
      outer loop
         vertex -0.00185795 0.000740276 0.001
         vertex -0.0019271 0.000535057 0.001
         vertex -0.0019271 0.000535057 0
      endloop
   endfacet
   facet normal 0.883512 -0.468408 0
      outer loop
         vertex -0.00176702 0.000936817 0.001
         vertex -0.00185795 0.000740276 0.001
         vertex -0.00185795 0.000740276 0
      endloop
   endfacet
   facet normal 0.827689 -0.561187 0
      outer loop
         vertex -0.00165538 0.00112237 0.001
         vertex -0.00176702 0.000936817 0.001
         vertex -0.00176702 0.000936817 0
      endloop
   endfacet
   facet normal 0.762162 -0.647386 0
      outer loop
         vertex -0.00152432 0.00129477 0.001
         vertex -0.00165538 0.00112237 0.001
         vertex -0.00165538 0.00112237 0
      endloop
   endfacet
   facet normal 0.687699 -0.725995 0
      outer loop
         vertex -0.0013754 0.00145199 0.001
         vertex -0.00152432 0.00129477 0.001
         vertex -0.00152432 0.00129477 0
      endloop
   endfacet
   facet normal 0.605174 -0.796093 0
      outer loop
         vertex -0.00121035 0.00159219 0.001
         vertex -0.0013754 0.00145199 0.001
         vertex -0.0013754 0.00145199 0
      endloop
   endfacet
   facet normal 0.515554 -0.856857 0
      outer loop
         vertex -0.00103111 0.00171371 0.001
         vertex -0.00121035 0.00159219 0.001
         vertex -0.00121035 0.00159219 0
      endloop
   endfacet
   facet normal 0.419889 -0.907575 0
      outer loop
         vertex -0.000839778 0.00181515 0.001
         vertex -0.00103111 0.00171371 0.001
         vertex -0.00103111 0.00171371 0
      endloop
   endfacet
   facet normal 0.319302 -0.947653 0
      outer loop
         vertex -0.000638603 0.00189531 0.001
         vertex -0.000839778 0.00181515 0.001
         vertex -0.000839778 0.00181515 0
      endloop
   endfacet
   facet normal 0.21497 -0.976621 0
      outer loop
         vertex -0.000429941 0.00195324 0.001
         vertex -0.000638603 0.00189531 0.001
         vertex -0.000638603 0.00189531 0
      endloop
   endfacet
   facet normal 0.108119 -0.994138 0
      outer loop
         vertex -0.000216238 0.00198828 0.001
         vertex -0.000429941 0.00195324 0.001
         vertex -0.000429941 0.00195324 0
      endloop
   endfacet
   facet normal 2.44929e-16 -1 0
      outer loop
         vertex 0 0.002 0.001
         vertex -0.000216238 0.00198828 0.001
         vertex -0.000216238 0.00198828 0
      endloop
   endfacet
   facet normal 0 0 1
      outer loop
         vertex -0.00309229 -0.00163943 0.001
         vertex -0.00176702 -0.000936817 0.001
         vertex -0.00185795 -0.000740276 0.001
      endloop
   endfacet
   facet normal 0 0 1
      outer loop
         vertex -0.00309229 -0.00163943 0.001
         vertex -0.00289691 -0.00196415 0.001
         vertex -0.00165538 -0.00112237 0.001
      endloop
   endfacet
   facet normal 0 0 1
      outer loop
         vertex -0.00266757 -0.00226585 0.001
         vertex -0.00152432 -0.00129477 0.001
         vertex -0.00165538 -0.00112237 0.001
      endloop
   endfacet
   facet normal 0 0 1
      outer loop
         vertex -0.00266757 -0.00226585 0.001
         vertex -0.00240695 -0.00254098 0.001
         vertex -0.0013754 -0.00145199 0.001
      endloop
   endfacet
   facet normal 0 0 1
      outer loop
         vertex -0.00211811 -0.00278633 0.001
         vertex -0.00121035 -0.00159219 0.001
         vertex -0.0013754 -0.00145199 0.001
      endloop
   endfacet
   facet normal 0 0 1
      outer loop
         vertex -0.00211811 -0.00278633 0.001
         vertex -0.00180444 -0.002999 0.001
         vertex -0.00103111 -0.00171371 0.001
      endloop
   endfacet
   facet normal 0 0 1
      outer loop
         vertex -0.00165538 -0.00112237 0.001
         vertex -0.00176702 -0.000936817 0.001
         vertex -0.00309229 -0.00163943 0.001
      endloop
   endfacet
   facet normal 0 0 1
      outer loop
         vertex -0.0013754 -0.00145199 0.001
         vertex -0.00152432 -0.00129477 0.001
         vertex -0.00266757 -0.00226585 0.001
      endloop
   endfacet
   facet normal 0 0 1
      outer loop
         vertex -0.00103111 -0.00171371 0.001
         vertex -0.00121035 -0.00159219 0.001
         vertex -0.00211811 -0.00278633 0.001
      endloop
   endfacet
   facet normal 0 0 1
      outer loop
         vertex -0.00180444 -0.002999 0.001
         vertex -0.00146961 -0.00317651 0.001
         vertex -0.000839778 -0.00181515 0.001
      endloop
   endfacet
   facet normal 0 0 1
      outer loop
         vertex -0.00165538 -0.00112237 0.001
         vertex -0.00289691 -0.00196415 0.001
         vertex -0.00266757 -0.00226585 0.001
      endloop
   endfacet
   facet normal 0 0 1
      outer loop
         vertex -0.000839778 -0.00181515 0.001
         vertex -0.00103111 -0.00171371 0.001
         vertex -0.00180444 -0.002999 0.001
      endloop
   endfacet
   facet normal 0 0 1
      outer loop
         vertex -0.00146961 -0.00317651 0.001
         vertex -0.00111756 -0.00331679 0.001
         vertex -0.000638603 -0.00189531 0.001
      endloop
   endfacet
   facet normal 0 0 1
      outer loop
         vertex -0.00111756 -0.00331679 0.001
         vertex -0.000752397 -0.00341817 0.001
         vertex -0.000429941 -0.00195324 0.001
      endloop
   endfacet
   facet normal 0 0 1
      outer loop
         vertex -0.000378417 -0.00347948 0.001
         vertex -0.000216238 -0.00198828 0.001
         vertex -0.000429941 -0.00195324 0.001
      endloop
   endfacet
   facet normal 0 0 1
      outer loop
         vertex 1.28588e-18 -0.0035 0.001
         vertex 2.44929e-19 -0.002 0.001
         vertex -0.000216238 -0.00198828 0.001
      endloop
   endfacet
   facet normal 0 0 1
      outer loop
         vertex 0.000378417 -0.00347948 0.001
         vertex 0.000216238 -0.00198828 0.001
         vertex 2.44929e-19 -0.002 0.001
      endloop
   endfacet
   facet normal 0 0 1
      outer loop
         vertex 0.000378417 -0.00347948 0.001
         vertex 0.000752397 -0.00341817 0.001
         vertex 0.000429941 -0.00195324 0.001
      endloop
   endfacet
   facet normal 0 0 1
      outer loop
         vertex 0.00211811 -0.00278633 0.001
         vertex 0.00121035 -0.00159219 0.001
         vertex 0.00103111 -0.00171371 0.001
      endloop
   endfacet
   facet normal 0 0 1
      outer loop
         vertex 0.00211811 -0.00278633 0.001
         vertex 0.00240695 -0.00254098 0.001
         vertex 0.0013754 -0.00145199 0.001
      endloop
   endfacet
   facet normal 0 0 1
      outer loop
         vertex -0.0013754 -0.00145199 0.001
         vertex -0.00240695 -0.00254098 0.001
         vertex -0.00211811 -0.00278633 0.001
      endloop
   endfacet
   facet normal 0 0 1
      outer loop
         vertex -0.000429941 -0.00195324 0.001
         vertex -0.000638603 -0.00189531 0.001
         vertex -0.00111756 -0.00331679 0.001
      endloop
   endfacet
   facet normal 0 0 1
      outer loop
         vertex -0.000216238 -0.00198828 0.001
         vertex -0.000378417 -0.00347948 0.001
         vertex 1.28588e-18 -0.0035 0.001
      endloop
   endfacet
   facet normal 0 0 1
      outer loop
         vertex 0.000429941 -0.00195324 0.001
         vertex 0.000216238 -0.00198828 0.001
         vertex 0.000378417 -0.00347948 0.001
      endloop
   endfacet
   facet normal 0 0 1
      outer loop
         vertex 0.00146961 -0.00317651 0.001
         vertex 0.00180444 -0.002999 0.001
         vertex 0.00103111 -0.00171371 0.001
      endloop
   endfacet
   facet normal 0 0 1
      outer loop
         vertex 0.0013754 -0.00145199 0.001
         vertex 0.00121035 -0.00159219 0.001
         vertex 0.00211811 -0.00278633 0.001
      endloop
   endfacet
   facet normal 0 0 1
      outer loop
         vertex 0.00266757 -0.00226585 0.001
         vertex 0.00152432 -0.00129477 0.001
         vertex 0.0013754 -0.00145199 0.001
      endloop
   endfacet
   facet normal 0 0 1
      outer loop
         vertex 0.00266757 -0.00226585 0.001
         vertex 0.00289691 -0.00196415 0.001
         vertex 0.00165538 -0.00112237 0.001
      endloop
   endfacet
   facet normal 0 0 1
      outer loop
         vertex 0.00266757 0.00226585 0.001
         vertex 0.00152432 0.00129477 0.001
         vertex 0.00165538 0.00112237 0.001
      endloop
   endfacet
   facet normal 0 0 1
      outer loop
         vertex 0.00266757 0.00226585 0.001
         vertex 0.00240695 0.00254098 0.001
         vertex 0.0013754 0.00145199 0.001
      endloop
   endfacet
   facet normal 0 0 1
      outer loop
         vertex -0.00111756 0.00331679 0.001
         vertex -0.000638603 0.00189531 0.001
         vertex -0.000429941 0.00195324 0.001
      endloop
   endfacet
   facet normal 0 0 1
      outer loop
         vertex -0.00111756 0.00331679 0.001
         vertex -0.00146961 0.00317651 0.001
         vertex -0.000839778 0.00181515 0.001
      endloop
   endfacet
   facet normal 0 0 1
      outer loop
         vertex -0.00309229 0.00163943 0.001
         vertex -0.00176702 0.000936817 0.001
         vertex -0.00165538 0.00112237 0.001
      endloop
   endfacet
   facet normal 0 0 1
      outer loop
         vertex -0.00325142 0.00129548 0.001
         vertex -0.00185795 0.000740276 0.001
         vertex -0.00176702 0.000936817 0.001
      endloop
   endfacet
   facet normal 0 0 1
      outer loop
         vertex -0.000638603 -0.00189531 0.001
         vertex -0.000839778 -0.00181515 0.001
         vertex -0.00146961 -0.00317651 0.001
      endloop
   endfacet
   facet normal 0 0 1
      outer loop
         vertex 2.44929e-19 -0.002 0.001
         vertex 1.28588e-18 -0.0035 0.001
         vertex 0.000378417 -0.00347948 0.001
      endloop
   endfacet
   facet normal 0 0 1
      outer loop
         vertex 0.00111756 -0.00331679 0.001
         vertex 0.000638603 -0.00189531 0.001
         vertex 0.000429941 -0.00195324 0.001
      endloop
   endfacet
   facet normal 0 0 1
      outer loop
         vertex 0.00111756 -0.00331679 0.001
         vertex 0.00146961 -0.00317651 0.001
         vertex 0.000839778 -0.00181515 0.001
      endloop
   endfacet
   facet normal 0 0 1
      outer loop
         vertex 0.00103111 -0.00171371 0.001
         vertex 0.00180444 -0.002999 0.001
         vertex 0.00211811 -0.00278633 0.001
      endloop
   endfacet
   facet normal 0 0 1
      outer loop
         vertex 0.00165538 -0.00112237 0.001
         vertex 0.00152432 -0.00129477 0.001
         vertex 0.00266757 -0.00226585 0.001
      endloop
   endfacet
   facet normal 0 0 1
      outer loop
         vertex 0.00289691 -0.00196415 0.001
         vertex 0.00309229 -0.00163943 0.001
         vertex 0.00176702 -0.000936817 0.001
      endloop
   endfacet
   facet normal 0 0 1
      outer loop
         vertex 0.00309229 -0.00163943 0.001
         vertex 0.00325142 -0.00129548 0.001
         vertex 0.00185795 -0.000740276 0.001
      endloop
   endfacet
   facet normal 0 0 1
      outer loop
         vertex 0.0013754 0.00145199 0.001
         vertex 0.00152432 0.00129477 0.001
         vertex 0.00266757 0.00226585 0.001
      endloop
   endfacet
   facet normal 0 0 1
      outer loop
         vertex 0.00240695 0.00254098 0.001
         vertex 0.00211811 0.00278633 0.001
         vertex 0.00121035 0.00159219 0.001
      endloop
   endfacet
   facet normal 0 0 1
      outer loop
         vertex -0.000839778 0.00181515 0.001
         vertex -0.000638603 0.00189531 0.001
         vertex -0.00111756 0.00331679 0.001
      endloop
   endfacet
   facet normal 0 0 1
      outer loop
         vertex -0.00146961 0.00317651 0.001
         vertex -0.00180444 0.002999 0.001
         vertex -0.00103111 0.00171371 0.001
      endloop
   endfacet
   facet normal 0 0 1
      outer loop
         vertex -0.00240695 0.00254098 0.001
         vertex -0.0013754 0.00145199 0.001
         vertex -0.00121035 0.00159219 0.001
      endloop
   endfacet
   facet normal 0 0 1
      outer loop
         vertex -0.00240695 0.00254098 0.001
         vertex -0.00266757 0.00226585 0.001
         vertex -0.00152432 0.00129477 0.001
      endloop
   endfacet
   facet normal 0 0 1
      outer loop
         vertex -0.00176702 0.000936817 0.001
         vertex -0.00309229 0.00163943 0.001
         vertex -0.00325142 0.00129548 0.001
      endloop
   endfacet
   facet normal 0 0 1
      outer loop
         vertex -0.00337242 0.000936349 0.001
         vertex -0.0019271 0.000535057 0.001
         vertex -0.00185795 0.000740276 0.001
      endloop
   endfacet
   facet normal 0 0 1
      outer loop
         vertex -0.00349487 0.000189486 0.001
         vertex -0.00349487 -0.000189486 0.001
         vertex -0.00199707 -0.000108278 0.001
      endloop
   endfacet
   facet normal 0 0 1
      outer loop
         vertex -0.00349487 -0.000189486 0.001
         vertex -0.00345389 -0.000566237 0.001
         vertex -0.00197365 -0.000323564 0.001
      endloop
   endfacet
   facet normal 0 0 1
      outer loop
         vertex -0.000429941 -0.00195324 0.001
         vertex -0.000752397 -0.00341817 0.001
         vertex -0.000378417 -0.00347948 0.001
      endloop
   endfacet
   facet normal 0 0 1
      outer loop
         vertex 0.000839778 -0.00181515 0.001
         vertex 0.000638603 -0.00189531 0.001
         vertex 0.00111756 -0.00331679 0.001
      endloop
   endfacet
   facet normal 0 0 1
      outer loop
         vertex 0.0013754 -0.00145199 0.001
         vertex 0.00240695 -0.00254098 0.001
         vertex 0.00266757 -0.00226585 0.001
      endloop
   endfacet
   facet normal 0 0 1
      outer loop
         vertex 0.00185795 -0.000740276 0.001
         vertex 0.00176702 -0.000936817 0.001
         vertex 0.00309229 -0.00163943 0.001
      endloop
   endfacet
   facet normal 0 0 1
      outer loop
         vertex 0.00325142 0.00129548 0.001
         vertex 0.00185795 0.000740276 0.001
         vertex 0.0019271 0.000535057 0.001
      endloop
   endfacet
   facet normal 0 0 1
      outer loop
         vertex 0.00325142 0.00129548 0.001
         vertex 0.00309229 0.00163943 0.001
         vertex 0.00176702 0.000936817 0.001
      endloop
   endfacet
   facet normal 0 0 1
      outer loop
         vertex 0.00121035 0.00159219 0.001
         vertex 0.0013754 0.00145199 0.001
         vertex 0.00240695 0.00254098 0.001
      endloop
   endfacet
   facet normal 0 0 1
      outer loop
         vertex 0.00211811 0.00278633 0.001
         vertex 0.00180444 0.002999 0.001
         vertex 0.00103111 0.00171371 0.001
      endloop
   endfacet
   facet normal 0 0 1
      outer loop
         vertex -0.00103111 0.00171371 0.001
         vertex -0.000839778 0.00181515 0.001
         vertex -0.00146961 0.00317651 0.001
      endloop
   endfacet
   facet normal 0 0 1
      outer loop
         vertex -0.00180444 0.002999 0.001
         vertex -0.00211811 0.00278633 0.001
         vertex -0.00121035 0.00159219 0.001
      endloop
   endfacet
   facet normal 0 0 1
      outer loop
         vertex -0.00152432 0.00129477 0.001
         vertex -0.0013754 0.00145199 0.001
         vertex -0.00240695 0.00254098 0.001
      endloop
   endfacet
   facet normal 0 0 1
      outer loop
         vertex -0.00266757 0.00226585 0.001
         vertex -0.00289691 0.00196415 0.001
         vertex -0.00165538 0.00112237 0.001
      endloop
   endfacet
   facet normal 0 0 1
      outer loop
         vertex -0.00185795 0.000740276 0.001
         vertex -0.00325142 0.00129548 0.001
         vertex -0.00337242 0.000936349 0.001
      endloop
   endfacet
   facet normal 0 0 1
      outer loop
         vertex -0.00345389 0.000566237 0.001
         vertex -0.00197365 0.000323564 0.001
         vertex -0.0019271 0.000535057 0.001
      endloop
   endfacet
   facet normal 0 0 1
      outer loop
         vertex -0.00349487 0.000189486 0.001
         vertex -0.00199707 0.000108278 0.001
         vertex -0.00197365 0.000323564 0.001
      endloop
   endfacet
   facet normal 0 0 1
      outer loop
         vertex -0.00197365 -0.000323564 0.001
         vertex -0.00199707 -0.000108278 0.001
         vertex -0.00349487 -0.000189486 0.001
      endloop
   endfacet
   facet normal 0 0 1
      outer loop
         vertex 0.000429941 -0.00195324 0.001
         vertex 0.000752397 -0.00341817 0.001
         vertex 0.00111756 -0.00331679 0.001
      endloop
   endfacet
   facet normal 0 0 1
      outer loop
         vertex 0.00176702 -0.000936817 0.001
         vertex 0.00165538 -0.00112237 0.001
         vertex 0.00289691 -0.00196415 0.001
      endloop
   endfacet
   facet normal 0 0 1
      outer loop
         vertex 0.00337242 -0.000936349 0.001
         vertex 0.0019271 -0.000535057 0.001
         vertex 0.00185795 -0.000740276 0.001
      endloop
   endfacet
   facet normal 0 0 1
      outer loop
         vertex 0.00337242 -0.000936349 0.001
         vertex 0.00345389 -0.000566237 0.001
         vertex 0.00197365 -0.000323564 0.001
      endloop
   endfacet
   facet normal 0 0 1
      outer loop
         vertex 0.00176702 0.000936817 0.001
         vertex 0.00185795 0.000740276 0.001
         vertex 0.00325142 0.00129548 0.001
      endloop
   endfacet
   facet normal 0 0 1
      outer loop
         vertex 0.00309229 0.00163943 0.001
         vertex 0.00289691 0.00196415 0.001
         vertex 0.00165538 0.00112237 0.001
      endloop
   endfacet
   facet normal 0 0 1
      outer loop
         vertex 0.00103111 0.00171371 0.001
         vertex 0.00121035 0.00159219 0.001
         vertex 0.00211811 0.00278633 0.001
      endloop
   endfacet
   facet normal 0 0 1
      outer loop
         vertex 0.00146961 0.00317651 0.001
         vertex 0.000839778 0.00181515 0.001
         vertex 0.00103111 0.00171371 0.001
      endloop
   endfacet
   facet normal 0 0 1
      outer loop
         vertex 0.00111756 0.00331679 0.001
         vertex 0.000638603 0.00189531 0.001
         vertex 0.000839778 0.00181515 0.001
      endloop
   endfacet
   facet normal 0 0 1
      outer loop
         vertex 0.00111756 0.00331679 0.001
         vertex 0.000752397 0.00341817 0.001
         vertex 0.000429941 0.00195324 0.001
      endloop
   endfacet
   facet normal 0 0 1
      outer loop
         vertex 0.000378417 0.00347948 0.001
         vertex 0.000216238 0.00198828 0.001
         vertex 0.000429941 0.00195324 0.001
      endloop
   endfacet
   facet normal 0 0 1
      outer loop
         vertex 0 0.0035 0.001
         vertex 0 0.002 0.001
         vertex 0.000216238 0.00198828 0.001
      endloop
   endfacet
   facet normal 0 0 1
      outer loop
         vertex 0 0.0035 0.001
         vertex -0.000378417 0.00347948 0.001
         vertex -0.000216238 0.00198828 0.001
      endloop
   endfacet
   facet normal 0 0 1
      outer loop
         vertex -0.000378417 0.00347948 0.001
         vertex -0.000752397 0.00341817 0.001
         vertex -0.000429941 0.00195324 0.001
      endloop
   endfacet
   facet normal 0 0 1
      outer loop
         vertex -0.00121035 0.00159219 0.001
         vertex -0.00103111 0.00171371 0.001
         vertex -0.00180444 0.002999 0.001
      endloop
   endfacet
   facet normal 0 0 1
      outer loop
         vertex -0.00165538 0.00112237 0.001
         vertex -0.00152432 0.00129477 0.001
         vertex -0.00266757 0.00226585 0.001
      endloop
   endfacet
   facet normal 0 0 1
      outer loop
         vertex -0.0019271 0.000535057 0.001
         vertex -0.00337242 0.000936349 0.001
         vertex -0.00345389 0.000566237 0.001
      endloop
   endfacet
   facet normal 0 0 1
      outer loop
         vertex -0.00199707 -0.000108278 0.001
         vertex -0.00199707 0.000108278 0.001
         vertex -0.00349487 0.000189486 0.001
      endloop
   endfacet
   facet normal 0 0 1
      outer loop
         vertex -0.00337242 -0.000936349 0.001
         vertex -0.0019271 -0.000535057 0.001
         vertex -0.00197365 -0.000323564 0.001
      endloop
   endfacet
   facet normal 0 0 1
      outer loop
         vertex -0.00337242 -0.000936349 0.001
         vertex -0.00325142 -0.00129548 0.001
         vertex -0.00185795 -0.000740276 0.001
      endloop
   endfacet
   facet normal 0 0 1
      outer loop
         vertex 0.00103111 -0.00171371 0.001
         vertex 0.000839778 -0.00181515 0.001
         vertex 0.00146961 -0.00317651 0.001
      endloop
   endfacet
   facet normal 0 0 1
      outer loop
         vertex 0.00197365 -0.000323564 0.001
         vertex 0.0019271 -0.000535057 0.001
         vertex 0.00337242 -0.000936349 0.001
      endloop
   endfacet
   facet normal 0 0 1
      outer loop
         vertex 0.00337242 0.000936349 0.001
         vertex 0.0019271 0.000535057 0.001
         vertex 0.00197365 0.000323564 0.001
      endloop
   endfacet
   facet normal 0 0 1
      outer loop
         vertex 0.00165538 0.00112237 0.001
         vertex 0.00176702 0.000936817 0.001
         vertex 0.00309229 0.00163943 0.001
      endloop
   endfacet
   facet normal 0 0 1
      outer loop
         vertex 0.00103111 0.00171371 0.001
         vertex 0.00180444 0.002999 0.001
         vertex 0.00146961 0.00317651 0.001
      endloop
   endfacet
   facet normal 0 0 1
      outer loop
         vertex 0.000429941 0.00195324 0.001
         vertex 0.000638603 0.00189531 0.001
         vertex 0.00111756 0.00331679 0.001
      endloop
   endfacet
   facet normal 0 0 1
      outer loop
         vertex 0.000216238 0.00198828 0.001
         vertex 0.000378417 0.00347948 0.001
         vertex 0 0.0035 0.001
      endloop
   endfacet
   facet normal 0 0 1
      outer loop
         vertex -0.000429941 0.00195324 0.001
         vertex -0.000216238 0.00198828 0.001
         vertex -0.000378417 0.00347948 0.001
      endloop
   endfacet
   facet normal 0 0 1
      outer loop
         vertex -0.00121035 0.00159219 0.001
         vertex -0.00211811 0.00278633 0.001
         vertex -0.00240695 0.00254098 0.001
      endloop
   endfacet
   facet normal 0 0 1
      outer loop
         vertex -0.00197365 0.000323564 0.001
         vertex -0.00345389 0.000566237 0.001
         vertex -0.00349487 0.000189486 0.001
      endloop
   endfacet
   facet normal 0 0 1
      outer loop
         vertex -0.00185795 -0.000740276 0.001
         vertex -0.0019271 -0.000535057 0.001
         vertex -0.00337242 -0.000936349 0.001
      endloop
   endfacet
   facet normal 0 0 1
      outer loop
         vertex 0.00185795 -0.000740276 0.001
         vertex 0.00325142 -0.00129548 0.001
         vertex 0.00337242 -0.000936349 0.001
      endloop
   endfacet
   facet normal 0 0 1
      outer loop
         vertex 0.00349487 0.000189486 0.001
         vertex 0.00345389 0.000566237 0.001
         vertex 0.00197365 0.000323564 0.001
      endloop
   endfacet
   facet normal 0 0 1
      outer loop
         vertex 0.0019271 0.000535057 0.001
         vertex 0.00337242 0.000936349 0.001
         vertex 0.00325142 0.00129548 0.001
      endloop
   endfacet
   facet normal 0 0 1
      outer loop
         vertex 0.000839778 0.00181515 0.001
         vertex 0.00146961 0.00317651 0.001
         vertex 0.00111756 0.00331679 0.001
      endloop
   endfacet
   facet normal 0 0 1
      outer loop
         vertex -0.000216238 0.00198828 0.001
         vertex 0 0.002 0.001
         vertex 0 0.0035 0.001
      endloop
   endfacet
   facet normal 0 0 1
      outer loop
         vertex -0.00165538 0.00112237 0.001
         vertex -0.00289691 0.00196415 0.001
         vertex -0.00309229 0.00163943 0.001
      endloop
   endfacet
   facet normal 0 0 1
      outer loop
         vertex -0.00185795 -0.000740276 0.001
         vertex -0.00325142 -0.00129548 0.001
         vertex -0.00309229 -0.00163943 0.001
      endloop
   endfacet
   facet normal 0 0 1
      outer loop
         vertex 0.00349487 -0.000189486 0.001
         vertex 0.00199707 -0.000108278 0.001
         vertex 0.00197365 -0.000323564 0.001
      endloop
   endfacet
   facet normal 0 0 1
      outer loop
         vertex 0.00349487 -0.000189486 0.001
         vertex 0.00349487 0.000189486 0.001
         vertex 0.00199707 0.000108278 0.001
      endloop
   endfacet
   facet normal 0 0 1
      outer loop
         vertex 0.00197365 0.000323564 0.001
         vertex 0.00345389 0.000566237 0.001
         vertex 0.00337242 0.000936349 0.001
      endloop
   endfacet
   facet normal 0 0 1
      outer loop
         vertex 0.000429941 0.00195324 0.001
         vertex 0.000752397 0.00341817 0.001
         vertex 0.000378417 0.00347948 0.001
      endloop
   endfacet
   facet normal 0 0 1
      outer loop
         vertex -0.00197365 -0.000323564 0.001
         vertex -0.00345389 -0.000566237 0.001
         vertex -0.00337242 -0.000936349 0.001
      endloop
   endfacet
   facet normal 0 0 1
      outer loop
         vertex 0.00199707 0.000108278 0.001
         vertex 0.00199707 -0.000108278 0.001
         vertex 0.00349487 -0.000189486 0.001
      endloop
   endfacet
   facet normal 0 0 1
      outer loop
         vertex 0.00165538 0.00112237 0.001
         vertex 0.00289691 0.00196415 0.001
         vertex 0.00266757 0.00226585 0.001
      endloop
   endfacet
   facet normal 0 0 1
      outer loop
         vertex 0.00197365 -0.000323564 0.001
         vertex 0.00345389 -0.000566237 0.001
         vertex 0.00349487 -0.000189486 0.001
      endloop
   endfacet
   facet normal 0 0 1
      outer loop
         vertex -0.000429941 0.00195324 0.001
         vertex -0.000752397 0.00341817 0.001
         vertex -0.00111756 0.00331679 0.001
      endloop
   endfacet
   facet normal 0 0 1
      outer loop
         vertex 0.00197365 0.000323564 0.001
         vertex 0.00199707 0.000108278 0.001
         vertex 0.00349487 0.000189486 0.001
      endloop
   endfacet
   facet normal 0 1 0
      outer loop
         vertex 0 0.0035 0
         vertex 0 0.0035 0.001
         vertex 0.000378417 0.00347948 0.001
      endloop
   endfacet
   facet normal 0.108119 0.994138 0
      outer loop
         vertex 0.000378417 0.00347948 0
         vertex 0.000378417 0.00347948 0.001
         vertex 0.000752397 0.00341817 0.001
      endloop
   endfacet
   facet normal 0.21497 0.976621 0
      outer loop
         vertex 0.000752397 0.00341817 0
         vertex 0.000752397 0.00341817 0.001
         vertex 0.00111756 0.00331679 0.001
      endloop
   endfacet
   facet normal 0.319302 0.947653 0
      outer loop
         vertex 0.00111756 0.00331679 0
         vertex 0.00111756 0.00331679 0.001
         vertex 0.00146961 0.00317651 0.001
      endloop
   endfacet
   facet normal 0.419889 0.907575 0
      outer loop
         vertex 0.00146961 0.00317651 0
         vertex 0.00146961 0.00317651 0.001
         vertex 0.00180444 0.002999 0.001
      endloop
   endfacet
   facet normal 0.515554 0.856857 0
      outer loop
         vertex 0.00180444 0.002999 0
         vertex 0.00180444 0.002999 0.001
         vertex 0.00211811 0.00278633 0.001
      endloop
   endfacet
   facet normal 0.605174 0.796093 0
      outer loop
         vertex 0.00211811 0.00278633 0
         vertex 0.00211811 0.00278633 0.001
         vertex 0.00240695 0.00254098 0.001
      endloop
   endfacet
   facet normal 0.687699 0.725995 0
      outer loop
         vertex 0.00240695 0.00254098 0
         vertex 0.00240695 0.00254098 0.001
         vertex 0.00266757 0.00226585 0.001
      endloop
   endfacet
   facet normal 0.762162 0.647386 0
      outer loop
         vertex 0.00266757 0.00226585 0
         vertex 0.00266757 0.00226585 0.001
         vertex 0.00289691 0.00196415 0.001
      endloop
   endfacet
   facet normal 0.827689 0.561187 0
      outer loop
         vertex 0.00289691 0.00196415 0
         vertex 0.00289691 0.00196415 0.001
         vertex 0.00309229 0.00163943 0.001
      endloop
   endfacet
   facet normal 0.883512 0.468408 0
      outer loop
         vertex 0.00309229 0.00163943 0
         vertex 0.00309229 0.00163943 0.001
         vertex 0.00325142 0.00129548 0.001
      endloop
   endfacet
   facet normal 0.928977 0.370138 0
      outer loop
         vertex 0.00325142 0.00129548 0
         vertex 0.00325142 0.00129548 0.001
         vertex 0.00337242 0.000936349 0.001
      endloop
   endfacet
   facet normal 0.96355 0.267528 0
      outer loop
         vertex 0.00337242 0.000936349 0
         vertex 0.00337242 0.000936349 0.001
         vertex 0.00345389 0.000566237 0.001
      endloop
   endfacet
   facet normal 0.986827 0.161782 0
      outer loop
         vertex 0.00345389 0.000566237 0
         vertex 0.00345389 0.000566237 0.001
         vertex 0.00349487 0.000189486 0.001
      endloop
   endfacet
   facet normal 0.998533 0.0541389 0
      outer loop
         vertex 0.00349487 0.000189486 0
         vertex 0.00349487 0.000189486 0.001
         vertex 0.00349487 -0.000189486 0.001
      endloop
   endfacet
   facet normal 0.998533 -0.0541389 0
      outer loop
         vertex 0.00349487 -0.000189486 0
         vertex 0.00349487 -0.000189486 0.001
         vertex 0.00345389 -0.000566237 0.001
      endloop
   endfacet
   facet normal 0.986827 -0.161782 0
      outer loop
         vertex 0.00345389 -0.000566237 0
         vertex 0.00345389 -0.000566237 0.001
         vertex 0.00337242 -0.000936349 0.001
      endloop
   endfacet
   facet normal 0.96355 -0.267528 0
      outer loop
         vertex 0.00337242 -0.000936349 0
         vertex 0.00337242 -0.000936349 0.001
         vertex 0.00325142 -0.00129548 0.001
      endloop
   endfacet
   facet normal 0.928977 -0.370138 0
      outer loop
         vertex 0.00325142 -0.00129548 0
         vertex 0.00325142 -0.00129548 0.001
         vertex 0.00309229 -0.00163943 0.001
      endloop
   endfacet
   facet normal 0.883512 -0.468408 0
      outer loop
         vertex 0.00309229 -0.00163943 0
         vertex 0.00309229 -0.00163943 0.001
         vertex 0.00289691 -0.00196415 0.001
      endloop
   endfacet
   facet normal 0.827689 -0.561187 0
      outer loop
         vertex 0.00289691 -0.00196415 0
         vertex 0.00289691 -0.00196415 0.001
         vertex 0.00266757 -0.00226585 0.001
      endloop
   endfacet
   facet normal 0.762162 -0.647386 0
      outer loop
         vertex 0.00266757 -0.00226585 0
         vertex 0.00266757 -0.00226585 0.001
         vertex 0.00240695 -0.00254098 0.001
      endloop
   endfacet
   facet normal 0.687699 -0.725995 0
      outer loop
         vertex 0.00240695 -0.00254098 0
         vertex 0.00240695 -0.00254098 0.001
         vertex 0.00211811 -0.00278633 0.001
      endloop
   endfacet
   facet normal 0.605174 -0.796093 0
      outer loop
         vertex 0.00211811 -0.00278633 0
         vertex 0.00211811 -0.00278633 0.001
         vertex 0.00180444 -0.002999 0.001
      endloop
   endfacet
   facet normal 0.515554 -0.856857 0
      outer loop
         vertex 0.00180444 -0.002999 0
         vertex 0.00180444 -0.002999 0.001
         vertex 0.00146961 -0.00317651 0.001
      endloop
   endfacet
   facet normal 0.419889 -0.907575 0
      outer loop
         vertex 0.00146961 -0.00317651 0
         vertex 0.00146961 -0.00317651 0.001
         vertex 0.00111756 -0.00331679 0.001
      endloop
   endfacet
   facet normal 0.319302 -0.947653 0
      outer loop
         vertex 0.00111756 -0.00331679 0
         vertex 0.00111756 -0.00331679 0.001
         vertex 0.000752397 -0.00341817 0.001
      endloop
   endfacet
   facet normal 0.21497 -0.976621 0
      outer loop
         vertex 0.000752397 -0.00341817 0
         vertex 0.000752397 -0.00341817 0.001
         vertex 0.000378417 -0.00347948 0.001
      endloop
   endfacet
   facet normal 0.108119 -0.994138 0
      outer loop
         vertex 0.000378417 -0.00347948 0
         vertex 0.000378417 -0.00347948 0.001
         vertex 1.28588e-18 -0.0035 0.001
      endloop
   endfacet
   facet normal 1.22465e-16 -1 0
      outer loop
         vertex 4.28626e-19 -0.0035 0
         vertex 1.28588e-18 -0.0035 0.001
         vertex -0.000378417 -0.00347948 0.001
      endloop
   endfacet
   facet normal -0.108119 -0.994138 0
      outer loop
         vertex -0.000378417 -0.00347948 0
         vertex -0.000378417 -0.00347948 0.001
         vertex -0.000752397 -0.00341817 0.001
      endloop
   endfacet
   facet normal -0.21497 -0.976621 0
      outer loop
         vertex -0.000752397 -0.00341817 0
         vertex -0.000752397 -0.00341817 0.001
         vertex -0.00111756 -0.00331679 0.001
      endloop
   endfacet
   facet normal -0.319302 -0.947653 0
      outer loop
         vertex -0.00111756 -0.00331679 0
         vertex -0.00111756 -0.00331679 0.001
         vertex -0.00146961 -0.00317651 0.001
      endloop
   endfacet
   facet normal -0.419889 -0.907575 0
      outer loop
         vertex -0.00146961 -0.00317651 0
         vertex -0.00146961 -0.00317651 0.001
         vertex -0.00180444 -0.002999 0.001
      endloop
   endfacet
   facet normal -0.515554 -0.856857 0
      outer loop
         vertex -0.00180444 -0.002999 0
         vertex -0.00180444 -0.002999 0.001
         vertex -0.00211811 -0.00278633 0.001
      endloop
   endfacet
   facet normal -0.605174 -0.796093 0
      outer loop
         vertex -0.00211811 -0.00278633 0
         vertex -0.00211811 -0.00278633 0.001
         vertex -0.00240695 -0.00254098 0.001
      endloop
   endfacet
   facet normal -0.687699 -0.725995 0
      outer loop
         vertex -0.00240695 -0.00254098 0
         vertex -0.00240695 -0.00254098 0.001
         vertex -0.00266757 -0.00226585 0.001
      endloop
   endfacet
   facet normal -0.762162 -0.647386 0
      outer loop
         vertex -0.00266757 -0.00226585 0
         vertex -0.00266757 -0.00226585 0.001
         vertex -0.00289691 -0.00196415 0.001
      endloop
   endfacet
   facet normal -0.827689 -0.561187 0
      outer loop
         vertex -0.00289691 -0.00196415 0
         vertex -0.00289691 -0.00196415 0.001
         vertex -0.00309229 -0.00163943 0.001
      endloop
   endfacet
   facet normal -0.883512 -0.468408 0
      outer loop
         vertex -0.00309229 -0.00163943 0
         vertex -0.00309229 -0.00163943 0.001
         vertex -0.00325142 -0.00129548 0.001
      endloop
   endfacet
   facet normal -0.928977 -0.370138 0
      outer loop
         vertex -0.00325142 -0.00129548 0
         vertex -0.00325142 -0.00129548 0.001
         vertex -0.00337242 -0.000936349 0.001
      endloop
   endfacet
   facet normal -0.96355 -0.267528 0
      outer loop
         vertex -0.00337242 -0.000936349 0
         vertex -0.00337242 -0.000936349 0.001
         vertex -0.00345389 -0.000566237 0.001
      endloop
   endfacet
   facet normal -0.986827 -0.161782 0
      outer loop
         vertex -0.00345389 -0.000566237 0
         vertex -0.00345389 -0.000566237 0.001
         vertex -0.00349487 -0.000189486 0.001
      endloop
   endfacet
   facet normal -0.998533 -0.0541389 0
      outer loop
         vertex -0.00349487 -0.000189486 0
         vertex -0.00349487 -0.000189486 0.001
         vertex -0.00349487 0.000189486 0.001
      endloop
   endfacet
   facet normal -0.998533 0.0541389 0
      outer loop
         vertex -0.00349487 0.000189486 0
         vertex -0.00349487 0.000189486 0.001
         vertex -0.00345389 0.000566237 0.001
      endloop
   endfacet
   facet normal -0.986827 0.161782 0
      outer loop
         vertex -0.00345389 0.000566237 0
         vertex -0.00345389 0.000566237 0.001
         vertex -0.00337242 0.000936349 0.001
      endloop
   endfacet
   facet normal -0.96355 0.267528 0
      outer loop
         vertex -0.00337242 0.000936349 0
         vertex -0.00337242 0.000936349 0.001
         vertex -0.00325142 0.00129548 0.001
      endloop
   endfacet
   facet normal -0.928977 0.370138 0
      outer loop
         vertex -0.00325142 0.00129548 0
         vertex -0.00325142 0.00129548 0.001
         vertex -0.00309229 0.00163943 0.001
      endloop
   endfacet
   facet normal -0.883512 0.468408 0
      outer loop
         vertex -0.00309229 0.00163943 0
         vertex -0.00309229 0.00163943 0.001
         vertex -0.00289691 0.00196415 0.001
      endloop
   endfacet
   facet normal -0.827689 0.561187 0
      outer loop
         vertex -0.00289691 0.00196415 0
         vertex -0.00289691 0.00196415 0.001
         vertex -0.00266757 0.00226585 0.001
      endloop
   endfacet
   facet normal -0.762162 0.647386 0
      outer loop
         vertex -0.00266757 0.00226585 0
         vertex -0.00266757 0.00226585 0.001
         vertex -0.00240695 0.00254098 0.001
      endloop
   endfacet
   facet normal -0.687699 0.725995 0
      outer loop
         vertex -0.00240695 0.00254098 0
         vertex -0.00240695 0.00254098 0.001
         vertex -0.00211811 0.00278633 0.001
      endloop
   endfacet
   facet normal -0.605174 0.796093 0
      outer loop
         vertex -0.00211811 0.00278633 0
         vertex -0.00211811 0.00278633 0.001
         vertex -0.00180444 0.002999 0.001
      endloop
   endfacet
   facet normal -0.515554 0.856857 0
      outer loop
         vertex -0.00180444 0.002999 0
         vertex -0.00180444 0.002999 0.001
         vertex -0.00146961 0.00317651 0.001
      endloop
   endfacet
   facet normal -0.419889 0.907575 0
      outer loop
         vertex -0.00146961 0.00317651 0
         vertex -0.00146961 0.00317651 0.001
         vertex -0.00111756 0.00331679 0.001
      endloop
   endfacet
   facet normal -0.319302 0.947653 0
      outer loop
         vertex -0.00111756 0.00331679 0
         vertex -0.00111756 0.00331679 0.001
         vertex -0.000752397 0.00341817 0.001
      endloop
   endfacet
   facet normal -0.21497 0.976621 0
      outer loop
         vertex -0.000752397 0.00341817 0
         vertex -0.000752397 0.00341817 0.001
         vertex -0.000378417 0.00347948 0.001
      endloop
   endfacet
   facet normal -0.108119 0.994138 0
      outer loop
         vertex -0.000378417 0.00347948 0
         vertex -0.000378417 0.00347948 0.001
         vertex 0 0.0035 0.001
      endloop
   endfacet
   facet normal 0 1 0
      outer loop
         vertex 0 0.0035 0.001
         vertex 0 0.0035 0
         vertex -0.000378417 0.00347948 0
      endloop
   endfacet
   facet normal -0.108119 0.994138 0
      outer loop
         vertex -0.000378417 0.00347948 0.001
         vertex -0.000378417 0.00347948 0
         vertex -0.000752397 0.00341817 0
      endloop
   endfacet
   facet normal -0.21497 0.976621 0
      outer loop
         vertex -0.000752397 0.00341817 0.001
         vertex -0.000752397 0.00341817 0
         vertex -0.00111756 0.00331679 0
      endloop
   endfacet
   facet normal -0.319302 0.947653 0
      outer loop
         vertex -0.00111756 0.00331679 0.001
         vertex -0.00111756 0.00331679 0
         vertex -0.00146961 0.00317651 0
      endloop
   endfacet
   facet normal -0.419889 0.907575 0
      outer loop
         vertex -0.00146961 0.00317651 0.001
         vertex -0.00146961 0.00317651 0
         vertex -0.00180444 0.002999 0
      endloop
   endfacet
   facet normal -0.515554 0.856857 0
      outer loop
         vertex -0.00180444 0.002999 0.001
         vertex -0.00180444 0.002999 0
         vertex -0.00211811 0.00278633 0
      endloop
   endfacet
   facet normal -0.605174 0.796093 0
      outer loop
         vertex -0.00211811 0.00278633 0.001
         vertex -0.00211811 0.00278633 0
         vertex -0.00240695 0.00254098 0
      endloop
   endfacet
   facet normal -0.687699 0.725995 0
      outer loop
         vertex -0.00240695 0.00254098 0.001
         vertex -0.00240695 0.00254098 0
         vertex -0.00266757 0.00226585 0
      endloop
   endfacet
   facet normal -0.762162 0.647386 0
      outer loop
         vertex -0.00266757 0.00226585 0.001
         vertex -0.00266757 0.00226585 0
         vertex -0.00289691 0.00196415 0
      endloop
   endfacet
   facet normal -0.827689 0.561187 0
      outer loop
         vertex -0.00289691 0.00196415 0.001
         vertex -0.00289691 0.00196415 0
         vertex -0.00309229 0.00163943 0
      endloop
   endfacet
   facet normal -0.883512 0.468408 0
      outer loop
         vertex -0.00309229 0.00163943 0.001
         vertex -0.00309229 0.00163943 0
         vertex -0.00325142 0.00129548 0
      endloop
   endfacet
   facet normal -0.928977 0.370138 0
      outer loop
         vertex -0.00325142 0.00129548 0.001
         vertex -0.00325142 0.00129548 0
         vertex -0.00337242 0.000936349 0
      endloop
   endfacet
   facet normal -0.96355 0.267528 0
      outer loop
         vertex -0.00337242 0.000936349 0.001
         vertex -0.00337242 0.000936349 0
         vertex -0.00345389 0.000566237 0
      endloop
   endfacet
   facet normal -0.986827 0.161782 0
      outer loop
         vertex -0.00345389 0.000566237 0.001
         vertex -0.00345389 0.000566237 0
         vertex -0.00349487 0.000189486 0
      endloop
   endfacet
   facet normal -0.998533 0.0541389 0
      outer loop
         vertex -0.00349487 0.000189486 0.001
         vertex -0.00349487 0.000189486 0
         vertex -0.00349487 -0.000189486 0
      endloop
   endfacet
   facet normal -0.998533 -0.0541389 0
      outer loop
         vertex -0.00349487 -0.000189486 0.001
         vertex -0.00349487 -0.000189486 0
         vertex -0.00345389 -0.000566237 0
      endloop
   endfacet
   facet normal -0.986827 -0.161782 0
      outer loop
         vertex -0.00345389 -0.000566237 0.001
         vertex -0.00345389 -0.000566237 0
         vertex -0.00337242 -0.000936349 0
      endloop
   endfacet
   facet normal -0.96355 -0.267528 0
      outer loop
         vertex -0.00337242 -0.000936349 0.001
         vertex -0.00337242 -0.000936349 0
         vertex -0.00325142 -0.00129548 0
      endloop
   endfacet
   facet normal -0.928977 -0.370138 0
      outer loop
         vertex -0.00325142 -0.00129548 0.001
         vertex -0.00325142 -0.00129548 0
         vertex -0.00309229 -0.00163943 0
      endloop
   endfacet
   facet normal -0.883512 -0.468408 0
      outer loop
         vertex -0.00309229 -0.00163943 0.001
         vertex -0.00309229 -0.00163943 0
         vertex -0.00289691 -0.00196415 0
      endloop
   endfacet
   facet normal -0.827689 -0.561187 0
      outer loop
         vertex -0.00289691 -0.00196415 0.001
         vertex -0.00289691 -0.00196415 0
         vertex -0.00266757 -0.00226585 0
      endloop
   endfacet
   facet normal -0.762162 -0.647386 0
      outer loop
         vertex -0.00266757 -0.00226585 0.001
         vertex -0.00266757 -0.00226585 0
         vertex -0.00240695 -0.00254098 0
      endloop
   endfacet
   facet normal -0.687699 -0.725995 0
      outer loop
         vertex -0.00240695 -0.00254098 0.001
         vertex -0.00240695 -0.00254098 0
         vertex -0.00211811 -0.00278633 0
      endloop
   endfacet
   facet normal -0.605174 -0.796093 0
      outer loop
         vertex -0.00211811 -0.00278633 0.001
         vertex -0.00211811 -0.00278633 0
         vertex -0.00180444 -0.002999 0
      endloop
   endfacet
   facet normal -0.515554 -0.856857 0
      outer loop
         vertex -0.00180444 -0.002999 0.001
         vertex -0.00180444 -0.002999 0
         vertex -0.00146961 -0.00317651 0
      endloop
   endfacet
   facet normal -0.419889 -0.907575 0
      outer loop
         vertex -0.00146961 -0.00317651 0.001
         vertex -0.00146961 -0.00317651 0
         vertex -0.00111756 -0.00331679 0
      endloop
   endfacet
   facet normal -0.319302 -0.947653 0
      outer loop
         vertex -0.00111756 -0.00331679 0.001
         vertex -0.00111756 -0.00331679 0
         vertex -0.000752397 -0.00341817 0
      endloop
   endfacet
   facet normal -0.21497 -0.976621 0
      outer loop
         vertex -0.000752397 -0.00341817 0.001
         vertex -0.000752397 -0.00341817 0
         vertex -0.000378417 -0.00347948 0
      endloop
   endfacet
   facet normal -0.108119 -0.994138 0
      outer loop
         vertex -0.000378417 -0.00347948 0.001
         vertex -0.000378417 -0.00347948 0
         vertex 4.28626e-19 -0.0035 0
      endloop
   endfacet
   facet normal 1.22465e-16 -1 0
      outer loop
         vertex 1.28588e-18 -0.0035 0.001
         vertex 4.28626e-19 -0.0035 0
         vertex 0.000378417 -0.00347948 0
      endloop
   endfacet
   facet normal 0.108119 -0.994138 0
      outer loop
         vertex 0.000378417 -0.00347948 0.001
         vertex 0.000378417 -0.00347948 0
         vertex 0.000752397 -0.00341817 0
      endloop
   endfacet
   facet normal 0.21497 -0.976621 0
      outer loop
         vertex 0.000752397 -0.00341817 0.001
         vertex 0.000752397 -0.00341817 0
         vertex 0.00111756 -0.00331679 0
      endloop
   endfacet
   facet normal 0.319302 -0.947653 0
      outer loop
         vertex 0.00111756 -0.00331679 0.001
         vertex 0.00111756 -0.00331679 0
         vertex 0.00146961 -0.00317651 0
      endloop
   endfacet
   facet normal 0.419889 -0.907575 0
      outer loop
         vertex 0.00146961 -0.00317651 0.001
         vertex 0.00146961 -0.00317651 0
         vertex 0.00180444 -0.002999 0
      endloop
   endfacet
   facet normal 0.515554 -0.856857 0
      outer loop
         vertex 0.00180444 -0.002999 0.001
         vertex 0.00180444 -0.002999 0
         vertex 0.00211811 -0.00278633 0
      endloop
   endfacet
   facet normal 0.605174 -0.796093 0
      outer loop
         vertex 0.00211811 -0.00278633 0.001
         vertex 0.00211811 -0.00278633 0
         vertex 0.00240695 -0.00254098 0
      endloop
   endfacet
   facet normal 0.687699 -0.725995 0
      outer loop
         vertex 0.00240695 -0.00254098 0.001
         vertex 0.00240695 -0.00254098 0
         vertex 0.00266757 -0.00226585 0
      endloop
   endfacet
   facet normal 0.762162 -0.647386 0
      outer loop
         vertex 0.00266757 -0.00226585 0.001
         vertex 0.00266757 -0.00226585 0
         vertex 0.00289691 -0.00196415 0
      endloop
   endfacet
   facet normal 0.827689 -0.561187 0
      outer loop
         vertex 0.00289691 -0.00196415 0.001
         vertex 0.00289691 -0.00196415 0
         vertex 0.00309229 -0.00163943 0
      endloop
   endfacet
   facet normal 0.883512 -0.468408 0
      outer loop
         vertex 0.00309229 -0.00163943 0.001
         vertex 0.00309229 -0.00163943 0
         vertex 0.00325142 -0.00129548 0
      endloop
   endfacet
   facet normal 0.928977 -0.370138 0
      outer loop
         vertex 0.00325142 -0.00129548 0.001
         vertex 0.00325142 -0.00129548 0
         vertex 0.00337242 -0.000936349 0
      endloop
   endfacet
   facet normal 0.96355 -0.267528 0
      outer loop
         vertex 0.00337242 -0.000936349 0.001
         vertex 0.00337242 -0.000936349 0
         vertex 0.00345389 -0.000566237 0
      endloop
   endfacet
   facet normal 0.986827 -0.161782 0
      outer loop
         vertex 0.00345389 -0.000566237 0.001
         vertex 0.00345389 -0.000566237 0
         vertex 0.00349487 -0.000189486 0
      endloop
   endfacet
   facet normal 0.998533 -0.0541389 0
      outer loop
         vertex 0.00349487 -0.000189486 0.001
         vertex 0.00349487 -0.000189486 0
         vertex 0.00349487 0.000189486 0
      endloop
   endfacet
   facet normal 0.998533 0.0541389 0
      outer loop
         vertex 0.00349487 0.000189486 0.001
         vertex 0.00349487 0.000189486 0
         vertex 0.00345389 0.000566237 0
      endloop
   endfacet
   facet normal 0.986827 0.161782 0
      outer loop
         vertex 0.00345389 0.000566237 0.001
         vertex 0.00345389 0.000566237 0
         vertex 0.00337242 0.000936349 0
      endloop
   endfacet
   facet normal 0.96355 0.267528 0
      outer loop
         vertex 0.00337242 0.000936349 0.001
         vertex 0.00337242 0.000936349 0
         vertex 0.00325142 0.00129548 0
      endloop
   endfacet
   facet normal 0.928977 0.370138 0
      outer loop
         vertex 0.00325142 0.00129548 0.001
         vertex 0.00325142 0.00129548 0
         vertex 0.00309229 0.00163943 0
      endloop
   endfacet
   facet normal 0.883512 0.468408 0
      outer loop
         vertex 0.00309229 0.00163943 0.001
         vertex 0.00309229 0.00163943 0
         vertex 0.00289691 0.00196415 0
      endloop
   endfacet
   facet normal 0.827689 0.561187 0
      outer loop
         vertex 0.00289691 0.00196415 0.001
         vertex 0.00289691 0.00196415 0
         vertex 0.00266757 0.00226585 0
      endloop
   endfacet
   facet normal 0.762162 0.647386 0
      outer loop
         vertex 0.00266757 0.00226585 0.001
         vertex 0.00266757 0.00226585 0
         vertex 0.00240695 0.00254098 0
      endloop
   endfacet
   facet normal 0.687699 0.725995 0
      outer loop
         vertex 0.00240695 0.00254098 0.001
         vertex 0.00240695 0.00254098 0
         vertex 0.00211811 0.00278633 0
      endloop
   endfacet
   facet normal 0.605174 0.796093 0
      outer loop
         vertex 0.00211811 0.00278633 0.001
         vertex 0.00211811 0.00278633 0
         vertex 0.00180444 0.002999 0
      endloop
   endfacet
   facet normal 0.515554 0.856857 0
      outer loop
         vertex 0.00180444 0.002999 0.001
         vertex 0.00180444 0.002999 0
         vertex 0.00146961 0.00317651 0
      endloop
   endfacet
   facet normal 0.419889 0.907575 0
      outer loop
         vertex 0.00146961 0.00317651 0.001
         vertex 0.00146961 0.00317651 0
         vertex 0.00111756 0.00331679 0
      endloop
   endfacet
   facet normal 0.319302 0.947653 0
      outer loop
         vertex 0.00111756 0.00331679 0.001
         vertex 0.00111756 0.00331679 0
         vertex 0.000752397 0.00341817 0
      endloop
   endfacet
   facet normal 0.21497 0.976621 0
      outer loop
         vertex 0.000752397 0.00341817 0.001
         vertex 0.000752397 0.00341817 0
         vertex 0.000378417 0.00347948 0
      endloop
   endfacet
   facet normal 0.108119 0.994138 0
      outer loop
         vertex 0.000378417 0.00347948 0.001
         vertex 0.000378417 0.00347948 0
         vertex 0 0.0035 0
      endloop
   endfacet
   facet normal 0 0 -1
      outer loop
         vertex 0.00309229 -0.00163943 0
         vertex 0.00176702 -0.000936817 0
         vertex 0.00185795 -0.000740276 0
      endloop
   endfacet
   facet normal 0 0 -1
      outer loop
         vertex 0.00309229 -0.00163943 0
         vertex 0.00289691 -0.00196415 0
         vertex 0.00165538 -0.00112237 0
      endloop
   endfacet
   facet normal 0 0 -1
      outer loop
         vertex 0.00266757 -0.00226585 0
         vertex 0.00152432 -0.00129477 0
         vertex 0.00165538 -0.00112237 0
      endloop
   endfacet
   facet normal 0 0 -1
      outer loop
         vertex 0.00266757 -0.00226585 0
         vertex 0.00240695 -0.00254098 0
         vertex 0.0013754 -0.00145199 0
      endloop
   endfacet
   facet normal 0 0 -1
      outer loop
         vertex 0.00165538 -0.00112237 0
         vertex 0.00176702 -0.000936817 0
         vertex 0.00309229 -0.00163943 0
      endloop
   endfacet
   facet normal 0 0 -1
      outer loop
         vertex 0.0013754 -0.00145199 0
         vertex 0.00152432 -0.00129477 0
         vertex 0.00266757 -0.00226585 0
      endloop
   endfacet
   facet normal 0 0 -1
      outer loop
         vertex 0.00211811 -0.00278633 0
         vertex 0.00121035 -0.00159219 0
         vertex 0.0013754 -0.00145199 0
      endloop
   endfacet
   facet normal 0 0 -1
      outer loop
         vertex 0.00211811 -0.00278633 0
         vertex 0.00180444 -0.002999 0
         vertex 0.00103111 -0.00171371 0
      endloop
   endfacet
   facet normal 0 0 -1
      outer loop
         vertex 0.00266757 0.00226585 0
         vertex 0.00152432 0.00129477 0
         vertex 0.0013754 0.00145199 0
      endloop
   endfacet
   facet normal 0 0 -1
      outer loop
         vertex 0.00266757 0.00226585 0
         vertex 0.00289691 0.00196415 0
         vertex 0.00165538 0.00112237 0
      endloop
   endfacet
   facet normal 0 0 -1
      outer loop
         vertex 0.00165538 -0.00112237 0
         vertex 0.00289691 -0.00196415 0
         vertex 0.00266757 -0.00226585 0
      endloop
   endfacet
   facet normal 0 0 -1
      outer loop
         vertex 0.00103111 -0.00171371 0
         vertex 0.00121035 -0.00159219 0
         vertex 0.00211811 -0.00278633 0
      endloop
   endfacet
   facet normal 0 0 -1
      outer loop
         vertex -0.00180444 -0.002999 0
         vertex -0.00103111 -0.00171371 0
         vertex -0.000839778 -0.00181515 0
      endloop
   endfacet
   facet normal 0 0 -1
      outer loop
         vertex -0.00180444 -0.002999 0
         vertex -0.00211811 -0.00278633 0
         vertex -0.00121035 -0.00159219 0
      endloop
   endfacet
   facet normal 0 0 -1
      outer loop
         vertex -0.000378417 0.00347948 0
         vertex -0.000216238 0.00198828 0
         vertex -0.000429941 0.00195324 0
      endloop
   endfacet
   facet normal 0 0 -1
      outer loop
         vertex -0.000378417 0.00347948 0
         vertex 0 0.0035 0
         vertex 0 0.002 0
      endloop
   endfacet
   facet normal 0 0 -1
      outer loop
         vertex 0.00111756 0.00331679 0
         vertex 0.000638603 0.00189531 0
         vertex 0.000429941 0.00195324 0
      endloop
   endfacet
   facet normal 0 0 -1
      outer loop
         vertex 0.00111756 0.00331679 0
         vertex 0.00146961 0.00317651 0
         vertex 0.000839778 0.00181515 0
      endloop
   endfacet
   facet normal 0 0 -1
      outer loop
         vertex 0.00240695 0.00254098 0
         vertex 0.0013754 0.00145199 0
         vertex 0.00121035 0.00159219 0
      endloop
   endfacet
   facet normal 0 0 -1
      outer loop
         vertex 0.00165538 0.00112237 0
         vertex 0.00152432 0.00129477 0
         vertex 0.00266757 0.00226585 0
      endloop
   endfacet
   facet normal 0 0 -1
      outer loop
         vertex 0.00337242 -0.000936349 0
         vertex 0.0019271 -0.000535057 0
         vertex 0.00197365 -0.000323564 0
      endloop
   endfacet
   facet normal 0 0 -1
      outer loop
         vertex 0.00337242 -0.000936349 0
         vertex 0.00325142 -0.00129548 0
         vertex 0.00185795 -0.000740276 0
      endloop
   endfacet
   facet normal 0 0 -1
      outer loop
         vertex 0.0013754 -0.00145199 0
         vertex 0.00240695 -0.00254098 0
         vertex 0.00211811 -0.00278633 0
      endloop
   endfacet
   facet normal 0 0 -1
      outer loop
         vertex 0.00146961 -0.00317651 0
         vertex 0.000839778 -0.00181515 0
         vertex 0.00103111 -0.00171371 0
      endloop
   endfacet
   facet normal 0 0 -1
      outer loop
         vertex 0.000378417 -0.00347948 0
         vertex 0.000216238 -0.00198828 0
         vertex 0.000429941 -0.00195324 0
      endloop
   endfacet
   facet normal 0 0 -1
      outer loop
         vertex 4.28626e-19 -0.0035 0
         vertex 7.34788e-19 -0.002 0
         vertex 0.000216238 -0.00198828 0
      endloop
   endfacet
   facet normal 0 0 -1
      outer loop
         vertex -0.00111756 -0.00331679 0
         vertex -0.000638603 -0.00189531 0
         vertex -0.000429941 -0.00195324 0
      endloop
   endfacet
   facet normal 0 0 -1
      outer loop
         vertex -0.00111756 -0.00331679 0
         vertex -0.00146961 -0.00317651 0
         vertex -0.000839778 -0.00181515 0
      endloop
   endfacet
   facet normal 0 0 -1
      outer loop
         vertex -0.00121035 -0.00159219 0
         vertex -0.00103111 -0.00171371 0
         vertex -0.00180444 -0.002999 0
      endloop
   endfacet
   facet normal 0 0 -1
      outer loop
         vertex -0.00211811 -0.00278633 0
         vertex -0.00240695 -0.00254098 0
         vertex -0.0013754 -0.00145199 0
      endloop
   endfacet
   facet normal 0 0 -1
      outer loop
         vertex -0.00337242 0.000936349 0
         vertex -0.00325142 0.00129548 0
         vertex -0.00185795 0.000740276 0
      endloop
   endfacet
   facet normal 0 0 -1
      outer loop
         vertex -0.00325142 0.00129548 0
         vertex -0.00309229 0.00163943 0
         vertex -0.00176702 0.000936817 0
      endloop
   endfacet
   facet normal 0 0 -1
      outer loop
         vertex 0 0.002 0
         vertex -0.000216238 0.00198828 0
         vertex -0.000378417 0.00347948 0
      endloop
   endfacet
   facet normal 0 0 -1
      outer loop
         vertex 0 0.0035 0
         vertex 0.000378417 0.00347948 0
         vertex 0.000216238 0.00198828 0
      endloop
   endfacet
   facet normal 0 0 -1
      outer loop
         vertex 0.000839778 0.00181515 0
         vertex 0.000638603 0.00189531 0
         vertex 0.00111756 0.00331679 0
      endloop
   endfacet
   facet normal 0 0 -1
      outer loop
         vertex 0.00146961 0.00317651 0
         vertex 0.00180444 0.002999 0
         vertex 0.00103111 0.00171371 0
      endloop
   endfacet
   facet normal 0 0 -1
      outer loop
         vertex 0.00211811 0.00278633 0
         vertex 0.00121035 0.00159219 0
         vertex 0.00103111 0.00171371 0
      endloop
   endfacet
   facet normal 0 0 -1
      outer loop
         vertex 0.0013754 0.00145199 0
         vertex 0.00240695 0.00254098 0
         vertex 0.00266757 0.00226585 0
      endloop
   endfacet
   facet normal 0 0 -1
      outer loop
         vertex 0.00325142 0.00129548 0
         vertex 0.00185795 0.000740276 0
         vertex 0.00176702 0.000936817 0
      endloop
   endfacet
   facet normal 0 0 -1
      outer loop
         vertex 0.00325142 0.00129548 0
         vertex 0.00337242 0.000936349 0
         vertex 0.0019271 0.000535057 0
      endloop
   endfacet
   facet normal 0 0 -1
      outer loop
         vertex 0.00185795 -0.000740276 0
         vertex 0.0019271 -0.000535057 0
         vertex 0.00337242 -0.000936349 0
      endloop
   endfacet
   facet normal 0 0 -1
      outer loop
         vertex 0.00103111 -0.00171371 0
         vertex 0.00180444 -0.002999 0
         vertex 0.00146961 -0.00317651 0
      endloop
   endfacet
   facet normal 0 0 -1
      outer loop
         vertex 0.00111756 -0.00331679 0
         vertex 0.000638603 -0.00189531 0
         vertex 0.000839778 -0.00181515 0
      endloop
   endfacet
   facet normal 0 0 -1
      outer loop
         vertex 0.00111756 -0.00331679 0
         vertex 0.000752397 -0.00341817 0
         vertex 0.000429941 -0.00195324 0
      endloop
   endfacet
   facet normal 0 0 -1
      outer loop
         vertex 0.000216238 -0.00198828 0
         vertex 0.000378417 -0.00347948 0
         vertex 4.28626e-19 -0.0035 0
      endloop
   endfacet
   facet normal 0 0 -1
      outer loop
         vertex -0.000378417 -0.00347948 0
         vertex -0.000216238 -0.00198828 0
         vertex 7.34788e-19 -0.002 0
      endloop
   endfacet
   facet normal 0 0 -1
      outer loop
         vertex -0.000839778 -0.00181515 0
         vertex -0.000638603 -0.00189531 0
         vertex -0.00111756 -0.00331679 0
      endloop
   endfacet
   facet normal 0 0 -1
      outer loop
         vertex -0.0013754 -0.00145199 0
         vertex -0.00121035 -0.00159219 0
         vertex -0.00211811 -0.00278633 0
      endloop
   endfacet
   facet normal 0 0 -1
      outer loop
         vertex -0.00240695 -0.00254098 0
         vertex -0.00266757 -0.00226585 0
         vertex -0.00152432 -0.00129477 0
      endloop
   endfacet
   facet normal 0 0 -1
      outer loop
         vertex -0.00266757 -0.00226585 0
         vertex -0.00289691 -0.00196415 0
         vertex -0.00165538 -0.00112237 0
      endloop
   endfacet
   facet normal 0 0 -1
      outer loop
         vertex -0.00349487 0.000189486 0
         vertex -0.00345389 0.000566237 0
         vertex -0.00197365 0.000323564 0
      endloop
   endfacet
   facet normal 0 0 -1
      outer loop
         vertex -0.00345389 0.000566237 0
         vertex -0.00337242 0.000936349 0
         vertex -0.0019271 0.000535057 0
      endloop
   endfacet
   facet normal 0 0 -1
      outer loop
         vertex -0.00176702 0.000936817 0
         vertex -0.00185795 0.000740276 0
         vertex -0.00325142 0.00129548 0
      endloop
   endfacet
   facet normal 0 0 -1
      outer loop
         vertex -0.00309229 0.00163943 0
         vertex -0.00289691 0.00196415 0
         vertex -0.00165538 0.00112237 0
      endloop
   endfacet
   facet normal 0 0 -1
      outer loop
         vertex -0.00240695 0.00254098 0
         vertex -0.0013754 0.00145199 0
         vertex -0.00152432 0.00129477 0
      endloop
   endfacet
   facet normal 0 0 -1
      outer loop
         vertex -0.00240695 0.00254098 0
         vertex -0.00211811 0.00278633 0
         vertex -0.00121035 0.00159219 0
      endloop
   endfacet
   facet normal 0 0 -1
      outer loop
         vertex -0.00111756 0.00331679 0
         vertex -0.000638603 0.00189531 0
         vertex -0.000839778 0.00181515 0
      endloop
   endfacet
   facet normal 0 0 -1
      outer loop
         vertex -0.00111756 0.00331679 0
         vertex -0.000752397 0.00341817 0
         vertex -0.000429941 0.00195324 0
      endloop
   endfacet
   facet normal 0 0 -1
      outer loop
         vertex 0.000216238 0.00198828 0
         vertex 0 0.002 0
         vertex 0 0.0035 0
      endloop
   endfacet
   facet normal 0 0 -1
      outer loop
         vertex 0.000378417 0.00347948 0
         vertex 0.000752397 0.00341817 0
         vertex 0.000429941 0.00195324 0
      endloop
   endfacet
   facet normal 0 0 -1
      outer loop
         vertex 0.00103111 0.00171371 0
         vertex 0.000839778 0.00181515 0
         vertex 0.00146961 0.00317651 0
      endloop
   endfacet
   facet normal 0 0 -1
      outer loop
         vertex 0.00121035 0.00159219 0
         vertex 0.00211811 0.00278633 0
         vertex 0.00240695 0.00254098 0
      endloop
   endfacet
   facet normal 0 0 -1
      outer loop
         vertex 0.00309229 0.00163943 0
         vertex 0.00176702 0.000936817 0
         vertex 0.00165538 0.00112237 0
      endloop
   endfacet
   facet normal 0 0 -1
      outer loop
         vertex 0.0019271 0.000535057 0
         vertex 0.00185795 0.000740276 0
         vertex 0.00325142 0.00129548 0
      endloop
   endfacet
   facet normal 0 0 -1
      outer loop
         vertex 0.00185795 -0.000740276 0
         vertex 0.00325142 -0.00129548 0
         vertex 0.00309229 -0.00163943 0
      endloop
   endfacet
   facet normal 0 0 -1
      outer loop
         vertex 0.000429941 -0.00195324 0
         vertex 0.000638603 -0.00189531 0
         vertex 0.00111756 -0.00331679 0
      endloop
   endfacet
   facet normal 0 0 -1
      outer loop
         vertex 7.34788e-19 -0.002 0
         vertex 4.28626e-19 -0.0035 0
         vertex -0.000378417 -0.00347948 0
      endloop
   endfacet
   facet normal 0 0 -1
      outer loop
         vertex -0.000378417 -0.00347948 0
         vertex -0.000752397 -0.00341817 0
         vertex -0.000429941 -0.00195324 0
      endloop
   endfacet
   facet normal 0 0 -1
      outer loop
         vertex -0.000839778 -0.00181515 0
         vertex -0.00146961 -0.00317651 0
         vertex -0.00180444 -0.002999 0
      endloop
   endfacet
   facet normal 0 0 -1
      outer loop
         vertex -0.00165538 -0.00112237 0
         vertex -0.00152432 -0.00129477 0
         vertex -0.00266757 -0.00226585 0
      endloop
   endfacet
   facet normal 0 0 -1
      outer loop
         vertex -0.00309229 -0.00163943 0
         vertex -0.00176702 -0.000936817 0
         vertex -0.00165538 -0.00112237 0
      endloop
   endfacet
   facet normal 0 0 -1
      outer loop
         vertex -0.00309229 -0.00163943 0
         vertex -0.00325142 -0.00129548 0
         vertex -0.00185795 -0.000740276 0
      endloop
   endfacet
   facet normal 0 0 -1
      outer loop
         vertex -0.0019271 0.000535057 0
         vertex -0.00197365 0.000323564 0
         vertex -0.00345389 0.000566237 0
      endloop
   endfacet
   facet normal 0 0 -1
      outer loop
         vertex -0.00165538 0.00112237 0
         vertex -0.00176702 0.000936817 0
         vertex -0.00309229 0.00163943 0
      endloop
   endfacet
   facet normal 0 0 -1
      outer loop
         vertex -0.00266757 0.00226585 0
         vertex -0.00152432 0.00129477 0
         vertex -0.00165538 0.00112237 0
      endloop
   endfacet
   facet normal 0 0 -1
      outer loop
         vertex -0.00121035 0.00159219 0
         vertex -0.0013754 0.00145199 0
         vertex -0.00240695 0.00254098 0
      endloop
   endfacet
   facet normal 0 0 -1
      outer loop
         vertex -0.00146961 0.00317651 0
         vertex -0.000839778 0.00181515 0
         vertex -0.00103111 0.00171371 0
      endloop
   endfacet
   facet normal 0 0 -1
      outer loop
         vertex -0.000429941 0.00195324 0
         vertex -0.000638603 0.00189531 0
         vertex -0.00111756 0.00331679 0
      endloop
   endfacet
   facet normal 0 0 -1
      outer loop
         vertex 0.000429941 0.00195324 0
         vertex 0.000216238 0.00198828 0
         vertex 0.000378417 0.00347948 0
      endloop
   endfacet
   facet normal 0 0 -1
      outer loop
         vertex 0.00103111 0.00171371 0
         vertex 0.00180444 0.002999 0
         vertex 0.00211811 0.00278633 0
      endloop
   endfacet
   facet normal 0 0 -1
      outer loop
         vertex 0.00176702 0.000936817 0
         vertex 0.00309229 0.00163943 0
         vertex 0.00325142 0.00129548 0
      endloop
   endfacet
   facet normal 0 0 -1
      outer loop
         vertex 0.00337242 0.000936349 0
         vertex 0.00345389 0.000566237 0
         vertex 0.00197365 0.000323564 0
      endloop
   endfacet
   facet normal 0 0 -1
      outer loop
         vertex 0.00349487 0.000189486 0
         vertex 0.00199707 0.000108278 0
         vertex 0.00197365 0.000323564 0
      endloop
   endfacet
   facet normal 0 0 -1
      outer loop
         vertex 0.00349487 0.000189486 0
         vertex 0.00349487 -0.000189486 0
         vertex 0.00199707 -0.000108278 0
      endloop
   endfacet
   facet normal 0 0 -1
      outer loop
         vertex 0.000839778 -0.00181515 0
         vertex 0.00146961 -0.00317651 0
         vertex 0.00111756 -0.00331679 0
      endloop
   endfacet
   facet normal 0 0 -1
      outer loop
         vertex -0.000429941 -0.00195324 0
         vertex -0.000216238 -0.00198828 0
         vertex -0.000378417 -0.00347948 0
      endloop
   endfacet
   facet normal 0 0 -1
      outer loop
         vertex -0.00152432 -0.00129477 0
         vertex -0.0013754 -0.00145199 0
         vertex -0.00240695 -0.00254098 0
      endloop
   endfacet
   facet normal 0 0 -1
      outer loop
         vertex -0.00185795 -0.000740276 0
         vertex -0.00176702 -0.000936817 0
         vertex -0.00309229 -0.00163943 0
      endloop
   endfacet
   facet normal 0 0 -1
      outer loop
         vertex -0.00185795 0.000740276 0
         vertex -0.0019271 0.000535057 0
         vertex -0.00337242 0.000936349 0
      endloop
   endfacet
   facet normal 0 0 -1
      outer loop
         vertex -0.00152432 0.00129477 0
         vertex -0.00266757 0.00226585 0
         vertex -0.00240695 0.00254098 0
      endloop
   endfacet
   facet normal 0 0 -1
      outer loop
         vertex -0.00180444 0.002999 0
         vertex -0.00103111 0.00171371 0
         vertex -0.00121035 0.00159219 0
      endloop
   endfacet
   facet normal 0 0 -1
      outer loop
         vertex -0.000839778 0.00181515 0
         vertex -0.00146961 0.00317651 0
         vertex -0.00111756 0.00331679 0
      endloop
   endfacet
   facet normal 0 0 -1
      outer loop
         vertex 0.000429941 0.00195324 0
         vertex 0.000752397 0.00341817 0
         vertex 0.00111756 0.00331679 0
      endloop
   endfacet
   facet normal 0 0 -1
      outer loop
         vertex 0.00197365 0.000323564 0
         vertex 0.0019271 0.000535057 0
         vertex 0.00337242 0.000936349 0
      endloop
   endfacet
   facet normal 0 0 -1
      outer loop
         vertex 0.00199707 -0.000108278 0
         vertex 0.00199707 0.000108278 0
         vertex 0.00349487 0.000189486 0
      endloop
   endfacet
   facet normal 0 0 -1
      outer loop
         vertex 0.00349487 -0.000189486 0
         vertex 0.00345389 -0.000566237 0
         vertex 0.00197365 -0.000323564 0
      endloop
   endfacet
   facet normal 0 0 -1
      outer loop
         vertex 0.000429941 -0.00195324 0
         vertex 0.000752397 -0.00341817 0
         vertex 0.000378417 -0.00347948 0
      endloop
   endfacet
   facet normal 0 0 -1
      outer loop
         vertex -0.00165538 -0.00112237 0
         vertex -0.00289691 -0.00196415 0
         vertex -0.00309229 -0.00163943 0
      endloop
   endfacet
   facet normal 0 0 -1
      outer loop
         vertex -0.00337242 -0.000936349 0
         vertex -0.0019271 -0.000535057 0
         vertex -0.00185795 -0.000740276 0
      endloop
   endfacet
   facet normal 0 0 -1
      outer loop
         vertex -0.00337242 -0.000936349 0
         vertex -0.00345389 -0.000566237 0
         vertex -0.00197365 -0.000323564 0
      endloop
   endfacet
   facet normal 0 0 -1
      outer loop
         vertex -0.00165538 0.00112237 0
         vertex -0.00289691 0.00196415 0
         vertex -0.00266757 0.00226585 0
      endloop
   endfacet
   facet normal 0 0 -1
      outer loop
         vertex -0.00103111 0.00171371 0
         vertex -0.00180444 0.002999 0
         vertex -0.00146961 0.00317651 0
      endloop
   endfacet
   facet normal 0 0 -1
      outer loop
         vertex 0.00165538 0.00112237 0
         vertex 0.00289691 0.00196415 0
         vertex 0.00309229 0.00163943 0
      endloop
   endfacet
   facet normal 0 0 -1
      outer loop
         vertex 0.00197365 -0.000323564 0
         vertex 0.00199707 -0.000108278 0
         vertex 0.00349487 -0.000189486 0
      endloop
   endfacet
   facet normal 0 0 -1
      outer loop
         vertex -0.000429941 -0.00195324 0
         vertex -0.000752397 -0.00341817 0
         vertex -0.00111756 -0.00331679 0
      endloop
   endfacet
   facet normal 0 0 -1
      outer loop
         vertex -0.00197365 -0.000323564 0
         vertex -0.0019271 -0.000535057 0
         vertex -0.00337242 -0.000936349 0
      endloop
   endfacet
   facet normal 0 0 -1
      outer loop
         vertex -0.00349487 -0.000189486 0
         vertex -0.00199707 -0.000108278 0
         vertex -0.00197365 -0.000323564 0
      endloop
   endfacet
   facet normal 0 0 -1
      outer loop
         vertex -0.00349487 0.000189486 0
         vertex -0.00199707 0.000108278 0
         vertex -0.00199707 -0.000108278 0
      endloop
   endfacet
   facet normal 0 0 -1
      outer loop
         vertex -0.00121035 0.00159219 0
         vertex -0.00211811 0.00278633 0
         vertex -0.00180444 0.002999 0
      endloop
   endfacet
   facet normal 0 0 -1
      outer loop
         vertex 0.00197365 0.000323564 0
         vertex 0.00345389 0.000566237 0
         vertex 0.00349487 0.000189486 0
      endloop
   endfacet
   facet normal 0 0 -1
      outer loop
         vertex -0.00185795 -0.000740276 0
         vertex -0.00325142 -0.00129548 0
         vertex -0.00337242 -0.000936349 0
      endloop
   endfacet
   facet normal 0 0 -1
      outer loop
         vertex -0.00199707 -0.000108278 0
         vertex -0.00349487 -0.000189486 0
         vertex -0.00349487 0.000189486 0
      endloop
   endfacet
   facet normal 0 0 -1
      outer loop
         vertex -0.000429941 0.00195324 0
         vertex -0.000752397 0.00341817 0
         vertex -0.000378417 0.00347948 0
      endloop
   endfacet
   facet normal 0 0 -1
      outer loop
         vertex -0.00197365 -0.000323564 0
         vertex -0.00345389 -0.000566237 0
         vertex -0.00349487 -0.000189486 0
      endloop
   endfacet
   facet normal 0 0 -1
      outer loop
         vertex 0.00197365 -0.000323564 0
         vertex 0.00345389 -0.000566237 0
         vertex 0.00337242 -0.000936349 0
      endloop
   endfacet
   facet normal 0 0 -1
      outer loop
         vertex -0.00197365 0.000323564 0
         vertex -0.00199707 0.000108278 0
         vertex -0.00349487 0.000189486 0
      endloop
   endfacet
endsolid 2807 Series Stainless Steel Shim (4mm ID x 7mm OD, 1mm Thickness) - 12 Pack 2807-0407-1000. Units = meters