solid 2. STL generated by ONSHAPE BY PTC INC, 1.216. Units = meters
   facet normal 1 1.24746e-16 0
      outer loop
         vertex -0.00192532 0.0184007 -0.000150024
         vertex -0.00192532 0.0171007 -0.000150024
         vertex -0.00192532 0.0171007 -0.00125002
      endloop
   endfacet
   facet normal 1 1.24746e-16 0
      outer loop
         vertex -0.00192532 0.0171007 -0.00125002
         vertex -0.00192532 0.0184007 -0.00125002
         vertex -0.00192532 0.0184007 -0.000150024
      endloop
   endfacet
   facet normal 1.42189e-16 -1 0
      outer loop
         vertex -0.00342532 0.0171007 -0.00125002
         vertex -0.00192532 0.0171007 -0.00125002
         vertex -0.00192532 0.0171007 -0.000150024
      endloop
   endfacet
   facet normal 1.42189e-16 -1 0
      outer loop
         vertex -0.00192532 0.0171007 -0.000150024
         vertex -0.00342532 0.0171007 -0.000150024
         vertex -0.00342532 0.0171007 -0.00125002
      endloop
   endfacet
   facet normal -1 -1.668e-16 0
      outer loop
         vertex -0.00342532 0.0171007 -0.00125002
         vertex -0.00342532 0.0171007 -0.000150024
         vertex -0.00342532 0.0184007 -0.000150024
      endloop
   endfacet
   facet normal -1 -1.668e-16 0
      outer loop
         vertex -0.00342532 0.0184007 -0.000150024
         vertex -0.00342532 0.0184007 -0.00125002
         vertex -0.00342532 0.0171007 -0.00125002
      endloop
   endfacet
   facet normal 0 0 -1
      outer loop
         vertex -0.00342532 0.0184007 -0.00125002
         vertex -0.00192532 0.0184007 -0.00125002
         vertex -0.00192532 0.0171007 -0.00125002
      endloop
   endfacet
   facet normal 0 0 -1
      outer loop
         vertex -0.00192532 0.0171007 -0.00125002
         vertex -0.00342532 0.0171007 -0.00125002
         vertex -0.00342532 0.0184007 -0.00125002
      endloop
   endfacet
   facet normal -1.42189e-16 1 0
      outer loop
         vertex -0.00342532 0.0184007 -0.000150024
         vertex -0.00192532 0.0184007 -0.000150024
         vertex -0.00192532 0.0184007 -0.00125002
      endloop
   endfacet
   facet normal -1.42189e-16 1 0
      outer loop
         vertex -0.00192532 0.0184007 -0.00125002
         vertex -0.00342532 0.0184007 -0.00125002
         vertex -0.00342532 0.0184007 -0.000150024
      endloop
   endfacet
   facet normal 0 0 1
      outer loop
         vertex -0.00342532 0.0171007 -0.000150024
         vertex -0.00192532 0.0171007 -0.000150024
         vertex -0.00192532 0.0184007 -0.000150024
      endloop
   endfacet
   facet normal 0 0 1
      outer loop
         vertex -0.00192532 0.0184007 -0.000150024
         vertex -0.00342532 0.0184007 -0.000150024
         vertex -0.00342532 0.0171007 -0.000150024
      endloop
   endfacet
endsolid 2. Units = meters