solid 3x7x3 bearing. STL generated by ONSHAPE BY PTC INC, 1.216. Units = meters
   facet normal 0.994138 0.108119 0
      outer loop
         vertex -0.00149121 -0.000162179 0
         vertex -0.0015 9.18485e-20 0
         vertex -0.0015 9.18485e-20 0.003
      endloop
   endfacet
   facet normal 0.976621 0.21497 0
      outer loop
         vertex -0.00146493 -0.000322456 0
         vertex -0.00149121 -0.000162179 0
         vertex -0.00149121 -0.000162179 0.003
      endloop
   endfacet
   facet normal 0.947653 0.319302 0
      outer loop
         vertex -0.00142148 -0.000478952 0
         vertex -0.00146493 -0.000322456 0
         vertex -0.00146493 -0.000322456 0.003
      endloop
   endfacet
   facet normal 0.907575 0.419889 0
      outer loop
         vertex -0.00136136 -0.000629834 0
         vertex -0.00142148 -0.000478952 0
         vertex -0.00142148 -0.000478952 0.003
      endloop
   endfacet
   facet normal 0.856857 0.515554 0
      outer loop
         vertex -0.00128529 -0.000773331 0
         vertex -0.00136136 -0.000629834 0
         vertex -0.00136136 -0.000629834 0.003
      endloop
   endfacet
   facet normal 0.796093 0.605174 0
      outer loop
         vertex -0.00119414 -0.000907761 0
         vertex -0.00128529 -0.000773331 0
         vertex -0.00128529 -0.000773331 0.003
      endloop
   endfacet
   facet normal 0.725995 0.687699 0
      outer loop
         vertex -0.00108899 -0.00103155 0
         vertex -0.00119414 -0.000907761 0
         vertex -0.00119414 -0.000907761 0.003
      endloop
   endfacet
   facet normal 0.647386 0.762162 0
      outer loop
         vertex -0.000971079 -0.00114324 0
         vertex -0.00108899 -0.00103155 0
         vertex -0.00108899 -0.00103155 0.003
      endloop
   endfacet
   facet normal 0.561187 0.827689 0
      outer loop
         vertex -0.000841781 -0.00124153 0
         vertex -0.000971079 -0.00114324 0
         vertex -0.000971079 -0.00114324 0.003
      endloop
   endfacet
   facet normal 0.468408 0.883512 0
      outer loop
         vertex -0.000702613 -0.00132527 0
         vertex -0.000841781 -0.00124153 0
         vertex -0.000841781 -0.00124153 0.003
      endloop
   endfacet
   facet normal 0.370138 0.928977 0
      outer loop
         vertex -0.000555207 -0.00139347 0
         vertex -0.000702613 -0.00132527 0
         vertex -0.000702613 -0.00132527 0.003
      endloop
   endfacet
   facet normal 0.267528 0.96355 0
      outer loop
         vertex -0.000401293 -0.00144532 0
         vertex -0.000555207 -0.00139347 0
         vertex -0.000555207 -0.00139347 0.003
      endloop
   endfacet
   facet normal 0.161782 0.986827 0
      outer loop
         vertex -0.000242673 -0.00148024 0
         vertex -0.000401293 -0.00144532 0
         vertex -0.000401293 -0.00144532 0.003
      endloop
   endfacet
   facet normal 0.0541389 0.998533 0
      outer loop
         vertex -8.12084e-05 -0.0014978 0
         vertex -0.000242673 -0.00148024 0
         vertex -0.000242673 -0.00148024 0.003
      endloop
   endfacet
   facet normal -0.0541389 0.998533 0
      outer loop
         vertex 8.12084e-05 -0.0014978 0
         vertex -8.12084e-05 -0.0014978 0
         vertex -8.12084e-05 -0.0014978 0.003
      endloop
   endfacet
   facet normal -0.161782 0.986827 0
      outer loop
         vertex 0.000242673 -0.00148024 0
         vertex 8.12084e-05 -0.0014978 0
         vertex 8.12084e-05 -0.0014978 0.003
      endloop
   endfacet
   facet normal -0.267528 0.96355 0
      outer loop
         vertex 0.000401293 -0.00144532 0
         vertex 0.000242673 -0.00148024 0
         vertex 0.000242673 -0.00148024 0.003
      endloop
   endfacet
   facet normal -0.370138 0.928977 0
      outer loop
         vertex 0.000555207 -0.00139347 0
         vertex 0.000401293 -0.00144532 0
         vertex 0.000401293 -0.00144532 0.003
      endloop
   endfacet
   facet normal -0.468408 0.883512 0
      outer loop
         vertex 0.000702613 -0.00132527 0
         vertex 0.000555207 -0.00139347 0
         vertex 0.000555207 -0.00139347 0.003
      endloop
   endfacet
   facet normal -0.561187 0.827689 0
      outer loop
         vertex 0.000841781 -0.00124153 0
         vertex 0.000702613 -0.00132527 0
         vertex 0.000702613 -0.00132527 0.003
      endloop
   endfacet
   facet normal -0.647386 0.762162 0
      outer loop
         vertex 0.000971079 -0.00114324 0
         vertex 0.000841781 -0.00124153 0
         vertex 0.000841781 -0.00124153 0.003
      endloop
   endfacet
   facet normal -0.725995 0.687699 0
      outer loop
         vertex 0.00108899 -0.00103155 0
         vertex 0.000971079 -0.00114324 0
         vertex 0.000971079 -0.00114324 0.003
      endloop
   endfacet
   facet normal -0.796093 0.605174 0
      outer loop
         vertex 0.00119414 -0.000907761 0
         vertex 0.00108899 -0.00103155 0
         vertex 0.00108899 -0.00103155 0.003
      endloop
   endfacet
   facet normal -0.856857 0.515554 0
      outer loop
         vertex 0.00128529 -0.000773331 0
         vertex 0.00119414 -0.000907761 0
         vertex 0.00119414 -0.000907761 0.003
      endloop
   endfacet
   facet normal -0.907575 0.419889 0
      outer loop
         vertex 0.00136136 -0.000629834 0
         vertex 0.00128529 -0.000773331 0
         vertex 0.00128529 -0.000773331 0.003
      endloop
   endfacet
   facet normal -0.947653 0.319302 0
      outer loop
         vertex 0.00142148 -0.000478952 0
         vertex 0.00136136 -0.000629834 0
         vertex 0.00136136 -0.000629834 0.003
      endloop
   endfacet
   facet normal -0.976621 0.21497 0
      outer loop
         vertex 0.00146493 -0.000322456 0
         vertex 0.00142148 -0.000478952 0
         vertex 0.00142148 -0.000478952 0.003
      endloop
   endfacet
   facet normal -0.994138 0.108119 0
      outer loop
         vertex 0.00149121 -0.000162179 0
         vertex 0.00146493 -0.000322456 0
         vertex 0.00146493 -0.000322456 0.003
      endloop
   endfacet
   facet normal -1 -1.22465e-16 0
      outer loop
         vertex 0.0015 6.4294e-19 0
         vertex 0.00149121 -0.000162179 0
         vertex 0.00149121 -0.000162179 0.003
      endloop
   endfacet
   facet normal -0.994138 -0.108119 0
      outer loop
         vertex 0.00149121 0.000162179 0
         vertex 0.0015 6.4294e-19 0
         vertex 0.0015 2.75546e-19 0.003
      endloop
   endfacet
   facet normal -0.976621 -0.21497 0
      outer loop
         vertex 0.00146493 0.000322456 0
         vertex 0.00149121 0.000162179 0
         vertex 0.00149121 0.000162179 0.003
      endloop
   endfacet
   facet normal -0.947653 -0.319302 0
      outer loop
         vertex 0.00142148 0.000478952 0
         vertex 0.00146493 0.000322456 0
         vertex 0.00146493 0.000322456 0.003
      endloop
   endfacet
   facet normal -0.907575 -0.419889 0
      outer loop
         vertex 0.00136136 0.000629834 0
         vertex 0.00142148 0.000478952 0
         vertex 0.00142148 0.000478952 0.003
      endloop
   endfacet
   facet normal -0.856857 -0.515554 0
      outer loop
         vertex 0.00128529 0.000773331 0
         vertex 0.00136136 0.000629834 0
         vertex 0.00136136 0.000629834 0.003
      endloop
   endfacet
   facet normal -0.796093 -0.605174 0
      outer loop
         vertex 0.00119414 0.000907761 0
         vertex 0.00128529 0.000773331 0
         vertex 0.00128529 0.000773331 0.003
      endloop
   endfacet
   facet normal -0.725995 -0.687699 0
      outer loop
         vertex 0.00108899 0.00103155 0
         vertex 0.00119414 0.000907761 0
         vertex 0.00119414 0.000907761 0.003
      endloop
   endfacet
   facet normal -0.647386 -0.762162 0
      outer loop
         vertex 0.000971079 0.00114324 0
         vertex 0.00108899 0.00103155 0
         vertex 0.00108899 0.00103155 0.003
      endloop
   endfacet
   facet normal -0.561187 -0.827689 0
      outer loop
         vertex 0.000841781 0.00124153 0
         vertex 0.000971079 0.00114324 0
         vertex 0.000971079 0.00114324 0.003
      endloop
   endfacet
   facet normal -0.468408 -0.883512 0
      outer loop
         vertex 0.000702613 0.00132527 0
         vertex 0.000841781 0.00124153 0
         vertex 0.000841781 0.00124153 0.003
      endloop
   endfacet
   facet normal -0.370138 -0.928977 0
      outer loop
         vertex 0.000555207 0.00139347 0
         vertex 0.000702613 0.00132527 0
         vertex 0.000702613 0.00132527 0.003
      endloop
   endfacet
   facet normal -0.267528 -0.96355 0
      outer loop
         vertex 0.000401293 0.00144532 0
         vertex 0.000555207 0.00139347 0
         vertex 0.000555207 0.00139347 0.003
      endloop
   endfacet
   facet normal -0.161782 -0.986827 0
      outer loop
         vertex 0.000242673 0.00148024 0
         vertex 0.000401293 0.00144532 0
         vertex 0.000401293 0.00144532 0.003
      endloop
   endfacet
   facet normal -0.0541389 -0.998533 0
      outer loop
         vertex 8.12084e-05 0.0014978 0
         vertex 0.000242673 0.00148024 0
         vertex 0.000242673 0.00148024 0.003
      endloop
   endfacet
   facet normal 0.0541389 -0.998533 0
      outer loop
         vertex -8.12084e-05 0.0014978 0
         vertex 8.12084e-05 0.0014978 0
         vertex 8.12084e-05 0.0014978 0.003
      endloop
   endfacet
   facet normal 0.161782 -0.986827 0
      outer loop
         vertex -0.000242673 0.00148024 0
         vertex -8.12084e-05 0.0014978 0
         vertex -8.12084e-05 0.0014978 0.003
      endloop
   endfacet
   facet normal 0.267528 -0.96355 0
      outer loop
         vertex -0.000401293 0.00144532 0
         vertex -0.000242673 0.00148024 0
         vertex -0.000242673 0.00148024 0.003
      endloop
   endfacet
   facet normal 0.370138 -0.928977 0
      outer loop
         vertex -0.000555207 0.00139347 0
         vertex -0.000401293 0.00144532 0
         vertex -0.000401293 0.00144532 0.003
      endloop
   endfacet
   facet normal 0.468408 -0.883512 0
      outer loop
         vertex -0.000702613 0.00132527 0
         vertex -0.000555207 0.00139347 0
         vertex -0.000555207 0.00139347 0.003
      endloop
   endfacet
   facet normal 0.561187 -0.827689 0
      outer loop
         vertex -0.000841781 0.00124153 0
         vertex -0.000702613 0.00132527 0
         vertex -0.000702613 0.00132527 0.003
      endloop
   endfacet
   facet normal 0.647386 -0.762162 0
      outer loop
         vertex -0.000971079 0.00114324 0
         vertex -0.000841781 0.00124153 0
         vertex -0.000841781 0.00124153 0.003
      endloop
   endfacet
   facet normal 0.725995 -0.687699 0
      outer loop
         vertex -0.00108899 0.00103155 0
         vertex -0.000971079 0.00114324 0
         vertex -0.000971079 0.00114324 0.003
      endloop
   endfacet
   facet normal 0.796093 -0.605174 0
      outer loop
         vertex -0.00119414 0.000907761 0
         vertex -0.00108899 0.00103155 0
         vertex -0.00108899 0.00103155 0.003
      endloop
   endfacet
   facet normal 0.856857 -0.515554 0
      outer loop
         vertex -0.00128529 0.000773331 0
         vertex -0.00119414 0.000907761 0
         vertex -0.00119414 0.000907761 0.003
      endloop
   endfacet
   facet normal 0.907575 -0.419889 0
      outer loop
         vertex -0.00136136 0.000629834 0
         vertex -0.00128529 0.000773331 0
         vertex -0.00128529 0.000773331 0.003
      endloop
   endfacet
   facet normal 0.947653 -0.319302 0
      outer loop
         vertex -0.00142148 0.000478952 0
         vertex -0.00136136 0.000629834 0
         vertex -0.00136136 0.000629834 0.003
      endloop
   endfacet
   facet normal 0.976621 -0.21497 0
      outer loop
         vertex -0.00146493 0.000322456 0
         vertex -0.00142148 0.000478952 0
         vertex -0.00142148 0.000478952 0.003
      endloop
   endfacet
   facet normal 0.994138 -0.108119 0
      outer loop
         vertex -0.00149121 0.000162179 0
         vertex -0.00146493 0.000322456 0
         vertex -0.00146493 0.000322456 0.003
      endloop
   endfacet
   facet normal 1 2.44929e-16 0
      outer loop
         vertex -0.0015 9.18485e-20 0
         vertex -0.00149121 0.000162179 0
         vertex -0.00149121 0.000162179 0.003
      endloop
   endfacet
   facet normal 0.994138 -0.108119 0
      outer loop
         vertex -0.00149121 0.000162179 0.003
         vertex -0.0015 9.18485e-20 0.003
         vertex -0.0015 9.18485e-20 0
      endloop
   endfacet
   facet normal 0.976621 -0.21497 0
      outer loop
         vertex -0.00146493 0.000322456 0.003
         vertex -0.00149121 0.000162179 0.003
         vertex -0.00149121 0.000162179 0
      endloop
   endfacet
   facet normal 0.947653 -0.319302 0
      outer loop
         vertex -0.00142148 0.000478952 0.003
         vertex -0.00146493 0.000322456 0.003
         vertex -0.00146493 0.000322456 0
      endloop
   endfacet
   facet normal 0.907575 -0.419889 0
      outer loop
         vertex -0.00136136 0.000629834 0.003
         vertex -0.00142148 0.000478952 0.003
         vertex -0.00142148 0.000478952 0
      endloop
   endfacet
   facet normal 0.856857 -0.515554 0
      outer loop
         vertex -0.00128529 0.000773331 0.003
         vertex -0.00136136 0.000629834 0.003
         vertex -0.00136136 0.000629834 0
      endloop
   endfacet
   facet normal 0.796093 -0.605174 0
      outer loop
         vertex -0.00119414 0.000907761 0.003
         vertex -0.00128529 0.000773331 0.003
         vertex -0.00128529 0.000773331 0
      endloop
   endfacet
   facet normal 0.725995 -0.687699 0
      outer loop
         vertex -0.00108899 0.00103155 0.003
         vertex -0.00119414 0.000907761 0.003
         vertex -0.00119414 0.000907761 0
      endloop
   endfacet
   facet normal 0.647386 -0.762162 0
      outer loop
         vertex -0.000971079 0.00114324 0.003
         vertex -0.00108899 0.00103155 0.003
         vertex -0.00108899 0.00103155 0
      endloop
   endfacet
   facet normal 0.561187 -0.827689 0
      outer loop
         vertex -0.000841781 0.00124153 0.003
         vertex -0.000971079 0.00114324 0.003
         vertex -0.000971079 0.00114324 0
      endloop
   endfacet
   facet normal 0.468408 -0.883512 0
      outer loop
         vertex -0.000702613 0.00132527 0.003
         vertex -0.000841781 0.00124153 0.003
         vertex -0.000841781 0.00124153 0
      endloop
   endfacet
   facet normal 0.370138 -0.928977 0
      outer loop
         vertex -0.000555207 0.00139347 0.003
         vertex -0.000702613 0.00132527 0.003
         vertex -0.000702613 0.00132527 0
      endloop
   endfacet
   facet normal 0.267528 -0.96355 0
      outer loop
         vertex -0.000401293 0.00144532 0.003
         vertex -0.000555207 0.00139347 0.003
         vertex -0.000555207 0.00139347 0
      endloop
   endfacet
   facet normal 0.161782 -0.986827 0
      outer loop
         vertex -0.000242673 0.00148024 0.003
         vertex -0.000401293 0.00144532 0.003
         vertex -0.000401293 0.00144532 0
      endloop
   endfacet
   facet normal 0.0541389 -0.998533 0
      outer loop
         vertex -8.12084e-05 0.0014978 0.003
         vertex -0.000242673 0.00148024 0.003
         vertex -0.000242673 0.00148024 0
      endloop
   endfacet
   facet normal -0.0541389 -0.998533 0
      outer loop
         vertex 8.12084e-05 0.0014978 0.003
         vertex -8.12084e-05 0.0014978 0.003
         vertex -8.12084e-05 0.0014978 0
      endloop
   endfacet
   facet normal -0.161782 -0.986827 0
      outer loop
         vertex 0.000242673 0.00148024 0.003
         vertex 8.12084e-05 0.0014978 0.003
         vertex 8.12084e-05 0.0014978 0
      endloop
   endfacet
   facet normal -0.267528 -0.96355 0
      outer loop
         vertex 0.000401293 0.00144532 0.003
         vertex 0.000242673 0.00148024 0.003
         vertex 0.000242673 0.00148024 0
      endloop
   endfacet
   facet normal -0.370138 -0.928977 0
      outer loop
         vertex 0.000555207 0.00139347 0.003
         vertex 0.000401293 0.00144532 0.003
         vertex 0.000401293 0.00144532 0
      endloop
   endfacet
   facet normal -0.468408 -0.883512 0
      outer loop
         vertex 0.000702613 0.00132527 0.003
         vertex 0.000555207 0.00139347 0.003
         vertex 0.000555207 0.00139347 0
      endloop
   endfacet
   facet normal -0.561187 -0.827689 0
      outer loop
         vertex 0.000841781 0.00124153 0.003
         vertex 0.000702613 0.00132527 0.003
         vertex 0.000702613 0.00132527 0
      endloop
   endfacet
   facet normal -0.647386 -0.762162 0
      outer loop
         vertex 0.000971079 0.00114324 0.003
         vertex 0.000841781 0.00124153 0.003
         vertex 0.000841781 0.00124153 0
      endloop
   endfacet
   facet normal -0.725995 -0.687699 0
      outer loop
         vertex 0.00108899 0.00103155 0.003
         vertex 0.000971079 0.00114324 0.003
         vertex 0.000971079 0.00114324 0
      endloop
   endfacet
   facet normal -0.796093 -0.605174 0
      outer loop
         vertex 0.00119414 0.000907761 0.003
         vertex 0.00108899 0.00103155 0.003
         vertex 0.00108899 0.00103155 0
      endloop
   endfacet
   facet normal -0.856857 -0.515554 0
      outer loop
         vertex 0.00128529 0.000773331 0.003
         vertex 0.00119414 0.000907761 0.003
         vertex 0.00119414 0.000907761 0
      endloop
   endfacet
   facet normal -0.907575 -0.419889 0
      outer loop
         vertex 0.00136136 0.000629834 0.003
         vertex 0.00128529 0.000773331 0.003
         vertex 0.00128529 0.000773331 0
      endloop
   endfacet
   facet normal -0.947653 -0.319302 0
      outer loop
         vertex 0.00142148 0.000478952 0.003
         vertex 0.00136136 0.000629834 0.003
         vertex 0.00136136 0.000629834 0
      endloop
   endfacet
   facet normal -0.976621 -0.21497 0
      outer loop
         vertex 0.00146493 0.000322456 0.003
         vertex 0.00142148 0.000478952 0.003
         vertex 0.00142148 0.000478952 0
      endloop
   endfacet
   facet normal -0.994138 -0.108119 0
      outer loop
         vertex 0.00149121 0.000162179 0.003
         vertex 0.00146493 0.000322456 0.003
         vertex 0.00146493 0.000322456 0
      endloop
   endfacet
   facet normal -1 -1.22465e-16 0
      outer loop
         vertex 0.0015 2.75546e-19 0.003
         vertex 0.00149121 0.000162179 0.003
         vertex 0.00149121 0.000162179 0
      endloop
   endfacet
   facet normal -0.994138 0.108119 0
      outer loop
         vertex 0.00149121 -0.000162179 0.003
         vertex 0.0015 2.75546e-19 0.003
         vertex 0.0015 6.4294e-19 0
      endloop
   endfacet
   facet normal -0.976621 0.21497 0
      outer loop
         vertex 0.00146493 -0.000322456 0.003
         vertex 0.00149121 -0.000162179 0.003
         vertex 0.00149121 -0.000162179 0
      endloop
   endfacet
   facet normal -0.947653 0.319302 0
      outer loop
         vertex 0.00142148 -0.000478952 0.003
         vertex 0.00146493 -0.000322456 0.003
         vertex 0.00146493 -0.000322456 0
      endloop
   endfacet
   facet normal -0.907575 0.419889 0
      outer loop
         vertex 0.00136136 -0.000629834 0.003
         vertex 0.00142148 -0.000478952 0.003
         vertex 0.00142148 -0.000478952 0
      endloop
   endfacet
   facet normal -0.856857 0.515554 0
      outer loop
         vertex 0.00128529 -0.000773331 0.003
         vertex 0.00136136 -0.000629834 0.003
         vertex 0.00136136 -0.000629834 0
      endloop
   endfacet
   facet normal -0.796093 0.605174 0
      outer loop
         vertex 0.00119414 -0.000907761 0.003
         vertex 0.00128529 -0.000773331 0.003
         vertex 0.00128529 -0.000773331 0
      endloop
   endfacet
   facet normal -0.725995 0.687699 0
      outer loop
         vertex 0.00108899 -0.00103155 0.003
         vertex 0.00119414 -0.000907761 0.003
         vertex 0.00119414 -0.000907761 0
      endloop
   endfacet
   facet normal -0.647386 0.762162 0
      outer loop
         vertex 0.000971079 -0.00114324 0.003
         vertex 0.00108899 -0.00103155 0.003
         vertex 0.00108899 -0.00103155 0
      endloop
   endfacet
   facet normal -0.561187 0.827689 0
      outer loop
         vertex 0.000841781 -0.00124153 0.003
         vertex 0.000971079 -0.00114324 0.003
         vertex 0.000971079 -0.00114324 0
      endloop
   endfacet
   facet normal -0.468408 0.883512 0
      outer loop
         vertex 0.000702613 -0.00132527 0.003
         vertex 0.000841781 -0.00124153 0.003
         vertex 0.000841781 -0.00124153 0
      endloop
   endfacet
   facet normal -0.370138 0.928977 0
      outer loop
         vertex 0.000555207 -0.00139347 0.003
         vertex 0.000702613 -0.00132527 0.003
         vertex 0.000702613 -0.00132527 0
      endloop
   endfacet
   facet normal -0.267528 0.96355 0
      outer loop
         vertex 0.000401293 -0.00144532 0.003
         vertex 0.000555207 -0.00139347 0.003
         vertex 0.000555207 -0.00139347 0
      endloop
   endfacet
   facet normal -0.161782 0.986827 0
      outer loop
         vertex 0.000242673 -0.00148024 0.003
         vertex 0.000401293 -0.00144532 0.003
         vertex 0.000401293 -0.00144532 0
      endloop
   endfacet
   facet normal -0.0541389 0.998533 0
      outer loop
         vertex 8.12084e-05 -0.0014978 0.003
         vertex 0.000242673 -0.00148024 0.003
         vertex 0.000242673 -0.00148024 0
      endloop
   endfacet
   facet normal 0.0541389 0.998533 0
      outer loop
         vertex -8.12084e-05 -0.0014978 0.003
         vertex 8.12084e-05 -0.0014978 0.003
         vertex 8.12084e-05 -0.0014978 0
      endloop
   endfacet
   facet normal 0.161782 0.986827 0
      outer loop
         vertex -0.000242673 -0.00148024 0.003
         vertex -8.12084e-05 -0.0014978 0.003
         vertex -8.12084e-05 -0.0014978 0
      endloop
   endfacet
   facet normal 0.267528 0.96355 0
      outer loop
         vertex -0.000401293 -0.00144532 0.003
         vertex -0.000242673 -0.00148024 0.003
         vertex -0.000242673 -0.00148024 0
      endloop
   endfacet
   facet normal 0.370138 0.928977 0
      outer loop
         vertex -0.000555207 -0.00139347 0.003
         vertex -0.000401293 -0.00144532 0.003
         vertex -0.000401293 -0.00144532 0
      endloop
   endfacet
   facet normal 0.468408 0.883512 0
      outer loop
         vertex -0.000702613 -0.00132527 0.003
         vertex -0.000555207 -0.00139347 0.003
         vertex -0.000555207 -0.00139347 0
      endloop
   endfacet
   facet normal 0.561187 0.827689 0
      outer loop
         vertex -0.000841781 -0.00124153 0.003
         vertex -0.000702613 -0.00132527 0.003
         vertex -0.000702613 -0.00132527 0
      endloop
   endfacet
   facet normal 0.647386 0.762162 0
      outer loop
         vertex -0.000971079 -0.00114324 0.003
         vertex -0.000841781 -0.00124153 0.003
         vertex -0.000841781 -0.00124153 0
      endloop
   endfacet
   facet normal 0.725995 0.687699 0
      outer loop
         vertex -0.00108899 -0.00103155 0.003
         vertex -0.000971079 -0.00114324 0.003
         vertex -0.000971079 -0.00114324 0
      endloop
   endfacet
   facet normal 0.796093 0.605174 0
      outer loop
         vertex -0.00119414 -0.000907761 0.003
         vertex -0.00108899 -0.00103155 0.003
         vertex -0.00108899 -0.00103155 0
      endloop
   endfacet
   facet normal 0.856857 0.515554 0
      outer loop
         vertex -0.00128529 -0.000773331 0.003
         vertex -0.00119414 -0.000907761 0.003
         vertex -0.00119414 -0.000907761 0
      endloop
   endfacet
   facet normal 0.907575 0.419889 0
      outer loop
         vertex -0.00136136 -0.000629834 0.003
         vertex -0.00128529 -0.000773331 0.003
         vertex -0.00128529 -0.000773331 0
      endloop
   endfacet
   facet normal 0.947653 0.319302 0
      outer loop
         vertex -0.00142148 -0.000478952 0.003
         vertex -0.00136136 -0.000629834 0.003
         vertex -0.00136136 -0.000629834 0
      endloop
   endfacet
   facet normal 0.976621 0.21497 0
      outer loop
         vertex -0.00146493 -0.000322456 0.003
         vertex -0.00142148 -0.000478952 0.003
         vertex -0.00142148 -0.000478952 0
      endloop
   endfacet
   facet normal 0.994138 0.108119 0
      outer loop
         vertex -0.00149121 -0.000162179 0.003
         vertex -0.00146493 -0.000322456 0.003
         vertex -0.00146493 -0.000322456 0
      endloop
   endfacet
   facet normal 1 2.44929e-16 0
      outer loop
         vertex -0.0015 9.18485e-20 0.003
         vertex -0.00149121 -0.000162179 0.003
         vertex -0.00149121 -0.000162179 0
      endloop
   endfacet
   facet normal 0 0 1
      outer loop
         vertex 0.00254098 0.00240695 0.003
         vertex 0.00108899 0.00103155 0.003
         vertex 0.00119414 0.000907761 0.003
      endloop
   endfacet
   facet normal 0 0 1
      outer loop
         vertex 0.00226585 0.00266757 0.003
         vertex 0.000971079 0.00114324 0.003
         vertex 0.00108899 0.00103155 0.003
      endloop
   endfacet
   facet normal 0 0 1
      outer loop
         vertex 0.002999 0.00180444 0.003
         vertex 0.00128529 0.000773331 0.003
         vertex 0.00136136 0.000629834 0.003
      endloop
   endfacet
   facet normal 0 0 1
      outer loop
         vertex 0.002999 0.00180444 0.003
         vertex 0.00278633 0.00211811 0.003
         vertex 0.00119414 0.000907761 0.003
      endloop
   endfacet
   facet normal 0 0 1
      outer loop
         vertex 0.00108899 0.00103155 0.003
         vertex 0.00254098 0.00240695 0.003
         vertex 0.00226585 0.00266757 0.003
      endloop
   endfacet
   facet normal 0 0 1
      outer loop
         vertex 0.00226585 0.00266757 0.003
         vertex 0.00196415 0.00289691 0.003
         vertex 0.000841781 0.00124153 0.003
      endloop
   endfacet
   facet normal 0 0 1
      outer loop
         vertex 0.00119414 0.000907761 0.003
         vertex 0.00128529 0.000773331 0.003
         vertex 0.002999 0.00180444 0.003
      endloop
   endfacet
   facet normal 0 0 1
      outer loop
         vertex 0.000841781 0.00124153 0.003
         vertex 0.000971079 0.00114324 0.003
         vertex 0.00226585 0.00266757 0.003
      endloop
   endfacet
   facet normal 0 0 1
      outer loop
         vertex 0.00163943 0.00309229 0.003
         vertex 0.000702613 0.00132527 0.003
         vertex 0.000841781 0.00124153 0.003
      endloop
   endfacet
   facet normal 0 0 1
      outer loop
         vertex 0.00163943 0.00309229 0.003
         vertex 0.00129548 0.00325142 0.003
         vertex 0.000555207 0.00139347 0.003
      endloop
   endfacet
   facet normal 0 0 1
      outer loop
         vertex 0.000189486 0.00349487 0.003
         vertex 8.12084e-05 0.0014978 0.003
         vertex 0.000242673 0.00148024 0.003
      endloop
   endfacet
   facet normal 0 0 1
      outer loop
         vertex 0.000189486 0.00349487 0.003
         vertex -0.000189486 0.00349487 0.003
         vertex -8.12084e-05 0.0014978 0.003
      endloop
   endfacet
   facet normal 0 0 1
      outer loop
         vertex -0.000936349 -0.00337242 0.003
         vertex -0.000401293 -0.00144532 0.003
         vertex -0.000555207 -0.00139347 0.003
      endloop
   endfacet
   facet normal 0 0 1
      outer loop
         vertex -0.000566237 -0.00345389 0.003
         vertex -0.000242673 -0.00148024 0.003
         vertex -0.000401293 -0.00144532 0.003
      endloop
   endfacet
   facet normal 0 0 1
      outer loop
         vertex 0.00119414 0.000907761 0.003
         vertex 0.00278633 0.00211811 0.003
         vertex 0.00254098 0.00240695 0.003
      endloop
   endfacet
   facet normal 0 0 1
      outer loop
         vertex 0.000555207 0.00139347 0.003
         vertex 0.000702613 0.00132527 0.003
         vertex 0.00163943 0.00309229 0.003
      endloop
   endfacet
   facet normal 0 0 1
      outer loop
         vertex 0.000936349 0.00337242 0.003
         vertex 0.000401293 0.00144532 0.003
         vertex 0.000555207 0.00139347 0.003
      endloop
   endfacet
   facet normal 0 0 1
      outer loop
         vertex 0.000936349 0.00337242 0.003
         vertex 0.000566237 0.00345389 0.003
         vertex 0.000242673 0.00148024 0.003
      endloop
   endfacet
   facet normal 0 0 1
      outer loop
         vertex -8.12084e-05 0.0014978 0.003
         vertex 8.12084e-05 0.0014978 0.003
         vertex 0.000189486 0.00349487 0.003
      endloop
   endfacet
   facet normal 0 0 1
      outer loop
         vertex -0.000189486 0.00349487 0.003
         vertex -0.000566237 0.00345389 0.003
         vertex -0.000242673 0.00148024 0.003
      endloop
   endfacet
   facet normal 0 0 1
      outer loop
         vertex -0.00226585 -0.00266757 0.003
         vertex -0.000971079 -0.00114324 0.003
         vertex -0.00108899 -0.00103155 0.003
      endloop
   endfacet
   facet normal 0 0 1
      outer loop
         vertex -0.00226585 -0.00266757 0.003
         vertex -0.00196415 -0.00289691 0.003
         vertex -0.000841781 -0.00124153 0.003
      endloop
   endfacet
   facet normal 0 0 1
      outer loop
         vertex -0.000401293 -0.00144532 0.003
         vertex -0.000936349 -0.00337242 0.003
         vertex -0.000566237 -0.00345389 0.003
      endloop
   endfacet
   facet normal 0 0 1
      outer loop
         vertex -0.000566237 -0.00345389 0.003
         vertex -0.000189486 -0.00349487 0.003
         vertex -8.12084e-05 -0.0014978 0.003
      endloop
   endfacet
   facet normal 0 0 1
      outer loop
         vertex 0.000841781 0.00124153 0.003
         vertex 0.00196415 0.00289691 0.003
         vertex 0.00163943 0.00309229 0.003
      endloop
   endfacet
   facet normal 0 0 1
      outer loop
         vertex 0.000242673 0.00148024 0.003
         vertex 0.000401293 0.00144532 0.003
         vertex 0.000936349 0.00337242 0.003
      endloop
   endfacet
   facet normal 0 0 1
      outer loop
         vertex -0.000242673 0.00148024 0.003
         vertex -8.12084e-05 0.0014978 0.003
         vertex -0.000189486 0.00349487 0.003
      endloop
   endfacet
   facet normal 0 0 1
      outer loop
         vertex -0.000566237 0.00345389 0.003
         vertex -0.000936349 0.00337242 0.003
         vertex -0.000401293 0.00144532 0.003
      endloop
   endfacet
   facet normal 0 0 1
      outer loop
         vertex -0.00331679 -0.00111756 0.003
         vertex -0.00142148 -0.000478952 0.003
         vertex -0.00146493 -0.000322456 0.003
      endloop
   endfacet
   facet normal 0 0 1
      outer loop
         vertex -0.00317651 -0.00146961 0.003
         vertex -0.00136136 -0.000629834 0.003
         vertex -0.00142148 -0.000478952 0.003
      endloop
   endfacet
   facet normal 0 0 1
      outer loop
         vertex -0.000841781 -0.00124153 0.003
         vertex -0.000971079 -0.00114324 0.003
         vertex -0.00226585 -0.00266757 0.003
      endloop
   endfacet
   facet normal 0 0 1
      outer loop
         vertex -0.00196415 -0.00289691 0.003
         vertex -0.00163943 -0.00309229 0.003
         vertex -0.000702613 -0.00132527 0.003
      endloop
   endfacet
   facet normal 0 0 1
      outer loop
         vertex -0.00129548 -0.00325142 0.003
         vertex -0.000555207 -0.00139347 0.003
         vertex -0.000702613 -0.00132527 0.003
      endloop
   endfacet
   facet normal 0 0 1
      outer loop
         vertex -8.12084e-05 -0.0014978 0.003
         vertex -0.000242673 -0.00148024 0.003
         vertex -0.000566237 -0.00345389 0.003
      endloop
   endfacet
   facet normal 0 0 1
      outer loop
         vertex -0.000189486 -0.00349487 0.003
         vertex 0.000189486 -0.00349487 0.003
         vertex 8.12084e-05 -0.0014978 0.003
      endloop
   endfacet
   facet normal 0 0 1
      outer loop
         vertex 0.000189486 -0.00349487 0.003
         vertex 0.000566237 -0.00345389 0.003
         vertex 0.000242673 -0.00148024 0.003
      endloop
   endfacet
   facet normal 0 0 1
      outer loop
         vertex 0.000936349 -0.00337242 0.003
         vertex 0.000401293 -0.00144532 0.003
         vertex 0.000242673 -0.00148024 0.003
      endloop
   endfacet
   facet normal 0 0 1
      outer loop
         vertex 0.00129548 -0.00325142 0.003
         vertex 0.000555207 -0.00139347 0.003
         vertex 0.000401293 -0.00144532 0.003
      endloop
   endfacet
   facet normal 0 0 1
      outer loop
         vertex 0.00278633 -0.00211811 0.003
         vertex 0.00119414 -0.000907761 0.003
         vertex 0.00108899 -0.00103155 0.003
      endloop
   endfacet
   facet normal 0 0 1
      outer loop
         vertex 0.002999 -0.00180444 0.003
         vertex 0.00128529 -0.000773331 0.003
         vertex 0.00119414 -0.000907761 0.003
      endloop
   endfacet
   facet normal 0 0 1
      outer loop
         vertex 0.00331679 0.00111756 0.003
         vertex 0.00142148 0.000478952 0.003
         vertex 0.00146493 0.000322456 0.003
      endloop
   endfacet
   facet normal 0 0 1
      outer loop
         vertex 0.00331679 0.00111756 0.003
         vertex 0.00317651 0.00146961 0.003
         vertex 0.00136136 0.000629834 0.003
      endloop
   endfacet
   facet normal 0 0 1
      outer loop
         vertex 0.000555207 0.00139347 0.003
         vertex 0.00129548 0.00325142 0.003
         vertex 0.000936349 0.00337242 0.003
      endloop
   endfacet
   facet normal 0 0 1
      outer loop
         vertex -0.000401293 0.00144532 0.003
         vertex -0.000242673 0.00148024 0.003
         vertex -0.000566237 0.00345389 0.003
      endloop
   endfacet
   facet normal 0 0 1
      outer loop
         vertex -0.00129548 0.00325142 0.003
         vertex -0.000555207 0.00139347 0.003
         vertex -0.000401293 0.00144532 0.003
      endloop
   endfacet
   facet normal 0 0 1
      outer loop
         vertex -0.00129548 0.00325142 0.003
         vertex -0.00163943 0.00309229 0.003
         vertex -0.000702613 0.00132527 0.003
      endloop
   endfacet
   facet normal 0 0 1
      outer loop
         vertex -0.00254098 0.00240695 0.003
         vertex -0.00108899 0.00103155 0.003
         vertex -0.000971079 0.00114324 0.003
      endloop
   endfacet
   facet normal 0 0 1
      outer loop
         vertex -0.00254098 0.00240695 0.003
         vertex -0.00278633 0.00211811 0.003
         vertex -0.00119414 0.000907761 0.003
      endloop
   endfacet
   facet normal 0 0 1
      outer loop
         vertex -0.00142148 -0.000478952 0.003
         vertex -0.00331679 -0.00111756 0.003
         vertex -0.00317651 -0.00146961 0.003
      endloop
   endfacet
   facet normal 0 0 1
      outer loop
         vertex -0.00317651 -0.00146961 0.003
         vertex -0.002999 -0.00180444 0.003
         vertex -0.00128529 -0.000773331 0.003
      endloop
   endfacet
   facet normal 0 0 1
      outer loop
         vertex -0.00278633 -0.00211811 0.003
         vertex -0.00119414 -0.000907761 0.003
         vertex -0.00128529 -0.000773331 0.003
      endloop
   endfacet
   facet normal 0 0 1
      outer loop
         vertex -0.00278633 -0.00211811 0.003
         vertex -0.00254098 -0.00240695 0.003
         vertex -0.00108899 -0.00103155 0.003
      endloop
   endfacet
   facet normal 0 0 1
      outer loop
         vertex -0.000702613 -0.00132527 0.003
         vertex -0.000841781 -0.00124153 0.003
         vertex -0.00196415 -0.00289691 0.003
      endloop
   endfacet
   facet normal 0 0 1
      outer loop
         vertex -0.000555207 -0.00139347 0.003
         vertex -0.00129548 -0.00325142 0.003
         vertex -0.000936349 -0.00337242 0.003
      endloop
   endfacet
   facet normal 0 0 1
      outer loop
         vertex 0.000242673 -0.00148024 0.003
         vertex 8.12084e-05 -0.0014978 0.003
         vertex 0.000189486 -0.00349487 0.003
      endloop
   endfacet
   facet normal 0 0 1
      outer loop
         vertex 0.000401293 -0.00144532 0.003
         vertex 0.000936349 -0.00337242 0.003
         vertex 0.00129548 -0.00325142 0.003
      endloop
   endfacet
   facet normal 0 0 1
      outer loop
         vertex 0.00163943 -0.00309229 0.003
         vertex 0.000702613 -0.00132527 0.003
         vertex 0.000555207 -0.00139347 0.003
      endloop
   endfacet
   facet normal 0 0 1
      outer loop
         vertex 0.00163943 -0.00309229 0.003
         vertex 0.00196415 -0.00289691 0.003
         vertex 0.000841781 -0.00124153 0.003
      endloop
   endfacet
   facet normal 0 0 1
      outer loop
         vertex 0.00119414 -0.000907761 0.003
         vertex 0.00278633 -0.00211811 0.003
         vertex 0.002999 -0.00180444 0.003
      endloop
   endfacet
   facet normal 0 0 1
      outer loop
         vertex 0.002999 -0.00180444 0.003
         vertex 0.00317651 -0.00146961 0.003
         vertex 0.00136136 -0.000629834 0.003
      endloop
   endfacet
   facet normal 0 0 1
      outer loop
         vertex 0.00136136 0.000629834 0.003
         vertex 0.00142148 0.000478952 0.003
         vertex 0.00331679 0.00111756 0.003
      endloop
   endfacet
   facet normal 0 0 1
      outer loop
         vertex 0.000242673 0.00148024 0.003
         vertex 0.000566237 0.00345389 0.003
         vertex 0.000189486 0.00349487 0.003
      endloop
   endfacet
   facet normal 0 0 1
      outer loop
         vertex -0.000702613 0.00132527 0.003
         vertex -0.000555207 0.00139347 0.003
         vertex -0.00129548 0.00325142 0.003
      endloop
   endfacet
   facet normal 0 0 1
      outer loop
         vertex -0.00163943 0.00309229 0.003
         vertex -0.00196415 0.00289691 0.003
         vertex -0.000841781 0.00124153 0.003
      endloop
   endfacet
   facet normal 0 0 1
      outer loop
         vertex -0.00226585 0.00266757 0.003
         vertex -0.000971079 0.00114324 0.003
         vertex -0.000841781 0.00124153 0.003
      endloop
   endfacet
   facet normal 0 0 1
      outer loop
         vertex -0.00119414 0.000907761 0.003
         vertex -0.00108899 0.00103155 0.003
         vertex -0.00254098 0.00240695 0.003
      endloop
   endfacet
   facet normal 0 0 1
      outer loop
         vertex -0.00278633 0.00211811 0.003
         vertex -0.002999 0.00180444 0.003
         vertex -0.00128529 0.000773331 0.003
      endloop
   endfacet
   facet normal 0 0 1
      outer loop
         vertex -0.002999 0.00180444 0.003
         vertex -0.00317651 0.00146961 0.003
         vertex -0.00136136 0.000629834 0.003
      endloop
   endfacet
   facet normal 0 0 1
      outer loop
         vertex -0.00331679 0.00111756 0.003
         vertex -0.00142148 0.000478952 0.003
         vertex -0.00136136 0.000629834 0.003
      endloop
   endfacet
   facet normal 0 0 1
      outer loop
         vertex -0.00331679 0.00111756 0.003
         vertex -0.00341817 0.000752397 0.003
         vertex -0.00146493 0.000322456 0.003
      endloop
   endfacet
   facet normal 0 0 1
      outer loop
         vertex -0.0035 2.14313e-19 0.003
         vertex -0.0015 9.18485e-20 0.003
         vertex -0.00149121 0.000162179 0.003
      endloop
   endfacet
   facet normal 0 0 1
      outer loop
         vertex -0.0035 2.14313e-19 0.003
         vertex -0.00347948 -0.000378417 0.003
         vertex -0.00149121 -0.000162179 0.003
      endloop
   endfacet
   facet normal 0 0 1
      outer loop
         vertex -0.00128529 -0.000773331 0.003
         vertex -0.00136136 -0.000629834 0.003
         vertex -0.00317651 -0.00146961 0.003
      endloop
   endfacet
   facet normal 0 0 1
      outer loop
         vertex -0.00108899 -0.00103155 0.003
         vertex -0.00119414 -0.000907761 0.003
         vertex -0.00278633 -0.00211811 0.003
      endloop
   endfacet
   facet normal 0 0 1
      outer loop
         vertex -0.000702613 -0.00132527 0.003
         vertex -0.00163943 -0.00309229 0.003
         vertex -0.00129548 -0.00325142 0.003
      endloop
   endfacet
   facet normal 0 0 1
      outer loop
         vertex 0.000242673 -0.00148024 0.003
         vertex 0.000566237 -0.00345389 0.003
         vertex 0.000936349 -0.00337242 0.003
      endloop
   endfacet
   facet normal 0 0 1
      outer loop
         vertex 0.000841781 -0.00124153 0.003
         vertex 0.000702613 -0.00132527 0.003
         vertex 0.00163943 -0.00309229 0.003
      endloop
   endfacet
   facet normal 0 0 1
      outer loop
         vertex 0.00196415 -0.00289691 0.003
         vertex 0.00226585 -0.00266757 0.003
         vertex 0.000971079 -0.00114324 0.003
      endloop
   endfacet
   facet normal 0 0 1
      outer loop
         vertex 0.00136136 -0.000629834 0.003
         vertex 0.00128529 -0.000773331 0.003
         vertex 0.002999 -0.00180444 0.003
      endloop
   endfacet
   facet normal 0 0 1
      outer loop
         vertex 0.00317651 -0.00146961 0.003
         vertex 0.00331679 -0.00111756 0.003
         vertex 0.00142148 -0.000478952 0.003
      endloop
   endfacet
   facet normal 0 0 1
      outer loop
         vertex 0.00331679 -0.00111756 0.003
         vertex 0.00341817 -0.000752397 0.003
         vertex 0.00146493 -0.000322456 0.003
      endloop
   endfacet
   facet normal 0 0 1
      outer loop
         vertex 0.00341817 -0.000752397 0.003
         vertex 0.00347948 -0.000378417 0.003
         vertex 0.00149121 -0.000162179 0.003
      endloop
   endfacet
   facet normal 0 0 1
      outer loop
         vertex 0.00136136 0.000629834 0.003
         vertex 0.00317651 0.00146961 0.003
         vertex 0.002999 0.00180444 0.003
      endloop
   endfacet
   facet normal 0 0 1
      outer loop
         vertex -0.000841781 0.00124153 0.003
         vertex -0.000702613 0.00132527 0.003
         vertex -0.00163943 0.00309229 0.003
      endloop
   endfacet
   facet normal 0 0 1
      outer loop
         vertex -0.000971079 0.00114324 0.003
         vertex -0.00226585 0.00266757 0.003
         vertex -0.00254098 0.00240695 0.003
      endloop
   endfacet
   facet normal 0 0 1
      outer loop
         vertex -0.00136136 0.000629834 0.003
         vertex -0.00128529 0.000773331 0.003
         vertex -0.002999 0.00180444 0.003
      endloop
   endfacet
   facet normal 0 0 1
      outer loop
         vertex -0.00146493 0.000322456 0.003
         vertex -0.00142148 0.000478952 0.003
         vertex -0.00331679 0.00111756 0.003
      endloop
   endfacet
   facet normal 0 0 1
      outer loop
         vertex -0.00341817 0.000752397 0.003
         vertex -0.00347948 0.000378417 0.003
         vertex -0.00149121 0.000162179 0.003
      endloop
   endfacet
   facet normal 0 0 1
      outer loop
         vertex -0.00149121 -0.000162179 0.003
         vertex -0.0015 9.18485e-20 0.003
         vertex -0.0035 2.14313e-19 0.003
      endloop
   endfacet
   facet normal 0 0 1
      outer loop
         vertex -0.00347948 -0.000378417 0.003
         vertex -0.00341817 -0.000752397 0.003
         vertex -0.00146493 -0.000322456 0.003
      endloop
   endfacet
   facet normal 0 0 1
      outer loop
         vertex -0.00128529 -0.000773331 0.003
         vertex -0.002999 -0.00180444 0.003
         vertex -0.00278633 -0.00211811 0.003
      endloop
   endfacet
   facet normal 0 0 1
      outer loop
         vertex 8.12084e-05 -0.0014978 0.003
         vertex -8.12084e-05 -0.0014978 0.003
         vertex -0.000189486 -0.00349487 0.003
      endloop
   endfacet
   facet normal 0 0 1
      outer loop
         vertex 0.000971079 -0.00114324 0.003
         vertex 0.000841781 -0.00124153 0.003
         vertex 0.00196415 -0.00289691 0.003
      endloop
   endfacet
   facet normal 0 0 1
      outer loop
         vertex 0.00254098 -0.00240695 0.003
         vertex 0.00108899 -0.00103155 0.003
         vertex 0.000971079 -0.00114324 0.003
      endloop
   endfacet
   facet normal 0 0 1
      outer loop
         vertex 0.00142148 -0.000478952 0.003
         vertex 0.00136136 -0.000629834 0.003
         vertex 0.00317651 -0.00146961 0.003
      endloop
   endfacet
   facet normal 0 0 1
      outer loop
         vertex 0.00149121 -0.000162179 0.003
         vertex 0.00146493 -0.000322456 0.003
         vertex 0.00341817 -0.000752397 0.003
      endloop
   endfacet
   facet normal 0 0 1
      outer loop
         vertex -0.000401293 0.00144532 0.003
         vertex -0.000936349 0.00337242 0.003
         vertex -0.00129548 0.00325142 0.003
      endloop
   endfacet
   facet normal 0 0 1
      outer loop
         vertex -0.00128529 0.000773331 0.003
         vertex -0.00119414 0.000907761 0.003
         vertex -0.00278633 0.00211811 0.003
      endloop
   endfacet
   facet normal 0 0 1
      outer loop
         vertex -0.00149121 0.000162179 0.003
         vertex -0.00146493 0.000322456 0.003
         vertex -0.00341817 0.000752397 0.003
      endloop
   endfacet
   facet normal 0 0 1
      outer loop
         vertex -0.00146493 -0.000322456 0.003
         vertex -0.00149121 -0.000162179 0.003
         vertex -0.00347948 -0.000378417 0.003
      endloop
   endfacet
   facet normal 0 0 1
      outer loop
         vertex -0.00108899 -0.00103155 0.003
         vertex -0.00254098 -0.00240695 0.003
         vertex -0.00226585 -0.00266757 0.003
      endloop
   endfacet
   facet normal 0 0 1
      outer loop
         vertex 0.000971079 -0.00114324 0.003
         vertex 0.00226585 -0.00266757 0.003
         vertex 0.00254098 -0.00240695 0.003
      endloop
   endfacet
   facet normal 0 0 1
      outer loop
         vertex 0.00146493 -0.000322456 0.003
         vertex 0.00142148 -0.000478952 0.003
         vertex 0.00331679 -0.00111756 0.003
      endloop
   endfacet
   facet normal 0 0 1
      outer loop
         vertex 0.0035 1.50019e-18 0.003
         vertex 0.0015 2.75546e-19 0.003
         vertex 0.00149121 -0.000162179 0.003
      endloop
   endfacet
   facet normal 0 0 1
      outer loop
         vertex -0.000841781 0.00124153 0.003
         vertex -0.00196415 0.00289691 0.003
         vertex -0.00226585 0.00266757 0.003
      endloop
   endfacet
   facet normal 0 0 1
      outer loop
         vertex -0.00149121 0.000162179 0.003
         vertex -0.00347948 0.000378417 0.003
         vertex -0.0035 2.14313e-19 0.003
      endloop
   endfacet
   facet normal 0 0 1
      outer loop
         vertex 0.000555207 -0.00139347 0.003
         vertex 0.00129548 -0.00325142 0.003
         vertex 0.00163943 -0.00309229 0.003
      endloop
   endfacet
   facet normal 0 0 1
      outer loop
         vertex 0.00149121 -0.000162179 0.003
         vertex 0.00347948 -0.000378417 0.003
         vertex 0.0035 1.50019e-18 0.003
      endloop
   endfacet
   facet normal 0 0 1
      outer loop
         vertex 0.00347948 0.000378417 0.003
         vertex 0.00149121 0.000162179 0.003
         vertex 0.0015 2.75546e-19 0.003
      endloop
   endfacet
   facet normal 0 0 1
      outer loop
         vertex 0.00347948 0.000378417 0.003
         vertex 0.00341817 0.000752397 0.003
         vertex 0.00146493 0.000322456 0.003
      endloop
   endfacet
   facet normal 0 0 1
      outer loop
         vertex -0.00136136 0.000629834 0.003
         vertex -0.00317651 0.00146961 0.003
         vertex -0.00331679 0.00111756 0.003
      endloop
   endfacet
   facet normal 0 0 1
      outer loop
         vertex 0.00108899 -0.00103155 0.003
         vertex 0.00254098 -0.00240695 0.003
         vertex 0.00278633 -0.00211811 0.003
      endloop
   endfacet
   facet normal 0 0 1
      outer loop
         vertex 0.00146493 0.000322456 0.003
         vertex 0.00149121 0.000162179 0.003
         vertex 0.00347948 0.000378417 0.003
      endloop
   endfacet
   facet normal 0 0 1
      outer loop
         vertex -0.00146493 -0.000322456 0.003
         vertex -0.00341817 -0.000752397 0.003
         vertex -0.00331679 -0.00111756 0.003
      endloop
   endfacet
   facet normal 0 0 1
      outer loop
         vertex 0.00146493 0.000322456 0.003
         vertex 0.00341817 0.000752397 0.003
         vertex 0.00331679 0.00111756 0.003
      endloop
   endfacet
   facet normal 0 0 1
      outer loop
         vertex 0.0015 2.75546e-19 0.003
         vertex 0.0035 1.50019e-18 0.003
         vertex 0.00347948 0.000378417 0.003
      endloop
   endfacet
   facet normal -1 0 0
      outer loop
         vertex -0.0035 2.14313e-19 0
         vertex -0.0035 2.14313e-19 0.003
         vertex -0.00347948 0.000378417 0.003
      endloop
   endfacet
   facet normal -0.994138 0.108119 0
      outer loop
         vertex -0.00347948 0.000378417 0
         vertex -0.00347948 0.000378417 0.003
         vertex -0.00341817 0.000752397 0.003
      endloop
   endfacet
   facet normal -0.976621 0.21497 0
      outer loop
         vertex -0.00341817 0.000752397 0
         vertex -0.00341817 0.000752397 0.003
         vertex -0.00331679 0.00111756 0.003
      endloop
   endfacet
   facet normal -0.947653 0.319302 0
      outer loop
         vertex -0.00331679 0.00111756 0
         vertex -0.00331679 0.00111756 0.003
         vertex -0.00317651 0.00146961 0.003
      endloop
   endfacet
   facet normal -0.907575 0.419889 0
      outer loop
         vertex -0.00317651 0.00146961 0
         vertex -0.00317651 0.00146961 0.003
         vertex -0.002999 0.00180444 0.003
      endloop
   endfacet
   facet normal -0.856857 0.515554 0
      outer loop
         vertex -0.002999 0.00180444 0
         vertex -0.002999 0.00180444 0.003
         vertex -0.00278633 0.00211811 0.003
      endloop
   endfacet
   facet normal -0.796093 0.605174 0
      outer loop
         vertex -0.00278633 0.00211811 0
         vertex -0.00278633 0.00211811 0.003
         vertex -0.00254098 0.00240695 0.003
      endloop
   endfacet
   facet normal -0.725995 0.687699 0
      outer loop
         vertex -0.00254098 0.00240695 0
         vertex -0.00254098 0.00240695 0.003
         vertex -0.00226585 0.00266757 0.003
      endloop
   endfacet
   facet normal -0.647386 0.762162 0
      outer loop
         vertex -0.00226585 0.00266757 0
         vertex -0.00226585 0.00266757 0.003
         vertex -0.00196415 0.00289691 0.003
      endloop
   endfacet
   facet normal -0.561187 0.827689 0
      outer loop
         vertex -0.00196415 0.00289691 0
         vertex -0.00196415 0.00289691 0.003
         vertex -0.00163943 0.00309229 0.003
      endloop
   endfacet
   facet normal -0.468408 0.883512 0
      outer loop
         vertex -0.00163943 0.00309229 0
         vertex -0.00163943 0.00309229 0.003
         vertex -0.00129548 0.00325142 0.003
      endloop
   endfacet
   facet normal -0.370138 0.928977 0
      outer loop
         vertex -0.00129548 0.00325142 0
         vertex -0.00129548 0.00325142 0.003
         vertex -0.000936349 0.00337242 0.003
      endloop
   endfacet
   facet normal -0.267528 0.96355 0
      outer loop
         vertex -0.000936349 0.00337242 0
         vertex -0.000936349 0.00337242 0.003
         vertex -0.000566237 0.00345389 0.003
      endloop
   endfacet
   facet normal -0.161782 0.986827 0
      outer loop
         vertex -0.000566237 0.00345389 0
         vertex -0.000566237 0.00345389 0.003
         vertex -0.000189486 0.00349487 0.003
      endloop
   endfacet
   facet normal -0.0541389 0.998533 0
      outer loop
         vertex -0.000189486 0.00349487 0
         vertex -0.000189486 0.00349487 0.003
         vertex 0.000189486 0.00349487 0.003
      endloop
   endfacet
   facet normal 0.0541389 0.998533 0
      outer loop
         vertex 0.000189486 0.00349487 0
         vertex 0.000189486 0.00349487 0.003
         vertex 0.000566237 0.00345389 0.003
      endloop
   endfacet
   facet normal 0.161782 0.986827 0
      outer loop
         vertex 0.000566237 0.00345389 0
         vertex 0.000566237 0.00345389 0.003
         vertex 0.000936349 0.00337242 0.003
      endloop
   endfacet
   facet normal 0.267528 0.96355 0
      outer loop
         vertex 0.000936349 0.00337242 0
         vertex 0.000936349 0.00337242 0.003
         vertex 0.00129548 0.00325142 0.003
      endloop
   endfacet
   facet normal 0.370138 0.928977 0
      outer loop
         vertex 0.00129548 0.00325142 0
         vertex 0.00129548 0.00325142 0.003
         vertex 0.00163943 0.00309229 0.003
      endloop
   endfacet
   facet normal 0.468408 0.883512 0
      outer loop
         vertex 0.00163943 0.00309229 0
         vertex 0.00163943 0.00309229 0.003
         vertex 0.00196415 0.00289691 0.003
      endloop
   endfacet
   facet normal 0.561187 0.827689 0
      outer loop
         vertex 0.00196415 0.00289691 0
         vertex 0.00196415 0.00289691 0.003
         vertex 0.00226585 0.00266757 0.003
      endloop
   endfacet
   facet normal 0.647386 0.762162 0
      outer loop
         vertex 0.00226585 0.00266757 0
         vertex 0.00226585 0.00266757 0.003
         vertex 0.00254098 0.00240695 0.003
      endloop
   endfacet
   facet normal 0.725995 0.687699 0
      outer loop
         vertex 0.00254098 0.00240695 0
         vertex 0.00254098 0.00240695 0.003
         vertex 0.00278633 0.00211811 0.003
      endloop
   endfacet
   facet normal 0.796093 0.605174 0
      outer loop
         vertex 0.00278633 0.00211811 0
         vertex 0.00278633 0.00211811 0.003
         vertex 0.002999 0.00180444 0.003
      endloop
   endfacet
   facet normal 0.856857 0.515554 0
      outer loop
         vertex 0.002999 0.00180444 0
         vertex 0.002999 0.00180444 0.003
         vertex 0.00317651 0.00146961 0.003
      endloop
   endfacet
   facet normal 0.907575 0.419889 0
      outer loop
         vertex 0.00317651 0.00146961 0
         vertex 0.00317651 0.00146961 0.003
         vertex 0.00331679 0.00111756 0.003
      endloop
   endfacet
   facet normal 0.947653 0.319302 0
      outer loop
         vertex 0.00331679 0.00111756 0
         vertex 0.00331679 0.00111756 0.003
         vertex 0.00341817 0.000752397 0.003
      endloop
   endfacet
   facet normal 0.976621 0.21497 0
      outer loop
         vertex 0.00341817 0.000752397 0
         vertex 0.00341817 0.000752397 0.003
         vertex 0.00347948 0.000378417 0.003
      endloop
   endfacet
   facet normal 0.994138 0.108119 0
      outer loop
         vertex 0.00347948 0.000378417 0
         vertex 0.00347948 0.000378417 0.003
         vertex 0.0035 1.50019e-18 0.003
      endloop
   endfacet
   facet normal 1 1.22465e-16 0
      outer loop
         vertex 0.0035 6.4294e-19 0
         vertex 0.0035 1.50019e-18 0.003
         vertex 0.00347948 -0.000378417 0.003
      endloop
   endfacet
   facet normal 0.994138 -0.108119 0
      outer loop
         vertex 0.00347948 -0.000378417 0
         vertex 0.00347948 -0.000378417 0.003
         vertex 0.00341817 -0.000752397 0.003
      endloop
   endfacet
   facet normal 0.976621 -0.21497 0
      outer loop
         vertex 0.00341817 -0.000752397 0
         vertex 0.00341817 -0.000752397 0.003
         vertex 0.00331679 -0.00111756 0.003
      endloop
   endfacet
   facet normal 0.947653 -0.319302 0
      outer loop
         vertex 0.00331679 -0.00111756 0
         vertex 0.00331679 -0.00111756 0.003
         vertex 0.00317651 -0.00146961 0.003
      endloop
   endfacet
   facet normal 0.907575 -0.419889 0
      outer loop
         vertex 0.00317651 -0.00146961 0
         vertex 0.00317651 -0.00146961 0.003
         vertex 0.002999 -0.00180444 0.003
      endloop
   endfacet
   facet normal 0.856857 -0.515554 0
      outer loop
         vertex 0.002999 -0.00180444 0
         vertex 0.002999 -0.00180444 0.003
         vertex 0.00278633 -0.00211811 0.003
      endloop
   endfacet
   facet normal 0.796093 -0.605174 0
      outer loop
         vertex 0.00278633 -0.00211811 0
         vertex 0.00278633 -0.00211811 0.003
         vertex 0.00254098 -0.00240695 0.003
      endloop
   endfacet
   facet normal 0.725995 -0.687699 0
      outer loop
         vertex 0.00254098 -0.00240695 0
         vertex 0.00254098 -0.00240695 0.003
         vertex 0.00226585 -0.00266757 0.003
      endloop
   endfacet
   facet normal 0.647386 -0.762162 0
      outer loop
         vertex 0.00226585 -0.00266757 0
         vertex 0.00226585 -0.00266757 0.003
         vertex 0.00196415 -0.00289691 0.003
      endloop
   endfacet
   facet normal 0.561187 -0.827689 0
      outer loop
         vertex 0.00196415 -0.00289691 0
         vertex 0.00196415 -0.00289691 0.003
         vertex 0.00163943 -0.00309229 0.003
      endloop
   endfacet
   facet normal 0.468408 -0.883512 0
      outer loop
         vertex 0.00163943 -0.00309229 0
         vertex 0.00163943 -0.00309229 0.003
         vertex 0.00129548 -0.00325142 0.003
      endloop
   endfacet
   facet normal 0.370138 -0.928977 0
      outer loop
         vertex 0.00129548 -0.00325142 0
         vertex 0.00129548 -0.00325142 0.003
         vertex 0.000936349 -0.00337242 0.003
      endloop
   endfacet
   facet normal 0.267528 -0.96355 0
      outer loop
         vertex 0.000936349 -0.00337242 0
         vertex 0.000936349 -0.00337242 0.003
         vertex 0.000566237 -0.00345389 0.003
      endloop
   endfacet
   facet normal 0.161782 -0.986827 0
      outer loop
         vertex 0.000566237 -0.00345389 0
         vertex 0.000566237 -0.00345389 0.003
         vertex 0.000189486 -0.00349487 0.003
      endloop
   endfacet
   facet normal 0.0541389 -0.998533 0
      outer loop
         vertex 0.000189486 -0.00349487 0
         vertex 0.000189486 -0.00349487 0.003
         vertex -0.000189486 -0.00349487 0.003
      endloop
   endfacet
   facet normal -0.0541389 -0.998533 0
      outer loop
         vertex -0.000189486 -0.00349487 0
         vertex -0.000189486 -0.00349487 0.003
         vertex -0.000566237 -0.00345389 0.003
      endloop
   endfacet
   facet normal -0.161782 -0.986827 0
      outer loop
         vertex -0.000566237 -0.00345389 0
         vertex -0.000566237 -0.00345389 0.003
         vertex -0.000936349 -0.00337242 0.003
      endloop
   endfacet
   facet normal -0.267528 -0.96355 0
      outer loop
         vertex -0.000936349 -0.00337242 0
         vertex -0.000936349 -0.00337242 0.003
         vertex -0.00129548 -0.00325142 0.003
      endloop
   endfacet
   facet normal -0.370138 -0.928977 0
      outer loop
         vertex -0.00129548 -0.00325142 0
         vertex -0.00129548 -0.00325142 0.003
         vertex -0.00163943 -0.00309229 0.003
      endloop
   endfacet
   facet normal -0.468408 -0.883512 0
      outer loop
         vertex -0.00163943 -0.00309229 0
         vertex -0.00163943 -0.00309229 0.003
         vertex -0.00196415 -0.00289691 0.003
      endloop
   endfacet
   facet normal -0.561187 -0.827689 0
      outer loop
         vertex -0.00196415 -0.00289691 0
         vertex -0.00196415 -0.00289691 0.003
         vertex -0.00226585 -0.00266757 0.003
      endloop
   endfacet
   facet normal -0.647386 -0.762162 0
      outer loop
         vertex -0.00226585 -0.00266757 0
         vertex -0.00226585 -0.00266757 0.003
         vertex -0.00254098 -0.00240695 0.003
      endloop
   endfacet
   facet normal -0.725995 -0.687699 0
      outer loop
         vertex -0.00254098 -0.00240695 0
         vertex -0.00254098 -0.00240695 0.003
         vertex -0.00278633 -0.00211811 0.003
      endloop
   endfacet
   facet normal -0.796093 -0.605174 0
      outer loop
         vertex -0.00278633 -0.00211811 0
         vertex -0.00278633 -0.00211811 0.003
         vertex -0.002999 -0.00180444 0.003
      endloop
   endfacet
   facet normal -0.856857 -0.515554 0
      outer loop
         vertex -0.002999 -0.00180444 0
         vertex -0.002999 -0.00180444 0.003
         vertex -0.00317651 -0.00146961 0.003
      endloop
   endfacet
   facet normal -0.907575 -0.419889 0
      outer loop
         vertex -0.00317651 -0.00146961 0
         vertex -0.00317651 -0.00146961 0.003
         vertex -0.00331679 -0.00111756 0.003
      endloop
   endfacet
   facet normal -0.947653 -0.319302 0
      outer loop
         vertex -0.00331679 -0.00111756 0
         vertex -0.00331679 -0.00111756 0.003
         vertex -0.00341817 -0.000752397 0.003
      endloop
   endfacet
   facet normal -0.976621 -0.21497 0
      outer loop
         vertex -0.00341817 -0.000752397 0
         vertex -0.00341817 -0.000752397 0.003
         vertex -0.00347948 -0.000378417 0.003
      endloop
   endfacet
   facet normal -0.994138 -0.108119 0
      outer loop
         vertex -0.00347948 -0.000378417 0
         vertex -0.00347948 -0.000378417 0.003
         vertex -0.0035 2.14313e-19 0.003
      endloop
   endfacet
   facet normal -1 0 0
      outer loop
         vertex -0.0035 2.14313e-19 0.003
         vertex -0.0035 2.14313e-19 0
         vertex -0.00347948 -0.000378417 0
      endloop
   endfacet
   facet normal -0.994138 -0.108119 0
      outer loop
         vertex -0.00347948 -0.000378417 0.003
         vertex -0.00347948 -0.000378417 0
         vertex -0.00341817 -0.000752397 0
      endloop
   endfacet
   facet normal -0.976621 -0.21497 0
      outer loop
         vertex -0.00341817 -0.000752397 0.003
         vertex -0.00341817 -0.000752397 0
         vertex -0.00331679 -0.00111756 0
      endloop
   endfacet
   facet normal -0.947653 -0.319302 0
      outer loop
         vertex -0.00331679 -0.00111756 0.003
         vertex -0.00331679 -0.00111756 0
         vertex -0.00317651 -0.00146961 0
      endloop
   endfacet
   facet normal -0.907575 -0.419889 0
      outer loop
         vertex -0.00317651 -0.00146961 0.003
         vertex -0.00317651 -0.00146961 0
         vertex -0.002999 -0.00180444 0
      endloop
   endfacet
   facet normal -0.856857 -0.515554 0
      outer loop
         vertex -0.002999 -0.00180444 0.003
         vertex -0.002999 -0.00180444 0
         vertex -0.00278633 -0.00211811 0
      endloop
   endfacet
   facet normal -0.796093 -0.605174 0
      outer loop
         vertex -0.00278633 -0.00211811 0.003
         vertex -0.00278633 -0.00211811 0
         vertex -0.00254098 -0.00240695 0
      endloop
   endfacet
   facet normal -0.725995 -0.687699 0
      outer loop
         vertex -0.00254098 -0.00240695 0.003
         vertex -0.00254098 -0.00240695 0
         vertex -0.00226585 -0.00266757 0
      endloop
   endfacet
   facet normal -0.647386 -0.762162 0
      outer loop
         vertex -0.00226585 -0.00266757 0.003
         vertex -0.00226585 -0.00266757 0
         vertex -0.00196415 -0.00289691 0
      endloop
   endfacet
   facet normal -0.561187 -0.827689 0
      outer loop
         vertex -0.00196415 -0.00289691 0.003
         vertex -0.00196415 -0.00289691 0
         vertex -0.00163943 -0.00309229 0
      endloop
   endfacet
   facet normal -0.468408 -0.883512 0
      outer loop
         vertex -0.00163943 -0.00309229 0.003
         vertex -0.00163943 -0.00309229 0
         vertex -0.00129548 -0.00325142 0
      endloop
   endfacet
   facet normal -0.370138 -0.928977 0
      outer loop
         vertex -0.00129548 -0.00325142 0.003
         vertex -0.00129548 -0.00325142 0
         vertex -0.000936349 -0.00337242 0
      endloop
   endfacet
   facet normal -0.267528 -0.96355 0
      outer loop
         vertex -0.000936349 -0.00337242 0.003
         vertex -0.000936349 -0.00337242 0
         vertex -0.000566237 -0.00345389 0
      endloop
   endfacet
   facet normal -0.161782 -0.986827 0
      outer loop
         vertex -0.000566237 -0.00345389 0.003
         vertex -0.000566237 -0.00345389 0
         vertex -0.000189486 -0.00349487 0
      endloop
   endfacet
   facet normal -0.0541389 -0.998533 0
      outer loop
         vertex -0.000189486 -0.00349487 0.003
         vertex -0.000189486 -0.00349487 0
         vertex 0.000189486 -0.00349487 0
      endloop
   endfacet
   facet normal 0.0541389 -0.998533 0
      outer loop
         vertex 0.000189486 -0.00349487 0.003
         vertex 0.000189486 -0.00349487 0
         vertex 0.000566237 -0.00345389 0
      endloop
   endfacet
   facet normal 0.161782 -0.986827 0
      outer loop
         vertex 0.000566237 -0.00345389 0.003
         vertex 0.000566237 -0.00345389 0
         vertex 0.000936349 -0.00337242 0
      endloop
   endfacet
   facet normal 0.267528 -0.96355 0
      outer loop
         vertex 0.000936349 -0.00337242 0.003
         vertex 0.000936349 -0.00337242 0
         vertex 0.00129548 -0.00325142 0
      endloop
   endfacet
   facet normal 0.370138 -0.928977 0
      outer loop
         vertex 0.00129548 -0.00325142 0.003
         vertex 0.00129548 -0.00325142 0
         vertex 0.00163943 -0.00309229 0
      endloop
   endfacet
   facet normal 0.468408 -0.883512 0
      outer loop
         vertex 0.00163943 -0.00309229 0.003
         vertex 0.00163943 -0.00309229 0
         vertex 0.00196415 -0.00289691 0
      endloop
   endfacet
   facet normal 0.561187 -0.827689 0
      outer loop
         vertex 0.00196415 -0.00289691 0.003
         vertex 0.00196415 -0.00289691 0
         vertex 0.00226585 -0.00266757 0
      endloop
   endfacet
   facet normal 0.647386 -0.762162 0
      outer loop
         vertex 0.00226585 -0.00266757 0.003
         vertex 0.00226585 -0.00266757 0
         vertex 0.00254098 -0.00240695 0
      endloop
   endfacet
   facet normal 0.725995 -0.687699 0
      outer loop
         vertex 0.00254098 -0.00240695 0.003
         vertex 0.00254098 -0.00240695 0
         vertex 0.00278633 -0.00211811 0
      endloop
   endfacet
   facet normal 0.796093 -0.605174 0
      outer loop
         vertex 0.00278633 -0.00211811 0.003
         vertex 0.00278633 -0.00211811 0
         vertex 0.002999 -0.00180444 0
      endloop
   endfacet
   facet normal 0.856857 -0.515554 0
      outer loop
         vertex 0.002999 -0.00180444 0.003
         vertex 0.002999 -0.00180444 0
         vertex 0.00317651 -0.00146961 0
      endloop
   endfacet
   facet normal 0.907575 -0.419889 0
      outer loop
         vertex 0.00317651 -0.00146961 0.003
         vertex 0.00317651 -0.00146961 0
         vertex 0.00331679 -0.00111756 0
      endloop
   endfacet
   facet normal 0.947653 -0.319302 0
      outer loop
         vertex 0.00331679 -0.00111756 0.003
         vertex 0.00331679 -0.00111756 0
         vertex 0.00341817 -0.000752397 0
      endloop
   endfacet
   facet normal 0.976621 -0.21497 0
      outer loop
         vertex 0.00341817 -0.000752397 0.003
         vertex 0.00341817 -0.000752397 0
         vertex 0.00347948 -0.000378417 0
      endloop
   endfacet
   facet normal 0.994138 -0.108119 0
      outer loop
         vertex 0.00347948 -0.000378417 0.003
         vertex 0.00347948 -0.000378417 0
         vertex 0.0035 6.4294e-19 0
      endloop
   endfacet
   facet normal 1 1.22465e-16 0
      outer loop
         vertex 0.0035 1.50019e-18 0.003
         vertex 0.0035 6.4294e-19 0
         vertex 0.00347948 0.000378417 0
      endloop
   endfacet
   facet normal 0.994138 0.108119 0
      outer loop
         vertex 0.00347948 0.000378417 0.003
         vertex 0.00347948 0.000378417 0
         vertex 0.00341817 0.000752397 0
      endloop
   endfacet
   facet normal 0.976621 0.21497 0
      outer loop
         vertex 0.00341817 0.000752397 0.003
         vertex 0.00341817 0.000752397 0
         vertex 0.00331679 0.00111756 0
      endloop
   endfacet
   facet normal 0.947653 0.319302 0
      outer loop
         vertex 0.00331679 0.00111756 0.003
         vertex 0.00331679 0.00111756 0
         vertex 0.00317651 0.00146961 0
      endloop
   endfacet
   facet normal 0.907575 0.419889 0
      outer loop
         vertex 0.00317651 0.00146961 0.003
         vertex 0.00317651 0.00146961 0
         vertex 0.002999 0.00180444 0
      endloop
   endfacet
   facet normal 0.856857 0.515554 0
      outer loop
         vertex 0.002999 0.00180444 0.003
         vertex 0.002999 0.00180444 0
         vertex 0.00278633 0.00211811 0
      endloop
   endfacet
   facet normal 0.796093 0.605174 0
      outer loop
         vertex 0.00278633 0.00211811 0.003
         vertex 0.00278633 0.00211811 0
         vertex 0.00254098 0.00240695 0
      endloop
   endfacet
   facet normal 0.725995 0.687699 0
      outer loop
         vertex 0.00254098 0.00240695 0.003
         vertex 0.00254098 0.00240695 0
         vertex 0.00226585 0.00266757 0
      endloop
   endfacet
   facet normal 0.647386 0.762162 0
      outer loop
         vertex 0.00226585 0.00266757 0.003
         vertex 0.00226585 0.00266757 0
         vertex 0.00196415 0.00289691 0
      endloop
   endfacet
   facet normal 0.561187 0.827689 0
      outer loop
         vertex 0.00196415 0.00289691 0.003
         vertex 0.00196415 0.00289691 0
         vertex 0.00163943 0.00309229 0
      endloop
   endfacet
   facet normal 0.468408 0.883512 0
      outer loop
         vertex 0.00163943 0.00309229 0.003
         vertex 0.00163943 0.00309229 0
         vertex 0.00129548 0.00325142 0
      endloop
   endfacet
   facet normal 0.370138 0.928977 0
      outer loop
         vertex 0.00129548 0.00325142 0.003
         vertex 0.00129548 0.00325142 0
         vertex 0.000936349 0.00337242 0
      endloop
   endfacet
   facet normal 0.267528 0.96355 0
      outer loop
         vertex 0.000936349 0.00337242 0.003
         vertex 0.000936349 0.00337242 0
         vertex 0.000566237 0.00345389 0
      endloop
   endfacet
   facet normal 0.161782 0.986827 0
      outer loop
         vertex 0.000566237 0.00345389 0.003
         vertex 0.000566237 0.00345389 0
         vertex 0.000189486 0.00349487 0
      endloop
   endfacet
   facet normal 0.0541389 0.998533 0
      outer loop
         vertex 0.000189486 0.00349487 0.003
         vertex 0.000189486 0.00349487 0
         vertex -0.000189486 0.00349487 0
      endloop
   endfacet
   facet normal -0.0541389 0.998533 0
      outer loop
         vertex -0.000189486 0.00349487 0.003
         vertex -0.000189486 0.00349487 0
         vertex -0.000566237 0.00345389 0
      endloop
   endfacet
   facet normal -0.161782 0.986827 0
      outer loop
         vertex -0.000566237 0.00345389 0.003
         vertex -0.000566237 0.00345389 0
         vertex -0.000936349 0.00337242 0
      endloop
   endfacet
   facet normal -0.267528 0.96355 0
      outer loop
         vertex -0.000936349 0.00337242 0.003
         vertex -0.000936349 0.00337242 0
         vertex -0.00129548 0.00325142 0
      endloop
   endfacet
   facet normal -0.370138 0.928977 0
      outer loop
         vertex -0.00129548 0.00325142 0.003
         vertex -0.00129548 0.00325142 0
         vertex -0.00163943 0.00309229 0
      endloop
   endfacet
   facet normal -0.468408 0.883512 0
      outer loop
         vertex -0.00163943 0.00309229 0.003
         vertex -0.00163943 0.00309229 0
         vertex -0.00196415 0.00289691 0
      endloop
   endfacet
   facet normal -0.561187 0.827689 0
      outer loop
         vertex -0.00196415 0.00289691 0.003
         vertex -0.00196415 0.00289691 0
         vertex -0.00226585 0.00266757 0
      endloop
   endfacet
   facet normal -0.647386 0.762162 0
      outer loop
         vertex -0.00226585 0.00266757 0.003
         vertex -0.00226585 0.00266757 0
         vertex -0.00254098 0.00240695 0
      endloop
   endfacet
   facet normal -0.725995 0.687699 0
      outer loop
         vertex -0.00254098 0.00240695 0.003
         vertex -0.00254098 0.00240695 0
         vertex -0.00278633 0.00211811 0
      endloop
   endfacet
   facet normal -0.796093 0.605174 0
      outer loop
         vertex -0.00278633 0.00211811 0.003
         vertex -0.00278633 0.00211811 0
         vertex -0.002999 0.00180444 0
      endloop
   endfacet
   facet normal -0.856857 0.515554 0
      outer loop
         vertex -0.002999 0.00180444 0.003
         vertex -0.002999 0.00180444 0
         vertex -0.00317651 0.00146961 0
      endloop
   endfacet
   facet normal -0.907575 0.419889 0
      outer loop
         vertex -0.00317651 0.00146961 0.003
         vertex -0.00317651 0.00146961 0
         vertex -0.00331679 0.00111756 0
      endloop
   endfacet
   facet normal -0.947653 0.319302 0
      outer loop
         vertex -0.00331679 0.00111756 0.003
         vertex -0.00331679 0.00111756 0
         vertex -0.00341817 0.000752397 0
      endloop
   endfacet
   facet normal -0.976621 0.21497 0
      outer loop
         vertex -0.00341817 0.000752397 0.003
         vertex -0.00341817 0.000752397 0
         vertex -0.00347948 0.000378417 0
      endloop
   endfacet
   facet normal -0.994138 0.108119 0
      outer loop
         vertex -0.00347948 0.000378417 0.003
         vertex -0.00347948 0.000378417 0
         vertex -0.0035 2.14313e-19 0
      endloop
   endfacet
   facet normal 0 0 -1
      outer loop
         vertex -0.000566237 0.00345389 0
         vertex -0.000242673 0.00148024 0
         vertex -0.000401293 0.00144532 0
      endloop
   endfacet
   facet normal 0 0 -1
      outer loop
         vertex -0.000189486 0.00349487 0
         vertex -8.12084e-05 0.0014978 0
         vertex -0.000242673 0.00148024 0
      endloop
   endfacet
   facet normal 0 0 -1
      outer loop
         vertex -0.000242673 0.00148024 0
         vertex -0.000566237 0.00345389 0
         vertex -0.000189486 0.00349487 0
      endloop
   endfacet
   facet normal 0 0 -1
      outer loop
         vertex -0.000189486 0.00349487 0
         vertex 0.000189486 0.00349487 0
         vertex 8.12084e-05 0.0014978 0
      endloop
   endfacet
   facet normal 0 0 -1
      outer loop
         vertex 0.00317651 -0.00146961 0
         vertex 0.00136136 -0.000629834 0
         vertex 0.00142148 -0.000478952 0
      endloop
   endfacet
   facet normal 0 0 -1
      outer loop
         vertex 0.002999 -0.00180444 0
         vertex 0.00128529 -0.000773331 0
         vertex 0.00136136 -0.000629834 0
      endloop
   endfacet
   facet normal 0 0 -1
      outer loop
         vertex 0.002999 -0.00180444 0
         vertex 0.00278633 -0.00211811 0
         vertex 0.00119414 -0.000907761 0
      endloop
   endfacet
   facet normal 0 0 -1
      outer loop
         vertex 0.00278633 -0.00211811 0
         vertex 0.00254098 -0.00240695 0
         vertex 0.00108899 -0.00103155 0
      endloop
   endfacet
   facet normal 0 0 -1
      outer loop
         vertex 0.00129548 -0.00325142 0
         vertex 0.000936349 -0.00337242 0
         vertex 0.000401293 -0.00144532 0
      endloop
   endfacet
   facet normal 0 0 -1
      outer loop
         vertex 0.000936349 -0.00337242 0
         vertex 0.000566237 -0.00345389 0
         vertex 0.000242673 -0.00148024 0
      endloop
   endfacet
   facet normal 0 0 -1
      outer loop
         vertex -0.000566237 -0.00345389 0
         vertex -0.000242673 -0.00148024 0
         vertex -8.12084e-05 -0.0014978 0
      endloop
   endfacet
   facet normal 0 0 -1
      outer loop
         vertex -0.000566237 -0.00345389 0
         vertex -0.000936349 -0.00337242 0
         vertex -0.000401293 -0.00144532 0
      endloop
   endfacet
   facet normal 0 0 -1
      outer loop
         vertex -0.00331679 0.00111756 0
         vertex -0.00142148 0.000478952 0
         vertex -0.00146493 0.000322456 0
      endloop
   endfacet
   facet normal 0 0 -1
      outer loop
         vertex -0.00331679 0.00111756 0
         vertex -0.00317651 0.00146961 0
         vertex -0.00136136 0.000629834 0
      endloop
   endfacet
   facet normal 0 0 -1
      outer loop
         vertex -0.002999 0.00180444 0
         vertex -0.00128529 0.000773331 0
         vertex -0.00136136 0.000629834 0
      endloop
   endfacet
   facet normal 0 0 -1
      outer loop
         vertex -0.002999 0.00180444 0
         vertex -0.00278633 0.00211811 0
         vertex -0.00119414 0.000907761 0
      endloop
   endfacet
   facet normal 0 0 -1
      outer loop
         vertex -0.00254098 0.00240695 0
         vertex -0.00108899 0.00103155 0
         vertex -0.00119414 0.000907761 0
      endloop
   endfacet
   facet normal 0 0 -1
      outer loop
         vertex -0.00254098 0.00240695 0
         vertex -0.00226585 0.00266757 0
         vertex -0.000971079 0.00114324 0
      endloop
   endfacet
   facet normal 0 0 -1
      outer loop
         vertex 8.12084e-05 0.0014978 0
         vertex -8.12084e-05 0.0014978 0
         vertex -0.000189486 0.00349487 0
      endloop
   endfacet
   facet normal 0 0 -1
      outer loop
         vertex 0.000189486 0.00349487 0
         vertex 0.000566237 0.00345389 0
         vertex 0.000242673 0.00148024 0
      endloop
   endfacet
   facet normal 0 0 -1
      outer loop
         vertex 0.000936349 0.00337242 0
         vertex 0.000401293 0.00144532 0
         vertex 0.000242673 0.00148024 0
      endloop
   endfacet
   facet normal 0 0 -1
      outer loop
         vertex 0.000936349 0.00337242 0
         vertex 0.00129548 0.00325142 0
         vertex 0.000555207 0.00139347 0
      endloop
   endfacet
   facet normal 0 0 -1
      outer loop
         vertex 0.00347948 0.000378417 0
         vertex 0.00149121 0.000162179 0
         vertex 0.00146493 0.000322456 0
      endloop
   endfacet
   facet normal 0 0 -1
      outer loop
         vertex 0.0035 6.4294e-19 0
         vertex 0.0015 6.4294e-19 0
         vertex 0.00149121 0.000162179 0
      endloop
   endfacet
   facet normal 0 0 -1
      outer loop
         vertex 0.00341817 -0.000752397 0
         vertex 0.00146493 -0.000322456 0
         vertex 0.00149121 -0.000162179 0
      endloop
   endfacet
   facet normal 0 0 -1
      outer loop
         vertex 0.00331679 -0.00111756 0
         vertex 0.00142148 -0.000478952 0
         vertex 0.00146493 -0.000322456 0
      endloop
   endfacet
   facet normal 0 0 -1
      outer loop
         vertex 0.00136136 -0.000629834 0
         vertex 0.00317651 -0.00146961 0
         vertex 0.002999 -0.00180444 0
      endloop
   endfacet
   facet normal 0 0 -1
      outer loop
         vertex 0.00108899 -0.00103155 0
         vertex 0.00119414 -0.000907761 0
         vertex 0.00278633 -0.00211811 0
      endloop
   endfacet
   facet normal 0 0 -1
      outer loop
         vertex 0.000242673 -0.00148024 0
         vertex 0.000401293 -0.00144532 0
         vertex 0.000936349 -0.00337242 0
      endloop
   endfacet
   facet normal 0 0 -1
      outer loop
         vertex 0.000189486 -0.00349487 0
         vertex 8.12084e-05 -0.0014978 0
         vertex 0.000242673 -0.00148024 0
      endloop
   endfacet
   facet normal 0 0 -1
      outer loop
         vertex -0.000401293 -0.00144532 0
         vertex -0.000242673 -0.00148024 0
         vertex -0.000566237 -0.00345389 0
      endloop
   endfacet
   facet normal 0 0 -1
      outer loop
         vertex -0.000936349 -0.00337242 0
         vertex -0.00129548 -0.00325142 0
         vertex -0.000555207 -0.00139347 0
      endloop
   endfacet
   facet normal 0 0 -1
      outer loop
         vertex -0.00341817 0.000752397 0
         vertex -0.00146493 0.000322456 0
         vertex -0.00149121 0.000162179 0
      endloop
   endfacet
   facet normal 0 0 -1
      outer loop
         vertex -0.00136136 0.000629834 0
         vertex -0.00142148 0.000478952 0
         vertex -0.00331679 0.00111756 0
      endloop
   endfacet
   facet normal 0 0 -1
      outer loop
         vertex -0.00119414 0.000907761 0
         vertex -0.00128529 0.000773331 0
         vertex -0.002999 0.00180444 0
      endloop
   endfacet
   facet normal 0 0 -1
      outer loop
         vertex -0.000971079 0.00114324 0
         vertex -0.00108899 0.00103155 0
         vertex -0.00254098 0.00240695 0
      endloop
   endfacet
   facet normal 0 0 -1
      outer loop
         vertex 0.000242673 0.00148024 0
         vertex 8.12084e-05 0.0014978 0
         vertex 0.000189486 0.00349487 0
      endloop
   endfacet
   facet normal 0 0 -1
      outer loop
         vertex 0.000555207 0.00139347 0
         vertex 0.000401293 0.00144532 0
         vertex 0.000936349 0.00337242 0
      endloop
   endfacet
   facet normal 0 0 -1
      outer loop
         vertex 0.00163943 0.00309229 0
         vertex 0.000702613 0.00132527 0
         vertex 0.000555207 0.00139347 0
      endloop
   endfacet
   facet normal 0 0 -1
      outer loop
         vertex 0.00163943 0.00309229 0
         vertex 0.00196415 0.00289691 0
         vertex 0.000841781 0.00124153 0
      endloop
   endfacet
   facet normal 0 0 -1
      outer loop
         vertex 0.00196415 0.00289691 0
         vertex 0.00226585 0.00266757 0
         vertex 0.000971079 0.00114324 0
      endloop
   endfacet
   facet normal 0 0 -1
      outer loop
         vertex 0.00226585 0.00266757 0
         vertex 0.00254098 0.00240695 0
         vertex 0.00108899 0.00103155 0
      endloop
   endfacet
   facet normal 0 0 -1
      outer loop
         vertex 0.00149121 0.000162179 0
         vertex 0.00347948 0.000378417 0
         vertex 0.0035 6.4294e-19 0
      endloop
   endfacet
   facet normal 0 0 -1
      outer loop
         vertex 0.00347948 -0.000378417 0
         vertex 0.00149121 -0.000162179 0
         vertex 0.0015 6.4294e-19 0
      endloop
   endfacet
   facet normal 0 0 -1
      outer loop
         vertex 0.00146493 -0.000322456 0
         vertex 0.00341817 -0.000752397 0
         vertex 0.00331679 -0.00111756 0
      endloop
   endfacet
   facet normal 0 0 -1
      outer loop
         vertex 0.00119414 -0.000907761 0
         vertex 0.00128529 -0.000773331 0
         vertex 0.002999 -0.00180444 0
      endloop
   endfacet
   facet normal 0 0 -1
      outer loop
         vertex 0.00254098 -0.00240695 0
         vertex 0.00226585 -0.00266757 0
         vertex 0.000971079 -0.00114324 0
      endloop
   endfacet
   facet normal 0 0 -1
      outer loop
         vertex 0.00196415 -0.00289691 0
         vertex 0.000841781 -0.00124153 0
         vertex 0.000971079 -0.00114324 0
      endloop
   endfacet
   facet normal 0 0 -1
      outer loop
         vertex 0.00163943 -0.00309229 0
         vertex 0.000702613 -0.00132527 0
         vertex 0.000841781 -0.00124153 0
      endloop
   endfacet
   facet normal 0 0 -1
      outer loop
         vertex 0.00163943 -0.00309229 0
         vertex 0.00129548 -0.00325142 0
         vertex 0.000555207 -0.00139347 0
      endloop
   endfacet
   facet normal 0 0 -1
      outer loop
         vertex 0.000242673 -0.00148024 0
         vertex 0.000566237 -0.00345389 0
         vertex 0.000189486 -0.00349487 0
      endloop
   endfacet
   facet normal 0 0 -1
      outer loop
         vertex -0.000189486 -0.00349487 0
         vertex -8.12084e-05 -0.0014978 0
         vertex 8.12084e-05 -0.0014978 0
      endloop
   endfacet
   facet normal 0 0 -1
      outer loop
         vertex -0.000555207 -0.00139347 0
         vertex -0.000401293 -0.00144532 0
         vertex -0.000936349 -0.00337242 0
      endloop
   endfacet
   facet normal 0 0 -1
      outer loop
         vertex -0.00129548 -0.00325142 0
         vertex -0.00163943 -0.00309229 0
         vertex -0.000702613 -0.00132527 0
      endloop
   endfacet
   facet normal 0 0 -1
      outer loop
         vertex -0.00226585 -0.00266757 0
         vertex -0.000971079 -0.00114324 0
         vertex -0.000841781 -0.00124153 0
      endloop
   endfacet
   facet normal 0 0 -1
      outer loop
         vertex -0.00226585 -0.00266757 0
         vertex -0.00254098 -0.00240695 0
         vertex -0.00108899 -0.00103155 0
      endloop
   endfacet
   facet normal 0 0 -1
      outer loop
         vertex -0.0035 2.14313e-19 0
         vertex -0.00347948 0.000378417 0
         vertex -0.00149121 0.000162179 0
      endloop
   endfacet
   facet normal 0 0 -1
      outer loop
         vertex -0.00146493 0.000322456 0
         vertex -0.00341817 0.000752397 0
         vertex -0.00331679 0.00111756 0
      endloop
   endfacet
   facet normal 0 0 -1
      outer loop
         vertex -0.00119414 0.000907761 0
         vertex -0.00278633 0.00211811 0
         vertex -0.00254098 0.00240695 0
      endloop
   endfacet
   facet normal 0 0 -1
      outer loop
         vertex -0.00226585 0.00266757 0
         vertex -0.00196415 0.00289691 0
         vertex -0.000841781 0.00124153 0
      endloop
   endfacet
   facet normal 0 0 -1
      outer loop
         vertex -0.00163943 0.00309229 0
         vertex -0.000702613 0.00132527 0
         vertex -0.000841781 0.00124153 0
      endloop
   endfacet
   facet normal 0 0 -1
      outer loop
         vertex -0.00163943 0.00309229 0
         vertex -0.00129548 0.00325142 0
         vertex -0.000555207 0.00139347 0
      endloop
   endfacet
   facet normal 0 0 -1
      outer loop
         vertex 0.000242673 0.00148024 0
         vertex 0.000566237 0.00345389 0
         vertex 0.000936349 0.00337242 0
      endloop
   endfacet
   facet normal 0 0 -1
      outer loop
         vertex 0.000841781 0.00124153 0
         vertex 0.000702613 0.00132527 0
         vertex 0.00163943 0.00309229 0
      endloop
   endfacet
   facet normal 0 0 -1
      outer loop
         vertex 0.00108899 0.00103155 0
         vertex 0.000971079 0.00114324 0
         vertex 0.00226585 0.00266757 0
      endloop
   endfacet
   facet normal 0 0 -1
      outer loop
         vertex 0.00254098 0.00240695 0
         vertex 0.00278633 0.00211811 0
         vertex 0.00119414 0.000907761 0
      endloop
   endfacet
   facet normal 0 0 -1
      outer loop
         vertex 0.0015 6.4294e-19 0
         vertex 0.0035 6.4294e-19 0
         vertex 0.00347948 -0.000378417 0
      endloop
   endfacet
   facet normal 0 0 -1
      outer loop
         vertex 0.00142148 -0.000478952 0
         vertex 0.00331679 -0.00111756 0
         vertex 0.00317651 -0.00146961 0
      endloop
   endfacet
   facet normal 0 0 -1
      outer loop
         vertex 0.000971079 -0.00114324 0
         vertex 0.00226585 -0.00266757 0
         vertex 0.00196415 -0.00289691 0
      endloop
   endfacet
   facet normal 0 0 -1
      outer loop
         vertex 0.000555207 -0.00139347 0
         vertex 0.000702613 -0.00132527 0
         vertex 0.00163943 -0.00309229 0
      endloop
   endfacet
   facet normal 0 0 -1
      outer loop
         vertex 8.12084e-05 -0.0014978 0
         vertex 0.000189486 -0.00349487 0
         vertex -0.000189486 -0.00349487 0
      endloop
   endfacet
   facet normal 0 0 -1
      outer loop
         vertex -0.000702613 -0.00132527 0
         vertex -0.000555207 -0.00139347 0
         vertex -0.00129548 -0.00325142 0
      endloop
   endfacet
   facet normal 0 0 -1
      outer loop
         vertex -0.00196415 -0.00289691 0
         vertex -0.000841781 -0.00124153 0
         vertex -0.000702613 -0.00132527 0
      endloop
   endfacet
   facet normal 0 0 -1
      outer loop
         vertex -0.00108899 -0.00103155 0
         vertex -0.000971079 -0.00114324 0
         vertex -0.00226585 -0.00266757 0
      endloop
   endfacet
   facet normal 0 0 -1
      outer loop
         vertex -0.00317651 -0.00146961 0
         vertex -0.00331679 -0.00111756 0
         vertex -0.00142148 -0.000478952 0
      endloop
   endfacet
   facet normal 0 0 -1
      outer loop
         vertex -0.00331679 -0.00111756 0
         vertex -0.00341817 -0.000752397 0
         vertex -0.00146493 -0.000322456 0
      endloop
   endfacet
   facet normal 0 0 -1
      outer loop
         vertex -0.00149121 0.000162179 0
         vertex -0.00347948 0.000378417 0
         vertex -0.00341817 0.000752397 0
      endloop
   endfacet
   facet normal 0 0 -1
      outer loop
         vertex -0.000841781 0.00124153 0
         vertex -0.000971079 0.00114324 0
         vertex -0.00226585 0.00266757 0
      endloop
   endfacet
   facet normal 0 0 -1
      outer loop
         vertex -0.000555207 0.00139347 0
         vertex -0.000702613 0.00132527 0
         vertex -0.00163943 0.00309229 0
      endloop
   endfacet
   facet normal 0 0 -1
      outer loop
         vertex -0.00129548 0.00325142 0
         vertex -0.000936349 0.00337242 0
         vertex -0.000401293 0.00144532 0
      endloop
   endfacet
   facet normal 0 0 -1
      outer loop
         vertex 0.000555207 0.00139347 0
         vertex 0.00129548 0.00325142 0
         vertex 0.00163943 0.00309229 0
      endloop
   endfacet
   facet normal 0 0 -1
      outer loop
         vertex 0.00119414 0.000907761 0
         vertex 0.00108899 0.00103155 0
         vertex 0.00254098 0.00240695 0
      endloop
   endfacet
   facet normal 0 0 -1
      outer loop
         vertex 0.002999 0.00180444 0
         vertex 0.00128529 0.000773331 0
         vertex 0.00119414 0.000907761 0
      endloop
   endfacet
   facet normal 0 0 -1
      outer loop
         vertex 0.002999 0.00180444 0
         vertex 0.00317651 0.00146961 0
         vertex 0.00136136 0.000629834 0
      endloop
   endfacet
   facet normal 0 0 -1
      outer loop
         vertex 0.00149121 -0.000162179 0
         vertex 0.00347948 -0.000378417 0
         vertex 0.00341817 -0.000752397 0
      endloop
   endfacet
   facet normal 0 0 -1
      outer loop
         vertex 0.000841781 -0.00124153 0
         vertex 0.00196415 -0.00289691 0
         vertex 0.00163943 -0.00309229 0
      endloop
   endfacet
   facet normal 0 0 -1
      outer loop
         vertex -8.12084e-05 -0.0014978 0
         vertex -0.000189486 -0.00349487 0
         vertex -0.000566237 -0.00345389 0
      endloop
   endfacet
   facet normal 0 0 -1
      outer loop
         vertex -0.000841781 -0.00124153 0
         vertex -0.00196415 -0.00289691 0
         vertex -0.00226585 -0.00266757 0
      endloop
   endfacet
   facet normal 0 0 -1
      outer loop
         vertex -0.00278633 -0.00211811 0
         vertex -0.00119414 -0.000907761 0
         vertex -0.00108899 -0.00103155 0
      endloop
   endfacet
   facet normal 0 0 -1
      outer loop
         vertex -0.00278633 -0.00211811 0
         vertex -0.002999 -0.00180444 0
         vertex -0.00128529 -0.000773331 0
      endloop
   endfacet
   facet normal 0 0 -1
      outer loop
         vertex -0.00317651 -0.00146961 0
         vertex -0.00136136 -0.000629834 0
         vertex -0.00128529 -0.000773331 0
      endloop
   endfacet
   facet normal 0 0 -1
      outer loop
         vertex -0.00146493 -0.000322456 0
         vertex -0.00142148 -0.000478952 0
         vertex -0.00331679 -0.00111756 0
      endloop
   endfacet
   facet normal 0 0 -1
      outer loop
         vertex -0.00136136 0.000629834 0
         vertex -0.00317651 0.00146961 0
         vertex -0.002999 0.00180444 0
      endloop
   endfacet
   facet normal 0 0 -1
      outer loop
         vertex -0.000401293 0.00144532 0
         vertex -0.000555207 0.00139347 0
         vertex -0.00129548 0.00325142 0
      endloop
   endfacet
   facet normal 0 0 -1
      outer loop
         vertex 0.000971079 0.00114324 0
         vertex 0.000841781 0.00124153 0
         vertex 0.00196415 0.00289691 0
      endloop
   endfacet
   facet normal 0 0 -1
      outer loop
         vertex 0.00136136 0.000629834 0
         vertex 0.00128529 0.000773331 0
         vertex 0.002999 0.00180444 0
      endloop
   endfacet
   facet normal 0 0 -1
      outer loop
         vertex 0.000971079 -0.00114324 0
         vertex 0.00108899 -0.00103155 0
         vertex 0.00254098 -0.00240695 0
      endloop
   endfacet
   facet normal 0 0 -1
      outer loop
         vertex -0.000702613 -0.00132527 0
         vertex -0.00163943 -0.00309229 0
         vertex -0.00196415 -0.00289691 0
      endloop
   endfacet
   facet normal 0 0 -1
      outer loop
         vertex -0.00128529 -0.000773331 0
         vertex -0.00119414 -0.000907761 0
         vertex -0.00278633 -0.00211811 0
      endloop
   endfacet
   facet normal 0 0 -1
      outer loop
         vertex -0.00142148 -0.000478952 0
         vertex -0.00136136 -0.000629834 0
         vertex -0.00317651 -0.00146961 0
      endloop
   endfacet
   facet normal 0 0 -1
      outer loop
         vertex -0.000841781 0.00124153 0
         vertex -0.00196415 0.00289691 0
         vertex -0.00163943 0.00309229 0
      endloop
   endfacet
   facet normal 0 0 -1
      outer loop
         vertex 0.00119414 0.000907761 0
         vertex 0.00278633 0.00211811 0
         vertex 0.002999 0.00180444 0
      endloop
   endfacet
   facet normal 0 0 -1
      outer loop
         vertex 0.00331679 0.00111756 0
         vertex 0.00142148 0.000478952 0
         vertex 0.00136136 0.000629834 0
      endloop
   endfacet
   facet normal 0 0 -1
      outer loop
         vertex 0.00331679 0.00111756 0
         vertex 0.00341817 0.000752397 0
         vertex 0.00146493 0.000322456 0
      endloop
   endfacet
   facet normal 0 0 -1
      outer loop
         vertex 0.000401293 -0.00144532 0
         vertex 0.000555207 -0.00139347 0
         vertex 0.00129548 -0.00325142 0
      endloop
   endfacet
   facet normal 0 0 -1
      outer loop
         vertex -0.00128529 -0.000773331 0
         vertex -0.002999 -0.00180444 0
         vertex -0.00317651 -0.00146961 0
      endloop
   endfacet
   facet normal 0 0 -1
      outer loop
         vertex -0.00347948 -0.000378417 0
         vertex -0.00149121 -0.000162179 0
         vertex -0.00146493 -0.000322456 0
      endloop
   endfacet
   facet normal 0 0 -1
      outer loop
         vertex -0.00347948 -0.000378417 0
         vertex -0.0035 2.14313e-19 0
         vertex -0.0015 9.18485e-20 0
      endloop
   endfacet
   facet normal 0 0 -1
      outer loop
         vertex -0.000401293 0.00144532 0
         vertex -0.000936349 0.00337242 0
         vertex -0.000566237 0.00345389 0
      endloop
   endfacet
   facet normal 0 0 -1
      outer loop
         vertex 0.00146493 0.000322456 0
         vertex 0.00142148 0.000478952 0
         vertex 0.00331679 0.00111756 0
      endloop
   endfacet
   facet normal 0 0 -1
      outer loop
         vertex -0.00108899 -0.00103155 0
         vertex -0.00254098 -0.00240695 0
         vertex -0.00278633 -0.00211811 0
      endloop
   endfacet
   facet normal 0 0 -1
      outer loop
         vertex -0.0015 9.18485e-20 0
         vertex -0.00149121 -0.000162179 0
         vertex -0.00347948 -0.000378417 0
      endloop
   endfacet
   facet normal 0 0 -1
      outer loop
         vertex 0.00136136 0.000629834 0
         vertex 0.00317651 0.00146961 0
         vertex 0.00331679 0.00111756 0
      endloop
   endfacet
   facet normal 0 0 -1
      outer loop
         vertex -0.00146493 -0.000322456 0
         vertex -0.00341817 -0.000752397 0
         vertex -0.00347948 -0.000378417 0
      endloop
   endfacet
   facet normal 0 0 -1
      outer loop
         vertex 0.00146493 0.000322456 0
         vertex 0.00341817 0.000752397 0
         vertex 0.00347948 0.000378417 0
      endloop
   endfacet
   facet normal 0 0 -1
      outer loop
         vertex -0.00149121 0.000162179 0
         vertex -0.0015 9.18485e-20 0
         vertex -0.0035 2.14313e-19 0
      endloop
   endfacet
endsolid 3x7x3 bearing. Units = meters