solid 4_0. STL generated by ONSHAPE BY PTC INC, 1.216. Units = meters
   facet normal 1 0 0
      outer loop
         vertex 0.001925 0.004 4.71489e-19
         vertex 0.001925 0 4.71489e-19
         vertex 0.00191372 0 -0.000208129
      endloop
   endfacet
   facet normal 0.994138 0 -0.108119
      outer loop
         vertex 0.00191372 0.004 -0.000208129
         vertex 0.00191372 0 -0.000208129
         vertex 0.00187999 0 -0.000413818
      endloop
   endfacet
   facet normal 0.976621 0 -0.21497
      outer loop
         vertex 0.00187999 0.004 -0.000413818
         vertex 0.00187999 0 -0.000413818
         vertex 0.00182423 0 -0.000614655
      endloop
   endfacet
   facet normal 0.947653 0 -0.319302
      outer loop
         vertex 0.00182423 0.004 -0.000614655
         vertex 0.00182423 0 -0.000614655
         vertex 0.00174708 0 -0.000808287
      endloop
   endfacet
   facet normal 0.907575 0 -0.419889
      outer loop
         vertex 0.00174708 0.004 -0.000808287
         vertex 0.00174708 0 -0.000808287
         vertex 0.00164945 0 -0.000992441
      endloop
   endfacet
   facet normal 0.856857 0 -0.515554
      outer loop
         vertex 0.00164945 0.004 -0.000992441
         vertex 0.00164945 0 -0.000992441
         vertex 0.00153248 0 -0.00116496
      endloop
   endfacet
   facet normal 0.796093 0 -0.605174
      outer loop
         vertex 0.00153248 0.004 -0.00116496
         vertex 0.00153248 0 -0.00116496
         vertex 0.00139754 0 -0.00132382
      endloop
   endfacet
   facet normal 0.725995 0 -0.687699
      outer loop
         vertex 0.00139754 0.004 -0.00132382
         vertex 0.00139754 0 -0.00132382
         vertex 0.00124622 0 -0.00146716
      endloop
   endfacet
   facet normal 0.647386 0 -0.762162
      outer loop
         vertex 0.00124622 0.004 -0.00146716
         vertex 0.00124622 0 -0.00146716
         vertex 0.00108029 0 -0.0015933
      endloop
   endfacet
   facet normal 0.561187 0 -0.827689
      outer loop
         vertex 0.00108029 0.004 -0.0015933
         vertex 0.00108029 0 -0.0015933
         vertex 0.000901686 0 -0.00170076
      endloop
   endfacet
   facet normal 0.468408 0 -0.883512
      outer loop
         vertex 0.000901686 0.004 -0.00170076
         vertex 0.000901686 0 -0.00170076
         vertex 0.000712516 0 -0.00178828
      endloop
   endfacet
   facet normal 0.370138 0 -0.928977
      outer loop
         vertex 0.000712516 0.004 -0.00178828
         vertex 0.000712516 0 -0.00178828
         vertex 0.000514992 0 -0.00185483
      endloop
   endfacet
   facet normal 0.267528 0 -0.96355
      outer loop
         vertex 0.000514992 0.004 -0.00185483
         vertex 0.000514992 0 -0.00185483
         vertex 0.00031143 0 -0.00189964
      endloop
   endfacet
   facet normal 0.161782 0 -0.986827
      outer loop
         vertex 0.00031143 0.004 -0.00189964
         vertex 0.00031143 0 -0.00189964
         vertex 0.000104217 0 -0.00192218
      endloop
   endfacet
   facet normal 0.0541389 0 -0.998533
      outer loop
         vertex 0.000104217 0.004 -0.00192218
         vertex 0.000104217 0 -0.00192218
         vertex -0.000104217 0 -0.00192218
      endloop
   endfacet
   facet normal -0.0541389 0 -0.998533
      outer loop
         vertex -0.000104217 0.004 -0.00192218
         vertex -0.000104217 0 -0.00192218
         vertex -0.00031143 0 -0.00189964
      endloop
   endfacet
   facet normal -0.161782 0 -0.986827
      outer loop
         vertex -0.00031143 0.004 -0.00189964
         vertex -0.00031143 0 -0.00189964
         vertex -0.000514992 0 -0.00185483
      endloop
   endfacet
   facet normal -0.267528 0 -0.96355
      outer loop
         vertex -0.000514992 0.004 -0.00185483
         vertex -0.000514992 0 -0.00185483
         vertex -0.000712516 0 -0.00178828
      endloop
   endfacet
   facet normal -0.370138 0 -0.928977
      outer loop
         vertex -0.000712516 0.004 -0.00178828
         vertex -0.000712516 0 -0.00178828
         vertex -0.000901686 0 -0.00170076
      endloop
   endfacet
   facet normal -0.468408 0 -0.883512
      outer loop
         vertex -0.000901686 0.004 -0.00170076
         vertex -0.000901686 0 -0.00170076
         vertex -0.00108029 0 -0.0015933
      endloop
   endfacet
   facet normal -0.561187 0 -0.827689
      outer loop
         vertex -0.00108029 0.004 -0.0015933
         vertex -0.00108029 0 -0.0015933
         vertex -0.00124622 0 -0.00146716
      endloop
   endfacet
   facet normal -0.647386 0 -0.762162
      outer loop
         vertex -0.00124622 0.004 -0.00146716
         vertex -0.00124622 0 -0.00146716
         vertex -0.00139754 0 -0.00132382
      endloop
   endfacet
   facet normal -0.725995 0 -0.687699
      outer loop
         vertex -0.00139754 0.004 -0.00132382
         vertex -0.00139754 0 -0.00132382
         vertex -0.00153248 0 -0.00116496
      endloop
   endfacet
   facet normal -0.796093 0 -0.605174
      outer loop
         vertex -0.00153248 0.004 -0.00116496
         vertex -0.00153248 0 -0.00116496
         vertex -0.00164945 0 -0.000992441
      endloop
   endfacet
   facet normal -0.856857 0 -0.515554
      outer loop
         vertex -0.00164945 0.004 -0.000992441
         vertex -0.00164945 0 -0.000992441
         vertex -0.00174708 0 -0.000808287
      endloop
   endfacet
   facet normal -0.907575 0 -0.419889
      outer loop
         vertex -0.00174708 0.004 -0.000808287
         vertex -0.00174708 0 -0.000808287
         vertex -0.00182423 0 -0.000614655
      endloop
   endfacet
   facet normal -0.947653 0 -0.319302
      outer loop
         vertex -0.00182423 0.004 -0.000614655
         vertex -0.00182423 0 -0.000614655
         vertex -0.00187999 0 -0.000413818
      endloop
   endfacet
   facet normal -0.976621 0 -0.21497
      outer loop
         vertex -0.00187999 0.004 -0.000413818
         vertex -0.00187999 0 -0.000413818
         vertex -0.00191372 0 -0.000208129
      endloop
   endfacet
   facet normal -0.994138 0 -0.108119
      outer loop
         vertex -0.00191372 0.004 -0.000208129
         vertex -0.00191372 0 -0.000208129
         vertex -0.001925 0 -7.07234e-19
      endloop
   endfacet
   facet normal -1 0 -1.22465e-16
      outer loop
         vertex -0.001925 0.004 -2.35745e-19
         vertex -0.001925 0 -7.07234e-19
         vertex -0.00191372 0 0.000208129
      endloop
   endfacet
   facet normal -0.994138 0 0.108119
      outer loop
         vertex -0.00191372 0.004 0.000208129
         vertex -0.00191372 0 0.000208129
         vertex -0.00187999 0 0.000413818
      endloop
   endfacet
   facet normal -0.976621 0 0.21497
      outer loop
         vertex -0.00187999 0.004 0.000413818
         vertex -0.00187999 0 0.000413818
         vertex -0.00182423 0 0.000614655
      endloop
   endfacet
   facet normal -0.947653 0 0.319302
      outer loop
         vertex -0.00182423 0.004 0.000614655
         vertex -0.00182423 0 0.000614655
         vertex -0.00174708 0 0.000808287
      endloop
   endfacet
   facet normal -0.907575 0 0.419889
      outer loop
         vertex -0.00174708 0.004 0.000808287
         vertex -0.00174708 0 0.000808287
         vertex -0.00164945 0 0.000992441
      endloop
   endfacet
   facet normal -0.856857 0 0.515554
      outer loop
         vertex -0.00164945 0.004 0.000992441
         vertex -0.00164945 0 0.000992441
         vertex -0.00153248 0 0.00116496
      endloop
   endfacet
   facet normal -0.796093 0 0.605174
      outer loop
         vertex -0.00153248 0.004 0.00116496
         vertex -0.00153248 0 0.00116496
         vertex -0.00139754 0 0.00132382
      endloop
   endfacet
   facet normal -0.725995 0 0.687699
      outer loop
         vertex -0.00139754 0.004 0.00132382
         vertex -0.00139754 0 0.00132382
         vertex -0.00124622 0 0.00146716
      endloop
   endfacet
   facet normal -0.647386 0 0.762162
      outer loop
         vertex -0.00124622 0.004 0.00146716
         vertex -0.00124622 0 0.00146716
         vertex -0.00108029 0 0.0015933
      endloop
   endfacet
   facet normal -0.561187 0 0.827689
      outer loop
         vertex -0.00108029 0.004 0.0015933
         vertex -0.00108029 0 0.0015933
         vertex -0.000901686 0 0.00170076
      endloop
   endfacet
   facet normal -0.468408 0 0.883512
      outer loop
         vertex -0.000901686 0.004 0.00170076
         vertex -0.000901686 0 0.00170076
         vertex -0.000712516 0 0.00178828
      endloop
   endfacet
   facet normal -0.370138 0 0.928977
      outer loop
         vertex -0.000712516 0.004 0.00178828
         vertex -0.000712516 0 0.00178828
         vertex -0.000514992 0 0.00185483
      endloop
   endfacet
   facet normal -0.267528 0 0.96355
      outer loop
         vertex -0.000514992 0.004 0.00185483
         vertex -0.000514992 0 0.00185483
         vertex -0.00031143 0 0.00189964
      endloop
   endfacet
   facet normal -0.161782 0 0.986827
      outer loop
         vertex -0.00031143 0.004 0.00189964
         vertex -0.00031143 0 0.00189964
         vertex -0.000104217 0 0.00192218
      endloop
   endfacet
   facet normal -0.0541389 0 0.998533
      outer loop
         vertex -0.000104217 0.004 0.00192218
         vertex -0.000104217 0 0.00192218
         vertex 0.000104217 0 0.00192218
      endloop
   endfacet
   facet normal 0.0541389 0 0.998533
      outer loop
         vertex 0.000104217 0.004 0.00192218
         vertex 0.000104217 0 0.00192218
         vertex 0.00031143 0 0.00189964
      endloop
   endfacet
   facet normal 0.161782 0 0.986827
      outer loop
         vertex 0.00031143 0.004 0.00189964
         vertex 0.00031143 0 0.00189964
         vertex 0.000514992 0 0.00185483
      endloop
   endfacet
   facet normal 0.267528 0 0.96355
      outer loop
         vertex 0.000514992 0.004 0.00185483
         vertex 0.000514992 0 0.00185483
         vertex 0.000712516 0 0.00178828
      endloop
   endfacet
   facet normal 0.370138 0 0.928977
      outer loop
         vertex 0.000712516 0.004 0.00178828
         vertex 0.000712516 0 0.00178828
         vertex 0.000901686 0 0.00170076
      endloop
   endfacet
   facet normal 0.468408 0 0.883512
      outer loop
         vertex 0.000901686 0.004 0.00170076
         vertex 0.000901686 0 0.00170076
         vertex 0.00108029 0 0.0015933
      endloop
   endfacet
   facet normal 0.561187 0 0.827689
      outer loop
         vertex 0.00108029 0.004 0.0015933
         vertex 0.00108029 0 0.0015933
         vertex 0.00124622 0 0.00146716
      endloop
   endfacet
   facet normal 0.647386 0 0.762162
      outer loop
         vertex 0.00124622 0.004 0.00146716
         vertex 0.00124622 0 0.00146716
         vertex 0.00139754 0 0.00132382
      endloop
   endfacet
   facet normal 0.725995 0 0.687699
      outer loop
         vertex 0.00139754 0.004 0.00132382
         vertex 0.00139754 0 0.00132382
         vertex 0.00153248 0 0.00116496
      endloop
   endfacet
   facet normal 0.796093 0 0.605174
      outer loop
         vertex 0.00153248 0.004 0.00116496
         vertex 0.00153248 0 0.00116496
         vertex 0.00164945 0 0.000992441
      endloop
   endfacet
   facet normal 0.856857 0 0.515554
      outer loop
         vertex 0.00164945 0.004 0.000992441
         vertex 0.00164945 0 0.000992441
         vertex 0.00174708 0 0.000808287
      endloop
   endfacet
   facet normal 0.907575 0 0.419889
      outer loop
         vertex 0.00174708 0.004 0.000808287
         vertex 0.00174708 0 0.000808287
         vertex 0.00182423 0 0.000614655
      endloop
   endfacet
   facet normal 0.947653 0 0.319302
      outer loop
         vertex 0.00182423 0.004 0.000614655
         vertex 0.00182423 0 0.000614655
         vertex 0.00187999 0 0.000413818
      endloop
   endfacet
   facet normal 0.976621 0 0.21497
      outer loop
         vertex 0.00187999 0.004 0.000413818
         vertex 0.00187999 0 0.000413818
         vertex 0.00191372 0 0.000208129
      endloop
   endfacet
   facet normal 0.994138 0 0.108119
      outer loop
         vertex 0.00191372 0.004 0.000208129
         vertex 0.00191372 0 0.000208129
         vertex 0.001925 0 4.71489e-19
      endloop
   endfacet
   facet normal 1 0 0
      outer loop
         vertex 0.001925 0 4.71489e-19
         vertex 0.001925 0.004 4.71489e-19
         vertex 0.00191372 0.004 0.000208129
      endloop
   endfacet
   facet normal 0.994138 0 0.108119
      outer loop
         vertex 0.00191372 0 0.000208129
         vertex 0.00191372 0.004 0.000208129
         vertex 0.00187999 0.004 0.000413818
      endloop
   endfacet
   facet normal 0.976621 0 0.21497
      outer loop
         vertex 0.00187999 0 0.000413818
         vertex 0.00187999 0.004 0.000413818
         vertex 0.00182423 0.004 0.000614655
      endloop
   endfacet
   facet normal 0.947653 0 0.319302
      outer loop
         vertex 0.00182423 0 0.000614655
         vertex 0.00182423 0.004 0.000614655
         vertex 0.00174708 0.004 0.000808287
      endloop
   endfacet
   facet normal 0.907575 0 0.419889
      outer loop
         vertex 0.00174708 0 0.000808287
         vertex 0.00174708 0.004 0.000808287
         vertex 0.00164945 0.004 0.000992441
      endloop
   endfacet
   facet normal 0.856857 0 0.515554
      outer loop
         vertex 0.00164945 0 0.000992441
         vertex 0.00164945 0.004 0.000992441
         vertex 0.00153248 0.004 0.00116496
      endloop
   endfacet
   facet normal 0.796093 0 0.605174
      outer loop
         vertex 0.00153248 0 0.00116496
         vertex 0.00153248 0.004 0.00116496
         vertex 0.00139754 0.004 0.00132382
      endloop
   endfacet
   facet normal 0.725995 0 0.687699
      outer loop
         vertex 0.00139754 0 0.00132382
         vertex 0.00139754 0.004 0.00132382
         vertex 0.00124622 0.004 0.00146716
      endloop
   endfacet
   facet normal 0.647386 0 0.762162
      outer loop
         vertex 0.00124622 0 0.00146716
         vertex 0.00124622 0.004 0.00146716
         vertex 0.00108029 0.004 0.0015933
      endloop
   endfacet
   facet normal 0.561187 0 0.827689
      outer loop
         vertex 0.00108029 0 0.0015933
         vertex 0.00108029 0.004 0.0015933
         vertex 0.000901686 0.004 0.00170076
      endloop
   endfacet
   facet normal 0.468408 0 0.883512
      outer loop
         vertex 0.000901686 0 0.00170076
         vertex 0.000901686 0.004 0.00170076
         vertex 0.000712516 0.004 0.00178828
      endloop
   endfacet
   facet normal 0.370138 0 0.928977
      outer loop
         vertex 0.000712516 0 0.00178828
         vertex 0.000712516 0.004 0.00178828
         vertex 0.000514992 0.004 0.00185483
      endloop
   endfacet
   facet normal 0.267528 0 0.96355
      outer loop
         vertex 0.000514992 0 0.00185483
         vertex 0.000514992 0.004 0.00185483
         vertex 0.00031143 0.004 0.00189964
      endloop
   endfacet
   facet normal 0.161782 0 0.986827
      outer loop
         vertex 0.00031143 0 0.00189964
         vertex 0.00031143 0.004 0.00189964
         vertex 0.000104217 0.004 0.00192218
      endloop
   endfacet
   facet normal 0.0541389 0 0.998533
      outer loop
         vertex 0.000104217 0 0.00192218
         vertex 0.000104217 0.004 0.00192218
         vertex -0.000104217 0.004 0.00192218
      endloop
   endfacet
   facet normal -0.0541389 0 0.998533
      outer loop
         vertex -0.000104217 0 0.00192218
         vertex -0.000104217 0.004 0.00192218
         vertex -0.00031143 0.004 0.00189964
      endloop
   endfacet
   facet normal -0.161782 0 0.986827
      outer loop
         vertex -0.00031143 0 0.00189964
         vertex -0.00031143 0.004 0.00189964
         vertex -0.000514992 0.004 0.00185483
      endloop
   endfacet
   facet normal -0.267528 0 0.96355
      outer loop
         vertex -0.000514992 0 0.00185483
         vertex -0.000514992 0.004 0.00185483
         vertex -0.000712516 0.004 0.00178828
      endloop
   endfacet
   facet normal -0.370138 0 0.928977
      outer loop
         vertex -0.000712516 0 0.00178828
         vertex -0.000712516 0.004 0.00178828
         vertex -0.000901686 0.004 0.00170076
      endloop
   endfacet
   facet normal -0.468408 0 0.883512
      outer loop
         vertex -0.000901686 0 0.00170076
         vertex -0.000901686 0.004 0.00170076
         vertex -0.00108029 0.004 0.0015933
      endloop
   endfacet
   facet normal -0.561187 0 0.827689
      outer loop
         vertex -0.00108029 0 0.0015933
         vertex -0.00108029 0.004 0.0015933
         vertex -0.00124622 0.004 0.00146716
      endloop
   endfacet
   facet normal -0.647386 0 0.762162
      outer loop
         vertex -0.00124622 0 0.00146716
         vertex -0.00124622 0.004 0.00146716
         vertex -0.00139754 0.004 0.00132382
      endloop
   endfacet
   facet normal -0.725995 0 0.687699
      outer loop
         vertex -0.00139754 0 0.00132382
         vertex -0.00139754 0.004 0.00132382
         vertex -0.00153248 0.004 0.00116496
      endloop
   endfacet
   facet normal -0.796093 0 0.605174
      outer loop
         vertex -0.00153248 0 0.00116496
         vertex -0.00153248 0.004 0.00116496
         vertex -0.00164945 0.004 0.000992441
      endloop
   endfacet
   facet normal -0.856857 0 0.515554
      outer loop
         vertex -0.00164945 0 0.000992441
         vertex -0.00164945 0.004 0.000992441
         vertex -0.00174708 0.004 0.000808287
      endloop
   endfacet
   facet normal -0.907575 0 0.419889
      outer loop
         vertex -0.00174708 0 0.000808287
         vertex -0.00174708 0.004 0.000808287
         vertex -0.00182423 0.004 0.000614655
      endloop
   endfacet
   facet normal -0.947653 0 0.319302
      outer loop
         vertex -0.00182423 0 0.000614655
         vertex -0.00182423 0.004 0.000614655
         vertex -0.00187999 0.004 0.000413818
      endloop
   endfacet
   facet normal -0.976621 0 0.21497
      outer loop
         vertex -0.00187999 0 0.000413818
         vertex -0.00187999 0.004 0.000413818
         vertex -0.00191372 0.004 0.000208129
      endloop
   endfacet
   facet normal -0.994138 0 0.108119
      outer loop
         vertex -0.00191372 0 0.000208129
         vertex -0.00191372 0.004 0.000208129
         vertex -0.001925 0.004 -2.35745e-19
      endloop
   endfacet
   facet normal -1 0 -1.22465e-16
      outer loop
         vertex -0.001925 0 -7.07234e-19
         vertex -0.001925 0.004 -2.35745e-19
         vertex -0.00191372 0.004 -0.000208129
      endloop
   endfacet
   facet normal -0.994138 0 -0.108119
      outer loop
         vertex -0.00191372 0 -0.000208129
         vertex -0.00191372 0.004 -0.000208129
         vertex -0.00187999 0.004 -0.000413818
      endloop
   endfacet
   facet normal -0.976621 0 -0.21497
      outer loop
         vertex -0.00187999 0 -0.000413818
         vertex -0.00187999 0.004 -0.000413818
         vertex -0.00182423 0.004 -0.000614655
      endloop
   endfacet
   facet normal -0.947653 0 -0.319302
      outer loop
         vertex -0.00182423 0 -0.000614655
         vertex -0.00182423 0.004 -0.000614655
         vertex -0.00174708 0.004 -0.000808287
      endloop
   endfacet
   facet normal -0.907575 0 -0.419889
      outer loop
         vertex -0.00174708 0 -0.000808287
         vertex -0.00174708 0.004 -0.000808287
         vertex -0.00164945 0.004 -0.000992441
      endloop
   endfacet
   facet normal -0.856857 0 -0.515554
      outer loop
         vertex -0.00164945 0 -0.000992441
         vertex -0.00164945 0.004 -0.000992441
         vertex -0.00153248 0.004 -0.00116496
      endloop
   endfacet
   facet normal -0.796093 0 -0.605174
      outer loop
         vertex -0.00153248 0 -0.00116496
         vertex -0.00153248 0.004 -0.00116496
         vertex -0.00139754 0.004 -0.00132382
      endloop
   endfacet
   facet normal -0.725995 0 -0.687699
      outer loop
         vertex -0.00139754 0 -0.00132382
         vertex -0.00139754 0.004 -0.00132382
         vertex -0.00124622 0.004 -0.00146716
      endloop
   endfacet
   facet normal -0.647386 0 -0.762162
      outer loop
         vertex -0.00124622 0 -0.00146716
         vertex -0.00124622 0.004 -0.00146716
         vertex -0.00108029 0.004 -0.0015933
      endloop
   endfacet
   facet normal -0.561187 0 -0.827689
      outer loop
         vertex -0.00108029 0 -0.0015933
         vertex -0.00108029 0.004 -0.0015933
         vertex -0.000901686 0.004 -0.00170076
      endloop
   endfacet
   facet normal -0.468408 0 -0.883512
      outer loop
         vertex -0.000901686 0 -0.00170076
         vertex -0.000901686 0.004 -0.00170076
         vertex -0.000712516 0.004 -0.00178828
      endloop
   endfacet
   facet normal -0.370138 0 -0.928977
      outer loop
         vertex -0.000712516 0 -0.00178828
         vertex -0.000712516 0.004 -0.00178828
         vertex -0.000514992 0.004 -0.00185483
      endloop
   endfacet
   facet normal -0.267528 0 -0.96355
      outer loop
         vertex -0.000514992 0 -0.00185483
         vertex -0.000514992 0.004 -0.00185483
         vertex -0.00031143 0.004 -0.00189964
      endloop
   endfacet
   facet normal -0.161782 0 -0.986827
      outer loop
         vertex -0.00031143 0 -0.00189964
         vertex -0.00031143 0.004 -0.00189964
         vertex -0.000104217 0.004 -0.00192218
      endloop
   endfacet
   facet normal -0.0541389 0 -0.998533
      outer loop
         vertex -0.000104217 0 -0.00192218
         vertex -0.000104217 0.004 -0.00192218
         vertex 0.000104217 0.004 -0.00192218
      endloop
   endfacet
   facet normal 0.0541389 0 -0.998533
      outer loop
         vertex 0.000104217 0 -0.00192218
         vertex 0.000104217 0.004 -0.00192218
         vertex 0.00031143 0.004 -0.00189964
      endloop
   endfacet
   facet normal 0.161782 0 -0.986827
      outer loop
         vertex 0.00031143 0 -0.00189964
         vertex 0.00031143 0.004 -0.00189964
         vertex 0.000514992 0.004 -0.00185483
      endloop
   endfacet
   facet normal 0.267528 0 -0.96355
      outer loop
         vertex 0.000514992 0 -0.00185483
         vertex 0.000514992 0.004 -0.00185483
         vertex 0.000712516 0.004 -0.00178828
      endloop
   endfacet
   facet normal 0.370138 0 -0.928977
      outer loop
         vertex 0.000712516 0 -0.00178828
         vertex 0.000712516 0.004 -0.00178828
         vertex 0.000901686 0.004 -0.00170076
      endloop
   endfacet
   facet normal 0.468408 0 -0.883512
      outer loop
         vertex 0.000901686 0 -0.00170076
         vertex 0.000901686 0.004 -0.00170076
         vertex 0.00108029 0.004 -0.0015933
      endloop
   endfacet
   facet normal 0.561187 0 -0.827689
      outer loop
         vertex 0.00108029 0 -0.0015933
         vertex 0.00108029 0.004 -0.0015933
         vertex 0.00124622 0.004 -0.00146716
      endloop
   endfacet
   facet normal 0.647386 0 -0.762162
      outer loop
         vertex 0.00124622 0 -0.00146716
         vertex 0.00124622 0.004 -0.00146716
         vertex 0.00139754 0.004 -0.00132382
      endloop
   endfacet
   facet normal 0.725995 0 -0.687699
      outer loop
         vertex 0.00139754 0 -0.00132382
         vertex 0.00139754 0.004 -0.00132382
         vertex 0.00153248 0.004 -0.00116496
      endloop
   endfacet
   facet normal 0.796093 0 -0.605174
      outer loop
         vertex 0.00153248 0 -0.00116496
         vertex 0.00153248 0.004 -0.00116496
         vertex 0.00164945 0.004 -0.000992441
      endloop
   endfacet
   facet normal 0.856857 0 -0.515554
      outer loop
         vertex 0.00164945 0 -0.000992441
         vertex 0.00164945 0.004 -0.000992441
         vertex 0.00174708 0.004 -0.000808287
      endloop
   endfacet
   facet normal 0.907575 0 -0.419889
      outer loop
         vertex 0.00174708 0 -0.000808287
         vertex 0.00174708 0.004 -0.000808287
         vertex 0.00182423 0.004 -0.000614655
      endloop
   endfacet
   facet normal 0.947653 0 -0.319302
      outer loop
         vertex 0.00182423 0 -0.000614655
         vertex 0.00182423 0.004 -0.000614655
         vertex 0.00187999 0.004 -0.000413818
      endloop
   endfacet
   facet normal 0.976621 0 -0.21497
      outer loop
         vertex 0.00187999 0 -0.000413818
         vertex 0.00187999 0.004 -0.000413818
         vertex 0.00191372 0.004 -0.000208129
      endloop
   endfacet
   facet normal 0.994138 0 -0.108119
      outer loop
         vertex 0.00191372 0 -0.000208129
         vertex 0.00191372 0.004 -0.000208129
         vertex 0.001925 0.004 4.71489e-19
      endloop
   endfacet
   facet normal 0 1 0
      outer loop
         vertex 0.00031143 0.004 -0.00189964
         vertex 0.000202227 0.004 -0.00123353
         vertex 0.00033441 0.004 -0.00120444
      endloop
   endfacet
   facet normal 0 1 0
      outer loop
         vertex 0.000104217 0.004 -0.00192218
         vertex 6.76736e-05 0.004 -0.00124817
         vertex 0.000202227 0.004 -0.00123353
      endloop
   endfacet
   facet normal 0 1 0
      outer loop
         vertex 0.00031143 0.004 0.00189964
         vertex 0.000202227 0.004 0.00123353
         vertex 6.76736e-05 0.004 0.00124817
      endloop
   endfacet
   facet normal 0 1 0
      outer loop
         vertex 0.000514992 0.004 0.00185483
         vertex 0.00033441 0.004 0.00120444
         vertex 0.000202227 0.004 0.00123353
      endloop
   endfacet
   facet normal 0 1 0
      outer loop
         vertex 0.00191372 0.004 -0.000208129
         vertex 0.00124267 0.004 -0.000135149
         vertex 0.00125 0.004 3.06162e-19
      endloop
   endfacet
   facet normal 0 1 0
      outer loop
         vertex 0.00191372 0.004 -0.000208129
         vertex 0.00187999 0.004 -0.000413818
         vertex 0.00122078 0.004 -0.000268713
      endloop
   endfacet
   facet normal 0 1 0
      outer loop
         vertex 0.00174708 0.004 -0.000808287
         vertex 0.00113447 0.004 -0.000524861
         vertex 0.00118457 0.004 -0.000399127
      endloop
   endfacet
   facet normal 0 1 0
      outer loop
         vertex 0.00174708 0.004 -0.000808287
         vertex 0.00164945 0.004 -0.000992441
         vertex 0.00107107 0.004 -0.000644442
      endloop
   endfacet
   facet normal 0 1 0
      outer loop
         vertex 0.000202227 0.004 -0.00123353
         vertex 0.00031143 0.004 -0.00189964
         vertex 0.000104217 0.004 -0.00192218
      endloop
   endfacet
   facet normal 0 1 0
      outer loop
         vertex -0.000104217 0.004 -0.00192218
         vertex -6.76736e-05 0.004 -0.00124817
         vertex 6.76736e-05 0.004 -0.00124817
      endloop
   endfacet
   facet normal 0 1 0
      outer loop
         vertex 0.000202227 0.004 0.00123353
         vertex 0.00031143 0.004 0.00189964
         vertex 0.000514992 0.004 0.00185483
      endloop
   endfacet
   facet normal 0 1 0
      outer loop
         vertex 0.000514992 0.004 0.00185483
         vertex 0.000712516 0.004 0.00178828
         vertex 0.000462673 0.004 0.00116122
      endloop
   endfacet
   facet normal 0 1 0
      outer loop
         vertex 0.00122078 0.004 -0.000268713
         vertex 0.00124267 0.004 -0.000135149
         vertex 0.00191372 0.004 -0.000208129
      endloop
   endfacet
   facet normal 0 1 0
      outer loop
         vertex 0.00187999 0.004 -0.000413818
         vertex 0.00182423 0.004 -0.000614655
         vertex 0.00118457 0.004 -0.000399127
      endloop
   endfacet
   facet normal 0 1 0
      outer loop
         vertex 0.00107107 0.004 -0.000644442
         vertex 0.00113447 0.004 -0.000524861
         vertex 0.00174708 0.004 -0.000808287
      endloop
   endfacet
   facet normal 0 1 0
      outer loop
         vertex 0.00164945 0.004 -0.000992441
         vertex 0.00153248 0.004 -0.00116496
         vertex 0.000995116 0.004 -0.000756468
      endloop
   endfacet
   facet normal 0 1 0
      outer loop
         vertex 0.00108029 0.004 -0.0015933
         vertex 0.000701484 0.004 -0.00103461
         vertex 0.000809233 0.004 -0.000952703
      endloop
   endfacet
   facet normal 0 1 0
      outer loop
         vertex 0.00108029 0.004 -0.0015933
         vertex 0.000901686 0.004 -0.00170076
         vertex 0.000585511 0.004 -0.00110439
      endloop
   endfacet
   facet normal 0 1 0
      outer loop
         vertex 6.76736e-05 0.004 -0.00124817
         vertex 0.000104217 0.004 -0.00192218
         vertex -0.000104217 0.004 -0.00192218
      endloop
   endfacet
   facet normal 0 1 0
      outer loop
         vertex -0.000104217 0.004 -0.00192218
         vertex -0.00031143 0.004 -0.00189964
         vertex -0.000202227 0.004 -0.00123353
      endloop
   endfacet
   facet normal 0 1 0
      outer loop
         vertex 0.000462673 0.004 0.00116122
         vertex 0.00033441 0.004 0.00120444
         vertex 0.000514992 0.004 0.00185483
      endloop
   endfacet
   facet normal 0 1 0
      outer loop
         vertex 0.000712516 0.004 0.00178828
         vertex 0.000901686 0.004 0.00170076
         vertex 0.000585511 0.004 0.00110439
      endloop
   endfacet
   facet normal 0 1 0
      outer loop
         vertex 0.00124622 0.004 0.00146716
         vertex 0.000809233 0.004 0.000952703
         vertex 0.000701484 0.004 0.00103461
      endloop
   endfacet
   facet normal 0 1 0
      outer loop
         vertex 0.00139754 0.004 0.00132382
         vertex 0.000907494 0.004 0.000859624
         vertex 0.000809233 0.004 0.000952703
      endloop
   endfacet
   facet normal 0 1 0
      outer loop
         vertex 0.00118457 0.004 -0.000399127
         vertex 0.00122078 0.004 -0.000268713
         vertex 0.00187999 0.004 -0.000413818
      endloop
   endfacet
   facet normal 0 1 0
      outer loop
         vertex 0.000995116 0.004 -0.000756468
         vertex 0.00107107 0.004 -0.000644442
         vertex 0.00164945 0.004 -0.000992441
      endloop
   endfacet
   facet normal 0 1 0
      outer loop
         vertex 0.00139754 0.004 -0.00132382
         vertex 0.000907494 0.004 -0.000859624
         vertex 0.000995116 0.004 -0.000756468
      endloop
   endfacet
   facet normal 0 1 0
      outer loop
         vertex 0.00139754 0.004 -0.00132382
         vertex 0.00124622 0.004 -0.00146716
         vertex 0.000809233 0.004 -0.000952703
      endloop
   endfacet
   facet normal 0 1 0
      outer loop
         vertex 0.000585511 0.004 -0.00110439
         vertex 0.000701484 0.004 -0.00103461
         vertex 0.00108029 0.004 -0.0015933
      endloop
   endfacet
   facet normal 0 1 0
      outer loop
         vertex 0.000901686 0.004 -0.00170076
         vertex 0.000712516 0.004 -0.00178828
         vertex 0.000462673 0.004 -0.00116122
      endloop
   endfacet
   facet normal 0 1 0
      outer loop
         vertex 0.000712516 0.004 -0.00178828
         vertex 0.000514992 0.004 -0.00185483
         vertex 0.00033441 0.004 -0.00120444
      endloop
   endfacet
   facet normal 0 1 0
      outer loop
         vertex -0.000202227 0.004 -0.00123353
         vertex -6.76736e-05 0.004 -0.00124817
         vertex -0.000104217 0.004 -0.00192218
      endloop
   endfacet
   facet normal 0 1 0
      outer loop
         vertex -0.00174708 0.004 -0.000808287
         vertex -0.00113447 0.004 -0.000524861
         vertex -0.00107107 0.004 -0.000644442
      endloop
   endfacet
   facet normal 0 1 0
      outer loop
         vertex -0.00174708 0.004 -0.000808287
         vertex -0.00182423 0.004 -0.000614655
         vertex -0.00118457 0.004 -0.000399127
      endloop
   endfacet
   facet normal 0 1 0
      outer loop
         vertex -0.00191372 0.004 0.000208129
         vertex -0.00124267 0.004 0.000135149
         vertex -0.00125 0.004 -1.53081e-19
      endloop
   endfacet
   facet normal 0 1 0
      outer loop
         vertex -0.00191372 0.004 0.000208129
         vertex -0.00187999 0.004 0.000413818
         vertex -0.00122078 0.004 0.000268713
      endloop
   endfacet
   facet normal 0 1 0
      outer loop
         vertex -0.00164945 0.004 0.000992441
         vertex -0.00107107 0.004 0.000644442
         vertex -0.00113447 0.004 0.000524861
      endloop
   endfacet
   facet normal 0 1 0
      outer loop
         vertex -0.00164945 0.004 0.000992441
         vertex -0.00153248 0.004 0.00116496
         vertex -0.000995116 0.004 0.000756468
      endloop
   endfacet
   facet normal 0 1 0
      outer loop
         vertex 0.000585511 0.004 0.00110439
         vertex 0.000462673 0.004 0.00116122
         vertex 0.000712516 0.004 0.00178828
      endloop
   endfacet
   facet normal 0 1 0
      outer loop
         vertex 0.000901686 0.004 0.00170076
         vertex 0.00108029 0.004 0.0015933
         vertex 0.000701484 0.004 0.00103461
      endloop
   endfacet
   facet normal 0 1 0
      outer loop
         vertex 0.000809233 0.004 0.000952703
         vertex 0.00124622 0.004 0.00146716
         vertex 0.00139754 0.004 0.00132382
      endloop
   endfacet
   facet normal 0 1 0
      outer loop
         vertex 0.00139754 0.004 0.00132382
         vertex 0.00153248 0.004 0.00116496
         vertex 0.000995116 0.004 0.000756468
      endloop
   endfacet
   facet normal 0 1 0
      outer loop
         vertex 0.00118457 0.004 -0.000399127
         vertex 0.00182423 0.004 -0.000614655
         vertex 0.00174708 0.004 -0.000808287
      endloop
   endfacet
   facet normal 0 1 0
      outer loop
         vertex 0.000809233 0.004 -0.000952703
         vertex 0.000907494 0.004 -0.000859624
         vertex 0.00139754 0.004 -0.00132382
      endloop
   endfacet
   facet normal 0 1 0
      outer loop
         vertex 0.000462673 0.004 -0.00116122
         vertex 0.000585511 0.004 -0.00110439
         vertex 0.000901686 0.004 -0.00170076
      endloop
   endfacet
   facet normal 0 1 0
      outer loop
         vertex 0.00033441 0.004 -0.00120444
         vertex 0.000514992 0.004 -0.00185483
         vertex 0.00031143 0.004 -0.00189964
      endloop
   endfacet
   facet normal 0 1 0
      outer loop
         vertex -0.000901686 0.004 -0.00170076
         vertex -0.000585511 0.004 -0.00110439
         vertex -0.000462673 0.004 -0.00116122
      endloop
   endfacet
   facet normal 0 1 0
      outer loop
         vertex -0.00108029 0.004 -0.0015933
         vertex -0.000701484 0.004 -0.00103461
         vertex -0.000585511 0.004 -0.00110439
      endloop
   endfacet
   facet normal 0 1 0
      outer loop
         vertex -0.00164945 0.004 -0.000992441
         vertex -0.00107107 0.004 -0.000644442
         vertex -0.000995116 0.004 -0.000756468
      endloop
   endfacet
   facet normal 0 1 0
      outer loop
         vertex -0.00118457 0.004 -0.000399127
         vertex -0.00113447 0.004 -0.000524861
         vertex -0.00174708 0.004 -0.000808287
      endloop
   endfacet
   facet normal 0 1 0
      outer loop
         vertex -0.00122078 0.004 0.000268713
         vertex -0.00124267 0.004 0.000135149
         vertex -0.00191372 0.004 0.000208129
      endloop
   endfacet
   facet normal 0 1 0
      outer loop
         vertex -0.00187999 0.004 0.000413818
         vertex -0.00182423 0.004 0.000614655
         vertex -0.00118457 0.004 0.000399127
      endloop
   endfacet
   facet normal 0 1 0
      outer loop
         vertex -0.000995116 0.004 0.000756468
         vertex -0.00107107 0.004 0.000644442
         vertex -0.00164945 0.004 0.000992441
      endloop
   endfacet
   facet normal 0 1 0
      outer loop
         vertex -0.00153248 0.004 0.00116496
         vertex -0.00139754 0.004 0.00132382
         vertex -0.000907494 0.004 0.000859624
      endloop
   endfacet
   facet normal 0 1 0
      outer loop
         vertex -0.00124622 0.004 0.00146716
         vertex -0.000809233 0.004 0.000952703
         vertex -0.000907494 0.004 0.000859624
      endloop
   endfacet
   facet normal 0 1 0
      outer loop
         vertex -0.00124622 0.004 0.00146716
         vertex -0.00108029 0.004 0.0015933
         vertex -0.000701484 0.004 0.00103461
      endloop
   endfacet
   facet normal 0 1 0
      outer loop
         vertex 0.000701484 0.004 0.00103461
         vertex 0.000585511 0.004 0.00110439
         vertex 0.000901686 0.004 0.00170076
      endloop
   endfacet
   facet normal 0 1 0
      outer loop
         vertex 0.000995116 0.004 0.000756468
         vertex 0.000907494 0.004 0.000859624
         vertex 0.00139754 0.004 0.00132382
      endloop
   endfacet
   facet normal 0 1 0
      outer loop
         vertex 0.00174708 0.004 0.000808287
         vertex 0.00113447 0.004 0.000524861
         vertex 0.00107107 0.004 0.000644442
      endloop
   endfacet
   facet normal 0 1 0
      outer loop
         vertex 0.00174708 0.004 0.000808287
         vertex 0.00182423 0.004 0.000614655
         vertex 0.00118457 0.004 0.000399127
      endloop
   endfacet
   facet normal 0 1 0
      outer loop
         vertex 0.00191372 0.004 0.000208129
         vertex 0.00124267 0.004 0.000135149
         vertex 0.00122078 0.004 0.000268713
      endloop
   endfacet
   facet normal 0 1 0
      outer loop
         vertex 0.00191372 0.004 0.000208129
         vertex 0.001925 0.004 4.71489e-19
         vertex 0.00125 0.004 3.06162e-19
      endloop
   endfacet
   facet normal 0 1 0
      outer loop
         vertex 0.000995116 0.004 -0.000756468
         vertex 0.00153248 0.004 -0.00116496
         vertex 0.00139754 0.004 -0.00132382
      endloop
   endfacet
   facet normal 0 1 0
      outer loop
         vertex 0.00033441 0.004 -0.00120444
         vertex 0.000462673 0.004 -0.00116122
         vertex 0.000712516 0.004 -0.00178828
      endloop
   endfacet
   facet normal 0 1 0
      outer loop
         vertex -0.000585511 0.004 -0.00110439
         vertex -0.000901686 0.004 -0.00170076
         vertex -0.00108029 0.004 -0.0015933
      endloop
   endfacet
   facet normal 0 1 0
      outer loop
         vertex -0.00108029 0.004 -0.0015933
         vertex -0.00124622 0.004 -0.00146716
         vertex -0.000809233 0.004 -0.000952703
      endloop
   endfacet
   facet normal 0 1 0
      outer loop
         vertex -0.00124622 0.004 -0.00146716
         vertex -0.00139754 0.004 -0.00132382
         vertex -0.000907494 0.004 -0.000859624
      endloop
   endfacet
   facet normal 0 1 0
      outer loop
         vertex -0.00139754 0.004 -0.00132382
         vertex -0.00153248 0.004 -0.00116496
         vertex -0.000995116 0.004 -0.000756468
      endloop
   endfacet
   facet normal 0 1 0
      outer loop
         vertex -0.00107107 0.004 -0.000644442
         vertex -0.00164945 0.004 -0.000992441
         vertex -0.00174708 0.004 -0.000808287
      endloop
   endfacet
   facet normal 0 1 0
      outer loop
         vertex -0.00187999 0.004 -0.000413818
         vertex -0.00122078 0.004 -0.000268713
         vertex -0.00118457 0.004 -0.000399127
      endloop
   endfacet
   facet normal 0 1 0
      outer loop
         vertex -0.00191372 0.004 -0.000208129
         vertex -0.00124267 0.004 -0.000135149
         vertex -0.00122078 0.004 -0.000268713
      endloop
   endfacet
   facet normal 0 1 0
      outer loop
         vertex -0.00191372 0.004 -0.000208129
         vertex -0.001925 0.004 -2.35745e-19
         vertex -0.00125 0.004 -1.53081e-19
      endloop
   endfacet
   facet normal 0 1 0
      outer loop
         vertex -0.00118457 0.004 0.000399127
         vertex -0.00122078 0.004 0.000268713
         vertex -0.00187999 0.004 0.000413818
      endloop
   endfacet
   facet normal 0 1 0
      outer loop
         vertex -0.00174708 0.004 0.000808287
         vertex -0.00113447 0.004 0.000524861
         vertex -0.00118457 0.004 0.000399127
      endloop
   endfacet
   facet normal 0 1 0
      outer loop
         vertex -0.000907494 0.004 0.000859624
         vertex -0.000995116 0.004 0.000756468
         vertex -0.00153248 0.004 0.00116496
      endloop
   endfacet
   facet normal 0 1 0
      outer loop
         vertex -0.000701484 0.004 0.00103461
         vertex -0.000809233 0.004 0.000952703
         vertex -0.00124622 0.004 0.00146716
      endloop
   endfacet
   facet normal 0 1 0
      outer loop
         vertex 0.000701484 0.004 0.00103461
         vertex 0.00108029 0.004 0.0015933
         vertex 0.00124622 0.004 0.00146716
      endloop
   endfacet
   facet normal 0 1 0
      outer loop
         vertex 0.00164945 0.004 0.000992441
         vertex 0.00107107 0.004 0.000644442
         vertex 0.000995116 0.004 0.000756468
      endloop
   endfacet
   facet normal 0 1 0
      outer loop
         vertex 0.00118457 0.004 0.000399127
         vertex 0.00113447 0.004 0.000524861
         vertex 0.00174708 0.004 0.000808287
      endloop
   endfacet
   facet normal 0 1 0
      outer loop
         vertex 0.00182423 0.004 0.000614655
         vertex 0.00187999 0.004 0.000413818
         vertex 0.00122078 0.004 0.000268713
      endloop
   endfacet
   facet normal 0 1 0
      outer loop
         vertex 0.00125 0.004 3.06162e-19
         vertex 0.00124267 0.004 0.000135149
         vertex 0.00191372 0.004 0.000208129
      endloop
   endfacet
   facet normal 0 1 0
      outer loop
         vertex 0.000809233 0.004 -0.000952703
         vertex 0.00124622 0.004 -0.00146716
         vertex 0.00108029 0.004 -0.0015933
      endloop
   endfacet
   facet normal 0 1 0
      outer loop
         vertex -0.000514992 0.004 -0.00185483
         vertex -0.00033441 0.004 -0.00120444
         vertex -0.000202227 0.004 -0.00123353
      endloop
   endfacet
   facet normal 0 1 0
      outer loop
         vertex -0.000514992 0.004 -0.00185483
         vertex -0.000712516 0.004 -0.00178828
         vertex -0.000462673 0.004 -0.00116122
      endloop
   endfacet
   facet normal 0 1 0
      outer loop
         vertex -0.000809233 0.004 -0.000952703
         vertex -0.000701484 0.004 -0.00103461
         vertex -0.00108029 0.004 -0.0015933
      endloop
   endfacet
   facet normal 0 1 0
      outer loop
         vertex -0.000995116 0.004 -0.000756468
         vertex -0.000907494 0.004 -0.000859624
         vertex -0.00139754 0.004 -0.00132382
      endloop
   endfacet
   facet normal 0 1 0
      outer loop
         vertex -0.00118457 0.004 -0.000399127
         vertex -0.00182423 0.004 -0.000614655
         vertex -0.00187999 0.004 -0.000413818
      endloop
   endfacet
   facet normal 0 1 0
      outer loop
         vertex -0.00125 0.004 -1.53081e-19
         vertex -0.00124267 0.004 -0.000135149
         vertex -0.00191372 0.004 -0.000208129
      endloop
   endfacet
   facet normal 0 1 0
      outer loop
         vertex -0.00118457 0.004 0.000399127
         vertex -0.00182423 0.004 0.000614655
         vertex -0.00174708 0.004 0.000808287
      endloop
   endfacet
   facet normal 0 1 0
      outer loop
         vertex -0.000907494 0.004 0.000859624
         vertex -0.00139754 0.004 0.00132382
         vertex -0.00124622 0.004 0.00146716
      endloop
   endfacet
   facet normal 0 1 0
      outer loop
         vertex -0.000901686 0.004 0.00170076
         vertex -0.000585511 0.004 0.00110439
         vertex -0.000701484 0.004 0.00103461
      endloop
   endfacet
   facet normal 0 1 0
      outer loop
         vertex -0.000901686 0.004 0.00170076
         vertex -0.000712516 0.004 0.00178828
         vertex -0.000462673 0.004 0.00116122
      endloop
   endfacet
   facet normal 0 1 0
      outer loop
         vertex 0.000995116 0.004 0.000756468
         vertex 0.00153248 0.004 0.00116496
         vertex 0.00164945 0.004 0.000992441
      endloop
   endfacet
   facet normal 0 1 0
      outer loop
         vertex 0.00122078 0.004 0.000268713
         vertex 0.00118457 0.004 0.000399127
         vertex 0.00182423 0.004 0.000614655
      endloop
   endfacet
   facet normal 0 1 0
      outer loop
         vertex 0.00125 0.004 3.06162e-19
         vertex 0.001925 0.004 4.71489e-19
         vertex 0.00191372 0.004 -0.000208129
      endloop
   endfacet
   facet normal 0 1 0
      outer loop
         vertex -0.000462673 0.004 -0.00116122
         vertex -0.00033441 0.004 -0.00120444
         vertex -0.000514992 0.004 -0.00185483
      endloop
   endfacet
   facet normal 0 1 0
      outer loop
         vertex -0.000907494 0.004 -0.000859624
         vertex -0.000809233 0.004 -0.000952703
         vertex -0.00124622 0.004 -0.00146716
      endloop
   endfacet
   facet normal 0 1 0
      outer loop
         vertex -0.00122078 0.004 -0.000268713
         vertex -0.00187999 0.004 -0.000413818
         vertex -0.00191372 0.004 -0.000208129
      endloop
   endfacet
   facet normal 0 1 0
      outer loop
         vertex -0.00113447 0.004 0.000524861
         vertex -0.00174708 0.004 0.000808287
         vertex -0.00164945 0.004 0.000992441
      endloop
   endfacet
   facet normal 0 1 0
      outer loop
         vertex -0.000462673 0.004 0.00116122
         vertex -0.000585511 0.004 0.00110439
         vertex -0.000901686 0.004 0.00170076
      endloop
   endfacet
   facet normal 0 1 0
      outer loop
         vertex -0.000514992 0.004 0.00185483
         vertex -0.00033441 0.004 0.00120444
         vertex -0.000462673 0.004 0.00116122
      endloop
   endfacet
   facet normal 0 1 0
      outer loop
         vertex -0.000514992 0.004 0.00185483
         vertex -0.00031143 0.004 0.00189964
         vertex -0.000202227 0.004 0.00123353
      endloop
   endfacet
   facet normal 0 1 0
      outer loop
         vertex 0.00107107 0.004 0.000644442
         vertex 0.00164945 0.004 0.000992441
         vertex 0.00174708 0.004 0.000808287
      endloop
   endfacet
   facet normal 0 1 0
      outer loop
         vertex -0.000202227 0.004 -0.00123353
         vertex -0.00031143 0.004 -0.00189964
         vertex -0.000514992 0.004 -0.00185483
      endloop
   endfacet
   facet normal 0 1 0
      outer loop
         vertex -0.000995116 0.004 -0.000756468
         vertex -0.00153248 0.004 -0.00116496
         vertex -0.00164945 0.004 -0.000992441
      endloop
   endfacet
   facet normal 0 1 0
      outer loop
         vertex -0.000701484 0.004 0.00103461
         vertex -0.00108029 0.004 0.0015933
         vertex -0.000901686 0.004 0.00170076
      endloop
   endfacet
   facet normal 0 1 0
      outer loop
         vertex -0.000202227 0.004 0.00123353
         vertex -0.00033441 0.004 0.00120444
         vertex -0.000514992 0.004 0.00185483
      endloop
   endfacet
   facet normal 0 1 0
      outer loop
         vertex -0.00031143 0.004 0.00189964
         vertex -0.000104217 0.004 0.00192218
         vertex -6.76736e-05 0.004 0.00124817
      endloop
   endfacet
   facet normal 0 1 0
      outer loop
         vertex 0.00122078 0.004 0.000268713
         vertex 0.00187999 0.004 0.000413818
         vertex 0.00191372 0.004 0.000208129
      endloop
   endfacet
   facet normal 0 1 0
      outer loop
         vertex -0.00125 0.004 -1.53081e-19
         vertex -0.001925 0.004 -2.35745e-19
         vertex -0.00191372 0.004 0.000208129
      endloop
   endfacet
   facet normal 0 1 0
      outer loop
         vertex -6.76736e-05 0.004 0.00124817
         vertex -0.000202227 0.004 0.00123353
         vertex -0.00031143 0.004 0.00189964
      endloop
   endfacet
   facet normal 0 1 0
      outer loop
         vertex 0.000104217 0.004 0.00192218
         vertex 6.76736e-05 0.004 0.00124817
         vertex -6.76736e-05 0.004 0.00124817
      endloop
   endfacet
   facet normal 0 1 0
      outer loop
         vertex -0.000462673 0.004 -0.00116122
         vertex -0.000712516 0.004 -0.00178828
         vertex -0.000901686 0.004 -0.00170076
      endloop
   endfacet
   facet normal 0 1 0
      outer loop
         vertex -6.76736e-05 0.004 0.00124817
         vertex -0.000104217 0.004 0.00192218
         vertex 0.000104217 0.004 0.00192218
      endloop
   endfacet
   facet normal 0 1 0
      outer loop
         vertex -0.000462673 0.004 0.00116122
         vertex -0.000712516 0.004 0.00178828
         vertex -0.000514992 0.004 0.00185483
      endloop
   endfacet
   facet normal 0 1 0
      outer loop
         vertex 6.76736e-05 0.004 0.00124817
         vertex 0.000104217 0.004 0.00192218
         vertex 0.00031143 0.004 0.00189964
      endloop
   endfacet
   facet normal -0.994138 0 -0.108119
      outer loop
         vertex 0.00124267 0.004 0.000135149
         vertex 0.00125 0.004 3.06162e-19
         vertex 0.00125 0 0
      endloop
   endfacet
   facet normal -0.976621 0 -0.21497
      outer loop
         vertex 0.00122078 0.004 0.000268713
         vertex 0.00124267 0.004 0.000135149
         vertex 0.00124267 0 0.000135149
      endloop
   endfacet
   facet normal -0.947653 0 -0.319302
      outer loop
         vertex 0.00118457 0.004 0.000399127
         vertex 0.00122078 0.004 0.000268713
         vertex 0.00122078 0 0.000268713
      endloop
   endfacet
   facet normal -0.907575 0 -0.419889
      outer loop
         vertex 0.00113447 0.004 0.000524861
         vertex 0.00118457 0.004 0.000399127
         vertex 0.00118457 0 0.000399127
      endloop
   endfacet
   facet normal -0.856857 0 -0.515554
      outer loop
         vertex 0.00107107 0.004 0.000644442
         vertex 0.00113447 0.004 0.000524861
         vertex 0.00113447 0 0.000524861
      endloop
   endfacet
   facet normal -0.796093 0 -0.605174
      outer loop
         vertex 0.000995116 0.004 0.000756468
         vertex 0.00107107 0.004 0.000644442
         vertex 0.00107107 0 0.000644442
      endloop
   endfacet
   facet normal -0.725995 0 -0.687699
      outer loop
         vertex 0.000907494 0.004 0.000859624
         vertex 0.000995116 0.004 0.000756468
         vertex 0.000995116 0 0.000756468
      endloop
   endfacet
   facet normal -0.647386 0 -0.762162
      outer loop
         vertex 0.000809233 0.004 0.000952703
         vertex 0.000907494 0.004 0.000859624
         vertex 0.000907494 0 0.000859624
      endloop
   endfacet
   facet normal -0.561187 0 -0.827689
      outer loop
         vertex 0.000701484 0.004 0.00103461
         vertex 0.000809233 0.004 0.000952703
         vertex 0.000809233 0 0.000952703
      endloop
   endfacet
   facet normal -0.468408 0 -0.883512
      outer loop
         vertex 0.000585511 0.004 0.00110439
         vertex 0.000701484 0.004 0.00103461
         vertex 0.000701484 0 0.00103461
      endloop
   endfacet
   facet normal -0.370138 0 -0.928977
      outer loop
         vertex 0.000462673 0.004 0.00116122
         vertex 0.000585511 0.004 0.00110439
         vertex 0.000585511 0 0.00110439
      endloop
   endfacet
   facet normal -0.267528 0 -0.96355
      outer loop
         vertex 0.00033441 0.004 0.00120444
         vertex 0.000462673 0.004 0.00116122
         vertex 0.000462673 0 0.00116122
      endloop
   endfacet
   facet normal -0.161782 0 -0.986827
      outer loop
         vertex 0.000202227 0.004 0.00123353
         vertex 0.00033441 0.004 0.00120444
         vertex 0.00033441 0 0.00120444
      endloop
   endfacet
   facet normal -0.0541389 0 -0.998533
      outer loop
         vertex 6.76736e-05 0.004 0.00124817
         vertex 0.000202227 0.004 0.00123353
         vertex 0.000202227 0 0.00123353
      endloop
   endfacet
   facet normal 0.0541389 0 -0.998533
      outer loop
         vertex -6.76736e-05 0.004 0.00124817
         vertex 6.76736e-05 0.004 0.00124817
         vertex 6.76736e-05 0 0.00124817
      endloop
   endfacet
   facet normal 0.161782 0 -0.986827
      outer loop
         vertex -0.000202227 0.004 0.00123353
         vertex -6.76736e-05 0.004 0.00124817
         vertex -6.76736e-05 0 0.00124817
      endloop
   endfacet
   facet normal 0.267528 0 -0.96355
      outer loop
         vertex -0.00033441 0.004 0.00120444
         vertex -0.000202227 0.004 0.00123353
         vertex -0.000202227 0 0.00123353
      endloop
   endfacet
   facet normal 0.370138 0 -0.928977
      outer loop
         vertex -0.000462673 0.004 0.00116122
         vertex -0.00033441 0.004 0.00120444
         vertex -0.00033441 0 0.00120444
      endloop
   endfacet
   facet normal 0.468408 0 -0.883512
      outer loop
         vertex -0.000585511 0.004 0.00110439
         vertex -0.000462673 0.004 0.00116122
         vertex -0.000462673 0 0.00116122
      endloop
   endfacet
   facet normal 0.561187 0 -0.827689
      outer loop
         vertex -0.000701484 0.004 0.00103461
         vertex -0.000585511 0.004 0.00110439
         vertex -0.000585511 0 0.00110439
      endloop
   endfacet
   facet normal 0.647386 0 -0.762162
      outer loop
         vertex -0.000809233 0.004 0.000952703
         vertex -0.000701484 0.004 0.00103461
         vertex -0.000701484 0 0.00103461
      endloop
   endfacet
   facet normal 0.725995 0 -0.687699
      outer loop
         vertex -0.000907494 0.004 0.000859624
         vertex -0.000809233 0.004 0.000952703
         vertex -0.000809233 0 0.000952703
      endloop
   endfacet
   facet normal 0.796093 0 -0.605174
      outer loop
         vertex -0.000995116 0.004 0.000756468
         vertex -0.000907494 0.004 0.000859624
         vertex -0.000907494 0 0.000859624
      endloop
   endfacet
   facet normal 0.856857 0 -0.515554
      outer loop
         vertex -0.00107107 0.004 0.000644442
         vertex -0.000995116 0.004 0.000756468
         vertex -0.000995116 0 0.000756468
      endloop
   endfacet
   facet normal 0.907575 0 -0.419889
      outer loop
         vertex -0.00113447 0.004 0.000524861
         vertex -0.00107107 0.004 0.000644442
         vertex -0.00107107 0 0.000644442
      endloop
   endfacet
   facet normal 0.947653 0 -0.319302
      outer loop
         vertex -0.00118457 0.004 0.000399127
         vertex -0.00113447 0.004 0.000524861
         vertex -0.00113447 0 0.000524861
      endloop
   endfacet
   facet normal 0.976621 0 -0.21497
      outer loop
         vertex -0.00122078 0.004 0.000268713
         vertex -0.00118457 0.004 0.000399127
         vertex -0.00118457 0 0.000399127
      endloop
   endfacet
   facet normal 0.994138 0 -0.108119
      outer loop
         vertex -0.00124267 0.004 0.000135149
         vertex -0.00122078 0.004 0.000268713
         vertex -0.00122078 0 0.000268713
      endloop
   endfacet
   facet normal 1 0 1.22465e-16
      outer loop
         vertex -0.00125 0.004 -1.53081e-19
         vertex -0.00124267 0.004 0.000135149
         vertex -0.00124267 0 0.000135149
      endloop
   endfacet
   facet normal 0.994138 0 0.108119
      outer loop
         vertex -0.00124267 0.004 -0.000135149
         vertex -0.00125 0.004 -1.53081e-19
         vertex -0.00125 0 -1.53081e-19
      endloop
   endfacet
   facet normal 0.976621 0 0.21497
      outer loop
         vertex -0.00122078 0.004 -0.000268713
         vertex -0.00124267 0.004 -0.000135149
         vertex -0.00124267 0 -0.000135149
      endloop
   endfacet
   facet normal 0.947653 0 0.319302
      outer loop
         vertex -0.00118457 0.004 -0.000399127
         vertex -0.00122078 0.004 -0.000268713
         vertex -0.00122078 0 -0.000268713
      endloop
   endfacet
   facet normal 0.907575 0 0.419889
      outer loop
         vertex -0.00113447 0.004 -0.000524861
         vertex -0.00118457 0.004 -0.000399127
         vertex -0.00118457 0 -0.000399127
      endloop
   endfacet
   facet normal 0.856857 0 0.515554
      outer loop
         vertex -0.00107107 0.004 -0.000644442
         vertex -0.00113447 0.004 -0.000524861
         vertex -0.00113447 0 -0.000524861
      endloop
   endfacet
   facet normal 0.796093 0 0.605174
      outer loop
         vertex -0.000995116 0.004 -0.000756468
         vertex -0.00107107 0.004 -0.000644442
         vertex -0.00107107 0 -0.000644442
      endloop
   endfacet
   facet normal 0.725995 0 0.687699
      outer loop
         vertex -0.000907494 0.004 -0.000859624
         vertex -0.000995116 0.004 -0.000756468
         vertex -0.000995116 0 -0.000756468
      endloop
   endfacet
   facet normal 0.647386 0 0.762162
      outer loop
         vertex -0.000809233 0.004 -0.000952703
         vertex -0.000907494 0.004 -0.000859624
         vertex -0.000907494 0 -0.000859624
      endloop
   endfacet
   facet normal 0.561187 0 0.827689
      outer loop
         vertex -0.000701484 0.004 -0.00103461
         vertex -0.000809233 0.004 -0.000952703
         vertex -0.000809233 0 -0.000952703
      endloop
   endfacet
   facet normal 0.468408 0 0.883512
      outer loop
         vertex -0.000585511 0.004 -0.00110439
         vertex -0.000701484 0.004 -0.00103461
         vertex -0.000701484 0 -0.00103461
      endloop
   endfacet
   facet normal 0.370138 0 0.928977
      outer loop
         vertex -0.000462673 0.004 -0.00116122
         vertex -0.000585511 0.004 -0.00110439
         vertex -0.000585511 0 -0.00110439
      endloop
   endfacet
   facet normal 0.267528 0 0.96355
      outer loop
         vertex -0.00033441 0.004 -0.00120444
         vertex -0.000462673 0.004 -0.00116122
         vertex -0.000462673 0 -0.00116122
      endloop
   endfacet
   facet normal 0.161782 0 0.986827
      outer loop
         vertex -0.000202227 0.004 -0.00123353
         vertex -0.00033441 0.004 -0.00120444
         vertex -0.00033441 0 -0.00120444
      endloop
   endfacet
   facet normal 0.0541389 0 0.998533
      outer loop
         vertex -6.76736e-05 0.004 -0.00124817
         vertex -0.000202227 0.004 -0.00123353
         vertex -0.000202227 0 -0.00123353
      endloop
   endfacet
   facet normal -0.0541389 0 0.998533
      outer loop
         vertex 6.76736e-05 0.004 -0.00124817
         vertex -6.76736e-05 0.004 -0.00124817
         vertex -6.76736e-05 0 -0.00124817
      endloop
   endfacet
   facet normal -0.161782 0 0.986827
      outer loop
         vertex 0.000202227 0.004 -0.00123353
         vertex 6.76736e-05 0.004 -0.00124817
         vertex 6.76736e-05 0 -0.00124817
      endloop
   endfacet
   facet normal -0.267528 0 0.96355
      outer loop
         vertex 0.00033441 0.004 -0.00120444
         vertex 0.000202227 0.004 -0.00123353
         vertex 0.000202227 0 -0.00123353
      endloop
   endfacet
   facet normal -0.370138 0 0.928977
      outer loop
         vertex 0.000462673 0.004 -0.00116122
         vertex 0.00033441 0.004 -0.00120444
         vertex 0.00033441 0 -0.00120444
      endloop
   endfacet
   facet normal -0.468408 0 0.883512
      outer loop
         vertex 0.000585511 0.004 -0.00110439
         vertex 0.000462673 0.004 -0.00116122
         vertex 0.000462673 0 -0.00116122
      endloop
   endfacet
   facet normal -0.561187 0 0.827689
      outer loop
         vertex 0.000701484 0.004 -0.00103461
         vertex 0.000585511 0.004 -0.00110439
         vertex 0.000585511 0 -0.00110439
      endloop
   endfacet
   facet normal -0.647386 0 0.762162
      outer loop
         vertex 0.000809233 0.004 -0.000952703
         vertex 0.000701484 0.004 -0.00103461
         vertex 0.000701484 0 -0.00103461
      endloop
   endfacet
   facet normal -0.725995 0 0.687699
      outer loop
         vertex 0.000907494 0.004 -0.000859624
         vertex 0.000809233 0.004 -0.000952703
         vertex 0.000809233 0 -0.000952703
      endloop
   endfacet
   facet normal -0.796093 0 0.605174
      outer loop
         vertex 0.000995116 0.004 -0.000756468
         vertex 0.000907494 0.004 -0.000859624
         vertex 0.000907494 0 -0.000859624
      endloop
   endfacet
   facet normal -0.856857 0 0.515554
      outer loop
         vertex 0.00107107 0.004 -0.000644442
         vertex 0.000995116 0.004 -0.000756468
         vertex 0.000995116 0 -0.000756468
      endloop
   endfacet
   facet normal -0.907575 0 0.419889
      outer loop
         vertex 0.00113447 0.004 -0.000524861
         vertex 0.00107107 0.004 -0.000644442
         vertex 0.00107107 0 -0.000644442
      endloop
   endfacet
   facet normal -0.947653 0 0.319302
      outer loop
         vertex 0.00118457 0.004 -0.000399127
         vertex 0.00113447 0.004 -0.000524861
         vertex 0.00113447 0 -0.000524861
      endloop
   endfacet
   facet normal -0.976621 0 0.21497
      outer loop
         vertex 0.00122078 0.004 -0.000268713
         vertex 0.00118457 0.004 -0.000399127
         vertex 0.00118457 0 -0.000399127
      endloop
   endfacet
   facet normal -0.994138 0 0.108119
      outer loop
         vertex 0.00124267 0.004 -0.000135149
         vertex 0.00122078 0.004 -0.000268713
         vertex 0.00122078 0 -0.000268713
      endloop
   endfacet
   facet normal -1 0 -2.44929e-16
      outer loop
         vertex 0.00125 0.004 3.06162e-19
         vertex 0.00124267 0.004 -0.000135149
         vertex 0.00124267 0 -0.000135149
      endloop
   endfacet
   facet normal -0.994138 0 0.108119
      outer loop
         vertex 0.00124267 0 -0.000135149
         vertex 0.00125 0 0
         vertex 0.00125 0.004 3.06162e-19
      endloop
   endfacet
   facet normal -0.976621 0 0.21497
      outer loop
         vertex 0.00122078 0 -0.000268713
         vertex 0.00124267 0 -0.000135149
         vertex 0.00124267 0.004 -0.000135149
      endloop
   endfacet
   facet normal -0.947653 0 0.319302
      outer loop
         vertex 0.00118457 0 -0.000399127
         vertex 0.00122078 0 -0.000268713
         vertex 0.00122078 0.004 -0.000268713
      endloop
   endfacet
   facet normal -0.907575 0 0.419889
      outer loop
         vertex 0.00113447 0 -0.000524861
         vertex 0.00118457 0 -0.000399127
         vertex 0.00118457 0.004 -0.000399127
      endloop
   endfacet
   facet normal -0.856857 0 0.515554
      outer loop
         vertex 0.00107107 0 -0.000644442
         vertex 0.00113447 0 -0.000524861
         vertex 0.00113447 0.004 -0.000524861
      endloop
   endfacet
   facet normal -0.796093 0 0.605174
      outer loop
         vertex 0.000995116 0 -0.000756468
         vertex 0.00107107 0 -0.000644442
         vertex 0.00107107 0.004 -0.000644442
      endloop
   endfacet
   facet normal -0.725995 0 0.687699
      outer loop
         vertex 0.000907494 0 -0.000859624
         vertex 0.000995116 0 -0.000756468
         vertex 0.000995116 0.004 -0.000756468
      endloop
   endfacet
   facet normal -0.647386 0 0.762162
      outer loop
         vertex 0.000809233 0 -0.000952703
         vertex 0.000907494 0 -0.000859624
         vertex 0.000907494 0.004 -0.000859624
      endloop
   endfacet
   facet normal -0.561187 0 0.827689
      outer loop
         vertex 0.000701484 0 -0.00103461
         vertex 0.000809233 0 -0.000952703
         vertex 0.000809233 0.004 -0.000952703
      endloop
   endfacet
   facet normal -0.468408 0 0.883512
      outer loop
         vertex 0.000585511 0 -0.00110439
         vertex 0.000701484 0 -0.00103461
         vertex 0.000701484 0.004 -0.00103461
      endloop
   endfacet
   facet normal -0.370138 0 0.928977
      outer loop
         vertex 0.000462673 0 -0.00116122
         vertex 0.000585511 0 -0.00110439
         vertex 0.000585511 0.004 -0.00110439
      endloop
   endfacet
   facet normal -0.267528 0 0.96355
      outer loop
         vertex 0.00033441 0 -0.00120444
         vertex 0.000462673 0 -0.00116122
         vertex 0.000462673 0.004 -0.00116122
      endloop
   endfacet
   facet normal -0.161782 0 0.986827
      outer loop
         vertex 0.000202227 0 -0.00123353
         vertex 0.00033441 0 -0.00120444
         vertex 0.00033441 0.004 -0.00120444
      endloop
   endfacet
   facet normal -0.0541389 0 0.998533
      outer loop
         vertex 6.76736e-05 0 -0.00124817
         vertex 0.000202227 0 -0.00123353
         vertex 0.000202227 0.004 -0.00123353
      endloop
   endfacet
   facet normal 0.0541389 0 0.998533
      outer loop
         vertex -6.76736e-05 0 -0.00124817
         vertex 6.76736e-05 0 -0.00124817
         vertex 6.76736e-05 0.004 -0.00124817
      endloop
   endfacet
   facet normal 0.161782 0 0.986827
      outer loop
         vertex -0.000202227 0 -0.00123353
         vertex -6.76736e-05 0 -0.00124817
         vertex -6.76736e-05 0.004 -0.00124817
      endloop
   endfacet
   facet normal 0.267528 0 0.96355
      outer loop
         vertex -0.00033441 0 -0.00120444
         vertex -0.000202227 0 -0.00123353
         vertex -0.000202227 0.004 -0.00123353
      endloop
   endfacet
   facet normal 0.370138 0 0.928977
      outer loop
         vertex -0.000462673 0 -0.00116122
         vertex -0.00033441 0 -0.00120444
         vertex -0.00033441 0.004 -0.00120444
      endloop
   endfacet
   facet normal 0.468408 0 0.883512
      outer loop
         vertex -0.000585511 0 -0.00110439
         vertex -0.000462673 0 -0.00116122
         vertex -0.000462673 0.004 -0.00116122
      endloop
   endfacet
   facet normal 0.561187 0 0.827689
      outer loop
         vertex -0.000701484 0 -0.00103461
         vertex -0.000585511 0 -0.00110439
         vertex -0.000585511 0.004 -0.00110439
      endloop
   endfacet
   facet normal 0.647386 0 0.762162
      outer loop
         vertex -0.000809233 0 -0.000952703
         vertex -0.000701484 0 -0.00103461
         vertex -0.000701484 0.004 -0.00103461
      endloop
   endfacet
   facet normal 0.725995 0 0.687699
      outer loop
         vertex -0.000907494 0 -0.000859624
         vertex -0.000809233 0 -0.000952703
         vertex -0.000809233 0.004 -0.000952703
      endloop
   endfacet
   facet normal 0.796093 0 0.605174
      outer loop
         vertex -0.000995116 0 -0.000756468
         vertex -0.000907494 0 -0.000859624
         vertex -0.000907494 0.004 -0.000859624
      endloop
   endfacet
   facet normal 0.856857 0 0.515554
      outer loop
         vertex -0.00107107 0 -0.000644442
         vertex -0.000995116 0 -0.000756468
         vertex -0.000995116 0.004 -0.000756468
      endloop
   endfacet
   facet normal 0.907575 0 0.419889
      outer loop
         vertex -0.00113447 0 -0.000524861
         vertex -0.00107107 0 -0.000644442
         vertex -0.00107107 0.004 -0.000644442
      endloop
   endfacet
   facet normal 0.947653 0 0.319302
      outer loop
         vertex -0.00118457 0 -0.000399127
         vertex -0.00113447 0 -0.000524861
         vertex -0.00113447 0.004 -0.000524861
      endloop
   endfacet
   facet normal 0.976621 0 0.21497
      outer loop
         vertex -0.00122078 0 -0.000268713
         vertex -0.00118457 0 -0.000399127
         vertex -0.00118457 0.004 -0.000399127
      endloop
   endfacet
   facet normal 0.994138 0 0.108119
      outer loop
         vertex -0.00124267 0 -0.000135149
         vertex -0.00122078 0 -0.000268713
         vertex -0.00122078 0.004 -0.000268713
      endloop
   endfacet
   facet normal 1 0 1.22465e-16
      outer loop
         vertex -0.00125 0 -1.53081e-19
         vertex -0.00124267 0 -0.000135149
         vertex -0.00124267 0.004 -0.000135149
      endloop
   endfacet
   facet normal 0.994138 0 -0.108119
      outer loop
         vertex -0.00124267 0 0.000135149
         vertex -0.00125 0 -1.53081e-19
         vertex -0.00125 0.004 -1.53081e-19
      endloop
   endfacet
   facet normal 0.976621 0 -0.21497
      outer loop
         vertex -0.00122078 0 0.000268713
         vertex -0.00124267 0 0.000135149
         vertex -0.00124267 0.004 0.000135149
      endloop
   endfacet
   facet normal 0.947653 0 -0.319302
      outer loop
         vertex -0.00118457 0 0.000399127
         vertex -0.00122078 0 0.000268713
         vertex -0.00122078 0.004 0.000268713
      endloop
   endfacet
   facet normal 0.907575 0 -0.419889
      outer loop
         vertex -0.00113447 0 0.000524861
         vertex -0.00118457 0 0.000399127
         vertex -0.00118457 0.004 0.000399127
      endloop
   endfacet
   facet normal 0.856857 0 -0.515554
      outer loop
         vertex -0.00107107 0 0.000644442
         vertex -0.00113447 0 0.000524861
         vertex -0.00113447 0.004 0.000524861
      endloop
   endfacet
   facet normal 0.796093 0 -0.605174
      outer loop
         vertex -0.000995116 0 0.000756468
         vertex -0.00107107 0 0.000644442
         vertex -0.00107107 0.004 0.000644442
      endloop
   endfacet
   facet normal 0.725995 0 -0.687699
      outer loop
         vertex -0.000907494 0 0.000859624
         vertex -0.000995116 0 0.000756468
         vertex -0.000995116 0.004 0.000756468
      endloop
   endfacet
   facet normal 0.647386 0 -0.762162
      outer loop
         vertex -0.000809233 0 0.000952703
         vertex -0.000907494 0 0.000859624
         vertex -0.000907494 0.004 0.000859624
      endloop
   endfacet
   facet normal 0.561187 0 -0.827689
      outer loop
         vertex -0.000701484 0 0.00103461
         vertex -0.000809233 0 0.000952703
         vertex -0.000809233 0.004 0.000952703
      endloop
   endfacet
   facet normal 0.468408 0 -0.883512
      outer loop
         vertex -0.000585511 0 0.00110439
         vertex -0.000701484 0 0.00103461
         vertex -0.000701484 0.004 0.00103461
      endloop
   endfacet
   facet normal 0.370138 0 -0.928977
      outer loop
         vertex -0.000462673 0 0.00116122
         vertex -0.000585511 0 0.00110439
         vertex -0.000585511 0.004 0.00110439
      endloop
   endfacet
   facet normal 0.267528 0 -0.96355
      outer loop
         vertex -0.00033441 0 0.00120444
         vertex -0.000462673 0 0.00116122
         vertex -0.000462673 0.004 0.00116122
      endloop
   endfacet
   facet normal 0.161782 0 -0.986827
      outer loop
         vertex -0.000202227 0 0.00123353
         vertex -0.00033441 0 0.00120444
         vertex -0.00033441 0.004 0.00120444
      endloop
   endfacet
   facet normal 0.0541389 0 -0.998533
      outer loop
         vertex -6.76736e-05 0 0.00124817
         vertex -0.000202227 0 0.00123353
         vertex -0.000202227 0.004 0.00123353
      endloop
   endfacet
   facet normal -0.0541389 0 -0.998533
      outer loop
         vertex 6.76736e-05 0 0.00124817
         vertex -6.76736e-05 0 0.00124817
         vertex -6.76736e-05 0.004 0.00124817
      endloop
   endfacet
   facet normal -0.161782 0 -0.986827
      outer loop
         vertex 0.000202227 0 0.00123353
         vertex 6.76736e-05 0 0.00124817
         vertex 6.76736e-05 0.004 0.00124817
      endloop
   endfacet
   facet normal -0.267528 0 -0.96355
      outer loop
         vertex 0.00033441 0 0.00120444
         vertex 0.000202227 0 0.00123353
         vertex 0.000202227 0.004 0.00123353
      endloop
   endfacet
   facet normal -0.370138 0 -0.928977
      outer loop
         vertex 0.000462673 0 0.00116122
         vertex 0.00033441 0 0.00120444
         vertex 0.00033441 0.004 0.00120444
      endloop
   endfacet
   facet normal -0.468408 0 -0.883512
      outer loop
         vertex 0.000585511 0 0.00110439
         vertex 0.000462673 0 0.00116122
         vertex 0.000462673 0.004 0.00116122
      endloop
   endfacet
   facet normal -0.561187 0 -0.827689
      outer loop
         vertex 0.000701484 0 0.00103461
         vertex 0.000585511 0 0.00110439
         vertex 0.000585511 0.004 0.00110439
      endloop
   endfacet
   facet normal -0.647386 0 -0.762162
      outer loop
         vertex 0.000809233 0 0.000952703
         vertex 0.000701484 0 0.00103461
         vertex 0.000701484 0.004 0.00103461
      endloop
   endfacet
   facet normal -0.725995 0 -0.687699
      outer loop
         vertex 0.000907494 0 0.000859624
         vertex 0.000809233 0 0.000952703
         vertex 0.000809233 0.004 0.000952703
      endloop
   endfacet
   facet normal -0.796093 0 -0.605174
      outer loop
         vertex 0.000995116 0 0.000756468
         vertex 0.000907494 0 0.000859624
         vertex 0.000907494 0.004 0.000859624
      endloop
   endfacet
   facet normal -0.856857 0 -0.515554
      outer loop
         vertex 0.00107107 0 0.000644442
         vertex 0.000995116 0 0.000756468
         vertex 0.000995116 0.004 0.000756468
      endloop
   endfacet
   facet normal -0.907575 0 -0.419889
      outer loop
         vertex 0.00113447 0 0.000524861
         vertex 0.00107107 0 0.000644442
         vertex 0.00107107 0.004 0.000644442
      endloop
   endfacet
   facet normal -0.947653 0 -0.319302
      outer loop
         vertex 0.00118457 0 0.000399127
         vertex 0.00113447 0 0.000524861
         vertex 0.00113447 0.004 0.000524861
      endloop
   endfacet
   facet normal -0.976621 0 -0.21497
      outer loop
         vertex 0.00122078 0 0.000268713
         vertex 0.00118457 0 0.000399127
         vertex 0.00118457 0.004 0.000399127
      endloop
   endfacet
   facet normal -0.994138 0 -0.108119
      outer loop
         vertex 0.00124267 0 0.000135149
         vertex 0.00122078 0 0.000268713
         vertex 0.00122078 0.004 0.000268713
      endloop
   endfacet
   facet normal -1 0 -2.44929e-16
      outer loop
         vertex 0.00125 0 0
         vertex 0.00124267 0 0.000135149
         vertex 0.00124267 0.004 0.000135149
      endloop
   endfacet
   facet normal 0 -1 0
      outer loop
         vertex -0.00124622 0 0.00146716
         vertex -0.000809233 0 0.000952703
         vertex -0.000701484 0 0.00103461
      endloop
   endfacet
   facet normal 0 -1 0
      outer loop
         vertex -0.00124622 0 0.00146716
         vertex -0.00139754 0 0.00132382
         vertex -0.000907494 0 0.000859624
      endloop
   endfacet
   facet normal 0 -1 0
      outer loop
         vertex 0.00174708 0 0.000808287
         vertex 0.00113447 0 0.000524861
         vertex 0.00118457 0 0.000399127
      endloop
   endfacet
   facet normal 0 -1 0
      outer loop
         vertex 0.00174708 0 0.000808287
         vertex 0.00164945 0 0.000992441
         vertex 0.00107107 0 0.000644442
      endloop
   endfacet
   facet normal 0 -1 0
      outer loop
         vertex -0.000907494 0 0.000859624
         vertex -0.000809233 0 0.000952703
         vertex -0.00124622 0 0.00146716
      endloop
   endfacet
   facet normal 0 -1 0
      outer loop
         vertex -0.00153248 0 0.00116496
         vertex -0.000995116 0 0.000756468
         vertex -0.000907494 0 0.000859624
      endloop
   endfacet
   facet normal 0 -1 0
      outer loop
         vertex -0.00164945 0 0.000992441
         vertex -0.00107107 0 0.000644442
         vertex -0.000995116 0 0.000756468
      endloop
   endfacet
   facet normal 0 -1 0
      outer loop
         vertex -0.00164945 0 0.000992441
         vertex -0.00174708 0 0.000808287
         vertex -0.00113447 0 0.000524861
      endloop
   endfacet
   facet normal 0 -1 0
      outer loop
         vertex 0.00164945 0 -0.000992441
         vertex 0.00107107 0 -0.000644442
         vertex 0.000995116 0 -0.000756468
      endloop
   endfacet
   facet normal 0 -1 0
      outer loop
         vertex 0.00164945 0 -0.000992441
         vertex 0.00174708 0 -0.000808287
         vertex 0.00113447 0 -0.000524861
      endloop
   endfacet
   facet normal 0 -1 0
      outer loop
         vertex 0.00182423 0 0.000614655
         vertex 0.00118457 0 0.000399127
         vertex 0.00122078 0 0.000268713
      endloop
   endfacet
   facet normal 0 -1 0
      outer loop
         vertex 0.00107107 0 0.000644442
         vertex 0.00113447 0 0.000524861
         vertex 0.00174708 0 0.000808287
      endloop
   endfacet
   facet normal 0 -1 0
      outer loop
         vertex 0.00139754 0 0.00132382
         vertex 0.000907494 0 0.000859624
         vertex 0.000995116 0 0.000756468
      endloop
   endfacet
   facet normal 0 -1 0
      outer loop
         vertex 0.00139754 0 0.00132382
         vertex 0.00124622 0 0.00146716
         vertex 0.000809233 0 0.000952703
      endloop
   endfacet
   facet normal 0 -1 0
      outer loop
         vertex -0.000901686 0 0.00170076
         vertex -0.000585511 0 0.00110439
         vertex -0.000462673 0 0.00116122
      endloop
   endfacet
   facet normal 0 -1 0
      outer loop
         vertex -0.000901686 0 0.00170076
         vertex -0.00108029 0 0.0015933
         vertex -0.000701484 0 0.00103461
      endloop
   endfacet
   facet normal 0 -1 0
      outer loop
         vertex -0.000907494 0 0.000859624
         vertex -0.00139754 0 0.00132382
         vertex -0.00153248 0 0.00116496
      endloop
   endfacet
   facet normal 0 -1 0
      outer loop
         vertex -0.00113447 0 0.000524861
         vertex -0.00107107 0 0.000644442
         vertex -0.00164945 0 0.000992441
      endloop
   endfacet
   facet normal 0 -1 0
      outer loop
         vertex 0.000104217 0 -0.00192218
         vertex 0.00031143 0 -0.00189964
         vertex 0.000202227 0 -0.00123353
      endloop
   endfacet
   facet normal 0 -1 0
      outer loop
         vertex 0.00031143 0 -0.00189964
         vertex 0.000514992 0 -0.00185483
         vertex 0.00033441 0 -0.00120444
      endloop
   endfacet
   facet normal 0 -1 0
      outer loop
         vertex 0.000901686 0 -0.00170076
         vertex 0.000585511 0 -0.00110439
         vertex 0.000462673 0 -0.00116122
      endloop
   endfacet
   facet normal 0 -1 0
      outer loop
         vertex 0.00108029 0 -0.0015933
         vertex 0.000701484 0 -0.00103461
         vertex 0.000585511 0 -0.00110439
      endloop
   endfacet
   facet normal 0 -1 0
      outer loop
         vertex 0.00139754 0 -0.00132382
         vertex 0.000907494 0 -0.000859624
         vertex 0.000809233 0 -0.000952703
      endloop
   endfacet
   facet normal 0 -1 0
      outer loop
         vertex 0.00139754 0 -0.00132382
         vertex 0.00153248 0 -0.00116496
         vertex 0.000995116 0 -0.000756468
      endloop
   endfacet
   facet normal 0 -1 0
      outer loop
         vertex 0.00113447 0 -0.000524861
         vertex 0.00107107 0 -0.000644442
         vertex 0.00164945 0 -0.000992441
      endloop
   endfacet
   facet normal 0 -1 0
      outer loop
         vertex 0.00174708 0 -0.000808287
         vertex 0.00182423 0 -0.000614655
         vertex 0.00118457 0 -0.000399127
      endloop
   endfacet
   facet normal 0 -1 0
      outer loop
         vertex 0.00191372 0 -0.000208129
         vertex 0.00124267 0 -0.000135149
         vertex 0.00122078 0 -0.000268713
      endloop
   endfacet
   facet normal 0 -1 0
      outer loop
         vertex 0.00191372 0 -0.000208129
         vertex 0.001925 0 4.71489e-19
         vertex 0.00125 0 0
      endloop
   endfacet
   facet normal 0 -1 0
      outer loop
         vertex 0.00118457 0 0.000399127
         vertex 0.00182423 0 0.000614655
         vertex 0.00174708 0 0.000808287
      endloop
   endfacet
   facet normal 0 -1 0
      outer loop
         vertex 0.00164945 0 0.000992441
         vertex 0.00153248 0 0.00116496
         vertex 0.000995116 0 0.000756468
      endloop
   endfacet
   facet normal 0 -1 0
      outer loop
         vertex 0.000809233 0 0.000952703
         vertex 0.000907494 0 0.000859624
         vertex 0.00139754 0 0.00132382
      endloop
   endfacet
   facet normal 0 -1 0
      outer loop
         vertex 0.00124622 0 0.00146716
         vertex 0.00108029 0 0.0015933
         vertex 0.000701484 0 0.00103461
      endloop
   endfacet
   facet normal 0 -1 0
      outer loop
         vertex 0.000712516 0 0.00178828
         vertex 0.000462673 0 0.00116122
         vertex 0.000585511 0 0.00110439
      endloop
   endfacet
   facet normal 0 -1 0
      outer loop
         vertex 0.000514992 0 0.00185483
         vertex 0.00033441 0 0.00120444
         vertex 0.000462673 0 0.00116122
      endloop
   endfacet
   facet normal 0 -1 0
      outer loop
         vertex -0.000701484 0 0.00103461
         vertex -0.000585511 0 0.00110439
         vertex -0.000901686 0 0.00170076
      endloop
   endfacet
   facet normal 0 -1 0
      outer loop
         vertex -0.000995116 0 0.000756468
         vertex -0.00153248 0 0.00116496
         vertex -0.00164945 0 0.000992441
      endloop
   endfacet
   facet normal 0 -1 0
      outer loop
         vertex -0.00191372 0 -0.000208129
         vertex -0.00124267 0 -0.000135149
         vertex -0.00125 0 -1.53081e-19
      endloop
   endfacet
   facet normal 0 -1 0
      outer loop
         vertex -0.00191372 0 -0.000208129
         vertex -0.00187999 0 -0.000413818
         vertex -0.00122078 0 -0.000268713
      endloop
   endfacet
   facet normal 0 -1 0
      outer loop
         vertex -0.00174708 0 -0.000808287
         vertex -0.00113447 0 -0.000524861
         vertex -0.00118457 0 -0.000399127
      endloop
   endfacet
   facet normal 0 -1 0
      outer loop
         vertex -0.00174708 0 -0.000808287
         vertex -0.00164945 0 -0.000992441
         vertex -0.00107107 0 -0.000644442
      endloop
   endfacet
   facet normal 0 -1 0
      outer loop
         vertex -0.00108029 0 -0.0015933
         vertex -0.000901686 0 -0.00170076
         vertex -0.000585511 0 -0.00110439
      endloop
   endfacet
   facet normal 0 -1 0
      outer loop
         vertex -0.000901686 0 -0.00170076
         vertex -0.000712516 0 -0.00178828
         vertex -0.000462673 0 -0.00116122
      endloop
   endfacet
   facet normal 0 -1 0
      outer loop
         vertex 0.00033441 0 -0.00120444
         vertex 0.000202227 0 -0.00123353
         vertex 0.00031143 0 -0.00189964
      endloop
   endfacet
   facet normal 0 -1 0
      outer loop
         vertex 0.000712516 0 -0.00178828
         vertex 0.000462673 0 -0.00116122
         vertex 0.00033441 0 -0.00120444
      endloop
   endfacet
   facet normal 0 -1 0
      outer loop
         vertex 0.000585511 0 -0.00110439
         vertex 0.000901686 0 -0.00170076
         vertex 0.00108029 0 -0.0015933
      endloop
   endfacet
   facet normal 0 -1 0
      outer loop
         vertex 0.00108029 0 -0.0015933
         vertex 0.00124622 0 -0.00146716
         vertex 0.000809233 0 -0.000952703
      endloop
   endfacet
   facet normal 0 -1 0
      outer loop
         vertex 0.000995116 0 -0.000756468
         vertex 0.000907494 0 -0.000859624
         vertex 0.00139754 0 -0.00132382
      endloop
   endfacet
   facet normal 0 -1 0
      outer loop
         vertex 0.00118457 0 -0.000399127
         vertex 0.00113447 0 -0.000524861
         vertex 0.00174708 0 -0.000808287
      endloop
   endfacet
   facet normal 0 -1 0
      outer loop
         vertex 0.00187999 0 -0.000413818
         vertex 0.00122078 0 -0.000268713
         vertex 0.00118457 0 -0.000399127
      endloop
   endfacet
   facet normal 0 -1 0
      outer loop
         vertex 0.00125 0 0
         vertex 0.00124267 0 -0.000135149
         vertex 0.00191372 0 -0.000208129
      endloop
   endfacet
   facet normal 0 -1 0
      outer loop
         vertex 0.000995116 0 0.000756468
         vertex 0.00107107 0 0.000644442
         vertex 0.00164945 0 0.000992441
      endloop
   endfacet
   facet normal 0 -1 0
      outer loop
         vertex 0.000701484 0 0.00103461
         vertex 0.000809233 0 0.000952703
         vertex 0.00124622 0 0.00146716
      endloop
   endfacet
   facet normal 0 -1 0
      outer loop
         vertex 0.000462673 0 0.00116122
         vertex 0.000712516 0 0.00178828
         vertex 0.000514992 0 0.00185483
      endloop
   endfacet
   facet normal 0 -1 0
      outer loop
         vertex 0.000514992 0 0.00185483
         vertex 0.00031143 0 0.00189964
         vertex 0.000202227 0 0.00123353
      endloop
   endfacet
   facet normal 0 -1 0
      outer loop
         vertex -0.000701484 0 0.00103461
         vertex -0.00108029 0 0.0015933
         vertex -0.00124622 0 0.00146716
      endloop
   endfacet
   facet normal 0 -1 0
      outer loop
         vertex -0.00174708 0 0.000808287
         vertex -0.00182423 0 0.000614655
         vertex -0.00118457 0 0.000399127
      endloop
   endfacet
   facet normal 0 -1 0
      outer loop
         vertex -0.00122078 0 -0.000268713
         vertex -0.00124267 0 -0.000135149
         vertex -0.00191372 0 -0.000208129
      endloop
   endfacet
   facet normal 0 -1 0
      outer loop
         vertex -0.00187999 0 -0.000413818
         vertex -0.00182423 0 -0.000614655
         vertex -0.00118457 0 -0.000399127
      endloop
   endfacet
   facet normal 0 -1 0
      outer loop
         vertex -0.00107107 0 -0.000644442
         vertex -0.00113447 0 -0.000524861
         vertex -0.00174708 0 -0.000808287
      endloop
   endfacet
   facet normal 0 -1 0
      outer loop
         vertex -0.00164945 0 -0.000992441
         vertex -0.00153248 0 -0.00116496
         vertex -0.000995116 0 -0.000756468
      endloop
   endfacet
   facet normal 0 -1 0
      outer loop
         vertex -0.00139754 0 -0.00132382
         vertex -0.000907494 0 -0.000859624
         vertex -0.000995116 0 -0.000756468
      endloop
   endfacet
   facet normal 0 -1 0
      outer loop
         vertex -0.00124622 0 -0.00146716
         vertex -0.000809233 0 -0.000952703
         vertex -0.000907494 0 -0.000859624
      endloop
   endfacet
   facet normal 0 -1 0
      outer loop
         vertex -0.00108029 0 -0.0015933
         vertex -0.000701484 0 -0.00103461
         vertex -0.000809233 0 -0.000952703
      endloop
   endfacet
   facet normal 0 -1 0
      outer loop
         vertex -0.000462673 0 -0.00116122
         vertex -0.000585511 0 -0.00110439
         vertex -0.000901686 0 -0.00170076
      endloop
   endfacet
   facet normal 0 -1 0
      outer loop
         vertex 0.00033441 0 -0.00120444
         vertex 0.000514992 0 -0.00185483
         vertex 0.000712516 0 -0.00178828
      endloop
   endfacet
   facet normal 0 -1 0
      outer loop
         vertex 0.000809233 0 -0.000952703
         vertex 0.000701484 0 -0.00103461
         vertex 0.00108029 0 -0.0015933
      endloop
   endfacet
   facet normal 0 -1 0
      outer loop
         vertex 0.000995116 0 -0.000756468
         vertex 0.00153248 0 -0.00116496
         vertex 0.00164945 0 -0.000992441
      endloop
   endfacet
   facet normal 0 -1 0
      outer loop
         vertex 0.00122078 0 -0.000268713
         vertex 0.00187999 0 -0.000413818
         vertex 0.00191372 0 -0.000208129
      endloop
   endfacet
   facet normal 0 -1 0
      outer loop
         vertex 0.000995116 0 0.000756468
         vertex 0.00153248 0 0.00116496
         vertex 0.00139754 0 0.00132382
      endloop
   endfacet
   facet normal 0 -1 0
      outer loop
         vertex 0.000901686 0 0.00170076
         vertex 0.000585511 0 0.00110439
         vertex 0.000701484 0 0.00103461
      endloop
   endfacet
   facet normal 0 -1 0
      outer loop
         vertex 0.000202227 0 0.00123353
         vertex 0.00033441 0 0.00120444
         vertex 0.000514992 0 0.00185483
      endloop
   endfacet
   facet normal 0 -1 0
      outer loop
         vertex 0.00031143 0 0.00189964
         vertex 0.000104217 0 0.00192218
         vertex 6.76736e-05 0 0.00124817
      endloop
   endfacet
   facet normal 0 -1 0
      outer loop
         vertex 0.000104217 0 0.00192218
         vertex -0.000104217 0 0.00192218
         vertex -6.76736e-05 0 0.00124817
      endloop
   endfacet
   facet normal 0 -1 0
      outer loop
         vertex -0.000104217 0 0.00192218
         vertex -0.00031143 0 0.00189964
         vertex -0.000202227 0 0.00123353
      endloop
   endfacet
   facet normal 0 -1 0
      outer loop
         vertex -0.000514992 0 0.00185483
         vertex -0.00033441 0 0.00120444
         vertex -0.000202227 0 0.00123353
      endloop
   endfacet
   facet normal 0 -1 0
      outer loop
         vertex -0.000514992 0 0.00185483
         vertex -0.000712516 0 0.00178828
         vertex -0.000462673 0 0.00116122
      endloop
   endfacet
   facet normal 0 -1 0
      outer loop
         vertex -0.00118457 0 0.000399127
         vertex -0.00113447 0 0.000524861
         vertex -0.00174708 0 0.000808287
      endloop
   endfacet
   facet normal 0 -1 0
      outer loop
         vertex -0.00187999 0 0.000413818
         vertex -0.00122078 0 0.000268713
         vertex -0.00118457 0 0.000399127
      endloop
   endfacet
   facet normal 0 -1 0
      outer loop
         vertex -0.00191372 0 0.000208129
         vertex -0.00124267 0 0.000135149
         vertex -0.00122078 0 0.000268713
      endloop
   endfacet
   facet normal 0 -1 0
      outer loop
         vertex -0.00191372 0 0.000208129
         vertex -0.001925 0 -7.07234e-19
         vertex -0.00125 0 -1.53081e-19
      endloop
   endfacet
   facet normal 0 -1 0
      outer loop
         vertex -0.00118457 0 -0.000399127
         vertex -0.00122078 0 -0.000268713
         vertex -0.00187999 0 -0.000413818
      endloop
   endfacet
   facet normal 0 -1 0
      outer loop
         vertex -0.000995116 0 -0.000756468
         vertex -0.00107107 0 -0.000644442
         vertex -0.00164945 0 -0.000992441
      endloop
   endfacet
   facet normal 0 -1 0
      outer loop
         vertex -0.000907494 0 -0.000859624
         vertex -0.00139754 0 -0.00132382
         vertex -0.00124622 0 -0.00146716
      endloop
   endfacet
   facet normal 0 -1 0
      outer loop
         vertex -0.000585511 0 -0.00110439
         vertex -0.000701484 0 -0.00103461
         vertex -0.00108029 0 -0.0015933
      endloop
   endfacet
   facet normal 0 -1 0
      outer loop
         vertex 0.000462673 0 -0.00116122
         vertex 0.000712516 0 -0.00178828
         vertex 0.000901686 0 -0.00170076
      endloop
   endfacet
   facet normal 0 -1 0
      outer loop
         vertex 0.00118457 0 -0.000399127
         vertex 0.00182423 0 -0.000614655
         vertex 0.00187999 0 -0.000413818
      endloop
   endfacet
   facet normal 0 -1 0
      outer loop
         vertex 0.00191372 0 0.000208129
         vertex 0.00124267 0 0.000135149
         vertex 0.00125 0 0
      endloop
   endfacet
   facet normal 0 -1 0
      outer loop
         vertex 0.00191372 0 0.000208129
         vertex 0.00187999 0 0.000413818
         vertex 0.00122078 0 0.000268713
      endloop
   endfacet
   facet normal 0 -1 0
      outer loop
         vertex 0.000701484 0 0.00103461
         vertex 0.00108029 0 0.0015933
         vertex 0.000901686 0 0.00170076
      endloop
   endfacet
   facet normal 0 -1 0
      outer loop
         vertex 6.76736e-05 0 0.00124817
         vertex 0.000202227 0 0.00123353
         vertex 0.00031143 0 0.00189964
      endloop
   endfacet
   facet normal 0 -1 0
      outer loop
         vertex -0.000202227 0 0.00123353
         vertex -6.76736e-05 0 0.00124817
         vertex -0.000104217 0 0.00192218
      endloop
   endfacet
   facet normal 0 -1 0
      outer loop
         vertex -0.000462673 0 0.00116122
         vertex -0.00033441 0 0.00120444
         vertex -0.000514992 0 0.00185483
      endloop
   endfacet
   facet normal 0 -1 0
      outer loop
         vertex -0.00118457 0 0.000399127
         vertex -0.00182423 0 0.000614655
         vertex -0.00187999 0 0.000413818
      endloop
   endfacet
   facet normal 0 -1 0
      outer loop
         vertex -0.00125 0 -1.53081e-19
         vertex -0.00124267 0 0.000135149
         vertex -0.00191372 0 0.000208129
      endloop
   endfacet
   facet normal 0 -1 0
      outer loop
         vertex -0.00118457 0 -0.000399127
         vertex -0.00182423 0 -0.000614655
         vertex -0.00174708 0 -0.000808287
      endloop
   endfacet
   facet normal 0 -1 0
      outer loop
         vertex -0.000809233 0 -0.000952703
         vertex -0.00124622 0 -0.00146716
         vertex -0.00108029 0 -0.0015933
      endloop
   endfacet
   facet normal 0 -1 0
      outer loop
         vertex -0.000514992 0 -0.00185483
         vertex -0.00033441 0 -0.00120444
         vertex -0.000462673 0 -0.00116122
      endloop
   endfacet
   facet normal 0 -1 0
      outer loop
         vertex -0.000514992 0 -0.00185483
         vertex -0.00031143 0 -0.00189964
         vertex -0.000202227 0 -0.00123353
      endloop
   endfacet
   facet normal 0 -1 0
      outer loop
         vertex -0.000104217 0 -0.00192218
         vertex -6.76736e-05 0 -0.00124817
         vertex -0.000202227 0 -0.00123353
      endloop
   endfacet
   facet normal 0 -1 0
      outer loop
         vertex -0.000104217 0 -0.00192218
         vertex 0.000104217 0 -0.00192218
         vertex 6.76736e-05 0 -0.00124817
      endloop
   endfacet
   facet normal 0 -1 0
      outer loop
         vertex 0.000809233 0 -0.000952703
         vertex 0.00124622 0 -0.00146716
         vertex 0.00139754 0 -0.00132382
      endloop
   endfacet
   facet normal 0 -1 0
      outer loop
         vertex 0.00122078 0 0.000268713
         vertex 0.00124267 0 0.000135149
         vertex 0.00191372 0 0.000208129
      endloop
   endfacet
   facet normal 0 -1 0
      outer loop
         vertex 0.000585511 0 0.00110439
         vertex 0.000901686 0 0.00170076
         vertex 0.000712516 0 0.00178828
      endloop
   endfacet
   facet normal 0 -1 0
      outer loop
         vertex -0.000202227 0 0.00123353
         vertex -0.00031143 0 0.00189964
         vertex -0.000514992 0 0.00185483
      endloop
   endfacet
   facet normal 0 -1 0
      outer loop
         vertex -0.00122078 0 0.000268713
         vertex -0.00187999 0 0.000413818
         vertex -0.00191372 0 0.000208129
      endloop
   endfacet
   facet normal 0 -1 0
      outer loop
         vertex -0.000995116 0 -0.000756468
         vertex -0.00153248 0 -0.00116496
         vertex -0.00139754 0 -0.00132382
      endloop
   endfacet
   facet normal 0 -1 0
      outer loop
         vertex -0.000202227 0 -0.00123353
         vertex -0.00033441 0 -0.00120444
         vertex -0.000514992 0 -0.00185483
      endloop
   endfacet
   facet normal 0 -1 0
      outer loop
         vertex 6.76736e-05 0 -0.00124817
         vertex -6.76736e-05 0 -0.00124817
         vertex -0.000104217 0 -0.00192218
      endloop
   endfacet
   facet normal 0 -1 0
      outer loop
         vertex 0.00125 0 0
         vertex 0.001925 0 4.71489e-19
         vertex 0.00191372 0 0.000208129
      endloop
   endfacet
   facet normal 0 -1 0
      outer loop
         vertex -6.76736e-05 0 0.00124817
         vertex 6.76736e-05 0 0.00124817
         vertex 0.000104217 0 0.00192218
      endloop
   endfacet
   facet normal 0 -1 0
      outer loop
         vertex -0.00125 0 -1.53081e-19
         vertex -0.001925 0 -7.07234e-19
         vertex -0.00191372 0 -0.000208129
      endloop
   endfacet
   facet normal 0 -1 0
      outer loop
         vertex -0.000202227 0 -0.00123353
         vertex -0.00031143 0 -0.00189964
         vertex -0.000104217 0 -0.00192218
      endloop
   endfacet
   facet normal 0 -1 0
      outer loop
         vertex 0.00122078 0 0.000268713
         vertex 0.00187999 0 0.000413818
         vertex 0.00182423 0 0.000614655
      endloop
   endfacet
   facet normal 0 -1 0
      outer loop
         vertex -0.000462673 0 -0.00116122
         vertex -0.000712516 0 -0.00178828
         vertex -0.000514992 0 -0.00185483
      endloop
   endfacet
   facet normal 0 -1 0
      outer loop
         vertex -0.000462673 0 0.00116122
         vertex -0.000712516 0 0.00178828
         vertex -0.000901686 0 0.00170076
      endloop
   endfacet
   facet normal 0 -1 0
      outer loop
         vertex 0.000202227 0 -0.00123353
         vertex 6.76736e-05 0 -0.00124817
         vertex 0.000104217 0 -0.00192218
      endloop
   endfacet
endsolid 4_0. Units = meters