solid Battery spacer. STL generated by ONSHAPE BY PTC INC, 1.216. Units = meters
   facet normal 0 0.108119 -0.994138
      outer loop
         vertex -0.03605 0.054473 0.176388
         vertex -0.03605 0.0547 0.1764
         vertex -0.034725 0.0547 0.1764
      endloop
   endfacet
   facet normal 0 0.21497 -0.976621
      outer loop
         vertex -0.03605 0.0542486 0.176351
         vertex -0.03605 0.054473 0.176388
         vertex -0.034725 0.054473 0.176388
      endloop
   endfacet
   facet normal 0 0.319302 -0.947653
      outer loop
         vertex -0.03605 0.0540295 0.17629
         vertex -0.03605 0.0542486 0.176351
         vertex -0.034725 0.0542486 0.176351
      endloop
   endfacet
   facet normal 0 0.419889 -0.907575
      outer loop
         vertex -0.03605 0.0538182 0.176206
         vertex -0.03605 0.0540295 0.17629
         vertex -0.034725 0.0540295 0.17629
      endloop
   endfacet
   facet normal 0 0.515554 -0.856857
      outer loop
         vertex -0.03605 0.0536173 0.176099
         vertex -0.03605 0.0538182 0.176206
         vertex -0.034725 0.0538182 0.176206
      endloop
   endfacet
   facet normal 0 0.605174 -0.796093
      outer loop
         vertex -0.03605 0.0534291 0.175972
         vertex -0.03605 0.0536173 0.176099
         vertex -0.034725 0.0536173 0.176099
      endloop
   endfacet
   facet normal 0 0.687699 -0.725995
      outer loop
         vertex -0.03605 0.0532558 0.175825
         vertex -0.03605 0.0534291 0.175972
         vertex -0.034725 0.0534291 0.175972
      endloop
   endfacet
   facet normal 0 0.762162 -0.647386
      outer loop
         vertex -0.03605 0.0530995 0.17566
         vertex -0.03605 0.0532558 0.175825
         vertex -0.034725 0.0532558 0.175825
      endloop
   endfacet
   facet normal 0 0.827689 -0.561187
      outer loop
         vertex -0.03605 0.0529619 0.175478
         vertex -0.03605 0.0530995 0.17566
         vertex -0.034725 0.0530995 0.17566
      endloop
   endfacet
   facet normal 0 0.883512 -0.468408
      outer loop
         vertex -0.03605 0.0528446 0.175284
         vertex -0.03605 0.0529619 0.175478
         vertex -0.034725 0.0529619 0.175478
      endloop
   endfacet
   facet normal 0 0.928977 -0.370138
      outer loop
         vertex -0.03605 0.0527491 0.175077
         vertex -0.03605 0.0528446 0.175284
         vertex -0.034725 0.0528446 0.175284
      endloop
   endfacet
   facet normal 0 0.96355 -0.267528
      outer loop
         vertex -0.03605 0.0526765 0.174862
         vertex -0.03605 0.0527491 0.175077
         vertex -0.034725 0.0527491 0.175077
      endloop
   endfacet
   facet normal 0 0.986827 -0.161782
      outer loop
         vertex -0.03605 0.0526277 0.17464
         vertex -0.03605 0.0526765 0.174862
         vertex -0.034725 0.0526765 0.174862
      endloop
   endfacet
   facet normal 0 0.998533 -0.0541389
      outer loop
         vertex -0.03605 0.0526031 0.174414
         vertex -0.03605 0.0526277 0.17464
         vertex -0.034725 0.0526277 0.17464
      endloop
   endfacet
   facet normal 0 0.998533 0.0541389
      outer loop
         vertex -0.03605 0.0526031 0.174186
         vertex -0.03605 0.0526031 0.174414
         vertex -0.034725 0.0526031 0.174414
      endloop
   endfacet
   facet normal 0 0.986827 0.161782
      outer loop
         vertex -0.03605 0.0526277 0.17396
         vertex -0.03605 0.0526031 0.174186
         vertex -0.034725 0.0526031 0.174186
      endloop
   endfacet
   facet normal 0 0.96355 0.267528
      outer loop
         vertex -0.03605 0.0526765 0.173738
         vertex -0.03605 0.0526277 0.17396
         vertex -0.034725 0.0526277 0.17396
      endloop
   endfacet
   facet normal 0 0.928977 0.370138
      outer loop
         vertex -0.03605 0.0527491 0.173523
         vertex -0.03605 0.0526765 0.173738
         vertex -0.034725 0.0526765 0.173738
      endloop
   endfacet
   facet normal 0 0.883512 0.468408
      outer loop
         vertex -0.03605 0.0528446 0.173316
         vertex -0.03605 0.0527491 0.173523
         vertex -0.034725 0.0527491 0.173523
      endloop
   endfacet
   facet normal 0 0.827689 0.561187
      outer loop
         vertex -0.03605 0.0529619 0.173122
         vertex -0.03605 0.0528446 0.173316
         vertex -0.034725 0.0528446 0.173316
      endloop
   endfacet
   facet normal 0 0.762162 0.647386
      outer loop
         vertex -0.03605 0.0530995 0.17294
         vertex -0.03605 0.0529619 0.173122
         vertex -0.034725 0.0529619 0.173122
      endloop
   endfacet
   facet normal 0 0.687699 0.725995
      outer loop
         vertex -0.03605 0.0532558 0.172775
         vertex -0.03605 0.0530995 0.17294
         vertex -0.034725 0.0530995 0.17294
      endloop
   endfacet
   facet normal 0 0.605174 0.796093
      outer loop
         vertex -0.03605 0.0534291 0.172628
         vertex -0.03605 0.0532558 0.172775
         vertex -0.034725 0.0532558 0.172775
      endloop
   endfacet
   facet normal 0 0.515554 0.856857
      outer loop
         vertex -0.03605 0.0536173 0.172501
         vertex -0.03605 0.0534291 0.172628
         vertex -0.034725 0.0534291 0.172628
      endloop
   endfacet
   facet normal 0 0.419889 0.907575
      outer loop
         vertex -0.03605 0.0538182 0.172394
         vertex -0.03605 0.0536173 0.172501
         vertex -0.034725 0.0536173 0.172501
      endloop
   endfacet
   facet normal 0 0.319302 0.947653
      outer loop
         vertex -0.03605 0.0540295 0.17231
         vertex -0.03605 0.0538182 0.172394
         vertex -0.034725 0.0538182 0.172394
      endloop
   endfacet
   facet normal 0 0.21497 0.976621
      outer loop
         vertex -0.03605 0.0542486 0.172249
         vertex -0.03605 0.0540295 0.17231
         vertex -0.034725 0.0540295 0.17231
      endloop
   endfacet
   facet normal 0 0.108119 0.994138
      outer loop
         vertex -0.03605 0.054473 0.172212
         vertex -0.03605 0.0542486 0.172249
         vertex -0.034725 0.0542486 0.172249
      endloop
   endfacet
   facet normal 0 -1.22465e-16 1
      outer loop
         vertex -0.03605 0.0547 0.1722
         vertex -0.03605 0.054473 0.172212
         vertex -0.034725 0.054473 0.172212
      endloop
   endfacet
   facet normal 0 -0.108119 0.994138
      outer loop
         vertex -0.03605 0.054927 0.172212
         vertex -0.03605 0.0547 0.1722
         vertex -0.034725 0.0547 0.1722
      endloop
   endfacet
   facet normal 0 -0.21497 0.976621
      outer loop
         vertex -0.03605 0.0551514 0.172249
         vertex -0.03605 0.054927 0.172212
         vertex -0.034725 0.054927 0.172212
      endloop
   endfacet
   facet normal 0 -0.319302 0.947653
      outer loop
         vertex -0.03605 0.0553705 0.17231
         vertex -0.03605 0.0551514 0.172249
         vertex -0.034725 0.0551514 0.172249
      endloop
   endfacet
   facet normal 0 -0.419889 0.907575
      outer loop
         vertex -0.03605 0.0555818 0.172394
         vertex -0.03605 0.0553705 0.17231
         vertex -0.034725 0.0553705 0.17231
      endloop
   endfacet
   facet normal 0 -0.515554 0.856857
      outer loop
         vertex -0.03605 0.0557827 0.172501
         vertex -0.03605 0.0555818 0.172394
         vertex -0.034725 0.0555818 0.172394
      endloop
   endfacet
   facet normal 0 -0.605174 0.796093
      outer loop
         vertex -0.03605 0.0559709 0.172628
         vertex -0.03605 0.0557827 0.172501
         vertex -0.034725 0.0557827 0.172501
      endloop
   endfacet
   facet normal 0 -0.687699 0.725995
      outer loop
         vertex -0.03605 0.0561442 0.172775
         vertex -0.03605 0.0559709 0.172628
         vertex -0.034725 0.0559709 0.172628
      endloop
   endfacet
   facet normal 0 -0.762162 0.647386
      outer loop
         vertex -0.03605 0.0563005 0.17294
         vertex -0.03605 0.0561442 0.172775
         vertex -0.034725 0.0561442 0.172775
      endloop
   endfacet
   facet normal 0 -0.827689 0.561187
      outer loop
         vertex -0.03605 0.0564381 0.173122
         vertex -0.03605 0.0563005 0.17294
         vertex -0.034725 0.0563005 0.17294
      endloop
   endfacet
   facet normal 0 -0.883512 0.468408
      outer loop
         vertex -0.03605 0.0565554 0.173316
         vertex -0.03605 0.0564381 0.173122
         vertex -0.034725 0.0564381 0.173122
      endloop
   endfacet
   facet normal 0 -0.928977 0.370138
      outer loop
         vertex -0.03605 0.0566509 0.173523
         vertex -0.03605 0.0565554 0.173316
         vertex -0.034725 0.0565554 0.173316
      endloop
   endfacet
   facet normal 0 -0.96355 0.267528
      outer loop
         vertex -0.03605 0.0567235 0.173738
         vertex -0.03605 0.0566509 0.173523
         vertex -0.034725 0.0566509 0.173523
      endloop
   endfacet
   facet normal 0 -0.986827 0.161782
      outer loop
         vertex -0.03605 0.0567723 0.17396
         vertex -0.03605 0.0567235 0.173738
         vertex -0.034725 0.0567235 0.173738
      endloop
   endfacet
   facet normal 0 -0.998533 0.0541389
      outer loop
         vertex -0.03605 0.0567969 0.174186
         vertex -0.03605 0.0567723 0.17396
         vertex -0.034725 0.0567723 0.17396
      endloop
   endfacet
   facet normal 0 -0.998533 -0.0541389
      outer loop
         vertex -0.03605 0.0567969 0.174414
         vertex -0.03605 0.0567969 0.174186
         vertex -0.034725 0.0567969 0.174186
      endloop
   endfacet
   facet normal 0 -0.986827 -0.161782
      outer loop
         vertex -0.03605 0.0567723 0.17464
         vertex -0.03605 0.0567969 0.174414
         vertex -0.034725 0.0567969 0.174414
      endloop
   endfacet
   facet normal 0 -0.96355 -0.267528
      outer loop
         vertex -0.03605 0.0567235 0.174862
         vertex -0.03605 0.0567723 0.17464
         vertex -0.034725 0.0567723 0.17464
      endloop
   endfacet
   facet normal 0 -0.928977 -0.370138
      outer loop
         vertex -0.03605 0.0566509 0.175077
         vertex -0.03605 0.0567235 0.174862
         vertex -0.034725 0.0567235 0.174862
      endloop
   endfacet
   facet normal 0 -0.883512 -0.468408
      outer loop
         vertex -0.03605 0.0565554 0.175284
         vertex -0.03605 0.0566509 0.175077
         vertex -0.034725 0.0566509 0.175077
      endloop
   endfacet
   facet normal 0 -0.827689 -0.561187
      outer loop
         vertex -0.03605 0.0564381 0.175478
         vertex -0.03605 0.0565554 0.175284
         vertex -0.034725 0.0565554 0.175284
      endloop
   endfacet
   facet normal 0 -0.762162 -0.647386
      outer loop
         vertex -0.03605 0.0563005 0.17566
         vertex -0.03605 0.0564381 0.175478
         vertex -0.034725 0.0564381 0.175478
      endloop
   endfacet
   facet normal 0 -0.687699 -0.725995
      outer loop
         vertex -0.03605 0.0561442 0.175825
         vertex -0.03605 0.0563005 0.17566
         vertex -0.034725 0.0563005 0.17566
      endloop
   endfacet
   facet normal 0 -0.605174 -0.796093
      outer loop
         vertex -0.03605 0.0559709 0.175972
         vertex -0.03605 0.0561442 0.175825
         vertex -0.034725 0.0561442 0.175825
      endloop
   endfacet
   facet normal 0 -0.515554 -0.856857
      outer loop
         vertex -0.03605 0.0557827 0.176099
         vertex -0.03605 0.0559709 0.175972
         vertex -0.034725 0.0559709 0.175972
      endloop
   endfacet
   facet normal 0 -0.419889 -0.907575
      outer loop
         vertex -0.03605 0.0555818 0.176206
         vertex -0.03605 0.0557827 0.176099
         vertex -0.034725 0.0557827 0.176099
      endloop
   endfacet
   facet normal 0 -0.319302 -0.947653
      outer loop
         vertex -0.03605 0.0553705 0.17629
         vertex -0.03605 0.0555818 0.176206
         vertex -0.034725 0.0555818 0.176206
      endloop
   endfacet
   facet normal 0 -0.21497 -0.976621
      outer loop
         vertex -0.03605 0.0551514 0.176351
         vertex -0.03605 0.0553705 0.17629
         vertex -0.034725 0.0553705 0.17629
      endloop
   endfacet
   facet normal 0 -0.108119 -0.994138
      outer loop
         vertex -0.03605 0.054927 0.176388
         vertex -0.03605 0.0551514 0.176351
         vertex -0.034725 0.0551514 0.176351
      endloop
   endfacet
   facet normal 0 2.44929e-16 -1
      outer loop
         vertex -0.03605 0.0547 0.1764
         vertex -0.03605 0.054927 0.176388
         vertex -0.034725 0.054927 0.176388
      endloop
   endfacet
   facet normal 0 -0.108119 -0.994138
      outer loop
         vertex -0.034725 0.054927 0.176388
         vertex -0.034725 0.0547 0.1764
         vertex -0.03605 0.0547 0.1764
      endloop
   endfacet
   facet normal 0 -0.21497 -0.976621
      outer loop
         vertex -0.034725 0.0551514 0.176351
         vertex -0.034725 0.054927 0.176388
         vertex -0.03605 0.054927 0.176388
      endloop
   endfacet
   facet normal 0 -0.319302 -0.947653
      outer loop
         vertex -0.034725 0.0553705 0.17629
         vertex -0.034725 0.0551514 0.176351
         vertex -0.03605 0.0551514 0.176351
      endloop
   endfacet
   facet normal 0 -0.419889 -0.907575
      outer loop
         vertex -0.034725 0.0555818 0.176206
         vertex -0.034725 0.0553705 0.17629
         vertex -0.03605 0.0553705 0.17629
      endloop
   endfacet
   facet normal 0 -0.515554 -0.856857
      outer loop
         vertex -0.034725 0.0557827 0.176099
         vertex -0.034725 0.0555818 0.176206
         vertex -0.03605 0.0555818 0.176206
      endloop
   endfacet
   facet normal 0 -0.605174 -0.796093
      outer loop
         vertex -0.034725 0.0559709 0.175972
         vertex -0.034725 0.0557827 0.176099
         vertex -0.03605 0.0557827 0.176099
      endloop
   endfacet
   facet normal 0 -0.687699 -0.725995
      outer loop
         vertex -0.034725 0.0561442 0.175825
         vertex -0.034725 0.0559709 0.175972
         vertex -0.03605 0.0559709 0.175972
      endloop
   endfacet
   facet normal 0 -0.762162 -0.647386
      outer loop
         vertex -0.034725 0.0563005 0.17566
         vertex -0.034725 0.0561442 0.175825
         vertex -0.03605 0.0561442 0.175825
      endloop
   endfacet
   facet normal 0 -0.827689 -0.561187
      outer loop
         vertex -0.034725 0.0564381 0.175478
         vertex -0.034725 0.0563005 0.17566
         vertex -0.03605 0.0563005 0.17566
      endloop
   endfacet
   facet normal 0 -0.883512 -0.468408
      outer loop
         vertex -0.034725 0.0565554 0.175284
         vertex -0.034725 0.0564381 0.175478
         vertex -0.03605 0.0564381 0.175478
      endloop
   endfacet
   facet normal 0 -0.928977 -0.370138
      outer loop
         vertex -0.034725 0.0566509 0.175077
         vertex -0.034725 0.0565554 0.175284
         vertex -0.03605 0.0565554 0.175284
      endloop
   endfacet
   facet normal 0 -0.96355 -0.267528
      outer loop
         vertex -0.034725 0.0567235 0.174862
         vertex -0.034725 0.0566509 0.175077
         vertex -0.03605 0.0566509 0.175077
      endloop
   endfacet
   facet normal 0 -0.986827 -0.161782
      outer loop
         vertex -0.034725 0.0567723 0.17464
         vertex -0.034725 0.0567235 0.174862
         vertex -0.03605 0.0567235 0.174862
      endloop
   endfacet
   facet normal 0 -0.998533 -0.0541389
      outer loop
         vertex -0.034725 0.0567969 0.174414
         vertex -0.034725 0.0567723 0.17464
         vertex -0.03605 0.0567723 0.17464
      endloop
   endfacet
   facet normal 0 -0.998533 0.0541389
      outer loop
         vertex -0.034725 0.0567969 0.174186
         vertex -0.034725 0.0567969 0.174414
         vertex -0.03605 0.0567969 0.174414
      endloop
   endfacet
   facet normal 0 -0.986827 0.161782
      outer loop
         vertex -0.034725 0.0567723 0.17396
         vertex -0.034725 0.0567969 0.174186
         vertex -0.03605 0.0567969 0.174186
      endloop
   endfacet
   facet normal 0 -0.96355 0.267528
      outer loop
         vertex -0.034725 0.0567235 0.173738
         vertex -0.034725 0.0567723 0.17396
         vertex -0.03605 0.0567723 0.17396
      endloop
   endfacet
   facet normal 0 -0.928977 0.370138
      outer loop
         vertex -0.034725 0.0566509 0.173523
         vertex -0.034725 0.0567235 0.173738
         vertex -0.03605 0.0567235 0.173738
      endloop
   endfacet
   facet normal 0 -0.883512 0.468408
      outer loop
         vertex -0.034725 0.0565554 0.173316
         vertex -0.034725 0.0566509 0.173523
         vertex -0.03605 0.0566509 0.173523
      endloop
   endfacet
   facet normal 0 -0.827689 0.561187
      outer loop
         vertex -0.034725 0.0564381 0.173122
         vertex -0.034725 0.0565554 0.173316
         vertex -0.03605 0.0565554 0.173316
      endloop
   endfacet
   facet normal 0 -0.762162 0.647386
      outer loop
         vertex -0.034725 0.0563005 0.17294
         vertex -0.034725 0.0564381 0.173122
         vertex -0.03605 0.0564381 0.173122
      endloop
   endfacet
   facet normal 0 -0.687699 0.725995
      outer loop
         vertex -0.034725 0.0561442 0.172775
         vertex -0.034725 0.0563005 0.17294
         vertex -0.03605 0.0563005 0.17294
      endloop
   endfacet
   facet normal 0 -0.605174 0.796093
      outer loop
         vertex -0.034725 0.0559709 0.172628
         vertex -0.034725 0.0561442 0.172775
         vertex -0.03605 0.0561442 0.172775
      endloop
   endfacet
   facet normal 0 -0.515554 0.856857
      outer loop
         vertex -0.034725 0.0557827 0.172501
         vertex -0.034725 0.0559709 0.172628
         vertex -0.03605 0.0559709 0.172628
      endloop
   endfacet
   facet normal 0 -0.419889 0.907575
      outer loop
         vertex -0.034725 0.0555818 0.172394
         vertex -0.034725 0.0557827 0.172501
         vertex -0.03605 0.0557827 0.172501
      endloop
   endfacet
   facet normal 0 -0.319302 0.947653
      outer loop
         vertex -0.034725 0.0553705 0.17231
         vertex -0.034725 0.0555818 0.172394
         vertex -0.03605 0.0555818 0.172394
      endloop
   endfacet
   facet normal 0 -0.21497 0.976621
      outer loop
         vertex -0.034725 0.0551514 0.172249
         vertex -0.034725 0.0553705 0.17231
         vertex -0.03605 0.0553705 0.17231
      endloop
   endfacet
   facet normal 0 -0.108119 0.994138
      outer loop
         vertex -0.034725 0.054927 0.172212
         vertex -0.034725 0.0551514 0.172249
         vertex -0.03605 0.0551514 0.172249
      endloop
   endfacet
   facet normal 0 -1.22465e-16 1
      outer loop
         vertex -0.034725 0.0547 0.1722
         vertex -0.034725 0.054927 0.172212
         vertex -0.03605 0.054927 0.172212
      endloop
   endfacet
   facet normal 0 0.108119 0.994138
      outer loop
         vertex -0.034725 0.054473 0.172212
         vertex -0.034725 0.0547 0.1722
         vertex -0.03605 0.0547 0.1722
      endloop
   endfacet
   facet normal 0 0.21497 0.976621
      outer loop
         vertex -0.034725 0.0542486 0.172249
         vertex -0.034725 0.054473 0.172212
         vertex -0.03605 0.054473 0.172212
      endloop
   endfacet
   facet normal 0 0.319302 0.947653
      outer loop
         vertex -0.034725 0.0540295 0.17231
         vertex -0.034725 0.0542486 0.172249
         vertex -0.03605 0.0542486 0.172249
      endloop
   endfacet
   facet normal 0 0.419889 0.907575
      outer loop
         vertex -0.034725 0.0538182 0.172394
         vertex -0.034725 0.0540295 0.17231
         vertex -0.03605 0.0540295 0.17231
      endloop
   endfacet
   facet normal 0 0.515554 0.856857
      outer loop
         vertex -0.034725 0.0536173 0.172501
         vertex -0.034725 0.0538182 0.172394
         vertex -0.03605 0.0538182 0.172394
      endloop
   endfacet
   facet normal 0 0.605174 0.796093
      outer loop
         vertex -0.034725 0.0534291 0.172628
         vertex -0.034725 0.0536173 0.172501
         vertex -0.03605 0.0536173 0.172501
      endloop
   endfacet
   facet normal 0 0.687699 0.725995
      outer loop
         vertex -0.034725 0.0532558 0.172775
         vertex -0.034725 0.0534291 0.172628
         vertex -0.03605 0.0534291 0.172628
      endloop
   endfacet
   facet normal 0 0.762162 0.647386
      outer loop
         vertex -0.034725 0.0530995 0.17294
         vertex -0.034725 0.0532558 0.172775
         vertex -0.03605 0.0532558 0.172775
      endloop
   endfacet
   facet normal 0 0.827689 0.561187
      outer loop
         vertex -0.034725 0.0529619 0.173122
         vertex -0.034725 0.0530995 0.17294
         vertex -0.03605 0.0530995 0.17294
      endloop
   endfacet
   facet normal 0 0.883512 0.468408
      outer loop
         vertex -0.034725 0.0528446 0.173316
         vertex -0.034725 0.0529619 0.173122
         vertex -0.03605 0.0529619 0.173122
      endloop
   endfacet
   facet normal 0 0.928977 0.370138
      outer loop
         vertex -0.034725 0.0527491 0.173523
         vertex -0.034725 0.0528446 0.173316
         vertex -0.03605 0.0528446 0.173316
      endloop
   endfacet
   facet normal 0 0.96355 0.267528
      outer loop
         vertex -0.034725 0.0526765 0.173738
         vertex -0.034725 0.0527491 0.173523
         vertex -0.03605 0.0527491 0.173523
      endloop
   endfacet
   facet normal 0 0.986827 0.161782
      outer loop
         vertex -0.034725 0.0526277 0.17396
         vertex -0.034725 0.0526765 0.173738
         vertex -0.03605 0.0526765 0.173738
      endloop
   endfacet
   facet normal 0 0.998533 0.0541389
      outer loop
         vertex -0.034725 0.0526031 0.174186
         vertex -0.034725 0.0526277 0.17396
         vertex -0.03605 0.0526277 0.17396
      endloop
   endfacet
   facet normal 0 0.998533 -0.0541389
      outer loop
         vertex -0.034725 0.0526031 0.174414
         vertex -0.034725 0.0526031 0.174186
         vertex -0.03605 0.0526031 0.174186
      endloop
   endfacet
   facet normal 0 0.986827 -0.161782
      outer loop
         vertex -0.034725 0.0526277 0.17464
         vertex -0.034725 0.0526031 0.174414
         vertex -0.03605 0.0526031 0.174414
      endloop
   endfacet
   facet normal 0 0.96355 -0.267528
      outer loop
         vertex -0.034725 0.0526765 0.174862
         vertex -0.034725 0.0526277 0.17464
         vertex -0.03605 0.0526277 0.17464
      endloop
   endfacet
   facet normal 0 0.928977 -0.370138
      outer loop
         vertex -0.034725 0.0527491 0.175077
         vertex -0.034725 0.0526765 0.174862
         vertex -0.03605 0.0526765 0.174862
      endloop
   endfacet
   facet normal 0 0.883512 -0.468408
      outer loop
         vertex -0.034725 0.0528446 0.175284
         vertex -0.034725 0.0527491 0.175077
         vertex -0.03605 0.0527491 0.175077
      endloop
   endfacet
   facet normal 0 0.827689 -0.561187
      outer loop
         vertex -0.034725 0.0529619 0.175478
         vertex -0.034725 0.0528446 0.175284
         vertex -0.03605 0.0528446 0.175284
      endloop
   endfacet
   facet normal 0 0.762162 -0.647386
      outer loop
         vertex -0.034725 0.0530995 0.17566
         vertex -0.034725 0.0529619 0.175478
         vertex -0.03605 0.0529619 0.175478
      endloop
   endfacet
   facet normal 0 0.687699 -0.725995
      outer loop
         vertex -0.034725 0.0532558 0.175825
         vertex -0.034725 0.0530995 0.17566
         vertex -0.03605 0.0530995 0.17566
      endloop
   endfacet
   facet normal 0 0.605174 -0.796093
      outer loop
         vertex -0.034725 0.0534291 0.175972
         vertex -0.034725 0.0532558 0.175825
         vertex -0.03605 0.0532558 0.175825
      endloop
   endfacet
   facet normal 0 0.515554 -0.856857
      outer loop
         vertex -0.034725 0.0536173 0.176099
         vertex -0.034725 0.0534291 0.175972
         vertex -0.03605 0.0534291 0.175972
      endloop
   endfacet
   facet normal 0 0.419889 -0.907575
      outer loop
         vertex -0.034725 0.0538182 0.176206
         vertex -0.034725 0.0536173 0.176099
         vertex -0.03605 0.0536173 0.176099
      endloop
   endfacet
   facet normal 0 0.319302 -0.947653
      outer loop
         vertex -0.034725 0.0540295 0.17629
         vertex -0.034725 0.0538182 0.176206
         vertex -0.03605 0.0538182 0.176206
      endloop
   endfacet
   facet normal 0 0.21497 -0.976621
      outer loop
         vertex -0.034725 0.0542486 0.176351
         vertex -0.034725 0.0540295 0.17629
         vertex -0.03605 0.0540295 0.17629
      endloop
   endfacet
   facet normal 0 0.108119 -0.994138
      outer loop
         vertex -0.034725 0.054473 0.176388
         vertex -0.034725 0.0542486 0.176351
         vertex -0.03605 0.0542486 0.176351
      endloop
   endfacet
   facet normal 0 2.44929e-16 -1
      outer loop
         vertex -0.034725 0.0547 0.1764
         vertex -0.034725 0.054473 0.176388
         vertex -0.03605 0.054473 0.176388
      endloop
   endfacet
   facet normal 1 0 0
      outer loop
         vertex -0.034725 0.0597 0.1713
         vertex -0.034725 0.0566509 0.173523
         vertex -0.034725 0.0565554 0.173316
      endloop
   endfacet
   facet normal 1 0 0
      outer loop
         vertex -0.034725 0.0597 0.1713
         vertex -0.034725 0.0567723 0.17396
         vertex -0.034725 0.0567235 0.173738
      endloop
   endfacet
   facet normal 1 0 0
      outer loop
         vertex -0.034725 0.0597 0.1713
         vertex -0.034725 0.0567969 0.174414
         vertex -0.034725 0.0567969 0.174186
      endloop
   endfacet
   facet normal 1 0 0
      outer loop
         vertex -0.034725 0.0553705 0.18501
         vertex -0.034725 0.0565554 0.175284
         vertex -0.034725 0.0566509 0.175077
      endloop
   endfacet
   facet normal 1 0 0
      outer loop
         vertex -0.034725 0.0567235 0.173738
         vertex -0.034725 0.0566509 0.173523
         vertex -0.034725 0.0597 0.1713
      endloop
   endfacet
   facet normal 1 0 0
      outer loop
         vertex -0.034725 0.0597 0.1713
         vertex -0.034725 0.0567723 0.17464
         vertex -0.034725 0.0567969 0.174414
      endloop
   endfacet
   facet normal 1 0 0
      outer loop
         vertex -0.034725 0.0597 0.1713
         vertex -0.034725 0.0566509 0.175077
         vertex -0.034725 0.0567235 0.174862
      endloop
   endfacet
   facet normal 1 0 0
      outer loop
         vertex -0.034725 0.0553705 0.18501
         vertex -0.034725 0.0564381 0.175478
         vertex -0.034725 0.0565554 0.175284
      endloop
   endfacet
   facet normal 1 0 0
      outer loop
         vertex -0.034725 0.0597 0.1713
         vertex -0.034725 0.0597 0.191
         vertex -0.034725 0.0567723 0.18666
      endloop
   endfacet
   facet normal 1 0 0
      outer loop
         vertex -0.034725 0.0597 0.1713
         vertex -0.034725 0.0561442 0.172775
         vertex -0.034725 0.0559709 0.172628
      endloop
   endfacet
   facet normal 1 0 0
      outer loop
         vertex -0.034725 0.0597 0.1713
         vertex -0.034725 0.0564381 0.173122
         vertex -0.034725 0.0563005 0.17294
      endloop
   endfacet
   facet normal 1 0 0
      outer loop
         vertex -0.034725 0.0567969 0.174186
         vertex -0.034725 0.0567723 0.17396
         vertex -0.034725 0.0597 0.1713
      endloop
   endfacet
   facet normal 1 0 0
      outer loop
         vertex -0.034725 0.0566509 0.175077
         vertex -0.034725 0.0597 0.1713
         vertex -0.034725 0.0553705 0.18501
      endloop
   endfacet
   facet normal 1 0 0
      outer loop
         vertex -0.034725 0.0597 0.1713
         vertex -0.034725 0.0566509 0.186223
         vertex -0.034725 0.0565554 0.186016
      endloop
   endfacet
   facet normal 1 0 0
      outer loop
         vertex -0.034725 0.0567723 0.18666
         vertex -0.034725 0.0567235 0.186438
         vertex -0.034725 0.0597 0.1713
      endloop
   endfacet
   facet normal 1 0 0
      outer loop
         vertex -0.034725 0.0597 0.191
         vertex -0.034725 0.0567969 0.187114
         vertex -0.034725 0.0567969 0.186886
      endloop
   endfacet
   facet normal 1 0 0
      outer loop
         vertex -0.034725 0.042 0.191
         vertex -0.034725 0.0527491 0.187777
         vertex -0.034725 0.0528446 0.187984
      endloop
   endfacet
   facet normal 1 0 0
      outer loop
         vertex -0.034725 0.042 0.191
         vertex -0.034725 0.0526277 0.18734
         vertex -0.034725 0.0526765 0.187562
      endloop
   endfacet
   facet normal 1 0 0
      outer loop
         vertex -0.034725 0.042 0.191
         vertex -0.034725 0.0526031 0.186886
         vertex -0.034725 0.0526031 0.187114
      endloop
   endfacet
   facet normal 1 0 0
      outer loop
         vertex -0.034725 0.042 0.1713
         vertex -0.034725 0.0527491 0.186223
         vertex -0.034725 0.0526765 0.186438
      endloop
   endfacet
   facet normal 1 0 0
      outer loop
         vertex -0.034725 0.0538182 0.185094
         vertex -0.034725 0.042 0.1713
         vertex -0.034725 0.0526277 0.17464
      endloop
   endfacet
   facet normal 1 0 0
      outer loop
         vertex -0.034725 0.0563005 0.17294
         vertex -0.034725 0.0561442 0.172775
         vertex -0.034725 0.0597 0.1713
      endloop
   endfacet
   facet normal 1 0 0
      outer loop
         vertex -0.034725 0.0567235 0.174862
         vertex -0.034725 0.0567723 0.17464
         vertex -0.034725 0.0597 0.1713
      endloop
   endfacet
   facet normal 1 0 0
      outer loop
         vertex -0.034725 0.0553705 0.18501
         vertex -0.034725 0.0561442 0.175825
         vertex -0.034725 0.0563005 0.17566
      endloop
   endfacet
   facet normal 1 0 0
      outer loop
         vertex -0.034725 0.0553705 0.18501
         vertex -0.034725 0.0557827 0.176099
         vertex -0.034725 0.0559709 0.175972
      endloop
   endfacet
   facet normal 1 0 0
      outer loop
         vertex -0.034725 0.0567235 0.186438
         vertex -0.034725 0.0566509 0.186223
         vertex -0.034725 0.0597 0.1713
      endloop
   endfacet
   facet normal 1 0 0
      outer loop
         vertex -0.034725 0.0597 0.191
         vertex -0.034725 0.0567723 0.18734
         vertex -0.034725 0.0567969 0.187114
      endloop
   endfacet
   facet normal 1 0 0
      outer loop
         vertex -0.034725 0.0597 0.191
         vertex -0.034725 0.0566509 0.187777
         vertex -0.034725 0.0567235 0.187562
      endloop
   endfacet
   facet normal 1 0 0
      outer loop
         vertex -0.034725 0.0597 0.191
         vertex -0.034725 0.0564381 0.188178
         vertex -0.034725 0.0565554 0.187984
      endloop
   endfacet
   facet normal 1 0 0
      outer loop
         vertex -0.034725 0.0526765 0.187562
         vertex -0.034725 0.0527491 0.187777
         vertex -0.034725 0.042 0.191
      endloop
   endfacet
   facet normal 1 0 0
      outer loop
         vertex -0.034725 0.042 0.191
         vertex -0.034725 0.0526277 0.18666
         vertex -0.034725 0.0526031 0.186886
      endloop
   endfacet
   facet normal 1 0 0
      outer loop
         vertex -0.034725 0.0526765 0.186438
         vertex -0.034725 0.042 0.191
         vertex -0.034725 0.042 0.1713
      endloop
   endfacet
   facet normal 1 0 0
      outer loop
         vertex -0.034725 0.042 0.1713
         vertex -0.034725 0.0529619 0.185822
         vertex -0.034725 0.0528446 0.186016
      endloop
   endfacet
   facet normal 1 0 0
      outer loop
         vertex -0.034725 0.042 0.1713
         vertex -0.034725 0.0526031 0.174414
         vertex -0.034725 0.0526277 0.17464
      endloop
   endfacet
   facet normal 1 0 0
      outer loop
         vertex -0.034725 0.0565554 0.173316
         vertex -0.034725 0.0564381 0.173122
         vertex -0.034725 0.0597 0.1713
      endloop
   endfacet
   facet normal 1 0 0
      outer loop
         vertex -0.034725 0.0559709 0.175972
         vertex -0.034725 0.0561442 0.175825
         vertex -0.034725 0.0553705 0.18501
      endloop
   endfacet
   facet normal 1 0 0
      outer loop
         vertex -0.034725 0.054927 0.176388
         vertex -0.034725 0.054927 0.184912
         vertex -0.034725 0.0547 0.1849
      endloop
   endfacet
   facet normal 1 0 0
      outer loop
         vertex -0.034725 0.0597 0.1713
         vertex -0.034725 0.0561442 0.185475
         vertex -0.034725 0.0559709 0.185328
      endloop
   endfacet
   facet normal 1 0 0
      outer loop
         vertex -0.034725 0.0597 0.1713
         vertex -0.034725 0.0564381 0.185822
         vertex -0.034725 0.0563005 0.18564
      endloop
   endfacet
   facet normal 1 0 0
      outer loop
         vertex -0.034725 0.0567969 0.186886
         vertex -0.034725 0.0567723 0.18666
         vertex -0.034725 0.0597 0.191
      endloop
   endfacet
   facet normal 1 0 0
      outer loop
         vertex -0.034725 0.0565554 0.187984
         vertex -0.034725 0.0566509 0.187777
         vertex -0.034725 0.0597 0.191
      endloop
   endfacet
   facet normal 1 0 0
      outer loop
         vertex -0.034725 0.042 0.191
         vertex -0.034725 0.0532558 0.188525
         vertex -0.034725 0.0534291 0.188672
      endloop
   endfacet
   facet normal 1 0 0
      outer loop
         vertex -0.034725 0.042 0.191
         vertex -0.034725 0.0529619 0.188178
         vertex -0.034725 0.0530995 0.18836
      endloop
   endfacet
   facet normal 1 0 0
      outer loop
         vertex -0.034725 0.0526031 0.187114
         vertex -0.034725 0.0526277 0.18734
         vertex -0.034725 0.042 0.191
      endloop
   endfacet
   facet normal 1 0 0
      outer loop
         vertex -0.034725 0.0528446 0.186016
         vertex -0.034725 0.0527491 0.186223
         vertex -0.034725 0.042 0.1713
      endloop
   endfacet
   facet normal 1 0 0
      outer loop
         vertex -0.034725 0.0526277 0.17464
         vertex -0.034725 0.0540295 0.18501
         vertex -0.034725 0.0538182 0.185094
      endloop
   endfacet
   facet normal 1 0 0
      outer loop
         vertex -0.034725 0.0597 0.1713
         vertex -0.034725 0.0557827 0.172501
         vertex -0.034725 0.0555818 0.172394
      endloop
   endfacet
   facet normal 1 0 0
      outer loop
         vertex -0.034725 0.0563005 0.17566
         vertex -0.034725 0.0564381 0.175478
         vertex -0.034725 0.0553705 0.18501
      endloop
   endfacet
   facet normal 1 0 0
      outer loop
         vertex -0.034725 0.0547 0.1849
         vertex -0.034725 0.0547 0.1764
         vertex -0.034725 0.054927 0.176388
      endloop
   endfacet
   facet normal 1 0 0
      outer loop
         vertex -0.034725 0.0563005 0.18564
         vertex -0.034725 0.0561442 0.185475
         vertex -0.034725 0.0597 0.1713
      endloop
   endfacet
   facet normal 1 0 0
      outer loop
         vertex -0.034725 0.0567235 0.187562
         vertex -0.034725 0.0567723 0.18734
         vertex -0.034725 0.0597 0.191
      endloop
   endfacet
   facet normal 1 0 0
      outer loop
         vertex -0.034725 0.0597 0.191
         vertex -0.034725 0.0561442 0.188525
         vertex -0.034725 0.0563005 0.18836
      endloop
   endfacet
   facet normal 1 0 0
      outer loop
         vertex -0.034725 0.0597 0.191
         vertex -0.034725 0.0557827 0.188799
         vertex -0.034725 0.0559709 0.188672
      endloop
   endfacet
   facet normal 1 0 0
      outer loop
         vertex -0.034725 0.0597 0.191
         vertex -0.034725 0.042 0.191
         vertex -0.034725 0.054473 0.189088
      endloop
   endfacet
   facet normal 1 0 0
      outer loop
         vertex -0.034725 0.0530995 0.18836
         vertex -0.034725 0.0532558 0.188525
         vertex -0.034725 0.042 0.191
      endloop
   endfacet
   facet normal 1 0 0
      outer loop
         vertex -0.034725 0.0526765 0.186438
         vertex -0.034725 0.0526277 0.18666
         vertex -0.034725 0.042 0.191
      endloop
   endfacet
   facet normal 1 0 0
      outer loop
         vertex -0.034725 0.042 0.1713
         vertex -0.034725 0.0532558 0.185475
         vertex -0.034725 0.0530995 0.18564
      endloop
   endfacet
   facet normal 1 0 0
      outer loop
         vertex -0.034725 0.042 0.1713
         vertex -0.034725 0.0536173 0.185201
         vertex -0.034725 0.0534291 0.185328
      endloop
   endfacet
   facet normal 1 0 0
      outer loop
         vertex -0.034725 0.042 0.1713
         vertex -0.034725 0.0526031 0.174186
         vertex -0.034725 0.0526031 0.174414
      endloop
   endfacet
   facet normal 1 0 0
      outer loop
         vertex -0.034725 0.042 0.1713
         vertex -0.034725 0.0527491 0.173523
         vertex -0.034725 0.0526765 0.173738
      endloop
   endfacet
   facet normal 1 0 0
      outer loop
         vertex -0.034725 0.042 0.1713
         vertex -0.034725 0.0529619 0.173122
         vertex -0.034725 0.0528446 0.173316
      endloop
   endfacet
   facet normal 1 0 0
      outer loop
         vertex -0.034725 0.0597 0.1713
         vertex -0.034725 0.0551514 0.172249
         vertex -0.034725 0.054927 0.172212
      endloop
   endfacet
   facet normal 1 0 0
      outer loop
         vertex -0.034725 0.0559709 0.172628
         vertex -0.034725 0.0557827 0.172501
         vertex -0.034725 0.0597 0.1713
      endloop
   endfacet
   facet normal 1 0 0
      outer loop
         vertex -0.034725 0.0553705 0.18501
         vertex -0.034725 0.0553705 0.17629
         vertex -0.034725 0.0555818 0.176206
      endloop
   endfacet
   facet normal 1 0 0
      outer loop
         vertex -0.034725 0.0551514 0.176351
         vertex -0.034725 0.0551514 0.184949
         vertex -0.034725 0.054927 0.184912
      endloop
   endfacet
   facet normal 1 0 0
      outer loop
         vertex -0.034725 0.0565554 0.186016
         vertex -0.034725 0.0564381 0.185822
         vertex -0.034725 0.0597 0.1713
      endloop
   endfacet
   facet normal 1 0 0
      outer loop
         vertex -0.034725 0.0559709 0.188672
         vertex -0.034725 0.0561442 0.188525
         vertex -0.034725 0.0597 0.191
      endloop
   endfacet
   facet normal 1 0 0
      outer loop
         vertex -0.034725 0.054473 0.189088
         vertex -0.034725 0.0547 0.1891
         vertex -0.034725 0.0597 0.191
      endloop
   endfacet
   facet normal 1 0 0
      outer loop
         vertex -0.034725 0.0528446 0.187984
         vertex -0.034725 0.0529619 0.188178
         vertex -0.034725 0.042 0.191
      endloop
   endfacet
   facet normal 1 0 0
      outer loop
         vertex -0.034725 0.0534291 0.185328
         vertex -0.034725 0.0532558 0.185475
         vertex -0.034725 0.042 0.1713
      endloop
   endfacet
   facet normal 1 0 0
      outer loop
         vertex -0.034725 0.042 0.1713
         vertex -0.034725 0.0526277 0.17396
         vertex -0.034725 0.0526031 0.174186
      endloop
   endfacet
   facet normal 1 0 0
      outer loop
         vertex -0.034725 0.0528446 0.173316
         vertex -0.034725 0.0527491 0.173523
         vertex -0.034725 0.042 0.1713
      endloop
   endfacet
   facet normal 1 0 0
      outer loop
         vertex -0.034725 0.042 0.1713
         vertex -0.034725 0.0532558 0.172775
         vertex -0.034725 0.0530995 0.17294
      endloop
   endfacet
   facet normal 1 0 0
      outer loop
         vertex -0.034725 0.042 0.1713
         vertex -0.034725 0.0536173 0.172501
         vertex -0.034725 0.0534291 0.172628
      endloop
   endfacet
   facet normal 1 0 0
      outer loop
         vertex -0.034725 0.0597 0.1713
         vertex -0.034725 0.0553705 0.17231
         vertex -0.034725 0.0551514 0.172249
      endloop
   endfacet
   facet normal 1 0 0
      outer loop
         vertex -0.034725 0.0555818 0.176206
         vertex -0.034725 0.0557827 0.176099
         vertex -0.034725 0.0553705 0.18501
      endloop
   endfacet
   facet normal 1 0 0
      outer loop
         vertex -0.034725 0.054927 0.176388
         vertex -0.034725 0.0551514 0.176351
         vertex -0.034725 0.054927 0.184912
      endloop
   endfacet
   facet normal 1 0 0
      outer loop
         vertex -0.034725 0.0597 0.1713
         vertex -0.034725 0.0557827 0.185201
         vertex -0.034725 0.0555818 0.185094
      endloop
   endfacet
   facet normal 1 0 0
      outer loop
         vertex -0.034725 0.0563005 0.18836
         vertex -0.034725 0.0564381 0.188178
         vertex -0.034725 0.0597 0.191
      endloop
   endfacet
   facet normal 1 0 0
      outer loop
         vertex -0.034725 0.0547 0.1891
         vertex -0.034725 0.054927 0.189088
         vertex -0.034725 0.0597 0.191
      endloop
   endfacet
   facet normal 1 0 0
      outer loop
         vertex -0.034725 0.042 0.191
         vertex -0.034725 0.0536173 0.188799
         vertex -0.034725 0.0538182 0.188906
      endloop
   endfacet
   facet normal 1 0 0
      outer loop
         vertex -0.034725 0.0530995 0.18564
         vertex -0.034725 0.0529619 0.185822
         vertex -0.034725 0.042 0.1713
      endloop
   endfacet
   facet normal 1 0 0
      outer loop
         vertex -0.034725 0.0526765 0.173738
         vertex -0.034725 0.0526277 0.17396
         vertex -0.034725 0.042 0.1713
      endloop
   endfacet
   facet normal 1 0 0
      outer loop
         vertex -0.034725 0.0534291 0.172628
         vertex -0.034725 0.0532558 0.172775
         vertex -0.034725 0.042 0.1713
      endloop
   endfacet
   facet normal 1 0 0
      outer loop
         vertex -0.034725 0.054473 0.184912
         vertex -0.034725 0.054473 0.176388
         vertex -0.034725 0.0547 0.1764
      endloop
   endfacet
   facet normal 1 0 0
      outer loop
         vertex -0.034725 0.0555818 0.172394
         vertex -0.034725 0.0553705 0.17231
         vertex -0.034725 0.0597 0.1713
      endloop
   endfacet
   facet normal 1 0 0
      outer loop
         vertex -0.034725 0.0553705 0.17629
         vertex -0.034725 0.0553705 0.18501
         vertex -0.034725 0.0551514 0.184949
      endloop
   endfacet
   facet normal 1 0 0
      outer loop
         vertex -0.034725 0.0559709 0.185328
         vertex -0.034725 0.0557827 0.185201
         vertex -0.034725 0.0597 0.1713
      endloop
   endfacet
   facet normal 1 0 0
      outer loop
         vertex -0.034725 0.0597 0.191
         vertex -0.034725 0.0553705 0.18899
         vertex -0.034725 0.0555818 0.188906
      endloop
   endfacet
   facet normal 1 0 0
      outer loop
         vertex -0.034725 0.042 0.191
         vertex -0.034725 0.0542486 0.189051
         vertex -0.034725 0.054473 0.189088
      endloop
   endfacet
   facet normal 1 0 0
      outer loop
         vertex -0.034725 0.0534291 0.188672
         vertex -0.034725 0.0536173 0.188799
         vertex -0.034725 0.042 0.191
      endloop
   endfacet
   facet normal 1 0 0
      outer loop
         vertex -0.034725 0.0530995 0.17294
         vertex -0.034725 0.0529619 0.173122
         vertex -0.034725 0.042 0.1713
      endloop
   endfacet
   facet normal 1 0 0
      outer loop
         vertex -0.034725 0.042 0.1713
         vertex -0.034725 0.0597 0.1713
         vertex -0.034725 0.0547 0.1722
      endloop
   endfacet
   facet normal 1 0 0
      outer loop
         vertex -0.034725 0.0547 0.1764
         vertex -0.034725 0.0547 0.1849
         vertex -0.034725 0.054473 0.184912
      endloop
   endfacet
   facet normal 1 0 0
      outer loop
         vertex -0.034725 0.0540295 0.18501
         vertex -0.034725 0.0532558 0.175825
         vertex -0.034725 0.0534291 0.175972
      endloop
   endfacet
   facet normal 1 0 0
      outer loop
         vertex -0.034725 0.0540295 0.18501
         vertex -0.034725 0.0529619 0.175478
         vertex -0.034725 0.0530995 0.17566
      endloop
   endfacet
   facet normal 1 0 0
      outer loop
         vertex -0.034725 0.0540295 0.18501
         vertex -0.034725 0.0527491 0.175077
         vertex -0.034725 0.0528446 0.175284
      endloop
   endfacet
   facet normal 1 0 0
      outer loop
         vertex -0.034725 0.0540295 0.18501
         vertex -0.034725 0.0526277 0.17464
         vertex -0.034725 0.0526765 0.174862
      endloop
   endfacet
   facet normal 1 0 0
      outer loop
         vertex -0.034725 0.0551514 0.176351
         vertex -0.034725 0.0553705 0.17629
         vertex -0.034725 0.0551514 0.184949
      endloop
   endfacet
   facet normal 1 0 0
      outer loop
         vertex -0.034725 0.0555818 0.188906
         vertex -0.034725 0.0557827 0.188799
         vertex -0.034725 0.0597 0.191
      endloop
   endfacet
   facet normal 1 0 0
      outer loop
         vertex -0.034725 0.054927 0.189088
         vertex -0.034725 0.0551514 0.189051
         vertex -0.034725 0.0597 0.191
      endloop
   endfacet
   facet normal 1 0 0
      outer loop
         vertex -0.034725 0.0538182 0.185094
         vertex -0.034725 0.0536173 0.185201
         vertex -0.034725 0.042 0.1713
      endloop
   endfacet
   facet normal 1 0 0
      outer loop
         vertex -0.034725 0.042 0.1713
         vertex -0.034725 0.0540295 0.17231
         vertex -0.034725 0.0538182 0.172394
      endloop
   endfacet
   facet normal 1 0 0
      outer loop
         vertex -0.034725 0.0547 0.1722
         vertex -0.034725 0.054473 0.172212
         vertex -0.034725 0.042 0.1713
      endloop
   endfacet
   facet normal 1 0 0
      outer loop
         vertex -0.034725 0.0542486 0.184949
         vertex -0.034725 0.0542486 0.176351
         vertex -0.034725 0.054473 0.176388
      endloop
   endfacet
   facet normal 1 0 0
      outer loop
         vertex -0.034725 0.0530995 0.17566
         vertex -0.034725 0.0532558 0.175825
         vertex -0.034725 0.0540295 0.18501
      endloop
   endfacet
   facet normal 1 0 0
      outer loop
         vertex -0.034725 0.0526765 0.174862
         vertex -0.034725 0.0527491 0.175077
         vertex -0.034725 0.0540295 0.18501
      endloop
   endfacet
   facet normal 1 0 0
      outer loop
         vertex -0.034725 0.0555818 0.185094
         vertex -0.034725 0.0553705 0.18501
         vertex -0.034725 0.0597 0.1713
      endloop
   endfacet
   facet normal 1 0 0
      outer loop
         vertex -0.034725 0.042 0.191
         vertex -0.034725 0.0540295 0.18899
         vertex -0.034725 0.0542486 0.189051
      endloop
   endfacet
   facet normal 1 0 0
      outer loop
         vertex -0.034725 0.0538182 0.172394
         vertex -0.034725 0.0536173 0.172501
         vertex -0.034725 0.042 0.1713
      endloop
   endfacet
   facet normal 1 0 0
      outer loop
         vertex -0.034725 0.054473 0.172212
         vertex -0.034725 0.0542486 0.172249
         vertex -0.034725 0.042 0.1713
      endloop
   endfacet
   facet normal 1 0 0
      outer loop
         vertex -0.034725 0.054473 0.184912
         vertex -0.034725 0.0542486 0.184949
         vertex -0.034725 0.054473 0.176388
      endloop
   endfacet
   facet normal 1 0 0
      outer loop
         vertex -0.034725 0.0540295 0.18501
         vertex -0.034725 0.0536173 0.176099
         vertex -0.034725 0.0538182 0.176206
      endloop
   endfacet
   facet normal 1 0 0
      outer loop
         vertex -0.034725 0.0528446 0.175284
         vertex -0.034725 0.0529619 0.175478
         vertex -0.034725 0.0540295 0.18501
      endloop
   endfacet
   facet normal 1 0 0
      outer loop
         vertex -0.034725 0.0551514 0.189051
         vertex -0.034725 0.0553705 0.18899
         vertex -0.034725 0.0597 0.191
      endloop
   endfacet
   facet normal 1 0 0
      outer loop
         vertex -0.034725 0.0542486 0.172249
         vertex -0.034725 0.0540295 0.17231
         vertex -0.034725 0.042 0.1713
      endloop
   endfacet
   facet normal 1 0 0
      outer loop
         vertex -0.034725 0.0540295 0.18501
         vertex -0.034725 0.0540295 0.17629
         vertex -0.034725 0.0542486 0.176351
      endloop
   endfacet
   facet normal 1 0 0
      outer loop
         vertex -0.034725 0.0534291 0.175972
         vertex -0.034725 0.0536173 0.176099
         vertex -0.034725 0.0540295 0.18501
      endloop
   endfacet
   facet normal 1 0 0
      outer loop
         vertex -0.034725 0.0538182 0.188906
         vertex -0.034725 0.0540295 0.18899
         vertex -0.034725 0.042 0.191
      endloop
   endfacet
   facet normal 1 0 0
      outer loop
         vertex -0.034725 0.0538182 0.176206
         vertex -0.034725 0.0540295 0.17629
         vertex -0.034725 0.0540295 0.18501
      endloop
   endfacet
   facet normal 1 0 0
      outer loop
         vertex -0.034725 0.0542486 0.184949
         vertex -0.034725 0.0540295 0.18501
         vertex -0.034725 0.0542486 0.176351
      endloop
   endfacet
   facet normal 1 0 0
      outer loop
         vertex -0.034725 0.054927 0.172212
         vertex -0.034725 0.0547 0.1722
         vertex -0.034725 0.0597 0.1713
      endloop
   endfacet
   facet normal -1 0 0
      outer loop
         vertex -0.03605 0.054927 0.176388
         vertex -0.03605 0.0547 0.1764
         vertex -0.03605 0.0547 0.1849
      endloop
   endfacet
   facet normal -1 0 0
      outer loop
         vertex -0.03605 0.0553705 0.18501
         vertex -0.03605 0.0597 0.1713
         vertex -0.03605 0.0566509 0.175077
      endloop
   endfacet
   facet normal -1 0 0
      outer loop
         vertex -0.03605 0.0547 0.1764
         vertex -0.03605 0.054473 0.184912
         vertex -0.03605 0.0547 0.1849
      endloop
   endfacet
   facet normal -1 0 0
      outer loop
         vertex -0.03605 0.0566509 0.175077
         vertex -0.03605 0.0565554 0.175284
         vertex -0.03605 0.0553705 0.18501
      endloop
   endfacet
   facet normal -1 0 0
      outer loop
         vertex -0.03605 0.0597 0.1713
         vertex -0.03605 0.0567723 0.17464
         vertex -0.03605 0.0567235 0.174862
      endloop
   endfacet
   facet normal -1 0 0
      outer loop
         vertex -0.03605 0.0597 0.1713
         vertex -0.03605 0.0567969 0.174186
         vertex -0.03605 0.0567969 0.174414
      endloop
   endfacet
   facet normal -1 0 0
      outer loop
         vertex -0.03605 0.0547 0.1849
         vertex -0.03605 0.054927 0.184912
         vertex -0.03605 0.054927 0.176388
      endloop
   endfacet
   facet normal -1 0 0
      outer loop
         vertex -0.03605 0.0567235 0.174862
         vertex -0.03605 0.0566509 0.175077
         vertex -0.03605 0.0597 0.1713
      endloop
   endfacet
   facet normal -1 0 0
      outer loop
         vertex -0.03605 0.0597 0.1713
         vertex -0.03605 0.0567723 0.17396
         vertex -0.03605 0.0567969 0.174186
      endloop
   endfacet
   facet normal -1 0 0
      outer loop
         vertex -0.03605 0.0597 0.1713
         vertex -0.03605 0.0566509 0.173523
         vertex -0.03605 0.0567235 0.173738
      endloop
   endfacet
   facet normal -1 0 0
      outer loop
         vertex -0.03605 0.0597 0.1713
         vertex -0.03605 0.0564381 0.173122
         vertex -0.03605 0.0565554 0.173316
      endloop
   endfacet
   facet normal -1 0 0
      outer loop
         vertex -0.03605 0.042 0.1713
         vertex -0.03605 0.0527491 0.173523
         vertex -0.03605 0.0528446 0.173316
      endloop
   endfacet
   facet normal -1 0 0
      outer loop
         vertex -0.03605 0.042 0.1713
         vertex -0.03605 0.0526277 0.17396
         vertex -0.03605 0.0526765 0.173738
      endloop
   endfacet
   facet normal -1 0 0
      outer loop
         vertex -0.03605 0.042 0.1713
         vertex -0.03605 0.0526031 0.174414
         vertex -0.03605 0.0526031 0.174186
      endloop
   endfacet
   facet normal -1 0 0
      outer loop
         vertex -0.03605 0.042 0.1713
         vertex -0.03605 0.042 0.191
         vertex -0.03605 0.0527491 0.175077
      endloop
   endfacet
   facet normal -1 0 0
      outer loop
         vertex -0.03605 0.0538182 0.176206
         vertex -0.03605 0.042 0.191
         vertex -0.03605 0.0526277 0.18666
      endloop
   endfacet
   facet normal -1 0 0
      outer loop
         vertex -0.03605 0.0547 0.1764
         vertex -0.03605 0.0542486 0.184949
         vertex -0.03605 0.054473 0.184912
      endloop
   endfacet
   facet normal -1 0 0
      outer loop
         vertex -0.03605 0.0547 0.1764
         vertex -0.03605 0.0526277 0.18666
         vertex -0.03605 0.0526765 0.186438
      endloop
   endfacet
   facet normal -1 0 0
      outer loop
         vertex -0.03605 0.0553705 0.18501
         vertex -0.03605 0.0561442 0.175825
         vertex -0.03605 0.0559709 0.175972
      endloop
   endfacet
   facet normal -1 0 0
      outer loop
         vertex -0.03605 0.0553705 0.18501
         vertex -0.03605 0.0564381 0.175478
         vertex -0.03605 0.0563005 0.17566
      endloop
   endfacet
   facet normal -1 0 0
      outer loop
         vertex -0.03605 0.0567969 0.174414
         vertex -0.03605 0.0567723 0.17464
         vertex -0.03605 0.0597 0.1713
      endloop
   endfacet
   facet normal -1 0 0
      outer loop
         vertex -0.03605 0.0565554 0.173316
         vertex -0.03605 0.0566509 0.173523
         vertex -0.03605 0.0597 0.1713
      endloop
   endfacet
   facet normal -1 0 0
      outer loop
         vertex -0.03605 0.0526765 0.173738
         vertex -0.03605 0.0527491 0.173523
         vertex -0.03605 0.042 0.1713
      endloop
   endfacet
   facet normal -1 0 0
      outer loop
         vertex -0.03605 0.042 0.1713
         vertex -0.03605 0.0526277 0.17464
         vertex -0.03605 0.0526031 0.174414
      endloop
   endfacet
   facet normal -1 0 0
      outer loop
         vertex -0.03605 0.0527491 0.175077
         vertex -0.03605 0.0526765 0.174862
         vertex -0.03605 0.042 0.1713
      endloop
   endfacet
   facet normal -1 0 0
      outer loop
         vertex -0.03605 0.042 0.191
         vertex -0.03605 0.0529619 0.175478
         vertex -0.03605 0.0528446 0.175284
      endloop
   endfacet
   facet normal -1 0 0
      outer loop
         vertex -0.03605 0.042 0.191
         vertex -0.03605 0.0526031 0.186886
         vertex -0.03605 0.0526277 0.18666
      endloop
   endfacet
   facet normal -1 0 0
      outer loop
         vertex -0.03605 0.0551514 0.184949
         vertex -0.03605 0.0551514 0.176351
         vertex -0.03605 0.054927 0.176388
      endloop
   endfacet
   facet normal -1 0 0
      outer loop
         vertex -0.03605 0.0547 0.1764
         vertex -0.03605 0.0532558 0.185475
         vertex -0.03605 0.0534291 0.185328
      endloop
   endfacet
   facet normal -1 0 0
      outer loop
         vertex -0.03605 0.0547 0.1764
         vertex -0.03605 0.0529619 0.185822
         vertex -0.03605 0.0530995 0.18564
      endloop
   endfacet
   facet normal -1 0 0
      outer loop
         vertex -0.03605 0.0526765 0.186438
         vertex -0.03605 0.0527491 0.186223
         vertex -0.03605 0.0547 0.1764
      endloop
   endfacet
   facet normal -1 0 0
      outer loop
         vertex -0.03605 0.0563005 0.17566
         vertex -0.03605 0.0561442 0.175825
         vertex -0.03605 0.0553705 0.18501
      endloop
   endfacet
   facet normal -1 0 0
      outer loop
         vertex -0.03605 0.0567235 0.173738
         vertex -0.03605 0.0567723 0.17396
         vertex -0.03605 0.0597 0.1713
      endloop
   endfacet
   facet normal -1 0 0
      outer loop
         vertex -0.03605 0.0597 0.1713
         vertex -0.03605 0.0561442 0.172775
         vertex -0.03605 0.0563005 0.17294
      endloop
   endfacet
   facet normal -1 0 0
      outer loop
         vertex -0.03605 0.0597 0.1713
         vertex -0.03605 0.0557827 0.172501
         vertex -0.03605 0.0559709 0.172628
      endloop
   endfacet
   facet normal -1 0 0
      outer loop
         vertex -0.03605 0.042 0.1713
         vertex -0.03605 0.0532558 0.172775
         vertex -0.03605 0.0534291 0.172628
      endloop
   endfacet
   facet normal -1 0 0
      outer loop
         vertex -0.03605 0.042 0.1713
         vertex -0.03605 0.0529619 0.173122
         vertex -0.03605 0.0530995 0.17294
      endloop
   endfacet
   facet normal -1 0 0
      outer loop
         vertex -0.03605 0.0526031 0.174186
         vertex -0.03605 0.0526277 0.17396
         vertex -0.03605 0.042 0.1713
      endloop
   endfacet
   facet normal -1 0 0
      outer loop
         vertex -0.03605 0.0528446 0.175284
         vertex -0.03605 0.0527491 0.175077
         vertex -0.03605 0.042 0.191
      endloop
   endfacet
   facet normal -1 0 0
      outer loop
         vertex -0.03605 0.0526277 0.18666
         vertex -0.03605 0.0540295 0.17629
         vertex -0.03605 0.0538182 0.176206
      endloop
   endfacet
   facet normal -1 0 0
      outer loop
         vertex -0.03605 0.0597 0.191
         vertex -0.03605 0.0566509 0.187777
         vertex -0.03605 0.0565554 0.187984
      endloop
   endfacet
   facet normal -1 0 0
      outer loop
         vertex -0.03605 0.0597 0.191
         vertex -0.03605 0.0567723 0.18734
         vertex -0.03605 0.0567235 0.187562
      endloop
   endfacet
   facet normal -1 0 0
      outer loop
         vertex -0.03605 0.0597 0.191
         vertex -0.03605 0.0567969 0.186886
         vertex -0.03605 0.0567969 0.187114
      endloop
   endfacet
   facet normal -1 0 0
      outer loop
         vertex -0.03605 0.0597 0.1713
         vertex -0.03605 0.0567235 0.186438
         vertex -0.03605 0.0567723 0.18666
      endloop
   endfacet
   facet normal -1 0 0
      outer loop
         vertex -0.03605 0.0551514 0.184949
         vertex -0.03605 0.0553705 0.17629
         vertex -0.03605 0.0551514 0.176351
      endloop
   endfacet
   facet normal -1 0 0
      outer loop
         vertex -0.03605 0.0530995 0.18564
         vertex -0.03605 0.0532558 0.185475
         vertex -0.03605 0.0547 0.1764
      endloop
   endfacet
   facet normal -1 0 0
      outer loop
         vertex -0.03605 0.0527491 0.186223
         vertex -0.03605 0.0528446 0.186016
         vertex -0.03605 0.0547 0.1764
      endloop
   endfacet
   facet normal -1 0 0
      outer loop
         vertex -0.03605 0.0565554 0.175284
         vertex -0.03605 0.0564381 0.175478
         vertex -0.03605 0.0553705 0.18501
      endloop
   endfacet
   facet normal -1 0 0
      outer loop
         vertex -0.03605 0.0559709 0.172628
         vertex -0.03605 0.0561442 0.172775
         vertex -0.03605 0.0597 0.1713
      endloop
   endfacet
   facet normal -1 0 0
      outer loop
         vertex -0.03605 0.0597 0.1713
         vertex -0.03605 0.054473 0.172212
         vertex -0.03605 0.0547 0.1722
      endloop
   endfacet
   facet normal -1 0 0
      outer loop
         vertex -0.03605 0.0530995 0.17294
         vertex -0.03605 0.0532558 0.172775
         vertex -0.03605 0.042 0.1713
      endloop
   endfacet
   facet normal -1 0 0
      outer loop
         vertex -0.03605 0.0526765 0.174862
         vertex -0.03605 0.0526277 0.17464
         vertex -0.03605 0.042 0.1713
      endloop
   endfacet
   facet normal -1 0 0
      outer loop
         vertex -0.03605 0.042 0.191
         vertex -0.03605 0.0532558 0.175825
         vertex -0.03605 0.0530995 0.17566
      endloop
   endfacet
   facet normal -1 0 0
      outer loop
         vertex -0.03605 0.042 0.191
         vertex -0.03605 0.0536173 0.176099
         vertex -0.03605 0.0534291 0.175972
      endloop
   endfacet
   facet normal -1 0 0
      outer loop
         vertex -0.03605 0.042 0.191
         vertex -0.03605 0.0526031 0.187114
         vertex -0.03605 0.0526031 0.186886
      endloop
   endfacet
   facet normal -1 0 0
      outer loop
         vertex -0.03605 0.042 0.191
         vertex -0.03605 0.0527491 0.187777
         vertex -0.03605 0.0526765 0.187562
      endloop
   endfacet
   facet normal -1 0 0
      outer loop
         vertex -0.03605 0.042 0.191
         vertex -0.03605 0.0529619 0.188178
         vertex -0.03605 0.0528446 0.187984
      endloop
   endfacet
   facet normal -1 0 0
      outer loop
         vertex -0.03605 0.0567235 0.187562
         vertex -0.03605 0.0566509 0.187777
         vertex -0.03605 0.0597 0.191
      endloop
   endfacet
   facet normal -1 0 0
      outer loop
         vertex -0.03605 0.0597 0.191
         vertex -0.03605 0.0567723 0.18666
         vertex -0.03605 0.0567969 0.186886
      endloop
   endfacet
   facet normal -1 0 0
      outer loop
         vertex -0.03605 0.0597 0.1713
         vertex -0.03605 0.0566509 0.186223
         vertex -0.03605 0.0567235 0.186438
      endloop
   endfacet
   facet normal -1 0 0
      outer loop
         vertex -0.03605 0.0597 0.1713
         vertex -0.03605 0.0564381 0.185822
         vertex -0.03605 0.0565554 0.186016
      endloop
   endfacet
   facet normal -1 0 0
      outer loop
         vertex -0.03605 0.054927 0.184912
         vertex -0.03605 0.0551514 0.184949
         vertex -0.03605 0.054927 0.176388
      endloop
   endfacet
   facet normal -1 0 0
      outer loop
         vertex -0.03605 0.0547 0.1764
         vertex -0.03605 0.0536173 0.185201
         vertex -0.03605 0.0538182 0.185094
      endloop
   endfacet
   facet normal -1 0 0
      outer loop
         vertex -0.03605 0.0528446 0.186016
         vertex -0.03605 0.0529619 0.185822
         vertex -0.03605 0.0547 0.1764
      endloop
   endfacet
   facet normal -1 0 0
      outer loop
         vertex -0.03605 0.0553705 0.18501
         vertex -0.03605 0.0557827 0.176099
         vertex -0.03605 0.0555818 0.176206
      endloop
   endfacet
   facet normal -1 0 0
      outer loop
         vertex -0.03605 0.0563005 0.17294
         vertex -0.03605 0.0564381 0.173122
         vertex -0.03605 0.0597 0.1713
      endloop
   endfacet
   facet normal -1 0 0
      outer loop
         vertex -0.03605 0.0547 0.1722
         vertex -0.03605 0.054927 0.172212
         vertex -0.03605 0.0597 0.1713
      endloop
   endfacet
   facet normal -1 0 0
      outer loop
         vertex -0.03605 0.042 0.1713
         vertex -0.03605 0.0542486 0.172249
         vertex -0.03605 0.054473 0.172212
      endloop
   endfacet
   facet normal -1 0 0
      outer loop
         vertex -0.03605 0.0528446 0.173316
         vertex -0.03605 0.0529619 0.173122
         vertex -0.03605 0.042 0.1713
      endloop
   endfacet
   facet normal -1 0 0
      outer loop
         vertex -0.03605 0.0534291 0.175972
         vertex -0.03605 0.0532558 0.175825
         vertex -0.03605 0.042 0.191
      endloop
   endfacet
   facet normal -1 0 0
      outer loop
         vertex -0.03605 0.042 0.191
         vertex -0.03605 0.0526277 0.18734
         vertex -0.03605 0.0526031 0.187114
      endloop
   endfacet
   facet normal -1 0 0
      outer loop
         vertex -0.03605 0.0528446 0.187984
         vertex -0.03605 0.0527491 0.187777
         vertex -0.03605 0.042 0.191
      endloop
   endfacet
   facet normal -1 0 0
      outer loop
         vertex -0.03605 0.042 0.191
         vertex -0.03605 0.0532558 0.188525
         vertex -0.03605 0.0530995 0.18836
      endloop
   endfacet
   facet normal -1 0 0
      outer loop
         vertex -0.03605 0.042 0.191
         vertex -0.03605 0.0536173 0.188799
         vertex -0.03605 0.0534291 0.188672
      endloop
   endfacet
   facet normal -1 0 0
      outer loop
         vertex -0.03605 0.0597 0.191
         vertex -0.03605 0.0561442 0.188525
         vertex -0.03605 0.0559709 0.188672
      endloop
   endfacet
   facet normal -1 0 0
      outer loop
         vertex -0.03605 0.0597 0.191
         vertex -0.03605 0.0564381 0.188178
         vertex -0.03605 0.0563005 0.18836
      endloop
   endfacet
   facet normal -1 0 0
      outer loop
         vertex -0.03605 0.0567969 0.187114
         vertex -0.03605 0.0567723 0.18734
         vertex -0.03605 0.0597 0.191
      endloop
   endfacet
   facet normal -1 0 0
      outer loop
         vertex -0.03605 0.0565554 0.186016
         vertex -0.03605 0.0566509 0.186223
         vertex -0.03605 0.0597 0.1713
      endloop
   endfacet
   facet normal -1 0 0
      outer loop
         vertex -0.03605 0.0547 0.1764
         vertex -0.03605 0.0540295 0.18501
         vertex -0.03605 0.0542486 0.184949
      endloop
   endfacet
   facet normal -1 0 0
      outer loop
         vertex -0.03605 0.0534291 0.185328
         vertex -0.03605 0.0536173 0.185201
         vertex -0.03605 0.0547 0.1764
      endloop
   endfacet
   facet normal -1 0 0
      outer loop
         vertex -0.03605 0.0559709 0.175972
         vertex -0.03605 0.0557827 0.176099
         vertex -0.03605 0.0553705 0.18501
      endloop
   endfacet
   facet normal -1 0 0
      outer loop
         vertex -0.03605 0.0597 0.1713
         vertex -0.03605 0.0553705 0.17231
         vertex -0.03605 0.0555818 0.172394
      endloop
   endfacet
   facet normal -1 0 0
      outer loop
         vertex -0.03605 0.054473 0.172212
         vertex -0.03605 0.0597 0.1713
         vertex -0.03605 0.042 0.1713
      endloop
   endfacet
   facet normal -1 0 0
      outer loop
         vertex -0.03605 0.042 0.1713
         vertex -0.03605 0.0536173 0.172501
         vertex -0.03605 0.0538182 0.172394
      endloop
   endfacet
   facet normal -1 0 0
      outer loop
         vertex -0.03605 0.0530995 0.17566
         vertex -0.03605 0.0529619 0.175478
         vertex -0.03605 0.042 0.191
      endloop
   endfacet
   facet normal -1 0 0
      outer loop
         vertex -0.03605 0.0526765 0.187562
         vertex -0.03605 0.0526277 0.18734
         vertex -0.03605 0.042 0.191
      endloop
   endfacet
   facet normal -1 0 0
      outer loop
         vertex -0.03605 0.0534291 0.188672
         vertex -0.03605 0.0532558 0.188525
         vertex -0.03605 0.042 0.191
      endloop
   endfacet
   facet normal -1 0 0
      outer loop
         vertex -0.03605 0.0563005 0.18836
         vertex -0.03605 0.0561442 0.188525
         vertex -0.03605 0.0597 0.191
      endloop
   endfacet
   facet normal -1 0 0
      outer loop
         vertex -0.03605 0.0567723 0.18666
         vertex -0.03605 0.0597 0.191
         vertex -0.03605 0.0597 0.1713
      endloop
   endfacet
   facet normal -1 0 0
      outer loop
         vertex -0.03605 0.0597 0.1713
         vertex -0.03605 0.0561442 0.185475
         vertex -0.03605 0.0563005 0.18564
      endloop
   endfacet
   facet normal -1 0 0
      outer loop
         vertex -0.03605 0.0597 0.1713
         vertex -0.03605 0.0557827 0.185201
         vertex -0.03605 0.0559709 0.185328
      endloop
   endfacet
   facet normal -1 0 0
      outer loop
         vertex -0.03605 0.0538182 0.185094
         vertex -0.03605 0.0540295 0.18501
         vertex -0.03605 0.0547 0.1764
      endloop
   endfacet
   facet normal -1 0 0
      outer loop
         vertex -0.03605 0.0555818 0.172394
         vertex -0.03605 0.0557827 0.172501
         vertex -0.03605 0.0597 0.1713
      endloop
   endfacet
   facet normal -1 0 0
      outer loop
         vertex -0.03605 0.054927 0.172212
         vertex -0.03605 0.0551514 0.172249
         vertex -0.03605 0.0597 0.1713
      endloop
   endfacet
   facet normal -1 0 0
      outer loop
         vertex -0.03605 0.0534291 0.172628
         vertex -0.03605 0.0536173 0.172501
         vertex -0.03605 0.042 0.1713
      endloop
   endfacet
   facet normal -1 0 0
      outer loop
         vertex -0.03605 0.0530995 0.18836
         vertex -0.03605 0.0529619 0.188178
         vertex -0.03605 0.042 0.191
      endloop
   endfacet
   facet normal -1 0 0
      outer loop
         vertex -0.03605 0.0565554 0.187984
         vertex -0.03605 0.0564381 0.188178
         vertex -0.03605 0.0597 0.191
      endloop
   endfacet
   facet normal -1 0 0
      outer loop
         vertex -0.03605 0.0559709 0.185328
         vertex -0.03605 0.0561442 0.185475
         vertex -0.03605 0.0597 0.1713
      endloop
   endfacet
   facet normal -1 0 0
      outer loop
         vertex -0.03605 0.0555818 0.176206
         vertex -0.03605 0.0553705 0.17629
         vertex -0.03605 0.0553705 0.18501
      endloop
   endfacet
   facet normal -1 0 0
      outer loop
         vertex -0.03605 0.042 0.1713
         vertex -0.03605 0.0540295 0.17231
         vertex -0.03605 0.0542486 0.172249
      endloop
   endfacet
   facet normal -1 0 0
      outer loop
         vertex -0.03605 0.0538182 0.176206
         vertex -0.03605 0.0536173 0.176099
         vertex -0.03605 0.042 0.191
      endloop
   endfacet
   facet normal -1 0 0
      outer loop
         vertex -0.03605 0.042 0.191
         vertex -0.03605 0.0540295 0.18899
         vertex -0.03605 0.0538182 0.188906
      endloop
   endfacet
   facet normal -1 0 0
      outer loop
         vertex -0.03605 0.0597 0.191
         vertex -0.03605 0.0557827 0.188799
         vertex -0.03605 0.0555818 0.188906
      endloop
   endfacet
   facet normal -1 0 0
      outer loop
         vertex -0.03605 0.0563005 0.18564
         vertex -0.03605 0.0564381 0.185822
         vertex -0.03605 0.0597 0.1713
      endloop
   endfacet
   facet normal -1 0 0
      outer loop
         vertex -0.03605 0.0551514 0.172249
         vertex -0.03605 0.0553705 0.17231
         vertex -0.03605 0.0597 0.1713
      endloop
   endfacet
   facet normal -1 0 0
      outer loop
         vertex -0.03605 0.0538182 0.188906
         vertex -0.03605 0.0536173 0.188799
         vertex -0.03605 0.042 0.191
      endloop
   endfacet
   facet normal -1 0 0
      outer loop
         vertex -0.03605 0.0526277 0.18666
         vertex -0.03605 0.0547 0.1764
         vertex -0.03605 0.054473 0.176388
      endloop
   endfacet
   facet normal -1 0 0
      outer loop
         vertex -0.03605 0.0597 0.191
         vertex -0.03605 0.0547 0.1891
         vertex -0.03605 0.054473 0.189088
      endloop
   endfacet
   facet normal -1 0 0
      outer loop
         vertex -0.03605 0.0597 0.191
         vertex -0.03605 0.0551514 0.189051
         vertex -0.03605 0.054927 0.189088
      endloop
   endfacet
   facet normal -1 0 0
      outer loop
         vertex -0.03605 0.0559709 0.188672
         vertex -0.03605 0.0557827 0.188799
         vertex -0.03605 0.0597 0.191
      endloop
   endfacet
   facet normal -1 0 0
      outer loop
         vertex -0.03605 0.0597 0.1713
         vertex -0.03605 0.0553705 0.18501
         vertex -0.03605 0.0555818 0.185094
      endloop
   endfacet
   facet normal -1 0 0
      outer loop
         vertex -0.03605 0.0538182 0.172394
         vertex -0.03605 0.0540295 0.17231
         vertex -0.03605 0.042 0.1713
      endloop
   endfacet
   facet normal -1 0 0
      outer loop
         vertex -0.03605 0.054473 0.176388
         vertex -0.03605 0.0542486 0.176351
         vertex -0.03605 0.0526277 0.18666
      endloop
   endfacet
   facet normal -1 0 0
      outer loop
         vertex -0.03605 0.054473 0.189088
         vertex -0.03605 0.042 0.191
         vertex -0.03605 0.0597 0.191
      endloop
   endfacet
   facet normal -1 0 0
      outer loop
         vertex -0.03605 0.0597 0.191
         vertex -0.03605 0.0553705 0.18899
         vertex -0.03605 0.0551514 0.189051
      endloop
   endfacet
   facet normal -1 0 0
      outer loop
         vertex -0.03605 0.0555818 0.185094
         vertex -0.03605 0.0557827 0.185201
         vertex -0.03605 0.0597 0.1713
      endloop
   endfacet
   facet normal -1 0 0
      outer loop
         vertex -0.03605 0.0542486 0.176351
         vertex -0.03605 0.0540295 0.17629
         vertex -0.03605 0.0526277 0.18666
      endloop
   endfacet
   facet normal -1 0 0
      outer loop
         vertex -0.03605 0.054473 0.189088
         vertex -0.03605 0.0542486 0.189051
         vertex -0.03605 0.042 0.191
      endloop
   endfacet
   facet normal -1 0 0
      outer loop
         vertex -0.03605 0.0555818 0.188906
         vertex -0.03605 0.0553705 0.18899
         vertex -0.03605 0.0597 0.191
      endloop
   endfacet
   facet normal -1 0 0
      outer loop
         vertex -0.03605 0.0542486 0.189051
         vertex -0.03605 0.0540295 0.18899
         vertex -0.03605 0.042 0.191
      endloop
   endfacet
   facet normal -1 0 0
      outer loop
         vertex -0.03605 0.0551514 0.184949
         vertex -0.03605 0.0553705 0.18501
         vertex -0.03605 0.0553705 0.17629
      endloop
   endfacet
   facet normal -1 0 0
      outer loop
         vertex -0.03605 0.054927 0.189088
         vertex -0.03605 0.0547 0.1891
         vertex -0.03605 0.0597 0.191
      endloop
   endfacet
   facet normal 0 0 -1
      outer loop
         vertex -0.034725 0.042 0.1713
         vertex -0.03605 0.042 0.1713
         vertex -0.03605 0.0597 0.1713
      endloop
   endfacet
   facet normal 0 0 -1
      outer loop
         vertex -0.03605 0.0597 0.1713
         vertex -0.034725 0.0597 0.1713
         vertex -0.034725 0.042 0.1713
      endloop
   endfacet
   facet normal 0 1 0
      outer loop
         vertex -0.034725 0.0597 0.1713
         vertex -0.03605 0.0597 0.1713
         vertex -0.03605 0.0597 0.191
      endloop
   endfacet
   facet normal 0 1 0
      outer loop
         vertex -0.03605 0.0597 0.191
         vertex -0.034725 0.0597 0.191
         vertex -0.034725 0.0597 0.1713
      endloop
   endfacet
   facet normal 0 0 1
      outer loop
         vertex -0.034725 0.0597 0.191
         vertex -0.03605 0.0597 0.191
         vertex -0.03605 0.042 0.191
      endloop
   endfacet
   facet normal 0 0 1
      outer loop
         vertex -0.03605 0.042 0.191
         vertex -0.034725 0.042 0.191
         vertex -0.034725 0.0597 0.191
      endloop
   endfacet
   facet normal 0 -1 0
      outer loop
         vertex -0.034725 0.042 0.191
         vertex -0.03605 0.042 0.191
         vertex -0.03605 0.042 0.1713
      endloop
   endfacet
   facet normal 0 -1 0
      outer loop
         vertex -0.03605 0.042 0.1713
         vertex -0.034725 0.042 0.1713
         vertex -0.034725 0.042 0.191
      endloop
   endfacet
   facet normal 0 0.108119 -0.994138
      outer loop
         vertex -0.03605 0.054473 0.189088
         vertex -0.03605 0.0547 0.1891
         vertex -0.034725 0.0547 0.1891
      endloop
   endfacet
   facet normal 0 0.21497 -0.976621
      outer loop
         vertex -0.03605 0.0542486 0.189051
         vertex -0.03605 0.054473 0.189088
         vertex -0.034725 0.054473 0.189088
      endloop
   endfacet
   facet normal 0 0.319302 -0.947653
      outer loop
         vertex -0.03605 0.0540295 0.18899
         vertex -0.03605 0.0542486 0.189051
         vertex -0.034725 0.0542486 0.189051
      endloop
   endfacet
   facet normal 0 0.419889 -0.907575
      outer loop
         vertex -0.03605 0.0538182 0.188906
         vertex -0.03605 0.0540295 0.18899
         vertex -0.034725 0.0540295 0.18899
      endloop
   endfacet
   facet normal 0 0.515554 -0.856857
      outer loop
         vertex -0.03605 0.0536173 0.188799
         vertex -0.03605 0.0538182 0.188906
         vertex -0.034725 0.0538182 0.188906
      endloop
   endfacet
   facet normal 0 0.605174 -0.796093
      outer loop
         vertex -0.03605 0.0534291 0.188672
         vertex -0.03605 0.0536173 0.188799
         vertex -0.034725 0.0536173 0.188799
      endloop
   endfacet
   facet normal 0 0.687699 -0.725995
      outer loop
         vertex -0.03605 0.0532558 0.188525
         vertex -0.03605 0.0534291 0.188672
         vertex -0.034725 0.0534291 0.188672
      endloop
   endfacet
   facet normal 0 0.762162 -0.647386
      outer loop
         vertex -0.03605 0.0530995 0.18836
         vertex -0.03605 0.0532558 0.188525
         vertex -0.034725 0.0532558 0.188525
      endloop
   endfacet
   facet normal 0 0.827689 -0.561187
      outer loop
         vertex -0.03605 0.0529619 0.188178
         vertex -0.03605 0.0530995 0.18836
         vertex -0.034725 0.0530995 0.18836
      endloop
   endfacet
   facet normal 0 0.883512 -0.468408
      outer loop
         vertex -0.03605 0.0528446 0.187984
         vertex -0.03605 0.0529619 0.188178
         vertex -0.034725 0.0529619 0.188178
      endloop
   endfacet
   facet normal 0 0.928977 -0.370138
      outer loop
         vertex -0.03605 0.0527491 0.187777
         vertex -0.03605 0.0528446 0.187984
         vertex -0.034725 0.0528446 0.187984
      endloop
   endfacet
   facet normal 0 0.96355 -0.267528
      outer loop
         vertex -0.03605 0.0526765 0.187562
         vertex -0.03605 0.0527491 0.187777
         vertex -0.034725 0.0527491 0.187777
      endloop
   endfacet
   facet normal 0 0.986827 -0.161782
      outer loop
         vertex -0.03605 0.0526277 0.18734
         vertex -0.03605 0.0526765 0.187562
         vertex -0.034725 0.0526765 0.187562
      endloop
   endfacet
   facet normal 0 0.998533 -0.0541389
      outer loop
         vertex -0.03605 0.0526031 0.187114
         vertex -0.03605 0.0526277 0.18734
         vertex -0.034725 0.0526277 0.18734
      endloop
   endfacet
   facet normal 0 0.998533 0.0541389
      outer loop
         vertex -0.03605 0.0526031 0.186886
         vertex -0.03605 0.0526031 0.187114
         vertex -0.034725 0.0526031 0.187114
      endloop
   endfacet
   facet normal 0 0.986827 0.161782
      outer loop
         vertex -0.03605 0.0526277 0.18666
         vertex -0.03605 0.0526031 0.186886
         vertex -0.034725 0.0526031 0.186886
      endloop
   endfacet
   facet normal 0 0.96355 0.267528
      outer loop
         vertex -0.03605 0.0526765 0.186438
         vertex -0.03605 0.0526277 0.18666
         vertex -0.034725 0.0526277 0.18666
      endloop
   endfacet
   facet normal 0 0.928977 0.370138
      outer loop
         vertex -0.03605 0.0527491 0.186223
         vertex -0.03605 0.0526765 0.186438
         vertex -0.034725 0.0526765 0.186438
      endloop
   endfacet
   facet normal 0 0.883512 0.468408
      outer loop
         vertex -0.03605 0.0528446 0.186016
         vertex -0.03605 0.0527491 0.186223
         vertex -0.034725 0.0527491 0.186223
      endloop
   endfacet
   facet normal 0 0.827689 0.561187
      outer loop
         vertex -0.03605 0.0529619 0.185822
         vertex -0.03605 0.0528446 0.186016
         vertex -0.034725 0.0528446 0.186016
      endloop
   endfacet
   facet normal 0 0.762162 0.647386
      outer loop
         vertex -0.03605 0.0530995 0.18564
         vertex -0.03605 0.0529619 0.185822
         vertex -0.034725 0.0529619 0.185822
      endloop
   endfacet
   facet normal 0 0.687699 0.725995
      outer loop
         vertex -0.03605 0.0532558 0.185475
         vertex -0.03605 0.0530995 0.18564
         vertex -0.034725 0.0530995 0.18564
      endloop
   endfacet
   facet normal 0 0.605174 0.796093
      outer loop
         vertex -0.03605 0.0534291 0.185328
         vertex -0.03605 0.0532558 0.185475
         vertex -0.034725 0.0532558 0.185475
      endloop
   endfacet
   facet normal 0 0.515554 0.856857
      outer loop
         vertex -0.03605 0.0536173 0.185201
         vertex -0.03605 0.0534291 0.185328
         vertex -0.034725 0.0534291 0.185328
      endloop
   endfacet
   facet normal 0 0.419889 0.907575
      outer loop
         vertex -0.03605 0.0538182 0.185094
         vertex -0.03605 0.0536173 0.185201
         vertex -0.034725 0.0536173 0.185201
      endloop
   endfacet
   facet normal 0 0.319302 0.947653
      outer loop
         vertex -0.03605 0.0540295 0.18501
         vertex -0.03605 0.0538182 0.185094
         vertex -0.034725 0.0538182 0.185094
      endloop
   endfacet
   facet normal 0 0.21497 0.976621
      outer loop
         vertex -0.03605 0.0542486 0.184949
         vertex -0.03605 0.0540295 0.18501
         vertex -0.034725 0.0540295 0.18501
      endloop
   endfacet
   facet normal 0 0.108119 0.994138
      outer loop
         vertex -0.03605 0.054473 0.184912
         vertex -0.03605 0.0542486 0.184949
         vertex -0.034725 0.0542486 0.184949
      endloop
   endfacet
   facet normal 0 -1.22465e-16 1
      outer loop
         vertex -0.03605 0.0547 0.1849
         vertex -0.03605 0.054473 0.184912
         vertex -0.034725 0.054473 0.184912
      endloop
   endfacet
   facet normal 0 -0.108119 0.994138
      outer loop
         vertex -0.03605 0.054927 0.184912
         vertex -0.03605 0.0547 0.1849
         vertex -0.034725 0.0547 0.1849
      endloop
   endfacet
   facet normal 0 -0.21497 0.976621
      outer loop
         vertex -0.03605 0.0551514 0.184949
         vertex -0.03605 0.054927 0.184912
         vertex -0.034725 0.054927 0.184912
      endloop
   endfacet
   facet normal 0 -0.319302 0.947653
      outer loop
         vertex -0.03605 0.0553705 0.18501
         vertex -0.03605 0.0551514 0.184949
         vertex -0.034725 0.0551514 0.184949
      endloop
   endfacet
   facet normal 0 -0.419889 0.907575
      outer loop
         vertex -0.03605 0.0555818 0.185094
         vertex -0.03605 0.0553705 0.18501
         vertex -0.034725 0.0553705 0.18501
      endloop
   endfacet
   facet normal 0 -0.515554 0.856857
      outer loop
         vertex -0.03605 0.0557827 0.185201
         vertex -0.03605 0.0555818 0.185094
         vertex -0.034725 0.0555818 0.185094
      endloop
   endfacet
   facet normal 0 -0.605174 0.796093
      outer loop
         vertex -0.03605 0.0559709 0.185328
         vertex -0.03605 0.0557827 0.185201
         vertex -0.034725 0.0557827 0.185201
      endloop
   endfacet
   facet normal 0 -0.687699 0.725995
      outer loop
         vertex -0.03605 0.0561442 0.185475
         vertex -0.03605 0.0559709 0.185328
         vertex -0.034725 0.0559709 0.185328
      endloop
   endfacet
   facet normal 0 -0.762162 0.647386
      outer loop
         vertex -0.03605 0.0563005 0.18564
         vertex -0.03605 0.0561442 0.185475
         vertex -0.034725 0.0561442 0.185475
      endloop
   endfacet
   facet normal 0 -0.827689 0.561187
      outer loop
         vertex -0.03605 0.0564381 0.185822
         vertex -0.03605 0.0563005 0.18564
         vertex -0.034725 0.0563005 0.18564
      endloop
   endfacet
   facet normal 0 -0.883512 0.468408
      outer loop
         vertex -0.03605 0.0565554 0.186016
         vertex -0.03605 0.0564381 0.185822
         vertex -0.034725 0.0564381 0.185822
      endloop
   endfacet
   facet normal 0 -0.928977 0.370138
      outer loop
         vertex -0.03605 0.0566509 0.186223
         vertex -0.03605 0.0565554 0.186016
         vertex -0.034725 0.0565554 0.186016
      endloop
   endfacet
   facet normal 0 -0.96355 0.267528
      outer loop
         vertex -0.03605 0.0567235 0.186438
         vertex -0.03605 0.0566509 0.186223
         vertex -0.034725 0.0566509 0.186223
      endloop
   endfacet
   facet normal 0 -0.986827 0.161782
      outer loop
         vertex -0.03605 0.0567723 0.18666
         vertex -0.03605 0.0567235 0.186438
         vertex -0.034725 0.0567235 0.186438
      endloop
   endfacet
   facet normal 0 -0.998533 0.0541389
      outer loop
         vertex -0.03605 0.0567969 0.186886
         vertex -0.03605 0.0567723 0.18666
         vertex -0.034725 0.0567723 0.18666
      endloop
   endfacet
   facet normal 0 -0.998533 -0.0541389
      outer loop
         vertex -0.03605 0.0567969 0.187114
         vertex -0.03605 0.0567969 0.186886
         vertex -0.034725 0.0567969 0.186886
      endloop
   endfacet
   facet normal 0 -0.986827 -0.161782
      outer loop
         vertex -0.03605 0.0567723 0.18734
         vertex -0.03605 0.0567969 0.187114
         vertex -0.034725 0.0567969 0.187114
      endloop
   endfacet
   facet normal 0 -0.96355 -0.267528
      outer loop
         vertex -0.03605 0.0567235 0.187562
         vertex -0.03605 0.0567723 0.18734
         vertex -0.034725 0.0567723 0.18734
      endloop
   endfacet
   facet normal 0 -0.928977 -0.370138
      outer loop
         vertex -0.03605 0.0566509 0.187777
         vertex -0.03605 0.0567235 0.187562
         vertex -0.034725 0.0567235 0.187562
      endloop
   endfacet
   facet normal 0 -0.883512 -0.468408
      outer loop
         vertex -0.03605 0.0565554 0.187984
         vertex -0.03605 0.0566509 0.187777
         vertex -0.034725 0.0566509 0.187777
      endloop
   endfacet
   facet normal 0 -0.827689 -0.561187
      outer loop
         vertex -0.03605 0.0564381 0.188178
         vertex -0.03605 0.0565554 0.187984
         vertex -0.034725 0.0565554 0.187984
      endloop
   endfacet
   facet normal 0 -0.762162 -0.647386
      outer loop
         vertex -0.03605 0.0563005 0.18836
         vertex -0.03605 0.0564381 0.188178
         vertex -0.034725 0.0564381 0.188178
      endloop
   endfacet
   facet normal 0 -0.687699 -0.725995
      outer loop
         vertex -0.03605 0.0561442 0.188525
         vertex -0.03605 0.0563005 0.18836
         vertex -0.034725 0.0563005 0.18836
      endloop
   endfacet
   facet normal 0 -0.605174 -0.796093
      outer loop
         vertex -0.03605 0.0559709 0.188672
         vertex -0.03605 0.0561442 0.188525
         vertex -0.034725 0.0561442 0.188525
      endloop
   endfacet
   facet normal 0 -0.515554 -0.856857
      outer loop
         vertex -0.03605 0.0557827 0.188799
         vertex -0.03605 0.0559709 0.188672
         vertex -0.034725 0.0559709 0.188672
      endloop
   endfacet
   facet normal 0 -0.419889 -0.907575
      outer loop
         vertex -0.03605 0.0555818 0.188906
         vertex -0.03605 0.0557827 0.188799
         vertex -0.034725 0.0557827 0.188799
      endloop
   endfacet
   facet normal 0 -0.319302 -0.947653
      outer loop
         vertex -0.03605 0.0553705 0.18899
         vertex -0.03605 0.0555818 0.188906
         vertex -0.034725 0.0555818 0.188906
      endloop
   endfacet
   facet normal 0 -0.21497 -0.976621
      outer loop
         vertex -0.03605 0.0551514 0.189051
         vertex -0.03605 0.0553705 0.18899
         vertex -0.034725 0.0553705 0.18899
      endloop
   endfacet
   facet normal 0 -0.108119 -0.994138
      outer loop
         vertex -0.03605 0.054927 0.189088
         vertex -0.03605 0.0551514 0.189051
         vertex -0.034725 0.0551514 0.189051
      endloop
   endfacet
   facet normal 0 2.44929e-16 -1
      outer loop
         vertex -0.03605 0.0547 0.1891
         vertex -0.03605 0.054927 0.189088
         vertex -0.034725 0.054927 0.189088
      endloop
   endfacet
   facet normal 0 -0.108119 -0.994138
      outer loop
         vertex -0.034725 0.054927 0.189088
         vertex -0.034725 0.0547 0.1891
         vertex -0.03605 0.0547 0.1891
      endloop
   endfacet
   facet normal 0 -0.21497 -0.976621
      outer loop
         vertex -0.034725 0.0551514 0.189051
         vertex -0.034725 0.054927 0.189088
         vertex -0.03605 0.054927 0.189088
      endloop
   endfacet
   facet normal 0 -0.319302 -0.947653
      outer loop
         vertex -0.034725 0.0553705 0.18899
         vertex -0.034725 0.0551514 0.189051
         vertex -0.03605 0.0551514 0.189051
      endloop
   endfacet
   facet normal 0 -0.419889 -0.907575
      outer loop
         vertex -0.034725 0.0555818 0.188906
         vertex -0.034725 0.0553705 0.18899
         vertex -0.03605 0.0553705 0.18899
      endloop
   endfacet
   facet normal 0 -0.515554 -0.856857
      outer loop
         vertex -0.034725 0.0557827 0.188799
         vertex -0.034725 0.0555818 0.188906
         vertex -0.03605 0.0555818 0.188906
      endloop
   endfacet
   facet normal 0 -0.605174 -0.796093
      outer loop
         vertex -0.034725 0.0559709 0.188672
         vertex -0.034725 0.0557827 0.188799
         vertex -0.03605 0.0557827 0.188799
      endloop
   endfacet
   facet normal 0 -0.687699 -0.725995
      outer loop
         vertex -0.034725 0.0561442 0.188525
         vertex -0.034725 0.0559709 0.188672
         vertex -0.03605 0.0559709 0.188672
      endloop
   endfacet
   facet normal 0 -0.762162 -0.647386
      outer loop
         vertex -0.034725 0.0563005 0.18836
         vertex -0.034725 0.0561442 0.188525
         vertex -0.03605 0.0561442 0.188525
      endloop
   endfacet
   facet normal 0 -0.827689 -0.561187
      outer loop
         vertex -0.034725 0.0564381 0.188178
         vertex -0.034725 0.0563005 0.18836
         vertex -0.03605 0.0563005 0.18836
      endloop
   endfacet
   facet normal 0 -0.883512 -0.468408
      outer loop
         vertex -0.034725 0.0565554 0.187984
         vertex -0.034725 0.0564381 0.188178
         vertex -0.03605 0.0564381 0.188178
      endloop
   endfacet
   facet normal 0 -0.928977 -0.370138
      outer loop
         vertex -0.034725 0.0566509 0.187777
         vertex -0.034725 0.0565554 0.187984
         vertex -0.03605 0.0565554 0.187984
      endloop
   endfacet
   facet normal 0 -0.96355 -0.267528
      outer loop
         vertex -0.034725 0.0567235 0.187562
         vertex -0.034725 0.0566509 0.187777
         vertex -0.03605 0.0566509 0.187777
      endloop
   endfacet
   facet normal 0 -0.986827 -0.161782
      outer loop
         vertex -0.034725 0.0567723 0.18734
         vertex -0.034725 0.0567235 0.187562
         vertex -0.03605 0.0567235 0.187562
      endloop
   endfacet
   facet normal 0 -0.998533 -0.0541389
      outer loop
         vertex -0.034725 0.0567969 0.187114
         vertex -0.034725 0.0567723 0.18734
         vertex -0.03605 0.0567723 0.18734
      endloop
   endfacet
   facet normal 0 -0.998533 0.0541389
      outer loop
         vertex -0.034725 0.0567969 0.186886
         vertex -0.034725 0.0567969 0.187114
         vertex -0.03605 0.0567969 0.187114
      endloop
   endfacet
   facet normal 0 -0.986827 0.161782
      outer loop
         vertex -0.034725 0.0567723 0.18666
         vertex -0.034725 0.0567969 0.186886
         vertex -0.03605 0.0567969 0.186886
      endloop
   endfacet
   facet normal 0 -0.96355 0.267528
      outer loop
         vertex -0.034725 0.0567235 0.186438
         vertex -0.034725 0.0567723 0.18666
         vertex -0.03605 0.0567723 0.18666
      endloop
   endfacet
   facet normal 0 -0.928977 0.370138
      outer loop
         vertex -0.034725 0.0566509 0.186223
         vertex -0.034725 0.0567235 0.186438
         vertex -0.03605 0.0567235 0.186438
      endloop
   endfacet
   facet normal 0 -0.883512 0.468408
      outer loop
         vertex -0.034725 0.0565554 0.186016
         vertex -0.034725 0.0566509 0.186223
         vertex -0.03605 0.0566509 0.186223
      endloop
   endfacet
   facet normal 0 -0.827689 0.561187
      outer loop
         vertex -0.034725 0.0564381 0.185822
         vertex -0.034725 0.0565554 0.186016
         vertex -0.03605 0.0565554 0.186016
      endloop
   endfacet
   facet normal 0 -0.762162 0.647386
      outer loop
         vertex -0.034725 0.0563005 0.18564
         vertex -0.034725 0.0564381 0.185822
         vertex -0.03605 0.0564381 0.185822
      endloop
   endfacet
   facet normal 0 -0.687699 0.725995
      outer loop
         vertex -0.034725 0.0561442 0.185475
         vertex -0.034725 0.0563005 0.18564
         vertex -0.03605 0.0563005 0.18564
      endloop
   endfacet
   facet normal 0 -0.605174 0.796093
      outer loop
         vertex -0.034725 0.0559709 0.185328
         vertex -0.034725 0.0561442 0.185475
         vertex -0.03605 0.0561442 0.185475
      endloop
   endfacet
   facet normal 0 -0.515554 0.856857
      outer loop
         vertex -0.034725 0.0557827 0.185201
         vertex -0.034725 0.0559709 0.185328
         vertex -0.03605 0.0559709 0.185328
      endloop
   endfacet
   facet normal 0 -0.419889 0.907575
      outer loop
         vertex -0.034725 0.0555818 0.185094
         vertex -0.034725 0.0557827 0.185201
         vertex -0.03605 0.0557827 0.185201
      endloop
   endfacet
   facet normal 0 -0.319302 0.947653
      outer loop
         vertex -0.034725 0.0553705 0.18501
         vertex -0.034725 0.0555818 0.185094
         vertex -0.03605 0.0555818 0.185094
      endloop
   endfacet
   facet normal 0 -0.21497 0.976621
      outer loop
         vertex -0.034725 0.0551514 0.184949
         vertex -0.034725 0.0553705 0.18501
         vertex -0.03605 0.0553705 0.18501
      endloop
   endfacet
   facet normal 0 -0.108119 0.994138
      outer loop
         vertex -0.034725 0.054927 0.184912
         vertex -0.034725 0.0551514 0.184949
         vertex -0.03605 0.0551514 0.184949
      endloop
   endfacet
   facet normal 0 -1.22465e-16 1
      outer loop
         vertex -0.034725 0.0547 0.1849
         vertex -0.034725 0.054927 0.184912
         vertex -0.03605 0.054927 0.184912
      endloop
   endfacet
   facet normal 0 0.108119 0.994138
      outer loop
         vertex -0.034725 0.054473 0.184912
         vertex -0.034725 0.0547 0.1849
         vertex -0.03605 0.0547 0.1849
      endloop
   endfacet
   facet normal 0 0.21497 0.976621
      outer loop
         vertex -0.034725 0.0542486 0.184949
         vertex -0.034725 0.054473 0.184912
         vertex -0.03605 0.054473 0.184912
      endloop
   endfacet
   facet normal 0 0.319302 0.947653
      outer loop
         vertex -0.034725 0.0540295 0.18501
         vertex -0.034725 0.0542486 0.184949
         vertex -0.03605 0.0542486 0.184949
      endloop
   endfacet
   facet normal 0 0.419889 0.907575
      outer loop
         vertex -0.034725 0.0538182 0.185094
         vertex -0.034725 0.0540295 0.18501
         vertex -0.03605 0.0540295 0.18501
      endloop
   endfacet
   facet normal 0 0.515554 0.856857
      outer loop
         vertex -0.034725 0.0536173 0.185201
         vertex -0.034725 0.0538182 0.185094
         vertex -0.03605 0.0538182 0.185094
      endloop
   endfacet
   facet normal 0 0.605174 0.796093
      outer loop
         vertex -0.034725 0.0534291 0.185328
         vertex -0.034725 0.0536173 0.185201
         vertex -0.03605 0.0536173 0.185201
      endloop
   endfacet
   facet normal 0 0.687699 0.725995
      outer loop
         vertex -0.034725 0.0532558 0.185475
         vertex -0.034725 0.0534291 0.185328
         vertex -0.03605 0.0534291 0.185328
      endloop
   endfacet
   facet normal 0 0.762162 0.647386
      outer loop
         vertex -0.034725 0.0530995 0.18564
         vertex -0.034725 0.0532558 0.185475
         vertex -0.03605 0.0532558 0.185475
      endloop
   endfacet
   facet normal 0 0.827689 0.561187
      outer loop
         vertex -0.034725 0.0529619 0.185822
         vertex -0.034725 0.0530995 0.18564
         vertex -0.03605 0.0530995 0.18564
      endloop
   endfacet
   facet normal 0 0.883512 0.468408
      outer loop
         vertex -0.034725 0.0528446 0.186016
         vertex -0.034725 0.0529619 0.185822
         vertex -0.03605 0.0529619 0.185822
      endloop
   endfacet
   facet normal 0 0.928977 0.370138
      outer loop
         vertex -0.034725 0.0527491 0.186223
         vertex -0.034725 0.0528446 0.186016
         vertex -0.03605 0.0528446 0.186016
      endloop
   endfacet
   facet normal 0 0.96355 0.267528
      outer loop
         vertex -0.034725 0.0526765 0.186438
         vertex -0.034725 0.0527491 0.186223
         vertex -0.03605 0.0527491 0.186223
      endloop
   endfacet
   facet normal 0 0.986827 0.161782
      outer loop
         vertex -0.034725 0.0526277 0.18666
         vertex -0.034725 0.0526765 0.186438
         vertex -0.03605 0.0526765 0.186438
      endloop
   endfacet
   facet normal 0 0.998533 0.0541389
      outer loop
         vertex -0.034725 0.0526031 0.186886
         vertex -0.034725 0.0526277 0.18666
         vertex -0.03605 0.0526277 0.18666
      endloop
   endfacet
   facet normal 0 0.998533 -0.0541389
      outer loop
         vertex -0.034725 0.0526031 0.187114
         vertex -0.034725 0.0526031 0.186886
         vertex -0.03605 0.0526031 0.186886
      endloop
   endfacet
   facet normal 0 0.986827 -0.161782
      outer loop
         vertex -0.034725 0.0526277 0.18734
         vertex -0.034725 0.0526031 0.187114
         vertex -0.03605 0.0526031 0.187114
      endloop
   endfacet
   facet normal 0 0.96355 -0.267528
      outer loop
         vertex -0.034725 0.0526765 0.187562
         vertex -0.034725 0.0526277 0.18734
         vertex -0.03605 0.0526277 0.18734
      endloop
   endfacet
   facet normal 0 0.928977 -0.370138
      outer loop
         vertex -0.034725 0.0527491 0.187777
         vertex -0.034725 0.0526765 0.187562
         vertex -0.03605 0.0526765 0.187562
      endloop
   endfacet
   facet normal 0 0.883512 -0.468408
      outer loop
         vertex -0.034725 0.0528446 0.187984
         vertex -0.034725 0.0527491 0.187777
         vertex -0.03605 0.0527491 0.187777
      endloop
   endfacet
   facet normal 0 0.827689 -0.561187
      outer loop
         vertex -0.034725 0.0529619 0.188178
         vertex -0.034725 0.0528446 0.187984
         vertex -0.03605 0.0528446 0.187984
      endloop
   endfacet
   facet normal 0 0.762162 -0.647386
      outer loop
         vertex -0.034725 0.0530995 0.18836
         vertex -0.034725 0.0529619 0.188178
         vertex -0.03605 0.0529619 0.188178
      endloop
   endfacet
   facet normal 0 0.687699 -0.725995
      outer loop
         vertex -0.034725 0.0532558 0.188525
         vertex -0.034725 0.0530995 0.18836
         vertex -0.03605 0.0530995 0.18836
      endloop
   endfacet
   facet normal 0 0.605174 -0.796093
      outer loop
         vertex -0.034725 0.0534291 0.188672
         vertex -0.034725 0.0532558 0.188525
         vertex -0.03605 0.0532558 0.188525
      endloop
   endfacet
   facet normal 0 0.515554 -0.856857
      outer loop
         vertex -0.034725 0.0536173 0.188799
         vertex -0.034725 0.0534291 0.188672
         vertex -0.03605 0.0534291 0.188672
      endloop
   endfacet
   facet normal 0 0.419889 -0.907575
      outer loop
         vertex -0.034725 0.0538182 0.188906
         vertex -0.034725 0.0536173 0.188799
         vertex -0.03605 0.0536173 0.188799
      endloop
   endfacet
   facet normal 0 0.319302 -0.947653
      outer loop
         vertex -0.034725 0.0540295 0.18899
         vertex -0.034725 0.0538182 0.188906
         vertex -0.03605 0.0538182 0.188906
      endloop
   endfacet
   facet normal 0 0.21497 -0.976621
      outer loop
         vertex -0.034725 0.0542486 0.189051
         vertex -0.034725 0.0540295 0.18899
         vertex -0.03605 0.0540295 0.18899
      endloop
   endfacet
   facet normal 0 0.108119 -0.994138
      outer loop
         vertex -0.034725 0.054473 0.189088
         vertex -0.034725 0.0542486 0.189051
         vertex -0.03605 0.0542486 0.189051
      endloop
   endfacet
   facet normal 0 2.44929e-16 -1
      outer loop
         vertex -0.034725 0.0547 0.1891
         vertex -0.034725 0.054473 0.189088
         vertex -0.03605 0.054473 0.189088
      endloop
   endfacet
endsolid Battery spacer. Units = meters