solid Bearing. STL generated by ONSHAPE BY PTC INC, 1.216. Units = meters
   facet normal 0.108119 0 -0.994138
      outer loop
         vertex -0.000162179 0 0.00149121
         vertex 0 0 0.0015
         vertex 0 -0.003 0.0015
      endloop
   endfacet
   facet normal 0.21497 0 -0.976621
      outer loop
         vertex -0.000322456 0 0.00146493
         vertex -0.000162179 0 0.00149121
         vertex -0.000162179 -0.003 0.00149121
      endloop
   endfacet
   facet normal 0.319302 0 -0.947653
      outer loop
         vertex -0.000478952 0 0.00142148
         vertex -0.000322456 0 0.00146493
         vertex -0.000322456 -0.003 0.00146493
      endloop
   endfacet
   facet normal 0.419889 0 -0.907575
      outer loop
         vertex -0.000629834 0 0.00136136
         vertex -0.000478952 0 0.00142148
         vertex -0.000478952 -0.003 0.00142148
      endloop
   endfacet
   facet normal 0.515554 0 -0.856857
      outer loop
         vertex -0.000773331 0 0.00128529
         vertex -0.000629834 0 0.00136136
         vertex -0.000629834 -0.003 0.00136136
      endloop
   endfacet
   facet normal 0.605174 0 -0.796093
      outer loop
         vertex -0.000907761 0 0.00119414
         vertex -0.000773331 0 0.00128529
         vertex -0.000773331 -0.003 0.00128529
      endloop
   endfacet
   facet normal 0.687699 0 -0.725995
      outer loop
         vertex -0.00103155 0 0.00108899
         vertex -0.000907761 0 0.00119414
         vertex -0.000907761 -0.003 0.00119414
      endloop
   endfacet
   facet normal 0.762162 0 -0.647386
      outer loop
         vertex -0.00114324 0 0.000971079
         vertex -0.00103155 0 0.00108899
         vertex -0.00103155 -0.003 0.00108899
      endloop
   endfacet
   facet normal 0.827689 0 -0.561187
      outer loop
         vertex -0.00124153 0 0.000841781
         vertex -0.00114324 0 0.000971079
         vertex -0.00114324 -0.003 0.000971079
      endloop
   endfacet
   facet normal 0.883512 0 -0.468408
      outer loop
         vertex -0.00132527 0 0.000702613
         vertex -0.00124153 0 0.000841781
         vertex -0.00124153 -0.003 0.000841781
      endloop
   endfacet
   facet normal 0.928977 0 -0.370138
      outer loop
         vertex -0.00139347 0 0.000555207
         vertex -0.00132527 0 0.000702613
         vertex -0.00132527 -0.003 0.000702613
      endloop
   endfacet
   facet normal 0.96355 0 -0.267528
      outer loop
         vertex -0.00144532 0 0.000401293
         vertex -0.00139347 0 0.000555207
         vertex -0.00139347 -0.003 0.000555207
      endloop
   endfacet
   facet normal 0.986827 0 -0.161782
      outer loop
         vertex -0.00148024 0 0.000242673
         vertex -0.00144532 0 0.000401293
         vertex -0.00144532 -0.003 0.000401293
      endloop
   endfacet
   facet normal 0.998533 0 -0.0541389
      outer loop
         vertex -0.0014978 0 8.12084e-05
         vertex -0.00148024 0 0.000242673
         vertex -0.00148024 -0.003 0.000242673
      endloop
   endfacet
   facet normal 0.998533 0 0.0541389
      outer loop
         vertex -0.0014978 0 -8.12084e-05
         vertex -0.0014978 0 8.12084e-05
         vertex -0.0014978 -0.003 8.12084e-05
      endloop
   endfacet
   facet normal 0.986827 0 0.161782
      outer loop
         vertex -0.00148024 0 -0.000242673
         vertex -0.0014978 0 -8.12084e-05
         vertex -0.0014978 -0.003 -8.12084e-05
      endloop
   endfacet
   facet normal 0.96355 0 0.267528
      outer loop
         vertex -0.00144532 0 -0.000401293
         vertex -0.00148024 0 -0.000242673
         vertex -0.00148024 -0.003 -0.000242673
      endloop
   endfacet
   facet normal 0.928977 0 0.370138
      outer loop
         vertex -0.00139347 0 -0.000555207
         vertex -0.00144532 0 -0.000401293
         vertex -0.00144532 -0.003 -0.000401293
      endloop
   endfacet
   facet normal 0.883512 0 0.468408
      outer loop
         vertex -0.00132527 0 -0.000702613
         vertex -0.00139347 0 -0.000555207
         vertex -0.00139347 -0.003 -0.000555207
      endloop
   endfacet
   facet normal 0.827689 0 0.561187
      outer loop
         vertex -0.00124153 0 -0.000841781
         vertex -0.00132527 0 -0.000702613
         vertex -0.00132527 -0.003 -0.000702613
      endloop
   endfacet
   facet normal 0.762162 0 0.647386
      outer loop
         vertex -0.00114324 0 -0.000971079
         vertex -0.00124153 0 -0.000841781
         vertex -0.00124153 -0.003 -0.000841781
      endloop
   endfacet
   facet normal 0.687699 0 0.725995
      outer loop
         vertex -0.00103155 0 -0.00108899
         vertex -0.00114324 0 -0.000971079
         vertex -0.00114324 -0.003 -0.000971079
      endloop
   endfacet
   facet normal 0.605174 0 0.796093
      outer loop
         vertex -0.000907761 0 -0.00119414
         vertex -0.00103155 0 -0.00108899
         vertex -0.00103155 -0.003 -0.00108899
      endloop
   endfacet
   facet normal 0.515554 0 0.856857
      outer loop
         vertex -0.000773331 0 -0.00128529
         vertex -0.000907761 0 -0.00119414
         vertex -0.000907761 -0.003 -0.00119414
      endloop
   endfacet
   facet normal 0.419889 0 0.907575
      outer loop
         vertex -0.000629834 0 -0.00136136
         vertex -0.000773331 0 -0.00128529
         vertex -0.000773331 -0.003 -0.00128529
      endloop
   endfacet
   facet normal 0.319302 0 0.947653
      outer loop
         vertex -0.000478952 0 -0.00142148
         vertex -0.000629834 0 -0.00136136
         vertex -0.000629834 -0.003 -0.00136136
      endloop
   endfacet
   facet normal 0.21497 0 0.976621
      outer loop
         vertex -0.000322456 0 -0.00146493
         vertex -0.000478952 0 -0.00142148
         vertex -0.000478952 -0.003 -0.00142148
      endloop
   endfacet
   facet normal 0.108119 0 0.994138
      outer loop
         vertex -0.000162179 0 -0.00149121
         vertex -0.000322456 0 -0.00146493
         vertex -0.000322456 -0.003 -0.00146493
      endloop
   endfacet
   facet normal -1.22465e-16 0 1
      outer loop
         vertex 5.51091e-19 0 -0.0015
         vertex -0.000162179 0 -0.00149121
         vertex -0.000162179 -0.003 -0.00149121
      endloop
   endfacet
   facet normal -0.108119 0 0.994138
      outer loop
         vertex 0.000162179 0 -0.00149121
         vertex 5.51091e-19 0 -0.0015
         vertex 1.83697e-19 -0.003 -0.0015
      endloop
   endfacet
   facet normal -0.21497 0 0.976621
      outer loop
         vertex 0.000322456 0 -0.00146493
         vertex 0.000162179 0 -0.00149121
         vertex 0.000162179 -0.003 -0.00149121
      endloop
   endfacet
   facet normal -0.319302 0 0.947653
      outer loop
         vertex 0.000478952 0 -0.00142148
         vertex 0.000322456 0 -0.00146493
         vertex 0.000322456 -0.003 -0.00146493
      endloop
   endfacet
   facet normal -0.419889 0 0.907575
      outer loop
         vertex 0.000629834 0 -0.00136136
         vertex 0.000478952 0 -0.00142148
         vertex 0.000478952 -0.003 -0.00142148
      endloop
   endfacet
   facet normal -0.515554 0 0.856857
      outer loop
         vertex 0.000773331 0 -0.00128529
         vertex 0.000629834 0 -0.00136136
         vertex 0.000629834 -0.003 -0.00136136
      endloop
   endfacet
   facet normal -0.605174 0 0.796093
      outer loop
         vertex 0.000907761 0 -0.00119414
         vertex 0.000773331 0 -0.00128529
         vertex 0.000773331 -0.003 -0.00128529
      endloop
   endfacet
   facet normal -0.687699 0 0.725995
      outer loop
         vertex 0.00103155 0 -0.00108899
         vertex 0.000907761 0 -0.00119414
         vertex 0.000907761 -0.003 -0.00119414
      endloop
   endfacet
   facet normal -0.762162 0 0.647386
      outer loop
         vertex 0.00114324 0 -0.000971079
         vertex 0.00103155 0 -0.00108899
         vertex 0.00103155 -0.003 -0.00108899
      endloop
   endfacet
   facet normal -0.827689 0 0.561187
      outer loop
         vertex 0.00124153 0 -0.000841781
         vertex 0.00114324 0 -0.000971079
         vertex 0.00114324 -0.003 -0.000971079
      endloop
   endfacet
   facet normal -0.883512 0 0.468408
      outer loop
         vertex 0.00132527 0 -0.000702613
         vertex 0.00124153 0 -0.000841781
         vertex 0.00124153 -0.003 -0.000841781
      endloop
   endfacet
   facet normal -0.928977 0 0.370138
      outer loop
         vertex 0.00139347 0 -0.000555207
         vertex 0.00132527 0 -0.000702613
         vertex 0.00132527 -0.003 -0.000702613
      endloop
   endfacet
   facet normal -0.96355 0 0.267528
      outer loop
         vertex 0.00144532 0 -0.000401293
         vertex 0.00139347 0 -0.000555207
         vertex 0.00139347 -0.003 -0.000555207
      endloop
   endfacet
   facet normal -0.986827 0 0.161782
      outer loop
         vertex 0.00148024 0 -0.000242673
         vertex 0.00144532 0 -0.000401293
         vertex 0.00144532 -0.003 -0.000401293
      endloop
   endfacet
   facet normal -0.998533 0 0.0541389
      outer loop
         vertex 0.0014978 0 -8.12084e-05
         vertex 0.00148024 0 -0.000242673
         vertex 0.00148024 -0.003 -0.000242673
      endloop
   endfacet
   facet normal -0.998533 0 -0.0541389
      outer loop
         vertex 0.0014978 0 8.12084e-05
         vertex 0.0014978 0 -8.12084e-05
         vertex 0.0014978 -0.003 -8.12084e-05
      endloop
   endfacet
   facet normal -0.986827 0 -0.161782
      outer loop
         vertex 0.00148024 0 0.000242673
         vertex 0.0014978 0 8.12084e-05
         vertex 0.0014978 -0.003 8.12084e-05
      endloop
   endfacet
   facet normal -0.96355 0 -0.267528
      outer loop
         vertex 0.00144532 0 0.000401293
         vertex 0.00148024 0 0.000242673
         vertex 0.00148024 -0.003 0.000242673
      endloop
   endfacet
   facet normal -0.928977 0 -0.370138
      outer loop
         vertex 0.00139347 0 0.000555207
         vertex 0.00144532 0 0.000401293
         vertex 0.00144532 -0.003 0.000401293
      endloop
   endfacet
   facet normal -0.883512 0 -0.468408
      outer loop
         vertex 0.00132527 0 0.000702613
         vertex 0.00139347 0 0.000555207
         vertex 0.00139347 -0.003 0.000555207
      endloop
   endfacet
   facet normal -0.827689 0 -0.561187
      outer loop
         vertex 0.00124153 0 0.000841781
         vertex 0.00132527 0 0.000702613
         vertex 0.00132527 -0.003 0.000702613
      endloop
   endfacet
   facet normal -0.762162 0 -0.647386
      outer loop
         vertex 0.00114324 0 0.000971079
         vertex 0.00124153 0 0.000841781
         vertex 0.00124153 -0.003 0.000841781
      endloop
   endfacet
   facet normal -0.687699 0 -0.725995
      outer loop
         vertex 0.00103155 0 0.00108899
         vertex 0.00114324 0 0.000971079
         vertex 0.00114324 -0.003 0.000971079
      endloop
   endfacet
   facet normal -0.605174 0 -0.796093
      outer loop
         vertex 0.000907761 0 0.00119414
         vertex 0.00103155 0 0.00108899
         vertex 0.00103155 -0.003 0.00108899
      endloop
   endfacet
   facet normal -0.515554 0 -0.856857
      outer loop
         vertex 0.000773331 0 0.00128529
         vertex 0.000907761 0 0.00119414
         vertex 0.000907761 -0.003 0.00119414
      endloop
   endfacet
   facet normal -0.419889 0 -0.907575
      outer loop
         vertex 0.000629834 0 0.00136136
         vertex 0.000773331 0 0.00128529
         vertex 0.000773331 -0.003 0.00128529
      endloop
   endfacet
   facet normal -0.319302 0 -0.947653
      outer loop
         vertex 0.000478952 0 0.00142148
         vertex 0.000629834 0 0.00136136
         vertex 0.000629834 -0.003 0.00136136
      endloop
   endfacet
   facet normal -0.21497 0 -0.976621
      outer loop
         vertex 0.000322456 0 0.00146493
         vertex 0.000478952 0 0.00142148
         vertex 0.000478952 -0.003 0.00142148
      endloop
   endfacet
   facet normal -0.108119 0 -0.994138
      outer loop
         vertex 0.000162179 0 0.00149121
         vertex 0.000322456 0 0.00146493
         vertex 0.000322456 -0.003 0.00146493
      endloop
   endfacet
   facet normal 2.44929e-16 0 -1
      outer loop
         vertex 0 0 0.0015
         vertex 0.000162179 0 0.00149121
         vertex 0.000162179 -0.003 0.00149121
      endloop
   endfacet
   facet normal -0.108119 0 -0.994138
      outer loop
         vertex 0.000162179 -0.003 0.00149121
         vertex 0 -0.003 0.0015
         vertex 0 0 0.0015
      endloop
   endfacet
   facet normal -0.21497 0 -0.976621
      outer loop
         vertex 0.000322456 -0.003 0.00146493
         vertex 0.000162179 -0.003 0.00149121
         vertex 0.000162179 0 0.00149121
      endloop
   endfacet
   facet normal -0.319302 0 -0.947653
      outer loop
         vertex 0.000478952 -0.003 0.00142148
         vertex 0.000322456 -0.003 0.00146493
         vertex 0.000322456 0 0.00146493
      endloop
   endfacet
   facet normal -0.419889 0 -0.907575
      outer loop
         vertex 0.000629834 -0.003 0.00136136
         vertex 0.000478952 -0.003 0.00142148
         vertex 0.000478952 0 0.00142148
      endloop
   endfacet
   facet normal -0.515554 0 -0.856857
      outer loop
         vertex 0.000773331 -0.003 0.00128529
         vertex 0.000629834 -0.003 0.00136136
         vertex 0.000629834 0 0.00136136
      endloop
   endfacet
   facet normal -0.605174 0 -0.796093
      outer loop
         vertex 0.000907761 -0.003 0.00119414
         vertex 0.000773331 -0.003 0.00128529
         vertex 0.000773331 0 0.00128529
      endloop
   endfacet
   facet normal -0.687699 0 -0.725995
      outer loop
         vertex 0.00103155 -0.003 0.00108899
         vertex 0.000907761 -0.003 0.00119414
         vertex 0.000907761 0 0.00119414
      endloop
   endfacet
   facet normal -0.762162 0 -0.647386
      outer loop
         vertex 0.00114324 -0.003 0.000971079
         vertex 0.00103155 -0.003 0.00108899
         vertex 0.00103155 0 0.00108899
      endloop
   endfacet
   facet normal -0.827689 0 -0.561187
      outer loop
         vertex 0.00124153 -0.003 0.000841781
         vertex 0.00114324 -0.003 0.000971079
         vertex 0.00114324 0 0.000971079
      endloop
   endfacet
   facet normal -0.883512 0 -0.468408
      outer loop
         vertex 0.00132527 -0.003 0.000702613
         vertex 0.00124153 -0.003 0.000841781
         vertex 0.00124153 0 0.000841781
      endloop
   endfacet
   facet normal -0.928977 0 -0.370138
      outer loop
         vertex 0.00139347 -0.003 0.000555207
         vertex 0.00132527 -0.003 0.000702613
         vertex 0.00132527 0 0.000702613
      endloop
   endfacet
   facet normal -0.96355 0 -0.267528
      outer loop
         vertex 0.00144532 -0.003 0.000401293
         vertex 0.00139347 -0.003 0.000555207
         vertex 0.00139347 0 0.000555207
      endloop
   endfacet
   facet normal -0.986827 0 -0.161782
      outer loop
         vertex 0.00148024 -0.003 0.000242673
         vertex 0.00144532 -0.003 0.000401293
         vertex 0.00144532 0 0.000401293
      endloop
   endfacet
   facet normal -0.998533 0 -0.0541389
      outer loop
         vertex 0.0014978 -0.003 8.12084e-05
         vertex 0.00148024 -0.003 0.000242673
         vertex 0.00148024 0 0.000242673
      endloop
   endfacet
   facet normal -0.998533 0 0.0541389
      outer loop
         vertex 0.0014978 -0.003 -8.12084e-05
         vertex 0.0014978 -0.003 8.12084e-05
         vertex 0.0014978 0 8.12084e-05
      endloop
   endfacet
   facet normal -0.986827 0 0.161782
      outer loop
         vertex 0.00148024 -0.003 -0.000242673
         vertex 0.0014978 -0.003 -8.12084e-05
         vertex 0.0014978 0 -8.12084e-05
      endloop
   endfacet
   facet normal -0.96355 0 0.267528
      outer loop
         vertex 0.00144532 -0.003 -0.000401293
         vertex 0.00148024 -0.003 -0.000242673
         vertex 0.00148024 0 -0.000242673
      endloop
   endfacet
   facet normal -0.928977 0 0.370138
      outer loop
         vertex 0.00139347 -0.003 -0.000555207
         vertex 0.00144532 -0.003 -0.000401293
         vertex 0.00144532 0 -0.000401293
      endloop
   endfacet
   facet normal -0.883512 0 0.468408
      outer loop
         vertex 0.00132527 -0.003 -0.000702613
         vertex 0.00139347 -0.003 -0.000555207
         vertex 0.00139347 0 -0.000555207
      endloop
   endfacet
   facet normal -0.827689 0 0.561187
      outer loop
         vertex 0.00124153 -0.003 -0.000841781
         vertex 0.00132527 -0.003 -0.000702613
         vertex 0.00132527 0 -0.000702613
      endloop
   endfacet
   facet normal -0.762162 0 0.647386
      outer loop
         vertex 0.00114324 -0.003 -0.000971079
         vertex 0.00124153 -0.003 -0.000841781
         vertex 0.00124153 0 -0.000841781
      endloop
   endfacet
   facet normal -0.687699 0 0.725995
      outer loop
         vertex 0.00103155 -0.003 -0.00108899
         vertex 0.00114324 -0.003 -0.000971079
         vertex 0.00114324 0 -0.000971079
      endloop
   endfacet
   facet normal -0.605174 0 0.796093
      outer loop
         vertex 0.000907761 -0.003 -0.00119414
         vertex 0.00103155 -0.003 -0.00108899
         vertex 0.00103155 0 -0.00108899
      endloop
   endfacet
   facet normal -0.515554 0 0.856857
      outer loop
         vertex 0.000773331 -0.003 -0.00128529
         vertex 0.000907761 -0.003 -0.00119414
         vertex 0.000907761 0 -0.00119414
      endloop
   endfacet
   facet normal -0.419889 0 0.907575
      outer loop
         vertex 0.000629834 -0.003 -0.00136136
         vertex 0.000773331 -0.003 -0.00128529
         vertex 0.000773331 0 -0.00128529
      endloop
   endfacet
   facet normal -0.319302 0 0.947653
      outer loop
         vertex 0.000478952 -0.003 -0.00142148
         vertex 0.000629834 -0.003 -0.00136136
         vertex 0.000629834 0 -0.00136136
      endloop
   endfacet
   facet normal -0.21497 0 0.976621
      outer loop
         vertex 0.000322456 -0.003 -0.00146493
         vertex 0.000478952 -0.003 -0.00142148
         vertex 0.000478952 0 -0.00142148
      endloop
   endfacet
   facet normal -0.108119 0 0.994138
      outer loop
         vertex 0.000162179 -0.003 -0.00149121
         vertex 0.000322456 -0.003 -0.00146493
         vertex 0.000322456 0 -0.00146493
      endloop
   endfacet
   facet normal -1.22465e-16 0 1
      outer loop
         vertex 1.83697e-19 -0.003 -0.0015
         vertex 0.000162179 -0.003 -0.00149121
         vertex 0.000162179 0 -0.00149121
      endloop
   endfacet
   facet normal 0.108119 0 0.994138
      outer loop
         vertex -0.000162179 -0.003 -0.00149121
         vertex 1.83697e-19 -0.003 -0.0015
         vertex 5.51091e-19 0 -0.0015
      endloop
   endfacet
   facet normal 0.21497 0 0.976621
      outer loop
         vertex -0.000322456 -0.003 -0.00146493
         vertex -0.000162179 -0.003 -0.00149121
         vertex -0.000162179 0 -0.00149121
      endloop
   endfacet
   facet normal 0.319302 0 0.947653
      outer loop
         vertex -0.000478952 -0.003 -0.00142148
         vertex -0.000322456 -0.003 -0.00146493
         vertex -0.000322456 0 -0.00146493
      endloop
   endfacet
   facet normal 0.419889 0 0.907575
      outer loop
         vertex -0.000629834 -0.003 -0.00136136
         vertex -0.000478952 -0.003 -0.00142148
         vertex -0.000478952 0 -0.00142148
      endloop
   endfacet
   facet normal 0.515554 0 0.856857
      outer loop
         vertex -0.000773331 -0.003 -0.00128529
         vertex -0.000629834 -0.003 -0.00136136
         vertex -0.000629834 0 -0.00136136
      endloop
   endfacet
   facet normal 0.605174 0 0.796093
      outer loop
         vertex -0.000907761 -0.003 -0.00119414
         vertex -0.000773331 -0.003 -0.00128529
         vertex -0.000773331 0 -0.00128529
      endloop
   endfacet
   facet normal 0.687699 0 0.725995
      outer loop
         vertex -0.00103155 -0.003 -0.00108899
         vertex -0.000907761 -0.003 -0.00119414
         vertex -0.000907761 0 -0.00119414
      endloop
   endfacet
   facet normal 0.762162 0 0.647386
      outer loop
         vertex -0.00114324 -0.003 -0.000971079
         vertex -0.00103155 -0.003 -0.00108899
         vertex -0.00103155 0 -0.00108899
      endloop
   endfacet
   facet normal 0.827689 0 0.561187
      outer loop
         vertex -0.00124153 -0.003 -0.000841781
         vertex -0.00114324 -0.003 -0.000971079
         vertex -0.00114324 0 -0.000971079
      endloop
   endfacet
   facet normal 0.883512 0 0.468408
      outer loop
         vertex -0.00132527 -0.003 -0.000702613
         vertex -0.00124153 -0.003 -0.000841781
         vertex -0.00124153 0 -0.000841781
      endloop
   endfacet
   facet normal 0.928977 0 0.370138
      outer loop
         vertex -0.00139347 -0.003 -0.000555207
         vertex -0.00132527 -0.003 -0.000702613
         vertex -0.00132527 0 -0.000702613
      endloop
   endfacet
   facet normal 0.96355 0 0.267528
      outer loop
         vertex -0.00144532 -0.003 -0.000401293
         vertex -0.00139347 -0.003 -0.000555207
         vertex -0.00139347 0 -0.000555207
      endloop
   endfacet
   facet normal 0.986827 0 0.161782
      outer loop
         vertex -0.00148024 -0.003 -0.000242673
         vertex -0.00144532 -0.003 -0.000401293
         vertex -0.00144532 0 -0.000401293
      endloop
   endfacet
   facet normal 0.998533 0 0.0541389
      outer loop
         vertex -0.0014978 -0.003 -8.12084e-05
         vertex -0.00148024 -0.003 -0.000242673
         vertex -0.00148024 0 -0.000242673
      endloop
   endfacet
   facet normal 0.998533 0 -0.0541389
      outer loop
         vertex -0.0014978 -0.003 8.12084e-05
         vertex -0.0014978 -0.003 -8.12084e-05
         vertex -0.0014978 0 -8.12084e-05
      endloop
   endfacet
   facet normal 0.986827 0 -0.161782
      outer loop
         vertex -0.00148024 -0.003 0.000242673
         vertex -0.0014978 -0.003 8.12084e-05
         vertex -0.0014978 0 8.12084e-05
      endloop
   endfacet
   facet normal 0.96355 0 -0.267528
      outer loop
         vertex -0.00144532 -0.003 0.000401293
         vertex -0.00148024 -0.003 0.000242673
         vertex -0.00148024 0 0.000242673
      endloop
   endfacet
   facet normal 0.928977 0 -0.370138
      outer loop
         vertex -0.00139347 -0.003 0.000555207
         vertex -0.00144532 -0.003 0.000401293
         vertex -0.00144532 0 0.000401293
      endloop
   endfacet
   facet normal 0.883512 0 -0.468408
      outer loop
         vertex -0.00132527 -0.003 0.000702613
         vertex -0.00139347 -0.003 0.000555207
         vertex -0.00139347 0 0.000555207
      endloop
   endfacet
   facet normal 0.827689 0 -0.561187
      outer loop
         vertex -0.00124153 -0.003 0.000841781
         vertex -0.00132527 -0.003 0.000702613
         vertex -0.00132527 0 0.000702613
      endloop
   endfacet
   facet normal 0.762162 0 -0.647386
      outer loop
         vertex -0.00114324 -0.003 0.000971079
         vertex -0.00124153 -0.003 0.000841781
         vertex -0.00124153 0 0.000841781
      endloop
   endfacet
   facet normal 0.687699 0 -0.725995
      outer loop
         vertex -0.00103155 -0.003 0.00108899
         vertex -0.00114324 -0.003 0.000971079
         vertex -0.00114324 0 0.000971079
      endloop
   endfacet
   facet normal 0.605174 0 -0.796093
      outer loop
         vertex -0.000907761 -0.003 0.00119414
         vertex -0.00103155 -0.003 0.00108899
         vertex -0.00103155 0 0.00108899
      endloop
   endfacet
   facet normal 0.515554 0 -0.856857
      outer loop
         vertex -0.000773331 -0.003 0.00128529
         vertex -0.000907761 -0.003 0.00119414
         vertex -0.000907761 0 0.00119414
      endloop
   endfacet
   facet normal 0.419889 0 -0.907575
      outer loop
         vertex -0.000629834 -0.003 0.00136136
         vertex -0.000773331 -0.003 0.00128529
         vertex -0.000773331 0 0.00128529
      endloop
   endfacet
   facet normal 0.319302 0 -0.947653
      outer loop
         vertex -0.000478952 -0.003 0.00142148
         vertex -0.000629834 -0.003 0.00136136
         vertex -0.000629834 0 0.00136136
      endloop
   endfacet
   facet normal 0.21497 0 -0.976621
      outer loop
         vertex -0.000322456 -0.003 0.00146493
         vertex -0.000478952 -0.003 0.00142148
         vertex -0.000478952 0 0.00142148
      endloop
   endfacet
   facet normal 0.108119 0 -0.994138
      outer loop
         vertex -0.000162179 -0.003 0.00149121
         vertex -0.000322456 -0.003 0.00146493
         vertex -0.000322456 0 0.00146493
      endloop
   endfacet
   facet normal 2.44929e-16 0 -1
      outer loop
         vertex 0 -0.003 0.0015
         vertex -0.000162179 -0.003 0.00149121
         vertex -0.000162179 0 0.00149121
      endloop
   endfacet
   facet normal 0 -1 0
      outer loop
         vertex -0.00111756 -0.003 0.00331679
         vertex -0.000478952 -0.003 0.00142148
         vertex -0.000322456 -0.003 0.00146493
      endloop
   endfacet
   facet normal 0 -1 0
      outer loop
         vertex -0.00146961 -0.003 0.00317651
         vertex -0.000629834 -0.003 0.00136136
         vertex -0.000478952 -0.003 0.00142148
      endloop
   endfacet
   facet normal 0 -1 0
      outer loop
         vertex -0.000478952 -0.003 0.00142148
         vertex -0.00111756 -0.003 0.00331679
         vertex -0.00146961 -0.003 0.00317651
      endloop
   endfacet
   facet normal 0 -1 0
      outer loop
         vertex -0.00146961 -0.003 0.00317651
         vertex -0.00180444 -0.003 0.002999
         vertex -0.000773331 -0.003 0.00128529
      endloop
   endfacet
   facet normal 0 -1 0
      outer loop
         vertex -0.00211811 -0.003 0.00278633
         vertex -0.000907761 -0.003 0.00119414
         vertex -0.000773331 -0.003 0.00128529
      endloop
   endfacet
   facet normal 0 -1 0
      outer loop
         vertex -0.00211811 -0.003 0.00278633
         vertex -0.00240695 -0.003 0.00254098
         vertex -0.00103155 -0.003 0.00108899
      endloop
   endfacet
   facet normal 0 -1 0
      outer loop
         vertex -0.000773331 -0.003 0.00128529
         vertex -0.000629834 -0.003 0.00136136
         vertex -0.00146961 -0.003 0.00317651
      endloop
   endfacet
   facet normal 0 -1 0
      outer loop
         vertex -0.00103155 -0.003 0.00108899
         vertex -0.000907761 -0.003 0.00119414
         vertex -0.00211811 -0.003 0.00278633
      endloop
   endfacet
   facet normal 0 -1 0
      outer loop
         vertex -0.00240695 -0.003 0.00254098
         vertex -0.00266757 -0.003 0.00226585
         vertex -0.00114324 -0.003 0.000971079
      endloop
   endfacet
   facet normal 0 -1 0
      outer loop
         vertex -0.00266757 -0.003 0.00226585
         vertex -0.00289691 -0.003 0.00196415
         vertex -0.00124153 -0.003 0.000841781
      endloop
   endfacet
   facet normal 0 -1 0
      outer loop
         vertex -0.00337242 -0.003 0.000936349
         vertex -0.00144532 -0.003 0.000401293
         vertex -0.00139347 -0.003 0.000555207
      endloop
   endfacet
   facet normal 0 -1 0
      outer loop
         vertex -0.00345389 -0.003 0.000566237
         vertex -0.00148024 -0.003 0.000242673
         vertex -0.00144532 -0.003 0.000401293
      endloop
   endfacet
   facet normal 0 -1 0
      outer loop
         vertex 0.00180444 -0.003 -0.002999
         vertex 0.000773331 -0.003 -0.00128529
         vertex 0.000629834 -0.003 -0.00136136
      endloop
   endfacet
   facet normal 0 -1 0
      outer loop
         vertex 0.00180444 -0.003 -0.002999
         vertex 0.00211811 -0.003 -0.00278633
         vertex 0.000907761 -0.003 -0.00119414
      endloop
   endfacet
   facet normal 0 -1 0
      outer loop
         vertex -0.000773331 -0.003 0.00128529
         vertex -0.00180444 -0.003 0.002999
         vertex -0.00211811 -0.003 0.00278633
      endloop
   endfacet
   facet normal 0 -1 0
      outer loop
         vertex -0.00124153 -0.003 0.000841781
         vertex -0.00114324 -0.003 0.000971079
         vertex -0.00266757 -0.003 0.00226585
      endloop
   endfacet
   facet normal 0 -1 0
      outer loop
         vertex -0.00144532 -0.003 0.000401293
         vertex -0.00337242 -0.003 0.000936349
         vertex -0.00345389 -0.003 0.000566237
      endloop
   endfacet
   facet normal 0 -1 0
      outer loop
         vertex -0.00345389 -0.003 0.000566237
         vertex -0.00349487 -0.003 0.000189486
         vertex -0.0014978 -0.003 8.12084e-05
      endloop
   endfacet
   facet normal 0 -1 0
      outer loop
         vertex -0.00211811 -0.003 -0.00278633
         vertex -0.000907761 -0.003 -0.00119414
         vertex -0.00103155 -0.003 -0.00108899
      endloop
   endfacet
   facet normal 0 -1 0
      outer loop
         vertex -0.00180444 -0.003 -0.002999
         vertex -0.000773331 -0.003 -0.00128529
         vertex -0.000907761 -0.003 -0.00119414
      endloop
   endfacet
   facet normal 0 -1 0
      outer loop
         vertex 0.000907761 -0.003 -0.00119414
         vertex 0.000773331 -0.003 -0.00128529
         vertex 0.00180444 -0.003 -0.002999
      endloop
   endfacet
   facet normal 0 -1 0
      outer loop
         vertex 0.00211811 -0.003 -0.00278633
         vertex 0.00240695 -0.003 -0.00254098
         vertex 0.00103155 -0.003 -0.00108899
      endloop
   endfacet
   facet normal 0 -1 0
      outer loop
         vertex 0.00266757 -0.003 -0.00226585
         vertex 0.00114324 -0.003 -0.000971079
         vertex 0.00103155 -0.003 -0.00108899
      endloop
   endfacet
   facet normal 0 -1 0
      outer loop
         vertex 0.00266757 -0.003 -0.00226585
         vertex 0.00289691 -0.003 -0.00196415
         vertex 0.00124153 -0.003 -0.000841781
      endloop
   endfacet
   facet normal 0 -1 0
      outer loop
         vertex 0.00240695 -0.003 0.00254098
         vertex 0.00103155 -0.003 0.00108899
         vertex 0.00114324 -0.003 0.000971079
      endloop
   endfacet
   facet normal 0 -1 0
      outer loop
         vertex 0.00240695 -0.003 0.00254098
         vertex 0.00211811 -0.003 0.00278633
         vertex 0.000907761 -0.003 0.00119414
      endloop
   endfacet
   facet normal 0 -1 0
      outer loop
         vertex 0.00211811 -0.003 0.00278633
         vertex 0.00180444 -0.003 0.002999
         vertex 0.000773331 -0.003 0.00128529
      endloop
   endfacet
   facet normal 0 -1 0
      outer loop
         vertex 0.00180444 -0.003 0.002999
         vertex 0.00146961 -0.003 0.00317651
         vertex 0.000629834 -0.003 0.00136136
      endloop
   endfacet
   facet normal 0 -1 0
      outer loop
         vertex -0.00114324 -0.003 0.000971079
         vertex -0.00103155 -0.003 0.00108899
         vertex -0.00240695 -0.003 0.00254098
      endloop
   endfacet
   facet normal 0 -1 0
      outer loop
         vertex -0.00289691 -0.003 0.00196415
         vertex -0.00309229 -0.003 0.00163943
         vertex -0.00132527 -0.003 0.000702613
      endloop
   endfacet
   facet normal 0 -1 0
      outer loop
         vertex -0.00325142 -0.003 0.00129548
         vertex -0.00139347 -0.003 0.000555207
         vertex -0.00132527 -0.003 0.000702613
      endloop
   endfacet
   facet normal 0 -1 0
      outer loop
         vertex -0.0014978 -0.003 8.12084e-05
         vertex -0.00148024 -0.003 0.000242673
         vertex -0.00345389 -0.003 0.000566237
      endloop
   endfacet
   facet normal 0 -1 0
      outer loop
         vertex -0.00349487 -0.003 0.000189486
         vertex -0.00349487 -0.003 -0.000189486
         vertex -0.0014978 -0.003 -8.12084e-05
      endloop
   endfacet
   facet normal 0 -1 0
      outer loop
         vertex -0.00349487 -0.003 -0.000189486
         vertex -0.00345389 -0.003 -0.000566237
         vertex -0.00148024 -0.003 -0.000242673
      endloop
   endfacet
   facet normal 0 -1 0
      outer loop
         vertex -0.00337242 -0.003 -0.000936349
         vertex -0.00144532 -0.003 -0.000401293
         vertex -0.00148024 -0.003 -0.000242673
      endloop
   endfacet
   facet normal 0 -1 0
      outer loop
         vertex -0.00325142 -0.003 -0.00129548
         vertex -0.00139347 -0.003 -0.000555207
         vertex -0.00144532 -0.003 -0.000401293
      endloop
   endfacet
   facet normal 0 -1 0
      outer loop
         vertex -0.000907761 -0.003 -0.00119414
         vertex -0.00211811 -0.003 -0.00278633
         vertex -0.00180444 -0.003 -0.002999
      endloop
   endfacet
   facet normal 0 -1 0
      outer loop
         vertex -0.00180444 -0.003 -0.002999
         vertex -0.00146961 -0.003 -0.00317651
         vertex -0.000629834 -0.003 -0.00136136
      endloop
   endfacet
   facet normal 0 -1 0
      outer loop
         vertex 0.00103155 -0.003 -0.00108899
         vertex 0.000907761 -0.003 -0.00119414
         vertex 0.00211811 -0.003 -0.00278633
      endloop
   endfacet
   facet normal 0 -1 0
      outer loop
         vertex 0.00124153 -0.003 -0.000841781
         vertex 0.00114324 -0.003 -0.000971079
         vertex 0.00266757 -0.003 -0.00226585
      endloop
   endfacet
   facet normal 0 -1 0
      outer loop
         vertex 0.00309229 -0.003 -0.00163943
         vertex 0.00132527 -0.003 -0.000702613
         vertex 0.00124153 -0.003 -0.000841781
      endloop
   endfacet
   facet normal 0 -1 0
      outer loop
         vertex 0.00309229 -0.003 -0.00163943
         vertex 0.00325142 -0.003 -0.00129548
         vertex 0.00139347 -0.003 -0.000555207
      endloop
   endfacet
   facet normal 0 -1 0
      outer loop
         vertex 0.00349487 -0.003 -0.000189486
         vertex 0.0014978 -0.003 -8.12084e-05
         vertex 0.00148024 -0.003 -0.000242673
      endloop
   endfacet
   facet normal 0 -1 0
      outer loop
         vertex 0.00349487 -0.003 -0.000189486
         vertex 0.00349487 -0.003 0.000189486
         vertex 0.0014978 -0.003 8.12084e-05
      endloop
   endfacet
   facet normal 0 -1 0
      outer loop
         vertex 0.00325142 -0.003 0.00129548
         vertex 0.00139347 -0.003 0.000555207
         vertex 0.00144532 -0.003 0.000401293
      endloop
   endfacet
   facet normal 0 -1 0
      outer loop
         vertex 0.00325142 -0.003 0.00129548
         vertex 0.00309229 -0.003 0.00163943
         vertex 0.00132527 -0.003 0.000702613
      endloop
   endfacet
   facet normal 0 -1 0
      outer loop
         vertex 0.000907761 -0.003 0.00119414
         vertex 0.00103155 -0.003 0.00108899
         vertex 0.00240695 -0.003 0.00254098
      endloop
   endfacet
   facet normal 0 -1 0
      outer loop
         vertex 0.000629834 -0.003 0.00136136
         vertex 0.000773331 -0.003 0.00128529
         vertex 0.00180444 -0.003 0.002999
      endloop
   endfacet
   facet normal 0 -1 0
      outer loop
         vertex 0.00111756 -0.003 0.00331679
         vertex 0.000478952 -0.003 0.00142148
         vertex 0.000629834 -0.003 0.00136136
      endloop
   endfacet
   facet normal 0 -1 0
      outer loop
         vertex 0.00111756 -0.003 0.00331679
         vertex 0.000752397 -0.003 0.00341817
         vertex 0.000322456 -0.003 0.00146493
      endloop
   endfacet
   facet normal 0 -1 0
      outer loop
         vertex 0 -0.003 0.0035
         vertex 0 -0.003 0.0015
         vertex 0.000162179 -0.003 0.00149121
      endloop
   endfacet
   facet normal 0 -1 0
      outer loop
         vertex 0 -0.003 0.0035
         vertex -0.000378417 -0.003 0.00347948
         vertex -0.000162179 -0.003 0.00149121
      endloop
   endfacet
   facet normal 0 -1 0
      outer loop
         vertex -0.00132527 -0.003 0.000702613
         vertex -0.00124153 -0.003 0.000841781
         vertex -0.00289691 -0.003 0.00196415
      endloop
   endfacet
   facet normal 0 -1 0
      outer loop
         vertex -0.00139347 -0.003 0.000555207
         vertex -0.00325142 -0.003 0.00129548
         vertex -0.00337242 -0.003 0.000936349
      endloop
   endfacet
   facet normal 0 -1 0
      outer loop
         vertex -0.00148024 -0.003 -0.000242673
         vertex -0.0014978 -0.003 -8.12084e-05
         vertex -0.00349487 -0.003 -0.000189486
      endloop
   endfacet
   facet normal 0 -1 0
      outer loop
         vertex -0.00144532 -0.003 -0.000401293
         vertex -0.00337242 -0.003 -0.000936349
         vertex -0.00325142 -0.003 -0.00129548
      endloop
   endfacet
   facet normal 0 -1 0
      outer loop
         vertex -0.00309229 -0.003 -0.00163943
         vertex -0.00132527 -0.003 -0.000702613
         vertex -0.00139347 -0.003 -0.000555207
      endloop
   endfacet
   facet normal 0 -1 0
      outer loop
         vertex -0.00309229 -0.003 -0.00163943
         vertex -0.00289691 -0.003 -0.00196415
         vertex -0.00124153 -0.003 -0.000841781
      endloop
   endfacet
   facet normal 0 -1 0
      outer loop
         vertex -0.00289691 -0.003 -0.00196415
         vertex -0.00266757 -0.003 -0.00226585
         vertex -0.00114324 -0.003 -0.000971079
      endloop
   endfacet
   facet normal 0 -1 0
      outer loop
         vertex -0.00266757 -0.003 -0.00226585
         vertex -0.00240695 -0.003 -0.00254098
         vertex -0.00103155 -0.003 -0.00108899
      endloop
   endfacet
   facet normal 0 -1 0
      outer loop
         vertex -0.000629834 -0.003 -0.00136136
         vertex -0.000773331 -0.003 -0.00128529
         vertex -0.00180444 -0.003 -0.002999
      endloop
   endfacet
   facet normal 0 -1 0
      outer loop
         vertex -0.00146961 -0.003 -0.00317651
         vertex -0.00111756 -0.003 -0.00331679
         vertex -0.000478952 -0.003 -0.00142148
      endloop
   endfacet
   facet normal 0 -1 0
      outer loop
         vertex -0.00111756 -0.003 -0.00331679
         vertex -0.000752397 -0.003 -0.00341817
         vertex -0.000322456 -0.003 -0.00146493
      endloop
   endfacet
   facet normal 0 -1 0
      outer loop
         vertex -0.000752397 -0.003 -0.00341817
         vertex -0.000378417 -0.003 -0.00347948
         vertex -0.000162179 -0.003 -0.00149121
      endloop
   endfacet
   facet normal 0 -1 0
      outer loop
         vertex 0.00103155 -0.003 -0.00108899
         vertex 0.00240695 -0.003 -0.00254098
         vertex 0.00266757 -0.003 -0.00226585
      endloop
   endfacet
   facet normal 0 -1 0
      outer loop
         vertex 0.00139347 -0.003 -0.000555207
         vertex 0.00132527 -0.003 -0.000702613
         vertex 0.00309229 -0.003 -0.00163943
      endloop
   endfacet
   facet normal 0 -1 0
      outer loop
         vertex 0.00337242 -0.003 -0.000936349
         vertex 0.00144532 -0.003 -0.000401293
         vertex 0.00139347 -0.003 -0.000555207
      endloop
   endfacet
   facet normal 0 -1 0
      outer loop
         vertex 0.00337242 -0.003 -0.000936349
         vertex 0.00345389 -0.003 -0.000566237
         vertex 0.00148024 -0.003 -0.000242673
      endloop
   endfacet
   facet normal 0 -1 0
      outer loop
         vertex 0.0014978 -0.003 8.12084e-05
         vertex 0.0014978 -0.003 -8.12084e-05
         vertex 0.00349487 -0.003 -0.000189486
      endloop
   endfacet
   facet normal 0 -1 0
      outer loop
         vertex 0.00349487 -0.003 0.000189486
         vertex 0.00345389 -0.003 0.000566237
         vertex 0.00148024 -0.003 0.000242673
      endloop
   endfacet
   facet normal 0 -1 0
      outer loop
         vertex 0.00132527 -0.003 0.000702613
         vertex 0.00139347 -0.003 0.000555207
         vertex 0.00325142 -0.003 0.00129548
      endloop
   endfacet
   facet normal 0 -1 0
      outer loop
         vertex 0.00309229 -0.003 0.00163943
         vertex 0.00289691 -0.003 0.00196415
         vertex 0.00124153 -0.003 0.000841781
      endloop
   endfacet
   facet normal 0 -1 0
      outer loop
         vertex 0.00266757 -0.003 0.00226585
         vertex 0.00114324 -0.003 0.000971079
         vertex 0.00124153 -0.003 0.000841781
      endloop
   endfacet
   facet normal 0 -1 0
      outer loop
         vertex 0.000773331 -0.003 0.00128529
         vertex 0.000907761 -0.003 0.00119414
         vertex 0.00211811 -0.003 0.00278633
      endloop
   endfacet
   facet normal 0 -1 0
      outer loop
         vertex 0.000322456 -0.003 0.00146493
         vertex 0.000478952 -0.003 0.00142148
         vertex 0.00111756 -0.003 0.00331679
      endloop
   endfacet
   facet normal 0 -1 0
      outer loop
         vertex 0.000752397 -0.003 0.00341817
         vertex 0.000378417 -0.003 0.00347948
         vertex 0.000162179 -0.003 0.00149121
      endloop
   endfacet
   facet normal 0 -1 0
      outer loop
         vertex -0.000162179 -0.003 0.00149121
         vertex 0 -0.003 0.0015
         vertex 0 -0.003 0.0035
      endloop
   endfacet
   facet normal 0 -1 0
      outer loop
         vertex -0.000378417 -0.003 0.00347948
         vertex -0.000752397 -0.003 0.00341817
         vertex -0.000322456 -0.003 0.00146493
      endloop
   endfacet
   facet normal 0 -1 0
      outer loop
         vertex -0.00132527 -0.003 0.000702613
         vertex -0.00309229 -0.003 0.00163943
         vertex -0.00325142 -0.003 0.00129548
      endloop
   endfacet
   facet normal 0 -1 0
      outer loop
         vertex -0.00148024 -0.003 -0.000242673
         vertex -0.00345389 -0.003 -0.000566237
         vertex -0.00337242 -0.003 -0.000936349
      endloop
   endfacet
   facet normal 0 -1 0
      outer loop
         vertex -0.00124153 -0.003 -0.000841781
         vertex -0.00132527 -0.003 -0.000702613
         vertex -0.00309229 -0.003 -0.00163943
      endloop
   endfacet
   facet normal 0 -1 0
      outer loop
         vertex -0.00103155 -0.003 -0.00108899
         vertex -0.00114324 -0.003 -0.000971079
         vertex -0.00266757 -0.003 -0.00226585
      endloop
   endfacet
   facet normal 0 -1 0
      outer loop
         vertex -0.000478952 -0.003 -0.00142148
         vertex -0.000629834 -0.003 -0.00136136
         vertex -0.00146961 -0.003 -0.00317651
      endloop
   endfacet
   facet normal 0 -1 0
      outer loop
         vertex -0.000162179 -0.003 -0.00149121
         vertex -0.000322456 -0.003 -0.00146493
         vertex -0.000752397 -0.003 -0.00341817
      endloop
   endfacet
   facet normal 0 -1 0
      outer loop
         vertex 0.00124153 -0.003 -0.000841781
         vertex 0.00289691 -0.003 -0.00196415
         vertex 0.00309229 -0.003 -0.00163943
      endloop
   endfacet
   facet normal 0 -1 0
      outer loop
         vertex 0.00148024 -0.003 -0.000242673
         vertex 0.00144532 -0.003 -0.000401293
         vertex 0.00337242 -0.003 -0.000936349
      endloop
   endfacet
   facet normal 0 -1 0
      outer loop
         vertex 0.00148024 -0.003 0.000242673
         vertex 0.0014978 -0.003 8.12084e-05
         vertex 0.00349487 -0.003 0.000189486
      endloop
   endfacet
   facet normal 0 -1 0
      outer loop
         vertex 0.00345389 -0.003 0.000566237
         vertex 0.00337242 -0.003 0.000936349
         vertex 0.00144532 -0.003 0.000401293
      endloop
   endfacet
   facet normal 0 -1 0
      outer loop
         vertex 0.00124153 -0.003 0.000841781
         vertex 0.00132527 -0.003 0.000702613
         vertex 0.00309229 -0.003 0.00163943
      endloop
   endfacet
   facet normal 0 -1 0
      outer loop
         vertex 0.00114324 -0.003 0.000971079
         vertex 0.00266757 -0.003 0.00226585
         vertex 0.00240695 -0.003 0.00254098
      endloop
   endfacet
   facet normal 0 -1 0
      outer loop
         vertex 0.000162179 -0.003 0.00149121
         vertex 0.000322456 -0.003 0.00146493
         vertex 0.000752397 -0.003 0.00341817
      endloop
   endfacet
   facet normal 0 -1 0
      outer loop
         vertex -0.000322456 -0.003 0.00146493
         vertex -0.000162179 -0.003 0.00149121
         vertex -0.000378417 -0.003 0.00347948
      endloop
   endfacet
   facet normal 0 -1 0
      outer loop
         vertex -0.0014978 -0.003 -8.12084e-05
         vertex -0.0014978 -0.003 8.12084e-05
         vertex -0.00349487 -0.003 0.000189486
      endloop
   endfacet
   facet normal 0 -1 0
      outer loop
         vertex -0.00114324 -0.003 -0.000971079
         vertex -0.00124153 -0.003 -0.000841781
         vertex -0.00289691 -0.003 -0.00196415
      endloop
   endfacet
   facet normal 0 -1 0
      outer loop
         vertex -0.000322456 -0.003 -0.00146493
         vertex -0.000478952 -0.003 -0.00142148
         vertex -0.00111756 -0.003 -0.00331679
      endloop
   endfacet
   facet normal 0 -1 0
      outer loop
         vertex 1.28588e-18 -0.003 -0.0035
         vertex 1.83697e-19 -0.003 -0.0015
         vertex -0.000162179 -0.003 -0.00149121
      endloop
   endfacet
   facet normal 0 -1 0
      outer loop
         vertex 0.00111756 -0.003 -0.00331679
         vertex 0.000478952 -0.003 -0.00142148
         vertex 0.000322456 -0.003 -0.00146493
      endloop
   endfacet
   facet normal 0 -1 0
      outer loop
         vertex 0.00111756 -0.003 -0.00331679
         vertex 0.00146961 -0.003 -0.00317651
         vertex 0.000629834 -0.003 -0.00136136
      endloop
   endfacet
   facet normal 0 -1 0
      outer loop
         vertex 0.00139347 -0.003 -0.000555207
         vertex 0.00325142 -0.003 -0.00129548
         vertex 0.00337242 -0.003 -0.000936349
      endloop
   endfacet
   facet normal 0 -1 0
      outer loop
         vertex 0.00144532 -0.003 0.000401293
         vertex 0.00148024 -0.003 0.000242673
         vertex 0.00345389 -0.003 0.000566237
      endloop
   endfacet
   facet normal 0 -1 0
      outer loop
         vertex 0.00124153 -0.003 0.000841781
         vertex 0.00289691 -0.003 0.00196415
         vertex 0.00266757 -0.003 0.00226585
      endloop
   endfacet
   facet normal 0 -1 0
      outer loop
         vertex 0.000162179 -0.003 0.00149121
         vertex 0.000378417 -0.003 0.00347948
         vertex 0 -0.003 0.0035
      endloop
   endfacet
   facet normal 0 -1 0
      outer loop
         vertex -0.00139347 -0.003 -0.000555207
         vertex -0.00325142 -0.003 -0.00129548
         vertex -0.00309229 -0.003 -0.00163943
      endloop
   endfacet
   facet normal 0 -1 0
      outer loop
         vertex -0.000162179 -0.003 -0.00149121
         vertex -0.000378417 -0.003 -0.00347948
         vertex 1.28588e-18 -0.003 -0.0035
      endloop
   endfacet
   facet normal 0 -1 0
      outer loop
         vertex 0.000629834 -0.003 -0.00136136
         vertex 0.000478952 -0.003 -0.00142148
         vertex 0.00111756 -0.003 -0.00331679
      endloop
   endfacet
   facet normal 0 -1 0
      outer loop
         vertex 0.00148024 -0.003 -0.000242673
         vertex 0.00345389 -0.003 -0.000566237
         vertex 0.00349487 -0.003 -0.000189486
      endloop
   endfacet
   facet normal 0 -1 0
      outer loop
         vertex 0.000629834 -0.003 0.00136136
         vertex 0.00146961 -0.003 0.00317651
         vertex 0.00111756 -0.003 0.00331679
      endloop
   endfacet
   facet normal 0 -1 0
      outer loop
         vertex -0.00103155 -0.003 -0.00108899
         vertex -0.00240695 -0.003 -0.00254098
         vertex -0.00211811 -0.003 -0.00278633
      endloop
   endfacet
   facet normal 0 -1 0
      outer loop
         vertex 0.000378417 -0.003 -0.00347948
         vertex 0.000162179 -0.003 -0.00149121
         vertex 1.83697e-19 -0.003 -0.0015
      endloop
   endfacet
   facet normal 0 -1 0
      outer loop
         vertex 0.000378417 -0.003 -0.00347948
         vertex 0.000752397 -0.003 -0.00341817
         vertex 0.000322456 -0.003 -0.00146493
      endloop
   endfacet
   facet normal 0 -1 0
      outer loop
         vertex 0.000629834 -0.003 -0.00136136
         vertex 0.00146961 -0.003 -0.00317651
         vertex 0.00180444 -0.003 -0.002999
      endloop
   endfacet
   facet normal 0 -1 0
      outer loop
         vertex -0.000322456 -0.003 0.00146493
         vertex -0.000752397 -0.003 0.00341817
         vertex -0.00111756 -0.003 0.00331679
      endloop
   endfacet
   facet normal 0 -1 0
      outer loop
         vertex 0.000322456 -0.003 -0.00146493
         vertex 0.000162179 -0.003 -0.00149121
         vertex 0.000378417 -0.003 -0.00347948
      endloop
   endfacet
   facet normal 0 -1 0
      outer loop
         vertex 0.00144532 -0.003 0.000401293
         vertex 0.00337242 -0.003 0.000936349
         vertex 0.00325142 -0.003 0.00129548
      endloop
   endfacet
   facet normal 0 -1 0
      outer loop
         vertex 0.000322456 -0.003 -0.00146493
         vertex 0.000752397 -0.003 -0.00341817
         vertex 0.00111756 -0.003 -0.00331679
      endloop
   endfacet
   facet normal 0 -1 0
      outer loop
         vertex 1.83697e-19 -0.003 -0.0015
         vertex 1.28588e-18 -0.003 -0.0035
         vertex 0.000378417 -0.003 -0.00347948
      endloop
   endfacet
   facet normal 0 0 1
      outer loop
         vertex 0 0 0.0035
         vertex 0 -0.003 0.0035
         vertex 0.000378417 -0.003 0.00347948
      endloop
   endfacet
   facet normal 0.108119 0 0.994138
      outer loop
         vertex 0.000378417 0 0.00347948
         vertex 0.000378417 -0.003 0.00347948
         vertex 0.000752397 -0.003 0.00341817
      endloop
   endfacet
   facet normal 0.21497 0 0.976621
      outer loop
         vertex 0.000752397 0 0.00341817
         vertex 0.000752397 -0.003 0.00341817
         vertex 0.00111756 -0.003 0.00331679
      endloop
   endfacet
   facet normal 0.319302 0 0.947653
      outer loop
         vertex 0.00111756 0 0.00331679
         vertex 0.00111756 -0.003 0.00331679
         vertex 0.00146961 -0.003 0.00317651
      endloop
   endfacet
   facet normal 0.419889 0 0.907575
      outer loop
         vertex 0.00146961 0 0.00317651
         vertex 0.00146961 -0.003 0.00317651
         vertex 0.00180444 -0.003 0.002999
      endloop
   endfacet
   facet normal 0.515554 0 0.856857
      outer loop
         vertex 0.00180444 0 0.002999
         vertex 0.00180444 -0.003 0.002999
         vertex 0.00211811 -0.003 0.00278633
      endloop
   endfacet
   facet normal 0.605174 0 0.796093
      outer loop
         vertex 0.00211811 0 0.00278633
         vertex 0.00211811 -0.003 0.00278633
         vertex 0.00240695 -0.003 0.00254098
      endloop
   endfacet
   facet normal 0.687699 0 0.725995
      outer loop
         vertex 0.00240695 0 0.00254098
         vertex 0.00240695 -0.003 0.00254098
         vertex 0.00266757 -0.003 0.00226585
      endloop
   endfacet
   facet normal 0.762162 0 0.647386
      outer loop
         vertex 0.00266757 0 0.00226585
         vertex 0.00266757 -0.003 0.00226585
         vertex 0.00289691 -0.003 0.00196415
      endloop
   endfacet
   facet normal 0.827689 0 0.561187
      outer loop
         vertex 0.00289691 0 0.00196415
         vertex 0.00289691 -0.003 0.00196415
         vertex 0.00309229 -0.003 0.00163943
      endloop
   endfacet
   facet normal 0.883512 0 0.468408
      outer loop
         vertex 0.00309229 0 0.00163943
         vertex 0.00309229 -0.003 0.00163943
         vertex 0.00325142 -0.003 0.00129548
      endloop
   endfacet
   facet normal 0.928977 0 0.370138
      outer loop
         vertex 0.00325142 0 0.00129548
         vertex 0.00325142 -0.003 0.00129548
         vertex 0.00337242 -0.003 0.000936349
      endloop
   endfacet
   facet normal 0.96355 0 0.267528
      outer loop
         vertex 0.00337242 0 0.000936349
         vertex 0.00337242 -0.003 0.000936349
         vertex 0.00345389 -0.003 0.000566237
      endloop
   endfacet
   facet normal 0.986827 0 0.161782
      outer loop
         vertex 0.00345389 0 0.000566237
         vertex 0.00345389 -0.003 0.000566237
         vertex 0.00349487 -0.003 0.000189486
      endloop
   endfacet
   facet normal 0.998533 0 0.0541389
      outer loop
         vertex 0.00349487 0 0.000189486
         vertex 0.00349487 -0.003 0.000189486
         vertex 0.00349487 -0.003 -0.000189486
      endloop
   endfacet
   facet normal 0.998533 0 -0.0541389
      outer loop
         vertex 0.00349487 0 -0.000189486
         vertex 0.00349487 -0.003 -0.000189486
         vertex 0.00345389 -0.003 -0.000566237
      endloop
   endfacet
   facet normal 0.986827 0 -0.161782
      outer loop
         vertex 0.00345389 0 -0.000566237
         vertex 0.00345389 -0.003 -0.000566237
         vertex 0.00337242 -0.003 -0.000936349
      endloop
   endfacet
   facet normal 0.96355 0 -0.267528
      outer loop
         vertex 0.00337242 0 -0.000936349
         vertex 0.00337242 -0.003 -0.000936349
         vertex 0.00325142 -0.003 -0.00129548
      endloop
   endfacet
   facet normal 0.928977 0 -0.370138
      outer loop
         vertex 0.00325142 0 -0.00129548
         vertex 0.00325142 -0.003 -0.00129548
         vertex 0.00309229 -0.003 -0.00163943
      endloop
   endfacet
   facet normal 0.883512 0 -0.468408
      outer loop
         vertex 0.00309229 0 -0.00163943
         vertex 0.00309229 -0.003 -0.00163943
         vertex 0.00289691 -0.003 -0.00196415
      endloop
   endfacet
   facet normal 0.827689 0 -0.561187
      outer loop
         vertex 0.00289691 0 -0.00196415
         vertex 0.00289691 -0.003 -0.00196415
         vertex 0.00266757 -0.003 -0.00226585
      endloop
   endfacet
   facet normal 0.762162 0 -0.647386
      outer loop
         vertex 0.00266757 0 -0.00226585
         vertex 0.00266757 -0.003 -0.00226585
         vertex 0.00240695 -0.003 -0.00254098
      endloop
   endfacet
   facet normal 0.687699 0 -0.725995
      outer loop
         vertex 0.00240695 0 -0.00254098
         vertex 0.00240695 -0.003 -0.00254098
         vertex 0.00211811 -0.003 -0.00278633
      endloop
   endfacet
   facet normal 0.605174 0 -0.796093
      outer loop
         vertex 0.00211811 0 -0.00278633
         vertex 0.00211811 -0.003 -0.00278633
         vertex 0.00180444 -0.003 -0.002999
      endloop
   endfacet
   facet normal 0.515554 0 -0.856857
      outer loop
         vertex 0.00180444 0 -0.002999
         vertex 0.00180444 -0.003 -0.002999
         vertex 0.00146961 -0.003 -0.00317651
      endloop
   endfacet
   facet normal 0.419889 0 -0.907575
      outer loop
         vertex 0.00146961 0 -0.00317651
         vertex 0.00146961 -0.003 -0.00317651
         vertex 0.00111756 -0.003 -0.00331679
      endloop
   endfacet
   facet normal 0.319302 0 -0.947653
      outer loop
         vertex 0.00111756 0 -0.00331679
         vertex 0.00111756 -0.003 -0.00331679
         vertex 0.000752397 -0.003 -0.00341817
      endloop
   endfacet
   facet normal 0.21497 0 -0.976621
      outer loop
         vertex 0.000752397 0 -0.00341817
         vertex 0.000752397 -0.003 -0.00341817
         vertex 0.000378417 -0.003 -0.00347948
      endloop
   endfacet
   facet normal 0.108119 0 -0.994138
      outer loop
         vertex 0.000378417 0 -0.00347948
         vertex 0.000378417 -0.003 -0.00347948
         vertex 1.28588e-18 -0.003 -0.0035
      endloop
   endfacet
   facet normal 1.22465e-16 0 -1
      outer loop
         vertex 4.28626e-19 0 -0.0035
         vertex 1.28588e-18 -0.003 -0.0035
         vertex -0.000378417 -0.003 -0.00347948
      endloop
   endfacet
   facet normal -0.108119 0 -0.994138
      outer loop
         vertex -0.000378417 0 -0.00347948
         vertex -0.000378417 -0.003 -0.00347948
         vertex -0.000752397 -0.003 -0.00341817
      endloop
   endfacet
   facet normal -0.21497 0 -0.976621
      outer loop
         vertex -0.000752397 0 -0.00341817
         vertex -0.000752397 -0.003 -0.00341817
         vertex -0.00111756 -0.003 -0.00331679
      endloop
   endfacet
   facet normal -0.319302 0 -0.947653
      outer loop
         vertex -0.00111756 0 -0.00331679
         vertex -0.00111756 -0.003 -0.00331679
         vertex -0.00146961 -0.003 -0.00317651
      endloop
   endfacet
   facet normal -0.419889 0 -0.907575
      outer loop
         vertex -0.00146961 0 -0.00317651
         vertex -0.00146961 -0.003 -0.00317651
         vertex -0.00180444 -0.003 -0.002999
      endloop
   endfacet
   facet normal -0.515554 0 -0.856857
      outer loop
         vertex -0.00180444 0 -0.002999
         vertex -0.00180444 -0.003 -0.002999
         vertex -0.00211811 -0.003 -0.00278633
      endloop
   endfacet
   facet normal -0.605174 0 -0.796093
      outer loop
         vertex -0.00211811 0 -0.00278633
         vertex -0.00211811 -0.003 -0.00278633
         vertex -0.00240695 -0.003 -0.00254098
      endloop
   endfacet
   facet normal -0.687699 0 -0.725995
      outer loop
         vertex -0.00240695 0 -0.00254098
         vertex -0.00240695 -0.003 -0.00254098
         vertex -0.00266757 -0.003 -0.00226585
      endloop
   endfacet
   facet normal -0.762162 0 -0.647386
      outer loop
         vertex -0.00266757 0 -0.00226585
         vertex -0.00266757 -0.003 -0.00226585
         vertex -0.00289691 -0.003 -0.00196415
      endloop
   endfacet
   facet normal -0.827689 0 -0.561187
      outer loop
         vertex -0.00289691 0 -0.00196415
         vertex -0.00289691 -0.003 -0.00196415
         vertex -0.00309229 -0.003 -0.00163943
      endloop
   endfacet
   facet normal -0.883512 0 -0.468408
      outer loop
         vertex -0.00309229 0 -0.00163943
         vertex -0.00309229 -0.003 -0.00163943
         vertex -0.00325142 -0.003 -0.00129548
      endloop
   endfacet
   facet normal -0.928977 0 -0.370138
      outer loop
         vertex -0.00325142 0 -0.00129548
         vertex -0.00325142 -0.003 -0.00129548
         vertex -0.00337242 -0.003 -0.000936349
      endloop
   endfacet
   facet normal -0.96355 0 -0.267528
      outer loop
         vertex -0.00337242 0 -0.000936349
         vertex -0.00337242 -0.003 -0.000936349
         vertex -0.00345389 -0.003 -0.000566237
      endloop
   endfacet
   facet normal -0.986827 0 -0.161782
      outer loop
         vertex -0.00345389 0 -0.000566237
         vertex -0.00345389 -0.003 -0.000566237
         vertex -0.00349487 -0.003 -0.000189486
      endloop
   endfacet
   facet normal -0.998533 0 -0.0541389
      outer loop
         vertex -0.00349487 0 -0.000189486
         vertex -0.00349487 -0.003 -0.000189486
         vertex -0.00349487 -0.003 0.000189486
      endloop
   endfacet
   facet normal -0.998533 0 0.0541389
      outer loop
         vertex -0.00349487 0 0.000189486
         vertex -0.00349487 -0.003 0.000189486
         vertex -0.00345389 -0.003 0.000566237
      endloop
   endfacet
   facet normal -0.986827 0 0.161782
      outer loop
         vertex -0.00345389 0 0.000566237
         vertex -0.00345389 -0.003 0.000566237
         vertex -0.00337242 -0.003 0.000936349
      endloop
   endfacet
   facet normal -0.96355 0 0.267528
      outer loop
         vertex -0.00337242 0 0.000936349
         vertex -0.00337242 -0.003 0.000936349
         vertex -0.00325142 -0.003 0.00129548
      endloop
   endfacet
   facet normal -0.928977 0 0.370138
      outer loop
         vertex -0.00325142 0 0.00129548
         vertex -0.00325142 -0.003 0.00129548
         vertex -0.00309229 -0.003 0.00163943
      endloop
   endfacet
   facet normal -0.883512 0 0.468408
      outer loop
         vertex -0.00309229 0 0.00163943
         vertex -0.00309229 -0.003 0.00163943
         vertex -0.00289691 -0.003 0.00196415
      endloop
   endfacet
   facet normal -0.827689 0 0.561187
      outer loop
         vertex -0.00289691 0 0.00196415
         vertex -0.00289691 -0.003 0.00196415
         vertex -0.00266757 -0.003 0.00226585
      endloop
   endfacet
   facet normal -0.762162 0 0.647386
      outer loop
         vertex -0.00266757 0 0.00226585
         vertex -0.00266757 -0.003 0.00226585
         vertex -0.00240695 -0.003 0.00254098
      endloop
   endfacet
   facet normal -0.687699 0 0.725995
      outer loop
         vertex -0.00240695 0 0.00254098
         vertex -0.00240695 -0.003 0.00254098
         vertex -0.00211811 -0.003 0.00278633
      endloop
   endfacet
   facet normal -0.605174 0 0.796093
      outer loop
         vertex -0.00211811 0 0.00278633
         vertex -0.00211811 -0.003 0.00278633
         vertex -0.00180444 -0.003 0.002999
      endloop
   endfacet
   facet normal -0.515554 0 0.856857
      outer loop
         vertex -0.00180444 0 0.002999
         vertex -0.00180444 -0.003 0.002999
         vertex -0.00146961 -0.003 0.00317651
      endloop
   endfacet
   facet normal -0.419889 0 0.907575
      outer loop
         vertex -0.00146961 0 0.00317651
         vertex -0.00146961 -0.003 0.00317651
         vertex -0.00111756 -0.003 0.00331679
      endloop
   endfacet
   facet normal -0.319302 0 0.947653
      outer loop
         vertex -0.00111756 0 0.00331679
         vertex -0.00111756 -0.003 0.00331679
         vertex -0.000752397 -0.003 0.00341817
      endloop
   endfacet
   facet normal -0.21497 0 0.976621
      outer loop
         vertex -0.000752397 0 0.00341817
         vertex -0.000752397 -0.003 0.00341817
         vertex -0.000378417 -0.003 0.00347948
      endloop
   endfacet
   facet normal -0.108119 0 0.994138
      outer loop
         vertex -0.000378417 0 0.00347948
         vertex -0.000378417 -0.003 0.00347948
         vertex 0 -0.003 0.0035
      endloop
   endfacet
   facet normal 0 0 1
      outer loop
         vertex 0 -0.003 0.0035
         vertex 0 0 0.0035
         vertex -0.000378417 0 0.00347948
      endloop
   endfacet
   facet normal -0.108119 0 0.994138
      outer loop
         vertex -0.000378417 -0.003 0.00347948
         vertex -0.000378417 0 0.00347948
         vertex -0.000752397 0 0.00341817
      endloop
   endfacet
   facet normal -0.21497 0 0.976621
      outer loop
         vertex -0.000752397 -0.003 0.00341817
         vertex -0.000752397 0 0.00341817
         vertex -0.00111756 0 0.00331679
      endloop
   endfacet
   facet normal -0.319302 0 0.947653
      outer loop
         vertex -0.00111756 -0.003 0.00331679
         vertex -0.00111756 0 0.00331679
         vertex -0.00146961 0 0.00317651
      endloop
   endfacet
   facet normal -0.419889 0 0.907575
      outer loop
         vertex -0.00146961 -0.003 0.00317651
         vertex -0.00146961 0 0.00317651
         vertex -0.00180444 0 0.002999
      endloop
   endfacet
   facet normal -0.515554 0 0.856857
      outer loop
         vertex -0.00180444 -0.003 0.002999
         vertex -0.00180444 0 0.002999
         vertex -0.00211811 0 0.00278633
      endloop
   endfacet
   facet normal -0.605174 0 0.796093
      outer loop
         vertex -0.00211811 -0.003 0.00278633
         vertex -0.00211811 0 0.00278633
         vertex -0.00240695 0 0.00254098
      endloop
   endfacet
   facet normal -0.687699 0 0.725995
      outer loop
         vertex -0.00240695 -0.003 0.00254098
         vertex -0.00240695 0 0.00254098
         vertex -0.00266757 0 0.00226585
      endloop
   endfacet
   facet normal -0.762162 0 0.647386
      outer loop
         vertex -0.00266757 -0.003 0.00226585
         vertex -0.00266757 0 0.00226585
         vertex -0.00289691 0 0.00196415
      endloop
   endfacet
   facet normal -0.827689 0 0.561187
      outer loop
         vertex -0.00289691 -0.003 0.00196415
         vertex -0.00289691 0 0.00196415
         vertex -0.00309229 0 0.00163943
      endloop
   endfacet
   facet normal -0.883512 0 0.468408
      outer loop
         vertex -0.00309229 -0.003 0.00163943
         vertex -0.00309229 0 0.00163943
         vertex -0.00325142 0 0.00129548
      endloop
   endfacet
   facet normal -0.928977 0 0.370138
      outer loop
         vertex -0.00325142 -0.003 0.00129548
         vertex -0.00325142 0 0.00129548
         vertex -0.00337242 0 0.000936349
      endloop
   endfacet
   facet normal -0.96355 0 0.267528
      outer loop
         vertex -0.00337242 -0.003 0.000936349
         vertex -0.00337242 0 0.000936349
         vertex -0.00345389 0 0.000566237
      endloop
   endfacet
   facet normal -0.986827 0 0.161782
      outer loop
         vertex -0.00345389 -0.003 0.000566237
         vertex -0.00345389 0 0.000566237
         vertex -0.00349487 0 0.000189486
      endloop
   endfacet
   facet normal -0.998533 0 0.0541389
      outer loop
         vertex -0.00349487 -0.003 0.000189486
         vertex -0.00349487 0 0.000189486
         vertex -0.00349487 0 -0.000189486
      endloop
   endfacet
   facet normal -0.998533 0 -0.0541389
      outer loop
         vertex -0.00349487 -0.003 -0.000189486
         vertex -0.00349487 0 -0.000189486
         vertex -0.00345389 0 -0.000566237
      endloop
   endfacet
   facet normal -0.986827 0 -0.161782
      outer loop
         vertex -0.00345389 -0.003 -0.000566237
         vertex -0.00345389 0 -0.000566237
         vertex -0.00337242 0 -0.000936349
      endloop
   endfacet
   facet normal -0.96355 0 -0.267528
      outer loop
         vertex -0.00337242 -0.003 -0.000936349
         vertex -0.00337242 0 -0.000936349
         vertex -0.00325142 0 -0.00129548
      endloop
   endfacet
   facet normal -0.928977 0 -0.370138
      outer loop
         vertex -0.00325142 -0.003 -0.00129548
         vertex -0.00325142 0 -0.00129548
         vertex -0.00309229 0 -0.00163943
      endloop
   endfacet
   facet normal -0.883512 0 -0.468408
      outer loop
         vertex -0.00309229 -0.003 -0.00163943
         vertex -0.00309229 0 -0.00163943
         vertex -0.00289691 0 -0.00196415
      endloop
   endfacet
   facet normal -0.827689 0 -0.561187
      outer loop
         vertex -0.00289691 -0.003 -0.00196415
         vertex -0.00289691 0 -0.00196415
         vertex -0.00266757 0 -0.00226585
      endloop
   endfacet
   facet normal -0.762162 0 -0.647386
      outer loop
         vertex -0.00266757 -0.003 -0.00226585
         vertex -0.00266757 0 -0.00226585
         vertex -0.00240695 0 -0.00254098
      endloop
   endfacet
   facet normal -0.687699 0 -0.725995
      outer loop
         vertex -0.00240695 -0.003 -0.00254098
         vertex -0.00240695 0 -0.00254098
         vertex -0.00211811 0 -0.00278633
      endloop
   endfacet
   facet normal -0.605174 0 -0.796093
      outer loop
         vertex -0.00211811 -0.003 -0.00278633
         vertex -0.00211811 0 -0.00278633
         vertex -0.00180444 0 -0.002999
      endloop
   endfacet
   facet normal -0.515554 0 -0.856857
      outer loop
         vertex -0.00180444 -0.003 -0.002999
         vertex -0.00180444 0 -0.002999
         vertex -0.00146961 0 -0.00317651
      endloop
   endfacet
   facet normal -0.419889 0 -0.907575
      outer loop
         vertex -0.00146961 -0.003 -0.00317651
         vertex -0.00146961 0 -0.00317651
         vertex -0.00111756 0 -0.00331679
      endloop
   endfacet
   facet normal -0.319302 0 -0.947653
      outer loop
         vertex -0.00111756 -0.003 -0.00331679
         vertex -0.00111756 0 -0.00331679
         vertex -0.000752397 0 -0.00341817
      endloop
   endfacet
   facet normal -0.21497 0 -0.976621
      outer loop
         vertex -0.000752397 -0.003 -0.00341817
         vertex -0.000752397 0 -0.00341817
         vertex -0.000378417 0 -0.00347948
      endloop
   endfacet
   facet normal -0.108119 0 -0.994138
      outer loop
         vertex -0.000378417 -0.003 -0.00347948
         vertex -0.000378417 0 -0.00347948
         vertex 4.28626e-19 0 -0.0035
      endloop
   endfacet
   facet normal 1.22465e-16 0 -1
      outer loop
         vertex 1.28588e-18 -0.003 -0.0035
         vertex 4.28626e-19 0 -0.0035
         vertex 0.000378417 0 -0.00347948
      endloop
   endfacet
   facet normal 0.108119 0 -0.994138
      outer loop
         vertex 0.000378417 -0.003 -0.00347948
         vertex 0.000378417 0 -0.00347948
         vertex 0.000752397 0 -0.00341817
      endloop
   endfacet
   facet normal 0.21497 0 -0.976621
      outer loop
         vertex 0.000752397 -0.003 -0.00341817
         vertex 0.000752397 0 -0.00341817
         vertex 0.00111756 0 -0.00331679
      endloop
   endfacet
   facet normal 0.319302 0 -0.947653
      outer loop
         vertex 0.00111756 -0.003 -0.00331679
         vertex 0.00111756 0 -0.00331679
         vertex 0.00146961 0 -0.00317651
      endloop
   endfacet
   facet normal 0.419889 0 -0.907575
      outer loop
         vertex 0.00146961 -0.003 -0.00317651
         vertex 0.00146961 0 -0.00317651
         vertex 0.00180444 0 -0.002999
      endloop
   endfacet
   facet normal 0.515554 0 -0.856857
      outer loop
         vertex 0.00180444 -0.003 -0.002999
         vertex 0.00180444 0 -0.002999
         vertex 0.00211811 0 -0.00278633
      endloop
   endfacet
   facet normal 0.605174 0 -0.796093
      outer loop
         vertex 0.00211811 -0.003 -0.00278633
         vertex 0.00211811 0 -0.00278633
         vertex 0.00240695 0 -0.00254098
      endloop
   endfacet
   facet normal 0.687699 0 -0.725995
      outer loop
         vertex 0.00240695 -0.003 -0.00254098
         vertex 0.00240695 0 -0.00254098
         vertex 0.00266757 0 -0.00226585
      endloop
   endfacet
   facet normal 0.762162 0 -0.647386
      outer loop
         vertex 0.00266757 -0.003 -0.00226585
         vertex 0.00266757 0 -0.00226585
         vertex 0.00289691 0 -0.00196415
      endloop
   endfacet
   facet normal 0.827689 0 -0.561187
      outer loop
         vertex 0.00289691 -0.003 -0.00196415
         vertex 0.00289691 0 -0.00196415
         vertex 0.00309229 0 -0.00163943
      endloop
   endfacet
   facet normal 0.883512 0 -0.468408
      outer loop
         vertex 0.00309229 -0.003 -0.00163943
         vertex 0.00309229 0 -0.00163943
         vertex 0.00325142 0 -0.00129548
      endloop
   endfacet
   facet normal 0.928977 0 -0.370138
      outer loop
         vertex 0.00325142 -0.003 -0.00129548
         vertex 0.00325142 0 -0.00129548
         vertex 0.00337242 0 -0.000936349
      endloop
   endfacet
   facet normal 0.96355 0 -0.267528
      outer loop
         vertex 0.00337242 -0.003 -0.000936349
         vertex 0.00337242 0 -0.000936349
         vertex 0.00345389 0 -0.000566237
      endloop
   endfacet
   facet normal 0.986827 0 -0.161782
      outer loop
         vertex 0.00345389 -0.003 -0.000566237
         vertex 0.00345389 0 -0.000566237
         vertex 0.00349487 0 -0.000189486
      endloop
   endfacet
   facet normal 0.998533 0 -0.0541389
      outer loop
         vertex 0.00349487 -0.003 -0.000189486
         vertex 0.00349487 0 -0.000189486
         vertex 0.00349487 0 0.000189486
      endloop
   endfacet
   facet normal 0.998533 0 0.0541389
      outer loop
         vertex 0.00349487 -0.003 0.000189486
         vertex 0.00349487 0 0.000189486
         vertex 0.00345389 0 0.000566237
      endloop
   endfacet
   facet normal 0.986827 0 0.161782
      outer loop
         vertex 0.00345389 -0.003 0.000566237
         vertex 0.00345389 0 0.000566237
         vertex 0.00337242 0 0.000936349
      endloop
   endfacet
   facet normal 0.96355 0 0.267528
      outer loop
         vertex 0.00337242 -0.003 0.000936349
         vertex 0.00337242 0 0.000936349
         vertex 0.00325142 0 0.00129548
      endloop
   endfacet
   facet normal 0.928977 0 0.370138
      outer loop
         vertex 0.00325142 -0.003 0.00129548
         vertex 0.00325142 0 0.00129548
         vertex 0.00309229 0 0.00163943
      endloop
   endfacet
   facet normal 0.883512 0 0.468408
      outer loop
         vertex 0.00309229 -0.003 0.00163943
         vertex 0.00309229 0 0.00163943
         vertex 0.00289691 0 0.00196415
      endloop
   endfacet
   facet normal 0.827689 0 0.561187
      outer loop
         vertex 0.00289691 -0.003 0.00196415
         vertex 0.00289691 0 0.00196415
         vertex 0.00266757 0 0.00226585
      endloop
   endfacet
   facet normal 0.762162 0 0.647386
      outer loop
         vertex 0.00266757 -0.003 0.00226585
         vertex 0.00266757 0 0.00226585
         vertex 0.00240695 0 0.00254098
      endloop
   endfacet
   facet normal 0.687699 0 0.725995
      outer loop
         vertex 0.00240695 -0.003 0.00254098
         vertex 0.00240695 0 0.00254098
         vertex 0.00211811 0 0.00278633
      endloop
   endfacet
   facet normal 0.605174 0 0.796093
      outer loop
         vertex 0.00211811 -0.003 0.00278633
         vertex 0.00211811 0 0.00278633
         vertex 0.00180444 0 0.002999
      endloop
   endfacet
   facet normal 0.515554 0 0.856857
      outer loop
         vertex 0.00180444 -0.003 0.002999
         vertex 0.00180444 0 0.002999
         vertex 0.00146961 0 0.00317651
      endloop
   endfacet
   facet normal 0.419889 0 0.907575
      outer loop
         vertex 0.00146961 -0.003 0.00317651
         vertex 0.00146961 0 0.00317651
         vertex 0.00111756 0 0.00331679
      endloop
   endfacet
   facet normal 0.319302 0 0.947653
      outer loop
         vertex 0.00111756 -0.003 0.00331679
         vertex 0.00111756 0 0.00331679
         vertex 0.000752397 0 0.00341817
      endloop
   endfacet
   facet normal 0.21497 0 0.976621
      outer loop
         vertex 0.000752397 -0.003 0.00341817
         vertex 0.000752397 0 0.00341817
         vertex 0.000378417 0 0.00347948
      endloop
   endfacet
   facet normal 0.108119 0 0.994138
      outer loop
         vertex 0.000378417 -0.003 0.00347948
         vertex 0.000378417 0 0.00347948
         vertex 0 0 0.0035
      endloop
   endfacet
   facet normal 0 1 0
      outer loop
         vertex 0.00345389 0 0.000566237
         vertex 0.00148024 0 0.000242673
         vertex 0.00144532 0 0.000401293
      endloop
   endfacet
   facet normal 0 1 0
      outer loop
         vertex 0.00349487 0 0.000189486
         vertex 0.0014978 0 8.12084e-05
         vertex 0.00148024 0 0.000242673
      endloop
   endfacet
   facet normal 0 1 0
      outer loop
         vertex -0.00146961 0 -0.00317651
         vertex -0.000629834 0 -0.00136136
         vertex -0.000478952 0 -0.00142148
      endloop
   endfacet
   facet normal 0 1 0
      outer loop
         vertex -0.00180444 0 -0.002999
         vertex -0.000773331 0 -0.00128529
         vertex -0.000629834 0 -0.00136136
      endloop
   endfacet
   facet normal 0 1 0
      outer loop
         vertex 0.00148024 0 0.000242673
         vertex 0.00345389 0 0.000566237
         vertex 0.00349487 0 0.000189486
      endloop
   endfacet
   facet normal 0 1 0
      outer loop
         vertex 0.00349487 0 0.000189486
         vertex 0.00349487 0 -0.000189486
         vertex 0.0014978 0 -8.12084e-05
      endloop
   endfacet
   facet normal 0 1 0
      outer loop
         vertex -0.000629834 0 -0.00136136
         vertex -0.00146961 0 -0.00317651
         vertex -0.00180444 0 -0.002999
      endloop
   endfacet
   facet normal 0 1 0
      outer loop
         vertex -0.00180444 0 -0.002999
         vertex -0.00211811 0 -0.00278633
         vertex -0.000907761 0 -0.00119414
      endloop
   endfacet
   facet normal 0 1 0
      outer loop
         vertex -0.00325142 0 -0.00129548
         vertex -0.00337242 0 -0.000936349
         vertex -0.00144532 0 -0.000401293
      endloop
   endfacet
   facet normal 0 1 0
      outer loop
         vertex -0.00337242 0 -0.000936349
         vertex -0.00345389 0 -0.000566237
         vertex -0.00148024 0 -0.000242673
      endloop
   endfacet
   facet normal 0 1 0
      outer loop
         vertex -0.00345389 0 0.000566237
         vertex -0.00148024 0 0.000242673
         vertex -0.0014978 0 8.12084e-05
      endloop
   endfacet
   facet normal 0 1 0
      outer loop
         vertex -0.00345389 0 0.000566237
         vertex -0.00337242 0 0.000936349
         vertex -0.00144532 0 0.000401293
      endloop
   endfacet
   facet normal 0 1 0
      outer loop
         vertex -0.00266757 0 0.00226585
         vertex -0.00114324 0 0.000971079
         vertex -0.00124153 0 0.000841781
      endloop
   endfacet
   facet normal 0 1 0
      outer loop
         vertex -0.00240695 0 0.00254098
         vertex -0.00103155 0 0.00108899
         vertex -0.00114324 0 0.000971079
      endloop
   endfacet
   facet normal 0 1 0
      outer loop
         vertex 0.00111756 0 0.00331679
         vertex 0.000478952 0 0.00142148
         vertex 0.000322456 0 0.00146493
      endloop
   endfacet
   facet normal 0 1 0
      outer loop
         vertex 0.00111756 0 0.00331679
         vertex 0.00146961 0 0.00317651
         vertex 0.000629834 0 0.00136136
      endloop
   endfacet
   facet normal 0 1 0
      outer loop
         vertex 0.00180444 0 0.002999
         vertex 0.000773331 0 0.00128529
         vertex 0.000629834 0 0.00136136
      endloop
   endfacet
   facet normal 0 1 0
      outer loop
         vertex 0.00180444 0 0.002999
         vertex 0.00211811 0 0.00278633
         vertex 0.000907761 0 0.00119414
      endloop
   endfacet
   facet normal 0 1 0
      outer loop
         vertex 0.00211811 0 0.00278633
         vertex 0.00240695 0 0.00254098
         vertex 0.00103155 0 0.00108899
      endloop
   endfacet
   facet normal 0 1 0
      outer loop
         vertex 0.00240695 0 0.00254098
         vertex 0.00266757 0 0.00226585
         vertex 0.00114324 0 0.000971079
      endloop
   endfacet
   facet normal 0 1 0
      outer loop
         vertex 0.0014978 0 -8.12084e-05
         vertex 0.0014978 0 8.12084e-05
         vertex 0.00349487 0 0.000189486
      endloop
   endfacet
   facet normal 0 1 0
      outer loop
         vertex 0.00349487 0 -0.000189486
         vertex 0.00345389 0 -0.000566237
         vertex 0.00148024 0 -0.000242673
      endloop
   endfacet
   facet normal 0 1 0
      outer loop
         vertex 0.00337242 0 -0.000936349
         vertex 0.00144532 0 -0.000401293
         vertex 0.00148024 0 -0.000242673
      endloop
   endfacet
   facet normal 0 1 0
      outer loop
         vertex 0.00337242 0 -0.000936349
         vertex 0.00325142 0 -0.00129548
         vertex 0.00139347 0 -0.000555207
      endloop
   endfacet
   facet normal 0 1 0
      outer loop
         vertex 0.00289691 0 -0.00196415
         vertex 0.00266757 0 -0.00226585
         vertex 0.00114324 0 -0.000971079
      endloop
   endfacet
   facet normal 0 1 0
      outer loop
         vertex 0.00266757 0 -0.00226585
         vertex 0.00240695 0 -0.00254098
         vertex 0.00103155 0 -0.00108899
      endloop
   endfacet
   facet normal 0 1 0
      outer loop
         vertex 0.000378417 0 -0.00347948
         vertex 0.000162179 0 -0.00149121
         vertex 0.000322456 0 -0.00146493
      endloop
   endfacet
   facet normal 0 1 0
      outer loop
         vertex 4.28626e-19 0 -0.0035
         vertex 5.51091e-19 0 -0.0015
         vertex 0.000162179 0 -0.00149121
      endloop
   endfacet
   facet normal 0 1 0
      outer loop
         vertex -0.000752397 0 -0.00341817
         vertex -0.000322456 0 -0.00146493
         vertex -0.000162179 0 -0.00149121
      endloop
   endfacet
   facet normal 0 1 0
      outer loop
         vertex -0.00111756 0 -0.00331679
         vertex -0.000478952 0 -0.00142148
         vertex -0.000322456 0 -0.00146493
      endloop
   endfacet
   facet normal 0 1 0
      outer loop
         vertex -0.000907761 0 -0.00119414
         vertex -0.000773331 0 -0.00128529
         vertex -0.00180444 0 -0.002999
      endloop
   endfacet
   facet normal 0 1 0
      outer loop
         vertex -0.00211811 0 -0.00278633
         vertex -0.00240695 0 -0.00254098
         vertex -0.00103155 0 -0.00108899
      endloop
   endfacet
   facet normal 0 1 0
      outer loop
         vertex -0.00148024 0 -0.000242673
         vertex -0.00144532 0 -0.000401293
         vertex -0.00337242 0 -0.000936349
      endloop
   endfacet
   facet normal 0 1 0
      outer loop
         vertex -0.00349487 0 -0.000189486
         vertex -0.0014978 0 -8.12084e-05
         vertex -0.00148024 0 -0.000242673
      endloop
   endfacet
   facet normal 0 1 0
      outer loop
         vertex -0.00144532 0 0.000401293
         vertex -0.00148024 0 0.000242673
         vertex -0.00345389 0 0.000566237
      endloop
   endfacet
   facet normal 0 1 0
      outer loop
         vertex -0.00337242 0 0.000936349
         vertex -0.00325142 0 0.00129548
         vertex -0.00139347 0 0.000555207
      endloop
   endfacet
   facet normal 0 1 0
      outer loop
         vertex -0.00289691 0 0.00196415
         vertex -0.00124153 0 0.000841781
         vertex -0.00132527 0 0.000702613
      endloop
   endfacet
   facet normal 0 1 0
      outer loop
         vertex -0.00114324 0 0.000971079
         vertex -0.00266757 0 0.00226585
         vertex -0.00240695 0 0.00254098
      endloop
   endfacet
   facet normal 0 1 0
      outer loop
         vertex -0.00211811 0 0.00278633
         vertex -0.000907761 0 0.00119414
         vertex -0.00103155 0 0.00108899
      endloop
   endfacet
   facet normal 0 1 0
      outer loop
         vertex -0.00211811 0 0.00278633
         vertex -0.00180444 0 0.002999
         vertex -0.000773331 0 0.00128529
      endloop
   endfacet
   facet normal 0 1 0
      outer loop
         vertex -0.00146961 0 0.00317651
         vertex -0.00111756 0 0.00331679
         vertex -0.000478952 0 0.00142148
      endloop
   endfacet
   facet normal 0 1 0
      outer loop
         vertex -0.00111756 0 0.00331679
         vertex -0.000752397 0 0.00341817
         vertex -0.000322456 0 0.00146493
      endloop
   endfacet
   facet normal 0 1 0
      outer loop
         vertex 0.000752397 0 0.00341817
         vertex 0.000322456 0 0.00146493
         vertex 0.000162179 0 0.00149121
      endloop
   endfacet
   facet normal 0 1 0
      outer loop
         vertex 0.000629834 0 0.00136136
         vertex 0.000478952 0 0.00142148
         vertex 0.00111756 0 0.00331679
      endloop
   endfacet
   facet normal 0 1 0
      outer loop
         vertex 0.000907761 0 0.00119414
         vertex 0.000773331 0 0.00128529
         vertex 0.00180444 0 0.002999
      endloop
   endfacet
   facet normal 0 1 0
      outer loop
         vertex 0.00114324 0 0.000971079
         vertex 0.00103155 0 0.00108899
         vertex 0.00240695 0 0.00254098
      endloop
   endfacet
   facet normal 0 1 0
      outer loop
         vertex 0.00148024 0 -0.000242673
         vertex 0.0014978 0 -8.12084e-05
         vertex 0.00349487 0 -0.000189486
      endloop
   endfacet
   facet normal 0 1 0
      outer loop
         vertex 0.00139347 0 -0.000555207
         vertex 0.00144532 0 -0.000401293
         vertex 0.00337242 0 -0.000936349
      endloop
   endfacet
   facet normal 0 1 0
      outer loop
         vertex 0.00309229 0 -0.00163943
         vertex 0.00132527 0 -0.000702613
         vertex 0.00139347 0 -0.000555207
      endloop
   endfacet
   facet normal 0 1 0
      outer loop
         vertex 0.00309229 0 -0.00163943
         vertex 0.00289691 0 -0.00196415
         vertex 0.00124153 0 -0.000841781
      endloop
   endfacet
   facet normal 0 1 0
      outer loop
         vertex 0.00103155 0 -0.00108899
         vertex 0.00114324 0 -0.000971079
         vertex 0.00266757 0 -0.00226585
      endloop
   endfacet
   facet normal 0 1 0
      outer loop
         vertex 0.00240695 0 -0.00254098
         vertex 0.00211811 0 -0.00278633
         vertex 0.000907761 0 -0.00119414
      endloop
   endfacet
   facet normal 0 1 0
      outer loop
         vertex 0.00180444 0 -0.002999
         vertex 0.000773331 0 -0.00128529
         vertex 0.000907761 0 -0.00119414
      endloop
   endfacet
   facet normal 0 1 0
      outer loop
         vertex 0.00180444 0 -0.002999
         vertex 0.00146961 0 -0.00317651
         vertex 0.000629834 0 -0.00136136
      endloop
   endfacet
   facet normal 0 1 0
      outer loop
         vertex 0.000162179 0 -0.00149121
         vertex 0.000378417 0 -0.00347948
         vertex 4.28626e-19 0 -0.0035
      endloop
   endfacet
   facet normal 0 1 0
      outer loop
         vertex -0.000378417 0 -0.00347948
         vertex -0.000162179 0 -0.00149121
         vertex 5.51091e-19 0 -0.0015
      endloop
   endfacet
   facet normal 0 1 0
      outer loop
         vertex -0.000322456 0 -0.00146493
         vertex -0.000752397 0 -0.00341817
         vertex -0.00111756 0 -0.00331679
      endloop
   endfacet
   facet normal 0 1 0
      outer loop
         vertex -0.00103155 0 -0.00108899
         vertex -0.000907761 0 -0.00119414
         vertex -0.00211811 0 -0.00278633
      endloop
   endfacet
   facet normal 0 1 0
      outer loop
         vertex -0.00240695 0 -0.00254098
         vertex -0.00266757 0 -0.00226585
         vertex -0.00114324 0 -0.000971079
      endloop
   endfacet
   facet normal 0 1 0
      outer loop
         vertex -0.00289691 0 -0.00196415
         vertex -0.00124153 0 -0.000841781
         vertex -0.00114324 0 -0.000971079
      endloop
   endfacet
   facet normal 0 1 0
      outer loop
         vertex -0.00309229 0 -0.00163943
         vertex -0.00132527 0 -0.000702613
         vertex -0.00124153 0 -0.000841781
      endloop
   endfacet
   facet normal 0 1 0
      outer loop
         vertex -0.00309229 0 -0.00163943
         vertex -0.00325142 0 -0.00129548
         vertex -0.00139347 0 -0.000555207
      endloop
   endfacet
   facet normal 0 1 0
      outer loop
         vertex -0.00148024 0 -0.000242673
         vertex -0.00345389 0 -0.000566237
         vertex -0.00349487 0 -0.000189486
      endloop
   endfacet
   facet normal 0 1 0
      outer loop
         vertex -0.00349487 0 0.000189486
         vertex -0.0014978 0 8.12084e-05
         vertex -0.0014978 0 -8.12084e-05
      endloop
   endfacet
   facet normal 0 1 0
      outer loop
         vertex -0.00139347 0 0.000555207
         vertex -0.00144532 0 0.000401293
         vertex -0.00337242 0 0.000936349
      endloop
   endfacet
   facet normal 0 1 0
      outer loop
         vertex -0.00325142 0 0.00129548
         vertex -0.00309229 0 0.00163943
         vertex -0.00132527 0 0.000702613
      endloop
   endfacet
   facet normal 0 1 0
      outer loop
         vertex -0.00124153 0 0.000841781
         vertex -0.00289691 0 0.00196415
         vertex -0.00266757 0 0.00226585
      endloop
   endfacet
   facet normal 0 1 0
      outer loop
         vertex -0.000773331 0 0.00128529
         vertex -0.000907761 0 0.00119414
         vertex -0.00211811 0 0.00278633
      endloop
   endfacet
   facet normal 0 1 0
      outer loop
         vertex -0.00146961 0 0.00317651
         vertex -0.000629834 0 0.00136136
         vertex -0.000773331 0 0.00128529
      endloop
   endfacet
   facet normal 0 1 0
      outer loop
         vertex -0.000322456 0 0.00146493
         vertex -0.000478952 0 0.00142148
         vertex -0.00111756 0 0.00331679
      endloop
   endfacet
   facet normal 0 1 0
      outer loop
         vertex 0 0 0.0035
         vertex 0.000378417 0 0.00347948
         vertex 0.000162179 0 0.00149121
      endloop
   endfacet
   facet normal 0 1 0
      outer loop
         vertex 0.000322456 0 0.00146493
         vertex 0.000752397 0 0.00341817
         vertex 0.00111756 0 0.00331679
      endloop
   endfacet
   facet normal 0 1 0
      outer loop
         vertex 0.00103155 0 0.00108899
         vertex 0.000907761 0 0.00119414
         vertex 0.00211811 0 0.00278633
      endloop
   endfacet
   facet normal 0 1 0
      outer loop
         vertex 0.00266757 0 0.00226585
         vertex 0.00289691 0 0.00196415
         vertex 0.00124153 0 0.000841781
      endloop
   endfacet
   facet normal 0 1 0
      outer loop
         vertex 0.00309229 0 0.00163943
         vertex 0.00132527 0 0.000702613
         vertex 0.00124153 0 0.000841781
      endloop
   endfacet
   facet normal 0 1 0
      outer loop
         vertex 0.00309229 0 0.00163943
         vertex 0.00325142 0 0.00129548
         vertex 0.00139347 0 0.000555207
      endloop
   endfacet
   facet normal 0 1 0
      outer loop
         vertex 0.00148024 0 -0.000242673
         vertex 0.00345389 0 -0.000566237
         vertex 0.00337242 0 -0.000936349
      endloop
   endfacet
   facet normal 0 1 0
      outer loop
         vertex 0.00124153 0 -0.000841781
         vertex 0.00132527 0 -0.000702613
         vertex 0.00309229 0 -0.00163943
      endloop
   endfacet
   facet normal 0 1 0
      outer loop
         vertex 0.000907761 0 -0.00119414
         vertex 0.00103155 0 -0.00108899
         vertex 0.00240695 0 -0.00254098
      endloop
   endfacet
   facet normal 0 1 0
      outer loop
         vertex 0.000629834 0 -0.00136136
         vertex 0.000773331 0 -0.00128529
         vertex 0.00180444 0 -0.002999
      endloop
   endfacet
   facet normal 0 1 0
      outer loop
         vertex 5.51091e-19 0 -0.0015
         vertex 4.28626e-19 0 -0.0035
         vertex -0.000378417 0 -0.00347948
      endloop
   endfacet
   facet normal 0 1 0
      outer loop
         vertex -0.000478952 0 -0.00142148
         vertex -0.00111756 0 -0.00331679
         vertex -0.00146961 0 -0.00317651
      endloop
   endfacet
   facet normal 0 1 0
      outer loop
         vertex -0.00114324 0 -0.000971079
         vertex -0.00266757 0 -0.00226585
         vertex -0.00289691 0 -0.00196415
      endloop
   endfacet
   facet normal 0 1 0
      outer loop
         vertex -0.00139347 0 -0.000555207
         vertex -0.00132527 0 -0.000702613
         vertex -0.00309229 0 -0.00163943
      endloop
   endfacet
   facet normal 0 1 0
      outer loop
         vertex -0.0014978 0 -8.12084e-05
         vertex -0.00349487 0 -0.000189486
         vertex -0.00349487 0 0.000189486
      endloop
   endfacet
   facet normal 0 1 0
      outer loop
         vertex -0.00132527 0 0.000702613
         vertex -0.00139347 0 0.000555207
         vertex -0.00325142 0 0.00129548
      endloop
   endfacet
   facet normal 0 1 0
      outer loop
         vertex -0.00103155 0 0.00108899
         vertex -0.00240695 0 0.00254098
         vertex -0.00211811 0 0.00278633
      endloop
   endfacet
   facet normal 0 1 0
      outer loop
         vertex -0.000478952 0 0.00142148
         vertex -0.000629834 0 0.00136136
         vertex -0.00146961 0 0.00317651
      endloop
   endfacet
   facet normal 0 1 0
      outer loop
         vertex 0.000162179 0 0.00149121
         vertex 0.000378417 0 0.00347948
         vertex 0.000752397 0 0.00341817
      endloop
   endfacet
   facet normal 0 1 0
      outer loop
         vertex 0.00124153 0 0.000841781
         vertex 0.00114324 0 0.000971079
         vertex 0.00266757 0 0.00226585
      endloop
   endfacet
   facet normal 0 1 0
      outer loop
         vertex 0.00139347 0 0.000555207
         vertex 0.00132527 0 0.000702613
         vertex 0.00309229 0 0.00163943
      endloop
   endfacet
   facet normal 0 1 0
      outer loop
         vertex 0.00325142 0 0.00129548
         vertex 0.00337242 0 0.000936349
         vertex 0.00144532 0 0.000401293
      endloop
   endfacet
   facet normal 0 1 0
      outer loop
         vertex 0.00139347 0 -0.000555207
         vertex 0.00325142 0 -0.00129548
         vertex 0.00309229 0 -0.00163943
      endloop
   endfacet
   facet normal 0 1 0
      outer loop
         vertex 0.000907761 0 -0.00119414
         vertex 0.00211811 0 -0.00278633
         vertex 0.00180444 0 -0.002999
      endloop
   endfacet
   facet normal 0 1 0
      outer loop
         vertex 0.00111756 0 -0.00331679
         vertex 0.000478952 0 -0.00142148
         vertex 0.000629834 0 -0.00136136
      endloop
   endfacet
   facet normal 0 1 0
      outer loop
         vertex 0.00111756 0 -0.00331679
         vertex 0.000752397 0 -0.00341817
         vertex 0.000322456 0 -0.00146493
      endloop
   endfacet
   facet normal 0 1 0
      outer loop
         vertex -0.000162179 0 -0.00149121
         vertex -0.000378417 0 -0.00347948
         vertex -0.000752397 0 -0.00341817
      endloop
   endfacet
   facet normal 0 1 0
      outer loop
         vertex -0.00124153 0 -0.000841781
         vertex -0.00289691 0 -0.00196415
         vertex -0.00309229 0 -0.00163943
      endloop
   endfacet
   facet normal 0 1 0
      outer loop
         vertex -0.0014978 0 8.12084e-05
         vertex -0.00349487 0 0.000189486
         vertex -0.00345389 0 0.000566237
      endloop
   endfacet
   facet normal 0 1 0
      outer loop
         vertex -0.000773331 0 0.00128529
         vertex -0.00180444 0 0.002999
         vertex -0.00146961 0 0.00317651
      endloop
   endfacet
   facet normal 0 1 0
      outer loop
         vertex 0.000629834 0 0.00136136
         vertex 0.00146961 0 0.00317651
         vertex 0.00180444 0 0.002999
      endloop
   endfacet
   facet normal 0 1 0
      outer loop
         vertex 0.00144532 0 0.000401293
         vertex 0.00139347 0 0.000555207
         vertex 0.00325142 0 0.00129548
      endloop
   endfacet
   facet normal 0 1 0
      outer loop
         vertex 0.00114324 0 -0.000971079
         vertex 0.00124153 0 -0.000841781
         vertex 0.00289691 0 -0.00196415
      endloop
   endfacet
   facet normal 0 1 0
      outer loop
         vertex 0.000322456 0 -0.00146493
         vertex 0.000478952 0 -0.00142148
         vertex 0.00111756 0 -0.00331679
      endloop
   endfacet
   facet normal 0 1 0
      outer loop
         vertex -0.00114324 0 -0.000971079
         vertex -0.00103155 0 -0.00108899
         vertex -0.00240695 0 -0.00254098
      endloop
   endfacet
   facet normal 0 1 0
      outer loop
         vertex -0.00132527 0 0.000702613
         vertex -0.00309229 0 0.00163943
         vertex -0.00289691 0 0.00196415
      endloop
   endfacet
   facet normal 0 1 0
      outer loop
         vertex -0.000378417 0 0.00347948
         vertex -0.000162179 0 0.00149121
         vertex -0.000322456 0 0.00146493
      endloop
   endfacet
   facet normal 0 1 0
      outer loop
         vertex -0.000378417 0 0.00347948
         vertex 0 0 0.0035
         vertex 0 0 0.0015
      endloop
   endfacet
   facet normal 0 1 0
      outer loop
         vertex 0.00124153 0 0.000841781
         vertex 0.00289691 0 0.00196415
         vertex 0.00309229 0 0.00163943
      endloop
   endfacet
   facet normal 0 1 0
      outer loop
         vertex 0.000629834 0 -0.00136136
         vertex 0.00146961 0 -0.00317651
         vertex 0.00111756 0 -0.00331679
      endloop
   endfacet
   facet normal 0 1 0
      outer loop
         vertex -0.00144532 0 -0.000401293
         vertex -0.00139347 0 -0.000555207
         vertex -0.00325142 0 -0.00129548
      endloop
   endfacet
   facet normal 0 1 0
      outer loop
         vertex 0 0 0.0015
         vertex -0.000162179 0 0.00149121
         vertex -0.000378417 0 0.00347948
      endloop
   endfacet
   facet normal 0 1 0
      outer loop
         vertex 0.00144532 0 0.000401293
         vertex 0.00337242 0 0.000936349
         vertex 0.00345389 0 0.000566237
      endloop
   endfacet
   facet normal 0 1 0
      outer loop
         vertex -0.000322456 0 0.00146493
         vertex -0.000752397 0 0.00341817
         vertex -0.000378417 0 0.00347948
      endloop
   endfacet
   facet normal 0 1 0
      outer loop
         vertex 0.000322456 0 -0.00146493
         vertex 0.000752397 0 -0.00341817
         vertex 0.000378417 0 -0.00347948
      endloop
   endfacet
   facet normal 0 1 0
      outer loop
         vertex 0.000162179 0 0.00149121
         vertex 0 0 0.0015
         vertex 0 0 0.0035
      endloop
   endfacet
endsolid Bearing. Units = meters