solid Cap Gab Filler. STL generated by ONSHAPE BY PTC INC, 1.216. Units = meters
   facet normal -0.994138 0.108119 0
      outer loop
         vertex -0.177258 -0.111902 0.208
         vertex -0.177248 -0.111723 0.208
         vertex -0.177248 -0.111723 0.204
      endloop
   endfacet
   facet normal -0.976621 0.21497 0
      outer loop
         vertex -0.177287 -0.112078 0.208
         vertex -0.177258 -0.111902 0.208
         vertex -0.177258 -0.111902 0.204
      endloop
   endfacet
   facet normal -0.947653 0.319302 0
      outer loop
         vertex -0.177335 -0.11225 0.208
         vertex -0.177287 -0.112078 0.208
         vertex -0.177287 -0.112078 0.204
      endloop
   endfacet
   facet normal -0.907575 0.419889 0
      outer loop
         vertex -0.177401 -0.112416 0.208
         vertex -0.177335 -0.11225 0.208
         vertex -0.177335 -0.11225 0.204
      endloop
   endfacet
   facet normal -0.856857 0.515554 0
      outer loop
         vertex -0.177485 -0.112574 0.208
         vertex -0.177401 -0.112416 0.208
         vertex -0.177401 -0.112416 0.204
      endloop
   endfacet
   facet normal -0.796093 0.605174 0
      outer loop
         vertex -0.177585 -0.112722 0.208
         vertex -0.177485 -0.112574 0.208
         vertex -0.177485 -0.112574 0.204
      endloop
   endfacet
   facet normal -0.725995 0.687699 0
      outer loop
         vertex -0.1777 -0.112858 0.208
         vertex -0.177585 -0.112722 0.208
         vertex -0.177585 -0.112722 0.204
      endloop
   endfacet
   facet normal -0.647386 0.762162 0
      outer loop
         vertex -0.17783 -0.112981 0.208
         vertex -0.1777 -0.112858 0.208
         vertex -0.1777 -0.112858 0.204
      endloop
   endfacet
   facet normal -0.561187 0.827689 0
      outer loop
         vertex -0.177972 -0.113089 0.208
         vertex -0.17783 -0.112981 0.208
         vertex -0.17783 -0.112981 0.204
      endloop
   endfacet
   facet normal -0.468408 0.883512 0
      outer loop
         vertex -0.178125 -0.113181 0.208
         vertex -0.177972 -0.113089 0.208
         vertex -0.177972 -0.113089 0.204
      endloop
   endfacet
   facet normal -0.370138 0.928977 0
      outer loop
         vertex -0.178288 -0.113256 0.208
         vertex -0.178125 -0.113181 0.208
         vertex -0.178125 -0.113181 0.204
      endloop
   endfacet
   facet normal -0.267528 0.96355 0
      outer loop
         vertex -0.178457 -0.113313 0.208
         vertex -0.178288 -0.113256 0.208
         vertex -0.178288 -0.113256 0.204
      endloop
   endfacet
   facet normal -0.161782 0.986827 0
      outer loop
         vertex -0.178631 -0.113351 0.208
         vertex -0.178457 -0.113313 0.208
         vertex -0.178457 -0.113313 0.204
      endloop
   endfacet
   facet normal -0.0541389 0.998533 0
      outer loop
         vertex -0.178809 -0.113371 0.208
         vertex -0.178631 -0.113351 0.208
         vertex -0.178631 -0.113351 0.204
      endloop
   endfacet
   facet normal 0.0541389 0.998533 0
      outer loop
         vertex -0.178988 -0.113371 0.208
         vertex -0.178809 -0.113371 0.208
         vertex -0.178809 -0.113371 0.204
      endloop
   endfacet
   facet normal 0.161782 0.986827 0
      outer loop
         vertex -0.179165 -0.113351 0.208
         vertex -0.178988 -0.113371 0.208
         vertex -0.178988 -0.113371 0.204
      endloop
   endfacet
   facet normal 0.267528 0.96355 0
      outer loop
         vertex -0.17934 -0.113313 0.208
         vertex -0.179165 -0.113351 0.208
         vertex -0.179165 -0.113351 0.204
      endloop
   endfacet
   facet normal 0.370138 0.928977 0
      outer loop
         vertex -0.179509 -0.113256 0.208
         vertex -0.17934 -0.113313 0.208
         vertex -0.17934 -0.113313 0.204
      endloop
   endfacet
   facet normal 0.468408 0.883512 0
      outer loop
         vertex -0.179671 -0.113181 0.208
         vertex -0.179509 -0.113256 0.208
         vertex -0.179509 -0.113256 0.204
      endloop
   endfacet
   facet normal 0.561187 0.827689 0
      outer loop
         vertex -0.179824 -0.113089 0.208
         vertex -0.179671 -0.113181 0.208
         vertex -0.179671 -0.113181 0.204
      endloop
   endfacet
   facet normal 0.647386 0.762162 0
      outer loop
         vertex -0.179967 -0.112981 0.208
         vertex -0.179824 -0.113089 0.208
         vertex -0.179824 -0.113089 0.204
      endloop
   endfacet
   facet normal 0.725995 0.687699 0
      outer loop
         vertex -0.180096 -0.112858 0.208
         vertex -0.179967 -0.112981 0.208
         vertex -0.179967 -0.112981 0.204
      endloop
   endfacet
   facet normal 0.796093 0.605174 0
      outer loop
         vertex -0.180212 -0.112722 0.208
         vertex -0.180096 -0.112858 0.208
         vertex -0.180096 -0.112858 0.204
      endloop
   endfacet
   facet normal 0.856857 0.515554 0
      outer loop
         vertex -0.180312 -0.112574 0.208
         vertex -0.180212 -0.112722 0.208
         vertex -0.180212 -0.112722 0.204
      endloop
   endfacet
   facet normal 0.907575 0.419889 0
      outer loop
         vertex -0.180396 -0.112416 0.208
         vertex -0.180312 -0.112574 0.208
         vertex -0.180312 -0.112574 0.204
      endloop
   endfacet
   facet normal 0.947653 0.319302 0
      outer loop
         vertex -0.180462 -0.11225 0.208
         vertex -0.180396 -0.112416 0.208
         vertex -0.180396 -0.112416 0.204
      endloop
   endfacet
   facet normal 0.976621 0.21497 0
      outer loop
         vertex -0.18051 -0.112078 0.208
         vertex -0.180462 -0.11225 0.208
         vertex -0.180462 -0.11225 0.204
      endloop
   endfacet
   facet normal 0.994138 0.108119 0
      outer loop
         vertex -0.180539 -0.111902 0.208
         vertex -0.18051 -0.112078 0.208
         vertex -0.18051 -0.112078 0.204
      endloop
   endfacet
   facet normal 1 -1.22465e-16 0
      outer loop
         vertex -0.180548 -0.111723 0.208
         vertex -0.180539 -0.111902 0.208
         vertex -0.180539 -0.111902 0.204
      endloop
   endfacet
   facet normal 0.994138 -0.108119 0
      outer loop
         vertex -0.180539 -0.111545 0.208
         vertex -0.180548 -0.111723 0.208
         vertex -0.180548 -0.111723 0.204
      endloop
   endfacet
   facet normal 0.976621 -0.21497 0
      outer loop
         vertex -0.18051 -0.111369 0.208
         vertex -0.180539 -0.111545 0.208
         vertex -0.180539 -0.111545 0.204
      endloop
   endfacet
   facet normal 0.947653 -0.319302 0
      outer loop
         vertex -0.180462 -0.111196 0.208
         vertex -0.18051 -0.111369 0.208
         vertex -0.18051 -0.111369 0.204
      endloop
   endfacet
   facet normal 0.907575 -0.419889 0
      outer loop
         vertex -0.180396 -0.11103 0.208
         vertex -0.180462 -0.111196 0.208
         vertex -0.180462 -0.111196 0.204
      endloop
   endfacet
   facet normal 0.856857 -0.515554 0
      outer loop
         vertex -0.180312 -0.110873 0.208
         vertex -0.180396 -0.11103 0.208
         vertex -0.180396 -0.11103 0.204
      endloop
   endfacet
   facet normal 0.796093 -0.605174 0
      outer loop
         vertex -0.180212 -0.110725 0.208
         vertex -0.180312 -0.110873 0.208
         vertex -0.180312 -0.110873 0.204
      endloop
   endfacet
   facet normal 0.725995 -0.687699 0
      outer loop
         vertex -0.180096 -0.110588 0.208
         vertex -0.180212 -0.110725 0.208
         vertex -0.180212 -0.110725 0.204
      endloop
   endfacet
   facet normal 0.647386 -0.762162 0
      outer loop
         vertex -0.179967 -0.110466 0.208
         vertex -0.180096 -0.110588 0.208
         vertex -0.180096 -0.110588 0.204
      endloop
   endfacet
   facet normal 0.561187 -0.827689 0
      outer loop
         vertex -0.179824 -0.110358 0.208
         vertex -0.179967 -0.110466 0.208
         vertex -0.179967 -0.110466 0.204
      endloop
   endfacet
   facet normal 0.468408 -0.883512 0
      outer loop
         vertex -0.179671 -0.110265 0.208
         vertex -0.179824 -0.110358 0.208
         vertex -0.179824 -0.110358 0.204
      endloop
   endfacet
   facet normal 0.370138 -0.928977 0
      outer loop
         vertex -0.179509 -0.11019 0.208
         vertex -0.179671 -0.110265 0.208
         vertex -0.179671 -0.110265 0.204
      endloop
   endfacet
   facet normal 0.267528 -0.96355 0
      outer loop
         vertex -0.17934 -0.110133 0.208
         vertex -0.179509 -0.11019 0.208
         vertex -0.179509 -0.11019 0.204
      endloop
   endfacet
   facet normal 0.161782 -0.986827 0
      outer loop
         vertex -0.179165 -0.110095 0.208
         vertex -0.17934 -0.110133 0.208
         vertex -0.17934 -0.110133 0.204
      endloop
   endfacet
   facet normal 0.0541389 -0.998533 0
      outer loop
         vertex -0.178988 -0.110076 0.208
         vertex -0.179165 -0.110095 0.208
         vertex -0.179165 -0.110095 0.204
      endloop
   endfacet
   facet normal -0.0541389 -0.998533 0
      outer loop
         vertex -0.178809 -0.110076 0.208
         vertex -0.178988 -0.110076 0.208
         vertex -0.178988 -0.110076 0.204
      endloop
   endfacet
   facet normal -0.161782 -0.986827 0
      outer loop
         vertex -0.178631 -0.110095 0.208
         vertex -0.178809 -0.110076 0.208
         vertex -0.178809 -0.110076 0.204
      endloop
   endfacet
   facet normal -0.267528 -0.96355 0
      outer loop
         vertex -0.178457 -0.110133 0.208
         vertex -0.178631 -0.110095 0.208
         vertex -0.178631 -0.110095 0.204
      endloop
   endfacet
   facet normal -0.370138 -0.928977 0
      outer loop
         vertex -0.178288 -0.11019 0.208
         vertex -0.178457 -0.110133 0.208
         vertex -0.178457 -0.110133 0.204
      endloop
   endfacet
   facet normal -0.468408 -0.883512 0
      outer loop
         vertex -0.178125 -0.110265 0.208
         vertex -0.178288 -0.11019 0.208
         vertex -0.178288 -0.11019 0.204
      endloop
   endfacet
   facet normal -0.561187 -0.827689 0
      outer loop
         vertex -0.177972 -0.110358 0.208
         vertex -0.178125 -0.110265 0.208
         vertex -0.178125 -0.110265 0.204
      endloop
   endfacet
   facet normal -0.647386 -0.762162 0
      outer loop
         vertex -0.17783 -0.110466 0.208
         vertex -0.177972 -0.110358 0.208
         vertex -0.177972 -0.110358 0.204
      endloop
   endfacet
   facet normal -0.725995 -0.687699 0
      outer loop
         vertex -0.1777 -0.110588 0.208
         vertex -0.17783 -0.110466 0.208
         vertex -0.17783 -0.110466 0.204
      endloop
   endfacet
   facet normal -0.796093 -0.605174 0
      outer loop
         vertex -0.177585 -0.110725 0.208
         vertex -0.1777 -0.110588 0.208
         vertex -0.1777 -0.110588 0.204
      endloop
   endfacet
   facet normal -0.856857 -0.515554 0
      outer loop
         vertex -0.177485 -0.110873 0.208
         vertex -0.177585 -0.110725 0.208
         vertex -0.177585 -0.110725 0.204
      endloop
   endfacet
   facet normal -0.907575 -0.419889 0
      outer loop
         vertex -0.177401 -0.11103 0.208
         vertex -0.177485 -0.110873 0.208
         vertex -0.177485 -0.110873 0.204
      endloop
   endfacet
   facet normal -0.947653 -0.319302 0
      outer loop
         vertex -0.177335 -0.111196 0.208
         vertex -0.177401 -0.11103 0.208
         vertex -0.177401 -0.11103 0.204
      endloop
   endfacet
   facet normal -0.976621 -0.21497 0
      outer loop
         vertex -0.177287 -0.111369 0.208
         vertex -0.177335 -0.111196 0.208
         vertex -0.177335 -0.111196 0.204
      endloop
   endfacet
   facet normal -0.994138 -0.108119 0
      outer loop
         vertex -0.177258 -0.111545 0.208
         vertex -0.177287 -0.111369 0.208
         vertex -0.177287 -0.111369 0.204
      endloop
   endfacet
   facet normal -1 2.44929e-16 0
      outer loop
         vertex -0.177248 -0.111723 0.208
         vertex -0.177258 -0.111545 0.208
         vertex -0.177258 -0.111545 0.204
      endloop
   endfacet
   facet normal -0.994138 -0.108119 0
      outer loop
         vertex -0.177258 -0.111545 0.204
         vertex -0.177248 -0.111723 0.204
         vertex -0.177248 -0.111723 0.208
      endloop
   endfacet
   facet normal -0.976621 -0.21497 0
      outer loop
         vertex -0.177287 -0.111369 0.204
         vertex -0.177258 -0.111545 0.204
         vertex -0.177258 -0.111545 0.208
      endloop
   endfacet
   facet normal -0.947653 -0.319302 0
      outer loop
         vertex -0.177335 -0.111196 0.204
         vertex -0.177287 -0.111369 0.204
         vertex -0.177287 -0.111369 0.208
      endloop
   endfacet
   facet normal -0.907575 -0.419889 0
      outer loop
         vertex -0.177401 -0.11103 0.204
         vertex -0.177335 -0.111196 0.204
         vertex -0.177335 -0.111196 0.208
      endloop
   endfacet
   facet normal -0.856857 -0.515554 0
      outer loop
         vertex -0.177485 -0.110873 0.204
         vertex -0.177401 -0.11103 0.204
         vertex -0.177401 -0.11103 0.208
      endloop
   endfacet
   facet normal -0.796093 -0.605174 0
      outer loop
         vertex -0.177585 -0.110725 0.204
         vertex -0.177485 -0.110873 0.204
         vertex -0.177485 -0.110873 0.208
      endloop
   endfacet
   facet normal -0.725995 -0.687699 0
      outer loop
         vertex -0.1777 -0.110588 0.204
         vertex -0.177585 -0.110725 0.204
         vertex -0.177585 -0.110725 0.208
      endloop
   endfacet
   facet normal -0.647386 -0.762162 0
      outer loop
         vertex -0.17783 -0.110466 0.204
         vertex -0.1777 -0.110588 0.204
         vertex -0.1777 -0.110588 0.208
      endloop
   endfacet
   facet normal -0.561187 -0.827689 0
      outer loop
         vertex -0.177972 -0.110358 0.204
         vertex -0.17783 -0.110466 0.204
         vertex -0.17783 -0.110466 0.208
      endloop
   endfacet
   facet normal -0.468408 -0.883512 0
      outer loop
         vertex -0.178125 -0.110265 0.204
         vertex -0.177972 -0.110358 0.204
         vertex -0.177972 -0.110358 0.208
      endloop
   endfacet
   facet normal -0.370138 -0.928977 0
      outer loop
         vertex -0.178288 -0.11019 0.204
         vertex -0.178125 -0.110265 0.204
         vertex -0.178125 -0.110265 0.208
      endloop
   endfacet
   facet normal -0.267528 -0.96355 0
      outer loop
         vertex -0.178457 -0.110133 0.204
         vertex -0.178288 -0.11019 0.204
         vertex -0.178288 -0.11019 0.208
      endloop
   endfacet
   facet normal -0.161782 -0.986827 0
      outer loop
         vertex -0.178631 -0.110095 0.204
         vertex -0.178457 -0.110133 0.204
         vertex -0.178457 -0.110133 0.208
      endloop
   endfacet
   facet normal -0.0541389 -0.998533 0
      outer loop
         vertex -0.178809 -0.110076 0.204
         vertex -0.178631 -0.110095 0.204
         vertex -0.178631 -0.110095 0.208
      endloop
   endfacet
   facet normal 0.0541389 -0.998533 0
      outer loop
         vertex -0.178988 -0.110076 0.204
         vertex -0.178809 -0.110076 0.204
         vertex -0.178809 -0.110076 0.208
      endloop
   endfacet
   facet normal 0.161782 -0.986827 0
      outer loop
         vertex -0.179165 -0.110095 0.204
         vertex -0.178988 -0.110076 0.204
         vertex -0.178988 -0.110076 0.208
      endloop
   endfacet
   facet normal 0.267528 -0.96355 0
      outer loop
         vertex -0.17934 -0.110133 0.204
         vertex -0.179165 -0.110095 0.204
         vertex -0.179165 -0.110095 0.208
      endloop
   endfacet
   facet normal 0.370138 -0.928977 0
      outer loop
         vertex -0.179509 -0.11019 0.204
         vertex -0.17934 -0.110133 0.204
         vertex -0.17934 -0.110133 0.208
      endloop
   endfacet
   facet normal 0.468408 -0.883512 0
      outer loop
         vertex -0.179671 -0.110265 0.204
         vertex -0.179509 -0.11019 0.204
         vertex -0.179509 -0.11019 0.208
      endloop
   endfacet
   facet normal 0.561187 -0.827689 0
      outer loop
         vertex -0.179824 -0.110358 0.204
         vertex -0.179671 -0.110265 0.204
         vertex -0.179671 -0.110265 0.208
      endloop
   endfacet
   facet normal 0.647386 -0.762162 0
      outer loop
         vertex -0.179967 -0.110466 0.204
         vertex -0.179824 -0.110358 0.204
         vertex -0.179824 -0.110358 0.208
      endloop
   endfacet
   facet normal 0.725995 -0.687699 0
      outer loop
         vertex -0.180096 -0.110588 0.204
         vertex -0.179967 -0.110466 0.204
         vertex -0.179967 -0.110466 0.208
      endloop
   endfacet
   facet normal 0.796093 -0.605174 0
      outer loop
         vertex -0.180212 -0.110725 0.204
         vertex -0.180096 -0.110588 0.204
         vertex -0.180096 -0.110588 0.208
      endloop
   endfacet
   facet normal 0.856857 -0.515554 0
      outer loop
         vertex -0.180312 -0.110873 0.204
         vertex -0.180212 -0.110725 0.204
         vertex -0.180212 -0.110725 0.208
      endloop
   endfacet
   facet normal 0.907575 -0.419889 0
      outer loop
         vertex -0.180396 -0.11103 0.204
         vertex -0.180312 -0.110873 0.204
         vertex -0.180312 -0.110873 0.208
      endloop
   endfacet
   facet normal 0.947653 -0.319302 0
      outer loop
         vertex -0.180462 -0.111196 0.204
         vertex -0.180396 -0.11103 0.204
         vertex -0.180396 -0.11103 0.208
      endloop
   endfacet
   facet normal 0.976621 -0.21497 0
      outer loop
         vertex -0.18051 -0.111369 0.204
         vertex -0.180462 -0.111196 0.204
         vertex -0.180462 -0.111196 0.208
      endloop
   endfacet
   facet normal 0.994138 -0.108119 0
      outer loop
         vertex -0.180539 -0.111545 0.204
         vertex -0.18051 -0.111369 0.204
         vertex -0.18051 -0.111369 0.208
      endloop
   endfacet
   facet normal 1 -1.22465e-16 0
      outer loop
         vertex -0.180548 -0.111723 0.204
         vertex -0.180539 -0.111545 0.204
         vertex -0.180539 -0.111545 0.208
      endloop
   endfacet
   facet normal 0.994138 0.108119 0
      outer loop
         vertex -0.180539 -0.111902 0.204
         vertex -0.180548 -0.111723 0.204
         vertex -0.180548 -0.111723 0.208
      endloop
   endfacet
   facet normal 0.976621 0.21497 0
      outer loop
         vertex -0.18051 -0.112078 0.204
         vertex -0.180539 -0.111902 0.204
         vertex -0.180539 -0.111902 0.208
      endloop
   endfacet
   facet normal 0.947653 0.319302 0
      outer loop
         vertex -0.180462 -0.11225 0.204
         vertex -0.18051 -0.112078 0.204
         vertex -0.18051 -0.112078 0.208
      endloop
   endfacet
   facet normal 0.907575 0.419889 0
      outer loop
         vertex -0.180396 -0.112416 0.204
         vertex -0.180462 -0.11225 0.204
         vertex -0.180462 -0.11225 0.208
      endloop
   endfacet
   facet normal 0.856857 0.515554 0
      outer loop
         vertex -0.180312 -0.112574 0.204
         vertex -0.180396 -0.112416 0.204
         vertex -0.180396 -0.112416 0.208
      endloop
   endfacet
   facet normal 0.796093 0.605174 0
      outer loop
         vertex -0.180212 -0.112722 0.204
         vertex -0.180312 -0.112574 0.204
         vertex -0.180312 -0.112574 0.208
      endloop
   endfacet
   facet normal 0.725995 0.687699 0
      outer loop
         vertex -0.180096 -0.112858 0.204
         vertex -0.180212 -0.112722 0.204
         vertex -0.180212 -0.112722 0.208
      endloop
   endfacet
   facet normal 0.647386 0.762162 0
      outer loop
         vertex -0.179967 -0.112981 0.204
         vertex -0.180096 -0.112858 0.204
         vertex -0.180096 -0.112858 0.208
      endloop
   endfacet
   facet normal 0.561187 0.827689 0
      outer loop
         vertex -0.179824 -0.113089 0.204
         vertex -0.179967 -0.112981 0.204
         vertex -0.179967 -0.112981 0.208
      endloop
   endfacet
   facet normal 0.468408 0.883512 0
      outer loop
         vertex -0.179671 -0.113181 0.204
         vertex -0.179824 -0.113089 0.204
         vertex -0.179824 -0.113089 0.208
      endloop
   endfacet
   facet normal 0.370138 0.928977 0
      outer loop
         vertex -0.179509 -0.113256 0.204
         vertex -0.179671 -0.113181 0.204
         vertex -0.179671 -0.113181 0.208
      endloop
   endfacet
   facet normal 0.267528 0.96355 0
      outer loop
         vertex -0.17934 -0.113313 0.204
         vertex -0.179509 -0.113256 0.204
         vertex -0.179509 -0.113256 0.208
      endloop
   endfacet
   facet normal 0.161782 0.986827 0
      outer loop
         vertex -0.179165 -0.113351 0.204
         vertex -0.17934 -0.113313 0.204
         vertex -0.17934 -0.113313 0.208
      endloop
   endfacet
   facet normal 0.0541389 0.998533 0
      outer loop
         vertex -0.178988 -0.113371 0.204
         vertex -0.179165 -0.113351 0.204
         vertex -0.179165 -0.113351 0.208
      endloop
   endfacet
   facet normal -0.0541389 0.998533 0
      outer loop
         vertex -0.178809 -0.113371 0.204
         vertex -0.178988 -0.113371 0.204
         vertex -0.178988 -0.113371 0.208
      endloop
   endfacet
   facet normal -0.161782 0.986827 0
      outer loop
         vertex -0.178631 -0.113351 0.204
         vertex -0.178809 -0.113371 0.204
         vertex -0.178809 -0.113371 0.208
      endloop
   endfacet
   facet normal -0.267528 0.96355 0
      outer loop
         vertex -0.178457 -0.113313 0.204
         vertex -0.178631 -0.113351 0.204
         vertex -0.178631 -0.113351 0.208
      endloop
   endfacet
   facet normal -0.370138 0.928977 0
      outer loop
         vertex -0.178288 -0.113256 0.204
         vertex -0.178457 -0.113313 0.204
         vertex -0.178457 -0.113313 0.208
      endloop
   endfacet
   facet normal -0.468408 0.883512 0
      outer loop
         vertex -0.178125 -0.113181 0.204
         vertex -0.178288 -0.113256 0.204
         vertex -0.178288 -0.113256 0.208
      endloop
   endfacet
   facet normal -0.561187 0.827689 0
      outer loop
         vertex -0.177972 -0.113089 0.204
         vertex -0.178125 -0.113181 0.204
         vertex -0.178125 -0.113181 0.208
      endloop
   endfacet
   facet normal -0.647386 0.762162 0
      outer loop
         vertex -0.17783 -0.112981 0.204
         vertex -0.177972 -0.113089 0.204
         vertex -0.177972 -0.113089 0.208
      endloop
   endfacet
   facet normal -0.725995 0.687699 0
      outer loop
         vertex -0.1777 -0.112858 0.204
         vertex -0.17783 -0.112981 0.204
         vertex -0.17783 -0.112981 0.208
      endloop
   endfacet
   facet normal -0.796093 0.605174 0
      outer loop
         vertex -0.177585 -0.112722 0.204
         vertex -0.1777 -0.112858 0.204
         vertex -0.1777 -0.112858 0.208
      endloop
   endfacet
   facet normal -0.856857 0.515554 0
      outer loop
         vertex -0.177485 -0.112574 0.204
         vertex -0.177585 -0.112722 0.204
         vertex -0.177585 -0.112722 0.208
      endloop
   endfacet
   facet normal -0.907575 0.419889 0
      outer loop
         vertex -0.177401 -0.112416 0.204
         vertex -0.177485 -0.112574 0.204
         vertex -0.177485 -0.112574 0.208
      endloop
   endfacet
   facet normal -0.947653 0.319302 0
      outer loop
         vertex -0.177335 -0.11225 0.204
         vertex -0.177401 -0.112416 0.204
         vertex -0.177401 -0.112416 0.208
      endloop
   endfacet
   facet normal -0.976621 0.21497 0
      outer loop
         vertex -0.177287 -0.112078 0.204
         vertex -0.177335 -0.11225 0.204
         vertex -0.177335 -0.11225 0.208
      endloop
   endfacet
   facet normal -0.994138 0.108119 0
      outer loop
         vertex -0.177258 -0.111902 0.204
         vertex -0.177287 -0.112078 0.204
         vertex -0.177287 -0.112078 0.208
      endloop
   endfacet
   facet normal -1 2.44929e-16 0
      outer loop
         vertex -0.177248 -0.111723 0.204
         vertex -0.177258 -0.111902 0.204
         vertex -0.177258 -0.111902 0.208
      endloop
   endfacet
   facet normal 0 0 -1
      outer loop
         vertex -0.106066 -0.178898 0.204
         vertex -0.110083 -0.17872 0.204
         vertex -0.110112 -0.178544 0.204
      endloop
   endfacet
   facet normal 0 0 -1
      outer loop
         vertex -0.106066 -0.178898 0.204
         vertex -0.11016 -0.179425 0.204
         vertex -0.110112 -0.179253 0.204
      endloop
   endfacet
   facet normal 0 0 -1
      outer loop
         vertex -0.178988 -0.113371 0.204
         vertex -0.106066 -0.178898 0.204
         vertex -0.110655 -0.177641 0.204
      endloop
   endfacet
   facet normal 0 0 -1
      outer loop
         vertex -0.106066 -0.178898 0.204
         vertex -0.110226 -0.178206 0.204
         vertex -0.110309 -0.178048 0.204
      endloop
   endfacet
   facet normal 0 0 -1
      outer loop
         vertex -0.106066 -0.178898 0.204
         vertex -0.110073 -0.178898 0.204
         vertex -0.110083 -0.17872 0.204
      endloop
   endfacet
   facet normal 0 0 -1
      outer loop
         vertex -0.110112 -0.179253 0.204
         vertex -0.110083 -0.179077 0.204
         vertex -0.106066 -0.178898 0.204
      endloop
   endfacet
   facet normal 0 0 -1
      outer loop
         vertex -0.106066 -0.178898 0.204
         vertex -0.178988 -0.113371 0.204
         vertex -0.178809 -0.113371 0.204
      endloop
   endfacet
   facet normal 0 0 -1
      outer loop
         vertex -0.106066 -0.178898 0.204
         vertex -0.110525 -0.177764 0.204
         vertex -0.110655 -0.177641 0.204
      endloop
   endfacet
   facet normal 0 0 -1
      outer loop
         vertex -0.106066 -0.178898 0.204
         vertex -0.11016 -0.178372 0.204
         vertex -0.110226 -0.178206 0.204
      endloop
   endfacet
   facet normal 0 0 -1
      outer loop
         vertex -0.110083 -0.179077 0.204
         vertex -0.110073 -0.178898 0.204
         vertex -0.106066 -0.178898 0.204
      endloop
   endfacet
   facet normal 0 0 -1
      outer loop
         vertex -0.106066 -0.178898 0.204
         vertex -0.11041 -0.179897 0.204
         vertex -0.110309 -0.179749 0.204
      endloop
   endfacet
   facet normal 0 0 -1
      outer loop
         vertex -0.110655 -0.177641 0.204
         vertex -0.179165 -0.113351 0.204
         vertex -0.178988 -0.113371 0.204
      endloop
   endfacet
   facet normal 0 0 -1
      outer loop
         vertex -0.110112 -0.178544 0.204
         vertex -0.11016 -0.178372 0.204
         vertex -0.106066 -0.178898 0.204
      endloop
   endfacet
   facet normal 0 0 -1
      outer loop
         vertex -0.110309 -0.179749 0.204
         vertex -0.110226 -0.179591 0.204
         vertex -0.106066 -0.178898 0.204
      endloop
   endfacet
   facet normal 0 0 -1
      outer loop
         vertex -0.111723 -0.184555 0.204
         vertex -0.110655 -0.180156 0.204
         vertex -0.110525 -0.180033 0.204
      endloop
   endfacet
   facet normal 0 0 -1
      outer loop
         vertex -0.111723 -0.184555 0.204
         vertex -0.11095 -0.180356 0.204
         vertex -0.110797 -0.180264 0.204
      endloop
   endfacet
   facet normal 0 0 -1
      outer loop
         vertex -0.111723 -0.184555 0.204
         vertex -0.111813 -0.180546 0.204
         vertex -0.111634 -0.180546 0.204
      endloop
   endfacet
   facet normal 0 0 -1
      outer loop
         vertex -0.184555 -0.111723 0.204
         vertex -0.179824 -0.113089 0.204
         vertex -0.179671 -0.113181 0.204
      endloop
   endfacet
   facet normal 0 0 -1
      outer loop
         vertex -0.178898 -0.106066 0.204
         vertex -0.179967 -0.110466 0.204
         vertex -0.180096 -0.110588 0.204
      endloop
   endfacet
   facet normal 0 0 -1
      outer loop
         vertex -0.106066 -0.178898 0.204
         vertex -0.17783 -0.112981 0.204
         vertex -0.1777 -0.112858 0.204
      endloop
   endfacet
   facet normal 0 0 -1
      outer loop
         vertex -0.106066 -0.178898 0.204
         vertex -0.11041 -0.1779 0.204
         vertex -0.110525 -0.177764 0.204
      endloop
   endfacet
   facet normal 0 0 -1
      outer loop
         vertex -0.110226 -0.179591 0.204
         vertex -0.11016 -0.179425 0.204
         vertex -0.106066 -0.178898 0.204
      endloop
   endfacet
   facet normal 0 0 -1
      outer loop
         vertex -0.110525 -0.180033 0.204
         vertex -0.106066 -0.178898 0.204
         vertex -0.111723 -0.184555 0.204
      endloop
   endfacet
   facet normal 0 0 -1
      outer loop
         vertex -0.111723 -0.184555 0.204
         vertex -0.111112 -0.180431 0.204
         vertex -0.11095 -0.180356 0.204
      endloop
   endfacet
   facet normal 0 0 -1
      outer loop
         vertex -0.111723 -0.184555 0.204
         vertex -0.111456 -0.180527 0.204
         vertex -0.111282 -0.180488 0.204
      endloop
   endfacet
   facet normal 0 0 -1
      outer loop
         vertex -0.111723 -0.184555 0.204
         vertex -0.11199 -0.180527 0.204
         vertex -0.111813 -0.180546 0.204
      endloop
   endfacet
   facet normal 0 0 -1
      outer loop
         vertex -0.184555 -0.111723 0.204
         vertex -0.113287 -0.178372 0.204
         vertex -0.113335 -0.178544 0.204
      endloop
   endfacet
   facet normal 0 0 -1
      outer loop
         vertex -0.184555 -0.111723 0.204
         vertex -0.113037 -0.1779 0.204
         vertex -0.113137 -0.178048 0.204
      endloop
   endfacet
   facet normal 0 0 -1
      outer loop
         vertex -0.184555 -0.111723 0.204
         vertex -0.112496 -0.177441 0.204
         vertex -0.112649 -0.177533 0.204
      endloop
   endfacet
   facet normal 0 0 -1
      outer loop
         vertex -0.184555 -0.111723 0.204
         vertex -0.111634 -0.177251 0.204
         vertex -0.111813 -0.177251 0.204
      endloop
   endfacet
   facet normal 0 0 -1
      outer loop
         vertex -0.17934 -0.113313 0.204
         vertex -0.110655 -0.177641 0.204
         vertex -0.110797 -0.177533 0.204
      endloop
   endfacet
   facet normal 0 0 -1
      outer loop
         vertex -0.184555 -0.111723 0.204
         vertex -0.179967 -0.112981 0.204
         vertex -0.179824 -0.113089 0.204
      endloop
   endfacet
   facet normal 0 0 -1
      outer loop
         vertex -0.184555 -0.111723 0.204
         vertex -0.180212 -0.112722 0.204
         vertex -0.180096 -0.112858 0.204
      endloop
   endfacet
   facet normal 0 0 -1
      outer loop
         vertex -0.180096 -0.110588 0.204
         vertex -0.184555 -0.111723 0.204
         vertex -0.178898 -0.106066 0.204
      endloop
   endfacet
   facet normal 0 0 -1
      outer loop
         vertex -0.178898 -0.106066 0.204
         vertex -0.179671 -0.110265 0.204
         vertex -0.179824 -0.110358 0.204
      endloop
   endfacet
   facet normal 0 0 -1
      outer loop
         vertex -0.106066 -0.178898 0.204
         vertex -0.177972 -0.113089 0.204
         vertex -0.17783 -0.112981 0.204
      endloop
   endfacet
   facet normal 0 0 -1
      outer loop
         vertex -0.110309 -0.178048 0.204
         vertex -0.11041 -0.1779 0.204
         vertex -0.106066 -0.178898 0.204
      endloop
   endfacet
   facet normal 0 0 -1
      outer loop
         vertex -0.110797 -0.180264 0.204
         vertex -0.110655 -0.180156 0.204
         vertex -0.111723 -0.184555 0.204
      endloop
   endfacet
   facet normal 0 0 -1
      outer loop
         vertex -0.111634 -0.180546 0.204
         vertex -0.111456 -0.180527 0.204
         vertex -0.111723 -0.184555 0.204
      endloop
   endfacet
   facet normal 0 0 -1
      outer loop
         vertex -0.111723 -0.184555 0.204
         vertex -0.112334 -0.180431 0.204
         vertex -0.112165 -0.180488 0.204
      endloop
   endfacet
   facet normal 0 0 -1
      outer loop
         vertex -0.113335 -0.178544 0.204
         vertex -0.113364 -0.17872 0.204
         vertex -0.184555 -0.111723 0.204
      endloop
   endfacet
   facet normal 0 0 -1
      outer loop
         vertex -0.113137 -0.178048 0.204
         vertex -0.113221 -0.178206 0.204
         vertex -0.184555 -0.111723 0.204
      endloop
   endfacet
   facet normal 0 0 -1
      outer loop
         vertex -0.184555 -0.111723 0.204
         vertex -0.112791 -0.177641 0.204
         vertex -0.112921 -0.177764 0.204
      endloop
   endfacet
   facet normal 0 0 -1
      outer loop
         vertex -0.184555 -0.111723 0.204
         vertex -0.112334 -0.177366 0.204
         vertex -0.112496 -0.177441 0.204
      endloop
   endfacet
   facet normal 0 0 -1
      outer loop
         vertex -0.184555 -0.111723 0.204
         vertex -0.111456 -0.17727 0.204
         vertex -0.111634 -0.177251 0.204
      endloop
   endfacet
   facet normal 0 0 -1
      outer loop
         vertex -0.184555 -0.111723 0.204
         vertex -0.111112 -0.177366 0.204
         vertex -0.111282 -0.177308 0.204
      endloop
   endfacet
   facet normal 0 0 -1
      outer loop
         vertex -0.110797 -0.177533 0.204
         vertex -0.179509 -0.113256 0.204
         vertex -0.17934 -0.113313 0.204
      endloop
   endfacet
   facet normal 0 0 -1
      outer loop
         vertex -0.179671 -0.113181 0.204
         vertex -0.111112 -0.177366 0.204
         vertex -0.184555 -0.111723 0.204
      endloop
   endfacet
   facet normal 0 0 -1
      outer loop
         vertex -0.184555 -0.111723 0.204
         vertex -0.180312 -0.112574 0.204
         vertex -0.180212 -0.112722 0.204
      endloop
   endfacet
   facet normal 0 0 -1
      outer loop
         vertex -0.180096 -0.110588 0.204
         vertex -0.180212 -0.110725 0.204
         vertex -0.184555 -0.111723 0.204
      endloop
   endfacet
   facet normal 0 0 -1
      outer loop
         vertex -0.178898 -0.106066 0.204
         vertex -0.179509 -0.11019 0.204
         vertex -0.179671 -0.110265 0.204
      endloop
   endfacet
   facet normal 0 0 -1
      outer loop
         vertex -0.1777 -0.112858 0.204
         vertex -0.177585 -0.112722 0.204
         vertex -0.106066 -0.178898 0.204
      endloop
   endfacet
   facet normal 0 0 -1
      outer loop
         vertex -0.106066 -0.178898 0.204
         vertex -0.178288 -0.113256 0.204
         vertex -0.178125 -0.113181 0.204
      endloop
   endfacet
   facet normal 0 0 -1
      outer loop
         vertex -0.106066 -0.178898 0.204
         vertex -0.178631 -0.113351 0.204
         vertex -0.178457 -0.113313 0.204
      endloop
   endfacet
   facet normal 0 0 -1
      outer loop
         vertex -0.110525 -0.180033 0.204
         vertex -0.11041 -0.179897 0.204
         vertex -0.106066 -0.178898 0.204
      endloop
   endfacet
   facet normal 0 0 -1
      outer loop
         vertex -0.112165 -0.180488 0.204
         vertex -0.11199 -0.180527 0.204
         vertex -0.111723 -0.184555 0.204
      endloop
   endfacet
   facet normal 0 0 -1
      outer loop
         vertex -0.111723 -0.184555 0.204
         vertex -0.112791 -0.180156 0.204
         vertex -0.112649 -0.180264 0.204
      endloop
   endfacet
   facet normal 0 0 -1
      outer loop
         vertex -0.113221 -0.178206 0.204
         vertex -0.113287 -0.178372 0.204
         vertex -0.184555 -0.111723 0.204
      endloop
   endfacet
   facet normal 0 0 -1
      outer loop
         vertex -0.112649 -0.177533 0.204
         vertex -0.112791 -0.177641 0.204
         vertex -0.184555 -0.111723 0.204
      endloop
   endfacet
   facet normal 0 0 -1
      outer loop
         vertex -0.184555 -0.111723 0.204
         vertex -0.11199 -0.17727 0.204
         vertex -0.112165 -0.177308 0.204
      endloop
   endfacet
   facet normal 0 0 -1
      outer loop
         vertex -0.111282 -0.177308 0.204
         vertex -0.111456 -0.17727 0.204
         vertex -0.184555 -0.111723 0.204
      endloop
   endfacet
   facet normal 0 0 -1
      outer loop
         vertex -0.17934 -0.113313 0.204
         vertex -0.179165 -0.113351 0.204
         vertex -0.110655 -0.177641 0.204
      endloop
   endfacet
   facet normal 0 0 -1
      outer loop
         vertex -0.180096 -0.112858 0.204
         vertex -0.179967 -0.112981 0.204
         vertex -0.184555 -0.111723 0.204
      endloop
   endfacet
   facet normal 0 0 -1
      outer loop
         vertex -0.179824 -0.110358 0.204
         vertex -0.179967 -0.110466 0.204
         vertex -0.178898 -0.106066 0.204
      endloop
   endfacet
   facet normal 0 0 -1
      outer loop
         vertex -0.178898 -0.106066 0.204
         vertex -0.17783 -0.110466 0.204
         vertex -0.177972 -0.110358 0.204
      endloop
   endfacet
   facet normal 0 0 -1
      outer loop
         vertex -0.178898 -0.106066 0.204
         vertex -0.177585 -0.110725 0.204
         vertex -0.1777 -0.110588 0.204
      endloop
   endfacet
   facet normal 0 0 -1
      outer loop
         vertex -0.177585 -0.112722 0.204
         vertex -0.177485 -0.112574 0.204
         vertex -0.106066 -0.178898 0.204
      endloop
   endfacet
   facet normal 0 0 -1
      outer loop
         vertex -0.178457 -0.113313 0.204
         vertex -0.178288 -0.113256 0.204
         vertex -0.106066 -0.178898 0.204
      endloop
   endfacet
   facet normal 0 0 -1
      outer loop
         vertex -0.111282 -0.180488 0.204
         vertex -0.111112 -0.180431 0.204
         vertex -0.111723 -0.184555 0.204
      endloop
   endfacet
   facet normal 0 0 -1
      outer loop
         vertex -0.112649 -0.180264 0.204
         vertex -0.112496 -0.180356 0.204
         vertex -0.111723 -0.184555 0.204
      endloop
   endfacet
   facet normal 0 0 -1
      outer loop
         vertex -0.112921 -0.177764 0.204
         vertex -0.113037 -0.1779 0.204
         vertex -0.184555 -0.111723 0.204
      endloop
   endfacet
   facet normal 0 0 -1
      outer loop
         vertex -0.111813 -0.177251 0.204
         vertex -0.11199 -0.17727 0.204
         vertex -0.184555 -0.111723 0.204
      endloop
   endfacet
   facet normal 0 0 -1
      outer loop
         vertex -0.110797 -0.177533 0.204
         vertex -0.11095 -0.177441 0.204
         vertex -0.179509 -0.113256 0.204
      endloop
   endfacet
   facet normal 0 0 -1
      outer loop
         vertex -0.184555 -0.111723 0.204
         vertex -0.180396 -0.112416 0.204
         vertex -0.180312 -0.112574 0.204
      endloop
   endfacet
   facet normal 0 0 -1
      outer loop
         vertex -0.180212 -0.110725 0.204
         vertex -0.180312 -0.110873 0.204
         vertex -0.184555 -0.111723 0.204
      endloop
   endfacet
   facet normal 0 0 -1
      outer loop
         vertex -0.178898 -0.106066 0.204
         vertex -0.179165 -0.110095 0.204
         vertex -0.17934 -0.110133 0.204
      endloop
   endfacet
   facet normal 0 0 -1
      outer loop
         vertex -0.178898 -0.106066 0.204
         vertex -0.178809 -0.110076 0.204
         vertex -0.178988 -0.110076 0.204
      endloop
   endfacet
   facet normal 0 0 -1
      outer loop
         vertex -0.177972 -0.110358 0.204
         vertex -0.178125 -0.110265 0.204
         vertex -0.178898 -0.106066 0.204
      endloop
   endfacet
   facet normal 0 0 -1
      outer loop
         vertex -0.178898 -0.106066 0.204
         vertex -0.177485 -0.110873 0.204
         vertex -0.177585 -0.110725 0.204
      endloop
   endfacet
   facet normal 0 0 -1
      outer loop
         vertex -0.178125 -0.113181 0.204
         vertex -0.177972 -0.113089 0.204
         vertex -0.106066 -0.178898 0.204
      endloop
   endfacet
   facet normal 0 0 -1
      outer loop
         vertex -0.112496 -0.180356 0.204
         vertex -0.112334 -0.180431 0.204
         vertex -0.111723 -0.184555 0.204
      endloop
   endfacet
   facet normal 0 0 -1
      outer loop
         vertex -0.112165 -0.177308 0.204
         vertex -0.112334 -0.177366 0.204
         vertex -0.184555 -0.111723 0.204
      endloop
   endfacet
   facet normal 0 0 -1
      outer loop
         vertex -0.179671 -0.113181 0.204
         vertex -0.179509 -0.113256 0.204
         vertex -0.111112 -0.177366 0.204
      endloop
   endfacet
   facet normal 0 0 -1
      outer loop
         vertex -0.184555 -0.111723 0.204
         vertex -0.113335 -0.179253 0.204
         vertex -0.113287 -0.179425 0.204
      endloop
   endfacet
   facet normal 0 0 -1
      outer loop
         vertex -0.17934 -0.110133 0.204
         vertex -0.179509 -0.11019 0.204
         vertex -0.178898 -0.106066 0.204
      endloop
   endfacet
   facet normal 0 0 -1
      outer loop
         vertex -0.178898 -0.106066 0.204
         vertex -0.178631 -0.110095 0.204
         vertex -0.178809 -0.110076 0.204
      endloop
   endfacet
   facet normal 0 0 -1
      outer loop
         vertex -0.178898 -0.106066 0.204
         vertex -0.178288 -0.11019 0.204
         vertex -0.178457 -0.110133 0.204
      endloop
   endfacet
   facet normal 0 0 -1
      outer loop
         vertex -0.1777 -0.110588 0.204
         vertex -0.17783 -0.110466 0.204
         vertex -0.178898 -0.106066 0.204
      endloop
   endfacet
   facet normal 0 0 -1
      outer loop
         vertex -0.178809 -0.113371 0.204
         vertex -0.178631 -0.113351 0.204
         vertex -0.106066 -0.178898 0.204
      endloop
   endfacet
   facet normal 0 0 -1
      outer loop
         vertex -0.11095 -0.177441 0.204
         vertex -0.111112 -0.177366 0.204
         vertex -0.179509 -0.113256 0.204
      endloop
   endfacet
   facet normal 0 0 -1
      outer loop
         vertex -0.111723 -0.184555 0.204
         vertex -0.113287 -0.179425 0.204
         vertex -0.113221 -0.179591 0.204
      endloop
   endfacet
   facet normal 0 0 -1
      outer loop
         vertex -0.184555 -0.111723 0.204
         vertex -0.113364 -0.179077 0.204
         vertex -0.113335 -0.179253 0.204
      endloop
   endfacet
   facet normal 0 0 -1
      outer loop
         vertex -0.178988 -0.110076 0.204
         vertex -0.179165 -0.110095 0.204
         vertex -0.178898 -0.106066 0.204
      endloop
   endfacet
   facet normal 0 0 -1
      outer loop
         vertex -0.178125 -0.110265 0.204
         vertex -0.178288 -0.11019 0.204
         vertex -0.178898 -0.106066 0.204
      endloop
   endfacet
   facet normal 0 0 -1
      outer loop
         vertex -0.106066 -0.178898 0.204
         vertex -0.177401 -0.112416 0.204
         vertex -0.177335 -0.11225 0.204
      endloop
   endfacet
   facet normal 0 0 -1
      outer loop
         vertex -0.113364 -0.17872 0.204
         vertex -0.113373 -0.178898 0.204
         vertex -0.184555 -0.111723 0.204
      endloop
   endfacet
   facet normal 0 0 -1
      outer loop
         vertex -0.113221 -0.179591 0.204
         vertex -0.113137 -0.179749 0.204
         vertex -0.111723 -0.184555 0.204
      endloop
   endfacet
   facet normal 0 0 -1
      outer loop
         vertex -0.184555 -0.111723 0.204
         vertex -0.113373 -0.178898 0.204
         vertex -0.113364 -0.179077 0.204
      endloop
   endfacet
   facet normal 0 0 -1
      outer loop
         vertex -0.184555 -0.111723 0.204
         vertex -0.180396 -0.11103 0.204
         vertex -0.180462 -0.111196 0.204
      endloop
   endfacet
   facet normal 0 0 -1
      outer loop
         vertex -0.178457 -0.110133 0.204
         vertex -0.178631 -0.110095 0.204
         vertex -0.178898 -0.106066 0.204
      endloop
   endfacet
   facet normal 0 0 -1
      outer loop
         vertex -0.177485 -0.112574 0.204
         vertex -0.177401 -0.112416 0.204
         vertex -0.106066 -0.178898 0.204
      endloop
   endfacet
   facet normal 0 0 -1
      outer loop
         vertex -0.184555 -0.111723 0.204
         vertex -0.18051 -0.112078 0.204
         vertex -0.180462 -0.11225 0.204
      endloop
   endfacet
   facet normal 0 0 -1
      outer loop
         vertex -0.111723 -0.184555 0.204
         vertex -0.113037 -0.179897 0.204
         vertex -0.112921 -0.180033 0.204
      endloop
   endfacet
   facet normal 0 0 -1
      outer loop
         vertex -0.113287 -0.179425 0.204
         vertex -0.111723 -0.184555 0.204
         vertex -0.184555 -0.111723 0.204
      endloop
   endfacet
   facet normal 0 0 -1
      outer loop
         vertex -0.180312 -0.110873 0.204
         vertex -0.180396 -0.11103 0.204
         vertex -0.184555 -0.111723 0.204
      endloop
   endfacet
   facet normal 0 0 -1
      outer loop
         vertex -0.178898 -0.106066 0.204
         vertex -0.177335 -0.111196 0.204
         vertex -0.177401 -0.11103 0.204
      endloop
   endfacet
   facet normal 0 0 -1
      outer loop
         vertex -0.180462 -0.11225 0.204
         vertex -0.180396 -0.112416 0.204
         vertex -0.184555 -0.111723 0.204
      endloop
   endfacet
   facet normal 0 0 -1
      outer loop
         vertex -0.113137 -0.179749 0.204
         vertex -0.113037 -0.179897 0.204
         vertex -0.111723 -0.184555 0.204
      endloop
   endfacet
   facet normal 0 0 -1
      outer loop
         vertex -0.184555 -0.111723 0.204
         vertex -0.18051 -0.111369 0.204
         vertex -0.180539 -0.111545 0.204
      endloop
   endfacet
   facet normal 0 0 -1
      outer loop
         vertex -0.177401 -0.11103 0.204
         vertex -0.177485 -0.110873 0.204
         vertex -0.178898 -0.106066 0.204
      endloop
   endfacet
   facet normal 0 0 -1
      outer loop
         vertex -0.106066 -0.178898 0.204
         vertex -0.177287 -0.111369 0.204
         vertex -0.177335 -0.111196 0.204
      endloop
   endfacet
   facet normal 0 0 -1
      outer loop
         vertex -0.106066 -0.178898 0.204
         vertex -0.177248 -0.111723 0.204
         vertex -0.177258 -0.111545 0.204
      endloop
   endfacet
   facet normal 0 0 -1
      outer loop
         vertex -0.106066 -0.178898 0.204
         vertex -0.177287 -0.112078 0.204
         vertex -0.177258 -0.111902 0.204
      endloop
   endfacet
   facet normal 0 0 -1
      outer loop
         vertex -0.112921 -0.180033 0.204
         vertex -0.112791 -0.180156 0.204
         vertex -0.111723 -0.184555 0.204
      endloop
   endfacet
   facet normal 0 0 -1
      outer loop
         vertex -0.180462 -0.111196 0.204
         vertex -0.18051 -0.111369 0.204
         vertex -0.184555 -0.111723 0.204
      endloop
   endfacet
   facet normal 0 0 -1
      outer loop
         vertex -0.177258 -0.111545 0.204
         vertex -0.177287 -0.111369 0.204
         vertex -0.106066 -0.178898 0.204
      endloop
   endfacet
   facet normal 0 0 -1
      outer loop
         vertex -0.177335 -0.11225 0.204
         vertex -0.177287 -0.112078 0.204
         vertex -0.106066 -0.178898 0.204
      endloop
   endfacet
   facet normal 0 0 -1
      outer loop
         vertex -0.184555 -0.111723 0.204
         vertex -0.180548 -0.111723 0.204
         vertex -0.180539 -0.111902 0.204
      endloop
   endfacet
   facet normal 0 0 -1
      outer loop
         vertex -0.177335 -0.111196 0.204
         vertex -0.178898 -0.106066 0.204
         vertex -0.106066 -0.178898 0.204
      endloop
   endfacet
   facet normal 0 0 -1
      outer loop
         vertex -0.180539 -0.111902 0.204
         vertex -0.18051 -0.112078 0.204
         vertex -0.184555 -0.111723 0.204
      endloop
   endfacet
   facet normal 0 0 -1
      outer loop
         vertex -0.177258 -0.111902 0.204
         vertex -0.177248 -0.111723 0.204
         vertex -0.106066 -0.178898 0.204
      endloop
   endfacet
   facet normal 0 0 -1
      outer loop
         vertex -0.180539 -0.111545 0.204
         vertex -0.180548 -0.111723 0.204
         vertex -0.184555 -0.111723 0.204
      endloop
   endfacet
   facet normal 0.707107 0.707107 0
      outer loop
         vertex -0.178898 -0.106066 0.204
         vertex -0.178898 -0.106066 0.208
         vertex -0.106066 -0.178898 0.208
      endloop
   endfacet
   facet normal 0.707107 0.707107 0
      outer loop
         vertex -0.106066 -0.178898 0.208
         vertex -0.106066 -0.178898 0.204
         vertex -0.178898 -0.106066 0.204
      endloop
   endfacet
   facet normal -0.994138 0.108119 0
      outer loop
         vertex -0.110083 -0.179077 0.208
         vertex -0.110073 -0.178898 0.208
         vertex -0.110073 -0.178898 0.204
      endloop
   endfacet
   facet normal -0.976621 0.21497 0
      outer loop
         vertex -0.110112 -0.179253 0.208
         vertex -0.110083 -0.179077 0.208
         vertex -0.110083 -0.179077 0.204
      endloop
   endfacet
   facet normal -0.947653 0.319302 0
      outer loop
         vertex -0.11016 -0.179425 0.208
         vertex -0.110112 -0.179253 0.208
         vertex -0.110112 -0.179253 0.204
      endloop
   endfacet
   facet normal -0.907575 0.419889 0
      outer loop
         vertex -0.110226 -0.179591 0.208
         vertex -0.11016 -0.179425 0.208
         vertex -0.11016 -0.179425 0.204
      endloop
   endfacet
   facet normal -0.856857 0.515554 0
      outer loop
         vertex -0.110309 -0.179749 0.208
         vertex -0.110226 -0.179591 0.208
         vertex -0.110226 -0.179591 0.204
      endloop
   endfacet
   facet normal -0.796093 0.605174 0
      outer loop
         vertex -0.11041 -0.179897 0.208
         vertex -0.110309 -0.179749 0.208
         vertex -0.110309 -0.179749 0.204
      endloop
   endfacet
   facet normal -0.725995 0.687699 0
      outer loop
         vertex -0.110525 -0.180033 0.208
         vertex -0.11041 -0.179897 0.208
         vertex -0.11041 -0.179897 0.204
      endloop
   endfacet
   facet normal -0.647386 0.762162 0
      outer loop
         vertex -0.110655 -0.180156 0.208
         vertex -0.110525 -0.180033 0.208
         vertex -0.110525 -0.180033 0.204
      endloop
   endfacet
   facet normal -0.561187 0.827689 0
      outer loop
         vertex -0.110797 -0.180264 0.208
         vertex -0.110655 -0.180156 0.208
         vertex -0.110655 -0.180156 0.204
      endloop
   endfacet
   facet normal -0.468408 0.883512 0
      outer loop
         vertex -0.11095 -0.180356 0.208
         vertex -0.110797 -0.180264 0.208
         vertex -0.110797 -0.180264 0.204
      endloop
   endfacet
   facet normal -0.370138 0.928977 0
      outer loop
         vertex -0.111112 -0.180431 0.208
         vertex -0.11095 -0.180356 0.208
         vertex -0.11095 -0.180356 0.204
      endloop
   endfacet
   facet normal -0.267528 0.96355 0
      outer loop
         vertex -0.111282 -0.180488 0.208
         vertex -0.111112 -0.180431 0.208
         vertex -0.111112 -0.180431 0.204
      endloop
   endfacet
   facet normal -0.161782 0.986827 0
      outer loop
         vertex -0.111456 -0.180527 0.208
         vertex -0.111282 -0.180488 0.208
         vertex -0.111282 -0.180488 0.204
      endloop
   endfacet
   facet normal -0.0541389 0.998533 0
      outer loop
         vertex -0.111634 -0.180546 0.208
         vertex -0.111456 -0.180527 0.208
         vertex -0.111456 -0.180527 0.204
      endloop
   endfacet
   facet normal 0.0541389 0.998533 0
      outer loop
         vertex -0.111813 -0.180546 0.208
         vertex -0.111634 -0.180546 0.208
         vertex -0.111634 -0.180546 0.204
      endloop
   endfacet
   facet normal 0.161782 0.986827 0
      outer loop
         vertex -0.11199 -0.180527 0.208
         vertex -0.111813 -0.180546 0.208
         vertex -0.111813 -0.180546 0.204
      endloop
   endfacet
   facet normal 0.267528 0.96355 0
      outer loop
         vertex -0.112165 -0.180488 0.208
         vertex -0.11199 -0.180527 0.208
         vertex -0.11199 -0.180527 0.204
      endloop
   endfacet
   facet normal 0.370138 0.928977 0
      outer loop
         vertex -0.112334 -0.180431 0.208
         vertex -0.112165 -0.180488 0.208
         vertex -0.112165 -0.180488 0.204
      endloop
   endfacet
   facet normal 0.468408 0.883512 0
      outer loop
         vertex -0.112496 -0.180356 0.208
         vertex -0.112334 -0.180431 0.208
         vertex -0.112334 -0.180431 0.204
      endloop
   endfacet
   facet normal 0.561187 0.827689 0
      outer loop
         vertex -0.112649 -0.180264 0.208
         vertex -0.112496 -0.180356 0.208
         vertex -0.112496 -0.180356 0.204
      endloop
   endfacet
   facet normal 0.647386 0.762162 0
      outer loop
         vertex -0.112791 -0.180156 0.208
         vertex -0.112649 -0.180264 0.208
         vertex -0.112649 -0.180264 0.204
      endloop
   endfacet
   facet normal 0.725995 0.687699 0
      outer loop
         vertex -0.112921 -0.180033 0.208
         vertex -0.112791 -0.180156 0.208
         vertex -0.112791 -0.180156 0.204
      endloop
   endfacet
   facet normal 0.796093 0.605174 0
      outer loop
         vertex -0.113037 -0.179897 0.208
         vertex -0.112921 -0.180033 0.208
         vertex -0.112921 -0.180033 0.204
      endloop
   endfacet
   facet normal 0.856857 0.515554 0
      outer loop
         vertex -0.113137 -0.179749 0.208
         vertex -0.113037 -0.179897 0.208
         vertex -0.113037 -0.179897 0.204
      endloop
   endfacet
   facet normal 0.907575 0.419889 0
      outer loop
         vertex -0.113221 -0.179591 0.208
         vertex -0.113137 -0.179749 0.208
         vertex -0.113137 -0.179749 0.204
      endloop
   endfacet
   facet normal 0.947653 0.319302 0
      outer loop
         vertex -0.113287 -0.179425 0.208
         vertex -0.113221 -0.179591 0.208
         vertex -0.113221 -0.179591 0.204
      endloop
   endfacet
   facet normal 0.976621 0.21497 0
      outer loop
         vertex -0.113335 -0.179253 0.208
         vertex -0.113287 -0.179425 0.208
         vertex -0.113287 -0.179425 0.204
      endloop
   endfacet
   facet normal 0.994138 0.108119 0
      outer loop
         vertex -0.113364 -0.179077 0.208
         vertex -0.113335 -0.179253 0.208
         vertex -0.113335 -0.179253 0.204
      endloop
   endfacet
   facet normal 1 -1.22465e-16 0
      outer loop
         vertex -0.113373 -0.178898 0.208
         vertex -0.113364 -0.179077 0.208
         vertex -0.113364 -0.179077 0.204
      endloop
   endfacet
   facet normal 0.994138 -0.108119 0
      outer loop
         vertex -0.113364 -0.17872 0.208
         vertex -0.113373 -0.178898 0.208
         vertex -0.113373 -0.178898 0.204
      endloop
   endfacet
   facet normal 0.976621 -0.21497 0
      outer loop
         vertex -0.113335 -0.178544 0.208
         vertex -0.113364 -0.17872 0.208
         vertex -0.113364 -0.17872 0.204
      endloop
   endfacet
   facet normal 0.947653 -0.319302 0
      outer loop
         vertex -0.113287 -0.178372 0.208
         vertex -0.113335 -0.178544 0.208
         vertex -0.113335 -0.178544 0.204
      endloop
   endfacet
   facet normal 0.907575 -0.419889 0
      outer loop
         vertex -0.113221 -0.178206 0.208
         vertex -0.113287 -0.178372 0.208
         vertex -0.113287 -0.178372 0.204
      endloop
   endfacet
   facet normal 0.856857 -0.515554 0
      outer loop
         vertex -0.113137 -0.178048 0.208
         vertex -0.113221 -0.178206 0.208
         vertex -0.113221 -0.178206 0.204
      endloop
   endfacet
   facet normal 0.796093 -0.605174 0
      outer loop
         vertex -0.113037 -0.1779 0.208
         vertex -0.113137 -0.178048 0.208
         vertex -0.113137 -0.178048 0.204
      endloop
   endfacet
   facet normal 0.725995 -0.687699 0
      outer loop
         vertex -0.112921 -0.177764 0.208
         vertex -0.113037 -0.1779 0.208
         vertex -0.113037 -0.1779 0.204
      endloop
   endfacet
   facet normal 0.647386 -0.762162 0
      outer loop
         vertex -0.112791 -0.177641 0.208
         vertex -0.112921 -0.177764 0.208
         vertex -0.112921 -0.177764 0.204
      endloop
   endfacet
   facet normal 0.561187 -0.827689 0
      outer loop
         vertex -0.112649 -0.177533 0.208
         vertex -0.112791 -0.177641 0.208
         vertex -0.112791 -0.177641 0.204
      endloop
   endfacet
   facet normal 0.468408 -0.883512 0
      outer loop
         vertex -0.112496 -0.177441 0.208
         vertex -0.112649 -0.177533 0.208
         vertex -0.112649 -0.177533 0.204
      endloop
   endfacet
   facet normal 0.370138 -0.928977 0
      outer loop
         vertex -0.112334 -0.177366 0.208
         vertex -0.112496 -0.177441 0.208
         vertex -0.112496 -0.177441 0.204
      endloop
   endfacet
   facet normal 0.267528 -0.96355 0
      outer loop
         vertex -0.112165 -0.177308 0.208
         vertex -0.112334 -0.177366 0.208
         vertex -0.112334 -0.177366 0.204
      endloop
   endfacet
   facet normal 0.161782 -0.986827 0
      outer loop
         vertex -0.11199 -0.17727 0.208
         vertex -0.112165 -0.177308 0.208
         vertex -0.112165 -0.177308 0.204
      endloop
   endfacet
   facet normal 0.0541389 -0.998533 0
      outer loop
         vertex -0.111813 -0.177251 0.208
         vertex -0.11199 -0.17727 0.208
         vertex -0.11199 -0.17727 0.204
      endloop
   endfacet
   facet normal -0.0541389 -0.998533 0
      outer loop
         vertex -0.111634 -0.177251 0.208
         vertex -0.111813 -0.177251 0.208
         vertex -0.111813 -0.177251 0.204
      endloop
   endfacet
   facet normal -0.161782 -0.986827 0
      outer loop
         vertex -0.111456 -0.17727 0.208
         vertex -0.111634 -0.177251 0.208
         vertex -0.111634 -0.177251 0.204
      endloop
   endfacet
   facet normal -0.267528 -0.96355 0
      outer loop
         vertex -0.111282 -0.177308 0.208
         vertex -0.111456 -0.17727 0.208
         vertex -0.111456 -0.17727 0.204
      endloop
   endfacet
   facet normal -0.370138 -0.928977 0
      outer loop
         vertex -0.111112 -0.177366 0.208
         vertex -0.111282 -0.177308 0.208
         vertex -0.111282 -0.177308 0.204
      endloop
   endfacet
   facet normal -0.468408 -0.883512 0
      outer loop
         vertex -0.11095 -0.177441 0.208
         vertex -0.111112 -0.177366 0.208
         vertex -0.111112 -0.177366 0.204
      endloop
   endfacet
   facet normal -0.561187 -0.827689 0
      outer loop
         vertex -0.110797 -0.177533 0.208
         vertex -0.11095 -0.177441 0.208
         vertex -0.11095 -0.177441 0.204
      endloop
   endfacet
   facet normal -0.647386 -0.762162 0
      outer loop
         vertex -0.110655 -0.177641 0.208
         vertex -0.110797 -0.177533 0.208
         vertex -0.110797 -0.177533 0.204
      endloop
   endfacet
   facet normal -0.725995 -0.687699 0
      outer loop
         vertex -0.110525 -0.177764 0.208
         vertex -0.110655 -0.177641 0.208
         vertex -0.110655 -0.177641 0.204
      endloop
   endfacet
   facet normal -0.796093 -0.605174 0
      outer loop
         vertex -0.11041 -0.1779 0.208
         vertex -0.110525 -0.177764 0.208
         vertex -0.110525 -0.177764 0.204
      endloop
   endfacet
   facet normal -0.856857 -0.515554 0
      outer loop
         vertex -0.110309 -0.178048 0.208
         vertex -0.11041 -0.1779 0.208
         vertex -0.11041 -0.1779 0.204
      endloop
   endfacet
   facet normal -0.907575 -0.419889 0
      outer loop
         vertex -0.110226 -0.178206 0.208
         vertex -0.110309 -0.178048 0.208
         vertex -0.110309 -0.178048 0.204
      endloop
   endfacet
   facet normal -0.947653 -0.319302 0
      outer loop
         vertex -0.11016 -0.178372 0.208
         vertex -0.110226 -0.178206 0.208
         vertex -0.110226 -0.178206 0.204
      endloop
   endfacet
   facet normal -0.976621 -0.21497 0
      outer loop
         vertex -0.110112 -0.178544 0.208
         vertex -0.11016 -0.178372 0.208
         vertex -0.11016 -0.178372 0.204
      endloop
   endfacet
   facet normal -0.994138 -0.108119 0
      outer loop
         vertex -0.110083 -0.17872 0.208
         vertex -0.110112 -0.178544 0.208
         vertex -0.110112 -0.178544 0.204
      endloop
   endfacet
   facet normal -1 2.44929e-16 0
      outer loop
         vertex -0.110073 -0.178898 0.208
         vertex -0.110083 -0.17872 0.208
         vertex -0.110083 -0.17872 0.204
      endloop
   endfacet
   facet normal -0.994138 -0.108119 0
      outer loop
         vertex -0.110083 -0.17872 0.204
         vertex -0.110073 -0.178898 0.204
         vertex -0.110073 -0.178898 0.208
      endloop
   endfacet
   facet normal -0.976621 -0.21497 0
      outer loop
         vertex -0.110112 -0.178544 0.204
         vertex -0.110083 -0.17872 0.204
         vertex -0.110083 -0.17872 0.208
      endloop
   endfacet
   facet normal -0.947653 -0.319302 0
      outer loop
         vertex -0.11016 -0.178372 0.204
         vertex -0.110112 -0.178544 0.204
         vertex -0.110112 -0.178544 0.208
      endloop
   endfacet
   facet normal -0.907575 -0.419889 0
      outer loop
         vertex -0.110226 -0.178206 0.204
         vertex -0.11016 -0.178372 0.204
         vertex -0.11016 -0.178372 0.208
      endloop
   endfacet
   facet normal -0.856857 -0.515554 0
      outer loop
         vertex -0.110309 -0.178048 0.204
         vertex -0.110226 -0.178206 0.204
         vertex -0.110226 -0.178206 0.208
      endloop
   endfacet
   facet normal -0.796093 -0.605174 0
      outer loop
         vertex -0.11041 -0.1779 0.204
         vertex -0.110309 -0.178048 0.204
         vertex -0.110309 -0.178048 0.208
      endloop
   endfacet
   facet normal -0.725995 -0.687699 0
      outer loop
         vertex -0.110525 -0.177764 0.204
         vertex -0.11041 -0.1779 0.204
         vertex -0.11041 -0.1779 0.208
      endloop
   endfacet
   facet normal -0.647386 -0.762162 0
      outer loop
         vertex -0.110655 -0.177641 0.204
         vertex -0.110525 -0.177764 0.204
         vertex -0.110525 -0.177764 0.208
      endloop
   endfacet
   facet normal -0.561187 -0.827689 0
      outer loop
         vertex -0.110797 -0.177533 0.204
         vertex -0.110655 -0.177641 0.204
         vertex -0.110655 -0.177641 0.208
      endloop
   endfacet
   facet normal -0.468408 -0.883512 0
      outer loop
         vertex -0.11095 -0.177441 0.204
         vertex -0.110797 -0.177533 0.204
         vertex -0.110797 -0.177533 0.208
      endloop
   endfacet
   facet normal -0.370138 -0.928977 0
      outer loop
         vertex -0.111112 -0.177366 0.204
         vertex -0.11095 -0.177441 0.204
         vertex -0.11095 -0.177441 0.208
      endloop
   endfacet
   facet normal -0.267528 -0.96355 0
      outer loop
         vertex -0.111282 -0.177308 0.204
         vertex -0.111112 -0.177366 0.204
         vertex -0.111112 -0.177366 0.208
      endloop
   endfacet
   facet normal -0.161782 -0.986827 0
      outer loop
         vertex -0.111456 -0.17727 0.204
         vertex -0.111282 -0.177308 0.204
         vertex -0.111282 -0.177308 0.208
      endloop
   endfacet
   facet normal -0.0541389 -0.998533 0
      outer loop
         vertex -0.111634 -0.177251 0.204
         vertex -0.111456 -0.17727 0.204
         vertex -0.111456 -0.17727 0.208
      endloop
   endfacet
   facet normal 0.0541389 -0.998533 0
      outer loop
         vertex -0.111813 -0.177251 0.204
         vertex -0.111634 -0.177251 0.204
         vertex -0.111634 -0.177251 0.208
      endloop
   endfacet
   facet normal 0.161782 -0.986827 0
      outer loop
         vertex -0.11199 -0.17727 0.204
         vertex -0.111813 -0.177251 0.204
         vertex -0.111813 -0.177251 0.208
      endloop
   endfacet
   facet normal 0.267528 -0.96355 0
      outer loop
         vertex -0.112165 -0.177308 0.204
         vertex -0.11199 -0.17727 0.204
         vertex -0.11199 -0.17727 0.208
      endloop
   endfacet
   facet normal 0.370138 -0.928977 0
      outer loop
         vertex -0.112334 -0.177366 0.204
         vertex -0.112165 -0.177308 0.204
         vertex -0.112165 -0.177308 0.208
      endloop
   endfacet
   facet normal 0.468408 -0.883512 0
      outer loop
         vertex -0.112496 -0.177441 0.204
         vertex -0.112334 -0.177366 0.204
         vertex -0.112334 -0.177366 0.208
      endloop
   endfacet
   facet normal 0.561187 -0.827689 0
      outer loop
         vertex -0.112649 -0.177533 0.204
         vertex -0.112496 -0.177441 0.204
         vertex -0.112496 -0.177441 0.208
      endloop
   endfacet
   facet normal 0.647386 -0.762162 0
      outer loop
         vertex -0.112791 -0.177641 0.204
         vertex -0.112649 -0.177533 0.204
         vertex -0.112649 -0.177533 0.208
      endloop
   endfacet
   facet normal 0.725995 -0.687699 0
      outer loop
         vertex -0.112921 -0.177764 0.204
         vertex -0.112791 -0.177641 0.204
         vertex -0.112791 -0.177641 0.208
      endloop
   endfacet
   facet normal 0.796093 -0.605174 0
      outer loop
         vertex -0.113037 -0.1779 0.204
         vertex -0.112921 -0.177764 0.204
         vertex -0.112921 -0.177764 0.208
      endloop
   endfacet
   facet normal 0.856857 -0.515554 0
      outer loop
         vertex -0.113137 -0.178048 0.204
         vertex -0.113037 -0.1779 0.204
         vertex -0.113037 -0.1779 0.208
      endloop
   endfacet
   facet normal 0.907575 -0.419889 0
      outer loop
         vertex -0.113221 -0.178206 0.204
         vertex -0.113137 -0.178048 0.204
         vertex -0.113137 -0.178048 0.208
      endloop
   endfacet
   facet normal 0.947653 -0.319302 0
      outer loop
         vertex -0.113287 -0.178372 0.204
         vertex -0.113221 -0.178206 0.204
         vertex -0.113221 -0.178206 0.208
      endloop
   endfacet
   facet normal 0.976621 -0.21497 0
      outer loop
         vertex -0.113335 -0.178544 0.204
         vertex -0.113287 -0.178372 0.204
         vertex -0.113287 -0.178372 0.208
      endloop
   endfacet
   facet normal 0.994138 -0.108119 0
      outer loop
         vertex -0.113364 -0.17872 0.204
         vertex -0.113335 -0.178544 0.204
         vertex -0.113335 -0.178544 0.208
      endloop
   endfacet
   facet normal 1 -1.22465e-16 0
      outer loop
         vertex -0.113373 -0.178898 0.204
         vertex -0.113364 -0.17872 0.204
         vertex -0.113364 -0.17872 0.208
      endloop
   endfacet
   facet normal 0.994138 0.108119 0
      outer loop
         vertex -0.113364 -0.179077 0.204
         vertex -0.113373 -0.178898 0.204
         vertex -0.113373 -0.178898 0.208
      endloop
   endfacet
   facet normal 0.976621 0.21497 0
      outer loop
         vertex -0.113335 -0.179253 0.204
         vertex -0.113364 -0.179077 0.204
         vertex -0.113364 -0.179077 0.208
      endloop
   endfacet
   facet normal 0.947653 0.319302 0
      outer loop
         vertex -0.113287 -0.179425 0.204
         vertex -0.113335 -0.179253 0.204
         vertex -0.113335 -0.179253 0.208
      endloop
   endfacet
   facet normal 0.907575 0.419889 0
      outer loop
         vertex -0.113221 -0.179591 0.204
         vertex -0.113287 -0.179425 0.204
         vertex -0.113287 -0.179425 0.208
      endloop
   endfacet
   facet normal 0.856857 0.515554 0
      outer loop
         vertex -0.113137 -0.179749 0.204
         vertex -0.113221 -0.179591 0.204
         vertex -0.113221 -0.179591 0.208
      endloop
   endfacet
   facet normal 0.796093 0.605174 0
      outer loop
         vertex -0.113037 -0.179897 0.204
         vertex -0.113137 -0.179749 0.204
         vertex -0.113137 -0.179749 0.208
      endloop
   endfacet
   facet normal 0.725995 0.687699 0
      outer loop
         vertex -0.112921 -0.180033 0.204
         vertex -0.113037 -0.179897 0.204
         vertex -0.113037 -0.179897 0.208
      endloop
   endfacet
   facet normal 0.647386 0.762162 0
      outer loop
         vertex -0.112791 -0.180156 0.204
         vertex -0.112921 -0.180033 0.204
         vertex -0.112921 -0.180033 0.208
      endloop
   endfacet
   facet normal 0.561187 0.827689 0
      outer loop
         vertex -0.112649 -0.180264 0.204
         vertex -0.112791 -0.180156 0.204
         vertex -0.112791 -0.180156 0.208
      endloop
   endfacet
   facet normal 0.468408 0.883512 0
      outer loop
         vertex -0.112496 -0.180356 0.204
         vertex -0.112649 -0.180264 0.204
         vertex -0.112649 -0.180264 0.208
      endloop
   endfacet
   facet normal 0.370138 0.928977 0
      outer loop
         vertex -0.112334 -0.180431 0.204
         vertex -0.112496 -0.180356 0.204
         vertex -0.112496 -0.180356 0.208
      endloop
   endfacet
   facet normal 0.267528 0.96355 0
      outer loop
         vertex -0.112165 -0.180488 0.204
         vertex -0.112334 -0.180431 0.204
         vertex -0.112334 -0.180431 0.208
      endloop
   endfacet
   facet normal 0.161782 0.986827 0
      outer loop
         vertex -0.11199 -0.180527 0.204
         vertex -0.112165 -0.180488 0.204
         vertex -0.112165 -0.180488 0.208
      endloop
   endfacet
   facet normal 0.0541389 0.998533 0
      outer loop
         vertex -0.111813 -0.180546 0.204
         vertex -0.11199 -0.180527 0.204
         vertex -0.11199 -0.180527 0.208
      endloop
   endfacet
   facet normal -0.0541389 0.998533 0
      outer loop
         vertex -0.111634 -0.180546 0.204
         vertex -0.111813 -0.180546 0.204
         vertex -0.111813 -0.180546 0.208
      endloop
   endfacet
   facet normal -0.161782 0.986827 0
      outer loop
         vertex -0.111456 -0.180527 0.204
         vertex -0.111634 -0.180546 0.204
         vertex -0.111634 -0.180546 0.208
      endloop
   endfacet
   facet normal -0.267528 0.96355 0
      outer loop
         vertex -0.111282 -0.180488 0.204
         vertex -0.111456 -0.180527 0.204
         vertex -0.111456 -0.180527 0.208
      endloop
   endfacet
   facet normal -0.370138 0.928977 0
      outer loop
         vertex -0.111112 -0.180431 0.204
         vertex -0.111282 -0.180488 0.204
         vertex -0.111282 -0.180488 0.208
      endloop
   endfacet
   facet normal -0.468408 0.883512 0
      outer loop
         vertex -0.11095 -0.180356 0.204
         vertex -0.111112 -0.180431 0.204
         vertex -0.111112 -0.180431 0.208
      endloop
   endfacet
   facet normal -0.561187 0.827689 0
      outer loop
         vertex -0.110797 -0.180264 0.204
         vertex -0.11095 -0.180356 0.204
         vertex -0.11095 -0.180356 0.208
      endloop
   endfacet
   facet normal -0.647386 0.762162 0
      outer loop
         vertex -0.110655 -0.180156 0.204
         vertex -0.110797 -0.180264 0.204
         vertex -0.110797 -0.180264 0.208
      endloop
   endfacet
   facet normal -0.725995 0.687699 0
      outer loop
         vertex -0.110525 -0.180033 0.204
         vertex -0.110655 -0.180156 0.204
         vertex -0.110655 -0.180156 0.208
      endloop
   endfacet
   facet normal -0.796093 0.605174 0
      outer loop
         vertex -0.11041 -0.179897 0.204
         vertex -0.110525 -0.180033 0.204
         vertex -0.110525 -0.180033 0.208
      endloop
   endfacet
   facet normal -0.856857 0.515554 0
      outer loop
         vertex -0.110309 -0.179749 0.204
         vertex -0.11041 -0.179897 0.204
         vertex -0.11041 -0.179897 0.208
      endloop
   endfacet
   facet normal -0.907575 0.419889 0
      outer loop
         vertex -0.110226 -0.179591 0.204
         vertex -0.110309 -0.179749 0.204
         vertex -0.110309 -0.179749 0.208
      endloop
   endfacet
   facet normal -0.947653 0.319302 0
      outer loop
         vertex -0.11016 -0.179425 0.204
         vertex -0.110226 -0.179591 0.204
         vertex -0.110226 -0.179591 0.208
      endloop
   endfacet
   facet normal -0.976621 0.21497 0
      outer loop
         vertex -0.110112 -0.179253 0.204
         vertex -0.11016 -0.179425 0.204
         vertex -0.11016 -0.179425 0.208
      endloop
   endfacet
   facet normal -0.994138 0.108119 0
      outer loop
         vertex -0.110083 -0.179077 0.204
         vertex -0.110112 -0.179253 0.204
         vertex -0.110112 -0.179253 0.208
      endloop
   endfacet
   facet normal -1 2.44929e-16 0
      outer loop
         vertex -0.110073 -0.178898 0.204
         vertex -0.110083 -0.179077 0.204
         vertex -0.110083 -0.179077 0.208
      endloop
   endfacet
   facet normal 0 0 1
      outer loop
         vertex -0.178898 -0.106066 0.208
         vertex -0.177585 -0.110725 0.208
         vertex -0.177485 -0.110873 0.208
      endloop
   endfacet
   facet normal 0 0 1
      outer loop
         vertex -0.178898 -0.106066 0.208
         vertex -0.17783 -0.110466 0.208
         vertex -0.1777 -0.110588 0.208
      endloop
   endfacet
   facet normal 0 0 1
      outer loop
         vertex -0.178898 -0.106066 0.208
         vertex -0.178125 -0.110265 0.208
         vertex -0.177972 -0.110358 0.208
      endloop
   endfacet
   facet normal 0 0 1
      outer loop
         vertex -0.185969 -0.113137 0.208
         vertex -0.180212 -0.110725 0.208
         vertex -0.180096 -0.110588 0.208
      endloop
   endfacet
   facet normal 0 0 1
      outer loop
         vertex -0.185969 -0.113137 0.208
         vertex -0.179967 -0.112981 0.208
         vertex -0.180096 -0.112858 0.208
      endloop
   endfacet
   facet normal 0 0 1
      outer loop
         vertex -0.185969 -0.113137 0.208
         vertex -0.179671 -0.113181 0.208
         vertex -0.179824 -0.113089 0.208
      endloop
   endfacet
   facet normal 0 0 1
      outer loop
         vertex -0.177287 -0.111369 0.208
         vertex -0.113287 -0.179425 0.208
         vertex -0.113335 -0.179253 0.208
      endloop
   endfacet
   facet normal 0 0 1
      outer loop
         vertex -0.1777 -0.110588 0.208
         vertex -0.177585 -0.110725 0.208
         vertex -0.178898 -0.106066 0.208
      endloop
   endfacet
   facet normal 0 0 1
      outer loop
         vertex -0.178898 -0.106066 0.208
         vertex -0.178288 -0.11019 0.208
         vertex -0.178125 -0.110265 0.208
      endloop
   endfacet
   facet normal 0 0 1
      outer loop
         vertex -0.178898 -0.106066 0.208
         vertex -0.179967 -0.110466 0.208
         vertex -0.179824 -0.110358 0.208
      endloop
   endfacet
   facet normal 0 0 1
      outer loop
         vertex -0.180096 -0.110588 0.208
         vertex -0.178898 -0.106066 0.208
         vertex -0.185969 -0.113137 0.208
      endloop
   endfacet
   facet normal 0 0 1
      outer loop
         vertex -0.180096 -0.112858 0.208
         vertex -0.180212 -0.112722 0.208
         vertex -0.185969 -0.113137 0.208
      endloop
   endfacet
   facet normal 0 0 1
      outer loop
         vertex -0.185969 -0.113137 0.208
         vertex -0.179509 -0.113256 0.208
         vertex -0.179671 -0.113181 0.208
      endloop
   endfacet
   facet normal 0 0 1
      outer loop
         vertex -0.177287 -0.111369 0.208
         vertex -0.113287 -0.178372 0.208
         vertex -0.113221 -0.178206 0.208
      endloop
   endfacet
   facet normal 0 0 1
      outer loop
         vertex -0.177287 -0.111369 0.208
         vertex -0.113364 -0.17872 0.208
         vertex -0.113335 -0.178544 0.208
      endloop
   endfacet
   facet normal 0 0 1
      outer loop
         vertex -0.113335 -0.179253 0.208
         vertex -0.113364 -0.179077 0.208
         vertex -0.177287 -0.111369 0.208
      endloop
   endfacet
   facet normal 0 0 1
      outer loop
         vertex -0.177287 -0.111369 0.208
         vertex -0.113037 -0.179897 0.208
         vertex -0.113137 -0.179749 0.208
      endloop
   endfacet
   facet normal 0 0 1
      outer loop
         vertex -0.177972 -0.110358 0.208
         vertex -0.17783 -0.110466 0.208
         vertex -0.178898 -0.106066 0.208
      endloop
   endfacet
   facet normal 0 0 1
      outer loop
         vertex -0.179824 -0.110358 0.208
         vertex -0.179671 -0.110265 0.208
         vertex -0.178898 -0.106066 0.208
      endloop
   endfacet
   facet normal 0 0 1
      outer loop
         vertex -0.185969 -0.113137 0.208
         vertex -0.180312 -0.110873 0.208
         vertex -0.180212 -0.110725 0.208
      endloop
   endfacet
   facet normal 0 0 1
      outer loop
         vertex -0.179824 -0.113089 0.208
         vertex -0.179967 -0.112981 0.208
         vertex -0.185969 -0.113137 0.208
      endloop
   endfacet
   facet normal 0 0 1
      outer loop
         vertex -0.113137 -0.185969 0.208
         vertex -0.178809 -0.113371 0.208
         vertex -0.178988 -0.113371 0.208
      endloop
   endfacet
   facet normal 0 0 1
      outer loop
         vertex -0.113137 -0.185969 0.208
         vertex -0.177585 -0.112722 0.208
         vertex -0.1777 -0.112858 0.208
      endloop
   endfacet
   facet normal 0 0 1
      outer loop
         vertex -0.106066 -0.178898 0.208
         vertex -0.11016 -0.178372 0.208
         vertex -0.110112 -0.178544 0.208
      endloop
   endfacet
   facet normal 0 0 1
      outer loop
         vertex -0.106066 -0.178898 0.208
         vertex -0.11041 -0.1779 0.208
         vertex -0.110309 -0.178048 0.208
      endloop
   endfacet
   facet normal 0 0 1
      outer loop
         vertex -0.106066 -0.178898 0.208
         vertex -0.11095 -0.177441 0.208
         vertex -0.110797 -0.177533 0.208
      endloop
   endfacet
   facet normal 0 0 1
      outer loop
         vertex -0.177287 -0.111369 0.208
         vertex -0.111112 -0.177366 0.208
         vertex -0.11095 -0.177441 0.208
      endloop
   endfacet
   facet normal 0 0 1
      outer loop
         vertex -0.177287 -0.111369 0.208
         vertex -0.113037 -0.1779 0.208
         vertex -0.112921 -0.177764 0.208
      endloop
   endfacet
   facet normal 0 0 1
      outer loop
         vertex -0.113335 -0.178544 0.208
         vertex -0.113287 -0.178372 0.208
         vertex -0.177287 -0.111369 0.208
      endloop
   endfacet
   facet normal 0 0 1
      outer loop
         vertex -0.113364 -0.179077 0.208
         vertex -0.113373 -0.178898 0.208
         vertex -0.177287 -0.111369 0.208
      endloop
   endfacet
   facet normal 0 0 1
      outer loop
         vertex -0.113137 -0.179749 0.208
         vertex -0.113221 -0.179591 0.208
         vertex -0.177287 -0.111369 0.208
      endloop
   endfacet
   facet normal 0 0 1
      outer loop
         vertex -0.177485 -0.110873 0.208
         vertex -0.106066 -0.178898 0.208
         vertex -0.178898 -0.106066 0.208
      endloop
   endfacet
   facet normal 0 0 1
      outer loop
         vertex -0.178898 -0.106066 0.208
         vertex -0.178631 -0.110095 0.208
         vertex -0.178457 -0.110133 0.208
      endloop
   endfacet
   facet normal 0 0 1
      outer loop
         vertex -0.178898 -0.106066 0.208
         vertex -0.178988 -0.110076 0.208
         vertex -0.178809 -0.110076 0.208
      endloop
   endfacet
   facet normal 0 0 1
      outer loop
         vertex -0.180096 -0.110588 0.208
         vertex -0.179967 -0.110466 0.208
         vertex -0.178898 -0.106066 0.208
      endloop
   endfacet
   facet normal 0 0 1
      outer loop
         vertex -0.180212 -0.112722 0.208
         vertex -0.180312 -0.112574 0.208
         vertex -0.185969 -0.113137 0.208
      endloop
   endfacet
   facet normal 0 0 1
      outer loop
         vertex -0.185969 -0.113137 0.208
         vertex -0.179165 -0.113351 0.208
         vertex -0.17934 -0.113313 0.208
      endloop
   endfacet
   facet normal 0 0 1
      outer loop
         vertex -0.113137 -0.185969 0.208
         vertex -0.178631 -0.113351 0.208
         vertex -0.178809 -0.113371 0.208
      endloop
   endfacet
   facet normal 0 0 1
      outer loop
         vertex -0.113137 -0.185969 0.208
         vertex -0.177972 -0.113089 0.208
         vertex -0.178125 -0.113181 0.208
      endloop
   endfacet
   facet normal 0 0 1
      outer loop
         vertex -0.1777 -0.112858 0.208
         vertex -0.17783 -0.112981 0.208
         vertex -0.113137 -0.185969 0.208
      endloop
   endfacet
   facet normal 0 0 1
      outer loop
         vertex -0.113137 -0.185969 0.208
         vertex -0.111634 -0.180546 0.208
         vertex -0.111813 -0.180546 0.208
      endloop
   endfacet
   facet normal 0 0 1
      outer loop
         vertex -0.110112 -0.178544 0.208
         vertex -0.110083 -0.17872 0.208
         vertex -0.106066 -0.178898 0.208
      endloop
   endfacet
   facet normal 0 0 1
      outer loop
         vertex -0.110309 -0.178048 0.208
         vertex -0.110226 -0.178206 0.208
         vertex -0.106066 -0.178898 0.208
      endloop
   endfacet
   facet normal 0 0 1
      outer loop
         vertex -0.106066 -0.178898 0.208
         vertex -0.110655 -0.177641 0.208
         vertex -0.110525 -0.177764 0.208
      endloop
   endfacet
   facet normal 0 0 1
      outer loop
         vertex -0.11095 -0.177441 0.208
         vertex -0.106066 -0.178898 0.208
         vertex -0.177287 -0.111369 0.208
      endloop
   endfacet
   facet normal 0 0 1
      outer loop
         vertex -0.177287 -0.111369 0.208
         vertex -0.111456 -0.17727 0.208
         vertex -0.111282 -0.177308 0.208
      endloop
   endfacet
   facet normal 0 0 1
      outer loop
         vertex -0.177287 -0.111369 0.208
         vertex -0.11199 -0.17727 0.208
         vertex -0.111813 -0.177251 0.208
      endloop
   endfacet
   facet normal 0 0 1
      outer loop
         vertex -0.177287 -0.111369 0.208
         vertex -0.112334 -0.177366 0.208
         vertex -0.112165 -0.177308 0.208
      endloop
   endfacet
   facet normal 0 0 1
      outer loop
         vertex -0.177287 -0.111369 0.208
         vertex -0.112649 -0.177533 0.208
         vertex -0.112496 -0.177441 0.208
      endloop
   endfacet
   facet normal 0 0 1
      outer loop
         vertex -0.112921 -0.177764 0.208
         vertex -0.112791 -0.177641 0.208
         vertex -0.177287 -0.111369 0.208
      endloop
   endfacet
   facet normal 0 0 1
      outer loop
         vertex -0.113221 -0.178206 0.208
         vertex -0.113137 -0.178048 0.208
         vertex -0.177287 -0.111369 0.208
      endloop
   endfacet
   facet normal 0 0 1
      outer loop
         vertex -0.113221 -0.179591 0.208
         vertex -0.113287 -0.179425 0.208
         vertex -0.177287 -0.111369 0.208
      endloop
   endfacet
   facet normal 0 0 1
      outer loop
         vertex -0.178457 -0.110133 0.208
         vertex -0.178288 -0.11019 0.208
         vertex -0.178898 -0.106066 0.208
      endloop
   endfacet
   facet normal 0 0 1
      outer loop
         vertex -0.178898 -0.106066 0.208
         vertex -0.179165 -0.110095 0.208
         vertex -0.178988 -0.110076 0.208
      endloop
   endfacet
   facet normal 0 0 1
      outer loop
         vertex -0.178898 -0.106066 0.208
         vertex -0.179509 -0.11019 0.208
         vertex -0.17934 -0.110133 0.208
      endloop
   endfacet
   facet normal 0 0 1
      outer loop
         vertex -0.185969 -0.113137 0.208
         vertex -0.180396 -0.11103 0.208
         vertex -0.180312 -0.110873 0.208
      endloop
   endfacet
   facet normal 0 0 1
      outer loop
         vertex -0.17934 -0.113313 0.208
         vertex -0.179509 -0.113256 0.208
         vertex -0.185969 -0.113137 0.208
      endloop
   endfacet
   facet normal 0 0 1
      outer loop
         vertex -0.178988 -0.113371 0.208
         vertex -0.185969 -0.113137 0.208
         vertex -0.113137 -0.185969 0.208
      endloop
   endfacet
   facet normal 0 0 1
      outer loop
         vertex -0.113137 -0.185969 0.208
         vertex -0.178288 -0.113256 0.208
         vertex -0.178457 -0.113313 0.208
      endloop
   endfacet
   facet normal 0 0 1
      outer loop
         vertex -0.17783 -0.112981 0.208
         vertex -0.177972 -0.113089 0.208
         vertex -0.113137 -0.185969 0.208
      endloop
   endfacet
   facet normal 0 0 1
      outer loop
         vertex -0.113137 -0.185969 0.208
         vertex -0.11199 -0.180527 0.208
         vertex -0.112165 -0.180488 0.208
      endloop
   endfacet
   facet normal 0 0 1
      outer loop
         vertex -0.113137 -0.185969 0.208
         vertex -0.111456 -0.180527 0.208
         vertex -0.111634 -0.180546 0.208
      endloop
   endfacet
   facet normal 0 0 1
      outer loop
         vertex -0.113137 -0.185969 0.208
         vertex -0.110655 -0.180156 0.208
         vertex -0.110797 -0.180264 0.208
      endloop
   endfacet
   facet normal 0 0 1
      outer loop
         vertex -0.106066 -0.178898 0.208
         vertex -0.110525 -0.180033 0.208
         vertex -0.110655 -0.180156 0.208
      endloop
   endfacet
   facet normal 0 0 1
      outer loop
         vertex -0.106066 -0.178898 0.208
         vertex -0.110226 -0.179591 0.208
         vertex -0.110309 -0.179749 0.208
      endloop
   endfacet
   facet normal 0 0 1
      outer loop
         vertex -0.106066 -0.178898 0.208
         vertex -0.110083 -0.179077 0.208
         vertex -0.110112 -0.179253 0.208
      endloop
   endfacet
   facet normal 0 0 1
      outer loop
         vertex -0.110226 -0.178206 0.208
         vertex -0.11016 -0.178372 0.208
         vertex -0.106066 -0.178898 0.208
      endloop
   endfacet
   facet normal 0 0 1
      outer loop
         vertex -0.110797 -0.177533 0.208
         vertex -0.110655 -0.177641 0.208
         vertex -0.106066 -0.178898 0.208
      endloop
   endfacet
   facet normal 0 0 1
      outer loop
         vertex -0.177287 -0.111369 0.208
         vertex -0.111634 -0.177251 0.208
         vertex -0.111456 -0.17727 0.208
      endloop
   endfacet
   facet normal 0 0 1
      outer loop
         vertex -0.112165 -0.177308 0.208
         vertex -0.11199 -0.17727 0.208
         vertex -0.177287 -0.111369 0.208
      endloop
   endfacet
   facet normal 0 0 1
      outer loop
         vertex -0.112791 -0.177641 0.208
         vertex -0.112649 -0.177533 0.208
         vertex -0.177287 -0.111369 0.208
      endloop
   endfacet
   facet normal 0 0 1
      outer loop
         vertex -0.113373 -0.178898 0.208
         vertex -0.113364 -0.17872 0.208
         vertex -0.177287 -0.111369 0.208
      endloop
   endfacet
   facet normal 0 0 1
      outer loop
         vertex -0.177258 -0.111545 0.208
         vertex -0.112921 -0.180033 0.208
         vertex -0.113037 -0.179897 0.208
      endloop
   endfacet
   facet normal 0 0 1
      outer loop
         vertex -0.178809 -0.110076 0.208
         vertex -0.178631 -0.110095 0.208
         vertex -0.178898 -0.106066 0.208
      endloop
   endfacet
   facet normal 0 0 1
      outer loop
         vertex -0.179671 -0.110265 0.208
         vertex -0.179509 -0.11019 0.208
         vertex -0.178898 -0.106066 0.208
      endloop
   endfacet
   facet normal 0 0 1
      outer loop
         vertex -0.178988 -0.113371 0.208
         vertex -0.179165 -0.113351 0.208
         vertex -0.185969 -0.113137 0.208
      endloop
   endfacet
   facet normal 0 0 1
      outer loop
         vertex -0.178125 -0.113181 0.208
         vertex -0.178288 -0.113256 0.208
         vertex -0.113137 -0.185969 0.208
      endloop
   endfacet
   facet normal 0 0 1
      outer loop
         vertex -0.113137 -0.185969 0.208
         vertex -0.112496 -0.180356 0.208
         vertex -0.112649 -0.180264 0.208
      endloop
   endfacet
   facet normal 0 0 1
      outer loop
         vertex -0.111813 -0.180546 0.208
         vertex -0.11199 -0.180527 0.208
         vertex -0.113137 -0.185969 0.208
      endloop
   endfacet
   facet normal 0 0 1
      outer loop
         vertex -0.113137 -0.185969 0.208
         vertex -0.111112 -0.180431 0.208
         vertex -0.111282 -0.180488 0.208
      endloop
   endfacet
   facet normal 0 0 1
      outer loop
         vertex -0.110797 -0.180264 0.208
         vertex -0.11095 -0.180356 0.208
         vertex -0.113137 -0.185969 0.208
      endloop
   endfacet
   facet normal 0 0 1
      outer loop
         vertex -0.106066 -0.178898 0.208
         vertex -0.11041 -0.179897 0.208
         vertex -0.110525 -0.180033 0.208
      endloop
   endfacet
   facet normal 0 0 1
      outer loop
         vertex -0.106066 -0.178898 0.208
         vertex -0.11016 -0.179425 0.208
         vertex -0.110226 -0.179591 0.208
      endloop
   endfacet
   facet normal 0 0 1
      outer loop
         vertex -0.106066 -0.178898 0.208
         vertex -0.110073 -0.178898 0.208
         vertex -0.110083 -0.179077 0.208
      endloop
   endfacet
   facet normal 0 0 1
      outer loop
         vertex -0.110525 -0.177764 0.208
         vertex -0.11041 -0.1779 0.208
         vertex -0.106066 -0.178898 0.208
      endloop
   endfacet
   facet normal 0 0 1
      outer loop
         vertex -0.111813 -0.177251 0.208
         vertex -0.111634 -0.177251 0.208
         vertex -0.177287 -0.111369 0.208
      endloop
   endfacet
   facet normal 0 0 1
      outer loop
         vertex -0.113137 -0.178048 0.208
         vertex -0.113037 -0.1779 0.208
         vertex -0.177287 -0.111369 0.208
      endloop
   endfacet
   facet normal 0 0 1
      outer loop
         vertex -0.113037 -0.179897 0.208
         vertex -0.177287 -0.111369 0.208
         vertex -0.177258 -0.111545 0.208
      endloop
   endfacet
   facet normal 0 0 1
      outer loop
         vertex -0.106066 -0.178898 0.208
         vertex -0.177401 -0.11103 0.208
         vertex -0.177335 -0.111196 0.208
      endloop
   endfacet
   facet normal 0 0 1
      outer loop
         vertex -0.17934 -0.110133 0.208
         vertex -0.179165 -0.110095 0.208
         vertex -0.178898 -0.106066 0.208
      endloop
   endfacet
   facet normal 0 0 1
      outer loop
         vertex -0.185969 -0.113137 0.208
         vertex -0.180396 -0.112416 0.208
         vertex -0.180462 -0.11225 0.208
      endloop
   endfacet
   facet normal 0 0 1
      outer loop
         vertex -0.178457 -0.113313 0.208
         vertex -0.178631 -0.113351 0.208
         vertex -0.113137 -0.185969 0.208
      endloop
   endfacet
   facet normal 0 0 1
      outer loop
         vertex -0.113137 -0.185969 0.208
         vertex -0.177401 -0.112416 0.208
         vertex -0.177485 -0.112574 0.208
      endloop
   endfacet
   facet normal 0 0 1
      outer loop
         vertex -0.113137 -0.185969 0.208
         vertex -0.177287 -0.112078 0.208
         vertex -0.177335 -0.11225 0.208
      endloop
   endfacet
   facet normal 0 0 1
      outer loop
         vertex -0.112921 -0.180033 0.208
         vertex -0.177248 -0.111723 0.208
         vertex -0.177258 -0.111902 0.208
      endloop
   endfacet
   facet normal 0 0 1
      outer loop
         vertex -0.113137 -0.185969 0.208
         vertex -0.112334 -0.180431 0.208
         vertex -0.112496 -0.180356 0.208
      endloop
   endfacet
   facet normal 0 0 1
      outer loop
         vertex -0.111282 -0.180488 0.208
         vertex -0.111456 -0.180527 0.208
         vertex -0.113137 -0.185969 0.208
      endloop
   endfacet
   facet normal 0 0 1
      outer loop
         vertex -0.110655 -0.180156 0.208
         vertex -0.113137 -0.185969 0.208
         vertex -0.106066 -0.178898 0.208
      endloop
   endfacet
   facet normal 0 0 1
      outer loop
         vertex -0.110112 -0.179253 0.208
         vertex -0.11016 -0.179425 0.208
         vertex -0.106066 -0.178898 0.208
      endloop
   endfacet
   facet normal 0 0 1
      outer loop
         vertex -0.111282 -0.177308 0.208
         vertex -0.111112 -0.177366 0.208
         vertex -0.177287 -0.111369 0.208
      endloop
   endfacet
   facet normal 0 0 1
      outer loop
         vertex -0.177258 -0.111545 0.208
         vertex -0.177248 -0.111723 0.208
         vertex -0.112921 -0.180033 0.208
      endloop
   endfacet
   facet normal 0 0 1
      outer loop
         vertex -0.177485 -0.110873 0.208
         vertex -0.177401 -0.11103 0.208
         vertex -0.106066 -0.178898 0.208
      endloop
   endfacet
   facet normal 0 0 1
      outer loop
         vertex -0.185969 -0.113137 0.208
         vertex -0.18051 -0.111369 0.208
         vertex -0.180462 -0.111196 0.208
      endloop
   endfacet
   facet normal 0 0 1
      outer loop
         vertex -0.180312 -0.112574 0.208
         vertex -0.180396 -0.112416 0.208
         vertex -0.185969 -0.113137 0.208
      endloop
   endfacet
   facet normal 0 0 1
      outer loop
         vertex -0.177335 -0.11225 0.208
         vertex -0.177401 -0.112416 0.208
         vertex -0.113137 -0.185969 0.208
      endloop
   endfacet
   facet normal 0 0 1
      outer loop
         vertex -0.113137 -0.185969 0.208
         vertex -0.112791 -0.180156 0.208
         vertex -0.112921 -0.180033 0.208
      endloop
   endfacet
   facet normal 0 0 1
      outer loop
         vertex -0.112165 -0.180488 0.208
         vertex -0.112334 -0.180431 0.208
         vertex -0.113137 -0.185969 0.208
      endloop
   endfacet
   facet normal 0 0 1
      outer loop
         vertex -0.110309 -0.179749 0.208
         vertex -0.11041 -0.179897 0.208
         vertex -0.106066 -0.178898 0.208
      endloop
   endfacet
   facet normal 0 0 1
      outer loop
         vertex -0.112496 -0.177441 0.208
         vertex -0.112334 -0.177366 0.208
         vertex -0.177287 -0.111369 0.208
      endloop
   endfacet
   facet normal 0 0 1
      outer loop
         vertex -0.180462 -0.111196 0.208
         vertex -0.180396 -0.11103 0.208
         vertex -0.185969 -0.113137 0.208
      endloop
   endfacet
   facet normal 0 0 1
      outer loop
         vertex -0.185969 -0.113137 0.208
         vertex -0.18051 -0.112078 0.208
         vertex -0.180539 -0.111902 0.208
      endloop
   endfacet
   facet normal 0 0 1
      outer loop
         vertex -0.177485 -0.112574 0.208
         vertex -0.177585 -0.112722 0.208
         vertex -0.113137 -0.185969 0.208
      endloop
   endfacet
   facet normal 0 0 1
      outer loop
         vertex -0.177258 -0.111902 0.208
         vertex -0.113137 -0.185969 0.208
         vertex -0.112921 -0.180033 0.208
      endloop
   endfacet
   facet normal 0 0 1
      outer loop
         vertex -0.11095 -0.180356 0.208
         vertex -0.111112 -0.180431 0.208
         vertex -0.113137 -0.185969 0.208
      endloop
   endfacet
   facet normal 0 0 1
      outer loop
         vertex -0.177335 -0.111196 0.208
         vertex -0.177287 -0.111369 0.208
         vertex -0.106066 -0.178898 0.208
      endloop
   endfacet
   facet normal 0 0 1
      outer loop
         vertex -0.185969 -0.113137 0.208
         vertex -0.180548 -0.111723 0.208
         vertex -0.180539 -0.111545 0.208
      endloop
   endfacet
   facet normal 0 0 1
      outer loop
         vertex -0.180462 -0.11225 0.208
         vertex -0.18051 -0.112078 0.208
         vertex -0.185969 -0.113137 0.208
      endloop
   endfacet
   facet normal 0 0 1
      outer loop
         vertex -0.112649 -0.180264 0.208
         vertex -0.112791 -0.180156 0.208
         vertex -0.113137 -0.185969 0.208
      endloop
   endfacet
   facet normal 0 0 1
      outer loop
         vertex -0.180539 -0.111545 0.208
         vertex -0.18051 -0.111369 0.208
         vertex -0.185969 -0.113137 0.208
      endloop
   endfacet
   facet normal 0 0 1
      outer loop
         vertex -0.177258 -0.111902 0.208
         vertex -0.177287 -0.112078 0.208
         vertex -0.113137 -0.185969 0.208
      endloop
   endfacet
   facet normal 0 0 1
      outer loop
         vertex -0.180539 -0.111902 0.208
         vertex -0.180548 -0.111723 0.208
         vertex -0.185969 -0.113137 0.208
      endloop
   endfacet
   facet normal 0 0 1
      outer loop
         vertex -0.110083 -0.17872 0.208
         vertex -0.110073 -0.178898 0.208
         vertex -0.106066 -0.178898 0.208
      endloop
   endfacet
   facet normal 0.707107 -0.707107 0
      outer loop
         vertex -0.106066 -0.178898 0.208
         vertex -0.113137 -0.185969 0.208
         vertex -0.111723 -0.184555 0.204
      endloop
   endfacet
   facet normal 0.707107 -0.707107 0
      outer loop
         vertex -0.113137 -0.185969 0.189
         vertex -0.111723 -0.184555 0.189
         vertex -0.111723 -0.184555 0.204
      endloop
   endfacet
   facet normal 0.707107 -0.707107 0
      outer loop
         vertex -0.111723 -0.184555 0.204
         vertex -0.113137 -0.185969 0.208
         vertex -0.113137 -0.185969 0.189
      endloop
   endfacet
   facet normal 0.707107 -0.707107 0
      outer loop
         vertex -0.111723 -0.184555 0.204
         vertex -0.106066 -0.178898 0.204
         vertex -0.106066 -0.178898 0.208
      endloop
   endfacet
   facet normal -0.707107 0.707107 0
      outer loop
         vertex -0.185969 -0.113137 0.189
         vertex -0.185969 -0.113137 0.208
         vertex -0.184555 -0.111723 0.204
      endloop
   endfacet
   facet normal -0.707107 0.707107 0
      outer loop
         vertex -0.178898 -0.106066 0.208
         vertex -0.178898 -0.106066 0.204
         vertex -0.184555 -0.111723 0.204
      endloop
   endfacet
   facet normal -0.707107 0.707107 0
      outer loop
         vertex -0.184555 -0.111723 0.204
         vertex -0.185969 -0.113137 0.208
         vertex -0.178898 -0.106066 0.208
      endloop
   endfacet
   facet normal -0.707107 0.707107 0
      outer loop
         vertex -0.184555 -0.111723 0.204
         vertex -0.184555 -0.111723 0.189
         vertex -0.185969 -0.113137 0.189
      endloop
   endfacet
   facet normal 0.707107 0.707107 0
      outer loop
         vertex -0.184555 -0.111723 0.189
         vertex -0.184555 -0.111723 0.204
         vertex -0.111723 -0.184555 0.204
      endloop
   endfacet
   facet normal 0.707107 0.707107 0
      outer loop
         vertex -0.111723 -0.184555 0.204
         vertex -0.111723 -0.184555 0.189
         vertex -0.184555 -0.111723 0.189
      endloop
   endfacet
   facet normal -0.707107 -0.707107 0
      outer loop
         vertex -0.113137 -0.185969 0.189
         vertex -0.113137 -0.185969 0.208
         vertex -0.185969 -0.113137 0.208
      endloop
   endfacet
   facet normal -0.707107 -0.707107 0
      outer loop
         vertex -0.185969 -0.113137 0.208
         vertex -0.185969 -0.113137 0.189
         vertex -0.113137 -0.185969 0.189
      endloop
   endfacet
   facet normal 0 0 -1
      outer loop
         vertex -0.184555 -0.111723 0.189
         vertex -0.111723 -0.184555 0.189
         vertex -0.113137 -0.185969 0.189
      endloop
   endfacet
   facet normal 0 0 -1
      outer loop
         vertex -0.113137 -0.185969 0.189
         vertex -0.185969 -0.113137 0.189
         vertex -0.184555 -0.111723 0.189
      endloop
   endfacet
endsolid Cap Gab Filler. Units = meters