solid CF tube. STL generated by ONSHAPE BY PTC INC, 1.216. Units = meters
   facet normal 0.994138 0.108119 0
      outer loop
         vertex 0.0336872 -0.000686556 0
         vertex 0.03365 3.88825e-19 0
         vertex 0.03365 3.88825e-19 0.111475
      endloop
   endfacet
   facet normal 0.976621 0.21497 0
      outer loop
         vertex 0.0337985 -0.00136506 0
         vertex 0.0336872 -0.000686556 0
         vertex 0.0336872 -0.000686556 0.111475
      endloop
   endfacet
   facet normal 0.947653 0.319302 0
      outer loop
         vertex 0.0339824 -0.00202756 0
         vertex 0.0337985 -0.00136506 0
         vertex 0.0337985 -0.00136506 0.111475
      endloop
   endfacet
   facet normal 0.907575 0.419889 0
      outer loop
         vertex 0.0342369 -0.0026663 0
         vertex 0.0339824 -0.00202756 0
         vertex 0.0339824 -0.00202756 0.111475
      endloop
   endfacet
   facet normal 0.856857 0.515554 0
      outer loop
         vertex 0.034559 -0.00327377 0
         vertex 0.0342369 -0.0026663 0
         vertex 0.0342369 -0.0026663 0.111475
      endloop
   endfacet
   facet normal 0.796093 0.605174 0
      outer loop
         vertex 0.0349448 -0.00384286 0
         vertex 0.034559 -0.00327377 0
         vertex 0.034559 -0.00327377 0.111475
      endloop
   endfacet
   facet normal 0.725995 0.687699 0
      outer loop
         vertex 0.0353899 -0.00436689 0
         vertex 0.0349448 -0.00384286 0
         vertex 0.0349448 -0.00384286 0.111475
      endloop
   endfacet
   facet normal 0.647386 0.762162 0
      outer loop
         vertex 0.0358891 -0.00483973 0
         vertex 0.0353899 -0.00436689 0
         vertex 0.0353899 -0.00436689 0.111475
      endloop
   endfacet
   facet normal 0.561187 0.827689 0
      outer loop
         vertex 0.0364365 -0.00525583 0
         vertex 0.0358891 -0.00483973 0
         vertex 0.0358891 -0.00483973 0.111475
      endloop
   endfacet
   facet normal 0.468408 0.883512 0
      outer loop
         vertex 0.0370256 -0.0056103 0
         vertex 0.0364365 -0.00525583 0
         vertex 0.0364365 -0.00525583 0.111475
      endloop
   endfacet
   facet normal 0.370138 0.928977 0
      outer loop
         vertex 0.0376496 -0.005899 0
         vertex 0.0370256 -0.0056103 0
         vertex 0.0370256 -0.0056103 0.111475
      endloop
   endfacet
   facet normal 0.267528 0.96355 0
      outer loop
         vertex 0.0383012 -0.00611854 0
         vertex 0.0376496 -0.005899 0
         vertex 0.0376496 -0.005899 0.111475
      endloop
   endfacet
   facet normal 0.161782 0.986827 0
      outer loop
         vertex 0.0389727 -0.00626635 0
         vertex 0.0383012 -0.00611854 0
         vertex 0.0383012 -0.00611854 0.111475
      endloop
   endfacet
   facet normal 0.0541389 0.998533 0
      outer loop
         vertex 0.0396562 -0.00634069 0
         vertex 0.0389727 -0.00626635 0
         vertex 0.0389727 -0.00626635 0.111475
      endloop
   endfacet
   facet normal -0.0541389 0.998533 0
      outer loop
         vertex 0.0403438 -0.00634069 0
         vertex 0.0396562 -0.00634069 0
         vertex 0.0396562 -0.00634069 0.111475
      endloop
   endfacet
   facet normal -0.161782 0.986827 0
      outer loop
         vertex 0.0410273 -0.00626635 0
         vertex 0.0403438 -0.00634069 0
         vertex 0.0403438 -0.00634069 0.111475
      endloop
   endfacet
   facet normal -0.267528 0.96355 0
      outer loop
         vertex 0.0416988 -0.00611854 0
         vertex 0.0410273 -0.00626635 0
         vertex 0.0410273 -0.00626635 0.111475
      endloop
   endfacet
   facet normal -0.370138 0.928977 0
      outer loop
         vertex 0.0423504 -0.005899 0
         vertex 0.0416988 -0.00611854 0
         vertex 0.0416988 -0.00611854 0.111475
      endloop
   endfacet
   facet normal -0.468408 0.883512 0
      outer loop
         vertex 0.0429744 -0.0056103 0
         vertex 0.0423504 -0.005899 0
         vertex 0.0423504 -0.005899 0.111475
      endloop
   endfacet
   facet normal -0.561187 0.827689 0
      outer loop
         vertex 0.0435635 -0.00525583 0
         vertex 0.0429744 -0.0056103 0
         vertex 0.0429744 -0.0056103 0.111475
      endloop
   endfacet
   facet normal -0.647386 0.762162 0
      outer loop
         vertex 0.0441109 -0.00483973 0
         vertex 0.0435635 -0.00525583 0
         vertex 0.0435635 -0.00525583 0.111475
      endloop
   endfacet
   facet normal -0.725995 0.687699 0
      outer loop
         vertex 0.0446101 -0.00436689 0
         vertex 0.0441109 -0.00483973 0
         vertex 0.0441109 -0.00483973 0.111475
      endloop
   endfacet
   facet normal -0.796093 0.605174 0
      outer loop
         vertex 0.0450552 -0.00384286 0
         vertex 0.0446101 -0.00436689 0
         vertex 0.0446101 -0.00436689 0.111475
      endloop
   endfacet
   facet normal -0.856857 0.515554 0
      outer loop
         vertex 0.045441 -0.00327377 0
         vertex 0.0450552 -0.00384286 0
         vertex 0.0450552 -0.00384286 0.111475
      endloop
   endfacet
   facet normal -0.907575 0.419889 0
      outer loop
         vertex 0.0457631 -0.0026663 0
         vertex 0.045441 -0.00327377 0
         vertex 0.045441 -0.00327377 0.111475
      endloop
   endfacet
   facet normal -0.947653 0.319302 0
      outer loop
         vertex 0.0460176 -0.00202756 0
         vertex 0.0457631 -0.0026663 0
         vertex 0.0457631 -0.0026663 0.111475
      endloop
   endfacet
   facet normal -0.976621 0.21497 0
      outer loop
         vertex 0.0462015 -0.00136506 0
         vertex 0.0460176 -0.00202756 0
         vertex 0.0460176 -0.00202756 0.111475
      endloop
   endfacet
   facet normal -0.994138 0.108119 0
      outer loop
         vertex 0.0463128 -0.000686556 0
         vertex 0.0462015 -0.00136506 0
         vertex 0.0462015 -0.00136506 0.111475
      endloop
   endfacet
   facet normal -1 -1.22465e-16 0
      outer loop
         vertex 0.04635 2.72178e-18 0
         vertex 0.0463128 -0.000686556 0
         vertex 0.0463128 -0.000686556 0.111475
      endloop
   endfacet
   facet normal -0.994138 -0.108119 0
      outer loop
         vertex 0.0463128 0.000686556 0
         vertex 0.04635 2.72178e-18 0
         vertex 0.04635 1.16648e-18 0.111475
      endloop
   endfacet
   facet normal -0.976621 -0.21497 0
      outer loop
         vertex 0.0462015 0.00136506 0
         vertex 0.0463128 0.000686556 0
         vertex 0.0463128 0.000686556 0.111475
      endloop
   endfacet
   facet normal -0.947653 -0.319302 0
      outer loop
         vertex 0.0460176 0.00202756 0
         vertex 0.0462015 0.00136506 0
         vertex 0.0462015 0.00136506 0.111475
      endloop
   endfacet
   facet normal -0.907575 -0.419889 0
      outer loop
         vertex 0.0457631 0.0026663 0
         vertex 0.0460176 0.00202756 0
         vertex 0.0460176 0.00202756 0.111475
      endloop
   endfacet
   facet normal -0.856857 -0.515554 0
      outer loop
         vertex 0.045441 0.00327377 0
         vertex 0.0457631 0.0026663 0
         vertex 0.0457631 0.0026663 0.111475
      endloop
   endfacet
   facet normal -0.796093 -0.605174 0
      outer loop
         vertex 0.0450552 0.00384286 0
         vertex 0.045441 0.00327377 0
         vertex 0.045441 0.00327377 0.111475
      endloop
   endfacet
   facet normal -0.725995 -0.687699 0
      outer loop
         vertex 0.0446101 0.00436689 0
         vertex 0.0450552 0.00384286 0
         vertex 0.0450552 0.00384286 0.111475
      endloop
   endfacet
   facet normal -0.647386 -0.762162 0
      outer loop
         vertex 0.0441109 0.00483973 0
         vertex 0.0446101 0.00436689 0
         vertex 0.0446101 0.00436689 0.111475
      endloop
   endfacet
   facet normal -0.561187 -0.827689 0
      outer loop
         vertex 0.0435635 0.00525583 0
         vertex 0.0441109 0.00483973 0
         vertex 0.0441109 0.00483973 0.111475
      endloop
   endfacet
   facet normal -0.468408 -0.883512 0
      outer loop
         vertex 0.0429744 0.0056103 0
         vertex 0.0435635 0.00525583 0
         vertex 0.0435635 0.00525583 0.111475
      endloop
   endfacet
   facet normal -0.370138 -0.928977 0
      outer loop
         vertex 0.0423504 0.005899 0
         vertex 0.0429744 0.0056103 0
         vertex 0.0429744 0.0056103 0.111475
      endloop
   endfacet
   facet normal -0.267528 -0.96355 0
      outer loop
         vertex 0.0416988 0.00611854 0
         vertex 0.0423504 0.005899 0
         vertex 0.0423504 0.005899 0.111475
      endloop
   endfacet
   facet normal -0.161782 -0.986827 0
      outer loop
         vertex 0.0410273 0.00626635 0
         vertex 0.0416988 0.00611854 0
         vertex 0.0416988 0.00611854 0.111475
      endloop
   endfacet
   facet normal -0.0541389 -0.998533 0
      outer loop
         vertex 0.0403438 0.00634069 0
         vertex 0.0410273 0.00626635 0
         vertex 0.0410273 0.00626635 0.111475
      endloop
   endfacet
   facet normal 0.0541389 -0.998533 0
      outer loop
         vertex 0.0396562 0.00634069 0
         vertex 0.0403438 0.00634069 0
         vertex 0.0403438 0.00634069 0.111475
      endloop
   endfacet
   facet normal 0.161782 -0.986827 0
      outer loop
         vertex 0.0389727 0.00626635 0
         vertex 0.0396562 0.00634069 0
         vertex 0.0396562 0.00634069 0.111475
      endloop
   endfacet
   facet normal 0.267528 -0.96355 0
      outer loop
         vertex 0.0383012 0.00611854 0
         vertex 0.0389727 0.00626635 0
         vertex 0.0389727 0.00626635 0.111475
      endloop
   endfacet
   facet normal 0.370138 -0.928977 0
      outer loop
         vertex 0.0376496 0.005899 0
         vertex 0.0383012 0.00611854 0
         vertex 0.0383012 0.00611854 0.111475
      endloop
   endfacet
   facet normal 0.468408 -0.883512 0
      outer loop
         vertex 0.0370256 0.0056103 0
         vertex 0.0376496 0.005899 0
         vertex 0.0376496 0.005899 0.111475
      endloop
   endfacet
   facet normal 0.561187 -0.827689 0
      outer loop
         vertex 0.0364365 0.00525583 0
         vertex 0.0370256 0.0056103 0
         vertex 0.0370256 0.0056103 0.111475
      endloop
   endfacet
   facet normal 0.647386 -0.762162 0
      outer loop
         vertex 0.0358891 0.00483973 0
         vertex 0.0364365 0.00525583 0
         vertex 0.0364365 0.00525583 0.111475
      endloop
   endfacet
   facet normal 0.725995 -0.687699 0
      outer loop
         vertex 0.0353899 0.00436689 0
         vertex 0.0358891 0.00483973 0
         vertex 0.0358891 0.00483973 0.111475
      endloop
   endfacet
   facet normal 0.796093 -0.605174 0
      outer loop
         vertex 0.0349448 0.00384286 0
         vertex 0.0353899 0.00436689 0
         vertex 0.0353899 0.00436689 0.111475
      endloop
   endfacet
   facet normal 0.856857 -0.515554 0
      outer loop
         vertex 0.034559 0.00327377 0
         vertex 0.0349448 0.00384286 0
         vertex 0.0349448 0.00384286 0.111475
      endloop
   endfacet
   facet normal 0.907575 -0.419889 0
      outer loop
         vertex 0.0342369 0.0026663 0
         vertex 0.034559 0.00327377 0
         vertex 0.034559 0.00327377 0.111475
      endloop
   endfacet
   facet normal 0.947653 -0.319302 0
      outer loop
         vertex 0.0339824 0.00202756 0
         vertex 0.0342369 0.0026663 0
         vertex 0.0342369 0.0026663 0.111475
      endloop
   endfacet
   facet normal 0.976621 -0.21497 0
      outer loop
         vertex 0.0337985 0.00136506 0
         vertex 0.0339824 0.00202756 0
         vertex 0.0339824 0.00202756 0.111475
      endloop
   endfacet
   facet normal 0.994138 -0.108119 0
      outer loop
         vertex 0.0336872 0.000686556 0
         vertex 0.0337985 0.00136506 0
         vertex 0.0337985 0.00136506 0.111475
      endloop
   endfacet
   facet normal 1 2.44929e-16 0
      outer loop
         vertex 0.03365 3.88825e-19 0
         vertex 0.0336872 0.000686556 0
         vertex 0.0336872 0.000686556 0.111475
      endloop
   endfacet
   facet normal 0.994138 -0.108119 0
      outer loop
         vertex 0.0336872 0.000686556 0.111475
         vertex 0.03365 3.88825e-19 0.111475
         vertex 0.03365 3.88825e-19 0
      endloop
   endfacet
   facet normal 0.976621 -0.21497 0
      outer loop
         vertex 0.0337985 0.00136506 0.111475
         vertex 0.0336872 0.000686556 0.111475
         vertex 0.0336872 0.000686556 0
      endloop
   endfacet
   facet normal 0.947653 -0.319302 0
      outer loop
         vertex 0.0339824 0.00202756 0.111475
         vertex 0.0337985 0.00136506 0.111475
         vertex 0.0337985 0.00136506 0
      endloop
   endfacet
   facet normal 0.907575 -0.419889 0
      outer loop
         vertex 0.0342369 0.0026663 0.111475
         vertex 0.0339824 0.00202756 0.111475
         vertex 0.0339824 0.00202756 0
      endloop
   endfacet
   facet normal 0.856857 -0.515554 0
      outer loop
         vertex 0.034559 0.00327377 0.111475
         vertex 0.0342369 0.0026663 0.111475
         vertex 0.0342369 0.0026663 0
      endloop
   endfacet
   facet normal 0.796093 -0.605174 0
      outer loop
         vertex 0.0349448 0.00384286 0.111475
         vertex 0.034559 0.00327377 0.111475
         vertex 0.034559 0.00327377 0
      endloop
   endfacet
   facet normal 0.725995 -0.687699 0
      outer loop
         vertex 0.0353899 0.00436689 0.111475
         vertex 0.0349448 0.00384286 0.111475
         vertex 0.0349448 0.00384286 0
      endloop
   endfacet
   facet normal 0.647386 -0.762162 0
      outer loop
         vertex 0.0358891 0.00483973 0.111475
         vertex 0.0353899 0.00436689 0.111475
         vertex 0.0353899 0.00436689 0
      endloop
   endfacet
   facet normal 0.561187 -0.827689 0
      outer loop
         vertex 0.0364365 0.00525583 0.111475
         vertex 0.0358891 0.00483973 0.111475
         vertex 0.0358891 0.00483973 0
      endloop
   endfacet
   facet normal 0.468408 -0.883512 0
      outer loop
         vertex 0.0370256 0.0056103 0.111475
         vertex 0.0364365 0.00525583 0.111475
         vertex 0.0364365 0.00525583 0
      endloop
   endfacet
   facet normal 0.370138 -0.928977 0
      outer loop
         vertex 0.0376496 0.005899 0.111475
         vertex 0.0370256 0.0056103 0.111475
         vertex 0.0370256 0.0056103 0
      endloop
   endfacet
   facet normal 0.267528 -0.96355 0
      outer loop
         vertex 0.0383012 0.00611854 0.111475
         vertex 0.0376496 0.005899 0.111475
         vertex 0.0376496 0.005899 0
      endloop
   endfacet
   facet normal 0.161782 -0.986827 0
      outer loop
         vertex 0.0389727 0.00626635 0.111475
         vertex 0.0383012 0.00611854 0.111475
         vertex 0.0383012 0.00611854 0
      endloop
   endfacet
   facet normal 0.0541389 -0.998533 0
      outer loop
         vertex 0.0396562 0.00634069 0.111475
         vertex 0.0389727 0.00626635 0.111475
         vertex 0.0389727 0.00626635 0
      endloop
   endfacet
   facet normal -0.0541389 -0.998533 0
      outer loop
         vertex 0.0403438 0.00634069 0.111475
         vertex 0.0396562 0.00634069 0.111475
         vertex 0.0396562 0.00634069 0
      endloop
   endfacet
   facet normal -0.161782 -0.986827 0
      outer loop
         vertex 0.0410273 0.00626635 0.111475
         vertex 0.0403438 0.00634069 0.111475
         vertex 0.0403438 0.00634069 0
      endloop
   endfacet
   facet normal -0.267528 -0.96355 0
      outer loop
         vertex 0.0416988 0.00611854 0.111475
         vertex 0.0410273 0.00626635 0.111475
         vertex 0.0410273 0.00626635 0
      endloop
   endfacet
   facet normal -0.370138 -0.928977 0
      outer loop
         vertex 0.0423504 0.005899 0.111475
         vertex 0.0416988 0.00611854 0.111475
         vertex 0.0416988 0.00611854 0
      endloop
   endfacet
   facet normal -0.468408 -0.883512 0
      outer loop
         vertex 0.0429744 0.0056103 0.111475
         vertex 0.0423504 0.005899 0.111475
         vertex 0.0423504 0.005899 0
      endloop
   endfacet
   facet normal -0.561187 -0.827689 0
      outer loop
         vertex 0.0435635 0.00525583 0.111475
         vertex 0.0429744 0.0056103 0.111475
         vertex 0.0429744 0.0056103 0
      endloop
   endfacet
   facet normal -0.647386 -0.762162 0
      outer loop
         vertex 0.0441109 0.00483973 0.111475
         vertex 0.0435635 0.00525583 0.111475
         vertex 0.0435635 0.00525583 0
      endloop
   endfacet
   facet normal -0.725995 -0.687699 0
      outer loop
         vertex 0.0446101 0.00436689 0.111475
         vertex 0.0441109 0.00483973 0.111475
         vertex 0.0441109 0.00483973 0
      endloop
   endfacet
   facet normal -0.796093 -0.605174 0
      outer loop
         vertex 0.0450552 0.00384286 0.111475
         vertex 0.0446101 0.00436689 0.111475
         vertex 0.0446101 0.00436689 0
      endloop
   endfacet
   facet normal -0.856857 -0.515554 0
      outer loop
         vertex 0.045441 0.00327377 0.111475
         vertex 0.0450552 0.00384286 0.111475
         vertex 0.0450552 0.00384286 0
      endloop
   endfacet
   facet normal -0.907575 -0.419889 0
      outer loop
         vertex 0.0457631 0.0026663 0.111475
         vertex 0.045441 0.00327377 0.111475
         vertex 0.045441 0.00327377 0
      endloop
   endfacet
   facet normal -0.947653 -0.319302 0
      outer loop
         vertex 0.0460176 0.00202756 0.111475
         vertex 0.0457631 0.0026663 0.111475
         vertex 0.0457631 0.0026663 0
      endloop
   endfacet
   facet normal -0.976621 -0.21497 0
      outer loop
         vertex 0.0462015 0.00136506 0.111475
         vertex 0.0460176 0.00202756 0.111475
         vertex 0.0460176 0.00202756 0
      endloop
   endfacet
   facet normal -0.994138 -0.108119 0
      outer loop
         vertex 0.0463128 0.000686556 0.111475
         vertex 0.0462015 0.00136506 0.111475
         vertex 0.0462015 0.00136506 0
      endloop
   endfacet
   facet normal -1 -1.22465e-16 0
      outer loop
         vertex 0.04635 1.16648e-18 0.111475
         vertex 0.0463128 0.000686556 0.111475
         vertex 0.0463128 0.000686556 0
      endloop
   endfacet
   facet normal -0.994138 0.108119 0
      outer loop
         vertex 0.0463128 -0.000686556 0.111475
         vertex 0.04635 1.16648e-18 0.111475
         vertex 0.04635 2.72178e-18 0
      endloop
   endfacet
   facet normal -0.976621 0.21497 0
      outer loop
         vertex 0.0462015 -0.00136506 0.111475
         vertex 0.0463128 -0.000686556 0.111475
         vertex 0.0463128 -0.000686556 0
      endloop
   endfacet
   facet normal -0.947653 0.319302 0
      outer loop
         vertex 0.0460176 -0.00202756 0.111475
         vertex 0.0462015 -0.00136506 0.111475
         vertex 0.0462015 -0.00136506 0
      endloop
   endfacet
   facet normal -0.907575 0.419889 0
      outer loop
         vertex 0.0457631 -0.0026663 0.111475
         vertex 0.0460176 -0.00202756 0.111475
         vertex 0.0460176 -0.00202756 0
      endloop
   endfacet
   facet normal -0.856857 0.515554 0
      outer loop
         vertex 0.045441 -0.00327377 0.111475
         vertex 0.0457631 -0.0026663 0.111475
         vertex 0.0457631 -0.0026663 0
      endloop
   endfacet
   facet normal -0.796093 0.605174 0
      outer loop
         vertex 0.0450552 -0.00384286 0.111475
         vertex 0.045441 -0.00327377 0.111475
         vertex 0.045441 -0.00327377 0
      endloop
   endfacet
   facet normal -0.725995 0.687699 0
      outer loop
         vertex 0.0446101 -0.00436689 0.111475
         vertex 0.0450552 -0.00384286 0.111475
         vertex 0.0450552 -0.00384286 0
      endloop
   endfacet
   facet normal -0.647386 0.762162 0
      outer loop
         vertex 0.0441109 -0.00483973 0.111475
         vertex 0.0446101 -0.00436689 0.111475
         vertex 0.0446101 -0.00436689 0
      endloop
   endfacet
   facet normal -0.561187 0.827689 0
      outer loop
         vertex 0.0435635 -0.00525583 0.111475
         vertex 0.0441109 -0.00483973 0.111475
         vertex 0.0441109 -0.00483973 0
      endloop
   endfacet
   facet normal -0.468408 0.883512 0
      outer loop
         vertex 0.0429744 -0.0056103 0.111475
         vertex 0.0435635 -0.00525583 0.111475
         vertex 0.0435635 -0.00525583 0
      endloop
   endfacet
   facet normal -0.370138 0.928977 0
      outer loop
         vertex 0.0423504 -0.005899 0.111475
         vertex 0.0429744 -0.0056103 0.111475
         vertex 0.0429744 -0.0056103 0
      endloop
   endfacet
   facet normal -0.267528 0.96355 0
      outer loop
         vertex 0.0416988 -0.00611854 0.111475
         vertex 0.0423504 -0.005899 0.111475
         vertex 0.0423504 -0.005899 0
      endloop
   endfacet
   facet normal -0.161782 0.986827 0
      outer loop
         vertex 0.0410273 -0.00626635 0.111475
         vertex 0.0416988 -0.00611854 0.111475
         vertex 0.0416988 -0.00611854 0
      endloop
   endfacet
   facet normal -0.0541389 0.998533 0
      outer loop
         vertex 0.0403438 -0.00634069 0.111475
         vertex 0.0410273 -0.00626635 0.111475
         vertex 0.0410273 -0.00626635 0
      endloop
   endfacet
   facet normal 0.0541389 0.998533 0
      outer loop
         vertex 0.0396562 -0.00634069 0.111475
         vertex 0.0403438 -0.00634069 0.111475
         vertex 0.0403438 -0.00634069 0
      endloop
   endfacet
   facet normal 0.161782 0.986827 0
      outer loop
         vertex 0.0389727 -0.00626635 0.111475
         vertex 0.0396562 -0.00634069 0.111475
         vertex 0.0396562 -0.00634069 0
      endloop
   endfacet
   facet normal 0.267528 0.96355 0
      outer loop
         vertex 0.0383012 -0.00611854 0.111475
         vertex 0.0389727 -0.00626635 0.111475
         vertex 0.0389727 -0.00626635 0
      endloop
   endfacet
   facet normal 0.370138 0.928977 0
      outer loop
         vertex 0.0376496 -0.005899 0.111475
         vertex 0.0383012 -0.00611854 0.111475
         vertex 0.0383012 -0.00611854 0
      endloop
   endfacet
   facet normal 0.468408 0.883512 0
      outer loop
         vertex 0.0370256 -0.0056103 0.111475
         vertex 0.0376496 -0.005899 0.111475
         vertex 0.0376496 -0.005899 0
      endloop
   endfacet
   facet normal 0.561187 0.827689 0
      outer loop
         vertex 0.0364365 -0.00525583 0.111475
         vertex 0.0370256 -0.0056103 0.111475
         vertex 0.0370256 -0.0056103 0
      endloop
   endfacet
   facet normal 0.647386 0.762162 0
      outer loop
         vertex 0.0358891 -0.00483973 0.111475
         vertex 0.0364365 -0.00525583 0.111475
         vertex 0.0364365 -0.00525583 0
      endloop
   endfacet
   facet normal 0.725995 0.687699 0
      outer loop
         vertex 0.0353899 -0.00436689 0.111475
         vertex 0.0358891 -0.00483973 0.111475
         vertex 0.0358891 -0.00483973 0
      endloop
   endfacet
   facet normal 0.796093 0.605174 0
      outer loop
         vertex 0.0349448 -0.00384286 0.111475
         vertex 0.0353899 -0.00436689 0.111475
         vertex 0.0353899 -0.00436689 0
      endloop
   endfacet
   facet normal 0.856857 0.515554 0
      outer loop
         vertex 0.034559 -0.00327377 0.111475
         vertex 0.0349448 -0.00384286 0.111475
         vertex 0.0349448 -0.00384286 0
      endloop
   endfacet
   facet normal 0.907575 0.419889 0
      outer loop
         vertex 0.0342369 -0.0026663 0.111475
         vertex 0.034559 -0.00327377 0.111475
         vertex 0.034559 -0.00327377 0
      endloop
   endfacet
   facet normal 0.947653 0.319302 0
      outer loop
         vertex 0.0339824 -0.00202756 0.111475
         vertex 0.0342369 -0.0026663 0.111475
         vertex 0.0342369 -0.0026663 0
      endloop
   endfacet
   facet normal 0.976621 0.21497 0
      outer loop
         vertex 0.0337985 -0.00136506 0.111475
         vertex 0.0339824 -0.00202756 0.111475
         vertex 0.0339824 -0.00202756 0
      endloop
   endfacet
   facet normal 0.994138 0.108119 0
      outer loop
         vertex 0.0336872 -0.000686556 0.111475
         vertex 0.0337985 -0.00136506 0.111475
         vertex 0.0337985 -0.00136506 0
      endloop
   endfacet
   facet normal 1 2.44929e-16 0
      outer loop
         vertex 0.03365 3.88825e-19 0.111475
         vertex 0.0336872 -0.000686556 0.111475
         vertex 0.0336872 -0.000686556 0
      endloop
   endfacet
   facet normal 0 0 1
      outer loop
         vertex 0.04113 0.00689298 0.111475
         vertex 0.0410273 0.00626635 0.111475
         vertex 0.0416988 0.00611854 0.111475
      endloop
   endfacet
   facet normal 0 0 1
      outer loop
         vertex 0.0403782 0.00697476 0.111475
         vertex 0.0403438 0.00634069 0.111475
         vertex 0.0410273 0.00626635 0.111475
      endloop
   endfacet
   facet normal 0 0 1
      outer loop
         vertex 0.0396218 0.00697476 0.111475
         vertex 0.03887 0.00689298 0.111475
         vertex 0.0389727 0.00626635 0.111475
      endloop
   endfacet
   facet normal 0 0 1
      outer loop
         vertex 0.03887 0.00689298 0.111475
         vertex 0.0381313 0.0067304 0.111475
         vertex 0.0383012 0.00611854 0.111475
      endloop
   endfacet
   facet normal 0 0 1
      outer loop
         vertex 0.0410273 0.00626635 0.111475
         vertex 0.04113 0.00689298 0.111475
         vertex 0.0403782 0.00697476 0.111475
      endloop
   endfacet
   facet normal 0 0 1
      outer loop
         vertex 0.0403782 0.00697476 0.111475
         vertex 0.0396218 0.00697476 0.111475
         vertex 0.0396562 0.00634069 0.111475
      endloop
   endfacet
   facet normal 0 0 1
      outer loop
         vertex 0.0383012 0.00611854 0.111475
         vertex 0.0389727 0.00626635 0.111475
         vertex 0.03887 0.00689298 0.111475
      endloop
   endfacet
   facet normal 0 0 1
      outer loop
         vertex 0.0381313 0.0067304 0.111475
         vertex 0.0374146 0.0064889 0.111475
         vertex 0.0376496 0.005899 0.111475
      endloop
   endfacet
   facet normal 0 0 1
      outer loop
         vertex 0.0336606 -0.00293293 0.111475
         vertex 0.0342369 -0.0026663 0.111475
         vertex 0.0339824 -0.00202756 0.111475
      endloop
   endfacet
   facet normal 0 0 1
      outer loop
         vertex 0.0336606 -0.00293293 0.111475
         vertex 0.0340149 -0.00360114 0.111475
         vertex 0.034559 -0.00327377 0.111475
      endloop
   endfacet
   facet normal 0 0 1
      outer loop
         vertex 0.0344393 -0.00422714 0.111475
         vertex 0.0349448 -0.00384286 0.111475
         vertex 0.034559 -0.00327377 0.111475
      endloop
   endfacet
   facet normal 0 0 1
      outer loop
         vertex 0.0344393 -0.00422714 0.111475
         vertex 0.0349289 -0.00480358 0.111475
         vertex 0.0353899 -0.00436689 0.111475
      endloop
   endfacet
   facet normal 0 0 1
      outer loop
         vertex 0.0367282 -0.00617133 0.111475
         vertex 0.0370256 -0.0056103 0.111475
         vertex 0.0364365 -0.00525583 0.111475
      endloop
   endfacet
   facet normal 0 0 1
      outer loop
         vertex 0.0367282 -0.00617133 0.111475
         vertex 0.0374146 -0.0064889 0.111475
         vertex 0.0376496 -0.005899 0.111475
      endloop
   endfacet
   facet normal 0 0 1
      outer loop
         vertex 0.0396562 0.00634069 0.111475
         vertex 0.0403438 0.00634069 0.111475
         vertex 0.0403782 0.00697476 0.111475
      endloop
   endfacet
   facet normal 0 0 1
      outer loop
         vertex 0.0376496 0.005899 0.111475
         vertex 0.0383012 0.00611854 0.111475
         vertex 0.0381313 0.0067304 0.111475
      endloop
   endfacet
   facet normal 0 0 1
      outer loop
         vertex 0.0374146 0.0064889 0.111475
         vertex 0.0367282 0.00617133 0.111475
         vertex 0.0370256 0.0056103 0.111475
      endloop
   endfacet
   facet normal 0 0 1
      outer loop
         vertex 0.0367282 0.00617133 0.111475
         vertex 0.0360801 0.00578141 0.111475
         vertex 0.0364365 0.00525583 0.111475
      endloop
   endfacet
   facet normal 0 0 1
      outer loop
         vertex 0.034559 -0.00327377 0.111475
         vertex 0.0342369 -0.0026663 0.111475
         vertex 0.0336606 -0.00293293 0.111475
      endloop
   endfacet
   facet normal 0 0 1
      outer loop
         vertex 0.0353899 -0.00436689 0.111475
         vertex 0.0349448 -0.00384286 0.111475
         vertex 0.0344393 -0.00422714 0.111475
      endloop
   endfacet
   facet normal 0 0 1
      outer loop
         vertex 0.0360801 -0.00578141 0.111475
         vertex 0.0364365 -0.00525583 0.111475
         vertex 0.0358891 -0.00483973 0.111475
      endloop
   endfacet
   facet normal 0 0 1
      outer loop
         vertex 0.0376496 -0.005899 0.111475
         vertex 0.0370256 -0.0056103 0.111475
         vertex 0.0367282 -0.00617133 0.111475
      endloop
   endfacet
   facet normal 0 0 1
      outer loop
         vertex 0.0381313 -0.0067304 0.111475
         vertex 0.0383012 -0.00611854 0.111475
         vertex 0.0376496 -0.005899 0.111475
      endloop
   endfacet
   facet normal 0 0 1
      outer loop
         vertex 0.03887 -0.00689298 0.111475
         vertex 0.0389727 -0.00626635 0.111475
         vertex 0.0383012 -0.00611854 0.111475
      endloop
   endfacet
   facet normal 0 0 1
      outer loop
         vertex 0.0396218 -0.00697476 0.111475
         vertex 0.0396562 -0.00634069 0.111475
         vertex 0.0389727 -0.00626635 0.111475
      endloop
   endfacet
   facet normal 0 0 1
      outer loop
         vertex 0.0403782 -0.00697476 0.111475
         vertex 0.0403438 -0.00634069 0.111475
         vertex 0.0396562 -0.00634069 0.111475
      endloop
   endfacet
   facet normal 0 0 1
      outer loop
         vertex 0.0463394 -0.00293293 0.111475
         vertex 0.0457631 -0.0026663 0.111475
         vertex 0.045441 -0.00327377 0.111475
      endloop
   endfacet
   facet normal 0 0 1
      outer loop
         vertex 0.0466194 -0.00223032 0.111475
         vertex 0.0460176 -0.00202756 0.111475
         vertex 0.0457631 -0.0026663 0.111475
      endloop
   endfacet
   facet normal 0 0 1
      outer loop
         vertex 0.0389727 0.00626635 0.111475
         vertex 0.0396562 0.00634069 0.111475
         vertex 0.0396218 0.00697476 0.111475
      endloop
   endfacet
   facet normal 0 0 1
      outer loop
         vertex 0.0364365 0.00525583 0.111475
         vertex 0.0370256 0.0056103 0.111475
         vertex 0.0367282 0.00617133 0.111475
      endloop
   endfacet
   facet normal 0 0 1
      outer loop
         vertex 0.0360801 0.00578141 0.111475
         vertex 0.035478 0.0053237 0.111475
         vertex 0.0358891 0.00483973 0.111475
      endloop
   endfacet
   facet normal 0 0 1
      outer loop
         vertex 0.035478 0.0053237 0.111475
         vertex 0.0349289 0.00480358 0.111475
         vertex 0.0353899 0.00436689 0.111475
      endloop
   endfacet
   facet normal 0 0 1
      outer loop
         vertex 0.034559 -0.00327377 0.111475
         vertex 0.0340149 -0.00360114 0.111475
         vertex 0.0344393 -0.00422714 0.111475
      endloop
   endfacet
   facet normal 0 0 1
      outer loop
         vertex 0.035478 -0.0053237 0.111475
         vertex 0.0358891 -0.00483973 0.111475
         vertex 0.0353899 -0.00436689 0.111475
      endloop
   endfacet
   facet normal 0 0 1
      outer loop
         vertex 0.0364365 -0.00525583 0.111475
         vertex 0.0360801 -0.00578141 0.111475
         vertex 0.0367282 -0.00617133 0.111475
      endloop
   endfacet
   facet normal 0 0 1
      outer loop
         vertex 0.0383012 -0.00611854 0.111475
         vertex 0.0381313 -0.0067304 0.111475
         vertex 0.03887 -0.00689298 0.111475
      endloop
   endfacet
   facet normal 0 0 1
      outer loop
         vertex 0.0396562 -0.00634069 0.111475
         vertex 0.0396218 -0.00697476 0.111475
         vertex 0.0403782 -0.00697476 0.111475
      endloop
   endfacet
   facet normal 0 0 1
      outer loop
         vertex 0.0403782 -0.00697476 0.111475
         vertex 0.04113 -0.00689298 0.111475
         vertex 0.0410273 -0.00626635 0.111475
      endloop
   endfacet
   facet normal 0 0 1
      outer loop
         vertex 0.04113 -0.00689298 0.111475
         vertex 0.0418687 -0.0067304 0.111475
         vertex 0.0416988 -0.00611854 0.111475
      endloop
   endfacet
   facet normal 0 0 1
      outer loop
         vertex 0.0418687 -0.0067304 0.111475
         vertex 0.0425854 -0.0064889 0.111475
         vertex 0.0423504 -0.005899 0.111475
      endloop
   endfacet
   facet normal 0 0 1
      outer loop
         vertex 0.0432718 -0.00617133 0.111475
         vertex 0.0429744 -0.0056103 0.111475
         vertex 0.0423504 -0.005899 0.111475
      endloop
   endfacet
   facet normal 0 0 1
      outer loop
         vertex 0.0432718 -0.00617133 0.111475
         vertex 0.0439199 -0.00578141 0.111475
         vertex 0.0435635 -0.00525583 0.111475
      endloop
   endfacet
   facet normal 0 0 1
      outer loop
         vertex 0.0450711 -0.00480358 0.111475
         vertex 0.0446101 -0.00436689 0.111475
         vertex 0.0441109 -0.00483973 0.111475
      endloop
   endfacet
   facet normal 0 0 1
      outer loop
         vertex 0.0455607 -0.00422714 0.111475
         vertex 0.0450552 -0.00384286 0.111475
         vertex 0.0446101 -0.00436689 0.111475
      endloop
   endfacet
   facet normal 0 0 1
      outer loop
         vertex 0.0459851 -0.00360114 0.111475
         vertex 0.045441 -0.00327377 0.111475
         vertex 0.0450552 -0.00384286 0.111475
      endloop
   endfacet
   facet normal 0 0 1
      outer loop
         vertex 0.0457631 -0.0026663 0.111475
         vertex 0.0463394 -0.00293293 0.111475
         vertex 0.0466194 -0.00223032 0.111475
      endloop
   endfacet
   facet normal 0 0 1
      outer loop
         vertex 0.0425854 0.0064889 0.111475
         vertex 0.0423504 0.005899 0.111475
         vertex 0.0429744 0.0056103 0.111475
      endloop
   endfacet
   facet normal 0 0 1
      outer loop
         vertex 0.0418687 0.0067304 0.111475
         vertex 0.0416988 0.00611854 0.111475
         vertex 0.0423504 0.005899 0.111475
      endloop
   endfacet
   facet normal 0 0 1
      outer loop
         vertex 0.0370256 0.0056103 0.111475
         vertex 0.0376496 0.005899 0.111475
         vertex 0.0374146 0.0064889 0.111475
      endloop
   endfacet
   facet normal 0 0 1
      outer loop
         vertex 0.0353899 0.00436689 0.111475
         vertex 0.0358891 0.00483973 0.111475
         vertex 0.035478 0.0053237 0.111475
      endloop
   endfacet
   facet normal 0 0 1
      outer loop
         vertex 0.033015 4.27708e-19 0.111475
         vertex 0.03365 3.88825e-19 0.111475
         vertex 0.0336872 0.000686556 0.111475
      endloop
   endfacet
   facet normal 0 0 1
      outer loop
         vertex 0.033015 4.27708e-19 0.111475
         vertex 0.0330559 -0.000755211 0.111475
         vertex 0.0336872 -0.000686556 0.111475
      endloop
   endfacet
   facet normal 0 0 1
      outer loop
         vertex 0.0331783 -0.00150157 0.111475
         vertex 0.0337985 -0.00136506 0.111475
         vertex 0.0336872 -0.000686556 0.111475
      endloop
   endfacet
   facet normal 0 0 1
      outer loop
         vertex 0.0331783 -0.00150157 0.111475
         vertex 0.0333806 -0.00223032 0.111475
         vertex 0.0339824 -0.00202756 0.111475
      endloop
   endfacet
   facet normal 0 0 1
      outer loop
         vertex 0.0353899 -0.00436689 0.111475
         vertex 0.0349289 -0.00480358 0.111475
         vertex 0.035478 -0.0053237 0.111475
      endloop
   endfacet
   facet normal 0 0 1
      outer loop
         vertex 0.0376496 -0.005899 0.111475
         vertex 0.0374146 -0.0064889 0.111475
         vertex 0.0381313 -0.0067304 0.111475
      endloop
   endfacet
   facet normal 0 0 1
      outer loop
         vertex 0.0410273 -0.00626635 0.111475
         vertex 0.0403438 -0.00634069 0.111475
         vertex 0.0403782 -0.00697476 0.111475
      endloop
   endfacet
   facet normal 0 0 1
      outer loop
         vertex 0.0423504 -0.005899 0.111475
         vertex 0.0416988 -0.00611854 0.111475
         vertex 0.0418687 -0.0067304 0.111475
      endloop
   endfacet
   facet normal 0 0 1
      outer loop
         vertex 0.0435635 -0.00525583 0.111475
         vertex 0.0429744 -0.0056103 0.111475
         vertex 0.0432718 -0.00617133 0.111475
      endloop
   endfacet
   facet normal 0 0 1
      outer loop
         vertex 0.0439199 -0.00578141 0.111475
         vertex 0.044522 -0.0053237 0.111475
         vertex 0.0441109 -0.00483973 0.111475
      endloop
   endfacet
   facet normal 0 0 1
      outer loop
         vertex 0.0446101 -0.00436689 0.111475
         vertex 0.0450711 -0.00480358 0.111475
         vertex 0.0455607 -0.00422714 0.111475
      endloop
   endfacet
   facet normal 0 0 1
      outer loop
         vertex 0.045441 -0.00327377 0.111475
         vertex 0.0459851 -0.00360114 0.111475
         vertex 0.0463394 -0.00293293 0.111475
      endloop
   endfacet
   facet normal 0 0 1
      outer loop
         vertex 0.0463394 0.00293293 0.111475
         vertex 0.0457631 0.0026663 0.111475
         vertex 0.0460176 0.00202756 0.111475
      endloop
   endfacet
   facet normal 0 0 1
      outer loop
         vertex 0.0463394 0.00293293 0.111475
         vertex 0.0459851 0.00360114 0.111475
         vertex 0.045441 0.00327377 0.111475
      endloop
   endfacet
   facet normal 0 0 1
      outer loop
         vertex 0.0459851 0.00360114 0.111475
         vertex 0.0455607 0.00422714 0.111475
         vertex 0.0450552 0.00384286 0.111475
      endloop
   endfacet
   facet normal 0 0 1
      outer loop
         vertex 0.0450711 0.00480358 0.111475
         vertex 0.0446101 0.00436689 0.111475
         vertex 0.0450552 0.00384286 0.111475
      endloop
   endfacet
   facet normal 0 0 1
      outer loop
         vertex 0.0439199 0.00578141 0.111475
         vertex 0.0435635 0.00525583 0.111475
         vertex 0.0441109 0.00483973 0.111475
      endloop
   endfacet
   facet normal 0 0 1
      outer loop
         vertex 0.0439199 0.00578141 0.111475
         vertex 0.0432718 0.00617133 0.111475
         vertex 0.0429744 0.0056103 0.111475
      endloop
   endfacet
   facet normal 0 0 1
      outer loop
         vertex 0.0423504 0.005899 0.111475
         vertex 0.0425854 0.0064889 0.111475
         vertex 0.0418687 0.0067304 0.111475
      endloop
   endfacet
   facet normal 0 0 1
      outer loop
         vertex 0.0358891 0.00483973 0.111475
         vertex 0.0364365 0.00525583 0.111475
         vertex 0.0360801 0.00578141 0.111475
      endloop
   endfacet
   facet normal 0 0 1
      outer loop
         vertex 0.0349289 0.00480358 0.111475
         vertex 0.0344393 0.00422714 0.111475
         vertex 0.0349448 0.00384286 0.111475
      endloop
   endfacet
   facet normal 0 0 1
      outer loop
         vertex 0.0340149 0.00360114 0.111475
         vertex 0.034559 0.00327377 0.111475
         vertex 0.0349448 0.00384286 0.111475
      endloop
   endfacet
   facet normal 0 0 1
      outer loop
         vertex 0.0331783 0.00150157 0.111475
         vertex 0.0337985 0.00136506 0.111475
         vertex 0.0339824 0.00202756 0.111475
      endloop
   endfacet
   facet normal 0 0 1
      outer loop
         vertex 0.0331783 0.00150157 0.111475
         vertex 0.0330559 0.000755211 0.111475
         vertex 0.0336872 0.000686556 0.111475
      endloop
   endfacet
   facet normal 0 0 1
      outer loop
         vertex 0.0336872 -0.000686556 0.111475
         vertex 0.03365 3.88825e-19 0.111475
         vertex 0.033015 4.27708e-19 0.111475
      endloop
   endfacet
   facet normal 0 0 1
      outer loop
         vertex 0.0339824 -0.00202756 0.111475
         vertex 0.0337985 -0.00136506 0.111475
         vertex 0.0331783 -0.00150157 0.111475
      endloop
   endfacet
   facet normal 0 0 1
      outer loop
         vertex 0.0358891 -0.00483973 0.111475
         vertex 0.035478 -0.0053237 0.111475
         vertex 0.0360801 -0.00578141 0.111475
      endloop
   endfacet
   facet normal 0 0 1
      outer loop
         vertex 0.0416988 -0.00611854 0.111475
         vertex 0.0410273 -0.00626635 0.111475
         vertex 0.04113 -0.00689298 0.111475
      endloop
   endfacet
   facet normal 0 0 1
      outer loop
         vertex 0.0441109 -0.00483973 0.111475
         vertex 0.0435635 -0.00525583 0.111475
         vertex 0.0439199 -0.00578141 0.111475
      endloop
   endfacet
   facet normal 0 0 1
      outer loop
         vertex 0.0450552 -0.00384286 0.111475
         vertex 0.0455607 -0.00422714 0.111475
         vertex 0.0459851 -0.00360114 0.111475
      endloop
   endfacet
   facet normal 0 0 1
      outer loop
         vertex 0.045441 0.00327377 0.111475
         vertex 0.0457631 0.0026663 0.111475
         vertex 0.0463394 0.00293293 0.111475
      endloop
   endfacet
   facet normal 0 0 1
      outer loop
         vertex 0.0450552 0.00384286 0.111475
         vertex 0.0455607 0.00422714 0.111475
         vertex 0.0450711 0.00480358 0.111475
      endloop
   endfacet
   facet normal 0 0 1
      outer loop
         vertex 0.044522 0.0053237 0.111475
         vertex 0.0441109 0.00483973 0.111475
         vertex 0.0446101 0.00436689 0.111475
      endloop
   endfacet
   facet normal 0 0 1
      outer loop
         vertex 0.0429744 0.0056103 0.111475
         vertex 0.0435635 0.00525583 0.111475
         vertex 0.0439199 0.00578141 0.111475
      endloop
   endfacet
   facet normal 0 0 1
      outer loop
         vertex 0.0416988 0.00611854 0.111475
         vertex 0.0418687 0.0067304 0.111475
         vertex 0.04113 0.00689298 0.111475
      endloop
   endfacet
   facet normal 0 0 1
      outer loop
         vertex 0.0349448 0.00384286 0.111475
         vertex 0.0344393 0.00422714 0.111475
         vertex 0.0340149 0.00360114 0.111475
      endloop
   endfacet
   facet normal 0 0 1
      outer loop
         vertex 0.0336606 0.00293293 0.111475
         vertex 0.0342369 0.0026663 0.111475
         vertex 0.034559 0.00327377 0.111475
      endloop
   endfacet
   facet normal 0 0 1
      outer loop
         vertex 0.0336606 0.00293293 0.111475
         vertex 0.0333806 0.00223032 0.111475
         vertex 0.0339824 0.00202756 0.111475
      endloop
   endfacet
   facet normal 0 0 1
      outer loop
         vertex 0.0336872 0.000686556 0.111475
         vertex 0.0337985 0.00136506 0.111475
         vertex 0.0331783 0.00150157 0.111475
      endloop
   endfacet
   facet normal 0 0 1
      outer loop
         vertex 0.0336872 -0.000686556 0.111475
         vertex 0.0330559 -0.000755211 0.111475
         vertex 0.0331783 -0.00150157 0.111475
      endloop
   endfacet
   facet normal 0 0 1
      outer loop
         vertex 0.0389727 -0.00626635 0.111475
         vertex 0.03887 -0.00689298 0.111475
         vertex 0.0396218 -0.00697476 0.111475
      endloop
   endfacet
   facet normal 0 0 1
      outer loop
         vertex 0.0441109 -0.00483973 0.111475
         vertex 0.044522 -0.0053237 0.111475
         vertex 0.0450711 -0.00480358 0.111475
      endloop
   endfacet
   facet normal 0 0 1
      outer loop
         vertex 0.0468217 -0.00150157 0.111475
         vertex 0.0462015 -0.00136506 0.111475
         vertex 0.0460176 -0.00202756 0.111475
      endloop
   endfacet
   facet normal 0 0 1
      outer loop
         vertex 0.0468217 -0.00150157 0.111475
         vertex 0.0469441 -0.000755211 0.111475
         vertex 0.0463128 -0.000686556 0.111475
      endloop
   endfacet
   facet normal 0 0 1
      outer loop
         vertex 0.0450552 0.00384286 0.111475
         vertex 0.045441 0.00327377 0.111475
         vertex 0.0459851 0.00360114 0.111475
      endloop
   endfacet
   facet normal 0 0 1
      outer loop
         vertex 0.0441109 0.00483973 0.111475
         vertex 0.044522 0.0053237 0.111475
         vertex 0.0439199 0.00578141 0.111475
      endloop
   endfacet
   facet normal 0 0 1
      outer loop
         vertex 0.0349448 0.00384286 0.111475
         vertex 0.0353899 0.00436689 0.111475
         vertex 0.0349289 0.00480358 0.111475
      endloop
   endfacet
   facet normal 0 0 1
      outer loop
         vertex 0.0339824 0.00202756 0.111475
         vertex 0.0342369 0.0026663 0.111475
         vertex 0.0336606 0.00293293 0.111475
      endloop
   endfacet
   facet normal 0 0 1
      outer loop
         vertex 0.0336872 0.000686556 0.111475
         vertex 0.0330559 0.000755211 0.111475
         vertex 0.033015 4.27708e-19 0.111475
      endloop
   endfacet
   facet normal 0 0 1
      outer loop
         vertex 0.0423504 -0.005899 0.111475
         vertex 0.0425854 -0.0064889 0.111475
         vertex 0.0432718 -0.00617133 0.111475
      endloop
   endfacet
   facet normal 0 0 1
      outer loop
         vertex 0.0463128 -0.000686556 0.111475
         vertex 0.0462015 -0.00136506 0.111475
         vertex 0.0468217 -0.00150157 0.111475
      endloop
   endfacet
   facet normal 0 0 1
      outer loop
         vertex 0.046985 2.99396e-18 0.111475
         vertex 0.04635 1.16648e-18 0.111475
         vertex 0.0463128 -0.000686556 0.111475
      endloop
   endfacet
   facet normal 0 0 1
      outer loop
         vertex 0.0468217 0.00150157 0.111475
         vertex 0.0462015 0.00136506 0.111475
         vertex 0.0463128 0.000686556 0.111475
      endloop
   endfacet
   facet normal 0 0 1
      outer loop
         vertex 0.0468217 0.00150157 0.111475
         vertex 0.0466194 0.00223032 0.111475
         vertex 0.0460176 0.00202756 0.111475
      endloop
   endfacet
   facet normal 0 0 1
      outer loop
         vertex 0.0446101 0.00436689 0.111475
         vertex 0.0450711 0.00480358 0.111475
         vertex 0.044522 0.0053237 0.111475
      endloop
   endfacet
   facet normal 0 0 1
      outer loop
         vertex 0.034559 0.00327377 0.111475
         vertex 0.0340149 0.00360114 0.111475
         vertex 0.0336606 0.00293293 0.111475
      endloop
   endfacet
   facet normal 0 0 1
      outer loop
         vertex 0.0339824 -0.00202756 0.111475
         vertex 0.0333806 -0.00223032 0.111475
         vertex 0.0336606 -0.00293293 0.111475
      endloop
   endfacet
   facet normal 0 0 1
      outer loop
         vertex 0.0463128 -0.000686556 0.111475
         vertex 0.0469441 -0.000755211 0.111475
         vertex 0.046985 2.99396e-18 0.111475
      endloop
   endfacet
   facet normal 0 0 1
      outer loop
         vertex 0.0469441 0.000755211 0.111475
         vertex 0.0463128 0.000686556 0.111475
         vertex 0.04635 1.16648e-18 0.111475
      endloop
   endfacet
   facet normal 0 0 1
      outer loop
         vertex 0.0460176 0.00202756 0.111475
         vertex 0.0462015 0.00136506 0.111475
         vertex 0.0468217 0.00150157 0.111475
      endloop
   endfacet
   facet normal 0 0 1
      outer loop
         vertex 0.0429744 0.0056103 0.111475
         vertex 0.0432718 0.00617133 0.111475
         vertex 0.0425854 0.0064889 0.111475
      endloop
   endfacet
   facet normal 0 0 1
      outer loop
         vertex 0.0460176 -0.00202756 0.111475
         vertex 0.0466194 -0.00223032 0.111475
         vertex 0.0468217 -0.00150157 0.111475
      endloop
   endfacet
   facet normal 0 0 1
      outer loop
         vertex 0.0463128 0.000686556 0.111475
         vertex 0.0469441 0.000755211 0.111475
         vertex 0.0468217 0.00150157 0.111475
      endloop
   endfacet
   facet normal 0 0 1
      outer loop
         vertex 0.0339824 0.00202756 0.111475
         vertex 0.0333806 0.00223032 0.111475
         vertex 0.0331783 0.00150157 0.111475
      endloop
   endfacet
   facet normal 0 0 1
      outer loop
         vertex 0.0460176 0.00202756 0.111475
         vertex 0.0466194 0.00223032 0.111475
         vertex 0.0463394 0.00293293 0.111475
      endloop
   endfacet
   facet normal 0 0 1
      outer loop
         vertex 0.04635 1.16648e-18 0.111475
         vertex 0.046985 2.99396e-18 0.111475
         vertex 0.0469441 0.000755211 0.111475
      endloop
   endfacet
   facet normal -1 0 0
      outer loop
         vertex 0.033015 4.27708e-19 0
         vertex 0.033015 4.27708e-19 0.111475
         vertex 0.0330559 0.000755211 0.111475
      endloop
   endfacet
   facet normal -0.994138 0.108119 0
      outer loop
         vertex 0.0330559 0.000755211 0
         vertex 0.0330559 0.000755211 0.111475
         vertex 0.0331783 0.00150157 0.111475
      endloop
   endfacet
   facet normal -0.976621 0.21497 0
      outer loop
         vertex 0.0331783 0.00150157 0
         vertex 0.0331783 0.00150157 0.111475
         vertex 0.0333806 0.00223032 0.111475
      endloop
   endfacet
   facet normal -0.947653 0.319302 0
      outer loop
         vertex 0.0333806 0.00223032 0
         vertex 0.0333806 0.00223032 0.111475
         vertex 0.0336606 0.00293293 0.111475
      endloop
   endfacet
   facet normal -0.907575 0.419889 0
      outer loop
         vertex 0.0336606 0.00293293 0
         vertex 0.0336606 0.00293293 0.111475
         vertex 0.0340149 0.00360114 0.111475
      endloop
   endfacet
   facet normal -0.856857 0.515554 0
      outer loop
         vertex 0.0340149 0.00360114 0
         vertex 0.0340149 0.00360114 0.111475
         vertex 0.0344393 0.00422714 0.111475
      endloop
   endfacet
   facet normal -0.796093 0.605174 0
      outer loop
         vertex 0.0344393 0.00422714 0
         vertex 0.0344393 0.00422714 0.111475
         vertex 0.0349289 0.00480358 0.111475
      endloop
   endfacet
   facet normal -0.725995 0.687699 0
      outer loop
         vertex 0.0349289 0.00480358 0
         vertex 0.0349289 0.00480358 0.111475
         vertex 0.035478 0.0053237 0.111475
      endloop
   endfacet
   facet normal -0.647386 0.762162 0
      outer loop
         vertex 0.035478 0.0053237 0
         vertex 0.035478 0.0053237 0.111475
         vertex 0.0360801 0.00578141 0.111475
      endloop
   endfacet
   facet normal -0.561187 0.827689 0
      outer loop
         vertex 0.0360801 0.00578141 0
         vertex 0.0360801 0.00578141 0.111475
         vertex 0.0367282 0.00617133 0.111475
      endloop
   endfacet
   facet normal -0.468408 0.883512 0
      outer loop
         vertex 0.0367282 0.00617133 0
         vertex 0.0367282 0.00617133 0.111475
         vertex 0.0374146 0.0064889 0.111475
      endloop
   endfacet
   facet normal -0.370138 0.928977 0
      outer loop
         vertex 0.0374146 0.0064889 0
         vertex 0.0374146 0.0064889 0.111475
         vertex 0.0381313 0.0067304 0.111475
      endloop
   endfacet
   facet normal -0.267528 0.96355 0
      outer loop
         vertex 0.0381313 0.0067304 0
         vertex 0.0381313 0.0067304 0.111475
         vertex 0.03887 0.00689298 0.111475
      endloop
   endfacet
   facet normal -0.161782 0.986827 0
      outer loop
         vertex 0.03887 0.00689298 0
         vertex 0.03887 0.00689298 0.111475
         vertex 0.0396218 0.00697476 0.111475
      endloop
   endfacet
   facet normal -0.0541389 0.998533 0
      outer loop
         vertex 0.0396218 0.00697476 0
         vertex 0.0396218 0.00697476 0.111475
         vertex 0.0403782 0.00697476 0.111475
      endloop
   endfacet
   facet normal 0.0541389 0.998533 0
      outer loop
         vertex 0.0403782 0.00697476 0
         vertex 0.0403782 0.00697476 0.111475
         vertex 0.04113 0.00689298 0.111475
      endloop
   endfacet
   facet normal 0.161782 0.986827 0
      outer loop
         vertex 0.04113 0.00689298 0
         vertex 0.04113 0.00689298 0.111475
         vertex 0.0418687 0.0067304 0.111475
      endloop
   endfacet
   facet normal 0.267528 0.96355 0
      outer loop
         vertex 0.0418687 0.0067304 0
         vertex 0.0418687 0.0067304 0.111475
         vertex 0.0425854 0.0064889 0.111475
      endloop
   endfacet
   facet normal 0.370138 0.928977 0
      outer loop
         vertex 0.0425854 0.0064889 0
         vertex 0.0425854 0.0064889 0.111475
         vertex 0.0432718 0.00617133 0.111475
      endloop
   endfacet
   facet normal 0.468408 0.883512 0
      outer loop
         vertex 0.0432718 0.00617133 0
         vertex 0.0432718 0.00617133 0.111475
         vertex 0.0439199 0.00578141 0.111475
      endloop
   endfacet
   facet normal 0.561187 0.827689 0
      outer loop
         vertex 0.0439199 0.00578141 0
         vertex 0.0439199 0.00578141 0.111475
         vertex 0.044522 0.0053237 0.111475
      endloop
   endfacet
   facet normal 0.647386 0.762162 0
      outer loop
         vertex 0.044522 0.0053237 0
         vertex 0.044522 0.0053237 0.111475
         vertex 0.0450711 0.00480358 0.111475
      endloop
   endfacet
   facet normal 0.725995 0.687699 0
      outer loop
         vertex 0.0450711 0.00480358 0
         vertex 0.0450711 0.00480358 0.111475
         vertex 0.0455607 0.00422714 0.111475
      endloop
   endfacet
   facet normal 0.796093 0.605174 0
      outer loop
         vertex 0.0455607 0.00422714 0
         vertex 0.0455607 0.00422714 0.111475
         vertex 0.0459851 0.00360114 0.111475
      endloop
   endfacet
   facet normal 0.856857 0.515554 0
      outer loop
         vertex 0.0459851 0.00360114 0
         vertex 0.0459851 0.00360114 0.111475
         vertex 0.0463394 0.00293293 0.111475
      endloop
   endfacet
   facet normal 0.907575 0.419889 0
      outer loop
         vertex 0.0463394 0.00293293 0
         vertex 0.0463394 0.00293293 0.111475
         vertex 0.0466194 0.00223032 0.111475
      endloop
   endfacet
   facet normal 0.947653 0.319302 0
      outer loop
         vertex 0.0466194 0.00223032 0
         vertex 0.0466194 0.00223032 0.111475
         vertex 0.0468217 0.00150157 0.111475
      endloop
   endfacet
   facet normal 0.976621 0.21497 0
      outer loop
         vertex 0.0468217 0.00150157 0
         vertex 0.0468217 0.00150157 0.111475
         vertex 0.0469441 0.000755211 0.111475
      endloop
   endfacet
   facet normal 0.994138 0.108119 0
      outer loop
         vertex 0.0469441 0.000755211 0
         vertex 0.0469441 0.000755211 0.111475
         vertex 0.046985 2.99396e-18 0.111475
      endloop
   endfacet
   facet normal 1 1.22465e-16 0
      outer loop
         vertex 0.046985 1.28312e-18 0
         vertex 0.046985 2.99396e-18 0.111475
         vertex 0.0469441 -0.000755211 0.111475
      endloop
   endfacet
   facet normal 0.994138 -0.108119 0
      outer loop
         vertex 0.0469441 -0.000755211 0
         vertex 0.0469441 -0.000755211 0.111475
         vertex 0.0468217 -0.00150157 0.111475
      endloop
   endfacet
   facet normal 0.976621 -0.21497 0
      outer loop
         vertex 0.0468217 -0.00150157 0
         vertex 0.0468217 -0.00150157 0.111475
         vertex 0.0466194 -0.00223032 0.111475
      endloop
   endfacet
   facet normal 0.947653 -0.319302 0
      outer loop
         vertex 0.0466194 -0.00223032 0
         vertex 0.0466194 -0.00223032 0.111475
         vertex 0.0463394 -0.00293293 0.111475
      endloop
   endfacet
   facet normal 0.907575 -0.419889 0
      outer loop
         vertex 0.0463394 -0.00293293 0
         vertex 0.0463394 -0.00293293 0.111475
         vertex 0.0459851 -0.00360114 0.111475
      endloop
   endfacet
   facet normal 0.856857 -0.515554 0
      outer loop
         vertex 0.0459851 -0.00360114 0
         vertex 0.0459851 -0.00360114 0.111475
         vertex 0.0455607 -0.00422714 0.111475
      endloop
   endfacet
   facet normal 0.796093 -0.605174 0
      outer loop
         vertex 0.0455607 -0.00422714 0
         vertex 0.0455607 -0.00422714 0.111475
         vertex 0.0450711 -0.00480358 0.111475
      endloop
   endfacet
   facet normal 0.725995 -0.687699 0
      outer loop
         vertex 0.0450711 -0.00480358 0
         vertex 0.0450711 -0.00480358 0.111475
         vertex 0.044522 -0.0053237 0.111475
      endloop
   endfacet
   facet normal 0.647386 -0.762162 0
      outer loop
         vertex 0.044522 -0.0053237 0
         vertex 0.044522 -0.0053237 0.111475
         vertex 0.0439199 -0.00578141 0.111475
      endloop
   endfacet
   facet normal 0.561187 -0.827689 0
      outer loop
         vertex 0.0439199 -0.00578141 0
         vertex 0.0439199 -0.00578141 0.111475
         vertex 0.0432718 -0.00617133 0.111475
      endloop
   endfacet
   facet normal 0.468408 -0.883512 0
      outer loop
         vertex 0.0432718 -0.00617133 0
         vertex 0.0432718 -0.00617133 0.111475
         vertex 0.0425854 -0.0064889 0.111475
      endloop
   endfacet
   facet normal 0.370138 -0.928977 0
      outer loop
         vertex 0.0425854 -0.0064889 0
         vertex 0.0425854 -0.0064889 0.111475
         vertex 0.0418687 -0.0067304 0.111475
      endloop
   endfacet
   facet normal 0.267528 -0.96355 0
      outer loop
         vertex 0.0418687 -0.0067304 0
         vertex 0.0418687 -0.0067304 0.111475
         vertex 0.04113 -0.00689298 0.111475
      endloop
   endfacet
   facet normal 0.161782 -0.986827 0
      outer loop
         vertex 0.04113 -0.00689298 0
         vertex 0.04113 -0.00689298 0.111475
         vertex 0.0403782 -0.00697476 0.111475
      endloop
   endfacet
   facet normal 0.0541389 -0.998533 0
      outer loop
         vertex 0.0403782 -0.00697476 0
         vertex 0.0403782 -0.00697476 0.111475
         vertex 0.0396218 -0.00697476 0.111475
      endloop
   endfacet
   facet normal -0.0541389 -0.998533 0
      outer loop
         vertex 0.0396218 -0.00697476 0
         vertex 0.0396218 -0.00697476 0.111475
         vertex 0.03887 -0.00689298 0.111475
      endloop
   endfacet
   facet normal -0.161782 -0.986827 0
      outer loop
         vertex 0.03887 -0.00689298 0
         vertex 0.03887 -0.00689298 0.111475
         vertex 0.0381313 -0.0067304 0.111475
      endloop
   endfacet
   facet normal -0.267528 -0.96355 0
      outer loop
         vertex 0.0381313 -0.0067304 0
         vertex 0.0381313 -0.0067304 0.111475
         vertex 0.0374146 -0.0064889 0.111475
      endloop
   endfacet
   facet normal -0.370138 -0.928977 0
      outer loop
         vertex 0.0374146 -0.0064889 0
         vertex 0.0374146 -0.0064889 0.111475
         vertex 0.0367282 -0.00617133 0.111475
      endloop
   endfacet
   facet normal -0.468408 -0.883512 0
      outer loop
         vertex 0.0367282 -0.00617133 0
         vertex 0.0367282 -0.00617133 0.111475
         vertex 0.0360801 -0.00578141 0.111475
      endloop
   endfacet
   facet normal -0.561187 -0.827689 0
      outer loop
         vertex 0.0360801 -0.00578141 0
         vertex 0.0360801 -0.00578141 0.111475
         vertex 0.035478 -0.0053237 0.111475
      endloop
   endfacet
   facet normal -0.647386 -0.762162 0
      outer loop
         vertex 0.035478 -0.0053237 0
         vertex 0.035478 -0.0053237 0.111475
         vertex 0.0349289 -0.00480358 0.111475
      endloop
   endfacet
   facet normal -0.725995 -0.687699 0
      outer loop
         vertex 0.0349289 -0.00480358 0
         vertex 0.0349289 -0.00480358 0.111475
         vertex 0.0344393 -0.00422714 0.111475
      endloop
   endfacet
   facet normal -0.796093 -0.605174 0
      outer loop
         vertex 0.0344393 -0.00422714 0
         vertex 0.0344393 -0.00422714 0.111475
         vertex 0.0340149 -0.00360114 0.111475
      endloop
   endfacet
   facet normal -0.856857 -0.515554 0
      outer loop
         vertex 0.0340149 -0.00360114 0
         vertex 0.0340149 -0.00360114 0.111475
         vertex 0.0336606 -0.00293293 0.111475
      endloop
   endfacet
   facet normal -0.907575 -0.419889 0
      outer loop
         vertex 0.0336606 -0.00293293 0
         vertex 0.0336606 -0.00293293 0.111475
         vertex 0.0333806 -0.00223032 0.111475
      endloop
   endfacet
   facet normal -0.947653 -0.319302 0
      outer loop
         vertex 0.0333806 -0.00223032 0
         vertex 0.0333806 -0.00223032 0.111475
         vertex 0.0331783 -0.00150157 0.111475
      endloop
   endfacet
   facet normal -0.976621 -0.21497 0
      outer loop
         vertex 0.0331783 -0.00150157 0
         vertex 0.0331783 -0.00150157 0.111475
         vertex 0.0330559 -0.000755211 0.111475
      endloop
   endfacet
   facet normal -0.994138 -0.108119 0
      outer loop
         vertex 0.0330559 -0.000755211 0
         vertex 0.0330559 -0.000755211 0.111475
         vertex 0.033015 4.27708e-19 0.111475
      endloop
   endfacet
   facet normal -1 0 0
      outer loop
         vertex 0.033015 4.27708e-19 0.111475
         vertex 0.033015 4.27708e-19 0
         vertex 0.0330559 -0.000755211 0
      endloop
   endfacet
   facet normal -0.994138 -0.108119 0
      outer loop
         vertex 0.0330559 -0.000755211 0.111475
         vertex 0.0330559 -0.000755211 0
         vertex 0.0331783 -0.00150157 0
      endloop
   endfacet
   facet normal -0.976621 -0.21497 0
      outer loop
         vertex 0.0331783 -0.00150157 0.111475
         vertex 0.0331783 -0.00150157 0
         vertex 0.0333806 -0.00223032 0
      endloop
   endfacet
   facet normal -0.947653 -0.319302 0
      outer loop
         vertex 0.0333806 -0.00223032 0.111475
         vertex 0.0333806 -0.00223032 0
         vertex 0.0336606 -0.00293293 0
      endloop
   endfacet
   facet normal -0.907575 -0.419889 0
      outer loop
         vertex 0.0336606 -0.00293293 0.111475
         vertex 0.0336606 -0.00293293 0
         vertex 0.0340149 -0.00360114 0
      endloop
   endfacet
   facet normal -0.856857 -0.515554 0
      outer loop
         vertex 0.0340149 -0.00360114 0.111475
         vertex 0.0340149 -0.00360114 0
         vertex 0.0344393 -0.00422714 0
      endloop
   endfacet
   facet normal -0.796093 -0.605174 0
      outer loop
         vertex 0.0344393 -0.00422714 0.111475
         vertex 0.0344393 -0.00422714 0
         vertex 0.0349289 -0.00480358 0
      endloop
   endfacet
   facet normal -0.725995 -0.687699 0
      outer loop
         vertex 0.0349289 -0.00480358 0.111475
         vertex 0.0349289 -0.00480358 0
         vertex 0.035478 -0.0053237 0
      endloop
   endfacet
   facet normal -0.647386 -0.762162 0
      outer loop
         vertex 0.035478 -0.0053237 0.111475
         vertex 0.035478 -0.0053237 0
         vertex 0.0360801 -0.00578141 0
      endloop
   endfacet
   facet normal -0.561187 -0.827689 0
      outer loop
         vertex 0.0360801 -0.00578141 0.111475
         vertex 0.0360801 -0.00578141 0
         vertex 0.0367282 -0.00617133 0
      endloop
   endfacet
   facet normal -0.468408 -0.883512 0
      outer loop
         vertex 0.0367282 -0.00617133 0.111475
         vertex 0.0367282 -0.00617133 0
         vertex 0.0374146 -0.0064889 0
      endloop
   endfacet
   facet normal -0.370138 -0.928977 0
      outer loop
         vertex 0.0374146 -0.0064889 0.111475
         vertex 0.0374146 -0.0064889 0
         vertex 0.0381313 -0.0067304 0
      endloop
   endfacet
   facet normal -0.267528 -0.96355 0
      outer loop
         vertex 0.0381313 -0.0067304 0.111475
         vertex 0.0381313 -0.0067304 0
         vertex 0.03887 -0.00689298 0
      endloop
   endfacet
   facet normal -0.161782 -0.986827 0
      outer loop
         vertex 0.03887 -0.00689298 0.111475
         vertex 0.03887 -0.00689298 0
         vertex 0.0396218 -0.00697476 0
      endloop
   endfacet
   facet normal -0.0541389 -0.998533 0
      outer loop
         vertex 0.0396218 -0.00697476 0.111475
         vertex 0.0396218 -0.00697476 0
         vertex 0.0403782 -0.00697476 0
      endloop
   endfacet
   facet normal 0.0541389 -0.998533 0
      outer loop
         vertex 0.0403782 -0.00697476 0.111475
         vertex 0.0403782 -0.00697476 0
         vertex 0.04113 -0.00689298 0
      endloop
   endfacet
   facet normal 0.161782 -0.986827 0
      outer loop
         vertex 0.04113 -0.00689298 0.111475
         vertex 0.04113 -0.00689298 0
         vertex 0.0418687 -0.0067304 0
      endloop
   endfacet
   facet normal 0.267528 -0.96355 0
      outer loop
         vertex 0.0418687 -0.0067304 0.111475
         vertex 0.0418687 -0.0067304 0
         vertex 0.0425854 -0.0064889 0
      endloop
   endfacet
   facet normal 0.370138 -0.928977 0
      outer loop
         vertex 0.0425854 -0.0064889 0.111475
         vertex 0.0425854 -0.0064889 0
         vertex 0.0432718 -0.00617133 0
      endloop
   endfacet
   facet normal 0.468408 -0.883512 0
      outer loop
         vertex 0.0432718 -0.00617133 0.111475
         vertex 0.0432718 -0.00617133 0
         vertex 0.0439199 -0.00578141 0
      endloop
   endfacet
   facet normal 0.561187 -0.827689 0
      outer loop
         vertex 0.0439199 -0.00578141 0.111475
         vertex 0.0439199 -0.00578141 0
         vertex 0.044522 -0.0053237 0
      endloop
   endfacet
   facet normal 0.647386 -0.762162 0
      outer loop
         vertex 0.044522 -0.0053237 0.111475
         vertex 0.044522 -0.0053237 0
         vertex 0.0450711 -0.00480358 0
      endloop
   endfacet
   facet normal 0.725995 -0.687699 0
      outer loop
         vertex 0.0450711 -0.00480358 0.111475
         vertex 0.0450711 -0.00480358 0
         vertex 0.0455607 -0.00422714 0
      endloop
   endfacet
   facet normal 0.796093 -0.605174 0
      outer loop
         vertex 0.0455607 -0.00422714 0.111475
         vertex 0.0455607 -0.00422714 0
         vertex 0.0459851 -0.00360114 0
      endloop
   endfacet
   facet normal 0.856857 -0.515554 0
      outer loop
         vertex 0.0459851 -0.00360114 0.111475
         vertex 0.0459851 -0.00360114 0
         vertex 0.0463394 -0.00293293 0
      endloop
   endfacet
   facet normal 0.907575 -0.419889 0
      outer loop
         vertex 0.0463394 -0.00293293 0.111475
         vertex 0.0463394 -0.00293293 0
         vertex 0.0466194 -0.00223032 0
      endloop
   endfacet
   facet normal 0.947653 -0.319302 0
      outer loop
         vertex 0.0466194 -0.00223032 0.111475
         vertex 0.0466194 -0.00223032 0
         vertex 0.0468217 -0.00150157 0
      endloop
   endfacet
   facet normal 0.976621 -0.21497 0
      outer loop
         vertex 0.0468217 -0.00150157 0.111475
         vertex 0.0468217 -0.00150157 0
         vertex 0.0469441 -0.000755211 0
      endloop
   endfacet
   facet normal 0.994138 -0.108119 0
      outer loop
         vertex 0.0469441 -0.000755211 0.111475
         vertex 0.0469441 -0.000755211 0
         vertex 0.046985 1.28312e-18 0
      endloop
   endfacet
   facet normal 1 1.22465e-16 0
      outer loop
         vertex 0.046985 2.99396e-18 0.111475
         vertex 0.046985 1.28312e-18 0
         vertex 0.0469441 0.000755211 0
      endloop
   endfacet
   facet normal 0.994138 0.108119 0
      outer loop
         vertex 0.0469441 0.000755211 0.111475
         vertex 0.0469441 0.000755211 0
         vertex 0.0468217 0.00150157 0
      endloop
   endfacet
   facet normal 0.976621 0.21497 0
      outer loop
         vertex 0.0468217 0.00150157 0.111475
         vertex 0.0468217 0.00150157 0
         vertex 0.0466194 0.00223032 0
      endloop
   endfacet
   facet normal 0.947653 0.319302 0
      outer loop
         vertex 0.0466194 0.00223032 0.111475
         vertex 0.0466194 0.00223032 0
         vertex 0.0463394 0.00293293 0
      endloop
   endfacet
   facet normal 0.907575 0.419889 0
      outer loop
         vertex 0.0463394 0.00293293 0.111475
         vertex 0.0463394 0.00293293 0
         vertex 0.0459851 0.00360114 0
      endloop
   endfacet
   facet normal 0.856857 0.515554 0
      outer loop
         vertex 0.0459851 0.00360114 0.111475
         vertex 0.0459851 0.00360114 0
         vertex 0.0455607 0.00422714 0
      endloop
   endfacet
   facet normal 0.796093 0.605174 0
      outer loop
         vertex 0.0455607 0.00422714 0.111475
         vertex 0.0455607 0.00422714 0
         vertex 0.0450711 0.00480358 0
      endloop
   endfacet
   facet normal 0.725995 0.687699 0
      outer loop
         vertex 0.0450711 0.00480358 0.111475
         vertex 0.0450711 0.00480358 0
         vertex 0.044522 0.0053237 0
      endloop
   endfacet
   facet normal 0.647386 0.762162 0
      outer loop
         vertex 0.044522 0.0053237 0.111475
         vertex 0.044522 0.0053237 0
         vertex 0.0439199 0.00578141 0
      endloop
   endfacet
   facet normal 0.561187 0.827689 0
      outer loop
         vertex 0.0439199 0.00578141 0.111475
         vertex 0.0439199 0.00578141 0
         vertex 0.0432718 0.00617133 0
      endloop
   endfacet
   facet normal 0.468408 0.883512 0
      outer loop
         vertex 0.0432718 0.00617133 0.111475
         vertex 0.0432718 0.00617133 0
         vertex 0.0425854 0.0064889 0
      endloop
   endfacet
   facet normal 0.370138 0.928977 0
      outer loop
         vertex 0.0425854 0.0064889 0.111475
         vertex 0.0425854 0.0064889 0
         vertex 0.0418687 0.0067304 0
      endloop
   endfacet
   facet normal 0.267528 0.96355 0
      outer loop
         vertex 0.0418687 0.0067304 0.111475
         vertex 0.0418687 0.0067304 0
         vertex 0.04113 0.00689298 0
      endloop
   endfacet
   facet normal 0.161782 0.986827 0
      outer loop
         vertex 0.04113 0.00689298 0.111475
         vertex 0.04113 0.00689298 0
         vertex 0.0403782 0.00697476 0
      endloop
   endfacet
   facet normal 0.0541389 0.998533 0
      outer loop
         vertex 0.0403782 0.00697476 0.111475
         vertex 0.0403782 0.00697476 0
         vertex 0.0396218 0.00697476 0
      endloop
   endfacet
   facet normal -0.0541389 0.998533 0
      outer loop
         vertex 0.0396218 0.00697476 0.111475
         vertex 0.0396218 0.00697476 0
         vertex 0.03887 0.00689298 0
      endloop
   endfacet
   facet normal -0.161782 0.986827 0
      outer loop
         vertex 0.03887 0.00689298 0.111475
         vertex 0.03887 0.00689298 0
         vertex 0.0381313 0.0067304 0
      endloop
   endfacet
   facet normal -0.267528 0.96355 0
      outer loop
         vertex 0.0381313 0.0067304 0.111475
         vertex 0.0381313 0.0067304 0
         vertex 0.0374146 0.0064889 0
      endloop
   endfacet
   facet normal -0.370138 0.928977 0
      outer loop
         vertex 0.0374146 0.0064889 0.111475
         vertex 0.0374146 0.0064889 0
         vertex 0.0367282 0.00617133 0
      endloop
   endfacet
   facet normal -0.468408 0.883512 0
      outer loop
         vertex 0.0367282 0.00617133 0.111475
         vertex 0.0367282 0.00617133 0
         vertex 0.0360801 0.00578141 0
      endloop
   endfacet
   facet normal -0.561187 0.827689 0
      outer loop
         vertex 0.0360801 0.00578141 0.111475
         vertex 0.0360801 0.00578141 0
         vertex 0.035478 0.0053237 0
      endloop
   endfacet
   facet normal -0.647386 0.762162 0
      outer loop
         vertex 0.035478 0.0053237 0.111475
         vertex 0.035478 0.0053237 0
         vertex 0.0349289 0.00480358 0
      endloop
   endfacet
   facet normal -0.725995 0.687699 0
      outer loop
         vertex 0.0349289 0.00480358 0.111475
         vertex 0.0349289 0.00480358 0
         vertex 0.0344393 0.00422714 0
      endloop
   endfacet
   facet normal -0.796093 0.605174 0
      outer loop
         vertex 0.0344393 0.00422714 0.111475
         vertex 0.0344393 0.00422714 0
         vertex 0.0340149 0.00360114 0
      endloop
   endfacet
   facet normal -0.856857 0.515554 0
      outer loop
         vertex 0.0340149 0.00360114 0.111475
         vertex 0.0340149 0.00360114 0
         vertex 0.0336606 0.00293293 0
      endloop
   endfacet
   facet normal -0.907575 0.419889 0
      outer loop
         vertex 0.0336606 0.00293293 0.111475
         vertex 0.0336606 0.00293293 0
         vertex 0.0333806 0.00223032 0
      endloop
   endfacet
   facet normal -0.947653 0.319302 0
      outer loop
         vertex 0.0333806 0.00223032 0.111475
         vertex 0.0333806 0.00223032 0
         vertex 0.0331783 0.00150157 0
      endloop
   endfacet
   facet normal -0.976621 0.21497 0
      outer loop
         vertex 0.0331783 0.00150157 0.111475
         vertex 0.0331783 0.00150157 0
         vertex 0.0330559 0.000755211 0
      endloop
   endfacet
   facet normal -0.994138 0.108119 0
      outer loop
         vertex 0.0330559 0.000755211 0.111475
         vertex 0.0330559 0.000755211 0
         vertex 0.033015 4.27708e-19 0
      endloop
   endfacet
   facet normal 0 0 -1
      outer loop
         vertex 0.0381313 0.0067304 0
         vertex 0.0383012 0.00611854 0
         vertex 0.0376496 0.005899 0
      endloop
   endfacet
   facet normal 0 0 -1
      outer loop
         vertex 0.03887 0.00689298 0
         vertex 0.0389727 0.00626635 0
         vertex 0.0383012 0.00611854 0
      endloop
   endfacet
   facet normal 0 0 -1
      outer loop
         vertex 0.0383012 0.00611854 0
         vertex 0.0381313 0.0067304 0
         vertex 0.03887 0.00689298 0
      endloop
   endfacet
   facet normal 0 0 -1
      outer loop
         vertex 0.0396218 0.00697476 0
         vertex 0.0396562 0.00634069 0
         vertex 0.0389727 0.00626635 0
      endloop
   endfacet
   facet normal 0 0 -1
      outer loop
         vertex 0.0367282 -0.00617133 0
         vertex 0.0370256 -0.0056103 0
         vertex 0.0376496 -0.005899 0
      endloop
   endfacet
   facet normal 0 0 -1
      outer loop
         vertex 0.0367282 -0.00617133 0
         vertex 0.0360801 -0.00578141 0
         vertex 0.0364365 -0.00525583 0
      endloop
   endfacet
   facet normal 0 0 -1
      outer loop
         vertex 0.0344393 -0.00422714 0
         vertex 0.0349448 -0.00384286 0
         vertex 0.0353899 -0.00436689 0
      endloop
   endfacet
   facet normal 0 0 -1
      outer loop
         vertex 0.0344393 -0.00422714 0
         vertex 0.0340149 -0.00360114 0
         vertex 0.034559 -0.00327377 0
      endloop
   endfacet
   facet normal 0 0 -1
      outer loop
         vertex 0.0336606 -0.00293293 0
         vertex 0.0342369 -0.0026663 0
         vertex 0.034559 -0.00327377 0
      endloop
   endfacet
   facet normal 0 0 -1
      outer loop
         vertex 0.0336606 -0.00293293 0
         vertex 0.0333806 -0.00223032 0
         vertex 0.0339824 -0.00202756 0
      endloop
   endfacet
   facet normal 0 0 -1
      outer loop
         vertex 0.035478 0.0053237 0
         vertex 0.0358891 0.00483973 0
         vertex 0.0353899 0.00436689 0
      endloop
   endfacet
   facet normal 0 0 -1
      outer loop
         vertex 0.0360801 0.00578141 0
         vertex 0.0364365 0.00525583 0
         vertex 0.0358891 0.00483973 0
      endloop
   endfacet
   facet normal 0 0 -1
      outer loop
         vertex 0.0367282 0.00617133 0
         vertex 0.0370256 0.0056103 0
         vertex 0.0364365 0.00525583 0
      endloop
   endfacet
   facet normal 0 0 -1
      outer loop
         vertex 0.0374146 0.0064889 0
         vertex 0.0376496 0.005899 0
         vertex 0.0370256 0.0056103 0
      endloop
   endfacet
   facet normal 0 0 -1
      outer loop
         vertex 0.0389727 0.00626635 0
         vertex 0.03887 0.00689298 0
         vertex 0.0396218 0.00697476 0
      endloop
   endfacet
   facet normal 0 0 -1
      outer loop
         vertex 0.0396218 0.00697476 0
         vertex 0.0403782 0.00697476 0
         vertex 0.0403438 0.00634069 0
      endloop
   endfacet
   facet normal 0 0 -1
      outer loop
         vertex 0.0403782 0.00697476 0
         vertex 0.04113 0.00689298 0
         vertex 0.0410273 0.00626635 0
      endloop
   endfacet
   facet normal 0 0 -1
      outer loop
         vertex 0.04113 0.00689298 0
         vertex 0.0418687 0.0067304 0
         vertex 0.0416988 0.00611854 0
      endloop
   endfacet
   facet normal 0 0 -1
      outer loop
         vertex 0.0466194 -0.00223032 0
         vertex 0.0463394 -0.00293293 0
         vertex 0.0457631 -0.0026663 0
      endloop
   endfacet
   facet normal 0 0 -1
      outer loop
         vertex 0.0463394 -0.00293293 0
         vertex 0.0459851 -0.00360114 0
         vertex 0.045441 -0.00327377 0
      endloop
   endfacet
   facet normal 0 0 -1
      outer loop
         vertex 0.0403782 -0.00697476 0
         vertex 0.0403438 -0.00634069 0
         vertex 0.0410273 -0.00626635 0
      endloop
   endfacet
   facet normal 0 0 -1
      outer loop
         vertex 0.0403782 -0.00697476 0
         vertex 0.0396218 -0.00697476 0
         vertex 0.0396562 -0.00634069 0
      endloop
   endfacet
   facet normal 0 0 -1
      outer loop
         vertex 0.03887 -0.00689298 0
         vertex 0.0381313 -0.0067304 0
         vertex 0.0383012 -0.00611854 0
      endloop
   endfacet
   facet normal 0 0 -1
      outer loop
         vertex 0.0381313 -0.0067304 0
         vertex 0.0374146 -0.0064889 0
         vertex 0.0376496 -0.005899 0
      endloop
   endfacet
   facet normal 0 0 -1
      outer loop
         vertex 0.0364365 -0.00525583 0
         vertex 0.0370256 -0.0056103 0
         vertex 0.0367282 -0.00617133 0
      endloop
   endfacet
   facet normal 0 0 -1
      outer loop
         vertex 0.0360801 -0.00578141 0
         vertex 0.035478 -0.0053237 0
         vertex 0.0358891 -0.00483973 0
      endloop
   endfacet
   facet normal 0 0 -1
      outer loop
         vertex 0.034559 -0.00327377 0
         vertex 0.0349448 -0.00384286 0
         vertex 0.0344393 -0.00422714 0
      endloop
   endfacet
   facet normal 0 0 -1
      outer loop
         vertex 0.0339824 -0.00202756 0
         vertex 0.0342369 -0.0026663 0
         vertex 0.0336606 -0.00293293 0
      endloop
   endfacet
   facet normal 0 0 -1
      outer loop
         vertex 0.0336606 0.00293293 0
         vertex 0.0342369 0.0026663 0
         vertex 0.0339824 0.00202756 0
      endloop
   endfacet
   facet normal 0 0 -1
      outer loop
         vertex 0.0336606 0.00293293 0
         vertex 0.0340149 0.00360114 0
         vertex 0.034559 0.00327377 0
      endloop
   endfacet
   facet normal 0 0 -1
      outer loop
         vertex 0.0340149 0.00360114 0
         vertex 0.0344393 0.00422714 0
         vertex 0.0349448 0.00384286 0
      endloop
   endfacet
   facet normal 0 0 -1
      outer loop
         vertex 0.0349289 0.00480358 0
         vertex 0.0353899 0.00436689 0
         vertex 0.0349448 0.00384286 0
      endloop
   endfacet
   facet normal 0 0 -1
      outer loop
         vertex 0.0358891 0.00483973 0
         vertex 0.035478 0.0053237 0
         vertex 0.0360801 0.00578141 0
      endloop
   endfacet
   facet normal 0 0 -1
      outer loop
         vertex 0.0370256 0.0056103 0
         vertex 0.0367282 0.00617133 0
         vertex 0.0374146 0.0064889 0
      endloop
   endfacet
   facet normal 0 0 -1
      outer loop
         vertex 0.0403438 0.00634069 0
         vertex 0.0396562 0.00634069 0
         vertex 0.0396218 0.00697476 0
      endloop
   endfacet
   facet normal 0 0 -1
      outer loop
         vertex 0.0416988 0.00611854 0
         vertex 0.0410273 0.00626635 0
         vertex 0.04113 0.00689298 0
      endloop
   endfacet
   facet normal 0 0 -1
      outer loop
         vertex 0.0439199 0.00578141 0
         vertex 0.0435635 0.00525583 0
         vertex 0.0429744 0.0056103 0
      endloop
   endfacet
   facet normal 0 0 -1
      outer loop
         vertex 0.0439199 0.00578141 0
         vertex 0.044522 0.0053237 0
         vertex 0.0441109 0.00483973 0
      endloop
   endfacet
   facet normal 0 0 -1
      outer loop
         vertex 0.045441 -0.00327377 0
         vertex 0.0457631 -0.0026663 0
         vertex 0.0463394 -0.00293293 0
      endloop
   endfacet
   facet normal 0 0 -1
      outer loop
         vertex 0.0459851 -0.00360114 0
         vertex 0.0455607 -0.00422714 0
         vertex 0.0450552 -0.00384286 0
      endloop
   endfacet
   facet normal 0 0 -1
      outer loop
         vertex 0.0455607 -0.00422714 0
         vertex 0.0450711 -0.00480358 0
         vertex 0.0446101 -0.00436689 0
      endloop
   endfacet
   facet normal 0 0 -1
      outer loop
         vertex 0.0450711 -0.00480358 0
         vertex 0.044522 -0.0053237 0
         vertex 0.0441109 -0.00483973 0
      endloop
   endfacet
   facet normal 0 0 -1
      outer loop
         vertex 0.0432718 -0.00617133 0
         vertex 0.0429744 -0.0056103 0
         vertex 0.0435635 -0.00525583 0
      endloop
   endfacet
   facet normal 0 0 -1
      outer loop
         vertex 0.0432718 -0.00617133 0
         vertex 0.0425854 -0.0064889 0
         vertex 0.0423504 -0.005899 0
      endloop
   endfacet
   facet normal 0 0 -1
      outer loop
         vertex 0.0418687 -0.0067304 0
         vertex 0.0416988 -0.00611854 0
         vertex 0.0423504 -0.005899 0
      endloop
   endfacet
   facet normal 0 0 -1
      outer loop
         vertex 0.04113 -0.00689298 0
         vertex 0.0410273 -0.00626635 0
         vertex 0.0416988 -0.00611854 0
      endloop
   endfacet
   facet normal 0 0 -1
      outer loop
         vertex 0.0396562 -0.00634069 0
         vertex 0.0403438 -0.00634069 0
         vertex 0.0403782 -0.00697476 0
      endloop
   endfacet
   facet normal 0 0 -1
      outer loop
         vertex 0.0396218 -0.00697476 0
         vertex 0.03887 -0.00689298 0
         vertex 0.0389727 -0.00626635 0
      endloop
   endfacet
   facet normal 0 0 -1
      outer loop
         vertex 0.0376496 -0.005899 0
         vertex 0.0383012 -0.00611854 0
         vertex 0.0381313 -0.0067304 0
      endloop
   endfacet
   facet normal 0 0 -1
      outer loop
         vertex 0.0358891 -0.00483973 0
         vertex 0.0364365 -0.00525583 0
         vertex 0.0360801 -0.00578141 0
      endloop
   endfacet
   facet normal 0 0 -1
      outer loop
         vertex 0.035478 -0.0053237 0
         vertex 0.0349289 -0.00480358 0
         vertex 0.0353899 -0.00436689 0
      endloop
   endfacet
   facet normal 0 0 -1
      outer loop
         vertex 0.034559 -0.00327377 0
         vertex 0.0340149 -0.00360114 0
         vertex 0.0336606 -0.00293293 0
      endloop
   endfacet
   facet normal 0 0 -1
      outer loop
         vertex 0.034559 0.00327377 0
         vertex 0.0342369 0.0026663 0
         vertex 0.0336606 0.00293293 0
      endloop
   endfacet
   facet normal 0 0 -1
      outer loop
         vertex 0.0349448 0.00384286 0
         vertex 0.0344393 0.00422714 0
         vertex 0.0349289 0.00480358 0
      endloop
   endfacet
   facet normal 0 0 -1
      outer loop
         vertex 0.0364365 0.00525583 0
         vertex 0.0360801 0.00578141 0
         vertex 0.0367282 0.00617133 0
      endloop
   endfacet
   facet normal 0 0 -1
      outer loop
         vertex 0.0410273 0.00626635 0
         vertex 0.0403438 0.00634069 0
         vertex 0.0403782 0.00697476 0
      endloop
   endfacet
   facet normal 0 0 -1
      outer loop
         vertex 0.0441109 0.00483973 0
         vertex 0.0435635 0.00525583 0
         vertex 0.0439199 0.00578141 0
      endloop
   endfacet
   facet normal 0 0 -1
      outer loop
         vertex 0.044522 0.0053237 0
         vertex 0.0450711 0.00480358 0
         vertex 0.0446101 0.00436689 0
      endloop
   endfacet
   facet normal 0 0 -1
      outer loop
         vertex 0.0450711 0.00480358 0
         vertex 0.0455607 0.00422714 0
         vertex 0.0450552 0.00384286 0
      endloop
   endfacet
   facet normal 0 0 -1
      outer loop
         vertex 0.0459851 0.00360114 0
         vertex 0.045441 0.00327377 0
         vertex 0.0450552 0.00384286 0
      endloop
   endfacet
   facet normal 0 0 -1
      outer loop
         vertex 0.0468217 0.00150157 0
         vertex 0.0462015 0.00136506 0
         vertex 0.0460176 0.00202756 0
      endloop
   endfacet
   facet normal 0 0 -1
      outer loop
         vertex 0.0468217 0.00150157 0
         vertex 0.0469441 0.000755211 0
         vertex 0.0463128 0.000686556 0
      endloop
   endfacet
   facet normal 0 0 -1
      outer loop
         vertex 0.046985 1.28312e-18 0
         vertex 0.04635 2.72178e-18 0
         vertex 0.0463128 0.000686556 0
      endloop
   endfacet
   facet normal 0 0 -1
      outer loop
         vertex 0.0469441 -0.000755211 0
         vertex 0.0463128 -0.000686556 0
         vertex 0.04635 2.72178e-18 0
      endloop
   endfacet
   facet normal 0 0 -1
      outer loop
         vertex 0.0450552 -0.00384286 0
         vertex 0.045441 -0.00327377 0
         vertex 0.0459851 -0.00360114 0
      endloop
   endfacet
   facet normal 0 0 -1
      outer loop
         vertex 0.0441109 -0.00483973 0
         vertex 0.0446101 -0.00436689 0
         vertex 0.0450711 -0.00480358 0
      endloop
   endfacet
   facet normal 0 0 -1
      outer loop
         vertex 0.0439199 -0.00578141 0
         vertex 0.0435635 -0.00525583 0
         vertex 0.0441109 -0.00483973 0
      endloop
   endfacet
   facet normal 0 0 -1
      outer loop
         vertex 0.0423504 -0.005899 0
         vertex 0.0429744 -0.0056103 0
         vertex 0.0432718 -0.00617133 0
      endloop
   endfacet
   facet normal 0 0 -1
      outer loop
         vertex 0.0416988 -0.00611854 0
         vertex 0.0418687 -0.0067304 0
         vertex 0.04113 -0.00689298 0
      endloop
   endfacet
   facet normal 0 0 -1
      outer loop
         vertex 0.0389727 -0.00626635 0
         vertex 0.0396562 -0.00634069 0
         vertex 0.0396218 -0.00697476 0
      endloop
   endfacet
   facet normal 0 0 -1
      outer loop
         vertex 0.0376496 -0.005899 0
         vertex 0.0374146 -0.0064889 0
         vertex 0.0367282 -0.00617133 0
      endloop
   endfacet
   facet normal 0 0 -1
      outer loop
         vertex 0.0353899 -0.00436689 0
         vertex 0.0349289 -0.00480358 0
         vertex 0.0344393 -0.00422714 0
      endloop
   endfacet
   facet normal 0 0 -1
      outer loop
         vertex 0.0349448 0.00384286 0
         vertex 0.034559 0.00327377 0
         vertex 0.0340149 0.00360114 0
      endloop
   endfacet
   facet normal 0 0 -1
      outer loop
         vertex 0.0376496 0.005899 0
         vertex 0.0374146 0.0064889 0
         vertex 0.0381313 0.0067304 0
      endloop
   endfacet
   facet normal 0 0 -1
      outer loop
         vertex 0.0418687 0.0067304 0
         vertex 0.0425854 0.0064889 0
         vertex 0.0423504 0.005899 0
      endloop
   endfacet
   facet normal 0 0 -1
      outer loop
         vertex 0.0425854 0.0064889 0
         vertex 0.0432718 0.00617133 0
         vertex 0.0429744 0.0056103 0
      endloop
   endfacet
   facet normal 0 0 -1
      outer loop
         vertex 0.0446101 0.00436689 0
         vertex 0.0441109 0.00483973 0
         vertex 0.044522 0.0053237 0
      endloop
   endfacet
   facet normal 0 0 -1
      outer loop
         vertex 0.0450552 0.00384286 0
         vertex 0.0455607 0.00422714 0
         vertex 0.0459851 0.00360114 0
      endloop
   endfacet
   facet normal 0 0 -1
      outer loop
         vertex 0.0463394 0.00293293 0
         vertex 0.0457631 0.0026663 0
         vertex 0.045441 0.00327377 0
      endloop
   endfacet
   facet normal 0 0 -1
      outer loop
         vertex 0.0463394 0.00293293 0
         vertex 0.0466194 0.00223032 0
         vertex 0.0460176 0.00202756 0
      endloop
   endfacet
   facet normal 0 0 -1
      outer loop
         vertex 0.0463128 0.000686556 0
         vertex 0.0462015 0.00136506 0
         vertex 0.0468217 0.00150157 0
      endloop
   endfacet
   facet normal 0 0 -1
      outer loop
         vertex 0.04635 2.72178e-18 0
         vertex 0.046985 1.28312e-18 0
         vertex 0.0469441 -0.000755211 0
      endloop
   endfacet
   facet normal 0 0 -1
      outer loop
         vertex 0.0468217 -0.00150157 0
         vertex 0.0462015 -0.00136506 0
         vertex 0.0463128 -0.000686556 0
      endloop
   endfacet
   facet normal 0 0 -1
      outer loop
         vertex 0.0468217 -0.00150157 0
         vertex 0.0466194 -0.00223032 0
         vertex 0.0460176 -0.00202756 0
      endloop
   endfacet
   facet normal 0 0 -1
      outer loop
         vertex 0.0446101 -0.00436689 0
         vertex 0.0450552 -0.00384286 0
         vertex 0.0455607 -0.00422714 0
      endloop
   endfacet
   facet normal 0 0 -1
      outer loop
         vertex 0.0435635 -0.00525583 0
         vertex 0.0439199 -0.00578141 0
         vertex 0.0432718 -0.00617133 0
      endloop
   endfacet
   facet normal 0 0 -1
      outer loop
         vertex 0.0410273 -0.00626635 0
         vertex 0.04113 -0.00689298 0
         vertex 0.0403782 -0.00697476 0
      endloop
   endfacet
   facet normal 0 0 -1
      outer loop
         vertex 0.0353899 -0.00436689 0
         vertex 0.0358891 -0.00483973 0
         vertex 0.035478 -0.0053237 0
      endloop
   endfacet
   facet normal 0 0 -1
      outer loop
         vertex 0.0331783 0.00150157 0
         vertex 0.0337985 0.00136506 0
         vertex 0.0336872 0.000686556 0
      endloop
   endfacet
   facet normal 0 0 -1
      outer loop
         vertex 0.0331783 0.00150157 0
         vertex 0.0333806 0.00223032 0
         vertex 0.0339824 0.00202756 0
      endloop
   endfacet
   facet normal 0 0 -1
      outer loop
         vertex 0.0353899 0.00436689 0
         vertex 0.0349289 0.00480358 0
         vertex 0.035478 0.0053237 0
      endloop
   endfacet
   facet normal 0 0 -1
      outer loop
         vertex 0.0429744 0.0056103 0
         vertex 0.0423504 0.005899 0
         vertex 0.0425854 0.0064889 0
      endloop
   endfacet
   facet normal 0 0 -1
      outer loop
         vertex 0.0450552 0.00384286 0
         vertex 0.0446101 0.00436689 0
         vertex 0.0450711 0.00480358 0
      endloop
   endfacet
   facet normal 0 0 -1
      outer loop
         vertex 0.0460176 0.00202756 0
         vertex 0.0457631 0.0026663 0
         vertex 0.0463394 0.00293293 0
      endloop
   endfacet
   facet normal 0 0 -1
      outer loop
         vertex 0.0463128 0.000686556 0
         vertex 0.0469441 0.000755211 0
         vertex 0.046985 1.28312e-18 0
      endloop
   endfacet
   facet normal 0 0 -1
      outer loop
         vertex 0.0460176 -0.00202756 0
         vertex 0.0462015 -0.00136506 0
         vertex 0.0468217 -0.00150157 0
      endloop
   endfacet
   facet normal 0 0 -1
      outer loop
         vertex 0.0441109 -0.00483973 0
         vertex 0.044522 -0.0053237 0
         vertex 0.0439199 -0.00578141 0
      endloop
   endfacet
   facet normal 0 0 -1
      outer loop
         vertex 0.0383012 -0.00611854 0
         vertex 0.0389727 -0.00626635 0
         vertex 0.03887 -0.00689298 0
      endloop
   endfacet
   facet normal 0 0 -1
      outer loop
         vertex 0.0331783 -0.00150157 0
         vertex 0.0337985 -0.00136506 0
         vertex 0.0339824 -0.00202756 0
      endloop
   endfacet
   facet normal 0 0 -1
      outer loop
         vertex 0.0331783 -0.00150157 0
         vertex 0.0330559 -0.000755211 0
         vertex 0.0336872 -0.000686556 0
      endloop
   endfacet
   facet normal 0 0 -1
      outer loop
         vertex 0.033015 4.27708e-19 0
         vertex 0.0330559 0.000755211 0
         vertex 0.0336872 0.000686556 0
      endloop
   endfacet
   facet normal 0 0 -1
      outer loop
         vertex 0.0339824 0.00202756 0
         vertex 0.0337985 0.00136506 0
         vertex 0.0331783 0.00150157 0
      endloop
   endfacet
   facet normal 0 0 -1
      outer loop
         vertex 0.0423504 0.005899 0
         vertex 0.0416988 0.00611854 0
         vertex 0.0418687 0.0067304 0
      endloop
   endfacet
   facet normal 0 0 -1
      outer loop
         vertex 0.045441 0.00327377 0
         vertex 0.0459851 0.00360114 0
         vertex 0.0463394 0.00293293 0
      endloop
   endfacet
   facet normal 0 0 -1
      outer loop
         vertex 0.0463128 -0.000686556 0
         vertex 0.0469441 -0.000755211 0
         vertex 0.0468217 -0.00150157 0
      endloop
   endfacet
   facet normal 0 0 -1
      outer loop
         vertex 0.0423504 -0.005899 0
         vertex 0.0425854 -0.0064889 0
         vertex 0.0418687 -0.0067304 0
      endloop
   endfacet
   facet normal 0 0 -1
      outer loop
         vertex 0.0336872 -0.000686556 0
         vertex 0.0337985 -0.00136506 0
         vertex 0.0331783 -0.00150157 0
      endloop
   endfacet
   facet normal 0 0 -1
      outer loop
         vertex 0.033015 4.27708e-19 0
         vertex 0.03365 3.88825e-19 0
         vertex 0.0336872 -0.000686556 0
      endloop
   endfacet
   facet normal 0 0 -1
      outer loop
         vertex 0.0336872 0.000686556 0
         vertex 0.0330559 0.000755211 0
         vertex 0.0331783 0.00150157 0
      endloop
   endfacet
   facet normal 0 0 -1
      outer loop
         vertex 0.0429744 0.0056103 0
         vertex 0.0432718 0.00617133 0
         vertex 0.0439199 0.00578141 0
      endloop
   endfacet
   facet normal 0 0 -1
      outer loop
         vertex 0.0457631 -0.0026663 0
         vertex 0.0460176 -0.00202756 0
         vertex 0.0466194 -0.00223032 0
      endloop
   endfacet
   facet normal 0 0 -1
      outer loop
         vertex 0.0336872 -0.000686556 0
         vertex 0.0330559 -0.000755211 0
         vertex 0.033015 4.27708e-19 0
      endloop
   endfacet
   facet normal 0 0 -1
      outer loop
         vertex 0.0339824 0.00202756 0
         vertex 0.0333806 0.00223032 0
         vertex 0.0336606 0.00293293 0
      endloop
   endfacet
   facet normal 0 0 -1
      outer loop
         vertex 0.0339824 -0.00202756 0
         vertex 0.0333806 -0.00223032 0
         vertex 0.0331783 -0.00150157 0
      endloop
   endfacet
   facet normal 0 0 -1
      outer loop
         vertex 0.0460176 0.00202756 0
         vertex 0.0466194 0.00223032 0
         vertex 0.0468217 0.00150157 0
      endloop
   endfacet
   facet normal 0 0 -1
      outer loop
         vertex 0.0336872 0.000686556 0
         vertex 0.03365 3.88825e-19 0
         vertex 0.033015 4.27708e-19 0
      endloop
   endfacet
endsolid CF tube. Units = meters