solid Encoder standoff. STL generated by ONSHAPE BY PTC INC, 1.216. Units = meters
   facet normal 0.994138 0.108119 0
      outer loop
         vertex -0.00253774 -0.054576 0.1357
         vertex -0.0025527 -0.0543 0.1357
         vertex -0.0025527 -0.0543 0.2007
      endloop
   endfacet
   facet normal 0.976621 0.21497 0
      outer loop
         vertex -0.00249302 -0.0548488 0.1357
         vertex -0.00253774 -0.054576 0.1357
         vertex -0.00253774 -0.054576 0.2007
      endloop
   endfacet
   facet normal 0.947653 0.319302 0
      outer loop
         vertex -0.00241907 -0.0551151 0.1357
         vertex -0.00249302 -0.0548488 0.1357
         vertex -0.00249302 -0.0548488 0.2007
      endloop
   endfacet
   facet normal 0.907575 0.419889 0
      outer loop
         vertex -0.00231677 -0.0553719 0.1357
         vertex -0.00241907 -0.0551151 0.1357
         vertex -0.00241907 -0.0551151 0.2007
      endloop
   endfacet
   facet normal 0.856857 0.515554 0
      outer loop
         vertex -0.0021873 -0.0556161 0.1357
         vertex -0.00231677 -0.0553719 0.1357
         vertex -0.00231677 -0.0553719 0.2007
      endloop
   endfacet
   facet normal 0.796093 0.605174 0
      outer loop
         vertex -0.00203219 -0.0558448 0.1357
         vertex -0.0021873 -0.0556161 0.1357
         vertex -0.0021873 -0.0556161 0.2007
      endloop
   endfacet
   facet normal 0.725995 0.687699 0
      outer loop
         vertex -0.00185325 -0.0560555 0.1357
         vertex -0.00203219 -0.0558448 0.1357
         vertex -0.00203219 -0.0558448 0.2007
      endloop
   endfacet
   facet normal 0.647386 0.762162 0
      outer loop
         vertex -0.00165258 -0.0562456 0.1357
         vertex -0.00185325 -0.0560555 0.1357
         vertex -0.00185325 -0.0560555 0.2007
      endloop
   endfacet
   facet normal 0.561187 0.827689 0
      outer loop
         vertex -0.00143254 -0.0564128 0.1357
         vertex -0.00165258 -0.0562456 0.1357
         vertex -0.00165258 -0.0562456 0.2007
      endloop
   endfacet
   facet normal 0.468408 0.883512 0
      outer loop
         vertex -0.00119571 -0.0565553 0.1357
         vertex -0.00143254 -0.0564128 0.1357
         vertex -0.00143254 -0.0564128 0.2007
      endloop
   endfacet
   facet normal 0.370138 0.928977 0
      outer loop
         vertex -0.000944852 -0.0566714 0.1357
         vertex -0.00119571 -0.0565553 0.1357
         vertex -0.00119571 -0.0565553 0.2007
      endloop
   endfacet
   facet normal 0.267528 0.96355 0
      outer loop
         vertex -0.00068292 -0.0567597 0.1357
         vertex -0.000944852 -0.0566714 0.1357
         vertex -0.000944852 -0.0566714 0.2007
      endloop
   endfacet
   facet normal 0.161782 0.986827 0
      outer loop
         vertex -0.000412981 -0.0568191 0.1357
         vertex -0.00068292 -0.0567597 0.1357
         vertex -0.00068292 -0.0567597 0.2007
      endloop
   endfacet
   facet normal 0.0541389 0.998533 0
      outer loop
         vertex -0.0001382 -0.056849 0.1357
         vertex -0.000412981 -0.0568191 0.1357
         vertex -0.000412981 -0.0568191 0.2007
      endloop
   endfacet
   facet normal -0.0541389 0.998533 0
      outer loop
         vertex 0.0001382 -0.056849 0.1357
         vertex -0.0001382 -0.056849 0.1357
         vertex -0.0001382 -0.056849 0.2007
      endloop
   endfacet
   facet normal -0.161782 0.986827 0
      outer loop
         vertex 0.000412981 -0.0568191 0.1357
         vertex 0.0001382 -0.056849 0.1357
         vertex 0.0001382 -0.056849 0.2007
      endloop
   endfacet
   facet normal -0.267528 0.96355 0
      outer loop
         vertex 0.00068292 -0.0567597 0.1357
         vertex 0.000412981 -0.0568191 0.1357
         vertex 0.000412981 -0.0568191 0.2007
      endloop
   endfacet
   facet normal -0.370138 0.928977 0
      outer loop
         vertex 0.000944852 -0.0566714 0.1357
         vertex 0.00068292 -0.0567597 0.1357
         vertex 0.00068292 -0.0567597 0.2007
      endloop
   endfacet
   facet normal -0.468408 0.883512 0
      outer loop
         vertex 0.00119571 -0.0565553 0.1357
         vertex 0.000944852 -0.0566714 0.1357
         vertex 0.000944852 -0.0566714 0.2007
      endloop
   endfacet
   facet normal -0.561187 0.827689 0
      outer loop
         vertex 0.00143254 -0.0564128 0.1357
         vertex 0.00119571 -0.0565553 0.1357
         vertex 0.00119571 -0.0565553 0.2007
      endloop
   endfacet
   facet normal -0.647386 0.762162 0
      outer loop
         vertex 0.00165258 -0.0562456 0.1357
         vertex 0.00143254 -0.0564128 0.1357
         vertex 0.00143254 -0.0564128 0.2007
      endloop
   endfacet
   facet normal -0.725995 0.687699 0
      outer loop
         vertex 0.00185325 -0.0560555 0.1357
         vertex 0.00165258 -0.0562456 0.1357
         vertex 0.00165258 -0.0562456 0.2007
      endloop
   endfacet
   facet normal -0.796093 0.605174 0
      outer loop
         vertex 0.00203219 -0.0558448 0.1357
         vertex 0.00185325 -0.0560555 0.1357
         vertex 0.00185325 -0.0560555 0.2007
      endloop
   endfacet
   facet normal -0.856857 0.515554 0
      outer loop
         vertex 0.0021873 -0.0556161 0.1357
         vertex 0.00203219 -0.0558448 0.1357
         vertex 0.00203219 -0.0558448 0.2007
      endloop
   endfacet
   facet normal -0.907575 0.419889 0
      outer loop
         vertex 0.00231677 -0.0553719 0.1357
         vertex 0.0021873 -0.0556161 0.1357
         vertex 0.0021873 -0.0556161 0.2007
      endloop
   endfacet
   facet normal -0.947653 0.319302 0
      outer loop
         vertex 0.00241907 -0.0551151 0.1357
         vertex 0.00231677 -0.0553719 0.1357
         vertex 0.00231677 -0.0553719 0.2007
      endloop
   endfacet
   facet normal -0.976621 0.21497 0
      outer loop
         vertex 0.00249302 -0.0548488 0.1357
         vertex 0.00241907 -0.0551151 0.1357
         vertex 0.00241907 -0.0551151 0.2007
      endloop
   endfacet
   facet normal -0.994138 0.108119 0
      outer loop
         vertex 0.00253774 -0.054576 0.1357
         vertex 0.00249302 -0.0548488 0.1357
         vertex 0.00249302 -0.0548488 0.2007
      endloop
   endfacet
   facet normal -1 -1.22465e-16 0
      outer loop
         vertex 0.0025527 -0.0543 0.1357
         vertex 0.00253774 -0.054576 0.1357
         vertex 0.00253774 -0.054576 0.2007
      endloop
   endfacet
   facet normal -0.994138 -0.108119 0
      outer loop
         vertex 0.00253774 -0.054024 0.1357
         vertex 0.0025527 -0.0543 0.1357
         vertex 0.0025527 -0.0543 0.2007
      endloop
   endfacet
   facet normal -0.976621 -0.21497 0
      outer loop
         vertex 0.00249302 -0.0537512 0.1357
         vertex 0.00253774 -0.054024 0.1357
         vertex 0.00253774 -0.054024 0.2007
      endloop
   endfacet
   facet normal -0.947653 -0.319302 0
      outer loop
         vertex 0.00241907 -0.0534849 0.1357
         vertex 0.00249302 -0.0537512 0.1357
         vertex 0.00249302 -0.0537512 0.2007
      endloop
   endfacet
   facet normal -0.907575 -0.419889 0
      outer loop
         vertex 0.00231677 -0.0532281 0.1357
         vertex 0.00241907 -0.0534849 0.1357
         vertex 0.00241907 -0.0534849 0.2007
      endloop
   endfacet
   facet normal -0.856857 -0.515554 0
      outer loop
         vertex 0.0021873 -0.0529839 0.1357
         vertex 0.00231677 -0.0532281 0.1357
         vertex 0.00231677 -0.0532281 0.2007
      endloop
   endfacet
   facet normal -0.796093 -0.605174 0
      outer loop
         vertex 0.00203219 -0.0527552 0.1357
         vertex 0.0021873 -0.0529839 0.1357
         vertex 0.0021873 -0.0529839 0.2007
      endloop
   endfacet
   facet normal -0.725995 -0.687699 0
      outer loop
         vertex 0.00185325 -0.0525445 0.1357
         vertex 0.00203219 -0.0527552 0.1357
         vertex 0.00203219 -0.0527552 0.2007
      endloop
   endfacet
   facet normal -0.647386 -0.762162 0
      outer loop
         vertex 0.00165258 -0.0523544 0.1357
         vertex 0.00185325 -0.0525445 0.1357
         vertex 0.00185325 -0.0525445 0.2007
      endloop
   endfacet
   facet normal -0.561187 -0.827689 0
      outer loop
         vertex 0.00143254 -0.0521872 0.1357
         vertex 0.00165258 -0.0523544 0.1357
         vertex 0.00165258 -0.0523544 0.2007
      endloop
   endfacet
   facet normal -0.468408 -0.883512 0
      outer loop
         vertex 0.00119571 -0.0520447 0.1357
         vertex 0.00143254 -0.0521872 0.1357
         vertex 0.00143254 -0.0521872 0.2007
      endloop
   endfacet
   facet normal -0.370138 -0.928977 0
      outer loop
         vertex 0.000944852 -0.0519286 0.1357
         vertex 0.00119571 -0.0520447 0.1357
         vertex 0.00119571 -0.0520447 0.2007
      endloop
   endfacet
   facet normal -0.267528 -0.96355 0
      outer loop
         vertex 0.00068292 -0.0518403 0.1357
         vertex 0.000944852 -0.0519286 0.1357
         vertex 0.000944852 -0.0519286 0.2007
      endloop
   endfacet
   facet normal -0.161782 -0.986827 0
      outer loop
         vertex 0.000412981 -0.0517809 0.1357
         vertex 0.00068292 -0.0518403 0.1357
         vertex 0.00068292 -0.0518403 0.2007
      endloop
   endfacet
   facet normal -0.0541389 -0.998533 0
      outer loop
         vertex 0.0001382 -0.051751 0.1357
         vertex 0.000412981 -0.0517809 0.1357
         vertex 0.000412981 -0.0517809 0.2007
      endloop
   endfacet
   facet normal 0.0541389 -0.998533 0
      outer loop
         vertex -0.0001382 -0.051751 0.1357
         vertex 0.0001382 -0.051751 0.1357
         vertex 0.0001382 -0.051751 0.2007
      endloop
   endfacet
   facet normal 0.161782 -0.986827 0
      outer loop
         vertex -0.000412981 -0.0517809 0.1357
         vertex -0.0001382 -0.051751 0.1357
         vertex -0.0001382 -0.051751 0.2007
      endloop
   endfacet
   facet normal 0.267528 -0.96355 0
      outer loop
         vertex -0.00068292 -0.0518403 0.1357
         vertex -0.000412981 -0.0517809 0.1357
         vertex -0.000412981 -0.0517809 0.2007
      endloop
   endfacet
   facet normal 0.370138 -0.928977 0
      outer loop
         vertex -0.000944852 -0.0519286 0.1357
         vertex -0.00068292 -0.0518403 0.1357
         vertex -0.00068292 -0.0518403 0.2007
      endloop
   endfacet
   facet normal 0.468408 -0.883512 0
      outer loop
         vertex -0.00119571 -0.0520447 0.1357
         vertex -0.000944852 -0.0519286 0.1357
         vertex -0.000944852 -0.0519286 0.2007
      endloop
   endfacet
   facet normal 0.561187 -0.827689 0
      outer loop
         vertex -0.00143254 -0.0521872 0.1357
         vertex -0.00119571 -0.0520447 0.1357
         vertex -0.00119571 -0.0520447 0.2007
      endloop
   endfacet
   facet normal 0.647386 -0.762162 0
      outer loop
         vertex -0.00165258 -0.0523544 0.1357
         vertex -0.00143254 -0.0521872 0.1357
         vertex -0.00143254 -0.0521872 0.2007
      endloop
   endfacet
   facet normal 0.725995 -0.687699 0
      outer loop
         vertex -0.00185325 -0.0525445 0.1357
         vertex -0.00165258 -0.0523544 0.1357
         vertex -0.00165258 -0.0523544 0.2007
      endloop
   endfacet
   facet normal 0.796093 -0.605174 0
      outer loop
         vertex -0.00203219 -0.0527552 0.1357
         vertex -0.00185325 -0.0525445 0.1357
         vertex -0.00185325 -0.0525445 0.2007
      endloop
   endfacet
   facet normal 0.856857 -0.515554 0
      outer loop
         vertex -0.0021873 -0.0529839 0.1357
         vertex -0.00203219 -0.0527552 0.1357
         vertex -0.00203219 -0.0527552 0.2007
      endloop
   endfacet
   facet normal 0.907575 -0.419889 0
      outer loop
         vertex -0.00231677 -0.0532281 0.1357
         vertex -0.0021873 -0.0529839 0.1357
         vertex -0.0021873 -0.0529839 0.2007
      endloop
   endfacet
   facet normal 0.947653 -0.319302 0
      outer loop
         vertex -0.00241907 -0.0534849 0.1357
         vertex -0.00231677 -0.0532281 0.1357
         vertex -0.00231677 -0.0532281 0.2007
      endloop
   endfacet
   facet normal 0.976621 -0.21497 0
      outer loop
         vertex -0.00249302 -0.0537512 0.1357
         vertex -0.00241907 -0.0534849 0.1357
         vertex -0.00241907 -0.0534849 0.2007
      endloop
   endfacet
   facet normal 0.994138 -0.108119 0
      outer loop
         vertex -0.00253774 -0.054024 0.1357
         vertex -0.00249302 -0.0537512 0.1357
         vertex -0.00249302 -0.0537512 0.2007
      endloop
   endfacet
   facet normal 1 2.44929e-16 0
      outer loop
         vertex -0.0025527 -0.0543 0.1357
         vertex -0.00253774 -0.054024 0.1357
         vertex -0.00253774 -0.054024 0.2007
      endloop
   endfacet
   facet normal 0.994138 -0.108119 0
      outer loop
         vertex -0.00253774 -0.054024 0.2007
         vertex -0.0025527 -0.0543 0.2007
         vertex -0.0025527 -0.0543 0.1357
      endloop
   endfacet
   facet normal 0.976621 -0.21497 0
      outer loop
         vertex -0.00249302 -0.0537512 0.2007
         vertex -0.00253774 -0.054024 0.2007
         vertex -0.00253774 -0.054024 0.1357
      endloop
   endfacet
   facet normal 0.947653 -0.319302 0
      outer loop
         vertex -0.00241907 -0.0534849 0.2007
         vertex -0.00249302 -0.0537512 0.2007
         vertex -0.00249302 -0.0537512 0.1357
      endloop
   endfacet
   facet normal 0.907575 -0.419889 0
      outer loop
         vertex -0.00231677 -0.0532281 0.2007
         vertex -0.00241907 -0.0534849 0.2007
         vertex -0.00241907 -0.0534849 0.1357
      endloop
   endfacet
   facet normal 0.856857 -0.515554 0
      outer loop
         vertex -0.0021873 -0.0529839 0.2007
         vertex -0.00231677 -0.0532281 0.2007
         vertex -0.00231677 -0.0532281 0.1357
      endloop
   endfacet
   facet normal 0.796093 -0.605174 0
      outer loop
         vertex -0.00203219 -0.0527552 0.2007
         vertex -0.0021873 -0.0529839 0.2007
         vertex -0.0021873 -0.0529839 0.1357
      endloop
   endfacet
   facet normal 0.725995 -0.687699 0
      outer loop
         vertex -0.00185325 -0.0525445 0.2007
         vertex -0.00203219 -0.0527552 0.2007
         vertex -0.00203219 -0.0527552 0.1357
      endloop
   endfacet
   facet normal 0.647386 -0.762162 0
      outer loop
         vertex -0.00165258 -0.0523544 0.2007
         vertex -0.00185325 -0.0525445 0.2007
         vertex -0.00185325 -0.0525445 0.1357
      endloop
   endfacet
   facet normal 0.561187 -0.827689 0
      outer loop
         vertex -0.00143254 -0.0521872 0.2007
         vertex -0.00165258 -0.0523544 0.2007
         vertex -0.00165258 -0.0523544 0.1357
      endloop
   endfacet
   facet normal 0.468408 -0.883512 0
      outer loop
         vertex -0.00119571 -0.0520447 0.2007
         vertex -0.00143254 -0.0521872 0.2007
         vertex -0.00143254 -0.0521872 0.1357
      endloop
   endfacet
   facet normal 0.370138 -0.928977 0
      outer loop
         vertex -0.000944852 -0.0519286 0.2007
         vertex -0.00119571 -0.0520447 0.2007
         vertex -0.00119571 -0.0520447 0.1357
      endloop
   endfacet
   facet normal 0.267528 -0.96355 0
      outer loop
         vertex -0.00068292 -0.0518403 0.2007
         vertex -0.000944852 -0.0519286 0.2007
         vertex -0.000944852 -0.0519286 0.1357
      endloop
   endfacet
   facet normal 0.161782 -0.986827 0
      outer loop
         vertex -0.000412981 -0.0517809 0.2007
         vertex -0.00068292 -0.0518403 0.2007
         vertex -0.00068292 -0.0518403 0.1357
      endloop
   endfacet
   facet normal 0.0541389 -0.998533 0
      outer loop
         vertex -0.0001382 -0.051751 0.2007
         vertex -0.000412981 -0.0517809 0.2007
         vertex -0.000412981 -0.0517809 0.1357
      endloop
   endfacet
   facet normal -0.0541389 -0.998533 0
      outer loop
         vertex 0.0001382 -0.051751 0.2007
         vertex -0.0001382 -0.051751 0.2007
         vertex -0.0001382 -0.051751 0.1357
      endloop
   endfacet
   facet normal -0.161782 -0.986827 0
      outer loop
         vertex 0.000412981 -0.0517809 0.2007
         vertex 0.0001382 -0.051751 0.2007
         vertex 0.0001382 -0.051751 0.1357
      endloop
   endfacet
   facet normal -0.267528 -0.96355 0
      outer loop
         vertex 0.00068292 -0.0518403 0.2007
         vertex 0.000412981 -0.0517809 0.2007
         vertex 0.000412981 -0.0517809 0.1357
      endloop
   endfacet
   facet normal -0.370138 -0.928977 0
      outer loop
         vertex 0.000944852 -0.0519286 0.2007
         vertex 0.00068292 -0.0518403 0.2007
         vertex 0.00068292 -0.0518403 0.1357
      endloop
   endfacet
   facet normal -0.468408 -0.883512 0
      outer loop
         vertex 0.00119571 -0.0520447 0.2007
         vertex 0.000944852 -0.0519286 0.2007
         vertex 0.000944852 -0.0519286 0.1357
      endloop
   endfacet
   facet normal -0.561187 -0.827689 0
      outer loop
         vertex 0.00143254 -0.0521872 0.2007
         vertex 0.00119571 -0.0520447 0.2007
         vertex 0.00119571 -0.0520447 0.1357
      endloop
   endfacet
   facet normal -0.647386 -0.762162 0
      outer loop
         vertex 0.00165258 -0.0523544 0.2007
         vertex 0.00143254 -0.0521872 0.2007
         vertex 0.00143254 -0.0521872 0.1357
      endloop
   endfacet
   facet normal -0.725995 -0.687699 0
      outer loop
         vertex 0.00185325 -0.0525445 0.2007
         vertex 0.00165258 -0.0523544 0.2007
         vertex 0.00165258 -0.0523544 0.1357
      endloop
   endfacet
   facet normal -0.796093 -0.605174 0
      outer loop
         vertex 0.00203219 -0.0527552 0.2007
         vertex 0.00185325 -0.0525445 0.2007
         vertex 0.00185325 -0.0525445 0.1357
      endloop
   endfacet
   facet normal -0.856857 -0.515554 0
      outer loop
         vertex 0.0021873 -0.0529839 0.2007
         vertex 0.00203219 -0.0527552 0.2007
         vertex 0.00203219 -0.0527552 0.1357
      endloop
   endfacet
   facet normal -0.907575 -0.419889 0
      outer loop
         vertex 0.00231677 -0.0532281 0.2007
         vertex 0.0021873 -0.0529839 0.2007
         vertex 0.0021873 -0.0529839 0.1357
      endloop
   endfacet
   facet normal -0.947653 -0.319302 0
      outer loop
         vertex 0.00241907 -0.0534849 0.2007
         vertex 0.00231677 -0.0532281 0.2007
         vertex 0.00231677 -0.0532281 0.1357
      endloop
   endfacet
   facet normal -0.976621 -0.21497 0
      outer loop
         vertex 0.00249302 -0.0537512 0.2007
         vertex 0.00241907 -0.0534849 0.2007
         vertex 0.00241907 -0.0534849 0.1357
      endloop
   endfacet
   facet normal -0.994138 -0.108119 0
      outer loop
         vertex 0.00253774 -0.054024 0.2007
         vertex 0.00249302 -0.0537512 0.2007
         vertex 0.00249302 -0.0537512 0.1357
      endloop
   endfacet
   facet normal -1 -1.22465e-16 0
      outer loop
         vertex 0.0025527 -0.0543 0.2007
         vertex 0.00253774 -0.054024 0.2007
         vertex 0.00253774 -0.054024 0.1357
      endloop
   endfacet
   facet normal -0.994138 0.108119 0
      outer loop
         vertex 0.00253774 -0.054576 0.2007
         vertex 0.0025527 -0.0543 0.2007
         vertex 0.0025527 -0.0543 0.1357
      endloop
   endfacet
   facet normal -0.976621 0.21497 0
      outer loop
         vertex 0.00249302 -0.0548488 0.2007
         vertex 0.00253774 -0.054576 0.2007
         vertex 0.00253774 -0.054576 0.1357
      endloop
   endfacet
   facet normal -0.947653 0.319302 0
      outer loop
         vertex 0.00241907 -0.0551151 0.2007
         vertex 0.00249302 -0.0548488 0.2007
         vertex 0.00249302 -0.0548488 0.1357
      endloop
   endfacet
   facet normal -0.907575 0.419889 0
      outer loop
         vertex 0.00231677 -0.0553719 0.2007
         vertex 0.00241907 -0.0551151 0.2007
         vertex 0.00241907 -0.0551151 0.1357
      endloop
   endfacet
   facet normal -0.856857 0.515554 0
      outer loop
         vertex 0.0021873 -0.0556161 0.2007
         vertex 0.00231677 -0.0553719 0.2007
         vertex 0.00231677 -0.0553719 0.1357
      endloop
   endfacet
   facet normal -0.796093 0.605174 0
      outer loop
         vertex 0.00203219 -0.0558448 0.2007
         vertex 0.0021873 -0.0556161 0.2007
         vertex 0.0021873 -0.0556161 0.1357
      endloop
   endfacet
   facet normal -0.725995 0.687699 0
      outer loop
         vertex 0.00185325 -0.0560555 0.2007
         vertex 0.00203219 -0.0558448 0.2007
         vertex 0.00203219 -0.0558448 0.1357
      endloop
   endfacet
   facet normal -0.647386 0.762162 0
      outer loop
         vertex 0.00165258 -0.0562456 0.2007
         vertex 0.00185325 -0.0560555 0.2007
         vertex 0.00185325 -0.0560555 0.1357
      endloop
   endfacet
   facet normal -0.561187 0.827689 0
      outer loop
         vertex 0.00143254 -0.0564128 0.2007
         vertex 0.00165258 -0.0562456 0.2007
         vertex 0.00165258 -0.0562456 0.1357
      endloop
   endfacet
   facet normal -0.468408 0.883512 0
      outer loop
         vertex 0.00119571 -0.0565553 0.2007
         vertex 0.00143254 -0.0564128 0.2007
         vertex 0.00143254 -0.0564128 0.1357
      endloop
   endfacet
   facet normal -0.370138 0.928977 0
      outer loop
         vertex 0.000944852 -0.0566714 0.2007
         vertex 0.00119571 -0.0565553 0.2007
         vertex 0.00119571 -0.0565553 0.1357
      endloop
   endfacet
   facet normal -0.267528 0.96355 0
      outer loop
         vertex 0.00068292 -0.0567597 0.2007
         vertex 0.000944852 -0.0566714 0.2007
         vertex 0.000944852 -0.0566714 0.1357
      endloop
   endfacet
   facet normal -0.161782 0.986827 0
      outer loop
         vertex 0.000412981 -0.0568191 0.2007
         vertex 0.00068292 -0.0567597 0.2007
         vertex 0.00068292 -0.0567597 0.1357
      endloop
   endfacet
   facet normal -0.0541389 0.998533 0
      outer loop
         vertex 0.0001382 -0.056849 0.2007
         vertex 0.000412981 -0.0568191 0.2007
         vertex 0.000412981 -0.0568191 0.1357
      endloop
   endfacet
   facet normal 0.0541389 0.998533 0
      outer loop
         vertex -0.0001382 -0.056849 0.2007
         vertex 0.0001382 -0.056849 0.2007
         vertex 0.0001382 -0.056849 0.1357
      endloop
   endfacet
   facet normal 0.161782 0.986827 0
      outer loop
         vertex -0.000412981 -0.0568191 0.2007
         vertex -0.0001382 -0.056849 0.2007
         vertex -0.0001382 -0.056849 0.1357
      endloop
   endfacet
   facet normal 0.267528 0.96355 0
      outer loop
         vertex -0.00068292 -0.0567597 0.2007
         vertex -0.000412981 -0.0568191 0.2007
         vertex -0.000412981 -0.0568191 0.1357
      endloop
   endfacet
   facet normal 0.370138 0.928977 0
      outer loop
         vertex -0.000944852 -0.0566714 0.2007
         vertex -0.00068292 -0.0567597 0.2007
         vertex -0.00068292 -0.0567597 0.1357
      endloop
   endfacet
   facet normal 0.468408 0.883512 0
      outer loop
         vertex -0.00119571 -0.0565553 0.2007
         vertex -0.000944852 -0.0566714 0.2007
         vertex -0.000944852 -0.0566714 0.1357
      endloop
   endfacet
   facet normal 0.561187 0.827689 0
      outer loop
         vertex -0.00143254 -0.0564128 0.2007
         vertex -0.00119571 -0.0565553 0.2007
         vertex -0.00119571 -0.0565553 0.1357
      endloop
   endfacet
   facet normal 0.647386 0.762162 0
      outer loop
         vertex -0.00165258 -0.0562456 0.2007
         vertex -0.00143254 -0.0564128 0.2007
         vertex -0.00143254 -0.0564128 0.1357
      endloop
   endfacet
   facet normal 0.725995 0.687699 0
      outer loop
         vertex -0.00185325 -0.0560555 0.2007
         vertex -0.00165258 -0.0562456 0.2007
         vertex -0.00165258 -0.0562456 0.1357
      endloop
   endfacet
   facet normal 0.796093 0.605174 0
      outer loop
         vertex -0.00203219 -0.0558448 0.2007
         vertex -0.00185325 -0.0560555 0.2007
         vertex -0.00185325 -0.0560555 0.1357
      endloop
   endfacet
   facet normal 0.856857 0.515554 0
      outer loop
         vertex -0.0021873 -0.0556161 0.2007
         vertex -0.00203219 -0.0558448 0.2007
         vertex -0.00203219 -0.0558448 0.1357
      endloop
   endfacet
   facet normal 0.907575 0.419889 0
      outer loop
         vertex -0.00231677 -0.0553719 0.2007
         vertex -0.0021873 -0.0556161 0.2007
         vertex -0.0021873 -0.0556161 0.1357
      endloop
   endfacet
   facet normal 0.947653 0.319302 0
      outer loop
         vertex -0.00241907 -0.0551151 0.2007
         vertex -0.00231677 -0.0553719 0.2007
         vertex -0.00231677 -0.0553719 0.1357
      endloop
   endfacet
   facet normal 0.976621 0.21497 0
      outer loop
         vertex -0.00249302 -0.0548488 0.2007
         vertex -0.00241907 -0.0551151 0.2007
         vertex -0.00241907 -0.0551151 0.1357
      endloop
   endfacet
   facet normal 0.994138 0.108119 0
      outer loop
         vertex -0.00253774 -0.054576 0.2007
         vertex -0.00249302 -0.0548488 0.2007
         vertex -0.00249302 -0.0548488 0.1357
      endloop
   endfacet
   facet normal 1 2.44929e-16 0
      outer loop
         vertex -0.0025527 -0.0543 0.2007
         vertex -0.00253774 -0.054576 0.2007
         vertex -0.00253774 -0.054576 0.1357
      endloop
   endfacet
   facet normal 0 0 1
      outer loop
         vertex -0.00635 -0.0506338 0.2007
         vertex -0.00635 -0.0579662 0.2007
         vertex -0.0025527 -0.0543 0.2007
      endloop
   endfacet
   facet normal 0 0 1
      outer loop
         vertex -0.0025527 -0.0543 0.2007
         vertex -0.00253774 -0.054024 0.2007
         vertex -0.00635 -0.0506338 0.2007
      endloop
   endfacet
   facet normal 0 0 1
      outer loop
         vertex -0.00635 -0.0579662 0.2007
         vertex -0.00231677 -0.0553719 0.2007
         vertex -0.00241907 -0.0551151 0.2007
      endloop
   endfacet
   facet normal 0 0 1
      outer loop
         vertex -0.00635 -0.0579662 0.2007
         vertex -0.00253774 -0.054576 0.2007
         vertex -0.0025527 -0.0543 0.2007
      endloop
   endfacet
   facet normal 0 0 1
      outer loop
         vertex -0.00241907 -0.0551151 0.2007
         vertex -0.00249302 -0.0548488 0.2007
         vertex -0.00635 -0.0579662 0.2007
      endloop
   endfacet
   facet normal 0 0 1
      outer loop
         vertex -0.00635 -0.0506338 0.2007
         vertex -0.00249302 -0.0537512 0.2007
         vertex -0.00241907 -0.0534849 0.2007
      endloop
   endfacet
   facet normal 0 0 1
      outer loop
         vertex -0.00249302 -0.0548488 0.2007
         vertex -0.00253774 -0.054576 0.2007
         vertex -0.00635 -0.0579662 0.2007
      endloop
   endfacet
   facet normal 0 0 1
      outer loop
         vertex -0.00635 -0.0579662 0.2007
         vertex -0.00203219 -0.0558448 0.2007
         vertex -0.0021873 -0.0556161 0.2007
      endloop
   endfacet
   facet normal 0 0 1
      outer loop
         vertex -0.00253774 -0.054024 0.2007
         vertex -0.00249302 -0.0537512 0.2007
         vertex -0.00635 -0.0506338 0.2007
      endloop
   endfacet
   facet normal 0 0 1
      outer loop
         vertex -0.00635 -0.0579662 0.2007
         vertex -0.00185325 -0.0560555 0.2007
         vertex -0.00203219 -0.0558448 0.2007
      endloop
   endfacet
   facet normal 0 0 1
      outer loop
         vertex -0.00635 -0.0506338 0.2007
         vertex -0.00203219 -0.0527552 0.2007
         vertex -0.00185325 -0.0525445 0.2007
      endloop
   endfacet
   facet normal 0 0 1
      outer loop
         vertex -0.00635 -0.0506338 0.2007
         vertex -0.00231677 -0.0532281 0.2007
         vertex -0.0021873 -0.0529839 0.2007
      endloop
   endfacet
   facet normal 0 0 1
      outer loop
         vertex -0.0021873 -0.0556161 0.2007
         vertex -0.00231677 -0.0553719 0.2007
         vertex -0.00635 -0.0579662 0.2007
      endloop
   endfacet
   facet normal 0 0 1
      outer loop
         vertex -0.00635 -0.0579662 0.2007
         vertex -0.00143254 -0.0564128 0.2007
         vertex -0.00165258 -0.0562456 0.2007
      endloop
   endfacet
   facet normal 0 0 1
      outer loop
         vertex -0.00635 -0.0579662 0.2007
         vertex 1.95156e-17 -0.0616323 0.2007
         vertex -0.00119571 -0.0565553 0.2007
      endloop
   endfacet
   facet normal 0 0 1
      outer loop
         vertex 1.95156e-17 -0.0616323 0.2007
         vertex 0.0001382 -0.056849 0.2007
         vertex -0.0001382 -0.056849 0.2007
      endloop
   endfacet
   facet normal 0 0 1
      outer loop
         vertex 0.00635 -0.0579662 0.2007
         vertex 0.00241907 -0.0551151 0.2007
         vertex 0.00231677 -0.0553719 0.2007
      endloop
   endfacet
   facet normal 0 0 1
      outer loop
         vertex 0.00635 -0.0579662 0.2007
         vertex 0.00253774 -0.054576 0.2007
         vertex 0.00249302 -0.0548488 0.2007
      endloop
   endfacet
   facet normal 0 0 1
      outer loop
         vertex -0.0021873 -0.0529839 0.2007
         vertex -0.00203219 -0.0527552 0.2007
         vertex -0.00635 -0.0506338 0.2007
      endloop
   endfacet
   facet normal 0 0 1
      outer loop
         vertex -0.00165258 -0.0562456 0.2007
         vertex -0.00185325 -0.0560555 0.2007
         vertex -0.00635 -0.0579662 0.2007
      endloop
   endfacet
   facet normal 0 0 1
      outer loop
         vertex 1.95156e-17 -0.0616323 0.2007
         vertex -0.000944852 -0.0566714 0.2007
         vertex -0.00119571 -0.0565553 0.2007
      endloop
   endfacet
   facet normal 0 0 1
      outer loop
         vertex 1.95156e-17 -0.0616323 0.2007
         vertex 0.000412981 -0.0568191 0.2007
         vertex 0.0001382 -0.056849 0.2007
      endloop
   endfacet
   facet normal 0 0 1
      outer loop
         vertex 0.00249302 -0.0548488 0.2007
         vertex 0.00241907 -0.0551151 0.2007
         vertex 0.00635 -0.0579662 0.2007
      endloop
   endfacet
   facet normal 0 0 1
      outer loop
         vertex 0.00635 -0.0506338 0.2007
         vertex 0.00253774 -0.054024 0.2007
         vertex 0.0025527 -0.0543 0.2007
      endloop
   endfacet
   facet normal 0 0 1
      outer loop
         vertex -0.00241907 -0.0534849 0.2007
         vertex -0.00231677 -0.0532281 0.2007
         vertex -0.00635 -0.0506338 0.2007
      endloop
   endfacet
   facet normal 0 0 1
      outer loop
         vertex 1.95156e-17 -0.0616323 0.2007
         vertex -0.00068292 -0.0567597 0.2007
         vertex -0.000944852 -0.0566714 0.2007
      endloop
   endfacet
   facet normal 0 0 1
      outer loop
         vertex -0.0001382 -0.056849 0.2007
         vertex -0.000412981 -0.0568191 0.2007
         vertex 1.95156e-17 -0.0616323 0.2007
      endloop
   endfacet
   facet normal 0 0 1
      outer loop
         vertex 0.00635 -0.0579662 0.2007
         vertex 0.00143254 -0.0564128 0.2007
         vertex 0.00119571 -0.0565553 0.2007
      endloop
   endfacet
   facet normal 0 0 1
      outer loop
         vertex 0.00231677 -0.0553719 0.2007
         vertex 0.0021873 -0.0556161 0.2007
         vertex 0.00635 -0.0579662 0.2007
      endloop
   endfacet
   facet normal 0 0 1
      outer loop
         vertex 0.00635 -0.0506338 0.2007
         vertex 0.00249302 -0.0537512 0.2007
         vertex 0.00253774 -0.054024 0.2007
      endloop
   endfacet
   facet normal 0 0 1
      outer loop
         vertex 0.00635 -0.0506338 0.2007
         vertex 0.00231677 -0.0532281 0.2007
         vertex 0.00241907 -0.0534849 0.2007
      endloop
   endfacet
   facet normal 0 0 1
      outer loop
         vertex 0.00635 -0.0506338 0.2007
         vertex 0.00203219 -0.0527552 0.2007
         vertex 0.0021873 -0.0529839 0.2007
      endloop
   endfacet
   facet normal 0 0 1
      outer loop
         vertex 0.00635 -0.0506338 0.2007
         vertex 0.00165258 -0.0523544 0.2007
         vertex 0.00185325 -0.0525445 0.2007
      endloop
   endfacet
   facet normal 0 0 1
      outer loop
         vertex -1.38778e-17 -0.0469677 0.2007
         vertex 0.00068292 -0.0518403 0.2007
         vertex 0.000944852 -0.0519286 0.2007
      endloop
   endfacet
   facet normal 0 0 1
      outer loop
         vertex -1.38778e-17 -0.0469677 0.2007
         vertex -0.000412981 -0.0517809 0.2007
         vertex -0.0001382 -0.051751 0.2007
      endloop
   endfacet
   facet normal 0 0 1
      outer loop
         vertex -0.00119571 -0.0565553 0.2007
         vertex -0.00143254 -0.0564128 0.2007
         vertex -0.00635 -0.0579662 0.2007
      endloop
   endfacet
   facet normal 0 0 1
      outer loop
         vertex 1.95156e-17 -0.0616323 0.2007
         vertex 0.00068292 -0.0567597 0.2007
         vertex 0.000412981 -0.0568191 0.2007
      endloop
   endfacet
   facet normal 0 0 1
      outer loop
         vertex 0.00119571 -0.0565553 0.2007
         vertex 1.95156e-17 -0.0616323 0.2007
         vertex 0.00635 -0.0579662 0.2007
      endloop
   endfacet
   facet normal 0 0 1
      outer loop
         vertex 0.0021873 -0.0556161 0.2007
         vertex 0.00203219 -0.0558448 0.2007
         vertex 0.00635 -0.0579662 0.2007
      endloop
   endfacet
   facet normal 0 0 1
      outer loop
         vertex 0.00241907 -0.0534849 0.2007
         vertex 0.00249302 -0.0537512 0.2007
         vertex 0.00635 -0.0506338 0.2007
      endloop
   endfacet
   facet normal 0 0 1
      outer loop
         vertex 0.00185325 -0.0525445 0.2007
         vertex 0.00203219 -0.0527552 0.2007
         vertex 0.00635 -0.0506338 0.2007
      endloop
   endfacet
   facet normal 0 0 1
      outer loop
         vertex 0.00635 -0.0506338 0.2007
         vertex -1.38778e-17 -0.0469677 0.2007
         vertex 0.00119571 -0.0520447 0.2007
      endloop
   endfacet
   facet normal 0 0 1
      outer loop
         vertex -1.38778e-17 -0.0469677 0.2007
         vertex 0.000412981 -0.0517809 0.2007
         vertex 0.00068292 -0.0518403 0.2007
      endloop
   endfacet
   facet normal 0 0 1
      outer loop
         vertex -0.0001382 -0.051751 0.2007
         vertex 0.0001382 -0.051751 0.2007
         vertex -1.38778e-17 -0.0469677 0.2007
      endloop
   endfacet
   facet normal 0 0 1
      outer loop
         vertex -1.38778e-17 -0.0469677 0.2007
         vertex -0.00119571 -0.0520447 0.2007
         vertex -0.000944852 -0.0519286 0.2007
      endloop
   endfacet
   facet normal 0 0 1
      outer loop
         vertex -0.000412981 -0.0568191 0.2007
         vertex -0.00068292 -0.0567597 0.2007
         vertex 1.95156e-17 -0.0616323 0.2007
      endloop
   endfacet
   facet normal 0 0 1
      outer loop
         vertex 0.00119571 -0.0565553 0.2007
         vertex 0.000944852 -0.0566714 0.2007
         vertex 1.95156e-17 -0.0616323 0.2007
      endloop
   endfacet
   facet normal 0 0 1
      outer loop
         vertex 0.00635 -0.0579662 0.2007
         vertex 0.00185325 -0.0560555 0.2007
         vertex 0.00165258 -0.0562456 0.2007
      endloop
   endfacet
   facet normal 0 0 1
      outer loop
         vertex 0.00635 -0.0579662 0.2007
         vertex 0.0025527 -0.0543 0.2007
         vertex 0.00253774 -0.054576 0.2007
      endloop
   endfacet
   facet normal 0 0 1
      outer loop
         vertex 0.0021873 -0.0529839 0.2007
         vertex 0.00231677 -0.0532281 0.2007
         vertex 0.00635 -0.0506338 0.2007
      endloop
   endfacet
   facet normal 0 0 1
      outer loop
         vertex 0.00119571 -0.0520447 0.2007
         vertex 0.00143254 -0.0521872 0.2007
         vertex 0.00635 -0.0506338 0.2007
      endloop
   endfacet
   facet normal 0 0 1
      outer loop
         vertex 0.0001382 -0.051751 0.2007
         vertex 0.000412981 -0.0517809 0.2007
         vertex -1.38778e-17 -0.0469677 0.2007
      endloop
   endfacet
   facet normal 0 0 1
      outer loop
         vertex -0.000944852 -0.0519286 0.2007
         vertex -0.00068292 -0.0518403 0.2007
         vertex -1.38778e-17 -0.0469677 0.2007
      endloop
   endfacet
   facet normal 0 0 1
      outer loop
         vertex -0.00635 -0.0506338 0.2007
         vertex -0.00143254 -0.0521872 0.2007
         vertex -0.00119571 -0.0520447 0.2007
      endloop
   endfacet
   facet normal 0 0 1
      outer loop
         vertex 0.000944852 -0.0566714 0.2007
         vertex 0.00068292 -0.0567597 0.2007
         vertex 1.95156e-17 -0.0616323 0.2007
      endloop
   endfacet
   facet normal 0 0 1
      outer loop
         vertex 0.00203219 -0.0558448 0.2007
         vertex 0.00185325 -0.0560555 0.2007
         vertex 0.00635 -0.0579662 0.2007
      endloop
   endfacet
   facet normal 0 0 1
      outer loop
         vertex 0.00143254 -0.0521872 0.2007
         vertex 0.00165258 -0.0523544 0.2007
         vertex 0.00635 -0.0506338 0.2007
      endloop
   endfacet
   facet normal 0 0 1
      outer loop
         vertex -0.00068292 -0.0518403 0.2007
         vertex -0.000412981 -0.0517809 0.2007
         vertex -1.38778e-17 -0.0469677 0.2007
      endloop
   endfacet
   facet normal 0 0 1
      outer loop
         vertex -0.00635 -0.0506338 0.2007
         vertex -0.00165258 -0.0523544 0.2007
         vertex -0.00143254 -0.0521872 0.2007
      endloop
   endfacet
   facet normal 0 0 1
      outer loop
         vertex 0.00165258 -0.0562456 0.2007
         vertex 0.00143254 -0.0564128 0.2007
         vertex 0.00635 -0.0579662 0.2007
      endloop
   endfacet
   facet normal 0 0 1
      outer loop
         vertex 0.000944852 -0.0519286 0.2007
         vertex 0.00119571 -0.0520447 0.2007
         vertex -1.38778e-17 -0.0469677 0.2007
      endloop
   endfacet
   facet normal 0 0 1
      outer loop
         vertex -0.00185325 -0.0525445 0.2007
         vertex -0.00165258 -0.0523544 0.2007
         vertex -0.00635 -0.0506338 0.2007
      endloop
   endfacet
   facet normal 0 0 1
      outer loop
         vertex -0.00119571 -0.0520447 0.2007
         vertex -1.38778e-17 -0.0469677 0.2007
         vertex -0.00635 -0.0506338 0.2007
      endloop
   endfacet
   facet normal 0 0 1
      outer loop
         vertex 0.0025527 -0.0543 0.2007
         vertex 0.00635 -0.0579662 0.2007
         vertex 0.00635 -0.0506338 0.2007
      endloop
   endfacet
   facet normal 0 0 -1
      outer loop
         vertex 0.00635 -0.0506338 0.1357
         vertex 0.00253774 -0.054024 0.1357
         vertex 0.00249302 -0.0537512 0.1357
      endloop
   endfacet
   facet normal 0 0 -1
      outer loop
         vertex 0.00635 -0.0506338 0.1357
         vertex 0.00635 -0.0579662 0.1357
         vertex 0.0025527 -0.0543 0.1357
      endloop
   endfacet
   facet normal 0 0 -1
      outer loop
         vertex 0.00249302 -0.0537512 0.1357
         vertex 0.00241907 -0.0534849 0.1357
         vertex 0.00635 -0.0506338 0.1357
      endloop
   endfacet
   facet normal 0 0 -1
      outer loop
         vertex 0.00635 -0.0579662 0.1357
         vertex 0.00253774 -0.054576 0.1357
         vertex 0.0025527 -0.0543 0.1357
      endloop
   endfacet
   facet normal 0 0 -1
      outer loop
         vertex 0.0025527 -0.0543 0.1357
         vertex 0.00253774 -0.054024 0.1357
         vertex 0.00635 -0.0506338 0.1357
      endloop
   endfacet
   facet normal 0 0 -1
      outer loop
         vertex 0.00635 -0.0579662 0.1357
         vertex 0.00241907 -0.0551151 0.1357
         vertex 0.00249302 -0.0548488 0.1357
      endloop
   endfacet
   facet normal 0 0 -1
      outer loop
         vertex 0.00249302 -0.0548488 0.1357
         vertex 0.00253774 -0.054576 0.1357
         vertex 0.00635 -0.0579662 0.1357
      endloop
   endfacet
   facet normal 0 0 -1
      outer loop
         vertex 0.00635 -0.0506338 0.1357
         vertex 0.00231677 -0.0532281 0.1357
         vertex 0.0021873 -0.0529839 0.1357
      endloop
   endfacet
   facet normal 0 0 -1
      outer loop
         vertex 0.00635 -0.0579662 0.1357
         vertex 0.00231677 -0.0553719 0.1357
         vertex 0.00241907 -0.0551151 0.1357
      endloop
   endfacet
   facet normal 0 0 -1
      outer loop
         vertex 0.00635 -0.0506338 0.1357
         vertex 0.00143254 -0.0521872 0.1357
         vertex 0.00119571 -0.0520447 0.1357
      endloop
   endfacet
   facet normal 0 0 -1
      outer loop
         vertex 0.00241907 -0.0534849 0.1357
         vertex 0.00231677 -0.0532281 0.1357
         vertex 0.00635 -0.0506338 0.1357
      endloop
   endfacet
   facet normal 0 0 -1
      outer loop
         vertex 0.00635 -0.0579662 0.1357
         vertex 0.00203219 -0.0558448 0.1357
         vertex 0.0021873 -0.0556161 0.1357
      endloop
   endfacet
   facet normal 0 0 -1
      outer loop
         vertex -0.00635 -0.0506338 0.1357
         vertex -0.00253774 -0.054024 0.1357
         vertex -0.0025527 -0.0543 0.1357
      endloop
   endfacet
   facet normal 0 0 -1
      outer loop
         vertex -0.00635 -0.0506338 0.1357
         vertex -0.00241907 -0.0534849 0.1357
         vertex -0.00249302 -0.0537512 0.1357
      endloop
   endfacet
   facet normal 0 0 -1
      outer loop
         vertex 0.00635 -0.0506338 0.1357
         vertex 0.00165258 -0.0523544 0.1357
         vertex 0.00143254 -0.0521872 0.1357
      endloop
   endfacet
   facet normal 0 0 -1
      outer loop
         vertex 0.00635 -0.0506338 0.1357
         vertex 0.00203219 -0.0527552 0.1357
         vertex 0.00185325 -0.0525445 0.1357
      endloop
   endfacet
   facet normal 0 0 -1
      outer loop
         vertex 0.0021873 -0.0556161 0.1357
         vertex 0.00231677 -0.0553719 0.1357
         vertex 0.00635 -0.0579662 0.1357
      endloop
   endfacet
   facet normal 0 0 -1
      outer loop
         vertex 0.00635 -0.0579662 0.1357
         vertex 0.00165258 -0.0562456 0.1357
         vertex 0.00185325 -0.0560555 0.1357
      endloop
   endfacet
   facet normal 0 0 -1
      outer loop
         vertex -0.00249302 -0.0537512 0.1357
         vertex -0.00253774 -0.054024 0.1357
         vertex -0.00635 -0.0506338 0.1357
      endloop
   endfacet
   facet normal 0 0 -1
      outer loop
         vertex 0.00185325 -0.0525445 0.1357
         vertex 0.00165258 -0.0523544 0.1357
         vertex 0.00635 -0.0506338 0.1357
      endloop
   endfacet
   facet normal 0 0 -1
      outer loop
         vertex 0.00185325 -0.0560555 0.1357
         vertex 0.00203219 -0.0558448 0.1357
         vertex 0.00635 -0.0579662 0.1357
      endloop
   endfacet
   facet normal 0 0 -1
      outer loop
         vertex 0.00635 -0.0579662 0.1357
         vertex 1.95156e-17 -0.0616323 0.1357
         vertex 0.00119571 -0.0565553 0.1357
      endloop
   endfacet
   facet normal 0 0 -1
      outer loop
         vertex -0.00635 -0.0506338 0.1357
         vertex -0.00231677 -0.0532281 0.1357
         vertex -0.00241907 -0.0534849 0.1357
      endloop
   endfacet
   facet normal 0 0 -1
      outer loop
         vertex -0.00635 -0.0506338 0.1357
         vertex -0.00203219 -0.0527552 0.1357
         vertex -0.0021873 -0.0529839 0.1357
      endloop
   endfacet
   facet normal 0 0 -1
      outer loop
         vertex 0.0021873 -0.0529839 0.1357
         vertex 0.00203219 -0.0527552 0.1357
         vertex 0.00635 -0.0506338 0.1357
      endloop
   endfacet
   facet normal 0 0 -1
      outer loop
         vertex 0.00119571 -0.0565553 0.1357
         vertex 0.00143254 -0.0564128 0.1357
         vertex 0.00635 -0.0579662 0.1357
      endloop
   endfacet
   facet normal 0 0 -1
      outer loop
         vertex 1.95156e-17 -0.0616323 0.1357
         vertex 0.00068292 -0.0567597 0.1357
         vertex 0.000944852 -0.0566714 0.1357
      endloop
   endfacet
   facet normal 0 0 -1
      outer loop
         vertex -0.0021873 -0.0529839 0.1357
         vertex -0.00231677 -0.0532281 0.1357
         vertex -0.00635 -0.0506338 0.1357
      endloop
   endfacet
   facet normal 0 0 -1
      outer loop
         vertex -0.00635 -0.0506338 0.1357
         vertex -0.00165258 -0.0523544 0.1357
         vertex -0.00185325 -0.0525445 0.1357
      endloop
   endfacet
   facet normal 0 0 -1
      outer loop
         vertex -0.00635 -0.0506338 0.1357
         vertex -1.38778e-17 -0.0469677 0.1357
         vertex -0.00119571 -0.0520447 0.1357
      endloop
   endfacet
   facet normal 0 0 -1
      outer loop
         vertex -1.38778e-17 -0.0469677 0.1357
         vertex 0.00119571 -0.0520447 0.1357
         vertex 0.000944852 -0.0519286 0.1357
      endloop
   endfacet
   facet normal 0 0 -1
      outer loop
         vertex 0.00143254 -0.0564128 0.1357
         vertex 0.00165258 -0.0562456 0.1357
         vertex 0.00635 -0.0579662 0.1357
      endloop
   endfacet
   facet normal 0 0 -1
      outer loop
         vertex 1.95156e-17 -0.0616323 0.1357
         vertex 0.000412981 -0.0568191 0.1357
         vertex 0.00068292 -0.0567597 0.1357
      endloop
   endfacet
   facet normal 0 0 -1
      outer loop
         vertex -0.00635 -0.0579662 0.1357
         vertex -0.00231677 -0.0553719 0.1357
         vertex -0.0021873 -0.0556161 0.1357
      endloop
   endfacet
   facet normal 0 0 -1
      outer loop
         vertex -0.00635 -0.0579662 0.1357
         vertex -0.00249302 -0.0548488 0.1357
         vertex -0.00241907 -0.0551151 0.1357
      endloop
   endfacet
   facet normal 0 0 -1
      outer loop
         vertex -0.00185325 -0.0525445 0.1357
         vertex -0.00203219 -0.0527552 0.1357
         vertex -0.00635 -0.0506338 0.1357
      endloop
   endfacet
   facet normal 0 0 -1
      outer loop
         vertex -0.00119571 -0.0520447 0.1357
         vertex -0.00143254 -0.0521872 0.1357
         vertex -0.00635 -0.0506338 0.1357
      endloop
   endfacet
   facet normal 0 0 -1
      outer loop
         vertex -1.38778e-17 -0.0469677 0.1357
         vertex -0.00068292 -0.0518403 0.1357
         vertex -0.000944852 -0.0519286 0.1357
      endloop
   endfacet
   facet normal 0 0 -1
      outer loop
         vertex -1.38778e-17 -0.0469677 0.1357
         vertex 0.0001382 -0.051751 0.1357
         vertex -0.0001382 -0.051751 0.1357
      endloop
   endfacet
   facet normal 0 0 -1
      outer loop
         vertex 0.000944852 -0.0519286 0.1357
         vertex 0.00068292 -0.0518403 0.1357
         vertex -1.38778e-17 -0.0469677 0.1357
      endloop
   endfacet
   facet normal 0 0 -1
      outer loop
         vertex 0.000944852 -0.0566714 0.1357
         vertex 0.00119571 -0.0565553 0.1357
         vertex 1.95156e-17 -0.0616323 0.1357
      endloop
   endfacet
   facet normal 0 0 -1
      outer loop
         vertex -0.00241907 -0.0551151 0.1357
         vertex -0.00231677 -0.0553719 0.1357
         vertex -0.00635 -0.0579662 0.1357
      endloop
   endfacet
   facet normal 0 0 -1
      outer loop
         vertex -0.00635 -0.0579662 0.1357
         vertex -0.0025527 -0.0543 0.1357
         vertex -0.00253774 -0.054576 0.1357
      endloop
   endfacet
   facet normal 0 0 -1
      outer loop
         vertex -0.00143254 -0.0521872 0.1357
         vertex -0.00165258 -0.0523544 0.1357
         vertex -0.00635 -0.0506338 0.1357
      endloop
   endfacet
   facet normal 0 0 -1
      outer loop
         vertex -1.38778e-17 -0.0469677 0.1357
         vertex -0.000412981 -0.0517809 0.1357
         vertex -0.00068292 -0.0518403 0.1357
      endloop
   endfacet
   facet normal 0 0 -1
      outer loop
         vertex -1.38778e-17 -0.0469677 0.1357
         vertex 0.000412981 -0.0517809 0.1357
         vertex 0.0001382 -0.051751 0.1357
      endloop
   endfacet
   facet normal 0 0 -1
      outer loop
         vertex 0.00119571 -0.0520447 0.1357
         vertex -1.38778e-17 -0.0469677 0.1357
         vertex 0.00635 -0.0506338 0.1357
      endloop
   endfacet
   facet normal 0 0 -1
      outer loop
         vertex -0.00635 -0.0579662 0.1357
         vertex -0.00143254 -0.0564128 0.1357
         vertex -0.00119571 -0.0565553 0.1357
      endloop
   endfacet
   facet normal 0 0 -1
      outer loop
         vertex -0.00635 -0.0579662 0.1357
         vertex -0.00203219 -0.0558448 0.1357
         vertex -0.00185325 -0.0560555 0.1357
      endloop
   endfacet
   facet normal 0 0 -1
      outer loop
         vertex -0.00253774 -0.054576 0.1357
         vertex -0.00249302 -0.0548488 0.1357
         vertex -0.00635 -0.0579662 0.1357
      endloop
   endfacet
   facet normal 0 0 -1
      outer loop
         vertex -0.000944852 -0.0519286 0.1357
         vertex -0.00119571 -0.0520447 0.1357
         vertex -1.38778e-17 -0.0469677 0.1357
      endloop
   endfacet
   facet normal 0 0 -1
      outer loop
         vertex 0.00068292 -0.0518403 0.1357
         vertex 0.000412981 -0.0517809 0.1357
         vertex -1.38778e-17 -0.0469677 0.1357
      endloop
   endfacet
   facet normal 0 0 -1
      outer loop
         vertex 1.95156e-17 -0.0616323 0.1357
         vertex -0.0001382 -0.056849 0.1357
         vertex 0.0001382 -0.056849 0.1357
      endloop
   endfacet
   facet normal 0 0 -1
      outer loop
         vertex 1.95156e-17 -0.0616323 0.1357
         vertex -0.00119571 -0.0565553 0.1357
         vertex -0.000944852 -0.0566714 0.1357
      endloop
   endfacet
   facet normal 0 0 -1
      outer loop
         vertex -0.00635 -0.0579662 0.1357
         vertex -0.00165258 -0.0562456 0.1357
         vertex -0.00143254 -0.0564128 0.1357
      endloop
   endfacet
   facet normal 0 0 -1
      outer loop
         vertex -0.0021873 -0.0556161 0.1357
         vertex -0.00203219 -0.0558448 0.1357
         vertex -0.00635 -0.0579662 0.1357
      endloop
   endfacet
   facet normal 0 0 -1
      outer loop
         vertex -0.0001382 -0.051751 0.1357
         vertex -0.000412981 -0.0517809 0.1357
         vertex -1.38778e-17 -0.0469677 0.1357
      endloop
   endfacet
   facet normal 0 0 -1
      outer loop
         vertex 1.95156e-17 -0.0616323 0.1357
         vertex -0.000412981 -0.0568191 0.1357
         vertex -0.0001382 -0.056849 0.1357
      endloop
   endfacet
   facet normal 0 0 -1
      outer loop
         vertex -0.000944852 -0.0566714 0.1357
         vertex -0.00068292 -0.0567597 0.1357
         vertex 1.95156e-17 -0.0616323 0.1357
      endloop
   endfacet
   facet normal 0 0 -1
      outer loop
         vertex -0.00185325 -0.0560555 0.1357
         vertex -0.00165258 -0.0562456 0.1357
         vertex -0.00635 -0.0579662 0.1357
      endloop
   endfacet
   facet normal 0 0 -1
      outer loop
         vertex 0.0001382 -0.056849 0.1357
         vertex 0.000412981 -0.0568191 0.1357
         vertex 1.95156e-17 -0.0616323 0.1357
      endloop
   endfacet
   facet normal 0 0 -1
      outer loop
         vertex -0.00119571 -0.0565553 0.1357
         vertex 1.95156e-17 -0.0616323 0.1357
         vertex -0.00635 -0.0579662 0.1357
      endloop
   endfacet
   facet normal 0 0 -1
      outer loop
         vertex -0.00068292 -0.0567597 0.1357
         vertex -0.000412981 -0.0568191 0.1357
         vertex 1.95156e-17 -0.0616323 0.1357
      endloop
   endfacet
   facet normal 0 0 -1
      outer loop
         vertex -0.0025527 -0.0543 0.1357
         vertex -0.00635 -0.0579662 0.1357
         vertex -0.00635 -0.0506338 0.1357
      endloop
   endfacet
   facet normal -1 -2.36585e-15 0
      outer loop
         vertex -0.00635 -0.0506338 0.1357
         vertex -0.00635 -0.0579662 0.1357
         vertex -0.00635 -0.0579662 0.2007
      endloop
   endfacet
   facet normal -1 -2.36585e-15 0
      outer loop
         vertex -0.00635 -0.0579662 0.2007
         vertex -0.00635 -0.0506338 0.2007
         vertex -0.00635 -0.0506338 0.1357
      endloop
   endfacet
   facet normal -0.5 0.866025 0
      outer loop
         vertex -1.38778e-17 -0.0469677 0.1357
         vertex -0.00635 -0.0506338 0.1357
         vertex -0.00635 -0.0506338 0.2007
      endloop
   endfacet
   facet normal -0.5 0.866025 0
      outer loop
         vertex -0.00635 -0.0506338 0.2007
         vertex -1.38778e-17 -0.0469677 0.2007
         vertex -1.38778e-17 -0.0469677 0.1357
      endloop
   endfacet
   facet normal 0.5 0.866025 0
      outer loop
         vertex 0.00635 -0.0506338 0.1357
         vertex -1.38778e-17 -0.0469677 0.1357
         vertex -1.38778e-17 -0.0469677 0.2007
      endloop
   endfacet
   facet normal 0.5 0.866025 0
      outer loop
         vertex -1.38778e-17 -0.0469677 0.2007
         vertex 0.00635 -0.0506338 0.2007
         vertex 0.00635 -0.0506338 0.1357
      endloop
   endfacet
   facet normal -0.5 -0.866025 0
      outer loop
         vertex -0.00635 -0.0579662 0.1357
         vertex 1.95156e-17 -0.0616323 0.1357
         vertex 1.95156e-17 -0.0616323 0.2007
      endloop
   endfacet
   facet normal -0.5 -0.866025 0
      outer loop
         vertex 1.95156e-17 -0.0616323 0.2007
         vertex -0.00635 -0.0579662 0.2007
         vertex -0.00635 -0.0579662 0.1357
      endloop
   endfacet
   facet normal 1 2.36585e-15 0
      outer loop
         vertex 0.00635 -0.0579662 0.1357
         vertex 0.00635 -0.0506338 0.1357
         vertex 0.00635 -0.0506338 0.2007
      endloop
   endfacet
   facet normal 1 2.36585e-15 0
      outer loop
         vertex 0.00635 -0.0506338 0.2007
         vertex 0.00635 -0.0579662 0.2007
         vertex 0.00635 -0.0579662 0.1357
      endloop
   endfacet
   facet normal 0.5 -0.866025 0
      outer loop
         vertex 1.95156e-17 -0.0616323 0.1357
         vertex 0.00635 -0.0579662 0.1357
         vertex 0.00635 -0.0579662 0.2007
      endloop
   endfacet
   facet normal 0.5 -0.866025 0
      outer loop
         vertex 0.00635 -0.0579662 0.2007
         vertex 1.95156e-17 -0.0616323 0.2007
         vertex 1.95156e-17 -0.0616323 0.1357
      endloop
   endfacet
endsolid Encoder standoff. Units = meters