solid FID_40_80SM. STL generated by ONSHAPE BY PTC INC, 1.216. Units = meters
   facet normal -0.130157 0.991493 0
      outer loop
         vertex 0 0.000508 0
         vertex -0.000131572 0.000490728 0
         vertex -0.000131572 0.000490728 5e-05
      endloop
   endfacet
   facet normal -0.130157 0.991493 0
      outer loop
         vertex -0.000131572 0.000490728 5e-05
         vertex 0 0.000508 5e-05
         vertex 0 0.000508 0
      endloop
   endfacet
   facet normal -0.383254 0.923643 0
      outer loop
         vertex -0.000131572 0.000490728 0
         vertex -0.000254 0.000439928 0
         vertex -0.000254 0.000439928 5e-05
      endloop
   endfacet
   facet normal -0.383254 0.923643 0
      outer loop
         vertex -0.000254 0.000439928 5e-05
         vertex -0.000131572 0.000490728 5e-05
         vertex -0.000131572 0.000490728 0
      endloop
   endfacet
   facet normal -0.609155 0.793051 0
      outer loop
         vertex -0.000254 0.000439928 0
         vertex -0.000359156 0.000359156 0
         vertex -0.000359156 0.000359156 5e-05
      endloop
   endfacet
   facet normal -0.609155 0.793051 0
      outer loop
         vertex -0.000359156 0.000359156 5e-05
         vertex -0.000254 0.000439928 5e-05
         vertex -0.000254 0.000439928 0
      endloop
   endfacet
   facet normal -0.793051 0.609155 0
      outer loop
         vertex -0.000359156 0.000359156 0
         vertex -0.000439928 0.000254 0
         vertex -0.000439928 0.000254 5e-05
      endloop
   endfacet
   facet normal -0.793051 0.609155 0
      outer loop
         vertex -0.000439928 0.000254 5e-05
         vertex -0.000359156 0.000359156 5e-05
         vertex -0.000359156 0.000359156 0
      endloop
   endfacet
   facet normal -0.923643 0.383254 0
      outer loop
         vertex -0.000439928 0.000254 0
         vertex -0.000490728 0.000131572 0
         vertex -0.000490728 0.000131572 5e-05
      endloop
   endfacet
   facet normal -0.923643 0.383254 0
      outer loop
         vertex -0.000490728 0.000131572 5e-05
         vertex -0.000439928 0.000254 5e-05
         vertex -0.000439928 0.000254 0
      endloop
   endfacet
   facet normal -0.991493 0.130157 0
      outer loop
         vertex -0.000490728 0.000131572 0
         vertex -0.000508 0 0
         vertex -0.000508 0 5e-05
      endloop
   endfacet
   facet normal -0.991493 0.130157 0
      outer loop
         vertex -0.000508 0 5e-05
         vertex -0.000490728 0.000131572 5e-05
         vertex -0.000490728 0.000131572 0
      endloop
   endfacet
   facet normal -0.991493 -0.130157 0
      outer loop
         vertex -0.000508 0 0
         vertex -0.000490728 -0.000131572 0
         vertex -0.000490728 -0.000131572 5e-05
      endloop
   endfacet
   facet normal -0.991493 -0.130157 0
      outer loop
         vertex -0.000490728 -0.000131572 5e-05
         vertex -0.000508 0 5e-05
         vertex -0.000508 0 0
      endloop
   endfacet
   facet normal -0.923643 -0.383254 0
      outer loop
         vertex -0.000490728 -0.000131572 0
         vertex -0.000439928 -0.000254 0
         vertex -0.000439928 -0.000254 5e-05
      endloop
   endfacet
   facet normal -0.923643 -0.383254 0
      outer loop
         vertex -0.000439928 -0.000254 5e-05
         vertex -0.000490728 -0.000131572 5e-05
         vertex -0.000490728 -0.000131572 0
      endloop
   endfacet
   facet normal -0.793051 -0.609155 0
      outer loop
         vertex -0.000439928 -0.000254 0
         vertex -0.000359156 -0.000359156 0
         vertex -0.000359156 -0.000359156 5e-05
      endloop
   endfacet
   facet normal -0.793051 -0.609155 0
      outer loop
         vertex -0.000359156 -0.000359156 5e-05
         vertex -0.000439928 -0.000254 5e-05
         vertex -0.000439928 -0.000254 0
      endloop
   endfacet
   facet normal -0.609155 -0.793051 0
      outer loop
         vertex -0.000359156 -0.000359156 0
         vertex -0.000254 -0.000439928 0
         vertex -0.000254 -0.000439928 5e-05
      endloop
   endfacet
   facet normal -0.609155 -0.793051 0
      outer loop
         vertex -0.000254 -0.000439928 5e-05
         vertex -0.000359156 -0.000359156 5e-05
         vertex -0.000359156 -0.000359156 0
      endloop
   endfacet
   facet normal 0.130157 0.991493 0
      outer loop
         vertex 0.000131572 0.000490728 0
         vertex 0 0.000508 0
         vertex 0 0.000508 5e-05
      endloop
   endfacet
   facet normal 0.130157 0.991493 0
      outer loop
         vertex 0 0.000508 5e-05
         vertex 0.000131572 0.000490728 5e-05
         vertex 0.000131572 0.000490728 0
      endloop
   endfacet
   facet normal 0.383254 0.923643 0
      outer loop
         vertex 0.000254 0.000439928 0
         vertex 0.000131572 0.000490728 0
         vertex 0.000131572 0.000490728 5e-05
      endloop
   endfacet
   facet normal 0.383254 0.923643 0
      outer loop
         vertex 0.000131572 0.000490728 5e-05
         vertex 0.000254 0.000439928 5e-05
         vertex 0.000254 0.000439928 0
      endloop
   endfacet
   facet normal 0.609155 0.793051 0
      outer loop
         vertex 0.000359156 0.000359156 0
         vertex 0.000254 0.000439928 0
         vertex 0.000254 0.000439928 5e-05
      endloop
   endfacet
   facet normal 0.609155 0.793051 0
      outer loop
         vertex 0.000254 0.000439928 5e-05
         vertex 0.000359156 0.000359156 5e-05
         vertex 0.000359156 0.000359156 0
      endloop
   endfacet
   facet normal 0.793051 0.609155 0
      outer loop
         vertex 0.000439928 0.000254 0
         vertex 0.000359156 0.000359156 0
         vertex 0.000359156 0.000359156 5e-05
      endloop
   endfacet
   facet normal 0.793051 0.609155 0
      outer loop
         vertex 0.000359156 0.000359156 5e-05
         vertex 0.000439928 0.000254 5e-05
         vertex 0.000439928 0.000254 0
      endloop
   endfacet
   facet normal 0.923643 0.383254 0
      outer loop
         vertex 0.000490728 0.000131572 0
         vertex 0.000439928 0.000254 0
         vertex 0.000439928 0.000254 5e-05
      endloop
   endfacet
   facet normal 0.923643 0.383254 0
      outer loop
         vertex 0.000439928 0.000254 5e-05
         vertex 0.000490728 0.000131572 5e-05
         vertex 0.000490728 0.000131572 0
      endloop
   endfacet
   facet normal 0.991493 0.130157 0
      outer loop
         vertex 0.000508 0 0
         vertex 0.000490728 0.000131572 0
         vertex 0.000490728 0.000131572 5e-05
      endloop
   endfacet
   facet normal 0.991493 0.130157 0
      outer loop
         vertex 0.000490728 0.000131572 5e-05
         vertex 0.000508 0 5e-05
         vertex 0.000508 0 0
      endloop
   endfacet
   facet normal 0.991493 -0.130157 0
      outer loop
         vertex 0.000490728 -0.000131572 0
         vertex 0.000508 0 0
         vertex 0.000508 0 5e-05
      endloop
   endfacet
   facet normal 0.991493 -0.130157 0
      outer loop
         vertex 0.000508 0 5e-05
         vertex 0.000490728 -0.000131572 5e-05
         vertex 0.000490728 -0.000131572 0
      endloop
   endfacet
   facet normal 0.923643 -0.383254 0
      outer loop
         vertex 0.000439928 -0.000254 0
         vertex 0.000490728 -0.000131572 0
         vertex 0.000490728 -0.000131572 5e-05
      endloop
   endfacet
   facet normal 0.923643 -0.383254 0
      outer loop
         vertex 0.000490728 -0.000131572 5e-05
         vertex 0.000439928 -0.000254 5e-05
         vertex 0.000439928 -0.000254 0
      endloop
   endfacet
   facet normal 0.793051 -0.609155 0
      outer loop
         vertex 0.000359156 -0.000359156 0
         vertex 0.000439928 -0.000254 0
         vertex 0.000439928 -0.000254 5e-05
      endloop
   endfacet
   facet normal 0.793051 -0.609155 0
      outer loop
         vertex 0.000439928 -0.000254 5e-05
         vertex 0.000359156 -0.000359156 5e-05
         vertex 0.000359156 -0.000359156 0
      endloop
   endfacet
   facet normal 0.609155 -0.793051 0
      outer loop
         vertex 0.000254 -0.000439928 0
         vertex 0.000359156 -0.000359156 0
         vertex 0.000359156 -0.000359156 5e-05
      endloop
   endfacet
   facet normal 0.609155 -0.793051 0
      outer loop
         vertex 0.000359156 -0.000359156 5e-05
         vertex 0.000254 -0.000439928 5e-05
         vertex 0.000254 -0.000439928 0
      endloop
   endfacet
   facet normal 0.383254 -0.923643 0
      outer loop
         vertex 0.000131572 -0.000490728 0
         vertex 0.000254 -0.000439928 0
         vertex 0.000254 -0.000439928 5e-05
      endloop
   endfacet
   facet normal 0.383254 -0.923643 0
      outer loop
         vertex 0.000254 -0.000439928 5e-05
         vertex 0.000131572 -0.000490728 5e-05
         vertex 0.000131572 -0.000490728 0
      endloop
   endfacet
   facet normal 0 0 1
      outer loop
         vertex 0.000359156 -0.000359156 5e-05
         vertex -0.000254 -0.000439928 5e-05
         vertex -0.000131572 -0.000490728 5e-05
      endloop
   endfacet
   facet normal 0 0 1
      outer loop
         vertex 0.000359156 -0.000359156 5e-05
         vertex -0.000508 0 5e-05
         vertex -0.000490728 -0.000131572 5e-05
      endloop
   endfacet
   facet normal 0 0 1
      outer loop
         vertex 0.000359156 -0.000359156 5e-05
         vertex -0.000439928 0.000254 5e-05
         vertex -0.000490728 0.000131572 5e-05
      endloop
   endfacet
   facet normal 0 0 1
      outer loop
         vertex -0.000359156 0.000359156 5e-05
         vertex 0.000254 0.000439928 5e-05
         vertex 0.000131572 0.000490728 5e-05
      endloop
   endfacet
   facet normal 0 0 1
      outer loop
         vertex -0.000359156 0.000359156 5e-05
         vertex 0.000508 0 5e-05
         vertex 0.000490728 0.000131572 5e-05
      endloop
   endfacet
   facet normal 0 0 1
      outer loop
         vertex -0.000359156 0.000359156 5e-05
         vertex 0.000439928 -0.000254 5e-05
         vertex 0.000490728 -0.000131572 5e-05
      endloop
   endfacet
   facet normal 0 0 1
      outer loop
         vertex 0 -0.000508 5e-05
         vertex 0.000131572 -0.000490728 5e-05
         vertex 0.000254 -0.000439928 5e-05
      endloop
   endfacet
   facet normal 0 0 1
      outer loop
         vertex 0.000359156 -0.000359156 5e-05
         vertex -0.000359156 -0.000359156 5e-05
         vertex -0.000254 -0.000439928 5e-05
      endloop
   endfacet
   facet normal 0 0 1
      outer loop
         vertex -0.000490728 -0.000131572 5e-05
         vertex -0.000439928 -0.000254 5e-05
         vertex 0.000359156 -0.000359156 5e-05
      endloop
   endfacet
   facet normal 0 0 1
      outer loop
         vertex 0.000359156 -0.000359156 5e-05
         vertex -0.000359156 0.000359156 5e-05
         vertex -0.000439928 0.000254 5e-05
      endloop
   endfacet
   facet normal 0 0 1
      outer loop
         vertex 0 0.000508 5e-05
         vertex -0.000131572 0.000490728 5e-05
         vertex -0.000254 0.000439928 5e-05
      endloop
   endfacet
   facet normal 0 0 1
      outer loop
         vertex -0.000359156 0.000359156 5e-05
         vertex 0.000359156 0.000359156 5e-05
         vertex 0.000254 0.000439928 5e-05
      endloop
   endfacet
   facet normal 0 0 1
      outer loop
         vertex 0.000490728 0.000131572 5e-05
         vertex 0.000439928 0.000254 5e-05
         vertex -0.000359156 0.000359156 5e-05
      endloop
   endfacet
   facet normal 0 0 1
      outer loop
         vertex -0.000359156 0.000359156 5e-05
         vertex 0.000359156 -0.000359156 5e-05
         vertex 0.000439928 -0.000254 5e-05
      endloop
   endfacet
   facet normal 0 0 1
      outer loop
         vertex -0.000131572 -0.000490728 5e-05
         vertex 0 -0.000508 5e-05
         vertex 0.000359156 -0.000359156 5e-05
      endloop
   endfacet
   facet normal 0 0 1
      outer loop
         vertex -0.000490728 0.000131572 5e-05
         vertex -0.000508 0 5e-05
         vertex 0.000359156 -0.000359156 5e-05
      endloop
   endfacet
   facet normal 0 0 1
      outer loop
         vertex 0.000131572 0.000490728 5e-05
         vertex 0 0.000508 5e-05
         vertex -0.000359156 0.000359156 5e-05
      endloop
   endfacet
   facet normal 0 0 1
      outer loop
         vertex 0.000490728 -0.000131572 5e-05
         vertex 0.000508 0 5e-05
         vertex -0.000359156 0.000359156 5e-05
      endloop
   endfacet
   facet normal 0 0 1
      outer loop
         vertex -0.000439928 -0.000254 5e-05
         vertex -0.000359156 -0.000359156 5e-05
         vertex 0.000359156 -0.000359156 5e-05
      endloop
   endfacet
   facet normal 0 0 1
      outer loop
         vertex 0.000439928 0.000254 5e-05
         vertex 0.000359156 0.000359156 5e-05
         vertex -0.000359156 0.000359156 5e-05
      endloop
   endfacet
   facet normal 0 0 1
      outer loop
         vertex -0.000254 0.000439928 5e-05
         vertex -0.000359156 0.000359156 5e-05
         vertex 0 0.000508 5e-05
      endloop
   endfacet
   facet normal 0 0 1
      outer loop
         vertex 0.000254 -0.000439928 5e-05
         vertex 0.000359156 -0.000359156 5e-05
         vertex 0 -0.000508 5e-05
      endloop
   endfacet
   facet normal 0 0 -1
      outer loop
         vertex -0.000359156 -0.000359156 0
         vertex 0.000254 -0.000439928 0
         vertex 0.000131572 -0.000490728 0
      endloop
   endfacet
   facet normal 0 0 -1
      outer loop
         vertex -0.000359156 -0.000359156 0
         vertex 0.000508 0 0
         vertex 0.000490728 -0.000131572 0
      endloop
   endfacet
   facet normal 0 0 -1
      outer loop
         vertex -0.000359156 -0.000359156 0
         vertex 0.000439928 0.000254 0
         vertex 0.000490728 0.000131572 0
      endloop
   endfacet
   facet normal 0 0 -1
      outer loop
         vertex 0.000359156 0.000359156 0
         vertex -0.000254 0.000439928 0
         vertex -0.000131572 0.000490728 0
      endloop
   endfacet
   facet normal 0 0 -1
      outer loop
         vertex 0.000359156 0.000359156 0
         vertex -0.000508 0 0
         vertex -0.000490728 0.000131572 0
      endloop
   endfacet
   facet normal 0 0 -1
      outer loop
         vertex 0.000359156 0.000359156 0
         vertex -0.000439928 -0.000254 0
         vertex -0.000490728 -0.000131572 0
      endloop
   endfacet
   facet normal 0 0 -1
      outer loop
         vertex 0 -0.000508 0
         vertex -0.000131572 -0.000490728 0
         vertex -0.000254 -0.000439928 0
      endloop
   endfacet
   facet normal 0 0 -1
      outer loop
         vertex -0.000359156 -0.000359156 0
         vertex 0.000359156 -0.000359156 0
         vertex 0.000254 -0.000439928 0
      endloop
   endfacet
   facet normal 0 0 -1
      outer loop
         vertex 0.000490728 -0.000131572 0
         vertex 0.000439928 -0.000254 0
         vertex -0.000359156 -0.000359156 0
      endloop
   endfacet
   facet normal 0 0 -1
      outer loop
         vertex -0.000359156 -0.000359156 0
         vertex 0.000359156 0.000359156 0
         vertex 0.000439928 0.000254 0
      endloop
   endfacet
   facet normal 0 0 -1
      outer loop
         vertex 0 0.000508 0
         vertex 0.000131572 0.000490728 0
         vertex 0.000254 0.000439928 0
      endloop
   endfacet
   facet normal 0 0 -1
      outer loop
         vertex 0.000359156 0.000359156 0
         vertex -0.000359156 0.000359156 0
         vertex -0.000254 0.000439928 0
      endloop
   endfacet
   facet normal 0 0 -1
      outer loop
         vertex -0.000490728 0.000131572 0
         vertex -0.000439928 0.000254 0
         vertex 0.000359156 0.000359156 0
      endloop
   endfacet
   facet normal 0 0 -1
      outer loop
         vertex 0.000359156 0.000359156 0
         vertex -0.000359156 -0.000359156 0
         vertex -0.000439928 -0.000254 0
      endloop
   endfacet
   facet normal 0 0 -1
      outer loop
         vertex 0.000131572 -0.000490728 0
         vertex 0 -0.000508 0
         vertex -0.000359156 -0.000359156 0
      endloop
   endfacet
   facet normal 0 0 -1
      outer loop
         vertex 0.000490728 0.000131572 0
         vertex 0.000508 0 0
         vertex -0.000359156 -0.000359156 0
      endloop
   endfacet
   facet normal 0 0 -1
      outer loop
         vertex -0.000131572 0.000490728 0
         vertex 0 0.000508 0
         vertex 0.000359156 0.000359156 0
      endloop
   endfacet
   facet normal 0 0 -1
      outer loop
         vertex -0.000490728 -0.000131572 0
         vertex -0.000508 0 0
         vertex 0.000359156 0.000359156 0
      endloop
   endfacet
   facet normal 0 0 -1
      outer loop
         vertex 0.000439928 -0.000254 0
         vertex 0.000359156 -0.000359156 0
         vertex -0.000359156 -0.000359156 0
      endloop
   endfacet
   facet normal 0 0 -1
      outer loop
         vertex -0.000439928 0.000254 0
         vertex -0.000359156 0.000359156 0
         vertex 0.000359156 0.000359156 0
      endloop
   endfacet
   facet normal 0 0 -1
      outer loop
         vertex 0.000254 0.000439928 0
         vertex 0.000359156 0.000359156 0
         vertex 0 0.000508 0
      endloop
   endfacet
   facet normal 0 0 -1
      outer loop
         vertex -0.000254 -0.000439928 0
         vertex -0.000359156 -0.000359156 0
         vertex 0 -0.000508 0
      endloop
   endfacet
   facet normal -0.130157 -0.991493 0
      outer loop
         vertex -0.000131572 -0.000490728 0
         vertex 0 -0.000508 0
         vertex 0 -0.000508 5e-05
      endloop
   endfacet
   facet normal -0.130157 -0.991493 0
      outer loop
         vertex 0 -0.000508 5e-05
         vertex -0.000131572 -0.000490728 5e-05
         vertex -0.000131572 -0.000490728 0
      endloop
   endfacet
   facet normal 0.130157 -0.991493 0
      outer loop
         vertex 0 -0.000508 0
         vertex 0.000131572 -0.000490728 0
         vertex 0.000131572 -0.000490728 5e-05
      endloop
   endfacet
   facet normal 0.130157 -0.991493 0
      outer loop
         vertex 0.000131572 -0.000490728 5e-05
         vertex 0 -0.000508 5e-05
         vertex 0 -0.000508 0
      endloop
   endfacet
   facet normal -0.383254 -0.923643 0
      outer loop
         vertex -0.000254 -0.000439928 0
         vertex -0.000131572 -0.000490728 0
         vertex -0.000131572 -0.000490728 5e-05
      endloop
   endfacet
   facet normal -0.383254 -0.923643 0
      outer loop
         vertex -0.000131572 -0.000490728 5e-05
         vertex -0.000254 -0.000439928 5e-05
         vertex -0.000254 -0.000439928 0
      endloop
   endfacet
endsolid FID_40_80SM. Units = meters