solid FID_40_80SM. STL generated by ONSHAPE BY PTC INC, 1.216. Units = meters
   facet normal 1 0 0
      outer loop
         vertex 0.001143 -2.79954e-19 5e-05
         vertex 0.001143 -2.79954e-19 0
         vertex 0.0011363 0.00012358 0
      endloop
   endfacet
   facet normal 0.994138 0.108119 0
      outer loop
         vertex 0.0011363 0.00012358 5e-05
         vertex 0.0011363 0.00012358 0
         vertex 0.00111628 0.000245711 0
      endloop
   endfacet
   facet normal 0.976621 0.21497 0
      outer loop
         vertex 0.00111628 0.000245711 5e-05
         vertex 0.00111628 0.000245711 0
         vertex 0.00108317 0.000364962 0
      endloop
   endfacet
   facet normal 0.947653 0.319302 0
      outer loop
         vertex 0.00108317 0.000364962 5e-05
         vertex 0.00108317 0.000364962 0
         vertex 0.00103736 0.000479933 0
      endloop
   endfacet
   facet normal 0.907575 0.419889 0
      outer loop
         vertex 0.00103736 0.000479933 5e-05
         vertex 0.00103736 0.000479933 0
         vertex 0.000979388 0.000589278 0
      endloop
   endfacet
   facet normal 0.856857 0.515554 0
      outer loop
         vertex 0.000979388 0.000589278 5e-05
         vertex 0.000979388 0.000589278 0
         vertex 0.000909934 0.000691714 0
      endloop
   endfacet
   facet normal 0.796093 0.605174 0
      outer loop
         vertex 0.000909934 0.000691714 5e-05
         vertex 0.000909934 0.000691714 0
         vertex 0.000829813 0.00078604 0
      endloop
   endfacet
   facet normal 0.725995 0.687699 0
      outer loop
         vertex 0.000829813 0.00078604 5e-05
         vertex 0.000829813 0.00078604 0
         vertex 0.000739963 0.000871151 0
      endloop
   endfacet
   facet normal 0.647386 0.762162 0
      outer loop
         vertex 0.000739963 0.000871151 5e-05
         vertex 0.000739963 0.000871151 0
         vertex 0.000641437 0.000946049 0
      endloop
   endfacet
   facet normal 0.561187 0.827689 0
      outer loop
         vertex 0.000641437 0.000946049 5e-05
         vertex 0.000641437 0.000946049 0
         vertex 0.000535391 0.00100985 0
      endloop
   endfacet
   facet normal 0.468408 0.883512 0
      outer loop
         vertex 0.000535391 0.00100985 5e-05
         vertex 0.000535391 0.00100985 0
         vertex 0.000423068 0.00106182 0
      endloop
   endfacet
   facet normal 0.370138 0.928977 0
      outer loop
         vertex 0.000423068 0.00106182 5e-05
         vertex 0.000423068 0.00106182 0
         vertex 0.000305785 0.00110134 0
      endloop
   endfacet
   facet normal 0.267528 0.96355 0
      outer loop
         vertex 0.000305785 0.00110134 5e-05
         vertex 0.000305785 0.00110134 0
         vertex 0.000184917 0.00112794 0
      endloop
   endfacet
   facet normal 0.161782 0.986827 0
      outer loop
         vertex 0.000184917 0.00112794 5e-05
         vertex 0.000184917 0.00112794 0
         vertex 6.18808e-05 0.00114132 0
      endloop
   endfacet
   facet normal 0.0541389 0.998533 0
      outer loop
         vertex 6.18808e-05 0.00114132 5e-05
         vertex 6.18808e-05 0.00114132 0
         vertex -6.18808e-05 0.00114132 0
      endloop
   endfacet
   facet normal -0.0541389 0.998533 0
      outer loop
         vertex -6.18808e-05 0.00114132 5e-05
         vertex -6.18808e-05 0.00114132 0
         vertex -0.000184917 0.00112794 0
      endloop
   endfacet
   facet normal -0.161782 0.986827 0
      outer loop
         vertex -0.000184917 0.00112794 5e-05
         vertex -0.000184917 0.00112794 0
         vertex -0.000305785 0.00110134 0
      endloop
   endfacet
   facet normal -0.267528 0.96355 0
      outer loop
         vertex -0.000305785 0.00110134 5e-05
         vertex -0.000305785 0.00110134 0
         vertex -0.000423068 0.00106182 0
      endloop
   endfacet
   facet normal -0.370138 0.928977 0
      outer loop
         vertex -0.000423068 0.00106182 5e-05
         vertex -0.000423068 0.00106182 0
         vertex -0.000535391 0.00100985 0
      endloop
   endfacet
   facet normal -0.468408 0.883512 0
      outer loop
         vertex -0.000535391 0.00100985 5e-05
         vertex -0.000535391 0.00100985 0
         vertex -0.000641437 0.000946049 0
      endloop
   endfacet
   facet normal -0.561187 0.827689 0
      outer loop
         vertex -0.000641437 0.000946049 5e-05
         vertex -0.000641437 0.000946049 0
         vertex -0.000739963 0.000871151 0
      endloop
   endfacet
   facet normal -0.647386 0.762162 0
      outer loop
         vertex -0.000739963 0.000871151 5e-05
         vertex -0.000739963 0.000871151 0
         vertex -0.000829813 0.00078604 0
      endloop
   endfacet
   facet normal -0.725995 0.687699 0
      outer loop
         vertex -0.000829813 0.00078604 5e-05
         vertex -0.000829813 0.00078604 0
         vertex -0.000909934 0.000691714 0
      endloop
   endfacet
   facet normal -0.796093 0.605174 0
      outer loop
         vertex -0.000909934 0.000691714 5e-05
         vertex -0.000909934 0.000691714 0
         vertex -0.000979388 0.000589278 0
      endloop
   endfacet
   facet normal -0.856857 0.515554 0
      outer loop
         vertex -0.000979388 0.000589278 5e-05
         vertex -0.000979388 0.000589278 0
         vertex -0.00103736 0.000479933 0
      endloop
   endfacet
   facet normal -0.907575 0.419889 0
      outer loop
         vertex -0.00103736 0.000479933 5e-05
         vertex -0.00103736 0.000479933 0
         vertex -0.00108317 0.000364962 0
      endloop
   endfacet
   facet normal -0.947653 0.319302 0
      outer loop
         vertex -0.00108317 0.000364962 5e-05
         vertex -0.00108317 0.000364962 0
         vertex -0.00111628 0.000245711 0
      endloop
   endfacet
   facet normal -0.976621 0.21497 0
      outer loop
         vertex -0.00111628 0.000245711 5e-05
         vertex -0.00111628 0.000245711 0
         vertex -0.0011363 0.00012358 0
      endloop
   endfacet
   facet normal -0.994138 0.108119 0
      outer loop
         vertex -0.0011363 0.00012358 5e-05
         vertex -0.0011363 0.00012358 0
         vertex -0.001143 1.39977e-19 0
      endloop
   endfacet
   facet normal -1 1.22465e-16 0
      outer loop
         vertex -0.001143 1.39977e-19 5e-05
         vertex -0.001143 1.39977e-19 0
         vertex -0.0011363 -0.00012358 0
      endloop
   endfacet
   facet normal -0.994138 -0.108119 0
      outer loop
         vertex -0.0011363 -0.00012358 5e-05
         vertex -0.0011363 -0.00012358 0
         vertex -0.00111628 -0.000245711 0
      endloop
   endfacet
   facet normal -0.976621 -0.21497 0
      outer loop
         vertex -0.00111628 -0.000245711 5e-05
         vertex -0.00111628 -0.000245711 0
         vertex -0.00108317 -0.000364962 0
      endloop
   endfacet
   facet normal -0.947653 -0.319302 0
      outer loop
         vertex -0.00108317 -0.000364962 5e-05
         vertex -0.00108317 -0.000364962 0
         vertex -0.00103736 -0.000479933 0
      endloop
   endfacet
   facet normal -0.907575 -0.419889 0
      outer loop
         vertex -0.00103736 -0.000479933 5e-05
         vertex -0.00103736 -0.000479933 0
         vertex -0.000979388 -0.000589278 0
      endloop
   endfacet
   facet normal -0.856857 -0.515554 0
      outer loop
         vertex -0.000979388 -0.000589278 5e-05
         vertex -0.000979388 -0.000589278 0
         vertex -0.000909934 -0.000691714 0
      endloop
   endfacet
   facet normal -0.796093 -0.605174 0
      outer loop
         vertex -0.000909934 -0.000691714 5e-05
         vertex -0.000909934 -0.000691714 0
         vertex -0.000829813 -0.00078604 0
      endloop
   endfacet
   facet normal -0.725995 -0.687699 0
      outer loop
         vertex -0.000829813 -0.00078604 5e-05
         vertex -0.000829813 -0.00078604 0
         vertex -0.000739963 -0.000871151 0
      endloop
   endfacet
   facet normal -0.647386 -0.762162 0
      outer loop
         vertex -0.000739963 -0.000871151 5e-05
         vertex -0.000739963 -0.000871151 0
         vertex -0.000641437 -0.000946049 0
      endloop
   endfacet
   facet normal -0.561187 -0.827689 0
      outer loop
         vertex -0.000641437 -0.000946049 5e-05
         vertex -0.000641437 -0.000946049 0
         vertex -0.000535391 -0.00100985 0
      endloop
   endfacet
   facet normal -0.468408 -0.883512 0
      outer loop
         vertex -0.000535391 -0.00100985 5e-05
         vertex -0.000535391 -0.00100985 0
         vertex -0.000423068 -0.00106182 0
      endloop
   endfacet
   facet normal -0.370138 -0.928977 0
      outer loop
         vertex -0.000423068 -0.00106182 5e-05
         vertex -0.000423068 -0.00106182 0
         vertex -0.000305785 -0.00110134 0
      endloop
   endfacet
   facet normal -0.267528 -0.96355 0
      outer loop
         vertex -0.000305785 -0.00110134 5e-05
         vertex -0.000305785 -0.00110134 0
         vertex -0.000184917 -0.00112794 0
      endloop
   endfacet
   facet normal -0.161782 -0.986827 0
      outer loop
         vertex -0.000184917 -0.00112794 5e-05
         vertex -0.000184917 -0.00112794 0
         vertex -6.18808e-05 -0.00114132 0
      endloop
   endfacet
   facet normal 0.0541389 -0.998533 0
      outer loop
         vertex 6.18808e-05 -0.00114132 0
         vertex 6.18808e-05 -0.00114132 5e-05
         vertex -2.09966e-19 -0.001143 5e-05
      endloop
   endfacet
   facet normal -0.0541389 -0.998533 0
      outer loop
         vertex -6.18808e-05 -0.00114132 5e-05
         vertex -6.18808e-05 -0.00114132 0
         vertex -4.8992e-19 -0.001143 0
      endloop
   endfacet
   facet normal -1.83697e-16 -1 0
      outer loop
         vertex -4.8992e-19 -0.001143 0
         vertex -2.09966e-19 -0.001143 5e-05
         vertex -6.18808e-05 -0.00114132 5e-05
      endloop
   endfacet
   facet normal 0.0541389 -0.998533 0
      outer loop
         vertex 6.18808e-05 -0.00114132 5e-05
         vertex 6.18808e-05 -0.00114132 0
         vertex 0.000184917 -0.00112794 0
      endloop
   endfacet
   facet normal 0.161782 -0.986827 0
      outer loop
         vertex 0.000184917 -0.00112794 5e-05
         vertex 0.000184917 -0.00112794 0
         vertex 0.000305785 -0.00110134 0
      endloop
   endfacet
   facet normal 0.267528 -0.96355 0
      outer loop
         vertex 0.000305785 -0.00110134 5e-05
         vertex 0.000305785 -0.00110134 0
         vertex 0.000423068 -0.00106182 0
      endloop
   endfacet
   facet normal 0.370138 -0.928977 0
      outer loop
         vertex 0.000423068 -0.00106182 5e-05
         vertex 0.000423068 -0.00106182 0
         vertex 0.000535391 -0.00100985 0
      endloop
   endfacet
   facet normal 0.468408 -0.883512 0
      outer loop
         vertex 0.000535391 -0.00100985 5e-05
         vertex 0.000535391 -0.00100985 0
         vertex 0.000641437 -0.000946049 0
      endloop
   endfacet
   facet normal 0.561187 -0.827689 0
      outer loop
         vertex 0.000641437 -0.000946049 5e-05
         vertex 0.000641437 -0.000946049 0
         vertex 0.000739963 -0.000871151 0
      endloop
   endfacet
   facet normal 0.647386 -0.762162 0
      outer loop
         vertex 0.000739963 -0.000871151 5e-05
         vertex 0.000739963 -0.000871151 0
         vertex 0.000829813 -0.00078604 0
      endloop
   endfacet
   facet normal 0.725995 -0.687699 0
      outer loop
         vertex 0.000829813 -0.00078604 5e-05
         vertex 0.000829813 -0.00078604 0
         vertex 0.000909934 -0.000691714 0
      endloop
   endfacet
   facet normal 0.796093 -0.605174 0
      outer loop
         vertex 0.000909934 -0.000691714 5e-05
         vertex 0.000909934 -0.000691714 0
         vertex 0.000979388 -0.000589278 0
      endloop
   endfacet
   facet normal 0.856857 -0.515554 0
      outer loop
         vertex 0.000979388 -0.000589278 5e-05
         vertex 0.000979388 -0.000589278 0
         vertex 0.00103736 -0.000479933 0
      endloop
   endfacet
   facet normal 0.907575 -0.419889 0
      outer loop
         vertex 0.00103736 -0.000479933 5e-05
         vertex 0.00103736 -0.000479933 0
         vertex 0.00108317 -0.000364962 0
      endloop
   endfacet
   facet normal 0.947653 -0.319302 0
      outer loop
         vertex 0.00108317 -0.000364962 5e-05
         vertex 0.00108317 -0.000364962 0
         vertex 0.00111628 -0.000245711 0
      endloop
   endfacet
   facet normal 0.976621 -0.21497 0
      outer loop
         vertex 0.00111628 -0.000245711 5e-05
         vertex 0.00111628 -0.000245711 0
         vertex 0.0011363 -0.00012358 0
      endloop
   endfacet
   facet normal 0.994138 -0.108119 0
      outer loop
         vertex 0.0011363 -0.00012358 5e-05
         vertex 0.0011363 -0.00012358 0
         vertex 0.001143 -2.79954e-19 0
      endloop
   endfacet
   facet normal 1 0 0
      outer loop
         vertex 0.001143 -2.79954e-19 0
         vertex 0.001143 -2.79954e-19 5e-05
         vertex 0.0011363 -0.00012358 5e-05
      endloop
   endfacet
   facet normal 0.994138 -0.108119 0
      outer loop
         vertex 0.0011363 -0.00012358 0
         vertex 0.0011363 -0.00012358 5e-05
         vertex 0.00111628 -0.000245711 5e-05
      endloop
   endfacet
   facet normal 0.976621 -0.21497 0
      outer loop
         vertex 0.00111628 -0.000245711 0
         vertex 0.00111628 -0.000245711 5e-05
         vertex 0.00108317 -0.000364962 5e-05
      endloop
   endfacet
   facet normal 0.947653 -0.319302 0
      outer loop
         vertex 0.00108317 -0.000364962 0
         vertex 0.00108317 -0.000364962 5e-05
         vertex 0.00103736 -0.000479933 5e-05
      endloop
   endfacet
   facet normal 0.907575 -0.419889 0
      outer loop
         vertex 0.00103736 -0.000479933 0
         vertex 0.00103736 -0.000479933 5e-05
         vertex 0.000979388 -0.000589278 5e-05
      endloop
   endfacet
   facet normal 0.856857 -0.515554 0
      outer loop
         vertex 0.000979388 -0.000589278 0
         vertex 0.000979388 -0.000589278 5e-05
         vertex 0.000909934 -0.000691714 5e-05
      endloop
   endfacet
   facet normal 0.796093 -0.605174 0
      outer loop
         vertex 0.000909934 -0.000691714 0
         vertex 0.000909934 -0.000691714 5e-05
         vertex 0.000829813 -0.00078604 5e-05
      endloop
   endfacet
   facet normal 0.725995 -0.687699 0
      outer loop
         vertex 0.000829813 -0.00078604 0
         vertex 0.000829813 -0.00078604 5e-05
         vertex 0.000739963 -0.000871151 5e-05
      endloop
   endfacet
   facet normal 0.647386 -0.762162 0
      outer loop
         vertex 0.000739963 -0.000871151 0
         vertex 0.000739963 -0.000871151 5e-05
         vertex 0.000641437 -0.000946049 5e-05
      endloop
   endfacet
   facet normal 0.561187 -0.827689 0
      outer loop
         vertex 0.000641437 -0.000946049 0
         vertex 0.000641437 -0.000946049 5e-05
         vertex 0.000535391 -0.00100985 5e-05
      endloop
   endfacet
   facet normal 0.468408 -0.883512 0
      outer loop
         vertex 0.000535391 -0.00100985 0
         vertex 0.000535391 -0.00100985 5e-05
         vertex 0.000423068 -0.00106182 5e-05
      endloop
   endfacet
   facet normal 0.370138 -0.928977 0
      outer loop
         vertex 0.000423068 -0.00106182 0
         vertex 0.000423068 -0.00106182 5e-05
         vertex 0.000305785 -0.00110134 5e-05
      endloop
   endfacet
   facet normal 0.267528 -0.96355 0
      outer loop
         vertex 0.000305785 -0.00110134 0
         vertex 0.000305785 -0.00110134 5e-05
         vertex 0.000184917 -0.00112794 5e-05
      endloop
   endfacet
   facet normal 0.161782 -0.986827 0
      outer loop
         vertex 0.000184917 -0.00112794 0
         vertex 0.000184917 -0.00112794 5e-05
         vertex 6.18808e-05 -0.00114132 5e-05
      endloop
   endfacet
   facet normal -1.83697e-16 -1 0
      outer loop
         vertex -2.09966e-19 -0.001143 5e-05
         vertex -4.8992e-19 -0.001143 0
         vertex 6.18808e-05 -0.00114132 0
      endloop
   endfacet
   facet normal -0.0541389 -0.998533 0
      outer loop
         vertex -6.18808e-05 -0.00114132 0
         vertex -6.18808e-05 -0.00114132 5e-05
         vertex -0.000184917 -0.00112794 5e-05
      endloop
   endfacet
   facet normal -0.161782 -0.986827 0
      outer loop
         vertex -0.000184917 -0.00112794 0
         vertex -0.000184917 -0.00112794 5e-05
         vertex -0.000305785 -0.00110134 5e-05
      endloop
   endfacet
   facet normal -0.267528 -0.96355 0
      outer loop
         vertex -0.000305785 -0.00110134 0
         vertex -0.000305785 -0.00110134 5e-05
         vertex -0.000423068 -0.00106182 5e-05
      endloop
   endfacet
   facet normal -0.370138 -0.928977 0
      outer loop
         vertex -0.000423068 -0.00106182 0
         vertex -0.000423068 -0.00106182 5e-05
         vertex -0.000535391 -0.00100985 5e-05
      endloop
   endfacet
   facet normal -0.468408 -0.883512 0
      outer loop
         vertex -0.000535391 -0.00100985 0
         vertex -0.000535391 -0.00100985 5e-05
         vertex -0.000641437 -0.000946049 5e-05
      endloop
   endfacet
   facet normal -0.561187 -0.827689 0
      outer loop
         vertex -0.000641437 -0.000946049 0
         vertex -0.000641437 -0.000946049 5e-05
         vertex -0.000739963 -0.000871151 5e-05
      endloop
   endfacet
   facet normal -0.647386 -0.762162 0
      outer loop
         vertex -0.000739963 -0.000871151 0
         vertex -0.000739963 -0.000871151 5e-05
         vertex -0.000829813 -0.00078604 5e-05
      endloop
   endfacet
   facet normal -0.725995 -0.687699 0
      outer loop
         vertex -0.000829813 -0.00078604 0
         vertex -0.000829813 -0.00078604 5e-05
         vertex -0.000909934 -0.000691714 5e-05
      endloop
   endfacet
   facet normal -0.796093 -0.605174 0
      outer loop
         vertex -0.000909934 -0.000691714 0
         vertex -0.000909934 -0.000691714 5e-05
         vertex -0.000979388 -0.000589278 5e-05
      endloop
   endfacet
   facet normal -0.856857 -0.515554 0
      outer loop
         vertex -0.000979388 -0.000589278 0
         vertex -0.000979388 -0.000589278 5e-05
         vertex -0.00103736 -0.000479933 5e-05
      endloop
   endfacet
   facet normal -0.907575 -0.419889 0
      outer loop
         vertex -0.00103736 -0.000479933 0
         vertex -0.00103736 -0.000479933 5e-05
         vertex -0.00108317 -0.000364962 5e-05
      endloop
   endfacet
   facet normal -0.947653 -0.319302 0
      outer loop
         vertex -0.00108317 -0.000364962 0
         vertex -0.00108317 -0.000364962 5e-05
         vertex -0.00111628 -0.000245711 5e-05
      endloop
   endfacet
   facet normal -0.976621 -0.21497 0
      outer loop
         vertex -0.00111628 -0.000245711 0
         vertex -0.00111628 -0.000245711 5e-05
         vertex -0.0011363 -0.00012358 5e-05
      endloop
   endfacet
   facet normal -0.994138 -0.108119 0
      outer loop
         vertex -0.0011363 -0.00012358 0
         vertex -0.0011363 -0.00012358 5e-05
         vertex -0.001143 1.39977e-19 5e-05
      endloop
   endfacet
   facet normal -1 1.22465e-16 0
      outer loop
         vertex -0.001143 1.39977e-19 0
         vertex -0.001143 1.39977e-19 5e-05
         vertex -0.0011363 0.00012358 5e-05
      endloop
   endfacet
   facet normal -0.994138 0.108119 0
      outer loop
         vertex -0.0011363 0.00012358 0
         vertex -0.0011363 0.00012358 5e-05
         vertex -0.00111628 0.000245711 5e-05
      endloop
   endfacet
   facet normal -0.976621 0.21497 0
      outer loop
         vertex -0.00111628 0.000245711 0
         vertex -0.00111628 0.000245711 5e-05
         vertex -0.00108317 0.000364962 5e-05
      endloop
   endfacet
   facet normal -0.947653 0.319302 0
      outer loop
         vertex -0.00108317 0.000364962 0
         vertex -0.00108317 0.000364962 5e-05
         vertex -0.00103736 0.000479933 5e-05
      endloop
   endfacet
   facet normal -0.907575 0.419889 0
      outer loop
         vertex -0.00103736 0.000479933 0
         vertex -0.00103736 0.000479933 5e-05
         vertex -0.000979388 0.000589278 5e-05
      endloop
   endfacet
   facet normal -0.856857 0.515554 0
      outer loop
         vertex -0.000979388 0.000589278 0
         vertex -0.000979388 0.000589278 5e-05
         vertex -0.000909934 0.000691714 5e-05
      endloop
   endfacet
   facet normal -0.796093 0.605174 0
      outer loop
         vertex -0.000909934 0.000691714 0
         vertex -0.000909934 0.000691714 5e-05
         vertex -0.000829813 0.00078604 5e-05
      endloop
   endfacet
   facet normal -0.725995 0.687699 0
      outer loop
         vertex -0.000829813 0.00078604 0
         vertex -0.000829813 0.00078604 5e-05
         vertex -0.000739963 0.000871151 5e-05
      endloop
   endfacet
   facet normal -0.647386 0.762162 0
      outer loop
         vertex -0.000739963 0.000871151 0
         vertex -0.000739963 0.000871151 5e-05
         vertex -0.000641437 0.000946049 5e-05
      endloop
   endfacet
   facet normal -0.561187 0.827689 0
      outer loop
         vertex -0.000641437 0.000946049 0
         vertex -0.000641437 0.000946049 5e-05
         vertex -0.000535391 0.00100985 5e-05
      endloop
   endfacet
   facet normal -0.468408 0.883512 0
      outer loop
         vertex -0.000535391 0.00100985 0
         vertex -0.000535391 0.00100985 5e-05
         vertex -0.000423068 0.00106182 5e-05
      endloop
   endfacet
   facet normal -0.370138 0.928977 0
      outer loop
         vertex -0.000423068 0.00106182 0
         vertex -0.000423068 0.00106182 5e-05
         vertex -0.000305785 0.00110134 5e-05
      endloop
   endfacet
   facet normal -0.267528 0.96355 0
      outer loop
         vertex -0.000305785 0.00110134 0
         vertex -0.000305785 0.00110134 5e-05
         vertex -0.000184917 0.00112794 5e-05
      endloop
   endfacet
   facet normal -0.161782 0.986827 0
      outer loop
         vertex -0.000184917 0.00112794 0
         vertex -0.000184917 0.00112794 5e-05
         vertex -6.18808e-05 0.00114132 5e-05
      endloop
   endfacet
   facet normal -0.0541389 0.998533 0
      outer loop
         vertex -6.18808e-05 0.00114132 0
         vertex -6.18808e-05 0.00114132 5e-05
         vertex 6.18808e-05 0.00114132 5e-05
      endloop
   endfacet
   facet normal 0.0541389 0.998533 0
      outer loop
         vertex 6.18808e-05 0.00114132 0
         vertex 6.18808e-05 0.00114132 5e-05
         vertex 0.000184917 0.00112794 5e-05
      endloop
   endfacet
   facet normal 0.161782 0.986827 0
      outer loop
         vertex 0.000184917 0.00112794 0
         vertex 0.000184917 0.00112794 5e-05
         vertex 0.000305785 0.00110134 5e-05
      endloop
   endfacet
   facet normal 0.267528 0.96355 0
      outer loop
         vertex 0.000305785 0.00110134 0
         vertex 0.000305785 0.00110134 5e-05
         vertex 0.000423068 0.00106182 5e-05
      endloop
   endfacet
   facet normal 0.370138 0.928977 0
      outer loop
         vertex 0.000423068 0.00106182 0
         vertex 0.000423068 0.00106182 5e-05
         vertex 0.000535391 0.00100985 5e-05
      endloop
   endfacet
   facet normal 0.468408 0.883512 0
      outer loop
         vertex 0.000535391 0.00100985 0
         vertex 0.000535391 0.00100985 5e-05
         vertex 0.000641437 0.000946049 5e-05
      endloop
   endfacet
   facet normal 0.561187 0.827689 0
      outer loop
         vertex 0.000641437 0.000946049 0
         vertex 0.000641437 0.000946049 5e-05
         vertex 0.000739963 0.000871151 5e-05
      endloop
   endfacet
   facet normal 0.647386 0.762162 0
      outer loop
         vertex 0.000739963 0.000871151 0
         vertex 0.000739963 0.000871151 5e-05
         vertex 0.000829813 0.00078604 5e-05
      endloop
   endfacet
   facet normal 0.725995 0.687699 0
      outer loop
         vertex 0.000829813 0.00078604 0
         vertex 0.000829813 0.00078604 5e-05
         vertex 0.000909934 0.000691714 5e-05
      endloop
   endfacet
   facet normal 0.796093 0.605174 0
      outer loop
         vertex 0.000909934 0.000691714 0
         vertex 0.000909934 0.000691714 5e-05
         vertex 0.000979388 0.000589278 5e-05
      endloop
   endfacet
   facet normal 0.856857 0.515554 0
      outer loop
         vertex 0.000979388 0.000589278 0
         vertex 0.000979388 0.000589278 5e-05
         vertex 0.00103736 0.000479933 5e-05
      endloop
   endfacet
   facet normal 0.907575 0.419889 0
      outer loop
         vertex 0.00103736 0.000479933 0
         vertex 0.00103736 0.000479933 5e-05
         vertex 0.00108317 0.000364962 5e-05
      endloop
   endfacet
   facet normal 0.947653 0.319302 0
      outer loop
         vertex 0.00108317 0.000364962 0
         vertex 0.00108317 0.000364962 5e-05
         vertex 0.00111628 0.000245711 5e-05
      endloop
   endfacet
   facet normal 0.976621 0.21497 0
      outer loop
         vertex 0.00111628 0.000245711 0
         vertex 0.00111628 0.000245711 5e-05
         vertex 0.0011363 0.00012358 5e-05
      endloop
   endfacet
   facet normal 0.994138 0.108119 0
      outer loop
         vertex 0.0011363 0.00012358 0
         vertex 0.0011363 0.00012358 5e-05
         vertex 0.001143 -2.79954e-19 5e-05
      endloop
   endfacet
   facet normal 0 0 1
      outer loop
         vertex -6.18808e-05 0.00114132 5e-05
         vertex -5.91305e-05 0.0010906 5e-05
         vertex 3.3439e-19 0.0010922 5e-05
      endloop
   endfacet
   facet normal 0 0 1
      outer loop
         vertex 0.000739963 0.000871151 5e-05
         vertex 0.000707075 0.000832433 5e-05
         vertex 0.000792932 0.000751105 5e-05
      endloop
   endfacet
   facet normal 0 0 1
      outer loop
         vertex 0.000739963 0.000871151 5e-05
         vertex 0.000641437 0.000946049 5e-05
         vertex 0.000612929 0.000904002 5e-05
      endloop
   endfacet
   facet normal 0 0 1
      outer loop
         vertex 0.000184917 0.00112794 5e-05
         vertex 6.18808e-05 0.00114132 5e-05
         vertex 5.91305e-05 0.0010906 5e-05
      endloop
   endfacet
   facet normal 0 0 1
      outer loop
         vertex 3.3439e-19 0.0010922 5e-05
         vertex 6.18808e-05 0.00114132 5e-05
         vertex -6.18808e-05 0.00114132 5e-05
      endloop
   endfacet
   facet normal 0 0 1
      outer loop
         vertex 0.00103736 0.000479933 5e-05
         vertex 0.000979388 0.000589278 5e-05
         vertex 0.000935859 0.000563088 5e-05
      endloop
   endfacet
   facet normal 0 0 1
      outer loop
         vertex 0.000909934 0.000691714 5e-05
         vertex 0.000869493 0.000660971 5e-05
         vertex 0.000935859 0.000563088 5e-05
      endloop
   endfacet
   facet normal 0 0 1
      outer loop
         vertex 0.000829813 0.00078604 5e-05
         vertex 0.000792932 0.000751105 5e-05
         vertex 0.000869493 0.000660971 5e-05
      endloop
   endfacet
   facet normal 0 0 1
      outer loop
         vertex 0.000612929 0.000904002 5e-05
         vertex 0.000707075 0.000832433 5e-05
         vertex 0.000739963 0.000871151 5e-05
      endloop
   endfacet
   facet normal 0 0 1
      outer loop
         vertex 0.000423068 0.00106182 5e-05
         vertex 0.000404265 0.00101463 5e-05
         vertex 0.000511596 0.000964972 5e-05
      endloop
   endfacet
   facet normal 0 0 1
      outer loop
         vertex 0.000423068 0.00106182 5e-05
         vertex 0.000305785 0.00110134 5e-05
         vertex 0.000292194 0.00105239 5e-05
      endloop
   endfacet
   facet normal 0 0 1
      outer loop
         vertex 3.3439e-19 0.0010922 5e-05
         vertex 5.91305e-05 0.0010906 5e-05
         vertex 6.18808e-05 0.00114132 5e-05
      endloop
   endfacet
   facet normal 0 0 1
      outer loop
         vertex -0.000184917 0.00112794 5e-05
         vertex -0.000176698 0.00107781 5e-05
         vertex -5.91305e-05 0.0010906 5e-05
      endloop
   endfacet
   facet normal 0 0 1
      outer loop
         vertex -0.000423068 0.00106182 5e-05
         vertex -0.000535391 0.00100985 5e-05
         vertex -0.000511596 0.000964972 5e-05
      endloop
   endfacet
   facet normal 0 0 1
      outer loop
         vertex -0.000641437 0.000946049 5e-05
         vertex -0.000612929 0.000904002 5e-05
         vertex -0.000511596 0.000964972 5e-05
      endloop
   endfacet
   facet normal 0 0 1
      outer loop
         vertex 0.000935859 0.000563088 5e-05
         vertex 0.000979388 0.000589278 5e-05
         vertex 0.000909934 0.000691714 5e-05
      endloop
   endfacet
   facet normal 0 0 1
      outer loop
         vertex 0.000792932 0.000751105 5e-05
         vertex 0.000829813 0.00078604 5e-05
         vertex 0.000739963 0.000871151 5e-05
      endloop
   endfacet
   facet normal 0 0 1
      outer loop
         vertex 0.000641437 0.000946049 5e-05
         vertex 0.000535391 0.00100985 5e-05
         vertex 0.000511596 0.000964972 5e-05
      endloop
   endfacet
   facet normal 0 0 1
      outer loop
         vertex 0.000292194 0.00105239 5e-05
         vertex 0.000404265 0.00101463 5e-05
         vertex 0.000423068 0.00106182 5e-05
      endloop
   endfacet
   facet normal 0 0 1
      outer loop
         vertex 0.000184917 0.00112794 5e-05
         vertex 0.000176698 0.00107781 5e-05
         vertex 0.000292194 0.00105239 5e-05
      endloop
   endfacet
   facet normal 0 0 1
      outer loop
         vertex -5.91305e-05 0.0010906 5e-05
         vertex -6.18808e-05 0.00114132 5e-05
         vertex -0.000184917 0.00112794 5e-05
      endloop
   endfacet
   facet normal 0 0 1
      outer loop
         vertex -0.000305785 0.00110134 5e-05
         vertex -0.000423068 0.00106182 5e-05
         vertex -0.000404265 0.00101463 5e-05
      endloop
   endfacet
   facet normal 0 0 1
      outer loop
         vertex -0.000511596 0.000964972 5e-05
         vertex -0.000535391 0.00100985 5e-05
         vertex -0.000641437 0.000946049 5e-05
      endloop
   endfacet
   facet normal 0 0 1
      outer loop
         vertex -0.000739963 0.000871151 5e-05
         vertex -0.000707075 0.000832433 5e-05
         vertex -0.000612929 0.000904002 5e-05
      endloop
   endfacet
   facet normal 0 0 1
      outer loop
         vertex -0.000739963 0.000871151 5e-05
         vertex -0.000829813 0.00078604 5e-05
         vertex -0.000792932 0.000751105 5e-05
      endloop
   endfacet
   facet normal 0 0 1
      outer loop
         vertex -0.000979388 0.000589278 5e-05
         vertex -0.000935859 0.000563088 5e-05
         vertex -0.000869493 0.000660971 5e-05
      endloop
   endfacet
   facet normal 0 0 1
      outer loop
         vertex -0.000979388 0.000589278 5e-05
         vertex -0.00103736 0.000479933 5e-05
         vertex -0.000991254 0.000458603 5e-05
      endloop
   endfacet
   facet normal 0 0 1
      outer loop
         vertex -0.0011363 0.00012358 5e-05
         vertex -0.0010858 0.000118088 5e-05
         vertex -0.00106666 0.000234791 5e-05
      endloop
   endfacet
   facet normal 0 0 1
      outer loop
         vertex -0.001143 1.39977e-19 5e-05
         vertex -0.0010922 1.33756e-19 5e-05
         vertex -0.0010858 0.000118088 5e-05
      endloop
   endfacet
   facet normal 0 0 1
      outer loop
         vertex -0.00111628 -0.000245711 5e-05
         vertex -0.00106666 -0.000234791 5e-05
         vertex -0.0010858 -0.000118088 5e-05
      endloop
   endfacet
   facet normal 0 0 1
      outer loop
         vertex -0.00108317 -0.000364962 5e-05
         vertex -0.00103503 -0.000348741 5e-05
         vertex -0.00106666 -0.000234791 5e-05
      endloop
   endfacet
   facet normal 0 0 1
      outer loop
         vertex -0.00103736 -0.000479933 5e-05
         vertex -0.000991254 -0.000458603 5e-05
         vertex -0.00103503 -0.000348741 5e-05
      endloop
   endfacet
   facet normal 0 0 1
      outer loop
         vertex -0.000979388 -0.000589278 5e-05
         vertex -0.000935859 -0.000563088 5e-05
         vertex -0.000991254 -0.000458603 5e-05
      endloop
   endfacet
   facet normal 0 0 1
      outer loop
         vertex 0.000869493 0.000660971 5e-05
         vertex 0.000909934 0.000691714 5e-05
         vertex 0.000829813 0.00078604 5e-05
      endloop
   endfacet
   facet normal 0 0 1
      outer loop
         vertex 0.000511596 0.000964972 5e-05
         vertex 0.000535391 0.00100985 5e-05
         vertex 0.000423068 0.00106182 5e-05
      endloop
   endfacet
   facet normal 0 0 1
      outer loop
         vertex 5.91305e-05 0.0010906 5e-05
         vertex 0.000176698 0.00107781 5e-05
         vertex 0.000184917 0.00112794 5e-05
      endloop
   endfacet
   facet normal 0 0 1
      outer loop
         vertex -0.000184917 0.00112794 5e-05
         vertex -0.000305785 0.00110134 5e-05
         vertex -0.000292194 0.00105239 5e-05
      endloop
   endfacet
   facet normal 0 0 1
      outer loop
         vertex -0.000511596 0.000964972 5e-05
         vertex -0.000404265 0.00101463 5e-05
         vertex -0.000423068 0.00106182 5e-05
      endloop
   endfacet
   facet normal 0 0 1
      outer loop
         vertex -0.000792932 0.000751105 5e-05
         vertex -0.000707075 0.000832433 5e-05
         vertex -0.000739963 0.000871151 5e-05
      endloop
   endfacet
   facet normal 0 0 1
      outer loop
         vertex -0.000829813 0.00078604 5e-05
         vertex -0.000909934 0.000691714 5e-05
         vertex -0.000869493 0.000660971 5e-05
      endloop
   endfacet
   facet normal 0 0 1
      outer loop
         vertex -0.000991254 0.000458603 5e-05
         vertex -0.000935859 0.000563088 5e-05
         vertex -0.000979388 0.000589278 5e-05
      endloop
   endfacet
   facet normal 0 0 1
      outer loop
         vertex -0.0010858 0.000118088 5e-05
         vertex -0.0011363 0.00012358 5e-05
         vertex -0.001143 1.39977e-19 5e-05
      endloop
   endfacet
   facet normal 0 0 1
      outer loop
         vertex -0.001143 1.39977e-19 5e-05
         vertex -0.0011363 -0.00012358 5e-05
         vertex -0.0010858 -0.000118088 5e-05
      endloop
   endfacet
   facet normal 0 0 1
      outer loop
         vertex -0.00106666 -0.000234791 5e-05
         vertex -0.00111628 -0.000245711 5e-05
         vertex -0.00108317 -0.000364962 5e-05
      endloop
   endfacet
   facet normal 0 0 1
      outer loop
         vertex -0.000991254 -0.000458603 5e-05
         vertex -0.00103736 -0.000479933 5e-05
         vertex -0.000979388 -0.000589278 5e-05
      endloop
   endfacet
   facet normal 0 0 1
      outer loop
         vertex -0.000909934 -0.000691714 5e-05
         vertex -0.000869493 -0.000660971 5e-05
         vertex -0.000935859 -0.000563088 5e-05
      endloop
   endfacet
   facet normal 0 0 1
      outer loop
         vertex -0.000909934 -0.000691714 5e-05
         vertex -0.000829813 -0.00078604 5e-05
         vertex -0.000792932 -0.000751105 5e-05
      endloop
   endfacet
   facet normal 0 0 1
      outer loop
         vertex -0.000829813 -0.00078604 5e-05
         vertex -0.000739963 -0.000871151 5e-05
         vertex -0.000707075 -0.000832433 5e-05
      endloop
   endfacet
   facet normal 0 0 1
      outer loop
         vertex -0.000739963 -0.000871151 5e-05
         vertex -0.000641437 -0.000946049 5e-05
         vertex -0.000612929 -0.000904002 5e-05
      endloop
   endfacet
   facet normal 0 0 1
      outer loop
         vertex -0.000305785 -0.00110134 5e-05
         vertex -0.000184917 -0.00112794 5e-05
         vertex -0.000176698 -0.00107781 5e-05
      endloop
   endfacet
   facet normal 0 0 1
      outer loop
         vertex -0.000184917 -0.00112794 5e-05
         vertex -6.18808e-05 -0.00114132 5e-05
         vertex -5.91305e-05 -0.0010906 5e-05
      endloop
   endfacet
   facet normal 0 0 1
      outer loop
         vertex 5.91305e-05 -0.0010906 5e-05
         vertex -5.91305e-05 -0.0010906 5e-05
         vertex -2.09966e-19 -0.001143 5e-05
      endloop
   endfacet
   facet normal 0 0 1
      outer loop
         vertex 0.000184917 -0.00112794 5e-05
         vertex 0.000176698 -0.00107781 5e-05
         vertex 5.91305e-05 -0.0010906 5e-05
      endloop
   endfacet
   facet normal 0 0 1
      outer loop
         vertex 0.000184917 -0.00112794 5e-05
         vertex 0.000305785 -0.00110134 5e-05
         vertex 0.000292194 -0.00105239 5e-05
      endloop
   endfacet
   facet normal 0 0 1
      outer loop
         vertex 0.000423068 -0.00106182 5e-05
         vertex 0.000404265 -0.00101463 5e-05
         vertex 0.000292194 -0.00105239 5e-05
      endloop
   endfacet
   facet normal 0 0 1
      outer loop
         vertex 0.000423068 -0.00106182 5e-05
         vertex 0.000535391 -0.00100985 5e-05
         vertex 0.000511596 -0.000964972 5e-05
      endloop
   endfacet
   facet normal 0 0 1
      outer loop
         vertex 0.000739963 -0.000871151 5e-05
         vertex 0.000707075 -0.000832433 5e-05
         vertex 0.000612929 -0.000904002 5e-05
      endloop
   endfacet
   facet normal 0 0 1
      outer loop
         vertex 0.000739963 -0.000871151 5e-05
         vertex 0.000829813 -0.00078604 5e-05
         vertex 0.000792932 -0.000751105 5e-05
      endloop
   endfacet
   facet normal 0 0 1
      outer loop
         vertex 0.000829813 -0.00078604 5e-05
         vertex 0.000909934 -0.000691714 5e-05
         vertex 0.000869493 -0.000660971 5e-05
      endloop
   endfacet
   facet normal 0 0 1
      outer loop
         vertex 0.000909934 -0.000691714 5e-05
         vertex 0.000979388 -0.000589278 5e-05
         vertex 0.000935859 -0.000563088 5e-05
      endloop
   endfacet
   facet normal 0 0 1
      outer loop
         vertex 0.000511596 0.000964972 5e-05
         vertex 0.000612929 0.000904002 5e-05
         vertex 0.000641437 0.000946049 5e-05
      endloop
   endfacet
   facet normal 0 0 1
      outer loop
         vertex -0.000292194 0.00105239 5e-05
         vertex -0.000176698 0.00107781 5e-05
         vertex -0.000184917 0.00112794 5e-05
      endloop
   endfacet
   facet normal 0 0 1
      outer loop
         vertex -0.000612929 0.000904002 5e-05
         vertex -0.000641437 0.000946049 5e-05
         vertex -0.000739963 0.000871151 5e-05
      endloop
   endfacet
   facet normal 0 0 1
      outer loop
         vertex -0.000869493 0.000660971 5e-05
         vertex -0.000909934 0.000691714 5e-05
         vertex -0.000979388 0.000589278 5e-05
      endloop
   endfacet
   facet normal 0 0 1
      outer loop
         vertex -0.0010858 -0.000118088 5e-05
         vertex -0.0010922 1.33756e-19 5e-05
         vertex -0.001143 1.39977e-19 5e-05
      endloop
   endfacet
   facet normal 0 0 1
      outer loop
         vertex -0.00103503 -0.000348741 5e-05
         vertex -0.00108317 -0.000364962 5e-05
         vertex -0.00103736 -0.000479933 5e-05
      endloop
   endfacet
   facet normal 0 0 1
      outer loop
         vertex -0.000792932 -0.000751105 5e-05
         vertex -0.000869493 -0.000660971 5e-05
         vertex -0.000909934 -0.000691714 5e-05
      endloop
   endfacet
   facet normal 0 0 1
      outer loop
         vertex -0.000612929 -0.000904002 5e-05
         vertex -0.000707075 -0.000832433 5e-05
         vertex -0.000739963 -0.000871151 5e-05
      endloop
   endfacet
   facet normal 0 0 1
      outer loop
         vertex -0.000305785 -0.00110134 5e-05
         vertex -0.000292194 -0.00105239 5e-05
         vertex -0.000404265 -0.00101463 5e-05
      endloop
   endfacet
   facet normal 0 0 1
      outer loop
         vertex -5.91305e-05 -0.0010906 5e-05
         vertex -0.000176698 -0.00107781 5e-05
         vertex -0.000184917 -0.00112794 5e-05
      endloop
   endfacet
   facet normal 0 0 1
      outer loop
         vertex -5.91305e-05 -0.0010906 5e-05
         vertex -6.18808e-05 -0.00114132 5e-05
         vertex -2.09966e-19 -0.001143 5e-05
      endloop
   endfacet
   facet normal 0 0 1
      outer loop
         vertex 0.000292194 -0.00105239 5e-05
         vertex 0.000176698 -0.00107781 5e-05
         vertex 0.000184917 -0.00112794 5e-05
      endloop
   endfacet
   facet normal 0 0 1
      outer loop
         vertex 0.000511596 -0.000964972 5e-05
         vertex 0.000404265 -0.00101463 5e-05
         vertex 0.000423068 -0.00106182 5e-05
      endloop
   endfacet
   facet normal 0 0 1
      outer loop
         vertex 0.000641437 -0.000946049 5e-05
         vertex 0.000612929 -0.000904002 5e-05
         vertex 0.000511596 -0.000964972 5e-05
      endloop
   endfacet
   facet normal 0 0 1
      outer loop
         vertex 0.000792932 -0.000751105 5e-05
         vertex 0.000707075 -0.000832433 5e-05
         vertex 0.000739963 -0.000871151 5e-05
      endloop
   endfacet
   facet normal 0 0 1
      outer loop
         vertex 0.000935859 -0.000563088 5e-05
         vertex 0.000869493 -0.000660971 5e-05
         vertex 0.000909934 -0.000691714 5e-05
      endloop
   endfacet
   facet normal 0 0 1
      outer loop
         vertex 0.00103736 -0.000479933 5e-05
         vertex 0.00108317 -0.000364962 5e-05
         vertex 0.00103503 -0.000348741 5e-05
      endloop
   endfacet
   facet normal 0 0 1
      outer loop
         vertex 0.00108317 -0.000364962 5e-05
         vertex 0.00111628 -0.000245711 5e-05
         vertex 0.00106666 -0.000234791 5e-05
      endloop
   endfacet
   facet normal 0 0 1
      outer loop
         vertex 0.000292194 0.00105239 5e-05
         vertex 0.000305785 0.00110134 5e-05
         vertex 0.000184917 0.00112794 5e-05
      endloop
   endfacet
   facet normal 0 0 1
      outer loop
         vertex -0.000869493 0.000660971 5e-05
         vertex -0.000792932 0.000751105 5e-05
         vertex -0.000829813 0.00078604 5e-05
      endloop
   endfacet
   facet normal 0 0 1
      outer loop
         vertex -0.00108317 0.000364962 5e-05
         vertex -0.00103503 0.000348741 5e-05
         vertex -0.000991254 0.000458603 5e-05
      endloop
   endfacet
   facet normal 0 0 1
      outer loop
         vertex -0.00108317 0.000364962 5e-05
         vertex -0.00111628 0.000245711 5e-05
         vertex -0.00106666 0.000234791 5e-05
      endloop
   endfacet
   facet normal 0 0 1
      outer loop
         vertex -0.0010858 -0.000118088 5e-05
         vertex -0.0011363 -0.00012358 5e-05
         vertex -0.00111628 -0.000245711 5e-05
      endloop
   endfacet
   facet normal 0 0 1
      outer loop
         vertex -0.000707075 -0.000832433 5e-05
         vertex -0.000792932 -0.000751105 5e-05
         vertex -0.000829813 -0.00078604 5e-05
      endloop
   endfacet
   facet normal 0 0 1
      outer loop
         vertex -0.000535391 -0.00100985 5e-05
         vertex -0.000511596 -0.000964972 5e-05
         vertex -0.000612929 -0.000904002 5e-05
      endloop
   endfacet
   facet normal 0 0 1
      outer loop
         vertex -0.000535391 -0.00100985 5e-05
         vertex -0.000423068 -0.00106182 5e-05
         vertex -0.000404265 -0.00101463 5e-05
      endloop
   endfacet
   facet normal 0 0 1
      outer loop
         vertex -0.000176698 -0.00107781 5e-05
         vertex -0.000292194 -0.00105239 5e-05
         vertex -0.000305785 -0.00110134 5e-05
      endloop
   endfacet
   facet normal 0 0 1
      outer loop
         vertex 5.91305e-05 -0.0010906 5e-05
         vertex 6.18808e-05 -0.00114132 5e-05
         vertex 0.000184917 -0.00112794 5e-05
      endloop
   endfacet
   facet normal 0 0 1
      outer loop
         vertex 0.000511596 -0.000964972 5e-05
         vertex 0.000535391 -0.00100985 5e-05
         vertex 0.000641437 -0.000946049 5e-05
      endloop
   endfacet
   facet normal 0 0 1
      outer loop
         vertex 0.000869493 -0.000660971 5e-05
         vertex 0.000792932 -0.000751105 5e-05
         vertex 0.000829813 -0.00078604 5e-05
      endloop
   endfacet
   facet normal 0 0 1
      outer loop
         vertex 0.00103736 -0.000479933 5e-05
         vertex 0.000991254 -0.000458603 5e-05
         vertex 0.000935859 -0.000563088 5e-05
      endloop
   endfacet
   facet normal 0 0 1
      outer loop
         vertex 0.00106666 -0.000234791 5e-05
         vertex 0.00103503 -0.000348741 5e-05
         vertex 0.00108317 -0.000364962 5e-05
      endloop
   endfacet
   facet normal 0 0 1
      outer loop
         vertex 0.00111628 -0.000245711 5e-05
         vertex 0.0011363 -0.00012358 5e-05
         vertex 0.0010858 -0.000118088 5e-05
      endloop
   endfacet
   facet normal 0 0 1
      outer loop
         vertex 0.001143 -2.79954e-19 5e-05
         vertex 0.0010922 0 5e-05
         vertex 0.0010858 -0.000118088 5e-05
      endloop
   endfacet
   facet normal 0 0 1
      outer loop
         vertex 0.00108317 0.000364962 5e-05
         vertex 0.00103503 0.000348741 5e-05
         vertex 0.00106666 0.000234791 5e-05
      endloop
   endfacet
   facet normal 0 0 1
      outer loop
         vertex 0.00108317 0.000364962 5e-05
         vertex 0.00103736 0.000479933 5e-05
         vertex 0.000991254 0.000458603 5e-05
      endloop
   endfacet
   facet normal 0 0 1
      outer loop
         vertex -0.000404265 0.00101463 5e-05
         vertex -0.000292194 0.00105239 5e-05
         vertex -0.000305785 0.00110134 5e-05
      endloop
   endfacet
   facet normal 0 0 1
      outer loop
         vertex -0.00106666 0.000234791 5e-05
         vertex -0.00103503 0.000348741 5e-05
         vertex -0.00108317 0.000364962 5e-05
      endloop
   endfacet
   facet normal 0 0 1
      outer loop
         vertex -0.000935859 -0.000563088 5e-05
         vertex -0.000979388 -0.000589278 5e-05
         vertex -0.000909934 -0.000691714 5e-05
      endloop
   endfacet
   facet normal 0 0 1
      outer loop
         vertex -0.000404265 -0.00101463 5e-05
         vertex -0.000511596 -0.000964972 5e-05
         vertex -0.000535391 -0.00100985 5e-05
      endloop
   endfacet
   facet normal 0 0 1
      outer loop
         vertex -2.09966e-19 -0.001143 5e-05
         vertex 6.18808e-05 -0.00114132 5e-05
         vertex 5.91305e-05 -0.0010906 5e-05
      endloop
   endfacet
   facet normal 0 0 1
      outer loop
         vertex 0.000612929 -0.000904002 5e-05
         vertex 0.000641437 -0.000946049 5e-05
         vertex 0.000739963 -0.000871151 5e-05
      endloop
   endfacet
   facet normal 0 0 1
      outer loop
         vertex 0.00103503 -0.000348741 5e-05
         vertex 0.000991254 -0.000458603 5e-05
         vertex 0.00103736 -0.000479933 5e-05
      endloop
   endfacet
   facet normal 0 0 1
      outer loop
         vertex 0.0010858 -0.000118088 5e-05
         vertex 0.0011363 -0.00012358 5e-05
         vertex 0.001143 -2.79954e-19 5e-05
      endloop
   endfacet
   facet normal 0 0 1
      outer loop
         vertex 0.00111628 0.000245711 5e-05
         vertex 0.00106666 0.000234791 5e-05
         vertex 0.0010858 0.000118088 5e-05
      endloop
   endfacet
   facet normal 0 0 1
      outer loop
         vertex 0.000991254 0.000458603 5e-05
         vertex 0.00103503 0.000348741 5e-05
         vertex 0.00108317 0.000364962 5e-05
      endloop
   endfacet
   facet normal 0 0 1
      outer loop
         vertex -0.000991254 0.000458603 5e-05
         vertex -0.00103736 0.000479933 5e-05
         vertex -0.00108317 0.000364962 5e-05
      endloop
   endfacet
   facet normal 0 0 1
      outer loop
         vertex -0.000612929 -0.000904002 5e-05
         vertex -0.000641437 -0.000946049 5e-05
         vertex -0.000535391 -0.00100985 5e-05
      endloop
   endfacet
   facet normal 0 0 1
      outer loop
         vertex 0.000292194 -0.00105239 5e-05
         vertex 0.000305785 -0.00110134 5e-05
         vertex 0.000423068 -0.00106182 5e-05
      endloop
   endfacet
   facet normal 0 0 1
      outer loop
         vertex 0.0010858 -0.000118088 5e-05
         vertex 0.00106666 -0.000234791 5e-05
         vertex 0.00111628 -0.000245711 5e-05
      endloop
   endfacet
   facet normal 0 0 1
      outer loop
         vertex 0.0011363 0.00012358 5e-05
         vertex 0.0010858 0.000118088 5e-05
         vertex 0.0010922 0 5e-05
      endloop
   endfacet
   facet normal 0 0 1
      outer loop
         vertex 0.00106666 0.000234791 5e-05
         vertex 0.00111628 0.000245711 5e-05
         vertex 0.00108317 0.000364962 5e-05
      endloop
   endfacet
   facet normal 0 0 1
      outer loop
         vertex -0.00106666 0.000234791 5e-05
         vertex -0.00111628 0.000245711 5e-05
         vertex -0.0011363 0.00012358 5e-05
      endloop
   endfacet
   facet normal 0 0 1
      outer loop
         vertex 0.000935859 -0.000563088 5e-05
         vertex 0.000979388 -0.000589278 5e-05
         vertex 0.00103736 -0.000479933 5e-05
      endloop
   endfacet
   facet normal 0 0 1
      outer loop
         vertex 0.0010858 0.000118088 5e-05
         vertex 0.0011363 0.00012358 5e-05
         vertex 0.00111628 0.000245711 5e-05
      endloop
   endfacet
   facet normal 0 0 1
      outer loop
         vertex -0.000404265 -0.00101463 5e-05
         vertex -0.000423068 -0.00106182 5e-05
         vertex -0.000305785 -0.00110134 5e-05
      endloop
   endfacet
   facet normal 0 0 1
      outer loop
         vertex 0.000935859 0.000563088 5e-05
         vertex 0.000991254 0.000458603 5e-05
         vertex 0.00103736 0.000479933 5e-05
      endloop
   endfacet
   facet normal 0 0 1
      outer loop
         vertex 0.0010922 0 5e-05
         vertex 0.001143 -2.79954e-19 5e-05
         vertex 0.0011363 0.00012358 5e-05
      endloop
   endfacet
   facet normal -0.994138 0.108119 0
      outer loop
         vertex 0.0010858 -0.000118088 5e-05
         vertex 0.0010922 0 5e-05
         vertex 0.0010922 0 0
      endloop
   endfacet
   facet normal -0.976621 0.21497 0
      outer loop
         vertex 0.00106666 -0.000234791 5e-05
         vertex 0.0010858 -0.000118088 5e-05
         vertex 0.0010858 -0.000118088 0
      endloop
   endfacet
   facet normal -0.947653 0.319302 0
      outer loop
         vertex 0.00103503 -0.000348741 5e-05
         vertex 0.00106666 -0.000234791 5e-05
         vertex 0.00106666 -0.000234791 0
      endloop
   endfacet
   facet normal -0.907575 0.419889 0
      outer loop
         vertex 0.000991254 -0.000458603 5e-05
         vertex 0.00103503 -0.000348741 5e-05
         vertex 0.00103503 -0.000348741 0
      endloop
   endfacet
   facet normal -0.856857 0.515554 0
      outer loop
         vertex 0.000935859 -0.000563088 5e-05
         vertex 0.000991254 -0.000458603 5e-05
         vertex 0.000991254 -0.000458603 0
      endloop
   endfacet
   facet normal -0.796093 0.605174 0
      outer loop
         vertex 0.000869493 -0.000660971 5e-05
         vertex 0.000935859 -0.000563088 5e-05
         vertex 0.000935859 -0.000563088 0
      endloop
   endfacet
   facet normal -0.725995 0.687699 0
      outer loop
         vertex 0.000792932 -0.000751105 5e-05
         vertex 0.000869493 -0.000660971 5e-05
         vertex 0.000869493 -0.000660971 0
      endloop
   endfacet
   facet normal -0.647386 0.762162 0
      outer loop
         vertex 0.000707075 -0.000832433 5e-05
         vertex 0.000792932 -0.000751105 5e-05
         vertex 0.000792932 -0.000751105 0
      endloop
   endfacet
   facet normal -0.561187 0.827689 0
      outer loop
         vertex 0.000612929 -0.000904002 5e-05
         vertex 0.000707075 -0.000832433 5e-05
         vertex 0.000707075 -0.000832433 0
      endloop
   endfacet
   facet normal -0.468408 0.883512 0
      outer loop
         vertex 0.000511596 -0.000964972 5e-05
         vertex 0.000612929 -0.000904002 5e-05
         vertex 0.000612929 -0.000904002 0
      endloop
   endfacet
   facet normal -0.370138 0.928977 0
      outer loop
         vertex 0.000404265 -0.00101463 5e-05
         vertex 0.000511596 -0.000964972 5e-05
         vertex 0.000511596 -0.000964972 0
      endloop
   endfacet
   facet normal -0.267528 0.96355 0
      outer loop
         vertex 0.000292194 -0.00105239 5e-05
         vertex 0.000404265 -0.00101463 5e-05
         vertex 0.000404265 -0.00101463 0
      endloop
   endfacet
   facet normal -0.161782 0.986827 0
      outer loop
         vertex 0.000176698 -0.00107781 5e-05
         vertex 0.000292194 -0.00105239 5e-05
         vertex 0.000292194 -0.00105239 0
      endloop
   endfacet
   facet normal -0.0541389 0.998533 0
      outer loop
         vertex 5.91305e-05 -0.0010906 5e-05
         vertex 0.000176698 -0.00107781 5e-05
         vertex 0.000176698 -0.00107781 0
      endloop
   endfacet
   facet normal -0.0541389 0.998533 0
      outer loop
         vertex 5.91305e-05 -0.0010906 5e-05
         vertex 5.91305e-05 -0.0010906 0
         vertex -2.00634e-19 -0.0010922 0
      endloop
   endfacet
   facet normal 1.83697e-16 1 0
      outer loop
         vertex -2.00634e-19 -0.0010922 0
         vertex -5.91305e-05 -0.0010906 5e-05
         vertex 5.91305e-05 -0.0010906 5e-05
      endloop
   endfacet
   facet normal 0.161782 0.986827 0
      outer loop
         vertex -0.000176698 -0.00107781 5e-05
         vertex -5.91305e-05 -0.0010906 5e-05
         vertex -5.91305e-05 -0.0010906 0
      endloop
   endfacet
   facet normal 0.267528 0.96355 0
      outer loop
         vertex -0.000292194 -0.00105239 5e-05
         vertex -0.000176698 -0.00107781 5e-05
         vertex -0.000176698 -0.00107781 0
      endloop
   endfacet
   facet normal 0.370138 0.928977 0
      outer loop
         vertex -0.000404265 -0.00101463 5e-05
         vertex -0.000292194 -0.00105239 5e-05
         vertex -0.000292194 -0.00105239 0
      endloop
   endfacet
   facet normal 0.468408 0.883512 0
      outer loop
         vertex -0.000511596 -0.000964972 5e-05
         vertex -0.000404265 -0.00101463 5e-05
         vertex -0.000404265 -0.00101463 0
      endloop
   endfacet
   facet normal 0.561187 0.827689 0
      outer loop
         vertex -0.000612929 -0.000904002 5e-05
         vertex -0.000511596 -0.000964972 5e-05
         vertex -0.000511596 -0.000964972 0
      endloop
   endfacet
   facet normal 0.647386 0.762162 0
      outer loop
         vertex -0.000707075 -0.000832433 5e-05
         vertex -0.000612929 -0.000904002 5e-05
         vertex -0.000612929 -0.000904002 0
      endloop
   endfacet
   facet normal 0.725995 0.687699 0
      outer loop
         vertex -0.000792932 -0.000751105 5e-05
         vertex -0.000707075 -0.000832433 5e-05
         vertex -0.000707075 -0.000832433 0
      endloop
   endfacet
   facet normal 0.796093 0.605174 0
      outer loop
         vertex -0.000869493 -0.000660971 5e-05
         vertex -0.000792932 -0.000751105 5e-05
         vertex -0.000792932 -0.000751105 0
      endloop
   endfacet
   facet normal 0.856857 0.515554 0
      outer loop
         vertex -0.000935859 -0.000563088 5e-05
         vertex -0.000869493 -0.000660971 5e-05
         vertex -0.000869493 -0.000660971 0
      endloop
   endfacet
   facet normal 0.907575 0.419889 0
      outer loop
         vertex -0.000991254 -0.000458603 5e-05
         vertex -0.000935859 -0.000563088 5e-05
         vertex -0.000935859 -0.000563088 0
      endloop
   endfacet
   facet normal 0.947653 0.319302 0
      outer loop
         vertex -0.00103503 -0.000348741 5e-05
         vertex -0.000991254 -0.000458603 5e-05
         vertex -0.000991254 -0.000458603 0
      endloop
   endfacet
   facet normal 0.976621 0.21497 0
      outer loop
         vertex -0.00106666 -0.000234791 5e-05
         vertex -0.00103503 -0.000348741 5e-05
         vertex -0.00103503 -0.000348741 0
      endloop
   endfacet
   facet normal 0.994138 0.108119 0
      outer loop
         vertex -0.0010858 -0.000118088 5e-05
         vertex -0.00106666 -0.000234791 5e-05
         vertex -0.00106666 -0.000234791 0
      endloop
   endfacet
   facet normal 1 -1.22465e-16 0
      outer loop
         vertex -0.0010922 1.33756e-19 5e-05
         vertex -0.0010858 -0.000118088 5e-05
         vertex -0.0010858 -0.000118088 0
      endloop
   endfacet
   facet normal 0.994138 -0.108119 0
      outer loop
         vertex -0.0010858 0.000118088 5e-05
         vertex -0.0010922 1.33756e-19 5e-05
         vertex -0.0010922 1.33756e-19 0
      endloop
   endfacet
   facet normal 0.976621 -0.21497 0
      outer loop
         vertex -0.00106666 0.000234791 5e-05
         vertex -0.0010858 0.000118088 5e-05
         vertex -0.0010858 0.000118088 0
      endloop
   endfacet
   facet normal 0.947653 -0.319302 0
      outer loop
         vertex -0.00103503 0.000348741 5e-05
         vertex -0.00106666 0.000234791 5e-05
         vertex -0.00106666 0.000234791 0
      endloop
   endfacet
   facet normal 0.907575 -0.419889 0
      outer loop
         vertex -0.000991254 0.000458603 5e-05
         vertex -0.00103503 0.000348741 5e-05
         vertex -0.00103503 0.000348741 0
      endloop
   endfacet
   facet normal 0.856857 -0.515554 0
      outer loop
         vertex -0.000935859 0.000563088 5e-05
         vertex -0.000991254 0.000458603 5e-05
         vertex -0.000991254 0.000458603 0
      endloop
   endfacet
   facet normal 0.796093 -0.605174 0
      outer loop
         vertex -0.000869493 0.000660971 5e-05
         vertex -0.000935859 0.000563088 5e-05
         vertex -0.000935859 0.000563088 0
      endloop
   endfacet
   facet normal 0.725995 -0.687699 0
      outer loop
         vertex -0.000792932 0.000751105 5e-05
         vertex -0.000869493 0.000660971 5e-05
         vertex -0.000869493 0.000660971 0
      endloop
   endfacet
   facet normal 0.647386 -0.762162 0
      outer loop
         vertex -0.000707075 0.000832433 5e-05
         vertex -0.000792932 0.000751105 5e-05
         vertex -0.000792932 0.000751105 0
      endloop
   endfacet
   facet normal 0.561187 -0.827689 0
      outer loop
         vertex -0.000612929 0.000904002 5e-05
         vertex -0.000707075 0.000832433 5e-05
         vertex -0.000707075 0.000832433 0
      endloop
   endfacet
   facet normal 0.468408 -0.883512 0
      outer loop
         vertex -0.000511596 0.000964972 5e-05
         vertex -0.000612929 0.000904002 5e-05
         vertex -0.000612929 0.000904002 0
      endloop
   endfacet
   facet normal 0.370138 -0.928977 0
      outer loop
         vertex -0.000404265 0.00101463 5e-05
         vertex -0.000511596 0.000964972 5e-05
         vertex -0.000511596 0.000964972 0
      endloop
   endfacet
   facet normal 0.267528 -0.96355 0
      outer loop
         vertex -0.000292194 0.00105239 5e-05
         vertex -0.000404265 0.00101463 5e-05
         vertex -0.000404265 0.00101463 0
      endloop
   endfacet
   facet normal 0.161782 -0.986827 0
      outer loop
         vertex -0.000176698 0.00107781 5e-05
         vertex -0.000292194 0.00105239 5e-05
         vertex -0.000292194 0.00105239 0
      endloop
   endfacet
   facet normal 0.0541389 -0.998533 0
      outer loop
         vertex -5.91305e-05 0.0010906 5e-05
         vertex -0.000176698 0.00107781 5e-05
         vertex -0.000176698 0.00107781 0
      endloop
   endfacet
   facet normal 0.0541389 -0.998533 0
      outer loop
         vertex -5.91305e-05 0.0010906 0
         vertex 5.91305e-05 0.0010906 0
         vertex 3.3439e-19 0.0010922 5e-05
      endloop
   endfacet
   facet normal -0.0541389 -0.998533 0
      outer loop
         vertex 5.91305e-05 0.0010906 0
         vertex 5.91305e-05 0.0010906 5e-05
         vertex 3.3439e-19 0.0010922 5e-05
      endloop
   endfacet
   facet normal -0.161782 -0.986827 0
      outer loop
         vertex 0.000176698 0.00107781 5e-05
         vertex 5.91305e-05 0.0010906 5e-05
         vertex 5.91305e-05 0.0010906 0
      endloop
   endfacet
   facet normal -0.267528 -0.96355 0
      outer loop
         vertex 0.000292194 0.00105239 5e-05
         vertex 0.000176698 0.00107781 5e-05
         vertex 0.000176698 0.00107781 0
      endloop
   endfacet
   facet normal -0.370138 -0.928977 0
      outer loop
         vertex 0.000404265 0.00101463 5e-05
         vertex 0.000292194 0.00105239 5e-05
         vertex 0.000292194 0.00105239 0
      endloop
   endfacet
   facet normal -0.468408 -0.883512 0
      outer loop
         vertex 0.000511596 0.000964972 5e-05
         vertex 0.000404265 0.00101463 5e-05
         vertex 0.000404265 0.00101463 0
      endloop
   endfacet
   facet normal -0.561187 -0.827689 0
      outer loop
         vertex 0.000612929 0.000904002 5e-05
         vertex 0.000511596 0.000964972 5e-05
         vertex 0.000511596 0.000964972 0
      endloop
   endfacet
   facet normal -0.647386 -0.762162 0
      outer loop
         vertex 0.000707075 0.000832433 5e-05
         vertex 0.000612929 0.000904002 5e-05
         vertex 0.000612929 0.000904002 0
      endloop
   endfacet
   facet normal -0.725995 -0.687699 0
      outer loop
         vertex 0.000792932 0.000751105 5e-05
         vertex 0.000707075 0.000832433 5e-05
         vertex 0.000707075 0.000832433 0
      endloop
   endfacet
   facet normal -0.796093 -0.605174 0
      outer loop
         vertex 0.000869493 0.000660971 5e-05
         vertex 0.000792932 0.000751105 5e-05
         vertex 0.000792932 0.000751105 0
      endloop
   endfacet
   facet normal -0.856857 -0.515554 0
      outer loop
         vertex 0.000935859 0.000563088 5e-05
         vertex 0.000869493 0.000660971 5e-05
         vertex 0.000869493 0.000660971 0
      endloop
   endfacet
   facet normal -0.907575 -0.419889 0
      outer loop
         vertex 0.000991254 0.000458603 5e-05
         vertex 0.000935859 0.000563088 5e-05
         vertex 0.000935859 0.000563088 0
      endloop
   endfacet
   facet normal -0.947653 -0.319302 0
      outer loop
         vertex 0.00103503 0.000348741 5e-05
         vertex 0.000991254 0.000458603 5e-05
         vertex 0.000991254 0.000458603 0
      endloop
   endfacet
   facet normal -0.976621 -0.21497 0
      outer loop
         vertex 0.00106666 0.000234791 5e-05
         vertex 0.00103503 0.000348741 5e-05
         vertex 0.00103503 0.000348741 0
      endloop
   endfacet
   facet normal -0.994138 -0.108119 0
      outer loop
         vertex 0.0010858 0.000118088 5e-05
         vertex 0.00106666 0.000234791 5e-05
         vertex 0.00106666 0.000234791 0
      endloop
   endfacet
   facet normal -1 2.44929e-16 0
      outer loop
         vertex 0.0010922 0 5e-05
         vertex 0.0010858 0.000118088 5e-05
         vertex 0.0010858 0.000118088 0
      endloop
   endfacet
   facet normal -0.994138 -0.108119 0
      outer loop
         vertex 0.0010858 0.000118088 0
         vertex 0.0010922 0 0
         vertex 0.0010922 0 5e-05
      endloop
   endfacet
   facet normal -0.976621 -0.21497 0
      outer loop
         vertex 0.00106666 0.000234791 0
         vertex 0.0010858 0.000118088 0
         vertex 0.0010858 0.000118088 5e-05
      endloop
   endfacet
   facet normal -0.947653 -0.319302 0
      outer loop
         vertex 0.00103503 0.000348741 0
         vertex 0.00106666 0.000234791 0
         vertex 0.00106666 0.000234791 5e-05
      endloop
   endfacet
   facet normal -0.907575 -0.419889 0
      outer loop
         vertex 0.000991254 0.000458603 0
         vertex 0.00103503 0.000348741 0
         vertex 0.00103503 0.000348741 5e-05
      endloop
   endfacet
   facet normal -0.856857 -0.515554 0
      outer loop
         vertex 0.000935859 0.000563088 0
         vertex 0.000991254 0.000458603 0
         vertex 0.000991254 0.000458603 5e-05
      endloop
   endfacet
   facet normal -0.796093 -0.605174 0
      outer loop
         vertex 0.000869493 0.000660971 0
         vertex 0.000935859 0.000563088 0
         vertex 0.000935859 0.000563088 5e-05
      endloop
   endfacet
   facet normal -0.725995 -0.687699 0
      outer loop
         vertex 0.000792932 0.000751105 0
         vertex 0.000869493 0.000660971 0
         vertex 0.000869493 0.000660971 5e-05
      endloop
   endfacet
   facet normal -0.647386 -0.762162 0
      outer loop
         vertex 0.000707075 0.000832433 0
         vertex 0.000792932 0.000751105 0
         vertex 0.000792932 0.000751105 5e-05
      endloop
   endfacet
   facet normal -0.561187 -0.827689 0
      outer loop
         vertex 0.000612929 0.000904002 0
         vertex 0.000707075 0.000832433 0
         vertex 0.000707075 0.000832433 5e-05
      endloop
   endfacet
   facet normal -0.468408 -0.883512 0
      outer loop
         vertex 0.000511596 0.000964972 0
         vertex 0.000612929 0.000904002 0
         vertex 0.000612929 0.000904002 5e-05
      endloop
   endfacet
   facet normal -0.370138 -0.928977 0
      outer loop
         vertex 0.000404265 0.00101463 0
         vertex 0.000511596 0.000964972 0
         vertex 0.000511596 0.000964972 5e-05
      endloop
   endfacet
   facet normal -0.267528 -0.96355 0
      outer loop
         vertex 0.000292194 0.00105239 0
         vertex 0.000404265 0.00101463 0
         vertex 0.000404265 0.00101463 5e-05
      endloop
   endfacet
   facet normal -0.161782 -0.986827 0
      outer loop
         vertex 0.000176698 0.00107781 0
         vertex 0.000292194 0.00105239 0
         vertex 0.000292194 0.00105239 5e-05
      endloop
   endfacet
   facet normal -0.0541389 -0.998533 0
      outer loop
         vertex 5.91305e-05 0.0010906 0
         vertex 0.000176698 0.00107781 0
         vertex 0.000176698 0.00107781 5e-05
      endloop
   endfacet
   facet normal -3.06162e-16 -1 0
      outer loop
         vertex 3.3439e-19 0.0010922 5e-05
         vertex -5.91305e-05 0.0010906 5e-05
         vertex -5.91305e-05 0.0010906 0
      endloop
   endfacet
   facet normal 0.161782 -0.986827 0
      outer loop
         vertex -0.000176698 0.00107781 0
         vertex -5.91305e-05 0.0010906 0
         vertex -5.91305e-05 0.0010906 5e-05
      endloop
   endfacet
   facet normal 0.267528 -0.96355 0
      outer loop
         vertex -0.000292194 0.00105239 0
         vertex -0.000176698 0.00107781 0
         vertex -0.000176698 0.00107781 5e-05
      endloop
   endfacet
   facet normal 0.370138 -0.928977 0
      outer loop
         vertex -0.000404265 0.00101463 0
         vertex -0.000292194 0.00105239 0
         vertex -0.000292194 0.00105239 5e-05
      endloop
   endfacet
   facet normal 0.468408 -0.883512 0
      outer loop
         vertex -0.000511596 0.000964972 0
         vertex -0.000404265 0.00101463 0
         vertex -0.000404265 0.00101463 5e-05
      endloop
   endfacet
   facet normal 0.561187 -0.827689 0
      outer loop
         vertex -0.000612929 0.000904002 0
         vertex -0.000511596 0.000964972 0
         vertex -0.000511596 0.000964972 5e-05
      endloop
   endfacet
   facet normal 0.647386 -0.762162 0
      outer loop
         vertex -0.000707075 0.000832433 0
         vertex -0.000612929 0.000904002 0
         vertex -0.000612929 0.000904002 5e-05
      endloop
   endfacet
   facet normal 0.725995 -0.687699 0
      outer loop
         vertex -0.000792932 0.000751105 0
         vertex -0.000707075 0.000832433 0
         vertex -0.000707075 0.000832433 5e-05
      endloop
   endfacet
   facet normal 0.796093 -0.605174 0
      outer loop
         vertex -0.000869493 0.000660971 0
         vertex -0.000792932 0.000751105 0
         vertex -0.000792932 0.000751105 5e-05
      endloop
   endfacet
   facet normal 0.856857 -0.515554 0
      outer loop
         vertex -0.000935859 0.000563088 0
         vertex -0.000869493 0.000660971 0
         vertex -0.000869493 0.000660971 5e-05
      endloop
   endfacet
   facet normal 0.907575 -0.419889 0
      outer loop
         vertex -0.000991254 0.000458603 0
         vertex -0.000935859 0.000563088 0
         vertex -0.000935859 0.000563088 5e-05
      endloop
   endfacet
   facet normal 0.947653 -0.319302 0
      outer loop
         vertex -0.00103503 0.000348741 0
         vertex -0.000991254 0.000458603 0
         vertex -0.000991254 0.000458603 5e-05
      endloop
   endfacet
   facet normal 0.976621 -0.21497 0
      outer loop
         vertex -0.00106666 0.000234791 0
         vertex -0.00103503 0.000348741 0
         vertex -0.00103503 0.000348741 5e-05
      endloop
   endfacet
   facet normal 0.994138 -0.108119 0
      outer loop
         vertex -0.0010858 0.000118088 0
         vertex -0.00106666 0.000234791 0
         vertex -0.00106666 0.000234791 5e-05
      endloop
   endfacet
   facet normal 1 -1.22465e-16 0
      outer loop
         vertex -0.0010922 1.33756e-19 0
         vertex -0.0010858 0.000118088 0
         vertex -0.0010858 0.000118088 5e-05
      endloop
   endfacet
   facet normal 0.994138 0.108119 0
      outer loop
         vertex -0.0010858 -0.000118088 0
         vertex -0.0010922 1.33756e-19 0
         vertex -0.0010922 1.33756e-19 5e-05
      endloop
   endfacet
   facet normal 0.976621 0.21497 0
      outer loop
         vertex -0.00106666 -0.000234791 0
         vertex -0.0010858 -0.000118088 0
         vertex -0.0010858 -0.000118088 5e-05
      endloop
   endfacet
   facet normal 0.947653 0.319302 0
      outer loop
         vertex -0.00103503 -0.000348741 0
         vertex -0.00106666 -0.000234791 0
         vertex -0.00106666 -0.000234791 5e-05
      endloop
   endfacet
   facet normal 0.907575 0.419889 0
      outer loop
         vertex -0.000991254 -0.000458603 0
         vertex -0.00103503 -0.000348741 0
         vertex -0.00103503 -0.000348741 5e-05
      endloop
   endfacet
   facet normal 0.856857 0.515554 0
      outer loop
         vertex -0.000935859 -0.000563088 0
         vertex -0.000991254 -0.000458603 0
         vertex -0.000991254 -0.000458603 5e-05
      endloop
   endfacet
   facet normal 0.796093 0.605174 0
      outer loop
         vertex -0.000869493 -0.000660971 0
         vertex -0.000935859 -0.000563088 0
         vertex -0.000935859 -0.000563088 5e-05
      endloop
   endfacet
   facet normal 0.725995 0.687699 0
      outer loop
         vertex -0.000792932 -0.000751105 0
         vertex -0.000869493 -0.000660971 0
         vertex -0.000869493 -0.000660971 5e-05
      endloop
   endfacet
   facet normal 0.647386 0.762162 0
      outer loop
         vertex -0.000707075 -0.000832433 0
         vertex -0.000792932 -0.000751105 0
         vertex -0.000792932 -0.000751105 5e-05
      endloop
   endfacet
   facet normal 0.561187 0.827689 0
      outer loop
         vertex -0.000612929 -0.000904002 0
         vertex -0.000707075 -0.000832433 0
         vertex -0.000707075 -0.000832433 5e-05
      endloop
   endfacet
   facet normal 0.468408 0.883512 0
      outer loop
         vertex -0.000511596 -0.000964972 0
         vertex -0.000612929 -0.000904002 0
         vertex -0.000612929 -0.000904002 5e-05
      endloop
   endfacet
   facet normal 0.370138 0.928977 0
      outer loop
         vertex -0.000404265 -0.00101463 0
         vertex -0.000511596 -0.000964972 0
         vertex -0.000511596 -0.000964972 5e-05
      endloop
   endfacet
   facet normal 0.267528 0.96355 0
      outer loop
         vertex -0.000292194 -0.00105239 0
         vertex -0.000404265 -0.00101463 0
         vertex -0.000404265 -0.00101463 5e-05
      endloop
   endfacet
   facet normal 0.161782 0.986827 0
      outer loop
         vertex -0.000176698 -0.00107781 0
         vertex -0.000292194 -0.00105239 0
         vertex -0.000292194 -0.00105239 5e-05
      endloop
   endfacet
   facet normal 0.0541389 0.998533 0
      outer loop
         vertex -5.91305e-05 -0.0010906 0
         vertex -0.000176698 -0.00107781 0
         vertex -0.000176698 -0.00107781 5e-05
      endloop
   endfacet
   facet normal 1.83697e-16 1 0
      outer loop
         vertex -2.00634e-19 -0.0010922 0
         vertex -5.91305e-05 -0.0010906 0
         vertex -5.91305e-05 -0.0010906 5e-05
      endloop
   endfacet
   facet normal -0.161782 0.986827 0
      outer loop
         vertex 0.000176698 -0.00107781 0
         vertex 5.91305e-05 -0.0010906 0
         vertex 5.91305e-05 -0.0010906 5e-05
      endloop
   endfacet
   facet normal -0.267528 0.96355 0
      outer loop
         vertex 0.000292194 -0.00105239 0
         vertex 0.000176698 -0.00107781 0
         vertex 0.000176698 -0.00107781 5e-05
      endloop
   endfacet
   facet normal -0.370138 0.928977 0
      outer loop
         vertex 0.000404265 -0.00101463 0
         vertex 0.000292194 -0.00105239 0
         vertex 0.000292194 -0.00105239 5e-05
      endloop
   endfacet
   facet normal -0.468408 0.883512 0
      outer loop
         vertex 0.000511596 -0.000964972 0
         vertex 0.000404265 -0.00101463 0
         vertex 0.000404265 -0.00101463 5e-05
      endloop
   endfacet
   facet normal -0.561187 0.827689 0
      outer loop
         vertex 0.000612929 -0.000904002 0
         vertex 0.000511596 -0.000964972 0
         vertex 0.000511596 -0.000964972 5e-05
      endloop
   endfacet
   facet normal -0.647386 0.762162 0
      outer loop
         vertex 0.000707075 -0.000832433 0
         vertex 0.000612929 -0.000904002 0
         vertex 0.000612929 -0.000904002 5e-05
      endloop
   endfacet
   facet normal -0.725995 0.687699 0
      outer loop
         vertex 0.000792932 -0.000751105 0
         vertex 0.000707075 -0.000832433 0
         vertex 0.000707075 -0.000832433 5e-05
      endloop
   endfacet
   facet normal -0.796093 0.605174 0
      outer loop
         vertex 0.000869493 -0.000660971 0
         vertex 0.000792932 -0.000751105 0
         vertex 0.000792932 -0.000751105 5e-05
      endloop
   endfacet
   facet normal -0.856857 0.515554 0
      outer loop
         vertex 0.000935859 -0.000563088 0
         vertex 0.000869493 -0.000660971 0
         vertex 0.000869493 -0.000660971 5e-05
      endloop
   endfacet
   facet normal -0.907575 0.419889 0
      outer loop
         vertex 0.000991254 -0.000458603 0
         vertex 0.000935859 -0.000563088 0
         vertex 0.000935859 -0.000563088 5e-05
      endloop
   endfacet
   facet normal -0.947653 0.319302 0
      outer loop
         vertex 0.00103503 -0.000348741 0
         vertex 0.000991254 -0.000458603 0
         vertex 0.000991254 -0.000458603 5e-05
      endloop
   endfacet
   facet normal -0.976621 0.21497 0
      outer loop
         vertex 0.00106666 -0.000234791 0
         vertex 0.00103503 -0.000348741 0
         vertex 0.00103503 -0.000348741 5e-05
      endloop
   endfacet
   facet normal -0.994138 0.108119 0
      outer loop
         vertex 0.0010858 -0.000118088 0
         vertex 0.00106666 -0.000234791 0
         vertex 0.00106666 -0.000234791 5e-05
      endloop
   endfacet
   facet normal -1 2.44929e-16 0
      outer loop
         vertex 0.0010922 0 0
         vertex 0.0010858 -0.000118088 0
         vertex 0.0010858 -0.000118088 5e-05
      endloop
   endfacet
   facet normal 0 0 -1
      outer loop
         vertex -0.000739963 0.000871151 0
         vertex -0.000707075 0.000832433 0
         vertex -0.000792932 0.000751105 0
      endloop
   endfacet
   facet normal 0 0 -1
      outer loop
         vertex -0.000739963 0.000871151 0
         vertex -0.000641437 0.000946049 0
         vertex -0.000612929 0.000904002 0
      endloop
   endfacet
   facet normal 0 0 -1
      outer loop
         vertex -0.000641437 0.000946049 0
         vertex -0.000535391 0.00100985 0
         vertex -0.000511596 0.000964972 0
      endloop
   endfacet
   facet normal 0 0 -1
      outer loop
         vertex -0.000535391 0.00100985 0
         vertex -0.000423068 0.00106182 0
         vertex -0.000404265 0.00101463 0
      endloop
   endfacet
   facet normal 0 0 -1
      outer loop
         vertex -4.8992e-19 -0.001143 0
         vertex -2.00634e-19 -0.0010922 0
         vertex 5.91305e-05 -0.0010906 0
      endloop
   endfacet
   facet normal 0 0 -1
      outer loop
         vertex -6.18808e-05 -0.00114132 0
         vertex -5.91305e-05 -0.0010906 0
         vertex -2.00634e-19 -0.0010922 0
      endloop
   endfacet
   facet normal 0 0 -1
      outer loop
         vertex -0.000979388 0.000589278 0
         vertex -0.000935859 0.000563088 0
         vertex -0.000991254 0.000458603 0
      endloop
   endfacet
   facet normal 0 0 -1
      outer loop
         vertex -0.000979388 0.000589278 0
         vertex -0.000909934 0.000691714 0
         vertex -0.000869493 0.000660971 0
      endloop
   endfacet
   facet normal 0 0 -1
      outer loop
         vertex -0.000612929 0.000904002 0
         vertex -0.000707075 0.000832433 0
         vertex -0.000739963 0.000871151 0
      endloop
   endfacet
   facet normal 0 0 -1
      outer loop
         vertex -0.000404265 0.00101463 0
         vertex -0.000511596 0.000964972 0
         vertex -0.000535391 0.00100985 0
      endloop
   endfacet
   facet normal 0 0 -1
      outer loop
         vertex -0.000184917 0.00112794 0
         vertex -0.000176698 0.00107781 0
         vertex -0.000292194 0.00105239 0
      endloop
   endfacet
   facet normal 0 0 -1
      outer loop
         vertex -0.000184917 0.00112794 0
         vertex -6.18808e-05 0.00114132 0
         vertex -5.91305e-05 0.0010906 0
      endloop
   endfacet
   facet normal 0 0 -1
      outer loop
         vertex 0.0011363 0.00012358 0
         vertex 0.001143 -2.79954e-19 0
         vertex 0.0010922 0 0
      endloop
   endfacet
   facet normal 0 0 -1
      outer loop
         vertex 0.001143 -2.79954e-19 0
         vertex 0.0011363 -0.00012358 0
         vertex 0.0010858 -0.000118088 0
      endloop
   endfacet
   facet normal 0 0 -1
      outer loop
         vertex 0.00108317 -0.000364962 0
         vertex 0.00103503 -0.000348741 0
         vertex 0.00106666 -0.000234791 0
      endloop
   endfacet
   facet normal 0 0 -1
      outer loop
         vertex 0.00103736 -0.000479933 0
         vertex 0.000991254 -0.000458603 0
         vertex 0.00103503 -0.000348741 0
      endloop
   endfacet
   facet normal 0 0 -1
      outer loop
         vertex 0.000909934 -0.000691714 0
         vertex 0.000869493 -0.000660971 0
         vertex 0.000935859 -0.000563088 0
      endloop
   endfacet
   facet normal 0 0 -1
      outer loop
         vertex 0.000829813 -0.00078604 0
         vertex 0.000792932 -0.000751105 0
         vertex 0.000869493 -0.000660971 0
      endloop
   endfacet
   facet normal 0 0 -1
      outer loop
         vertex 0.000739963 -0.000871151 0
         vertex 0.000707075 -0.000832433 0
         vertex 0.000792932 -0.000751105 0
      endloop
   endfacet
   facet normal 0 0 -1
      outer loop
         vertex 0.000739963 -0.000871151 0
         vertex 0.000641437 -0.000946049 0
         vertex 0.000612929 -0.000904002 0
      endloop
   endfacet
   facet normal 0 0 -1
      outer loop
         vertex 0.000184917 -0.00112794 0
         vertex 6.18808e-05 -0.00114132 0
         vertex 5.91305e-05 -0.0010906 0
      endloop
   endfacet
   facet normal 0 0 -1
      outer loop
         vertex -2.00634e-19 -0.0010922 0
         vertex -4.8992e-19 -0.001143 0
         vertex -6.18808e-05 -0.00114132 0
      endloop
   endfacet
   facet normal 0 0 -1
      outer loop
         vertex -0.000869493 0.000660971 0
         vertex -0.000935859 0.000563088 0
         vertex -0.000979388 0.000589278 0
      endloop
   endfacet
   facet normal 0 0 -1
      outer loop
         vertex -0.000829813 0.00078604 0
         vertex -0.000792932 0.000751105 0
         vertex -0.000869493 0.000660971 0
      endloop
   endfacet
   facet normal 0 0 -1
      outer loop
         vertex -0.000511596 0.000964972 0
         vertex -0.000612929 0.000904002 0
         vertex -0.000641437 0.000946049 0
      endloop
   endfacet
   facet normal 0 0 -1
      outer loop
         vertex -0.000305785 0.00110134 0
         vertex -0.000292194 0.00105239 0
         vertex -0.000404265 0.00101463 0
      endloop
   endfacet
   facet normal 0 0 -1
      outer loop
         vertex -5.91305e-05 0.0010906 0
         vertex -0.000176698 0.00107781 0
         vertex -0.000184917 0.00112794 0
      endloop
   endfacet
   facet normal 0 0 -1
      outer loop
         vertex -6.18808e-05 0.00114132 0
         vertex 6.18808e-05 0.00114132 0
         vertex 5.91305e-05 0.0010906 0
      endloop
   endfacet
   facet normal 0 0 -1
      outer loop
         vertex 0.000184917 0.00112794 0
         vertex 0.000176698 0.00107781 0
         vertex 5.91305e-05 0.0010906 0
      endloop
   endfacet
   facet normal 0 0 -1
      outer loop
         vertex 0.000184917 0.00112794 0
         vertex 0.000305785 0.00110134 0
         vertex 0.000292194 0.00105239 0
      endloop
   endfacet
   facet normal 0 0 -1
      outer loop
         vertex 0.00108317 0.000364962 0
         vertex 0.00103503 0.000348741 0
         vertex 0.000991254 0.000458603 0
      endloop
   endfacet
   facet normal 0 0 -1
      outer loop
         vertex 0.00108317 0.000364962 0
         vertex 0.00111628 0.000245711 0
         vertex 0.00106666 0.000234791 0
      endloop
   endfacet
   facet normal 0 0 -1
      outer loop
         vertex 0.0010858 -0.000118088 0
         vertex 0.0010922 0 0
         vertex 0.001143 -2.79954e-19 0
      endloop
   endfacet
   facet normal 0 0 -1
      outer loop
         vertex 0.00111628 -0.000245711 0
         vertex 0.00106666 -0.000234791 0
         vertex 0.0010858 -0.000118088 0
      endloop
   endfacet
   facet normal 0 0 -1
      outer loop
         vertex 0.00103503 -0.000348741 0
         vertex 0.00108317 -0.000364962 0
         vertex 0.00103736 -0.000479933 0
      endloop
   endfacet
   facet normal 0 0 -1
      outer loop
         vertex 0.00103736 -0.000479933 0
         vertex 0.000979388 -0.000589278 0
         vertex 0.000935859 -0.000563088 0
      endloop
   endfacet
   facet normal 0 0 -1
      outer loop
         vertex 0.000869493 -0.000660971 0
         vertex 0.000909934 -0.000691714 0
         vertex 0.000829813 -0.00078604 0
      endloop
   endfacet
   facet normal 0 0 -1
      outer loop
         vertex 0.000612929 -0.000904002 0
         vertex 0.000707075 -0.000832433 0
         vertex 0.000739963 -0.000871151 0
      endloop
   endfacet
   facet normal 0 0 -1
      outer loop
         vertex 5.91305e-05 -0.0010906 0
         vertex 6.18808e-05 -0.00114132 0
         vertex -4.8992e-19 -0.001143 0
      endloop
   endfacet
   facet normal 0 0 -1
      outer loop
         vertex -0.000184917 -0.00112794 0
         vertex -0.000176698 -0.00107781 0
         vertex -5.91305e-05 -0.0010906 0
      endloop
   endfacet
   facet normal 0 0 -1
      outer loop
         vertex -0.000739963 -0.000871151 0
         vertex -0.000707075 -0.000832433 0
         vertex -0.000612929 -0.000904002 0
      endloop
   endfacet
   facet normal 0 0 -1
      outer loop
         vertex -0.000739963 -0.000871151 0
         vertex -0.000829813 -0.00078604 0
         vertex -0.000792932 -0.000751105 0
      endloop
   endfacet
   facet normal 0 0 -1
      outer loop
         vertex -0.000909934 -0.000691714 0
         vertex -0.000869493 -0.000660971 0
         vertex -0.000792932 -0.000751105 0
      endloop
   endfacet
   facet normal 0 0 -1
      outer loop
         vertex -0.000909934 -0.000691714 0
         vertex -0.000979388 -0.000589278 0
         vertex -0.000935859 -0.000563088 0
      endloop
   endfacet
   facet normal 0 0 -1
      outer loop
         vertex -0.000869493 0.000660971 0
         vertex -0.000909934 0.000691714 0
         vertex -0.000829813 0.00078604 0
      endloop
   endfacet
   facet normal 0 0 -1
      outer loop
         vertex -0.000404265 0.00101463 0
         vertex -0.000423068 0.00106182 0
         vertex -0.000305785 0.00110134 0
      endloop
   endfacet
   facet normal 0 0 -1
      outer loop
         vertex 5.91305e-05 0.0010906 0
         vertex -5.91305e-05 0.0010906 0
         vertex -6.18808e-05 0.00114132 0
      endloop
   endfacet
   facet normal 0 0 -1
      outer loop
         vertex 0.000292194 0.00105239 0
         vertex 0.000176698 0.00107781 0
         vertex 0.000184917 0.00112794 0
      endloop
   endfacet
   facet normal 0 0 -1
      outer loop
         vertex 0.000423068 0.00106182 0
         vertex 0.000404265 0.00101463 0
         vertex 0.000292194 0.00105239 0
      endloop
   endfacet
   facet normal 0 0 -1
      outer loop
         vertex 0.000423068 0.00106182 0
         vertex 0.000535391 0.00100985 0
         vertex 0.000511596 0.000964972 0
      endloop
   endfacet
   facet normal 0 0 -1
      outer loop
         vertex 0.000739963 0.000871151 0
         vertex 0.000707075 0.000832433 0
         vertex 0.000612929 0.000904002 0
      endloop
   endfacet
   facet normal 0 0 -1
      outer loop
         vertex 0.000739963 0.000871151 0
         vertex 0.000829813 0.00078604 0
         vertex 0.000792932 0.000751105 0
      endloop
   endfacet
   facet normal 0 0 -1
      outer loop
         vertex 0.00106666 0.000234791 0
         vertex 0.00103503 0.000348741 0
         vertex 0.00108317 0.000364962 0
      endloop
   endfacet
   facet normal 0 0 -1
      outer loop
         vertex 0.00111628 0.000245711 0
         vertex 0.0011363 0.00012358 0
         vertex 0.0010858 0.000118088 0
      endloop
   endfacet
   facet normal 0 0 -1
      outer loop
         vertex 0.0010858 -0.000118088 0
         vertex 0.0011363 -0.00012358 0
         vertex 0.00111628 -0.000245711 0
      endloop
   endfacet
   facet normal 0 0 -1
      outer loop
         vertex 0.000935859 -0.000563088 0
         vertex 0.000991254 -0.000458603 0
         vertex 0.00103736 -0.000479933 0
      endloop
   endfacet
   facet normal 0 0 -1
      outer loop
         vertex 0.000792932 -0.000751105 0
         vertex 0.000829813 -0.00078604 0
         vertex 0.000739963 -0.000871151 0
      endloop
   endfacet
   facet normal 0 0 -1
      outer loop
         vertex 0.000641437 -0.000946049 0
         vertex 0.000535391 -0.00100985 0
         vertex 0.000511596 -0.000964972 0
      endloop
   endfacet
   facet normal 0 0 -1
      outer loop
         vertex 0.000423068 -0.00106182 0
         vertex 0.000404265 -0.00101463 0
         vertex 0.000511596 -0.000964972 0
      endloop
   endfacet
   facet normal 0 0 -1
      outer loop
         vertex 0.000423068 -0.00106182 0
         vertex 0.000305785 -0.00110134 0
         vertex 0.000292194 -0.00105239 0
      endloop
   endfacet
   facet normal 0 0 -1
      outer loop
         vertex -5.91305e-05 -0.0010906 0
         vertex -6.18808e-05 -0.00114132 0
         vertex -0.000184917 -0.00112794 0
      endloop
   endfacet
   facet normal 0 0 -1
      outer loop
         vertex -0.000305785 -0.00110134 0
         vertex -0.000292194 -0.00105239 0
         vertex -0.000176698 -0.00107781 0
      endloop
   endfacet
   facet normal 0 0 -1
      outer loop
         vertex -0.000535391 -0.00100985 0
         vertex -0.000511596 -0.000964972 0
         vertex -0.000404265 -0.00101463 0
      endloop
   endfacet
   facet normal 0 0 -1
      outer loop
         vertex -0.000535391 -0.00100985 0
         vertex -0.000641437 -0.000946049 0
         vertex -0.000612929 -0.000904002 0
      endloop
   endfacet
   facet normal 0 0 -1
      outer loop
         vertex -0.000792932 -0.000751105 0
         vertex -0.000707075 -0.000832433 0
         vertex -0.000739963 -0.000871151 0
      endloop
   endfacet
   facet normal 0 0 -1
      outer loop
         vertex -0.000935859 -0.000563088 0
         vertex -0.000869493 -0.000660971 0
         vertex -0.000909934 -0.000691714 0
      endloop
   endfacet
   facet normal 0 0 -1
      outer loop
         vertex -0.000979388 -0.000589278 0
         vertex -0.00103736 -0.000479933 0
         vertex -0.000991254 -0.000458603 0
      endloop
   endfacet
   facet normal 0 0 -1
      outer loop
         vertex -0.00103736 -0.000479933 0
         vertex -0.00108317 -0.000364962 0
         vertex -0.00103503 -0.000348741 0
      endloop
   endfacet
   facet normal 0 0 -1
      outer loop
         vertex -0.00108317 -0.000364962 0
         vertex -0.00111628 -0.000245711 0
         vertex -0.00106666 -0.000234791 0
      endloop
   endfacet
   facet normal 0 0 -1
      outer loop
         vertex -0.00111628 -0.000245711 0
         vertex -0.0011363 -0.00012358 0
         vertex -0.0010858 -0.000118088 0
      endloop
   endfacet
   facet normal 0 0 -1
      outer loop
         vertex -0.000792932 0.000751105 0
         vertex -0.000829813 0.00078604 0
         vertex -0.000739963 0.000871151 0
      endloop
   endfacet
   facet normal 0 0 -1
      outer loop
         vertex 5.91305e-05 0.0010906 0
         vertex 6.18808e-05 0.00114132 0
         vertex 0.000184917 0.00112794 0
      endloop
   endfacet
   facet normal 0 0 -1
      outer loop
         vertex 0.000511596 0.000964972 0
         vertex 0.000404265 0.00101463 0
         vertex 0.000423068 0.00106182 0
      endloop
   endfacet
   facet normal 0 0 -1
      outer loop
         vertex 0.000641437 0.000946049 0
         vertex 0.000612929 0.000904002 0
         vertex 0.000511596 0.000964972 0
      endloop
   endfacet
   facet normal 0 0 -1
      outer loop
         vertex 0.000792932 0.000751105 0
         vertex 0.000707075 0.000832433 0
         vertex 0.000739963 0.000871151 0
      endloop
   endfacet
   facet normal 0 0 -1
      outer loop
         vertex 0.000829813 0.00078604 0
         vertex 0.000909934 0.000691714 0
         vertex 0.000869493 0.000660971 0
      endloop
   endfacet
   facet normal 0 0 -1
      outer loop
         vertex 0.000909934 0.000691714 0
         vertex 0.000979388 0.000589278 0
         vertex 0.000935859 0.000563088 0
      endloop
   endfacet
   facet normal 0 0 -1
      outer loop
         vertex 0.00103736 0.000479933 0
         vertex 0.000991254 0.000458603 0
         vertex 0.000935859 0.000563088 0
      endloop
   endfacet
   facet normal 0 0 -1
      outer loop
         vertex 0.0010858 0.000118088 0
         vertex 0.00106666 0.000234791 0
         vertex 0.00111628 0.000245711 0
      endloop
   endfacet
   facet normal 0 0 -1
      outer loop
         vertex 0.00106666 -0.000234791 0
         vertex 0.00111628 -0.000245711 0
         vertex 0.00108317 -0.000364962 0
      endloop
   endfacet
   facet normal 0 0 -1
      outer loop
         vertex 0.000511596 -0.000964972 0
         vertex 0.000612929 -0.000904002 0
         vertex 0.000641437 -0.000946049 0
      endloop
   endfacet
   facet normal 0 0 -1
      outer loop
         vertex 0.000292194 -0.00105239 0
         vertex 0.000404265 -0.00101463 0
         vertex 0.000423068 -0.00106182 0
      endloop
   endfacet
   facet normal 0 0 -1
      outer loop
         vertex -0.000176698 -0.00107781 0
         vertex -0.000184917 -0.00112794 0
         vertex -0.000305785 -0.00110134 0
      endloop
   endfacet
   facet normal 0 0 -1
      outer loop
         vertex -0.000305785 -0.00110134 0
         vertex -0.000423068 -0.00106182 0
         vertex -0.000404265 -0.00101463 0
      endloop
   endfacet
   facet normal 0 0 -1
      outer loop
         vertex -0.000612929 -0.000904002 0
         vertex -0.000511596 -0.000964972 0
         vertex -0.000535391 -0.00100985 0
      endloop
   endfacet
   facet normal 0 0 -1
      outer loop
         vertex -0.000792932 -0.000751105 0
         vertex -0.000829813 -0.00078604 0
         vertex -0.000909934 -0.000691714 0
      endloop
   endfacet
   facet normal 0 0 -1
      outer loop
         vertex -0.00103503 -0.000348741 0
         vertex -0.000991254 -0.000458603 0
         vertex -0.00103736 -0.000479933 0
      endloop
   endfacet
   facet normal 0 0 -1
      outer loop
         vertex -0.0010858 -0.000118088 0
         vertex -0.00106666 -0.000234791 0
         vertex -0.00111628 -0.000245711 0
      endloop
   endfacet
   facet normal 0 0 -1
      outer loop
         vertex -0.001143 1.39977e-19 0
         vertex -0.0011363 0.00012358 0
         vertex -0.0010858 0.000118088 0
      endloop
   endfacet
   facet normal 0 0 -1
      outer loop
         vertex -0.0011363 0.00012358 0
         vertex -0.00111628 0.000245711 0
         vertex -0.00106666 0.000234791 0
      endloop
   endfacet
   facet normal 0 0 -1
      outer loop
         vertex -0.00108317 0.000364962 0
         vertex -0.00103503 0.000348741 0
         vertex -0.00106666 0.000234791 0
      endloop
   endfacet
   facet normal 0 0 -1
      outer loop
         vertex -0.00108317 0.000364962 0
         vertex -0.00103736 0.000479933 0
         vertex -0.000991254 0.000458603 0
      endloop
   endfacet
   facet normal 0 0 -1
      outer loop
         vertex -0.000292194 0.00105239 0
         vertex -0.000305785 0.00110134 0
         vertex -0.000184917 0.00112794 0
      endloop
   endfacet
   facet normal 0 0 -1
      outer loop
         vertex 0.000511596 0.000964972 0
         vertex 0.000535391 0.00100985 0
         vertex 0.000641437 0.000946049 0
      endloop
   endfacet
   facet normal 0 0 -1
      outer loop
         vertex 0.000869493 0.000660971 0
         vertex 0.000792932 0.000751105 0
         vertex 0.000829813 0.00078604 0
      endloop
   endfacet
   facet normal 0 0 -1
      outer loop
         vertex 0.000935859 0.000563088 0
         vertex 0.000979388 0.000589278 0
         vertex 0.00103736 0.000479933 0
      endloop
   endfacet
   facet normal 0 0 -1
      outer loop
         vertex 0.0010922 0 0
         vertex 0.0010858 0.000118088 0
         vertex 0.0011363 0.00012358 0
      endloop
   endfacet
   facet normal 0 0 -1
      outer loop
         vertex 0.000511596 -0.000964972 0
         vertex 0.000535391 -0.00100985 0
         vertex 0.000423068 -0.00106182 0
      endloop
   endfacet
   facet normal 0 0 -1
      outer loop
         vertex 0.000184917 -0.00112794 0
         vertex 0.000176698 -0.00107781 0
         vertex 0.000292194 -0.00105239 0
      endloop
   endfacet
   facet normal 0 0 -1
      outer loop
         vertex -0.000404265 -0.00101463 0
         vertex -0.000292194 -0.00105239 0
         vertex -0.000305785 -0.00110134 0
      endloop
   endfacet
   facet normal 0 0 -1
      outer loop
         vertex -0.000612929 -0.000904002 0
         vertex -0.000641437 -0.000946049 0
         vertex -0.000739963 -0.000871151 0
      endloop
   endfacet
   facet normal 0 0 -1
      outer loop
         vertex -0.00106666 -0.000234791 0
         vertex -0.00103503 -0.000348741 0
         vertex -0.00108317 -0.000364962 0
      endloop
   endfacet
   facet normal 0 0 -1
      outer loop
         vertex -0.00106666 0.000234791 0
         vertex -0.0010858 0.000118088 0
         vertex -0.0011363 0.00012358 0
      endloop
   endfacet
   facet normal 0 0 -1
      outer loop
         vertex -0.000991254 0.000458603 0
         vertex -0.00103503 0.000348741 0
         vertex -0.00108317 0.000364962 0
      endloop
   endfacet
   facet normal 0 0 -1
      outer loop
         vertex 0.000292194 0.00105239 0
         vertex 0.000305785 0.00110134 0
         vertex 0.000423068 0.00106182 0
      endloop
   endfacet
   facet normal 0 0 -1
      outer loop
         vertex 0.000935859 0.000563088 0
         vertex 0.000869493 0.000660971 0
         vertex 0.000909934 0.000691714 0
      endloop
   endfacet
   facet normal 0 0 -1
      outer loop
         vertex 0.000935859 -0.000563088 0
         vertex 0.000979388 -0.000589278 0
         vertex 0.000909934 -0.000691714 0
      endloop
   endfacet
   facet normal 0 0 -1
      outer loop
         vertex 5.91305e-05 -0.0010906 0
         vertex 0.000176698 -0.00107781 0
         vertex 0.000184917 -0.00112794 0
      endloop
   endfacet
   facet normal 0 0 -1
      outer loop
         vertex -0.000991254 -0.000458603 0
         vertex -0.000935859 -0.000563088 0
         vertex -0.000979388 -0.000589278 0
      endloop
   endfacet
   facet normal 0 0 -1
      outer loop
         vertex -0.001143 1.39977e-19 0
         vertex -0.0010922 1.33756e-19 0
         vertex -0.0010858 -0.000118088 0
      endloop
   endfacet
   facet normal 0 0 -1
      outer loop
         vertex -0.00106666 0.000234791 0
         vertex -0.00111628 0.000245711 0
         vertex -0.00108317 0.000364962 0
      endloop
   endfacet
   facet normal 0 0 -1
      outer loop
         vertex 0.000612929 0.000904002 0
         vertex 0.000641437 0.000946049 0
         vertex 0.000739963 0.000871151 0
      endloop
   endfacet
   facet normal 0 0 -1
      outer loop
         vertex 0.000292194 -0.00105239 0
         vertex 0.000305785 -0.00110134 0
         vertex 0.000184917 -0.00112794 0
      endloop
   endfacet
   facet normal 0 0 -1
      outer loop
         vertex -0.0010858 -0.000118088 0
         vertex -0.0011363 -0.00012358 0
         vertex -0.001143 1.39977e-19 0
      endloop
   endfacet
   facet normal 0 0 -1
      outer loop
         vertex -0.000991254 0.000458603 0
         vertex -0.00103736 0.000479933 0
         vertex -0.000979388 0.000589278 0
      endloop
   endfacet
   facet normal 0 0 -1
      outer loop
         vertex -0.000404265 -0.00101463 0
         vertex -0.000423068 -0.00106182 0
         vertex -0.000535391 -0.00100985 0
      endloop
   endfacet
   facet normal 0 0 -1
      outer loop
         vertex 0.000991254 0.000458603 0
         vertex 0.00103736 0.000479933 0
         vertex 0.00108317 0.000364962 0
      endloop
   endfacet
   facet normal 0 0 -1
      outer loop
         vertex -0.0010858 0.000118088 0
         vertex -0.0010922 1.33756e-19 0
         vertex -0.001143 1.39977e-19 0
      endloop
   endfacet
endsolid FID_40_80SM. Units = meters