solid FOV cone. STL generated by ONSHAPE BY PTC INC, 1.216. Units = meters
   facet normal 0 0.838671 0.544639
      outer loop
         vertex -0.3 0.0992669 -0.152858
         vertex 5.55112e-17 0 1.38778e-17
         vertex 0.3 0.0992669 -0.152858
      endloop
   endfacet
   facet normal 0.45399 0 0.891007
      outer loop
         vertex 0.3 -0.0992669 -0.152858
         vertex 0.3 0.0992669 -0.152858
         vertex 5.55112e-17 0 1.38778e-17
      endloop
   endfacet
   facet normal 0 -0.838671 0.544639
      outer loop
         vertex -0.3 -0.0992669 -0.152858
         vertex 0.3 -0.0992669 -0.152858
         vertex 5.55112e-17 0 1.38778e-17
      endloop
   endfacet
   facet normal 1 0 0
      outer loop
         vertex 0.3 0.0992669 -0.2
         vertex 0.3 0.0992669 -0.152858
         vertex 0.3 -0.0992669 -0.152858
      endloop
   endfacet
   facet normal 1 0 0
      outer loop
         vertex 0.3 -0.0992669 -0.152858
         vertex 0.3 -0.0992669 -0.2
         vertex 0.3 0.0992669 -0.2
      endloop
   endfacet
   facet normal 0 0 -1
      outer loop
         vertex 0.3 0.0992669 -0.2
         vertex 0.3 -0.0992669 -0.2
         vertex -0.3 -0.0992669 -0.2
      endloop
   endfacet
   facet normal 0 0 -1
      outer loop
         vertex -0.3 -0.0992669 -0.2
         vertex -0.3 0.0992669 -0.2
         vertex 0.3 0.0992669 -0.2
      endloop
   endfacet
   facet normal -1 0 0
      outer loop
         vertex -0.3 0.0992669 -0.2
         vertex -0.3 -0.0992669 -0.2
         vertex -0.3 -0.0992669 -0.152858
      endloop
   endfacet
   facet normal -1 0 0
      outer loop
         vertex -0.3 -0.0992669 -0.152858
         vertex -0.3 0.0992669 -0.152858
         vertex -0.3 0.0992669 -0.2
      endloop
   endfacet
   facet normal 0 -1 0
      outer loop
         vertex 0.3 -0.0992669 -0.152858
         vertex -0.3 -0.0992669 -0.152858
         vertex -0.3 -0.0992669 -0.2
      endloop
   endfacet
   facet normal 0 -1 0
      outer loop
         vertex -0.3 -0.0992669 -0.2
         vertex 0.3 -0.0992669 -0.2
         vertex 0.3 -0.0992669 -0.152858
      endloop
   endfacet
   facet normal 0 1 0
      outer loop
         vertex -0.3 0.0992669 -0.2
         vertex -0.3 0.0992669 -0.152858
         vertex 0.3 0.0992669 -0.152858
      endloop
   endfacet
   facet normal 0 1 0
      outer loop
         vertex 0.3 0.0992669 -0.152858
         vertex 0.3 0.0992669 -0.2
         vertex -0.3 0.0992669 -0.2
      endloop
   endfacet
   facet normal -0.45399 0 0.891007
      outer loop
         vertex -0.3 -0.0992669 -0.152858
         vertex 5.55112e-17 0 1.38778e-17
         vertex -0.3 0.0992669 -0.152858
      endloop
   endfacet
endsolid FOV cone. Units = meters