solid IR FOV. STL generated by ONSHAPE BY PTC INC, 1.216. Units = meters
   facet normal 0 -0.48481 0.87462
      outer loop
         vertex 0.0115 0.0162 -2.22045e-16
         vertex 0.153845 0.1662 0.0831464
         vertex -0.130845 0.1662 0.0831464
      endloop
   endfacet
   facet normal 0 1 0
      outer loop
         vertex -0.130845 0.1662 -0.0831464
         vertex -0.130845 0.1662 0.0831464
         vertex 0.153845 0.1662 0.0831464
      endloop
   endfacet
   facet normal 0 1 0
      outer loop
         vertex 0.153845 0.1662 0.0831464
         vertex 0.153845 0.1662 -0.0831464
         vertex -0.130845 0.1662 -0.0831464
      endloop
   endfacet
   facet normal 0 -0.48481 -0.87462
      outer loop
         vertex 0.0115 0.0162 -2.22045e-16
         vertex -0.130845 0.1662 -0.0831464
         vertex 0.153845 0.1662 -0.0831464
      endloop
   endfacet
   facet normal 0.725374 -0.688355 0
      outer loop
         vertex 0.153845 0.1662 -0.0831464
         vertex 0.153845 0.1662 0.0831464
         vertex 0.0115 0.0162 -2.22045e-16
      endloop
   endfacet
   facet normal -0.725374 -0.688355 0
      outer loop
         vertex -0.130845 0.1662 0.0831464
         vertex -0.130845 0.1662 -0.0831464
         vertex 0.0115 0.0162 -2.22045e-16
      endloop
   endfacet
endsolid IR FOV. Units = meters