solid Keepout cone. STL generated by ONSHAPE BY PTC INC, 1.216. Units = meters
   facet normal -0.865801 -0.0197135 -0.5
      outer loop
         vertex 0 0 0
         vertex -0.11535 -0.00525557 0.2
         vertex -0.11547 1.4141e-17 0.2
      endloop
   endfacet
   facet normal 0.866025 0 -0.5
      outer loop
         vertex 0.11547 0 0.2
         vertex 0.114992 -0.0105003 0.2
         vertex 0 0 0
      endloop
   endfacet
   facet normal 0.862437 -0.0787519 -0.5
      outer loop
         vertex 0.114992 -0.0105003 0.2
         vertex 0.11356 -0.0209135 0.2
         vertex 0 0 0
      endloop
   endfacet
   facet normal 0.851703 -0.156851 -0.5
      outer loop
         vertex 0.11356 -0.0209135 0.2
         vertex 0.111188 -0.0311534 0.2
         vertex 0 0 0
      endloop
   endfacet
   facet normal 0.833911 -0.233651 -0.5
      outer loop
         vertex 0.111188 -0.0311534 0.2
         vertex 0.107895 -0.0411352 0.2
         vertex 0 0 0
      endloop
   endfacet
   facet normal 0.809209 -0.308514 -0.5
      outer loop
         vertex 0.107895 -0.0411352 0.2
         vertex 0.103707 -0.0507762 0.2
         vertex 0 0 0
      endloop
   endfacet
   facet normal 0.777801 -0.380821 -0.5
      outer loop
         vertex 0.103707 -0.0507762 0.2
         vertex 0.0986599 -0.0599964 0.2
         vertex 0 0 0
      endloop
   endfacet
   facet normal 0.739949 -0.449973 -0.5
      outer loop
         vertex 0.0986599 -0.0599964 0.2
         vertex 0.0927953 -0.0687194 0.2
         vertex 0 0 0
      endloop
   endfacet
   facet normal 0.695965 -0.515396 -0.5
      outer loop
         vertex 0.0927953 -0.0687194 0.2
         vertex 0.0861619 -0.076873 0.2
         vertex 0 0 0
      endloop
   endfacet
   facet normal 0.646214 -0.576548 -0.5
      outer loop
         vertex 0.0861619 -0.076873 0.2
         vertex 0.0788144 -0.0843897 0.2
         vertex 0 0 0
      endloop
   endfacet
   facet normal 0.591108 -0.632923 -0.5
      outer loop
         vertex 0.0788144 -0.0843897 0.2
         vertex 0.0708139 -0.091207 0.2
         vertex 0 0 0
      endloop
   endfacet
   facet normal 0.531105 -0.684053 -0.5
      outer loop
         vertex 0.0708139 -0.091207 0.2
         vertex 0.0622267 -0.0972686 0.2
         vertex 0 0 0
      endloop
   endfacet
   facet normal 0.4667 -0.729514 -0.5
      outer loop
         vertex 0.0622267 -0.0972686 0.2
         vertex 0.0531237 -0.102524 0.2
         vertex 0 0 0
      endloop
   endfacet
   facet normal 0.398428 -0.768931 -0.5
      outer loop
         vertex 0.0531237 -0.102524 0.2
         vertex 0.0435806 -0.10693 0.2
         vertex 0 0 0
      endloop
   endfacet
   facet normal 0.326855 -0.801976 -0.5
      outer loop
         vertex 0.0435806 -0.10693 0.2
         vertex 0.0336764 -0.11045 0.2
         vertex 0 0 0
      endloop
   endfacet
   facet normal 0.252573 -0.828376 -0.5
      outer loop
         vertex 0.0336764 -0.11045 0.2
         vertex 0.0234931 -0.113055 0.2
         vertex 0 0 0
      endloop
   endfacet
   facet normal 0.176198 -0.847912 -0.5
      outer loop
         vertex 0.0234931 -0.113055 0.2
         vertex 0.0131151 -0.114723 0.2
         vertex 0 0 0
      endloop
   endfacet
   facet normal 0.0983633 -0.860421 -0.5
      outer loop
         vertex 0.0131151 -0.114723 0.2
         vertex 0.00262847 -0.11544 0.2
         vertex 0 0 0
      endloop
   endfacet
   facet normal 0.0197135 -0.865801 -0.5
      outer loop
         vertex 0.00262847 -0.11544 0.2
         vertex -0.00787996 -0.115201 0.2
         vertex 0 0 0
      endloop
   endfacet
   facet normal -0.0590997 -0.864006 -0.5
      outer loop
         vertex -0.00787996 -0.115201 0.2
         vertex -0.0183231 -0.114007 0.2
         vertex 0 0 0
      endloop
   endfacet
   facet normal -0.137423 -0.855053 -0.5
      outer loop
         vertex -0.0183231 -0.114007 0.2
         vertex -0.0286144 -0.111868 0.2
         vertex 0 0 0
      endloop
   endfacet
   facet normal -0.214608 -0.839013 -0.5
      outer loop
         vertex -0.0286144 -0.111868 0.2
         vertex -0.0386686 -0.108803 0.2
         vertex 0 0 0
      endloop
   endfacet
   facet normal -0.290014 -0.816022 -0.5
      outer loop
         vertex -0.0386686 -0.108803 0.2
         vertex -0.0484023 -0.104836 0.2
         vertex 0 0 0
      endloop
   endfacet
   facet normal -0.363018 -0.786269 -0.5
      outer loop
         vertex -0.0484023 -0.104836 0.2
         vertex -0.057735 -0.1 0.2
         vertex 0 0 0
      endloop
   endfacet
   facet normal -0.433013 -0.75 -0.5
      outer loop
         vertex -0.057735 -0.1 0.2
         vertex -0.0665893 -0.0943356 0.2
         vertex 0 0 0
      endloop
   endfacet
   facet normal -0.49942 -0.707517 -0.5
      outer loop
         vertex -0.0665893 -0.0943356 0.2
         vertex -0.0748918 -0.0878894 0.2
         vertex 0 0 0
      endloop
   endfacet
   facet normal -0.561689 -0.659171 -0.5
      outer loop
         vertex -0.0748918 -0.0878894 0.2
         vertex -0.0825737 -0.080715 0.2
         vertex 0 0 0
      endloop
   endfacet
   facet normal -0.619303 -0.605363 -0.5
      outer loop
         vertex -0.0825737 -0.080715 0.2
         vertex -0.0895714 -0.0728718 0.2
         vertex 0 0 0
      endloop
   endfacet
   facet normal -0.671786 -0.546538 -0.5
      outer loop
         vertex -0.0895714 -0.0728718 0.2
         vertex -0.0958269 -0.0644247 0.2
         vertex 0 0 0
      endloop
   endfacet
   facet normal -0.718702 -0.483185 -0.5
      outer loop
         vertex -0.0958269 -0.0644247 0.2
         vertex -0.101288 -0.0554437 0.2
         vertex 0 0 0
      endloop
   endfacet
   facet normal -0.759662 -0.415828 -0.5
      outer loop
         vertex -0.101288 -0.0554437 0.2
         vertex -0.10591 -0.0460034 0.2
         vertex 0 0 0
      endloop
   endfacet
   facet normal -0.794328 -0.345025 -0.5
      outer loop
         vertex -0.10591 -0.0460034 0.2
         vertex -0.109655 -0.0361818 0.2
         vertex 0 0 0
      endloop
   endfacet
   facet normal -0.822412 -0.271364 -0.5
      outer loop
         vertex -0.109655 -0.0361818 0.2
         vertex -0.112491 -0.0260605 0.2
         vertex 0 0 0
      endloop
   endfacet
   facet normal -0.843681 -0.195454 -0.5
      outer loop
         vertex -0.112491 -0.0260605 0.2
         vertex -0.114395 -0.0157232 0.2
         vertex 0 0 0
      endloop
   endfacet
   facet normal -0.857959 -0.117924 -0.5
      outer loop
         vertex -0.114395 -0.0157232 0.2
         vertex -0.11535 -0.00525557 0.2
         vertex 0 0 0
      endloop
   endfacet
   facet normal -0.866025 1.06058e-16 -0.5
      outer loop
         vertex -0.11547 1.4141e-17 0.2
         vertex -0.11535 0.00525557 0.2
         vertex 0 0 0
      endloop
   endfacet
   facet normal -0.865128 0.0394168 -0.5
      outer loop
         vertex -0.11535 0.00525557 0.2
         vertex -0.114395 0.0157232 0.2
         vertex 0 0 0
      endloop
   endfacet
   facet normal -0.857959 0.117924 -0.5
      outer loop
         vertex -0.114395 0.0157232 0.2
         vertex -0.112491 0.0260605 0.2
         vertex 0 0 0
      endloop
   endfacet
   facet normal -0.843681 0.195454 -0.5
      outer loop
         vertex -0.112491 0.0260605 0.2
         vertex -0.109655 0.0361818 0.2
         vertex 0 0 0
      endloop
   endfacet
   facet normal -0.822412 0.271364 -0.5
      outer loop
         vertex -0.109655 0.0361818 0.2
         vertex -0.10591 0.0460034 0.2
         vertex 0 0 0
      endloop
   endfacet
   facet normal -0.794328 0.345025 -0.5
      outer loop
         vertex -0.10591 0.0460034 0.2
         vertex -0.101288 0.0554437 0.2
         vertex 0 0 0
      endloop
   endfacet
   facet normal -0.759662 0.415828 -0.5
      outer loop
         vertex -0.101288 0.0554437 0.2
         vertex -0.0958269 0.0644247 0.2
         vertex 0 0 0
      endloop
   endfacet
   facet normal -0.718702 0.483185 -0.5
      outer loop
         vertex -0.0958269 0.0644247 0.2
         vertex -0.0895714 0.0728718 0.2
         vertex 0 0 0
      endloop
   endfacet
   facet normal -0.671786 0.546538 -0.5
      outer loop
         vertex -0.0895714 0.0728718 0.2
         vertex -0.0825737 0.080715 0.2
         vertex 0 0 0
      endloop
   endfacet
   facet normal -0.619303 0.605363 -0.5
      outer loop
         vertex -0.0825737 0.080715 0.2
         vertex -0.0748918 0.0878894 0.2
         vertex 0 0 0
      endloop
   endfacet
   facet normal -0.561689 0.659171 -0.5
      outer loop
         vertex -0.0748918 0.0878894 0.2
         vertex -0.0665893 0.0943356 0.2
         vertex 0 0 0
      endloop
   endfacet
   facet normal -0.49942 0.707517 -0.5
      outer loop
         vertex -0.0665893 0.0943356 0.2
         vertex -0.057735 0.1 0.2
         vertex 0 0 0
      endloop
   endfacet
   facet normal -0.433013 0.75 -0.5
      outer loop
         vertex -0.057735 0.1 0.2
         vertex -0.0484023 0.104836 0.2
         vertex 0 0 0
      endloop
   endfacet
   facet normal -0.363018 0.786269 -0.5
      outer loop
         vertex -0.0484023 0.104836 0.2
         vertex -0.0386686 0.108803 0.2
         vertex 0 0 0
      endloop
   endfacet
   facet normal -0.290014 0.816022 -0.5
      outer loop
         vertex -0.0386686 0.108803 0.2
         vertex -0.0286144 0.111868 0.2
         vertex 0 0 0
      endloop
   endfacet
   facet normal -0.214608 0.839013 -0.5
      outer loop
         vertex -0.0286144 0.111868 0.2
         vertex -0.0183231 0.114007 0.2
         vertex 0 0 0
      endloop
   endfacet
   facet normal -0.137423 0.855053 -0.5
      outer loop
         vertex -0.0183231 0.114007 0.2
         vertex -0.00787996 0.115201 0.2
         vertex 0 0 0
      endloop
   endfacet
   facet normal -0.0590997 0.864006 -0.5
      outer loop
         vertex -0.00787996 0.115201 0.2
         vertex 0.00262847 0.11544 0.2
         vertex 0 0 0
      endloop
   endfacet
   facet normal 0.0197135 0.865801 -0.5
      outer loop
         vertex 0.00262847 0.11544 0.2
         vertex 0.0131151 0.114723 0.2
         vertex 0 0 0
      endloop
   endfacet
   facet normal 0.0983633 0.860421 -0.5
      outer loop
         vertex 0.0131151 0.114723 0.2
         vertex 0.0234931 0.113055 0.2
         vertex 0 0 0
      endloop
   endfacet
   facet normal 0.176198 0.847912 -0.5
      outer loop
         vertex 0.0234931 0.113055 0.2
         vertex 0.0336764 0.11045 0.2
         vertex 0 0 0
      endloop
   endfacet
   facet normal 0.252573 0.828376 -0.5
      outer loop
         vertex 0.0336764 0.11045 0.2
         vertex 0.0435806 0.10693 0.2
         vertex 0 0 0
      endloop
   endfacet
   facet normal 0.326855 0.801976 -0.5
      outer loop
         vertex 0.0435806 0.10693 0.2
         vertex 0.0531237 0.102524 0.2
         vertex 0 0 0
      endloop
   endfacet
   facet normal 0.398428 0.768931 -0.5
      outer loop
         vertex 0.0531237 0.102524 0.2
         vertex 0.0622267 0.0972686 0.2
         vertex 0 0 0
      endloop
   endfacet
   facet normal 0.4667 0.729514 -0.5
      outer loop
         vertex 0.0622267 0.0972686 0.2
         vertex 0.0708139 0.091207 0.2
         vertex 0 0 0
      endloop
   endfacet
   facet normal 0.531105 0.684053 -0.5
      outer loop
         vertex 0.0708139 0.091207 0.2
         vertex 0.0788144 0.0843897 0.2
         vertex 0 0 0
      endloop
   endfacet
   facet normal 0.591108 0.632923 -0.5
      outer loop
         vertex 0.0788144 0.0843897 0.2
         vertex 0.0861619 0.076873 0.2
         vertex 0 0 0
      endloop
   endfacet
   facet normal 0.646214 0.576548 -0.5
      outer loop
         vertex 0.0861619 0.076873 0.2
         vertex 0.0927953 0.0687194 0.2
         vertex 0 0 0
      endloop
   endfacet
   facet normal 0.695965 0.515396 -0.5
      outer loop
         vertex 0.0927953 0.0687194 0.2
         vertex 0.0986599 0.0599964 0.2
         vertex 0 0 0
      endloop
   endfacet
   facet normal 0.739949 0.449973 -0.5
      outer loop
         vertex 0.0986599 0.0599964 0.2
         vertex 0.103707 0.0507762 0.2
         vertex 0 0 0
      endloop
   endfacet
   facet normal 0.777801 0.380821 -0.5
      outer loop
         vertex 0.103707 0.0507762 0.2
         vertex 0.107895 0.0411352 0.2
         vertex 0 0 0
      endloop
   endfacet
   facet normal 0.809209 0.308514 -0.5
      outer loop
         vertex 0.107895 0.0411352 0.2
         vertex 0.111188 0.0311534 0.2
         vertex 0 0 0
      endloop
   endfacet
   facet normal 0.833911 0.233651 -0.5
      outer loop
         vertex 0.111188 0.0311534 0.2
         vertex 0.11356 0.0209135 0.2
         vertex 0 0 0
      endloop
   endfacet
   facet normal 0.851703 0.156851 -0.5
      outer loop
         vertex 0.11356 0.0209135 0.2
         vertex 0.114992 0.0105003 0.2
         vertex 0 0 0
      endloop
   endfacet
   facet normal 0.862437 0.0787519 -0.5
      outer loop
         vertex 0.114992 0.0105003 0.2
         vertex 0.11547 0 0.2
         vertex 0 0 0
      endloop
   endfacet
   facet normal 0 0 1
      outer loop
         vertex 0 0 0.2
         vertex -0.11535 -0.00525557 0.2
         vertex -0.114395 -0.0157232 0.2
      endloop
   endfacet
   facet normal 0 0 1
      outer loop
         vertex -0.114395 -0.0157232 0.2
         vertex -0.112491 -0.0260605 0.2
         vertex 0 0 0.2
      endloop
   endfacet
   facet normal 0 0 1
      outer loop
         vertex -0.112491 -0.0260605 0.2
         vertex -0.109655 -0.0361818 0.2
         vertex 0 0 0.2
      endloop
   endfacet
   facet normal 0 0 1
      outer loop
         vertex -0.109655 -0.0361818 0.2
         vertex -0.10591 -0.0460034 0.2
         vertex 0 0 0.2
      endloop
   endfacet
   facet normal 0 0 1
      outer loop
         vertex -0.10591 -0.0460034 0.2
         vertex -0.101288 -0.0554437 0.2
         vertex 0 0 0.2
      endloop
   endfacet
   facet normal 0 0 1
      outer loop
         vertex -0.101288 -0.0554437 0.2
         vertex -0.0958269 -0.0644247 0.2
         vertex 0 0 0.2
      endloop
   endfacet
   facet normal 0 0 1
      outer loop
         vertex -0.0958269 -0.0644247 0.2
         vertex -0.0895714 -0.0728718 0.2
         vertex 0 0 0.2
      endloop
   endfacet
   facet normal 0 0 1
      outer loop
         vertex -0.0895714 -0.0728718 0.2
         vertex -0.0825737 -0.080715 0.2
         vertex 0 0 0.2
      endloop
   endfacet
   facet normal 0 0 1
      outer loop
         vertex -0.0825737 -0.080715 0.2
         vertex -0.0748918 -0.0878894 0.2
         vertex 0 0 0.2
      endloop
   endfacet
   facet normal 0 0 1
      outer loop
         vertex -0.0748918 -0.0878894 0.2
         vertex -0.0665893 -0.0943356 0.2
         vertex 0 0 0.2
      endloop
   endfacet
   facet normal 0 0 1
      outer loop
         vertex -0.0665893 -0.0943356 0.2
         vertex -0.057735 -0.1 0.2
         vertex 0 0 0.2
      endloop
   endfacet
   facet normal 0 0 1
      outer loop
         vertex -0.057735 -0.1 0.2
         vertex -0.0484023 -0.104836 0.2
         vertex 0 0 0.2
      endloop
   endfacet
   facet normal 0 0 1
      outer loop
         vertex -0.0484023 -0.104836 0.2
         vertex -0.0386686 -0.108803 0.2
         vertex 0 0 0.2
      endloop
   endfacet
   facet normal 0 0 1
      outer loop
         vertex -0.0386686 -0.108803 0.2
         vertex -0.0286144 -0.111868 0.2
         vertex 0 0 0.2
      endloop
   endfacet
   facet normal 0 0 1
      outer loop
         vertex -0.0286144 -0.111868 0.2
         vertex -0.0183231 -0.114007 0.2
         vertex 0 0 0.2
      endloop
   endfacet
   facet normal 0 0 1
      outer loop
         vertex -0.0183231 -0.114007 0.2
         vertex -0.00787996 -0.115201 0.2
         vertex 0 0 0.2
      endloop
   endfacet
   facet normal 0 0 1
      outer loop
         vertex -0.00787996 -0.115201 0.2
         vertex 0.00262847 -0.11544 0.2
         vertex 0 0 0.2
      endloop
   endfacet
   facet normal 0 0 1
      outer loop
         vertex 0.00262847 -0.11544 0.2
         vertex 0.0131151 -0.114723 0.2
         vertex 0 0 0.2
      endloop
   endfacet
   facet normal 0 0 1
      outer loop
         vertex 0.0131151 -0.114723 0.2
         vertex 0.0234931 -0.113055 0.2
         vertex 0 0 0.2
      endloop
   endfacet
   facet normal 0 0 1
      outer loop
         vertex 0.0234931 -0.113055 0.2
         vertex 0.0336764 -0.11045 0.2
         vertex 0 0 0.2
      endloop
   endfacet
   facet normal 0 0 1
      outer loop
         vertex 0.0336764 -0.11045 0.2
         vertex 0.0435806 -0.10693 0.2
         vertex 0 0 0.2
      endloop
   endfacet
   facet normal 0 0 1
      outer loop
         vertex 0.0435806 -0.10693 0.2
         vertex 0.0531237 -0.102524 0.2
         vertex 0 0 0.2
      endloop
   endfacet
   facet normal 0 0 1
      outer loop
         vertex 0.0531237 -0.102524 0.2
         vertex 0.0622267 -0.0972686 0.2
         vertex 0 0 0.2
      endloop
   endfacet
   facet normal 0 0 1
      outer loop
         vertex 0.0622267 -0.0972686 0.2
         vertex 0.0708139 -0.091207 0.2
         vertex 0 0 0.2
      endloop
   endfacet
   facet normal 0 0 1
      outer loop
         vertex 0.0708139 -0.091207 0.2
         vertex 0.0788144 -0.0843897 0.2
         vertex 0 0 0.2
      endloop
   endfacet
   facet normal 0 0 1
      outer loop
         vertex 0.0788144 -0.0843897 0.2
         vertex 0.0861619 -0.076873 0.2
         vertex 0 0 0.2
      endloop
   endfacet
   facet normal 0 0 1
      outer loop
         vertex 0.0861619 -0.076873 0.2
         vertex 0.0927953 -0.0687194 0.2
         vertex 0 0 0.2
      endloop
   endfacet
   facet normal 0 0 1
      outer loop
         vertex 0.0927953 -0.0687194 0.2
         vertex 0.0986599 -0.0599964 0.2
         vertex 0 0 0.2
      endloop
   endfacet
   facet normal 0 0 1
      outer loop
         vertex 0.0986599 -0.0599964 0.2
         vertex 0.103707 -0.0507762 0.2
         vertex 0 0 0.2
      endloop
   endfacet
   facet normal 0 0 1
      outer loop
         vertex 0.103707 -0.0507762 0.2
         vertex 0.107895 -0.0411352 0.2
         vertex 0 0 0.2
      endloop
   endfacet
   facet normal 0 0 1
      outer loop
         vertex 0.107895 -0.0411352 0.2
         vertex 0.111188 -0.0311534 0.2
         vertex 0 0 0.2
      endloop
   endfacet
   facet normal 0 0 1
      outer loop
         vertex 0.111188 -0.0311534 0.2
         vertex 0.11356 -0.0209135 0.2
         vertex 0 0 0.2
      endloop
   endfacet
   facet normal 0 0 1
      outer loop
         vertex 0.11356 -0.0209135 0.2
         vertex 0.114992 -0.0105003 0.2
         vertex 0 0 0.2
      endloop
   endfacet
   facet normal 0 0 1
      outer loop
         vertex 0.114992 -0.0105003 0.2
         vertex 0.11547 0 0.2
         vertex 0 0 0.2
      endloop
   endfacet
   facet normal 0 0 1
      outer loop
         vertex 0.11547 0 0.2
         vertex 0.114992 0.0105003 0.2
         vertex 0 0 0.2
      endloop
   endfacet
   facet normal 0 0 1
      outer loop
         vertex 0.114992 0.0105003 0.2
         vertex 0.11356 0.0209135 0.2
         vertex 0 0 0.2
      endloop
   endfacet
   facet normal 0 0 1
      outer loop
         vertex 0.11356 0.0209135 0.2
         vertex 0.111188 0.0311534 0.2
         vertex 0 0 0.2
      endloop
   endfacet
   facet normal 0 0 1
      outer loop
         vertex 0.111188 0.0311534 0.2
         vertex 0.107895 0.0411352 0.2
         vertex 0 0 0.2
      endloop
   endfacet
   facet normal 0 0 1
      outer loop
         vertex 0.107895 0.0411352 0.2
         vertex 0.103707 0.0507762 0.2
         vertex 0 0 0.2
      endloop
   endfacet
   facet normal 0 0 1
      outer loop
         vertex 0.103707 0.0507762 0.2
         vertex 0.0986599 0.0599964 0.2
         vertex 0 0 0.2
      endloop
   endfacet
   facet normal 0 0 1
      outer loop
         vertex 0.0986599 0.0599964 0.2
         vertex 0.0927953 0.0687194 0.2
         vertex 0 0 0.2
      endloop
   endfacet
   facet normal 0 0 1
      outer loop
         vertex 0.0927953 0.0687194 0.2
         vertex 0.0861619 0.076873 0.2
         vertex 0 0 0.2
      endloop
   endfacet
   facet normal 0 0 1
      outer loop
         vertex 0.0861619 0.076873 0.2
         vertex 0.0788144 0.0843897 0.2
         vertex 0 0 0.2
      endloop
   endfacet
   facet normal 0 0 1
      outer loop
         vertex 0.0788144 0.0843897 0.2
         vertex 0.0708139 0.091207 0.2
         vertex 0 0 0.2
      endloop
   endfacet
   facet normal 0 0 1
      outer loop
         vertex 0.0708139 0.091207 0.2
         vertex 0.0622267 0.0972686 0.2
         vertex 0 0 0.2
      endloop
   endfacet
   facet normal 0 0 1
      outer loop
         vertex 0.0622267 0.0972686 0.2
         vertex 0.0531237 0.102524 0.2
         vertex 0 0 0.2
      endloop
   endfacet
   facet normal 0 0 1
      outer loop
         vertex 0.0531237 0.102524 0.2
         vertex 0.0435806 0.10693 0.2
         vertex 0 0 0.2
      endloop
   endfacet
   facet normal 0 0 1
      outer loop
         vertex 0.0435806 0.10693 0.2
         vertex 0.0336764 0.11045 0.2
         vertex 0 0 0.2
      endloop
   endfacet
   facet normal 0 0 1
      outer loop
         vertex 0.0336764 0.11045 0.2
         vertex 0.0234931 0.113055 0.2
         vertex 0 0 0.2
      endloop
   endfacet
   facet normal 0 0 1
      outer loop
         vertex 0.0234931 0.113055 0.2
         vertex 0.0131151 0.114723 0.2
         vertex 0 0 0.2
      endloop
   endfacet
   facet normal 0 0 1
      outer loop
         vertex 0.0131151 0.114723 0.2
         vertex 0.00262847 0.11544 0.2
         vertex 0 0 0.2
      endloop
   endfacet
   facet normal 0 0 1
      outer loop
         vertex 0.00262847 0.11544 0.2
         vertex -0.00787996 0.115201 0.2
         vertex 0 0 0.2
      endloop
   endfacet
   facet normal 0 0 1
      outer loop
         vertex -0.00787996 0.115201 0.2
         vertex -0.0183231 0.114007 0.2
         vertex 0 0 0.2
      endloop
   endfacet
   facet normal 0 0 1
      outer loop
         vertex -0.0183231 0.114007 0.2
         vertex -0.0286144 0.111868 0.2
         vertex 0 0 0.2
      endloop
   endfacet
   facet normal 0 0 1
      outer loop
         vertex -0.0286144 0.111868 0.2
         vertex -0.0386686 0.108803 0.2
         vertex 0 0 0.2
      endloop
   endfacet
   facet normal 0 0 1
      outer loop
         vertex -0.0386686 0.108803 0.2
         vertex -0.0484023 0.104836 0.2
         vertex 0 0 0.2
      endloop
   endfacet
   facet normal 0 0 1
      outer loop
         vertex -0.0484023 0.104836 0.2
         vertex -0.057735 0.1 0.2
         vertex 0 0 0.2
      endloop
   endfacet
   facet normal 0 0 1
      outer loop
         vertex -0.057735 0.1 0.2
         vertex -0.0665893 0.0943356 0.2
         vertex 0 0 0.2
      endloop
   endfacet
   facet normal 0 0 1
      outer loop
         vertex -0.0665893 0.0943356 0.2
         vertex -0.0748918 0.0878894 0.2
         vertex 0 0 0.2
      endloop
   endfacet
   facet normal 0 0 1
      outer loop
         vertex -0.0748918 0.0878894 0.2
         vertex -0.0825737 0.080715 0.2
         vertex 0 0 0.2
      endloop
   endfacet
   facet normal 0 0 1
      outer loop
         vertex -0.0825737 0.080715 0.2
         vertex -0.0895714 0.0728718 0.2
         vertex 0 0 0.2
      endloop
   endfacet
   facet normal 0 0 1
      outer loop
         vertex -0.0895714 0.0728718 0.2
         vertex -0.0958269 0.0644247 0.2
         vertex 0 0 0.2
      endloop
   endfacet
   facet normal 0 0 1
      outer loop
         vertex -0.0958269 0.0644247 0.2
         vertex -0.101288 0.0554437 0.2
         vertex 0 0 0.2
      endloop
   endfacet
   facet normal 0 0 1
      outer loop
         vertex -0.101288 0.0554437 0.2
         vertex -0.10591 0.0460034 0.2
         vertex 0 0 0.2
      endloop
   endfacet
   facet normal 0 0 1
      outer loop
         vertex -0.10591 0.0460034 0.2
         vertex -0.109655 0.0361818 0.2
         vertex 0 0 0.2
      endloop
   endfacet
   facet normal 0 0 1
      outer loop
         vertex -0.109655 0.0361818 0.2
         vertex -0.112491 0.0260605 0.2
         vertex 0 0 0.2
      endloop
   endfacet
   facet normal 0 0 1
      outer loop
         vertex -0.112491 0.0260605 0.2
         vertex -0.114395 0.0157232 0.2
         vertex 0 0 0.2
      endloop
   endfacet
   facet normal 0 0 1
      outer loop
         vertex -0.114395 0.0157232 0.2
         vertex -0.11535 0.00525557 0.2
         vertex 0 0 0.2
      endloop
   endfacet
   facet normal 0 0 1
      outer loop
         vertex -0.11535 0.00525557 0.2
         vertex -0.11547 1.4141e-17 0.2
         vertex 0 0 0.2
      endloop
   endfacet
   facet normal 0 0 1
      outer loop
         vertex -0.11547 1.4141e-17 0.2
         vertex -0.11535 -0.00525557 0.2
         vertex 0 0 0.2
      endloop
   endfacet
endsolid Keepout cone. Units = meters