solid Link Spacer. STL generated by ONSHAPE BY PTC INC, 1.216. Units = meters
   facet normal 0.108119 0 0.994138
      outer loop
         vertex -0.178678 -0.037 0.0968597
         vertex -0.1785 -0.037 0.09685
         vertex -0.1785 -0.0049 0.09685
      endloop
   endfacet
   facet normal 0.21497 0 0.976621
      outer loop
         vertex -0.178855 -0.037 0.0968886
         vertex -0.178678 -0.037 0.0968597
         vertex -0.178678 -0.0049 0.0968597
      endloop
   endfacet
   facet normal 0.319302 0 0.947653
      outer loop
         vertex -0.179027 -0.037 0.0969364
         vertex -0.178855 -0.037 0.0968886
         vertex -0.178855 -0.0049 0.0968886
      endloop
   endfacet
   facet normal 0.419889 0 0.907575
      outer loop
         vertex -0.179193 -0.037 0.0970025
         vertex -0.179027 -0.037 0.0969364
         vertex -0.179027 -0.0049 0.0969364
      endloop
   endfacet
   facet normal 0.515554 0 0.856857
      outer loop
         vertex -0.179351 -0.037 0.0970862
         vertex -0.179193 -0.037 0.0970025
         vertex -0.179193 -0.0049 0.0970025
      endloop
   endfacet
   facet normal 0.605174 0 0.796093
      outer loop
         vertex -0.179499 -0.037 0.0971864
         vertex -0.179351 -0.037 0.0970862
         vertex -0.179351 -0.0049 0.0970862
      endloop
   endfacet
   facet normal 0.687699 0 0.725995
      outer loop
         vertex -0.179635 -0.037 0.0973021
         vertex -0.179499 -0.037 0.0971864
         vertex -0.179499 -0.0049 0.0971864
      endloop
   endfacet
   facet normal 0.762162 0 0.647386
      outer loop
         vertex -0.179758 -0.037 0.0974318
         vertex -0.179635 -0.037 0.0973021
         vertex -0.179635 -0.0049 0.0973021
      endloop
   endfacet
   facet normal 0.827689 0 0.561187
      outer loop
         vertex -0.179866 -0.037 0.097574
         vertex -0.179758 -0.037 0.0974318
         vertex -0.179758 -0.0049 0.0974318
      endloop
   endfacet
   facet normal 0.883512 0 0.468408
      outer loop
         vertex -0.179958 -0.037 0.0977271
         vertex -0.179866 -0.037 0.097574
         vertex -0.179866 -0.0049 0.097574
      endloop
   endfacet
   facet normal 0.928977 0 0.370138
      outer loop
         vertex -0.180033 -0.037 0.0978893
         vertex -0.179958 -0.037 0.0977271
         vertex -0.179958 -0.0049 0.0977271
      endloop
   endfacet
   facet normal 0.96355 0 0.267528
      outer loop
         vertex -0.18009 -0.037 0.0980586
         vertex -0.180033 -0.037 0.0978893
         vertex -0.180033 -0.0049 0.0978893
      endloop
   endfacet
   facet normal 0.986827 0 0.161782
      outer loop
         vertex -0.180128 -0.037 0.0982331
         vertex -0.18009 -0.037 0.0980586
         vertex -0.18009 -0.0049 0.0980586
      endloop
   endfacet
   facet normal 0.998533 0 0.0541389
      outer loop
         vertex -0.180148 -0.037 0.0984107
         vertex -0.180128 -0.037 0.0982331
         vertex -0.180128 -0.0049 0.0982331
      endloop
   endfacet
   facet normal 0.998533 0 -0.0541389
      outer loop
         vertex -0.180148 -0.037 0.0985893
         vertex -0.180148 -0.037 0.0984107
         vertex -0.180148 -0.0049 0.0984107
      endloop
   endfacet
   facet normal 0.986827 0 -0.161782
      outer loop
         vertex -0.180128 -0.037 0.0987669
         vertex -0.180148 -0.037 0.0985893
         vertex -0.180148 -0.0049 0.0985893
      endloop
   endfacet
   facet normal 0.96355 0 -0.267528
      outer loop
         vertex -0.18009 -0.037 0.0989414
         vertex -0.180128 -0.037 0.0987669
         vertex -0.180128 -0.0049 0.0987669
      endloop
   endfacet
   facet normal 0.928977 0 -0.370138
      outer loop
         vertex -0.180033 -0.037 0.0991107
         vertex -0.18009 -0.037 0.0989414
         vertex -0.18009 -0.0049 0.0989414
      endloop
   endfacet
   facet normal 0.883512 0 -0.468408
      outer loop
         vertex -0.179958 -0.037 0.0992729
         vertex -0.180033 -0.037 0.0991107
         vertex -0.180033 -0.0049 0.0991107
      endloop
   endfacet
   facet normal 0.827689 0 -0.561187
      outer loop
         vertex -0.179866 -0.037 0.099426
         vertex -0.179958 -0.037 0.0992729
         vertex -0.179958 -0.0049 0.0992729
      endloop
   endfacet
   facet normal 0.762162 0 -0.647386
      outer loop
         vertex -0.179758 -0.037 0.0995682
         vertex -0.179866 -0.037 0.099426
         vertex -0.179866 -0.0049 0.099426
      endloop
   endfacet
   facet normal 0.687699 0 -0.725995
      outer loop
         vertex -0.179635 -0.037 0.0996979
         vertex -0.179758 -0.037 0.0995682
         vertex -0.179758 -0.0049 0.0995682
      endloop
   endfacet
   facet normal 0.605174 0 -0.796093
      outer loop
         vertex -0.179499 -0.037 0.0998136
         vertex -0.179635 -0.037 0.0996979
         vertex -0.179635 -0.0049 0.0996979
      endloop
   endfacet
   facet normal 0.515554 0 -0.856857
      outer loop
         vertex -0.179351 -0.037 0.0999138
         vertex -0.179499 -0.037 0.0998136
         vertex -0.179499 -0.0049 0.0998136
      endloop
   endfacet
   facet normal 0.419889 0 -0.907575
      outer loop
         vertex -0.179193 -0.037 0.0999975
         vertex -0.179351 -0.037 0.0999138
         vertex -0.179351 -0.0049 0.0999138
      endloop
   endfacet
   facet normal 0.319302 0 -0.947653
      outer loop
         vertex -0.179027 -0.037 0.100064
         vertex -0.179193 -0.037 0.0999975
         vertex -0.179193 -0.0049 0.0999975
      endloop
   endfacet
   facet normal 0.21497 0 -0.976621
      outer loop
         vertex -0.178855 -0.037 0.100111
         vertex -0.179027 -0.037 0.100064
         vertex -0.179027 -0.0049 0.100064
      endloop
   endfacet
   facet normal 0.108119 0 -0.994138
      outer loop
         vertex -0.178678 -0.037 0.10014
         vertex -0.178855 -0.037 0.100111
         vertex -0.178855 -0.0049 0.100111
      endloop
   endfacet
   facet normal -1.22465e-16 0 -1
      outer loop
         vertex -0.1785 -0.037 0.10015
         vertex -0.178678 -0.037 0.10014
         vertex -0.178678 -0.0049 0.10014
      endloop
   endfacet
   facet normal -0.108119 0 -0.994138
      outer loop
         vertex -0.178322 -0.037 0.10014
         vertex -0.1785 -0.037 0.10015
         vertex -0.1785 -0.0049 0.10015
      endloop
   endfacet
   facet normal -0.21497 0 -0.976621
      outer loop
         vertex -0.178145 -0.037 0.100111
         vertex -0.178322 -0.037 0.10014
         vertex -0.178322 -0.0049 0.10014
      endloop
   endfacet
   facet normal -0.319302 0 -0.947653
      outer loop
         vertex -0.177973 -0.037 0.100064
         vertex -0.178145 -0.037 0.100111
         vertex -0.178145 -0.0049 0.100111
      endloop
   endfacet
   facet normal -0.419889 0 -0.907575
      outer loop
         vertex -0.177807 -0.037 0.0999975
         vertex -0.177973 -0.037 0.100064
         vertex -0.177973 -0.0049 0.100064
      endloop
   endfacet
   facet normal -0.515554 0 -0.856857
      outer loop
         vertex -0.177649 -0.037 0.0999138
         vertex -0.177807 -0.037 0.0999975
         vertex -0.177807 -0.0049 0.0999975
      endloop
   endfacet
   facet normal -0.605174 0 -0.796093
      outer loop
         vertex -0.177501 -0.037 0.0998136
         vertex -0.177649 -0.037 0.0999138
         vertex -0.177649 -0.0049 0.0999138
      endloop
   endfacet
   facet normal -0.687699 0 -0.725995
      outer loop
         vertex -0.177365 -0.037 0.0996979
         vertex -0.177501 -0.037 0.0998136
         vertex -0.177501 -0.0049 0.0998136
      endloop
   endfacet
   facet normal -0.762162 0 -0.647386
      outer loop
         vertex -0.177242 -0.037 0.0995682
         vertex -0.177365 -0.037 0.0996979
         vertex -0.177365 -0.0049 0.0996979
      endloop
   endfacet
   facet normal -0.827689 0 -0.561187
      outer loop
         vertex -0.177134 -0.037 0.099426
         vertex -0.177242 -0.037 0.0995682
         vertex -0.177242 -0.0049 0.0995682
      endloop
   endfacet
   facet normal -0.883512 0 -0.468408
      outer loop
         vertex -0.177042 -0.037 0.0992729
         vertex -0.177134 -0.037 0.099426
         vertex -0.177134 -0.0049 0.099426
      endloop
   endfacet
   facet normal -0.928977 0 -0.370138
      outer loop
         vertex -0.176967 -0.037 0.0991107
         vertex -0.177042 -0.037 0.0992729
         vertex -0.177042 -0.0049 0.0992729
      endloop
   endfacet
   facet normal -0.96355 0 -0.267528
      outer loop
         vertex -0.17691 -0.037 0.0989414
         vertex -0.176967 -0.037 0.0991107
         vertex -0.176967 -0.0049 0.0991107
      endloop
   endfacet
   facet normal -0.986827 0 -0.161782
      outer loop
         vertex -0.176872 -0.037 0.0987669
         vertex -0.17691 -0.037 0.0989414
         vertex -0.17691 -0.0049 0.0989414
      endloop
   endfacet
   facet normal -0.998533 0 -0.0541389
      outer loop
         vertex -0.176852 -0.037 0.0985893
         vertex -0.176872 -0.037 0.0987669
         vertex -0.176872 -0.0049 0.0987669
      endloop
   endfacet
   facet normal -0.998533 0 0.0541389
      outer loop
         vertex -0.176852 -0.037 0.0984107
         vertex -0.176852 -0.037 0.0985893
         vertex -0.176852 -0.0049 0.0985893
      endloop
   endfacet
   facet normal -0.986827 0 0.161782
      outer loop
         vertex -0.176872 -0.037 0.0982331
         vertex -0.176852 -0.037 0.0984107
         vertex -0.176852 -0.0049 0.0984107
      endloop
   endfacet
   facet normal -0.96355 0 0.267528
      outer loop
         vertex -0.17691 -0.037 0.0980586
         vertex -0.176872 -0.037 0.0982331
         vertex -0.176872 -0.0049 0.0982331
      endloop
   endfacet
   facet normal -0.928977 0 0.370138
      outer loop
         vertex -0.176967 -0.037 0.0978893
         vertex -0.17691 -0.037 0.0980586
         vertex -0.17691 -0.0049 0.0980586
      endloop
   endfacet
   facet normal -0.883512 0 0.468408
      outer loop
         vertex -0.177042 -0.037 0.0977271
         vertex -0.176967 -0.037 0.0978893
         vertex -0.176967 -0.0049 0.0978893
      endloop
   endfacet
   facet normal -0.827689 0 0.561187
      outer loop
         vertex -0.177134 -0.037 0.097574
         vertex -0.177042 -0.037 0.0977271
         vertex -0.177042 -0.0049 0.0977271
      endloop
   endfacet
   facet normal -0.762162 0 0.647386
      outer loop
         vertex -0.177242 -0.037 0.0974318
         vertex -0.177134 -0.037 0.097574
         vertex -0.177134 -0.0049 0.097574
      endloop
   endfacet
   facet normal -0.687699 0 0.725995
      outer loop
         vertex -0.177365 -0.037 0.0973021
         vertex -0.177242 -0.037 0.0974318
         vertex -0.177242 -0.0049 0.0974318
      endloop
   endfacet
   facet normal -0.605174 0 0.796093
      outer loop
         vertex -0.177501 -0.037 0.0971864
         vertex -0.177365 -0.037 0.0973021
         vertex -0.177365 -0.0049 0.0973021
      endloop
   endfacet
   facet normal -0.515554 0 0.856857
      outer loop
         vertex -0.177649 -0.037 0.0970862
         vertex -0.177501 -0.037 0.0971864
         vertex -0.177501 -0.0049 0.0971864
      endloop
   endfacet
   facet normal -0.419889 0 0.907575
      outer loop
         vertex -0.177807 -0.037 0.0970025
         vertex -0.177649 -0.037 0.0970862
         vertex -0.177649 -0.0049 0.0970862
      endloop
   endfacet
   facet normal -0.319302 0 0.947653
      outer loop
         vertex -0.177973 -0.037 0.0969364
         vertex -0.177807 -0.037 0.0970025
         vertex -0.177807 -0.0049 0.0970025
      endloop
   endfacet
   facet normal -0.21497 0 0.976621
      outer loop
         vertex -0.178145 -0.037 0.0968886
         vertex -0.177973 -0.037 0.0969364
         vertex -0.177973 -0.0049 0.0969364
      endloop
   endfacet
   facet normal -0.108119 0 0.994138
      outer loop
         vertex -0.178322 -0.037 0.0968597
         vertex -0.178145 -0.037 0.0968886
         vertex -0.178145 -0.0049 0.0968886
      endloop
   endfacet
   facet normal 2.44929e-16 0 1
      outer loop
         vertex -0.1785 -0.037 0.09685
         vertex -0.178322 -0.037 0.0968597
         vertex -0.178322 -0.0049 0.0968597
      endloop
   endfacet
   facet normal -0.108119 0 0.994138
      outer loop
         vertex -0.178322 -0.0049 0.0968597
         vertex -0.1785 -0.0049 0.09685
         vertex -0.1785 -0.037 0.09685
      endloop
   endfacet
   facet normal -0.21497 0 0.976621
      outer loop
         vertex -0.178145 -0.0049 0.0968886
         vertex -0.178322 -0.0049 0.0968597
         vertex -0.178322 -0.037 0.0968597
      endloop
   endfacet
   facet normal -0.319302 0 0.947653
      outer loop
         vertex -0.177973 -0.0049 0.0969364
         vertex -0.178145 -0.0049 0.0968886
         vertex -0.178145 -0.037 0.0968886
      endloop
   endfacet
   facet normal -0.419889 0 0.907575
      outer loop
         vertex -0.177807 -0.0049 0.0970025
         vertex -0.177973 -0.0049 0.0969364
         vertex -0.177973 -0.037 0.0969364
      endloop
   endfacet
   facet normal -0.515554 0 0.856857
      outer loop
         vertex -0.177649 -0.0049 0.0970862
         vertex -0.177807 -0.0049 0.0970025
         vertex -0.177807 -0.037 0.0970025
      endloop
   endfacet
   facet normal -0.605174 0 0.796093
      outer loop
         vertex -0.177501 -0.0049 0.0971864
         vertex -0.177649 -0.0049 0.0970862
         vertex -0.177649 -0.037 0.0970862
      endloop
   endfacet
   facet normal -0.687699 0 0.725995
      outer loop
         vertex -0.177365 -0.0049 0.0973021
         vertex -0.177501 -0.0049 0.0971864
         vertex -0.177501 -0.037 0.0971864
      endloop
   endfacet
   facet normal -0.762162 0 0.647386
      outer loop
         vertex -0.177242 -0.0049 0.0974318
         vertex -0.177365 -0.0049 0.0973021
         vertex -0.177365 -0.037 0.0973021
      endloop
   endfacet
   facet normal -0.827689 0 0.561187
      outer loop
         vertex -0.177134 -0.0049 0.097574
         vertex -0.177242 -0.0049 0.0974318
         vertex -0.177242 -0.037 0.0974318
      endloop
   endfacet
   facet normal -0.883512 0 0.468408
      outer loop
         vertex -0.177042 -0.0049 0.0977271
         vertex -0.177134 -0.0049 0.097574
         vertex -0.177134 -0.037 0.097574
      endloop
   endfacet
   facet normal -0.928977 0 0.370138
      outer loop
         vertex -0.176967 -0.0049 0.0978893
         vertex -0.177042 -0.0049 0.0977271
         vertex -0.177042 -0.037 0.0977271
      endloop
   endfacet
   facet normal -0.96355 0 0.267528
      outer loop
         vertex -0.17691 -0.0049 0.0980586
         vertex -0.176967 -0.0049 0.0978893
         vertex -0.176967 -0.037 0.0978893
      endloop
   endfacet
   facet normal -0.986827 0 0.161782
      outer loop
         vertex -0.176872 -0.0049 0.0982331
         vertex -0.17691 -0.0049 0.0980586
         vertex -0.17691 -0.037 0.0980586
      endloop
   endfacet
   facet normal -0.998533 0 0.0541389
      outer loop
         vertex -0.176852 -0.0049 0.0984107
         vertex -0.176872 -0.0049 0.0982331
         vertex -0.176872 -0.037 0.0982331
      endloop
   endfacet
   facet normal -0.998533 0 -0.0541389
      outer loop
         vertex -0.176852 -0.0049 0.0985893
         vertex -0.176852 -0.0049 0.0984107
         vertex -0.176852 -0.037 0.0984107
      endloop
   endfacet
   facet normal -0.986827 0 -0.161782
      outer loop
         vertex -0.176872 -0.0049 0.0987669
         vertex -0.176852 -0.0049 0.0985893
         vertex -0.176852 -0.037 0.0985893
      endloop
   endfacet
   facet normal -0.96355 0 -0.267528
      outer loop
         vertex -0.17691 -0.0049 0.0989414
         vertex -0.176872 -0.0049 0.0987669
         vertex -0.176872 -0.037 0.0987669
      endloop
   endfacet
   facet normal -0.928977 0 -0.370138
      outer loop
         vertex -0.176967 -0.0049 0.0991107
         vertex -0.17691 -0.0049 0.0989414
         vertex -0.17691 -0.037 0.0989414
      endloop
   endfacet
   facet normal -0.883512 0 -0.468408
      outer loop
         vertex -0.177042 -0.0049 0.0992729
         vertex -0.176967 -0.0049 0.0991107
         vertex -0.176967 -0.037 0.0991107
      endloop
   endfacet
   facet normal -0.827689 0 -0.561187
      outer loop
         vertex -0.177134 -0.0049 0.099426
         vertex -0.177042 -0.0049 0.0992729
         vertex -0.177042 -0.037 0.0992729
      endloop
   endfacet
   facet normal -0.762162 0 -0.647386
      outer loop
         vertex -0.177242 -0.0049 0.0995682
         vertex -0.177134 -0.0049 0.099426
         vertex -0.177134 -0.037 0.099426
      endloop
   endfacet
   facet normal -0.687699 0 -0.725995
      outer loop
         vertex -0.177365 -0.0049 0.0996979
         vertex -0.177242 -0.0049 0.0995682
         vertex -0.177242 -0.037 0.0995682
      endloop
   endfacet
   facet normal -0.605174 0 -0.796093
      outer loop
         vertex -0.177501 -0.0049 0.0998136
         vertex -0.177365 -0.0049 0.0996979
         vertex -0.177365 -0.037 0.0996979
      endloop
   endfacet
   facet normal -0.515554 0 -0.856857
      outer loop
         vertex -0.177649 -0.0049 0.0999138
         vertex -0.177501 -0.0049 0.0998136
         vertex -0.177501 -0.037 0.0998136
      endloop
   endfacet
   facet normal -0.419889 0 -0.907575
      outer loop
         vertex -0.177807 -0.0049 0.0999975
         vertex -0.177649 -0.0049 0.0999138
         vertex -0.177649 -0.037 0.0999138
      endloop
   endfacet
   facet normal -0.319302 0 -0.947653
      outer loop
         vertex -0.177973 -0.0049 0.100064
         vertex -0.177807 -0.0049 0.0999975
         vertex -0.177807 -0.037 0.0999975
      endloop
   endfacet
   facet normal -0.21497 0 -0.976621
      outer loop
         vertex -0.178145 -0.0049 0.100111
         vertex -0.177973 -0.0049 0.100064
         vertex -0.177973 -0.037 0.100064
      endloop
   endfacet
   facet normal -0.108119 0 -0.994138
      outer loop
         vertex -0.178322 -0.0049 0.10014
         vertex -0.178145 -0.0049 0.100111
         vertex -0.178145 -0.037 0.100111
      endloop
   endfacet
   facet normal -1.22465e-16 0 -1
      outer loop
         vertex -0.1785 -0.0049 0.10015
         vertex -0.178322 -0.0049 0.10014
         vertex -0.178322 -0.037 0.10014
      endloop
   endfacet
   facet normal 0.108119 0 -0.994138
      outer loop
         vertex -0.178678 -0.0049 0.10014
         vertex -0.1785 -0.0049 0.10015
         vertex -0.1785 -0.037 0.10015
      endloop
   endfacet
   facet normal 0.21497 0 -0.976621
      outer loop
         vertex -0.178855 -0.0049 0.100111
         vertex -0.178678 -0.0049 0.10014
         vertex -0.178678 -0.037 0.10014
      endloop
   endfacet
   facet normal 0.319302 0 -0.947653
      outer loop
         vertex -0.179027 -0.0049 0.100064
         vertex -0.178855 -0.0049 0.100111
         vertex -0.178855 -0.037 0.100111
      endloop
   endfacet
   facet normal 0.419889 0 -0.907575
      outer loop
         vertex -0.179193 -0.0049 0.0999975
         vertex -0.179027 -0.0049 0.100064
         vertex -0.179027 -0.037 0.100064
      endloop
   endfacet
   facet normal 0.515554 0 -0.856857
      outer loop
         vertex -0.179351 -0.0049 0.0999138
         vertex -0.179193 -0.0049 0.0999975
         vertex -0.179193 -0.037 0.0999975
      endloop
   endfacet
   facet normal 0.605174 0 -0.796093
      outer loop
         vertex -0.179499 -0.0049 0.0998136
         vertex -0.179351 -0.0049 0.0999138
         vertex -0.179351 -0.037 0.0999138
      endloop
   endfacet
   facet normal 0.687699 0 -0.725995
      outer loop
         vertex -0.179635 -0.0049 0.0996979
         vertex -0.179499 -0.0049 0.0998136
         vertex -0.179499 -0.037 0.0998136
      endloop
   endfacet
   facet normal 0.762162 0 -0.647386
      outer loop
         vertex -0.179758 -0.0049 0.0995682
         vertex -0.179635 -0.0049 0.0996979
         vertex -0.179635 -0.037 0.0996979
      endloop
   endfacet
   facet normal 0.827689 0 -0.561187
      outer loop
         vertex -0.179866 -0.0049 0.099426
         vertex -0.179758 -0.0049 0.0995682
         vertex -0.179758 -0.037 0.0995682
      endloop
   endfacet
   facet normal 0.883512 0 -0.468408
      outer loop
         vertex -0.179958 -0.0049 0.0992729
         vertex -0.179866 -0.0049 0.099426
         vertex -0.179866 -0.037 0.099426
      endloop
   endfacet
   facet normal 0.928977 0 -0.370138
      outer loop
         vertex -0.180033 -0.0049 0.0991107
         vertex -0.179958 -0.0049 0.0992729
         vertex -0.179958 -0.037 0.0992729
      endloop
   endfacet
   facet normal 0.96355 0 -0.267528
      outer loop
         vertex -0.18009 -0.0049 0.0989414
         vertex -0.180033 -0.0049 0.0991107
         vertex -0.180033 -0.037 0.0991107
      endloop
   endfacet
   facet normal 0.986827 0 -0.161782
      outer loop
         vertex -0.180128 -0.0049 0.0987669
         vertex -0.18009 -0.0049 0.0989414
         vertex -0.18009 -0.037 0.0989414
      endloop
   endfacet
   facet normal 0.998533 0 -0.0541389
      outer loop
         vertex -0.180148 -0.0049 0.0985893
         vertex -0.180128 -0.0049 0.0987669
         vertex -0.180128 -0.037 0.0987669
      endloop
   endfacet
   facet normal 0.998533 0 0.0541389
      outer loop
         vertex -0.180148 -0.0049 0.0984107
         vertex -0.180148 -0.0049 0.0985893
         vertex -0.180148 -0.037 0.0985893
      endloop
   endfacet
   facet normal 0.986827 0 0.161782
      outer loop
         vertex -0.180128 -0.0049 0.0982331
         vertex -0.180148 -0.0049 0.0984107
         vertex -0.180148 -0.037 0.0984107
      endloop
   endfacet
   facet normal 0.96355 0 0.267528
      outer loop
         vertex -0.18009 -0.0049 0.0980586
         vertex -0.180128 -0.0049 0.0982331
         vertex -0.180128 -0.037 0.0982331
      endloop
   endfacet
   facet normal 0.928977 0 0.370138
      outer loop
         vertex -0.180033 -0.0049 0.0978893
         vertex -0.18009 -0.0049 0.0980586
         vertex -0.18009 -0.037 0.0980586
      endloop
   endfacet
   facet normal 0.883512 0 0.468408
      outer loop
         vertex -0.179958 -0.0049 0.0977271
         vertex -0.180033 -0.0049 0.0978893
         vertex -0.180033 -0.037 0.0978893
      endloop
   endfacet
   facet normal 0.827689 0 0.561187
      outer loop
         vertex -0.179866 -0.0049 0.097574
         vertex -0.179958 -0.0049 0.0977271
         vertex -0.179958 -0.037 0.0977271
      endloop
   endfacet
   facet normal 0.762162 0 0.647386
      outer loop
         vertex -0.179758 -0.0049 0.0974318
         vertex -0.179866 -0.0049 0.097574
         vertex -0.179866 -0.037 0.097574
      endloop
   endfacet
   facet normal 0.687699 0 0.725995
      outer loop
         vertex -0.179635 -0.0049 0.0973021
         vertex -0.179758 -0.0049 0.0974318
         vertex -0.179758 -0.037 0.0974318
      endloop
   endfacet
   facet normal 0.605174 0 0.796093
      outer loop
         vertex -0.179499 -0.0049 0.0971864
         vertex -0.179635 -0.0049 0.0973021
         vertex -0.179635 -0.037 0.0973021
      endloop
   endfacet
   facet normal 0.515554 0 0.856857
      outer loop
         vertex -0.179351 -0.0049 0.0970862
         vertex -0.179499 -0.0049 0.0971864
         vertex -0.179499 -0.037 0.0971864
      endloop
   endfacet
   facet normal 0.419889 0 0.907575
      outer loop
         vertex -0.179193 -0.0049 0.0970025
         vertex -0.179351 -0.0049 0.0970862
         vertex -0.179351 -0.037 0.0970862
      endloop
   endfacet
   facet normal 0.319302 0 0.947653
      outer loop
         vertex -0.179027 -0.0049 0.0969364
         vertex -0.179193 -0.0049 0.0970025
         vertex -0.179193 -0.037 0.0970025
      endloop
   endfacet
   facet normal 0.21497 0 0.976621
      outer loop
         vertex -0.178855 -0.0049 0.0968886
         vertex -0.179027 -0.0049 0.0969364
         vertex -0.179027 -0.037 0.0969364
      endloop
   endfacet
   facet normal 0.108119 0 0.994138
      outer loop
         vertex -0.178678 -0.0049 0.0968597
         vertex -0.178855 -0.0049 0.0968886
         vertex -0.178855 -0.037 0.0968886
      endloop
   endfacet
   facet normal 2.44929e-16 0 1
      outer loop
         vertex -0.1785 -0.0049 0.09685
         vertex -0.178678 -0.0049 0.0968597
         vertex -0.178678 -0.037 0.0968597
      endloop
   endfacet
   facet normal 0 1 0
      outer loop
         vertex -0.176479 -0.0049 0.095
         vertex -0.178322 -0.0049 0.0968597
         vertex -0.178145 -0.0049 0.0968886
      endloop
   endfacet
   facet normal 0 1 0
      outer loop
         vertex -0.180521 -0.0049 0.095
         vertex -0.178678 -0.0049 0.0968597
         vertex -0.1785 -0.0049 0.09685
      endloop
   endfacet
   facet normal 0 1 0
      outer loop
         vertex -0.180521 -0.0049 0.095
         vertex -0.179027 -0.0049 0.0969364
         vertex -0.178855 -0.0049 0.0968886
      endloop
   endfacet
   facet normal 0 1 0
      outer loop
         vertex -0.176479 -0.0049 0.102
         vertex -0.174459 -0.0049 0.0985
         vertex -0.177042 -0.0049 0.0992729
      endloop
   endfacet
   facet normal 0 1 0
      outer loop
         vertex -0.174459 -0.0049 0.0985
         vertex -0.176852 -0.0049 0.0984107
         vertex -0.176852 -0.0049 0.0985893
      endloop
   endfacet
   facet normal 0 1 0
      outer loop
         vertex -0.176479 -0.0049 0.095
         vertex -0.177134 -0.0049 0.097574
         vertex -0.177042 -0.0049 0.0977271
      endloop
   endfacet
   facet normal 0 1 0
      outer loop
         vertex -0.176479 -0.0049 0.095
         vertex -0.177807 -0.0049 0.0970025
         vertex -0.177649 -0.0049 0.0970862
      endloop
   endfacet
   facet normal 0 1 0
      outer loop
         vertex -0.176479 -0.0049 0.095
         vertex -0.1785 -0.0049 0.09685
         vertex -0.178322 -0.0049 0.0968597
      endloop
   endfacet
   facet normal 0 1 0
      outer loop
         vertex -0.178855 -0.0049 0.0968886
         vertex -0.178678 -0.0049 0.0968597
         vertex -0.180521 -0.0049 0.095
      endloop
   endfacet
   facet normal 0 1 0
      outer loop
         vertex -0.177042 -0.0049 0.0992729
         vertex -0.177134 -0.0049 0.099426
         vertex -0.176479 -0.0049 0.102
      endloop
   endfacet
   facet normal 0 1 0
      outer loop
         vertex -0.174459 -0.0049 0.0985
         vertex -0.176872 -0.0049 0.0987669
         vertex -0.17691 -0.0049 0.0989414
      endloop
   endfacet
   facet normal 0 1 0
      outer loop
         vertex -0.174459 -0.0049 0.0985
         vertex -0.176872 -0.0049 0.0982331
         vertex -0.176852 -0.0049 0.0984107
      endloop
   endfacet
   facet normal 0 1 0
      outer loop
         vertex -0.176479 -0.0049 0.095
         vertex -0.177242 -0.0049 0.0974318
         vertex -0.177134 -0.0049 0.097574
      endloop
   endfacet
   facet normal 0 1 0
      outer loop
         vertex -0.176479 -0.0049 0.095
         vertex -0.177973 -0.0049 0.0969364
         vertex -0.177807 -0.0049 0.0970025
      endloop
   endfacet
   facet normal 0 1 0
      outer loop
         vertex -0.1785 -0.0049 0.09685
         vertex -0.176479 -0.0049 0.095
         vertex -0.180521 -0.0049 0.095
      endloop
   endfacet
   facet normal 0 1 0
      outer loop
         vertex -0.180521 -0.0049 0.095
         vertex -0.179499 -0.0049 0.0971864
         vertex -0.179351 -0.0049 0.0970862
      endloop
   endfacet
   facet normal 0 1 0
      outer loop
         vertex -0.180521 -0.0049 0.095
         vertex -0.182541 -0.0049 0.0985
         vertex -0.179958 -0.0049 0.0977271
      endloop
   endfacet
   facet normal 0 1 0
      outer loop
         vertex -0.182541 -0.0049 0.0985
         vertex -0.180148 -0.0049 0.0985893
         vertex -0.180148 -0.0049 0.0984107
      endloop
   endfacet
   facet normal 0 1 0
      outer loop
         vertex -0.176479 -0.0049 0.102
         vertex -0.177242 -0.0049 0.0995682
         vertex -0.177365 -0.0049 0.0996979
      endloop
   endfacet
   facet normal 0 1 0
      outer loop
         vertex -0.174459 -0.0049 0.0985
         vertex -0.176967 -0.0049 0.0991107
         vertex -0.177042 -0.0049 0.0992729
      endloop
   endfacet
   facet normal 0 1 0
      outer loop
         vertex -0.176852 -0.0049 0.0985893
         vertex -0.176872 -0.0049 0.0987669
         vertex -0.174459 -0.0049 0.0985
      endloop
   endfacet
   facet normal 0 1 0
      outer loop
         vertex -0.174459 -0.0049 0.0985
         vertex -0.176967 -0.0049 0.0978893
         vertex -0.17691 -0.0049 0.0980586
      endloop
   endfacet
   facet normal 0 1 0
      outer loop
         vertex -0.177042 -0.0049 0.0977271
         vertex -0.174459 -0.0049 0.0985
         vertex -0.176479 -0.0049 0.095
      endloop
   endfacet
   facet normal 0 1 0
      outer loop
         vertex -0.176479 -0.0049 0.095
         vertex -0.177501 -0.0049 0.0971864
         vertex -0.177365 -0.0049 0.0973021
      endloop
   endfacet
   facet normal 0 1 0
      outer loop
         vertex -0.178145 -0.0049 0.0968886
         vertex -0.177973 -0.0049 0.0969364
         vertex -0.176479 -0.0049 0.095
      endloop
   endfacet
   facet normal 0 1 0
      outer loop
         vertex -0.179351 -0.0049 0.0970862
         vertex -0.179193 -0.0049 0.0970025
         vertex -0.180521 -0.0049 0.095
      endloop
   endfacet
   facet normal 0 1 0
      outer loop
         vertex -0.179958 -0.0049 0.0977271
         vertex -0.179866 -0.0049 0.097574
         vertex -0.180521 -0.0049 0.095
      endloop
   endfacet
   facet normal 0 1 0
      outer loop
         vertex -0.182541 -0.0049 0.0985
         vertex -0.180128 -0.0049 0.0982331
         vertex -0.18009 -0.0049 0.0980586
      endloop
   endfacet
   facet normal 0 1 0
      outer loop
         vertex -0.182541 -0.0049 0.0985
         vertex -0.180128 -0.0049 0.0987669
         vertex -0.180148 -0.0049 0.0985893
      endloop
   endfacet
   facet normal 0 1 0
      outer loop
         vertex -0.176479 -0.0049 0.102
         vertex -0.177973 -0.0049 0.100064
         vertex -0.178145 -0.0049 0.100111
      endloop
   endfacet
   facet normal 0 1 0
      outer loop
         vertex -0.176479 -0.0049 0.102
         vertex -0.177501 -0.0049 0.0998136
         vertex -0.177649 -0.0049 0.0999138
      endloop
   endfacet
   facet normal 0 1 0
      outer loop
         vertex -0.177134 -0.0049 0.099426
         vertex -0.177242 -0.0049 0.0995682
         vertex -0.176479 -0.0049 0.102
      endloop
   endfacet
   facet normal 0 1 0
      outer loop
         vertex -0.17691 -0.0049 0.0980586
         vertex -0.176872 -0.0049 0.0982331
         vertex -0.174459 -0.0049 0.0985
      endloop
   endfacet
   facet normal 0 1 0
      outer loop
         vertex -0.177365 -0.0049 0.0973021
         vertex -0.177242 -0.0049 0.0974318
         vertex -0.176479 -0.0049 0.095
      endloop
   endfacet
   facet normal 0 1 0
      outer loop
         vertex -0.179193 -0.0049 0.0970025
         vertex -0.179027 -0.0049 0.0969364
         vertex -0.180521 -0.0049 0.095
      endloop
   endfacet
   facet normal 0 1 0
      outer loop
         vertex -0.180521 -0.0049 0.095
         vertex -0.179758 -0.0049 0.0974318
         vertex -0.179635 -0.0049 0.0973021
      endloop
   endfacet
   facet normal 0 1 0
      outer loop
         vertex -0.182541 -0.0049 0.0985
         vertex -0.180033 -0.0049 0.0978893
         vertex -0.179958 -0.0049 0.0977271
      endloop
   endfacet
   facet normal 0 1 0
      outer loop
         vertex -0.180148 -0.0049 0.0984107
         vertex -0.180128 -0.0049 0.0982331
         vertex -0.182541 -0.0049 0.0985
      endloop
   endfacet
   facet normal 0 1 0
      outer loop
         vertex -0.182541 -0.0049 0.0985
         vertex -0.180033 -0.0049 0.0991107
         vertex -0.18009 -0.0049 0.0989414
      endloop
   endfacet
   facet normal 0 1 0
      outer loop
         vertex -0.180521 -0.0049 0.102
         vertex -0.179866 -0.0049 0.099426
         vertex -0.179958 -0.0049 0.0992729
      endloop
   endfacet
   facet normal 0 1 0
      outer loop
         vertex -0.178145 -0.0049 0.100111
         vertex -0.178322 -0.0049 0.10014
         vertex -0.176479 -0.0049 0.102
      endloop
   endfacet
   facet normal 0 1 0
      outer loop
         vertex -0.177649 -0.0049 0.0999138
         vertex -0.177807 -0.0049 0.0999975
         vertex -0.176479 -0.0049 0.102
      endloop
   endfacet
   facet normal 0 1 0
      outer loop
         vertex -0.17691 -0.0049 0.0989414
         vertex -0.176967 -0.0049 0.0991107
         vertex -0.174459 -0.0049 0.0985
      endloop
   endfacet
   facet normal 0 1 0
      outer loop
         vertex -0.177649 -0.0049 0.0970862
         vertex -0.177501 -0.0049 0.0971864
         vertex -0.176479 -0.0049 0.095
      endloop
   endfacet
   facet normal 0 1 0
      outer loop
         vertex -0.179866 -0.0049 0.097574
         vertex -0.179758 -0.0049 0.0974318
         vertex -0.180521 -0.0049 0.095
      endloop
   endfacet
   facet normal 0 1 0
      outer loop
         vertex -0.18009 -0.0049 0.0989414
         vertex -0.180128 -0.0049 0.0987669
         vertex -0.182541 -0.0049 0.0985
      endloop
   endfacet
   facet normal 0 1 0
      outer loop
         vertex -0.180521 -0.0049 0.102
         vertex -0.179758 -0.0049 0.0995682
         vertex -0.179866 -0.0049 0.099426
      endloop
   endfacet
   facet normal 0 1 0
      outer loop
         vertex -0.180521 -0.0049 0.102
         vertex -0.179193 -0.0049 0.0999975
         vertex -0.179351 -0.0049 0.0999138
      endloop
   endfacet
   facet normal 0 1 0
      outer loop
         vertex -0.180521 -0.0049 0.102
         vertex -0.178678 -0.0049 0.10014
         vertex -0.178855 -0.0049 0.100111
      endloop
   endfacet
   facet normal 0 1 0
      outer loop
         vertex -0.180521 -0.0049 0.102
         vertex -0.176479 -0.0049 0.102
         vertex -0.1785 -0.0049 0.10015
      endloop
   endfacet
   facet normal 0 1 0
      outer loop
         vertex -0.177807 -0.0049 0.0999975
         vertex -0.177973 -0.0049 0.100064
         vertex -0.176479 -0.0049 0.102
      endloop
   endfacet
   facet normal 0 1 0
      outer loop
         vertex -0.177042 -0.0049 0.0977271
         vertex -0.176967 -0.0049 0.0978893
         vertex -0.174459 -0.0049 0.0985
      endloop
   endfacet
   facet normal 0 1 0
      outer loop
         vertex -0.18009 -0.0049 0.0980586
         vertex -0.180033 -0.0049 0.0978893
         vertex -0.182541 -0.0049 0.0985
      endloop
   endfacet
   facet normal 0 1 0
      outer loop
         vertex -0.179958 -0.0049 0.0992729
         vertex -0.182541 -0.0049 0.0985
         vertex -0.180521 -0.0049 0.102
      endloop
   endfacet
   facet normal 0 1 0
      outer loop
         vertex -0.180521 -0.0049 0.102
         vertex -0.179027 -0.0049 0.100064
         vertex -0.179193 -0.0049 0.0999975
      endloop
   endfacet
   facet normal 0 1 0
      outer loop
         vertex -0.1785 -0.0049 0.10015
         vertex -0.178678 -0.0049 0.10014
         vertex -0.180521 -0.0049 0.102
      endloop
   endfacet
   facet normal 0 1 0
      outer loop
         vertex -0.177365 -0.0049 0.0996979
         vertex -0.177501 -0.0049 0.0998136
         vertex -0.176479 -0.0049 0.102
      endloop
   endfacet
   facet normal 0 1 0
      outer loop
         vertex -0.179958 -0.0049 0.0992729
         vertex -0.180033 -0.0049 0.0991107
         vertex -0.182541 -0.0049 0.0985
      endloop
   endfacet
   facet normal 0 1 0
      outer loop
         vertex -0.180521 -0.0049 0.102
         vertex -0.179499 -0.0049 0.0998136
         vertex -0.179635 -0.0049 0.0996979
      endloop
   endfacet
   facet normal 0 1 0
      outer loop
         vertex -0.178855 -0.0049 0.100111
         vertex -0.179027 -0.0049 0.100064
         vertex -0.180521 -0.0049 0.102
      endloop
   endfacet
   facet normal 0 1 0
      outer loop
         vertex -0.179635 -0.0049 0.0973021
         vertex -0.179499 -0.0049 0.0971864
         vertex -0.180521 -0.0049 0.095
      endloop
   endfacet
   facet normal 0 1 0
      outer loop
         vertex -0.179351 -0.0049 0.0999138
         vertex -0.179499 -0.0049 0.0998136
         vertex -0.180521 -0.0049 0.102
      endloop
   endfacet
   facet normal 0 1 0
      outer loop
         vertex -0.179635 -0.0049 0.0996979
         vertex -0.179758 -0.0049 0.0995682
         vertex -0.180521 -0.0049 0.102
      endloop
   endfacet
   facet normal 0 1 0
      outer loop
         vertex -0.178322 -0.0049 0.10014
         vertex -0.1785 -0.0049 0.10015
         vertex -0.176479 -0.0049 0.102
      endloop
   endfacet
   facet normal 0 -1 0
      outer loop
         vertex -0.176479 -0.037 0.095
         vertex -0.174459 -0.037 0.0985
         vertex -0.177042 -0.037 0.0977271
      endloop
   endfacet
   facet normal 0 -1 0
      outer loop
         vertex -0.176479 -0.037 0.095
         vertex -0.177973 -0.037 0.0969364
         vertex -0.178145 -0.037 0.0968886
      endloop
   endfacet
   facet normal 0 -1 0
      outer loop
         vertex -0.176479 -0.037 0.095
         vertex -0.177501 -0.037 0.0971864
         vertex -0.177649 -0.037 0.0970862
      endloop
   endfacet
   facet normal 0 -1 0
      outer loop
         vertex -0.177042 -0.037 0.0977271
         vertex -0.177134 -0.037 0.097574
         vertex -0.176479 -0.037 0.095
      endloop
   endfacet
   facet normal 0 -1 0
      outer loop
         vertex -0.174459 -0.037 0.0985
         vertex -0.176852 -0.037 0.0985893
         vertex -0.176852 -0.037 0.0984107
      endloop
   endfacet
   facet normal 0 -1 0
      outer loop
         vertex -0.176479 -0.037 0.102
         vertex -0.178322 -0.037 0.10014
         vertex -0.178145 -0.037 0.100111
      endloop
   endfacet
   facet normal 0 -1 0
      outer loop
         vertex -0.180521 -0.037 0.102
         vertex -0.178678 -0.037 0.10014
         vertex -0.1785 -0.037 0.10015
      endloop
   endfacet
   facet normal 0 -1 0
      outer loop
         vertex -0.180521 -0.037 0.102
         vertex -0.179027 -0.037 0.100064
         vertex -0.178855 -0.037 0.100111
      endloop
   endfacet
   facet normal 0 -1 0
      outer loop
         vertex -0.182541 -0.037 0.0985
         vertex -0.180148 -0.037 0.0984107
         vertex -0.180148 -0.037 0.0985893
      endloop
   endfacet
   facet normal 0 -1 0
      outer loop
         vertex -0.178145 -0.037 0.0968886
         vertex -0.178322 -0.037 0.0968597
         vertex -0.176479 -0.037 0.095
      endloop
   endfacet
   facet normal 0 -1 0
      outer loop
         vertex -0.177649 -0.037 0.0970862
         vertex -0.177807 -0.037 0.0970025
         vertex -0.176479 -0.037 0.095
      endloop
   endfacet
   facet normal 0 -1 0
      outer loop
         vertex -0.176479 -0.037 0.095
         vertex -0.177242 -0.037 0.0974318
         vertex -0.177365 -0.037 0.0973021
      endloop
   endfacet
   facet normal 0 -1 0
      outer loop
         vertex -0.174459 -0.037 0.0985
         vertex -0.176967 -0.037 0.0978893
         vertex -0.177042 -0.037 0.0977271
      endloop
   endfacet
   facet normal 0 -1 0
      outer loop
         vertex -0.174459 -0.037 0.0985
         vertex -0.176872 -0.037 0.0982331
         vertex -0.17691 -0.037 0.0980586
      endloop
   endfacet
   facet normal 0 -1 0
      outer loop
         vertex -0.174459 -0.037 0.0985
         vertex -0.176872 -0.037 0.0987669
         vertex -0.176852 -0.037 0.0985893
      endloop
   endfacet
   facet normal 0 -1 0
      outer loop
         vertex -0.176479 -0.037 0.102
         vertex -0.177134 -0.037 0.099426
         vertex -0.177042 -0.037 0.0992729
      endloop
   endfacet
   facet normal 0 -1 0
      outer loop
         vertex -0.176479 -0.037 0.102
         vertex -0.177807 -0.037 0.0999975
         vertex -0.177649 -0.037 0.0999138
      endloop
   endfacet
   facet normal 0 -1 0
      outer loop
         vertex -0.176479 -0.037 0.102
         vertex -0.1785 -0.037 0.10015
         vertex -0.178322 -0.037 0.10014
      endloop
   endfacet
   facet normal 0 -1 0
      outer loop
         vertex -0.178855 -0.037 0.100111
         vertex -0.178678 -0.037 0.10014
         vertex -0.180521 -0.037 0.102
      endloop
   endfacet
   facet normal 0 -1 0
      outer loop
         vertex -0.180521 -0.037 0.102
         vertex -0.182541 -0.037 0.0985
         vertex -0.179958 -0.037 0.0992729
      endloop
   endfacet
   facet normal 0 -1 0
      outer loop
         vertex -0.182541 -0.037 0.0985
         vertex -0.180128 -0.037 0.0987669
         vertex -0.18009 -0.037 0.0989414
      endloop
   endfacet
   facet normal 0 -1 0
      outer loop
         vertex -0.182541 -0.037 0.0985
         vertex -0.180128 -0.037 0.0982331
         vertex -0.180148 -0.037 0.0984107
      endloop
   endfacet
   facet normal 0 -1 0
      outer loop
         vertex -0.180521 -0.037 0.095
         vertex -0.179866 -0.037 0.097574
         vertex -0.179958 -0.037 0.0977271
      endloop
   endfacet
   facet normal 0 -1 0
      outer loop
         vertex -0.177807 -0.037 0.0970025
         vertex -0.177973 -0.037 0.0969364
         vertex -0.176479 -0.037 0.095
      endloop
   endfacet
   facet normal 0 -1 0
      outer loop
         vertex -0.177134 -0.037 0.097574
         vertex -0.177242 -0.037 0.0974318
         vertex -0.176479 -0.037 0.095
      endloop
   endfacet
   facet normal 0 -1 0
      outer loop
         vertex -0.176852 -0.037 0.0984107
         vertex -0.176872 -0.037 0.0982331
         vertex -0.174459 -0.037 0.0985
      endloop
   endfacet
   facet normal 0 -1 0
      outer loop
         vertex -0.174459 -0.037 0.0985
         vertex -0.176967 -0.037 0.0991107
         vertex -0.17691 -0.037 0.0989414
      endloop
   endfacet
   facet normal 0 -1 0
      outer loop
         vertex -0.176479 -0.037 0.102
         vertex -0.177242 -0.037 0.0995682
         vertex -0.177134 -0.037 0.099426
      endloop
   endfacet
   facet normal 0 -1 0
      outer loop
         vertex -0.176479 -0.037 0.102
         vertex -0.177973 -0.037 0.100064
         vertex -0.177807 -0.037 0.0999975
      endloop
   endfacet
   facet normal 0 -1 0
      outer loop
         vertex -0.1785 -0.037 0.10015
         vertex -0.176479 -0.037 0.102
         vertex -0.180521 -0.037 0.102
      endloop
   endfacet
   facet normal 0 -1 0
      outer loop
         vertex -0.180521 -0.037 0.102
         vertex -0.179499 -0.037 0.0998136
         vertex -0.179351 -0.037 0.0999138
      endloop
   endfacet
   facet normal 0 -1 0
      outer loop
         vertex -0.179958 -0.037 0.0992729
         vertex -0.179866 -0.037 0.099426
         vertex -0.180521 -0.037 0.102
      endloop
   endfacet
   facet normal 0 -1 0
      outer loop
         vertex -0.180148 -0.037 0.0985893
         vertex -0.180128 -0.037 0.0987669
         vertex -0.182541 -0.037 0.0985
      endloop
   endfacet
   facet normal 0 -1 0
      outer loop
         vertex -0.182541 -0.037 0.0985
         vertex -0.180033 -0.037 0.0978893
         vertex -0.18009 -0.037 0.0980586
      endloop
   endfacet
   facet normal 0 -1 0
      outer loop
         vertex -0.180521 -0.037 0.095
         vertex -0.179758 -0.037 0.0974318
         vertex -0.179866 -0.037 0.097574
      endloop
   endfacet
   facet normal 0 -1 0
      outer loop
         vertex -0.177365 -0.037 0.0973021
         vertex -0.177501 -0.037 0.0971864
         vertex -0.176479 -0.037 0.095
      endloop
   endfacet
   facet normal 0 -1 0
      outer loop
         vertex -0.17691 -0.037 0.0989414
         vertex -0.176872 -0.037 0.0987669
         vertex -0.174459 -0.037 0.0985
      endloop
   endfacet
   facet normal 0 -1 0
      outer loop
         vertex -0.177042 -0.037 0.0992729
         vertex -0.174459 -0.037 0.0985
         vertex -0.176479 -0.037 0.102
      endloop
   endfacet
   facet normal 0 -1 0
      outer loop
         vertex -0.176479 -0.037 0.102
         vertex -0.177501 -0.037 0.0998136
         vertex -0.177365 -0.037 0.0996979
      endloop
   endfacet
   facet normal 0 -1 0
      outer loop
         vertex -0.178145 -0.037 0.100111
         vertex -0.177973 -0.037 0.100064
         vertex -0.176479 -0.037 0.102
      endloop
   endfacet
   facet normal 0 -1 0
      outer loop
         vertex -0.179351 -0.037 0.0999138
         vertex -0.179193 -0.037 0.0999975
         vertex -0.180521 -0.037 0.102
      endloop
   endfacet
   facet normal 0 -1 0
      outer loop
         vertex -0.182541 -0.037 0.0985
         vertex -0.180033 -0.037 0.0991107
         vertex -0.179958 -0.037 0.0992729
      endloop
   endfacet
   facet normal 0 -1 0
      outer loop
         vertex -0.18009 -0.037 0.0980586
         vertex -0.180128 -0.037 0.0982331
         vertex -0.182541 -0.037 0.0985
      endloop
   endfacet
   facet normal 0 -1 0
      outer loop
         vertex -0.179958 -0.037 0.0977271
         vertex -0.182541 -0.037 0.0985
         vertex -0.180521 -0.037 0.095
      endloop
   endfacet
   facet normal 0 -1 0
      outer loop
         vertex -0.180521 -0.037 0.095
         vertex -0.179499 -0.037 0.0971864
         vertex -0.179635 -0.037 0.0973021
      endloop
   endfacet
   facet normal 0 -1 0
      outer loop
         vertex -0.180521 -0.037 0.095
         vertex -0.179193 -0.037 0.0970025
         vertex -0.179351 -0.037 0.0970862
      endloop
   endfacet
   facet normal 0 -1 0
      outer loop
         vertex -0.180521 -0.037 0.095
         vertex -0.178678 -0.037 0.0968597
         vertex -0.178855 -0.037 0.0968886
      endloop
   endfacet
   facet normal 0 -1 0
      outer loop
         vertex -0.180521 -0.037 0.095
         vertex -0.176479 -0.037 0.095
         vertex -0.1785 -0.037 0.09685
      endloop
   endfacet
   facet normal 0 -1 0
      outer loop
         vertex -0.17691 -0.037 0.0980586
         vertex -0.176967 -0.037 0.0978893
         vertex -0.174459 -0.037 0.0985
      endloop
   endfacet
   facet normal 0 -1 0
      outer loop
         vertex -0.177365 -0.037 0.0996979
         vertex -0.177242 -0.037 0.0995682
         vertex -0.176479 -0.037 0.102
      endloop
   endfacet
   facet normal 0 -1 0
      outer loop
         vertex -0.179193 -0.037 0.0999975
         vertex -0.179027 -0.037 0.100064
         vertex -0.180521 -0.037 0.102
      endloop
   endfacet
   facet normal 0 -1 0
      outer loop
         vertex -0.180521 -0.037 0.102
         vertex -0.179758 -0.037 0.0995682
         vertex -0.179635 -0.037 0.0996979
      endloop
   endfacet
   facet normal 0 -1 0
      outer loop
         vertex -0.18009 -0.037 0.0989414
         vertex -0.180033 -0.037 0.0991107
         vertex -0.182541 -0.037 0.0985
      endloop
   endfacet
   facet normal 0 -1 0
      outer loop
         vertex -0.179635 -0.037 0.0973021
         vertex -0.179758 -0.037 0.0974318
         vertex -0.180521 -0.037 0.095
      endloop
   endfacet
   facet normal 0 -1 0
      outer loop
         vertex -0.180521 -0.037 0.095
         vertex -0.179027 -0.037 0.0969364
         vertex -0.179193 -0.037 0.0970025
      endloop
   endfacet
   facet normal 0 -1 0
      outer loop
         vertex -0.1785 -0.037 0.09685
         vertex -0.178678 -0.037 0.0968597
         vertex -0.180521 -0.037 0.095
      endloop
   endfacet
   facet normal 0 -1 0
      outer loop
         vertex -0.177042 -0.037 0.0992729
         vertex -0.176967 -0.037 0.0991107
         vertex -0.174459 -0.037 0.0985
      endloop
   endfacet
   facet normal 0 -1 0
      outer loop
         vertex -0.179635 -0.037 0.0996979
         vertex -0.179499 -0.037 0.0998136
         vertex -0.180521 -0.037 0.102
      endloop
   endfacet
   facet normal 0 -1 0
      outer loop
         vertex -0.179958 -0.037 0.0977271
         vertex -0.180033 -0.037 0.0978893
         vertex -0.182541 -0.037 0.0985
      endloop
   endfacet
   facet normal 0 -1 0
      outer loop
         vertex -0.178855 -0.037 0.0968886
         vertex -0.179027 -0.037 0.0969364
         vertex -0.180521 -0.037 0.095
      endloop
   endfacet
   facet normal 0 -1 0
      outer loop
         vertex -0.177649 -0.037 0.0999138
         vertex -0.177501 -0.037 0.0998136
         vertex -0.176479 -0.037 0.102
      endloop
   endfacet
   facet normal 0 -1 0
      outer loop
         vertex -0.179351 -0.037 0.0970862
         vertex -0.179499 -0.037 0.0971864
         vertex -0.180521 -0.037 0.095
      endloop
   endfacet
   facet normal 0 -1 0
      outer loop
         vertex -0.179866 -0.037 0.099426
         vertex -0.179758 -0.037 0.0995682
         vertex -0.180521 -0.037 0.102
      endloop
   endfacet
   facet normal 0 -1 0
      outer loop
         vertex -0.178322 -0.037 0.0968597
         vertex -0.1785 -0.037 0.09685
         vertex -0.176479 -0.037 0.095
      endloop
   endfacet
   facet normal -0.866025 0 0.5
      outer loop
         vertex -0.182541 -0.0049 0.0985
         vertex -0.182541 -0.037 0.0985
         vertex -0.180521 -0.037 0.102
      endloop
   endfacet
   facet normal -0.866025 0 0.5
      outer loop
         vertex -0.180521 -0.037 0.102
         vertex -0.180521 -0.0049 0.102
         vertex -0.182541 -0.0049 0.0985
      endloop
   endfacet
   facet normal 0 0 1
      outer loop
         vertex -0.180521 -0.0049 0.102
         vertex -0.180521 -0.037 0.102
         vertex -0.176479 -0.037 0.102
      endloop
   endfacet
   facet normal 0 0 1
      outer loop
         vertex -0.176479 -0.037 0.102
         vertex -0.176479 -0.0049 0.102
         vertex -0.180521 -0.0049 0.102
      endloop
   endfacet
   facet normal 0.866025 0 0.5
      outer loop
         vertex -0.176479 -0.0049 0.102
         vertex -0.176479 -0.037 0.102
         vertex -0.174459 -0.037 0.0985
      endloop
   endfacet
   facet normal 0.866025 0 0.5
      outer loop
         vertex -0.174459 -0.037 0.0985
         vertex -0.174459 -0.0049 0.0985
         vertex -0.176479 -0.0049 0.102
      endloop
   endfacet
   facet normal 0.866025 0 -0.5
      outer loop
         vertex -0.174459 -0.0049 0.0985
         vertex -0.174459 -0.037 0.0985
         vertex -0.176479 -0.037 0.095
      endloop
   endfacet
   facet normal 0.866025 0 -0.5
      outer loop
         vertex -0.176479 -0.037 0.095
         vertex -0.176479 -0.0049 0.095
         vertex -0.174459 -0.0049 0.0985
      endloop
   endfacet
   facet normal 0 0 -1
      outer loop
         vertex -0.176479 -0.0049 0.095
         vertex -0.176479 -0.037 0.095
         vertex -0.180521 -0.037 0.095
      endloop
   endfacet
   facet normal 0 0 -1
      outer loop
         vertex -0.180521 -0.037 0.095
         vertex -0.180521 -0.0049 0.095
         vertex -0.176479 -0.0049 0.095
      endloop
   endfacet
   facet normal -0.866025 0 -0.5
      outer loop
         vertex -0.180521 -0.0049 0.095
         vertex -0.180521 -0.037 0.095
         vertex -0.182541 -0.037 0.0985
      endloop
   endfacet
   facet normal -0.866025 0 -0.5
      outer loop
         vertex -0.182541 -0.037 0.0985
         vertex -0.182541 -0.0049 0.0985
         vertex -0.180521 -0.0049 0.095
      endloop
   endfacet
endsolid Link Spacer. Units = meters