solid Link standoff. STL generated by ONSHAPE BY PTC INC, 1.216. Units = meters
   facet normal 0.108119 0 -0.994138
      outer loop
         vertex -0.178641 -0.04 0.0997924
         vertex -0.1785 -0.04 0.0998
         vertex -0.1785 -0.0721 0.0998
      endloop
   endfacet
   facet normal 0.21497 0 -0.976621
      outer loop
         vertex -0.178779 -0.04 0.0997696
         vertex -0.178641 -0.04 0.0997924
         vertex -0.178641 -0.0721 0.0997924
      endloop
   endfacet
   facet normal 0.319302 0 -0.947653
      outer loop
         vertex -0.178915 -0.04 0.0997319
         vertex -0.178779 -0.04 0.0997696
         vertex -0.178779 -0.0721 0.0997696
      endloop
   endfacet
   facet normal 0.419889 0 -0.907575
      outer loop
         vertex -0.179046 -0.04 0.0996798
         vertex -0.178915 -0.04 0.0997319
         vertex -0.178915 -0.0721 0.0997319
      endloop
   endfacet
   facet normal 0.515554 0 -0.856857
      outer loop
         vertex -0.17917 -0.04 0.0996139
         vertex -0.179046 -0.04 0.0996798
         vertex -0.179046 -0.0721 0.0996798
      endloop
   endfacet
   facet normal 0.605174 0 -0.796093
      outer loop
         vertex -0.179287 -0.04 0.0995349
         vertex -0.17917 -0.04 0.0996139
         vertex -0.17917 -0.0721 0.0996139
      endloop
   endfacet
   facet normal 0.687699 0 -0.725995
      outer loop
         vertex -0.179394 -0.04 0.0994438
         vertex -0.179287 -0.04 0.0995349
         vertex -0.179287 -0.0721 0.0995349
      endloop
   endfacet
   facet normal 0.762162 0 -0.647386
      outer loop
         vertex -0.179491 -0.04 0.0993416
         vertex -0.179394 -0.04 0.0994438
         vertex -0.179394 -0.0721 0.0994438
      endloop
   endfacet
   facet normal 0.827689 0 -0.561187
      outer loop
         vertex -0.179576 -0.04 0.0992295
         vertex -0.179491 -0.04 0.0993416
         vertex -0.179491 -0.0721 0.0993416
      endloop
   endfacet
   facet normal 0.883512 0 -0.468408
      outer loop
         vertex -0.179649 -0.04 0.0991089
         vertex -0.179576 -0.04 0.0992295
         vertex -0.179576 -0.0721 0.0992295
      endloop
   endfacet
   facet normal 0.928977 0 -0.370138
      outer loop
         vertex -0.179708 -0.04 0.0989812
         vertex -0.179649 -0.04 0.0991089
         vertex -0.179649 -0.0721 0.0991089
      endloop
   endfacet
   facet normal 0.96355 0 -0.267528
      outer loop
         vertex -0.179753 -0.04 0.0988478
         vertex -0.179708 -0.04 0.0989812
         vertex -0.179708 -0.0721 0.0989812
      endloop
   endfacet
   facet normal 0.986827 0 -0.161782
      outer loop
         vertex -0.179783 -0.04 0.0987103
         vertex -0.179753 -0.04 0.0988478
         vertex -0.179753 -0.0721 0.0988478
      endloop
   endfacet
   facet normal 0.998533 0 -0.0541389
      outer loop
         vertex -0.179798 -0.04 0.0985704
         vertex -0.179783 -0.04 0.0987103
         vertex -0.179783 -0.0721 0.0987103
      endloop
   endfacet
   facet normal 0.998533 0 0.0541389
      outer loop
         vertex -0.179798 -0.04 0.0984296
         vertex -0.179798 -0.04 0.0985704
         vertex -0.179798 -0.0721 0.0985704
      endloop
   endfacet
   facet normal 0.986827 0 0.161782
      outer loop
         vertex -0.179783 -0.04 0.0982897
         vertex -0.179798 -0.04 0.0984296
         vertex -0.179798 -0.0721 0.0984296
      endloop
   endfacet
   facet normal 0.96355 0 0.267528
      outer loop
         vertex -0.179753 -0.04 0.0981522
         vertex -0.179783 -0.04 0.0982897
         vertex -0.179783 -0.0721 0.0982897
      endloop
   endfacet
   facet normal 0.928977 0 0.370138
      outer loop
         vertex -0.179708 -0.04 0.0980188
         vertex -0.179753 -0.04 0.0981522
         vertex -0.179753 -0.0721 0.0981522
      endloop
   endfacet
   facet normal 0.883512 0 0.468408
      outer loop
         vertex -0.179649 -0.04 0.0978911
         vertex -0.179708 -0.04 0.0980188
         vertex -0.179708 -0.0721 0.0980188
      endloop
   endfacet
   facet normal 0.827689 0 0.561187
      outer loop
         vertex -0.179576 -0.04 0.0977705
         vertex -0.179649 -0.04 0.0978911
         vertex -0.179649 -0.0721 0.0978911
      endloop
   endfacet
   facet normal 0.762162 0 0.647386
      outer loop
         vertex -0.179491 -0.04 0.0976584
         vertex -0.179576 -0.04 0.0977705
         vertex -0.179576 -0.0721 0.0977705
      endloop
   endfacet
   facet normal 0.687699 0 0.725995
      outer loop
         vertex -0.179394 -0.04 0.0975562
         vertex -0.179491 -0.04 0.0976584
         vertex -0.179491 -0.0721 0.0976584
      endloop
   endfacet
   facet normal 0.605174 0 0.796093
      outer loop
         vertex -0.179287 -0.04 0.0974651
         vertex -0.179394 -0.04 0.0975562
         vertex -0.179394 -0.0721 0.0975562
      endloop
   endfacet
   facet normal 0.515554 0 0.856857
      outer loop
         vertex -0.17917 -0.04 0.0973861
         vertex -0.179287 -0.04 0.0974651
         vertex -0.179287 -0.0721 0.0974651
      endloop
   endfacet
   facet normal 0.419889 0 0.907575
      outer loop
         vertex -0.179046 -0.04 0.0973202
         vertex -0.17917 -0.04 0.0973861
         vertex -0.17917 -0.0721 0.0973861
      endloop
   endfacet
   facet normal 0.319302 0 0.947653
      outer loop
         vertex -0.178915 -0.04 0.0972681
         vertex -0.179046 -0.04 0.0973202
         vertex -0.179046 -0.0721 0.0973202
      endloop
   endfacet
   facet normal 0.21497 0 0.976621
      outer loop
         vertex -0.178779 -0.04 0.0972304
         vertex -0.178915 -0.04 0.0972681
         vertex -0.178915 -0.0721 0.0972681
      endloop
   endfacet
   facet normal 0.108119 0 0.994138
      outer loop
         vertex -0.178641 -0.04 0.0972076
         vertex -0.178779 -0.04 0.0972304
         vertex -0.178779 -0.0721 0.0972304
      endloop
   endfacet
   facet normal -1.22465e-16 0 1
      outer loop
         vertex -0.1785 -0.04 0.0972
         vertex -0.178641 -0.04 0.0972076
         vertex -0.178641 -0.0721 0.0972076
      endloop
   endfacet
   facet normal -0.108119 0 0.994138
      outer loop
         vertex -0.178359 -0.04 0.0972076
         vertex -0.1785 -0.04 0.0972
         vertex -0.1785 -0.0721 0.0972
      endloop
   endfacet
   facet normal -0.21497 0 0.976621
      outer loop
         vertex -0.178221 -0.04 0.0972304
         vertex -0.178359 -0.04 0.0972076
         vertex -0.178359 -0.0721 0.0972076
      endloop
   endfacet
   facet normal -0.319302 0 0.947653
      outer loop
         vertex -0.178085 -0.04 0.0972681
         vertex -0.178221 -0.04 0.0972304
         vertex -0.178221 -0.0721 0.0972304
      endloop
   endfacet
   facet normal -0.419889 0 0.907575
      outer loop
         vertex -0.177954 -0.04 0.0973202
         vertex -0.178085 -0.04 0.0972681
         vertex -0.178085 -0.0721 0.0972681
      endloop
   endfacet
   facet normal -0.515554 0 0.856857
      outer loop
         vertex -0.17783 -0.04 0.0973861
         vertex -0.177954 -0.04 0.0973202
         vertex -0.177954 -0.0721 0.0973202
      endloop
   endfacet
   facet normal -0.605174 0 0.796093
      outer loop
         vertex -0.177713 -0.04 0.0974651
         vertex -0.17783 -0.04 0.0973861
         vertex -0.17783 -0.0721 0.0973861
      endloop
   endfacet
   facet normal -0.687699 0 0.725995
      outer loop
         vertex -0.177606 -0.04 0.0975562
         vertex -0.177713 -0.04 0.0974651
         vertex -0.177713 -0.0721 0.0974651
      endloop
   endfacet
   facet normal -0.762162 0 0.647386
      outer loop
         vertex -0.177509 -0.04 0.0976584
         vertex -0.177606 -0.04 0.0975562
         vertex -0.177606 -0.0721 0.0975562
      endloop
   endfacet
   facet normal -0.827689 0 0.561187
      outer loop
         vertex -0.177424 -0.04 0.0977705
         vertex -0.177509 -0.04 0.0976584
         vertex -0.177509 -0.0721 0.0976584
      endloop
   endfacet
   facet normal -0.883512 0 0.468408
      outer loop
         vertex -0.177351 -0.04 0.0978911
         vertex -0.177424 -0.04 0.0977705
         vertex -0.177424 -0.0721 0.0977705
      endloop
   endfacet
   facet normal -0.928977 0 0.370138
      outer loop
         vertex -0.177292 -0.04 0.0980188
         vertex -0.177351 -0.04 0.0978911
         vertex -0.177351 -0.0721 0.0978911
      endloop
   endfacet
   facet normal -0.96355 0 0.267528
      outer loop
         vertex -0.177247 -0.04 0.0981522
         vertex -0.177292 -0.04 0.0980188
         vertex -0.177292 -0.0721 0.0980188
      endloop
   endfacet
   facet normal -0.986827 0 0.161782
      outer loop
         vertex -0.177217 -0.04 0.0982897
         vertex -0.177247 -0.04 0.0981522
         vertex -0.177247 -0.0721 0.0981522
      endloop
   endfacet
   facet normal -0.998533 0 0.0541389
      outer loop
         vertex -0.177202 -0.04 0.0984296
         vertex -0.177217 -0.04 0.0982897
         vertex -0.177217 -0.0721 0.0982897
      endloop
   endfacet
   facet normal -0.998533 0 -0.0541389
      outer loop
         vertex -0.177202 -0.04 0.0985704
         vertex -0.177202 -0.04 0.0984296
         vertex -0.177202 -0.0721 0.0984296
      endloop
   endfacet
   facet normal -0.986827 0 -0.161782
      outer loop
         vertex -0.177217 -0.04 0.0987103
         vertex -0.177202 -0.04 0.0985704
         vertex -0.177202 -0.0721 0.0985704
      endloop
   endfacet
   facet normal -0.96355 0 -0.267528
      outer loop
         vertex -0.177247 -0.04 0.0988478
         vertex -0.177217 -0.04 0.0987103
         vertex -0.177217 -0.0721 0.0987103
      endloop
   endfacet
   facet normal -0.928977 0 -0.370138
      outer loop
         vertex -0.177292 -0.04 0.0989812
         vertex -0.177247 -0.04 0.0988478
         vertex -0.177247 -0.0721 0.0988478
      endloop
   endfacet
   facet normal -0.883512 0 -0.468408
      outer loop
         vertex -0.177351 -0.04 0.0991089
         vertex -0.177292 -0.04 0.0989812
         vertex -0.177292 -0.0721 0.0989812
      endloop
   endfacet
   facet normal -0.827689 0 -0.561187
      outer loop
         vertex -0.177424 -0.04 0.0992295
         vertex -0.177351 -0.04 0.0991089
         vertex -0.177351 -0.0721 0.0991089
      endloop
   endfacet
   facet normal -0.762162 0 -0.647386
      outer loop
         vertex -0.177509 -0.04 0.0993416
         vertex -0.177424 -0.04 0.0992295
         vertex -0.177424 -0.0721 0.0992295
      endloop
   endfacet
   facet normal -0.687699 0 -0.725995
      outer loop
         vertex -0.177606 -0.04 0.0994438
         vertex -0.177509 -0.04 0.0993416
         vertex -0.177509 -0.0721 0.0993416
      endloop
   endfacet
   facet normal -0.605174 0 -0.796093
      outer loop
         vertex -0.177713 -0.04 0.0995349
         vertex -0.177606 -0.04 0.0994438
         vertex -0.177606 -0.0721 0.0994438
      endloop
   endfacet
   facet normal -0.515554 0 -0.856857
      outer loop
         vertex -0.17783 -0.04 0.0996139
         vertex -0.177713 -0.04 0.0995349
         vertex -0.177713 -0.0721 0.0995349
      endloop
   endfacet
   facet normal -0.419889 0 -0.907575
      outer loop
         vertex -0.177954 -0.04 0.0996798
         vertex -0.17783 -0.04 0.0996139
         vertex -0.17783 -0.0721 0.0996139
      endloop
   endfacet
   facet normal -0.319302 0 -0.947653
      outer loop
         vertex -0.178085 -0.04 0.0997319
         vertex -0.177954 -0.04 0.0996798
         vertex -0.177954 -0.0721 0.0996798
      endloop
   endfacet
   facet normal -0.21497 0 -0.976621
      outer loop
         vertex -0.178221 -0.04 0.0997696
         vertex -0.178085 -0.04 0.0997319
         vertex -0.178085 -0.0721 0.0997319
      endloop
   endfacet
   facet normal -0.108119 0 -0.994138
      outer loop
         vertex -0.178359 -0.04 0.0997924
         vertex -0.178221 -0.04 0.0997696
         vertex -0.178221 -0.0721 0.0997696
      endloop
   endfacet
   facet normal 2.44929e-16 0 -1
      outer loop
         vertex -0.1785 -0.04 0.0998
         vertex -0.178359 -0.04 0.0997924
         vertex -0.178359 -0.0721 0.0997924
      endloop
   endfacet
   facet normal -0.108119 0 -0.994138
      outer loop
         vertex -0.178359 -0.0721 0.0997924
         vertex -0.1785 -0.0721 0.0998
         vertex -0.1785 -0.04 0.0998
      endloop
   endfacet
   facet normal -0.21497 0 -0.976621
      outer loop
         vertex -0.178221 -0.0721 0.0997696
         vertex -0.178359 -0.0721 0.0997924
         vertex -0.178359 -0.04 0.0997924
      endloop
   endfacet
   facet normal -0.319302 0 -0.947653
      outer loop
         vertex -0.178085 -0.0721 0.0997319
         vertex -0.178221 -0.0721 0.0997696
         vertex -0.178221 -0.04 0.0997696
      endloop
   endfacet
   facet normal -0.419889 0 -0.907575
      outer loop
         vertex -0.177954 -0.0721 0.0996798
         vertex -0.178085 -0.0721 0.0997319
         vertex -0.178085 -0.04 0.0997319
      endloop
   endfacet
   facet normal -0.515554 0 -0.856857
      outer loop
         vertex -0.17783 -0.0721 0.0996139
         vertex -0.177954 -0.0721 0.0996798
         vertex -0.177954 -0.04 0.0996798
      endloop
   endfacet
   facet normal -0.605174 0 -0.796093
      outer loop
         vertex -0.177713 -0.0721 0.0995349
         vertex -0.17783 -0.0721 0.0996139
         vertex -0.17783 -0.04 0.0996139
      endloop
   endfacet
   facet normal -0.687699 0 -0.725995
      outer loop
         vertex -0.177606 -0.0721 0.0994438
         vertex -0.177713 -0.0721 0.0995349
         vertex -0.177713 -0.04 0.0995349
      endloop
   endfacet
   facet normal -0.762162 0 -0.647386
      outer loop
         vertex -0.177509 -0.0721 0.0993416
         vertex -0.177606 -0.0721 0.0994438
         vertex -0.177606 -0.04 0.0994438
      endloop
   endfacet
   facet normal -0.827689 0 -0.561187
      outer loop
         vertex -0.177424 -0.0721 0.0992295
         vertex -0.177509 -0.0721 0.0993416
         vertex -0.177509 -0.04 0.0993416
      endloop
   endfacet
   facet normal -0.883512 0 -0.468408
      outer loop
         vertex -0.177351 -0.0721 0.0991089
         vertex -0.177424 -0.0721 0.0992295
         vertex -0.177424 -0.04 0.0992295
      endloop
   endfacet
   facet normal -0.928977 0 -0.370138
      outer loop
         vertex -0.177292 -0.0721 0.0989812
         vertex -0.177351 -0.0721 0.0991089
         vertex -0.177351 -0.04 0.0991089
      endloop
   endfacet
   facet normal -0.96355 0 -0.267528
      outer loop
         vertex -0.177247 -0.0721 0.0988478
         vertex -0.177292 -0.0721 0.0989812
         vertex -0.177292 -0.04 0.0989812
      endloop
   endfacet
   facet normal -0.986827 0 -0.161782
      outer loop
         vertex -0.177217 -0.0721 0.0987103
         vertex -0.177247 -0.0721 0.0988478
         vertex -0.177247 -0.04 0.0988478
      endloop
   endfacet
   facet normal -0.998533 0 -0.0541389
      outer loop
         vertex -0.177202 -0.0721 0.0985704
         vertex -0.177217 -0.0721 0.0987103
         vertex -0.177217 -0.04 0.0987103
      endloop
   endfacet
   facet normal -0.998533 0 0.0541389
      outer loop
         vertex -0.177202 -0.0721 0.0984296
         vertex -0.177202 -0.0721 0.0985704
         vertex -0.177202 -0.04 0.0985704
      endloop
   endfacet
   facet normal -0.986827 0 0.161782
      outer loop
         vertex -0.177217 -0.0721 0.0982897
         vertex -0.177202 -0.0721 0.0984296
         vertex -0.177202 -0.04 0.0984296
      endloop
   endfacet
   facet normal -0.96355 0 0.267528
      outer loop
         vertex -0.177247 -0.0721 0.0981522
         vertex -0.177217 -0.0721 0.0982897
         vertex -0.177217 -0.04 0.0982897
      endloop
   endfacet
   facet normal -0.928977 0 0.370138
      outer loop
         vertex -0.177292 -0.0721 0.0980188
         vertex -0.177247 -0.0721 0.0981522
         vertex -0.177247 -0.04 0.0981522
      endloop
   endfacet
   facet normal -0.883512 0 0.468408
      outer loop
         vertex -0.177351 -0.0721 0.0978911
         vertex -0.177292 -0.0721 0.0980188
         vertex -0.177292 -0.04 0.0980188
      endloop
   endfacet
   facet normal -0.827689 0 0.561187
      outer loop
         vertex -0.177424 -0.0721 0.0977705
         vertex -0.177351 -0.0721 0.0978911
         vertex -0.177351 -0.04 0.0978911
      endloop
   endfacet
   facet normal -0.762162 0 0.647386
      outer loop
         vertex -0.177509 -0.0721 0.0976584
         vertex -0.177424 -0.0721 0.0977705
         vertex -0.177424 -0.04 0.0977705
      endloop
   endfacet
   facet normal -0.687699 0 0.725995
      outer loop
         vertex -0.177606 -0.0721 0.0975562
         vertex -0.177509 -0.0721 0.0976584
         vertex -0.177509 -0.04 0.0976584
      endloop
   endfacet
   facet normal -0.605174 0 0.796093
      outer loop
         vertex -0.177713 -0.0721 0.0974651
         vertex -0.177606 -0.0721 0.0975562
         vertex -0.177606 -0.04 0.0975562
      endloop
   endfacet
   facet normal -0.515554 0 0.856857
      outer loop
         vertex -0.17783 -0.0721 0.0973861
         vertex -0.177713 -0.0721 0.0974651
         vertex -0.177713 -0.04 0.0974651
      endloop
   endfacet
   facet normal -0.419889 0 0.907575
      outer loop
         vertex -0.177954 -0.0721 0.0973202
         vertex -0.17783 -0.0721 0.0973861
         vertex -0.17783 -0.04 0.0973861
      endloop
   endfacet
   facet normal -0.319302 0 0.947653
      outer loop
         vertex -0.178085 -0.0721 0.0972681
         vertex -0.177954 -0.0721 0.0973202
         vertex -0.177954 -0.04 0.0973202
      endloop
   endfacet
   facet normal -0.21497 0 0.976621
      outer loop
         vertex -0.178221 -0.0721 0.0972304
         vertex -0.178085 -0.0721 0.0972681
         vertex -0.178085 -0.04 0.0972681
      endloop
   endfacet
   facet normal -0.108119 0 0.994138
      outer loop
         vertex -0.178359 -0.0721 0.0972076
         vertex -0.178221 -0.0721 0.0972304
         vertex -0.178221 -0.04 0.0972304
      endloop
   endfacet
   facet normal -1.22465e-16 0 1
      outer loop
         vertex -0.1785 -0.0721 0.0972
         vertex -0.178359 -0.0721 0.0972076
         vertex -0.178359 -0.04 0.0972076
      endloop
   endfacet
   facet normal 0.108119 0 0.994138
      outer loop
         vertex -0.178641 -0.0721 0.0972076
         vertex -0.1785 -0.0721 0.0972
         vertex -0.1785 -0.04 0.0972
      endloop
   endfacet
   facet normal 0.21497 0 0.976621
      outer loop
         vertex -0.178779 -0.0721 0.0972304
         vertex -0.178641 -0.0721 0.0972076
         vertex -0.178641 -0.04 0.0972076
      endloop
   endfacet
   facet normal 0.319302 0 0.947653
      outer loop
         vertex -0.178915 -0.0721 0.0972681
         vertex -0.178779 -0.0721 0.0972304
         vertex -0.178779 -0.04 0.0972304
      endloop
   endfacet
   facet normal 0.419889 0 0.907575
      outer loop
         vertex -0.179046 -0.0721 0.0973202
         vertex -0.178915 -0.0721 0.0972681
         vertex -0.178915 -0.04 0.0972681
      endloop
   endfacet
   facet normal 0.515554 0 0.856857
      outer loop
         vertex -0.17917 -0.0721 0.0973861
         vertex -0.179046 -0.0721 0.0973202
         vertex -0.179046 -0.04 0.0973202
      endloop
   endfacet
   facet normal 0.605174 0 0.796093
      outer loop
         vertex -0.179287 -0.0721 0.0974651
         vertex -0.17917 -0.0721 0.0973861
         vertex -0.17917 -0.04 0.0973861
      endloop
   endfacet
   facet normal 0.687699 0 0.725995
      outer loop
         vertex -0.179394 -0.0721 0.0975562
         vertex -0.179287 -0.0721 0.0974651
         vertex -0.179287 -0.04 0.0974651
      endloop
   endfacet
   facet normal 0.762162 0 0.647386
      outer loop
         vertex -0.179491 -0.0721 0.0976584
         vertex -0.179394 -0.0721 0.0975562
         vertex -0.179394 -0.04 0.0975562
      endloop
   endfacet
   facet normal 0.827689 0 0.561187
      outer loop
         vertex -0.179576 -0.0721 0.0977705
         vertex -0.179491 -0.0721 0.0976584
         vertex -0.179491 -0.04 0.0976584
      endloop
   endfacet
   facet normal 0.883512 0 0.468408
      outer loop
         vertex -0.179649 -0.0721 0.0978911
         vertex -0.179576 -0.0721 0.0977705
         vertex -0.179576 -0.04 0.0977705
      endloop
   endfacet
   facet normal 0.928977 0 0.370138
      outer loop
         vertex -0.179708 -0.0721 0.0980188
         vertex -0.179649 -0.0721 0.0978911
         vertex -0.179649 -0.04 0.0978911
      endloop
   endfacet
   facet normal 0.96355 0 0.267528
      outer loop
         vertex -0.179753 -0.0721 0.0981522
         vertex -0.179708 -0.0721 0.0980188
         vertex -0.179708 -0.04 0.0980188
      endloop
   endfacet
   facet normal 0.986827 0 0.161782
      outer loop
         vertex -0.179783 -0.0721 0.0982897
         vertex -0.179753 -0.0721 0.0981522
         vertex -0.179753 -0.04 0.0981522
      endloop
   endfacet
   facet normal 0.998533 0 0.0541389
      outer loop
         vertex -0.179798 -0.0721 0.0984296
         vertex -0.179783 -0.0721 0.0982897
         vertex -0.179783 -0.04 0.0982897
      endloop
   endfacet
   facet normal 0.998533 0 -0.0541389
      outer loop
         vertex -0.179798 -0.0721 0.0985704
         vertex -0.179798 -0.0721 0.0984296
         vertex -0.179798 -0.04 0.0984296
      endloop
   endfacet
   facet normal 0.986827 0 -0.161782
      outer loop
         vertex -0.179783 -0.0721 0.0987103
         vertex -0.179798 -0.0721 0.0985704
         vertex -0.179798 -0.04 0.0985704
      endloop
   endfacet
   facet normal 0.96355 0 -0.267528
      outer loop
         vertex -0.179753 -0.0721 0.0988478
         vertex -0.179783 -0.0721 0.0987103
         vertex -0.179783 -0.04 0.0987103
      endloop
   endfacet
   facet normal 0.928977 0 -0.370138
      outer loop
         vertex -0.179708 -0.0721 0.0989812
         vertex -0.179753 -0.0721 0.0988478
         vertex -0.179753 -0.04 0.0988478
      endloop
   endfacet
   facet normal 0.883512 0 -0.468408
      outer loop
         vertex -0.179649 -0.0721 0.0991089
         vertex -0.179708 -0.0721 0.0989812
         vertex -0.179708 -0.04 0.0989812
      endloop
   endfacet
   facet normal 0.827689 0 -0.561187
      outer loop
         vertex -0.179576 -0.0721 0.0992295
         vertex -0.179649 -0.0721 0.0991089
         vertex -0.179649 -0.04 0.0991089
      endloop
   endfacet
   facet normal 0.762162 0 -0.647386
      outer loop
         vertex -0.179491 -0.0721 0.0993416
         vertex -0.179576 -0.0721 0.0992295
         vertex -0.179576 -0.04 0.0992295
      endloop
   endfacet
   facet normal 0.687699 0 -0.725995
      outer loop
         vertex -0.179394 -0.0721 0.0994438
         vertex -0.179491 -0.0721 0.0993416
         vertex -0.179491 -0.04 0.0993416
      endloop
   endfacet
   facet normal 0.605174 0 -0.796093
      outer loop
         vertex -0.179287 -0.0721 0.0995349
         vertex -0.179394 -0.0721 0.0994438
         vertex -0.179394 -0.04 0.0994438
      endloop
   endfacet
   facet normal 0.515554 0 -0.856857
      outer loop
         vertex -0.17917 -0.0721 0.0996139
         vertex -0.179287 -0.0721 0.0995349
         vertex -0.179287 -0.04 0.0995349
      endloop
   endfacet
   facet normal 0.419889 0 -0.907575
      outer loop
         vertex -0.179046 -0.0721 0.0996798
         vertex -0.17917 -0.0721 0.0996139
         vertex -0.17917 -0.04 0.0996139
      endloop
   endfacet
   facet normal 0.319302 0 -0.947653
      outer loop
         vertex -0.178915 -0.0721 0.0997319
         vertex -0.179046 -0.0721 0.0996798
         vertex -0.179046 -0.04 0.0996798
      endloop
   endfacet
   facet normal 0.21497 0 -0.976621
      outer loop
         vertex -0.178779 -0.0721 0.0997696
         vertex -0.178915 -0.0721 0.0997319
         vertex -0.178915 -0.04 0.0997319
      endloop
   endfacet
   facet normal 0.108119 0 -0.994138
      outer loop
         vertex -0.178641 -0.0721 0.0997924
         vertex -0.178779 -0.0721 0.0997696
         vertex -0.178779 -0.04 0.0997696
      endloop
   endfacet
   facet normal 2.44929e-16 0 -1
      outer loop
         vertex -0.1785 -0.0721 0.0998
         vertex -0.178641 -0.0721 0.0997924
         vertex -0.178641 -0.04 0.0997924
      endloop
   endfacet
   facet normal 0 -1 0
      outer loop
         vertex -0.176479 -0.0721 0.102
         vertex -0.177954 -0.0721 0.0996798
         vertex -0.17783 -0.0721 0.0996139
      endloop
   endfacet
   facet normal 0 -1 0
      outer loop
         vertex -0.176479 -0.0721 0.095
         vertex -0.177713 -0.0721 0.0974651
         vertex -0.17783 -0.0721 0.0973861
      endloop
   endfacet
   facet normal 0 -1 0
      outer loop
         vertex -0.174459 -0.0721 0.0985
         vertex -0.177202 -0.0721 0.0984296
         vertex -0.177217 -0.0721 0.0982897
      endloop
   endfacet
   facet normal 0 -1 0
      outer loop
         vertex -0.176479 -0.0721 0.102
         vertex -0.178085 -0.0721 0.0997319
         vertex -0.177954 -0.0721 0.0996798
      endloop
   endfacet
   facet normal 0 -1 0
      outer loop
         vertex -0.180521 -0.0721 0.102
         vertex -0.179287 -0.0721 0.0995349
         vertex -0.17917 -0.0721 0.0996139
      endloop
   endfacet
   facet normal 0 -1 0
      outer loop
         vertex -0.17783 -0.0721 0.0973861
         vertex -0.177954 -0.0721 0.0973202
         vertex -0.176479 -0.0721 0.095
      endloop
   endfacet
   facet normal 0 -1 0
      outer loop
         vertex -0.177217 -0.0721 0.0982897
         vertex -0.177247 -0.0721 0.0981522
         vertex -0.174459 -0.0721 0.0985
      endloop
   endfacet
   facet normal 0 -1 0
      outer loop
         vertex -0.174459 -0.0721 0.0985
         vertex -0.177247 -0.0721 0.0988478
         vertex -0.177217 -0.0721 0.0987103
      endloop
   endfacet
   facet normal 0 -1 0
      outer loop
         vertex -0.17783 -0.0721 0.0996139
         vertex -0.177713 -0.0721 0.0995349
         vertex -0.176479 -0.0721 0.102
      endloop
   endfacet
   facet normal 0 -1 0
      outer loop
         vertex -0.176479 -0.0721 0.102
         vertex -0.178359 -0.0721 0.0997924
         vertex -0.178221 -0.0721 0.0997696
      endloop
   endfacet
   facet normal 0 -1 0
      outer loop
         vertex -0.180521 -0.0721 0.102
         vertex -0.178641 -0.0721 0.0997924
         vertex -0.1785 -0.0721 0.0998
      endloop
   endfacet
   facet normal 0 -1 0
      outer loop
         vertex -0.17917 -0.0721 0.0996139
         vertex -0.179046 -0.0721 0.0996798
         vertex -0.180521 -0.0721 0.102
      endloop
   endfacet
   facet normal 0 -1 0
      outer loop
         vertex -0.176479 -0.0721 0.095
         vertex -0.178085 -0.0721 0.0972681
         vertex -0.178221 -0.0721 0.0972304
      endloop
   endfacet
   facet normal 0 -1 0
      outer loop
         vertex -0.176479 -0.0721 0.095
         vertex -0.177606 -0.0721 0.0975562
         vertex -0.177713 -0.0721 0.0974651
      endloop
   endfacet
   facet normal 0 -1 0
      outer loop
         vertex -0.176479 -0.0721 0.095
         vertex -0.174459 -0.0721 0.0985
         vertex -0.177351 -0.0721 0.0978911
      endloop
   endfacet
   facet normal 0 -1 0
      outer loop
         vertex -0.174459 -0.0721 0.0985
         vertex -0.177202 -0.0721 0.0985704
         vertex -0.177202 -0.0721 0.0984296
      endloop
   endfacet
   facet normal 0 -1 0
      outer loop
         vertex -0.174459 -0.0721 0.0985
         vertex -0.177292 -0.0721 0.0989812
         vertex -0.177247 -0.0721 0.0988478
      endloop
   endfacet
   facet normal 0 -1 0
      outer loop
         vertex -0.178221 -0.0721 0.0997696
         vertex -0.178085 -0.0721 0.0997319
         vertex -0.176479 -0.0721 0.102
      endloop
   endfacet
   facet normal 0 -1 0
      outer loop
         vertex -0.1785 -0.0721 0.0998
         vertex -0.176479 -0.0721 0.102
         vertex -0.180521 -0.0721 0.102
      endloop
   endfacet
   facet normal 0 -1 0
      outer loop
         vertex -0.180521 -0.0721 0.102
         vertex -0.178915 -0.0721 0.0997319
         vertex -0.178779 -0.0721 0.0997696
      endloop
   endfacet
   facet normal 0 -1 0
      outer loop
         vertex -0.180521 -0.0721 0.102
         vertex -0.179394 -0.0721 0.0994438
         vertex -0.179287 -0.0721 0.0995349
      endloop
   endfacet
   facet normal 0 -1 0
      outer loop
         vertex -0.182541 -0.0721 0.0985
         vertex -0.179798 -0.0721 0.0985704
         vertex -0.179783 -0.0721 0.0987103
      endloop
   endfacet
   facet normal 0 -1 0
      outer loop
         vertex -0.176479 -0.0721 0.095
         vertex -0.178359 -0.0721 0.0972076
         vertex -0.1785 -0.0721 0.0972
      endloop
   endfacet
   facet normal 0 -1 0
      outer loop
         vertex -0.177954 -0.0721 0.0973202
         vertex -0.178085 -0.0721 0.0972681
         vertex -0.176479 -0.0721 0.095
      endloop
   endfacet
   facet normal 0 -1 0
      outer loop
         vertex -0.174459 -0.0721 0.0985
         vertex -0.177292 -0.0721 0.0980188
         vertex -0.177351 -0.0721 0.0978911
      endloop
   endfacet
   facet normal 0 -1 0
      outer loop
         vertex -0.177217 -0.0721 0.0987103
         vertex -0.177202 -0.0721 0.0985704
         vertex -0.174459 -0.0721 0.0985
      endloop
   endfacet
   facet normal 0 -1 0
      outer loop
         vertex -0.176479 -0.0721 0.102
         vertex -0.177424 -0.0721 0.0992295
         vertex -0.177351 -0.0721 0.0991089
      endloop
   endfacet
   facet normal 0 -1 0
      outer loop
         vertex -0.1785 -0.0721 0.0998
         vertex -0.178359 -0.0721 0.0997924
         vertex -0.176479 -0.0721 0.102
      endloop
   endfacet
   facet normal 0 -1 0
      outer loop
         vertex -0.179046 -0.0721 0.0996798
         vertex -0.178915 -0.0721 0.0997319
         vertex -0.180521 -0.0721 0.102
      endloop
   endfacet
   facet normal 0 -1 0
      outer loop
         vertex -0.179783 -0.0721 0.0987103
         vertex -0.179753 -0.0721 0.0988478
         vertex -0.182541 -0.0721 0.0985
      endloop
   endfacet
   facet normal 0 -1 0
      outer loop
         vertex -0.182541 -0.0721 0.0985
         vertex -0.179753 -0.0721 0.0981522
         vertex -0.179783 -0.0721 0.0982897
      endloop
   endfacet
   facet normal 0 -1 0
      outer loop
         vertex -0.180521 -0.0721 0.095
         vertex -0.179046 -0.0721 0.0973202
         vertex -0.17917 -0.0721 0.0973861
      endloop
   endfacet
   facet normal 0 -1 0
      outer loop
         vertex -0.178221 -0.0721 0.0972304
         vertex -0.178359 -0.0721 0.0972076
         vertex -0.176479 -0.0721 0.095
      endloop
   endfacet
   facet normal 0 -1 0
      outer loop
         vertex -0.176479 -0.0721 0.095
         vertex -0.177424 -0.0721 0.0977705
         vertex -0.177509 -0.0721 0.0976584
      endloop
   endfacet
   facet normal 0 -1 0
      outer loop
         vertex -0.177247 -0.0721 0.0981522
         vertex -0.177292 -0.0721 0.0980188
         vertex -0.174459 -0.0721 0.0985
      endloop
   endfacet
   facet normal 0 -1 0
      outer loop
         vertex -0.177351 -0.0721 0.0991089
         vertex -0.174459 -0.0721 0.0985
         vertex -0.176479 -0.0721 0.102
      endloop
   endfacet
   facet normal 0 -1 0
      outer loop
         vertex -0.176479 -0.0721 0.102
         vertex -0.177606 -0.0721 0.0994438
         vertex -0.177509 -0.0721 0.0993416
      endloop
   endfacet
   facet normal 0 -1 0
      outer loop
         vertex -0.178779 -0.0721 0.0997696
         vertex -0.178641 -0.0721 0.0997924
         vertex -0.180521 -0.0721 0.102
      endloop
   endfacet
   facet normal 0 -1 0
      outer loop
         vertex -0.180521 -0.0721 0.102
         vertex -0.182541 -0.0721 0.0985
         vertex -0.179649 -0.0721 0.0991089
      endloop
   endfacet
   facet normal 0 -1 0
      outer loop
         vertex -0.182541 -0.0721 0.0985
         vertex -0.179798 -0.0721 0.0984296
         vertex -0.179798 -0.0721 0.0985704
      endloop
   endfacet
   facet normal 0 -1 0
      outer loop
         vertex -0.182541 -0.0721 0.0985
         vertex -0.179708 -0.0721 0.0980188
         vertex -0.179753 -0.0721 0.0981522
      endloop
   endfacet
   facet normal 0 -1 0
      outer loop
         vertex -0.180521 -0.0721 0.095
         vertex -0.178915 -0.0721 0.0972681
         vertex -0.179046 -0.0721 0.0973202
      endloop
   endfacet
   facet normal 0 -1 0
      outer loop
         vertex -0.177509 -0.0721 0.0976584
         vertex -0.177606 -0.0721 0.0975562
         vertex -0.176479 -0.0721 0.095
      endloop
   endfacet
   facet normal 0 -1 0
      outer loop
         vertex -0.177351 -0.0721 0.0991089
         vertex -0.177292 -0.0721 0.0989812
         vertex -0.174459 -0.0721 0.0985
      endloop
   endfacet
   facet normal 0 -1 0
      outer loop
         vertex -0.177713 -0.0721 0.0995349
         vertex -0.177606 -0.0721 0.0994438
         vertex -0.176479 -0.0721 0.102
      endloop
   endfacet
   facet normal 0 -1 0
      outer loop
         vertex -0.180521 -0.0721 0.102
         vertex -0.179576 -0.0721 0.0992295
         vertex -0.179491 -0.0721 0.0993416
      endloop
   endfacet
   facet normal 0 -1 0
      outer loop
         vertex -0.182541 -0.0721 0.0985
         vertex -0.179708 -0.0721 0.0989812
         vertex -0.179649 -0.0721 0.0991089
      endloop
   endfacet
   facet normal 0 -1 0
      outer loop
         vertex -0.179783 -0.0721 0.0982897
         vertex -0.179798 -0.0721 0.0984296
         vertex -0.182541 -0.0721 0.0985
      endloop
   endfacet
   facet normal 0 -1 0
      outer loop
         vertex -0.180521 -0.0721 0.095
         vertex -0.179576 -0.0721 0.0977705
         vertex -0.179649 -0.0721 0.0978911
      endloop
   endfacet
   facet normal 0 -1 0
      outer loop
         vertex -0.17917 -0.0721 0.0973861
         vertex -0.179287 -0.0721 0.0974651
         vertex -0.180521 -0.0721 0.095
      endloop
   endfacet
   facet normal 0 -1 0
      outer loop
         vertex -0.180521 -0.0721 0.095
         vertex -0.178641 -0.0721 0.0972076
         vertex -0.178779 -0.0721 0.0972304
      endloop
   endfacet
   facet normal 0 -1 0
      outer loop
         vertex -0.177351 -0.0721 0.0978911
         vertex -0.177424 -0.0721 0.0977705
         vertex -0.176479 -0.0721 0.095
      endloop
   endfacet
   facet normal 0 -1 0
      outer loop
         vertex -0.179491 -0.0721 0.0993416
         vertex -0.179394 -0.0721 0.0994438
         vertex -0.180521 -0.0721 0.102
      endloop
   endfacet
   facet normal 0 -1 0
      outer loop
         vertex -0.179753 -0.0721 0.0988478
         vertex -0.179708 -0.0721 0.0989812
         vertex -0.182541 -0.0721 0.0985
      endloop
   endfacet
   facet normal 0 -1 0
      outer loop
         vertex -0.179649 -0.0721 0.0978911
         vertex -0.182541 -0.0721 0.0985
         vertex -0.180521 -0.0721 0.095
      endloop
   endfacet
   facet normal 0 -1 0
      outer loop
         vertex -0.178779 -0.0721 0.0972304
         vertex -0.178915 -0.0721 0.0972681
         vertex -0.180521 -0.0721 0.095
      endloop
   endfacet
   facet normal 0 -1 0
      outer loop
         vertex -0.177509 -0.0721 0.0993416
         vertex -0.177424 -0.0721 0.0992295
         vertex -0.176479 -0.0721 0.102
      endloop
   endfacet
   facet normal 0 -1 0
      outer loop
         vertex -0.179649 -0.0721 0.0978911
         vertex -0.179708 -0.0721 0.0980188
         vertex -0.182541 -0.0721 0.0985
      endloop
   endfacet
   facet normal 0 -1 0
      outer loop
         vertex -0.180521 -0.0721 0.095
         vertex -0.179394 -0.0721 0.0975562
         vertex -0.179491 -0.0721 0.0976584
      endloop
   endfacet
   facet normal 0 -1 0
      outer loop
         vertex -0.180521 -0.0721 0.095
         vertex -0.1785 -0.0721 0.0972
         vertex -0.178641 -0.0721 0.0972076
      endloop
   endfacet
   facet normal 0 -1 0
      outer loop
         vertex -0.179649 -0.0721 0.0991089
         vertex -0.179576 -0.0721 0.0992295
         vertex -0.180521 -0.0721 0.102
      endloop
   endfacet
   facet normal 0 -1 0
      outer loop
         vertex -0.179287 -0.0721 0.0974651
         vertex -0.179394 -0.0721 0.0975562
         vertex -0.180521 -0.0721 0.095
      endloop
   endfacet
   facet normal 0 -1 0
      outer loop
         vertex -0.179491 -0.0721 0.0976584
         vertex -0.179576 -0.0721 0.0977705
         vertex -0.180521 -0.0721 0.095
      endloop
   endfacet
   facet normal 0 -1 0
      outer loop
         vertex -0.1785 -0.0721 0.0972
         vertex -0.180521 -0.0721 0.095
         vertex -0.176479 -0.0721 0.095
      endloop
   endfacet
   facet normal 0 1 0
      outer loop
         vertex -0.176479 -0.04 0.095
         vertex -0.177954 -0.04 0.0973202
         vertex -0.17783 -0.04 0.0973861
      endloop
   endfacet
   facet normal 0 1 0
      outer loop
         vertex -0.176479 -0.04 0.095
         vertex -0.178085 -0.04 0.0972681
         vertex -0.177954 -0.04 0.0973202
      endloop
   endfacet
   facet normal 0 1 0
      outer loop
         vertex -0.180521 -0.04 0.095
         vertex -0.179287 -0.04 0.0974651
         vertex -0.17917 -0.04 0.0973861
      endloop
   endfacet
   facet normal 0 1 0
      outer loop
         vertex -0.17783 -0.04 0.0973861
         vertex -0.177713 -0.04 0.0974651
         vertex -0.176479 -0.04 0.095
      endloop
   endfacet
   facet normal 0 1 0
      outer loop
         vertex -0.176479 -0.04 0.095
         vertex -0.178359 -0.04 0.0972076
         vertex -0.178221 -0.04 0.0972304
      endloop
   endfacet
   facet normal 0 1 0
      outer loop
         vertex -0.176479 -0.04 0.095
         vertex -0.180521 -0.04 0.095
         vertex -0.1785 -0.04 0.0972
      endloop
   endfacet
   facet normal 0 1 0
      outer loop
         vertex -0.17917 -0.04 0.0973861
         vertex -0.179046 -0.04 0.0973202
         vertex -0.180521 -0.04 0.095
      endloop
   endfacet
   facet normal 0 1 0
      outer loop
         vertex -0.182541 -0.04 0.0985
         vertex -0.179798 -0.04 0.0984296
         vertex -0.179783 -0.04 0.0982897
      endloop
   endfacet
   facet normal 0 1 0
      outer loop
         vertex -0.176479 -0.04 0.102
         vertex -0.177713 -0.04 0.0995349
         vertex -0.17783 -0.04 0.0996139
      endloop
   endfacet
   facet normal 0 1 0
      outer loop
         vertex -0.174459 -0.04 0.0985
         vertex -0.177202 -0.04 0.0985704
         vertex -0.177217 -0.04 0.0987103
      endloop
   endfacet
   facet normal 0 1 0
      outer loop
         vertex -0.178221 -0.04 0.0972304
         vertex -0.178085 -0.04 0.0972681
         vertex -0.176479 -0.04 0.095
      endloop
   endfacet
   facet normal 0 1 0
      outer loop
         vertex -0.180521 -0.04 0.095
         vertex -0.178641 -0.04 0.0972076
         vertex -0.1785 -0.04 0.0972
      endloop
   endfacet
   facet normal 0 1 0
      outer loop
         vertex -0.180521 -0.04 0.095
         vertex -0.178915 -0.04 0.0972681
         vertex -0.178779 -0.04 0.0972304
      endloop
   endfacet
   facet normal 0 1 0
      outer loop
         vertex -0.180521 -0.04 0.095
         vertex -0.179394 -0.04 0.0975562
         vertex -0.179287 -0.04 0.0974651
      endloop
   endfacet
   facet normal 0 1 0
      outer loop
         vertex -0.179783 -0.04 0.0982897
         vertex -0.179753 -0.04 0.0981522
         vertex -0.182541 -0.04 0.0985
      endloop
   endfacet
   facet normal 0 1 0
      outer loop
         vertex -0.182541 -0.04 0.0985
         vertex -0.179753 -0.04 0.0988478
         vertex -0.179783 -0.04 0.0987103
      endloop
   endfacet
   facet normal 0 1 0
      outer loop
         vertex -0.180521 -0.04 0.102
         vertex -0.179046 -0.04 0.0996798
         vertex -0.17917 -0.04 0.0996139
      endloop
   endfacet
   facet normal 0 1 0
      outer loop
         vertex -0.17783 -0.04 0.0996139
         vertex -0.177954 -0.04 0.0996798
         vertex -0.176479 -0.04 0.102
      endloop
   endfacet
   facet normal 0 1 0
      outer loop
         vertex -0.177217 -0.04 0.0987103
         vertex -0.177247 -0.04 0.0988478
         vertex -0.174459 -0.04 0.0985
      endloop
   endfacet
   facet normal 0 1 0
      outer loop
         vertex -0.174459 -0.04 0.0985
         vertex -0.177247 -0.04 0.0981522
         vertex -0.177217 -0.04 0.0982897
      endloop
   endfacet
   facet normal 0 1 0
      outer loop
         vertex -0.1785 -0.04 0.0972
         vertex -0.178359 -0.04 0.0972076
         vertex -0.176479 -0.04 0.095
      endloop
   endfacet
   facet normal 0 1 0
      outer loop
         vertex -0.179046 -0.04 0.0973202
         vertex -0.178915 -0.04 0.0972681
         vertex -0.180521 -0.04 0.095
      endloop
   endfacet
   facet normal 0 1 0
      outer loop
         vertex -0.180521 -0.04 0.095
         vertex -0.182541 -0.04 0.0985
         vertex -0.179649 -0.04 0.0978911
      endloop
   endfacet
   facet normal 0 1 0
      outer loop
         vertex -0.182541 -0.04 0.0985
         vertex -0.179798 -0.04 0.0985704
         vertex -0.179798 -0.04 0.0984296
      endloop
   endfacet
   facet normal 0 1 0
      outer loop
         vertex -0.182541 -0.04 0.0985
         vertex -0.179708 -0.04 0.0989812
         vertex -0.179753 -0.04 0.0988478
      endloop
   endfacet
   facet normal 0 1 0
      outer loop
         vertex -0.180521 -0.04 0.102
         vertex -0.178915 -0.04 0.0997319
         vertex -0.179046 -0.04 0.0996798
      endloop
   endfacet
   facet normal 0 1 0
      outer loop
         vertex -0.176479 -0.04 0.102
         vertex -0.178085 -0.04 0.0997319
         vertex -0.178221 -0.04 0.0997696
      endloop
   endfacet
   facet normal 0 1 0
      outer loop
         vertex -0.176479 -0.04 0.102
         vertex -0.177606 -0.04 0.0994438
         vertex -0.177713 -0.04 0.0995349
      endloop
   endfacet
   facet normal 0 1 0
      outer loop
         vertex -0.176479 -0.04 0.102
         vertex -0.174459 -0.04 0.0985
         vertex -0.177351 -0.04 0.0991089
      endloop
   endfacet
   facet normal 0 1 0
      outer loop
         vertex -0.174459 -0.04 0.0985
         vertex -0.177202 -0.04 0.0984296
         vertex -0.177202 -0.04 0.0985704
      endloop
   endfacet
   facet normal 0 1 0
      outer loop
         vertex -0.174459 -0.04 0.0985
         vertex -0.177292 -0.04 0.0980188
         vertex -0.177247 -0.04 0.0981522
      endloop
   endfacet
   facet normal 0 1 0
      outer loop
         vertex -0.176479 -0.04 0.095
         vertex -0.177606 -0.04 0.0975562
         vertex -0.177509 -0.04 0.0976584
      endloop
   endfacet
   facet normal 0 1 0
      outer loop
         vertex -0.178779 -0.04 0.0972304
         vertex -0.178641 -0.04 0.0972076
         vertex -0.180521 -0.04 0.095
      endloop
   endfacet
   facet normal 0 1 0
      outer loop
         vertex -0.182541 -0.04 0.0985
         vertex -0.179708 -0.04 0.0980188
         vertex -0.179649 -0.04 0.0978911
      endloop
   endfacet
   facet normal 0 1 0
      outer loop
         vertex -0.179783 -0.04 0.0987103
         vertex -0.179798 -0.04 0.0985704
         vertex -0.182541 -0.04 0.0985
      endloop
   endfacet
   facet normal 0 1 0
      outer loop
         vertex -0.180521 -0.04 0.102
         vertex -0.179576 -0.04 0.0992295
         vertex -0.179649 -0.04 0.0991089
      endloop
   endfacet
   facet normal 0 1 0
      outer loop
         vertex -0.17917 -0.04 0.0996139
         vertex -0.179287 -0.04 0.0995349
         vertex -0.180521 -0.04 0.102
      endloop
   endfacet
   facet normal 0 1 0
      outer loop
         vertex -0.180521 -0.04 0.102
         vertex -0.178641 -0.04 0.0997924
         vertex -0.178779 -0.04 0.0997696
      endloop
   endfacet
   facet normal 0 1 0
      outer loop
         vertex -0.177954 -0.04 0.0996798
         vertex -0.178085 -0.04 0.0997319
         vertex -0.176479 -0.04 0.102
      endloop
   endfacet
   facet normal 0 1 0
      outer loop
         vertex -0.174459 -0.04 0.0985
         vertex -0.177292 -0.04 0.0989812
         vertex -0.177351 -0.04 0.0991089
      endloop
   endfacet
   facet normal 0 1 0
      outer loop
         vertex -0.177217 -0.04 0.0982897
         vertex -0.177202 -0.04 0.0984296
         vertex -0.174459 -0.04 0.0985
      endloop
   endfacet
   facet normal 0 1 0
      outer loop
         vertex -0.176479 -0.04 0.095
         vertex -0.177424 -0.04 0.0977705
         vertex -0.177351 -0.04 0.0978911
      endloop
   endfacet
   facet normal 0 1 0
      outer loop
         vertex -0.177713 -0.04 0.0974651
         vertex -0.177606 -0.04 0.0975562
         vertex -0.176479 -0.04 0.095
      endloop
   endfacet
   facet normal 0 1 0
      outer loop
         vertex -0.180521 -0.04 0.095
         vertex -0.179576 -0.04 0.0977705
         vertex -0.179491 -0.04 0.0976584
      endloop
   endfacet
   facet normal 0 1 0
      outer loop
         vertex -0.179753 -0.04 0.0981522
         vertex -0.179708 -0.04 0.0980188
         vertex -0.182541 -0.04 0.0985
      endloop
   endfacet
   facet normal 0 1 0
      outer loop
         vertex -0.179649 -0.04 0.0991089
         vertex -0.182541 -0.04 0.0985
         vertex -0.180521 -0.04 0.102
      endloop
   endfacet
   facet normal 0 1 0
      outer loop
         vertex -0.178779 -0.04 0.0997696
         vertex -0.178915 -0.04 0.0997319
         vertex -0.180521 -0.04 0.102
      endloop
   endfacet
   facet normal 0 1 0
      outer loop
         vertex -0.180521 -0.04 0.102
         vertex -0.176479 -0.04 0.102
         vertex -0.1785 -0.04 0.0998
      endloop
   endfacet
   facet normal 0 1 0
      outer loop
         vertex -0.178221 -0.04 0.0997696
         vertex -0.178359 -0.04 0.0997924
         vertex -0.176479 -0.04 0.102
      endloop
   endfacet
   facet normal 0 1 0
      outer loop
         vertex -0.176479 -0.04 0.102
         vertex -0.177424 -0.04 0.0992295
         vertex -0.177509 -0.04 0.0993416
      endloop
   endfacet
   facet normal 0 1 0
      outer loop
         vertex -0.177247 -0.04 0.0988478
         vertex -0.177292 -0.04 0.0989812
         vertex -0.174459 -0.04 0.0985
      endloop
   endfacet
   facet normal 0 1 0
      outer loop
         vertex -0.177351 -0.04 0.0978911
         vertex -0.174459 -0.04 0.0985
         vertex -0.176479 -0.04 0.095
      endloop
   endfacet
   facet normal 0 1 0
      outer loop
         vertex -0.179491 -0.04 0.0976584
         vertex -0.179394 -0.04 0.0975562
         vertex -0.180521 -0.04 0.095
      endloop
   endfacet
   facet normal 0 1 0
      outer loop
         vertex -0.179649 -0.04 0.0991089
         vertex -0.179708 -0.04 0.0989812
         vertex -0.182541 -0.04 0.0985
      endloop
   endfacet
   facet normal 0 1 0
      outer loop
         vertex -0.180521 -0.04 0.102
         vertex -0.179394 -0.04 0.0994438
         vertex -0.179491 -0.04 0.0993416
      endloop
   endfacet
   facet normal 0 1 0
      outer loop
         vertex -0.1785 -0.04 0.0998
         vertex -0.178641 -0.04 0.0997924
         vertex -0.180521 -0.04 0.102
      endloop
   endfacet
   facet normal 0 1 0
      outer loop
         vertex -0.177509 -0.04 0.0993416
         vertex -0.177606 -0.04 0.0994438
         vertex -0.176479 -0.04 0.102
      endloop
   endfacet
   facet normal 0 1 0
      outer loop
         vertex -0.177351 -0.04 0.0978911
         vertex -0.177292 -0.04 0.0980188
         vertex -0.174459 -0.04 0.0985
      endloop
   endfacet
   facet normal 0 1 0
      outer loop
         vertex -0.179649 -0.04 0.0978911
         vertex -0.179576 -0.04 0.0977705
         vertex -0.180521 -0.04 0.095
      endloop
   endfacet
   facet normal 0 1 0
      outer loop
         vertex -0.179287 -0.04 0.0995349
         vertex -0.179394 -0.04 0.0994438
         vertex -0.180521 -0.04 0.102
      endloop
   endfacet
   facet normal 0 1 0
      outer loop
         vertex -0.177351 -0.04 0.0991089
         vertex -0.177424 -0.04 0.0992295
         vertex -0.176479 -0.04 0.102
      endloop
   endfacet
   facet normal 0 1 0
      outer loop
         vertex -0.179491 -0.04 0.0993416
         vertex -0.179576 -0.04 0.0992295
         vertex -0.180521 -0.04 0.102
      endloop
   endfacet
   facet normal 0 1 0
      outer loop
         vertex -0.177509 -0.04 0.0976584
         vertex -0.177424 -0.04 0.0977705
         vertex -0.176479 -0.04 0.095
      endloop
   endfacet
   facet normal 0 1 0
      outer loop
         vertex -0.178359 -0.04 0.0997924
         vertex -0.1785 -0.04 0.0998
         vertex -0.176479 -0.04 0.102
      endloop
   endfacet
   facet normal 0.866025 0 0.5
      outer loop
         vertex -0.174459 -0.0721 0.0985
         vertex -0.174459 -0.04 0.0985
         vertex -0.176479 -0.04 0.102
      endloop
   endfacet
   facet normal 0.866025 0 0.5
      outer loop
         vertex -0.176479 -0.04 0.102
         vertex -0.176479 -0.0721 0.102
         vertex -0.174459 -0.0721 0.0985
      endloop
   endfacet
   facet normal 0 0 1
      outer loop
         vertex -0.176479 -0.0721 0.102
         vertex -0.176479 -0.04 0.102
         vertex -0.180521 -0.04 0.102
      endloop
   endfacet
   facet normal 0 0 1
      outer loop
         vertex -0.180521 -0.04 0.102
         vertex -0.180521 -0.0721 0.102
         vertex -0.176479 -0.0721 0.102
      endloop
   endfacet
   facet normal -0.866025 0 0.5
      outer loop
         vertex -0.180521 -0.0721 0.102
         vertex -0.180521 -0.04 0.102
         vertex -0.182541 -0.04 0.0985
      endloop
   endfacet
   facet normal -0.866025 0 0.5
      outer loop
         vertex -0.182541 -0.04 0.0985
         vertex -0.182541 -0.0721 0.0985
         vertex -0.180521 -0.0721 0.102
      endloop
   endfacet
   facet normal -0.866025 0 -0.5
      outer loop
         vertex -0.182541 -0.0721 0.0985
         vertex -0.182541 -0.04 0.0985
         vertex -0.180521 -0.04 0.095
      endloop
   endfacet
   facet normal -0.866025 0 -0.5
      outer loop
         vertex -0.180521 -0.04 0.095
         vertex -0.180521 -0.0721 0.095
         vertex -0.182541 -0.0721 0.0985
      endloop
   endfacet
   facet normal -3.43386e-15 0 -1
      outer loop
         vertex -0.180521 -0.0721 0.095
         vertex -0.180521 -0.04 0.095
         vertex -0.176479 -0.04 0.095
      endloop
   endfacet
   facet normal -3.43386e-15 0 -1
      outer loop
         vertex -0.176479 -0.04 0.095
         vertex -0.176479 -0.0721 0.095
         vertex -0.180521 -0.0721 0.095
      endloop
   endfacet
   facet normal 0.866025 0 -0.5
      outer loop
         vertex -0.176479 -0.0721 0.095
         vertex -0.176479 -0.04 0.095
         vertex -0.174459 -0.04 0.0985
      endloop
   endfacet
   facet normal 0.866025 0 -0.5
      outer loop
         vertex -0.174459 -0.04 0.0985
         vertex -0.174459 -0.0721 0.0985
         vertex -0.176479 -0.0721 0.095
      endloop
   endfacet
endsolid Link standoff. Units = meters