solid LOGO_SILK_180_I560. STL generated by ONSHAPE BY PTC INC, 1.216. Units = meters
   facet normal -0.021734 0.999764 0
      outer loop
         vertex 0.00279476 0.001127 0
         vertex 0.00275971 0.00112624 0
         vertex 0.00275971 0.00112624 5e-05
      endloop
   endfacet
   facet normal -0.021734 0.999764 0
      outer loop
         vertex 0.00275971 0.00112624 5e-05
         vertex 0.00279476 0.001127 5e-05
         vertex 0.00279476 0.001127 0
      endloop
   endfacet
   facet normal 2.2296e-05 1 0
      outer loop
         vertex 0.00275971 0.00112624 0
         vertex -0.000109728 0.00112706 0
         vertex -0.000109728 0.00112706 5e-05
      endloop
   endfacet
   facet normal 2.2296e-05 1 0
      outer loop
         vertex -0.000109728 0.00112706 5e-05
         vertex 0.00275971 0.00112624 5e-05
         vertex 0.00275971 0.00112624 0
      endloop
   endfacet
   facet normal -1 0 0
      outer loop
         vertex -0.000109728 0.00112706 0
         vertex -0.000109728 -0.000143605 0
         vertex -0.000109728 -0.000143605 5e-05
      endloop
   endfacet
   facet normal -1 0 0
      outer loop
         vertex -0.000109728 -0.000143605 5e-05
         vertex -0.000109728 0.00112706 5e-05
         vertex -0.000109728 0.00112706 0
      endloop
   endfacet
   facet normal 0 0 1
      outer loop
         vertex 0.0141869 -0.000143923 5e-05
         vertex 0.0141869 0.00112674 5e-05
         vertex 0.00279476 0.001127 5e-05
      endloop
   endfacet
   facet normal 0 0 1
      outer loop
         vertex 0.00279476 0.001127 5e-05
         vertex -0.000109728 -0.000143605 5e-05
         vertex 0.0141869 -0.000143923 5e-05
      endloop
   endfacet
   facet normal 0 0 1
      outer loop
         vertex 0.00279476 0.001127 5e-05
         vertex 0.00275971 0.00112624 5e-05
         vertex -0.000109728 -0.000143605 5e-05
      endloop
   endfacet
   facet normal 0 0 1
      outer loop
         vertex 0.00275971 0.00112624 5e-05
         vertex -0.000109728 0.00112706 5e-05
         vertex -0.000109728 -0.000143605 5e-05
      endloop
   endfacet
   facet normal 0 0 -1
      outer loop
         vertex 0.0141869 -0.000143923 0
         vertex -0.000109728 -0.000143605 0
         vertex 0.00279476 0.001127 0
      endloop
   endfacet
   facet normal 0 0 -1
      outer loop
         vertex -0.000109728 -0.000143605 0
         vertex 0.00275971 0.00112624 0
         vertex 0.00279476 0.001127 0
      endloop
   endfacet
   facet normal 0 0 -1
      outer loop
         vertex -0.000109728 -0.000143605 0
         vertex -0.000109728 0.00112706 0
         vertex 0.00275971 0.00112624 0
      endloop
   endfacet
   facet normal 0 0 -1
      outer loop
         vertex 0.00279476 0.001127 0
         vertex 0.0141869 0.00112674 0
         vertex 0.0141869 -0.000143923 0
      endloop
   endfacet
   facet normal -2.2296e-05 -1 0
      outer loop
         vertex -0.000109728 -0.000143605 0
         vertex 0.0141869 -0.000143923 0
         vertex 0.0141869 -0.000143923 5e-05
      endloop
   endfacet
   facet normal -2.2296e-05 -1 0
      outer loop
         vertex 0.0141869 -0.000143923 5e-05
         vertex -0.000109728 -0.000143605 5e-05
         vertex -0.000109728 -0.000143605 0
      endloop
   endfacet
   facet normal 1 0 0
      outer loop
         vertex 0.0141869 -0.000143923 0
         vertex 0.0141869 0.00112674 0
         vertex 0.0141869 0.00112674 5e-05
      endloop
   endfacet
   facet normal 1 0 0
      outer loop
         vertex 0.0141869 0.00112674 5e-05
         vertex 0.0141869 -0.000143923 5e-05
         vertex 0.0141869 -0.000143923 0
      endloop
   endfacet
   facet normal 2.2296e-05 1 0
      outer loop
         vertex 0.0141869 0.00112674 0
         vertex 0.00279476 0.001127 0
         vertex 0.00279476 0.001127 5e-05
      endloop
   endfacet
   facet normal 2.2296e-05 1 0
      outer loop
         vertex 0.00279476 0.001127 5e-05
         vertex 0.0141869 0.00112674 5e-05
         vertex 0.0141869 0.00112674 0
      endloop
   endfacet
endsolid LOGO_SILK_180_I560. Units = meters