solid Magnet. STL generated by ONSHAPE BY PTC INC, 1.216. Units = meters
   facet normal 1.22465e-16 -1.49976e-32 1
      outer loop
         vertex -1.4875e-09 0.02 0.0082
         vertex -0.00298242 0.0196756 0.0082
         vertex -0.00292986 0.0193551 0.0082
      endloop
   endfacet
   facet normal 1.22465e-16 -1.49976e-32 1
      outer loop
         vertex -0.00292986 0.0193551 0.0082
         vertex -0.00284296 0.0190421 0.0082
         vertex -1.4875e-09 0.02 0.0082
      endloop
   endfacet
   facet normal 1.22465e-16 -1.49976e-32 1
      outer loop
         vertex -0.00284296 0.0190421 0.0082
         vertex -0.00272273 0.0187403 0.0082
         vertex -1.4875e-09 0.02 0.0082
      endloop
   endfacet
   facet normal 1.22465e-16 -1.49976e-32 1
      outer loop
         vertex -0.00272273 0.0187403 0.0082
         vertex -0.00257057 0.0184533 0.0082
         vertex -1.4875e-09 0.02 0.0082
      endloop
   endfacet
   facet normal 1.22465e-16 -1.49976e-32 1
      outer loop
         vertex -0.00257057 0.0184533 0.0082
         vertex -0.00238828 0.0181845 0.0082
         vertex -1.4875e-09 0.02 0.0082
      endloop
   endfacet
   facet normal 1.22465e-16 -1.49976e-32 1
      outer loop
         vertex -0.00238828 0.0181845 0.0082
         vertex -0.00217799 0.0179369 0.0082
         vertex -1.4875e-09 0.02 0.0082
      endloop
   endfacet
   facet normal 1.22465e-16 -1.49976e-32 1
      outer loop
         vertex -0.00217799 0.0179369 0.0082
         vertex -0.00194216 0.0177135 0.0082
         vertex -1.4875e-09 0.02 0.0082
      endloop
   endfacet
   facet normal 1.22465e-16 -1.49976e-32 1
      outer loop
         vertex -0.00194216 0.0177135 0.0082
         vertex -0.00168356 0.0175169 0.0082
         vertex -1.4875e-09 0.02 0.0082
      endloop
   endfacet
   facet normal 1.22465e-16 -1.49976e-32 1
      outer loop
         vertex -0.00168356 0.0175169 0.0082
         vertex -0.00140523 0.0173495 0.0082
         vertex -1.4875e-09 0.02 0.0082
      endloop
   endfacet
   facet normal 1.22465e-16 -1.49976e-32 1
      outer loop
         vertex -0.00140523 0.0173495 0.0082
         vertex -0.00111042 0.0172131 0.0082
         vertex -1.4875e-09 0.02 0.0082
      endloop
   endfacet
   facet normal 1.22465e-16 -1.49976e-32 1
      outer loop
         vertex -0.00111042 0.0172131 0.0082
         vertex -0.000802587 0.0171094 0.0082
         vertex -1.4875e-09 0.02 0.0082
      endloop
   endfacet
   facet normal 1.22465e-16 -1.49976e-32 1
      outer loop
         vertex -0.000802587 0.0171094 0.0082
         vertex -0.000485347 0.0170395 0.0082
         vertex -1.4875e-09 0.02 0.0082
      endloop
   endfacet
   facet normal 1.22465e-16 -1.49976e-32 1
      outer loop
         vertex -0.000485347 0.0170395 0.0082
         vertex -0.000162418 0.0170044 0.0082
         vertex -1.4875e-09 0.02 0.0082
      endloop
   endfacet
   facet normal 1.22465e-16 -1.49976e-32 1
      outer loop
         vertex -0.000162418 0.0170044 0.0082
         vertex 0.000162415 0.0170044 0.0082
         vertex -1.4875e-09 0.02 0.0082
      endloop
   endfacet
   facet normal 1.22465e-16 -1.49976e-32 1
      outer loop
         vertex 0.000162415 0.0170044 0.0082
         vertex 0.000485345 0.0170395 0.0082
         vertex -1.4875e-09 0.02 0.0082
      endloop
   endfacet
   facet normal 1.22465e-16 -1.49976e-32 1
      outer loop
         vertex 0.000485345 0.0170395 0.0082
         vertex 0.000802584 0.0171094 0.0082
         vertex -1.4875e-09 0.02 0.0082
      endloop
   endfacet
   facet normal 1.22465e-16 -1.49976e-32 1
      outer loop
         vertex 0.000802584 0.0171094 0.0082
         vertex 0.00111041 0.0172131 0.0082
         vertex -1.4875e-09 0.02 0.0082
      endloop
   endfacet
   facet normal 1.22465e-16 -1.49976e-32 1
      outer loop
         vertex 0.00111041 0.0172131 0.0082
         vertex 0.00140522 0.0173495 0.0082
         vertex -1.4875e-09 0.02 0.0082
      endloop
   endfacet
   facet normal 1.22465e-16 -1.49976e-32 1
      outer loop
         vertex 0.00140522 0.0173495 0.0082
         vertex 0.00168356 0.0175169 0.0082
         vertex -1.4875e-09 0.02 0.0082
      endloop
   endfacet
   facet normal 1.22465e-16 -1.49976e-32 1
      outer loop
         vertex 0.00168356 0.0175169 0.0082
         vertex 0.00194216 0.0177135 0.0082
         vertex -1.4875e-09 0.02 0.0082
      endloop
   endfacet
   facet normal 1.22465e-16 -1.49976e-32 1
      outer loop
         vertex 0.00194216 0.0177135 0.0082
         vertex 0.00217798 0.0179369 0.0082
         vertex -1.4875e-09 0.02 0.0082
      endloop
   endfacet
   facet normal 1.22465e-16 -1.49976e-32 1
      outer loop
         vertex 0.00217798 0.0179369 0.0082
         vertex 0.00238828 0.0181845 0.0082
         vertex -1.4875e-09 0.02 0.0082
      endloop
   endfacet
   facet normal 1.22465e-16 -1.49976e-32 1
      outer loop
         vertex 0.00238828 0.0181845 0.0082
         vertex 0.00257057 0.0184533 0.0082
         vertex -1.4875e-09 0.02 0.0082
      endloop
   endfacet
   facet normal 1.22465e-16 -1.49976e-32 1
      outer loop
         vertex 0.00257057 0.0184533 0.0082
         vertex 0.00272272 0.0187403 0.0082
         vertex -1.4875e-09 0.02 0.0082
      endloop
   endfacet
   facet normal 1.22465e-16 -1.49976e-32 1
      outer loop
         vertex 0.00272272 0.0187403 0.0082
         vertex 0.00284296 0.0190421 0.0082
         vertex -1.4875e-09 0.02 0.0082
      endloop
   endfacet
   facet normal 1.22465e-16 -1.49976e-32 1
      outer loop
         vertex 0.00284296 0.0190421 0.0082
         vertex 0.00292986 0.0193551 0.0082
         vertex -1.4875e-09 0.02 0.0082
      endloop
   endfacet
   facet normal 1.22465e-16 -1.49976e-32 1
      outer loop
         vertex 0.00292986 0.0193551 0.0082
         vertex 0.00298241 0.0196756 0.0082
         vertex -1.4875e-09 0.02 0.0082
      endloop
   endfacet
   facet normal 1.22465e-16 -1.49976e-32 1
      outer loop
         vertex 0.00298241 0.0196756 0.0082
         vertex 0.003 0.02 0.0082
         vertex -1.4875e-09 0.02 0.0082
      endloop
   endfacet
   facet normal 1.22465e-16 -1.49976e-32 1
      outer loop
         vertex 0.003 0.02 0.0082
         vertex 0.00298241 0.0203244 0.0082
         vertex -1.4875e-09 0.02 0.0082
      endloop
   endfacet
   facet normal 1.22465e-16 -1.49976e-32 1
      outer loop
         vertex 0.00298241 0.0203244 0.0082
         vertex 0.00292986 0.0206449 0.0082
         vertex -1.4875e-09 0.02 0.0082
      endloop
   endfacet
   facet normal 1.22465e-16 -1.49976e-32 1
      outer loop
         vertex 0.00292986 0.0206449 0.0082
         vertex 0.00284296 0.0209579 0.0082
         vertex -1.4875e-09 0.02 0.0082
      endloop
   endfacet
   facet normal 1.22465e-16 -1.49976e-32 1
      outer loop
         vertex 0.00284296 0.0209579 0.0082
         vertex 0.00272272 0.0212597 0.0082
         vertex -1.4875e-09 0.02 0.0082
      endloop
   endfacet
   facet normal 1.22465e-16 -1.49976e-32 1
      outer loop
         vertex 0.00272272 0.0212597 0.0082
         vertex 0.00257057 0.0215467 0.0082
         vertex -1.4875e-09 0.02 0.0082
      endloop
   endfacet
   facet normal 1.22465e-16 -1.49976e-32 1
      outer loop
         vertex 0.00257057 0.0215467 0.0082
         vertex 0.00238828 0.0218155 0.0082
         vertex -1.4875e-09 0.02 0.0082
      endloop
   endfacet
   facet normal 1.22465e-16 -1.49976e-32 1
      outer loop
         vertex 0.00238828 0.0218155 0.0082
         vertex 0.00217798 0.0220631 0.0082
         vertex -1.4875e-09 0.02 0.0082
      endloop
   endfacet
   facet normal 1.22465e-16 -1.49976e-32 1
      outer loop
         vertex 0.00217798 0.0220631 0.0082
         vertex 0.00194216 0.0222865 0.0082
         vertex -1.4875e-09 0.02 0.0082
      endloop
   endfacet
   facet normal 1.22465e-16 -1.49976e-32 1
      outer loop
         vertex 0.00194216 0.0222865 0.0082
         vertex 0.00168356 0.0224831 0.0082
         vertex -1.4875e-09 0.02 0.0082
      endloop
   endfacet
   facet normal 1.22465e-16 -1.49976e-32 1
      outer loop
         vertex 0.00168356 0.0224831 0.0082
         vertex 0.00140522 0.0226505 0.0082
         vertex -1.4875e-09 0.02 0.0082
      endloop
   endfacet
   facet normal 1.22465e-16 -1.49976e-32 1
      outer loop
         vertex 0.00140522 0.0226505 0.0082
         vertex 0.00111041 0.0227869 0.0082
         vertex -1.4875e-09 0.02 0.0082
      endloop
   endfacet
   facet normal 1.22465e-16 -1.49976e-32 1
      outer loop
         vertex 0.00111041 0.0227869 0.0082
         vertex 0.000802584 0.0228907 0.0082
         vertex -1.4875e-09 0.02 0.0082
      endloop
   endfacet
   facet normal 1.22465e-16 -1.49976e-32 1
      outer loop
         vertex 0.000802584 0.0228907 0.0082
         vertex 0.000485345 0.0229605 0.0082
         vertex -1.4875e-09 0.02 0.0082
      endloop
   endfacet
   facet normal 1.22465e-16 -1.49976e-32 1
      outer loop
         vertex 0.000485345 0.0229605 0.0082
         vertex 0.000162415 0.0229956 0.0082
         vertex -1.4875e-09 0.02 0.0082
      endloop
   endfacet
   facet normal 1.22465e-16 -1.49976e-32 1
      outer loop
         vertex 0.000162415 0.0229956 0.0082
         vertex -0.000162418 0.0229956 0.0082
         vertex -1.4875e-09 0.02 0.0082
      endloop
   endfacet
   facet normal 1.22465e-16 -1.49976e-32 1
      outer loop
         vertex -0.000162418 0.0229956 0.0082
         vertex -0.000485347 0.0229605 0.0082
         vertex -1.4875e-09 0.02 0.0082
      endloop
   endfacet
   facet normal 1.22465e-16 -1.49976e-32 1
      outer loop
         vertex -0.000485347 0.0229605 0.0082
         vertex -0.000802587 0.0228907 0.0082
         vertex -1.4875e-09 0.02 0.0082
      endloop
   endfacet
   facet normal 1.22465e-16 -1.49976e-32 1
      outer loop
         vertex -0.000802587 0.0228907 0.0082
         vertex -0.00111042 0.0227869 0.0082
         vertex -1.4875e-09 0.02 0.0082
      endloop
   endfacet
   facet normal 1.22465e-16 -1.49976e-32 1
      outer loop
         vertex -0.00111042 0.0227869 0.0082
         vertex -0.00140523 0.0226505 0.0082
         vertex -1.4875e-09 0.02 0.0082
      endloop
   endfacet
   facet normal 1.22465e-16 -1.49976e-32 1
      outer loop
         vertex -0.00140523 0.0226505 0.0082
         vertex -0.00168356 0.0224831 0.0082
         vertex -1.4875e-09 0.02 0.0082
      endloop
   endfacet
   facet normal 1.22465e-16 -1.49976e-32 1
      outer loop
         vertex -0.00168356 0.0224831 0.0082
         vertex -0.00194216 0.0222865 0.0082
         vertex -1.4875e-09 0.02 0.0082
      endloop
   endfacet
   facet normal 1.22465e-16 -1.49976e-32 1
      outer loop
         vertex -0.00194216 0.0222865 0.0082
         vertex -0.00217799 0.0220631 0.0082
         vertex -1.4875e-09 0.02 0.0082
      endloop
   endfacet
   facet normal 1.22465e-16 -1.49976e-32 1
      outer loop
         vertex -0.00217799 0.0220631 0.0082
         vertex -0.00238828 0.0218155 0.0082
         vertex -1.4875e-09 0.02 0.0082
      endloop
   endfacet
   facet normal 1.22465e-16 -1.49976e-32 1
      outer loop
         vertex -0.00238828 0.0218155 0.0082
         vertex -0.00257057 0.0215467 0.0082
         vertex -1.4875e-09 0.02 0.0082
      endloop
   endfacet
   facet normal 1.22465e-16 -1.49976e-32 1
      outer loop
         vertex -0.00257057 0.0215467 0.0082
         vertex -0.00272273 0.0212597 0.0082
         vertex -1.4875e-09 0.02 0.0082
      endloop
   endfacet
   facet normal 1.22465e-16 -1.49976e-32 1
      outer loop
         vertex -0.00272273 0.0212597 0.0082
         vertex -0.00284296 0.0209579 0.0082
         vertex -1.4875e-09 0.02 0.0082
      endloop
   endfacet
   facet normal 1.22465e-16 -1.49976e-32 1
      outer loop
         vertex -0.00284296 0.0209579 0.0082
         vertex -0.00292986 0.0206449 0.0082
         vertex -1.4875e-09 0.02 0.0082
      endloop
   endfacet
   facet normal 1.22465e-16 -1.49976e-32 1
      outer loop
         vertex -0.00292986 0.0206449 0.0082
         vertex -0.00298242 0.0203244 0.0082
         vertex -1.4875e-09 0.02 0.0082
      endloop
   endfacet
   facet normal 1.22465e-16 -1.49976e-32 1
      outer loop
         vertex -0.00298242 0.0203244 0.0082
         vertex -0.003 0.02 0.0082
         vertex -1.4875e-09 0.02 0.0082
      endloop
   endfacet
   facet normal 1.22465e-16 -1.49976e-32 1
      outer loop
         vertex -0.003 0.02 0.0082
         vertex -0.00298242 0.0196756 0.0082
         vertex -1.4875e-09 0.02 0.0082
      endloop
   endfacet
   facet normal 1 -1.22465e-16 -1.22465e-16
      outer loop
         vertex 0.003 0.02 0.0057
         vertex 0.003 0.02 0.0082
         vertex 0.00298241 0.0196756 0.0082
      endloop
   endfacet
   facet normal 0.994138 -0.108119 -1.21747e-16
      outer loop
         vertex 0.00298241 0.0196756 0.0057
         vertex 0.00298241 0.0196756 0.0082
         vertex 0.00292986 0.0193551 0.0082
      endloop
   endfacet
   facet normal 0.976621 -0.21497 -1.19602e-16
      outer loop
         vertex 0.00292986 0.0193551 0.0057
         vertex 0.00292986 0.0193551 0.0082
         vertex 0.00284296 0.0190421 0.0082
      endloop
   endfacet
   facet normal 0.947653 -0.319302 -1.16054e-16
      outer loop
         vertex 0.00284296 0.0190421 0.0057
         vertex 0.00284296 0.0190421 0.0082
         vertex 0.00272272 0.0187403 0.0082
      endloop
   endfacet
   facet normal 0.907575 -0.419889 -1.11146e-16
      outer loop
         vertex 0.00272272 0.0187403 0.0057
         vertex 0.00272272 0.0187403 0.0082
         vertex 0.00257057 0.0184533 0.0082
      endloop
   endfacet
   facet normal 0.856857 -0.515554 -1.04935e-16
      outer loop
         vertex 0.00257057 0.0184533 0.0057
         vertex 0.00257057 0.0184533 0.0082
         vertex 0.00238828 0.0181845 0.0082
      endloop
   endfacet
   facet normal 0.796093 -0.605174 -9.74933e-17
      outer loop
         vertex 0.00238828 0.0181845 0.0057
         vertex 0.00238828 0.0181845 0.0082
         vertex 0.00217798 0.0179369 0.0082
      endloop
   endfacet
   facet normal 0.725995 -0.687699 -8.89088e-17
      outer loop
         vertex 0.00217798 0.0179369 0.0057
         vertex 0.00217798 0.0179369 0.0082
         vertex 0.00194216 0.0177135 0.0082
      endloop
   endfacet
   facet normal 0.647386 -0.762162 -7.9282e-17
      outer loop
         vertex 0.00194216 0.0177135 0.0057
         vertex 0.00194216 0.0177135 0.0082
         vertex 0.00168356 0.0175169 0.0082
      endloop
   endfacet
   facet normal 0.561187 -0.827689 -6.87256e-17
      outer loop
         vertex 0.00168356 0.0175169 0.0057
         vertex 0.00168356 0.0175169 0.0082
         vertex 0.00140522 0.0173495 0.0082
      endloop
   endfacet
   facet normal 0.468408 -0.883512 -5.73635e-17
      outer loop
         vertex 0.00140522 0.0173495 0.0057
         vertex 0.00140522 0.0173495 0.0082
         vertex 0.00111041 0.0172131 0.0082
      endloop
   endfacet
   facet normal 0.370138 -0.928977 -4.53289e-17
      outer loop
         vertex 0.00111041 0.0172131 0.0057
         vertex 0.00111041 0.0172131 0.0082
         vertex 0.000802584 0.0171094 0.0082
      endloop
   endfacet
   facet normal 0.267528 -0.96355 -3.27628e-17
      outer loop
         vertex 0.000802584 0.0171094 0.0057
         vertex 0.000802584 0.0171094 0.0082
         vertex 0.000485345 0.0170395 0.0082
      endloop
   endfacet
   facet normal 0.161782 -0.986827 -1.98126e-17
      outer loop
         vertex 0.000485345 0.0170395 0.0057
         vertex 0.000485345 0.0170395 0.0082
         vertex 0.000162415 0.0170044 0.0082
      endloop
   endfacet
   facet normal 0.0541389 -0.998533 -6.6301e-18
      outer loop
         vertex 0.000162415 0.0170044 0.0057
         vertex 0.000162415 0.0170044 0.0082
         vertex -0.000162418 0.0170044 0.0082
      endloop
   endfacet
   facet normal -0.0541389 -0.998533 6.6301e-18
      outer loop
         vertex -0.000162418 0.0170044 0.0057
         vertex -0.000162418 0.0170044 0.0082
         vertex -0.000485347 0.0170395 0.0082
      endloop
   endfacet
   facet normal -0.161782 -0.986827 1.98126e-17
      outer loop
         vertex -0.000485347 0.0170395 0.0057
         vertex -0.000485347 0.0170395 0.0082
         vertex -0.000802587 0.0171094 0.0082
      endloop
   endfacet
   facet normal -0.267528 -0.96355 3.27628e-17
      outer loop
         vertex -0.000802587 0.0171094 0.0057
         vertex -0.000802587 0.0171094 0.0082
         vertex -0.00111042 0.0172131 0.0082
      endloop
   endfacet
   facet normal -0.370138 -0.928977 4.53289e-17
      outer loop
         vertex -0.00111042 0.0172131 0.0057
         vertex -0.00111042 0.0172131 0.0082
         vertex -0.00140523 0.0173495 0.0082
      endloop
   endfacet
   facet normal -0.468408 -0.883512 5.73635e-17
      outer loop
         vertex -0.00140523 0.0173495 0.0057
         vertex -0.00140523 0.0173495 0.0082
         vertex -0.00168356 0.0175169 0.0082
      endloop
   endfacet
   facet normal -0.561187 -0.827689 6.87256e-17
      outer loop
         vertex -0.00168356 0.0175169 0.0057
         vertex -0.00168356 0.0175169 0.0082
         vertex -0.00194216 0.0177135 0.0082
      endloop
   endfacet
   facet normal -0.647386 -0.762162 7.9282e-17
      outer loop
         vertex -0.00194216 0.0177135 0.0057
         vertex -0.00194216 0.0177135 0.0082
         vertex -0.00217799 0.0179369 0.0082
      endloop
   endfacet
   facet normal -0.725995 -0.687699 8.89088e-17
      outer loop
         vertex -0.00217799 0.0179369 0.0057
         vertex -0.00217799 0.0179369 0.0082
         vertex -0.00238828 0.0181845 0.0082
      endloop
   endfacet
   facet normal -0.796093 -0.605174 9.74933e-17
      outer loop
         vertex -0.00238828 0.0181845 0.0057
         vertex -0.00238828 0.0181845 0.0082
         vertex -0.00257057 0.0184533 0.0082
      endloop
   endfacet
   facet normal -0.856857 -0.515554 1.04935e-16
      outer loop
         vertex -0.00257057 0.0184533 0.0057
         vertex -0.00257057 0.0184533 0.0082
         vertex -0.00272273 0.0187403 0.0082
      endloop
   endfacet
   facet normal -0.907575 -0.419889 1.11146e-16
      outer loop
         vertex -0.00272273 0.0187403 0.0057
         vertex -0.00272273 0.0187403 0.0082
         vertex -0.00284296 0.0190421 0.0082
      endloop
   endfacet
   facet normal -0.947653 -0.319302 1.16054e-16
      outer loop
         vertex -0.00284296 0.0190421 0.0057
         vertex -0.00284296 0.0190421 0.0082
         vertex -0.00292986 0.0193551 0.0082
      endloop
   endfacet
   facet normal -0.976621 -0.21497 1.19602e-16
      outer loop
         vertex -0.00292986 0.0193551 0.0057
         vertex -0.00292986 0.0193551 0.0082
         vertex -0.00298242 0.0196756 0.0082
      endloop
   endfacet
   facet normal -0.994138 -0.108119 1.21747e-16
      outer loop
         vertex -0.00298242 0.0196756 0.0057
         vertex -0.00298242 0.0196756 0.0082
         vertex -0.003 0.02 0.0082
      endloop
   endfacet
   facet normal -1 -3.20475e-31 1.22465e-16
      outer loop
         vertex -0.003 0.02 0.0057
         vertex -0.003 0.02 0.0082
         vertex -0.00298242 0.0203244 0.0082
      endloop
   endfacet
   facet normal -0.994138 0.108119 1.21747e-16
      outer loop
         vertex -0.00298242 0.0203244 0.0057
         vertex -0.00298242 0.0203244 0.0082
         vertex -0.00292986 0.0206449 0.0082
      endloop
   endfacet
   facet normal -0.976621 0.21497 1.19602e-16
      outer loop
         vertex -0.00292986 0.0206449 0.0057
         vertex -0.00292986 0.0206449 0.0082
         vertex -0.00284296 0.0209579 0.0082
      endloop
   endfacet
   facet normal -0.947653 0.319302 1.16054e-16
      outer loop
         vertex -0.00284296 0.0209579 0.0057
         vertex -0.00284296 0.0209579 0.0082
         vertex -0.00272273 0.0212597 0.0082
      endloop
   endfacet
   facet normal -0.907575 0.419889 1.11146e-16
      outer loop
         vertex -0.00272273 0.0212597 0.0057
         vertex -0.00272273 0.0212597 0.0082
         vertex -0.00257057 0.0215467 0.0082
      endloop
   endfacet
   facet normal -0.856857 0.515554 1.04935e-16
      outer loop
         vertex -0.00257057 0.0215467 0.0057
         vertex -0.00257057 0.0215467 0.0082
         vertex -0.00238828 0.0218155 0.0082
      endloop
   endfacet
   facet normal -0.796093 0.605174 9.74933e-17
      outer loop
         vertex -0.00238828 0.0218155 0.0057
         vertex -0.00238828 0.0218155 0.0082
         vertex -0.00217799 0.0220631 0.0082
      endloop
   endfacet
   facet normal -0.725995 0.687699 8.89088e-17
      outer loop
         vertex -0.00217799 0.0220631 0.0057
         vertex -0.00217799 0.0220631 0.0082
         vertex -0.00194216 0.0222865 0.0082
      endloop
   endfacet
   facet normal -0.647386 0.762162 7.9282e-17
      outer loop
         vertex -0.00194216 0.0222865 0.0057
         vertex -0.00194216 0.0222865 0.0082
         vertex -0.00168356 0.0224831 0.0082
      endloop
   endfacet
   facet normal -0.561187 0.827689 6.87256e-17
      outer loop
         vertex -0.00168356 0.0224831 0.0057
         vertex -0.00168356 0.0224831 0.0082
         vertex -0.00140523 0.0226505 0.0082
      endloop
   endfacet
   facet normal -0.468408 0.883512 5.73635e-17
      outer loop
         vertex -0.00140523 0.0226505 0.0057
         vertex -0.00140523 0.0226505 0.0082
         vertex -0.00111042 0.0227869 0.0082
      endloop
   endfacet
   facet normal -0.370138 0.928977 4.53289e-17
      outer loop
         vertex -0.00111042 0.0227869 0.0057
         vertex -0.00111042 0.0227869 0.0082
         vertex -0.000802587 0.0228907 0.0082
      endloop
   endfacet
   facet normal -0.267528 0.96355 3.27628e-17
      outer loop
         vertex -0.000802587 0.0228907 0.0057
         vertex -0.000802587 0.0228907 0.0082
         vertex -0.000485347 0.0229605 0.0082
      endloop
   endfacet
   facet normal -0.161782 0.986827 1.98126e-17
      outer loop
         vertex -0.000485347 0.0229605 0.0057
         vertex -0.000485347 0.0229605 0.0082
         vertex -0.000162418 0.0229956 0.0082
      endloop
   endfacet
   facet normal -0.0541389 0.998533 6.6301e-18
      outer loop
         vertex -0.000162418 0.0229956 0.0057
         vertex -0.000162418 0.0229956 0.0082
         vertex 0.000162415 0.0229956 0.0082
      endloop
   endfacet
   facet normal 0.0541389 0.998533 -6.6301e-18
      outer loop
         vertex 0.000162415 0.0229956 0.0057
         vertex 0.000162415 0.0229956 0.0082
         vertex 0.000485345 0.0229605 0.0082
      endloop
   endfacet
   facet normal 0.161782 0.986827 -1.98126e-17
      outer loop
         vertex 0.000485345 0.0229605 0.0057
         vertex 0.000485345 0.0229605 0.0082
         vertex 0.000802584 0.0228907 0.0082
      endloop
   endfacet
   facet normal 0.267528 0.96355 -3.27628e-17
      outer loop
         vertex 0.000802584 0.0228907 0.0057
         vertex 0.000802584 0.0228907 0.0082
         vertex 0.00111041 0.0227869 0.0082
      endloop
   endfacet
   facet normal 0.370138 0.928977 -4.53289e-17
      outer loop
         vertex 0.00111041 0.0227869 0.0057
         vertex 0.00111041 0.0227869 0.0082
         vertex 0.00140522 0.0226505 0.0082
      endloop
   endfacet
   facet normal 0.468408 0.883512 -5.73635e-17
      outer loop
         vertex 0.00140522 0.0226505 0.0057
         vertex 0.00140522 0.0226505 0.0082
         vertex 0.00168356 0.0224831 0.0082
      endloop
   endfacet
   facet normal 0.561187 0.827689 -6.87256e-17
      outer loop
         vertex 0.00168356 0.0224831 0.0057
         vertex 0.00168356 0.0224831 0.0082
         vertex 0.00194216 0.0222865 0.0082
      endloop
   endfacet
   facet normal 0.647386 0.762162 -7.9282e-17
      outer loop
         vertex 0.00194216 0.0222865 0.0057
         vertex 0.00194216 0.0222865 0.0082
         vertex 0.00217798 0.0220631 0.0082
      endloop
   endfacet
   facet normal 0.725995 0.687699 -8.89088e-17
      outer loop
         vertex 0.00217798 0.0220631 0.0057
         vertex 0.00217798 0.0220631 0.0082
         vertex 0.00238828 0.0218155 0.0082
      endloop
   endfacet
   facet normal 0.796093 0.605174 -9.74933e-17
      outer loop
         vertex 0.00238828 0.0218155 0.0057
         vertex 0.00238828 0.0218155 0.0082
         vertex 0.00257057 0.0215467 0.0082
      endloop
   endfacet
   facet normal 0.856857 0.515554 -1.04935e-16
      outer loop
         vertex 0.00257057 0.0215467 0.0057
         vertex 0.00257057 0.0215467 0.0082
         vertex 0.00272272 0.0212597 0.0082
      endloop
   endfacet
   facet normal 0.907575 0.419889 -1.11146e-16
      outer loop
         vertex 0.00272272 0.0212597 0.0057
         vertex 0.00272272 0.0212597 0.0082
         vertex 0.00284296 0.0209579 0.0082
      endloop
   endfacet
   facet normal 0.947653 0.319302 -1.16054e-16
      outer loop
         vertex 0.00284296 0.0209579 0.0057
         vertex 0.00284296 0.0209579 0.0082
         vertex 0.00292986 0.0206449 0.0082
      endloop
   endfacet
   facet normal 0.976621 0.21497 -1.19602e-16
      outer loop
         vertex 0.00292986 0.0206449 0.0057
         vertex 0.00292986 0.0206449 0.0082
         vertex 0.00298241 0.0203244 0.0082
      endloop
   endfacet
   facet normal 0.994138 0.108119 -1.21747e-16
      outer loop
         vertex 0.00298241 0.0203244 0.0057
         vertex 0.00298241 0.0203244 0.0082
         vertex 0.003 0.02 0.0082
      endloop
   endfacet
   facet normal 1 -1.22465e-16 -1.22465e-16
      outer loop
         vertex 0.003 0.02 0.0082
         vertex 0.003 0.02 0.0057
         vertex 0.00298241 0.0203244 0.0057
      endloop
   endfacet
   facet normal 0.994138 0.108119 -1.21747e-16
      outer loop
         vertex 0.00298241 0.0203244 0.0082
         vertex 0.00298241 0.0203244 0.0057
         vertex 0.00292986 0.0206449 0.0057
      endloop
   endfacet
   facet normal 0.976621 0.21497 -1.19602e-16
      outer loop
         vertex 0.00292986 0.0206449 0.0082
         vertex 0.00292986 0.0206449 0.0057
         vertex 0.00284296 0.0209579 0.0057
      endloop
   endfacet
   facet normal 0.947653 0.319302 -1.16054e-16
      outer loop
         vertex 0.00284296 0.0209579 0.0082
         vertex 0.00284296 0.0209579 0.0057
         vertex 0.00272272 0.0212597 0.0057
      endloop
   endfacet
   facet normal 0.907575 0.419889 -1.11146e-16
      outer loop
         vertex 0.00272272 0.0212597 0.0082
         vertex 0.00272272 0.0212597 0.0057
         vertex 0.00257057 0.0215467 0.0057
      endloop
   endfacet
   facet normal 0.856857 0.515554 -1.04935e-16
      outer loop
         vertex 0.00257057 0.0215467 0.0082
         vertex 0.00257057 0.0215467 0.0057
         vertex 0.00238828 0.0218155 0.0057
      endloop
   endfacet
   facet normal 0.796093 0.605174 -9.74933e-17
      outer loop
         vertex 0.00238828 0.0218155 0.0082
         vertex 0.00238828 0.0218155 0.0057
         vertex 0.00217798 0.0220631 0.0057
      endloop
   endfacet
   facet normal 0.725995 0.687699 -8.89088e-17
      outer loop
         vertex 0.00217798 0.0220631 0.0082
         vertex 0.00217798 0.0220631 0.0057
         vertex 0.00194216 0.0222865 0.0057
      endloop
   endfacet
   facet normal 0.647386 0.762162 -7.9282e-17
      outer loop
         vertex 0.00194216 0.0222865 0.0082
         vertex 0.00194216 0.0222865 0.0057
         vertex 0.00168356 0.0224831 0.0057
      endloop
   endfacet
   facet normal 0.561187 0.827689 -6.87256e-17
      outer loop
         vertex 0.00168356 0.0224831 0.0082
         vertex 0.00168356 0.0224831 0.0057
         vertex 0.00140522 0.0226505 0.0057
      endloop
   endfacet
   facet normal 0.468408 0.883512 -5.73635e-17
      outer loop
         vertex 0.00140522 0.0226505 0.0082
         vertex 0.00140522 0.0226505 0.0057
         vertex 0.00111041 0.0227869 0.0057
      endloop
   endfacet
   facet normal 0.370138 0.928977 -4.53289e-17
      outer loop
         vertex 0.00111041 0.0227869 0.0082
         vertex 0.00111041 0.0227869 0.0057
         vertex 0.000802584 0.0228907 0.0057
      endloop
   endfacet
   facet normal 0.267528 0.96355 -3.27628e-17
      outer loop
         vertex 0.000802584 0.0228907 0.0082
         vertex 0.000802584 0.0228907 0.0057
         vertex 0.000485345 0.0229605 0.0057
      endloop
   endfacet
   facet normal 0.161782 0.986827 -1.98126e-17
      outer loop
         vertex 0.000485345 0.0229605 0.0082
         vertex 0.000485345 0.0229605 0.0057
         vertex 0.000162415 0.0229956 0.0057
      endloop
   endfacet
   facet normal 0.0541389 0.998533 -6.6301e-18
      outer loop
         vertex 0.000162415 0.0229956 0.0082
         vertex 0.000162415 0.0229956 0.0057
         vertex -0.000162418 0.0229956 0.0057
      endloop
   endfacet
   facet normal -0.0541389 0.998533 6.6301e-18
      outer loop
         vertex -0.000162418 0.0229956 0.0082
         vertex -0.000162418 0.0229956 0.0057
         vertex -0.000485347 0.0229605 0.0057
      endloop
   endfacet
   facet normal -0.161782 0.986827 1.98126e-17
      outer loop
         vertex -0.000485347 0.0229605 0.0082
         vertex -0.000485347 0.0229605 0.0057
         vertex -0.000802587 0.0228907 0.0057
      endloop
   endfacet
   facet normal -0.267528 0.96355 3.27628e-17
      outer loop
         vertex -0.000802587 0.0228907 0.0082
         vertex -0.000802587 0.0228907 0.0057
         vertex -0.00111042 0.0227869 0.0057
      endloop
   endfacet
   facet normal -0.370138 0.928977 4.53289e-17
      outer loop
         vertex -0.00111042 0.0227869 0.0082
         vertex -0.00111042 0.0227869 0.0057
         vertex -0.00140523 0.0226505 0.0057
      endloop
   endfacet
   facet normal -0.468408 0.883512 5.73635e-17
      outer loop
         vertex -0.00140523 0.0226505 0.0082
         vertex -0.00140523 0.0226505 0.0057
         vertex -0.00168356 0.0224831 0.0057
      endloop
   endfacet
   facet normal -0.561187 0.827689 6.87256e-17
      outer loop
         vertex -0.00168356 0.0224831 0.0082
         vertex -0.00168356 0.0224831 0.0057
         vertex -0.00194216 0.0222865 0.0057
      endloop
   endfacet
   facet normal -0.647386 0.762162 7.9282e-17
      outer loop
         vertex -0.00194216 0.0222865 0.0082
         vertex -0.00194216 0.0222865 0.0057
         vertex -0.00217799 0.0220631 0.0057
      endloop
   endfacet
   facet normal -0.725995 0.687699 8.89088e-17
      outer loop
         vertex -0.00217799 0.0220631 0.0082
         vertex -0.00217799 0.0220631 0.0057
         vertex -0.00238828 0.0218155 0.0057
      endloop
   endfacet
   facet normal -0.796093 0.605174 9.74933e-17
      outer loop
         vertex -0.00238828 0.0218155 0.0082
         vertex -0.00238828 0.0218155 0.0057
         vertex -0.00257057 0.0215467 0.0057
      endloop
   endfacet
   facet normal -0.856857 0.515554 1.04935e-16
      outer loop
         vertex -0.00257057 0.0215467 0.0082
         vertex -0.00257057 0.0215467 0.0057
         vertex -0.00272273 0.0212597 0.0057
      endloop
   endfacet
   facet normal -0.907575 0.419889 1.11146e-16
      outer loop
         vertex -0.00272273 0.0212597 0.0082
         vertex -0.00272273 0.0212597 0.0057
         vertex -0.00284296 0.0209579 0.0057
      endloop
   endfacet
   facet normal -0.947653 0.319302 1.16054e-16
      outer loop
         vertex -0.00284296 0.0209579 0.0082
         vertex -0.00284296 0.0209579 0.0057
         vertex -0.00292986 0.0206449 0.0057
      endloop
   endfacet
   facet normal -0.976621 0.21497 1.19602e-16
      outer loop
         vertex -0.00292986 0.0206449 0.0082
         vertex -0.00292986 0.0206449 0.0057
         vertex -0.00298242 0.0203244 0.0057
      endloop
   endfacet
   facet normal -0.994138 0.108119 1.21747e-16
      outer loop
         vertex -0.00298242 0.0203244 0.0082
         vertex -0.00298242 0.0203244 0.0057
         vertex -0.003 0.02 0.0057
      endloop
   endfacet
   facet normal -1 -3.20475e-31 1.22465e-16
      outer loop
         vertex -0.003 0.02 0.0082
         vertex -0.003 0.02 0.0057
         vertex -0.00298242 0.0196756 0.0057
      endloop
   endfacet
   facet normal -0.994138 -0.108119 1.21747e-16
      outer loop
         vertex -0.00298242 0.0196756 0.0082
         vertex -0.00298242 0.0196756 0.0057
         vertex -0.00292986 0.0193551 0.0057
      endloop
   endfacet
   facet normal -0.976621 -0.21497 1.19602e-16
      outer loop
         vertex -0.00292986 0.0193551 0.0082
         vertex -0.00292986 0.0193551 0.0057
         vertex -0.00284296 0.0190421 0.0057
      endloop
   endfacet
   facet normal -0.947653 -0.319302 1.16054e-16
      outer loop
         vertex -0.00284296 0.0190421 0.0082
         vertex -0.00284296 0.0190421 0.0057
         vertex -0.00272273 0.0187403 0.0057
      endloop
   endfacet
   facet normal -0.907575 -0.419889 1.11146e-16
      outer loop
         vertex -0.00272273 0.0187403 0.0082
         vertex -0.00272273 0.0187403 0.0057
         vertex -0.00257057 0.0184533 0.0057
      endloop
   endfacet
   facet normal -0.856857 -0.515554 1.04935e-16
      outer loop
         vertex -0.00257057 0.0184533 0.0082
         vertex -0.00257057 0.0184533 0.0057
         vertex -0.00238828 0.0181845 0.0057
      endloop
   endfacet
   facet normal -0.796093 -0.605174 9.74933e-17
      outer loop
         vertex -0.00238828 0.0181845 0.0082
         vertex -0.00238828 0.0181845 0.0057
         vertex -0.00217799 0.0179369 0.0057
      endloop
   endfacet
   facet normal -0.725995 -0.687699 8.89088e-17
      outer loop
         vertex -0.00217799 0.0179369 0.0082
         vertex -0.00217799 0.0179369 0.0057
         vertex -0.00194216 0.0177135 0.0057
      endloop
   endfacet
   facet normal -0.647386 -0.762162 7.9282e-17
      outer loop
         vertex -0.00194216 0.0177135 0.0082
         vertex -0.00194216 0.0177135 0.0057
         vertex -0.00168356 0.0175169 0.0057
      endloop
   endfacet
   facet normal -0.561187 -0.827689 6.87256e-17
      outer loop
         vertex -0.00168356 0.0175169 0.0082
         vertex -0.00168356 0.0175169 0.0057
         vertex -0.00140523 0.0173495 0.0057
      endloop
   endfacet
   facet normal -0.468408 -0.883512 5.73635e-17
      outer loop
         vertex -0.00140523 0.0173495 0.0082
         vertex -0.00140523 0.0173495 0.0057
         vertex -0.00111042 0.0172131 0.0057
      endloop
   endfacet
   facet normal -0.370138 -0.928977 4.53289e-17
      outer loop
         vertex -0.00111042 0.0172131 0.0082
         vertex -0.00111042 0.0172131 0.0057
         vertex -0.000802587 0.0171094 0.0057
      endloop
   endfacet
   facet normal -0.267528 -0.96355 3.27628e-17
      outer loop
         vertex -0.000802587 0.0171094 0.0082
         vertex -0.000802587 0.0171094 0.0057
         vertex -0.000485347 0.0170395 0.0057
      endloop
   endfacet
   facet normal -0.161782 -0.986827 1.98126e-17
      outer loop
         vertex -0.000485347 0.0170395 0.0082
         vertex -0.000485347 0.0170395 0.0057
         vertex -0.000162418 0.0170044 0.0057
      endloop
   endfacet
   facet normal -0.0541389 -0.998533 6.6301e-18
      outer loop
         vertex -0.000162418 0.0170044 0.0082
         vertex -0.000162418 0.0170044 0.0057
         vertex 0.000162415 0.0170044 0.0057
      endloop
   endfacet
   facet normal 0.0541389 -0.998533 -6.6301e-18
      outer loop
         vertex 0.000162415 0.0170044 0.0082
         vertex 0.000162415 0.0170044 0.0057
         vertex 0.000485345 0.0170395 0.0057
      endloop
   endfacet
   facet normal 0.161782 -0.986827 -1.98126e-17
      outer loop
         vertex 0.000485345 0.0170395 0.0082
         vertex 0.000485345 0.0170395 0.0057
         vertex 0.000802584 0.0171094 0.0057
      endloop
   endfacet
   facet normal 0.267528 -0.96355 -3.27628e-17
      outer loop
         vertex 0.000802584 0.0171094 0.0082
         vertex 0.000802584 0.0171094 0.0057
         vertex 0.00111041 0.0172131 0.0057
      endloop
   endfacet
   facet normal 0.370138 -0.928977 -4.53289e-17
      outer loop
         vertex 0.00111041 0.0172131 0.0082
         vertex 0.00111041 0.0172131 0.0057
         vertex 0.00140522 0.0173495 0.0057
      endloop
   endfacet
   facet normal 0.468408 -0.883512 -5.73635e-17
      outer loop
         vertex 0.00140522 0.0173495 0.0082
         vertex 0.00140522 0.0173495 0.0057
         vertex 0.00168356 0.0175169 0.0057
      endloop
   endfacet
   facet normal 0.561187 -0.827689 -6.87256e-17
      outer loop
         vertex 0.00168356 0.0175169 0.0082
         vertex 0.00168356 0.0175169 0.0057
         vertex 0.00194216 0.0177135 0.0057
      endloop
   endfacet
   facet normal 0.647386 -0.762162 -7.9282e-17
      outer loop
         vertex 0.00194216 0.0177135 0.0082
         vertex 0.00194216 0.0177135 0.0057
         vertex 0.00217798 0.0179369 0.0057
      endloop
   endfacet
   facet normal 0.725995 -0.687699 -8.89088e-17
      outer loop
         vertex 0.00217798 0.0179369 0.0082
         vertex 0.00217798 0.0179369 0.0057
         vertex 0.00238828 0.0181845 0.0057
      endloop
   endfacet
   facet normal 0.796093 -0.605174 -9.74933e-17
      outer loop
         vertex 0.00238828 0.0181845 0.0082
         vertex 0.00238828 0.0181845 0.0057
         vertex 0.00257057 0.0184533 0.0057
      endloop
   endfacet
   facet normal 0.856857 -0.515554 -1.04935e-16
      outer loop
         vertex 0.00257057 0.0184533 0.0082
         vertex 0.00257057 0.0184533 0.0057
         vertex 0.00272272 0.0187403 0.0057
      endloop
   endfacet
   facet normal 0.907575 -0.419889 -1.11146e-16
      outer loop
         vertex 0.00272272 0.0187403 0.0082
         vertex 0.00272272 0.0187403 0.0057
         vertex 0.00284296 0.0190421 0.0057
      endloop
   endfacet
   facet normal 0.947653 -0.319302 -1.16054e-16
      outer loop
         vertex 0.00284296 0.0190421 0.0082
         vertex 0.00284296 0.0190421 0.0057
         vertex 0.00292986 0.0193551 0.0057
      endloop
   endfacet
   facet normal 0.976621 -0.21497 -1.19602e-16
      outer loop
         vertex 0.00292986 0.0193551 0.0082
         vertex 0.00292986 0.0193551 0.0057
         vertex 0.00298241 0.0196756 0.0057
      endloop
   endfacet
   facet normal 0.994138 -0.108119 -1.21747e-16
      outer loop
         vertex 0.00298241 0.0196756 0.0082
         vertex 0.00298241 0.0196756 0.0057
         vertex 0.003 0.02 0.0057
      endloop
   endfacet
   facet normal -1.22465e-16 1.49976e-32 -1
      outer loop
         vertex -1.4875e-09 0.02 0.0057
         vertex -0.00298242 0.0203244 0.0057
         vertex -0.00292986 0.0206449 0.0057
      endloop
   endfacet
   facet normal -1.22465e-16 1.49976e-32 -1
      outer loop
         vertex -0.00292986 0.0206449 0.0057
         vertex -0.00284296 0.0209579 0.0057
         vertex -1.4875e-09 0.02 0.0057
      endloop
   endfacet
   facet normal -1.22465e-16 1.49976e-32 -1
      outer loop
         vertex -0.00284296 0.0209579 0.0057
         vertex -0.00272273 0.0212597 0.0057
         vertex -1.4875e-09 0.02 0.0057
      endloop
   endfacet
   facet normal -1.22465e-16 1.49976e-32 -1
      outer loop
         vertex -0.00272273 0.0212597 0.0057
         vertex -0.00257057 0.0215467 0.0057
         vertex -1.4875e-09 0.02 0.0057
      endloop
   endfacet
   facet normal -1.22465e-16 1.49976e-32 -1
      outer loop
         vertex -0.00257057 0.0215467 0.0057
         vertex -0.00238828 0.0218155 0.0057
         vertex -1.4875e-09 0.02 0.0057
      endloop
   endfacet
   facet normal -1.22465e-16 1.49976e-32 -1
      outer loop
         vertex -0.00238828 0.0218155 0.0057
         vertex -0.00217799 0.0220631 0.0057
         vertex -1.4875e-09 0.02 0.0057
      endloop
   endfacet
   facet normal -1.22465e-16 1.49976e-32 -1
      outer loop
         vertex -0.00217799 0.0220631 0.0057
         vertex -0.00194216 0.0222865 0.0057
         vertex -1.4875e-09 0.02 0.0057
      endloop
   endfacet
   facet normal -1.22465e-16 1.49976e-32 -1
      outer loop
         vertex -0.00194216 0.0222865 0.0057
         vertex -0.00168356 0.0224831 0.0057
         vertex -1.4875e-09 0.02 0.0057
      endloop
   endfacet
   facet normal -1.22465e-16 1.49976e-32 -1
      outer loop
         vertex -0.00168356 0.0224831 0.0057
         vertex -0.00140523 0.0226505 0.0057
         vertex -1.4875e-09 0.02 0.0057
      endloop
   endfacet
   facet normal -1.22465e-16 1.49976e-32 -1
      outer loop
         vertex -0.00140523 0.0226505 0.0057
         vertex -0.00111042 0.0227869 0.0057
         vertex -1.4875e-09 0.02 0.0057
      endloop
   endfacet
   facet normal -1.22465e-16 1.49976e-32 -1
      outer loop
         vertex -0.00111042 0.0227869 0.0057
         vertex -0.000802587 0.0228907 0.0057
         vertex -1.4875e-09 0.02 0.0057
      endloop
   endfacet
   facet normal -1.22465e-16 1.49976e-32 -1
      outer loop
         vertex -0.000802587 0.0228907 0.0057
         vertex -0.000485347 0.0229605 0.0057
         vertex -1.4875e-09 0.02 0.0057
      endloop
   endfacet
   facet normal -1.22465e-16 1.49976e-32 -1
      outer loop
         vertex -0.000485347 0.0229605 0.0057
         vertex -0.000162418 0.0229956 0.0057
         vertex -1.4875e-09 0.02 0.0057
      endloop
   endfacet
   facet normal -1.22465e-16 1.49976e-32 -1
      outer loop
         vertex -0.000162418 0.0229956 0.0057
         vertex 0.000162415 0.0229956 0.0057
         vertex -1.4875e-09 0.02 0.0057
      endloop
   endfacet
   facet normal -1.22465e-16 1.49976e-32 -1
      outer loop
         vertex 0.000162415 0.0229956 0.0057
         vertex 0.000485345 0.0229605 0.0057
         vertex -1.4875e-09 0.02 0.0057
      endloop
   endfacet
   facet normal -1.22465e-16 1.49976e-32 -1
      outer loop
         vertex 0.000485345 0.0229605 0.0057
         vertex 0.000802584 0.0228907 0.0057
         vertex -1.4875e-09 0.02 0.0057
      endloop
   endfacet
   facet normal -1.22465e-16 1.49976e-32 -1
      outer loop
         vertex 0.000802584 0.0228907 0.0057
         vertex 0.00111041 0.0227869 0.0057
         vertex -1.4875e-09 0.02 0.0057
      endloop
   endfacet
   facet normal -1.22465e-16 1.49976e-32 -1
      outer loop
         vertex 0.00111041 0.0227869 0.0057
         vertex 0.00140522 0.0226505 0.0057
         vertex -1.4875e-09 0.02 0.0057
      endloop
   endfacet
   facet normal -1.22465e-16 1.49976e-32 -1
      outer loop
         vertex 0.00140522 0.0226505 0.0057
         vertex 0.00168356 0.0224831 0.0057
         vertex -1.4875e-09 0.02 0.0057
      endloop
   endfacet
   facet normal -1.22465e-16 1.49976e-32 -1
      outer loop
         vertex 0.00168356 0.0224831 0.0057
         vertex 0.00194216 0.0222865 0.0057
         vertex -1.4875e-09 0.02 0.0057
      endloop
   endfacet
   facet normal -1.22465e-16 1.49976e-32 -1
      outer loop
         vertex 0.00194216 0.0222865 0.0057
         vertex 0.00217798 0.0220631 0.0057
         vertex -1.4875e-09 0.02 0.0057
      endloop
   endfacet
   facet normal -1.22465e-16 1.49976e-32 -1
      outer loop
         vertex 0.00217798 0.0220631 0.0057
         vertex 0.00238828 0.0218155 0.0057
         vertex -1.4875e-09 0.02 0.0057
      endloop
   endfacet
   facet normal -1.22465e-16 1.49976e-32 -1
      outer loop
         vertex 0.00238828 0.0218155 0.0057
         vertex 0.00257057 0.0215467 0.0057
         vertex -1.4875e-09 0.02 0.0057
      endloop
   endfacet
   facet normal -1.22465e-16 1.49976e-32 -1
      outer loop
         vertex 0.00257057 0.0215467 0.0057
         vertex 0.00272272 0.0212597 0.0057
         vertex -1.4875e-09 0.02 0.0057
      endloop
   endfacet
   facet normal -1.22465e-16 1.49976e-32 -1
      outer loop
         vertex 0.00272272 0.0212597 0.0057
         vertex 0.00284296 0.0209579 0.0057
         vertex -1.4875e-09 0.02 0.0057
      endloop
   endfacet
   facet normal -1.22465e-16 1.49976e-32 -1
      outer loop
         vertex 0.00284296 0.0209579 0.0057
         vertex 0.00292986 0.0206449 0.0057
         vertex -1.4875e-09 0.02 0.0057
      endloop
   endfacet
   facet normal -1.22465e-16 1.49976e-32 -1
      outer loop
         vertex 0.00292986 0.0206449 0.0057
         vertex 0.00298241 0.0203244 0.0057
         vertex -1.4875e-09 0.02 0.0057
      endloop
   endfacet
   facet normal -1.22465e-16 1.49976e-32 -1
      outer loop
         vertex 0.00298241 0.0203244 0.0057
         vertex 0.003 0.02 0.0057
         vertex -1.4875e-09 0.02 0.0057
      endloop
   endfacet
   facet normal -1.22465e-16 1.49976e-32 -1
      outer loop
         vertex 0.003 0.02 0.0057
         vertex 0.00298241 0.0196756 0.0057
         vertex -1.4875e-09 0.02 0.0057
      endloop
   endfacet
   facet normal -1.22465e-16 1.49976e-32 -1
      outer loop
         vertex 0.00298241 0.0196756 0.0057
         vertex 0.00292986 0.0193551 0.0057
         vertex -1.4875e-09 0.02 0.0057
      endloop
   endfacet
   facet normal -1.22465e-16 1.49976e-32 -1
      outer loop
         vertex 0.00292986 0.0193551 0.0057
         vertex 0.00284296 0.0190421 0.0057
         vertex -1.4875e-09 0.02 0.0057
      endloop
   endfacet
   facet normal -1.22465e-16 1.49976e-32 -1
      outer loop
         vertex 0.00284296 0.0190421 0.0057
         vertex 0.00272272 0.0187403 0.0057
         vertex -1.4875e-09 0.02 0.0057
      endloop
   endfacet
   facet normal -1.22465e-16 1.49976e-32 -1
      outer loop
         vertex 0.00272272 0.0187403 0.0057
         vertex 0.00257057 0.0184533 0.0057
         vertex -1.4875e-09 0.02 0.0057
      endloop
   endfacet
   facet normal -1.22465e-16 1.49976e-32 -1
      outer loop
         vertex 0.00257057 0.0184533 0.0057
         vertex 0.00238828 0.0181845 0.0057
         vertex -1.4875e-09 0.02 0.0057
      endloop
   endfacet
   facet normal -1.22465e-16 1.49976e-32 -1
      outer loop
         vertex 0.00238828 0.0181845 0.0057
         vertex 0.00217798 0.0179369 0.0057
         vertex -1.4875e-09 0.02 0.0057
      endloop
   endfacet
   facet normal -1.22465e-16 1.49976e-32 -1
      outer loop
         vertex 0.00217798 0.0179369 0.0057
         vertex 0.00194216 0.0177135 0.0057
         vertex -1.4875e-09 0.02 0.0057
      endloop
   endfacet
   facet normal -1.22465e-16 1.49976e-32 -1
      outer loop
         vertex 0.00194216 0.0177135 0.0057
         vertex 0.00168356 0.0175169 0.0057
         vertex -1.4875e-09 0.02 0.0057
      endloop
   endfacet
   facet normal -1.22465e-16 1.49976e-32 -1
      outer loop
         vertex 0.00168356 0.0175169 0.0057
         vertex 0.00140522 0.0173495 0.0057
         vertex -1.4875e-09 0.02 0.0057
      endloop
   endfacet
   facet normal -1.22465e-16 1.49976e-32 -1
      outer loop
         vertex 0.00140522 0.0173495 0.0057
         vertex 0.00111041 0.0172131 0.0057
         vertex -1.4875e-09 0.02 0.0057
      endloop
   endfacet
   facet normal -1.22465e-16 1.49976e-32 -1
      outer loop
         vertex 0.00111041 0.0172131 0.0057
         vertex 0.000802584 0.0171094 0.0057
         vertex -1.4875e-09 0.02 0.0057
      endloop
   endfacet
   facet normal -1.22465e-16 1.49976e-32 -1
      outer loop
         vertex 0.000802584 0.0171094 0.0057
         vertex 0.000485345 0.0170395 0.0057
         vertex -1.4875e-09 0.02 0.0057
      endloop
   endfacet
   facet normal -1.22465e-16 1.49976e-32 -1
      outer loop
         vertex 0.000485345 0.0170395 0.0057
         vertex 0.000162415 0.0170044 0.0057
         vertex -1.4875e-09 0.02 0.0057
      endloop
   endfacet
   facet normal -1.22465e-16 1.49976e-32 -1
      outer loop
         vertex 0.000162415 0.0170044 0.0057
         vertex -0.000162418 0.0170044 0.0057
         vertex -1.4875e-09 0.02 0.0057
      endloop
   endfacet
   facet normal -1.22465e-16 1.49976e-32 -1
      outer loop
         vertex -0.000162418 0.0170044 0.0057
         vertex -0.000485347 0.0170395 0.0057
         vertex -1.4875e-09 0.02 0.0057
      endloop
   endfacet
   facet normal -1.22465e-16 1.49976e-32 -1
      outer loop
         vertex -0.000485347 0.0170395 0.0057
         vertex -0.000802587 0.0171094 0.0057
         vertex -1.4875e-09 0.02 0.0057
      endloop
   endfacet
   facet normal -1.22465e-16 1.49976e-32 -1
      outer loop
         vertex -0.000802587 0.0171094 0.0057
         vertex -0.00111042 0.0172131 0.0057
         vertex -1.4875e-09 0.02 0.0057
      endloop
   endfacet
   facet normal -1.22465e-16 1.49976e-32 -1
      outer loop
         vertex -0.00111042 0.0172131 0.0057
         vertex -0.00140523 0.0173495 0.0057
         vertex -1.4875e-09 0.02 0.0057
      endloop
   endfacet
   facet normal -1.22465e-16 1.49976e-32 -1
      outer loop
         vertex -0.00140523 0.0173495 0.0057
         vertex -0.00168356 0.0175169 0.0057
         vertex -1.4875e-09 0.02 0.0057
      endloop
   endfacet
   facet normal -1.22465e-16 1.49976e-32 -1
      outer loop
         vertex -0.00168356 0.0175169 0.0057
         vertex -0.00194216 0.0177135 0.0057
         vertex -1.4875e-09 0.02 0.0057
      endloop
   endfacet
   facet normal -1.22465e-16 1.49976e-32 -1
      outer loop
         vertex -0.00194216 0.0177135 0.0057
         vertex -0.00217799 0.0179369 0.0057
         vertex -1.4875e-09 0.02 0.0057
      endloop
   endfacet
   facet normal -1.22465e-16 1.49976e-32 -1
      outer loop
         vertex -0.00217799 0.0179369 0.0057
         vertex -0.00238828 0.0181845 0.0057
         vertex -1.4875e-09 0.02 0.0057
      endloop
   endfacet
   facet normal -1.22465e-16 1.49976e-32 -1
      outer loop
         vertex -0.00238828 0.0181845 0.0057
         vertex -0.00257057 0.0184533 0.0057
         vertex -1.4875e-09 0.02 0.0057
      endloop
   endfacet
   facet normal -1.22465e-16 1.49976e-32 -1
      outer loop
         vertex -0.00257057 0.0184533 0.0057
         vertex -0.00272273 0.0187403 0.0057
         vertex -1.4875e-09 0.02 0.0057
      endloop
   endfacet
   facet normal -1.22465e-16 1.49976e-32 -1
      outer loop
         vertex -0.00272273 0.0187403 0.0057
         vertex -0.00284296 0.0190421 0.0057
         vertex -1.4875e-09 0.02 0.0057
      endloop
   endfacet
   facet normal -1.22465e-16 1.49976e-32 -1
      outer loop
         vertex -0.00284296 0.0190421 0.0057
         vertex -0.00292986 0.0193551 0.0057
         vertex -1.4875e-09 0.02 0.0057
      endloop
   endfacet
   facet normal -1.22465e-16 1.49976e-32 -1
      outer loop
         vertex -0.00292986 0.0193551 0.0057
         vertex -0.00298242 0.0196756 0.0057
         vertex -1.4875e-09 0.02 0.0057
      endloop
   endfacet
   facet normal -1.22465e-16 1.49976e-32 -1
      outer loop
         vertex -0.00298242 0.0196756 0.0057
         vertex -0.003 0.02 0.0057
         vertex -1.4875e-09 0.02 0.0057
      endloop
   endfacet
   facet normal -1.22465e-16 1.49976e-32 -1
      outer loop
         vertex -0.003 0.02 0.0057
         vertex -0.00298242 0.0203244 0.0057
         vertex -1.4875e-09 0.02 0.0057
      endloop
   endfacet
endsolid Magnet. Units = meters