solid Odo standoff. STL generated by ONSHAPE BY PTC INC, 1.216. Units = meters
   facet normal -0.994138 0.108119 0
      outer loop
         vertex 0.0110877 0.010773 -0.03
         vertex 0.0111 0.011 -0.03
         vertex 0.0111 0.011 -0.0468127
      endloop
   endfacet
   facet normal -0.976621 0.21497 0
      outer loop
         vertex 0.0110509 0.0105486 -0.03
         vertex 0.0110877 0.010773 -0.03
         vertex 0.0110877 0.010773 -0.0468127
      endloop
   endfacet
   facet normal -0.947653 0.319302 0
      outer loop
         vertex 0.0109901 0.0103295 -0.03
         vertex 0.0110509 0.0105486 -0.03
         vertex 0.0110509 0.0105486 -0.0468127
      endloop
   endfacet
   facet normal -0.907575 0.419889 0
      outer loop
         vertex 0.0109059 0.0101182 -0.03
         vertex 0.0109901 0.0103295 -0.03
         vertex 0.0109901 0.0103295 -0.0468127
      endloop
   endfacet
   facet normal -0.856857 0.515554 0
      outer loop
         vertex 0.0107994 0.00991734 -0.03
         vertex 0.0109059 0.0101182 -0.03
         vertex 0.0109059 0.0101182 -0.0468127
      endloop
   endfacet
   facet normal -0.796093 0.605174 0
      outer loop
         vertex 0.0106718 0.00972913 -0.03
         vertex 0.0107994 0.00991734 -0.03
         vertex 0.0107994 0.00991734 -0.0468127
      endloop
   endfacet
   facet normal -0.725995 0.687699 0
      outer loop
         vertex 0.0105246 0.00955583 -0.03
         vertex 0.0106718 0.00972913 -0.03
         vertex 0.0106718 0.00972913 -0.0468127
      endloop
   endfacet
   facet normal -0.647386 0.762162 0
      outer loop
         vertex 0.0103595 0.00939946 -0.03
         vertex 0.0105246 0.00955583 -0.03
         vertex 0.0105246 0.00955583 -0.0468127
      endloop
   endfacet
   facet normal -0.561187 0.827689 0
      outer loop
         vertex 0.0101785 0.00926185 -0.03
         vertex 0.0103595 0.00939946 -0.03
         vertex 0.0103595 0.00939946 -0.0468127
      endloop
   endfacet
   facet normal -0.468408 0.883512 0
      outer loop
         vertex 0.00998366 0.00914462 -0.03
         vertex 0.0101785 0.00926185 -0.03
         vertex 0.0101785 0.00926185 -0.0468127
      endloop
   endfacet
   facet normal -0.370138 0.928977 0
      outer loop
         vertex 0.00977729 0.00904915 -0.03
         vertex 0.00998366 0.00914462 -0.03
         vertex 0.00998366 0.00914462 -0.0468127
      endloop
   endfacet
   facet normal -0.267528 0.96355 0
      outer loop
         vertex 0.00956181 0.00897655 -0.03
         vertex 0.00977729 0.00904915 -0.03
         vertex 0.00977729 0.00904915 -0.0468127
      endloop
   endfacet
   facet normal -0.161782 0.986827 0
      outer loop
         vertex 0.00933974 0.00892766 -0.03
         vertex 0.00956181 0.00897655 -0.03
         vertex 0.00956181 0.00897655 -0.0468127
      endloop
   endfacet
   facet normal -0.0541389 0.998533 0
      outer loop
         vertex 0.00911369 0.00890308 -0.03
         vertex 0.00933974 0.00892766 -0.03
         vertex 0.00933974 0.00892766 -0.0468127
      endloop
   endfacet
   facet normal 0.0541389 0.998533 0
      outer loop
         vertex 0.00888631 0.00890308 -0.03
         vertex 0.00911369 0.00890308 -0.03
         vertex 0.00911369 0.00890308 -0.0468127
      endloop
   endfacet
   facet normal 0.161782 0.986827 0
      outer loop
         vertex 0.00866026 0.00892766 -0.03
         vertex 0.00888631 0.00890308 -0.03
         vertex 0.00888631 0.00890308 -0.0468127
      endloop
   endfacet
   facet normal 0.267528 0.96355 0
      outer loop
         vertex 0.00843819 0.00897655 -0.03
         vertex 0.00866026 0.00892766 -0.03
         vertex 0.00866026 0.00892766 -0.0468127
      endloop
   endfacet
   facet normal 0.370138 0.928977 0
      outer loop
         vertex 0.00822271 0.00904915 -0.03
         vertex 0.00843819 0.00897655 -0.03
         vertex 0.00843819 0.00897655 -0.0468127
      endloop
   endfacet
   facet normal 0.468408 0.883512 0
      outer loop
         vertex 0.00801634 0.00914462 -0.03
         vertex 0.00822271 0.00904915 -0.03
         vertex 0.00822271 0.00904915 -0.0468127
      endloop
   endfacet
   facet normal 0.561187 0.827689 0
      outer loop
         vertex 0.00782151 0.00926185 -0.03
         vertex 0.00801634 0.00914462 -0.03
         vertex 0.00801634 0.00914462 -0.0468127
      endloop
   endfacet
   facet normal 0.647386 0.762162 0
      outer loop
         vertex 0.00764049 0.00939946 -0.03
         vertex 0.00782151 0.00926185 -0.03
         vertex 0.00782151 0.00926185 -0.0468127
      endloop
   endfacet
   facet normal 0.725995 0.687699 0
      outer loop
         vertex 0.00747541 0.00955583 -0.03
         vertex 0.00764049 0.00939946 -0.03
         vertex 0.00764049 0.00939946 -0.0468127
      endloop
   endfacet
   facet normal 0.796093 0.605174 0
      outer loop
         vertex 0.0073282 0.00972913 -0.03
         vertex 0.00747541 0.00955583 -0.03
         vertex 0.00747541 0.00955583 -0.0468127
      endloop
   endfacet
   facet normal 0.856857 0.515554 0
      outer loop
         vertex 0.0072006 0.00991734 -0.03
         vertex 0.0073282 0.00972913 -0.03
         vertex 0.0073282 0.00972913 -0.0468127
      endloop
   endfacet
   facet normal 0.907575 0.419889 0
      outer loop
         vertex 0.00709409 0.0101182 -0.03
         vertex 0.0072006 0.00991734 -0.03
         vertex 0.0072006 0.00991734 -0.0468127
      endloop
   endfacet
   facet normal 0.947653 0.319302 0
      outer loop
         vertex 0.00700993 0.0103295 -0.03
         vertex 0.00709409 0.0101182 -0.03
         vertex 0.00709409 0.0101182 -0.0468127
      endloop
   endfacet
   facet normal 0.976621 0.21497 0
      outer loop
         vertex 0.0069491 0.0105486 -0.03
         vertex 0.00700993 0.0103295 -0.03
         vertex 0.00700993 0.0103295 -0.0468127
      endloop
   endfacet
   facet normal 0.994138 0.108119 0
      outer loop
         vertex 0.00691231 0.010773 -0.03
         vertex 0.0069491 0.0105486 -0.03
         vertex 0.0069491 0.0105486 -0.0468127
      endloop
   endfacet
   facet normal 1 -1.22465e-16 0
      outer loop
         vertex 0.0069 0.011 -0.03
         vertex 0.00691231 0.010773 -0.03
         vertex 0.00691231 0.010773 -0.0468127
      endloop
   endfacet
   facet normal 0.994138 -0.108119 0
      outer loop
         vertex 0.00691231 0.011227 -0.03
         vertex 0.0069 0.011 -0.03
         vertex 0.0069 0.011 -0.0468127
      endloop
   endfacet
   facet normal 0.976621 -0.21497 0
      outer loop
         vertex 0.0069491 0.0114514 -0.03
         vertex 0.00691231 0.011227 -0.03
         vertex 0.00691231 0.011227 -0.0468127
      endloop
   endfacet
   facet normal 0.947653 -0.319302 0
      outer loop
         vertex 0.00700993 0.0116705 -0.03
         vertex 0.0069491 0.0114514 -0.03
         vertex 0.0069491 0.0114514 -0.0468127
      endloop
   endfacet
   facet normal 0.907575 -0.419889 0
      outer loop
         vertex 0.00709409 0.0118818 -0.03
         vertex 0.00700993 0.0116705 -0.03
         vertex 0.00700993 0.0116705 -0.0468127
      endloop
   endfacet
   facet normal 0.856857 -0.515554 0
      outer loop
         vertex 0.0072006 0.0120827 -0.03
         vertex 0.00709409 0.0118818 -0.03
         vertex 0.00709409 0.0118818 -0.0468127
      endloop
   endfacet
   facet normal 0.796093 -0.605174 0
      outer loop
         vertex 0.0073282 0.0122709 -0.03
         vertex 0.0072006 0.0120827 -0.03
         vertex 0.0072006 0.0120827 -0.0468127
      endloop
   endfacet
   facet normal 0.725995 -0.687699 0
      outer loop
         vertex 0.00747541 0.0124442 -0.03
         vertex 0.0073282 0.0122709 -0.03
         vertex 0.0073282 0.0122709 -0.0468127
      endloop
   endfacet
   facet normal 0.647386 -0.762162 0
      outer loop
         vertex 0.00764049 0.0126005 -0.03
         vertex 0.00747541 0.0124442 -0.03
         vertex 0.00747541 0.0124442 -0.0468127
      endloop
   endfacet
   facet normal 0.561187 -0.827689 0
      outer loop
         vertex 0.00782151 0.0127381 -0.03
         vertex 0.00764049 0.0126005 -0.03
         vertex 0.00764049 0.0126005 -0.0468127
      endloop
   endfacet
   facet normal 0.468408 -0.883512 0
      outer loop
         vertex 0.00801634 0.0128554 -0.03
         vertex 0.00782151 0.0127381 -0.03
         vertex 0.00782151 0.0127381 -0.0468127
      endloop
   endfacet
   facet normal 0.370138 -0.928977 0
      outer loop
         vertex 0.00822271 0.0129509 -0.03
         vertex 0.00801634 0.0128554 -0.03
         vertex 0.00801634 0.0128554 -0.0468127
      endloop
   endfacet
   facet normal 0.267528 -0.96355 0
      outer loop
         vertex 0.00843819 0.0130235 -0.03
         vertex 0.00822271 0.0129509 -0.03
         vertex 0.00822271 0.0129509 -0.0468127
      endloop
   endfacet
   facet normal 0.161782 -0.986827 0
      outer loop
         vertex 0.00866026 0.0130723 -0.03
         vertex 0.00843819 0.0130235 -0.03
         vertex 0.00843819 0.0130235 -0.0468127
      endloop
   endfacet
   facet normal 0.0541389 -0.998533 0
      outer loop
         vertex 0.00888631 0.0130969 -0.03
         vertex 0.00866026 0.0130723 -0.03
         vertex 0.00866026 0.0130723 -0.0468127
      endloop
   endfacet
   facet normal -0.0541389 -0.998533 0
      outer loop
         vertex 0.00911369 0.0130969 -0.03
         vertex 0.00888631 0.0130969 -0.03
         vertex 0.00888631 0.0130969 -0.0468127
      endloop
   endfacet
   facet normal -0.161782 -0.986827 0
      outer loop
         vertex 0.00933974 0.0130723 -0.03
         vertex 0.00911369 0.0130969 -0.03
         vertex 0.00911369 0.0130969 -0.0468127
      endloop
   endfacet
   facet normal -0.267528 -0.96355 0
      outer loop
         vertex 0.00956181 0.0130235 -0.03
         vertex 0.00933974 0.0130723 -0.03
         vertex 0.00933974 0.0130723 -0.0468127
      endloop
   endfacet
   facet normal -0.370138 -0.928977 0
      outer loop
         vertex 0.00977729 0.0129509 -0.03
         vertex 0.00956181 0.0130235 -0.03
         vertex 0.00956181 0.0130235 -0.0468127
      endloop
   endfacet
   facet normal -0.468408 -0.883512 0
      outer loop
         vertex 0.00998366 0.0128554 -0.03
         vertex 0.00977729 0.0129509 -0.03
         vertex 0.00977729 0.0129509 -0.0468127
      endloop
   endfacet
   facet normal -0.561187 -0.827689 0
      outer loop
         vertex 0.0101785 0.0127381 -0.03
         vertex 0.00998366 0.0128554 -0.03
         vertex 0.00998366 0.0128554 -0.0468127
      endloop
   endfacet
   facet normal -0.647386 -0.762162 0
      outer loop
         vertex 0.0103595 0.0126005 -0.03
         vertex 0.0101785 0.0127381 -0.03
         vertex 0.0101785 0.0127381 -0.0468127
      endloop
   endfacet
   facet normal -0.725995 -0.687699 0
      outer loop
         vertex 0.0105246 0.0124442 -0.03
         vertex 0.0103595 0.0126005 -0.03
         vertex 0.0103595 0.0126005 -0.0468127
      endloop
   endfacet
   facet normal -0.796093 -0.605174 0
      outer loop
         vertex 0.0106718 0.0122709 -0.03
         vertex 0.0105246 0.0124442 -0.03
         vertex 0.0105246 0.0124442 -0.0468127
      endloop
   endfacet
   facet normal -0.856857 -0.515554 0
      outer loop
         vertex 0.0107994 0.0120827 -0.03
         vertex 0.0106718 0.0122709 -0.03
         vertex 0.0106718 0.0122709 -0.0468127
      endloop
   endfacet
   facet normal -0.907575 -0.419889 0
      outer loop
         vertex 0.0109059 0.0118818 -0.03
         vertex 0.0107994 0.0120827 -0.03
         vertex 0.0107994 0.0120827 -0.0468127
      endloop
   endfacet
   facet normal -0.947653 -0.319302 0
      outer loop
         vertex 0.0109901 0.0116705 -0.03
         vertex 0.0109059 0.0118818 -0.03
         vertex 0.0109059 0.0118818 -0.0468127
      endloop
   endfacet
   facet normal -0.976621 -0.21497 0
      outer loop
         vertex 0.0110509 0.0114514 -0.03
         vertex 0.0109901 0.0116705 -0.03
         vertex 0.0109901 0.0116705 -0.0468127
      endloop
   endfacet
   facet normal -0.994138 -0.108119 0
      outer loop
         vertex 0.0110877 0.011227 -0.03
         vertex 0.0110509 0.0114514 -0.03
         vertex 0.0110509 0.0114514 -0.0468127
      endloop
   endfacet
   facet normal -1 2.44929e-16 0
      outer loop
         vertex 0.0111 0.011 -0.03
         vertex 0.0110877 0.011227 -0.03
         vertex 0.0110877 0.011227 -0.0468127
      endloop
   endfacet
   facet normal -0.994138 -0.108119 0
      outer loop
         vertex 0.0110877 0.011227 -0.0468127
         vertex 0.0111 0.011 -0.0468127
         vertex 0.0111 0.011 -0.03
      endloop
   endfacet
   facet normal -0.976621 -0.21497 0
      outer loop
         vertex 0.0110509 0.0114514 -0.0468127
         vertex 0.0110877 0.011227 -0.0468127
         vertex 0.0110877 0.011227 -0.03
      endloop
   endfacet
   facet normal -0.947653 -0.319302 0
      outer loop
         vertex 0.0109901 0.0116705 -0.0468127
         vertex 0.0110509 0.0114514 -0.0468127
         vertex 0.0110509 0.0114514 -0.03
      endloop
   endfacet
   facet normal -0.907575 -0.419889 0
      outer loop
         vertex 0.0109059 0.0118818 -0.0468127
         vertex 0.0109901 0.0116705 -0.0468127
         vertex 0.0109901 0.0116705 -0.03
      endloop
   endfacet
   facet normal -0.856857 -0.515554 0
      outer loop
         vertex 0.0107994 0.0120827 -0.0468127
         vertex 0.0109059 0.0118818 -0.0468127
         vertex 0.0109059 0.0118818 -0.03
      endloop
   endfacet
   facet normal -0.796093 -0.605174 0
      outer loop
         vertex 0.0106718 0.0122709 -0.0468127
         vertex 0.0107994 0.0120827 -0.0468127
         vertex 0.0107994 0.0120827 -0.03
      endloop
   endfacet
   facet normal -0.725995 -0.687699 0
      outer loop
         vertex 0.0105246 0.0124442 -0.0468127
         vertex 0.0106718 0.0122709 -0.0468127
         vertex 0.0106718 0.0122709 -0.03
      endloop
   endfacet
   facet normal -0.647386 -0.762162 0
      outer loop
         vertex 0.0103595 0.0126005 -0.0468127
         vertex 0.0105246 0.0124442 -0.0468127
         vertex 0.0105246 0.0124442 -0.03
      endloop
   endfacet
   facet normal -0.561187 -0.827689 0
      outer loop
         vertex 0.0101785 0.0127381 -0.0468127
         vertex 0.0103595 0.0126005 -0.0468127
         vertex 0.0103595 0.0126005 -0.03
      endloop
   endfacet
   facet normal -0.468408 -0.883512 0
      outer loop
         vertex 0.00998366 0.0128554 -0.0468127
         vertex 0.0101785 0.0127381 -0.0468127
         vertex 0.0101785 0.0127381 -0.03
      endloop
   endfacet
   facet normal -0.370138 -0.928977 0
      outer loop
         vertex 0.00977729 0.0129509 -0.0468127
         vertex 0.00998366 0.0128554 -0.0468127
         vertex 0.00998366 0.0128554 -0.03
      endloop
   endfacet
   facet normal -0.267528 -0.96355 0
      outer loop
         vertex 0.00956181 0.0130235 -0.0468127
         vertex 0.00977729 0.0129509 -0.0468127
         vertex 0.00977729 0.0129509 -0.03
      endloop
   endfacet
   facet normal -0.161782 -0.986827 0
      outer loop
         vertex 0.00933974 0.0130723 -0.0468127
         vertex 0.00956181 0.0130235 -0.0468127
         vertex 0.00956181 0.0130235 -0.03
      endloop
   endfacet
   facet normal -0.0541389 -0.998533 0
      outer loop
         vertex 0.00911369 0.0130969 -0.0468127
         vertex 0.00933974 0.0130723 -0.0468127
         vertex 0.00933974 0.0130723 -0.03
      endloop
   endfacet
   facet normal 0.0541389 -0.998533 0
      outer loop
         vertex 0.00888631 0.0130969 -0.0468127
         vertex 0.00911369 0.0130969 -0.0468127
         vertex 0.00911369 0.0130969 -0.03
      endloop
   endfacet
   facet normal 0.161782 -0.986827 0
      outer loop
         vertex 0.00866026 0.0130723 -0.0468127
         vertex 0.00888631 0.0130969 -0.0468127
         vertex 0.00888631 0.0130969 -0.03
      endloop
   endfacet
   facet normal 0.267528 -0.96355 0
      outer loop
         vertex 0.00843819 0.0130235 -0.0468127
         vertex 0.00866026 0.0130723 -0.0468127
         vertex 0.00866026 0.0130723 -0.03
      endloop
   endfacet
   facet normal 0.370138 -0.928977 0
      outer loop
         vertex 0.00822271 0.0129509 -0.0468127
         vertex 0.00843819 0.0130235 -0.0468127
         vertex 0.00843819 0.0130235 -0.03
      endloop
   endfacet
   facet normal 0.468408 -0.883512 0
      outer loop
         vertex 0.00801634 0.0128554 -0.0468127
         vertex 0.00822271 0.0129509 -0.0468127
         vertex 0.00822271 0.0129509 -0.03
      endloop
   endfacet
   facet normal 0.561187 -0.827689 0
      outer loop
         vertex 0.00782151 0.0127381 -0.0468127
         vertex 0.00801634 0.0128554 -0.0468127
         vertex 0.00801634 0.0128554 -0.03
      endloop
   endfacet
   facet normal 0.647386 -0.762162 0
      outer loop
         vertex 0.00764049 0.0126005 -0.0468127
         vertex 0.00782151 0.0127381 -0.0468127
         vertex 0.00782151 0.0127381 -0.03
      endloop
   endfacet
   facet normal 0.725995 -0.687699 0
      outer loop
         vertex 0.00747541 0.0124442 -0.0468127
         vertex 0.00764049 0.0126005 -0.0468127
         vertex 0.00764049 0.0126005 -0.03
      endloop
   endfacet
   facet normal 0.796093 -0.605174 0
      outer loop
         vertex 0.0073282 0.0122709 -0.0468127
         vertex 0.00747541 0.0124442 -0.0468127
         vertex 0.00747541 0.0124442 -0.03
      endloop
   endfacet
   facet normal 0.856857 -0.515554 0
      outer loop
         vertex 0.0072006 0.0120827 -0.0468127
         vertex 0.0073282 0.0122709 -0.0468127
         vertex 0.0073282 0.0122709 -0.03
      endloop
   endfacet
   facet normal 0.907575 -0.419889 0
      outer loop
         vertex 0.00709409 0.0118818 -0.0468127
         vertex 0.0072006 0.0120827 -0.0468127
         vertex 0.0072006 0.0120827 -0.03
      endloop
   endfacet
   facet normal 0.947653 -0.319302 0
      outer loop
         vertex 0.00700993 0.0116705 -0.0468127
         vertex 0.00709409 0.0118818 -0.0468127
         vertex 0.00709409 0.0118818 -0.03
      endloop
   endfacet
   facet normal 0.976621 -0.21497 0
      outer loop
         vertex 0.0069491 0.0114514 -0.0468127
         vertex 0.00700993 0.0116705 -0.0468127
         vertex 0.00700993 0.0116705 -0.03
      endloop
   endfacet
   facet normal 0.994138 -0.108119 0
      outer loop
         vertex 0.00691231 0.011227 -0.0468127
         vertex 0.0069491 0.0114514 -0.0468127
         vertex 0.0069491 0.0114514 -0.03
      endloop
   endfacet
   facet normal 1 -1.22465e-16 0
      outer loop
         vertex 0.0069 0.011 -0.0468127
         vertex 0.00691231 0.011227 -0.0468127
         vertex 0.00691231 0.011227 -0.03
      endloop
   endfacet
   facet normal 0.994138 0.108119 0
      outer loop
         vertex 0.00691231 0.010773 -0.0468127
         vertex 0.0069 0.011 -0.0468127
         vertex 0.0069 0.011 -0.03
      endloop
   endfacet
   facet normal 0.976621 0.21497 0
      outer loop
         vertex 0.0069491 0.0105486 -0.0468127
         vertex 0.00691231 0.010773 -0.0468127
         vertex 0.00691231 0.010773 -0.03
      endloop
   endfacet
   facet normal 0.947653 0.319302 0
      outer loop
         vertex 0.00700993 0.0103295 -0.0468127
         vertex 0.0069491 0.0105486 -0.0468127
         vertex 0.0069491 0.0105486 -0.03
      endloop
   endfacet
   facet normal 0.907575 0.419889 0
      outer loop
         vertex 0.00709409 0.0101182 -0.0468127
         vertex 0.00700993 0.0103295 -0.0468127
         vertex 0.00700993 0.0103295 -0.03
      endloop
   endfacet
   facet normal 0.856857 0.515554 0
      outer loop
         vertex 0.0072006 0.00991734 -0.0468127
         vertex 0.00709409 0.0101182 -0.0468127
         vertex 0.00709409 0.0101182 -0.03
      endloop
   endfacet
   facet normal 0.796093 0.605174 0
      outer loop
         vertex 0.0073282 0.00972913 -0.0468127
         vertex 0.0072006 0.00991734 -0.0468127
         vertex 0.0072006 0.00991734 -0.03
      endloop
   endfacet
   facet normal 0.725995 0.687699 0
      outer loop
         vertex 0.00747541 0.00955583 -0.0468127
         vertex 0.0073282 0.00972913 -0.0468127
         vertex 0.0073282 0.00972913 -0.03
      endloop
   endfacet
   facet normal 0.647386 0.762162 0
      outer loop
         vertex 0.00764049 0.00939946 -0.0468127
         vertex 0.00747541 0.00955583 -0.0468127
         vertex 0.00747541 0.00955583 -0.03
      endloop
   endfacet
   facet normal 0.561187 0.827689 0
      outer loop
         vertex 0.00782151 0.00926185 -0.0468127
         vertex 0.00764049 0.00939946 -0.0468127
         vertex 0.00764049 0.00939946 -0.03
      endloop
   endfacet
   facet normal 0.468408 0.883512 0
      outer loop
         vertex 0.00801634 0.00914462 -0.0468127
         vertex 0.00782151 0.00926185 -0.0468127
         vertex 0.00782151 0.00926185 -0.03
      endloop
   endfacet
   facet normal 0.370138 0.928977 0
      outer loop
         vertex 0.00822271 0.00904915 -0.0468127
         vertex 0.00801634 0.00914462 -0.0468127
         vertex 0.00801634 0.00914462 -0.03
      endloop
   endfacet
   facet normal 0.267528 0.96355 0
      outer loop
         vertex 0.00843819 0.00897655 -0.0468127
         vertex 0.00822271 0.00904915 -0.0468127
         vertex 0.00822271 0.00904915 -0.03
      endloop
   endfacet
   facet normal 0.161782 0.986827 0
      outer loop
         vertex 0.00866026 0.00892766 -0.0468127
         vertex 0.00843819 0.00897655 -0.0468127
         vertex 0.00843819 0.00897655 -0.03
      endloop
   endfacet
   facet normal 0.0541389 0.998533 0
      outer loop
         vertex 0.00888631 0.00890308 -0.0468127
         vertex 0.00866026 0.00892766 -0.0468127
         vertex 0.00866026 0.00892766 -0.03
      endloop
   endfacet
   facet normal -0.0541389 0.998533 0
      outer loop
         vertex 0.00911369 0.00890308 -0.0468127
         vertex 0.00888631 0.00890308 -0.0468127
         vertex 0.00888631 0.00890308 -0.03
      endloop
   endfacet
   facet normal -0.161782 0.986827 0
      outer loop
         vertex 0.00933974 0.00892766 -0.0468127
         vertex 0.00911369 0.00890308 -0.0468127
         vertex 0.00911369 0.00890308 -0.03
      endloop
   endfacet
   facet normal -0.267528 0.96355 0
      outer loop
         vertex 0.00956181 0.00897655 -0.0468127
         vertex 0.00933974 0.00892766 -0.0468127
         vertex 0.00933974 0.00892766 -0.03
      endloop
   endfacet
   facet normal -0.370138 0.928977 0
      outer loop
         vertex 0.00977729 0.00904915 -0.0468127
         vertex 0.00956181 0.00897655 -0.0468127
         vertex 0.00956181 0.00897655 -0.03
      endloop
   endfacet
   facet normal -0.468408 0.883512 0
      outer loop
         vertex 0.00998366 0.00914462 -0.0468127
         vertex 0.00977729 0.00904915 -0.0468127
         vertex 0.00977729 0.00904915 -0.03
      endloop
   endfacet
   facet normal -0.561187 0.827689 0
      outer loop
         vertex 0.0101785 0.00926185 -0.0468127
         vertex 0.00998366 0.00914462 -0.0468127
         vertex 0.00998366 0.00914462 -0.03
      endloop
   endfacet
   facet normal -0.647386 0.762162 0
      outer loop
         vertex 0.0103595 0.00939946 -0.0468127
         vertex 0.0101785 0.00926185 -0.0468127
         vertex 0.0101785 0.00926185 -0.03
      endloop
   endfacet
   facet normal -0.725995 0.687699 0
      outer loop
         vertex 0.0105246 0.00955583 -0.0468127
         vertex 0.0103595 0.00939946 -0.0468127
         vertex 0.0103595 0.00939946 -0.03
      endloop
   endfacet
   facet normal -0.796093 0.605174 0
      outer loop
         vertex 0.0106718 0.00972913 -0.0468127
         vertex 0.0105246 0.00955583 -0.0468127
         vertex 0.0105246 0.00955583 -0.03
      endloop
   endfacet
   facet normal -0.856857 0.515554 0
      outer loop
         vertex 0.0107994 0.00991734 -0.0468127
         vertex 0.0106718 0.00972913 -0.0468127
         vertex 0.0106718 0.00972913 -0.03
      endloop
   endfacet
   facet normal -0.907575 0.419889 0
      outer loop
         vertex 0.0109059 0.0101182 -0.0468127
         vertex 0.0107994 0.00991734 -0.0468127
         vertex 0.0107994 0.00991734 -0.03
      endloop
   endfacet
   facet normal -0.947653 0.319302 0
      outer loop
         vertex 0.0109901 0.0103295 -0.0468127
         vertex 0.0109059 0.0101182 -0.0468127
         vertex 0.0109059 0.0101182 -0.03
      endloop
   endfacet
   facet normal -0.976621 0.21497 0
      outer loop
         vertex 0.0110509 0.0105486 -0.0468127
         vertex 0.0109901 0.0103295 -0.0468127
         vertex 0.0109901 0.0103295 -0.03
      endloop
   endfacet
   facet normal -0.994138 0.108119 0
      outer loop
         vertex 0.0110877 0.010773 -0.0468127
         vertex 0.0110509 0.0105486 -0.0468127
         vertex 0.0110509 0.0105486 -0.03
      endloop
   endfacet
   facet normal -1 2.44929e-16 0
      outer loop
         vertex 0.0111 0.011 -0.0468127
         vertex 0.0110877 0.010773 -0.0468127
         vertex 0.0110877 0.010773 -0.03
      endloop
   endfacet
   facet normal 0 0 -1
      outer loop
         vertex 0.0110207 0.0075 -0.0468127
         vertex 0.00956181 0.00897655 -0.0468127
         vertex 0.00977729 0.00904915 -0.0468127
      endloop
   endfacet
   facet normal 0 0 -1
      outer loop
         vertex 0.00977729 0.00904915 -0.0468127
         vertex 0.00998366 0.00914462 -0.0468127
         vertex 0.0110207 0.0075 -0.0468127
      endloop
   endfacet
   facet normal 0 0 -1
      outer loop
         vertex 0.0110207 0.0075 -0.0468127
         vertex 0.00911369 0.00890308 -0.0468127
         vertex 0.00933974 0.00892766 -0.0468127
      endloop
   endfacet
   facet normal 0 0 -1
      outer loop
         vertex 0.00697927 0.0075 -0.0468127
         vertex 0.00888631 0.00890308 -0.0468127
         vertex 0.00911369 0.00890308 -0.0468127
      endloop
   endfacet
   facet normal 0 0 -1
      outer loop
         vertex 0.00697927 0.0075 -0.0468127
         vertex 0.00843819 0.00897655 -0.0468127
         vertex 0.00866026 0.00892766 -0.0468127
      endloop
   endfacet
   facet normal 0 0 -1
      outer loop
         vertex 0.00933974 0.00892766 -0.0468127
         vertex 0.00956181 0.00897655 -0.0468127
         vertex 0.0110207 0.0075 -0.0468127
      endloop
   endfacet
   facet normal 0 0 -1
      outer loop
         vertex 0.00866026 0.00892766 -0.0468127
         vertex 0.00888631 0.00890308 -0.0468127
         vertex 0.00697927 0.0075 -0.0468127
      endloop
   endfacet
   facet normal 0 0 -1
      outer loop
         vertex 0.00911369 0.00890308 -0.0468127
         vertex 0.0110207 0.0075 -0.0468127
         vertex 0.00697927 0.0075 -0.0468127
      endloop
   endfacet
   facet normal 0 0 -1
      outer loop
         vertex 0.0110207 0.0075 -0.0468127
         vertex 0.0101785 0.00926185 -0.0468127
         vertex 0.0103595 0.00939946 -0.0468127
      endloop
   endfacet
   facet normal 0 0 -1
      outer loop
         vertex 0.00697927 0.0075 -0.0468127
         vertex 0.00822271 0.00904915 -0.0468127
         vertex 0.00843819 0.00897655 -0.0468127
      endloop
   endfacet
   facet normal 0 0 -1
      outer loop
         vertex 0.00495855 0.011 -0.0468127
         vertex 0.00697927 0.0145 -0.0468127
         vertex 0.0072006 0.0120827 -0.0468127
      endloop
   endfacet
   facet normal 0 0 -1
      outer loop
         vertex 0.00697927 0.0145 -0.0468127
         vertex 0.00888631 0.0130969 -0.0468127
         vertex 0.00866026 0.0130723 -0.0468127
      endloop
   endfacet
   facet normal 0 0 -1
      outer loop
         vertex 0.00697927 0.0145 -0.0468127
         vertex 0.0110207 0.0145 -0.0468127
         vertex 0.00911369 0.0130969 -0.0468127
      endloop
   endfacet
   facet normal 0 0 -1
      outer loop
         vertex 0.0130415 0.011 -0.0468127
         vertex 0.0109059 0.0118818 -0.0468127
         vertex 0.0107994 0.0120827 -0.0468127
      endloop
   endfacet
   facet normal 0 0 -1
      outer loop
         vertex 0.0130415 0.011 -0.0468127
         vertex 0.0109059 0.0101182 -0.0468127
         vertex 0.0109901 0.0103295 -0.0468127
      endloop
   endfacet
   facet normal 0 0 -1
      outer loop
         vertex 0.0130415 0.011 -0.0468127
         vertex 0.0110207 0.0075 -0.0468127
         vertex 0.0107994 0.00991734 -0.0468127
      endloop
   endfacet
   facet normal 0 0 -1
      outer loop
         vertex 0.0110207 0.0075 -0.0468127
         vertex 0.0105246 0.00955583 -0.0468127
         vertex 0.0106718 0.00972913 -0.0468127
      endloop
   endfacet
   facet normal 0 0 -1
      outer loop
         vertex 0.00998366 0.00914462 -0.0468127
         vertex 0.0101785 0.00926185 -0.0468127
         vertex 0.0110207 0.0075 -0.0468127
      endloop
   endfacet
   facet normal 0 0 -1
      outer loop
         vertex 0.00697927 0.0075 -0.0468127
         vertex 0.00782151 0.00926185 -0.0468127
         vertex 0.00801634 0.00914462 -0.0468127
      endloop
   endfacet
   facet normal 0 0 -1
      outer loop
         vertex 0.00495855 0.011 -0.0468127
         vertex 0.00700993 0.0116705 -0.0468127
         vertex 0.0069491 0.0114514 -0.0468127
      endloop
   endfacet
   facet normal 0 0 -1
      outer loop
         vertex 0.00697927 0.0145 -0.0468127
         vertex 0.0073282 0.0122709 -0.0468127
         vertex 0.0072006 0.0120827 -0.0468127
      endloop
   endfacet
   facet normal 0 0 -1
      outer loop
         vertex 0.00697927 0.0145 -0.0468127
         vertex 0.00822271 0.0129509 -0.0468127
         vertex 0.00801634 0.0128554 -0.0468127
      endloop
   endfacet
   facet normal 0 0 -1
      outer loop
         vertex 0.00911369 0.0130969 -0.0468127
         vertex 0.00888631 0.0130969 -0.0468127
         vertex 0.00697927 0.0145 -0.0468127
      endloop
   endfacet
   facet normal 0 0 -1
      outer loop
         vertex 0.0110207 0.0145 -0.0468127
         vertex 0.00956181 0.0130235 -0.0468127
         vertex 0.00933974 0.0130723 -0.0468127
      endloop
   endfacet
   facet normal 0 0 -1
      outer loop
         vertex 0.0130415 0.011 -0.0468127
         vertex 0.0109901 0.0116705 -0.0468127
         vertex 0.0109059 0.0118818 -0.0468127
      endloop
   endfacet
   facet normal 0 0 -1
      outer loop
         vertex 0.0109901 0.0103295 -0.0468127
         vertex 0.0110509 0.0105486 -0.0468127
         vertex 0.0130415 0.011 -0.0468127
      endloop
   endfacet
   facet normal 0 0 -1
      outer loop
         vertex 0.0106718 0.00972913 -0.0468127
         vertex 0.0107994 0.00991734 -0.0468127
         vertex 0.0110207 0.0075 -0.0468127
      endloop
   endfacet
   facet normal 0 0 -1
      outer loop
         vertex 0.00801634 0.00914462 -0.0468127
         vertex 0.00822271 0.00904915 -0.0468127
         vertex 0.00697927 0.0075 -0.0468127
      endloop
   endfacet
   facet normal 0 0 -1
      outer loop
         vertex 0.00697927 0.0075 -0.0468127
         vertex 0.00747541 0.00955583 -0.0468127
         vertex 0.00764049 0.00939946 -0.0468127
      endloop
   endfacet
   facet normal 0 0 -1
      outer loop
         vertex 0.00495855 0.011 -0.0468127
         vertex 0.00709409 0.0118818 -0.0468127
         vertex 0.00700993 0.0116705 -0.0468127
      endloop
   endfacet
   facet normal 0 0 -1
      outer loop
         vertex 0.00697927 0.0145 -0.0468127
         vertex 0.00747541 0.0124442 -0.0468127
         vertex 0.0073282 0.0122709 -0.0468127
      endloop
   endfacet
   facet normal 0 0 -1
      outer loop
         vertex 0.00697927 0.0145 -0.0468127
         vertex 0.00843819 0.0130235 -0.0468127
         vertex 0.00822271 0.0129509 -0.0468127
      endloop
   endfacet
   facet normal 0 0 -1
      outer loop
         vertex 0.00933974 0.0130723 -0.0468127
         vertex 0.00911369 0.0130969 -0.0468127
         vertex 0.0110207 0.0145 -0.0468127
      endloop
   endfacet
   facet normal 0 0 -1
      outer loop
         vertex 0.0110207 0.0145 -0.0468127
         vertex 0.0101785 0.0127381 -0.0468127
         vertex 0.00998366 0.0128554 -0.0468127
      endloop
   endfacet
   facet normal 0 0 -1
      outer loop
         vertex 0.0107994 0.0120827 -0.0468127
         vertex 0.0110207 0.0145 -0.0468127
         vertex 0.0130415 0.011 -0.0468127
      endloop
   endfacet
   facet normal 0 0 -1
      outer loop
         vertex 0.0107994 0.00991734 -0.0468127
         vertex 0.0109059 0.0101182 -0.0468127
         vertex 0.0130415 0.011 -0.0468127
      endloop
   endfacet
   facet normal 0 0 -1
      outer loop
         vertex 0.00764049 0.00939946 -0.0468127
         vertex 0.00782151 0.00926185 -0.0468127
         vertex 0.00697927 0.0075 -0.0468127
      endloop
   endfacet
   facet normal 0 0 -1
      outer loop
         vertex 0.00495855 0.011 -0.0468127
         vertex 0.00709409 0.0101182 -0.0468127
         vertex 0.0072006 0.00991734 -0.0468127
      endloop
   endfacet
   facet normal 0 0 -1
      outer loop
         vertex 0.0072006 0.0120827 -0.0468127
         vertex 0.00709409 0.0118818 -0.0468127
         vertex 0.00495855 0.011 -0.0468127
      endloop
   endfacet
   facet normal 0 0 -1
      outer loop
         vertex 0.00866026 0.0130723 -0.0468127
         vertex 0.00843819 0.0130235 -0.0468127
         vertex 0.00697927 0.0145 -0.0468127
      endloop
   endfacet
   facet normal 0 0 -1
      outer loop
         vertex 0.00998366 0.0128554 -0.0468127
         vertex 0.00977729 0.0129509 -0.0468127
         vertex 0.0110207 0.0145 -0.0468127
      endloop
   endfacet
   facet normal 0 0 -1
      outer loop
         vertex 0.0110207 0.0145 -0.0468127
         vertex 0.0106718 0.0122709 -0.0468127
         vertex 0.0105246 0.0124442 -0.0468127
      endloop
   endfacet
   facet normal 0 0 -1
      outer loop
         vertex 0.0130415 0.011 -0.0468127
         vertex 0.0110509 0.0114514 -0.0468127
         vertex 0.0109901 0.0116705 -0.0468127
      endloop
   endfacet
   facet normal 0 0 -1
      outer loop
         vertex 0.0130415 0.011 -0.0468127
         vertex 0.0110877 0.010773 -0.0468127
         vertex 0.0111 0.011 -0.0468127
      endloop
   endfacet
   facet normal 0 0 -1
      outer loop
         vertex 0.0103595 0.00939946 -0.0468127
         vertex 0.0105246 0.00955583 -0.0468127
         vertex 0.0110207 0.0075 -0.0468127
      endloop
   endfacet
   facet normal 0 0 -1
      outer loop
         vertex 0.00697927 0.0075 -0.0468127
         vertex 0.0072006 0.00991734 -0.0468127
         vertex 0.0073282 0.00972913 -0.0468127
      endloop
   endfacet
   facet normal 0 0 -1
      outer loop
         vertex 0.00495855 0.011 -0.0468127
         vertex 0.00700993 0.0103295 -0.0468127
         vertex 0.00709409 0.0101182 -0.0468127
      endloop
   endfacet
   facet normal 0 0 -1
      outer loop
         vertex 0.00495855 0.011 -0.0468127
         vertex 0.00691231 0.010773 -0.0468127
         vertex 0.0069491 0.0105486 -0.0468127
      endloop
   endfacet
   facet normal 0 0 -1
      outer loop
         vertex 0.0069491 0.0114514 -0.0468127
         vertex 0.00691231 0.011227 -0.0468127
         vertex 0.00495855 0.011 -0.0468127
      endloop
   endfacet
   facet normal 0 0 -1
      outer loop
         vertex 0.00697927 0.0145 -0.0468127
         vertex 0.00782151 0.0127381 -0.0468127
         vertex 0.00764049 0.0126005 -0.0468127
      endloop
   endfacet
   facet normal 0 0 -1
      outer loop
         vertex 0.00977729 0.0129509 -0.0468127
         vertex 0.00956181 0.0130235 -0.0468127
         vertex 0.0110207 0.0145 -0.0468127
      endloop
   endfacet
   facet normal 0 0 -1
      outer loop
         vertex 0.0105246 0.0124442 -0.0468127
         vertex 0.0103595 0.0126005 -0.0468127
         vertex 0.0110207 0.0145 -0.0468127
      endloop
   endfacet
   facet normal 0 0 -1
      outer loop
         vertex 0.0130415 0.011 -0.0468127
         vertex 0.0110877 0.011227 -0.0468127
         vertex 0.0110509 0.0114514 -0.0468127
      endloop
   endfacet
   facet normal 0 0 -1
      outer loop
         vertex 0.0110509 0.0105486 -0.0468127
         vertex 0.0110877 0.010773 -0.0468127
         vertex 0.0130415 0.011 -0.0468127
      endloop
   endfacet
   facet normal 0 0 -1
      outer loop
         vertex 0.0072006 0.00991734 -0.0468127
         vertex 0.00697927 0.0075 -0.0468127
         vertex 0.00495855 0.011 -0.0468127
      endloop
   endfacet
   facet normal 0 0 -1
      outer loop
         vertex 0.00495855 0.011 -0.0468127
         vertex 0.0069 0.011 -0.0468127
         vertex 0.00691231 0.010773 -0.0468127
      endloop
   endfacet
   facet normal 0 0 -1
      outer loop
         vertex 0.00764049 0.0126005 -0.0468127
         vertex 0.00747541 0.0124442 -0.0468127
         vertex 0.00697927 0.0145 -0.0468127
      endloop
   endfacet
   facet normal 0 0 -1
      outer loop
         vertex 0.0103595 0.0126005 -0.0468127
         vertex 0.0101785 0.0127381 -0.0468127
         vertex 0.0110207 0.0145 -0.0468127
      endloop
   endfacet
   facet normal 0 0 -1
      outer loop
         vertex 0.0111 0.011 -0.0468127
         vertex 0.0110877 0.011227 -0.0468127
         vertex 0.0130415 0.011 -0.0468127
      endloop
   endfacet
   facet normal 0 0 -1
      outer loop
         vertex 0.0069491 0.0105486 -0.0468127
         vertex 0.00700993 0.0103295 -0.0468127
         vertex 0.00495855 0.011 -0.0468127
      endloop
   endfacet
   facet normal 0 0 -1
      outer loop
         vertex 0.00801634 0.0128554 -0.0468127
         vertex 0.00782151 0.0127381 -0.0468127
         vertex 0.00697927 0.0145 -0.0468127
      endloop
   endfacet
   facet normal 0 0 -1
      outer loop
         vertex 0.0073282 0.00972913 -0.0468127
         vertex 0.00747541 0.00955583 -0.0468127
         vertex 0.00697927 0.0075 -0.0468127
      endloop
   endfacet
   facet normal 0 0 -1
      outer loop
         vertex 0.0107994 0.0120827 -0.0468127
         vertex 0.0106718 0.0122709 -0.0468127
         vertex 0.0110207 0.0145 -0.0468127
      endloop
   endfacet
   facet normal 0 0 -1
      outer loop
         vertex 0.00691231 0.011227 -0.0468127
         vertex 0.0069 0.011 -0.0468127
         vertex 0.00495855 0.011 -0.0468127
      endloop
   endfacet
   facet normal 0 0 1
      outer loop
         vertex 0.0110207 0.0075 -0.03
         vertex 0.00998366 0.00914462 -0.03
         vertex 0.00977729 0.00904915 -0.03
      endloop
   endfacet
   facet normal 0 0 1
      outer loop
         vertex 0.00495855 0.011 -0.03
         vertex 0.00709409 0.0118818 -0.03
         vertex 0.0072006 0.0120827 -0.03
      endloop
   endfacet
   facet normal 0 0 1
      outer loop
         vertex 0.00697927 0.0075 -0.03
         vertex 0.00888631 0.00890308 -0.03
         vertex 0.00866026 0.00892766 -0.03
      endloop
   endfacet
   facet normal 0 0 1
      outer loop
         vertex 0.00697927 0.0075 -0.03
         vertex 0.0110207 0.0075 -0.03
         vertex 0.00911369 0.00890308 -0.03
      endloop
   endfacet
   facet normal 0 0 1
      outer loop
         vertex 0.0110207 0.0075 -0.03
         vertex 0.00956181 0.00897655 -0.03
         vertex 0.00933974 0.00892766 -0.03
      endloop
   endfacet
   facet normal 0 0 1
      outer loop
         vertex 0.0110207 0.0075 -0.03
         vertex 0.0101785 0.00926185 -0.03
         vertex 0.00998366 0.00914462 -0.03
      endloop
   endfacet
   facet normal 0 0 1
      outer loop
         vertex 0.0072006 0.0120827 -0.03
         vertex 0.00697927 0.0145 -0.03
         vertex 0.00495855 0.011 -0.03
      endloop
   endfacet
   facet normal 0 0 1
      outer loop
         vertex 0.00495855 0.011 -0.03
         vertex 0.00691231 0.011227 -0.03
         vertex 0.0069491 0.0114514 -0.03
      endloop
   endfacet
   facet normal 0 0 1
      outer loop
         vertex 0.00911369 0.00890308 -0.03
         vertex 0.00888631 0.00890308 -0.03
         vertex 0.00697927 0.0075 -0.03
      endloop
   endfacet
   facet normal 0 0 1
      outer loop
         vertex 0.00977729 0.00904915 -0.03
         vertex 0.00956181 0.00897655 -0.03
         vertex 0.0110207 0.0075 -0.03
      endloop
   endfacet
   facet normal 0 0 1
      outer loop
         vertex 0.0110207 0.0145 -0.03
         vertex 0.00911369 0.0130969 -0.03
         vertex 0.00933974 0.0130723 -0.03
      endloop
   endfacet
   facet normal 0 0 1
      outer loop
         vertex 0.00697927 0.0145 -0.03
         vertex 0.00888631 0.0130969 -0.03
         vertex 0.00911369 0.0130969 -0.03
      endloop
   endfacet
   facet normal 0 0 1
      outer loop
         vertex 0.0072006 0.0120827 -0.03
         vertex 0.0073282 0.0122709 -0.03
         vertex 0.00697927 0.0145 -0.03
      endloop
   endfacet
   facet normal 0 0 1
      outer loop
         vertex 0.0069491 0.0114514 -0.03
         vertex 0.00700993 0.0116705 -0.03
         vertex 0.00495855 0.011 -0.03
      endloop
   endfacet
   facet normal 0 0 1
      outer loop
         vertex 0.00697927 0.0075 -0.03
         vertex 0.00782151 0.00926185 -0.03
         vertex 0.00764049 0.00939946 -0.03
      endloop
   endfacet
   facet normal 0 0 1
      outer loop
         vertex 0.00697927 0.0075 -0.03
         vertex 0.00822271 0.00904915 -0.03
         vertex 0.00801634 0.00914462 -0.03
      endloop
   endfacet
   facet normal 0 0 1
      outer loop
         vertex 0.00933974 0.00892766 -0.03
         vertex 0.00911369 0.00890308 -0.03
         vertex 0.0110207 0.0075 -0.03
      endloop
   endfacet
   facet normal 0 0 1
      outer loop
         vertex 0.0110207 0.0145 -0.03
         vertex 0.00977729 0.0129509 -0.03
         vertex 0.00998366 0.0128554 -0.03
      endloop
   endfacet
   facet normal 0 0 1
      outer loop
         vertex 0.00911369 0.0130969 -0.03
         vertex 0.0110207 0.0145 -0.03
         vertex 0.00697927 0.0145 -0.03
      endloop
   endfacet
   facet normal 0 0 1
      outer loop
         vertex 0.00697927 0.0145 -0.03
         vertex 0.00843819 0.0130235 -0.03
         vertex 0.00866026 0.0130723 -0.03
      endloop
   endfacet
   facet normal 0 0 1
      outer loop
         vertex 0.00697927 0.0145 -0.03
         vertex 0.00747541 0.0124442 -0.03
         vertex 0.00764049 0.0126005 -0.03
      endloop
   endfacet
   facet normal 0 0 1
      outer loop
         vertex 0.00700993 0.0116705 -0.03
         vertex 0.00709409 0.0118818 -0.03
         vertex 0.00495855 0.011 -0.03
      endloop
   endfacet
   facet normal 0 0 1
      outer loop
         vertex 0.00801634 0.00914462 -0.03
         vertex 0.00782151 0.00926185 -0.03
         vertex 0.00697927 0.0075 -0.03
      endloop
   endfacet
   facet normal 0 0 1
      outer loop
         vertex 0.00866026 0.00892766 -0.03
         vertex 0.00843819 0.00897655 -0.03
         vertex 0.00697927 0.0075 -0.03
      endloop
   endfacet
   facet normal 0 0 1
      outer loop
         vertex 0.0130415 0.011 -0.03
         vertex 0.0110207 0.0145 -0.03
         vertex 0.0107994 0.0120827 -0.03
      endloop
   endfacet
   facet normal 0 0 1
      outer loop
         vertex 0.0110207 0.0145 -0.03
         vertex 0.00956181 0.0130235 -0.03
         vertex 0.00977729 0.0129509 -0.03
      endloop
   endfacet
   facet normal 0 0 1
      outer loop
         vertex 0.00866026 0.0130723 -0.03
         vertex 0.00888631 0.0130969 -0.03
         vertex 0.00697927 0.0145 -0.03
      endloop
   endfacet
   facet normal 0 0 1
      outer loop
         vertex 0.00697927 0.0145 -0.03
         vertex 0.00782151 0.0127381 -0.03
         vertex 0.00801634 0.0128554 -0.03
      endloop
   endfacet
   facet normal 0 0 1
      outer loop
         vertex 0.0073282 0.0122709 -0.03
         vertex 0.00747541 0.0124442 -0.03
         vertex 0.00697927 0.0145 -0.03
      endloop
   endfacet
   facet normal 0 0 1
      outer loop
         vertex 0.00495855 0.011 -0.03
         vertex 0.00691231 0.010773 -0.03
         vertex 0.0069 0.011 -0.03
      endloop
   endfacet
   facet normal 0 0 1
      outer loop
         vertex 0.00495855 0.011 -0.03
         vertex 0.00697927 0.0075 -0.03
         vertex 0.0072006 0.00991734 -0.03
      endloop
   endfacet
   facet normal 0 0 1
      outer loop
         vertex 0.00843819 0.00897655 -0.03
         vertex 0.00822271 0.00904915 -0.03
         vertex 0.00697927 0.0075 -0.03
      endloop
   endfacet
   facet normal 0 0 1
      outer loop
         vertex 0.0110207 0.0075 -0.03
         vertex 0.0105246 0.00955583 -0.03
         vertex 0.0103595 0.00939946 -0.03
      endloop
   endfacet
   facet normal 0 0 1
      outer loop
         vertex 0.0110207 0.0075 -0.03
         vertex 0.0107994 0.00991734 -0.03
         vertex 0.0106718 0.00972913 -0.03
      endloop
   endfacet
   facet normal 0 0 1
      outer loop
         vertex 0.0130415 0.011 -0.03
         vertex 0.0109059 0.0101182 -0.03
         vertex 0.0107994 0.00991734 -0.03
      endloop
   endfacet
   facet normal 0 0 1
      outer loop
         vertex 0.0107994 0.0120827 -0.03
         vertex 0.0109059 0.0118818 -0.03
         vertex 0.0130415 0.011 -0.03
      endloop
   endfacet
   facet normal 0 0 1
      outer loop
         vertex 0.0110207 0.0145 -0.03
         vertex 0.0103595 0.0126005 -0.03
         vertex 0.0105246 0.0124442 -0.03
      endloop
   endfacet
   facet normal 0 0 1
      outer loop
         vertex 0.00933974 0.0130723 -0.03
         vertex 0.00956181 0.0130235 -0.03
         vertex 0.0110207 0.0145 -0.03
      endloop
   endfacet
   facet normal 0 0 1
      outer loop
         vertex 0.00801634 0.0128554 -0.03
         vertex 0.00822271 0.0129509 -0.03
         vertex 0.00697927 0.0145 -0.03
      endloop
   endfacet
   facet normal 0 0 1
      outer loop
         vertex 0.0069 0.011 -0.03
         vertex 0.00691231 0.011227 -0.03
         vertex 0.00495855 0.011 -0.03
      endloop
   endfacet
   facet normal 0 0 1
      outer loop
         vertex 0.00495855 0.011 -0.03
         vertex 0.00700993 0.0103295 -0.03
         vertex 0.0069491 0.0105486 -0.03
      endloop
   endfacet
   facet normal 0 0 1
      outer loop
         vertex 0.0072006 0.00991734 -0.03
         vertex 0.00709409 0.0101182 -0.03
         vertex 0.00495855 0.011 -0.03
      endloop
   endfacet
   facet normal 0 0 1
      outer loop
         vertex 0.00697927 0.0075 -0.03
         vertex 0.00747541 0.00955583 -0.03
         vertex 0.0073282 0.00972913 -0.03
      endloop
   endfacet
   facet normal 0 0 1
      outer loop
         vertex 0.0103595 0.00939946 -0.03
         vertex 0.0101785 0.00926185 -0.03
         vertex 0.0110207 0.0075 -0.03
      endloop
   endfacet
   facet normal 0 0 1
      outer loop
         vertex 0.0107994 0.00991734 -0.03
         vertex 0.0110207 0.0075 -0.03
         vertex 0.0130415 0.011 -0.03
      endloop
   endfacet
   facet normal 0 0 1
      outer loop
         vertex 0.0130415 0.011 -0.03
         vertex 0.0110509 0.0105486 -0.03
         vertex 0.0109901 0.0103295 -0.03
      endloop
   endfacet
   facet normal 0 0 1
      outer loop
         vertex 0.0109059 0.0118818 -0.03
         vertex 0.0109901 0.0116705 -0.03
         vertex 0.0130415 0.011 -0.03
      endloop
   endfacet
   facet normal 0 0 1
      outer loop
         vertex 0.0110207 0.0145 -0.03
         vertex 0.0101785 0.0127381 -0.03
         vertex 0.0103595 0.0126005 -0.03
      endloop
   endfacet
   facet normal 0 0 1
      outer loop
         vertex 0.00822271 0.0129509 -0.03
         vertex 0.00843819 0.0130235 -0.03
         vertex 0.00697927 0.0145 -0.03
      endloop
   endfacet
   facet normal 0 0 1
      outer loop
         vertex 0.0069491 0.0105486 -0.03
         vertex 0.00691231 0.010773 -0.03
         vertex 0.00495855 0.011 -0.03
      endloop
   endfacet
   facet normal 0 0 1
      outer loop
         vertex 0.0073282 0.00972913 -0.03
         vertex 0.0072006 0.00991734 -0.03
         vertex 0.00697927 0.0075 -0.03
      endloop
   endfacet
   facet normal 0 0 1
      outer loop
         vertex 0.0106718 0.00972913 -0.03
         vertex 0.0105246 0.00955583 -0.03
         vertex 0.0110207 0.0075 -0.03
      endloop
   endfacet
   facet normal 0 0 1
      outer loop
         vertex 0.0130415 0.011 -0.03
         vertex 0.0110877 0.010773 -0.03
         vertex 0.0110509 0.0105486 -0.03
      endloop
   endfacet
   facet normal 0 0 1
      outer loop
         vertex 0.0110207 0.0145 -0.03
         vertex 0.0106718 0.0122709 -0.03
         vertex 0.0107994 0.0120827 -0.03
      endloop
   endfacet
   facet normal 0 0 1
      outer loop
         vertex 0.00998366 0.0128554 -0.03
         vertex 0.0101785 0.0127381 -0.03
         vertex 0.0110207 0.0145 -0.03
      endloop
   endfacet
   facet normal 0 0 1
      outer loop
         vertex 0.00709409 0.0101182 -0.03
         vertex 0.00700993 0.0103295 -0.03
         vertex 0.00495855 0.011 -0.03
      endloop
   endfacet
   facet normal 0 0 1
      outer loop
         vertex 0.0109901 0.0103295 -0.03
         vertex 0.0109059 0.0101182 -0.03
         vertex 0.0130415 0.011 -0.03
      endloop
   endfacet
   facet normal 0 0 1
      outer loop
         vertex 0.0109901 0.0116705 -0.03
         vertex 0.0110509 0.0114514 -0.03
         vertex 0.0130415 0.011 -0.03
      endloop
   endfacet
   facet normal 0 0 1
      outer loop
         vertex 0.00764049 0.0126005 -0.03
         vertex 0.00782151 0.0127381 -0.03
         vertex 0.00697927 0.0145 -0.03
      endloop
   endfacet
   facet normal 0 0 1
      outer loop
         vertex 0.0130415 0.011 -0.03
         vertex 0.0111 0.011 -0.03
         vertex 0.0110877 0.010773 -0.03
      endloop
   endfacet
   facet normal 0 0 1
      outer loop
         vertex 0.0110509 0.0114514 -0.03
         vertex 0.0110877 0.011227 -0.03
         vertex 0.0130415 0.011 -0.03
      endloop
   endfacet
   facet normal 0 0 1
      outer loop
         vertex 0.00764049 0.00939946 -0.03
         vertex 0.00747541 0.00955583 -0.03
         vertex 0.00697927 0.0075 -0.03
      endloop
   endfacet
   facet normal 0 0 1
      outer loop
         vertex 0.0105246 0.0124442 -0.03
         vertex 0.0106718 0.0122709 -0.03
         vertex 0.0110207 0.0145 -0.03
      endloop
   endfacet
   facet normal 0 0 1
      outer loop
         vertex 0.0110877 0.011227 -0.03
         vertex 0.0111 0.011 -0.03
         vertex 0.0130415 0.011 -0.03
      endloop
   endfacet
   facet normal -0.866025 -0.5 0
      outer loop
         vertex 0.00697927 0.0075 -0.0468127
         vertex 0.00697927 0.0075 -0.03
         vertex 0.00495855 0.011 -0.03
      endloop
   endfacet
   facet normal -0.866025 -0.5 0
      outer loop
         vertex 0.00495855 0.011 -0.03
         vertex 0.00495855 0.011 -0.0468127
         vertex 0.00697927 0.0075 -0.0468127
      endloop
   endfacet
   facet normal 0 -1 0
      outer loop
         vertex 0.0110207 0.0075 -0.0468127
         vertex 0.0110207 0.0075 -0.03
         vertex 0.00697927 0.0075 -0.03
      endloop
   endfacet
   facet normal 0 -1 0
      outer loop
         vertex 0.00697927 0.0075 -0.03
         vertex 0.00697927 0.0075 -0.0468127
         vertex 0.0110207 0.0075 -0.0468127
      endloop
   endfacet
   facet normal 0.866025 -0.5 0
      outer loop
         vertex 0.0130415 0.011 -0.0468127
         vertex 0.0130415 0.011 -0.03
         vertex 0.0110207 0.0075 -0.03
      endloop
   endfacet
   facet normal 0.866025 -0.5 0
      outer loop
         vertex 0.0110207 0.0075 -0.03
         vertex 0.0110207 0.0075 -0.0468127
         vertex 0.0130415 0.011 -0.0468127
      endloop
   endfacet
   facet normal 0.866025 0.5 0
      outer loop
         vertex 0.0110207 0.0145 -0.0468127
         vertex 0.0110207 0.0145 -0.03
         vertex 0.0130415 0.011 -0.03
      endloop
   endfacet
   facet normal 0.866025 0.5 0
      outer loop
         vertex 0.0130415 0.011 -0.03
         vertex 0.0130415 0.011 -0.0468127
         vertex 0.0110207 0.0145 -0.0468127
      endloop
   endfacet
   facet normal 0 1 0
      outer loop
         vertex 0.00697927 0.0145 -0.0468127
         vertex 0.00697927 0.0145 -0.03
         vertex 0.0110207 0.0145 -0.03
      endloop
   endfacet
   facet normal 0 1 0
      outer loop
         vertex 0.0110207 0.0145 -0.03
         vertex 0.0110207 0.0145 -0.0468127
         vertex 0.00697927 0.0145 -0.0468127
      endloop
   endfacet
   facet normal -0.866025 0.5 0
      outer loop
         vertex 0.00495855 0.011 -0.0468127
         vertex 0.00495855 0.011 -0.03
         vertex 0.00697927 0.0145 -0.03
      endloop
   endfacet
   facet normal -0.866025 0.5 0
      outer loop
         vertex 0.00697927 0.0145 -0.03
         vertex 0.00697927 0.0145 -0.0468127
         vertex 0.00495855 0.011 -0.0468127
      endloop
   endfacet
endsolid Odo standoff. Units = meters