solid Odo standoff. STL generated by ONSHAPE BY PTC INC, 1.216. Units = meters
   facet normal 0.108119 0 0.994138
      outer loop
         vertex -0.0218886 0 -0.0152634
         vertex -0.0217102 0 -0.0152731
         vertex -0.0217102 0.021 -0.0152731
      endloop
   endfacet
   facet normal 0.21497 0 0.976621
      outer loop
         vertex -0.022065 0 -0.0152345
         vertex -0.0218886 0 -0.0152634
         vertex -0.0218886 0.021 -0.0152634
      endloop
   endfacet
   facet normal 0.319302 0 0.947653
      outer loop
         vertex -0.0222371 0 -0.0151867
         vertex -0.022065 0 -0.0152345
         vertex -0.022065 0.021 -0.0152345
      endloop
   endfacet
   facet normal 0.419889 0 0.907575
      outer loop
         vertex -0.0224031 0 -0.0151206
         vertex -0.0222371 0 -0.0151867
         vertex -0.0222371 0.021 -0.0151867
      endloop
   endfacet
   facet normal 0.515554 0 0.856857
      outer loop
         vertex -0.0225609 0 -0.0150369
         vertex -0.0224031 0 -0.0151206
         vertex -0.0224031 0.021 -0.0151206
      endloop
   endfacet
   facet normal 0.605174 0 0.796093
      outer loop
         vertex -0.0227088 0 -0.0149366
         vertex -0.0225609 0 -0.0150369
         vertex -0.0225609 0.021 -0.0150369
      endloop
   endfacet
   facet normal 0.687699 0 0.725995
      outer loop
         vertex -0.022845 0 -0.014821
         vertex -0.0227088 0 -0.0149366
         vertex -0.0227088 0.021 -0.0149366
      endloop
   endfacet
   facet normal 0.762162 0 0.647386
      outer loop
         vertex -0.0229678 0 -0.0146913
         vertex -0.022845 0 -0.014821
         vertex -0.022845 0.021 -0.014821
      endloop
   endfacet
   facet normal 0.827689 0 0.561187
      outer loop
         vertex -0.0230759 0 -0.014549
         vertex -0.0229678 0 -0.0146913
         vertex -0.0229678 0.021 -0.0146913
      endloop
   endfacet
   facet normal 0.883512 0 0.468408
      outer loop
         vertex -0.023168 0 -0.014396
         vertex -0.0230759 0 -0.014549
         vertex -0.0230759 0.021 -0.014549
      endloop
   endfacet
   facet normal 0.928977 0 0.370138
      outer loop
         vertex -0.0232431 0 -0.0142338
         vertex -0.023168 0 -0.014396
         vertex -0.023168 0.021 -0.014396
      endloop
   endfacet
   facet normal 0.96355 0 0.267528
      outer loop
         vertex -0.0233001 0 -0.0140645
         vertex -0.0232431 0 -0.0142338
         vertex -0.0232431 0.021 -0.0142338
      endloop
   endfacet
   facet normal 0.986827 0 0.161782
      outer loop
         vertex -0.0233385 0 -0.01389
         vertex -0.0233001 0 -0.0140645
         vertex -0.0233001 0.021 -0.0140645
      endloop
   endfacet
   facet normal 0.998533 0 0.0541389
      outer loop
         vertex -0.0233578 0 -0.0137124
         vertex -0.0233385 0 -0.01389
         vertex -0.0233385 0.021 -0.01389
      endloop
   endfacet
   facet normal 0.998533 0 -0.0541389
      outer loop
         vertex -0.0233578 0 -0.0135338
         vertex -0.0233578 0 -0.0137124
         vertex -0.0233578 0.021 -0.0137124
      endloop
   endfacet
   facet normal 0.986827 0 -0.161782
      outer loop
         vertex -0.0233385 0 -0.0133561
         vertex -0.0233578 0 -0.0135338
         vertex -0.0233578 0.021 -0.0135338
      endloop
   endfacet
   facet normal 0.96355 0 -0.267528
      outer loop
         vertex -0.0233001 0 -0.0131817
         vertex -0.0233385 0 -0.0133561
         vertex -0.0233385 0.021 -0.0133561
      endloop
   endfacet
   facet normal 0.928977 0 -0.370138
      outer loop
         vertex -0.0232431 0 -0.0130124
         vertex -0.0233001 0 -0.0131817
         vertex -0.0233001 0.021 -0.0131817
      endloop
   endfacet
   facet normal 0.883512 0 -0.468408
      outer loop
         vertex -0.023168 0 -0.0128502
         vertex -0.0232431 0 -0.0130124
         vertex -0.0232431 0.021 -0.0130124
      endloop
   endfacet
   facet normal 0.827689 0 -0.561187
      outer loop
         vertex -0.0230759 0 -0.0126971
         vertex -0.023168 0 -0.0128502
         vertex -0.023168 0.021 -0.0128502
      endloop
   endfacet
   facet normal 0.762162 0 -0.647386
      outer loop
         vertex -0.0229678 0 -0.0125549
         vertex -0.0230759 0 -0.0126971
         vertex -0.0230759 0.021 -0.0126971
      endloop
   endfacet
   facet normal 0.687699 0 -0.725995
      outer loop
         vertex -0.022845 0 -0.0124252
         vertex -0.0229678 0 -0.0125549
         vertex -0.0229678 0.021 -0.0125549
      endloop
   endfacet
   facet normal 0.605174 0 -0.796093
      outer loop
         vertex -0.0227088 0 -0.0123095
         vertex -0.022845 0 -0.0124252
         vertex -0.022845 0.021 -0.0124252
      endloop
   endfacet
   facet normal 0.515554 0 -0.856857
      outer loop
         vertex -0.0225609 0 -0.0122093
         vertex -0.0227088 0 -0.0123095
         vertex -0.0227088 0.021 -0.0123095
      endloop
   endfacet
   facet normal 0.419889 0 -0.907575
      outer loop
         vertex -0.0224031 0 -0.0121256
         vertex -0.0225609 0 -0.0122093
         vertex -0.0225609 0.021 -0.0122093
      endloop
   endfacet
   facet normal 0.319302 0 -0.947653
      outer loop
         vertex -0.0222371 0 -0.0120595
         vertex -0.0224031 0 -0.0121256
         vertex -0.0224031 0.021 -0.0121256
      endloop
   endfacet
   facet normal 0.21497 0 -0.976621
      outer loop
         vertex -0.022065 0 -0.0120117
         vertex -0.0222371 0 -0.0120595
         vertex -0.0222371 0.021 -0.0120595
      endloop
   endfacet
   facet normal 0.108119 0 -0.994138
      outer loop
         vertex -0.0218886 0 -0.0119828
         vertex -0.022065 0 -0.0120117
         vertex -0.022065 0.021 -0.0120117
      endloop
   endfacet
   facet normal -1.22465e-16 0 -1
      outer loop
         vertex -0.0217102 0 -0.0119731
         vertex -0.0218886 0 -0.0119828
         vertex -0.0218886 0.021 -0.0119828
      endloop
   endfacet
   facet normal -0.108119 0 -0.994138
      outer loop
         vertex -0.0215319 0 -0.0119828
         vertex -0.0217102 0 -0.0119731
         vertex -0.0217102 0.021 -0.0119731
      endloop
   endfacet
   facet normal -0.21497 0 -0.976621
      outer loop
         vertex -0.0213555 0 -0.0120117
         vertex -0.0215319 0 -0.0119828
         vertex -0.0215319 0.021 -0.0119828
      endloop
   endfacet
   facet normal -0.319302 0 -0.947653
      outer loop
         vertex -0.0211834 0 -0.0120595
         vertex -0.0213555 0 -0.0120117
         vertex -0.0213555 0.021 -0.0120117
      endloop
   endfacet
   facet normal -0.419889 0 -0.907575
      outer loop
         vertex -0.0210174 0 -0.0121256
         vertex -0.0211834 0 -0.0120595
         vertex -0.0211834 0.021 -0.0120595
      endloop
   endfacet
   facet normal -0.515554 0 -0.856857
      outer loop
         vertex -0.0208596 0 -0.0122093
         vertex -0.0210174 0 -0.0121256
         vertex -0.0210174 0.021 -0.0121256
      endloop
   endfacet
   facet normal -0.605174 0 -0.796093
      outer loop
         vertex -0.0207117 0 -0.0123095
         vertex -0.0208596 0 -0.0122093
         vertex -0.0208596 0.021 -0.0122093
      endloop
   endfacet
   facet normal -0.687699 0 -0.725995
      outer loop
         vertex -0.0205755 0 -0.0124252
         vertex -0.0207117 0 -0.0123095
         vertex -0.0207117 0.021 -0.0123095
      endloop
   endfacet
   facet normal -0.762162 0 -0.647386
      outer loop
         vertex -0.0204527 0 -0.0125549
         vertex -0.0205755 0 -0.0124252
         vertex -0.0205755 0.021 -0.0124252
      endloop
   endfacet
   facet normal -0.827689 0 -0.561187
      outer loop
         vertex -0.0203446 0 -0.0126971
         vertex -0.0204527 0 -0.0125549
         vertex -0.0204527 0.021 -0.0125549
      endloop
   endfacet
   facet normal -0.883512 0 -0.468408
      outer loop
         vertex -0.0202525 0 -0.0128502
         vertex -0.0203446 0 -0.0126971
         vertex -0.0203446 0.021 -0.0126971
      endloop
   endfacet
   facet normal -0.928977 0 -0.370138
      outer loop
         vertex -0.0201774 0 -0.0130124
         vertex -0.0202525 0 -0.0128502
         vertex -0.0202525 0.021 -0.0128502
      endloop
   endfacet
   facet normal -0.96355 0 -0.267528
      outer loop
         vertex -0.0201204 0 -0.0131817
         vertex -0.0201774 0 -0.0130124
         vertex -0.0201774 0.021 -0.0130124
      endloop
   endfacet
   facet normal -0.986827 0 -0.161782
      outer loop
         vertex -0.020082 0 -0.0133561
         vertex -0.0201204 0 -0.0131817
         vertex -0.0201204 0.021 -0.0131817
      endloop
   endfacet
   facet normal -0.998533 0 -0.0541389
      outer loop
         vertex -0.0200627 0 -0.0135338
         vertex -0.020082 0 -0.0133561
         vertex -0.020082 0.021 -0.0133561
      endloop
   endfacet
   facet normal -0.998533 0 0.0541389
      outer loop
         vertex -0.0200627 0 -0.0137124
         vertex -0.0200627 0 -0.0135338
         vertex -0.0200627 0.021 -0.0135338
      endloop
   endfacet
   facet normal -0.986827 0 0.161782
      outer loop
         vertex -0.020082 0 -0.01389
         vertex -0.0200627 0 -0.0137124
         vertex -0.0200627 0.021 -0.0137124
      endloop
   endfacet
   facet normal -0.96355 0 0.267528
      outer loop
         vertex -0.0201204 0 -0.0140645
         vertex -0.020082 0 -0.01389
         vertex -0.020082 0.021 -0.01389
      endloop
   endfacet
   facet normal -0.928977 0 0.370138
      outer loop
         vertex -0.0201774 0 -0.0142338
         vertex -0.0201204 0 -0.0140645
         vertex -0.0201204 0.021 -0.0140645
      endloop
   endfacet
   facet normal -0.883512 0 0.468408
      outer loop
         vertex -0.0202525 0 -0.014396
         vertex -0.0201774 0 -0.0142338
         vertex -0.0201774 0.021 -0.0142338
      endloop
   endfacet
   facet normal -0.827689 0 0.561187
      outer loop
         vertex -0.0203446 0 -0.014549
         vertex -0.0202525 0 -0.014396
         vertex -0.0202525 0.021 -0.014396
      endloop
   endfacet
   facet normal -0.762162 0 0.647386
      outer loop
         vertex -0.0204527 0 -0.0146913
         vertex -0.0203446 0 -0.014549
         vertex -0.0203446 0.021 -0.014549
      endloop
   endfacet
   facet normal -0.687699 0 0.725995
      outer loop
         vertex -0.0205755 0 -0.014821
         vertex -0.0204527 0 -0.0146913
         vertex -0.0204527 0.021 -0.0146913
      endloop
   endfacet
   facet normal -0.605174 0 0.796093
      outer loop
         vertex -0.0207117 0 -0.0149366
         vertex -0.0205755 0 -0.014821
         vertex -0.0205755 0.021 -0.014821
      endloop
   endfacet
   facet normal -0.515554 0 0.856857
      outer loop
         vertex -0.0208596 0 -0.0150369
         vertex -0.0207117 0 -0.0149366
         vertex -0.0207117 0.021 -0.0149366
      endloop
   endfacet
   facet normal -0.419889 0 0.907575
      outer loop
         vertex -0.0210174 0 -0.0151206
         vertex -0.0208596 0 -0.0150369
         vertex -0.0208596 0.021 -0.0150369
      endloop
   endfacet
   facet normal -0.319302 0 0.947653
      outer loop
         vertex -0.0211834 0 -0.0151867
         vertex -0.0210174 0 -0.0151206
         vertex -0.0210174 0.021 -0.0151206
      endloop
   endfacet
   facet normal -0.21497 0 0.976621
      outer loop
         vertex -0.0213555 0 -0.0152345
         vertex -0.0211834 0 -0.0151867
         vertex -0.0211834 0.021 -0.0151867
      endloop
   endfacet
   facet normal -0.108119 0 0.994138
      outer loop
         vertex -0.0215319 0 -0.0152634
         vertex -0.0213555 0 -0.0152345
         vertex -0.0213555 0.021 -0.0152345
      endloop
   endfacet
   facet normal 2.44929e-16 0 1
      outer loop
         vertex -0.0217102 0 -0.0152731
         vertex -0.0215319 0 -0.0152634
         vertex -0.0215319 0.021 -0.0152634
      endloop
   endfacet
   facet normal -0.108119 0 0.994138
      outer loop
         vertex -0.0215319 0.021 -0.0152634
         vertex -0.0217102 0.021 -0.0152731
         vertex -0.0217102 0 -0.0152731
      endloop
   endfacet
   facet normal -0.21497 0 0.976621
      outer loop
         vertex -0.0213555 0.021 -0.0152345
         vertex -0.0215319 0.021 -0.0152634
         vertex -0.0215319 0 -0.0152634
      endloop
   endfacet
   facet normal -0.319302 0 0.947653
      outer loop
         vertex -0.0211834 0.021 -0.0151867
         vertex -0.0213555 0.021 -0.0152345
         vertex -0.0213555 0 -0.0152345
      endloop
   endfacet
   facet normal -0.419889 0 0.907575
      outer loop
         vertex -0.0210174 0.021 -0.0151206
         vertex -0.0211834 0.021 -0.0151867
         vertex -0.0211834 0 -0.0151867
      endloop
   endfacet
   facet normal -0.515554 0 0.856857
      outer loop
         vertex -0.0208596 0.021 -0.0150369
         vertex -0.0210174 0.021 -0.0151206
         vertex -0.0210174 0 -0.0151206
      endloop
   endfacet
   facet normal -0.605174 0 0.796093
      outer loop
         vertex -0.0207117 0.021 -0.0149366
         vertex -0.0208596 0.021 -0.0150369
         vertex -0.0208596 0 -0.0150369
      endloop
   endfacet
   facet normal -0.687699 0 0.725995
      outer loop
         vertex -0.0205755 0.021 -0.014821
         vertex -0.0207117 0.021 -0.0149366
         vertex -0.0207117 0 -0.0149366
      endloop
   endfacet
   facet normal -0.762162 0 0.647386
      outer loop
         vertex -0.0204527 0.021 -0.0146913
         vertex -0.0205755 0.021 -0.014821
         vertex -0.0205755 0 -0.014821
      endloop
   endfacet
   facet normal -0.827689 0 0.561187
      outer loop
         vertex -0.0203446 0.021 -0.014549
         vertex -0.0204527 0.021 -0.0146913
         vertex -0.0204527 0 -0.0146913
      endloop
   endfacet
   facet normal -0.883512 0 0.468408
      outer loop
         vertex -0.0202525 0.021 -0.014396
         vertex -0.0203446 0.021 -0.014549
         vertex -0.0203446 0 -0.014549
      endloop
   endfacet
   facet normal -0.928977 0 0.370138
      outer loop
         vertex -0.0201774 0.021 -0.0142338
         vertex -0.0202525 0.021 -0.014396
         vertex -0.0202525 0 -0.014396
      endloop
   endfacet
   facet normal -0.96355 0 0.267528
      outer loop
         vertex -0.0201204 0.021 -0.0140645
         vertex -0.0201774 0.021 -0.0142338
         vertex -0.0201774 0 -0.0142338
      endloop
   endfacet
   facet normal -0.986827 0 0.161782
      outer loop
         vertex -0.020082 0.021 -0.01389
         vertex -0.0201204 0.021 -0.0140645
         vertex -0.0201204 0 -0.0140645
      endloop
   endfacet
   facet normal -0.998533 0 0.0541389
      outer loop
         vertex -0.0200627 0.021 -0.0137124
         vertex -0.020082 0.021 -0.01389
         vertex -0.020082 0 -0.01389
      endloop
   endfacet
   facet normal -0.998533 0 -0.0541389
      outer loop
         vertex -0.0200627 0.021 -0.0135338
         vertex -0.0200627 0.021 -0.0137124
         vertex -0.0200627 0 -0.0137124
      endloop
   endfacet
   facet normal -0.986827 0 -0.161782
      outer loop
         vertex -0.020082 0.021 -0.0133561
         vertex -0.0200627 0.021 -0.0135338
         vertex -0.0200627 0 -0.0135338
      endloop
   endfacet
   facet normal -0.96355 0 -0.267528
      outer loop
         vertex -0.0201204 0.021 -0.0131817
         vertex -0.020082 0.021 -0.0133561
         vertex -0.020082 0 -0.0133561
      endloop
   endfacet
   facet normal -0.928977 0 -0.370138
      outer loop
         vertex -0.0201774 0.021 -0.0130124
         vertex -0.0201204 0.021 -0.0131817
         vertex -0.0201204 0 -0.0131817
      endloop
   endfacet
   facet normal -0.883512 0 -0.468408
      outer loop
         vertex -0.0202525 0.021 -0.0128502
         vertex -0.0201774 0.021 -0.0130124
         vertex -0.0201774 0 -0.0130124
      endloop
   endfacet
   facet normal -0.827689 0 -0.561187
      outer loop
         vertex -0.0203446 0.021 -0.0126971
         vertex -0.0202525 0.021 -0.0128502
         vertex -0.0202525 0 -0.0128502
      endloop
   endfacet
   facet normal -0.762162 0 -0.647386
      outer loop
         vertex -0.0204527 0.021 -0.0125549
         vertex -0.0203446 0.021 -0.0126971
         vertex -0.0203446 0 -0.0126971
      endloop
   endfacet
   facet normal -0.687699 0 -0.725995
      outer loop
         vertex -0.0205755 0.021 -0.0124252
         vertex -0.0204527 0.021 -0.0125549
         vertex -0.0204527 0 -0.0125549
      endloop
   endfacet
   facet normal -0.605174 0 -0.796093
      outer loop
         vertex -0.0207117 0.021 -0.0123095
         vertex -0.0205755 0.021 -0.0124252
         vertex -0.0205755 0 -0.0124252
      endloop
   endfacet
   facet normal -0.515554 0 -0.856857
      outer loop
         vertex -0.0208596 0.021 -0.0122093
         vertex -0.0207117 0.021 -0.0123095
         vertex -0.0207117 0 -0.0123095
      endloop
   endfacet
   facet normal -0.419889 0 -0.907575
      outer loop
         vertex -0.0210174 0.021 -0.0121256
         vertex -0.0208596 0.021 -0.0122093
         vertex -0.0208596 0 -0.0122093
      endloop
   endfacet
   facet normal -0.319302 0 -0.947653
      outer loop
         vertex -0.0211834 0.021 -0.0120595
         vertex -0.0210174 0.021 -0.0121256
         vertex -0.0210174 0 -0.0121256
      endloop
   endfacet
   facet normal -0.21497 0 -0.976621
      outer loop
         vertex -0.0213555 0.021 -0.0120117
         vertex -0.0211834 0.021 -0.0120595
         vertex -0.0211834 0 -0.0120595
      endloop
   endfacet
   facet normal -0.108119 0 -0.994138
      outer loop
         vertex -0.0215319 0.021 -0.0119828
         vertex -0.0213555 0.021 -0.0120117
         vertex -0.0213555 0 -0.0120117
      endloop
   endfacet
   facet normal -1.22465e-16 0 -1
      outer loop
         vertex -0.0217102 0.021 -0.0119731
         vertex -0.0215319 0.021 -0.0119828
         vertex -0.0215319 0 -0.0119828
      endloop
   endfacet
   facet normal 0.108119 0 -0.994138
      outer loop
         vertex -0.0218886 0.021 -0.0119828
         vertex -0.0217102 0.021 -0.0119731
         vertex -0.0217102 0 -0.0119731
      endloop
   endfacet
   facet normal 0.21497 0 -0.976621
      outer loop
         vertex -0.022065 0.021 -0.0120117
         vertex -0.0218886 0.021 -0.0119828
         vertex -0.0218886 0 -0.0119828
      endloop
   endfacet
   facet normal 0.319302 0 -0.947653
      outer loop
         vertex -0.0222371 0.021 -0.0120595
         vertex -0.022065 0.021 -0.0120117
         vertex -0.022065 0 -0.0120117
      endloop
   endfacet
   facet normal 0.419889 0 -0.907575
      outer loop
         vertex -0.0224031 0.021 -0.0121256
         vertex -0.0222371 0.021 -0.0120595
         vertex -0.0222371 0 -0.0120595
      endloop
   endfacet
   facet normal 0.515554 0 -0.856857
      outer loop
         vertex -0.0225609 0.021 -0.0122093
         vertex -0.0224031 0.021 -0.0121256
         vertex -0.0224031 0 -0.0121256
      endloop
   endfacet
   facet normal 0.605174 0 -0.796093
      outer loop
         vertex -0.0227088 0.021 -0.0123095
         vertex -0.0225609 0.021 -0.0122093
         vertex -0.0225609 0 -0.0122093
      endloop
   endfacet
   facet normal 0.687699 0 -0.725995
      outer loop
         vertex -0.022845 0.021 -0.0124252
         vertex -0.0227088 0.021 -0.0123095
         vertex -0.0227088 0 -0.0123095
      endloop
   endfacet
   facet normal 0.762162 0 -0.647386
      outer loop
         vertex -0.0229678 0.021 -0.0125549
         vertex -0.022845 0.021 -0.0124252
         vertex -0.022845 0 -0.0124252
      endloop
   endfacet
   facet normal 0.827689 0 -0.561187
      outer loop
         vertex -0.0230759 0.021 -0.0126971
         vertex -0.0229678 0.021 -0.0125549
         vertex -0.0229678 0 -0.0125549
      endloop
   endfacet
   facet normal 0.883512 0 -0.468408
      outer loop
         vertex -0.023168 0.021 -0.0128502
         vertex -0.0230759 0.021 -0.0126971
         vertex -0.0230759 0 -0.0126971
      endloop
   endfacet
   facet normal 0.928977 0 -0.370138
      outer loop
         vertex -0.0232431 0.021 -0.0130124
         vertex -0.023168 0.021 -0.0128502
         vertex -0.023168 0 -0.0128502
      endloop
   endfacet
   facet normal 0.96355 0 -0.267528
      outer loop
         vertex -0.0233001 0.021 -0.0131817
         vertex -0.0232431 0.021 -0.0130124
         vertex -0.0232431 0 -0.0130124
      endloop
   endfacet
   facet normal 0.986827 0 -0.161782
      outer loop
         vertex -0.0233385 0.021 -0.0133561
         vertex -0.0233001 0.021 -0.0131817
         vertex -0.0233001 0 -0.0131817
      endloop
   endfacet
   facet normal 0.998533 0 -0.0541389
      outer loop
         vertex -0.0233578 0.021 -0.0135338
         vertex -0.0233385 0.021 -0.0133561
         vertex -0.0233385 0 -0.0133561
      endloop
   endfacet
   facet normal 0.998533 0 0.0541389
      outer loop
         vertex -0.0233578 0.021 -0.0137124
         vertex -0.0233578 0.021 -0.0135338
         vertex -0.0233578 0 -0.0135338
      endloop
   endfacet
   facet normal 0.986827 0 0.161782
      outer loop
         vertex -0.0233385 0.021 -0.01389
         vertex -0.0233578 0.021 -0.0137124
         vertex -0.0233578 0 -0.0137124
      endloop
   endfacet
   facet normal 0.96355 0 0.267528
      outer loop
         vertex -0.0233001 0.021 -0.0140645
         vertex -0.0233385 0.021 -0.01389
         vertex -0.0233385 0 -0.01389
      endloop
   endfacet
   facet normal 0.928977 0 0.370138
      outer loop
         vertex -0.0232431 0.021 -0.0142338
         vertex -0.0233001 0.021 -0.0140645
         vertex -0.0233001 0 -0.0140645
      endloop
   endfacet
   facet normal 0.883512 0 0.468408
      outer loop
         vertex -0.023168 0.021 -0.014396
         vertex -0.0232431 0.021 -0.0142338
         vertex -0.0232431 0 -0.0142338
      endloop
   endfacet
   facet normal 0.827689 0 0.561187
      outer loop
         vertex -0.0230759 0.021 -0.014549
         vertex -0.023168 0.021 -0.014396
         vertex -0.023168 0 -0.014396
      endloop
   endfacet
   facet normal 0.762162 0 0.647386
      outer loop
         vertex -0.0229678 0.021 -0.0146913
         vertex -0.0230759 0.021 -0.014549
         vertex -0.0230759 0 -0.014549
      endloop
   endfacet
   facet normal 0.687699 0 0.725995
      outer loop
         vertex -0.022845 0.021 -0.014821
         vertex -0.0229678 0.021 -0.0146913
         vertex -0.0229678 0 -0.0146913
      endloop
   endfacet
   facet normal 0.605174 0 0.796093
      outer loop
         vertex -0.0227088 0.021 -0.0149366
         vertex -0.022845 0.021 -0.014821
         vertex -0.022845 0 -0.014821
      endloop
   endfacet
   facet normal 0.515554 0 0.856857
      outer loop
         vertex -0.0225609 0.021 -0.0150369
         vertex -0.0227088 0.021 -0.0149366
         vertex -0.0227088 0 -0.0149366
      endloop
   endfacet
   facet normal 0.419889 0 0.907575
      outer loop
         vertex -0.0224031 0.021 -0.0151206
         vertex -0.0225609 0.021 -0.0150369
         vertex -0.0225609 0 -0.0150369
      endloop
   endfacet
   facet normal 0.319302 0 0.947653
      outer loop
         vertex -0.0222371 0.021 -0.0151867
         vertex -0.0224031 0.021 -0.0151206
         vertex -0.0224031 0 -0.0151206
      endloop
   endfacet
   facet normal 0.21497 0 0.976621
      outer loop
         vertex -0.022065 0.021 -0.0152345
         vertex -0.0222371 0.021 -0.0151867
         vertex -0.0222371 0 -0.0151867
      endloop
   endfacet
   facet normal 0.108119 0 0.994138
      outer loop
         vertex -0.0218886 0.021 -0.0152634
         vertex -0.022065 0.021 -0.0152345
         vertex -0.022065 0 -0.0152345
      endloop
   endfacet
   facet normal 2.44929e-16 0 1
      outer loop
         vertex -0.0217102 0.021 -0.0152731
         vertex -0.0218886 0.021 -0.0152634
         vertex -0.0218886 0 -0.0152634
      endloop
   endfacet
   facet normal 0 1 0
      outer loop
         vertex -0.0203771 0.021 -0.0165046
         vertex -0.0206965 0.021 -0.0166319
         vertex -0.0211834 0.021 -0.0151867
      endloop
   endfacet
   facet normal 0 1 0
      outer loop
         vertex -0.0206965 0.021 -0.0166319
         vertex -0.0210277 0.021 -0.0167239
         vertex -0.0213555 0.021 -0.0152345
      endloop
   endfacet
   facet normal 0 1 0
      outer loop
         vertex -0.0203771 0.021 -0.0165046
         vertex -0.0210174 0.021 -0.0151206
         vertex -0.0208596 0.021 -0.0150369
      endloop
   endfacet
   facet normal 0 1 0
      outer loop
         vertex -0.0213555 0.021 -0.0152345
         vertex -0.0211834 0.021 -0.0151867
         vertex -0.0206965 0.021 -0.0166319
      endloop
   endfacet
   facet normal 0 1 0
      outer loop
         vertex -0.0211834 0.021 -0.0151867
         vertex -0.0210174 0.021 -0.0151206
         vertex -0.0203771 0.021 -0.0165046
      endloop
   endfacet
   facet normal 0 1 0
      outer loop
         vertex -0.0210277 0.021 -0.0167239
         vertex -0.021367 0.021 -0.0167795
         vertex -0.0215319 0.021 -0.0152634
      endloop
   endfacet
   facet normal 0 1 0
      outer loop
         vertex -0.0217102 0.021 -0.0167981
         vertex -0.0217102 0.021 -0.0152731
         vertex -0.0215319 0.021 -0.0152634
      endloop
   endfacet
   facet normal 0 1 0
      outer loop
         vertex -0.0217102 0.021 -0.0167981
         vertex -0.0220535 0.021 -0.0167795
         vertex -0.0218886 0.021 -0.0152634
      endloop
   endfacet
   facet normal 0 1 0
      outer loop
         vertex -0.0185771 0.021 -0.0141367
         vertex -0.020082 0.021 -0.01389
         vertex -0.0200627 0.021 -0.0137124
      endloop
   endfacet
   facet normal 0 1 0
      outer loop
         vertex -0.018651 0.021 -0.0144725
         vertex -0.0201204 0.021 -0.0140645
         vertex -0.020082 0.021 -0.01389
      endloop
   endfacet
   facet normal 0 1 0
      outer loop
         vertex -0.0215319 0.021 -0.0152634
         vertex -0.0213555 0.021 -0.0152345
         vertex -0.0210277 0.021 -0.0167239
      endloop
   endfacet
   facet normal 0 1 0
      outer loop
         vertex -0.0218886 0.021 -0.0152634
         vertex -0.0217102 0.021 -0.0152731
         vertex -0.0217102 0.021 -0.0167981
      endloop
   endfacet
   facet normal 0 1 0
      outer loop
         vertex -0.0220535 0.021 -0.0167795
         vertex -0.0223928 0.021 -0.0167239
         vertex -0.022065 0.021 -0.0152345
      endloop
   endfacet
   facet normal 0 1 0
      outer loop
         vertex -0.0223928 0.021 -0.0167239
         vertex -0.022724 0.021 -0.0166319
         vertex -0.0222371 0.021 -0.0151867
      endloop
   endfacet
   facet normal 0 1 0
      outer loop
         vertex -0.0230434 0.021 -0.0165046
         vertex -0.0224031 0.021 -0.0151206
         vertex -0.0222371 0.021 -0.0151867
      endloop
   endfacet
   facet normal 0 1 0
      outer loop
         vertex -0.0230434 0.021 -0.0165046
         vertex -0.0233471 0.021 -0.0163436
         vertex -0.0225609 0.021 -0.0150369
      endloop
   endfacet
   facet normal 0 1 0
      outer loop
         vertex -0.0245154 0.021 -0.0151103
         vertex -0.023168 0.021 -0.014396
         vertex -0.0230759 0.021 -0.014549
      endloop
   endfacet
   facet normal 0 1 0
      outer loop
         vertex -0.0245154 0.021 -0.0151103
         vertex -0.0246598 0.021 -0.0147983
         vertex -0.0232431 0.021 -0.0142338
      endloop
   endfacet
   facet normal 0 1 0
      outer loop
         vertex -0.018651 0.021 -0.0127737
         vertex -0.0185771 0.021 -0.0131094
         vertex -0.020082 0.021 -0.0133561
      endloop
   endfacet
   facet normal 0 1 0
      outer loop
         vertex -0.0185771 0.021 -0.0131094
         vertex -0.0185399 0.021 -0.0134512
         vertex -0.0200627 0.021 -0.0135338
      endloop
   endfacet
   facet normal 0 1 0
      outer loop
         vertex -0.020082 0.021 -0.01389
         vertex -0.0185771 0.021 -0.0141367
         vertex -0.018651 0.021 -0.0144725
      endloop
   endfacet
   facet normal 0 1 0
      outer loop
         vertex -0.018651 0.021 -0.0144725
         vertex -0.0187607 0.021 -0.0147983
         vertex -0.0201774 0.021 -0.0142338
      endloop
   endfacet
   facet normal 0 1 0
      outer loop
         vertex -0.0189051 0.021 -0.0151103
         vertex -0.0202525 0.021 -0.014396
         vertex -0.0201774 0.021 -0.0142338
      endloop
   endfacet
   facet normal 0 1 0
      outer loop
         vertex -0.0189051 0.021 -0.0151103
         vertex -0.0190823 0.021 -0.0154049
         vertex -0.0203446 0.021 -0.014549
      endloop
   endfacet
   facet normal 0 1 0
      outer loop
         vertex -0.0215319 0.021 -0.0152634
         vertex -0.021367 0.021 -0.0167795
         vertex -0.0217102 0.021 -0.0167981
      endloop
   endfacet
   facet normal 0 1 0
      outer loop
         vertex -0.0222371 0.021 -0.0151867
         vertex -0.022065 0.021 -0.0152345
         vertex -0.0223928 0.021 -0.0167239
      endloop
   endfacet
   facet normal 0 1 0
      outer loop
         vertex -0.0225609 0.021 -0.0150369
         vertex -0.0224031 0.021 -0.0151206
         vertex -0.0230434 0.021 -0.0165046
      endloop
   endfacet
   facet normal 0 1 0
      outer loop
         vertex -0.0233471 0.021 -0.0163436
         vertex -0.0236317 0.021 -0.0161507
         vertex -0.0227088 0.021 -0.0149366
      endloop
   endfacet
   facet normal 0 1 0
      outer loop
         vertex -0.0232431 0.021 -0.0142338
         vertex -0.023168 0.021 -0.014396
         vertex -0.0245154 0.021 -0.0151103
      endloop
   endfacet
   facet normal 0 1 0
      outer loop
         vertex -0.0246598 0.021 -0.0147983
         vertex -0.0247695 0.021 -0.0144725
         vertex -0.0233001 0.021 -0.0140645
      endloop
   endfacet
   facet normal 0 1 0
      outer loop
         vertex -0.0247695 0.021 -0.0144725
         vertex -0.0248434 0.021 -0.0141367
         vertex -0.0233385 0.021 -0.01389
      endloop
   endfacet
   facet normal 0 1 0
      outer loop
         vertex -0.0248434 0.021 -0.0141367
         vertex -0.0248806 0.021 -0.013795
         vertex -0.0233578 0.021 -0.0137124
      endloop
   endfacet
   facet normal 0 1 0
      outer loop
         vertex -0.0189051 0.021 -0.0121359
         vertex -0.0202525 0.021 -0.0128502
         vertex -0.0203446 0.021 -0.0126971
      endloop
   endfacet
   facet normal 0 1 0
      outer loop
         vertex -0.0189051 0.021 -0.0121359
         vertex -0.0187607 0.021 -0.0124479
         vertex -0.0201774 0.021 -0.0130124
      endloop
   endfacet
   facet normal 0 1 0
      outer loop
         vertex -0.018651 0.021 -0.0127737
         vertex -0.0201204 0.021 -0.0131817
         vertex -0.0201774 0.021 -0.0130124
      endloop
   endfacet
   facet normal 0 1 0
      outer loop
         vertex -0.0200627 0.021 -0.0135338
         vertex -0.020082 0.021 -0.0133561
         vertex -0.0185771 0.021 -0.0131094
      endloop
   endfacet
   facet normal 0 1 0
      outer loop
         vertex -0.0201774 0.021 -0.0142338
         vertex -0.0201204 0.021 -0.0140645
         vertex -0.018651 0.021 -0.0144725
      endloop
   endfacet
   facet normal 0 1 0
      outer loop
         vertex -0.0203446 0.021 -0.014549
         vertex -0.0202525 0.021 -0.014396
         vertex -0.0189051 0.021 -0.0151103
      endloop
   endfacet
   facet normal 0 1 0
      outer loop
         vertex -0.0197888 0.021 -0.0161507
         vertex -0.0207117 0.021 -0.0149366
         vertex -0.0205755 0.021 -0.014821
      endloop
   endfacet
   facet normal 0 1 0
      outer loop
         vertex -0.0197888 0.021 -0.0161507
         vertex -0.0200734 0.021 -0.0163436
         vertex -0.0208596 0.021 -0.0150369
      endloop
   endfacet
   facet normal 0 1 0
      outer loop
         vertex -0.022065 0.021 -0.0152345
         vertex -0.0218886 0.021 -0.0152634
         vertex -0.0220535 0.021 -0.0167795
      endloop
   endfacet
   facet normal 0 1 0
      outer loop
         vertex -0.0227088 0.021 -0.0149366
         vertex -0.0225609 0.021 -0.0150369
         vertex -0.0233471 0.021 -0.0163436
      endloop
   endfacet
   facet normal 0 1 0
      outer loop
         vertex -0.0238937 0.021 -0.0159281
         vertex -0.022845 0.021 -0.014821
         vertex -0.0227088 0.021 -0.0149366
      endloop
   endfacet
   facet normal 0 1 0
      outer loop
         vertex -0.0238937 0.021 -0.0159281
         vertex -0.0241301 0.021 -0.0156785
         vertex -0.0229678 0.021 -0.0146913
      endloop
   endfacet
   facet normal 0 1 0
      outer loop
         vertex -0.0233001 0.021 -0.0140645
         vertex -0.0232431 0.021 -0.0142338
         vertex -0.0246598 0.021 -0.0147983
      endloop
   endfacet
   facet normal 0 1 0
      outer loop
         vertex -0.0233578 0.021 -0.0137124
         vertex -0.0233385 0.021 -0.01389
         vertex -0.0248434 0.021 -0.0141367
      endloop
   endfacet
   facet normal 0 1 0
      outer loop
         vertex -0.0197888 0.021 -0.0110955
         vertex -0.0207117 0.021 -0.0123095
         vertex -0.0208596 0.021 -0.0122093
      endloop
   endfacet
   facet normal 0 1 0
      outer loop
         vertex -0.0197888 0.021 -0.0110955
         vertex -0.0195268 0.021 -0.011318
         vertex -0.0205755 0.021 -0.0124252
      endloop
   endfacet
   facet normal 0 1 0
      outer loop
         vertex -0.0201774 0.021 -0.0130124
         vertex -0.0202525 0.021 -0.0128502
         vertex -0.0189051 0.021 -0.0121359
      endloop
   endfacet
   facet normal 0 1 0
      outer loop
         vertex -0.020082 0.021 -0.0133561
         vertex -0.0201204 0.021 -0.0131817
         vertex -0.018651 0.021 -0.0127737
      endloop
   endfacet
   facet normal 0 1 0
      outer loop
         vertex -0.0201774 0.021 -0.0142338
         vertex -0.0187607 0.021 -0.0147983
         vertex -0.0189051 0.021 -0.0151103
      endloop
   endfacet
   facet normal 0 1 0
      outer loop
         vertex -0.0190823 0.021 -0.0154049
         vertex -0.0192904 0.021 -0.0156785
         vertex -0.0204527 0.021 -0.0146913
      endloop
   endfacet
   facet normal 0 1 0
      outer loop
         vertex -0.0195268 0.021 -0.0159281
         vertex -0.0205755 0.021 -0.014821
         vertex -0.0204527 0.021 -0.0146913
      endloop
   endfacet
   facet normal 0 1 0
      outer loop
         vertex -0.0208596 0.021 -0.0150369
         vertex -0.0207117 0.021 -0.0149366
         vertex -0.0197888 0.021 -0.0161507
      endloop
   endfacet
   facet normal 0 1 0
      outer loop
         vertex -0.0222371 0.021 -0.0151867
         vertex -0.022724 0.021 -0.0166319
         vertex -0.0230434 0.021 -0.0165046
      endloop
   endfacet
   facet normal 0 1 0
      outer loop
         vertex -0.0229678 0.021 -0.0146913
         vertex -0.022845 0.021 -0.014821
         vertex -0.0238937 0.021 -0.0159281
      endloop
   endfacet
   facet normal 0 1 0
      outer loop
         vertex -0.0243382 0.021 -0.0154049
         vertex -0.0230759 0.021 -0.014549
         vertex -0.0229678 0.021 -0.0146913
      endloop
   endfacet
   facet normal 0 1 0
      outer loop
         vertex -0.0233385 0.021 -0.01389
         vertex -0.0233001 0.021 -0.0140645
         vertex -0.0247695 0.021 -0.0144725
      endloop
   endfacet
   facet normal 0 1 0
      outer loop
         vertex -0.0248434 0.021 -0.0131094
         vertex -0.0233385 0.021 -0.0133561
         vertex -0.0233578 0.021 -0.0135338
      endloop
   endfacet
   facet normal 0 1 0
      outer loop
         vertex -0.0247695 0.021 -0.0127737
         vertex -0.0233001 0.021 -0.0131817
         vertex -0.0233385 0.021 -0.0133561
      endloop
   endfacet
   facet normal 0 1 0
      outer loop
         vertex -0.0230434 0.021 -0.0107415
         vertex -0.022724 0.021 -0.0106143
         vertex -0.0222371 0.021 -0.0120595
      endloop
   endfacet
   facet normal 0 1 0
      outer loop
         vertex -0.022724 0.021 -0.0106143
         vertex -0.0223928 0.021 -0.0105223
         vertex -0.022065 0.021 -0.0120117
      endloop
   endfacet
   facet normal 0 1 0
      outer loop
         vertex -0.0210277 0.021 -0.0105223
         vertex -0.0213555 0.021 -0.0120117
         vertex -0.0215319 0.021 -0.0119828
      endloop
   endfacet
   facet normal 0 1 0
      outer loop
         vertex -0.0210277 0.021 -0.0105223
         vertex -0.0206965 0.021 -0.0106143
         vertex -0.0211834 0.021 -0.0120595
      endloop
   endfacet
   facet normal 0 1 0
      outer loop
         vertex -0.0205755 0.021 -0.0124252
         vertex -0.0207117 0.021 -0.0123095
         vertex -0.0197888 0.021 -0.0110955
      endloop
   endfacet
   facet normal 0 1 0
      outer loop
         vertex -0.0195268 0.021 -0.011318
         vertex -0.0192904 0.021 -0.0115676
         vertex -0.0204527 0.021 -0.0125549
      endloop
   endfacet
   facet normal 0 1 0
      outer loop
         vertex -0.0190823 0.021 -0.0118413
         vertex -0.0203446 0.021 -0.0126971
         vertex -0.0204527 0.021 -0.0125549
      endloop
   endfacet
   facet normal 0 1 0
      outer loop
         vertex -0.0201774 0.021 -0.0130124
         vertex -0.0187607 0.021 -0.0124479
         vertex -0.018651 0.021 -0.0127737
      endloop
   endfacet
   facet normal 0 1 0
      outer loop
         vertex -0.0204527 0.021 -0.0146913
         vertex -0.0203446 0.021 -0.014549
         vertex -0.0190823 0.021 -0.0154049
      endloop
   endfacet
   facet normal 0 1 0
      outer loop
         vertex -0.0205755 0.021 -0.014821
         vertex -0.0195268 0.021 -0.0159281
         vertex -0.0197888 0.021 -0.0161507
      endloop
   endfacet
   facet normal 0 1 0
      outer loop
         vertex -0.0227088 0.021 -0.0149366
         vertex -0.0236317 0.021 -0.0161507
         vertex -0.0238937 0.021 -0.0159281
      endloop
   endfacet
   facet normal 0 1 0
      outer loop
         vertex -0.0230759 0.021 -0.014549
         vertex -0.0243382 0.021 -0.0154049
         vertex -0.0245154 0.021 -0.0151103
      endloop
   endfacet
   facet normal 0 1 0
      outer loop
         vertex -0.0233385 0.021 -0.0133561
         vertex -0.0248434 0.021 -0.0131094
         vertex -0.0247695 0.021 -0.0127737
      endloop
   endfacet
   facet normal 0 1 0
      outer loop
         vertex -0.0247695 0.021 -0.0127737
         vertex -0.0246598 0.021 -0.0124479
         vertex -0.0232431 0.021 -0.0130124
      endloop
   endfacet
   facet normal 0 1 0
      outer loop
         vertex -0.0230434 0.021 -0.0107415
         vertex -0.0224031 0.021 -0.0121256
         vertex -0.0225609 0.021 -0.0122093
      endloop
   endfacet
   facet normal 0 1 0
      outer loop
         vertex -0.022065 0.021 -0.0120117
         vertex -0.0222371 0.021 -0.0120595
         vertex -0.022724 0.021 -0.0106143
      endloop
   endfacet
   facet normal 0 1 0
      outer loop
         vertex -0.0217102 0.021 -0.0104481
         vertex -0.021367 0.021 -0.0104667
         vertex -0.0215319 0.021 -0.0119828
      endloop
   endfacet
   facet normal 0 1 0
      outer loop
         vertex -0.0211834 0.021 -0.0120595
         vertex -0.0213555 0.021 -0.0120117
         vertex -0.0210277 0.021 -0.0105223
      endloop
   endfacet
   facet normal 0 1 0
      outer loop
         vertex -0.0203771 0.021 -0.0107415
         vertex -0.0210174 0.021 -0.0121256
         vertex -0.0211834 0.021 -0.0120595
      endloop
   endfacet
   facet normal 0 1 0
      outer loop
         vertex -0.0203771 0.021 -0.0107415
         vertex -0.0200734 0.021 -0.0109026
         vertex -0.0208596 0.021 -0.0122093
      endloop
   endfacet
   facet normal 0 1 0
      outer loop
         vertex -0.0204527 0.021 -0.0125549
         vertex -0.0205755 0.021 -0.0124252
         vertex -0.0195268 0.021 -0.011318
      endloop
   endfacet
   facet normal 0 1 0
      outer loop
         vertex -0.0203446 0.021 -0.0126971
         vertex -0.0190823 0.021 -0.0118413
         vertex -0.0189051 0.021 -0.0121359
      endloop
   endfacet
   facet normal 0 1 0
      outer loop
         vertex -0.0185399 0.021 -0.0134512
         vertex -0.0185399 0.021 -0.013795
         vertex -0.0200627 0.021 -0.0137124
      endloop
   endfacet
   facet normal 0 1 0
      outer loop
         vertex -0.0204527 0.021 -0.0146913
         vertex -0.0192904 0.021 -0.0156785
         vertex -0.0195268 0.021 -0.0159281
      endloop
   endfacet
   facet normal 0 1 0
      outer loop
         vertex -0.0229678 0.021 -0.0146913
         vertex -0.0241301 0.021 -0.0156785
         vertex -0.0243382 0.021 -0.0154049
      endloop
   endfacet
   facet normal 0 1 0
      outer loop
         vertex -0.0248806 0.021 -0.013795
         vertex -0.0248806 0.021 -0.0134512
         vertex -0.0233578 0.021 -0.0135338
      endloop
   endfacet
   facet normal 0 1 0
      outer loop
         vertex -0.0232431 0.021 -0.0130124
         vertex -0.0233001 0.021 -0.0131817
         vertex -0.0247695 0.021 -0.0127737
      endloop
   endfacet
   facet normal 0 1 0
      outer loop
         vertex -0.0246598 0.021 -0.0124479
         vertex -0.0245154 0.021 -0.0121359
         vertex -0.023168 0.021 -0.0128502
      endloop
   endfacet
   facet normal 0 1 0
      outer loop
         vertex -0.0233471 0.021 -0.0109026
         vertex -0.0225609 0.021 -0.0122093
         vertex -0.0227088 0.021 -0.0123095
      endloop
   endfacet
   facet normal 0 1 0
      outer loop
         vertex -0.0222371 0.021 -0.0120595
         vertex -0.0224031 0.021 -0.0121256
         vertex -0.0230434 0.021 -0.0107415
      endloop
   endfacet
   facet normal 0 1 0
      outer loop
         vertex -0.0215319 0.021 -0.0119828
         vertex -0.021367 0.021 -0.0104667
         vertex -0.0210277 0.021 -0.0105223
      endloop
   endfacet
   facet normal 0 1 0
      outer loop
         vertex -0.0208596 0.021 -0.0122093
         vertex -0.0210174 0.021 -0.0121256
         vertex -0.0203771 0.021 -0.0107415
      endloop
   endfacet
   facet normal 0 1 0
      outer loop
         vertex -0.0204527 0.021 -0.0125549
         vertex -0.0192904 0.021 -0.0115676
         vertex -0.0190823 0.021 -0.0118413
      endloop
   endfacet
   facet normal 0 1 0
      outer loop
         vertex -0.0200627 0.021 -0.0137124
         vertex -0.0185399 0.021 -0.013795
         vertex -0.0185771 0.021 -0.0141367
      endloop
   endfacet
   facet normal 0 1 0
      outer loop
         vertex -0.0233578 0.021 -0.0135338
         vertex -0.0233578 0.021 -0.0137124
         vertex -0.0248806 0.021 -0.013795
      endloop
   endfacet
   facet normal 0 1 0
      outer loop
         vertex -0.023168 0.021 -0.0128502
         vertex -0.0232431 0.021 -0.0130124
         vertex -0.0246598 0.021 -0.0124479
      endloop
   endfacet
   facet normal 0 1 0
      outer loop
         vertex -0.0243382 0.021 -0.0118413
         vertex -0.0230759 0.021 -0.0126971
         vertex -0.023168 0.021 -0.0128502
      endloop
   endfacet
   facet normal 0 1 0
      outer loop
         vertex -0.0243382 0.021 -0.0118413
         vertex -0.0241301 0.021 -0.0115676
         vertex -0.0229678 0.021 -0.0125549
      endloop
   endfacet
   facet normal 0 1 0
      outer loop
         vertex -0.0225609 0.021 -0.0122093
         vertex -0.0233471 0.021 -0.0109026
         vertex -0.0230434 0.021 -0.0107415
      endloop
   endfacet
   facet normal 0 1 0
      outer loop
         vertex -0.0223928 0.021 -0.0105223
         vertex -0.0220535 0.021 -0.0104667
         vertex -0.0218886 0.021 -0.0119828
      endloop
   endfacet
   facet normal 0 1 0
      outer loop
         vertex -0.0211834 0.021 -0.0120595
         vertex -0.0206965 0.021 -0.0106143
         vertex -0.0203771 0.021 -0.0107415
      endloop
   endfacet
   facet normal 0 1 0
      outer loop
         vertex -0.0200627 0.021 -0.0137124
         vertex -0.0200627 0.021 -0.0135338
         vertex -0.0185399 0.021 -0.0134512
      endloop
   endfacet
   facet normal 0 1 0
      outer loop
         vertex -0.0233578 0.021 -0.0135338
         vertex -0.0248806 0.021 -0.0134512
         vertex -0.0248434 0.021 -0.0131094
      endloop
   endfacet
   facet normal 0 1 0
      outer loop
         vertex -0.0229678 0.021 -0.0125549
         vertex -0.0230759 0.021 -0.0126971
         vertex -0.0243382 0.021 -0.0118413
      endloop
   endfacet
   facet normal 0 1 0
      outer loop
         vertex -0.0238937 0.021 -0.011318
         vertex -0.022845 0.021 -0.0124252
         vertex -0.0229678 0.021 -0.0125549
      endloop
   endfacet
   facet normal 0 1 0
      outer loop
         vertex -0.0238937 0.021 -0.011318
         vertex -0.0236317 0.021 -0.0110955
         vertex -0.0227088 0.021 -0.0123095
      endloop
   endfacet
   facet normal 0 1 0
      outer loop
         vertex -0.0218886 0.021 -0.0119828
         vertex -0.022065 0.021 -0.0120117
         vertex -0.0223928 0.021 -0.0105223
      endloop
   endfacet
   facet normal 0 1 0
      outer loop
         vertex -0.0217102 0.021 -0.0104481
         vertex -0.0217102 0.021 -0.0119731
         vertex -0.0218886 0.021 -0.0119828
      endloop
   endfacet
   facet normal 0 1 0
      outer loop
         vertex -0.0208596 0.021 -0.0122093
         vertex -0.0200734 0.021 -0.0109026
         vertex -0.0197888 0.021 -0.0110955
      endloop
   endfacet
   facet normal 0 1 0
      outer loop
         vertex -0.023168 0.021 -0.0128502
         vertex -0.0245154 0.021 -0.0121359
         vertex -0.0243382 0.021 -0.0118413
      endloop
   endfacet
   facet normal 0 1 0
      outer loop
         vertex -0.0227088 0.021 -0.0123095
         vertex -0.022845 0.021 -0.0124252
         vertex -0.0238937 0.021 -0.011318
      endloop
   endfacet
   facet normal 0 1 0
      outer loop
         vertex -0.0218886 0.021 -0.0119828
         vertex -0.0220535 0.021 -0.0104667
         vertex -0.0217102 0.021 -0.0104481
      endloop
   endfacet
   facet normal 0 1 0
      outer loop
         vertex -0.0208596 0.021 -0.0150369
         vertex -0.0200734 0.021 -0.0163436
         vertex -0.0203771 0.021 -0.0165046
      endloop
   endfacet
   facet normal 0 1 0
      outer loop
         vertex -0.0227088 0.021 -0.0123095
         vertex -0.0236317 0.021 -0.0110955
         vertex -0.0233471 0.021 -0.0109026
      endloop
   endfacet
   facet normal 0 1 0
      outer loop
         vertex -0.0229678 0.021 -0.0125549
         vertex -0.0241301 0.021 -0.0115676
         vertex -0.0238937 0.021 -0.011318
      endloop
   endfacet
   facet normal 0 1 0
      outer loop
         vertex -0.0215319 0.021 -0.0119828
         vertex -0.0217102 0.021 -0.0119731
         vertex -0.0217102 0.021 -0.0104481
      endloop
   endfacet
   facet normal 0 0 -1
      outer loop
         vertex -0.0217102 0 -0.0167981
         vertex -0.0217102 0.021 -0.0167981
         vertex -0.021367 0.021 -0.0167795
      endloop
   endfacet
   facet normal 0.108119 0 -0.994138
      outer loop
         vertex -0.021367 0 -0.0167795
         vertex -0.021367 0.021 -0.0167795
         vertex -0.0210277 0.021 -0.0167239
      endloop
   endfacet
   facet normal 0.21497 0 -0.976621
      outer loop
         vertex -0.0210277 0 -0.0167239
         vertex -0.0210277 0.021 -0.0167239
         vertex -0.0206965 0.021 -0.0166319
      endloop
   endfacet
   facet normal 0.319302 0 -0.947653
      outer loop
         vertex -0.0206965 0 -0.0166319
         vertex -0.0206965 0.021 -0.0166319
         vertex -0.0203771 0.021 -0.0165046
      endloop
   endfacet
   facet normal 0.419889 0 -0.907575
      outer loop
         vertex -0.0203771 0 -0.0165046
         vertex -0.0203771 0.021 -0.0165046
         vertex -0.0200734 0.021 -0.0163436
      endloop
   endfacet
   facet normal 0.515554 0 -0.856857
      outer loop
         vertex -0.0200734 0 -0.0163436
         vertex -0.0200734 0.021 -0.0163436
         vertex -0.0197888 0.021 -0.0161507
      endloop
   endfacet
   facet normal 0.605174 0 -0.796093
      outer loop
         vertex -0.0197888 0 -0.0161507
         vertex -0.0197888 0.021 -0.0161507
         vertex -0.0195268 0.021 -0.0159281
      endloop
   endfacet
   facet normal 0.687699 0 -0.725995
      outer loop
         vertex -0.0195268 0 -0.0159281
         vertex -0.0195268 0.021 -0.0159281
         vertex -0.0192904 0.021 -0.0156785
      endloop
   endfacet
   facet normal 0.762162 0 -0.647386
      outer loop
         vertex -0.0192904 0 -0.0156785
         vertex -0.0192904 0.021 -0.0156785
         vertex -0.0190823 0.021 -0.0154049
      endloop
   endfacet
   facet normal 0.827689 0 -0.561187
      outer loop
         vertex -0.0190823 0 -0.0154049
         vertex -0.0190823 0.021 -0.0154049
         vertex -0.0189051 0.021 -0.0151103
      endloop
   endfacet
   facet normal 0.883512 0 -0.468408
      outer loop
         vertex -0.0189051 0 -0.0151103
         vertex -0.0189051 0.021 -0.0151103
         vertex -0.0187607 0.021 -0.0147983
      endloop
   endfacet
   facet normal 0.928977 0 -0.370138
      outer loop
         vertex -0.0187607 0 -0.0147983
         vertex -0.0187607 0.021 -0.0147983
         vertex -0.018651 0.021 -0.0144725
      endloop
   endfacet
   facet normal 0.96355 0 -0.267528
      outer loop
         vertex -0.018651 0 -0.0144725
         vertex -0.018651 0.021 -0.0144725
         vertex -0.0185771 0.021 -0.0141367
      endloop
   endfacet
   facet normal 0.986827 0 -0.161782
      outer loop
         vertex -0.0185771 0 -0.0141367
         vertex -0.0185771 0.021 -0.0141367
         vertex -0.0185399 0.021 -0.013795
      endloop
   endfacet
   facet normal 0.998533 0 -0.0541389
      outer loop
         vertex -0.0185399 0 -0.013795
         vertex -0.0185399 0.021 -0.013795
         vertex -0.0185399 0.021 -0.0134512
      endloop
   endfacet
   facet normal 0.998533 0 0.0541389
      outer loop
         vertex -0.0185399 0 -0.0134512
         vertex -0.0185399 0.021 -0.0134512
         vertex -0.0185771 0.021 -0.0131094
      endloop
   endfacet
   facet normal 0.986827 0 0.161782
      outer loop
         vertex -0.0185771 0 -0.0131094
         vertex -0.0185771 0.021 -0.0131094
         vertex -0.018651 0.021 -0.0127737
      endloop
   endfacet
   facet normal 0.96355 0 0.267528
      outer loop
         vertex -0.018651 0 -0.0127737
         vertex -0.018651 0.021 -0.0127737
         vertex -0.0187607 0.021 -0.0124479
      endloop
   endfacet
   facet normal 0.928977 0 0.370138
      outer loop
         vertex -0.0187607 0 -0.0124479
         vertex -0.0187607 0.021 -0.0124479
         vertex -0.0189051 0.021 -0.0121359
      endloop
   endfacet
   facet normal 0.883512 0 0.468408
      outer loop
         vertex -0.0189051 0 -0.0121359
         vertex -0.0189051 0.021 -0.0121359
         vertex -0.0190823 0.021 -0.0118413
      endloop
   endfacet
   facet normal 0.827689 0 0.561187
      outer loop
         vertex -0.0190823 0 -0.0118413
         vertex -0.0190823 0.021 -0.0118413
         vertex -0.0192904 0.021 -0.0115676
      endloop
   endfacet
   facet normal 0.762162 0 0.647386
      outer loop
         vertex -0.0192904 0 -0.0115676
         vertex -0.0192904 0.021 -0.0115676
         vertex -0.0195268 0.021 -0.011318
      endloop
   endfacet
   facet normal 0.687699 0 0.725995
      outer loop
         vertex -0.0195268 0 -0.011318
         vertex -0.0195268 0.021 -0.011318
         vertex -0.0197888 0.021 -0.0110955
      endloop
   endfacet
   facet normal 0.605174 0 0.796093
      outer loop
         vertex -0.0197888 0 -0.0110955
         vertex -0.0197888 0.021 -0.0110955
         vertex -0.0200734 0.021 -0.0109026
      endloop
   endfacet
   facet normal 0.515554 0 0.856857
      outer loop
         vertex -0.0200734 0 -0.0109026
         vertex -0.0200734 0.021 -0.0109026
         vertex -0.0203771 0.021 -0.0107415
      endloop
   endfacet
   facet normal 0.419889 0 0.907575
      outer loop
         vertex -0.0203771 0 -0.0107415
         vertex -0.0203771 0.021 -0.0107415
         vertex -0.0206965 0.021 -0.0106143
      endloop
   endfacet
   facet normal 0.319302 0 0.947653
      outer loop
         vertex -0.0206965 0 -0.0106143
         vertex -0.0206965 0.021 -0.0106143
         vertex -0.0210277 0.021 -0.0105223
      endloop
   endfacet
   facet normal 0.21497 0 0.976621
      outer loop
         vertex -0.0210277 0 -0.0105223
         vertex -0.0210277 0.021 -0.0105223
         vertex -0.021367 0.021 -0.0104667
      endloop
   endfacet
   facet normal 0.108119 0 0.994138
      outer loop
         vertex -0.021367 0 -0.0104667
         vertex -0.021367 0.021 -0.0104667
         vertex -0.0217102 0.021 -0.0104481
      endloop
   endfacet
   facet normal 1.22465e-16 0 1
      outer loop
         vertex -0.0217102 0 -0.0104481
         vertex -0.0217102 0.021 -0.0104481
         vertex -0.0220535 0.021 -0.0104667
      endloop
   endfacet
   facet normal -0.108119 0 0.994138
      outer loop
         vertex -0.0220535 0 -0.0104667
         vertex -0.0220535 0.021 -0.0104667
         vertex -0.0223928 0.021 -0.0105223
      endloop
   endfacet
   facet normal -0.21497 0 0.976621
      outer loop
         vertex -0.0223928 0 -0.0105223
         vertex -0.0223928 0.021 -0.0105223
         vertex -0.022724 0.021 -0.0106143
      endloop
   endfacet
   facet normal -0.319302 0 0.947653
      outer loop
         vertex -0.022724 0 -0.0106143
         vertex -0.022724 0.021 -0.0106143
         vertex -0.0230434 0.021 -0.0107415
      endloop
   endfacet
   facet normal -0.419889 0 0.907575
      outer loop
         vertex -0.0230434 0 -0.0107415
         vertex -0.0230434 0.021 -0.0107415
         vertex -0.0233471 0.021 -0.0109026
      endloop
   endfacet
   facet normal -0.515554 0 0.856857
      outer loop
         vertex -0.0233471 0 -0.0109026
         vertex -0.0233471 0.021 -0.0109026
         vertex -0.0236317 0.021 -0.0110955
      endloop
   endfacet
   facet normal -0.605174 0 0.796093
      outer loop
         vertex -0.0236317 0 -0.0110955
         vertex -0.0236317 0.021 -0.0110955
         vertex -0.0238937 0.021 -0.011318
      endloop
   endfacet
   facet normal -0.687699 0 0.725995
      outer loop
         vertex -0.0238937 0 -0.011318
         vertex -0.0238937 0.021 -0.011318
         vertex -0.0241301 0.021 -0.0115676
      endloop
   endfacet
   facet normal -0.762162 0 0.647386
      outer loop
         vertex -0.0241301 0 -0.0115676
         vertex -0.0241301 0.021 -0.0115676
         vertex -0.0243382 0.021 -0.0118413
      endloop
   endfacet
   facet normal -0.827689 0 0.561187
      outer loop
         vertex -0.0243382 0 -0.0118413
         vertex -0.0243382 0.021 -0.0118413
         vertex -0.0245154 0.021 -0.0121359
      endloop
   endfacet
   facet normal -0.883512 0 0.468408
      outer loop
         vertex -0.0245154 0 -0.0121359
         vertex -0.0245154 0.021 -0.0121359
         vertex -0.0246598 0.021 -0.0124479
      endloop
   endfacet
   facet normal -0.928977 0 0.370138
      outer loop
         vertex -0.0246598 0 -0.0124479
         vertex -0.0246598 0.021 -0.0124479
         vertex -0.0247695 0.021 -0.0127737
      endloop
   endfacet
   facet normal -0.96355 0 0.267528
      outer loop
         vertex -0.0247695 0 -0.0127737
         vertex -0.0247695 0.021 -0.0127737
         vertex -0.0248434 0.021 -0.0131094
      endloop
   endfacet
   facet normal -0.986827 0 0.161782
      outer loop
         vertex -0.0248434 0 -0.0131094
         vertex -0.0248434 0.021 -0.0131094
         vertex -0.0248806 0.021 -0.0134512
      endloop
   endfacet
   facet normal -0.998533 0 0.0541389
      outer loop
         vertex -0.0248806 0 -0.0134512
         vertex -0.0248806 0.021 -0.0134512
         vertex -0.0248806 0.021 -0.013795
      endloop
   endfacet
   facet normal -0.998533 0 -0.0541389
      outer loop
         vertex -0.0248806 0 -0.013795
         vertex -0.0248806 0.021 -0.013795
         vertex -0.0248434 0.021 -0.0141367
      endloop
   endfacet
   facet normal -0.986827 0 -0.161782
      outer loop
         vertex -0.0248434 0 -0.0141367
         vertex -0.0248434 0.021 -0.0141367
         vertex -0.0247695 0.021 -0.0144725
      endloop
   endfacet
   facet normal -0.96355 0 -0.267528
      outer loop
         vertex -0.0247695 0 -0.0144725
         vertex -0.0247695 0.021 -0.0144725
         vertex -0.0246598 0.021 -0.0147983
      endloop
   endfacet
   facet normal -0.928977 0 -0.370138
      outer loop
         vertex -0.0246598 0 -0.0147983
         vertex -0.0246598 0.021 -0.0147983
         vertex -0.0245154 0.021 -0.0151103
      endloop
   endfacet
   facet normal -0.883512 0 -0.468408
      outer loop
         vertex -0.0245154 0 -0.0151103
         vertex -0.0245154 0.021 -0.0151103
         vertex -0.0243382 0.021 -0.0154049
      endloop
   endfacet
   facet normal -0.827689 0 -0.561187
      outer loop
         vertex -0.0243382 0 -0.0154049
         vertex -0.0243382 0.021 -0.0154049
         vertex -0.0241301 0.021 -0.0156785
      endloop
   endfacet
   facet normal -0.762162 0 -0.647386
      outer loop
         vertex -0.0241301 0 -0.0156785
         vertex -0.0241301 0.021 -0.0156785
         vertex -0.0238937 0.021 -0.0159281
      endloop
   endfacet
   facet normal -0.687699 0 -0.725995
      outer loop
         vertex -0.0238937 0 -0.0159281
         vertex -0.0238937 0.021 -0.0159281
         vertex -0.0236317 0.021 -0.0161507
      endloop
   endfacet
   facet normal -0.605174 0 -0.796093
      outer loop
         vertex -0.0236317 0 -0.0161507
         vertex -0.0236317 0.021 -0.0161507
         vertex -0.0233471 0.021 -0.0163436
      endloop
   endfacet
   facet normal -0.515554 0 -0.856857
      outer loop
         vertex -0.0233471 0 -0.0163436
         vertex -0.0233471 0.021 -0.0163436
         vertex -0.0230434 0.021 -0.0165046
      endloop
   endfacet
   facet normal -0.419889 0 -0.907575
      outer loop
         vertex -0.0230434 0 -0.0165046
         vertex -0.0230434 0.021 -0.0165046
         vertex -0.022724 0.021 -0.0166319
      endloop
   endfacet
   facet normal -0.319302 0 -0.947653
      outer loop
         vertex -0.022724 0 -0.0166319
         vertex -0.022724 0.021 -0.0166319
         vertex -0.0223928 0.021 -0.0167239
      endloop
   endfacet
   facet normal -0.21497 0 -0.976621
      outer loop
         vertex -0.0223928 0 -0.0167239
         vertex -0.0223928 0.021 -0.0167239
         vertex -0.0220535 0.021 -0.0167795
      endloop
   endfacet
   facet normal -0.108119 0 -0.994138
      outer loop
         vertex -0.0220535 0 -0.0167795
         vertex -0.0220535 0.021 -0.0167795
         vertex -0.0217102 0.021 -0.0167981
      endloop
   endfacet
   facet normal 0 0 -1
      outer loop
         vertex -0.0217102 0.021 -0.0167981
         vertex -0.0217102 0 -0.0167981
         vertex -0.0220535 0 -0.0167795
      endloop
   endfacet
   facet normal -0.108119 0 -0.994138
      outer loop
         vertex -0.0220535 0.021 -0.0167795
         vertex -0.0220535 0 -0.0167795
         vertex -0.0223928 0 -0.0167239
      endloop
   endfacet
   facet normal -0.21497 0 -0.976621
      outer loop
         vertex -0.0223928 0.021 -0.0167239
         vertex -0.0223928 0 -0.0167239
         vertex -0.022724 0 -0.0166319
      endloop
   endfacet
   facet normal -0.319302 0 -0.947653
      outer loop
         vertex -0.022724 0.021 -0.0166319
         vertex -0.022724 0 -0.0166319
         vertex -0.0230434 0 -0.0165046
      endloop
   endfacet
   facet normal -0.419889 0 -0.907575
      outer loop
         vertex -0.0230434 0.021 -0.0165046
         vertex -0.0230434 0 -0.0165046
         vertex -0.0233471 0 -0.0163436
      endloop
   endfacet
   facet normal -0.515554 0 -0.856857
      outer loop
         vertex -0.0233471 0.021 -0.0163436
         vertex -0.0233471 0 -0.0163436
         vertex -0.0236317 0 -0.0161507
      endloop
   endfacet
   facet normal -0.605174 0 -0.796093
      outer loop
         vertex -0.0236317 0.021 -0.0161507
         vertex -0.0236317 0 -0.0161507
         vertex -0.0238937 0 -0.0159281
      endloop
   endfacet
   facet normal -0.687699 0 -0.725995
      outer loop
         vertex -0.0238937 0.021 -0.0159281
         vertex -0.0238937 0 -0.0159281
         vertex -0.0241301 0 -0.0156785
      endloop
   endfacet
   facet normal -0.762162 0 -0.647386
      outer loop
         vertex -0.0241301 0.021 -0.0156785
         vertex -0.0241301 0 -0.0156785
         vertex -0.0243382 0 -0.0154049
      endloop
   endfacet
   facet normal -0.827689 0 -0.561187
      outer loop
         vertex -0.0243382 0.021 -0.0154049
         vertex -0.0243382 0 -0.0154049
         vertex -0.0245154 0 -0.0151103
      endloop
   endfacet
   facet normal -0.883512 0 -0.468408
      outer loop
         vertex -0.0245154 0.021 -0.0151103
         vertex -0.0245154 0 -0.0151103
         vertex -0.0246598 0 -0.0147983
      endloop
   endfacet
   facet normal -0.928977 0 -0.370138
      outer loop
         vertex -0.0246598 0.021 -0.0147983
         vertex -0.0246598 0 -0.0147983
         vertex -0.0247695 0 -0.0144725
      endloop
   endfacet
   facet normal -0.96355 0 -0.267528
      outer loop
         vertex -0.0247695 0.021 -0.0144725
         vertex -0.0247695 0 -0.0144725
         vertex -0.0248434 0 -0.0141367
      endloop
   endfacet
   facet normal -0.986827 0 -0.161782
      outer loop
         vertex -0.0248434 0.021 -0.0141367
         vertex -0.0248434 0 -0.0141367
         vertex -0.0248806 0 -0.013795
      endloop
   endfacet
   facet normal -0.998533 0 -0.0541389
      outer loop
         vertex -0.0248806 0.021 -0.013795
         vertex -0.0248806 0 -0.013795
         vertex -0.0248806 0 -0.0134512
      endloop
   endfacet
   facet normal -0.998533 0 0.0541389
      outer loop
         vertex -0.0248806 0.021 -0.0134512
         vertex -0.0248806 0 -0.0134512
         vertex -0.0248434 0 -0.0131094
      endloop
   endfacet
   facet normal -0.986827 0 0.161782
      outer loop
         vertex -0.0248434 0.021 -0.0131094
         vertex -0.0248434 0 -0.0131094
         vertex -0.0247695 0 -0.0127737
      endloop
   endfacet
   facet normal -0.96355 0 0.267528
      outer loop
         vertex -0.0247695 0.021 -0.0127737
         vertex -0.0247695 0 -0.0127737
         vertex -0.0246598 0 -0.0124479
      endloop
   endfacet
   facet normal -0.928977 0 0.370138
      outer loop
         vertex -0.0246598 0.021 -0.0124479
         vertex -0.0246598 0 -0.0124479
         vertex -0.0245154 0 -0.0121359
      endloop
   endfacet
   facet normal -0.883512 0 0.468408
      outer loop
         vertex -0.0245154 0.021 -0.0121359
         vertex -0.0245154 0 -0.0121359
         vertex -0.0243382 0 -0.0118413
      endloop
   endfacet
   facet normal -0.827689 0 0.561187
      outer loop
         vertex -0.0243382 0.021 -0.0118413
         vertex -0.0243382 0 -0.0118413
         vertex -0.0241301 0 -0.0115676
      endloop
   endfacet
   facet normal -0.762162 0 0.647386
      outer loop
         vertex -0.0241301 0.021 -0.0115676
         vertex -0.0241301 0 -0.0115676
         vertex -0.0238937 0 -0.011318
      endloop
   endfacet
   facet normal -0.687699 0 0.725995
      outer loop
         vertex -0.0238937 0.021 -0.011318
         vertex -0.0238937 0 -0.011318
         vertex -0.0236317 0 -0.0110955
      endloop
   endfacet
   facet normal -0.605174 0 0.796093
      outer loop
         vertex -0.0236317 0.021 -0.0110955
         vertex -0.0236317 0 -0.0110955
         vertex -0.0233471 0 -0.0109026
      endloop
   endfacet
   facet normal -0.515554 0 0.856857
      outer loop
         vertex -0.0233471 0.021 -0.0109026
         vertex -0.0233471 0 -0.0109026
         vertex -0.0230434 0 -0.0107415
      endloop
   endfacet
   facet normal -0.419889 0 0.907575
      outer loop
         vertex -0.0230434 0.021 -0.0107415
         vertex -0.0230434 0 -0.0107415
         vertex -0.022724 0 -0.0106143
      endloop
   endfacet
   facet normal -0.319302 0 0.947653
      outer loop
         vertex -0.022724 0.021 -0.0106143
         vertex -0.022724 0 -0.0106143
         vertex -0.0223928 0 -0.0105223
      endloop
   endfacet
   facet normal -0.21497 0 0.976621
      outer loop
         vertex -0.0223928 0.021 -0.0105223
         vertex -0.0223928 0 -0.0105223
         vertex -0.0220535 0 -0.0104667
      endloop
   endfacet
   facet normal -0.108119 0 0.994138
      outer loop
         vertex -0.0220535 0.021 -0.0104667
         vertex -0.0220535 0 -0.0104667
         vertex -0.0217102 0 -0.0104481
      endloop
   endfacet
   facet normal 1.22465e-16 0 1
      outer loop
         vertex -0.0217102 0.021 -0.0104481
         vertex -0.0217102 0 -0.0104481
         vertex -0.021367 0 -0.0104667
      endloop
   endfacet
   facet normal 0.108119 0 0.994138
      outer loop
         vertex -0.021367 0.021 -0.0104667
         vertex -0.021367 0 -0.0104667
         vertex -0.0210277 0 -0.0105223
      endloop
   endfacet
   facet normal 0.21497 0 0.976621
      outer loop
         vertex -0.0210277 0.021 -0.0105223
         vertex -0.0210277 0 -0.0105223
         vertex -0.0206965 0 -0.0106143
      endloop
   endfacet
   facet normal 0.319302 0 0.947653
      outer loop
         vertex -0.0206965 0.021 -0.0106143
         vertex -0.0206965 0 -0.0106143
         vertex -0.0203771 0 -0.0107415
      endloop
   endfacet
   facet normal 0.419889 0 0.907575
      outer loop
         vertex -0.0203771 0.021 -0.0107415
         vertex -0.0203771 0 -0.0107415
         vertex -0.0200734 0 -0.0109026
      endloop
   endfacet
   facet normal 0.515554 0 0.856857
      outer loop
         vertex -0.0200734 0.021 -0.0109026
         vertex -0.0200734 0 -0.0109026
         vertex -0.0197888 0 -0.0110955
      endloop
   endfacet
   facet normal 0.605174 0 0.796093
      outer loop
         vertex -0.0197888 0.021 -0.0110955
         vertex -0.0197888 0 -0.0110955
         vertex -0.0195268 0 -0.011318
      endloop
   endfacet
   facet normal 0.687699 0 0.725995
      outer loop
         vertex -0.0195268 0.021 -0.011318
         vertex -0.0195268 0 -0.011318
         vertex -0.0192904 0 -0.0115676
      endloop
   endfacet
   facet normal 0.762162 0 0.647386
      outer loop
         vertex -0.0192904 0.021 -0.0115676
         vertex -0.0192904 0 -0.0115676
         vertex -0.0190823 0 -0.0118413
      endloop
   endfacet
   facet normal 0.827689 0 0.561187
      outer loop
         vertex -0.0190823 0.021 -0.0118413
         vertex -0.0190823 0 -0.0118413
         vertex -0.0189051 0 -0.0121359
      endloop
   endfacet
   facet normal 0.883512 0 0.468408
      outer loop
         vertex -0.0189051 0.021 -0.0121359
         vertex -0.0189051 0 -0.0121359
         vertex -0.0187607 0 -0.0124479
      endloop
   endfacet
   facet normal 0.928977 0 0.370138
      outer loop
         vertex -0.0187607 0.021 -0.0124479
         vertex -0.0187607 0 -0.0124479
         vertex -0.018651 0 -0.0127737
      endloop
   endfacet
   facet normal 0.96355 0 0.267528
      outer loop
         vertex -0.018651 0.021 -0.0127737
         vertex -0.018651 0 -0.0127737
         vertex -0.0185771 0 -0.0131094
      endloop
   endfacet
   facet normal 0.986827 0 0.161782
      outer loop
         vertex -0.0185771 0.021 -0.0131094
         vertex -0.0185771 0 -0.0131094
         vertex -0.0185399 0 -0.0134512
      endloop
   endfacet
   facet normal 0.998533 0 0.0541389
      outer loop
         vertex -0.0185399 0.021 -0.0134512
         vertex -0.0185399 0 -0.0134512
         vertex -0.0185399 0 -0.013795
      endloop
   endfacet
   facet normal 0.998533 0 -0.0541389
      outer loop
         vertex -0.0185399 0.021 -0.013795
         vertex -0.0185399 0 -0.013795
         vertex -0.0185771 0 -0.0141367
      endloop
   endfacet
   facet normal 0.986827 0 -0.161782
      outer loop
         vertex -0.0185771 0.021 -0.0141367
         vertex -0.0185771 0 -0.0141367
         vertex -0.018651 0 -0.0144725
      endloop
   endfacet
   facet normal 0.96355 0 -0.267528
      outer loop
         vertex -0.018651 0.021 -0.0144725
         vertex -0.018651 0 -0.0144725
         vertex -0.0187607 0 -0.0147983
      endloop
   endfacet
   facet normal 0.928977 0 -0.370138
      outer loop
         vertex -0.0187607 0.021 -0.0147983
         vertex -0.0187607 0 -0.0147983
         vertex -0.0189051 0 -0.0151103
      endloop
   endfacet
   facet normal 0.883512 0 -0.468408
      outer loop
         vertex -0.0189051 0.021 -0.0151103
         vertex -0.0189051 0 -0.0151103
         vertex -0.0190823 0 -0.0154049
      endloop
   endfacet
   facet normal 0.827689 0 -0.561187
      outer loop
         vertex -0.0190823 0.021 -0.0154049
         vertex -0.0190823 0 -0.0154049
         vertex -0.0192904 0 -0.0156785
      endloop
   endfacet
   facet normal 0.762162 0 -0.647386
      outer loop
         vertex -0.0192904 0.021 -0.0156785
         vertex -0.0192904 0 -0.0156785
         vertex -0.0195268 0 -0.0159281
      endloop
   endfacet
   facet normal 0.687699 0 -0.725995
      outer loop
         vertex -0.0195268 0.021 -0.0159281
         vertex -0.0195268 0 -0.0159281
         vertex -0.0197888 0 -0.0161507
      endloop
   endfacet
   facet normal 0.605174 0 -0.796093
      outer loop
         vertex -0.0197888 0.021 -0.0161507
         vertex -0.0197888 0 -0.0161507
         vertex -0.0200734 0 -0.0163436
      endloop
   endfacet
   facet normal 0.515554 0 -0.856857
      outer loop
         vertex -0.0200734 0.021 -0.0163436
         vertex -0.0200734 0 -0.0163436
         vertex -0.0203771 0 -0.0165046
      endloop
   endfacet
   facet normal 0.419889 0 -0.907575
      outer loop
         vertex -0.0203771 0.021 -0.0165046
         vertex -0.0203771 0 -0.0165046
         vertex -0.0206965 0 -0.0166319
      endloop
   endfacet
   facet normal 0.319302 0 -0.947653
      outer loop
         vertex -0.0206965 0.021 -0.0166319
         vertex -0.0206965 0 -0.0166319
         vertex -0.0210277 0 -0.0167239
      endloop
   endfacet
   facet normal 0.21497 0 -0.976621
      outer loop
         vertex -0.0210277 0.021 -0.0167239
         vertex -0.0210277 0 -0.0167239
         vertex -0.021367 0 -0.0167795
      endloop
   endfacet
   facet normal 0.108119 0 -0.994138
      outer loop
         vertex -0.021367 0.021 -0.0167795
         vertex -0.021367 0 -0.0167795
         vertex -0.0217102 0 -0.0167981
      endloop
   endfacet
   facet normal 0 -1 0
      outer loop
         vertex -0.018651 0 -0.0144725
         vertex -0.0201204 0 -0.0140645
         vertex -0.0201774 0 -0.0142338
      endloop
   endfacet
   facet normal 0 -1 0
      outer loop
         vertex -0.018651 0 -0.0144725
         vertex -0.0185771 0 -0.0141367
         vertex -0.020082 0 -0.01389
      endloop
   endfacet
   facet normal 0 -1 0
      outer loop
         vertex -0.0189051 0 -0.0151103
         vertex -0.0202525 0 -0.014396
         vertex -0.0203446 0 -0.014549
      endloop
   endfacet
   facet normal 0 -1 0
      outer loop
         vertex -0.0189051 0 -0.0151103
         vertex -0.0187607 0 -0.0147983
         vertex -0.0201774 0 -0.0142338
      endloop
   endfacet
   facet normal 0 -1 0
      outer loop
         vertex -0.020082 0 -0.01389
         vertex -0.0201204 0 -0.0140645
         vertex -0.018651 0 -0.0144725
      endloop
   endfacet
   facet normal 0 -1 0
      outer loop
         vertex -0.0185771 0 -0.0141367
         vertex -0.0185399 0 -0.013795
         vertex -0.0200627 0 -0.0137124
      endloop
   endfacet
   facet normal 0 -1 0
      outer loop
         vertex -0.0185771 0 -0.0131094
         vertex -0.020082 0 -0.0133561
         vertex -0.0200627 0 -0.0135338
      endloop
   endfacet
   facet normal 0 -1 0
      outer loop
         vertex -0.018651 0 -0.0127737
         vertex -0.0201204 0 -0.0131817
         vertex -0.020082 0 -0.0133561
      endloop
   endfacet
   facet normal 0 -1 0
      outer loop
         vertex -0.022724 0 -0.0106143
         vertex -0.0222371 0 -0.0120595
         vertex -0.022065 0 -0.0120117
      endloop
   endfacet
   facet normal 0 -1 0
      outer loop
         vertex -0.0230434 0 -0.0107415
         vertex -0.0224031 0 -0.0121256
         vertex -0.0222371 0 -0.0120595
      endloop
   endfacet
   facet normal 0 -1 0
      outer loop
         vertex -0.0245154 0 -0.0151103
         vertex -0.023168 0 -0.014396
         vertex -0.0232431 0 -0.0142338
      endloop
   endfacet
   facet normal 0 -1 0
      outer loop
         vertex -0.0245154 0 -0.0151103
         vertex -0.0243382 0 -0.0154049
         vertex -0.0230759 0 -0.014549
      endloop
   endfacet
   facet normal 0 -1 0
      outer loop
         vertex -0.0197888 0 -0.0161507
         vertex -0.0207117 0 -0.0149366
         vertex -0.0208596 0 -0.0150369
      endloop
   endfacet
   facet normal 0 -1 0
      outer loop
         vertex -0.0197888 0 -0.0161507
         vertex -0.0195268 0 -0.0159281
         vertex -0.0205755 0 -0.014821
      endloop
   endfacet
   facet normal 0 -1 0
      outer loop
         vertex -0.0201774 0 -0.0142338
         vertex -0.0202525 0 -0.014396
         vertex -0.0189051 0 -0.0151103
      endloop
   endfacet
   facet normal 0 -1 0
      outer loop
         vertex -0.0200627 0 -0.0137124
         vertex -0.020082 0 -0.01389
         vertex -0.0185771 0 -0.0141367
      endloop
   endfacet
   facet normal 0 -1 0
      outer loop
         vertex -0.020082 0 -0.0133561
         vertex -0.0185771 0 -0.0131094
         vertex -0.018651 0 -0.0127737
      endloop
   endfacet
   facet normal 0 -1 0
      outer loop
         vertex -0.018651 0 -0.0127737
         vertex -0.0187607 0 -0.0124479
         vertex -0.0201774 0 -0.0130124
      endloop
   endfacet
   facet normal 0 -1 0
      outer loop
         vertex -0.0189051 0 -0.0121359
         vertex -0.0202525 0 -0.0128502
         vertex -0.0201774 0 -0.0130124
      endloop
   endfacet
   facet normal 0 -1 0
      outer loop
         vertex -0.0189051 0 -0.0121359
         vertex -0.0190823 0 -0.0118413
         vertex -0.0203446 0 -0.0126971
      endloop
   endfacet
   facet normal 0 -1 0
      outer loop
         vertex -0.0222371 0 -0.0120595
         vertex -0.022724 0 -0.0106143
         vertex -0.0230434 0 -0.0107415
      endloop
   endfacet
   facet normal 0 -1 0
      outer loop
         vertex -0.0230434 0 -0.0107415
         vertex -0.0233471 0 -0.0109026
         vertex -0.0225609 0 -0.0122093
      endloop
   endfacet
   facet normal 0 -1 0
      outer loop
         vertex -0.0248434 0 -0.0141367
         vertex -0.0233385 0 -0.01389
         vertex -0.0233578 0 -0.0137124
      endloop
   endfacet
   facet normal 0 -1 0
      outer loop
         vertex -0.0247695 0 -0.0144725
         vertex -0.0233001 0 -0.0140645
         vertex -0.0233385 0 -0.01389
      endloop
   endfacet
   facet normal 0 -1 0
      outer loop
         vertex -0.0246598 0 -0.0147983
         vertex -0.0232431 0 -0.0142338
         vertex -0.0233001 0 -0.0140645
      endloop
   endfacet
   facet normal 0 -1 0
      outer loop
         vertex -0.0230759 0 -0.014549
         vertex -0.023168 0 -0.014396
         vertex -0.0245154 0 -0.0151103
      endloop
   endfacet
   facet normal 0 -1 0
      outer loop
         vertex -0.0206965 0 -0.0166319
         vertex -0.0211834 0 -0.0151867
         vertex -0.0213555 0 -0.0152345
      endloop
   endfacet
   facet normal 0 -1 0
      outer loop
         vertex -0.0203771 0 -0.0165046
         vertex -0.0210174 0 -0.0151206
         vertex -0.0211834 0 -0.0151867
      endloop
   endfacet
   facet normal 0 -1 0
      outer loop
         vertex -0.0205755 0 -0.014821
         vertex -0.0207117 0 -0.0149366
         vertex -0.0197888 0 -0.0161507
      endloop
   endfacet
   facet normal 0 -1 0
      outer loop
         vertex -0.0195268 0 -0.0159281
         vertex -0.0192904 0 -0.0156785
         vertex -0.0204527 0 -0.0146913
      endloop
   endfacet
   facet normal 0 -1 0
      outer loop
         vertex -0.0190823 0 -0.0154049
         vertex -0.0203446 0 -0.014549
         vertex -0.0204527 0 -0.0146913
      endloop
   endfacet
   facet normal 0 -1 0
      outer loop
         vertex -0.0201774 0 -0.0142338
         vertex -0.0187607 0 -0.0147983
         vertex -0.018651 0 -0.0144725
      endloop
   endfacet
   facet normal 0 -1 0
      outer loop
         vertex -0.0201774 0 -0.0130124
         vertex -0.0201204 0 -0.0131817
         vertex -0.018651 0 -0.0127737
      endloop
   endfacet
   facet normal 0 -1 0
      outer loop
         vertex -0.0203446 0 -0.0126971
         vertex -0.0202525 0 -0.0128502
         vertex -0.0189051 0 -0.0121359
      endloop
   endfacet
   facet normal 0 -1 0
      outer loop
         vertex -0.0197888 0 -0.0110955
         vertex -0.0207117 0 -0.0123095
         vertex -0.0205755 0 -0.0124252
      endloop
   endfacet
   facet normal 0 -1 0
      outer loop
         vertex -0.0197888 0 -0.0110955
         vertex -0.0200734 0 -0.0109026
         vertex -0.0208596 0 -0.0122093
      endloop
   endfacet
   facet normal 0 -1 0
      outer loop
         vertex -0.0210277 0 -0.0105223
         vertex -0.0213555 0 -0.0120117
         vertex -0.0211834 0 -0.0120595
      endloop
   endfacet
   facet normal 0 -1 0
      outer loop
         vertex -0.0210277 0 -0.0105223
         vertex -0.021367 0 -0.0104667
         vertex -0.0215319 0 -0.0119828
      endloop
   endfacet
   facet normal 0 -1 0
      outer loop
         vertex -0.0217102 0 -0.0104481
         vertex -0.0217102 0 -0.0119731
         vertex -0.0215319 0 -0.0119828
      endloop
   endfacet
   facet normal 0 -1 0
      outer loop
         vertex -0.0217102 0 -0.0104481
         vertex -0.0220535 0 -0.0104667
         vertex -0.0218886 0 -0.0119828
      endloop
   endfacet
   facet normal 0 -1 0
      outer loop
         vertex -0.0225609 0 -0.0122093
         vertex -0.0224031 0 -0.0121256
         vertex -0.0230434 0 -0.0107415
      endloop
   endfacet
   facet normal 0 -1 0
      outer loop
         vertex -0.0233471 0 -0.0109026
         vertex -0.0236317 0 -0.0110955
         vertex -0.0227088 0 -0.0123095
      endloop
   endfacet
   facet normal 0 -1 0
      outer loop
         vertex -0.0246598 0 -0.0124479
         vertex -0.0247695 0 -0.0127737
         vertex -0.0233001 0 -0.0131817
      endloop
   endfacet
   facet normal 0 -1 0
      outer loop
         vertex -0.0247695 0 -0.0127737
         vertex -0.0248434 0 -0.0131094
         vertex -0.0233385 0 -0.0133561
      endloop
   endfacet
   facet normal 0 -1 0
      outer loop
         vertex -0.0233385 0 -0.01389
         vertex -0.0248434 0 -0.0141367
         vertex -0.0247695 0 -0.0144725
      endloop
   endfacet
   facet normal 0 -1 0
      outer loop
         vertex -0.0232431 0 -0.0142338
         vertex -0.0246598 0 -0.0147983
         vertex -0.0245154 0 -0.0151103
      endloop
   endfacet
   facet normal 0 -1 0
      outer loop
         vertex -0.0230434 0 -0.0165046
         vertex -0.0224031 0 -0.0151206
         vertex -0.0225609 0 -0.0150369
      endloop
   endfacet
   facet normal 0 -1 0
      outer loop
         vertex -0.0230434 0 -0.0165046
         vertex -0.022724 0 -0.0166319
         vertex -0.0222371 0 -0.0151867
      endloop
   endfacet
   facet normal 0 -1 0
      outer loop
         vertex -0.0223928 0 -0.0167239
         vertex -0.022065 0 -0.0152345
         vertex -0.0222371 0 -0.0151867
      endloop
   endfacet
   facet normal 0 -1 0
      outer loop
         vertex -0.0220535 0 -0.0167795
         vertex -0.0218886 0 -0.0152634
         vertex -0.022065 0 -0.0152345
      endloop
   endfacet
   facet normal 0 -1 0
      outer loop
         vertex -0.0211834 0 -0.0151867
         vertex -0.0206965 0 -0.0166319
         vertex -0.0203771 0 -0.0165046
      endloop
   endfacet
   facet normal 0 -1 0
      outer loop
         vertex -0.0203771 0 -0.0165046
         vertex -0.0200734 0 -0.0163436
         vertex -0.0208596 0 -0.0150369
      endloop
   endfacet
   facet normal 0 -1 0
      outer loop
         vertex -0.0204527 0 -0.0146913
         vertex -0.0205755 0 -0.014821
         vertex -0.0195268 0 -0.0159281
      endloop
   endfacet
   facet normal 0 -1 0
      outer loop
         vertex -0.0203446 0 -0.014549
         vertex -0.0190823 0 -0.0154049
         vertex -0.0189051 0 -0.0151103
      endloop
   endfacet
   facet normal 0 -1 0
      outer loop
         vertex -0.0201774 0 -0.0130124
         vertex -0.0187607 0 -0.0124479
         vertex -0.0189051 0 -0.0121359
      endloop
   endfacet
   facet normal 0 -1 0
      outer loop
         vertex -0.0190823 0 -0.0118413
         vertex -0.0192904 0 -0.0115676
         vertex -0.0204527 0 -0.0125549
      endloop
   endfacet
   facet normal 0 -1 0
      outer loop
         vertex -0.0195268 0 -0.011318
         vertex -0.0205755 0 -0.0124252
         vertex -0.0204527 0 -0.0125549
      endloop
   endfacet
   facet normal 0 -1 0
      outer loop
         vertex -0.0208596 0 -0.0122093
         vertex -0.0207117 0 -0.0123095
         vertex -0.0197888 0 -0.0110955
      endloop
   endfacet
   facet normal 0 -1 0
      outer loop
         vertex -0.0215319 0 -0.0119828
         vertex -0.0213555 0 -0.0120117
         vertex -0.0210277 0 -0.0105223
      endloop
   endfacet
   facet normal 0 -1 0
      outer loop
         vertex -0.0218886 0 -0.0119828
         vertex -0.0217102 0 -0.0119731
         vertex -0.0217102 0 -0.0104481
      endloop
   endfacet
   facet normal 0 -1 0
      outer loop
         vertex -0.0223928 0 -0.0105223
         vertex -0.022065 0 -0.0120117
         vertex -0.0218886 0 -0.0119828
      endloop
   endfacet
   facet normal 0 -1 0
      outer loop
         vertex -0.0227088 0 -0.0123095
         vertex -0.0225609 0 -0.0122093
         vertex -0.0233471 0 -0.0109026
      endloop
   endfacet
   facet normal 0 -1 0
      outer loop
         vertex -0.0233385 0 -0.0133561
         vertex -0.0233001 0 -0.0131817
         vertex -0.0247695 0 -0.0127737
      endloop
   endfacet
   facet normal 0 -1 0
      outer loop
         vertex -0.0248434 0 -0.0131094
         vertex -0.0248806 0 -0.0134512
         vertex -0.0233578 0 -0.0135338
      endloop
   endfacet
   facet normal 0 -1 0
      outer loop
         vertex -0.0233001 0 -0.0140645
         vertex -0.0247695 0 -0.0144725
         vertex -0.0246598 0 -0.0147983
      endloop
   endfacet
   facet normal 0 -1 0
      outer loop
         vertex -0.0243382 0 -0.0154049
         vertex -0.0241301 0 -0.0156785
         vertex -0.0229678 0 -0.0146913
      endloop
   endfacet
   facet normal 0 -1 0
      outer loop
         vertex -0.0238937 0 -0.0159281
         vertex -0.022845 0 -0.014821
         vertex -0.0229678 0 -0.0146913
      endloop
   endfacet
   facet normal 0 -1 0
      outer loop
         vertex -0.0238937 0 -0.0159281
         vertex -0.0236317 0 -0.0161507
         vertex -0.0227088 0 -0.0149366
      endloop
   endfacet
   facet normal 0 -1 0
      outer loop
         vertex -0.0233471 0 -0.0163436
         vertex -0.0225609 0 -0.0150369
         vertex -0.0227088 0 -0.0149366
      endloop
   endfacet
   facet normal 0 -1 0
      outer loop
         vertex -0.0222371 0 -0.0151867
         vertex -0.0224031 0 -0.0151206
         vertex -0.0230434 0 -0.0165046
      endloop
   endfacet
   facet normal 0 -1 0
      outer loop
         vertex -0.022065 0 -0.0152345
         vertex -0.0223928 0 -0.0167239
         vertex -0.0220535 0 -0.0167795
      endloop
   endfacet
   facet normal 0 -1 0
      outer loop
         vertex -0.0217102 0 -0.0167981
         vertex -0.0217102 0 -0.0152731
         vertex -0.0218886 0 -0.0152634
      endloop
   endfacet
   facet normal 0 -1 0
      outer loop
         vertex -0.0210277 0 -0.0167239
         vertex -0.0213555 0 -0.0152345
         vertex -0.0215319 0 -0.0152634
      endloop
   endfacet
   facet normal 0 -1 0
      outer loop
         vertex -0.0208596 0 -0.0150369
         vertex -0.0210174 0 -0.0151206
         vertex -0.0203771 0 -0.0165046
      endloop
   endfacet
   facet normal 0 -1 0
      outer loop
         vertex -0.0204527 0 -0.0146913
         vertex -0.0192904 0 -0.0156785
         vertex -0.0190823 0 -0.0154049
      endloop
   endfacet
   facet normal 0 -1 0
      outer loop
         vertex -0.0185399 0 -0.013795
         vertex -0.0185399 0 -0.0134512
         vertex -0.0200627 0 -0.0135338
      endloop
   endfacet
   facet normal 0 -1 0
      outer loop
         vertex -0.0204527 0 -0.0125549
         vertex -0.0203446 0 -0.0126971
         vertex -0.0190823 0 -0.0118413
      endloop
   endfacet
   facet normal 0 -1 0
      outer loop
         vertex -0.0205755 0 -0.0124252
         vertex -0.0195268 0 -0.011318
         vertex -0.0197888 0 -0.0110955
      endloop
   endfacet
   facet normal 0 -1 0
      outer loop
         vertex -0.0203771 0 -0.0107415
         vertex -0.0210174 0 -0.0121256
         vertex -0.0208596 0 -0.0122093
      endloop
   endfacet
   facet normal 0 -1 0
      outer loop
         vertex -0.0203771 0 -0.0107415
         vertex -0.0206965 0 -0.0106143
         vertex -0.0211834 0 -0.0120595
      endloop
   endfacet
   facet normal 0 -1 0
      outer loop
         vertex -0.0215319 0 -0.0119828
         vertex -0.021367 0 -0.0104667
         vertex -0.0217102 0 -0.0104481
      endloop
   endfacet
   facet normal 0 -1 0
      outer loop
         vertex -0.022065 0 -0.0120117
         vertex -0.0223928 0 -0.0105223
         vertex -0.022724 0 -0.0106143
      endloop
   endfacet
   facet normal 0 -1 0
      outer loop
         vertex -0.0246598 0 -0.0124479
         vertex -0.0232431 0 -0.0130124
         vertex -0.023168 0 -0.0128502
      endloop
   endfacet
   facet normal 0 -1 0
      outer loop
         vertex -0.0233578 0 -0.0135338
         vertex -0.0233385 0 -0.0133561
         vertex -0.0248434 0 -0.0131094
      endloop
   endfacet
   facet normal 0 -1 0
      outer loop
         vertex -0.0229678 0 -0.0146913
         vertex -0.0230759 0 -0.014549
         vertex -0.0243382 0 -0.0154049
      endloop
   endfacet
   facet normal 0 -1 0
      outer loop
         vertex -0.0227088 0 -0.0149366
         vertex -0.022845 0 -0.014821
         vertex -0.0238937 0 -0.0159281
      endloop
   endfacet
   facet normal 0 -1 0
      outer loop
         vertex -0.0225609 0 -0.0150369
         vertex -0.0233471 0 -0.0163436
         vertex -0.0230434 0 -0.0165046
      endloop
   endfacet
   facet normal 0 -1 0
      outer loop
         vertex -0.0218886 0 -0.0152634
         vertex -0.0220535 0 -0.0167795
         vertex -0.0217102 0 -0.0167981
      endloop
   endfacet
   facet normal 0 -1 0
      outer loop
         vertex -0.0217102 0 -0.0167981
         vertex -0.021367 0 -0.0167795
         vertex -0.0215319 0 -0.0152634
      endloop
   endfacet
   facet normal 0 -1 0
      outer loop
         vertex -0.0213555 0 -0.0152345
         vertex -0.0210277 0 -0.0167239
         vertex -0.0206965 0 -0.0166319
      endloop
   endfacet
   facet normal 0 -1 0
      outer loop
         vertex -0.0200627 0 -0.0135338
         vertex -0.0200627 0 -0.0137124
         vertex -0.0185399 0 -0.013795
      endloop
   endfacet
   facet normal 0 -1 0
      outer loop
         vertex -0.0204527 0 -0.0125549
         vertex -0.0192904 0 -0.0115676
         vertex -0.0195268 0 -0.011318
      endloop
   endfacet
   facet normal 0 -1 0
      outer loop
         vertex -0.0211834 0 -0.0120595
         vertex -0.0210174 0 -0.0121256
         vertex -0.0203771 0 -0.0107415
      endloop
   endfacet
   facet normal 0 -1 0
      outer loop
         vertex -0.0218886 0 -0.0119828
         vertex -0.0220535 0 -0.0104667
         vertex -0.0223928 0 -0.0105223
      endloop
   endfacet
   facet normal 0 -1 0
      outer loop
         vertex -0.0238937 0 -0.011318
         vertex -0.022845 0 -0.0124252
         vertex -0.0227088 0 -0.0123095
      endloop
   endfacet
   facet normal 0 -1 0
      outer loop
         vertex -0.0238937 0 -0.011318
         vertex -0.0241301 0 -0.0115676
         vertex -0.0229678 0 -0.0125549
      endloop
   endfacet
   facet normal 0 -1 0
      outer loop
         vertex -0.0233001 0 -0.0131817
         vertex -0.0232431 0 -0.0130124
         vertex -0.0246598 0 -0.0124479
      endloop
   endfacet
   facet normal 0 -1 0
      outer loop
         vertex -0.0248806 0 -0.013795
         vertex -0.0233578 0 -0.0137124
         vertex -0.0233578 0 -0.0135338
      endloop
   endfacet
   facet normal 0 -1 0
      outer loop
         vertex -0.0229678 0 -0.0146913
         vertex -0.0241301 0 -0.0156785
         vertex -0.0238937 0 -0.0159281
      endloop
   endfacet
   facet normal 0 -1 0
      outer loop
         vertex -0.0222371 0 -0.0151867
         vertex -0.022724 0 -0.0166319
         vertex -0.0223928 0 -0.0167239
      endloop
   endfacet
   facet normal 0 -1 0
      outer loop
         vertex -0.0215319 0 -0.0152634
         vertex -0.021367 0 -0.0167795
         vertex -0.0210277 0 -0.0167239
      endloop
   endfacet
   facet normal 0 -1 0
      outer loop
         vertex -0.0200627 0 -0.0135338
         vertex -0.0185399 0 -0.0134512
         vertex -0.0185771 0 -0.0131094
      endloop
   endfacet
   facet normal 0 -1 0
      outer loop
         vertex -0.0211834 0 -0.0120595
         vertex -0.0206965 0 -0.0106143
         vertex -0.0210277 0 -0.0105223
      endloop
   endfacet
   facet normal 0 -1 0
      outer loop
         vertex -0.0229678 0 -0.0125549
         vertex -0.022845 0 -0.0124252
         vertex -0.0238937 0 -0.011318
      endloop
   endfacet
   facet normal 0 -1 0
      outer loop
         vertex -0.0243382 0 -0.0118413
         vertex -0.0230759 0 -0.0126971
         vertex -0.0229678 0 -0.0125549
      endloop
   endfacet
   facet normal 0 -1 0
      outer loop
         vertex -0.0243382 0 -0.0118413
         vertex -0.0245154 0 -0.0121359
         vertex -0.023168 0 -0.0128502
      endloop
   endfacet
   facet normal 0 -1 0
      outer loop
         vertex -0.0233578 0 -0.0135338
         vertex -0.0248806 0 -0.0134512
         vertex -0.0248806 0 -0.013795
      endloop
   endfacet
   facet normal 0 -1 0
      outer loop
         vertex -0.0227088 0 -0.0149366
         vertex -0.0236317 0 -0.0161507
         vertex -0.0233471 0 -0.0163436
      endloop
   endfacet
   facet normal 0 -1 0
      outer loop
         vertex -0.0208596 0 -0.0150369
         vertex -0.0200734 0 -0.0163436
         vertex -0.0197888 0 -0.0161507
      endloop
   endfacet
   facet normal 0 -1 0
      outer loop
         vertex -0.0227088 0 -0.0123095
         vertex -0.0236317 0 -0.0110955
         vertex -0.0238937 0 -0.011318
      endloop
   endfacet
   facet normal 0 -1 0
      outer loop
         vertex -0.023168 0 -0.0128502
         vertex -0.0230759 0 -0.0126971
         vertex -0.0243382 0 -0.0118413
      endloop
   endfacet
   facet normal 0 -1 0
      outer loop
         vertex -0.0233578 0 -0.0137124
         vertex -0.0248806 0 -0.013795
         vertex -0.0248434 0 -0.0141367
      endloop
   endfacet
   facet normal 0 -1 0
      outer loop
         vertex -0.0208596 0 -0.0122093
         vertex -0.0200734 0 -0.0109026
         vertex -0.0203771 0 -0.0107415
      endloop
   endfacet
   facet normal 0 -1 0
      outer loop
         vertex -0.023168 0 -0.0128502
         vertex -0.0245154 0 -0.0121359
         vertex -0.0246598 0 -0.0124479
      endloop
   endfacet
   facet normal 0 -1 0
      outer loop
         vertex -0.0229678 0 -0.0125549
         vertex -0.0241301 0 -0.0115676
         vertex -0.0243382 0 -0.0118413
      endloop
   endfacet
   facet normal 0 -1 0
      outer loop
         vertex -0.0215319 0 -0.0152634
         vertex -0.0217102 0 -0.0152731
         vertex -0.0217102 0 -0.0167981
      endloop
   endfacet
endsolid Odo standoff. Units = meters