{
    "accessors": [
        {
            "bufferView": 0,
            "componentType": 5126,
            "count": 31,
            "max": [
                0.02396480180323124,
                -0.008999999612569809,
                0.024000000208616257
            ],
            "min": [
                -0.02396480180323124,
                -0.008999999612569809,
                -0.024000000208616257
            ],
            "name": "mesh0_coord_accessor",
            "type": "VEC3"
        },
        {
            "bufferView": 1,
            "componentType": 5126,
            "count": 31,
            "max": [
                0.0,
                -1.0,
                0.0
            ],
            "min": [
                0.0,
                -1.0,
                0.0
            ],
            "name": "mesh0_norm_accessor",
            "type": "VEC3"
        },
        {
            "bufferView": 2,
            "componentType": 5125,
            "count": 90,
            "max": [
                30
            ],
            "min": [
                0
            ],
            "name": "mesh0_idx_accessor",
            "type": "SCALAR"
        },
        {
            "bufferView": 3,
            "componentType": 5126,
            "count": 60,
            "max": [
                0.02396480180323124,
                0.008999999612569809,
                0.024000000208616257
            ],
            "min": [
                -0.02396480180323124,
                -0.008999999612569809,
                -0.024000000208616257
            ],
            "name": "mesh1_coord_accessor",
            "type": "VEC3"
        },
        {
            "bufferView": 4,
            "componentType": 5126,
            "count": 60,
            "max": [
                0.9985334277153015,
                0.0,
                1.0
            ],
            "min": [
                -0.9985334277153015,
                0.0,
                -1.0
            ],
            "name": "mesh1_norm_accessor",
            "type": "VEC3"
        },
        {
            "bufferView": 5,
            "componentType": 5125,
            "count": 180,
            "max": [
                59
            ],
            "min": [
                0
            ],
            "name": "mesh1_idx_accessor",
            "type": "SCALAR"
        },
        {
            "bufferView": 6,
            "componentType": 5126,
            "count": 31,
            "max": [
                0.02396480180323124,
                0.008999999612569809,
                0.024000000208616257
            ],
            "min": [
                -0.02396480180323124,
                0.008999999612569809,
                -0.024000000208616257
            ],
            "name": "mesh2_coord_accessor",
            "type": "VEC3"
        },
        {
            "bufferView": 7,
            "componentType": 5126,
            "count": 31,
            "max": [
                -0.0,
                1.0,
                -0.0
            ],
            "min": [
                -0.0,
                1.0,
                -0.0
            ],
            "name": "mesh2_norm_accessor",
            "type": "VEC3"
        },
        {
            "bufferView": 8,
            "componentType": 5125,
            "count": 90,
            "max": [
                30
            ],
            "min": [
                0
            ],
            "name": "mesh2_idx_accessor",
            "type": "SCALAR"
        }
    ],
    "asset": {
        "generator": "ONSHAPE BY PTC INC, 1.217",
        "version": "2.0"
    },
    "bufferViews": [
        {
            "buffer": 0,
            "byteLength": 372,
            "name": "mesh0_coord_bufferView",
            "target": 34962
        },
        {
            "buffer": 0,
            "byteLength": 372,
            "byteOffset": 372,
            "name": "mesh0_norm_bufferView",
            "target": 34962
        },
        {
            "buffer": 0,
            "byteLength": 360,
            "byteOffset": 744,
            "name": "mesh0_idx_bufferView",
            "target": 34963
        },
        {
            "buffer": 0,
            "byteLength": 720,
            "byteOffset": 1104,
            "name": "mesh1_coord_bufferView",
            "target": 34962
        },
        {
            "buffer": 0,
            "byteLength": 720,
            "byteOffset": 1824,
            "name": "mesh1_norm_bufferView",
            "target": 34962
        },
        {
            "buffer": 0,
            "byteLength": 720,
            "byteOffset": 2544,
            "name": "mesh1_idx_bufferView",
            "target": 34963
        },
        {
            "buffer": 0,
            "byteLength": 372,
            "byteOffset": 3264,
            "name": "mesh2_coord_bufferView",
            "target": 34962
        },
        {
            "buffer": 0,
            "byteLength": 372,
            "byteOffset": 3636,
            "name": "mesh2_norm_bufferView",
            "target": 34962
        },
        {
            "buffer": 0,
            "byteLength": 360,
            "byteOffset": 4008,
            "name": "mesh2_idx_bufferView",
            "target": 34963
        }
    ],
    "buffers": [
        {
            "byteLength": 4368,
            "name": "Total_buffer",
            "uri": "data:application/octet-stream;base64,"
        }
    ],
    "extensionsUsed": [
        "PTC_onshape_metadata"
    ],
    "materials": [
        {
            "doubleSided": true,
            "name": "0.615686_0.811765_0.929412_0.000000_0.000000",
            "pbrMetallicRoughness": {
                "baseColorFactor": [
                    0.615686297416687,
                    0.8117647171020508,
                    0.929411768913269,
                    1.0
                ],
                "metallicFactor": 0.0
            }
        }
    ],
    "meshes": [
        {
            "name": "mesh0_mesh",
            "primitives": [
                {
                    "attributes": {
                        "NORMAL": 1,
                        "POSITION": 0
                    },
                    "indices": 2,
                    "material": 0
                }
            ]
        },
        {
            "name": "mesh1_mesh",
            "primitives": [
                {
                    "attributes": {
                        "NORMAL": 4,
                        "POSITION": 3
                    },
                    "indices": 5,
                    "material": 0
                }
            ]
        },
        {
            "name": "mesh2_mesh",
            "primitives": [
                {
                    "attributes": {
                        "NORMAL": 7,
                        "POSITION": 6
                    },
                    "indices": 8,
                    "material": 0
                }
            ]
        }
    ],
    "nodes": [
        {
            "mesh": 0,
            "name": "mesh0"
        },
        {
            "mesh": 1,
            "name": "mesh1"
        },
        {
            "mesh": 2,
            "name": "mesh2"
        }
    ],
    "scene": 0,
    "scenes": [
        {
            "name": "Root",
            "nodes": [
                0,
                1,
                2
            ]
        }
    ]
}