solid Part 1. STL generated by ONSHAPE BY PTC INC, 1.216. Units = meters
   facet normal 0 -1 0
      outer loop
         vertex 0 -0.014 5.78646e-18
         vertex 0.00471044 -0.014 -0.0943825
         vertex 0.0140845 -0.014 -0.0934445
      endloop
   endfacet
   facet normal 0 -1 0
      outer loop
         vertex 0.0140845 -0.014 -0.0934445
         vertex 0.0233186 -0.014 -0.0915778
         vertex 0 -0.014 5.78646e-18
      endloop
   endfacet
   facet normal 0 -1 0
      outer loop
         vertex 0.0233186 -0.014 -0.0915778
         vertex 0.0323209 -0.014 -0.088801
         vertex 0 -0.014 5.78646e-18
      endloop
   endfacet
   facet normal 0 -1 0
      outer loop
         vertex 0.0323209 -0.014 -0.088801
         vertex 0.041002 -0.014 -0.0851416
         vertex 0 -0.014 5.78646e-18
      endloop
   endfacet
   facet normal 0 -1 0
      outer loop
         vertex 0.041002 -0.014 -0.0851416
         vertex 0.0492756 -0.014 -0.080636
         vertex 0 -0.014 5.78646e-18
      endloop
   endfacet
   facet normal 0 -1 0
      outer loop
         vertex 0.0492756 -0.014 -0.080636
         vertex 0.0570595 -0.014 -0.075329
         vertex 0 -0.014 5.78646e-18
      endloop
   endfacet
   facet normal 0 -1 0
      outer loop
         vertex 0.0570595 -0.014 -0.075329
         vertex 0.0642763 -0.014 -0.0692734
         vertex 0 -0.014 5.78646e-18
      endloop
   endfacet
   facet normal 0 -1 0
      outer loop
         vertex 0.0642763 -0.014 -0.0692734
         vertex 0.0708543 -0.014 -0.0625293
         vertex 0 -0.014 5.78646e-18
      endloop
   endfacet
   facet normal 0 -1 0
      outer loop
         vertex 0.0708543 -0.014 -0.0625293
         vertex 0.0767281 -0.014 -0.0551638
         vertex 0 -0.014 5.78646e-18
      endloop
   endfacet
   facet normal 0 -1 0
      outer loop
         vertex 0.0767281 -0.014 -0.0551638
         vertex 0.0818394 -0.014 -0.04725
         vertex 0 -0.014 5.78646e-18
      endloop
   endfacet
   facet normal 0 -1 0
      outer loop
         vertex 0.0818394 -0.014 -0.04725
         vertex 0.0861373 -0.014 -0.0388666
         vertex 0 -0.014 5.78646e-18
      endloop
   endfacet
   facet normal 0 -1 0
      outer loop
         vertex 0.0861373 -0.014 -0.0388666
         vertex 0.0895791 -0.014 -0.030097
         vertex 0 -0.014 5.78646e-18
      endloop
   endfacet
   facet normal 0 -1 0
      outer loop
         vertex 0.0895791 -0.014 -0.030097
         vertex 0.0921307 -0.014 -0.0210282
         vertex 0 -0.014 5.78646e-18
      endloop
   endfacet
   facet normal 0 -1 0
      outer loop
         vertex 0.0921307 -0.014 -0.0210282
         vertex 0.0937666 -0.014 -0.0117505
         vertex 0 -0.014 5.78646e-18
      endloop
   endfacet
   facet normal 0 -1 0
      outer loop
         vertex 0.0937666 -0.014 -0.0117505
         vertex 0.0944706 -0.014 -0.00235595
         vertex 0 -0.014 5.78646e-18
      endloop
   endfacet
   facet normal 0 -1 0
      outer loop
         vertex 0.0944706 -0.014 -0.00235595
         vertex 0.0942358 -0.014 0.00706199
         vertex 0 -0.014 5.78646e-18
      endloop
   endfacet
   facet normal 0 -1 0
      outer loop
         vertex 0.0942358 -0.014 0.00706199
         vertex 0.0930643 -0.014 0.0164098
         vertex 0 -0.014 5.78646e-18
      endloop
   endfacet
   facet normal 0 -1 0
      outer loop
         vertex 0.0930643 -0.014 0.0164098
         vertex 0.090968 -0.014 0.0255944
         vertex 0 -0.014 5.78646e-18
      endloop
   endfacet
   facet normal 0 -1 0
      outer loop
         vertex 0.090968 -0.014 0.0255944
         vertex 0.0879676 -0.014 0.0345247
         vertex 0 -0.014 5.78646e-18
      endloop
   endfacet
   facet normal 0 -1 0
      outer loop
         vertex 0.0879676 -0.014 0.0345247
         vertex 0.0840929 -0.014 0.0431119
         vertex 0 -0.014 5.78646e-18
      endloop
   endfacet
   facet normal 0 -1 0
      outer loop
         vertex 0.0840929 -0.014 0.0431119
         vertex 0.0793824 -0.014 0.0512706
         vertex 0 -0.014 5.78646e-18
      endloop
   endfacet
   facet normal 0 -1 0
      outer loop
         vertex 0.0793824 -0.014 0.0512706
         vertex 0.0738831 -0.014 0.0589198
         vertex 0 -0.014 5.78646e-18
      endloop
   endfacet
   facet normal 0 -1 0
      outer loop
         vertex 0.0738831 -0.014 0.0589198
         vertex 0.0676494 -0.014 0.0659834
         vertex 0 -0.014 5.78646e-18
      endloop
   endfacet
   facet normal 0 -1 0
      outer loop
         vertex 0.0676494 -0.014 0.0659834
         vertex 0.0607434 -0.014 0.0723912
         vertex 0 -0.014 5.78646e-18
      endloop
   endfacet
   facet normal 0 -1 0
      outer loop
         vertex 0.0607434 -0.014 0.0723912
         vertex 0.0532337 -0.014 0.0780796
         vertex 0 -0.014 5.78646e-18
      endloop
   endfacet
   facet normal 0 -1 0
      outer loop
         vertex 0.0532337 -0.014 0.0780796
         vertex 0.045195 -0.014 0.0829919
         vertex 0 -0.014 5.78646e-18
      endloop
   endfacet
   facet normal 0 -1 0
      outer loop
         vertex 0.045195 -0.014 0.0829919
         vertex 0.0367071 -0.014 0.0870795
         vertex 0 -0.014 5.78646e-18
      endloop
   endfacet
   facet normal 0 -1 0
      outer loop
         vertex 0.0367071 -0.014 0.0870795
         vertex 0.0278544 -0.014 0.0903016
         vertex 0 -0.014 5.78646e-18
      endloop
   endfacet
   facet normal 0 -1 0
      outer loop
         vertex 0.0278544 -0.014 0.0903016
         vertex 0.0187248 -0.014 0.0926263
         vertex 0 -0.014 5.78646e-18
      endloop
   endfacet
   facet normal 0 -1 0
      outer loop
         vertex 0.0187248 -0.014 0.0926263
         vertex 0.00940916 -0.014 0.0940304
         vertex 0 -0.014 5.78646e-18
      endloop
   endfacet
   facet normal 0 -1 0
      outer loop
         vertex 0.00940916 -0.014 0.0940304
         vertex 0 -0.014 0.0945
         vertex 0 -0.014 5.78646e-18
      endloop
   endfacet
   facet normal 0 -1 0
      outer loop
         vertex 0 -0.014 0.0945
         vertex -0.00940916 -0.014 0.0940304
         vertex 0 -0.014 5.78646e-18
      endloop
   endfacet
   facet normal 0 -1 0
      outer loop
         vertex -0.00940916 -0.014 0.0940304
         vertex -0.0187248 -0.014 0.0926263
         vertex 0 -0.014 5.78646e-18
      endloop
   endfacet
   facet normal 0 -1 0
      outer loop
         vertex -0.0187248 -0.014 0.0926263
         vertex -0.0278544 -0.014 0.0903016
         vertex 0 -0.014 5.78646e-18
      endloop
   endfacet
   facet normal 0 -1 0
      outer loop
         vertex -0.0278544 -0.014 0.0903016
         vertex -0.0367071 -0.014 0.0870795
         vertex 0 -0.014 5.78646e-18
      endloop
   endfacet
   facet normal 0 -1 0
      outer loop
         vertex -0.0367071 -0.014 0.0870795
         vertex -0.045195 -0.014 0.0829919
         vertex 0 -0.014 5.78646e-18
      endloop
   endfacet
   facet normal 0 -1 0
      outer loop
         vertex -0.045195 -0.014 0.0829919
         vertex -0.0532337 -0.014 0.0780796
         vertex 0 -0.014 5.78646e-18
      endloop
   endfacet
   facet normal 0 -1 0
      outer loop
         vertex -0.0532337 -0.014 0.0780796
         vertex -0.0607434 -0.014 0.0723912
         vertex 0 -0.014 5.78646e-18
      endloop
   endfacet
   facet normal 0 -1 0
      outer loop
         vertex -0.0607434 -0.014 0.0723912
         vertex -0.0676494 -0.014 0.0659834
         vertex 0 -0.014 5.78646e-18
      endloop
   endfacet
   facet normal 0 -1 0
      outer loop
         vertex -0.0676494 -0.014 0.0659834
         vertex -0.0738831 -0.014 0.0589198
         vertex 0 -0.014 5.78646e-18
      endloop
   endfacet
   facet normal 0 -1 0
      outer loop
         vertex -0.0738831 -0.014 0.0589198
         vertex -0.0793824 -0.014 0.0512706
         vertex 0 -0.014 5.78646e-18
      endloop
   endfacet
   facet normal 0 -1 0
      outer loop
         vertex -0.0793824 -0.014 0.0512706
         vertex -0.0840929 -0.014 0.0431119
         vertex 0 -0.014 5.78646e-18
      endloop
   endfacet
   facet normal 0 -1 0
      outer loop
         vertex -0.0840929 -0.014 0.0431119
         vertex -0.0879676 -0.014 0.0345247
         vertex 0 -0.014 5.78646e-18
      endloop
   endfacet
   facet normal 0 -1 0
      outer loop
         vertex -0.0879676 -0.014 0.0345247
         vertex -0.090968 -0.014 0.0255944
         vertex 0 -0.014 5.78646e-18
      endloop
   endfacet
   facet normal 0 -1 0
      outer loop
         vertex -0.090968 -0.014 0.0255944
         vertex -0.0930643 -0.014 0.0164098
         vertex 0 -0.014 5.78646e-18
      endloop
   endfacet
   facet normal 0 -1 0
      outer loop
         vertex -0.0930643 -0.014 0.0164098
         vertex -0.0942358 -0.014 0.00706199
         vertex 0 -0.014 5.78646e-18
      endloop
   endfacet
   facet normal 0 -1 0
      outer loop
         vertex -0.0942358 -0.014 0.00706199
         vertex -0.0944706 -0.014 -0.00235595
         vertex 0 -0.014 5.78646e-18
      endloop
   endfacet
   facet normal 0 -1 0
      outer loop
         vertex -0.0944706 -0.014 -0.00235595
         vertex -0.0937666 -0.014 -0.0117505
         vertex 0 -0.014 5.78646e-18
      endloop
   endfacet
   facet normal 0 -1 0
      outer loop
         vertex -0.0937666 -0.014 -0.0117505
         vertex -0.0921307 -0.014 -0.0210282
         vertex 0 -0.014 5.78646e-18
      endloop
   endfacet
   facet normal 0 -1 0
      outer loop
         vertex -0.0921307 -0.014 -0.0210282
         vertex -0.0895791 -0.014 -0.030097
         vertex 0 -0.014 5.78646e-18
      endloop
   endfacet
   facet normal 0 -1 0
      outer loop
         vertex -0.0895791 -0.014 -0.030097
         vertex -0.0861373 -0.014 -0.0388666
         vertex 0 -0.014 5.78646e-18
      endloop
   endfacet
   facet normal 0 -1 0
      outer loop
         vertex -0.0861373 -0.014 -0.0388666
         vertex -0.0818394 -0.014 -0.04725
         vertex 0 -0.014 5.78646e-18
      endloop
   endfacet
   facet normal 0 -1 0
      outer loop
         vertex -0.0818394 -0.014 -0.04725
         vertex -0.0767281 -0.014 -0.0551638
         vertex 0 -0.014 5.78646e-18
      endloop
   endfacet
   facet normal 0 -1 0
      outer loop
         vertex -0.0767281 -0.014 -0.0551638
         vertex -0.0708543 -0.014 -0.0625293
         vertex 0 -0.014 5.78646e-18
      endloop
   endfacet
   facet normal 0 -1 0
      outer loop
         vertex -0.0708543 -0.014 -0.0625293
         vertex -0.0642763 -0.014 -0.0692734
         vertex 0 -0.014 5.78646e-18
      endloop
   endfacet
   facet normal 0 -1 0
      outer loop
         vertex -0.0642763 -0.014 -0.0692734
         vertex -0.0570595 -0.014 -0.075329
         vertex 0 -0.014 5.78646e-18
      endloop
   endfacet
   facet normal 0 -1 0
      outer loop
         vertex -0.0570595 -0.014 -0.075329
         vertex -0.0492756 -0.014 -0.080636
         vertex 0 -0.014 5.78646e-18
      endloop
   endfacet
   facet normal 0 -1 0
      outer loop
         vertex -0.0492756 -0.014 -0.080636
         vertex -0.041002 -0.014 -0.0851416
         vertex 0 -0.014 5.78646e-18
      endloop
   endfacet
   facet normal 0 -1 0
      outer loop
         vertex -0.041002 -0.014 -0.0851416
         vertex -0.0323209 -0.014 -0.088801
         vertex 0 -0.014 5.78646e-18
      endloop
   endfacet
   facet normal 0 -1 0
      outer loop
         vertex -0.0323209 -0.014 -0.088801
         vertex -0.0233186 -0.014 -0.0915778
         vertex 0 -0.014 5.78646e-18
      endloop
   endfacet
   facet normal 0 -1 0
      outer loop
         vertex -0.0233186 -0.014 -0.0915778
         vertex -0.0140845 -0.014 -0.0934445
         vertex 0 -0.014 5.78646e-18
      endloop
   endfacet
   facet normal 0 -1 0
      outer loop
         vertex -0.0140845 -0.014 -0.0934445
         vertex -0.00471044 -0.014 -0.0943825
         vertex 0 -0.014 5.78646e-18
      endloop
   endfacet
   facet normal 0 -1 0
      outer loop
         vertex -0.00471044 -0.014 -0.0943825
         vertex 3.47187e-17 -0.014 -0.0945
         vertex 0 -0.014 5.78646e-18
      endloop
   endfacet
   facet normal 0 -1 0
      outer loop
         vertex 3.47187e-17 -0.014 -0.0945
         vertex 0.00471044 -0.014 -0.0943825
         vertex 0 -0.014 5.78646e-18
      endloop
   endfacet
   facet normal 0 0 1
      outer loop
         vertex 0 0.014 0.0945
         vertex 0 -0.014 0.0945
         vertex 0.00940916 -0.014 0.0940304
      endloop
   endfacet
   facet normal 0.0995678 0 0.995031
      outer loop
         vertex 0.00940916 0.014 0.0940304
         vertex 0.00940916 -0.014 0.0940304
         vertex 0.0187248 -0.014 0.0926263
      endloop
   endfacet
   facet normal 0.198146 0 0.980172
      outer loop
         vertex 0.0187248 0.014 0.0926263
         vertex 0.0187248 -0.014 0.0926263
         vertex 0.0278544 -0.014 0.0903016
      endloop
   endfacet
   facet normal 0.294755 0 0.955573
      outer loop
         vertex 0.0278544 0.014 0.0903016
         vertex 0.0278544 -0.014 0.0903016
         vertex 0.0367071 -0.014 0.0870795
      endloop
   endfacet
   facet normal 0.388435 0 0.921476
      outer loop
         vertex 0.0367071 0.014 0.0870795
         vertex 0.0367071 -0.014 0.0870795
         vertex 0.045195 -0.014 0.0829919
      endloop
   endfacet
   facet normal 0.478254 0 0.878222
      outer loop
         vertex 0.045195 0.014 0.0829919
         vertex 0.045195 -0.014 0.0829919
         vertex 0.0532337 -0.014 0.0780796
      endloop
   endfacet
   facet normal 0.56332 0 0.826239
      outer loop
         vertex 0.0532337 0.014 0.0780796
         vertex 0.0532337 -0.014 0.0780796
         vertex 0.0607434 -0.014 0.0723912
      endloop
   endfacet
   facet normal 0.642788 0 0.766044
      outer loop
         vertex 0.0607434 0.014 0.0723912
         vertex 0.0607434 -0.014 0.0723912
         vertex 0.0676494 -0.014 0.0659834
      endloop
   endfacet
   facet normal 0.715867 0 0.698237
      outer loop
         vertex 0.0676494 0.014 0.0659834
         vertex 0.0676494 -0.014 0.0659834
         vertex 0.0738831 -0.014 0.0589198
      endloop
   endfacet
   facet normal 0.781831 0 0.62349
      outer loop
         vertex 0.0738831 0.014 0.0589198
         vertex 0.0738831 -0.014 0.0589198
         vertex 0.0793824 -0.014 0.0512706
      endloop
   endfacet
   facet normal 0.840026 0 0.542546
      outer loop
         vertex 0.0793824 0.014 0.0512706
         vertex 0.0793824 -0.014 0.0512706
         vertex 0.0840929 -0.014 0.0431119
      endloop
   endfacet
   facet normal 0.889872 0 0.456211
      outer loop
         vertex 0.0840929 0.014 0.0431119
         vertex 0.0840929 -0.014 0.0431119
         vertex 0.0879676 -0.014 0.0345247
      endloop
   endfacet
   facet normal 0.930874 0 0.365341
      outer loop
         vertex 0.0879676 0.014 0.0345247
         vertex 0.0879676 -0.014 0.0345247
         vertex 0.090968 -0.014 0.0255944
      endloop
   endfacet
   facet normal 0.962624 0 0.27084
      outer loop
         vertex 0.090968 0.014 0.0255944
         vertex 0.090968 -0.014 0.0255944
         vertex 0.0930643 -0.014 0.0164098
      endloop
   endfacet
   facet normal 0.984808 0 0.173648
      outer loop
         vertex 0.0930643 0.014 0.0164098
         vertex 0.0930643 -0.014 0.0164098
         vertex 0.0942358 -0.014 0.00706199
      endloop
   endfacet
   facet normal 0.997204 0 0.0747301
      outer loop
         vertex 0.0942358 0.014 0.00706199
         vertex 0.0942358 -0.014 0.00706199
         vertex 0.0944706 -0.014 -0.00235595
      endloop
   endfacet
   facet normal 0.999689 0 -0.0249307
      outer loop
         vertex 0.0944706 0.014 -0.00235595
         vertex 0.0944706 -0.014 -0.00235595
         vertex 0.0937666 -0.014 -0.0117505
      endloop
   endfacet
   facet normal 0.992239 0 -0.124344
      outer loop
         vertex 0.0937666 0.014 -0.0117505
         vertex 0.0937666 -0.014 -0.0117505
         vertex 0.0921307 -0.014 -0.0210282
      endloop
   endfacet
   facet normal 0.974928 0 -0.222521
      outer loop
         vertex 0.0921307 0.014 -0.0210282
         vertex 0.0921307 -0.014 -0.0210282
         vertex 0.0895791 -0.014 -0.030097
      endloop
   endfacet
   facet normal 0.947927 0 -0.318487
      outer loop
         vertex 0.0895791 0.014 -0.030097
         vertex 0.0895791 -0.014 -0.030097
         vertex 0.0861373 -0.014 -0.0388666
      endloop
   endfacet
   facet normal 0.911506 0 -0.411287
      outer loop
         vertex 0.0861373 0.014 -0.0388666
         vertex 0.0861373 -0.014 -0.0388666
         vertex 0.0818394 -0.014 -0.04725
      endloop
   endfacet
   facet normal 0.866025 0 -0.5
      outer loop
         vertex 0.0818394 0.014 -0.04725
         vertex 0.0818394 -0.014 -0.04725
         vertex 0.0767281 -0.014 -0.0551638
      endloop
   endfacet
   facet normal 0.811938 0 -0.583744
      outer loop
         vertex 0.0767281 0.014 -0.0551638
         vertex 0.0767281 -0.014 -0.0551638
         vertex 0.0708543 -0.014 -0.0625293
      endloop
   endfacet
   facet normal 0.749781 0 -0.661686
      outer loop
         vertex 0.0708543 0.014 -0.0625293
         vertex 0.0708543 -0.014 -0.0625293
         vertex 0.0642763 -0.014 -0.0692734
      endloop
   endfacet
   facet normal 0.680173 0 -0.733052
      outer loop
         vertex 0.0642763 0.014 -0.0692734
         vertex 0.0642763 -0.014 -0.0692734
         vertex 0.0570595 -0.014 -0.075329
      endloop
   endfacet
   facet normal 0.603804 0 -0.797133
      outer loop
         vertex 0.0570595 0.014 -0.075329
         vertex 0.0570595 -0.014 -0.075329
         vertex 0.0492756 -0.014 -0.080636
      endloop
   endfacet
   facet normal 0.521435 0 -0.853291
      outer loop
         vertex 0.0492756 0.014 -0.080636
         vertex 0.0492756 -0.014 -0.080636
         vertex 0.041002 -0.014 -0.0851416
      endloop
   endfacet
   facet normal 0.433884 0 -0.900969
      outer loop
         vertex 0.041002 0.014 -0.0851416
         vertex 0.041002 -0.014 -0.0851416
         vertex 0.0323209 -0.014 -0.088801
      endloop
   endfacet
   facet normal 0.34202 0 -0.939693
      outer loop
         vertex 0.0323209 0.014 -0.088801
         vertex 0.0323209 -0.014 -0.088801
         vertex 0.0233186 -0.014 -0.0915778
      endloop
   endfacet
   facet normal 0.246757 0 -0.969077
      outer loop
         vertex 0.0233186 0.014 -0.0915778
         vertex 0.0233186 -0.014 -0.0915778
         vertex 0.0140845 -0.014 -0.0934445
      endloop
   endfacet
   facet normal 0.149042 0 -0.988831
      outer loop
         vertex 0.0140845 0.014 -0.0934445
         vertex 0.0140845 -0.014 -0.0934445
         vertex 0.00471044 -0.014 -0.0943825
      endloop
   endfacet
   facet normal -0.0498459 0 -0.998757
      outer loop
         vertex -0.00471044 -0.014 -0.0943825
         vertex -0.00471044 0.014 -0.0943825
         vertex 1.15729e-17 0.014 -0.0945
      endloop
   endfacet
   facet normal 0.0498459 0 -0.998757
      outer loop
         vertex 0.00471044 0.014 -0.0943825
         vertex 0.00471044 -0.014 -0.0943825
         vertex 3.47187e-17 -0.014 -0.0945
      endloop
   endfacet
   facet normal 1.22465e-16 0 -1
      outer loop
         vertex 3.47187e-17 -0.014 -0.0945
         vertex 1.15729e-17 0.014 -0.0945
         vertex 0.00471044 0.014 -0.0943825
      endloop
   endfacet
   facet normal -0.0498459 0 -0.998757
      outer loop
         vertex -0.00471044 0.014 -0.0943825
         vertex -0.00471044 -0.014 -0.0943825
         vertex -0.0140845 -0.014 -0.0934445
      endloop
   endfacet
   facet normal -0.149042 0 -0.988831
      outer loop
         vertex -0.0140845 0.014 -0.0934445
         vertex -0.0140845 -0.014 -0.0934445
         vertex -0.0233186 -0.014 -0.0915778
      endloop
   endfacet
   facet normal -0.246757 0 -0.969077
      outer loop
         vertex -0.0233186 0.014 -0.0915778
         vertex -0.0233186 -0.014 -0.0915778
         vertex -0.0323209 -0.014 -0.088801
      endloop
   endfacet
   facet normal -0.34202 0 -0.939693
      outer loop
         vertex -0.0323209 0.014 -0.088801
         vertex -0.0323209 -0.014 -0.088801
         vertex -0.041002 -0.014 -0.0851416
      endloop
   endfacet
   facet normal -0.433884 0 -0.900969
      outer loop
         vertex -0.041002 0.014 -0.0851416
         vertex -0.041002 -0.014 -0.0851416
         vertex -0.0492756 -0.014 -0.080636
      endloop
   endfacet
   facet normal -0.521435 0 -0.853291
      outer loop
         vertex -0.0492756 0.014 -0.080636
         vertex -0.0492756 -0.014 -0.080636
         vertex -0.0570595 -0.014 -0.075329
      endloop
   endfacet
   facet normal -0.603804 0 -0.797133
      outer loop
         vertex -0.0570595 0.014 -0.075329
         vertex -0.0570595 -0.014 -0.075329
         vertex -0.0642763 -0.014 -0.0692734
      endloop
   endfacet
   facet normal -0.680173 0 -0.733052
      outer loop
         vertex -0.0642763 0.014 -0.0692734
         vertex -0.0642763 -0.014 -0.0692734
         vertex -0.0708543 -0.014 -0.0625293
      endloop
   endfacet
   facet normal -0.749781 0 -0.661686
      outer loop
         vertex -0.0708543 0.014 -0.0625293
         vertex -0.0708543 -0.014 -0.0625293
         vertex -0.0767281 -0.014 -0.0551638
      endloop
   endfacet
   facet normal -0.811938 0 -0.583744
      outer loop
         vertex -0.0767281 0.014 -0.0551638
         vertex -0.0767281 -0.014 -0.0551638
         vertex -0.0818394 -0.014 -0.04725
      endloop
   endfacet
   facet normal -0.866025 0 -0.5
      outer loop
         vertex -0.0818394 0.014 -0.04725
         vertex -0.0818394 -0.014 -0.04725
         vertex -0.0861373 -0.014 -0.0388666
      endloop
   endfacet
   facet normal -0.911506 0 -0.411287
      outer loop
         vertex -0.0861373 0.014 -0.0388666
         vertex -0.0861373 -0.014 -0.0388666
         vertex -0.0895791 -0.014 -0.030097
      endloop
   endfacet
   facet normal -0.947927 0 -0.318487
      outer loop
         vertex -0.0895791 0.014 -0.030097
         vertex -0.0895791 -0.014 -0.030097
         vertex -0.0921307 -0.014 -0.0210282
      endloop
   endfacet
   facet normal -0.974928 0 -0.222521
      outer loop
         vertex -0.0921307 0.014 -0.0210282
         vertex -0.0921307 -0.014 -0.0210282
         vertex -0.0937666 -0.014 -0.0117505
      endloop
   endfacet
   facet normal -0.992239 0 -0.124344
      outer loop
         vertex -0.0937666 0.014 -0.0117505
         vertex -0.0937666 -0.014 -0.0117505
         vertex -0.0944706 -0.014 -0.00235595
      endloop
   endfacet
   facet normal -0.999689 0 -0.0249307
      outer loop
         vertex -0.0944706 0.014 -0.00235595
         vertex -0.0944706 -0.014 -0.00235595
         vertex -0.0942358 -0.014 0.00706199
      endloop
   endfacet
   facet normal -0.997204 0 0.0747301
      outer loop
         vertex -0.0942358 0.014 0.00706199
         vertex -0.0942358 -0.014 0.00706199
         vertex -0.0930643 -0.014 0.0164098
      endloop
   endfacet
   facet normal -0.984808 0 0.173648
      outer loop
         vertex -0.0930643 0.014 0.0164098
         vertex -0.0930643 -0.014 0.0164098
         vertex -0.090968 -0.014 0.0255944
      endloop
   endfacet
   facet normal -0.962624 0 0.27084
      outer loop
         vertex -0.090968 0.014 0.0255944
         vertex -0.090968 -0.014 0.0255944
         vertex -0.0879676 -0.014 0.0345247
      endloop
   endfacet
   facet normal -0.930874 0 0.365341
      outer loop
         vertex -0.0879676 0.014 0.0345247
         vertex -0.0879676 -0.014 0.0345247
         vertex -0.0840929 -0.014 0.0431119
      endloop
   endfacet
   facet normal -0.889872 0 0.456211
      outer loop
         vertex -0.0840929 0.014 0.0431119
         vertex -0.0840929 -0.014 0.0431119
         vertex -0.0793824 -0.014 0.0512706
      endloop
   endfacet
   facet normal -0.840026 0 0.542546
      outer loop
         vertex -0.0793824 0.014 0.0512706
         vertex -0.0793824 -0.014 0.0512706
         vertex -0.0738831 -0.014 0.0589198
      endloop
   endfacet
   facet normal -0.781831 0 0.62349
      outer loop
         vertex -0.0738831 0.014 0.0589198
         vertex -0.0738831 -0.014 0.0589198
         vertex -0.0676494 -0.014 0.0659834
      endloop
   endfacet
   facet normal -0.715867 0 0.698237
      outer loop
         vertex -0.0676494 0.014 0.0659834
         vertex -0.0676494 -0.014 0.0659834
         vertex -0.0607434 -0.014 0.0723912
      endloop
   endfacet
   facet normal -0.642788 0 0.766044
      outer loop
         vertex -0.0607434 0.014 0.0723912
         vertex -0.0607434 -0.014 0.0723912
         vertex -0.0532337 -0.014 0.0780796
      endloop
   endfacet
   facet normal -0.56332 0 0.826239
      outer loop
         vertex -0.0532337 0.014 0.0780796
         vertex -0.0532337 -0.014 0.0780796
         vertex -0.045195 -0.014 0.0829919
      endloop
   endfacet
   facet normal -0.478254 0 0.878222
      outer loop
         vertex -0.045195 0.014 0.0829919
         vertex -0.045195 -0.014 0.0829919
         vertex -0.0367071 -0.014 0.0870795
      endloop
   endfacet
   facet normal -0.388435 0 0.921476
      outer loop
         vertex -0.0367071 0.014 0.0870795
         vertex -0.0367071 -0.014 0.0870795
         vertex -0.0278544 -0.014 0.0903016
      endloop
   endfacet
   facet normal -0.294755 0 0.955573
      outer loop
         vertex -0.0278544 0.014 0.0903016
         vertex -0.0278544 -0.014 0.0903016
         vertex -0.0187248 -0.014 0.0926263
      endloop
   endfacet
   facet normal -0.198146 0 0.980172
      outer loop
         vertex -0.0187248 0.014 0.0926263
         vertex -0.0187248 -0.014 0.0926263
         vertex -0.00940916 -0.014 0.0940304
      endloop
   endfacet
   facet normal -0.0995678 0 0.995031
      outer loop
         vertex -0.00940916 0.014 0.0940304
         vertex -0.00940916 -0.014 0.0940304
         vertex 0 -0.014 0.0945
      endloop
   endfacet
   facet normal 0 0 1
      outer loop
         vertex 0 -0.014 0.0945
         vertex 0 0.014 0.0945
         vertex -0.00940916 0.014 0.0940304
      endloop
   endfacet
   facet normal -0.0995678 0 0.995031
      outer loop
         vertex -0.00940916 -0.014 0.0940304
         vertex -0.00940916 0.014 0.0940304
         vertex -0.0187248 0.014 0.0926263
      endloop
   endfacet
   facet normal -0.198146 0 0.980172
      outer loop
         vertex -0.0187248 -0.014 0.0926263
         vertex -0.0187248 0.014 0.0926263
         vertex -0.0278544 0.014 0.0903016
      endloop
   endfacet
   facet normal -0.294755 0 0.955573
      outer loop
         vertex -0.0278544 -0.014 0.0903016
         vertex -0.0278544 0.014 0.0903016
         vertex -0.0367071 0.014 0.0870795
      endloop
   endfacet
   facet normal -0.388435 0 0.921476
      outer loop
         vertex -0.0367071 -0.014 0.0870795
         vertex -0.0367071 0.014 0.0870795
         vertex -0.045195 0.014 0.0829919
      endloop
   endfacet
   facet normal -0.478254 0 0.878222
      outer loop
         vertex -0.045195 -0.014 0.0829919
         vertex -0.045195 0.014 0.0829919
         vertex -0.0532337 0.014 0.0780796
      endloop
   endfacet
   facet normal -0.56332 0 0.826239
      outer loop
         vertex -0.0532337 -0.014 0.0780796
         vertex -0.0532337 0.014 0.0780796
         vertex -0.0607434 0.014 0.0723912
      endloop
   endfacet
   facet normal -0.642788 0 0.766044
      outer loop
         vertex -0.0607434 -0.014 0.0723912
         vertex -0.0607434 0.014 0.0723912
         vertex -0.0676494 0.014 0.0659834
      endloop
   endfacet
   facet normal -0.715867 0 0.698237
      outer loop
         vertex -0.0676494 -0.014 0.0659834
         vertex -0.0676494 0.014 0.0659834
         vertex -0.0738831 0.014 0.0589198
      endloop
   endfacet
   facet normal -0.781831 0 0.62349
      outer loop
         vertex -0.0738831 -0.014 0.0589198
         vertex -0.0738831 0.014 0.0589198
         vertex -0.0793824 0.014 0.0512706
      endloop
   endfacet
   facet normal -0.840026 0 0.542546
      outer loop
         vertex -0.0793824 -0.014 0.0512706
         vertex -0.0793824 0.014 0.0512706
         vertex -0.0840929 0.014 0.0431119
      endloop
   endfacet
   facet normal -0.889872 0 0.456211
      outer loop
         vertex -0.0840929 -0.014 0.0431119
         vertex -0.0840929 0.014 0.0431119
         vertex -0.0879676 0.014 0.0345247
      endloop
   endfacet
   facet normal -0.930874 0 0.365341
      outer loop
         vertex -0.0879676 -0.014 0.0345247
         vertex -0.0879676 0.014 0.0345247
         vertex -0.090968 0.014 0.0255944
      endloop
   endfacet
   facet normal -0.962624 0 0.27084
      outer loop
         vertex -0.090968 -0.014 0.0255944
         vertex -0.090968 0.014 0.0255944
         vertex -0.0930643 0.014 0.0164098
      endloop
   endfacet
   facet normal -0.984808 0 0.173648
      outer loop
         vertex -0.0930643 -0.014 0.0164098
         vertex -0.0930643 0.014 0.0164098
         vertex -0.0942358 0.014 0.00706199
      endloop
   endfacet
   facet normal -0.997204 0 0.0747301
      outer loop
         vertex -0.0942358 -0.014 0.00706199
         vertex -0.0942358 0.014 0.00706199
         vertex -0.0944706 0.014 -0.00235595
      endloop
   endfacet
   facet normal -0.999689 0 -0.0249307
      outer loop
         vertex -0.0944706 -0.014 -0.00235595
         vertex -0.0944706 0.014 -0.00235595
         vertex -0.0937666 0.014 -0.0117505
      endloop
   endfacet
   facet normal -0.992239 0 -0.124344
      outer loop
         vertex -0.0937666 -0.014 -0.0117505
         vertex -0.0937666 0.014 -0.0117505
         vertex -0.0921307 0.014 -0.0210282
      endloop
   endfacet
   facet normal -0.974928 0 -0.222521
      outer loop
         vertex -0.0921307 -0.014 -0.0210282
         vertex -0.0921307 0.014 -0.0210282
         vertex -0.0895791 0.014 -0.030097
      endloop
   endfacet
   facet normal -0.947927 0 -0.318487
      outer loop
         vertex -0.0895791 -0.014 -0.030097
         vertex -0.0895791 0.014 -0.030097
         vertex -0.0861373 0.014 -0.0388666
      endloop
   endfacet
   facet normal -0.911506 0 -0.411287
      outer loop
         vertex -0.0861373 -0.014 -0.0388666
         vertex -0.0861373 0.014 -0.0388666
         vertex -0.0818394 0.014 -0.04725
      endloop
   endfacet
   facet normal -0.866025 0 -0.5
      outer loop
         vertex -0.0818394 -0.014 -0.04725
         vertex -0.0818394 0.014 -0.04725
         vertex -0.0767281 0.014 -0.0551638
      endloop
   endfacet
   facet normal -0.811938 0 -0.583744
      outer loop
         vertex -0.0767281 -0.014 -0.0551638
         vertex -0.0767281 0.014 -0.0551638
         vertex -0.0708543 0.014 -0.0625293
      endloop
   endfacet
   facet normal -0.749781 0 -0.661686
      outer loop
         vertex -0.0708543 -0.014 -0.0625293
         vertex -0.0708543 0.014 -0.0625293
         vertex -0.0642763 0.014 -0.0692734
      endloop
   endfacet
   facet normal -0.680173 0 -0.733052
      outer loop
         vertex -0.0642763 -0.014 -0.0692734
         vertex -0.0642763 0.014 -0.0692734
         vertex -0.0570595 0.014 -0.075329
      endloop
   endfacet
   facet normal -0.603804 0 -0.797133
      outer loop
         vertex -0.0570595 -0.014 -0.075329
         vertex -0.0570595 0.014 -0.075329
         vertex -0.0492756 0.014 -0.080636
      endloop
   endfacet
   facet normal -0.521435 0 -0.853291
      outer loop
         vertex -0.0492756 -0.014 -0.080636
         vertex -0.0492756 0.014 -0.080636
         vertex -0.041002 0.014 -0.0851416
      endloop
   endfacet
   facet normal -0.433884 0 -0.900969
      outer loop
         vertex -0.041002 -0.014 -0.0851416
         vertex -0.041002 0.014 -0.0851416
         vertex -0.0323209 0.014 -0.088801
      endloop
   endfacet
   facet normal -0.34202 0 -0.939693
      outer loop
         vertex -0.0323209 -0.014 -0.088801
         vertex -0.0323209 0.014 -0.088801
         vertex -0.0233186 0.014 -0.0915778
      endloop
   endfacet
   facet normal -0.246757 0 -0.969077
      outer loop
         vertex -0.0233186 -0.014 -0.0915778
         vertex -0.0233186 0.014 -0.0915778
         vertex -0.0140845 0.014 -0.0934445
      endloop
   endfacet
   facet normal -0.149042 0 -0.988831
      outer loop
         vertex -0.0140845 -0.014 -0.0934445
         vertex -0.0140845 0.014 -0.0934445
         vertex -0.00471044 0.014 -0.0943825
      endloop
   endfacet
   facet normal 1.22465e-16 0 -1
      outer loop
         vertex 1.15729e-17 0.014 -0.0945
         vertex 3.47187e-17 -0.014 -0.0945
         vertex -0.00471044 -0.014 -0.0943825
      endloop
   endfacet
   facet normal 0.0498459 0 -0.998757
      outer loop
         vertex 0.00471044 -0.014 -0.0943825
         vertex 0.00471044 0.014 -0.0943825
         vertex 0.0140845 0.014 -0.0934445
      endloop
   endfacet
   facet normal 0.149042 0 -0.988831
      outer loop
         vertex 0.0140845 -0.014 -0.0934445
         vertex 0.0140845 0.014 -0.0934445
         vertex 0.0233186 0.014 -0.0915778
      endloop
   endfacet
   facet normal 0.246757 0 -0.969077
      outer loop
         vertex 0.0233186 -0.014 -0.0915778
         vertex 0.0233186 0.014 -0.0915778
         vertex 0.0323209 0.014 -0.088801
      endloop
   endfacet
   facet normal 0.34202 0 -0.939693
      outer loop
         vertex 0.0323209 -0.014 -0.088801
         vertex 0.0323209 0.014 -0.088801
         vertex 0.041002 0.014 -0.0851416
      endloop
   endfacet
   facet normal 0.433884 0 -0.900969
      outer loop
         vertex 0.041002 -0.014 -0.0851416
         vertex 0.041002 0.014 -0.0851416
         vertex 0.0492756 0.014 -0.080636
      endloop
   endfacet
   facet normal 0.521435 0 -0.853291
      outer loop
         vertex 0.0492756 -0.014 -0.080636
         vertex 0.0492756 0.014 -0.080636
         vertex 0.0570595 0.014 -0.075329
      endloop
   endfacet
   facet normal 0.603804 0 -0.797133
      outer loop
         vertex 0.0570595 -0.014 -0.075329
         vertex 0.0570595 0.014 -0.075329
         vertex 0.0642763 0.014 -0.0692734
      endloop
   endfacet
   facet normal 0.680173 0 -0.733052
      outer loop
         vertex 0.0642763 -0.014 -0.0692734
         vertex 0.0642763 0.014 -0.0692734
         vertex 0.0708543 0.014 -0.0625293
      endloop
   endfacet
   facet normal 0.749781 0 -0.661686
      outer loop
         vertex 0.0708543 -0.014 -0.0625293
         vertex 0.0708543 0.014 -0.0625293
         vertex 0.0767281 0.014 -0.0551638
      endloop
   endfacet
   facet normal 0.811938 0 -0.583744
      outer loop
         vertex 0.0767281 -0.014 -0.0551638
         vertex 0.0767281 0.014 -0.0551638
         vertex 0.0818394 0.014 -0.04725
      endloop
   endfacet
   facet normal 0.866025 0 -0.5
      outer loop
         vertex 0.0818394 -0.014 -0.04725
         vertex 0.0818394 0.014 -0.04725
         vertex 0.0861373 0.014 -0.0388666
      endloop
   endfacet
   facet normal 0.911506 0 -0.411287
      outer loop
         vertex 0.0861373 -0.014 -0.0388666
         vertex 0.0861373 0.014 -0.0388666
         vertex 0.0895791 0.014 -0.030097
      endloop
   endfacet
   facet normal 0.947927 0 -0.318487
      outer loop
         vertex 0.0895791 -0.014 -0.030097
         vertex 0.0895791 0.014 -0.030097
         vertex 0.0921307 0.014 -0.0210282
      endloop
   endfacet
   facet normal 0.974928 0 -0.222521
      outer loop
         vertex 0.0921307 -0.014 -0.0210282
         vertex 0.0921307 0.014 -0.0210282
         vertex 0.0937666 0.014 -0.0117505
      endloop
   endfacet
   facet normal 0.992239 0 -0.124344
      outer loop
         vertex 0.0937666 -0.014 -0.0117505
         vertex 0.0937666 0.014 -0.0117505
         vertex 0.0944706 0.014 -0.00235595
      endloop
   endfacet
   facet normal 0.999689 0 -0.0249307
      outer loop
         vertex 0.0944706 -0.014 -0.00235595
         vertex 0.0944706 0.014 -0.00235595
         vertex 0.0942358 0.014 0.00706199
      endloop
   endfacet
   facet normal 0.997204 0 0.0747301
      outer loop
         vertex 0.0942358 -0.014 0.00706199
         vertex 0.0942358 0.014 0.00706199
         vertex 0.0930643 0.014 0.0164098
      endloop
   endfacet
   facet normal 0.984808 0 0.173648
      outer loop
         vertex 0.0930643 -0.014 0.0164098
         vertex 0.0930643 0.014 0.0164098
         vertex 0.090968 0.014 0.0255944
      endloop
   endfacet
   facet normal 0.962624 0 0.27084
      outer loop
         vertex 0.090968 -0.014 0.0255944
         vertex 0.090968 0.014 0.0255944
         vertex 0.0879676 0.014 0.0345247
      endloop
   endfacet
   facet normal 0.930874 0 0.365341
      outer loop
         vertex 0.0879676 -0.014 0.0345247
         vertex 0.0879676 0.014 0.0345247
         vertex 0.0840929 0.014 0.0431119
      endloop
   endfacet
   facet normal 0.889872 0 0.456211
      outer loop
         vertex 0.0840929 -0.014 0.0431119
         vertex 0.0840929 0.014 0.0431119
         vertex 0.0793824 0.014 0.0512706
      endloop
   endfacet
   facet normal 0.840026 0 0.542546
      outer loop
         vertex 0.0793824 -0.014 0.0512706
         vertex 0.0793824 0.014 0.0512706
         vertex 0.0738831 0.014 0.0589198
      endloop
   endfacet
   facet normal 0.781831 0 0.62349
      outer loop
         vertex 0.0738831 -0.014 0.0589198
         vertex 0.0738831 0.014 0.0589198
         vertex 0.0676494 0.014 0.0659834
      endloop
   endfacet
   facet normal 0.715867 0 0.698237
      outer loop
         vertex 0.0676494 -0.014 0.0659834
         vertex 0.0676494 0.014 0.0659834
         vertex 0.0607434 0.014 0.0723912
      endloop
   endfacet
   facet normal 0.642788 0 0.766044
      outer loop
         vertex 0.0607434 -0.014 0.0723912
         vertex 0.0607434 0.014 0.0723912
         vertex 0.0532337 0.014 0.0780796
      endloop
   endfacet
   facet normal 0.56332 0 0.826239
      outer loop
         vertex 0.0532337 -0.014 0.0780796
         vertex 0.0532337 0.014 0.0780796
         vertex 0.045195 0.014 0.0829919
      endloop
   endfacet
   facet normal 0.478254 0 0.878222
      outer loop
         vertex 0.045195 -0.014 0.0829919
         vertex 0.045195 0.014 0.0829919
         vertex 0.0367071 0.014 0.0870795
      endloop
   endfacet
   facet normal 0.388435 0 0.921476
      outer loop
         vertex 0.0367071 -0.014 0.0870795
         vertex 0.0367071 0.014 0.0870795
         vertex 0.0278544 0.014 0.0903016
      endloop
   endfacet
   facet normal 0.294755 0 0.955573
      outer loop
         vertex 0.0278544 -0.014 0.0903016
         vertex 0.0278544 0.014 0.0903016
         vertex 0.0187248 0.014 0.0926263
      endloop
   endfacet
   facet normal 0.198146 0 0.980172
      outer loop
         vertex 0.0187248 -0.014 0.0926263
         vertex 0.0187248 0.014 0.0926263
         vertex 0.00940916 0.014 0.0940304
      endloop
   endfacet
   facet normal 0.0995678 0 0.995031
      outer loop
         vertex 0.00940916 -0.014 0.0940304
         vertex 0.00940916 0.014 0.0940304
         vertex 0 0.014 0.0945
      endloop
   endfacet
   facet normal 0 1 0
      outer loop
         vertex 0 0.014 5.78646e-18
         vertex -0.00471044 0.014 -0.0943825
         vertex -0.0140845 0.014 -0.0934445
      endloop
   endfacet
   facet normal 0 1 0
      outer loop
         vertex -0.0140845 0.014 -0.0934445
         vertex -0.0233186 0.014 -0.0915778
         vertex 0 0.014 5.78646e-18
      endloop
   endfacet
   facet normal 0 1 0
      outer loop
         vertex -0.0233186 0.014 -0.0915778
         vertex -0.0323209 0.014 -0.088801
         vertex 0 0.014 5.78646e-18
      endloop
   endfacet
   facet normal 0 1 0
      outer loop
         vertex -0.0323209 0.014 -0.088801
         vertex -0.041002 0.014 -0.0851416
         vertex 0 0.014 5.78646e-18
      endloop
   endfacet
   facet normal 0 1 0
      outer loop
         vertex -0.041002 0.014 -0.0851416
         vertex -0.0492756 0.014 -0.080636
         vertex 0 0.014 5.78646e-18
      endloop
   endfacet
   facet normal 0 1 0
      outer loop
         vertex -0.0492756 0.014 -0.080636
         vertex -0.0570595 0.014 -0.075329
         vertex 0 0.014 5.78646e-18
      endloop
   endfacet
   facet normal 0 1 0
      outer loop
         vertex -0.0570595 0.014 -0.075329
         vertex -0.0642763 0.014 -0.0692734
         vertex 0 0.014 5.78646e-18
      endloop
   endfacet
   facet normal 0 1 0
      outer loop
         vertex -0.0642763 0.014 -0.0692734
         vertex -0.0708543 0.014 -0.0625293
         vertex 0 0.014 5.78646e-18
      endloop
   endfacet
   facet normal 0 1 0
      outer loop
         vertex -0.0708543 0.014 -0.0625293
         vertex -0.0767281 0.014 -0.0551638
         vertex 0 0.014 5.78646e-18
      endloop
   endfacet
   facet normal 0 1 0
      outer loop
         vertex -0.0767281 0.014 -0.0551638
         vertex -0.0818394 0.014 -0.04725
         vertex 0 0.014 5.78646e-18
      endloop
   endfacet
   facet normal 0 1 0
      outer loop
         vertex -0.0818394 0.014 -0.04725
         vertex -0.0861373 0.014 -0.0388666
         vertex 0 0.014 5.78646e-18
      endloop
   endfacet
   facet normal 0 1 0
      outer loop
         vertex -0.0861373 0.014 -0.0388666
         vertex -0.0895791 0.014 -0.030097
         vertex 0 0.014 5.78646e-18
      endloop
   endfacet
   facet normal 0 1 0
      outer loop
         vertex -0.0895791 0.014 -0.030097
         vertex -0.0921307 0.014 -0.0210282
         vertex 0 0.014 5.78646e-18
      endloop
   endfacet
   facet normal 0 1 0
      outer loop
         vertex -0.0921307 0.014 -0.0210282
         vertex -0.0937666 0.014 -0.0117505
         vertex 0 0.014 5.78646e-18
      endloop
   endfacet
   facet normal 0 1 0
      outer loop
         vertex -0.0937666 0.014 -0.0117505
         vertex -0.0944706 0.014 -0.00235595
         vertex 0 0.014 5.78646e-18
      endloop
   endfacet
   facet normal 0 1 0
      outer loop
         vertex -0.0944706 0.014 -0.00235595
         vertex -0.0942358 0.014 0.00706199
         vertex 0 0.014 5.78646e-18
      endloop
   endfacet
   facet normal 0 1 0
      outer loop
         vertex -0.0942358 0.014 0.00706199
         vertex -0.0930643 0.014 0.0164098
         vertex 0 0.014 5.78646e-18
      endloop
   endfacet
   facet normal 0 1 0
      outer loop
         vertex -0.0930643 0.014 0.0164098
         vertex -0.090968 0.014 0.0255944
         vertex 0 0.014 5.78646e-18
      endloop
   endfacet
   facet normal 0 1 0
      outer loop
         vertex -0.090968 0.014 0.0255944
         vertex -0.0879676 0.014 0.0345247
         vertex 0 0.014 5.78646e-18
      endloop
   endfacet
   facet normal 0 1 0
      outer loop
         vertex -0.0879676 0.014 0.0345247
         vertex -0.0840929 0.014 0.0431119
         vertex 0 0.014 5.78646e-18
      endloop
   endfacet
   facet normal 0 1 0
      outer loop
         vertex -0.0840929 0.014 0.0431119
         vertex -0.0793824 0.014 0.0512706
         vertex 0 0.014 5.78646e-18
      endloop
   endfacet
   facet normal 0 1 0
      outer loop
         vertex -0.0793824 0.014 0.0512706
         vertex -0.0738831 0.014 0.0589198
         vertex 0 0.014 5.78646e-18
      endloop
   endfacet
   facet normal 0 1 0
      outer loop
         vertex -0.0738831 0.014 0.0589198
         vertex -0.0676494 0.014 0.0659834
         vertex 0 0.014 5.78646e-18
      endloop
   endfacet
   facet normal 0 1 0
      outer loop
         vertex -0.0676494 0.014 0.0659834
         vertex -0.0607434 0.014 0.0723912
         vertex 0 0.014 5.78646e-18
      endloop
   endfacet
   facet normal 0 1 0
      outer loop
         vertex -0.0607434 0.014 0.0723912
         vertex -0.0532337 0.014 0.0780796
         vertex 0 0.014 5.78646e-18
      endloop
   endfacet
   facet normal 0 1 0
      outer loop
         vertex -0.0532337 0.014 0.0780796
         vertex -0.045195 0.014 0.0829919
         vertex 0 0.014 5.78646e-18
      endloop
   endfacet
   facet normal 0 1 0
      outer loop
         vertex -0.045195 0.014 0.0829919
         vertex -0.0367071 0.014 0.0870795
         vertex 0 0.014 5.78646e-18
      endloop
   endfacet
   facet normal 0 1 0
      outer loop
         vertex -0.0367071 0.014 0.0870795
         vertex -0.0278544 0.014 0.0903016
         vertex 0 0.014 5.78646e-18
      endloop
   endfacet
   facet normal 0 1 0
      outer loop
         vertex -0.0278544 0.014 0.0903016
         vertex -0.0187248 0.014 0.0926263
         vertex 0 0.014 5.78646e-18
      endloop
   endfacet
   facet normal 0 1 0
      outer loop
         vertex -0.0187248 0.014 0.0926263
         vertex -0.00940916 0.014 0.0940304
         vertex 0 0.014 5.78646e-18
      endloop
   endfacet
   facet normal 0 1 0
      outer loop
         vertex -0.00940916 0.014 0.0940304
         vertex 0 0.014 0.0945
         vertex 0 0.014 5.78646e-18
      endloop
   endfacet
   facet normal 0 1 0
      outer loop
         vertex 0 0.014 0.0945
         vertex 0.00940916 0.014 0.0940304
         vertex 0 0.014 5.78646e-18
      endloop
   endfacet
   facet normal 0 1 0
      outer loop
         vertex 0.00940916 0.014 0.0940304
         vertex 0.0187248 0.014 0.0926263
         vertex 0 0.014 5.78646e-18
      endloop
   endfacet
   facet normal 0 1 0
      outer loop
         vertex 0.0187248 0.014 0.0926263
         vertex 0.0278544 0.014 0.0903016
         vertex 0 0.014 5.78646e-18
      endloop
   endfacet
   facet normal 0 1 0
      outer loop
         vertex 0.0278544 0.014 0.0903016
         vertex 0.0367071 0.014 0.0870795
         vertex 0 0.014 5.78646e-18
      endloop
   endfacet
   facet normal 0 1 0
      outer loop
         vertex 0.0367071 0.014 0.0870795
         vertex 0.045195 0.014 0.0829919
         vertex 0 0.014 5.78646e-18
      endloop
   endfacet
   facet normal 0 1 0
      outer loop
         vertex 0.045195 0.014 0.0829919
         vertex 0.0532337 0.014 0.0780796
         vertex 0 0.014 5.78646e-18
      endloop
   endfacet
   facet normal 0 1 0
      outer loop
         vertex 0.0532337 0.014 0.0780796
         vertex 0.0607434 0.014 0.0723912
         vertex 0 0.014 5.78646e-18
      endloop
   endfacet
   facet normal 0 1 0
      outer loop
         vertex 0.0607434 0.014 0.0723912
         vertex 0.0676494 0.014 0.0659834
         vertex 0 0.014 5.78646e-18
      endloop
   endfacet
   facet normal 0 1 0
      outer loop
         vertex 0.0676494 0.014 0.0659834
         vertex 0.0738831 0.014 0.0589198
         vertex 0 0.014 5.78646e-18
      endloop
   endfacet
   facet normal 0 1 0
      outer loop
         vertex 0.0738831 0.014 0.0589198
         vertex 0.0793824 0.014 0.0512706
         vertex 0 0.014 5.78646e-18
      endloop
   endfacet
   facet normal 0 1 0
      outer loop
         vertex 0.0793824 0.014 0.0512706
         vertex 0.0840929 0.014 0.0431119
         vertex 0 0.014 5.78646e-18
      endloop
   endfacet
   facet normal 0 1 0
      outer loop
         vertex 0.0840929 0.014 0.0431119
         vertex 0.0879676 0.014 0.0345247
         vertex 0 0.014 5.78646e-18
      endloop
   endfacet
   facet normal 0 1 0
      outer loop
         vertex 0.0879676 0.014 0.0345247
         vertex 0.090968 0.014 0.0255944
         vertex 0 0.014 5.78646e-18
      endloop
   endfacet
   facet normal 0 1 0
      outer loop
         vertex 0.090968 0.014 0.0255944
         vertex 0.0930643 0.014 0.0164098
         vertex 0 0.014 5.78646e-18
      endloop
   endfacet
   facet normal 0 1 0
      outer loop
         vertex 0.0930643 0.014 0.0164098
         vertex 0.0942358 0.014 0.00706199
         vertex 0 0.014 5.78646e-18
      endloop
   endfacet
   facet normal 0 1 0
      outer loop
         vertex 0.0942358 0.014 0.00706199
         vertex 0.0944706 0.014 -0.00235595
         vertex 0 0.014 5.78646e-18
      endloop
   endfacet
   facet normal 0 1 0
      outer loop
         vertex 0.0944706 0.014 -0.00235595
         vertex 0.0937666 0.014 -0.0117505
         vertex 0 0.014 5.78646e-18
      endloop
   endfacet
   facet normal 0 1 0
      outer loop
         vertex 0.0937666 0.014 -0.0117505
         vertex 0.0921307 0.014 -0.0210282
         vertex 0 0.014 5.78646e-18
      endloop
   endfacet
   facet normal 0 1 0
      outer loop
         vertex 0.0921307 0.014 -0.0210282
         vertex 0.0895791 0.014 -0.030097
         vertex 0 0.014 5.78646e-18
      endloop
   endfacet
   facet normal 0 1 0
      outer loop
         vertex 0.0895791 0.014 -0.030097
         vertex 0.0861373 0.014 -0.0388666
         vertex 0 0.014 5.78646e-18
      endloop
   endfacet
   facet normal 0 1 0
      outer loop
         vertex 0.0861373 0.014 -0.0388666
         vertex 0.0818394 0.014 -0.04725
         vertex 0 0.014 5.78646e-18
      endloop
   endfacet
   facet normal 0 1 0
      outer loop
         vertex 0.0818394 0.014 -0.04725
         vertex 0.0767281 0.014 -0.0551638
         vertex 0 0.014 5.78646e-18
      endloop
   endfacet
   facet normal 0 1 0
      outer loop
         vertex 0.0767281 0.014 -0.0551638
         vertex 0.0708543 0.014 -0.0625293
         vertex 0 0.014 5.78646e-18
      endloop
   endfacet
   facet normal 0 1 0
      outer loop
         vertex 0.0708543 0.014 -0.0625293
         vertex 0.0642763 0.014 -0.0692734
         vertex 0 0.014 5.78646e-18
      endloop
   endfacet
   facet normal 0 1 0
      outer loop
         vertex 0.0642763 0.014 -0.0692734
         vertex 0.0570595 0.014 -0.075329
         vertex 0 0.014 5.78646e-18
      endloop
   endfacet
   facet normal 0 1 0
      outer loop
         vertex 0.0570595 0.014 -0.075329
         vertex 0.0492756 0.014 -0.080636
         vertex 0 0.014 5.78646e-18
      endloop
   endfacet
   facet normal 0 1 0
      outer loop
         vertex 0.0492756 0.014 -0.080636
         vertex 0.041002 0.014 -0.0851416
         vertex 0 0.014 5.78646e-18
      endloop
   endfacet
   facet normal 0 1 0
      outer loop
         vertex 0.041002 0.014 -0.0851416
         vertex 0.0323209 0.014 -0.088801
         vertex 0 0.014 5.78646e-18
      endloop
   endfacet
   facet normal 0 1 0
      outer loop
         vertex 0.0323209 0.014 -0.088801
         vertex 0.0233186 0.014 -0.0915778
         vertex 0 0.014 5.78646e-18
      endloop
   endfacet
   facet normal 0 1 0
      outer loop
         vertex 0.0233186 0.014 -0.0915778
         vertex 0.0140845 0.014 -0.0934445
         vertex 0 0.014 5.78646e-18
      endloop
   endfacet
   facet normal 0 1 0
      outer loop
         vertex 0.0140845 0.014 -0.0934445
         vertex 0.00471044 0.014 -0.0943825
         vertex 0 0.014 5.78646e-18
      endloop
   endfacet
   facet normal 0 1 0
      outer loop
         vertex 0.00471044 0.014 -0.0943825
         vertex 1.15729e-17 0.014 -0.0945
         vertex 0 0.014 5.78646e-18
      endloop
   endfacet
   facet normal 0 1 0
      outer loop
         vertex 1.15729e-17 0.014 -0.0945
         vertex -0.00471044 0.014 -0.0943825
         vertex 0 0.014 5.78646e-18
      endloop
   endfacet
endsolid Part 1. Units = meters