solid Part 1. STL generated by ONSHAPE BY PTC INC, 1.216. Units = meters
   facet normal 1.38778e-16 -1 0
      outer loop
         vertex -0.1 -0.07 0.133
         vertex -0.1 -0.07 0
         vertex 0.1 -0.07 0
      endloop
   endfacet
   facet normal 1.38778e-16 -1 0
      outer loop
         vertex 0.1 -0.07 0
         vertex 0.1 -0.07 0.133
         vertex -0.1 -0.07 0.133
      endloop
   endfacet
   facet normal 0 0 -1
      outer loop
         vertex 0.1 0.07 0
         vertex 0.1 -0.07 0
         vertex -0.1 -0.07 0
      endloop
   endfacet
   facet normal 0 0 -1
      outer loop
         vertex -0.1 -0.07 0
         vertex -0.1 0.07 0
         vertex 0.1 0.07 0
      endloop
   endfacet
   facet normal 1 1.98254e-16 0
      outer loop
         vertex 0.1 0.07 0
         vertex 0.1 -6.93889e-18 0.16075
         vertex 0.1 -0.07 0.133
      endloop
   endfacet
   facet normal 1 1.98254e-16 0
      outer loop
         vertex 0.1 0.07 0
         vertex 0.1 0.07 0.133
         vertex 0.1 -6.93889e-18 0.16075
      endloop
   endfacet
   facet normal 1 1.98254e-16 0
      outer loop
         vertex 0.1 -0.07 0.133
         vertex 0.1 -0.07 0
         vertex 0.1 0.07 0
      endloop
   endfacet
   facet normal -1 -1.98254e-16 0
      outer loop
         vertex -0.1 -0.07 0
         vertex -0.1 -4.65897e-17 0.16075
         vertex -0.1 0.07 0.133
      endloop
   endfacet
   facet normal -1 -1.98254e-16 0
      outer loop
         vertex -0.1 -0.07 0
         vertex -0.1 -0.07 0.133
         vertex -0.1 -4.65897e-17 0.16075
      endloop
   endfacet
   facet normal -1 -1.98254e-16 0
      outer loop
         vertex -0.1 0.07 0.133
         vertex -0.1 0.07 0
         vertex -0.1 -0.07 0
      endloop
   endfacet
   facet normal 0 1 0
      outer loop
         vertex 0.1 0.07 0.133
         vertex 0.1 0.07 0
         vertex -0.1 0.07 0
      endloop
   endfacet
   facet normal 0 1 0
      outer loop
         vertex -0.1 0.07 0
         vertex -0.1 0.07 0.133
         vertex 0.1 0.07 0.133
      endloop
   endfacet
   facet normal 7.3062e-17 -0.368527 0.929617
      outer loop
         vertex 0.1 -0.07 0.133
         vertex 0.1 -6.93889e-18 0.16075
         vertex -0.1 -4.65897e-17 0.16075
      endloop
   endfacet
   facet normal 7.3062e-17 -0.368527 0.929617
      outer loop
         vertex -0.1 -4.65897e-17 0.16075
         vertex -0.1 -0.07 0.133
         vertex 0.1 -0.07 0.133
      endloop
   endfacet
   facet normal -7.3062e-17 0.368527 0.929617
      outer loop
         vertex -0.1 0.07 0.133
         vertex -0.1 -4.65897e-17 0.16075
         vertex 0.1 -6.93889e-18 0.16075
      endloop
   endfacet
   facet normal -7.3062e-17 0.368527 0.929617
      outer loop
         vertex 0.1 -6.93889e-18 0.16075
         vertex 0.1 0.07 0.133
         vertex -0.1 0.07 0.133
      endloop
   endfacet
endsolid Part 1. Units = meters