solid Part 1. STL generated by ONSHAPE BY PTC INC, 1.217. Units = meters
   facet normal 0 0 -1
      outer loop
         vertex 0 -2.75546e-18 -0.005
         vertex -0.0447362 0.00486536 -0.005
         vertex -0.0439479 0.00967367 -0.005
      endloop
   endfacet
   facet normal 0 0 -1
      outer loop
         vertex -0.0439479 0.00967367 -0.005
         vertex -0.0426444 0.0143686 -0.005
         vertex 0 -2.75546e-18 -0.005
      endloop
   endfacet
   facet normal 0 0 -1
      outer loop
         vertex -0.0426444 0.0143686 -0.005
         vertex -0.0408409 0.018895 -0.005
         vertex 0 -2.75546e-18 -0.005
      endloop
   endfacet
   facet normal 0 0 -1
      outer loop
         vertex -0.0408409 0.018895 -0.005
         vertex -0.0385586 0.0231999 -0.005
         vertex 0 -2.75546e-18 -0.005
      endloop
   endfacet
   facet normal 0 0 -1
      outer loop
         vertex -0.0385586 0.0231999 -0.005
         vertex -0.0358242 0.0272328 -0.005
         vertex 0 -2.75546e-18 -0.005
      endloop
   endfacet
   facet normal 0 0 -1
      outer loop
         vertex -0.0358242 0.0272328 -0.005
         vertex -0.0326698 0.0309465 -0.005
         vertex 0 -2.75546e-18 -0.005
      endloop
   endfacet
   facet normal 0 0 -1
      outer loop
         vertex -0.0326698 0.0309465 -0.005
         vertex -0.0291324 0.0342973 -0.005
         vertex 0 -2.75546e-18 -0.005
      endloop
   endfacet
   facet normal 0 0 -1
      outer loop
         vertex -0.0291324 0.0342973 -0.005
         vertex -0.0252534 0.037246 -0.005
         vertex 0 -2.75546e-18 -0.005
      endloop
   endfacet
   facet normal 0 0 -1
      outer loop
         vertex -0.0252534 0.037246 -0.005
         vertex -0.0210784 0.039758 -0.005
         vertex 0 -2.75546e-18 -0.005
      endloop
   endfacet
   facet normal 0 0 -1
      outer loop
         vertex -0.0210784 0.039758 -0.005
         vertex -0.0166562 0.041804 -0.005
         vertex 0 -2.75546e-18 -0.005
      endloop
   endfacet
   facet normal 0 0 -1
      outer loop
         vertex -0.0166562 0.041804 -0.005
         vertex -0.0120388 0.0433597 -0.005
         vertex 0 -2.75546e-18 -0.005
      endloop
   endfacet
   facet normal 0 0 -1
      outer loop
         vertex -0.0120388 0.0433597 -0.005
         vertex -0.00728019 0.0444072 -0.005
         vertex 0 -2.75546e-18 -0.005
      endloop
   endfacet
   facet normal 0 0 -1
      outer loop
         vertex -0.00728019 0.0444072 -0.005
         vertex -0.00243625 0.044934 -0.005
         vertex 0 -2.75546e-18 -0.005
      endloop
   endfacet
   facet normal 0 0 -1
      outer loop
         vertex -0.00243625 0.044934 -0.005
         vertex 0.00243625 0.044934 -0.005
         vertex 0 -2.75546e-18 -0.005
      endloop
   endfacet
   facet normal 0 0 -1
      outer loop
         vertex 0.00243625 0.044934 -0.005
         vertex 0.00728019 0.0444072 -0.005
         vertex 0 -2.75546e-18 -0.005
      endloop
   endfacet
   facet normal 0 0 -1
      outer loop
         vertex 0.00728019 0.0444072 -0.005
         vertex 0.0120388 0.0433597 -0.005
         vertex 0 -2.75546e-18 -0.005
      endloop
   endfacet
   facet normal 0 0 -1
      outer loop
         vertex 0.0120388 0.0433597 -0.005
         vertex 0.0166562 0.041804 -0.005
         vertex 0 -2.75546e-18 -0.005
      endloop
   endfacet
   facet normal 0 0 -1
      outer loop
         vertex 0.0166562 0.041804 -0.005
         vertex 0.0210784 0.039758 -0.005
         vertex 0 -2.75546e-18 -0.005
      endloop
   endfacet
   facet normal 0 0 -1
      outer loop
         vertex 0.0210784 0.039758 -0.005
         vertex 0.0252534 0.037246 -0.005
         vertex 0 -2.75546e-18 -0.005
      endloop
   endfacet
   facet normal 0 0 -1
      outer loop
         vertex 0.0252534 0.037246 -0.005
         vertex 0.0291324 0.0342973 -0.005
         vertex 0 -2.75546e-18 -0.005
      endloop
   endfacet
   facet normal 0 0 -1
      outer loop
         vertex 0.0291324 0.0342973 -0.005
         vertex 0.0326698 0.0309465 -0.005
         vertex 0 -2.75546e-18 -0.005
      endloop
   endfacet
   facet normal 0 0 -1
      outer loop
         vertex 0.0326698 0.0309465 -0.005
         vertex 0.0358242 0.0272328 -0.005
         vertex 0 -2.75546e-18 -0.005
      endloop
   endfacet
   facet normal 0 0 -1
      outer loop
         vertex 0.0358242 0.0272328 -0.005
         vertex 0.0385586 0.0231999 -0.005
         vertex 0 -2.75546e-18 -0.005
      endloop
   endfacet
   facet normal 0 0 -1
      outer loop
         vertex 0.0385586 0.0231999 -0.005
         vertex 0.0408409 0.018895 -0.005
         vertex 0 -2.75546e-18 -0.005
      endloop
   endfacet
   facet normal 0 0 -1
      outer loop
         vertex 0.0408409 0.018895 -0.005
         vertex 0.0426444 0.0143686 -0.005
         vertex 0 -2.75546e-18 -0.005
      endloop
   endfacet
   facet normal 0 0 -1
      outer loop
         vertex 0.0426444 0.0143686 -0.005
         vertex 0.0439479 0.00967367 -0.005
         vertex 0 -2.75546e-18 -0.005
      endloop
   endfacet
   facet normal 0 0 -1
      outer loop
         vertex 0.0439479 0.00967367 -0.005
         vertex 0.0447362 0.00486536 -0.005
         vertex 0 -2.75546e-18 -0.005
      endloop
   endfacet
   facet normal 0 0 -1
      outer loop
         vertex 0.0447362 0.00486536 -0.005
         vertex 0.045 -2.75546e-18 -0.005
         vertex 0 -2.75546e-18 -0.005
      endloop
   endfacet
   facet normal 0 0 -1
      outer loop
         vertex 0.045 -2.75546e-18 -0.005
         vertex 0.0447362 -0.00486536 -0.005
         vertex 0 -2.75546e-18 -0.005
      endloop
   endfacet
   facet normal 0 0 -1
      outer loop
         vertex 0.0447362 -0.00486536 -0.005
         vertex 0.0439479 -0.00967367 -0.005
         vertex 0 -2.75546e-18 -0.005
      endloop
   endfacet
   facet normal 0 0 -1
      outer loop
         vertex 0.0439479 -0.00967367 -0.005
         vertex 0.0426444 -0.0143686 -0.005
         vertex 0 -2.75546e-18 -0.005
      endloop
   endfacet
   facet normal 0 0 -1
      outer loop
         vertex 0.0426444 -0.0143686 -0.005
         vertex 0.0408409 -0.018895 -0.005
         vertex 0 -2.75546e-18 -0.005
      endloop
   endfacet
   facet normal 0 0 -1
      outer loop
         vertex 0.0408409 -0.018895 -0.005
         vertex 0.0385586 -0.0231999 -0.005
         vertex 0 -2.75546e-18 -0.005
      endloop
   endfacet
   facet normal 0 0 -1
      outer loop
         vertex 0.0385586 -0.0231999 -0.005
         vertex 0.0358242 -0.0272328 -0.005
         vertex 0 -2.75546e-18 -0.005
      endloop
   endfacet
   facet normal 0 0 -1
      outer loop
         vertex 0.0358242 -0.0272328 -0.005
         vertex 0.0326698 -0.0309465 -0.005
         vertex 0 -2.75546e-18 -0.005
      endloop
   endfacet
   facet normal 0 0 -1
      outer loop
         vertex 0.0326698 -0.0309465 -0.005
         vertex 0.0291324 -0.0342973 -0.005
         vertex 0 -2.75546e-18 -0.005
      endloop
   endfacet
   facet normal 0 0 -1
      outer loop
         vertex 0.0291324 -0.0342973 -0.005
         vertex 0.0252534 -0.037246 -0.005
         vertex 0 -2.75546e-18 -0.005
      endloop
   endfacet
   facet normal 0 0 -1
      outer loop
         vertex 0.0252534 -0.037246 -0.005
         vertex 0.0210784 -0.039758 -0.005
         vertex 0 -2.75546e-18 -0.005
      endloop
   endfacet
   facet normal 0 0 -1
      outer loop
         vertex 0.0210784 -0.039758 -0.005
         vertex 0.0166562 -0.041804 -0.005
         vertex 0 -2.75546e-18 -0.005
      endloop
   endfacet
   facet normal 0 0 -1
      outer loop
         vertex 0.0166562 -0.041804 -0.005
         vertex 0.0120388 -0.0433597 -0.005
         vertex 0 -2.75546e-18 -0.005
      endloop
   endfacet
   facet normal 0 0 -1
      outer loop
         vertex 0.0120388 -0.0433597 -0.005
         vertex 0.00728019 -0.0444072 -0.005
         vertex 0 -2.75546e-18 -0.005
      endloop
   endfacet
   facet normal 0 0 -1
      outer loop
         vertex 0.00728019 -0.0444072 -0.005
         vertex 0.00243625 -0.044934 -0.005
         vertex 0 -2.75546e-18 -0.005
      endloop
   endfacet
   facet normal 0 0 -1
      outer loop
         vertex 0.00243625 -0.044934 -0.005
         vertex -0.00243625 -0.044934 -0.005
         vertex 0 -2.75546e-18 -0.005
      endloop
   endfacet
   facet normal 0 0 -1
      outer loop
         vertex -0.00243625 -0.044934 -0.005
         vertex -0.00728019 -0.0444072 -0.005
         vertex 0 -2.75546e-18 -0.005
      endloop
   endfacet
   facet normal 0 0 -1
      outer loop
         vertex -0.00728019 -0.0444072 -0.005
         vertex -0.0120388 -0.0433597 -0.005
         vertex 0 -2.75546e-18 -0.005
      endloop
   endfacet
   facet normal 0 0 -1
      outer loop
         vertex -0.0120388 -0.0433597 -0.005
         vertex -0.0166562 -0.041804 -0.005
         vertex 0 -2.75546e-18 -0.005
      endloop
   endfacet
   facet normal 0 0 -1
      outer loop
         vertex -0.0166562 -0.041804 -0.005
         vertex -0.0210784 -0.039758 -0.005
         vertex 0 -2.75546e-18 -0.005
      endloop
   endfacet
   facet normal 0 0 -1
      outer loop
         vertex -0.0210784 -0.039758 -0.005
         vertex -0.0252534 -0.037246 -0.005
         vertex 0 -2.75546e-18 -0.005
      endloop
   endfacet
   facet normal 0 0 -1
      outer loop
         vertex -0.0252534 -0.037246 -0.005
         vertex -0.0291324 -0.0342973 -0.005
         vertex 0 -2.75546e-18 -0.005
      endloop
   endfacet
   facet normal 0 0 -1
      outer loop
         vertex -0.0291324 -0.0342973 -0.005
         vertex -0.0326698 -0.0309465 -0.005
         vertex 0 -2.75546e-18 -0.005
      endloop
   endfacet
   facet normal 0 0 -1
      outer loop
         vertex -0.0326698 -0.0309465 -0.005
         vertex -0.0358242 -0.0272328 -0.005
         vertex 0 -2.75546e-18 -0.005
      endloop
   endfacet
   facet normal 0 0 -1
      outer loop
         vertex -0.0358242 -0.0272328 -0.005
         vertex -0.0385586 -0.0231999 -0.005
         vertex 0 -2.75546e-18 -0.005
      endloop
   endfacet
   facet normal 0 0 -1
      outer loop
         vertex -0.0385586 -0.0231999 -0.005
         vertex -0.0408409 -0.018895 -0.005
         vertex 0 -2.75546e-18 -0.005
      endloop
   endfacet
   facet normal 0 0 -1
      outer loop
         vertex -0.0408409 -0.018895 -0.005
         vertex -0.0426444 -0.0143686 -0.005
         vertex 0 -2.75546e-18 -0.005
      endloop
   endfacet
   facet normal 0 0 -1
      outer loop
         vertex -0.0426444 -0.0143686 -0.005
         vertex -0.0439479 -0.00967367 -0.005
         vertex 0 -2.75546e-18 -0.005
      endloop
   endfacet
   facet normal 0 0 -1
      outer loop
         vertex -0.0439479 -0.00967367 -0.005
         vertex -0.0447362 -0.00486536 -0.005
         vertex 0 -2.75546e-18 -0.005
      endloop
   endfacet
   facet normal 0 0 -1
      outer loop
         vertex -0.0447362 -0.00486536 -0.005
         vertex -0.045 1.37773e-17 -0.005
         vertex 0 -2.75546e-18 -0.005
      endloop
   endfacet
   facet normal 0 0 -1
      outer loop
         vertex -0.045 1.37773e-17 -0.005
         vertex -0.0447362 0.00486536 -0.005
         vertex 0 -2.75546e-18 -0.005
      endloop
   endfacet
   facet normal 1 0 0
      outer loop
         vertex 0.045 -2.75546e-18 0
         vertex 0.045 -2.75546e-18 -0.005
         vertex 0.0447362 0.00486536 -0.005
      endloop
   endfacet
   facet normal 0.994138 0.108119 0
      outer loop
         vertex 0.0447362 0.00486536 0
         vertex 0.0447362 0.00486536 -0.005
         vertex 0.0439479 0.00967367 -0.005
      endloop
   endfacet
   facet normal 0.976621 0.21497 0
      outer loop
         vertex 0.0439479 0.00967367 0
         vertex 0.0439479 0.00967367 -0.005
         vertex 0.0426444 0.0143686 -0.005
      endloop
   endfacet
   facet normal 0.947653 0.319302 0
      outer loop
         vertex 0.0426444 0.0143686 0
         vertex 0.0426444 0.0143686 -0.005
         vertex 0.0408409 0.018895 -0.005
      endloop
   endfacet
   facet normal 0.907575 0.419889 0
      outer loop
         vertex 0.0408409 0.018895 0
         vertex 0.0408409 0.018895 -0.005
         vertex 0.0385586 0.0231999 -0.005
      endloop
   endfacet
   facet normal 0.856857 0.515554 0
      outer loop
         vertex 0.0385586 0.0231999 0
         vertex 0.0385586 0.0231999 -0.005
         vertex 0.0358242 0.0272328 -0.005
      endloop
   endfacet
   facet normal 0.796093 0.605174 0
      outer loop
         vertex 0.0358242 0.0272328 0
         vertex 0.0358242 0.0272328 -0.005
         vertex 0.0326698 0.0309465 -0.005
      endloop
   endfacet
   facet normal 0.725995 0.687699 0
      outer loop
         vertex 0.0326698 0.0309465 0
         vertex 0.0326698 0.0309465 -0.005
         vertex 0.0291324 0.0342973 -0.005
      endloop
   endfacet
   facet normal 0.647386 0.762162 0
      outer loop
         vertex 0.0291324 0.0342973 0
         vertex 0.0291324 0.0342973 -0.005
         vertex 0.0252534 0.037246 -0.005
      endloop
   endfacet
   facet normal 0.561187 0.827689 0
      outer loop
         vertex 0.0252534 0.037246 0
         vertex 0.0252534 0.037246 -0.005
         vertex 0.0210784 0.039758 -0.005
      endloop
   endfacet
   facet normal 0.468408 0.883512 0
      outer loop
         vertex 0.0210784 0.039758 0
         vertex 0.0210784 0.039758 -0.005
         vertex 0.0166562 0.041804 -0.005
      endloop
   endfacet
   facet normal 0.370138 0.928977 0
      outer loop
         vertex 0.0166562 0.041804 0
         vertex 0.0166562 0.041804 -0.005
         vertex 0.0120388 0.0433597 -0.005
      endloop
   endfacet
   facet normal 0.267528 0.96355 0
      outer loop
         vertex 0.0120388 0.0433597 0
         vertex 0.0120388 0.0433597 -0.005
         vertex 0.00728019 0.0444072 -0.005
      endloop
   endfacet
   facet normal 0.161782 0.986827 0
      outer loop
         vertex 0.00728019 0.0444072 0
         vertex 0.00728019 0.0444072 -0.005
         vertex 0.00243625 0.044934 -0.005
      endloop
   endfacet
   facet normal 0.0541389 0.998533 0
      outer loop
         vertex 0.00243625 0.044934 0
         vertex 0.00243625 0.044934 -0.005
         vertex -0.00243625 0.044934 -0.005
      endloop
   endfacet
   facet normal -0.0541389 0.998533 0
      outer loop
         vertex -0.00243625 0.044934 0
         vertex -0.00243625 0.044934 -0.005
         vertex -0.00728019 0.0444072 -0.005
      endloop
   endfacet
   facet normal -0.161782 0.986827 0
      outer loop
         vertex -0.00728019 0.0444072 0
         vertex -0.00728019 0.0444072 -0.005
         vertex -0.0120388 0.0433597 -0.005
      endloop
   endfacet
   facet normal -0.267528 0.96355 0
      outer loop
         vertex -0.0120388 0.0433597 0
         vertex -0.0120388 0.0433597 -0.005
         vertex -0.0166562 0.041804 -0.005
      endloop
   endfacet
   facet normal -0.370138 0.928977 0
      outer loop
         vertex -0.0166562 0.041804 0
         vertex -0.0166562 0.041804 -0.005
         vertex -0.0210784 0.039758 -0.005
      endloop
   endfacet
   facet normal -0.468408 0.883512 0
      outer loop
         vertex -0.0210784 0.039758 0
         vertex -0.0210784 0.039758 -0.005
         vertex -0.0252534 0.037246 -0.005
      endloop
   endfacet
   facet normal -0.561187 0.827689 0
      outer loop
         vertex -0.0252534 0.037246 0
         vertex -0.0252534 0.037246 -0.005
         vertex -0.0291324 0.0342973 -0.005
      endloop
   endfacet
   facet normal -0.647386 0.762162 0
      outer loop
         vertex -0.0291324 0.0342973 0
         vertex -0.0291324 0.0342973 -0.005
         vertex -0.0326698 0.0309465 -0.005
      endloop
   endfacet
   facet normal -0.725995 0.687699 0
      outer loop
         vertex -0.0326698 0.0309465 0
         vertex -0.0326698 0.0309465 -0.005
         vertex -0.0358242 0.0272328 -0.005
      endloop
   endfacet
   facet normal -0.796093 0.605174 0
      outer loop
         vertex -0.0358242 0.0272328 0
         vertex -0.0358242 0.0272328 -0.005
         vertex -0.0385586 0.0231999 -0.005
      endloop
   endfacet
   facet normal -0.856857 0.515554 0
      outer loop
         vertex -0.0385586 0.0231999 0
         vertex -0.0385586 0.0231999 -0.005
         vertex -0.0408409 0.018895 -0.005
      endloop
   endfacet
   facet normal -0.907575 0.419889 0
      outer loop
         vertex -0.0408409 0.018895 0
         vertex -0.0408409 0.018895 -0.005
         vertex -0.0426444 0.0143686 -0.005
      endloop
   endfacet
   facet normal -0.947653 0.319302 0
      outer loop
         vertex -0.0426444 0.0143686 0
         vertex -0.0426444 0.0143686 -0.005
         vertex -0.0439479 0.00967367 -0.005
      endloop
   endfacet
   facet normal -0.976621 0.21497 0
      outer loop
         vertex -0.0439479 0.00967367 0
         vertex -0.0439479 0.00967367 -0.005
         vertex -0.0447362 0.00486536 -0.005
      endloop
   endfacet
   facet normal -0.994138 0.108119 0
      outer loop
         vertex -0.0447362 0.00486536 0
         vertex -0.0447362 0.00486536 -0.005
         vertex -0.045 1.37773e-17 -0.005
      endloop
   endfacet
   facet normal -1 1.22465e-16 0
      outer loop
         vertex -0.045 2.75546e-18 0
         vertex -0.045 1.37773e-17 -0.005
         vertex -0.0447362 -0.00486536 -0.005
      endloop
   endfacet
   facet normal -0.994138 -0.108119 0
      outer loop
         vertex -0.0447362 -0.00486536 0
         vertex -0.0447362 -0.00486536 -0.005
         vertex -0.0439479 -0.00967367 -0.005
      endloop
   endfacet
   facet normal -0.976621 -0.21497 0
      outer loop
         vertex -0.0439479 -0.00967367 0
         vertex -0.0439479 -0.00967367 -0.005
         vertex -0.0426444 -0.0143686 -0.005
      endloop
   endfacet
   facet normal -0.947653 -0.319302 0
      outer loop
         vertex -0.0426444 -0.0143686 0
         vertex -0.0426444 -0.0143686 -0.005
         vertex -0.0408409 -0.018895 -0.005
      endloop
   endfacet
   facet normal -0.907575 -0.419889 0
      outer loop
         vertex -0.0408409 -0.018895 0
         vertex -0.0408409 -0.018895 -0.005
         vertex -0.0385586 -0.0231999 -0.005
      endloop
   endfacet
   facet normal -0.856857 -0.515554 0
      outer loop
         vertex -0.0385586 -0.0231999 0
         vertex -0.0385586 -0.0231999 -0.005
         vertex -0.0358242 -0.0272328 -0.005
      endloop
   endfacet
   facet normal -0.796093 -0.605174 0
      outer loop
         vertex -0.0358242 -0.0272328 0
         vertex -0.0358242 -0.0272328 -0.005
         vertex -0.0326698 -0.0309465 -0.005
      endloop
   endfacet
   facet normal -0.725995 -0.687699 0
      outer loop
         vertex -0.0326698 -0.0309465 0
         vertex -0.0326698 -0.0309465 -0.005
         vertex -0.0291324 -0.0342973 -0.005
      endloop
   endfacet
   facet normal -0.647386 -0.762162 0
      outer loop
         vertex -0.0291324 -0.0342973 0
         vertex -0.0291324 -0.0342973 -0.005
         vertex -0.0252534 -0.037246 -0.005
      endloop
   endfacet
   facet normal -0.561187 -0.827689 0
      outer loop
         vertex -0.0252534 -0.037246 0
         vertex -0.0252534 -0.037246 -0.005
         vertex -0.0210784 -0.039758 -0.005
      endloop
   endfacet
   facet normal -0.468408 -0.883512 0
      outer loop
         vertex -0.0210784 -0.039758 0
         vertex -0.0210784 -0.039758 -0.005
         vertex -0.0166562 -0.041804 -0.005
      endloop
   endfacet
   facet normal -0.370138 -0.928977 0
      outer loop
         vertex -0.0166562 -0.041804 0
         vertex -0.0166562 -0.041804 -0.005
         vertex -0.0120388 -0.0433597 -0.005
      endloop
   endfacet
   facet normal -0.267528 -0.96355 0
      outer loop
         vertex -0.0120388 -0.0433597 0
         vertex -0.0120388 -0.0433597 -0.005
         vertex -0.00728019 -0.0444072 -0.005
      endloop
   endfacet
   facet normal -0.161782 -0.986827 0
      outer loop
         vertex -0.00728019 -0.0444072 0
         vertex -0.00728019 -0.0444072 -0.005
         vertex -0.00243625 -0.044934 -0.005
      endloop
   endfacet
   facet normal -0.0541389 -0.998533 0
      outer loop
         vertex -0.00243625 -0.044934 0
         vertex -0.00243625 -0.044934 -0.005
         vertex 0.00243625 -0.044934 -0.005
      endloop
   endfacet
   facet normal 0.0541389 -0.998533 0
      outer loop
         vertex 0.00243625 -0.044934 0
         vertex 0.00243625 -0.044934 -0.005
         vertex 0.00728019 -0.0444072 -0.005
      endloop
   endfacet
   facet normal 0.161782 -0.986827 0
      outer loop
         vertex 0.00728019 -0.0444072 0
         vertex 0.00728019 -0.0444072 -0.005
         vertex 0.0120388 -0.0433597 -0.005
      endloop
   endfacet
   facet normal 0.267528 -0.96355 0
      outer loop
         vertex 0.0120388 -0.0433597 0
         vertex 0.0120388 -0.0433597 -0.005
         vertex 0.0166562 -0.041804 -0.005
      endloop
   endfacet
   facet normal 0.370138 -0.928977 0
      outer loop
         vertex 0.0166562 -0.041804 0
         vertex 0.0166562 -0.041804 -0.005
         vertex 0.0210784 -0.039758 -0.005
      endloop
   endfacet
   facet normal 0.468408 -0.883512 0
      outer loop
         vertex 0.0210784 -0.039758 0
         vertex 0.0210784 -0.039758 -0.005
         vertex 0.0252534 -0.037246 -0.005
      endloop
   endfacet
   facet normal 0.561187 -0.827689 0
      outer loop
         vertex 0.0252534 -0.037246 0
         vertex 0.0252534 -0.037246 -0.005
         vertex 0.0291324 -0.0342973 -0.005
      endloop
   endfacet
   facet normal 0.647386 -0.762162 0
      outer loop
         vertex 0.0291324 -0.0342973 0
         vertex 0.0291324 -0.0342973 -0.005
         vertex 0.0326698 -0.0309465 -0.005
      endloop
   endfacet
   facet normal 0.725995 -0.687699 0
      outer loop
         vertex 0.0326698 -0.0309465 0
         vertex 0.0326698 -0.0309465 -0.005
         vertex 0.0358242 -0.0272328 -0.005
      endloop
   endfacet
   facet normal 0.796093 -0.605174 0
      outer loop
         vertex 0.0358242 -0.0272328 0
         vertex 0.0358242 -0.0272328 -0.005
         vertex 0.0385586 -0.0231999 -0.005
      endloop
   endfacet
   facet normal 0.856857 -0.515554 0
      outer loop
         vertex 0.0385586 -0.0231999 0
         vertex 0.0385586 -0.0231999 -0.005
         vertex 0.0408409 -0.018895 -0.005
      endloop
   endfacet
   facet normal 0.907575 -0.419889 0
      outer loop
         vertex 0.0408409 -0.018895 0
         vertex 0.0408409 -0.018895 -0.005
         vertex 0.0426444 -0.0143686 -0.005
      endloop
   endfacet
   facet normal 0.947653 -0.319302 0
      outer loop
         vertex 0.0426444 -0.0143686 0
         vertex 0.0426444 -0.0143686 -0.005
         vertex 0.0439479 -0.00967367 -0.005
      endloop
   endfacet
   facet normal 0.976621 -0.21497 0
      outer loop
         vertex 0.0439479 -0.00967367 0
         vertex 0.0439479 -0.00967367 -0.005
         vertex 0.0447362 -0.00486536 -0.005
      endloop
   endfacet
   facet normal 0.994138 -0.108119 0
      outer loop
         vertex 0.0447362 -0.00486536 0
         vertex 0.0447362 -0.00486536 -0.005
         vertex 0.045 -2.75546e-18 -0.005
      endloop
   endfacet
   facet normal 1 0 0
      outer loop
         vertex 0.045 -2.75546e-18 -0.005
         vertex 0.045 -2.75546e-18 0
         vertex 0.0447362 -0.00486536 0
      endloop
   endfacet
   facet normal 0.994138 -0.108119 0
      outer loop
         vertex 0.0447362 -0.00486536 -0.005
         vertex 0.0447362 -0.00486536 0
         vertex 0.0439479 -0.00967367 0
      endloop
   endfacet
   facet normal 0.976621 -0.21497 0
      outer loop
         vertex 0.0439479 -0.00967367 -0.005
         vertex 0.0439479 -0.00967367 0
         vertex 0.0426444 -0.0143686 0
      endloop
   endfacet
   facet normal 0.947653 -0.319302 0
      outer loop
         vertex 0.0426444 -0.0143686 -0.005
         vertex 0.0426444 -0.0143686 0
         vertex 0.0408409 -0.018895 0
      endloop
   endfacet
   facet normal 0.907575 -0.419889 0
      outer loop
         vertex 0.0408409 -0.018895 -0.005
         vertex 0.0408409 -0.018895 0
         vertex 0.0385586 -0.0231999 0
      endloop
   endfacet
   facet normal 0.856857 -0.515554 0
      outer loop
         vertex 0.0385586 -0.0231999 -0.005
         vertex 0.0385586 -0.0231999 0
         vertex 0.0358242 -0.0272328 0
      endloop
   endfacet
   facet normal 0.796093 -0.605174 0
      outer loop
         vertex 0.0358242 -0.0272328 -0.005
         vertex 0.0358242 -0.0272328 0
         vertex 0.0326698 -0.0309465 0
      endloop
   endfacet
   facet normal 0.725995 -0.687699 0
      outer loop
         vertex 0.0326698 -0.0309465 -0.005
         vertex 0.0326698 -0.0309465 0
         vertex 0.0291324 -0.0342973 0
      endloop
   endfacet
   facet normal 0.647386 -0.762162 0
      outer loop
         vertex 0.0291324 -0.0342973 -0.005
         vertex 0.0291324 -0.0342973 0
         vertex 0.0252534 -0.037246 0
      endloop
   endfacet
   facet normal 0.561187 -0.827689 0
      outer loop
         vertex 0.0252534 -0.037246 -0.005
         vertex 0.0252534 -0.037246 0
         vertex 0.0210784 -0.039758 0
      endloop
   endfacet
   facet normal 0.468408 -0.883512 0
      outer loop
         vertex 0.0210784 -0.039758 -0.005
         vertex 0.0210784 -0.039758 0
         vertex 0.0166562 -0.041804 0
      endloop
   endfacet
   facet normal 0.370138 -0.928977 0
      outer loop
         vertex 0.0166562 -0.041804 -0.005
         vertex 0.0166562 -0.041804 0
         vertex 0.0120388 -0.0433597 0
      endloop
   endfacet
   facet normal 0.267528 -0.96355 0
      outer loop
         vertex 0.0120388 -0.0433597 -0.005
         vertex 0.0120388 -0.0433597 0
         vertex 0.00728019 -0.0444072 0
      endloop
   endfacet
   facet normal 0.161782 -0.986827 0
      outer loop
         vertex 0.00728019 -0.0444072 -0.005
         vertex 0.00728019 -0.0444072 0
         vertex 0.00243625 -0.044934 0
      endloop
   endfacet
   facet normal 0.0541389 -0.998533 0
      outer loop
         vertex 0.00243625 -0.044934 -0.005
         vertex 0.00243625 -0.044934 0
         vertex -0.00243625 -0.044934 0
      endloop
   endfacet
   facet normal -0.0541389 -0.998533 0
      outer loop
         vertex -0.00243625 -0.044934 -0.005
         vertex -0.00243625 -0.044934 0
         vertex -0.00728019 -0.0444072 0
      endloop
   endfacet
   facet normal -0.161782 -0.986827 0
      outer loop
         vertex -0.00728019 -0.0444072 -0.005
         vertex -0.00728019 -0.0444072 0
         vertex -0.0120388 -0.0433597 0
      endloop
   endfacet
   facet normal -0.267528 -0.96355 0
      outer loop
         vertex -0.0120388 -0.0433597 -0.005
         vertex -0.0120388 -0.0433597 0
         vertex -0.0166562 -0.041804 0
      endloop
   endfacet
   facet normal -0.370138 -0.928977 0
      outer loop
         vertex -0.0166562 -0.041804 -0.005
         vertex -0.0166562 -0.041804 0
         vertex -0.0210784 -0.039758 0
      endloop
   endfacet
   facet normal -0.468408 -0.883512 0
      outer loop
         vertex -0.0210784 -0.039758 -0.005
         vertex -0.0210784 -0.039758 0
         vertex -0.0252534 -0.037246 0
      endloop
   endfacet
   facet normal -0.561187 -0.827689 0
      outer loop
         vertex -0.0252534 -0.037246 -0.005
         vertex -0.0252534 -0.037246 0
         vertex -0.0291324 -0.0342973 0
      endloop
   endfacet
   facet normal -0.647386 -0.762162 0
      outer loop
         vertex -0.0291324 -0.0342973 -0.005
         vertex -0.0291324 -0.0342973 0
         vertex -0.0326698 -0.0309465 0
      endloop
   endfacet
   facet normal -0.725995 -0.687699 0
      outer loop
         vertex -0.0326698 -0.0309465 -0.005
         vertex -0.0326698 -0.0309465 0
         vertex -0.0358242 -0.0272328 0
      endloop
   endfacet
   facet normal -0.796093 -0.605174 0
      outer loop
         vertex -0.0358242 -0.0272328 -0.005
         vertex -0.0358242 -0.0272328 0
         vertex -0.0385586 -0.0231999 0
      endloop
   endfacet
   facet normal -0.856857 -0.515554 0
      outer loop
         vertex -0.0385586 -0.0231999 -0.005
         vertex -0.0385586 -0.0231999 0
         vertex -0.0408409 -0.018895 0
      endloop
   endfacet
   facet normal -0.907575 -0.419889 0
      outer loop
         vertex -0.0408409 -0.018895 -0.005
         vertex -0.0408409 -0.018895 0
         vertex -0.0426444 -0.0143686 0
      endloop
   endfacet
   facet normal -0.947653 -0.319302 0
      outer loop
         vertex -0.0426444 -0.0143686 -0.005
         vertex -0.0426444 -0.0143686 0
         vertex -0.0439479 -0.00967367 0
      endloop
   endfacet
   facet normal -0.976621 -0.21497 0
      outer loop
         vertex -0.0439479 -0.00967367 -0.005
         vertex -0.0439479 -0.00967367 0
         vertex -0.0447362 -0.00486536 0
      endloop
   endfacet
   facet normal -0.994138 -0.108119 0
      outer loop
         vertex -0.0447362 -0.00486536 -0.005
         vertex -0.0447362 -0.00486536 0
         vertex -0.045 2.75546e-18 0
      endloop
   endfacet
   facet normal -1 1.22465e-16 0
      outer loop
         vertex -0.045 1.37773e-17 -0.005
         vertex -0.045 2.75546e-18 0
         vertex -0.0447362 0.00486536 0
      endloop
   endfacet
   facet normal -0.994138 0.108119 0
      outer loop
         vertex -0.0447362 0.00486536 -0.005
         vertex -0.0447362 0.00486536 0
         vertex -0.0439479 0.00967367 0
      endloop
   endfacet
   facet normal -0.976621 0.21497 0
      outer loop
         vertex -0.0439479 0.00967367 -0.005
         vertex -0.0439479 0.00967367 0
         vertex -0.0426444 0.0143686 0
      endloop
   endfacet
   facet normal -0.947653 0.319302 0
      outer loop
         vertex -0.0426444 0.0143686 -0.005
         vertex -0.0426444 0.0143686 0
         vertex -0.0408409 0.018895 0
      endloop
   endfacet
   facet normal -0.907575 0.419889 0
      outer loop
         vertex -0.0408409 0.018895 -0.005
         vertex -0.0408409 0.018895 0
         vertex -0.0385586 0.0231999 0
      endloop
   endfacet
   facet normal -0.856857 0.515554 0
      outer loop
         vertex -0.0385586 0.0231999 -0.005
         vertex -0.0385586 0.0231999 0
         vertex -0.0358242 0.0272328 0
      endloop
   endfacet
   facet normal -0.796093 0.605174 0
      outer loop
         vertex -0.0358242 0.0272328 -0.005
         vertex -0.0358242 0.0272328 0
         vertex -0.0326698 0.0309465 0
      endloop
   endfacet
   facet normal -0.725995 0.687699 0
      outer loop
         vertex -0.0326698 0.0309465 -0.005
         vertex -0.0326698 0.0309465 0
         vertex -0.0291324 0.0342973 0
      endloop
   endfacet
   facet normal -0.647386 0.762162 0
      outer loop
         vertex -0.0291324 0.0342973 -0.005
         vertex -0.0291324 0.0342973 0
         vertex -0.0252534 0.037246 0
      endloop
   endfacet
   facet normal -0.561187 0.827689 0
      outer loop
         vertex -0.0252534 0.037246 -0.005
         vertex -0.0252534 0.037246 0
         vertex -0.0210784 0.039758 0
      endloop
   endfacet
   facet normal -0.468408 0.883512 0
      outer loop
         vertex -0.0210784 0.039758 -0.005
         vertex -0.0210784 0.039758 0
         vertex -0.0166562 0.041804 0
      endloop
   endfacet
   facet normal -0.370138 0.928977 0
      outer loop
         vertex -0.0166562 0.041804 -0.005
         vertex -0.0166562 0.041804 0
         vertex -0.0120388 0.0433597 0
      endloop
   endfacet
   facet normal -0.267528 0.96355 0
      outer loop
         vertex -0.0120388 0.0433597 -0.005
         vertex -0.0120388 0.0433597 0
         vertex -0.00728019 0.0444072 0
      endloop
   endfacet
   facet normal -0.161782 0.986827 0
      outer loop
         vertex -0.00728019 0.0444072 -0.005
         vertex -0.00728019 0.0444072 0
         vertex -0.00243625 0.044934 0
      endloop
   endfacet
   facet normal -0.0541389 0.998533 0
      outer loop
         vertex -0.00243625 0.044934 -0.005
         vertex -0.00243625 0.044934 0
         vertex 0.00243625 0.044934 0
      endloop
   endfacet
   facet normal 0.0541389 0.998533 0
      outer loop
         vertex 0.00243625 0.044934 -0.005
         vertex 0.00243625 0.044934 0
         vertex 0.00728019 0.0444072 0
      endloop
   endfacet
   facet normal 0.161782 0.986827 0
      outer loop
         vertex 0.00728019 0.0444072 -0.005
         vertex 0.00728019 0.0444072 0
         vertex 0.0120388 0.0433597 0
      endloop
   endfacet
   facet normal 0.267528 0.96355 0
      outer loop
         vertex 0.0120388 0.0433597 -0.005
         vertex 0.0120388 0.0433597 0
         vertex 0.0166562 0.041804 0
      endloop
   endfacet
   facet normal 0.370138 0.928977 0
      outer loop
         vertex 0.0166562 0.041804 -0.005
         vertex 0.0166562 0.041804 0
         vertex 0.0210784 0.039758 0
      endloop
   endfacet
   facet normal 0.468408 0.883512 0
      outer loop
         vertex 0.0210784 0.039758 -0.005
         vertex 0.0210784 0.039758 0
         vertex 0.0252534 0.037246 0
      endloop
   endfacet
   facet normal 0.561187 0.827689 0
      outer loop
         vertex 0.0252534 0.037246 -0.005
         vertex 0.0252534 0.037246 0
         vertex 0.0291324 0.0342973 0
      endloop
   endfacet
   facet normal 0.647386 0.762162 0
      outer loop
         vertex 0.0291324 0.0342973 -0.005
         vertex 0.0291324 0.0342973 0
         vertex 0.0326698 0.0309465 0
      endloop
   endfacet
   facet normal 0.725995 0.687699 0
      outer loop
         vertex 0.0326698 0.0309465 -0.005
         vertex 0.0326698 0.0309465 0
         vertex 0.0358242 0.0272328 0
      endloop
   endfacet
   facet normal 0.796093 0.605174 0
      outer loop
         vertex 0.0358242 0.0272328 -0.005
         vertex 0.0358242 0.0272328 0
         vertex 0.0385586 0.0231999 0
      endloop
   endfacet
   facet normal 0.856857 0.515554 0
      outer loop
         vertex 0.0385586 0.0231999 -0.005
         vertex 0.0385586 0.0231999 0
         vertex 0.0408409 0.018895 0
      endloop
   endfacet
   facet normal 0.907575 0.419889 0
      outer loop
         vertex 0.0408409 0.018895 -0.005
         vertex 0.0408409 0.018895 0
         vertex 0.0426444 0.0143686 0
      endloop
   endfacet
   facet normal 0.947653 0.319302 0
      outer loop
         vertex 0.0426444 0.0143686 -0.005
         vertex 0.0426444 0.0143686 0
         vertex 0.0439479 0.00967367 0
      endloop
   endfacet
   facet normal 0.976621 0.21497 0
      outer loop
         vertex 0.0439479 0.00967367 -0.005
         vertex 0.0439479 0.00967367 0
         vertex 0.0447362 0.00486536 0
      endloop
   endfacet
   facet normal 0.994138 0.108119 0
      outer loop
         vertex 0.0447362 0.00486536 -0.005
         vertex 0.0447362 0.00486536 0
         vertex 0.045 -2.75546e-18 0
      endloop
   endfacet
   facet normal 0 0 -1
      outer loop
         vertex -0.1 0.07 0
         vertex -0.0358242 0.0272328 0
         vertex -0.0385586 0.0231999 0
      endloop
   endfacet
   facet normal 0 0 -1
      outer loop
         vertex -0.1 0.07 0
         vertex -0.0210784 0.039758 0
         vertex -0.0252534 0.037246 0
      endloop
   endfacet
   facet normal 0 0 -1
      outer loop
         vertex -0.1 0.07 0
         vertex 0.1 0.07 0
         vertex 0.00243625 0.044934 0
      endloop
   endfacet
   facet normal 0 0 -1
      outer loop
         vertex -0.1 0.07 0
         vertex -0.0326698 0.0309465 0
         vertex -0.0358242 0.0272328 0
      endloop
   endfacet
   facet normal 0 0 -1
      outer loop
         vertex -0.0252534 0.037246 0
         vertex -0.0291324 0.0342973 0
         vertex -0.1 0.07 0
      endloop
   endfacet
   facet normal 0 0 -1
      outer loop
         vertex -0.1 0.07 0
         vertex -0.0120388 0.0433597 0
         vertex -0.0166562 0.041804 0
      endloop
   endfacet
   facet normal 0 0 -1
      outer loop
         vertex 0.00243625 0.044934 0
         vertex -0.00243625 0.044934 0
         vertex -0.1 0.07 0
      endloop
   endfacet
   facet normal 0 0 -1
      outer loop
         vertex 0.1 0.07 0
         vertex 0.0210784 0.039758 0
         vertex 0.0166562 0.041804 0
      endloop
   endfacet
   facet normal 0 0 -1
      outer loop
         vertex 0.1 0.07 0
         vertex 0.0447362 0.00486536 0
         vertex 0.0439479 0.00967367 0
      endloop
   endfacet
   facet normal 0 0 -1
      outer loop
         vertex 0.1 -0.07 0
         vertex 0.0408409 -0.018895 0
         vertex 0.0426444 -0.0143686 0
      endloop
   endfacet
   facet normal 0 0 -1
      outer loop
         vertex 0.1 -0.07 0
         vertex 0.0166562 -0.041804 0
         vertex 0.0210784 -0.039758 0
      endloop
   endfacet
   facet normal 0 0 -1
      outer loop
         vertex 0.1 -0.07 0
         vertex -0.1 -0.07 0
         vertex -0.00243625 -0.044934 0
      endloop
   endfacet
   facet normal 0 0 -1
      outer loop
         vertex -0.0291324 0.0342973 0
         vertex -0.0326698 0.0309465 0
         vertex -0.1 0.07 0
      endloop
   endfacet
   facet normal 0 0 -1
      outer loop
         vertex -0.1 0.07 0
         vertex -0.00728019 0.0444072 0
         vertex -0.0120388 0.0433597 0
      endloop
   endfacet
   facet normal 0 0 -1
      outer loop
         vertex 0.1 0.07 0
         vertex 0.00728019 0.0444072 0
         vertex 0.00243625 0.044934 0
      endloop
   endfacet
   facet normal 0 0 -1
      outer loop
         vertex 0.0166562 0.041804 0
         vertex 0.0120388 0.0433597 0
         vertex 0.1 0.07 0
      endloop
   endfacet
   facet normal 0 0 -1
      outer loop
         vertex 0.1 0.07 0
         vertex 0.0385586 0.0231999 0
         vertex 0.0358242 0.0272328 0
      endloop
   endfacet
   facet normal 0 0 -1
      outer loop
         vertex 0.0439479 0.00967367 0
         vertex 0.0426444 0.0143686 0
         vertex 0.1 0.07 0
      endloop
   endfacet
   facet normal 0 0 -1
      outer loop
         vertex 0.1 0.07 0
         vertex 0.1 -0.07 0
         vertex 0.045 -2.75546e-18 0
      endloop
   endfacet
   facet normal 0 0 -1
      outer loop
         vertex 0.1 -0.07 0
         vertex 0.0385586 -0.0231999 0
         vertex 0.0408409 -0.018895 0
      endloop
   endfacet
   facet normal 0 0 -1
      outer loop
         vertex 0.1 -0.07 0
         vertex 0.0326698 -0.0309465 0
         vertex 0.0358242 -0.0272328 0
      endloop
   endfacet
   facet normal 0 0 -1
      outer loop
         vertex 0.1 -0.07 0
         vertex 0.0252534 -0.037246 0
         vertex 0.0291324 -0.0342973 0
      endloop
   endfacet
   facet normal 0 0 -1
      outer loop
         vertex 0.1 -0.07 0
         vertex 0.0120388 -0.0433597 0
         vertex 0.0166562 -0.041804 0
      endloop
   endfacet
   facet normal 0 0 -1
      outer loop
         vertex 0.1 -0.07 0
         vertex 0.00243625 -0.044934 0
         vertex 0.00728019 -0.0444072 0
      endloop
   endfacet
   facet normal 0 0 -1
      outer loop
         vertex -0.1 -0.07 0
         vertex -0.00728019 -0.0444072 0
         vertex -0.00243625 -0.044934 0
      endloop
   endfacet
   facet normal 0 0 -1
      outer loop
         vertex -0.0166562 0.041804 0
         vertex -0.0210784 0.039758 0
         vertex -0.1 0.07 0
      endloop
   endfacet
   facet normal 0 0 -1
      outer loop
         vertex 0.0120388 0.0433597 0
         vertex 0.00728019 0.0444072 0
         vertex 0.1 0.07 0
      endloop
   endfacet
   facet normal 0 0 -1
      outer loop
         vertex 0.1 0.07 0
         vertex 0.0326698 0.0309465 0
         vertex 0.0291324 0.0342973 0
      endloop
   endfacet
   facet normal 0 0 -1
      outer loop
         vertex 0.1 0.07 0
         vertex 0.0408409 0.018895 0
         vertex 0.0385586 0.0231999 0
      endloop
   endfacet
   facet normal 0 0 -1
      outer loop
         vertex 0.045 -2.75546e-18 0
         vertex 0.0447362 0.00486536 0
         vertex 0.1 0.07 0
      endloop
   endfacet
   facet normal 0 0 -1
      outer loop
         vertex 0.1 -0.07 0
         vertex 0.0439479 -0.00967367 0
         vertex 0.0447362 -0.00486536 0
      endloop
   endfacet
   facet normal 0 0 -1
      outer loop
         vertex 0.0358242 -0.0272328 0
         vertex 0.0385586 -0.0231999 0
         vertex 0.1 -0.07 0
      endloop
   endfacet
   facet normal 0 0 -1
      outer loop
         vertex 0.0210784 -0.039758 0
         vertex 0.0252534 -0.037246 0
         vertex 0.1 -0.07 0
      endloop
   endfacet
   facet normal 0 0 -1
      outer loop
         vertex -0.00243625 -0.044934 0
         vertex 0.00243625 -0.044934 0
         vertex 0.1 -0.07 0
      endloop
   endfacet
   facet normal 0 0 -1
      outer loop
         vertex -0.1 0.07 0
         vertex -0.0408409 0.018895 0
         vertex -0.0426444 0.0143686 0
      endloop
   endfacet
   facet normal 0 0 -1
      outer loop
         vertex -0.00243625 0.044934 0
         vertex -0.00728019 0.0444072 0
         vertex -0.1 0.07 0
      endloop
   endfacet
   facet normal 0 0 -1
      outer loop
         vertex 0.0291324 0.0342973 0
         vertex 0.0252534 0.037246 0
         vertex 0.1 0.07 0
      endloop
   endfacet
   facet normal 0 0 -1
      outer loop
         vertex 0.0426444 0.0143686 0
         vertex 0.0408409 0.018895 0
         vertex 0.1 0.07 0
      endloop
   endfacet
   facet normal 0 0 -1
      outer loop
         vertex 0.0426444 -0.0143686 0
         vertex 0.0439479 -0.00967367 0
         vertex 0.1 -0.07 0
      endloop
   endfacet
   facet normal 0 0 -1
      outer loop
         vertex 0.00728019 -0.0444072 0
         vertex 0.0120388 -0.0433597 0
         vertex 0.1 -0.07 0
      endloop
   endfacet
   facet normal 0 0 -1
      outer loop
         vertex -0.0385586 0.0231999 0
         vertex -0.0408409 0.018895 0
         vertex -0.1 0.07 0
      endloop
   endfacet
   facet normal 0 0 -1
      outer loop
         vertex 0.0358242 0.0272328 0
         vertex 0.0326698 0.0309465 0
         vertex 0.1 0.07 0
      endloop
   endfacet
   facet normal 0 0 -1
      outer loop
         vertex 0.0291324 -0.0342973 0
         vertex 0.0326698 -0.0309465 0
         vertex 0.1 -0.07 0
      endloop
   endfacet
   facet normal 0 0 -1
      outer loop
         vertex -0.1 -0.07 0
         vertex -0.0166562 -0.041804 0
         vertex -0.0120388 -0.0433597 0
      endloop
   endfacet
   facet normal 0 0 -1
      outer loop
         vertex -0.1 -0.07 0
         vertex -0.0252534 -0.037246 0
         vertex -0.0210784 -0.039758 0
      endloop
   endfacet
   facet normal 0 0 -1
      outer loop
         vertex -0.1 -0.07 0
         vertex -0.0385586 -0.0231999 0
         vertex -0.0358242 -0.0272328 0
      endloop
   endfacet
   facet normal 0 0 -1
      outer loop
         vertex -0.1 -0.07 0
         vertex -0.0426444 -0.0143686 0
         vertex -0.0408409 -0.018895 0
      endloop
   endfacet
   facet normal 0 0 -1
      outer loop
         vertex -0.1 -0.07 0
         vertex -0.0447362 -0.00486536 0
         vertex -0.0439479 -0.00967367 0
      endloop
   endfacet
   facet normal 0 0 -1
      outer loop
         vertex -0.1 -0.07 0
         vertex -0.1 0.07 0
         vertex -0.045 2.75546e-18 0
      endloop
   endfacet
   facet normal 0 0 -1
      outer loop
         vertex 0.0252534 0.037246 0
         vertex 0.0210784 0.039758 0
         vertex 0.1 0.07 0
      endloop
   endfacet
   facet normal 0 0 -1
      outer loop
         vertex -0.0120388 -0.0433597 0
         vertex -0.00728019 -0.0444072 0
         vertex -0.1 -0.07 0
      endloop
   endfacet
   facet normal 0 0 -1
      outer loop
         vertex -0.1 -0.07 0
         vertex -0.0291324 -0.0342973 0
         vertex -0.0252534 -0.037246 0
      endloop
   endfacet
   facet normal 0 0 -1
      outer loop
         vertex -0.0408409 -0.018895 0
         vertex -0.0385586 -0.0231999 0
         vertex -0.1 -0.07 0
      endloop
   endfacet
   facet normal 0 0 -1
      outer loop
         vertex -0.045 2.75546e-18 0
         vertex -0.0447362 -0.00486536 0
         vertex -0.1 -0.07 0
      endloop
   endfacet
   facet normal 0 0 -1
      outer loop
         vertex -0.1 0.07 0
         vertex -0.0439479 0.00967367 0
         vertex -0.0447362 0.00486536 0
      endloop
   endfacet
   facet normal 0 0 -1
      outer loop
         vertex 0.0447362 -0.00486536 0
         vertex 0.045 -2.75546e-18 0
         vertex 0.1 -0.07 0
      endloop
   endfacet
   facet normal 0 0 -1
      outer loop
         vertex -0.1 -0.07 0
         vertex -0.0326698 -0.0309465 0
         vertex -0.0291324 -0.0342973 0
      endloop
   endfacet
   facet normal 0 0 -1
      outer loop
         vertex -0.0439479 -0.00967367 0
         vertex -0.0426444 -0.0143686 0
         vertex -0.1 -0.07 0
      endloop
   endfacet
   facet normal 0 0 -1
      outer loop
         vertex -0.0426444 0.0143686 0
         vertex -0.0439479 0.00967367 0
         vertex -0.1 0.07 0
      endloop
   endfacet
   facet normal 0 0 -1
      outer loop
         vertex -0.0358242 -0.0272328 0
         vertex -0.0326698 -0.0309465 0
         vertex -0.1 -0.07 0
      endloop
   endfacet
   facet normal 0 0 -1
      outer loop
         vertex -0.0210784 -0.039758 0
         vertex -0.0166562 -0.041804 0
         vertex -0.1 -0.07 0
      endloop
   endfacet
   facet normal 0 0 -1
      outer loop
         vertex -0.0447362 0.00486536 0
         vertex -0.045 2.75546e-18 0
         vertex -0.1 0.07 0
      endloop
   endfacet
   facet normal 1.38778e-16 -1 0
      outer loop
         vertex -0.1 -0.07 0.133
         vertex -0.1 -0.07 0
         vertex 0.1 -0.07 0
      endloop
   endfacet
   facet normal 1.38778e-16 -1 0
      outer loop
         vertex 0.1 -0.07 0
         vertex 0.1 -0.07 0.133
         vertex -0.1 -0.07 0.133
      endloop
   endfacet
   facet normal 1 1.98254e-16 0
      outer loop
         vertex 0.1 0.07 0
         vertex 0.1 -6.93889e-18 0.16075
         vertex 0.1 -0.07 0.133
      endloop
   endfacet
   facet normal 1 1.98254e-16 0
      outer loop
         vertex 0.1 0.07 0
         vertex 0.1 0.07 0.133
         vertex 0.1 -6.93889e-18 0.16075
      endloop
   endfacet
   facet normal 1 1.98254e-16 0
      outer loop
         vertex 0.1 -0.07 0.133
         vertex 0.1 -0.07 0
         vertex 0.1 0.07 0
      endloop
   endfacet
   facet normal 7.3062e-17 -0.368527 0.929617
      outer loop
         vertex 0.1 -0.07 0.133
         vertex 0.1 -6.93889e-18 0.16075
         vertex -0.1 -4.65897e-17 0.16075
      endloop
   endfacet
   facet normal 7.3062e-17 -0.368527 0.929617
      outer loop
         vertex -0.1 -4.65897e-17 0.16075
         vertex -0.1 -0.07 0.133
         vertex 0.1 -0.07 0.133
      endloop
   endfacet
   facet normal -7.3062e-17 0.368527 0.929617
      outer loop
         vertex -0.1 0.07 0.133
         vertex -0.1 -4.65897e-17 0.16075
         vertex 0.1 -6.93889e-18 0.16075
      endloop
   endfacet
   facet normal -7.3062e-17 0.368527 0.929617
      outer loop
         vertex 0.1 -6.93889e-18 0.16075
         vertex 0.1 0.07 0.133
         vertex -0.1 0.07 0.133
      endloop
   endfacet
   facet normal -1 -1.98254e-16 0
      outer loop
         vertex -0.1 -1.38778e-17 0.0718
         vertex -0.1 -4.65897e-17 0.16075
         vertex -0.1 0.07 0.133
      endloop
   endfacet
   facet normal -1 -1.98254e-16 0
      outer loop
         vertex -0.1 -0.07 0.133
         vertex -0.1 -1.38778e-17 0.0718
         vertex -0.1 -1.81128e-17 0.0668
      endloop
   endfacet
   facet normal -1 -1.98254e-16 0
      outer loop
         vertex -0.1 0.07 0.133
         vertex -0.1 0.07 0.0718
         vertex -0.1 -1.38778e-17 0.0718
      endloop
   endfacet
   facet normal -1 -1.98254e-16 0
      outer loop
         vertex -0.1 0.07 0
         vertex -0.1 -0.07 0
         vertex -0.1 -1.81128e-17 0.0668
      endloop
   endfacet
   facet normal -1 -1.98254e-16 0
      outer loop
         vertex -0.1 -1.38778e-17 0.0718
         vertex -0.1 -0.07 0.133
         vertex -0.1 -4.65897e-17 0.16075
      endloop
   endfacet
   facet normal -1 -1.98254e-16 0
      outer loop
         vertex -0.1 -1.81128e-17 0.0668
         vertex -0.1 -0.07 0
         vertex -0.1 -0.07 0.133
      endloop
   endfacet
   facet normal -1 -1.98254e-16 0
      outer loop
         vertex -0.1 -1.81128e-17 0.0668
         vertex -0.1 0.07 0.0668
         vertex -0.1 0.07 0
      endloop
   endfacet
   facet normal 0 1 0
      outer loop
         vertex 0.1 0.07 0.133
         vertex 0.1 0.07 0
         vertex -3.20278e-17 0.07 0.0668
      endloop
   endfacet
   facet normal 0 1 0
      outer loop
         vertex -0.1 0.07 0
         vertex -0.1 0.07 0.0668
         vertex -3.20278e-17 0.07 0.0668
      endloop
   endfacet
   facet normal 0 1 0
      outer loop
         vertex -0.1 0.07 0.133
         vertex 0.1 0.07 0.133
         vertex -2.77556e-17 0.07 0.0718
      endloop
   endfacet
   facet normal 0 1 0
      outer loop
         vertex -3.20278e-17 0.07 0.0668
         vertex 0.1 0.07 0
         vertex -0.1 0.07 0
      endloop
   endfacet
   facet normal 0 1 0
      outer loop
         vertex -3.20278e-17 0.07 0.0668
         vertex -2.77556e-17 0.07 0.0718
         vertex 0.1 0.07 0.133
      endloop
   endfacet
   facet normal 0 1 0
      outer loop
         vertex -2.77556e-17 0.07 0.0718
         vertex -0.1 0.07 0.0718
         vertex -0.1 0.07 0.133
      endloop
   endfacet
   facet normal 0 0 -1
      outer loop
         vertex -0.211648 0.138262 0.0668
         vertex -0.191792 0.142845 0.0668
         vertex -0.187689 0.142432 0.0668
      endloop
   endfacet
   facet normal 0 0 -1
      outer loop
         vertex -0.211648 0.138262 0.0668
         vertex -0.204031 0.141396 0.0668
         vertex -0.200012 0.142324 0.0668
      endloop
   endfacet
   facet normal 0 0 -1
      outer loop
         vertex -0.211648 0.138262 0.0668
         vertex -0.195917 0.142809 0.0668
         vertex -0.191792 0.142845 0.0668
      endloop
   endfacet
   facet normal 0 0 -1
      outer loop
         vertex -0.211648 0.138262 0.0668
         vertex -0.207925 0.140037 0.0668
         vertex -0.204031 0.141396 0.0668
      endloop
   endfacet
   facet normal 0 0 -1
      outer loop
         vertex -0.179737 0.140285 0.0668
         vertex -0.225512 0.0848043 0.0668
         vertex -0.227523 0.088405 0.0668
      endloop
   endfacet
   facet normal 0 0 -1
      outer loop
         vertex -0.200012 0.142324 0.0668
         vertex -0.195917 0.142809 0.0668
         vertex -0.211648 0.138262 0.0668
      endloop
   endfacet
   facet normal 0 0 -1
      outer loop
         vertex -0.179737 0.140285 0.0668
         vertex -0.221362 0.130677 0.0668
         vertex -0.218406 0.133554 0.0668
      endloop
   endfacet
   facet normal 0 0 -1
      outer loop
         vertex -0.179737 0.140285 0.0668
         vertex -0.231218 0.108445 0.0668
         vertex -0.230623 0.112526 0.0668
      endloop
   endfacet
   facet normal 0 0 -1
      outer loop
         vertex -0.179737 0.140285 0.0668
         vertex -0.230315 0.0961538 0.0668
         vertex -0.231063 0.10021 0.0668
      endloop
   endfacet
   facet normal 0 0 -1
      outer loop
         vertex -0.227523 0.088405 0.0668
         vertex -0.22913 0.0922032 0.0668
         vertex -0.179737 0.140285 0.0668
      endloop
   endfacet
   facet normal 0 0 -1
      outer loop
         vertex -0.187689 0.142432 0.0668
         vertex -0.183654 0.141576 0.0668
         vertex -0.211648 0.138262 0.0668
      endloop
   endfacet
   facet normal 0 0 -1
      outer loop
         vertex -0.218406 0.133554 0.0668
         vertex -0.215155 0.136092 0.0668
         vertex -0.179737 0.140285 0.0668
      endloop
   endfacet
   facet normal 0 0 -1
      outer loop
         vertex -0.179737 0.140285 0.0668
         vertex -0.226249 0.124048 0.0668
         vertex -0.223986 0.127496 0.0668
      endloop
   endfacet
   facet normal 0 0 -1
      outer loop
         vertex -0.179737 0.140285 0.0668
         vertex -0.229587 0.116518 0.0668
         vertex -0.228124 0.120374 0.0668
      endloop
   endfacet
   facet normal 0 0 -1
      outer loop
         vertex -0.179737 0.140285 0.0668
         vertex -0.231365 0.104323 0.0668
         vertex -0.231218 0.108445 0.0668
      endloop
   endfacet
   facet normal 0 0 -1
      outer loop
         vertex -0.22913 0.0922032 0.0668
         vertex -0.230315 0.0961538 0.0668
         vertex -0.179737 0.140285 0.0668
      endloop
   endfacet
   facet normal 0 0 -1
      outer loop
         vertex -0.179737 0.140285 0.0668
         vertex -0.220378 0.0783633 0.0668
         vertex -0.223121 0.0814438 0.0668
      endloop
   endfacet
   facet normal 0 0 -1
      outer loop
         vertex -0.179737 0.140285 0.0668
         vertex -0.213973 0.0731853 0.0668
         vertex -0.217317 0.0755996 0.0668
      endloop
   endfacet
   facet normal 0 0 -1
      outer loop
         vertex -0.215155 0.136092 0.0668
         vertex -0.211648 0.138262 0.0668
         vertex -0.179737 0.140285 0.0668
      endloop
   endfacet
   facet normal 0 0 -1
      outer loop
         vertex -0.228124 0.120374 0.0668
         vertex -0.226249 0.124048 0.0668
         vertex -0.179737 0.140285 0.0668
      endloop
   endfacet
   facet normal 0 0 -1
      outer loop
         vertex -0.231063 0.10021 0.0668
         vertex -0.231365 0.104323 0.0668
         vertex -0.179737 0.140285 0.0668
      endloop
   endfacet
   facet normal 0 0 -1
      outer loop
         vertex -0.217317 0.0755996 0.0668
         vertex -0.220378 0.0783633 0.0668
         vertex -0.179737 0.140285 0.0668
      endloop
   endfacet
   facet normal 0 0 -1
      outer loop
         vertex -0.223986 0.127496 0.0668
         vertex -0.221362 0.130677 0.0668
         vertex -0.179737 0.140285 0.0668
      endloop
   endfacet
   facet normal 0 0 -1
      outer loop
         vertex -0.223121 0.0814438 0.0668
         vertex -0.225512 0.0848043 0.0668
         vertex -0.179737 0.140285 0.0668
      endloop
   endfacet
   facet normal 0 0 -1
      outer loop
         vertex -0.230623 0.112526 0.0668
         vertex -0.229587 0.116518 0.0668
         vertex -0.179737 0.140285 0.0668
      endloop
   endfacet
   facet normal 0 0 -1
      outer loop
         vertex -0.213973 0.0731853 0.0668
         vertex -0.179737 0.140285 0.0668
         vertex -0.1 0.07 0.0668
      endloop
   endfacet
   facet normal 0 0 -1
      outer loop
         vertex -0.1 0.07 0.0668
         vertex -0.1 -1.81128e-17 0.0668
         vertex -0.213973 0.0731853 0.0668
      endloop
   endfacet
   facet normal 0 0 -1
      outer loop
         vertex -0.179737 0.140285 0.0668
         vertex -3.20278e-17 0.07 0.0668
         vertex -0.1 0.07 0.0668
      endloop
   endfacet
   facet normal 0 0 -1
      outer loop
         vertex -0.183654 0.141576 0.0668
         vertex -0.179737 0.140285 0.0668
         vertex -0.211648 0.138262 0.0668
      endloop
   endfacet
   facet normal 0 0 1
      outer loop
         vertex -0.211648 0.138262 0.0718
         vertex -0.195917 0.142809 0.0718
         vertex -0.200012 0.142324 0.0718
      endloop
   endfacet
   facet normal 0 0 1
      outer loop
         vertex -0.211648 0.138262 0.0718
         vertex -0.183654 0.141576 0.0718
         vertex -0.187689 0.142432 0.0718
      endloop
   endfacet
   facet normal 0 0 1
      outer loop
         vertex -0.179737 0.140285 0.0718
         vertex -0.22913 0.0922032 0.0718
         vertex -0.227523 0.088405 0.0718
      endloop
   endfacet
   facet normal 0 0 1
      outer loop
         vertex -0.200012 0.142324 0.0718
         vertex -0.204031 0.141396 0.0718
         vertex -0.211648 0.138262 0.0718
      endloop
   endfacet
   facet normal 0 0 1
      outer loop
         vertex -0.187689 0.142432 0.0718
         vertex -0.191792 0.142845 0.0718
         vertex -0.211648 0.138262 0.0718
      endloop
   endfacet
   facet normal 0 0 1
      outer loop
         vertex -0.179737 0.140285 0.0718
         vertex -0.230315 0.0961538 0.0718
         vertex -0.22913 0.0922032 0.0718
      endloop
   endfacet
   facet normal 0 0 1
      outer loop
         vertex -0.179737 0.140285 0.0718
         vertex -0.231365 0.104323 0.0718
         vertex -0.231063 0.10021 0.0718
      endloop
   endfacet
   facet normal 0 0 1
      outer loop
         vertex -0.179737 0.140285 0.0718
         vertex -0.229587 0.116518 0.0718
         vertex -0.230623 0.112526 0.0718
      endloop
   endfacet
   facet normal 0 0 1
      outer loop
         vertex -0.179737 0.140285 0.0718
         vertex -0.215155 0.136092 0.0718
         vertex -0.218406 0.133554 0.0718
      endloop
   endfacet
   facet normal 0 0 1
      outer loop
         vertex -0.191792 0.142845 0.0718
         vertex -0.195917 0.142809 0.0718
         vertex -0.211648 0.138262 0.0718
      endloop
   endfacet
   facet normal 0 0 1
      outer loop
         vertex -0.179737 0.140285 0.0718
         vertex -0.220378 0.0783633 0.0718
         vertex -0.217317 0.0755996 0.0718
      endloop
   endfacet
   facet normal 0 0 1
      outer loop
         vertex -0.179737 0.140285 0.0718
         vertex -0.225512 0.0848043 0.0718
         vertex -0.223121 0.0814438 0.0718
      endloop
   endfacet
   facet normal 0 0 1
      outer loop
         vertex -0.231063 0.10021 0.0718
         vertex -0.230315 0.0961538 0.0718
         vertex -0.179737 0.140285 0.0718
      endloop
   endfacet
   facet normal 0 0 1
      outer loop
         vertex -0.230623 0.112526 0.0718
         vertex -0.231218 0.108445 0.0718
         vertex -0.179737 0.140285 0.0718
      endloop
   endfacet
   facet normal 0 0 1
      outer loop
         vertex -0.179737 0.140285 0.0718
         vertex -0.226249 0.124048 0.0718
         vertex -0.228124 0.120374 0.0718
      endloop
   endfacet
   facet normal 0 0 1
      outer loop
         vertex -0.179737 0.140285 0.0718
         vertex -0.221362 0.130677 0.0718
         vertex -0.223986 0.127496 0.0718
      endloop
   endfacet
   facet normal 0 0 1
      outer loop
         vertex -0.179737 0.140285 0.0718
         vertex -0.211648 0.138262 0.0718
         vertex -0.215155 0.136092 0.0718
      endloop
   endfacet
   facet normal 0 0 1
      outer loop
         vertex -0.211648 0.138262 0.0718
         vertex -0.179737 0.140285 0.0718
         vertex -0.183654 0.141576 0.0718
      endloop
   endfacet
   facet normal 0 0 1
      outer loop
         vertex -0.223121 0.0814438 0.0718
         vertex -0.220378 0.0783633 0.0718
         vertex -0.179737 0.140285 0.0718
      endloop
   endfacet
   facet normal 0 0 1
      outer loop
         vertex -0.231218 0.108445 0.0718
         vertex -0.231365 0.104323 0.0718
         vertex -0.179737 0.140285 0.0718
      endloop
   endfacet
   facet normal 0 0 1
      outer loop
         vertex -0.223986 0.127496 0.0718
         vertex -0.226249 0.124048 0.0718
         vertex -0.179737 0.140285 0.0718
      endloop
   endfacet
   facet normal 0 0 1
      outer loop
         vertex -0.204031 0.141396 0.0718
         vertex -0.207925 0.140037 0.0718
         vertex -0.211648 0.138262 0.0718
      endloop
   endfacet
   facet normal 0 0 1
      outer loop
         vertex -0.227523 0.088405 0.0718
         vertex -0.225512 0.0848043 0.0718
         vertex -0.179737 0.140285 0.0718
      endloop
   endfacet
   facet normal 0 0 1
      outer loop
         vertex -0.218406 0.133554 0.0718
         vertex -0.221362 0.130677 0.0718
         vertex -0.179737 0.140285 0.0718
      endloop
   endfacet
   facet normal 0 0 1
      outer loop
         vertex -0.213973 0.0731853 0.0718
         vertex -0.1 -1.38778e-17 0.0718
         vertex -0.1 0.07 0.0718
      endloop
   endfacet
   facet normal 0 0 1
      outer loop
         vertex -0.228124 0.120374 0.0718
         vertex -0.229587 0.116518 0.0718
         vertex -0.179737 0.140285 0.0718
      endloop
   endfacet
   facet normal 0 0 1
      outer loop
         vertex -0.217317 0.0755996 0.0718
         vertex -0.213973 0.0731853 0.0718
         vertex -0.179737 0.140285 0.0718
      endloop
   endfacet
   facet normal 0 0 1
      outer loop
         vertex -0.1 0.07 0.0718
         vertex -0.179737 0.140285 0.0718
         vertex -0.213973 0.0731853 0.0718
      endloop
   endfacet
   facet normal 0 0 1
      outer loop
         vertex -0.1 0.07 0.0718
         vertex -2.77556e-17 0.07 0.0718
         vertex -0.179737 0.140285 0.0718
      endloop
   endfacet
   facet normal 0.364189 0.931325 0
      outer loop
         vertex -0.179737 0.140285 0.0668
         vertex -0.179737 0.140285 0.0718
         vertex -2.77556e-17 0.07 0.0718
      endloop
   endfacet
   facet normal 0.364189 0.931325 0
      outer loop
         vertex -2.77556e-17 0.07 0.0718
         vertex -3.20278e-17 0.07 0.0668
         vertex -0.179737 0.140285 0.0668
      endloop
   endfacet
   facet normal 0.364189 0.931325 0
      outer loop
         vertex -0.179737 0.140285 0.0718
         vertex -0.179737 0.140285 0.0668
         vertex -0.183654 0.141576 0.0668
      endloop
   endfacet
   facet normal 0.260695 0.965421 0
      outer loop
         vertex -0.183654 0.141576 0.0718
         vertex -0.183654 0.141576 0.0668
         vertex -0.187689 0.142432 0.0668
      endloop
   endfacet
   facet normal 0.154106 0.988054 0
      outer loop
         vertex -0.187689 0.142432 0.0718
         vertex -0.187689 0.142432 0.0668
         vertex -0.191792 0.142845 0.0668
      endloop
   endfacet
   facet normal 0.0456869 0.998956 0
      outer loop
         vertex -0.191792 0.142845 0.0718
         vertex -0.191792 0.142845 0.0668
         vertex -0.195917 0.142809 0.0668
      endloop
   endfacet
   facet normal -0.0632746 0.997996 0
      outer loop
         vertex -0.195917 0.142809 0.0718
         vertex -0.195917 0.142809 0.0668
         vertex -0.200012 0.142324 0.0668
      endloop
   endfacet
   facet normal -0.171485 0.985187 0
      outer loop
         vertex -0.200012 0.142324 0.0718
         vertex -0.200012 0.142324 0.0668
         vertex -0.204031 0.141396 0.0668
      endloop
   endfacet
   facet normal -0.277659 0.96068 0
      outer loop
         vertex -0.204031 0.141396 0.0718
         vertex -0.204031 0.141396 0.0668
         vertex -0.207925 0.140037 0.0668
      endloop
   endfacet
   facet normal -0.380536 0.924766 0
      outer loop
         vertex -0.207925 0.140037 0.0718
         vertex -0.207925 0.140037 0.0668
         vertex -0.211648 0.138262 0.0668
      endloop
   endfacet
   facet normal -0.478895 0.877872 0
      outer loop
         vertex -0.211648 0.138262 0.0718
         vertex -0.211648 0.138262 0.0668
         vertex -0.215155 0.136092 0.0668
      endloop
   endfacet
   facet normal -0.571568 0.820555 0
      outer loop
         vertex -0.215155 0.136092 0.0718
         vertex -0.215155 0.136092 0.0668
         vertex -0.218406 0.133554 0.0668
      endloop
   endfacet
   facet normal -0.657454 0.753494 0
      outer loop
         vertex -0.218406 0.133554 0.0718
         vertex -0.218406 0.133554 0.0668
         vertex -0.221362 0.130677 0.0668
      endloop
   endfacet
   facet normal -0.735534 0.677487 0
      outer loop
         vertex -0.221362 0.130677 0.0718
         vertex -0.221362 0.130677 0.0668
         vertex -0.223986 0.127496 0.0668
      endloop
   endfacet
   facet normal -0.804881 0.593436 0
      outer loop
         vertex -0.223986 0.127496 0.0718
         vertex -0.223986 0.127496 0.0668
         vertex -0.226249 0.124048 0.0668
      endloop
   endfacet
   facet normal -0.864671 0.502339 0
      outer loop
         vertex -0.226249 0.124048 0.0718
         vertex -0.226249 0.124048 0.0668
         vertex -0.228124 0.120374 0.0668
      endloop
   endfacet
   facet normal -0.914194 0.405277 0
      outer loop
         vertex -0.228124 0.120374 0.0718
         vertex -0.228124 0.120374 0.0668
         vertex -0.229587 0.116518 0.0668
      endloop
   endfacet
   facet normal -0.952862 0.303403 0
      outer loop
         vertex -0.229587 0.116518 0.0718
         vertex -0.229587 0.116518 0.0668
         vertex -0.230623 0.112526 0.0668
      endloop
   endfacet
   facet normal -0.980217 0.197927 0
      outer loop
         vertex -0.230623 0.112526 0.0718
         vertex -0.230623 0.112526 0.0668
         vertex -0.231218 0.108445 0.0668
      endloop
   endfacet
   facet normal -0.995933 0.0901007 0
      outer loop
         vertex -0.231218 0.108445 0.0718
         vertex -0.231218 0.108445 0.0668
         vertex -0.231365 0.104323 0.0668
      endloop
   endfacet
   facet normal -0.999823 -0.0187956 0
      outer loop
         vertex -0.231365 0.104323 0.0718
         vertex -0.231365 0.104323 0.0668
         vertex -0.231063 0.10021 0.0668
      endloop
   endfacet
   facet normal -0.991843 -0.127469 0
      outer loop
         vertex -0.231063 0.10021 0.0718
         vertex -0.231063 0.10021 0.0668
         vertex -0.230315 0.0961538 0.0668
      endloop
   endfacet
   facet normal -0.972085 -0.234628 0
      outer loop
         vertex -0.230315 0.0961538 0.0718
         vertex -0.230315 0.0961538 0.0668
         vertex -0.22913 0.0922032 0.0668
      endloop
   endfacet
   facet normal -0.940786 -0.339002 0
      outer loop
         vertex -0.22913 0.0922032 0.0718
         vertex -0.22913 0.0922032 0.0668
         vertex -0.227523 0.088405 0.0668
      endloop
   endfacet
   facet normal -0.898316 -0.439351 0
      outer loop
         vertex -0.227523 0.088405 0.0718
         vertex -0.227523 0.088405 0.0668
         vertex -0.225512 0.0848043 0.0668
      endloop
   endfacet
   facet normal -0.84518 -0.534482 0
      outer loop
         vertex -0.225512 0.0848043 0.0718
         vertex -0.225512 0.0848043 0.0668
         vertex -0.223121 0.0814438 0.0668
      endloop
   endfacet
   facet normal -0.782008 -0.623268 0
      outer loop
         vertex -0.223121 0.0814438 0.0718
         vertex -0.223121 0.0814438 0.0668
         vertex -0.220378 0.0783633 0.0668
      endloop
   endfacet
   facet normal -0.709552 -0.704654 0
      outer loop
         vertex -0.220378 0.0783633 0.0718
         vertex -0.220378 0.0783633 0.0668
         vertex -0.217317 0.0755996 0.0668
      endloop
   endfacet
   facet normal -0.62867 -0.777672 0
      outer loop
         vertex -0.217317 0.0755996 0.0718
         vertex -0.217317 0.0755996 0.0668
         vertex -0.213973 0.0731853 0.0668
      endloop
   endfacet
   facet normal -0.540324 -0.841457 0
      outer loop
         vertex -0.213973 0.0731853 0.0668
         vertex -0.213973 0.0731853 0.0718
         vertex -0.217317 0.0755996 0.0718
      endloop
   endfacet
   facet normal -0.62867 -0.777672 0
      outer loop
         vertex -0.217317 0.0755996 0.0668
         vertex -0.217317 0.0755996 0.0718
         vertex -0.220378 0.0783633 0.0718
      endloop
   endfacet
   facet normal -0.709552 -0.704654 0
      outer loop
         vertex -0.220378 0.0783633 0.0668
         vertex -0.220378 0.0783633 0.0718
         vertex -0.223121 0.0814438 0.0718
      endloop
   endfacet
   facet normal -0.782008 -0.623268 0
      outer loop
         vertex -0.223121 0.0814438 0.0668
         vertex -0.223121 0.0814438 0.0718
         vertex -0.225512 0.0848043 0.0718
      endloop
   endfacet
   facet normal -0.84518 -0.534482 0
      outer loop
         vertex -0.225512 0.0848043 0.0668
         vertex -0.225512 0.0848043 0.0718
         vertex -0.227523 0.088405 0.0718
      endloop
   endfacet
   facet normal -0.898316 -0.439351 0
      outer loop
         vertex -0.227523 0.088405 0.0668
         vertex -0.227523 0.088405 0.0718
         vertex -0.22913 0.0922032 0.0718
      endloop
   endfacet
   facet normal -0.940786 -0.339002 0
      outer loop
         vertex -0.22913 0.0922032 0.0668
         vertex -0.22913 0.0922032 0.0718
         vertex -0.230315 0.0961538 0.0718
      endloop
   endfacet
   facet normal -0.972085 -0.234628 0
      outer loop
         vertex -0.230315 0.0961538 0.0668
         vertex -0.230315 0.0961538 0.0718
         vertex -0.231063 0.10021 0.0718
      endloop
   endfacet
   facet normal -0.991843 -0.127469 0
      outer loop
         vertex -0.231063 0.10021 0.0668
         vertex -0.231063 0.10021 0.0718
         vertex -0.231365 0.104323 0.0718
      endloop
   endfacet
   facet normal -0.999823 -0.0187956 0
      outer loop
         vertex -0.231365 0.104323 0.0668
         vertex -0.231365 0.104323 0.0718
         vertex -0.231218 0.108445 0.0718
      endloop
   endfacet
   facet normal -0.995933 0.0901007 0
      outer loop
         vertex -0.231218 0.108445 0.0668
         vertex -0.231218 0.108445 0.0718
         vertex -0.230623 0.112526 0.0718
      endloop
   endfacet
   facet normal -0.980217 0.197927 0
      outer loop
         vertex -0.230623 0.112526 0.0668
         vertex -0.230623 0.112526 0.0718
         vertex -0.229587 0.116518 0.0718
      endloop
   endfacet
   facet normal -0.952862 0.303403 0
      outer loop
         vertex -0.229587 0.116518 0.0668
         vertex -0.229587 0.116518 0.0718
         vertex -0.228124 0.120374 0.0718
      endloop
   endfacet
   facet normal -0.914194 0.405277 0
      outer loop
         vertex -0.228124 0.120374 0.0668
         vertex -0.228124 0.120374 0.0718
         vertex -0.226249 0.124048 0.0718
      endloop
   endfacet
   facet normal -0.864671 0.502339 0
      outer loop
         vertex -0.226249 0.124048 0.0668
         vertex -0.226249 0.124048 0.0718
         vertex -0.223986 0.127496 0.0718
      endloop
   endfacet
   facet normal -0.804881 0.593436 0
      outer loop
         vertex -0.223986 0.127496 0.0668
         vertex -0.223986 0.127496 0.0718
         vertex -0.221362 0.130677 0.0718
      endloop
   endfacet
   facet normal -0.735534 0.677487 0
      outer loop
         vertex -0.221362 0.130677 0.0668
         vertex -0.221362 0.130677 0.0718
         vertex -0.218406 0.133554 0.0718
      endloop
   endfacet
   facet normal -0.657454 0.753494 0
      outer loop
         vertex -0.218406 0.133554 0.0668
         vertex -0.218406 0.133554 0.0718
         vertex -0.215155 0.136092 0.0718
      endloop
   endfacet
   facet normal -0.571568 0.820555 0
      outer loop
         vertex -0.215155 0.136092 0.0668
         vertex -0.215155 0.136092 0.0718
         vertex -0.211648 0.138262 0.0718
      endloop
   endfacet
   facet normal -0.478895 0.877872 0
      outer loop
         vertex -0.211648 0.138262 0.0668
         vertex -0.211648 0.138262 0.0718
         vertex -0.207925 0.140037 0.0718
      endloop
   endfacet
   facet normal -0.380536 0.924766 0
      outer loop
         vertex -0.207925 0.140037 0.0668
         vertex -0.207925 0.140037 0.0718
         vertex -0.204031 0.141396 0.0718
      endloop
   endfacet
   facet normal -0.277659 0.96068 0
      outer loop
         vertex -0.204031 0.141396 0.0668
         vertex -0.204031 0.141396 0.0718
         vertex -0.200012 0.142324 0.0718
      endloop
   endfacet
   facet normal -0.171485 0.985187 0
      outer loop
         vertex -0.200012 0.142324 0.0668
         vertex -0.200012 0.142324 0.0718
         vertex -0.195917 0.142809 0.0718
      endloop
   endfacet
   facet normal -0.0632746 0.997996 0
      outer loop
         vertex -0.195917 0.142809 0.0668
         vertex -0.195917 0.142809 0.0718
         vertex -0.191792 0.142845 0.0718
      endloop
   endfacet
   facet normal 0.0456869 0.998956 0
      outer loop
         vertex -0.191792 0.142845 0.0668
         vertex -0.191792 0.142845 0.0718
         vertex -0.187689 0.142432 0.0718
      endloop
   endfacet
   facet normal 0.154106 0.988054 0
      outer loop
         vertex -0.187689 0.142432 0.0668
         vertex -0.187689 0.142432 0.0718
         vertex -0.183654 0.141576 0.0718
      endloop
   endfacet
   facet normal 0.260695 0.965421 0
      outer loop
         vertex -0.183654 0.141576 0.0668
         vertex -0.183654 0.141576 0.0718
         vertex -0.179737 0.140285 0.0718
      endloop
   endfacet
   facet normal -0.540324 -0.841457 0
      outer loop
         vertex -0.1 -1.81128e-17 0.0668
         vertex -0.1 -1.38778e-17 0.0718
         vertex -0.213973 0.0731853 0.0718
      endloop
   endfacet
   facet normal -0.540324 -0.841457 0
      outer loop
         vertex -0.213973 0.0731853 0.0718
         vertex -0.213973 0.0731853 0.0668
         vertex -0.1 -1.81128e-17 0.0668
      endloop
   endfacet
endsolid Part 1. Units = meters