solid Part 4. STL generated by ONSHAPE BY PTC INC, 1.216. Units = meters
   facet normal -0.0121165 0.765808 -0.642955
      outer loop
         vertex 0.000842932 0.0869537 0.0123746
         vertex 0.000842931 0.0871722 0.0126349
         vertex 0.000854294 0.087172 0.0126349
      endloop
   endfacet
   facet normal 0.105483 0.759704 -0.641656
      outer loop
         vertex 0.000911228 0.0871683 0.0126356
         vertex 0.000892169 0.0869509 0.0123752
         vertex 0.000852399 0.0869535 0.0123746
      endloop
   endfacet
   facet normal 0.199252 0.743612 -0.638232
      outer loop
         vertex 0.000967427 0.0871586 0.0126377
         vertex 0.000931426 0.0869442 0.0123766
         vertex 0.000892169 0.0869509 0.0123752
      endloop
   endfacet
   facet normal 0.290704 0.717738 -0.632727
      outer loop
         vertex 0.00102224 0.0871431 0.012641
         vertex 0.000969713 0.0869334 0.0123789
         vertex 0.000931426 0.0869442 0.0123766
      endloop
   endfacet
   facet normal 0.378776 0.682383 -0.625205
      outer loop
         vertex 0.00107502 0.0871219 0.0126455
         vertex 0.00100659 0.0869186 0.0123821
         vertex 0.000969713 0.0869334 0.0123789
      endloop
   endfacet
   facet normal 0.462445 0.63796 -0.615753
      outer loop
         vertex 0.00112517 0.0870953 0.0126512
         vertex 0.00104161 0.0869 0.012386
         vertex 0.00100659 0.0869186 0.0123821
      endloop
   endfacet
   facet normal 0.540737 0.584983 -0.604482
      outer loop
         vertex 0.00117209 0.0870636 0.0126579
         vertex 0.00107439 0.0868778 0.0123907
         vertex 0.00104161 0.0869 0.012386
      endloop
   endfacet
   facet normal 0.612743 0.52407 -0.591521
      outer loop
         vertex 0.00121525 0.0870271 0.0126657
         vertex 0.00110454 0.0868523 0.0123962
         vertex 0.00107439 0.0868778 0.0123907
      endloop
   endfacet
   facet normal 0.677625 0.455927 -0.577023
      outer loop
         vertex 0.00125414 0.0869862 0.0126744
         vertex 0.0011317 0.0868238 0.0124022
         vertex 0.00110454 0.0868523 0.0123962
      endloop
   endfacet
   facet normal 0.734628 0.381348 -0.561155
      outer loop
         vertex 0.0012883 0.0869415 0.0126839
         vertex 0.00115557 0.0867925 0.0124089
         vertex 0.0011317 0.0868238 0.0124022
      endloop
   endfacet
   facet normal 0.783091 0.301199 -0.544102
      outer loop
         vertex 0.00131735 0.0868935 0.0126941
         vertex 0.00117586 0.086759 0.012416
         vertex 0.00115557 0.0867925 0.0124089
      endloop
   endfacet
   facet normal 0.82245 0.216413 -0.526062
      outer loop
         vertex 0.00134094 0.0868427 0.0127049
         vertex 0.00119233 0.0867235 0.0124236
         vertex 0.00117586 0.086759 0.012416
      endloop
   endfacet
   facet normal 0.852247 0.127975 -0.507246
      outer loop
         vertex 0.00135879 0.0867897 0.0127162
         vertex 0.00120481 0.0866865 0.0124315
         vertex 0.00119233 0.0867235 0.0124236
      endloop
   endfacet
   facet normal 0.872135 0.0369128 -0.487871
      outer loop
         vertex 0.00137071 0.0867351 0.0127278
         vertex 0.00121314 0.0866483 0.0124396
         vertex 0.00120481 0.0866865 0.0124315
      endloop
   endfacet
   facet normal 0.872135 0.0369128 -0.487871
      outer loop
         vertex 0.00137071 0.0867351 0.0127278
         vertex 0.00137255 0.0867241 0.0127302
         vertex 0.00121469 0.0866392 0.0124415
      endloop
   endfacet
   facet normal 0.875373 0.0150308 -0.483215
      outer loop
         vertex 0.00121469 0.0866392 0.0124415
         vertex 0.00121314 0.0866483 0.0124396
         vertex 0.00137071 0.0867351 0.0127278
      endloop
   endfacet
   facet normal 0.852247 0.127975 -0.507246
      outer loop
         vertex 0.00120481 0.0866865 0.0124315
         vertex 0.00135879 0.0867897 0.0127162
         vertex 0.00137071 0.0867351 0.0127278
      endloop
   endfacet
   facet normal 0.82245 0.216413 -0.526062
      outer loop
         vertex 0.00119233 0.0867235 0.0124236
         vertex 0.00134094 0.0868427 0.0127049
         vertex 0.00135879 0.0867897 0.0127162
      endloop
   endfacet
   facet normal 0.783091 0.301199 -0.544102
      outer loop
         vertex 0.00117586 0.086759 0.012416
         vertex 0.00131735 0.0868935 0.0126941
         vertex 0.00134094 0.0868427 0.0127049
      endloop
   endfacet
   facet normal 0.734628 0.381348 -0.561155
      outer loop
         vertex 0.00115557 0.0867925 0.0124089
         vertex 0.0012883 0.0869415 0.0126839
         vertex 0.00131735 0.0868935 0.0126941
      endloop
   endfacet
   facet normal 0.677625 0.455927 -0.577023
      outer loop
         vertex 0.0011317 0.0868238 0.0124022
         vertex 0.00125414 0.0869862 0.0126744
         vertex 0.0012883 0.0869415 0.0126839
      endloop
   endfacet
   facet normal 0.612743 0.52407 -0.591521
      outer loop
         vertex 0.00110454 0.0868523 0.0123962
         vertex 0.00121525 0.0870271 0.0126657
         vertex 0.00125414 0.0869862 0.0126744
      endloop
   endfacet
   facet normal 0.540737 0.584983 -0.604482
      outer loop
         vertex 0.00107439 0.0868778 0.0123907
         vertex 0.00117209 0.0870636 0.0126579
         vertex 0.00121525 0.0870271 0.0126657
      endloop
   endfacet
   facet normal 0.462445 0.63796 -0.615753
      outer loop
         vertex 0.00104161 0.0869 0.012386
         vertex 0.00112517 0.0870953 0.0126512
         vertex 0.00117209 0.0870636 0.0126579
      endloop
   endfacet
   facet normal 0.378776 0.682383 -0.625205
      outer loop
         vertex 0.00100659 0.0869186 0.0123821
         vertex 0.00107502 0.0871219 0.0126455
         vertex 0.00112517 0.0870953 0.0126512
      endloop
   endfacet
   facet normal 0.290704 0.717738 -0.632727
      outer loop
         vertex 0.000969713 0.0869334 0.0123789
         vertex 0.00102224 0.0871431 0.012641
         vertex 0.00107502 0.0871219 0.0126455
      endloop
   endfacet
   facet normal 0.199252 0.743612 -0.638232
      outer loop
         vertex 0.000931426 0.0869442 0.0123766
         vertex 0.000967427 0.0871586 0.0126377
         vertex 0.00102224 0.0871431 0.012641
      endloop
   endfacet
   facet normal 0.105483 0.759704 -0.641656
      outer loop
         vertex 0.000892169 0.0869509 0.0123752
         vertex 0.000911228 0.0871683 0.0126356
         vertex 0.000967427 0.0871586 0.0126377
      endloop
   endfacet
   facet normal 0.0104883 0.765829 -0.642959
      outer loop
         vertex 0.000852399 0.0869535 0.0123746
         vertex 0.000854294 0.087172 0.0126349
         vertex 0.000911228 0.0871683 0.0126356
      endloop
   endfacet
   facet normal 0.0104883 0.765829 -0.642959
      outer loop
         vertex 0.000854294 0.087172 0.0126349
         vertex 0.000852399 0.0869535 0.0123746
         vertex 0.000842932 0.0869537 0.0123746
      endloop
   endfacet
   facet normal 0 0.765916 -0.642941
      outer loop
         vertex 0.000842932 0.0869537 0.0123746
         vertex -0.000842932 0.0869537 0.0123746
         vertex -0.000842932 0.0871722 0.0126348
      endloop
   endfacet
   facet normal 0 0.765916 -0.642941
      outer loop
         vertex -0.000842932 0.0871722 0.0126348
         vertex 0.000842931 0.0871722 0.0126349
         vertex 0.000842932 0.0869537 0.0123746
      endloop
   endfacet
   facet normal -0.875377 0.0150018 -0.483209
      outer loop
         vertex -0.00121468 0.0866392 0.0124415
         vertex -0.00137258 0.0867241 0.0127302
         vertex -0.0013707 0.0867351 0.0127278
      endloop
   endfacet
   facet normal -0.852254 0.127947 -0.50724
      outer loop
         vertex -0.00135879 0.0867897 0.0127162
         vertex -0.0012048 0.0866865 0.0124315
         vertex -0.00121312 0.0866483 0.0124396
      endloop
   endfacet
   facet normal -0.822461 0.216386 -0.526057
      outer loop
         vertex -0.00134093 0.0868427 0.0127049
         vertex -0.00119233 0.0867235 0.0124236
         vertex -0.0012048 0.0866865 0.0124315
      endloop
   endfacet
   facet normal -0.783105 0.301174 -0.544097
      outer loop
         vertex -0.00131734 0.0868935 0.0126941
         vertex -0.00117585 0.086759 0.012416
         vertex -0.00119233 0.0867235 0.0124236
      endloop
   endfacet
   facet normal -0.734645 0.381324 -0.56115
      outer loop
         vertex -0.0012883 0.0869415 0.0126839
         vertex -0.00115556 0.0867925 0.0124089
         vertex -0.00117585 0.086759 0.012416
      endloop
   endfacet
   facet normal -0.677644 0.455905 -0.577018
      outer loop
         vertex -0.00125413 0.0869862 0.0126744
         vertex -0.0011317 0.0868238 0.0124022
         vertex -0.00115556 0.0867925 0.0124089
      endloop
   endfacet
   facet normal -0.612764 0.524049 -0.591517
      outer loop
         vertex -0.00121525 0.0870271 0.0126657
         vertex -0.00110453 0.0868523 0.0123962
         vertex -0.0011317 0.0868238 0.0124022
      endloop
   endfacet
   facet normal -0.540761 0.584965 -0.604478
      outer loop
         vertex -0.00117209 0.0870636 0.0126579
         vertex -0.00107439 0.0868778 0.0123907
         vertex -0.00110453 0.0868523 0.0123962
      endloop
   endfacet
   facet normal -0.46247 0.637944 -0.61575
      outer loop
         vertex -0.00112517 0.0870953 0.0126512
         vertex -0.00104161 0.0869 0.012386
         vertex -0.00107439 0.0868778 0.0123907
      endloop
   endfacet
   facet normal -0.378803 0.682371 -0.625202
      outer loop
         vertex -0.00107503 0.0871219 0.0126455
         vertex -0.00100658 0.0869186 0.0123821
         vertex -0.00104161 0.0869 0.012386
      endloop
   endfacet
   facet normal -0.290732 0.717728 -0.632725
      outer loop
         vertex -0.00102224 0.0871431 0.012641
         vertex -0.000969713 0.0869334 0.0123789
         vertex -0.00100658 0.0869186 0.0123821
      endloop
   endfacet
   facet normal -0.199281 0.743605 -0.638231
      outer loop
         vertex -0.000967432 0.0871586 0.0126377
         vertex -0.000931426 0.0869442 0.0123766
         vertex -0.000969713 0.0869334 0.0123789
      endloop
   endfacet
   facet normal -0.105513 0.759701 -0.641656
      outer loop
         vertex -0.000911233 0.0871683 0.0126356
         vertex -0.000892169 0.0869509 0.0123752
         vertex -0.000931426 0.0869442 0.0123766
      endloop
   endfacet
   facet normal -0.0105182 0.765828 -0.642959
      outer loop
         vertex -0.000854299 0.087172 0.0126349
         vertex -0.000852398 0.0869535 0.0123746
         vertex -0.000892169 0.0869509 0.0123752
      endloop
   endfacet
   facet normal -0.0105182 0.765828 -0.642959
      outer loop
         vertex -0.000854299 0.087172 0.0126349
         vertex -0.000842932 0.0871722 0.0126348
         vertex -0.000842932 0.0869537 0.0123746
      endloop
   endfacet
   facet normal 0.0120866 0.765809 -0.642955
      outer loop
         vertex -0.000842932 0.0869537 0.0123746
         vertex -0.000852398 0.0869535 0.0123746
         vertex -0.000854299 0.087172 0.0126349
      endloop
   endfacet
   facet normal -0.105513 0.759701 -0.641656
      outer loop
         vertex -0.000892169 0.0869509 0.0123752
         vertex -0.000911233 0.0871683 0.0126356
         vertex -0.000854299 0.087172 0.0126349
      endloop
   endfacet
   facet normal -0.199281 0.743605 -0.638231
      outer loop
         vertex -0.000931426 0.0869442 0.0123766
         vertex -0.000967432 0.0871586 0.0126377
         vertex -0.000911233 0.0871683 0.0126356
      endloop
   endfacet
   facet normal -0.290732 0.717728 -0.632725
      outer loop
         vertex -0.000969713 0.0869334 0.0123789
         vertex -0.00102224 0.0871431 0.012641
         vertex -0.000967432 0.0871586 0.0126377
      endloop
   endfacet
   facet normal -0.378803 0.682371 -0.625202
      outer loop
         vertex -0.00100658 0.0869186 0.0123821
         vertex -0.00107503 0.0871219 0.0126455
         vertex -0.00102224 0.0871431 0.012641
      endloop
   endfacet
   facet normal -0.46247 0.637944 -0.61575
      outer loop
         vertex -0.00104161 0.0869 0.012386
         vertex -0.00112517 0.0870953 0.0126512
         vertex -0.00107503 0.0871219 0.0126455
      endloop
   endfacet
   facet normal -0.540761 0.584965 -0.604478
      outer loop
         vertex -0.00107439 0.0868778 0.0123907
         vertex -0.00117209 0.0870636 0.0126579
         vertex -0.00112517 0.0870953 0.0126512
      endloop
   endfacet
   facet normal -0.612764 0.524049 -0.591517
      outer loop
         vertex -0.00110453 0.0868523 0.0123962
         vertex -0.00121525 0.0870271 0.0126657
         vertex -0.00117209 0.0870636 0.0126579
      endloop
   endfacet
   facet normal -0.677644 0.455905 -0.577018
      outer loop
         vertex -0.0011317 0.0868238 0.0124022
         vertex -0.00125413 0.0869862 0.0126744
         vertex -0.00121525 0.0870271 0.0126657
      endloop
   endfacet
   facet normal -0.734645 0.381324 -0.56115
      outer loop
         vertex -0.00115556 0.0867925 0.0124089
         vertex -0.0012883 0.0869415 0.0126839
         vertex -0.00125413 0.0869862 0.0126744
      endloop
   endfacet
   facet normal -0.783105 0.301174 -0.544097
      outer loop
         vertex -0.00117585 0.086759 0.012416
         vertex -0.00131734 0.0868935 0.0126941
         vertex -0.0012883 0.0869415 0.0126839
      endloop
   endfacet
   facet normal -0.822461 0.216386 -0.526057
      outer loop
         vertex -0.00119233 0.0867235 0.0124236
         vertex -0.00134093 0.0868427 0.0127049
         vertex -0.00131734 0.0868935 0.0126941
      endloop
   endfacet
   facet normal -0.852254 0.127947 -0.50724
      outer loop
         vertex -0.0012048 0.0866865 0.0124315
         vertex -0.00135879 0.0867897 0.0127162
         vertex -0.00134093 0.0868427 0.0127049
      endloop
   endfacet
   facet normal -0.87214 0.0368839 -0.487865
      outer loop
         vertex -0.00121312 0.0866483 0.0124396
         vertex -0.0013707 0.0867351 0.0127278
         vertex -0.00135879 0.0867897 0.0127162
      endloop
   endfacet
   facet normal -0.87214 0.0368839 -0.487865
      outer loop
         vertex -0.0013707 0.0867351 0.0127278
         vertex -0.00121312 0.0866483 0.0124396
         vertex -0.00121468 0.0866392 0.0124415
      endloop
   endfacet
   facet normal -0.873732 0.0267512 -0.485672
      outer loop
         vertex -0.00121468 0.0866392 0.0124415
         vertex -0.00183768 0.0824561 0.0133315
         vertex -0.00198928 0.082583 0.0136112
      endloop
   endfacet
   facet normal -0.873732 0.0267512 -0.485672
      outer loop
         vertex -0.00198928 0.082583 0.0136112
         vertex -0.00137258 0.0867241 0.0127302
         vertex -0.00121468 0.0866392 0.0124415
      endloop
   endfacet
   facet normal -0.688909 0.442477 -0.574124
      outer loop
         vertex -0.00460831 0.0790754 0.0140508
         vertex -0.00473284 0.0792355 0.0143235
         vertex -0.00198928 0.082583 0.0136112
      endloop
   endfacet
   facet normal -0.688909 0.442477 -0.574124
      outer loop
         vertex -0.00198928 0.082583 0.0136112
         vertex -0.00183768 0.0824561 0.0133315
         vertex -0.00460831 0.0790754 0.0140508
      endloop
   endfacet
   facet normal -0.710975 -0.60953 -0.350695
      outer loop
         vertex -0.00474871 0.0786008 0.0144585
         vertex -0.0046201 0.078631 0.0141454
         vertex -0.00461329 0.0786219 0.0141473
      endloop
   endfacet
   facet normal -0.763019 -0.531944 -0.367203
      outer loop
         vertex -0.00477996 0.0786474 0.0144486
         vertex -0.00464193 0.0786635 0.0141385
         vertex -0.0046201 0.078631 0.0141454
      endloop
   endfacet
   facet normal -0.806249 -0.449342 -0.384778
      outer loop
         vertex -0.00480591 0.078697 0.014438
         vertex -0.00466006 0.0786982 0.0141311
         vertex -0.00464193 0.0786635 0.0141385
      endloop
   endfacet
   facet normal -0.840166 -0.36268 -0.403217
      outer loop
         vertex -0.00482627 0.078749 0.014427
         vertex -0.00467429 0.0787345 0.0141234
         vertex -0.00466006 0.0786982 0.0141311
      endloop
   endfacet
   facet normal -0.864379 -0.272959 -0.422306
      outer loop
         vertex -0.00484081 0.0788029 0.0144155
         vertex -0.00468445 0.0787722 0.0141153
         vertex -0.00467429 0.0787345 0.0141234
      endloop
   endfacet
   facet normal -0.878607 -0.181213 -0.441827
      outer loop
         vertex -0.00484935 0.078858 0.0144038
         vertex -0.00469042 0.0788106 0.0141072
         vertex -0.00468445 0.0787722 0.0141153
      endloop
   endfacet
   facet normal -0.882687 -0.0885043 -0.461552
      outer loop
         vertex -0.0048518 0.0789136 0.014392
         vertex -0.00469213 0.0788495 0.0140989
         vertex -0.00469042 0.0788106 0.0141072
      endloop
   endfacet
   facet normal -0.876571 0.00409749 -0.481255
      outer loop
         vertex -0.00484813 0.0789692 0.0143801
         vertex -0.00468956 0.0788884 0.0140906
         vertex -0.00469213 0.0788495 0.0140989
      endloop
   endfacet
   facet normal -0.86033 0.0955225 -0.500707
      outer loop
         vertex -0.00483838 0.0790241 0.0143684
         vertex -0.00468275 0.0789267 0.0140825
         vertex -0.00468956 0.0788884 0.0140906
      endloop
   endfacet
   facet normal -0.834152 0.184715 -0.519684
      outer loop
         vertex -0.00482266 0.0790777 0.0143571
         vertex -0.00467177 0.0789641 0.0140745
         vertex -0.00468275 0.0789267 0.0140825
      endloop
   endfacet
   facet normal -0.798338 0.270644 -0.537967
      outer loop
         vertex -0.00480116 0.0791293 0.0143461
         vertex -0.00465675 0.0790002 0.0140668
         vertex -0.00467177 0.0789641 0.0140745
      endloop
   endfacet
   facet normal -0.753303 0.352317 -0.555344
      outer loop
         vertex -0.00477412 0.0791783 0.0143356
         vertex -0.00463785 0.0790344 0.0140595
         vertex -0.00465675 0.0790002 0.0140668
      endloop
   endfacet
   facet normal -0.699567 0.428792 -0.571615
      outer loop
         vertex -0.00474186 0.0792242 0.0143259
         vertex -0.00461531 0.0790665 0.0140527
         vertex -0.00463785 0.0790344 0.0140595
      endloop
   endfacet
   facet normal -0.699567 0.428792 -0.571615
      outer loop
         vertex -0.00474186 0.0792242 0.0143259
         vertex -0.00473284 0.0792355 0.0143235
         vertex -0.00460831 0.0790754 0.0140508
      endloop
   endfacet
   facet normal -0.682552 0.449738 -0.576072
      outer loop
         vertex -0.00460831 0.0790754 0.0140508
         vertex -0.00461531 0.0790665 0.0140527
         vertex -0.00474186 0.0792242 0.0143259
      endloop
   endfacet
   facet normal -0.753303 0.352317 -0.555344
      outer loop
         vertex -0.00463785 0.0790344 0.0140595
         vertex -0.00477412 0.0791783 0.0143356
         vertex -0.00474186 0.0792242 0.0143259
      endloop
   endfacet
   facet normal -0.798338 0.270644 -0.537967
      outer loop
         vertex -0.00465675 0.0790002 0.0140668
         vertex -0.00480116 0.0791293 0.0143461
         vertex -0.00477412 0.0791783 0.0143356
      endloop
   endfacet
   facet normal -0.834152 0.184715 -0.519684
      outer loop
         vertex -0.00467177 0.0789641 0.0140745
         vertex -0.00482266 0.0790777 0.0143571
         vertex -0.00480116 0.0791293 0.0143461
      endloop
   endfacet
   facet normal -0.86033 0.0955225 -0.500707
      outer loop
         vertex -0.00468275 0.0789267 0.0140825
         vertex -0.00483838 0.0790241 0.0143684
         vertex -0.00482266 0.0790777 0.0143571
      endloop
   endfacet
   facet normal -0.876571 0.00409749 -0.481255
      outer loop
         vertex -0.00468956 0.0788884 0.0140906
         vertex -0.00484813 0.0789692 0.0143801
         vertex -0.00483838 0.0790241 0.0143684
      endloop
   endfacet
   facet normal -0.882687 -0.0885043 -0.461552
      outer loop
         vertex -0.00469213 0.0788495 0.0140989
         vertex -0.0048518 0.0789136 0.014392
         vertex -0.00484813 0.0789692 0.0143801
      endloop
   endfacet
   facet normal -0.878607 -0.181213 -0.441827
      outer loop
         vertex -0.00469042 0.0788106 0.0141072
         vertex -0.00484935 0.078858 0.0144038
         vertex -0.0048518 0.0789136 0.014392
      endloop
   endfacet
   facet normal -0.864379 -0.272959 -0.422306
      outer loop
         vertex -0.00468445 0.0787722 0.0141153
         vertex -0.00484081 0.0788029 0.0144155
         vertex -0.00484935 0.078858 0.0144038
      endloop
   endfacet
   facet normal -0.840166 -0.36268 -0.403217
      outer loop
         vertex -0.00467429 0.0787345 0.0141234
         vertex -0.00482627 0.078749 0.014427
         vertex -0.00484081 0.0788029 0.0144155
      endloop
   endfacet
   facet normal -0.806249 -0.449342 -0.384778
      outer loop
         vertex -0.00466006 0.0786982 0.0141311
         vertex -0.00480591 0.078697 0.014438
         vertex -0.00482627 0.078749 0.014427
      endloop
   endfacet
   facet normal -0.763019 -0.531944 -0.367203
      outer loop
         vertex -0.00464193 0.0786635 0.0141385
         vertex -0.00477996 0.0786474 0.0144486
         vertex -0.00480591 0.078697 0.014438
      endloop
   endfacet
   facet normal -0.710975 -0.60953 -0.350695
      outer loop
         vertex -0.0046201 0.078631 0.0141454
         vertex -0.00474871 0.0786008 0.0144585
         vertex -0.00477996 0.0786474 0.0144486
      endloop
   endfacet
   facet normal -0.694424 -0.630829 -0.346164
      outer loop
         vertex -0.00461329 0.0786219 0.0141473
         vertex -0.00473995 0.0785894 0.014461
         vertex -0.00474871 0.0786008 0.0144585
      endloop
   endfacet
   facet normal -0.700636 -0.62325 -0.347374
      outer loop
         vertex -0.00461329 0.0786219 0.0141473
         vertex -0.0041649 0.0780501 0.014269
         vertex -0.00429149 0.0780176 0.0145826
      endloop
   endfacet
   facet normal -0.700636 -0.62325 -0.347374
      outer loop
         vertex -0.00429149 0.0780176 0.0145826
         vertex -0.00473995 0.0785894 0.014461
         vertex -0.00461329 0.0786219 0.0141473
      endloop
   endfacet
   facet normal 0.462683 -0.833232 -0.302737
      outer loop
         vertex -0.00367472 0.077958 0.0142886
         vertex -0.00359311 0.0778863 0.0146106
         vertex -0.00359995 0.0778826 0.0146113
      endloop
   endfacet
   facet normal 0.367397 -0.882988 -0.29215
      outer loop
         vertex -0.00364831 0.0778579 0.0146166
         vertex -0.00371469 0.0779373 0.014293
         vertex -0.00368092 0.0779546 0.0142893
      endloop
   endfacet
   facet normal 0.282757 -0.915822 -0.285164
      outer loop
         vertex -0.00369901 0.0778382 0.0146208
         vertex -0.0037501 0.0779236 0.0142959
         vertex -0.00371469 0.0779373 0.014293
      endloop
   endfacet
   facet normal 0.19511 -0.939955 -0.28003
      outer loop
         vertex -0.00375151 0.0778238 0.0146238
         vertex -0.00378676 0.0779135 0.014298
         vertex -0.0037501 0.0779236 0.0142959
      endloop
   endfacet
   facet normal 0.105388 -0.955131 -0.276801
      outer loop
         vertex -0.00380525 0.0778147 0.0146258
         vertex -0.00382429 0.0779072 0.0142994
         vertex -0.00378676 0.0779135 0.014298
      endloop
   endfacet
   facet normal 0.0145453 -0.961188 -0.275512
      outer loop
         vertex -0.00385966 0.0778111 0.0146265
         vertex -0.00386229 0.0779046 0.0142999
         vertex -0.00382429 0.0779072 0.0142994
      endloop
   endfacet
   facet normal -0.0764521 -0.958061 -0.276177
      outer loop
         vertex -0.00391417 0.0778129 0.0146262
         vertex -0.00390036 0.0779059 0.0142996
         vertex -0.00386229 0.0779046 0.0142999
      endloop
   endfacet
   facet normal -0.166637 -0.945785 -0.278789
      outer loop
         vertex -0.00396819 0.0778203 0.0146246
         vertex -0.00393808 0.0779111 0.0142986
         vertex -0.00390036 0.0779059 0.0142996
      endloop
   endfacet
   facet normal -0.255049 -0.924489 -0.28332
      outer loop
         vertex -0.00402115 0.077833 0.0146219
         vertex -0.00397506 0.07792 0.0142967
         vertex -0.00393808 0.0779111 0.0142986
      endloop
   endfacet
   facet normal -0.340748 -0.8944 -0.289722
      outer loop
         vertex -0.00407248 0.0778511 0.014618
         vertex -0.00401091 0.0779326 0.014294
         vertex -0.00397506 0.07792 0.0142967
      endloop
   endfacet
   facet normal -0.422824 -0.855838 -0.297927
      outer loop
         vertex -0.00412164 0.0778742 0.0146131
         vertex -0.00404524 0.0779487 0.0142905
         vertex -0.00401091 0.0779326 0.014294
      endloop
   endfacet
   facet normal -0.500403 -0.809214 -0.307847
      outer loop
         vertex -0.00416811 0.0779021 0.0146072
         vertex -0.0040777 0.0779682 0.0142864
         vertex -0.00404524 0.0779487 0.0142905
      endloop
   endfacet
   facet normal -0.57266 -0.755022 -0.319377
      outer loop
         vertex -0.00421139 0.0779345 0.0146003
         vertex -0.00410792 0.0779909 0.0142816
         vertex -0.0040777 0.0779682 0.0142864
      endloop
   endfacet
   facet normal -0.638827 -0.69384 -0.332395
      outer loop
         vertex -0.00425102 0.0779712 0.0145925
         vertex -0.0041356 0.0780165 0.0142761
         vertex -0.00410792 0.0779909 0.0142816
      endloop
   endfacet
   facet normal -0.6982 -0.626318 -0.346761
      outer loop
         vertex -0.00428659 0.0780116 0.0145839
         vertex -0.00416044 0.0780447 0.0142701
         vertex -0.0041356 0.0780165 0.0142761
      endloop
   endfacet
   facet normal -0.6982 -0.626318 -0.346761
      outer loop
         vertex -0.00428659 0.0780116 0.0145839
         vertex -0.00429149 0.0780176 0.0145826
         vertex -0.0041649 0.0780501 0.014269
      endloop
   endfacet
   facet normal -0.708468 -0.613081 -0.349577
      outer loop
         vertex -0.0041649 0.0780501 0.014269
         vertex -0.00416044 0.0780447 0.0142701
         vertex -0.00428659 0.0780116 0.0145839
      endloop
   endfacet
   facet normal -0.638827 -0.69384 -0.332395
      outer loop
         vertex -0.0041356 0.0780165 0.0142761
         vertex -0.00425102 0.0779712 0.0145925
         vertex -0.00428659 0.0780116 0.0145839
      endloop
   endfacet
   facet normal -0.57266 -0.755022 -0.319377
      outer loop
         vertex -0.00410792 0.0779909 0.0142816
         vertex -0.00421139 0.0779345 0.0146003
         vertex -0.00425102 0.0779712 0.0145925
      endloop
   endfacet
   facet normal -0.500403 -0.809214 -0.307847
      outer loop
         vertex -0.0040777 0.0779682 0.0142864
         vertex -0.00416811 0.0779021 0.0146072
         vertex -0.00421139 0.0779345 0.0146003
      endloop
   endfacet
   facet normal -0.422824 -0.855838 -0.297927
      outer loop
         vertex -0.00404524 0.0779487 0.0142905
         vertex -0.00412164 0.0778742 0.0146131
         vertex -0.00416811 0.0779021 0.0146072
      endloop
   endfacet
   facet normal -0.340748 -0.8944 -0.289722
      outer loop
         vertex -0.00401091 0.0779326 0.014294
         vertex -0.00407248 0.0778511 0.014618
         vertex -0.00412164 0.0778742 0.0146131
      endloop
   endfacet
   facet normal -0.255049 -0.924489 -0.28332
      outer loop
         vertex -0.00397506 0.07792 0.0142967
         vertex -0.00402115 0.077833 0.0146219
         vertex -0.00407248 0.0778511 0.014618
      endloop
   endfacet
   facet normal -0.166637 -0.945785 -0.278789
      outer loop
         vertex -0.00393808 0.0779111 0.0142986
         vertex -0.00396819 0.0778203 0.0146246
         vertex -0.00402115 0.077833 0.0146219
      endloop
   endfacet
   facet normal -0.0764521 -0.958061 -0.276177
      outer loop
         vertex -0.00390036 0.0779059 0.0142996
         vertex -0.00391417 0.0778129 0.0146262
         vertex -0.00396819 0.0778203 0.0146246
      endloop
   endfacet
   facet normal 0.0145453 -0.961188 -0.275512
      outer loop
         vertex -0.00386229 0.0779046 0.0142999
         vertex -0.00385966 0.0778111 0.0146265
         vertex -0.00391417 0.0778129 0.0146262
      endloop
   endfacet
   facet normal 0.105388 -0.955131 -0.276801
      outer loop
         vertex -0.00382429 0.0779072 0.0142994
         vertex -0.00380525 0.0778147 0.0146258
         vertex -0.00385966 0.0778111 0.0146265
      endloop
   endfacet
   facet normal 0.19511 -0.939955 -0.28003
      outer loop
         vertex -0.00378676 0.0779135 0.014298
         vertex -0.00375151 0.0778238 0.0146238
         vertex -0.00380525 0.0778147 0.0146258
      endloop
   endfacet
   facet normal 0.282757 -0.915822 -0.285164
      outer loop
         vertex -0.0037501 0.0779236 0.0142959
         vertex -0.00369901 0.0778382 0.0146208
         vertex -0.00375151 0.0778238 0.0146238
      endloop
   endfacet
   facet normal 0.367397 -0.882988 -0.29215
      outer loop
         vertex -0.00371469 0.0779373 0.014293
         vertex -0.00364831 0.0778579 0.0146166
         vertex -0.00369901 0.0778382 0.0146208
      endloop
   endfacet
   facet normal 0.448129 -0.841802 -0.300913
      outer loop
         vertex -0.00368092 0.0779546 0.0142893
         vertex -0.00359995 0.0778826 0.0146113
         vertex -0.00364831 0.0778579 0.0146166
      endloop
   endfacet
   facet normal 0.448129 -0.841802 -0.300913
      outer loop
         vertex -0.00359995 0.0778826 0.0146113
         vertex -0.00368092 0.0779546 0.0142893
         vertex -0.00367472 0.077958 0.0142886
      endloop
   endfacet
   facet normal 0.45152 -0.839854 -0.301288
      outer loop
         vertex -0.00367472 0.077958 0.0142886
         vertex 1.91694e-17 0.0800966 0.0138336
         vertex 1.87248e-17 0.0799774 0.0141656
      endloop
   endfacet
   facet normal 0.45152 -0.839854 -0.301288
      outer loop
         vertex 1.87248e-17 0.0799774 0.0141656
         vertex -0.00359311 0.0778863 0.0146106
         vertex -0.00367472 0.077958 0.0142886
      endloop
   endfacet
   facet normal -0.45152 -0.839854 -0.301288
      outer loop
         vertex 0.00367471 0.077958 0.0142886
         vertex 0.00359313 0.0778863 0.0146105
         vertex 1.87248e-17 0.0799774 0.0141656
      endloop
   endfacet
   facet normal -0.45152 -0.839854 -0.301288
      outer loop
         vertex 1.87248e-17 0.0799774 0.0141656
         vertex 1.91694e-17 0.0800966 0.0138336
         vertex 0.00367471 0.077958 0.0142886
      endloop
   endfacet
   facet normal 0.70849 -0.613053 -0.349583
      outer loop
         vertex 0.0041649 0.0780501 0.014269
         vertex 0.00429152 0.0780176 0.0145827
         vertex 0.00428658 0.0780116 0.0145839
      endloop
   endfacet
   facet normal 0.638852 -0.693814 -0.3324
      outer loop
         vertex 0.00425102 0.0779712 0.0145925
         vertex 0.00413559 0.0780165 0.0142761
         vertex 0.00416042 0.0780447 0.0142701
      endloop
   endfacet
   facet normal 0.572688 -0.754999 -0.319382
      outer loop
         vertex 0.00421139 0.0779346 0.0146003
         vertex 0.00410791 0.0779909 0.0142816
         vertex 0.00413559 0.0780165 0.0142761
      endloop
   endfacet
   facet normal 0.500433 -0.809194 -0.307851
      outer loop
         vertex 0.00416811 0.0779021 0.0146072
         vertex 0.00407769 0.0779682 0.0142864
         vertex 0.00410791 0.0779909 0.0142816
      endloop
   endfacet
   facet normal 0.422856 -0.855821 -0.29793
      outer loop
         vertex 0.00412164 0.0778742 0.0146131
         vertex 0.00404524 0.0779487 0.0142905
         vertex 0.00407769 0.0779682 0.0142864
      endloop
   endfacet
   facet normal 0.340782 -0.894386 -0.289725
      outer loop
         vertex 0.00407248 0.0778511 0.014618
         vertex 0.00401091 0.0779326 0.014294
         vertex 0.00404524 0.0779487 0.0142905
      endloop
   endfacet
   facet normal 0.255083 -0.924479 -0.283323
      outer loop
         vertex 0.00402115 0.077833 0.0146219
         vertex 0.00397506 0.07792 0.0142967
         vertex 0.00401091 0.0779326 0.014294
      endloop
   endfacet
   facet normal 0.166672 -0.945778 -0.278791
      outer loop
         vertex 0.00396819 0.0778203 0.0146246
         vertex 0.00393807 0.0779111 0.0142986
         vertex 0.00397506 0.07792 0.0142967
      endloop
   endfacet
   facet normal 0.0764883 -0.958058 -0.276178
      outer loop
         vertex 0.00391417 0.0778129 0.0146262
         vertex 0.00390035 0.0779059 0.0142996
         vertex 0.00393807 0.0779111 0.0142986
      endloop
   endfacet
   facet normal -0.0145091 -0.961188 -0.275512
      outer loop
         vertex 0.00385966 0.077811 0.0146266
         vertex 0.00386229 0.0779046 0.0142999
         vertex 0.00390035 0.0779059 0.0142996
      endloop
   endfacet
   facet normal -0.105352 -0.955135 -0.2768
      outer loop
         vertex 0.00380525 0.0778147 0.0146258
         vertex 0.00382429 0.0779072 0.0142994
         vertex 0.00386229 0.0779046 0.0142999
      endloop
   endfacet
   facet normal -0.195075 -0.939963 -0.280028
      outer loop
         vertex 0.00375151 0.0778238 0.0146238
         vertex 0.00378675 0.0779135 0.014298
         vertex 0.00382429 0.0779072 0.0142994
      endloop
   endfacet
   facet normal -0.282723 -0.915833 -0.285162
      outer loop
         vertex 0.00369901 0.0778382 0.0146208
         vertex 0.00375009 0.0779236 0.0142959
         vertex 0.00378675 0.0779135 0.014298
      endloop
   endfacet
   facet normal -0.367364 -0.883003 -0.292147
      outer loop
         vertex 0.00364831 0.0778579 0.0146166
         vertex 0.00371468 0.0779373 0.014293
         vertex 0.00375009 0.0779236 0.0142959
      endloop
   endfacet
   facet normal -0.448098 -0.84182 -0.300909
      outer loop
         vertex 0.00359995 0.0778825 0.0146113
         vertex 0.00368091 0.0779546 0.0142893
         vertex 0.00371468 0.0779373 0.014293
      endloop
   endfacet
   facet normal -0.448098 -0.84182 -0.300909
      outer loop
         vertex 0.00359995 0.0778825 0.0146113
         vertex 0.00359313 0.0778863 0.0146105
         vertex 0.00367471 0.077958 0.0142886
      endloop
   endfacet
   facet normal -0.462652 -0.83325 -0.302733
      outer loop
         vertex 0.00367471 0.077958 0.0142886
         vertex 0.00368091 0.0779546 0.0142893
         vertex 0.00359995 0.0778825 0.0146113
      endloop
   endfacet
   facet normal -0.367364 -0.883003 -0.292147
      outer loop
         vertex 0.00371468 0.0779373 0.014293
         vertex 0.00364831 0.0778579 0.0146166
         vertex 0.00359995 0.0778825 0.0146113
      endloop
   endfacet
   facet normal -0.282723 -0.915833 -0.285162
      outer loop
         vertex 0.00375009 0.0779236 0.0142959
         vertex 0.00369901 0.0778382 0.0146208
         vertex 0.00364831 0.0778579 0.0146166
      endloop
   endfacet
   facet normal -0.195075 -0.939963 -0.280028
      outer loop
         vertex 0.00378675 0.0779135 0.014298
         vertex 0.00375151 0.0778238 0.0146238
         vertex 0.00369901 0.0778382 0.0146208
      endloop
   endfacet
   facet normal -0.105352 -0.955135 -0.2768
      outer loop
         vertex 0.00382429 0.0779072 0.0142994
         vertex 0.00380525 0.0778147 0.0146258
         vertex 0.00375151 0.0778238 0.0146238
      endloop
   endfacet
   facet normal -0.0145091 -0.961188 -0.275512
      outer loop
         vertex 0.00386229 0.0779046 0.0142999
         vertex 0.00385966 0.077811 0.0146266
         vertex 0.00380525 0.0778147 0.0146258
      endloop
   endfacet
   facet normal 0.0764883 -0.958058 -0.276178
      outer loop
         vertex 0.00390035 0.0779059 0.0142996
         vertex 0.00391417 0.0778129 0.0146262
         vertex 0.00385966 0.077811 0.0146266
      endloop
   endfacet
   facet normal 0.166672 -0.945778 -0.278791
      outer loop
         vertex 0.00393807 0.0779111 0.0142986
         vertex 0.00396819 0.0778203 0.0146246
         vertex 0.00391417 0.0778129 0.0146262
      endloop
   endfacet
   facet normal 0.255083 -0.924479 -0.283323
      outer loop
         vertex 0.00397506 0.07792 0.0142967
         vertex 0.00402115 0.077833 0.0146219
         vertex 0.00396819 0.0778203 0.0146246
      endloop
   endfacet
   facet normal 0.340782 -0.894386 -0.289725
      outer loop
         vertex 0.00401091 0.0779326 0.014294
         vertex 0.00407248 0.0778511 0.014618
         vertex 0.00402115 0.077833 0.0146219
      endloop
   endfacet
   facet normal 0.422856 -0.855821 -0.29793
      outer loop
         vertex 0.00404524 0.0779487 0.0142905
         vertex 0.00412164 0.0778742 0.0146131
         vertex 0.00407248 0.0778511 0.014618
      endloop
   endfacet
   facet normal 0.500433 -0.809194 -0.307851
      outer loop
         vertex 0.00407769 0.0779682 0.0142864
         vertex 0.00416811 0.0779021 0.0146072
         vertex 0.00412164 0.0778742 0.0146131
      endloop
   endfacet
   facet normal 0.572688 -0.754999 -0.319382
      outer loop
         vertex 0.00410791 0.0779909 0.0142816
         vertex 0.00421139 0.0779346 0.0146003
         vertex 0.00416811 0.0779021 0.0146072
      endloop
   endfacet
   facet normal 0.638852 -0.693814 -0.3324
      outer loop
         vertex 0.00413559 0.0780165 0.0142761
         vertex 0.00425102 0.0779712 0.0145925
         vertex 0.00421139 0.0779346 0.0146003
      endloop
   endfacet
   facet normal 0.698222 -0.62629 -0.346767
      outer loop
         vertex 0.00416042 0.0780447 0.0142701
         vertex 0.00428658 0.0780116 0.0145839
         vertex 0.00425102 0.0779712 0.0145925
      endloop
   endfacet
   facet normal 0.698222 -0.62629 -0.346767
      outer loop
         vertex 0.00428658 0.0780116 0.0145839
         vertex 0.00416042 0.0780447 0.0142701
         vertex 0.0041649 0.0780501 0.014269
      endloop
   endfacet
   facet normal 0.700636 -0.62325 -0.347374
      outer loop
         vertex 0.0041649 0.0780501 0.014269
         vertex 0.0046133 0.0786219 0.0141473
         vertex 0.00473994 0.0785894 0.014461
      endloop
   endfacet
   facet normal 0.700636 -0.62325 -0.347374
      outer loop
         vertex 0.00473994 0.0785894 0.014461
         vertex 0.00429152 0.0780176 0.0145827
         vertex 0.0041649 0.0780501 0.014269
      endloop
   endfacet
   facet normal -2.4475e-14 0.208108 0.978106
      outer loop
         vertex 0.00477997 0.0786474 0.0144486
         vertex 0.00484813 0.0789692 0.0143801
         vertex 0.00483838 0.0790241 0.0143684
      endloop
   endfacet
   facet normal -2.4475e-14 0.208108 0.978106
      outer loop
         vertex 0.00477997 0.0786474 0.0144486
         vertex 0.00480592 0.078697 0.014438
         vertex 0.00482628 0.078749 0.014427
      endloop
   endfacet
   facet normal -2.4475e-14 0.208108 0.978106
      outer loop
         vertex -0.00364831 0.0778579 0.0146166
         vertex -0.00380525 0.0778147 0.0146258
         vertex -0.00375151 0.0778238 0.0146238
      endloop
   endfacet
   facet normal -2.4475e-14 0.208108 0.978106
      outer loop
         vertex -0.00480591 0.078697 0.014438
         vertex -0.0048518 0.0789136 0.014392
         vertex -0.00484935 0.078858 0.0144038
      endloop
   endfacet
   facet normal -2.4475e-14 0.208108 0.978106
      outer loop
         vertex 0.0012883 0.0869415 0.0126839
         vertex 0.00137071 0.0867351 0.0127278
         vertex 0.00135879 0.0867897 0.0127162
      endloop
   endfacet
   facet normal -2.4475e-14 0.208108 0.978106
      outer loop
         vertex 0.00483838 0.0790241 0.0143684
         vertex 0.00482266 0.0790777 0.0143571
         vertex 0.00477997 0.0786474 0.0144486
      endloop
   endfacet
   facet normal -2.4475e-14 0.208108 0.978106
      outer loop
         vertex 0.00482628 0.078749 0.014427
         vertex 0.00484081 0.0788029 0.0144155
         vertex 0.00477997 0.0786474 0.0144486
      endloop
   endfacet
   facet normal -2.4475e-14 0.208108 0.978106
      outer loop
         vertex 0.00428658 0.0780116 0.0145839
         vertex 0.00380525 0.0778147 0.0146258
         vertex 0.00385966 0.077811 0.0146266
      endloop
   endfacet
   facet normal -2.4475e-14 0.208108 0.978106
      outer loop
         vertex 0.00428658 0.0780116 0.0145839
         vertex 0.00359995 0.0778825 0.0146113
         vertex 0.00364831 0.0778579 0.0146166
      endloop
   endfacet
   facet normal -2.4475e-14 0.208108 0.978106
      outer loop
         vertex -0.00364831 0.0778579 0.0146166
         vertex -0.00385966 0.0778111 0.0146265
         vertex -0.00380525 0.0778147 0.0146258
      endloop
   endfacet
   facet normal -2.4475e-14 0.208108 0.978106
      outer loop
         vertex -0.00359995 0.0778826 0.0146113
         vertex -0.00402115 0.077833 0.0146219
         vertex -0.00396819 0.0778203 0.0146246
      endloop
   endfacet
   facet normal -2.4475e-14 0.208108 0.978106
      outer loop
         vertex -0.00359995 0.0778826 0.0146113
         vertex -0.00412164 0.0778742 0.0146131
         vertex -0.00407248 0.0778511 0.014618
      endloop
   endfacet
   facet normal -2.4475e-14 0.208108 0.978106
      outer loop
         vertex -0.00359995 0.0778826 0.0146113
         vertex -0.00428659 0.0780116 0.0145839
         vertex -0.00425102 0.0779712 0.0145925
      endloop
   endfacet
   facet normal -2.4475e-14 0.208108 0.978106
      outer loop
         vertex -0.00484935 0.078858 0.0144038
         vertex -0.00484081 0.0788029 0.0144155
         vertex -0.00480591 0.078697 0.014438
      endloop
   endfacet
   facet normal -2.4475e-14 0.208108 0.978106
      outer loop
         vertex -0.00480591 0.078697 0.014438
         vertex -0.00483838 0.0790241 0.0143684
         vertex -0.00484813 0.0789692 0.0143801
      endloop
   endfacet
   facet normal -2.4475e-14 0.208108 0.978106
      outer loop
         vertex -0.00480591 0.078697 0.014438
         vertex -0.00480116 0.0791293 0.0143461
         vertex -0.00482266 0.0790777 0.0143571
      endloop
   endfacet
   facet normal -2.4475e-14 0.208108 0.978106
      outer loop
         vertex 0.00137071 0.0867351 0.0127278
         vertex 0.00112517 0.0870953 0.0126512
         vertex 0.00107502 0.0871219 0.0126455
      endloop
   endfacet
   facet normal -2.4475e-14 0.208108 0.978106
      outer loop
         vertex 0.00137071 0.0867351 0.0127278
         vertex 0.00121525 0.0870271 0.0126657
         vertex 0.00117209 0.0870636 0.0126579
      endloop
   endfacet
   facet normal -2.4475e-14 0.208108 0.978106
      outer loop
         vertex 0.00137071 0.0867351 0.0127278
         vertex 0.0012883 0.0869415 0.0126839
         vertex 0.00125414 0.0869862 0.0126744
      endloop
   endfacet
   facet normal -2.4475e-14 0.208108 0.978106
      outer loop
         vertex 0.00135879 0.0867897 0.0127162
         vertex 0.00134094 0.0868427 0.0127049
         vertex 0.0012883 0.0869415 0.0126839
      endloop
   endfacet
   facet normal -2.4475e-14 0.208108 0.978106
      outer loop
         vertex 0.00477997 0.0786474 0.0144486
         vertex 0.0048518 0.0789136 0.014392
         vertex 0.00484813 0.0789692 0.0143801
      endloop
   endfacet
   facet normal -2.4475e-14 0.208108 0.978106
      outer loop
         vertex 0.00484081 0.0788029 0.0144155
         vertex 0.00484936 0.078858 0.0144038
         vertex 0.00477997 0.0786474 0.0144486
      endloop
   endfacet
   facet normal -2.4475e-14 0.208108 0.978106
      outer loop
         vertex 0.00421139 0.0779346 0.0146003
         vertex 0.00407248 0.0778511 0.014618
         vertex 0.00412164 0.0778742 0.0146131
      endloop
   endfacet
   facet normal -2.4475e-14 0.208108 0.978106
      outer loop
         vertex 0.00421139 0.0779346 0.0146003
         vertex 0.00396819 0.0778203 0.0146246
         vertex 0.00402115 0.077833 0.0146219
      endloop
   endfacet
   facet normal -2.4475e-14 0.208108 0.978106
      outer loop
         vertex 0.00428658 0.0780116 0.0145839
         vertex 0.00375151 0.0778238 0.0146238
         vertex 0.00380525 0.0778147 0.0146258
      endloop
   endfacet
   facet normal -2.4475e-14 0.208108 0.978106
      outer loop
         vertex 0.00364831 0.0778579 0.0146166
         vertex 0.00369901 0.0778382 0.0146208
         vertex 0.00428658 0.0780116 0.0145839
      endloop
   endfacet
   facet normal -2.4475e-14 0.208108 0.978106
      outer loop
         vertex -0.00375151 0.0778238 0.0146238
         vertex -0.00369901 0.0778382 0.0146208
         vertex -0.00364831 0.0778579 0.0146166
      endloop
   endfacet
   facet normal -2.4475e-14 0.208108 0.978106
      outer loop
         vertex -0.00396819 0.0778203 0.0146246
         vertex -0.00391417 0.0778129 0.0146262
         vertex -0.00359995 0.0778826 0.0146113
      endloop
   endfacet
   facet normal -2.4475e-14 0.208108 0.978106
      outer loop
         vertex -0.00359995 0.0778826 0.0146113
         vertex -0.00416811 0.0779021 0.0146072
         vertex -0.00412164 0.0778742 0.0146131
      endloop
   endfacet
   facet normal -2.4475e-14 0.208108 0.978106
      outer loop
         vertex -0.00425102 0.0779712 0.0145925
         vertex -0.00421139 0.0779345 0.0146003
         vertex -0.00359995 0.0778826 0.0146113
      endloop
   endfacet
   facet normal -2.4475e-14 0.208108 0.978106
      outer loop
         vertex -0.00484813 0.0789692 0.0143801
         vertex -0.0048518 0.0789136 0.014392
         vertex -0.00480591 0.078697 0.014438
      endloop
   endfacet
   facet normal -2.4475e-14 0.208108 0.978106
      outer loop
         vertex -0.00480591 0.078697 0.014438
         vertex -0.00477412 0.0791783 0.0143356
         vertex -0.00480116 0.0791293 0.0143461
      endloop
   endfacet
   facet normal -2.4475e-14 0.208108 0.978106
      outer loop
         vertex -0.000911233 0.0871683 0.0126356
         vertex -0.00121525 0.0870271 0.0126657
         vertex -0.00125413 0.0869862 0.0126744
      endloop
   endfacet
   facet normal -2.4475e-14 0.208108 0.978106
      outer loop
         vertex -0.00102224 0.0871431 0.012641
         vertex -0.00107503 0.0871219 0.0126455
         vertex -0.00112517 0.0870953 0.0126512
      endloop
   endfacet
   facet normal -2.4475e-14 0.208108 0.978106
      outer loop
         vertex -0.00117209 0.0870636 0.0126579
         vertex -0.000911233 0.0871683 0.0126356
         vertex -0.000967432 0.0871586 0.0126377
      endloop
   endfacet
   facet normal -2.4475e-14 0.208108 0.978106
      outer loop
         vertex 0.00137071 0.0867351 0.0127278
         vertex 0.000967427 0.0871586 0.0126377
         vertex 0.000911228 0.0871683 0.0126356
      endloop
   endfacet
   facet normal -2.4475e-14 0.208108 0.978106
      outer loop
         vertex 0.00117209 0.0870636 0.0126579
         vertex 0.00112517 0.0870953 0.0126512
         vertex 0.00137071 0.0867351 0.0127278
      endloop
   endfacet
   facet normal -2.4475e-14 0.208108 0.978106
      outer loop
         vertex 0.00134094 0.0868427 0.0127049
         vertex 0.00131735 0.0868935 0.0126941
         vertex 0.0012883 0.0869415 0.0126839
      endloop
   endfacet
   facet normal -2.4475e-14 0.208108 0.978106
      outer loop
         vertex 0.00484936 0.078858 0.0144038
         vertex 0.0048518 0.0789136 0.014392
         vertex 0.00477997 0.0786474 0.0144486
      endloop
   endfacet
   facet normal -2.4475e-14 0.208108 0.978106
      outer loop
         vertex 0.00396819 0.0778203 0.0146246
         vertex 0.00421139 0.0779346 0.0146003
         vertex 0.00425102 0.0779712 0.0145925
      endloop
   endfacet
   facet normal -2.4475e-14 0.208108 0.978106
      outer loop
         vertex 0.00402115 0.077833 0.0146219
         vertex 0.00407248 0.0778511 0.014618
         vertex 0.00421139 0.0779346 0.0146003
      endloop
   endfacet
   facet normal -2.4475e-14 0.208108 0.978106
      outer loop
         vertex 0.00369901 0.0778382 0.0146208
         vertex 0.00375151 0.0778238 0.0146238
         vertex 0.00428658 0.0780116 0.0145839
      endloop
   endfacet
   facet normal -2.4475e-14 0.208108 0.978106
      outer loop
         vertex -0.00391417 0.0778129 0.0146262
         vertex -0.00385966 0.0778111 0.0146265
         vertex -0.00359995 0.0778826 0.0146113
      endloop
   endfacet
   facet normal -2.4475e-14 0.208108 0.978106
      outer loop
         vertex -0.00421139 0.0779345 0.0146003
         vertex -0.00416811 0.0779021 0.0146072
         vertex -0.00359995 0.0778826 0.0146113
      endloop
   endfacet
   facet normal -2.4475e-14 0.208108 0.978106
      outer loop
         vertex -0.00477412 0.0791783 0.0143356
         vertex -0.00480591 0.078697 0.014438
         vertex -0.00477996 0.0786474 0.0144486
      endloop
   endfacet
   facet normal -2.4475e-14 0.208108 0.978106
      outer loop
         vertex -0.00482266 0.0790777 0.0143571
         vertex -0.00483838 0.0790241 0.0143684
         vertex -0.00480591 0.078697 0.014438
      endloop
   endfacet
   facet normal -2.4475e-14 0.208108 0.978106
      outer loop
         vertex -0.000854299 0.087172 0.0126349
         vertex -0.0012883 0.0869415 0.0126839
         vertex -0.00131734 0.0868935 0.0126941
      endloop
   endfacet
   facet normal -2.4475e-14 0.208108 0.978106
      outer loop
         vertex -0.000911233 0.0871683 0.0126356
         vertex -0.00117209 0.0870636 0.0126579
         vertex -0.00121525 0.0870271 0.0126657
      endloop
   endfacet
   facet normal -2.4475e-14 0.208108 0.978106
      outer loop
         vertex -0.000967432 0.0871586 0.0126377
         vertex -0.00102224 0.0871431 0.012641
         vertex -0.00117209 0.0870636 0.0126579
      endloop
   endfacet
   facet normal -2.4475e-14 0.208108 0.978106
      outer loop
         vertex 0.00137071 0.0867351 0.0127278
         vertex 0.00102224 0.0871431 0.012641
         vertex 0.000967427 0.0871586 0.0126377
      endloop
   endfacet
   facet normal -2.4475e-14 0.208108 0.978106
      outer loop
         vertex 0.00125414 0.0869862 0.0126744
         vertex 0.00121525 0.0870271 0.0126657
         vertex 0.00137071 0.0867351 0.0127278
      endloop
   endfacet
   facet normal -2.4475e-14 0.208108 0.978106
      outer loop
         vertex 0.00474872 0.0786008 0.0144585
         vertex 0.00480116 0.0791293 0.0143461
         vertex 0.00477412 0.0791783 0.0143356
      endloop
   endfacet
   facet normal -2.4475e-14 0.208108 0.978106
      outer loop
         vertex 0.00480116 0.0791293 0.0143461
         vertex 0.00474872 0.0786008 0.0144585
         vertex 0.00477997 0.0786474 0.0144486
      endloop
   endfacet
   facet normal -2.4475e-14 0.208108 0.978106
      outer loop
         vertex 0.00412164 0.0778742 0.0146131
         vertex 0.00416811 0.0779021 0.0146072
         vertex 0.00421139 0.0779346 0.0146003
      endloop
   endfacet
   facet normal -2.4475e-14 0.208108 0.978106
      outer loop
         vertex 0.00385966 0.077811 0.0146266
         vertex 0.00391417 0.0778129 0.0146262
         vertex 0.00428658 0.0780116 0.0145839
      endloop
   endfacet
   facet normal -2.4475e-14 0.208108 0.978106
      outer loop
         vertex -0.00407248 0.0778511 0.014618
         vertex -0.00402115 0.077833 0.0146219
         vertex -0.00359995 0.0778826 0.0146113
      endloop
   endfacet
   facet normal -2.4475e-14 0.208108 0.978106
      outer loop
         vertex -0.00484081 0.0788029 0.0144155
         vertex -0.00482627 0.078749 0.014427
         vertex -0.00480591 0.078697 0.014438
      endloop
   endfacet
   facet normal -2.4475e-14 0.208108 0.978106
      outer loop
         vertex -0.00131734 0.0868935 0.0126941
         vertex -0.00134093 0.0868427 0.0127049
         vertex -0.000854299 0.087172 0.0126349
      endloop
   endfacet
   facet normal -2.4475e-14 0.208108 0.978106
      outer loop
         vertex -0.00112517 0.0870953 0.0126512
         vertex -0.00117209 0.0870636 0.0126579
         vertex -0.00102224 0.0871431 0.012641
      endloop
   endfacet
   facet normal -2.4475e-14 0.208108 0.978106
      outer loop
         vertex 0.00107502 0.0871219 0.0126455
         vertex 0.00102224 0.0871431 0.012641
         vertex 0.00137071 0.0867351 0.0127278
      endloop
   endfacet
   facet normal -2.4475e-14 0.208108 0.978106
      outer loop
         vertex 0.00482266 0.0790777 0.0143571
         vertex 0.00480116 0.0791293 0.0143461
         vertex 0.00477997 0.0786474 0.0144486
      endloop
   endfacet
   facet normal -2.4475e-14 0.208108 0.978106
      outer loop
         vertex 0.00391417 0.0778129 0.0146262
         vertex 0.00396819 0.0778203 0.0146246
         vertex 0.00428658 0.0780116 0.0145839
      endloop
   endfacet
   facet normal -2.4475e-14 0.208108 0.978106
      outer loop
         vertex -0.00359995 0.0778826 0.0146113
         vertex -0.00429149 0.0780176 0.0145826
         vertex -0.00428659 0.0780116 0.0145839
      endloop
   endfacet
   facet normal -2.4475e-14 0.208108 0.978106
      outer loop
         vertex -0.00474871 0.0786008 0.0144585
         vertex -0.00474186 0.0792242 0.0143259
         vertex -0.00477412 0.0791783 0.0143356
      endloop
   endfacet
   facet normal -2.4475e-14 0.208108 0.978106
      outer loop
         vertex -0.00134093 0.0868427 0.0127049
         vertex -0.00135879 0.0867897 0.0127162
         vertex -0.000854299 0.087172 0.0126349
      endloop
   endfacet
   facet normal -2.4475e-14 0.208108 0.978106
      outer loop
         vertex -0.0012883 0.0869415 0.0126839
         vertex -0.000854299 0.087172 0.0126349
         vertex -0.000911233 0.0871683 0.0126356
      endloop
   endfacet
   facet normal -2.4475e-14 0.208108 0.978106
      outer loop
         vertex 0.000854294 0.087172 0.0126349
         vertex 0.00137255 0.0867241 0.0127302
         vertex 0.00137071 0.0867351 0.0127278
      endloop
   endfacet
   facet normal -2.4475e-14 0.208108 0.978106
      outer loop
         vertex 0.00474185 0.0792242 0.0143259
         vertex 0.00473994 0.0785894 0.014461
         vertex 0.00474872 0.0786008 0.0144585
      endloop
   endfacet
   facet normal -2.4475e-14 0.208108 0.978106
      outer loop
         vertex 0.00359313 0.0778863 0.0146105
         vertex 0.00428658 0.0780116 0.0145839
         vertex 0.00429152 0.0780176 0.0145827
      endloop
   endfacet
   facet normal -2.4475e-14 0.208108 0.978106
      outer loop
         vertex 0.00428658 0.0780116 0.0145839
         vertex 0.00359313 0.0778863 0.0146105
         vertex 0.00359995 0.0778825 0.0146113
      endloop
   endfacet
   facet normal -2.4475e-14 0.208108 0.978106
      outer loop
         vertex -0.00364831 0.0778579 0.0146166
         vertex -0.00359995 0.0778826 0.0146113
         vertex -0.00385966 0.0778111 0.0146265
      endloop
   endfacet
   facet normal -2.4475e-14 0.208108 0.978106
      outer loop
         vertex -0.00359311 0.0778863 0.0146106
         vertex -0.00473284 0.0792355 0.0143235
         vertex -0.00473995 0.0785894 0.014461
      endloop
   endfacet
   facet normal -2.4475e-14 0.208108 0.978106
      outer loop
         vertex -0.00474871 0.0786008 0.0144585
         vertex -0.00473284 0.0792355 0.0143235
         vertex -0.00474186 0.0792242 0.0143259
      endloop
   endfacet
   facet normal -2.4475e-14 0.208108 0.978106
      outer loop
         vertex -0.00125413 0.0869862 0.0126744
         vertex -0.0012883 0.0869415 0.0126839
         vertex -0.000911233 0.0871683 0.0126356
      endloop
   endfacet
   facet normal -2.4475e-14 0.208108 0.978106
      outer loop
         vertex 0.000911228 0.0871683 0.0126356
         vertex 0.000854294 0.087172 0.0126349
         vertex 0.00137071 0.0867351 0.0127278
      endloop
   endfacet
   facet normal -2.4475e-14 0.208108 0.978106
      outer loop
         vertex 0.00477412 0.0791783 0.0143356
         vertex 0.00474185 0.0792242 0.0143259
         vertex 0.00474872 0.0786008 0.0144585
      endloop
   endfacet
   facet normal -2.4475e-14 0.208108 0.978106
      outer loop
         vertex 0.00425102 0.0779712 0.0145925
         vertex 0.00428658 0.0780116 0.0145839
         vertex 0.00396819 0.0778203 0.0146246
      endloop
   endfacet
   facet normal -2.4475e-14 0.208108 0.978106
      outer loop
         vertex 0.00198928 0.082583 0.0136112
         vertex 1.87248e-17 0.0799774 0.0141656
         vertex 0.00359313 0.0778863 0.0146105
      endloop
   endfacet
   facet normal -2.4475e-14 0.208108 0.978106
      outer loop
         vertex -0.00473995 0.0785894 0.014461
         vertex -0.00429149 0.0780176 0.0145826
         vertex -0.00359311 0.0778863 0.0146106
      endloop
   endfacet
   facet normal -2.4475e-14 0.208108 0.978106
      outer loop
         vertex -0.00477996 0.0786474 0.0144486
         vertex -0.00474871 0.0786008 0.0144585
         vertex -0.00477412 0.0791783 0.0143356
      endloop
   endfacet
   facet normal -2.4475e-14 0.208108 0.978106
      outer loop
         vertex -0.0013707 0.0867351 0.0127278
         vertex -0.000842932 0.0871722 0.0126348
         vertex -0.000854299 0.087172 0.0126349
      endloop
   endfacet
   facet normal -2.4475e-14 0.208108 0.978106
      outer loop
         vertex 0.000854294 0.087172 0.0126349
         vertex 0.000842931 0.0871722 0.0126349
         vertex 0.00137255 0.0867241 0.0127302
      endloop
   endfacet
   facet normal -2.4475e-14 0.208108 0.978106
      outer loop
         vertex -0.000842932 0.0871722 0.0126348
         vertex 1.87248e-17 0.0799774 0.0141656
         vertex 0.00198928 0.082583 0.0136112
      endloop
   endfacet
   facet normal -2.4475e-14 0.208108 0.978106
      outer loop
         vertex 0.00474185 0.0792242 0.0143259
         vertex 0.00473284 0.0792355 0.0143235
         vertex 0.00473994 0.0785894 0.014461
      endloop
   endfacet
   facet normal -2.4475e-14 0.208108 0.978106
      outer loop
         vertex 0.00359313 0.0778863 0.0146105
         vertex 0.00473994 0.0785894 0.014461
         vertex 0.00198928 0.082583 0.0136112
      endloop
   endfacet
   facet normal -2.4475e-14 0.208108 0.978106
      outer loop
         vertex -0.00474871 0.0786008 0.0144585
         vertex -0.00473995 0.0785894 0.014461
         vertex -0.00473284 0.0792355 0.0143235
      endloop
   endfacet
   facet normal -2.4475e-14 0.208108 0.978106
      outer loop
         vertex 1.87248e-17 0.0799774 0.0141656
         vertex -0.00198928 0.082583 0.0136112
         vertex -0.00473284 0.0792355 0.0143235
      endloop
   endfacet
   facet normal -2.4475e-14 0.208108 0.978106
      outer loop
         vertex 1.87248e-17 0.0799774 0.0141656
         vertex -0.000842932 0.0871722 0.0126348
         vertex -0.00137258 0.0867241 0.0127302
      endloop
   endfacet
   facet normal -2.4475e-14 0.208108 0.978106
      outer loop
         vertex -0.00135879 0.0867897 0.0127162
         vertex -0.0013707 0.0867351 0.0127278
         vertex -0.000854299 0.087172 0.0126349
      endloop
   endfacet
   facet normal -2.4475e-14 0.208108 0.978106
      outer loop
         vertex 0.00198928 0.082583 0.0136112
         vertex 0.00137255 0.0867241 0.0127302
         vertex -0.000842932 0.0871722 0.0126348
      endloop
   endfacet
   facet normal -2.4475e-14 0.208108 0.978106
      outer loop
         vertex 0.00429152 0.0780176 0.0145827
         vertex 0.00473994 0.0785894 0.014461
         vertex 0.00359313 0.0778863 0.0146105
      endloop
   endfacet
   facet normal -2.4475e-14 0.208108 0.978106
      outer loop
         vertex -0.00473284 0.0792355 0.0143235
         vertex -0.00359311 0.0778863 0.0146106
         vertex 1.87248e-17 0.0799774 0.0141656
      endloop
   endfacet
   facet normal -2.4475e-14 0.208108 0.978106
      outer loop
         vertex -0.0013707 0.0867351 0.0127278
         vertex -0.00137258 0.0867241 0.0127302
         vertex -0.000842932 0.0871722 0.0126348
      endloop
   endfacet
   facet normal -2.4475e-14 0.208108 0.978106
      outer loop
         vertex 0.00473284 0.0792355 0.0143235
         vertex 0.00198928 0.082583 0.0136112
         vertex 0.00473994 0.0785894 0.014461
      endloop
   endfacet
   facet normal -2.4475e-14 0.208108 0.978106
      outer loop
         vertex -0.00137258 0.0867241 0.0127302
         vertex -0.00198928 0.082583 0.0136112
         vertex 1.87248e-17 0.0799774 0.0141656
      endloop
   endfacet
   facet normal -2.4475e-14 0.208108 0.978106
      outer loop
         vertex -0.00359995 0.0778826 0.0146113
         vertex -0.00359311 0.0778863 0.0146106
         vertex -0.00429149 0.0780176 0.0145826
      endloop
   endfacet
   facet normal -2.4475e-14 0.208108 0.978106
      outer loop
         vertex 0.000842931 0.0871722 0.0126349
         vertex -0.000842932 0.0871722 0.0126348
         vertex 0.00137255 0.0867241 0.0127302
      endloop
   endfacet
   facet normal 2.4475e-14 -0.208108 -0.978106
      outer loop
         vertex 0.00393807 0.0779111 0.0142986
         vertex 0.00386229 0.0779046 0.0142999
         vertex 0.00382429 0.0779072 0.0142994
      endloop
   endfacet
   facet normal 2.4475e-14 -0.208108 -0.978106
      outer loop
         vertex -0.00386229 0.0779046 0.0142999
         vertex -0.00404524 0.0779487 0.0142905
         vertex -0.0040777 0.0779682 0.0142864
      endloop
   endfacet
   facet normal 2.4475e-14 -0.208108 -0.978106
      outer loop
         vertex -0.00386229 0.0779046 0.0142999
         vertex -0.00393808 0.0779111 0.0142986
         vertex -0.00397506 0.07792 0.0142967
      endloop
   endfacet
   facet normal 2.4475e-14 -0.208108 -0.978106
      outer loop
         vertex 0.00393807 0.0779111 0.0142986
         vertex 0.00378675 0.0779135 0.014298
         vertex 0.00375009 0.0779236 0.0142959
      endloop
   endfacet
   facet normal 2.4475e-14 -0.208108 -0.978106
      outer loop
         vertex 0.00393807 0.0779111 0.0142986
         vertex 0.00390035 0.0779059 0.0142996
         vertex 0.00386229 0.0779046 0.0142999
      endloop
   endfacet
   facet normal 2.4475e-14 -0.208108 -0.978106
      outer loop
         vertex 0.00371468 0.0779373 0.014293
         vertex 0.00404524 0.0779487 0.0142905
         vertex 0.00401091 0.0779326 0.014294
      endloop
   endfacet
   facet normal 2.4475e-14 -0.208108 -0.978106
      outer loop
         vertex 0.00469213 0.0788495 0.0140989
         vertex 0.00469042 0.0788106 0.0141072
         vertex 0.00468445 0.0787722 0.0141153
      endloop
   endfacet
   facet normal 2.4475e-14 -0.208108 -0.978106
      outer loop
         vertex 0.0046743 0.0787345 0.0141234
         vertex 0.00468275 0.0789267 0.0140825
         vertex 0.00468956 0.0788884 0.0140906
      endloop
   endfacet
   facet normal 2.4475e-14 -0.208108 -0.978106
      outer loop
         vertex -0.00468445 0.0787722 0.0141153
         vertex -0.00469042 0.0788106 0.0141072
         vertex -0.00469213 0.0788495 0.0140989
      endloop
   endfacet
   facet normal 2.4475e-14 -0.208108 -0.978106
      outer loop
         vertex -0.0040777 0.0779682 0.0142864
         vertex -0.00410792 0.0779909 0.0142816
         vertex -0.00386229 0.0779046 0.0142999
      endloop
   endfacet
   facet normal 2.4475e-14 -0.208108 -0.978106
      outer loop
         vertex -0.00386229 0.0779046 0.0142999
         vertex -0.00390036 0.0779059 0.0142996
         vertex -0.00393808 0.0779111 0.0142986
      endloop
   endfacet
   facet normal 2.4475e-14 -0.208108 -0.978106
      outer loop
         vertex 0.00382429 0.0779072 0.0142994
         vertex 0.00378675 0.0779135 0.014298
         vertex 0.00393807 0.0779111 0.0142986
      endloop
   endfacet
   facet normal 2.4475e-14 -0.208108 -0.978106
      outer loop
         vertex 0.00401091 0.0779326 0.014294
         vertex 0.00397506 0.07792 0.0142967
         vertex 0.00371468 0.0779373 0.014293
      endloop
   endfacet
   facet normal 2.4475e-14 -0.208108 -0.978106
      outer loop
         vertex 0.00468956 0.0788884 0.0140906
         vertex 0.00469213 0.0788495 0.0140989
         vertex 0.0046743 0.0787345 0.0141234
      endloop
   endfacet
   facet normal 2.4475e-14 -0.208108 -0.978106
      outer loop
         vertex -0.00110453 0.0868523 0.0123962
         vertex -0.0012048 0.0866865 0.0124315
         vertex -0.00119233 0.0867235 0.0124236
      endloop
   endfacet
   facet normal 2.4475e-14 -0.208108 -0.978106
      outer loop
         vertex -0.00467429 0.0787345 0.0141234
         vertex -0.00468956 0.0788884 0.0140906
         vertex -0.00468275 0.0789267 0.0140825
      endloop
   endfacet
   facet normal 2.4475e-14 -0.208108 -0.978106
      outer loop
         vertex -0.00468956 0.0788884 0.0140906
         vertex -0.00467429 0.0787345 0.0141234
         vertex -0.00468445 0.0787722 0.0141153
      endloop
   endfacet
   facet normal 2.4475e-14 -0.208108 -0.978106
      outer loop
         vertex -0.00467177 0.0789641 0.0140745
         vertex -0.00464193 0.0786635 0.0141385
         vertex -0.00466006 0.0786982 0.0141311
      endloop
   endfacet
   facet normal 2.4475e-14 -0.208108 -0.978106
      outer loop
         vertex -0.00410792 0.0779909 0.0142816
         vertex -0.0041356 0.0780165 0.0142761
         vertex -0.00386229 0.0779046 0.0142999
      endloop
   endfacet
   facet normal 2.4475e-14 -0.208108 -0.978106
      outer loop
         vertex -0.00397506 0.07792 0.0142967
         vertex -0.00401091 0.0779326 0.014294
         vertex -0.00386229 0.0779046 0.0142999
      endloop
   endfacet
   facet normal 2.4475e-14 -0.208108 -0.978106
      outer loop
         vertex 0.00397506 0.07792 0.0142967
         vertex 0.00393807 0.0779111 0.0142986
         vertex 0.00371468 0.0779373 0.014293
      endloop
   endfacet
   facet normal 2.4475e-14 -0.208108 -0.978106
      outer loop
         vertex 0.0046743 0.0787345 0.0141234
         vertex 0.00467176 0.0789641 0.0140745
         vertex 0.00468275 0.0789267 0.0140825
      endloop
   endfacet
   facet normal 2.4475e-14 -0.208108 -0.978106
      outer loop
         vertex 0.0046743 0.0787345 0.0141234
         vertex 0.00463785 0.0790344 0.0140595
         vertex 0.00465674 0.0790002 0.0140668
      endloop
   endfacet
   facet normal 2.4475e-14 -0.208108 -0.978106
      outer loop
         vertex 0.000969713 0.0869334 0.0123789
         vertex 0.00100659 0.0869186 0.0123821
         vertex 0.00104161 0.0869 0.012386
      endloop
   endfacet
   facet normal 2.4475e-14 -0.208108 -0.978106
      outer loop
         vertex -0.00121312 0.0866483 0.0124396
         vertex -0.00110453 0.0868523 0.0123962
         vertex -0.00107439 0.0868778 0.0123907
      endloop
   endfacet
   facet normal 2.4475e-14 -0.208108 -0.978106
      outer loop
         vertex -0.00117585 0.086759 0.012416
         vertex -0.00115556 0.0867925 0.0124089
         vertex -0.0011317 0.0868238 0.0124022
      endloop
   endfacet
   facet normal 2.4475e-14 -0.208108 -0.978106
      outer loop
         vertex -0.00110453 0.0868523 0.0123962
         vertex -0.00121312 0.0866483 0.0124396
         vertex -0.0012048 0.0866865 0.0124315
      endloop
   endfacet
   facet normal 2.4475e-14 -0.208108 -0.978106
      outer loop
         vertex -0.00469213 0.0788495 0.0140989
         vertex -0.00468956 0.0788884 0.0140906
         vertex -0.00468445 0.0787722 0.0141153
      endloop
   endfacet
   facet normal 2.4475e-14 -0.208108 -0.978106
      outer loop
         vertex -0.00467177 0.0789641 0.0140745
         vertex -0.0046201 0.078631 0.0141454
         vertex -0.00464193 0.0786635 0.0141385
      endloop
   endfacet
   facet normal 2.4475e-14 -0.208108 -0.978106
      outer loop
         vertex -0.00401091 0.0779326 0.014294
         vertex -0.00404524 0.0779487 0.0142905
         vertex -0.00386229 0.0779046 0.0142999
      endloop
   endfacet
   facet normal 2.4475e-14 -0.208108 -0.978106
      outer loop
         vertex -0.00416044 0.0780447 0.0142701
         vertex -0.00378676 0.0779135 0.014298
         vertex -0.00382429 0.0779072 0.0142994
      endloop
   endfacet
   facet normal 2.4475e-14 -0.208108 -0.978106
      outer loop
         vertex -0.00416044 0.0780447 0.0142701
         vertex -0.00368092 0.0779546 0.0142893
         vertex -0.00371469 0.0779373 0.014293
      endloop
   endfacet
   facet normal 2.4475e-14 -0.208108 -0.978106
      outer loop
         vertex 0.00375009 0.0779236 0.0142959
         vertex 0.00371468 0.0779373 0.014293
         vertex 0.00393807 0.0779111 0.0142986
      endloop
   endfacet
   facet normal 2.4475e-14 -0.208108 -0.978106
      outer loop
         vertex 0.00368091 0.0779546 0.0142893
         vertex 0.00410791 0.0779909 0.0142816
         vertex 0.00407769 0.0779682 0.0142864
      endloop
   endfacet
   facet normal 2.4475e-14 -0.208108 -0.978106
      outer loop
         vertex 0.00463785 0.0790344 0.0140595
         vertex 0.0046743 0.0787345 0.0141234
         vertex 0.00466007 0.0786982 0.0141311
      endloop
   endfacet
   facet normal 2.4475e-14 -0.208108 -0.978106
      outer loop
         vertex 0.00465674 0.0790002 0.0140668
         vertex 0.00467176 0.0789641 0.0140745
         vertex 0.0046743 0.0787345 0.0141234
      endloop
   endfacet
   facet normal 2.4475e-14 -0.208108 -0.978106
      outer loop
         vertex 0.000892169 0.0869509 0.0123752
         vertex 0.00117586 0.086759 0.012416
         vertex 0.00119233 0.0867235 0.0124236
      endloop
   endfacet
   facet normal 2.4475e-14 -0.208108 -0.978106
      outer loop
         vertex 0.000892169 0.0869509 0.0123752
         vertex 0.0011317 0.0868238 0.0124022
         vertex 0.00115557 0.0867925 0.0124089
      endloop
   endfacet
   facet normal 2.4475e-14 -0.208108 -0.978106
      outer loop
         vertex 0.00107439 0.0868778 0.0123907
         vertex 0.000931426 0.0869442 0.0123766
         vertex 0.000969713 0.0869334 0.0123789
      endloop
   endfacet
   facet normal 2.4475e-14 -0.208108 -0.978106
      outer loop
         vertex -0.00121312 0.0866483 0.0124396
         vertex -0.000931426 0.0869442 0.0123766
         vertex -0.000892169 0.0869509 0.0123752
      endloop
   endfacet
   facet normal 2.4475e-14 -0.208108 -0.978106
      outer loop
         vertex -0.00121312 0.0866483 0.0124396
         vertex -0.00100658 0.0869186 0.0123821
         vertex -0.000969713 0.0869334 0.0123789
      endloop
   endfacet
   facet normal 2.4475e-14 -0.208108 -0.978106
      outer loop
         vertex -0.00107439 0.0868778 0.0123907
         vertex -0.00104161 0.0869 0.012386
         vertex -0.00121312 0.0866483 0.0124396
      endloop
   endfacet
   facet normal 2.4475e-14 -0.208108 -0.978106
      outer loop
         vertex -0.00119233 0.0867235 0.0124236
         vertex -0.00117585 0.086759 0.012416
         vertex -0.00110453 0.0868523 0.0123962
      endloop
   endfacet
   facet normal 2.4475e-14 -0.208108 -0.978106
      outer loop
         vertex -0.0046201 0.078631 0.0141454
         vertex -0.00467177 0.0789641 0.0140745
         vertex -0.00465675 0.0790002 0.0140668
      endloop
   endfacet
   facet normal 2.4475e-14 -0.208108 -0.978106
      outer loop
         vertex -0.00466006 0.0786982 0.0141311
         vertex -0.00467429 0.0787345 0.0141234
         vertex -0.00467177 0.0789641 0.0140745
      endloop
   endfacet
   facet normal 2.4475e-14 -0.208108 -0.978106
      outer loop
         vertex -0.00382429 0.0779072 0.0142994
         vertex -0.00386229 0.0779046 0.0142999
         vertex -0.00416044 0.0780447 0.0142701
      endloop
   endfacet
   facet normal 2.4475e-14 -0.208108 -0.978106
      outer loop
         vertex -0.00371469 0.0779373 0.014293
         vertex -0.0037501 0.0779236 0.0142959
         vertex -0.00416044 0.0780447 0.0142701
      endloop
   endfacet
   facet normal 2.4475e-14 -0.208108 -0.978106
      outer loop
         vertex 0.00407769 0.0779682 0.0142864
         vertex 0.00404524 0.0779487 0.0142905
         vertex 0.00368091 0.0779546 0.0142893
      endloop
   endfacet
   facet normal 2.4475e-14 -0.208108 -0.978106
      outer loop
         vertex 0.00368091 0.0779546 0.0142893
         vertex 0.00416042 0.0780447 0.0142701
         vertex 0.00413559 0.0780165 0.0142761
      endloop
   endfacet
   facet normal 2.4475e-14 -0.208108 -0.978106
      outer loop
         vertex 0.00468445 0.0787722 0.0141153
         vertex 0.0046743 0.0787345 0.0141234
         vertex 0.00469213 0.0788495 0.0140989
      endloop
   endfacet
   facet normal 2.4475e-14 -0.208108 -0.978106
      outer loop
         vertex 0.00119233 0.0867235 0.0124236
         vertex 0.00120481 0.0866865 0.0124315
         vertex 0.000892169 0.0869509 0.0123752
      endloop
   endfacet
   facet normal 2.4475e-14 -0.208108 -0.978106
      outer loop
         vertex 0.000892169 0.0869509 0.0123752
         vertex 0.00110454 0.0868523 0.0123962
         vertex 0.0011317 0.0868238 0.0124022
      endloop
   endfacet
   facet normal 2.4475e-14 -0.208108 -0.978106
      outer loop
         vertex 0.00104161 0.0869 0.012386
         vertex 0.00107439 0.0868778 0.0123907
         vertex 0.000969713 0.0869334 0.0123789
      endloop
   endfacet
   facet normal 2.4475e-14 -0.208108 -0.978106
      outer loop
         vertex -0.000969713 0.0869334 0.0123789
         vertex -0.000931426 0.0869442 0.0123766
         vertex -0.00121312 0.0866483 0.0124396
      endloop
   endfacet
   facet normal 2.4475e-14 -0.208108 -0.978106
      outer loop
         vertex -0.0011317 0.0868238 0.0124022
         vertex -0.00110453 0.0868523 0.0123962
         vertex -0.00117585 0.086759 0.012416
      endloop
   endfacet
   facet normal 2.4475e-14 -0.208108 -0.978106
      outer loop
         vertex -0.00468275 0.0789267 0.0140825
         vertex -0.00467177 0.0789641 0.0140745
         vertex -0.00467429 0.0787345 0.0141234
      endloop
   endfacet
   facet normal 2.4475e-14 -0.208108 -0.978106
      outer loop
         vertex -0.0037501 0.0779236 0.0142959
         vertex -0.00378676 0.0779135 0.014298
         vertex -0.00416044 0.0780447 0.0142701
      endloop
   endfacet
   facet normal 2.4475e-14 -0.208108 -0.978106
      outer loop
         vertex 0.00413559 0.0780165 0.0142761
         vertex 0.00410791 0.0779909 0.0142816
         vertex 0.00368091 0.0779546 0.0142893
      endloop
   endfacet
   facet normal 2.4475e-14 -0.208108 -0.978106
      outer loop
         vertex 0.00464194 0.0786635 0.0141385
         vertex 0.00461531 0.0790665 0.0140527
         vertex 0.00463785 0.0790344 0.0140595
      endloop
   endfacet
   facet normal 2.4475e-14 -0.208108 -0.978106
      outer loop
         vertex 0.00115557 0.0867925 0.0124089
         vertex 0.00117586 0.086759 0.012416
         vertex 0.000892169 0.0869509 0.0123752
      endloop
   endfacet
   facet normal 2.4475e-14 -0.208108 -0.978106
      outer loop
         vertex 0.00110454 0.0868523 0.0123962
         vertex 0.000892169 0.0869509 0.0123752
         vertex 0.000931426 0.0869442 0.0123766
      endloop
   endfacet
   facet normal 2.4475e-14 -0.208108 -0.978106
      outer loop
         vertex -0.00104161 0.0869 0.012386
         vertex -0.00100658 0.0869186 0.0123821
         vertex -0.00121312 0.0866483 0.0124396
      endloop
   endfacet
   facet normal 2.4475e-14 -0.208108 -0.978106
      outer loop
         vertex -0.00465675 0.0790002 0.0140668
         vertex -0.00463785 0.0790344 0.0140595
         vertex -0.0046201 0.078631 0.0141454
      endloop
   endfacet
   facet normal 2.4475e-14 -0.208108 -0.978106
      outer loop
         vertex -0.0041356 0.0780165 0.0142761
         vertex -0.00416044 0.0780447 0.0142701
         vertex -0.00386229 0.0779046 0.0142999
      endloop
   endfacet
   facet normal 2.4475e-14 -0.208108 -0.978106
      outer loop
         vertex 0.00371468 0.0779373 0.014293
         vertex 0.00368091 0.0779546 0.0142893
         vertex 0.00404524 0.0779487 0.0142905
      endloop
   endfacet
   facet normal 2.4475e-14 -0.208108 -0.978106
      outer loop
         vertex 0.00466007 0.0786982 0.0141311
         vertex 0.00464194 0.0786635 0.0141385
         vertex 0.00463785 0.0790344 0.0140595
      endloop
   endfacet
   facet normal 2.4475e-14 -0.208108 -0.978106
      outer loop
         vertex 0.00107439 0.0868778 0.0123907
         vertex 0.00110454 0.0868523 0.0123962
         vertex 0.000931426 0.0869442 0.0123766
      endloop
   endfacet
   facet normal 2.4475e-14 -0.208108 -0.978106
      outer loop
         vertex -0.000892169 0.0869509 0.0123752
         vertex -0.000852398 0.0869535 0.0123746
         vertex -0.00121312 0.0866483 0.0124396
      endloop
   endfacet
   facet normal 2.4475e-14 -0.208108 -0.978106
      outer loop
         vertex -0.00463785 0.0790344 0.0140595
         vertex -0.00461531 0.0790665 0.0140527
         vertex -0.0046201 0.078631 0.0141454
      endloop
   endfacet
   facet normal 2.4475e-14 -0.208108 -0.978106
      outer loop
         vertex -0.00367472 0.077958 0.0142886
         vertex -0.0041649 0.0780501 0.014269
         vertex -0.00461329 0.0786219 0.0141473
      endloop
   endfacet
   facet normal 2.4475e-14 -0.208108 -0.978106
      outer loop
         vertex -0.0041649 0.0780501 0.014269
         vertex -0.00367472 0.077958 0.0142886
         vertex -0.00368092 0.0779546 0.0142893
      endloop
   endfacet
   facet normal 2.4475e-14 -0.208108 -0.978106
      outer loop
         vertex 0.00367471 0.077958 0.0142886
         vertex 0.0041649 0.0780501 0.014269
         vertex 0.00416042 0.0780447 0.0142701
      endloop
   endfacet
   facet normal 2.4475e-14 -0.208108 -0.978106
      outer loop
         vertex 0.00464194 0.0786635 0.0141385
         vertex 0.00462011 0.078631 0.0141454
         vertex 0.00461531 0.0790665 0.0140527
      endloop
   endfacet
   facet normal 2.4475e-14 -0.208108 -0.978106
      outer loop
         vertex 0.00121314 0.0866483 0.0124396
         vertex 0.000852399 0.0869535 0.0123746
         vertex 0.000892169 0.0869509 0.0123752
      endloop
   endfacet
   facet normal 2.4475e-14 -0.208108 -0.978106
      outer loop
         vertex -0.000842932 0.0869537 0.0123746
         vertex -0.00121468 0.0866392 0.0124415
         vertex -0.00121312 0.0866483 0.0124396
      endloop
   endfacet
   facet normal 2.4475e-14 -0.208108 -0.978106
      outer loop
         vertex 1.91694e-17 0.0800966 0.0138336
         vertex -0.00183768 0.0824561 0.0133315
         vertex -0.00121468 0.0866392 0.0124415
      endloop
   endfacet
   facet normal 2.4475e-14 -0.208108 -0.978106
      outer loop
         vertex -0.00460831 0.0790754 0.0140508
         vertex -0.00461329 0.0786219 0.0141473
         vertex -0.0046201 0.078631 0.0141454
      endloop
   endfacet
   facet normal 2.4475e-14 -0.208108 -0.978106
      outer loop
         vertex -0.00416044 0.0780447 0.0142701
         vertex -0.0041649 0.0780501 0.014269
         vertex -0.00368092 0.0779546 0.0142893
      endloop
   endfacet
   facet normal 2.4475e-14 -0.208108 -0.978106
      outer loop
         vertex 0.00183768 0.0824561 0.0133315
         vertex 0.0046133 0.0786219 0.0141473
         vertex 0.00367471 0.077958 0.0142886
      endloop
   endfacet
   facet normal 2.4475e-14 -0.208108 -0.978106
      outer loop
         vertex 0.00367471 0.077958 0.0142886
         vertex 0.0046133 0.0786219 0.0141473
         vertex 0.0041649 0.0780501 0.014269
      endloop
   endfacet
   facet normal 2.4475e-14 -0.208108 -0.978106
      outer loop
         vertex 0.0046133 0.0786219 0.0141473
         vertex 0.0046083 0.0790754 0.0140508
         vertex 0.00461531 0.0790665 0.0140527
      endloop
   endfacet
   facet normal 2.4475e-14 -0.208108 -0.978106
      outer loop
         vertex 0.00120481 0.0866865 0.0124315
         vertex 0.00121314 0.0866483 0.0124396
         vertex 0.000892169 0.0869509 0.0123752
      endloop
   endfacet
   facet normal 2.4475e-14 -0.208108 -0.978106
      outer loop
         vertex -0.00121468 0.0866392 0.0124415
         vertex -0.000842932 0.0869537 0.0123746
         vertex 1.91694e-17 0.0800966 0.0138336
      endloop
   endfacet
   facet normal 2.4475e-14 -0.208108 -0.978106
      outer loop
         vertex 1.91694e-17 0.0800966 0.0138336
         vertex -0.00367472 0.077958 0.0142886
         vertex -0.00460831 0.0790754 0.0140508
      endloop
   endfacet
   facet normal 2.4475e-14 -0.208108 -0.978106
      outer loop
         vertex -0.00461329 0.0786219 0.0141473
         vertex -0.00460831 0.0790754 0.0140508
         vertex -0.00367472 0.077958 0.0142886
      endloop
   endfacet
   facet normal 2.4475e-14 -0.208108 -0.978106
      outer loop
         vertex 0.00368091 0.0779546 0.0142893
         vertex 0.00367471 0.077958 0.0142886
         vertex 0.00416042 0.0780447 0.0142701
      endloop
   endfacet
   facet normal 2.4475e-14 -0.208108 -0.978106
      outer loop
         vertex 0.0046133 0.0786219 0.0141473
         vertex 0.00183768 0.0824561 0.0133315
         vertex 0.0046083 0.0790754 0.0140508
      endloop
   endfacet
   facet normal 2.4475e-14 -0.208108 -0.978106
      outer loop
         vertex 1.91694e-17 0.0800966 0.0138336
         vertex 0.000842932 0.0869537 0.0123746
         vertex 0.00121469 0.0866392 0.0124415
      endloop
   endfacet
   facet normal 2.4475e-14 -0.208108 -0.978106
      outer loop
         vertex 0.00121469 0.0866392 0.0124415
         vertex 0.000842932 0.0869537 0.0123746
         vertex 0.000852399 0.0869535 0.0123746
      endloop
   endfacet
   facet normal 2.4475e-14 -0.208108 -0.978106
      outer loop
         vertex -0.000852398 0.0869535 0.0123746
         vertex -0.000842932 0.0869537 0.0123746
         vertex -0.00121312 0.0866483 0.0124396
      endloop
   endfacet
   facet normal 2.4475e-14 -0.208108 -0.978106
      outer loop
         vertex -0.00461531 0.0790665 0.0140527
         vertex -0.00460831 0.0790754 0.0140508
         vertex -0.0046201 0.078631 0.0141454
      endloop
   endfacet
   facet normal 2.4475e-14 -0.208108 -0.978106
      outer loop
         vertex 0.00462011 0.078631 0.0141454
         vertex 0.0046133 0.0786219 0.0141473
         vertex 0.00461531 0.0790665 0.0140527
      endloop
   endfacet
   facet normal 2.4475e-14 -0.208108 -0.978106
      outer loop
         vertex 0.00121314 0.0866483 0.0124396
         vertex 0.00121469 0.0866392 0.0124415
         vertex 0.000852399 0.0869535 0.0123746
      endloop
   endfacet
   facet normal 2.4475e-14 -0.208108 -0.978106
      outer loop
         vertex -0.00460831 0.0790754 0.0140508
         vertex -0.00183768 0.0824561 0.0133315
         vertex 1.91694e-17 0.0800966 0.0138336
      endloop
   endfacet
   facet normal 2.4475e-14 -0.208108 -0.978106
      outer loop
         vertex 0.00121469 0.0866392 0.0124415
         vertex 0.00183768 0.0824561 0.0133315
         vertex 1.91694e-17 0.0800966 0.0138336
      endloop
   endfacet
   facet normal 2.4475e-14 -0.208108 -0.978106
      outer loop
         vertex 0.00367471 0.077958 0.0142886
         vertex 1.91694e-17 0.0800966 0.0138336
         vertex 0.00183768 0.0824561 0.0133315
      endloop
   endfacet
   facet normal 2.4475e-14 -0.208108 -0.978106
      outer loop
         vertex -0.000842932 0.0869537 0.0123746
         vertex 0.000842932 0.0869537 0.0123746
         vertex 1.91694e-17 0.0800966 0.0138336
      endloop
   endfacet
   facet normal 0.699549 0.428814 -0.57162
      outer loop
         vertex 0.00474185 0.0792242 0.0143259
         vertex 0.00461531 0.0790665 0.0140527
         vertex 0.0046083 0.0790754 0.0140508
      endloop
   endfacet
   facet normal 0.753288 0.352341 -0.555349
      outer loop
         vertex 0.00477412 0.0791783 0.0143356
         vertex 0.00463785 0.0790344 0.0140595
         vertex 0.00461531 0.0790665 0.0140527
      endloop
   endfacet
   facet normal 0.798326 0.270669 -0.537972
      outer loop
         vertex 0.00480116 0.0791293 0.0143461
         vertex 0.00465674 0.0790002 0.0140668
         vertex 0.00463785 0.0790344 0.0140595
      endloop
   endfacet
   facet normal 0.834142 0.184741 -0.519689
      outer loop
         vertex 0.00482266 0.0790777 0.0143571
         vertex 0.00467176 0.0789641 0.0140745
         vertex 0.00465674 0.0790002 0.0140668
      endloop
   endfacet
   facet normal 0.860324 0.0955499 -0.500712
      outer loop
         vertex 0.00483838 0.0790241 0.0143684
         vertex 0.00468275 0.0789267 0.0140825
         vertex 0.00467176 0.0789641 0.0140745
      endloop
   endfacet
   facet normal 0.876568 0.00412544 -0.48126
      outer loop
         vertex 0.00484813 0.0789692 0.0143801
         vertex 0.00468956 0.0788884 0.0140906
         vertex 0.00468275 0.0789267 0.0140825
      endloop
   endfacet
   facet normal 0.882687 -0.0884762 -0.461558
      outer loop
         vertex 0.0048518 0.0789136 0.014392
         vertex 0.00469213 0.0788495 0.0140989
         vertex 0.00468956 0.0788884 0.0140906
      endloop
   endfacet
   facet normal 0.87861 -0.181185 -0.441833
      outer loop
         vertex 0.00484936 0.078858 0.0144038
         vertex 0.00469042 0.0788106 0.0141072
         vertex 0.00469213 0.0788495 0.0140989
      endloop
   endfacet
   facet normal 0.864385 -0.272931 -0.422312
      outer loop
         vertex 0.00484081 0.0788029 0.0144155
         vertex 0.00468445 0.0787722 0.0141153
         vertex 0.00469042 0.0788106 0.0141072
      endloop
   endfacet
   facet normal 0.840175 -0.362654 -0.403222
      outer loop
         vertex 0.00482628 0.078749 0.014427
         vertex 0.0046743 0.0787345 0.0141234
         vertex 0.00468445 0.0787722 0.0141153
      endloop
   endfacet
   facet normal 0.806261 -0.449317 -0.384783
      outer loop
         vertex 0.00480592 0.078697 0.014438
         vertex 0.00466007 0.0786982 0.0141311
         vertex 0.0046743 0.0787345 0.0141234
      endloop
   endfacet
   facet normal 0.763033 -0.531919 -0.367208
      outer loop
         vertex 0.00477997 0.0786474 0.0144486
         vertex 0.00464194 0.0786635 0.0141385
         vertex 0.00466007 0.0786982 0.0141311
      endloop
   endfacet
   facet normal 0.710992 -0.609507 -0.3507
      outer loop
         vertex 0.00474872 0.0786008 0.0144585
         vertex 0.00462011 0.078631 0.0141454
         vertex 0.00464194 0.0786635 0.0141385
      endloop
   endfacet
   facet normal 0.710992 -0.609507 -0.3507
      outer loop
         vertex 0.00474872 0.0786008 0.0144585
         vertex 0.00473994 0.0785894 0.014461
         vertex 0.0046133 0.0786219 0.0141473
      endloop
   endfacet
   facet normal 0.694442 -0.630807 -0.346168
      outer loop
         vertex 0.0046133 0.0786219 0.0141473
         vertex 0.00462011 0.078631 0.0141454
         vertex 0.00474872 0.0786008 0.0144585
      endloop
   endfacet
   facet normal 0.763033 -0.531919 -0.367208
      outer loop
         vertex 0.00464194 0.0786635 0.0141385
         vertex 0.00477997 0.0786474 0.0144486
         vertex 0.00474872 0.0786008 0.0144585
      endloop
   endfacet
   facet normal 0.806261 -0.449317 -0.384783
      outer loop
         vertex 0.00466007 0.0786982 0.0141311
         vertex 0.00480592 0.078697 0.014438
         vertex 0.00477997 0.0786474 0.0144486
      endloop
   endfacet
   facet normal 0.840175 -0.362654 -0.403222
      outer loop
         vertex 0.0046743 0.0787345 0.0141234
         vertex 0.00482628 0.078749 0.014427
         vertex 0.00480592 0.078697 0.014438
      endloop
   endfacet
   facet normal 0.864385 -0.272931 -0.422312
      outer loop
         vertex 0.00468445 0.0787722 0.0141153
         vertex 0.00484081 0.0788029 0.0144155
         vertex 0.00482628 0.078749 0.014427
      endloop
   endfacet
   facet normal 0.87861 -0.181185 -0.441833
      outer loop
         vertex 0.00469042 0.0788106 0.0141072
         vertex 0.00484936 0.078858 0.0144038
         vertex 0.00484081 0.0788029 0.0144155
      endloop
   endfacet
   facet normal 0.882687 -0.0884762 -0.461558
      outer loop
         vertex 0.00469213 0.0788495 0.0140989
         vertex 0.0048518 0.0789136 0.014392
         vertex 0.00484936 0.078858 0.0144038
      endloop
   endfacet
   facet normal 0.876568 0.00412544 -0.48126
      outer loop
         vertex 0.00468956 0.0788884 0.0140906
         vertex 0.00484813 0.0789692 0.0143801
         vertex 0.0048518 0.0789136 0.014392
      endloop
   endfacet
   facet normal 0.860324 0.0955499 -0.500712
      outer loop
         vertex 0.00468275 0.0789267 0.0140825
         vertex 0.00483838 0.0790241 0.0143684
         vertex 0.00484813 0.0789692 0.0143801
      endloop
   endfacet
   facet normal 0.834142 0.184741 -0.519689
      outer loop
         vertex 0.00467176 0.0789641 0.0140745
         vertex 0.00482266 0.0790777 0.0143571
         vertex 0.00483838 0.0790241 0.0143684
      endloop
   endfacet
   facet normal 0.798326 0.270669 -0.537972
      outer loop
         vertex 0.00465674 0.0790002 0.0140668
         vertex 0.00480116 0.0791293 0.0143461
         vertex 0.00482266 0.0790777 0.0143571
      endloop
   endfacet
   facet normal 0.753288 0.352341 -0.555349
      outer loop
         vertex 0.00463785 0.0790344 0.0140595
         vertex 0.00477412 0.0791783 0.0143356
         vertex 0.00480116 0.0791293 0.0143461
      endloop
   endfacet
   facet normal 0.699549 0.428814 -0.57162
      outer loop
         vertex 0.00461531 0.0790665 0.0140527
         vertex 0.00474185 0.0792242 0.0143259
         vertex 0.00477412 0.0791783 0.0143356
      endloop
   endfacet
   facet normal 0.682533 0.44976 -0.576076
      outer loop
         vertex 0.0046083 0.0790754 0.0140508
         vertex 0.00473284 0.0792355 0.0143235
         vertex 0.00474185 0.0792242 0.0143259
      endloop
   endfacet
   facet normal 0.688909 0.442477 -0.574124
      outer loop
         vertex 0.0046083 0.0790754 0.0140508
         vertex 0.00183768 0.0824561 0.0133315
         vertex 0.00198928 0.082583 0.0136112
      endloop
   endfacet
   facet normal 0.688909 0.442477 -0.574124
      outer loop
         vertex 0.00198928 0.082583 0.0136112
         vertex 0.00473284 0.0792355 0.0143235
         vertex 0.0046083 0.0790754 0.0140508
      endloop
   endfacet
   facet normal 0.873732 0.0267512 -0.485672
      outer loop
         vertex 0.00121469 0.0866392 0.0124415
         vertex 0.00137255 0.0867241 0.0127302
         vertex 0.00198928 0.082583 0.0136112
      endloop
   endfacet
   facet normal 0.873732 0.0267512 -0.485672
      outer loop
         vertex 0.00198928 0.082583 0.0136112
         vertex 0.00183768 0.0824561 0.0133315
         vertex 0.00121469 0.0866392 0.0124415
      endloop
   endfacet
endsolid Part 4. Units = meters