solid Part 1. STL generated by ONSHAPE BY PTC INC, 1.217. Units = meters
   facet normal 0 0 1
      outer loop
         vertex 0 2.31764e-18 0.0413
         vertex 0.0376281 0.0040923 0.0413
         vertex 0.0369651 0.00813663 0.0413
      endloop
   endfacet
   facet normal 0 0 1
      outer loop
         vertex 0.0369651 0.00813663 0.0413
         vertex 0.0358687 0.0120856 0.0413
         vertex 0 2.31764e-18 0.0413
      endloop
   endfacet
   facet normal 0 0 1
      outer loop
         vertex 0.0358687 0.0120856 0.0413
         vertex 0.0343517 0.0158928 0.0413
         vertex 0 2.31764e-18 0.0413
      endloop
   endfacet
   facet normal 0 0 1
      outer loop
         vertex 0.0343517 0.0158928 0.0413
         vertex 0.032432 0.0195137 0.0413
         vertex 0 2.31764e-18 0.0413
      endloop
   endfacet
   facet normal 0 0 1
      outer loop
         vertex 0.032432 0.0195137 0.0413
         vertex 0.0301321 0.0229058 0.0413
         vertex 0 2.31764e-18 0.0413
      endloop
   endfacet
   facet normal 0 0 1
      outer loop
         vertex 0.0301321 0.0229058 0.0413
         vertex 0.0274789 0.0260294 0.0413
         vertex 0 2.31764e-18 0.0413
      endloop
   endfacet
   facet normal 0 0 1
      outer loop
         vertex 0.0274789 0.0260294 0.0413
         vertex 0.0245036 0.0288478 0.0413
         vertex 0 2.31764e-18 0.0413
      endloop
   endfacet
   facet normal 0 0 1
      outer loop
         vertex 0.0245036 0.0288478 0.0413
         vertex 0.0212409 0.031328 0.0413
         vertex 0 2.31764e-18 0.0413
      endloop
   endfacet
   facet normal 0 0 1
      outer loop
         vertex 0.0212409 0.031328 0.0413
         vertex 0.0177293 0.0334409 0.0413
         vertex 0 2.31764e-18 0.0413
      endloop
   endfacet
   facet normal 0 0 1
      outer loop
         vertex 0.0177293 0.0334409 0.0413
         vertex 0.0140097 0.0351618 0.0413
         vertex 0 2.31764e-18 0.0413
      endloop
   endfacet
   facet normal 0 0 1
      outer loop
         vertex 0.0140097 0.0351618 0.0413
         vertex 0.0101259 0.0364704 0.0413
         vertex 0 2.31764e-18 0.0413
      endloop
   endfacet
   facet normal 0 0 1
      outer loop
         vertex 0.0101259 0.0364704 0.0413
         vertex 0.00612345 0.0373514 0.0413
         vertex 0 2.31764e-18 0.0413
      endloop
   endfacet
   facet normal 0 0 1
      outer loop
         vertex 0.00612345 0.0373514 0.0413
         vertex 0.00204916 0.0377945 0.0413
         vertex 0 2.31764e-18 0.0413
      endloop
   endfacet
   facet normal 0 0 1
      outer loop
         vertex 0.00204916 0.0377945 0.0413
         vertex -0.00204916 0.0377945 0.0413
         vertex 0 2.31764e-18 0.0413
      endloop
   endfacet
   facet normal 0 0 1
      outer loop
         vertex -0.00204916 0.0377945 0.0413
         vertex -0.00612345 0.0373514 0.0413
         vertex 0 2.31764e-18 0.0413
      endloop
   endfacet
   facet normal 0 0 1
      outer loop
         vertex -0.00612345 0.0373514 0.0413
         vertex -0.0101259 0.0364704 0.0413
         vertex 0 2.31764e-18 0.0413
      endloop
   endfacet
   facet normal 0 0 1
      outer loop
         vertex -0.0101259 0.0364704 0.0413
         vertex -0.0140097 0.0351618 0.0413
         vertex 0 2.31764e-18 0.0413
      endloop
   endfacet
   facet normal 0 0 1
      outer loop
         vertex -0.0140097 0.0351618 0.0413
         vertex -0.0177293 0.0334409 0.0413
         vertex 0 2.31764e-18 0.0413
      endloop
   endfacet
   facet normal 0 0 1
      outer loop
         vertex -0.0177293 0.0334409 0.0413
         vertex -0.0212409 0.031328 0.0413
         vertex 0 2.31764e-18 0.0413
      endloop
   endfacet
   facet normal 0 0 1
      outer loop
         vertex -0.0212409 0.031328 0.0413
         vertex -0.0245036 0.0288478 0.0413
         vertex 0 2.31764e-18 0.0413
      endloop
   endfacet
   facet normal 0 0 1
      outer loop
         vertex -0.0245036 0.0288478 0.0413
         vertex -0.0274789 0.0260294 0.0413
         vertex 0 2.31764e-18 0.0413
      endloop
   endfacet
   facet normal 0 0 1
      outer loop
         vertex -0.0274789 0.0260294 0.0413
         vertex -0.0301321 0.0229058 0.0413
         vertex 0 2.31764e-18 0.0413
      endloop
   endfacet
   facet normal 0 0 1
      outer loop
         vertex -0.0301321 0.0229058 0.0413
         vertex -0.032432 0.0195137 0.0413
         vertex 0 2.31764e-18 0.0413
      endloop
   endfacet
   facet normal 0 0 1
      outer loop
         vertex -0.032432 0.0195137 0.0413
         vertex -0.0343517 0.0158928 0.0413
         vertex 0 2.31764e-18 0.0413
      endloop
   endfacet
   facet normal 0 0 1
      outer loop
         vertex -0.0343517 0.0158928 0.0413
         vertex -0.0358687 0.0120856 0.0413
         vertex 0 2.31764e-18 0.0413
      endloop
   endfacet
   facet normal 0 0 1
      outer loop
         vertex -0.0358687 0.0120856 0.0413
         vertex -0.0369651 0.00813663 0.0413
         vertex 0 2.31764e-18 0.0413
      endloop
   endfacet
   facet normal 0 0 1
      outer loop
         vertex -0.0369651 0.00813663 0.0413
         vertex -0.0376281 0.0040923 0.0413
         vertex 0 2.31764e-18 0.0413
      endloop
   endfacet
   facet normal 0 0 1
      outer loop
         vertex -0.0376281 0.0040923 0.0413
         vertex -0.03785 2.31764e-18 0.0413
         vertex 0 2.31764e-18 0.0413
      endloop
   endfacet
   facet normal 0 0 1
      outer loop
         vertex -0.03785 2.31764e-18 0.0413
         vertex -0.0376281 -0.0040923 0.0413
         vertex 0 2.31764e-18 0.0413
      endloop
   endfacet
   facet normal 0 0 1
      outer loop
         vertex -0.0376281 -0.0040923 0.0413
         vertex -0.0369651 -0.00813663 0.0413
         vertex 0 2.31764e-18 0.0413
      endloop
   endfacet
   facet normal 0 0 1
      outer loop
         vertex -0.0369651 -0.00813663 0.0413
         vertex -0.0358687 -0.0120856 0.0413
         vertex 0 2.31764e-18 0.0413
      endloop
   endfacet
   facet normal 0 0 1
      outer loop
         vertex -0.0358687 -0.0120856 0.0413
         vertex -0.0343517 -0.0158928 0.0413
         vertex 0 2.31764e-18 0.0413
      endloop
   endfacet
   facet normal 0 0 1
      outer loop
         vertex -0.0343517 -0.0158928 0.0413
         vertex -0.032432 -0.0195137 0.0413
         vertex 0 2.31764e-18 0.0413
      endloop
   endfacet
   facet normal 0 0 1
      outer loop
         vertex -0.032432 -0.0195137 0.0413
         vertex -0.0301321 -0.0229058 0.0413
         vertex 0 2.31764e-18 0.0413
      endloop
   endfacet
   facet normal 0 0 1
      outer loop
         vertex -0.0301321 -0.0229058 0.0413
         vertex -0.0274789 -0.0260294 0.0413
         vertex 0 2.31764e-18 0.0413
      endloop
   endfacet
   facet normal 0 0 1
      outer loop
         vertex -0.0274789 -0.0260294 0.0413
         vertex -0.0245036 -0.0288478 0.0413
         vertex 0 2.31764e-18 0.0413
      endloop
   endfacet
   facet normal 0 0 1
      outer loop
         vertex -0.0245036 -0.0288478 0.0413
         vertex -0.0212409 -0.031328 0.0413
         vertex 0 2.31764e-18 0.0413
      endloop
   endfacet
   facet normal 0 0 1
      outer loop
         vertex -0.0212409 -0.031328 0.0413
         vertex -0.0177293 -0.0334409 0.0413
         vertex 0 2.31764e-18 0.0413
      endloop
   endfacet
   facet normal 0 0 1
      outer loop
         vertex -0.0177293 -0.0334409 0.0413
         vertex -0.0140097 -0.0351618 0.0413
         vertex 0 2.31764e-18 0.0413
      endloop
   endfacet
   facet normal 0 0 1
      outer loop
         vertex -0.0140097 -0.0351618 0.0413
         vertex -0.0101259 -0.0364704 0.0413
         vertex 0 2.31764e-18 0.0413
      endloop
   endfacet
   facet normal 0 0 1
      outer loop
         vertex -0.0101259 -0.0364704 0.0413
         vertex -0.00612345 -0.0373514 0.0413
         vertex 0 2.31764e-18 0.0413
      endloop
   endfacet
   facet normal 0 0 1
      outer loop
         vertex -0.00612345 -0.0373514 0.0413
         vertex -0.00204916 -0.0377945 0.0413
         vertex 0 2.31764e-18 0.0413
      endloop
   endfacet
   facet normal 0 0 1
      outer loop
         vertex -0.00204916 -0.0377945 0.0413
         vertex 0.00204916 -0.0377945 0.0413
         vertex 0 2.31764e-18 0.0413
      endloop
   endfacet
   facet normal 0 0 1
      outer loop
         vertex 0.00204916 -0.0377945 0.0413
         vertex 0.00612345 -0.0373514 0.0413
         vertex 0 2.31764e-18 0.0413
      endloop
   endfacet
   facet normal 0 0 1
      outer loop
         vertex 0.00612345 -0.0373514 0.0413
         vertex 0.0101259 -0.0364704 0.0413
         vertex 0 2.31764e-18 0.0413
      endloop
   endfacet
   facet normal 0 0 1
      outer loop
         vertex 0.0101259 -0.0364704 0.0413
         vertex 0.0140097 -0.0351618 0.0413
         vertex 0 2.31764e-18 0.0413
      endloop
   endfacet
   facet normal 0 0 1
      outer loop
         vertex 0.0140097 -0.0351618 0.0413
         vertex 0.0177293 -0.0334409 0.0413
         vertex 0 2.31764e-18 0.0413
      endloop
   endfacet
   facet normal 0 0 1
      outer loop
         vertex 0.0177293 -0.0334409 0.0413
         vertex 0.0212409 -0.031328 0.0413
         vertex 0 2.31764e-18 0.0413
      endloop
   endfacet
   facet normal 0 0 1
      outer loop
         vertex 0.0212409 -0.031328 0.0413
         vertex 0.0245036 -0.0288478 0.0413
         vertex 0 2.31764e-18 0.0413
      endloop
   endfacet
   facet normal 0 0 1
      outer loop
         vertex 0.0245036 -0.0288478 0.0413
         vertex 0.0274789 -0.0260294 0.0413
         vertex 0 2.31764e-18 0.0413
      endloop
   endfacet
   facet normal 0 0 1
      outer loop
         vertex 0.0274789 -0.0260294 0.0413
         vertex 0.0301321 -0.0229058 0.0413
         vertex 0 2.31764e-18 0.0413
      endloop
   endfacet
   facet normal 0 0 1
      outer loop
         vertex 0.0301321 -0.0229058 0.0413
         vertex 0.032432 -0.0195137 0.0413
         vertex 0 2.31764e-18 0.0413
      endloop
   endfacet
   facet normal 0 0 1
      outer loop
         vertex 0.032432 -0.0195137 0.0413
         vertex 0.0343517 -0.0158928 0.0413
         vertex 0 2.31764e-18 0.0413
      endloop
   endfacet
   facet normal 0 0 1
      outer loop
         vertex 0.0343517 -0.0158928 0.0413
         vertex 0.0358687 -0.0120856 0.0413
         vertex 0 2.31764e-18 0.0413
      endloop
   endfacet
   facet normal 0 0 1
      outer loop
         vertex 0.0358687 -0.0120856 0.0413
         vertex 0.0369651 -0.00813663 0.0413
         vertex 0 2.31764e-18 0.0413
      endloop
   endfacet
   facet normal 0 0 1
      outer loop
         vertex 0.0369651 -0.00813663 0.0413
         vertex 0.0376281 -0.0040923 0.0413
         vertex 0 2.31764e-18 0.0413
      endloop
   endfacet
   facet normal 0 0 1
      outer loop
         vertex 0.0376281 -0.0040923 0.0413
         vertex 0.03785 1.62235e-17 0.0413
         vertex 0 2.31764e-18 0.0413
      endloop
   endfacet
   facet normal 0 0 1
      outer loop
         vertex 0.03785 1.62235e-17 0.0413
         vertex 0.0376281 0.0040923 0.0413
         vertex 0 2.31764e-18 0.0413
      endloop
   endfacet
   facet normal -1 0 0
      outer loop
         vertex -0.03785 2.31764e-18 0
         vertex -0.03785 2.31764e-18 0.0413
         vertex -0.0376281 0.0040923 0.0413
      endloop
   endfacet
   facet normal -0.994138 0.108119 0
      outer loop
         vertex -0.0376281 0.0040923 0
         vertex -0.0376281 0.0040923 0.0413
         vertex -0.0369651 0.00813663 0.0413
      endloop
   endfacet
   facet normal -0.976621 0.21497 0
      outer loop
         vertex -0.0369651 0.00813663 0
         vertex -0.0369651 0.00813663 0.0413
         vertex -0.0358687 0.0120856 0.0413
      endloop
   endfacet
   facet normal -0.947653 0.319302 0
      outer loop
         vertex -0.0358687 0.0120856 0
         vertex -0.0358687 0.0120856 0.0413
         vertex -0.0343517 0.0158928 0.0413
      endloop
   endfacet
   facet normal -0.907575 0.419889 0
      outer loop
         vertex -0.0343517 0.0158928 0
         vertex -0.0343517 0.0158928 0.0413
         vertex -0.032432 0.0195137 0.0413
      endloop
   endfacet
   facet normal -0.856857 0.515554 0
      outer loop
         vertex -0.032432 0.0195137 0
         vertex -0.032432 0.0195137 0.0413
         vertex -0.0301321 0.0229058 0.0413
      endloop
   endfacet
   facet normal -0.796093 0.605174 0
      outer loop
         vertex -0.0301321 0.0229058 0
         vertex -0.0301321 0.0229058 0.0413
         vertex -0.0274789 0.0260294 0.0413
      endloop
   endfacet
   facet normal -0.725995 0.687699 0
      outer loop
         vertex -0.0274789 0.0260294 0
         vertex -0.0274789 0.0260294 0.0413
         vertex -0.0245036 0.0288478 0.0413
      endloop
   endfacet
   facet normal -0.647386 0.762162 0
      outer loop
         vertex -0.0245036 0.0288478 0
         vertex -0.0245036 0.0288478 0.0413
         vertex -0.0212409 0.031328 0.0413
      endloop
   endfacet
   facet normal -0.561187 0.827689 0
      outer loop
         vertex -0.0212409 0.031328 0
         vertex -0.0212409 0.031328 0.0413
         vertex -0.0177293 0.0334409 0.0413
      endloop
   endfacet
   facet normal -0.468408 0.883512 0
      outer loop
         vertex -0.0177293 0.0334409 0
         vertex -0.0177293 0.0334409 0.0413
         vertex -0.0140097 0.0351618 0.0413
      endloop
   endfacet
   facet normal -0.370138 0.928977 0
      outer loop
         vertex -0.0140097 0.0351618 0
         vertex -0.0140097 0.0351618 0.0413
         vertex -0.0101259 0.0364704 0.0413
      endloop
   endfacet
   facet normal -0.267528 0.96355 0
      outer loop
         vertex -0.0101259 0.0364704 0
         vertex -0.0101259 0.0364704 0.0413
         vertex -0.00612345 0.0373514 0.0413
      endloop
   endfacet
   facet normal -0.161782 0.986827 0
      outer loop
         vertex -0.00612345 0.0373514 0
         vertex -0.00612345 0.0373514 0.0413
         vertex -0.00204916 0.0377945 0.0413
      endloop
   endfacet
   facet normal -0.0541389 0.998533 0
      outer loop
         vertex -0.00204916 0.0377945 0
         vertex -0.00204916 0.0377945 0.0413
         vertex 0.00204916 0.0377945 0.0413
      endloop
   endfacet
   facet normal 0.0541389 0.998533 0
      outer loop
         vertex 0.00204916 0.0377945 0
         vertex 0.00204916 0.0377945 0.0413
         vertex 0.00612345 0.0373514 0.0413
      endloop
   endfacet
   facet normal 0.161782 0.986827 0
      outer loop
         vertex 0.00612345 0.0373514 0
         vertex 0.00612345 0.0373514 0.0413
         vertex 0.0101259 0.0364704 0.0413
      endloop
   endfacet
   facet normal 0.267528 0.96355 0
      outer loop
         vertex 0.0101259 0.0364704 0
         vertex 0.0101259 0.0364704 0.0413
         vertex 0.0140097 0.0351618 0.0413
      endloop
   endfacet
   facet normal 0.370138 0.928977 0
      outer loop
         vertex 0.0140097 0.0351618 0
         vertex 0.0140097 0.0351618 0.0413
         vertex 0.0177293 0.0334409 0.0413
      endloop
   endfacet
   facet normal 0.468408 0.883512 0
      outer loop
         vertex 0.0177293 0.0334409 0
         vertex 0.0177293 0.0334409 0.0413
         vertex 0.0212409 0.031328 0.0413
      endloop
   endfacet
   facet normal 0.561187 0.827689 0
      outer loop
         vertex 0.0212409 0.031328 0
         vertex 0.0212409 0.031328 0.0413
         vertex 0.0245036 0.0288478 0.0413
      endloop
   endfacet
   facet normal 0.647386 0.762162 0
      outer loop
         vertex 0.0245036 0.0288478 0
         vertex 0.0245036 0.0288478 0.0413
         vertex 0.0274789 0.0260294 0.0413
      endloop
   endfacet
   facet normal 0.725995 0.687699 0
      outer loop
         vertex 0.0274789 0.0260294 0
         vertex 0.0274789 0.0260294 0.0413
         vertex 0.0301321 0.0229058 0.0413
      endloop
   endfacet
   facet normal 0.796093 0.605174 0
      outer loop
         vertex 0.0301321 0.0229058 0
         vertex 0.0301321 0.0229058 0.0413
         vertex 0.032432 0.0195137 0.0413
      endloop
   endfacet
   facet normal 0.856857 0.515554 0
      outer loop
         vertex 0.032432 0.0195137 0
         vertex 0.032432 0.0195137 0.0413
         vertex 0.0343517 0.0158928 0.0413
      endloop
   endfacet
   facet normal 0.907575 0.419889 0
      outer loop
         vertex 0.0343517 0.0158928 0
         vertex 0.0343517 0.0158928 0.0413
         vertex 0.0358687 0.0120856 0.0413
      endloop
   endfacet
   facet normal 0.947653 0.319302 0
      outer loop
         vertex 0.0358687 0.0120856 0
         vertex 0.0358687 0.0120856 0.0413
         vertex 0.0369651 0.00813663 0.0413
      endloop
   endfacet
   facet normal 0.976621 0.21497 0
      outer loop
         vertex 0.0369651 0.00813663 0
         vertex 0.0369651 0.00813663 0.0413
         vertex 0.0376281 0.0040923 0.0413
      endloop
   endfacet
   facet normal 0.994138 0.108119 0
      outer loop
         vertex 0.0376281 0.0040923 0
         vertex 0.0376281 0.0040923 0.0413
         vertex 0.03785 1.62235e-17 0.0413
      endloop
   endfacet
   facet normal 1 1.22465e-16 0
      outer loop
         vertex 0.03785 6.95293e-18 0
         vertex 0.03785 1.62235e-17 0.0413
         vertex 0.0376281 -0.0040923 0.0413
      endloop
   endfacet
   facet normal 0.994138 -0.108119 0
      outer loop
         vertex 0.0376281 -0.0040923 0
         vertex 0.0376281 -0.0040923 0.0413
         vertex 0.0369651 -0.00813663 0.0413
      endloop
   endfacet
   facet normal 0.976621 -0.21497 0
      outer loop
         vertex 0.0369651 -0.00813663 0
         vertex 0.0369651 -0.00813663 0.0413
         vertex 0.0358687 -0.0120856 0.0413
      endloop
   endfacet
   facet normal 0.947653 -0.319302 0
      outer loop
         vertex 0.0358687 -0.0120856 0
         vertex 0.0358687 -0.0120856 0.0413
         vertex 0.0343517 -0.0158928 0.0413
      endloop
   endfacet
   facet normal 0.907575 -0.419889 0
      outer loop
         vertex 0.0343517 -0.0158928 0
         vertex 0.0343517 -0.0158928 0.0413
         vertex 0.032432 -0.0195137 0.0413
      endloop
   endfacet
   facet normal 0.856857 -0.515554 0
      outer loop
         vertex 0.032432 -0.0195137 0
         vertex 0.032432 -0.0195137 0.0413
         vertex 0.0301321 -0.0229058 0.0413
      endloop
   endfacet
   facet normal 0.796093 -0.605174 0
      outer loop
         vertex 0.0301321 -0.0229058 0
         vertex 0.0301321 -0.0229058 0.0413
         vertex 0.0274789 -0.0260294 0.0413
      endloop
   endfacet
   facet normal 0.725995 -0.687699 0
      outer loop
         vertex 0.0274789 -0.0260294 0
         vertex 0.0274789 -0.0260294 0.0413
         vertex 0.0245036 -0.0288478 0.0413
      endloop
   endfacet
   facet normal 0.647386 -0.762162 0
      outer loop
         vertex 0.0245036 -0.0288478 0
         vertex 0.0245036 -0.0288478 0.0413
         vertex 0.0212409 -0.031328 0.0413
      endloop
   endfacet
   facet normal 0.561187 -0.827689 0
      outer loop
         vertex 0.0212409 -0.031328 0
         vertex 0.0212409 -0.031328 0.0413
         vertex 0.0177293 -0.0334409 0.0413
      endloop
   endfacet
   facet normal 0.468408 -0.883512 0
      outer loop
         vertex 0.0177293 -0.0334409 0
         vertex 0.0177293 -0.0334409 0.0413
         vertex 0.0140097 -0.0351618 0.0413
      endloop
   endfacet
   facet normal 0.370138 -0.928977 0
      outer loop
         vertex 0.0140097 -0.0351618 0
         vertex 0.0140097 -0.0351618 0.0413
         vertex 0.0101259 -0.0364704 0.0413
      endloop
   endfacet
   facet normal 0.267528 -0.96355 0
      outer loop
         vertex 0.0101259 -0.0364704 0
         vertex 0.0101259 -0.0364704 0.0413
         vertex 0.00612345 -0.0373514 0.0413
      endloop
   endfacet
   facet normal 0.161782 -0.986827 0
      outer loop
         vertex 0.00612345 -0.0373514 0
         vertex 0.00612345 -0.0373514 0.0413
         vertex 0.00204916 -0.0377945 0.0413
      endloop
   endfacet
   facet normal 0.0541389 -0.998533 0
      outer loop
         vertex 0.00204916 -0.0377945 0
         vertex 0.00204916 -0.0377945 0.0413
         vertex -0.00204916 -0.0377945 0.0413
      endloop
   endfacet
   facet normal -0.0541389 -0.998533 0
      outer loop
         vertex -0.00204916 -0.0377945 0
         vertex -0.00204916 -0.0377945 0.0413
         vertex -0.00612345 -0.0373514 0.0413
      endloop
   endfacet
   facet normal -0.161782 -0.986827 0
      outer loop
         vertex -0.00612345 -0.0373514 0
         vertex -0.00612345 -0.0373514 0.0413
         vertex -0.0101259 -0.0364704 0.0413
      endloop
   endfacet
   facet normal -0.267528 -0.96355 0
      outer loop
         vertex -0.0101259 -0.0364704 0
         vertex -0.0101259 -0.0364704 0.0413
         vertex -0.0140097 -0.0351618 0.0413
      endloop
   endfacet
   facet normal -0.370138 -0.928977 0
      outer loop
         vertex -0.0140097 -0.0351618 0
         vertex -0.0140097 -0.0351618 0.0413
         vertex -0.0177293 -0.0334409 0.0413
      endloop
   endfacet
   facet normal -0.468408 -0.883512 0
      outer loop
         vertex -0.0177293 -0.0334409 0
         vertex -0.0177293 -0.0334409 0.0413
         vertex -0.0212409 -0.031328 0.0413
      endloop
   endfacet
   facet normal -0.561187 -0.827689 0
      outer loop
         vertex -0.0212409 -0.031328 0
         vertex -0.0212409 -0.031328 0.0413
         vertex -0.0245036 -0.0288478 0.0413
      endloop
   endfacet
   facet normal -0.647386 -0.762162 0
      outer loop
         vertex -0.0245036 -0.0288478 0
         vertex -0.0245036 -0.0288478 0.0413
         vertex -0.0274789 -0.0260294 0.0413
      endloop
   endfacet
   facet normal -0.725995 -0.687699 0
      outer loop
         vertex -0.0274789 -0.0260294 0
         vertex -0.0274789 -0.0260294 0.0413
         vertex -0.0301321 -0.0229058 0.0413
      endloop
   endfacet
   facet normal -0.796093 -0.605174 0
      outer loop
         vertex -0.0301321 -0.0229058 0
         vertex -0.0301321 -0.0229058 0.0413
         vertex -0.032432 -0.0195137 0.0413
      endloop
   endfacet
   facet normal -0.856857 -0.515554 0
      outer loop
         vertex -0.032432 -0.0195137 0
         vertex -0.032432 -0.0195137 0.0413
         vertex -0.0343517 -0.0158928 0.0413
      endloop
   endfacet
   facet normal -0.907575 -0.419889 0
      outer loop
         vertex -0.0343517 -0.0158928 0
         vertex -0.0343517 -0.0158928 0.0413
         vertex -0.0358687 -0.0120856 0.0413
      endloop
   endfacet
   facet normal -0.947653 -0.319302 0
      outer loop
         vertex -0.0358687 -0.0120856 0
         vertex -0.0358687 -0.0120856 0.0413
         vertex -0.0369651 -0.00813663 0.0413
      endloop
   endfacet
   facet normal -0.976621 -0.21497 0
      outer loop
         vertex -0.0369651 -0.00813663 0
         vertex -0.0369651 -0.00813663 0.0413
         vertex -0.0376281 -0.0040923 0.0413
      endloop
   endfacet
   facet normal -0.994138 -0.108119 0
      outer loop
         vertex -0.0376281 -0.0040923 0
         vertex -0.0376281 -0.0040923 0.0413
         vertex -0.03785 2.31764e-18 0.0413
      endloop
   endfacet
   facet normal -1 0 0
      outer loop
         vertex -0.03785 2.31764e-18 0.0413
         vertex -0.03785 2.31764e-18 0
         vertex -0.0376281 -0.0040923 0
      endloop
   endfacet
   facet normal -0.994138 -0.108119 0
      outer loop
         vertex -0.0376281 -0.0040923 0.0413
         vertex -0.0376281 -0.0040923 0
         vertex -0.0369651 -0.00813663 0
      endloop
   endfacet
   facet normal -0.976621 -0.21497 0
      outer loop
         vertex -0.0369651 -0.00813663 0.0413
         vertex -0.0369651 -0.00813663 0
         vertex -0.0358687 -0.0120856 0
      endloop
   endfacet
   facet normal -0.947653 -0.319302 0
      outer loop
         vertex -0.0358687 -0.0120856 0.0413
         vertex -0.0358687 -0.0120856 0
         vertex -0.0343517 -0.0158928 0
      endloop
   endfacet
   facet normal -0.907575 -0.419889 0
      outer loop
         vertex -0.0343517 -0.0158928 0.0413
         vertex -0.0343517 -0.0158928 0
         vertex -0.032432 -0.0195137 0
      endloop
   endfacet
   facet normal -0.856857 -0.515554 0
      outer loop
         vertex -0.032432 -0.0195137 0.0413
         vertex -0.032432 -0.0195137 0
         vertex -0.0301321 -0.0229058 0
      endloop
   endfacet
   facet normal -0.796093 -0.605174 0
      outer loop
         vertex -0.0301321 -0.0229058 0.0413
         vertex -0.0301321 -0.0229058 0
         vertex -0.0274789 -0.0260294 0
      endloop
   endfacet
   facet normal -0.725995 -0.687699 0
      outer loop
         vertex -0.0274789 -0.0260294 0.0413
         vertex -0.0274789 -0.0260294 0
         vertex -0.0245036 -0.0288478 0
      endloop
   endfacet
   facet normal -0.647386 -0.762162 0
      outer loop
         vertex -0.0245036 -0.0288478 0.0413
         vertex -0.0245036 -0.0288478 0
         vertex -0.0212409 -0.031328 0
      endloop
   endfacet
   facet normal -0.561187 -0.827689 0
      outer loop
         vertex -0.0212409 -0.031328 0.0413
         vertex -0.0212409 -0.031328 0
         vertex -0.0177293 -0.0334409 0
      endloop
   endfacet
   facet normal -0.468408 -0.883512 0
      outer loop
         vertex -0.0177293 -0.0334409 0.0413
         vertex -0.0177293 -0.0334409 0
         vertex -0.0140097 -0.0351618 0
      endloop
   endfacet
   facet normal -0.370138 -0.928977 0
      outer loop
         vertex -0.0140097 -0.0351618 0.0413
         vertex -0.0140097 -0.0351618 0
         vertex -0.0101259 -0.0364704 0
      endloop
   endfacet
   facet normal -0.267528 -0.96355 0
      outer loop
         vertex -0.0101259 -0.0364704 0.0413
         vertex -0.0101259 -0.0364704 0
         vertex -0.00612345 -0.0373514 0
      endloop
   endfacet
   facet normal -0.161782 -0.986827 0
      outer loop
         vertex -0.00612345 -0.0373514 0.0413
         vertex -0.00612345 -0.0373514 0
         vertex -0.00204916 -0.0377945 0
      endloop
   endfacet
   facet normal -0.0541389 -0.998533 0
      outer loop
         vertex -0.00204916 -0.0377945 0.0413
         vertex -0.00204916 -0.0377945 0
         vertex 0.00204916 -0.0377945 0
      endloop
   endfacet
   facet normal 0.0541389 -0.998533 0
      outer loop
         vertex 0.00204916 -0.0377945 0.0413
         vertex 0.00204916 -0.0377945 0
         vertex 0.00612345 -0.0373514 0
      endloop
   endfacet
   facet normal 0.161782 -0.986827 0
      outer loop
         vertex 0.00612345 -0.0373514 0.0413
         vertex 0.00612345 -0.0373514 0
         vertex 0.0101259 -0.0364704 0
      endloop
   endfacet
   facet normal 0.267528 -0.96355 0
      outer loop
         vertex 0.0101259 -0.0364704 0.0413
         vertex 0.0101259 -0.0364704 0
         vertex 0.0140097 -0.0351618 0
      endloop
   endfacet
   facet normal 0.370138 -0.928977 0
      outer loop
         vertex 0.0140097 -0.0351618 0.0413
         vertex 0.0140097 -0.0351618 0
         vertex 0.0177293 -0.0334409 0
      endloop
   endfacet
   facet normal 0.468408 -0.883512 0
      outer loop
         vertex 0.0177293 -0.0334409 0.0413
         vertex 0.0177293 -0.0334409 0
         vertex 0.0212409 -0.031328 0
      endloop
   endfacet
   facet normal 0.561187 -0.827689 0
      outer loop
         vertex 0.0212409 -0.031328 0.0413
         vertex 0.0212409 -0.031328 0
         vertex 0.0245036 -0.0288478 0
      endloop
   endfacet
   facet normal 0.647386 -0.762162 0
      outer loop
         vertex 0.0245036 -0.0288478 0.0413
         vertex 0.0245036 -0.0288478 0
         vertex 0.0274789 -0.0260294 0
      endloop
   endfacet
   facet normal 0.725995 -0.687699 0
      outer loop
         vertex 0.0274789 -0.0260294 0.0413
         vertex 0.0274789 -0.0260294 0
         vertex 0.0301321 -0.0229058 0
      endloop
   endfacet
   facet normal 0.796093 -0.605174 0
      outer loop
         vertex 0.0301321 -0.0229058 0.0413
         vertex 0.0301321 -0.0229058 0
         vertex 0.032432 -0.0195137 0
      endloop
   endfacet
   facet normal 0.856857 -0.515554 0
      outer loop
         vertex 0.032432 -0.0195137 0.0413
         vertex 0.032432 -0.0195137 0
         vertex 0.0343517 -0.0158928 0
      endloop
   endfacet
   facet normal 0.907575 -0.419889 0
      outer loop
         vertex 0.0343517 -0.0158928 0.0413
         vertex 0.0343517 -0.0158928 0
         vertex 0.0358687 -0.0120856 0
      endloop
   endfacet
   facet normal 0.947653 -0.319302 0
      outer loop
         vertex 0.0358687 -0.0120856 0.0413
         vertex 0.0358687 -0.0120856 0
         vertex 0.0369651 -0.00813663 0
      endloop
   endfacet
   facet normal 0.976621 -0.21497 0
      outer loop
         vertex 0.0369651 -0.00813663 0.0413
         vertex 0.0369651 -0.00813663 0
         vertex 0.0376281 -0.0040923 0
      endloop
   endfacet
   facet normal 0.994138 -0.108119 0
      outer loop
         vertex 0.0376281 -0.0040923 0.0413
         vertex 0.0376281 -0.0040923 0
         vertex 0.03785 6.95293e-18 0
      endloop
   endfacet
   facet normal 1 1.22465e-16 0
      outer loop
         vertex 0.03785 1.62235e-17 0.0413
         vertex 0.03785 6.95293e-18 0
         vertex 0.0376281 0.0040923 0
      endloop
   endfacet
   facet normal 0.994138 0.108119 0
      outer loop
         vertex 0.0376281 0.0040923 0.0413
         vertex 0.0376281 0.0040923 0
         vertex 0.0369651 0.00813663 0
      endloop
   endfacet
   facet normal 0.976621 0.21497 0
      outer loop
         vertex 0.0369651 0.00813663 0.0413
         vertex 0.0369651 0.00813663 0
         vertex 0.0358687 0.0120856 0
      endloop
   endfacet
   facet normal 0.947653 0.319302 0
      outer loop
         vertex 0.0358687 0.0120856 0.0413
         vertex 0.0358687 0.0120856 0
         vertex 0.0343517 0.0158928 0
      endloop
   endfacet
   facet normal 0.907575 0.419889 0
      outer loop
         vertex 0.0343517 0.0158928 0.0413
         vertex 0.0343517 0.0158928 0
         vertex 0.032432 0.0195137 0
      endloop
   endfacet
   facet normal 0.856857 0.515554 0
      outer loop
         vertex 0.032432 0.0195137 0.0413
         vertex 0.032432 0.0195137 0
         vertex 0.0301321 0.0229058 0
      endloop
   endfacet
   facet normal 0.796093 0.605174 0
      outer loop
         vertex 0.0301321 0.0229058 0.0413
         vertex 0.0301321 0.0229058 0
         vertex 0.0274789 0.0260294 0
      endloop
   endfacet
   facet normal 0.725995 0.687699 0
      outer loop
         vertex 0.0274789 0.0260294 0.0413
         vertex 0.0274789 0.0260294 0
         vertex 0.0245036 0.0288478 0
      endloop
   endfacet
   facet normal 0.647386 0.762162 0
      outer loop
         vertex 0.0245036 0.0288478 0.0413
         vertex 0.0245036 0.0288478 0
         vertex 0.0212409 0.031328 0
      endloop
   endfacet
   facet normal 0.561187 0.827689 0
      outer loop
         vertex 0.0212409 0.031328 0.0413
         vertex 0.0212409 0.031328 0
         vertex 0.0177293 0.0334409 0
      endloop
   endfacet
   facet normal 0.468408 0.883512 0
      outer loop
         vertex 0.0177293 0.0334409 0.0413
         vertex 0.0177293 0.0334409 0
         vertex 0.0140097 0.0351618 0
      endloop
   endfacet
   facet normal 0.370138 0.928977 0
      outer loop
         vertex 0.0140097 0.0351618 0.0413
         vertex 0.0140097 0.0351618 0
         vertex 0.0101259 0.0364704 0
      endloop
   endfacet
   facet normal 0.267528 0.96355 0
      outer loop
         vertex 0.0101259 0.0364704 0.0413
         vertex 0.0101259 0.0364704 0
         vertex 0.00612345 0.0373514 0
      endloop
   endfacet
   facet normal 0.161782 0.986827 0
      outer loop
         vertex 0.00612345 0.0373514 0.0413
         vertex 0.00612345 0.0373514 0
         vertex 0.00204916 0.0377945 0
      endloop
   endfacet
   facet normal 0.0541389 0.998533 0
      outer loop
         vertex 0.00204916 0.0377945 0.0413
         vertex 0.00204916 0.0377945 0
         vertex -0.00204916 0.0377945 0
      endloop
   endfacet
   facet normal -0.0541389 0.998533 0
      outer loop
         vertex -0.00204916 0.0377945 0.0413
         vertex -0.00204916 0.0377945 0
         vertex -0.00612345 0.0373514 0
      endloop
   endfacet
   facet normal -0.161782 0.986827 0
      outer loop
         vertex -0.00612345 0.0373514 0.0413
         vertex -0.00612345 0.0373514 0
         vertex -0.0101259 0.0364704 0
      endloop
   endfacet
   facet normal -0.267528 0.96355 0
      outer loop
         vertex -0.0101259 0.0364704 0.0413
         vertex -0.0101259 0.0364704 0
         vertex -0.0140097 0.0351618 0
      endloop
   endfacet
   facet normal -0.370138 0.928977 0
      outer loop
         vertex -0.0140097 0.0351618 0.0413
         vertex -0.0140097 0.0351618 0
         vertex -0.0177293 0.0334409 0
      endloop
   endfacet
   facet normal -0.468408 0.883512 0
      outer loop
         vertex -0.0177293 0.0334409 0.0413
         vertex -0.0177293 0.0334409 0
         vertex -0.0212409 0.031328 0
      endloop
   endfacet
   facet normal -0.561187 0.827689 0
      outer loop
         vertex -0.0212409 0.031328 0.0413
         vertex -0.0212409 0.031328 0
         vertex -0.0245036 0.0288478 0
      endloop
   endfacet
   facet normal -0.647386 0.762162 0
      outer loop
         vertex -0.0245036 0.0288478 0.0413
         vertex -0.0245036 0.0288478 0
         vertex -0.0274789 0.0260294 0
      endloop
   endfacet
   facet normal -0.725995 0.687699 0
      outer loop
         vertex -0.0274789 0.0260294 0.0413
         vertex -0.0274789 0.0260294 0
         vertex -0.0301321 0.0229058 0
      endloop
   endfacet
   facet normal -0.796093 0.605174 0
      outer loop
         vertex -0.0301321 0.0229058 0.0413
         vertex -0.0301321 0.0229058 0
         vertex -0.032432 0.0195137 0
      endloop
   endfacet
   facet normal -0.856857 0.515554 0
      outer loop
         vertex -0.032432 0.0195137 0.0413
         vertex -0.032432 0.0195137 0
         vertex -0.0343517 0.0158928 0
      endloop
   endfacet
   facet normal -0.907575 0.419889 0
      outer loop
         vertex -0.0343517 0.0158928 0.0413
         vertex -0.0343517 0.0158928 0
         vertex -0.0358687 0.0120856 0
      endloop
   endfacet
   facet normal -0.947653 0.319302 0
      outer loop
         vertex -0.0358687 0.0120856 0.0413
         vertex -0.0358687 0.0120856 0
         vertex -0.0369651 0.00813663 0
      endloop
   endfacet
   facet normal -0.976621 0.21497 0
      outer loop
         vertex -0.0369651 0.00813663 0.0413
         vertex -0.0369651 0.00813663 0
         vertex -0.0376281 0.0040923 0
      endloop
   endfacet
   facet normal -0.994138 0.108119 0
      outer loop
         vertex -0.0376281 0.0040923 0.0413
         vertex -0.0376281 0.0040923 0
         vertex -0.03785 2.31764e-18 0
      endloop
   endfacet
   facet normal 0 0 -1
      outer loop
         vertex 0 2.31764e-18 0
         vertex 0.0376281 -0.0040923 0
         vertex 0.0369651 -0.00813663 0
      endloop
   endfacet
   facet normal 0 0 -1
      outer loop
         vertex 0.0369651 -0.00813663 0
         vertex 0.0358687 -0.0120856 0
         vertex 0 2.31764e-18 0
      endloop
   endfacet
   facet normal 0 0 -1
      outer loop
         vertex 0.0358687 -0.0120856 0
         vertex 0.0343517 -0.0158928 0
         vertex 0 2.31764e-18 0
      endloop
   endfacet
   facet normal 0 0 -1
      outer loop
         vertex 0.0343517 -0.0158928 0
         vertex 0.032432 -0.0195137 0
         vertex 0 2.31764e-18 0
      endloop
   endfacet
   facet normal 0 0 -1
      outer loop
         vertex 0.032432 -0.0195137 0
         vertex 0.0301321 -0.0229058 0
         vertex 0 2.31764e-18 0
      endloop
   endfacet
   facet normal 0 0 -1
      outer loop
         vertex 0.0301321 -0.0229058 0
         vertex 0.0274789 -0.0260294 0
         vertex 0 2.31764e-18 0
      endloop
   endfacet
   facet normal 0 0 -1
      outer loop
         vertex 0.0274789 -0.0260294 0
         vertex 0.0245036 -0.0288478 0
         vertex 0 2.31764e-18 0
      endloop
   endfacet
   facet normal 0 0 -1
      outer loop
         vertex 0.0245036 -0.0288478 0
         vertex 0.0212409 -0.031328 0
         vertex 0 2.31764e-18 0
      endloop
   endfacet
   facet normal 0 0 -1
      outer loop
         vertex 0.0212409 -0.031328 0
         vertex 0.0177293 -0.0334409 0
         vertex 0 2.31764e-18 0
      endloop
   endfacet
   facet normal 0 0 -1
      outer loop
         vertex 0.0177293 -0.0334409 0
         vertex 0.0140097 -0.0351618 0
         vertex 0 2.31764e-18 0
      endloop
   endfacet
   facet normal 0 0 -1
      outer loop
         vertex 0.0140097 -0.0351618 0
         vertex 0.0101259 -0.0364704 0
         vertex 0 2.31764e-18 0
      endloop
   endfacet
   facet normal 0 0 -1
      outer loop
         vertex 0.0101259 -0.0364704 0
         vertex 0.00612345 -0.0373514 0
         vertex 0 2.31764e-18 0
      endloop
   endfacet
   facet normal 0 0 -1
      outer loop
         vertex 0.00612345 -0.0373514 0
         vertex 0.00204916 -0.0377945 0
         vertex 0 2.31764e-18 0
      endloop
   endfacet
   facet normal 0 0 -1
      outer loop
         vertex 0.00204916 -0.0377945 0
         vertex -0.00204916 -0.0377945 0
         vertex 0 2.31764e-18 0
      endloop
   endfacet
   facet normal 0 0 -1
      outer loop
         vertex -0.00204916 -0.0377945 0
         vertex -0.00612345 -0.0373514 0
         vertex 0 2.31764e-18 0
      endloop
   endfacet
   facet normal 0 0 -1
      outer loop
         vertex -0.00612345 -0.0373514 0
         vertex -0.0101259 -0.0364704 0
         vertex 0 2.31764e-18 0
      endloop
   endfacet
   facet normal 0 0 -1
      outer loop
         vertex -0.0101259 -0.0364704 0
         vertex -0.0140097 -0.0351618 0
         vertex 0 2.31764e-18 0
      endloop
   endfacet
   facet normal 0 0 -1
      outer loop
         vertex -0.0140097 -0.0351618 0
         vertex -0.0177293 -0.0334409 0
         vertex 0 2.31764e-18 0
      endloop
   endfacet
   facet normal 0 0 -1
      outer loop
         vertex -0.0177293 -0.0334409 0
         vertex -0.0212409 -0.031328 0
         vertex 0 2.31764e-18 0
      endloop
   endfacet
   facet normal 0 0 -1
      outer loop
         vertex -0.0212409 -0.031328 0
         vertex -0.0245036 -0.0288478 0
         vertex 0 2.31764e-18 0
      endloop
   endfacet
   facet normal 0 0 -1
      outer loop
         vertex -0.0245036 -0.0288478 0
         vertex -0.0274789 -0.0260294 0
         vertex 0 2.31764e-18 0
      endloop
   endfacet
   facet normal 0 0 -1
      outer loop
         vertex -0.0274789 -0.0260294 0
         vertex -0.0301321 -0.0229058 0
         vertex 0 2.31764e-18 0
      endloop
   endfacet
   facet normal 0 0 -1
      outer loop
         vertex -0.0301321 -0.0229058 0
         vertex -0.032432 -0.0195137 0
         vertex 0 2.31764e-18 0
      endloop
   endfacet
   facet normal 0 0 -1
      outer loop
         vertex -0.032432 -0.0195137 0
         vertex -0.0343517 -0.0158928 0
         vertex 0 2.31764e-18 0
      endloop
   endfacet
   facet normal 0 0 -1
      outer loop
         vertex -0.0343517 -0.0158928 0
         vertex -0.0358687 -0.0120856 0
         vertex 0 2.31764e-18 0
      endloop
   endfacet
   facet normal 0 0 -1
      outer loop
         vertex -0.0358687 -0.0120856 0
         vertex -0.0369651 -0.00813663 0
         vertex 0 2.31764e-18 0
      endloop
   endfacet
   facet normal 0 0 -1
      outer loop
         vertex -0.0369651 -0.00813663 0
         vertex -0.0376281 -0.0040923 0
         vertex 0 2.31764e-18 0
      endloop
   endfacet
   facet normal 0 0 -1
      outer loop
         vertex -0.0376281 -0.0040923 0
         vertex -0.03785 2.31764e-18 0
         vertex 0 2.31764e-18 0
      endloop
   endfacet
   facet normal 0 0 -1
      outer loop
         vertex -0.03785 2.31764e-18 0
         vertex -0.0376281 0.0040923 0
         vertex 0 2.31764e-18 0
      endloop
   endfacet
   facet normal 0 0 -1
      outer loop
         vertex -0.0376281 0.0040923 0
         vertex -0.0369651 0.00813663 0
         vertex 0 2.31764e-18 0
      endloop
   endfacet
   facet normal 0 0 -1
      outer loop
         vertex -0.0369651 0.00813663 0
         vertex -0.0358687 0.0120856 0
         vertex 0 2.31764e-18 0
      endloop
   endfacet
   facet normal 0 0 -1
      outer loop
         vertex -0.0358687 0.0120856 0
         vertex -0.0343517 0.0158928 0
         vertex 0 2.31764e-18 0
      endloop
   endfacet
   facet normal 0 0 -1
      outer loop
         vertex -0.0343517 0.0158928 0
         vertex -0.032432 0.0195137 0
         vertex 0 2.31764e-18 0
      endloop
   endfacet
   facet normal 0 0 -1
      outer loop
         vertex -0.032432 0.0195137 0
         vertex -0.0301321 0.0229058 0
         vertex 0 2.31764e-18 0
      endloop
   endfacet
   facet normal 0 0 -1
      outer loop
         vertex -0.0301321 0.0229058 0
         vertex -0.0274789 0.0260294 0
         vertex 0 2.31764e-18 0
      endloop
   endfacet
   facet normal 0 0 -1
      outer loop
         vertex -0.0274789 0.0260294 0
         vertex -0.0245036 0.0288478 0
         vertex 0 2.31764e-18 0
      endloop
   endfacet
   facet normal 0 0 -1
      outer loop
         vertex -0.0245036 0.0288478 0
         vertex -0.0212409 0.031328 0
         vertex 0 2.31764e-18 0
      endloop
   endfacet
   facet normal 0 0 -1
      outer loop
         vertex -0.0212409 0.031328 0
         vertex -0.0177293 0.0334409 0
         vertex 0 2.31764e-18 0
      endloop
   endfacet
   facet normal 0 0 -1
      outer loop
         vertex -0.0177293 0.0334409 0
         vertex -0.0140097 0.0351618 0
         vertex 0 2.31764e-18 0
      endloop
   endfacet
   facet normal 0 0 -1
      outer loop
         vertex -0.0140097 0.0351618 0
         vertex -0.0101259 0.0364704 0
         vertex 0 2.31764e-18 0
      endloop
   endfacet
   facet normal 0 0 -1
      outer loop
         vertex -0.0101259 0.0364704 0
         vertex -0.00612345 0.0373514 0
         vertex 0 2.31764e-18 0
      endloop
   endfacet
   facet normal 0 0 -1
      outer loop
         vertex -0.00612345 0.0373514 0
         vertex -0.00204916 0.0377945 0
         vertex 0 2.31764e-18 0
      endloop
   endfacet
   facet normal 0 0 -1
      outer loop
         vertex -0.00204916 0.0377945 0
         vertex 0.00204916 0.0377945 0
         vertex 0 2.31764e-18 0
      endloop
   endfacet
   facet normal 0 0 -1
      outer loop
         vertex 0.00204916 0.0377945 0
         vertex 0.00612345 0.0373514 0
         vertex 0 2.31764e-18 0
      endloop
   endfacet
   facet normal 0 0 -1
      outer loop
         vertex 0.00612345 0.0373514 0
         vertex 0.0101259 0.0364704 0
         vertex 0 2.31764e-18 0
      endloop
   endfacet
   facet normal 0 0 -1
      outer loop
         vertex 0.0101259 0.0364704 0
         vertex 0.0140097 0.0351618 0
         vertex 0 2.31764e-18 0
      endloop
   endfacet
   facet normal 0 0 -1
      outer loop
         vertex 0.0140097 0.0351618 0
         vertex 0.0177293 0.0334409 0
         vertex 0 2.31764e-18 0
      endloop
   endfacet
   facet normal 0 0 -1
      outer loop
         vertex 0.0177293 0.0334409 0
         vertex 0.0212409 0.031328 0
         vertex 0 2.31764e-18 0
      endloop
   endfacet
   facet normal 0 0 -1
      outer loop
         vertex 0.0212409 0.031328 0
         vertex 0.0245036 0.0288478 0
         vertex 0 2.31764e-18 0
      endloop
   endfacet
   facet normal 0 0 -1
      outer loop
         vertex 0.0245036 0.0288478 0
         vertex 0.0274789 0.0260294 0
         vertex 0 2.31764e-18 0
      endloop
   endfacet
   facet normal 0 0 -1
      outer loop
         vertex 0.0274789 0.0260294 0
         vertex 0.0301321 0.0229058 0
         vertex 0 2.31764e-18 0
      endloop
   endfacet
   facet normal 0 0 -1
      outer loop
         vertex 0.0301321 0.0229058 0
         vertex 0.032432 0.0195137 0
         vertex 0 2.31764e-18 0
      endloop
   endfacet
   facet normal 0 0 -1
      outer loop
         vertex 0.032432 0.0195137 0
         vertex 0.0343517 0.0158928 0
         vertex 0 2.31764e-18 0
      endloop
   endfacet
   facet normal 0 0 -1
      outer loop
         vertex 0.0343517 0.0158928 0
         vertex 0.0358687 0.0120856 0
         vertex 0 2.31764e-18 0
      endloop
   endfacet
   facet normal 0 0 -1
      outer loop
         vertex 0.0358687 0.0120856 0
         vertex 0.0369651 0.00813663 0
         vertex 0 2.31764e-18 0
      endloop
   endfacet
   facet normal 0 0 -1
      outer loop
         vertex 0.0369651 0.00813663 0
         vertex 0.0376281 0.0040923 0
         vertex 0 2.31764e-18 0
      endloop
   endfacet
   facet normal 0 0 -1
      outer loop
         vertex 0.0376281 0.0040923 0
         vertex 0.03785 6.95293e-18 0
         vertex 0 2.31764e-18 0
      endloop
   endfacet
   facet normal 0 0 -1
      outer loop
         vertex 0.03785 6.95293e-18 0
         vertex 0.0376281 -0.0040923 0
         vertex 0 2.31764e-18 0
      endloop
   endfacet
endsolid Part 1. Units = meters