solid Part 3. STL generated by ONSHAPE BY PTC INC, 1.216. Units = meters
   facet normal -0.0121165 0.765808 -0.642955
      outer loop
         vertex 0.000842932 0.0752164 0.0148719
         vertex 0.000842931 0.0754349 0.0151322
         vertex 0.000854294 0.0754347 0.0151322
      endloop
   endfacet
   facet normal 0.105483 0.759704 -0.641656
      outer loop
         vertex 0.000911228 0.075431 0.0151329
         vertex 0.000892169 0.0752137 0.0148725
         vertex 0.000852399 0.0752162 0.0148719
      endloop
   endfacet
   facet normal 0.199252 0.743612 -0.638232
      outer loop
         vertex 0.000967427 0.0754214 0.015135
         vertex 0.000931426 0.0752069 0.0148739
         vertex 0.000892169 0.0752137 0.0148725
      endloop
   endfacet
   facet normal 0.290704 0.717738 -0.632727
      outer loop
         vertex 0.00102224 0.0754059 0.0151383
         vertex 0.000969713 0.0751961 0.0148762
         vertex 0.000931426 0.0752069 0.0148739
      endloop
   endfacet
   facet normal 0.378776 0.682383 -0.625205
      outer loop
         vertex 0.00107502 0.0753847 0.0151428
         vertex 0.00100659 0.0751813 0.0148794
         vertex 0.000969713 0.0751961 0.0148762
      endloop
   endfacet
   facet normal 0.462445 0.63796 -0.615753
      outer loop
         vertex 0.00112517 0.0753581 0.0151485
         vertex 0.00104161 0.0751627 0.0148833
         vertex 0.00100659 0.0751813 0.0148794
      endloop
   endfacet
   facet normal 0.540737 0.584983 -0.604482
      outer loop
         vertex 0.00117209 0.0753263 0.0151552
         vertex 0.00107439 0.0751405 0.014888
         vertex 0.00104161 0.0751627 0.0148833
      endloop
   endfacet
   facet normal 0.612743 0.52407 -0.591521
      outer loop
         vertex 0.00121525 0.0752898 0.015163
         vertex 0.00110454 0.075115 0.0148935
         vertex 0.00107439 0.0751405 0.014888
      endloop
   endfacet
   facet normal 0.677625 0.455927 -0.577023
      outer loop
         vertex 0.00125414 0.075249 0.0151717
         vertex 0.0011317 0.0750865 0.0148995
         vertex 0.00110454 0.075115 0.0148935
      endloop
   endfacet
   facet normal 0.734628 0.381348 -0.561155
      outer loop
         vertex 0.0012883 0.0752043 0.0151812
         vertex 0.00115557 0.0750553 0.0149062
         vertex 0.0011317 0.0750865 0.0148995
      endloop
   endfacet
   facet normal 0.783091 0.301199 -0.544102
      outer loop
         vertex 0.00131735 0.0751562 0.0151914
         vertex 0.00117586 0.0750217 0.0149133
         vertex 0.00115557 0.0750553 0.0149062
      endloop
   endfacet
   facet normal 0.82245 0.216413 -0.526062
      outer loop
         vertex 0.00134094 0.0751054 0.0152022
         vertex 0.00119233 0.0749862 0.0149209
         vertex 0.00117586 0.0750217 0.0149133
      endloop
   endfacet
   facet normal 0.852247 0.127975 -0.507246
      outer loop
         vertex 0.00135879 0.0750524 0.0152135
         vertex 0.00120481 0.0749492 0.0149287
         vertex 0.00119233 0.0749862 0.0149209
      endloop
   endfacet
   facet normal 0.872135 0.0369128 -0.487871
      outer loop
         vertex 0.00137071 0.0749978 0.0152251
         vertex 0.00121314 0.0749111 0.0149369
         vertex 0.00120481 0.0749492 0.0149287
      endloop
   endfacet
   facet normal 0.872135 0.0369128 -0.487871
      outer loop
         vertex 0.00137071 0.0749978 0.0152251
         vertex 0.00137255 0.0749868 0.0152274
         vertex 0.00121469 0.0749019 0.0149388
      endloop
   endfacet
   facet normal 0.875373 0.0150308 -0.483215
      outer loop
         vertex 0.00121469 0.0749019 0.0149388
         vertex 0.00121314 0.0749111 0.0149369
         vertex 0.00137071 0.0749978 0.0152251
      endloop
   endfacet
   facet normal 0.852247 0.127975 -0.507246
      outer loop
         vertex 0.00120481 0.0749492 0.0149287
         vertex 0.00135879 0.0750524 0.0152135
         vertex 0.00137071 0.0749978 0.0152251
      endloop
   endfacet
   facet normal 0.82245 0.216413 -0.526062
      outer loop
         vertex 0.00119233 0.0749862 0.0149209
         vertex 0.00134094 0.0751054 0.0152022
         vertex 0.00135879 0.0750524 0.0152135
      endloop
   endfacet
   facet normal 0.783091 0.301199 -0.544102
      outer loop
         vertex 0.00117586 0.0750217 0.0149133
         vertex 0.00131735 0.0751562 0.0151914
         vertex 0.00134094 0.0751054 0.0152022
      endloop
   endfacet
   facet normal 0.734628 0.381348 -0.561155
      outer loop
         vertex 0.00115557 0.0750553 0.0149062
         vertex 0.0012883 0.0752043 0.0151812
         vertex 0.00131735 0.0751562 0.0151914
      endloop
   endfacet
   facet normal 0.677625 0.455927 -0.577023
      outer loop
         vertex 0.0011317 0.0750865 0.0148995
         vertex 0.00125414 0.075249 0.0151717
         vertex 0.0012883 0.0752043 0.0151812
      endloop
   endfacet
   facet normal 0.612743 0.52407 -0.591521
      outer loop
         vertex 0.00110454 0.075115 0.0148935
         vertex 0.00121525 0.0752898 0.015163
         vertex 0.00125414 0.075249 0.0151717
      endloop
   endfacet
   facet normal 0.540737 0.584983 -0.604482
      outer loop
         vertex 0.00107439 0.0751405 0.014888
         vertex 0.00117209 0.0753263 0.0151552
         vertex 0.00121525 0.0752898 0.015163
      endloop
   endfacet
   facet normal 0.462445 0.63796 -0.615753
      outer loop
         vertex 0.00104161 0.0751627 0.0148833
         vertex 0.00112517 0.0753581 0.0151485
         vertex 0.00117209 0.0753263 0.0151552
      endloop
   endfacet
   facet normal 0.378776 0.682383 -0.625205
      outer loop
         vertex 0.00100659 0.0751813 0.0148794
         vertex 0.00107502 0.0753847 0.0151428
         vertex 0.00112517 0.0753581 0.0151485
      endloop
   endfacet
   facet normal 0.290704 0.717738 -0.632727
      outer loop
         vertex 0.000969713 0.0751961 0.0148762
         vertex 0.00102224 0.0754059 0.0151383
         vertex 0.00107502 0.0753847 0.0151428
      endloop
   endfacet
   facet normal 0.199252 0.743612 -0.638232
      outer loop
         vertex 0.000931426 0.0752069 0.0148739
         vertex 0.000967427 0.0754214 0.015135
         vertex 0.00102224 0.0754059 0.0151383
      endloop
   endfacet
   facet normal 0.105483 0.759704 -0.641656
      outer loop
         vertex 0.000892169 0.0752137 0.0148725
         vertex 0.000911228 0.075431 0.0151329
         vertex 0.000967427 0.0754214 0.015135
      endloop
   endfacet
   facet normal 0.0104883 0.765829 -0.642959
      outer loop
         vertex 0.000852399 0.0752162 0.0148719
         vertex 0.000854294 0.0754347 0.0151322
         vertex 0.000911228 0.075431 0.0151329
      endloop
   endfacet
   facet normal 0.0104883 0.765829 -0.642959
      outer loop
         vertex 0.000854294 0.0754347 0.0151322
         vertex 0.000852399 0.0752162 0.0148719
         vertex 0.000842932 0.0752164 0.0148719
      endloop
   endfacet
   facet normal 0 0.765916 -0.642941
      outer loop
         vertex 0.000842932 0.0752164 0.0148719
         vertex -0.000842932 0.0752164 0.0148719
         vertex -0.000842932 0.0754349 0.0151321
      endloop
   endfacet
   facet normal 0 0.765916 -0.642941
      outer loop
         vertex -0.000842932 0.0754349 0.0151321
         vertex 0.000842931 0.0754349 0.0151322
         vertex 0.000842932 0.0752164 0.0148719
      endloop
   endfacet
   facet normal -0.875377 0.0150018 -0.483209
      outer loop
         vertex -0.00121468 0.0749019 0.0149388
         vertex -0.00137258 0.0749869 0.0152275
         vertex -0.0013707 0.0749978 0.0152251
      endloop
   endfacet
   facet normal -0.852254 0.127947 -0.50724
      outer loop
         vertex -0.00135879 0.0750524 0.0152135
         vertex -0.0012048 0.0749492 0.0149287
         vertex -0.00121312 0.0749111 0.0149369
      endloop
   endfacet
   facet normal -0.822461 0.216386 -0.526057
      outer loop
         vertex -0.00134093 0.0751054 0.0152022
         vertex -0.00119233 0.0749862 0.0149209
         vertex -0.0012048 0.0749492 0.0149287
      endloop
   endfacet
   facet normal -0.783105 0.301174 -0.544097
      outer loop
         vertex -0.00131734 0.0751562 0.0151914
         vertex -0.00117585 0.0750217 0.0149133
         vertex -0.00119233 0.0749862 0.0149209
      endloop
   endfacet
   facet normal -0.734645 0.381324 -0.56115
      outer loop
         vertex -0.0012883 0.0752042 0.0151812
         vertex -0.00115556 0.0750553 0.0149062
         vertex -0.00117585 0.0750217 0.0149133
      endloop
   endfacet
   facet normal -0.677644 0.455905 -0.577018
      outer loop
         vertex -0.00125413 0.0752489 0.0151717
         vertex -0.0011317 0.0750865 0.0148995
         vertex -0.00115556 0.0750553 0.0149062
      endloop
   endfacet
   facet normal -0.612764 0.524049 -0.591517
      outer loop
         vertex -0.00121525 0.0752898 0.015163
         vertex -0.00110453 0.075115 0.0148935
         vertex -0.0011317 0.0750865 0.0148995
      endloop
   endfacet
   facet normal -0.540761 0.584965 -0.604478
      outer loop
         vertex -0.00117209 0.0753263 0.0151552
         vertex -0.00107439 0.0751405 0.014888
         vertex -0.00110453 0.075115 0.0148935
      endloop
   endfacet
   facet normal -0.46247 0.637944 -0.61575
      outer loop
         vertex -0.00112517 0.0753581 0.0151485
         vertex -0.00104161 0.0751627 0.0148833
         vertex -0.00107439 0.0751405 0.014888
      endloop
   endfacet
   facet normal -0.378803 0.682371 -0.625202
      outer loop
         vertex -0.00107503 0.0753847 0.0151428
         vertex -0.00100658 0.0751813 0.0148794
         vertex -0.00104161 0.0751627 0.0148833
      endloop
   endfacet
   facet normal -0.290732 0.717728 -0.632725
      outer loop
         vertex -0.00102224 0.0754059 0.0151383
         vertex -0.000969713 0.0751961 0.0148762
         vertex -0.00100658 0.0751813 0.0148794
      endloop
   endfacet
   facet normal -0.199281 0.743605 -0.638231
      outer loop
         vertex -0.000967432 0.0754214 0.015135
         vertex -0.000931426 0.0752069 0.0148739
         vertex -0.000969713 0.0751961 0.0148762
      endloop
   endfacet
   facet normal -0.105513 0.759701 -0.641656
      outer loop
         vertex -0.000911233 0.075431 0.0151329
         vertex -0.000892169 0.0752137 0.0148725
         vertex -0.000931426 0.0752069 0.0148739
      endloop
   endfacet
   facet normal -0.0105182 0.765828 -0.642959
      outer loop
         vertex -0.000854299 0.0754347 0.0151322
         vertex -0.000852398 0.0752162 0.0148719
         vertex -0.000892169 0.0752137 0.0148725
      endloop
   endfacet
   facet normal -0.0105182 0.765828 -0.642959
      outer loop
         vertex -0.000854299 0.0754347 0.0151322
         vertex -0.000842932 0.0754349 0.0151321
         vertex -0.000842932 0.0752164 0.0148719
      endloop
   endfacet
   facet normal 0.0120866 0.765809 -0.642955
      outer loop
         vertex -0.000842932 0.0752164 0.0148719
         vertex -0.000852398 0.0752162 0.0148719
         vertex -0.000854299 0.0754347 0.0151322
      endloop
   endfacet
   facet normal -0.105513 0.759701 -0.641656
      outer loop
         vertex -0.000892169 0.0752137 0.0148725
         vertex -0.000911233 0.075431 0.0151329
         vertex -0.000854299 0.0754347 0.0151322
      endloop
   endfacet
   facet normal -0.199281 0.743605 -0.638231
      outer loop
         vertex -0.000931426 0.0752069 0.0148739
         vertex -0.000967432 0.0754214 0.015135
         vertex -0.000911233 0.075431 0.0151329
      endloop
   endfacet
   facet normal -0.290732 0.717728 -0.632725
      outer loop
         vertex -0.000969713 0.0751961 0.0148762
         vertex -0.00102224 0.0754059 0.0151383
         vertex -0.000967432 0.0754214 0.015135
      endloop
   endfacet
   facet normal -0.378803 0.682371 -0.625202
      outer loop
         vertex -0.00100658 0.0751813 0.0148794
         vertex -0.00107503 0.0753847 0.0151428
         vertex -0.00102224 0.0754059 0.0151383
      endloop
   endfacet
   facet normal -0.46247 0.637944 -0.61575
      outer loop
         vertex -0.00104161 0.0751627 0.0148833
         vertex -0.00112517 0.0753581 0.0151485
         vertex -0.00107503 0.0753847 0.0151428
      endloop
   endfacet
   facet normal -0.540761 0.584965 -0.604478
      outer loop
         vertex -0.00107439 0.0751405 0.014888
         vertex -0.00117209 0.0753263 0.0151552
         vertex -0.00112517 0.0753581 0.0151485
      endloop
   endfacet
   facet normal -0.612764 0.524049 -0.591517
      outer loop
         vertex -0.00110453 0.075115 0.0148935
         vertex -0.00121525 0.0752898 0.015163
         vertex -0.00117209 0.0753263 0.0151552
      endloop
   endfacet
   facet normal -0.677644 0.455905 -0.577018
      outer loop
         vertex -0.0011317 0.0750865 0.0148995
         vertex -0.00125413 0.0752489 0.0151717
         vertex -0.00121525 0.0752898 0.015163
      endloop
   endfacet
   facet normal -0.734645 0.381324 -0.56115
      outer loop
         vertex -0.00115556 0.0750553 0.0149062
         vertex -0.0012883 0.0752042 0.0151812
         vertex -0.00125413 0.0752489 0.0151717
      endloop
   endfacet
   facet normal -0.783105 0.301174 -0.544097
      outer loop
         vertex -0.00117585 0.0750217 0.0149133
         vertex -0.00131734 0.0751562 0.0151914
         vertex -0.0012883 0.0752042 0.0151812
      endloop
   endfacet
   facet normal -0.822461 0.216386 -0.526057
      outer loop
         vertex -0.00119233 0.0749862 0.0149209
         vertex -0.00134093 0.0751054 0.0152022
         vertex -0.00131734 0.0751562 0.0151914
      endloop
   endfacet
   facet normal -0.852254 0.127947 -0.50724
      outer loop
         vertex -0.0012048 0.0749492 0.0149287
         vertex -0.00135879 0.0750524 0.0152135
         vertex -0.00134093 0.0751054 0.0152022
      endloop
   endfacet
   facet normal -0.87214 0.0368839 -0.487865
      outer loop
         vertex -0.00121312 0.0749111 0.0149369
         vertex -0.0013707 0.0749978 0.0152251
         vertex -0.00135879 0.0750524 0.0152135
      endloop
   endfacet
   facet normal -0.87214 0.0368839 -0.487865
      outer loop
         vertex -0.0013707 0.0749978 0.0152251
         vertex -0.00121312 0.0749111 0.0149369
         vertex -0.00121468 0.0749019 0.0149388
      endloop
   endfacet
   facet normal -0.873732 0.0267512 -0.485672
      outer loop
         vertex -0.00121468 0.0749019 0.0149388
         vertex -0.00183768 0.0707189 0.0158288
         vertex -0.00198928 0.0708458 0.0161085
      endloop
   endfacet
   facet normal -0.873732 0.0267512 -0.485672
      outer loop
         vertex -0.00198928 0.0708458 0.0161085
         vertex -0.00137258 0.0749869 0.0152275
         vertex -0.00121468 0.0749019 0.0149388
      endloop
   endfacet
   facet normal -0.688909 0.442477 -0.574124
      outer loop
         vertex -0.00460831 0.0673381 0.0165481
         vertex -0.00473283 0.0674982 0.0168208
         vertex -0.00198928 0.0708458 0.0161085
      endloop
   endfacet
   facet normal -0.688909 0.442477 -0.574124
      outer loop
         vertex -0.00198928 0.0708458 0.0161085
         vertex -0.00183768 0.0707189 0.0158288
         vertex -0.00460831 0.0673381 0.0165481
      endloop
   endfacet
   facet normal -0.710975 -0.60953 -0.350695
      outer loop
         vertex -0.00474871 0.0668636 0.0169558
         vertex -0.0046201 0.0668937 0.0166427
         vertex -0.00461329 0.0668847 0.0166446
      endloop
   endfacet
   facet normal -0.763019 -0.531944 -0.367203
      outer loop
         vertex -0.00477996 0.0669101 0.0169459
         vertex -0.00464193 0.0669262 0.0166358
         vertex -0.0046201 0.0668937 0.0166427
      endloop
   endfacet
   facet normal -0.806249 -0.449342 -0.384778
      outer loop
         vertex -0.00480591 0.0669597 0.0169353
         vertex -0.00466006 0.0669609 0.0166284
         vertex -0.00464193 0.0669262 0.0166358
      endloop
   endfacet
   facet normal -0.840166 -0.36268 -0.403217
      outer loop
         vertex -0.00482627 0.0670118 0.0169243
         vertex -0.00467429 0.0669972 0.0166206
         vertex -0.00466006 0.0669609 0.0166284
      endloop
   endfacet
   facet normal -0.864379 -0.272959 -0.422306
      outer loop
         vertex -0.00484081 0.0670656 0.0169128
         vertex -0.00468445 0.0670349 0.0166126
         vertex -0.00467429 0.0669972 0.0166206
      endloop
   endfacet
   facet normal -0.878607 -0.181213 -0.441827
      outer loop
         vertex -0.00484935 0.0671207 0.0169011
         vertex -0.00469042 0.0670734 0.0166044
         vertex -0.00468445 0.0670349 0.0166126
      endloop
   endfacet
   facet normal -0.882687 -0.0885043 -0.461552
      outer loop
         vertex -0.0048518 0.0671764 0.0168892
         vertex -0.00469213 0.0671123 0.0165962
         vertex -0.00469042 0.0670734 0.0166044
      endloop
   endfacet
   facet normal -0.876571 0.00409749 -0.481255
      outer loop
         vertex -0.00484813 0.067232 0.0168774
         vertex -0.00468956 0.0671511 0.0165879
         vertex -0.00469213 0.0671123 0.0165962
      endloop
   endfacet
   facet normal -0.86033 0.0955225 -0.500707
      outer loop
         vertex -0.00483838 0.0672869 0.0168657
         vertex -0.00468275 0.0671895 0.0165797
         vertex -0.00468956 0.0671511 0.0165879
      endloop
   endfacet
   facet normal -0.834152 0.184715 -0.519684
      outer loop
         vertex -0.00482266 0.0673404 0.0168543
         vertex -0.00467177 0.0672269 0.0165718
         vertex -0.00468275 0.0671895 0.0165797
      endloop
   endfacet
   facet normal -0.798338 0.270644 -0.537967
      outer loop
         vertex -0.00480116 0.067392 0.0168434
         vertex -0.00465675 0.0672629 0.0165641
         vertex -0.00467177 0.0672269 0.0165718
      endloop
   endfacet
   facet normal -0.753303 0.352317 -0.555344
      outer loop
         vertex -0.00477412 0.067441 0.0168329
         vertex -0.00463785 0.0672972 0.0165568
         vertex -0.00465675 0.0672629 0.0165641
      endloop
   endfacet
   facet normal -0.699567 0.428792 -0.571615
      outer loop
         vertex -0.00474186 0.0674869 0.0168232
         vertex -0.00461531 0.0673292 0.01655
         vertex -0.00463785 0.0672972 0.0165568
      endloop
   endfacet
   facet normal -0.699567 0.428792 -0.571615
      outer loop
         vertex -0.00474186 0.0674869 0.0168232
         vertex -0.00473283 0.0674982 0.0168208
         vertex -0.00460831 0.0673381 0.0165481
      endloop
   endfacet
   facet normal -0.682552 0.449738 -0.576072
      outer loop
         vertex -0.00460831 0.0673381 0.0165481
         vertex -0.00461531 0.0673292 0.01655
         vertex -0.00474186 0.0674869 0.0168232
      endloop
   endfacet
   facet normal -0.753303 0.352317 -0.555344
      outer loop
         vertex -0.00463785 0.0672972 0.0165568
         vertex -0.00477412 0.067441 0.0168329
         vertex -0.00474186 0.0674869 0.0168232
      endloop
   endfacet
   facet normal -0.798338 0.270644 -0.537967
      outer loop
         vertex -0.00465675 0.0672629 0.0165641
         vertex -0.00480116 0.067392 0.0168434
         vertex -0.00477412 0.067441 0.0168329
      endloop
   endfacet
   facet normal -0.834152 0.184715 -0.519684
      outer loop
         vertex -0.00467177 0.0672269 0.0165718
         vertex -0.00482266 0.0673404 0.0168543
         vertex -0.00480116 0.067392 0.0168434
      endloop
   endfacet
   facet normal -0.86033 0.0955225 -0.500707
      outer loop
         vertex -0.00468275 0.0671895 0.0165797
         vertex -0.00483838 0.0672869 0.0168657
         vertex -0.00482266 0.0673404 0.0168543
      endloop
   endfacet
   facet normal -0.876571 0.00409749 -0.481255
      outer loop
         vertex -0.00468956 0.0671511 0.0165879
         vertex -0.00484813 0.067232 0.0168774
         vertex -0.00483838 0.0672869 0.0168657
      endloop
   endfacet
   facet normal -0.882687 -0.0885043 -0.461552
      outer loop
         vertex -0.00469213 0.0671123 0.0165962
         vertex -0.0048518 0.0671764 0.0168892
         vertex -0.00484813 0.067232 0.0168774
      endloop
   endfacet
   facet normal -0.878607 -0.181213 -0.441827
      outer loop
         vertex -0.00469042 0.0670734 0.0166044
         vertex -0.00484935 0.0671207 0.0169011
         vertex -0.0048518 0.0671764 0.0168892
      endloop
   endfacet
   facet normal -0.864379 -0.272959 -0.422306
      outer loop
         vertex -0.00468445 0.0670349 0.0166126
         vertex -0.00484081 0.0670656 0.0169128
         vertex -0.00484935 0.0671207 0.0169011
      endloop
   endfacet
   facet normal -0.840166 -0.36268 -0.403217
      outer loop
         vertex -0.00467429 0.0669972 0.0166206
         vertex -0.00482627 0.0670118 0.0169243
         vertex -0.00484081 0.0670656 0.0169128
      endloop
   endfacet
   facet normal -0.806249 -0.449342 -0.384778
      outer loop
         vertex -0.00466006 0.0669609 0.0166284
         vertex -0.00480591 0.0669597 0.0169353
         vertex -0.00482627 0.0670118 0.0169243
      endloop
   endfacet
   facet normal -0.763019 -0.531944 -0.367203
      outer loop
         vertex -0.00464193 0.0669262 0.0166358
         vertex -0.00477996 0.0669101 0.0169459
         vertex -0.00480591 0.0669597 0.0169353
      endloop
   endfacet
   facet normal -0.710975 -0.60953 -0.350695
      outer loop
         vertex -0.0046201 0.0668937 0.0166427
         vertex -0.00474871 0.0668636 0.0169558
         vertex -0.00477996 0.0669101 0.0169459
      endloop
   endfacet
   facet normal -0.694424 -0.630829 -0.346164
      outer loop
         vertex -0.00461329 0.0668847 0.0166446
         vertex -0.00473995 0.0668521 0.0169583
         vertex -0.00474871 0.0668636 0.0169558
      endloop
   endfacet
   facet normal -0.700636 -0.62325 -0.347374
      outer loop
         vertex -0.00461329 0.0668847 0.0166446
         vertex -0.0041649 0.0663129 0.0167663
         vertex -0.00429149 0.0662803 0.0170799
      endloop
   endfacet
   facet normal -0.700636 -0.62325 -0.347374
      outer loop
         vertex -0.00429149 0.0662803 0.0170799
         vertex -0.00473995 0.0668521 0.0169583
         vertex -0.00461329 0.0668847 0.0166446
      endloop
   endfacet
   facet normal 0.462683 -0.833232 -0.302737
      outer loop
         vertex -0.00367472 0.0662207 0.0167859
         vertex -0.00359311 0.066149 0.0171079
         vertex -0.00359995 0.0661453 0.0171086
      endloop
   endfacet
   facet normal 0.367397 -0.882988 -0.29215
      outer loop
         vertex -0.00364831 0.0661206 0.0171139
         vertex -0.00371469 0.0662001 0.0167903
         vertex -0.00368092 0.0662173 0.0167866
      endloop
   endfacet
   facet normal 0.282757 -0.915822 -0.285164
      outer loop
         vertex -0.00369901 0.066101 0.0171181
         vertex -0.0037501 0.0661863 0.0167932
         vertex -0.00371469 0.0662001 0.0167903
      endloop
   endfacet
   facet normal 0.19511 -0.939955 -0.28003
      outer loop
         vertex -0.00375151 0.0660865 0.0171211
         vertex -0.00378676 0.0661762 0.0167953
         vertex -0.0037501 0.0661863 0.0167932
      endloop
   endfacet
   facet normal 0.105388 -0.955131 -0.276801
      outer loop
         vertex -0.00380525 0.0660774 0.0171231
         vertex -0.00382429 0.0661699 0.0167967
         vertex -0.00378676 0.0661762 0.0167953
      endloop
   endfacet
   facet normal 0.0145453 -0.961188 -0.275512
      outer loop
         vertex -0.00385966 0.0660738 0.0171238
         vertex -0.00386229 0.0661674 0.0167972
         vertex -0.00382429 0.0661699 0.0167967
      endloop
   endfacet
   facet normal -0.0764521 -0.958061 -0.276177
      outer loop
         vertex -0.00391417 0.0660757 0.0171234
         vertex -0.00390036 0.0661687 0.0167969
         vertex -0.00386229 0.0661674 0.0167972
      endloop
   endfacet
   facet normal -0.166637 -0.945785 -0.278789
      outer loop
         vertex -0.00396819 0.066083 0.0171219
         vertex -0.00393808 0.0661738 0.0167958
         vertex -0.00390036 0.0661687 0.0167969
      endloop
   endfacet
   facet normal -0.255049 -0.924489 -0.28332
      outer loop
         vertex -0.00402115 0.0660958 0.0171192
         vertex -0.00397506 0.0661827 0.0167939
         vertex -0.00393808 0.0661738 0.0167958
      endloop
   endfacet
   facet normal -0.340748 -0.8944 -0.289722
      outer loop
         vertex -0.00407248 0.0661138 0.0171153
         vertex -0.00401091 0.0661953 0.0167913
         vertex -0.00397506 0.0661827 0.0167939
      endloop
   endfacet
   facet normal -0.422824 -0.855838 -0.297927
      outer loop
         vertex -0.00412164 0.0661369 0.0171104
         vertex -0.00404524 0.0662114 0.0167878
         vertex -0.00401091 0.0661953 0.0167913
      endloop
   endfacet
   facet normal -0.500403 -0.809214 -0.307847
      outer loop
         vertex -0.00416811 0.0661648 0.0171045
         vertex -0.0040777 0.0662309 0.0167837
         vertex -0.00404524 0.0662114 0.0167878
      endloop
   endfacet
   facet normal -0.57266 -0.755022 -0.319377
      outer loop
         vertex -0.00421139 0.0661973 0.0170976
         vertex -0.00410792 0.0662536 0.0167789
         vertex -0.0040777 0.0662309 0.0167837
      endloop
   endfacet
   facet normal -0.638827 -0.69384 -0.332395
      outer loop
         vertex -0.00425102 0.0662339 0.0170898
         vertex -0.0041356 0.0662792 0.0167734
         vertex -0.00410792 0.0662536 0.0167789
      endloop
   endfacet
   facet normal -0.6982 -0.626318 -0.346761
      outer loop
         vertex -0.00428659 0.0662744 0.0170812
         vertex -0.00416044 0.0663074 0.0167674
         vertex -0.0041356 0.0662792 0.0167734
      endloop
   endfacet
   facet normal -0.6982 -0.626318 -0.346761
      outer loop
         vertex -0.00428659 0.0662744 0.0170812
         vertex -0.00429149 0.0662803 0.0170799
         vertex -0.0041649 0.0663129 0.0167663
      endloop
   endfacet
   facet normal -0.708468 -0.613081 -0.349577
      outer loop
         vertex -0.0041649 0.0663129 0.0167663
         vertex -0.00416044 0.0663074 0.0167674
         vertex -0.00428659 0.0662744 0.0170812
      endloop
   endfacet
   facet normal -0.638827 -0.69384 -0.332395
      outer loop
         vertex -0.0041356 0.0662792 0.0167734
         vertex -0.00425102 0.0662339 0.0170898
         vertex -0.00428659 0.0662744 0.0170812
      endloop
   endfacet
   facet normal -0.57266 -0.755022 -0.319377
      outer loop
         vertex -0.00410792 0.0662536 0.0167789
         vertex -0.00421139 0.0661973 0.0170976
         vertex -0.00425102 0.0662339 0.0170898
      endloop
   endfacet
   facet normal -0.500403 -0.809214 -0.307847
      outer loop
         vertex -0.0040777 0.0662309 0.0167837
         vertex -0.00416811 0.0661648 0.0171045
         vertex -0.00421139 0.0661973 0.0170976
      endloop
   endfacet
   facet normal -0.422824 -0.855838 -0.297927
      outer loop
         vertex -0.00404524 0.0662114 0.0167878
         vertex -0.00412164 0.0661369 0.0171104
         vertex -0.00416811 0.0661648 0.0171045
      endloop
   endfacet
   facet normal -0.340748 -0.8944 -0.289722
      outer loop
         vertex -0.00401091 0.0661953 0.0167913
         vertex -0.00407248 0.0661138 0.0171153
         vertex -0.00412164 0.0661369 0.0171104
      endloop
   endfacet
   facet normal -0.255049 -0.924489 -0.28332
      outer loop
         vertex -0.00397506 0.0661827 0.0167939
         vertex -0.00402115 0.0660958 0.0171192
         vertex -0.00407248 0.0661138 0.0171153
      endloop
   endfacet
   facet normal -0.166637 -0.945785 -0.278789
      outer loop
         vertex -0.00393808 0.0661738 0.0167958
         vertex -0.00396819 0.066083 0.0171219
         vertex -0.00402115 0.0660958 0.0171192
      endloop
   endfacet
   facet normal -0.0764521 -0.958061 -0.276177
      outer loop
         vertex -0.00390036 0.0661687 0.0167969
         vertex -0.00391417 0.0660757 0.0171234
         vertex -0.00396819 0.066083 0.0171219
      endloop
   endfacet
   facet normal 0.0145453 -0.961188 -0.275512
      outer loop
         vertex -0.00386229 0.0661674 0.0167972
         vertex -0.00385966 0.0660738 0.0171238
         vertex -0.00391417 0.0660757 0.0171234
      endloop
   endfacet
   facet normal 0.105388 -0.955131 -0.276801
      outer loop
         vertex -0.00382429 0.0661699 0.0167967
         vertex -0.00380525 0.0660774 0.0171231
         vertex -0.00385966 0.0660738 0.0171238
      endloop
   endfacet
   facet normal 0.19511 -0.939955 -0.28003
      outer loop
         vertex -0.00378676 0.0661762 0.0167953
         vertex -0.00375151 0.0660865 0.0171211
         vertex -0.00380525 0.0660774 0.0171231
      endloop
   endfacet
   facet normal 0.282757 -0.915822 -0.285164
      outer loop
         vertex -0.0037501 0.0661863 0.0167932
         vertex -0.00369901 0.066101 0.0171181
         vertex -0.00375151 0.0660865 0.0171211
      endloop
   endfacet
   facet normal 0.367397 -0.882988 -0.29215
      outer loop
         vertex -0.00371469 0.0662001 0.0167903
         vertex -0.00364831 0.0661206 0.0171139
         vertex -0.00369901 0.066101 0.0171181
      endloop
   endfacet
   facet normal 0.448129 -0.841802 -0.300913
      outer loop
         vertex -0.00368092 0.0662173 0.0167866
         vertex -0.00359995 0.0661453 0.0171086
         vertex -0.00364831 0.0661206 0.0171139
      endloop
   endfacet
   facet normal 0.448129 -0.841802 -0.300913
      outer loop
         vertex -0.00359995 0.0661453 0.0171086
         vertex -0.00368092 0.0662173 0.0167866
         vertex -0.00367472 0.0662207 0.0167859
      endloop
   endfacet
   facet normal 0.45152 -0.839854 -0.301288
      outer loop
         vertex -0.00367472 0.0662207 0.0167859
         vertex -3.48781e-17 0.0683593 0.0163308
         vertex -3.503e-17 0.0682402 0.0166629
      endloop
   endfacet
   facet normal 0.45152 -0.839854 -0.301288
      outer loop
         vertex -3.503e-17 0.0682402 0.0166629
         vertex -0.00359311 0.066149 0.0171079
         vertex -0.00367472 0.0662207 0.0167859
      endloop
   endfacet
   facet normal -0.45152 -0.839854 -0.301288
      outer loop
         vertex 0.00367471 0.0662207 0.0167859
         vertex 0.00359313 0.066149 0.0171078
         vertex -3.503e-17 0.0682402 0.0166629
      endloop
   endfacet
   facet normal -0.45152 -0.839854 -0.301288
      outer loop
         vertex -3.503e-17 0.0682402 0.0166629
         vertex -3.48781e-17 0.0683593 0.0163308
         vertex 0.00367471 0.0662207 0.0167859
      endloop
   endfacet
   facet normal 0.70849 -0.613053 -0.349583
      outer loop
         vertex 0.0041649 0.0663129 0.0167663
         vertex 0.00429152 0.0662803 0.01708
         vertex 0.00428658 0.0662744 0.0170812
      endloop
   endfacet
   facet normal 0.638852 -0.693814 -0.3324
      outer loop
         vertex 0.00425102 0.0662339 0.0170898
         vertex 0.00413559 0.0662792 0.0167734
         vertex 0.00416042 0.0663074 0.0167674
      endloop
   endfacet
   facet normal 0.572688 -0.754999 -0.319382
      outer loop
         vertex 0.00421139 0.0661973 0.0170976
         vertex 0.00410791 0.0662536 0.0167789
         vertex 0.00413559 0.0662792 0.0167734
      endloop
   endfacet
   facet normal 0.500433 -0.809194 -0.307851
      outer loop
         vertex 0.00416811 0.0661648 0.0171045
         vertex 0.00407769 0.0662309 0.0167837
         vertex 0.00410791 0.0662536 0.0167789
      endloop
   endfacet
   facet normal 0.422856 -0.855821 -0.29793
      outer loop
         vertex 0.00412164 0.0661369 0.0171104
         vertex 0.00404524 0.0662114 0.0167878
         vertex 0.00407769 0.0662309 0.0167837
      endloop
   endfacet
   facet normal 0.340782 -0.894386 -0.289725
      outer loop
         vertex 0.00407248 0.0661138 0.0171153
         vertex 0.00401091 0.0661953 0.0167913
         vertex 0.00404524 0.0662114 0.0167878
      endloop
   endfacet
   facet normal 0.255083 -0.924479 -0.283323
      outer loop
         vertex 0.00402115 0.0660958 0.0171192
         vertex 0.00397506 0.0661827 0.0167939
         vertex 0.00401091 0.0661953 0.0167913
      endloop
   endfacet
   facet normal 0.166672 -0.945778 -0.278791
      outer loop
         vertex 0.00396819 0.066083 0.0171219
         vertex 0.00393807 0.0661738 0.0167958
         vertex 0.00397506 0.0661827 0.0167939
      endloop
   endfacet
   facet normal 0.0764883 -0.958058 -0.276178
      outer loop
         vertex 0.00391417 0.0660757 0.0171234
         vertex 0.00390035 0.0661687 0.0167969
         vertex 0.00393807 0.0661738 0.0167958
      endloop
   endfacet
   facet normal -0.0145091 -0.961188 -0.275512
      outer loop
         vertex 0.00385966 0.0660738 0.0171238
         vertex 0.00386229 0.0661674 0.0167972
         vertex 0.00390035 0.0661687 0.0167969
      endloop
   endfacet
   facet normal -0.105352 -0.955135 -0.2768
      outer loop
         vertex 0.00380525 0.0660774 0.0171231
         vertex 0.00382429 0.0661699 0.0167967
         vertex 0.00386229 0.0661674 0.0167972
      endloop
   endfacet
   facet normal -0.195075 -0.939963 -0.280028
      outer loop
         vertex 0.00375151 0.0660865 0.0171211
         vertex 0.00378675 0.0661762 0.0167953
         vertex 0.00382429 0.0661699 0.0167967
      endloop
   endfacet
   facet normal -0.282723 -0.915833 -0.285162
      outer loop
         vertex 0.00369901 0.0661009 0.0171181
         vertex 0.00375009 0.0661863 0.0167932
         vertex 0.00378675 0.0661762 0.0167953
      endloop
   endfacet
   facet normal -0.367364 -0.883003 -0.292147
      outer loop
         vertex 0.00364831 0.0661206 0.0171139
         vertex 0.00371468 0.0662001 0.0167903
         vertex 0.00375009 0.0661863 0.0167932
      endloop
   endfacet
   facet normal -0.448098 -0.84182 -0.300909
      outer loop
         vertex 0.00359995 0.0661453 0.0171086
         vertex 0.00368091 0.0662173 0.0167866
         vertex 0.00371468 0.0662001 0.0167903
      endloop
   endfacet
   facet normal -0.448098 -0.84182 -0.300909
      outer loop
         vertex 0.00359995 0.0661453 0.0171086
         vertex 0.00359313 0.066149 0.0171078
         vertex 0.00367471 0.0662207 0.0167859
      endloop
   endfacet
   facet normal -0.462652 -0.83325 -0.302733
      outer loop
         vertex 0.00367471 0.0662207 0.0167859
         vertex 0.00368091 0.0662173 0.0167866
         vertex 0.00359995 0.0661453 0.0171086
      endloop
   endfacet
   facet normal -0.367364 -0.883003 -0.292147
      outer loop
         vertex 0.00371468 0.0662001 0.0167903
         vertex 0.00364831 0.0661206 0.0171139
         vertex 0.00359995 0.0661453 0.0171086
      endloop
   endfacet
   facet normal -0.282723 -0.915833 -0.285162
      outer loop
         vertex 0.00375009 0.0661863 0.0167932
         vertex 0.00369901 0.0661009 0.0171181
         vertex 0.00364831 0.0661206 0.0171139
      endloop
   endfacet
   facet normal -0.195075 -0.939963 -0.280028
      outer loop
         vertex 0.00378675 0.0661762 0.0167953
         vertex 0.00375151 0.0660865 0.0171211
         vertex 0.00369901 0.0661009 0.0171181
      endloop
   endfacet
   facet normal -0.105352 -0.955135 -0.2768
      outer loop
         vertex 0.00382429 0.0661699 0.0167967
         vertex 0.00380525 0.0660774 0.0171231
         vertex 0.00375151 0.0660865 0.0171211
      endloop
   endfacet
   facet normal -0.0145091 -0.961188 -0.275512
      outer loop
         vertex 0.00386229 0.0661674 0.0167972
         vertex 0.00385966 0.0660738 0.0171238
         vertex 0.00380525 0.0660774 0.0171231
      endloop
   endfacet
   facet normal 0.0764883 -0.958058 -0.276178
      outer loop
         vertex 0.00390035 0.0661687 0.0167969
         vertex 0.00391417 0.0660757 0.0171234
         vertex 0.00385966 0.0660738 0.0171238
      endloop
   endfacet
   facet normal 0.166672 -0.945778 -0.278791
      outer loop
         vertex 0.00393807 0.0661738 0.0167958
         vertex 0.00396819 0.066083 0.0171219
         vertex 0.00391417 0.0660757 0.0171234
      endloop
   endfacet
   facet normal 0.255083 -0.924479 -0.283323
      outer loop
         vertex 0.00397506 0.0661827 0.0167939
         vertex 0.00402115 0.0660958 0.0171192
         vertex 0.00396819 0.066083 0.0171219
      endloop
   endfacet
   facet normal 0.340782 -0.894386 -0.289725
      outer loop
         vertex 0.00401091 0.0661953 0.0167913
         vertex 0.00407248 0.0661138 0.0171153
         vertex 0.00402115 0.0660958 0.0171192
      endloop
   endfacet
   facet normal 0.422856 -0.855821 -0.29793
      outer loop
         vertex 0.00404524 0.0662114 0.0167878
         vertex 0.00412164 0.0661369 0.0171104
         vertex 0.00407248 0.0661138 0.0171153
      endloop
   endfacet
   facet normal 0.500433 -0.809194 -0.307851
      outer loop
         vertex 0.00407769 0.0662309 0.0167837
         vertex 0.00416811 0.0661648 0.0171045
         vertex 0.00412164 0.0661369 0.0171104
      endloop
   endfacet
   facet normal 0.572688 -0.754999 -0.319382
      outer loop
         vertex 0.00410791 0.0662536 0.0167789
         vertex 0.00421139 0.0661973 0.0170976
         vertex 0.00416811 0.0661648 0.0171045
      endloop
   endfacet
   facet normal 0.638852 -0.693814 -0.3324
      outer loop
         vertex 0.00413559 0.0662792 0.0167734
         vertex 0.00425102 0.0662339 0.0170898
         vertex 0.00421139 0.0661973 0.0170976
      endloop
   endfacet
   facet normal 0.698222 -0.62629 -0.346767
      outer loop
         vertex 0.00416042 0.0663074 0.0167674
         vertex 0.00428658 0.0662744 0.0170812
         vertex 0.00425102 0.0662339 0.0170898
      endloop
   endfacet
   facet normal 0.698222 -0.62629 -0.346767
      outer loop
         vertex 0.00428658 0.0662744 0.0170812
         vertex 0.00416042 0.0663074 0.0167674
         vertex 0.0041649 0.0663129 0.0167663
      endloop
   endfacet
   facet normal 0.700636 -0.62325 -0.347374
      outer loop
         vertex 0.0041649 0.0663129 0.0167663
         vertex 0.0046133 0.0668847 0.0166446
         vertex 0.00473994 0.0668521 0.0169582
      endloop
   endfacet
   facet normal 0.700636 -0.62325 -0.347374
      outer loop
         vertex 0.00473994 0.0668521 0.0169582
         vertex 0.00429152 0.0662803 0.01708
         vertex 0.0041649 0.0663129 0.0167663
      endloop
   endfacet
   facet normal 2.95876e-14 0.208108 0.978106
      outer loop
         vertex -0.00359995 0.0661453 0.0171086
         vertex -0.00407248 0.0661138 0.0171153
         vertex -0.00402115 0.0660958 0.0171192
      endloop
   endfacet
   facet normal 2.95876e-14 0.208108 0.978106
      outer loop
         vertex -0.00359995 0.0661453 0.0171086
         vertex -0.00416811 0.0661648 0.0171045
         vertex -0.00412164 0.0661369 0.0171104
      endloop
   endfacet
   facet normal 2.95876e-14 0.208108 0.978106
      outer loop
         vertex -0.00484813 0.067232 0.0168774
         vertex -0.00477412 0.067441 0.0168329
         vertex -0.00480116 0.067392 0.0168434
      endloop
   endfacet
   facet normal 2.95876e-14 0.208108 0.978106
      outer loop
         vertex 0.00137071 0.0749978 0.0152251
         vertex 0.00112517 0.0753581 0.0151485
         vertex 0.00107502 0.0753847 0.0151428
      endloop
   endfacet
   facet normal 2.95876e-14 0.208108 0.978106
      outer loop
         vertex 0.00483838 0.0672869 0.0168657
         vertex 0.00484936 0.0671207 0.0169011
         vertex 0.0048518 0.0671764 0.0168892
      endloop
   endfacet
   facet normal 2.95876e-14 0.208108 0.978106
      outer loop
         vertex 0.00483838 0.0672869 0.0168657
         vertex 0.00482628 0.0670118 0.0169243
         vertex 0.00484081 0.0670656 0.0169128
      endloop
   endfacet
   facet normal 2.95876e-14 0.208108 0.978106
      outer loop
         vertex 0.00391417 0.0660757 0.0171234
         vertex 0.00412164 0.0661369 0.0171104
         vertex 0.00416811 0.0661648 0.0171045
      endloop
   endfacet
   facet normal 2.95876e-14 0.208108 0.978106
      outer loop
         vertex -0.00369901 0.066101 0.0171181
         vertex -0.00385966 0.0660738 0.0171238
         vertex -0.00380525 0.0660774 0.0171231
      endloop
   endfacet
   facet normal 2.95876e-14 0.208108 0.978106
      outer loop
         vertex -0.00369901 0.066101 0.0171181
         vertex -0.00396819 0.066083 0.0171219
         vertex -0.00391417 0.0660757 0.0171234
      endloop
   endfacet
   facet normal 2.95876e-14 0.208108 0.978106
      outer loop
         vertex -0.00412164 0.0661369 0.0171104
         vertex -0.00407248 0.0661138 0.0171153
         vertex -0.00359995 0.0661453 0.0171086
      endloop
   endfacet
   facet normal 2.95876e-14 0.208108 0.978106
      outer loop
         vertex -0.00359995 0.0661453 0.0171086
         vertex -0.00425102 0.0662339 0.0170898
         vertex -0.00421139 0.0661973 0.0170976
      endloop
   endfacet
   facet normal 2.95876e-14 0.208108 0.978106
      outer loop
         vertex -0.00480116 0.067392 0.0168434
         vertex -0.00482266 0.0673404 0.0168543
         vertex -0.00484813 0.067232 0.0168774
      endloop
   endfacet
   facet normal 2.95876e-14 0.208108 0.978106
      outer loop
         vertex -0.0013707 0.0749978 0.0152251
         vertex -0.000911233 0.075431 0.0151329
         vertex -0.000967432 0.0754214 0.015135
      endloop
   endfacet
   facet normal 2.95876e-14 0.208108 0.978106
      outer loop
         vertex 0.00137071 0.0749978 0.0152251
         vertex 0.000967427 0.0754214 0.015135
         vertex 0.000911228 0.075431 0.0151329
      endloop
   endfacet
   facet normal 2.95876e-14 0.208108 0.978106
      outer loop
         vertex 0.00107502 0.0753847 0.0151428
         vertex 0.00102224 0.0754059 0.0151383
         vertex 0.00137071 0.0749978 0.0152251
      endloop
   endfacet
   facet normal 2.95876e-14 0.208108 0.978106
      outer loop
         vertex 0.00117209 0.0753263 0.0151552
         vertex 0.00131735 0.0751562 0.0151914
         vertex 0.0012883 0.0752043 0.0151812
      endloop
   endfacet
   facet normal 2.95876e-14 0.208108 0.978106
      outer loop
         vertex 0.00117209 0.0753263 0.0151552
         vertex 0.00135879 0.0750524 0.0152135
         vertex 0.00134094 0.0751054 0.0152022
      endloop
   endfacet
   facet normal 2.95876e-14 0.208108 0.978106
      outer loop
         vertex 0.00482628 0.0670118 0.0169243
         vertex 0.00483838 0.0672869 0.0168657
         vertex 0.00482266 0.0673404 0.0168543
      endloop
   endfacet
   facet normal 2.95876e-14 0.208108 0.978106
      outer loop
         vertex 0.00484081 0.0670656 0.0169128
         vertex 0.00484936 0.0671207 0.0169011
         vertex 0.00483838 0.0672869 0.0168657
      endloop
   endfacet
   facet normal 2.95876e-14 0.208108 0.978106
      outer loop
         vertex 0.00480116 0.067392 0.0168434
         vertex 0.00474872 0.0668636 0.0169558
         vertex 0.00477997 0.0669101 0.0169459
      endloop
   endfacet
   facet normal 2.95876e-14 0.208108 0.978106
      outer loop
         vertex 0.00391417 0.0660757 0.0171234
         vertex 0.00407248 0.0661138 0.0171153
         vertex 0.00412164 0.0661369 0.0171104
      endloop
   endfacet
   facet normal 2.95876e-14 0.208108 0.978106
      outer loop
         vertex 0.00391417 0.0660757 0.0171234
         vertex 0.00396819 0.066083 0.0171219
         vertex 0.00402115 0.0660958 0.0171192
      endloop
   endfacet
   facet normal 2.95876e-14 0.208108 0.978106
      outer loop
         vertex 0.00428658 0.0662744 0.0170812
         vertex 0.00380525 0.0660774 0.0171231
         vertex 0.00385966 0.0660738 0.0171238
      endloop
   endfacet
   facet normal 2.95876e-14 0.208108 0.978106
      outer loop
         vertex 0.00428658 0.0662744 0.0170812
         vertex 0.00364831 0.0661206 0.0171139
         vertex 0.00369901 0.0661009 0.0171181
      endloop
   endfacet
   facet normal 2.95876e-14 0.208108 0.978106
      outer loop
         vertex -0.00396819 0.066083 0.0171219
         vertex -0.00369901 0.066101 0.0171181
         vertex -0.00364831 0.0661206 0.0171139
      endloop
   endfacet
   facet normal 2.95876e-14 0.208108 0.978106
      outer loop
         vertex -0.00391417 0.0660757 0.0171234
         vertex -0.00385966 0.0660738 0.0171238
         vertex -0.00369901 0.066101 0.0171181
      endloop
   endfacet
   facet normal 2.95876e-14 0.208108 0.978106
      outer loop
         vertex -0.00421139 0.0661973 0.0170976
         vertex -0.00416811 0.0661648 0.0171045
         vertex -0.00359995 0.0661453 0.0171086
      endloop
   endfacet
   facet normal 2.95876e-14 0.208108 0.978106
      outer loop
         vertex -0.00474186 0.0674869 0.0168232
         vertex -0.00484813 0.067232 0.0168774
         vertex -0.0048518 0.0671764 0.0168892
      endloop
   endfacet
   facet normal 2.95876e-14 0.208108 0.978106
      outer loop
         vertex -0.00484813 0.067232 0.0168774
         vertex -0.00474186 0.0674869 0.0168232
         vertex -0.00477412 0.067441 0.0168329
      endloop
   endfacet
   facet normal 2.95876e-14 0.208108 0.978106
      outer loop
         vertex -0.00121525 0.0752898 0.015163
         vertex -0.0012883 0.0752042 0.0151812
         vertex -0.00131734 0.0751562 0.0151914
      endloop
   endfacet
   facet normal 2.95876e-14 0.208108 0.978106
      outer loop
         vertex -0.000967432 0.0754214 0.015135
         vertex -0.00102224 0.0754059 0.0151383
         vertex -0.0013707 0.0749978 0.0152251
      endloop
   endfacet
   facet normal 2.95876e-14 0.208108 0.978106
      outer loop
         vertex 0.00102224 0.0754059 0.0151383
         vertex 0.000967427 0.0754214 0.015135
         vertex 0.00137071 0.0749978 0.0152251
      endloop
   endfacet
   facet normal 2.95876e-14 0.208108 0.978106
      outer loop
         vertex 0.0012883 0.0752043 0.0151812
         vertex 0.00125414 0.075249 0.0151717
         vertex 0.00117209 0.0753263 0.0151552
      endloop
   endfacet
   facet normal 2.95876e-14 0.208108 0.978106
      outer loop
         vertex 0.00117209 0.0753263 0.0151552
         vertex 0.00137071 0.0749978 0.0152251
         vertex 0.00135879 0.0750524 0.0152135
      endloop
   endfacet
   facet normal 2.95876e-14 0.208108 0.978106
      outer loop
         vertex 0.0048518 0.0671764 0.0168892
         vertex 0.00484813 0.067232 0.0168774
         vertex 0.00483838 0.0672869 0.0168657
      endloop
   endfacet
   facet normal 2.95876e-14 0.208108 0.978106
      outer loop
         vertex 0.00477997 0.0669101 0.0169459
         vertex 0.00480592 0.0669597 0.0169353
         vertex 0.00480116 0.067392 0.0168434
      endloop
   endfacet
   facet normal 2.95876e-14 0.208108 0.978106
      outer loop
         vertex 0.00391417 0.0660757 0.0171234
         vertex 0.00421139 0.0661973 0.0170976
         vertex 0.00425102 0.0662339 0.0170898
      endloop
   endfacet
   facet normal 2.95876e-14 0.208108 0.978106
      outer loop
         vertex 0.00402115 0.0660958 0.0171192
         vertex 0.00407248 0.0661138 0.0171153
         vertex 0.00391417 0.0660757 0.0171234
      endloop
   endfacet
   facet normal 2.95876e-14 0.208108 0.978106
      outer loop
         vertex 0.00428658 0.0662744 0.0170812
         vertex 0.00375151 0.0660865 0.0171211
         vertex 0.00380525 0.0660774 0.0171231
      endloop
   endfacet
   facet normal 2.95876e-14 0.208108 0.978106
      outer loop
         vertex 0.00428658 0.0662744 0.0170812
         vertex 0.00359995 0.0661453 0.0171086
         vertex 0.00364831 0.0661206 0.0171139
      endloop
   endfacet
   facet normal 2.95876e-14 0.208108 0.978106
      outer loop
         vertex -0.00380525 0.0660774 0.0171231
         vertex -0.00375151 0.0660865 0.0171211
         vertex -0.00369901 0.066101 0.0171181
      endloop
   endfacet
   facet normal 2.95876e-14 0.208108 0.978106
      outer loop
         vertex -0.00359995 0.0661453 0.0171086
         vertex -0.00428659 0.0662744 0.0170812
         vertex -0.00425102 0.0662339 0.0170898
      endloop
   endfacet
   facet normal 2.95876e-14 0.208108 0.978106
      outer loop
         vertex -0.00474186 0.0674869 0.0168232
         vertex -0.00482627 0.0670118 0.0169243
         vertex -0.00480591 0.0669597 0.0169353
      endloop
   endfacet
   facet normal 2.95876e-14 0.208108 0.978106
      outer loop
         vertex -0.00474186 0.0674869 0.0168232
         vertex -0.00484935 0.0671207 0.0169011
         vertex -0.00484081 0.0670656 0.0169128
      endloop
   endfacet
   facet normal 2.95876e-14 0.208108 0.978106
      outer loop
         vertex -0.00482266 0.0673404 0.0168543
         vertex -0.00483838 0.0672869 0.0168657
         vertex -0.00484813 0.067232 0.0168774
      endloop
   endfacet
   facet normal 2.95876e-14 0.208108 0.978106
      outer loop
         vertex -0.00121525 0.0752898 0.015163
         vertex -0.00134093 0.0751054 0.0152022
         vertex -0.00135879 0.0750524 0.0152135
      endloop
   endfacet
   facet normal 2.95876e-14 0.208108 0.978106
      outer loop
         vertex -0.00121525 0.0752898 0.015163
         vertex -0.00125413 0.0752489 0.0151717
         vertex -0.0012883 0.0752042 0.0151812
      endloop
   endfacet
   facet normal 2.95876e-14 0.208108 0.978106
      outer loop
         vertex -0.0013707 0.0749978 0.0152251
         vertex -0.00112517 0.0753581 0.0151485
         vertex -0.00117209 0.0753263 0.0151552
      endloop
   endfacet
   facet normal 2.95876e-14 0.208108 0.978106
      outer loop
         vertex -0.00102224 0.0754059 0.0151383
         vertex -0.00107503 0.0753847 0.0151428
         vertex -0.0013707 0.0749978 0.0152251
      endloop
   endfacet
   facet normal 2.95876e-14 0.208108 0.978106
      outer loop
         vertex 0.00137071 0.0749978 0.0152251
         vertex 0.00117209 0.0753263 0.0151552
         vertex 0.00112517 0.0753581 0.0151485
      endloop
   endfacet
   facet normal 2.95876e-14 0.208108 0.978106
      outer loop
         vertex 0.00134094 0.0751054 0.0152022
         vertex 0.00131735 0.0751562 0.0151914
         vertex 0.00117209 0.0753263 0.0151552
      endloop
   endfacet
   facet normal 2.95876e-14 0.208108 0.978106
      outer loop
         vertex 0.00474872 0.0668636 0.0169558
         vertex 0.00480116 0.067392 0.0168434
         vertex 0.00477412 0.067441 0.0168329
      endloop
   endfacet
   facet normal 2.95876e-14 0.208108 0.978106
      outer loop
         vertex 0.00480592 0.0669597 0.0169353
         vertex 0.00482628 0.0670118 0.0169243
         vertex 0.00480116 0.067392 0.0168434
      endloop
   endfacet
   facet normal 2.95876e-14 0.208108 0.978106
      outer loop
         vertex 0.00416811 0.0661648 0.0171045
         vertex 0.00421139 0.0661973 0.0170976
         vertex 0.00391417 0.0660757 0.0171234
      endloop
   endfacet
   facet normal 2.95876e-14 0.208108 0.978106
      outer loop
         vertex 0.00369901 0.0661009 0.0171181
         vertex 0.00375151 0.0660865 0.0171211
         vertex 0.00428658 0.0662744 0.0170812
      endloop
   endfacet
   facet normal 2.95876e-14 0.208108 0.978106
      outer loop
         vertex -0.00402115 0.0660958 0.0171192
         vertex -0.00396819 0.066083 0.0171219
         vertex -0.00359995 0.0661453 0.0171086
      endloop
   endfacet
   facet normal 2.95876e-14 0.208108 0.978106
      outer loop
         vertex -0.00480591 0.0669597 0.0169353
         vertex -0.00477996 0.0669101 0.0169459
         vertex -0.00474186 0.0674869 0.0168232
      endloop
   endfacet
   facet normal 2.95876e-14 0.208108 0.978106
      outer loop
         vertex -0.0048518 0.0671764 0.0168892
         vertex -0.00484935 0.0671207 0.0169011
         vertex -0.00474186 0.0674869 0.0168232
      endloop
   endfacet
   facet normal 2.95876e-14 0.208108 0.978106
      outer loop
         vertex -0.00131734 0.0751562 0.0151914
         vertex -0.00134093 0.0751054 0.0152022
         vertex -0.00121525 0.0752898 0.015163
      endloop
   endfacet
   facet normal 2.95876e-14 0.208108 0.978106
      outer loop
         vertex -0.00107503 0.0753847 0.0151428
         vertex -0.00112517 0.0753581 0.0151485
         vertex -0.0013707 0.0749978 0.0152251
      endloop
   endfacet
   facet normal 2.95876e-14 0.208108 0.978106
      outer loop
         vertex 0.00125414 0.075249 0.0151717
         vertex 0.00121525 0.0752898 0.015163
         vertex 0.00117209 0.0753263 0.0151552
      endloop
   endfacet
   facet normal 2.95876e-14 0.208108 0.978106
      outer loop
         vertex 0.00482266 0.0673404 0.0168543
         vertex 0.00480116 0.067392 0.0168434
         vertex 0.00482628 0.0670118 0.0169243
      endloop
   endfacet
   facet normal 2.95876e-14 0.208108 0.978106
      outer loop
         vertex 0.00385966 0.0660738 0.0171238
         vertex 0.00391417 0.0660757 0.0171234
         vertex 0.00428658 0.0662744 0.0170812
      endloop
   endfacet
   facet normal 2.95876e-14 0.208108 0.978106
      outer loop
         vertex -0.00359995 0.0661453 0.0171086
         vertex -0.00429149 0.0662803 0.0170799
         vertex -0.00428659 0.0662744 0.0170812
      endloop
   endfacet
   facet normal 2.95876e-14 0.208108 0.978106
      outer loop
         vertex -0.00484081 0.0670656 0.0169128
         vertex -0.00482627 0.0670118 0.0169243
         vertex -0.00474186 0.0674869 0.0168232
      endloop
   endfacet
   facet normal 2.95876e-14 0.208108 0.978106
      outer loop
         vertex -0.00117209 0.0753263 0.0151552
         vertex -0.00121525 0.0752898 0.015163
         vertex -0.0013707 0.0749978 0.0152251
      endloop
   endfacet
   facet normal 2.95876e-14 0.208108 0.978106
      outer loop
         vertex 0.000854294 0.0754347 0.0151322
         vertex 0.00137255 0.0749868 0.0152274
         vertex 0.00137071 0.0749978 0.0152251
      endloop
   endfacet
   facet normal 2.95876e-14 0.208108 0.978106
      outer loop
         vertex 0.00474185 0.0674869 0.0168232
         vertex 0.00473994 0.0668521 0.0169582
         vertex 0.00474872 0.0668636 0.0169558
      endloop
   endfacet
   facet normal 2.95876e-14 0.208108 0.978106
      outer loop
         vertex 0.00359313 0.066149 0.0171078
         vertex 0.00428658 0.0662744 0.0170812
         vertex 0.00429152 0.0662803 0.01708
      endloop
   endfacet
   facet normal 2.95876e-14 0.208108 0.978106
      outer loop
         vertex 0.00428658 0.0662744 0.0170812
         vertex 0.00359313 0.066149 0.0171078
         vertex 0.00359995 0.0661453 0.0171086
      endloop
   endfacet
   facet normal 2.95876e-14 0.208108 0.978106
      outer loop
         vertex -0.00364831 0.0661206 0.0171139
         vertex -0.00359995 0.0661453 0.0171086
         vertex -0.00396819 0.066083 0.0171219
      endloop
   endfacet
   facet normal 2.95876e-14 0.208108 0.978106
      outer loop
         vertex -0.00359311 0.066149 0.0171079
         vertex -0.00473283 0.0674982 0.0168208
         vertex -0.00473995 0.0668521 0.0169583
      endloop
   endfacet
   facet normal 2.95876e-14 0.208108 0.978106
      outer loop
         vertex -0.00474871 0.0668636 0.0169558
         vertex -0.00473283 0.0674982 0.0168208
         vertex -0.00474186 0.0674869 0.0168232
      endloop
   endfacet
   facet normal 2.95876e-14 0.208108 0.978106
      outer loop
         vertex -0.0013707 0.0749978 0.0152251
         vertex -0.000854299 0.0754347 0.0151322
         vertex -0.000911233 0.075431 0.0151329
      endloop
   endfacet
   facet normal 2.95876e-14 0.208108 0.978106
      outer loop
         vertex 0.000911228 0.075431 0.0151329
         vertex 0.000854294 0.0754347 0.0151322
         vertex 0.00137071 0.0749978 0.0152251
      endloop
   endfacet
   facet normal 2.95876e-14 0.208108 0.978106
      outer loop
         vertex 0.00477412 0.067441 0.0168329
         vertex 0.00474185 0.0674869 0.0168232
         vertex 0.00474872 0.0668636 0.0169558
      endloop
   endfacet
   facet normal 2.95876e-14 0.208108 0.978106
      outer loop
         vertex 0.00425102 0.0662339 0.0170898
         vertex 0.00428658 0.0662744 0.0170812
         vertex 0.00391417 0.0660757 0.0171234
      endloop
   endfacet
   facet normal 2.95876e-14 0.208108 0.978106
      outer loop
         vertex 0.00198928 0.0708458 0.0161085
         vertex -3.503e-17 0.0682402 0.0166629
         vertex 0.00359313 0.066149 0.0171078
      endloop
   endfacet
   facet normal 2.95876e-14 0.208108 0.978106
      outer loop
         vertex -0.00473995 0.0668521 0.0169583
         vertex -0.00429149 0.0662803 0.0170799
         vertex -0.00359311 0.066149 0.0171079
      endloop
   endfacet
   facet normal 2.95876e-14 0.208108 0.978106
      outer loop
         vertex -0.00477996 0.0669101 0.0169459
         vertex -0.00474871 0.0668636 0.0169558
         vertex -0.00474186 0.0674869 0.0168232
      endloop
   endfacet
   facet normal 2.95876e-14 0.208108 0.978106
      outer loop
         vertex -0.0013707 0.0749978 0.0152251
         vertex -0.000842932 0.0754349 0.0151321
         vertex -0.000854299 0.0754347 0.0151322
      endloop
   endfacet
   facet normal 2.95876e-14 0.208108 0.978106
      outer loop
         vertex 0.000854294 0.0754347 0.0151322
         vertex 0.000842931 0.0754349 0.0151322
         vertex 0.00137255 0.0749868 0.0152274
      endloop
   endfacet
   facet normal 2.95876e-14 0.208108 0.978106
      outer loop
         vertex -0.000842932 0.0754349 0.0151321
         vertex -3.503e-17 0.0682402 0.0166629
         vertex 0.00198928 0.0708458 0.0161085
      endloop
   endfacet
   facet normal 2.95876e-14 0.208108 0.978106
      outer loop
         vertex 0.00474185 0.0674869 0.0168232
         vertex 0.00473284 0.0674982 0.0168208
         vertex 0.00473994 0.0668521 0.0169582
      endloop
   endfacet
   facet normal 2.95876e-14 0.208108 0.978106
      outer loop
         vertex 0.00359313 0.066149 0.0171078
         vertex 0.00473994 0.0668521 0.0169582
         vertex 0.00198928 0.0708458 0.0161085
      endloop
   endfacet
   facet normal 2.95876e-14 0.208108 0.978106
      outer loop
         vertex -0.00474871 0.0668636 0.0169558
         vertex -0.00473995 0.0668521 0.0169583
         vertex -0.00473283 0.0674982 0.0168208
      endloop
   endfacet
   facet normal 2.95876e-14 0.208108 0.978106
      outer loop
         vertex -3.503e-17 0.0682402 0.0166629
         vertex -0.00198928 0.0708458 0.0161085
         vertex -0.00473283 0.0674982 0.0168208
      endloop
   endfacet
   facet normal 2.95876e-14 0.208108 0.978106
      outer loop
         vertex -3.503e-17 0.0682402 0.0166629
         vertex -0.000842932 0.0754349 0.0151321
         vertex -0.00137258 0.0749869 0.0152275
      endloop
   endfacet
   facet normal 2.95876e-14 0.208108 0.978106
      outer loop
         vertex -0.00135879 0.0750524 0.0152135
         vertex -0.0013707 0.0749978 0.0152251
         vertex -0.00121525 0.0752898 0.015163
      endloop
   endfacet
   facet normal 2.95876e-14 0.208108 0.978106
      outer loop
         vertex 0.00198928 0.0708458 0.0161085
         vertex 0.00137255 0.0749868 0.0152274
         vertex -0.000842932 0.0754349 0.0151321
      endloop
   endfacet
   facet normal 2.95876e-14 0.208108 0.978106
      outer loop
         vertex 0.00429152 0.0662803 0.01708
         vertex 0.00473994 0.0668521 0.0169582
         vertex 0.00359313 0.066149 0.0171078
      endloop
   endfacet
   facet normal 2.95876e-14 0.208108 0.978106
      outer loop
         vertex -0.00473283 0.0674982 0.0168208
         vertex -0.00359311 0.066149 0.0171079
         vertex -3.503e-17 0.0682402 0.0166629
      endloop
   endfacet
   facet normal 2.95876e-14 0.208108 0.978106
      outer loop
         vertex -0.0013707 0.0749978 0.0152251
         vertex -0.00137258 0.0749869 0.0152275
         vertex -0.000842932 0.0754349 0.0151321
      endloop
   endfacet
   facet normal 2.95876e-14 0.208108 0.978106
      outer loop
         vertex 0.00473284 0.0674982 0.0168208
         vertex 0.00198928 0.0708458 0.0161085
         vertex 0.00473994 0.0668521 0.0169582
      endloop
   endfacet
   facet normal 2.95876e-14 0.208108 0.978106
      outer loop
         vertex -0.00137258 0.0749869 0.0152275
         vertex -0.00198928 0.0708458 0.0161085
         vertex -3.503e-17 0.0682402 0.0166629
      endloop
   endfacet
   facet normal 2.95876e-14 0.208108 0.978106
      outer loop
         vertex -0.00359995 0.0661453 0.0171086
         vertex -0.00359311 0.066149 0.0171079
         vertex -0.00429149 0.0662803 0.0170799
      endloop
   endfacet
   facet normal 2.95876e-14 0.208108 0.978106
      outer loop
         vertex 0.000842931 0.0754349 0.0151322
         vertex -0.000842932 0.0754349 0.0151321
         vertex 0.00137255 0.0749868 0.0152274
      endloop
   endfacet
   facet normal -2.95876e-14 -0.208108 -0.978106
      outer loop
         vertex 0.00401091 0.0661953 0.0167913
         vertex 0.00410791 0.0662536 0.0167789
         vertex 0.00407769 0.0662309 0.0167837
      endloop
   endfacet
   facet normal -2.95876e-14 -0.208108 -0.978106
      outer loop
         vertex -0.00121312 0.0749111 0.0149369
         vertex -0.00100658 0.0751813 0.0148794
         vertex -0.000969713 0.0751961 0.0148762
      endloop
   endfacet
   facet normal -2.95876e-14 -0.208108 -0.978106
      outer loop
         vertex -0.00461531 0.0673292 0.01655
         vertex -0.00469213 0.0671123 0.0165962
         vertex -0.00468956 0.0671511 0.0165879
      endloop
   endfacet
   facet normal -2.95876e-14 -0.208108 -0.978106
      outer loop
         vertex -0.00416044 0.0663074 0.0167674
         vertex -0.0037501 0.0661863 0.0167932
         vertex -0.00378676 0.0661762 0.0167953
      endloop
   endfacet
   facet normal -2.95876e-14 -0.208108 -0.978106
      outer loop
         vertex 0.00416042 0.0663074 0.0167674
         vertex 0.00397506 0.0661827 0.0167939
         vertex 0.00393807 0.0661738 0.0167958
      endloop
   endfacet
   facet normal -2.95876e-14 -0.208108 -0.978106
      outer loop
         vertex 0.00401091 0.0661953 0.0167913
         vertex 0.00413559 0.0662792 0.0167734
         vertex 0.00410791 0.0662536 0.0167789
      endloop
   endfacet
   facet normal -2.95876e-14 -0.208108 -0.978106
      outer loop
         vertex 0.00469042 0.0670734 0.0166044
         vertex 0.00468445 0.0670349 0.0166126
         vertex 0.0046743 0.0669972 0.0166206
      endloop
   endfacet
   facet normal -2.95876e-14 -0.208108 -0.978106
      outer loop
         vertex -0.00121312 0.0749111 0.0149369
         vertex -0.00104161 0.0751627 0.0148833
         vertex -0.00100658 0.0751813 0.0148794
      endloop
   endfacet
   facet normal -2.95876e-14 -0.208108 -0.978106
      outer loop
         vertex -0.00121312 0.0749111 0.0149369
         vertex -0.00115556 0.0750553 0.0149062
         vertex -0.0011317 0.0750865 0.0148995
      endloop
   endfacet
   facet normal -2.95876e-14 -0.208108 -0.978106
      outer loop
         vertex -0.00117585 0.0750217 0.0149133
         vertex -0.00121312 0.0749111 0.0149369
         vertex -0.0012048 0.0749492 0.0149287
      endloop
   endfacet
   facet normal -2.95876e-14 -0.208108 -0.978106
      outer loop
         vertex -0.00461531 0.0673292 0.01655
         vertex -0.00468275 0.0671895 0.0165797
         vertex -0.00467177 0.0672269 0.0165718
      endloop
   endfacet
   facet normal -2.95876e-14 -0.208108 -0.978106
      outer loop
         vertex -0.00461531 0.0673292 0.01655
         vertex -0.00469042 0.0670734 0.0166044
         vertex -0.00469213 0.0671123 0.0165962
      endloop
   endfacet
   facet normal -2.95876e-14 -0.208108 -0.978106
      outer loop
         vertex -0.00390036 0.0661687 0.0167969
         vertex -0.0040777 0.0662309 0.0167837
         vertex -0.00410792 0.0662536 0.0167789
      endloop
   endfacet
   facet normal -2.95876e-14 -0.208108 -0.978106
      outer loop
         vertex -0.00390036 0.0661687 0.0167969
         vertex -0.00401091 0.0661953 0.0167913
         vertex -0.00404524 0.0662114 0.0167878
      endloop
   endfacet
   facet normal -2.95876e-14 -0.208108 -0.978106
      outer loop
         vertex -0.00390036 0.0661687 0.0167969
         vertex -0.00393808 0.0661738 0.0167958
         vertex -0.00397506 0.0661827 0.0167939
      endloop
   endfacet
   facet normal -2.95876e-14 -0.208108 -0.978106
      outer loop
         vertex -0.00416044 0.0663074 0.0167674
         vertex -0.00382429 0.0661699 0.0167967
         vertex -0.00386229 0.0661674 0.0167972
      endloop
   endfacet
   facet normal -2.95876e-14 -0.208108 -0.978106
      outer loop
         vertex -0.00416044 0.0663074 0.0167674
         vertex -0.00371469 0.0662001 0.0167903
         vertex -0.0037501 0.0661863 0.0167932
      endloop
   endfacet
   facet normal -2.95876e-14 -0.208108 -0.978106
      outer loop
         vertex 0.00416042 0.0663074 0.0167674
         vertex 0.00386229 0.0661674 0.0167972
         vertex 0.00382429 0.0661699 0.0167967
      endloop
   endfacet
   facet normal -2.95876e-14 -0.208108 -0.978106
      outer loop
         vertex 0.00416042 0.0663074 0.0167674
         vertex 0.00401091 0.0661953 0.0167913
         vertex 0.00397506 0.0661827 0.0167939
      endloop
   endfacet
   facet normal -2.95876e-14 -0.208108 -0.978106
      outer loop
         vertex 0.00401091 0.0661953 0.0167913
         vertex 0.00416042 0.0663074 0.0167674
         vertex 0.00413559 0.0662792 0.0167734
      endloop
   endfacet
   facet normal -2.95876e-14 -0.208108 -0.978106
      outer loop
         vertex 0.00466007 0.0669609 0.0166284
         vertex 0.00469213 0.0671123 0.0165962
         vertex 0.00469042 0.0670734 0.0166044
      endloop
   endfacet
   facet normal -2.95876e-14 -0.208108 -0.978106
      outer loop
         vertex 0.00466007 0.0669609 0.0166284
         vertex 0.00468275 0.0671894 0.0165797
         vertex 0.00468956 0.0671511 0.0165879
      endloop
   endfacet
   facet normal -2.95876e-14 -0.208108 -0.978106
      outer loop
         vertex 0.00466007 0.0669609 0.0166284
         vertex 0.00463785 0.0672972 0.0165568
         vertex 0.00465674 0.0672629 0.0165641
      endloop
   endfacet
   facet normal -2.95876e-14 -0.208108 -0.978106
      outer loop
         vertex 0.00115557 0.0750553 0.0149062
         vertex 0.00119233 0.0749862 0.0149209
         vertex 0.00120481 0.0749492 0.0149287
      endloop
   endfacet
   facet normal -2.95876e-14 -0.208108 -0.978106
      outer loop
         vertex -0.000969713 0.0751961 0.0148762
         vertex -0.000931426 0.0752069 0.0148739
         vertex -0.00121312 0.0749111 0.0149369
      endloop
   endfacet
   facet normal -2.95876e-14 -0.208108 -0.978106
      outer loop
         vertex -0.0011317 0.0750865 0.0148995
         vertex -0.00110453 0.075115 0.0148935
         vertex -0.00121312 0.0749111 0.0149369
      endloop
   endfacet
   facet normal -2.95876e-14 -0.208108 -0.978106
      outer loop
         vertex -0.0012048 0.0749492 0.0149287
         vertex -0.00119233 0.0749862 0.0149209
         vertex -0.00117585 0.0750217 0.0149133
      endloop
   endfacet
   facet normal -2.95876e-14 -0.208108 -0.978106
      outer loop
         vertex -0.00467177 0.0672269 0.0165718
         vertex -0.00465675 0.0672629 0.0165641
         vertex -0.00461531 0.0673292 0.01655
      endloop
   endfacet
   facet normal -2.95876e-14 -0.208108 -0.978106
      outer loop
         vertex -0.00461531 0.0673292 0.01655
         vertex -0.00468445 0.0670349 0.0166126
         vertex -0.00469042 0.0670734 0.0166044
      endloop
   endfacet
   facet normal -2.95876e-14 -0.208108 -0.978106
      outer loop
         vertex -0.00410792 0.0662536 0.0167789
         vertex -0.0041356 0.0662792 0.0167734
         vertex -0.00390036 0.0661687 0.0167969
      endloop
   endfacet
   facet normal -2.95876e-14 -0.208108 -0.978106
      outer loop
         vertex -0.00397506 0.0661827 0.0167939
         vertex -0.00401091 0.0661953 0.0167913
         vertex -0.00390036 0.0661687 0.0167969
      endloop
   endfacet
   facet normal -2.95876e-14 -0.208108 -0.978106
      outer loop
         vertex -0.00378676 0.0661762 0.0167953
         vertex -0.00382429 0.0661699 0.0167967
         vertex -0.00416044 0.0663074 0.0167674
      endloop
   endfacet
   facet normal -2.95876e-14 -0.208108 -0.978106
      outer loop
         vertex 0.00416042 0.0663074 0.0167674
         vertex 0.00378675 0.0661762 0.0167953
         vertex 0.00375009 0.0661863 0.0167932
      endloop
   endfacet
   facet normal -2.95876e-14 -0.208108 -0.978106
      outer loop
         vertex 0.00416042 0.0663074 0.0167674
         vertex 0.00390035 0.0661687 0.0167969
         vertex 0.00386229 0.0661674 0.0167972
      endloop
   endfacet
   facet normal -2.95876e-14 -0.208108 -0.978106
      outer loop
         vertex 0.00407769 0.0662309 0.0167837
         vertex 0.00404524 0.0662114 0.0167878
         vertex 0.00401091 0.0661953 0.0167913
      endloop
   endfacet
   facet normal -2.95876e-14 -0.208108 -0.978106
      outer loop
         vertex 0.00468956 0.0671511 0.0165879
         vertex 0.00469213 0.0671123 0.0165962
         vertex 0.00466007 0.0669609 0.0166284
      endloop
   endfacet
   facet normal -2.95876e-14 -0.208108 -0.978106
      outer loop
         vertex 0.00465674 0.0672629 0.0165641
         vertex 0.00467176 0.0672269 0.0165718
         vertex 0.00466007 0.0669609 0.0166284
      endloop
   endfacet
   facet normal -2.95876e-14 -0.208108 -0.978106
      outer loop
         vertex 0.00115557 0.0750553 0.0149062
         vertex 0.00117586 0.0750217 0.0149133
         vertex 0.00119233 0.0749862 0.0149209
      endloop
   endfacet
   facet normal -2.95876e-14 -0.208108 -0.978106
      outer loop
         vertex 0.00121314 0.0749111 0.0149369
         vertex 0.000969713 0.0751961 0.0148762
         vertex 0.00100659 0.0751813 0.0148794
      endloop
   endfacet
   facet normal -2.95876e-14 -0.208108 -0.978106
      outer loop
         vertex -0.00121312 0.0749111 0.0149369
         vertex -0.00107439 0.0751405 0.014888
         vertex -0.00104161 0.0751627 0.0148833
      endloop
   endfacet
   facet normal -2.95876e-14 -0.208108 -0.978106
      outer loop
         vertex -0.00117585 0.0750217 0.0149133
         vertex -0.00115556 0.0750553 0.0149062
         vertex -0.00121312 0.0749111 0.0149369
      endloop
   endfacet
   facet normal -2.95876e-14 -0.208108 -0.978106
      outer loop
         vertex -0.00468956 0.0671511 0.0165879
         vertex -0.00468275 0.0671895 0.0165797
         vertex -0.00461531 0.0673292 0.01655
      endloop
   endfacet
   facet normal -2.95876e-14 -0.208108 -0.978106
      outer loop
         vertex -0.00461531 0.0673292 0.01655
         vertex -0.00466006 0.0669609 0.0166284
         vertex -0.00467429 0.0669972 0.0166206
      endloop
   endfacet
   facet normal -2.95876e-14 -0.208108 -0.978106
      outer loop
         vertex -0.00404524 0.0662114 0.0167878
         vertex -0.0040777 0.0662309 0.0167837
         vertex -0.00390036 0.0661687 0.0167969
      endloop
   endfacet
   facet normal -2.95876e-14 -0.208108 -0.978106
      outer loop
         vertex -0.00416044 0.0663074 0.0167674
         vertex -0.00368092 0.0662173 0.0167866
         vertex -0.00371469 0.0662001 0.0167903
      endloop
   endfacet
   facet normal -2.95876e-14 -0.208108 -0.978106
      outer loop
         vertex 0.00375009 0.0661863 0.0167932
         vertex 0.00371468 0.0662001 0.0167903
         vertex 0.00416042 0.0663074 0.0167674
      endloop
   endfacet
   facet normal -2.95876e-14 -0.208108 -0.978106
      outer loop
         vertex 0.00393807 0.0661738 0.0167958
         vertex 0.00390035 0.0661687 0.0167969
         vertex 0.00416042 0.0663074 0.0167674
      endloop
   endfacet
   facet normal -2.95876e-14 -0.208108 -0.978106
      outer loop
         vertex 0.00467176 0.0672269 0.0165718
         vertex 0.00468275 0.0671894 0.0165797
         vertex 0.00466007 0.0669609 0.0166284
      endloop
   endfacet
   facet normal -2.95876e-14 -0.208108 -0.978106
      outer loop
         vertex 0.00121314 0.0749111 0.0149369
         vertex 0.0011317 0.0750865 0.0148995
         vertex 0.00115557 0.0750553 0.0149062
      endloop
   endfacet
   facet normal -2.95876e-14 -0.208108 -0.978106
      outer loop
         vertex 0.00121314 0.0749111 0.0149369
         vertex 0.00107439 0.0751405 0.014888
         vertex 0.00110454 0.075115 0.0148935
      endloop
   endfacet
   facet normal -2.95876e-14 -0.208108 -0.978106
      outer loop
         vertex 0.00100659 0.0751813 0.0148794
         vertex 0.00104161 0.0751627 0.0148833
         vertex 0.00121314 0.0749111 0.0149369
      endloop
   endfacet
   facet normal -2.95876e-14 -0.208108 -0.978106
      outer loop
         vertex -0.00110453 0.075115 0.0148935
         vertex -0.00107439 0.0751405 0.014888
         vertex -0.00121312 0.0749111 0.0149369
      endloop
   endfacet
   facet normal -2.95876e-14 -0.208108 -0.978106
      outer loop
         vertex -0.00467429 0.0669972 0.0166206
         vertex -0.00468445 0.0670349 0.0166126
         vertex -0.00461531 0.0673292 0.01655
      endloop
   endfacet
   facet normal -2.95876e-14 -0.208108 -0.978106
      outer loop
         vertex -0.00461531 0.0673292 0.01655
         vertex -0.0046201 0.0668937 0.0166427
         vertex -0.00464193 0.0669262 0.0166358
      endloop
   endfacet
   facet normal -2.95876e-14 -0.208108 -0.978106
      outer loop
         vertex -0.00386229 0.0661674 0.0167972
         vertex -0.00390036 0.0661687 0.0167969
         vertex -0.00416044 0.0663074 0.0167674
      endloop
   endfacet
   facet normal -2.95876e-14 -0.208108 -0.978106
      outer loop
         vertex 0.00382429 0.0661699 0.0167967
         vertex 0.00378675 0.0661762 0.0167953
         vertex 0.00416042 0.0663074 0.0167674
      endloop
   endfacet
   facet normal -2.95876e-14 -0.208108 -0.978106
      outer loop
         vertex 0.00461531 0.0673292 0.01655
         vertex 0.00466007 0.0669609 0.0166284
         vertex 0.00464194 0.0669262 0.0166358
      endloop
   endfacet
   facet normal -2.95876e-14 -0.208108 -0.978106
      outer loop
         vertex 0.00466007 0.0669609 0.0166284
         vertex 0.00461531 0.0673292 0.01655
         vertex 0.00463785 0.0672972 0.0165568
      endloop
   endfacet
   facet normal -2.95876e-14 -0.208108 -0.978106
      outer loop
         vertex 0.00110454 0.075115 0.0148935
         vertex 0.0011317 0.0750865 0.0148995
         vertex 0.00121314 0.0749111 0.0149369
      endloop
   endfacet
   facet normal -2.95876e-14 -0.208108 -0.978106
      outer loop
         vertex 0.00121314 0.0749111 0.0149369
         vertex 0.000931426 0.0752069 0.0148739
         vertex 0.000969713 0.0751961 0.0148762
      endloop
   endfacet
   facet normal -2.95876e-14 -0.208108 -0.978106
      outer loop
         vertex -0.000931426 0.0752069 0.0148739
         vertex -0.000892169 0.0752137 0.0148725
         vertex -0.00121312 0.0749111 0.0149369
      endloop
   endfacet
   facet normal -2.95876e-14 -0.208108 -0.978106
      outer loop
         vertex -0.00464193 0.0669262 0.0166358
         vertex -0.00466006 0.0669609 0.0166284
         vertex -0.00461531 0.0673292 0.01655
      endloop
   endfacet
   facet normal -2.95876e-14 -0.208108 -0.978106
      outer loop
         vertex -0.0041356 0.0662792 0.0167734
         vertex -0.00416044 0.0663074 0.0167674
         vertex -0.00390036 0.0661687 0.0167969
      endloop
   endfacet
   facet normal -2.95876e-14 -0.208108 -0.978106
      outer loop
         vertex 0.00371468 0.0662001 0.0167903
         vertex 0.00368091 0.0662173 0.0167866
         vertex 0.00416042 0.0663074 0.0167674
      endloop
   endfacet
   facet normal -2.95876e-14 -0.208108 -0.978106
      outer loop
         vertex 0.0046743 0.0669972 0.0166206
         vertex 0.00466007 0.0669609 0.0166284
         vertex 0.00469042 0.0670734 0.0166044
      endloop
   endfacet
   facet normal -2.95876e-14 -0.208108 -0.978106
      outer loop
         vertex 0.00104161 0.0751627 0.0148833
         vertex 0.00107439 0.0751405 0.014888
         vertex 0.00121314 0.0749111 0.0149369
      endloop
   endfacet
   facet normal -2.95876e-14 -0.208108 -0.978106
      outer loop
         vertex 0.00121314 0.0749111 0.0149369
         vertex 0.000852399 0.0752162 0.0148719
         vertex 0.000892169 0.0752137 0.0148725
      endloop
   endfacet
   facet normal -2.95876e-14 -0.208108 -0.978106
      outer loop
         vertex -0.000892169 0.0752137 0.0148725
         vertex -0.000852398 0.0752162 0.0148719
         vertex -0.00121312 0.0749111 0.0149369
      endloop
   endfacet
   facet normal -2.95876e-14 -0.208108 -0.978106
      outer loop
         vertex -0.00465675 0.0672629 0.0165641
         vertex -0.00463785 0.0672972 0.0165568
         vertex -0.00461531 0.0673292 0.01655
      endloop
   endfacet
   facet normal -2.95876e-14 -0.208108 -0.978106
      outer loop
         vertex -0.00367472 0.0662207 0.0167859
         vertex -0.0041649 0.0663129 0.0167663
         vertex -0.00461329 0.0668847 0.0166446
      endloop
   endfacet
   facet normal -2.95876e-14 -0.208108 -0.978106
      outer loop
         vertex -0.0041649 0.0663129 0.0167663
         vertex -0.00367472 0.0662207 0.0167859
         vertex -0.00368092 0.0662173 0.0167866
      endloop
   endfacet
   facet normal -2.95876e-14 -0.208108 -0.978106
      outer loop
         vertex 0.00367471 0.0662207 0.0167859
         vertex 0.0041649 0.0663129 0.0167663
         vertex 0.00416042 0.0663074 0.0167674
      endloop
   endfacet
   facet normal -2.95876e-14 -0.208108 -0.978106
      outer loop
         vertex 0.00464194 0.0669262 0.0166358
         vertex 0.00462011 0.0668937 0.0166427
         vertex 0.00461531 0.0673292 0.01655
      endloop
   endfacet
   facet normal -2.95876e-14 -0.208108 -0.978106
      outer loop
         vertex 0.000892169 0.0752137 0.0148725
         vertex 0.000931426 0.0752069 0.0148739
         vertex 0.00121314 0.0749111 0.0149369
      endloop
   endfacet
   facet normal -2.95876e-14 -0.208108 -0.978106
      outer loop
         vertex -0.000842932 0.0752164 0.0148719
         vertex -0.00121468 0.0749019 0.0149388
         vertex -0.00121312 0.0749111 0.0149369
      endloop
   endfacet
   facet normal -2.95876e-14 -0.208108 -0.978106
      outer loop
         vertex -3.48781e-17 0.0683593 0.0163308
         vertex -0.00183768 0.0707189 0.0158288
         vertex -0.00121468 0.0749019 0.0149388
      endloop
   endfacet
   facet normal -2.95876e-14 -0.208108 -0.978106
      outer loop
         vertex -0.00460831 0.0673381 0.0165481
         vertex -0.00461329 0.0668847 0.0166446
         vertex -0.0046201 0.0668937 0.0166427
      endloop
   endfacet
   facet normal -2.95876e-14 -0.208108 -0.978106
      outer loop
         vertex -0.00416044 0.0663074 0.0167674
         vertex -0.0041649 0.0663129 0.0167663
         vertex -0.00368092 0.0662173 0.0167866
      endloop
   endfacet
   facet normal -2.95876e-14 -0.208108 -0.978106
      outer loop
         vertex 0.00183768 0.0707189 0.0158288
         vertex 0.0046133 0.0668847 0.0166446
         vertex 0.00367471 0.0662207 0.0167859
      endloop
   endfacet
   facet normal -2.95876e-14 -0.208108 -0.978106
      outer loop
         vertex 0.00367471 0.0662207 0.0167859
         vertex 0.0046133 0.0668847 0.0166446
         vertex 0.0041649 0.0663129 0.0167663
      endloop
   endfacet
   facet normal -2.95876e-14 -0.208108 -0.978106
      outer loop
         vertex 0.0046133 0.0668847 0.0166446
         vertex 0.0046083 0.0673381 0.0165481
         vertex 0.00461531 0.0673292 0.01655
      endloop
   endfacet
   facet normal -2.95876e-14 -0.208108 -0.978106
      outer loop
         vertex 0.00120481 0.0749492 0.0149287
         vertex 0.00121314 0.0749111 0.0149369
         vertex 0.00115557 0.0750553 0.0149062
      endloop
   endfacet
   facet normal -2.95876e-14 -0.208108 -0.978106
      outer loop
         vertex -0.00121468 0.0749019 0.0149388
         vertex -0.000842932 0.0752164 0.0148719
         vertex -3.48781e-17 0.0683593 0.0163308
      endloop
   endfacet
   facet normal -2.95876e-14 -0.208108 -0.978106
      outer loop
         vertex -3.48781e-17 0.0683593 0.0163308
         vertex -0.00367472 0.0662207 0.0167859
         vertex -0.00460831 0.0673381 0.0165481
      endloop
   endfacet
   facet normal -2.95876e-14 -0.208108 -0.978106
      outer loop
         vertex -0.00461329 0.0668847 0.0166446
         vertex -0.00460831 0.0673381 0.0165481
         vertex -0.00367472 0.0662207 0.0167859
      endloop
   endfacet
   facet normal -2.95876e-14 -0.208108 -0.978106
      outer loop
         vertex 0.00368091 0.0662173 0.0167866
         vertex 0.00367471 0.0662207 0.0167859
         vertex 0.00416042 0.0663074 0.0167674
      endloop
   endfacet
   facet normal -2.95876e-14 -0.208108 -0.978106
      outer loop
         vertex 0.0046133 0.0668847 0.0166446
         vertex 0.00183768 0.0707189 0.0158288
         vertex 0.0046083 0.0673381 0.0165481
      endloop
   endfacet
   facet normal -2.95876e-14 -0.208108 -0.978106
      outer loop
         vertex -3.48781e-17 0.0683593 0.0163308
         vertex 0.000842932 0.0752164 0.0148719
         vertex 0.00121469 0.0749019 0.0149388
      endloop
   endfacet
   facet normal -2.95876e-14 -0.208108 -0.978106
      outer loop
         vertex 0.00121469 0.0749019 0.0149388
         vertex 0.000842932 0.0752164 0.0148719
         vertex 0.000852399 0.0752162 0.0148719
      endloop
   endfacet
   facet normal -2.95876e-14 -0.208108 -0.978106
      outer loop
         vertex -0.000852398 0.0752162 0.0148719
         vertex -0.000842932 0.0752164 0.0148719
         vertex -0.00121312 0.0749111 0.0149369
      endloop
   endfacet
   facet normal -2.95876e-14 -0.208108 -0.978106
      outer loop
         vertex -0.00461531 0.0673292 0.01655
         vertex -0.00460831 0.0673381 0.0165481
         vertex -0.0046201 0.0668937 0.0166427
      endloop
   endfacet
   facet normal -2.95876e-14 -0.208108 -0.978106
      outer loop
         vertex 0.00462011 0.0668937 0.0166427
         vertex 0.0046133 0.0668847 0.0166446
         vertex 0.00461531 0.0673292 0.01655
      endloop
   endfacet
   facet normal -2.95876e-14 -0.208108 -0.978106
      outer loop
         vertex 0.00121314 0.0749111 0.0149369
         vertex 0.00121469 0.0749019 0.0149388
         vertex 0.000852399 0.0752162 0.0148719
      endloop
   endfacet
   facet normal -2.95876e-14 -0.208108 -0.978106
      outer loop
         vertex -0.00460831 0.0673381 0.0165481
         vertex -0.00183768 0.0707189 0.0158288
         vertex -3.48781e-17 0.0683593 0.0163308
      endloop
   endfacet
   facet normal -2.95876e-14 -0.208108 -0.978106
      outer loop
         vertex 0.00121469 0.0749019 0.0149388
         vertex 0.00183768 0.0707189 0.0158288
         vertex -3.48781e-17 0.0683593 0.0163308
      endloop
   endfacet
   facet normal -2.95876e-14 -0.208108 -0.978106
      outer loop
         vertex 0.00367471 0.0662207 0.0167859
         vertex -3.48781e-17 0.0683593 0.0163308
         vertex 0.00183768 0.0707189 0.0158288
      endloop
   endfacet
   facet normal -2.95876e-14 -0.208108 -0.978106
      outer loop
         vertex -0.000842932 0.0752164 0.0148719
         vertex 0.000842932 0.0752164 0.0148719
         vertex -3.48781e-17 0.0683593 0.0163308
      endloop
   endfacet
   facet normal 0.699549 0.428814 -0.57162
      outer loop
         vertex 0.00474185 0.0674869 0.0168232
         vertex 0.00461531 0.0673292 0.01655
         vertex 0.0046083 0.0673381 0.0165481
      endloop
   endfacet
   facet normal 0.753288 0.352341 -0.555349
      outer loop
         vertex 0.00477412 0.067441 0.0168329
         vertex 0.00463785 0.0672972 0.0165568
         vertex 0.00461531 0.0673292 0.01655
      endloop
   endfacet
   facet normal 0.798326 0.270669 -0.537972
      outer loop
         vertex 0.00480116 0.067392 0.0168434
         vertex 0.00465674 0.0672629 0.0165641
         vertex 0.00463785 0.0672972 0.0165568
      endloop
   endfacet
   facet normal 0.834142 0.184741 -0.519689
      outer loop
         vertex 0.00482266 0.0673404 0.0168543
         vertex 0.00467176 0.0672269 0.0165718
         vertex 0.00465674 0.0672629 0.0165641
      endloop
   endfacet
   facet normal 0.860324 0.0955499 -0.500712
      outer loop
         vertex 0.00483838 0.0672869 0.0168657
         vertex 0.00468275 0.0671894 0.0165797
         vertex 0.00467176 0.0672269 0.0165718
      endloop
   endfacet
   facet normal 0.876568 0.00412544 -0.48126
      outer loop
         vertex 0.00484813 0.067232 0.0168774
         vertex 0.00468956 0.0671511 0.0165879
         vertex 0.00468275 0.0671894 0.0165797
      endloop
   endfacet
   facet normal 0.882687 -0.0884762 -0.461558
      outer loop
         vertex 0.0048518 0.0671764 0.0168892
         vertex 0.00469213 0.0671123 0.0165962
         vertex 0.00468956 0.0671511 0.0165879
      endloop
   endfacet
   facet normal 0.87861 -0.181185 -0.441833
      outer loop
         vertex 0.00484936 0.0671207 0.0169011
         vertex 0.00469042 0.0670734 0.0166044
         vertex 0.00469213 0.0671123 0.0165962
      endloop
   endfacet
   facet normal 0.864385 -0.272931 -0.422312
      outer loop
         vertex 0.00484081 0.0670656 0.0169128
         vertex 0.00468445 0.0670349 0.0166126
         vertex 0.00469042 0.0670734 0.0166044
      endloop
   endfacet
   facet normal 0.840175 -0.362654 -0.403222
      outer loop
         vertex 0.00482628 0.0670118 0.0169243
         vertex 0.0046743 0.0669972 0.0166206
         vertex 0.00468445 0.0670349 0.0166126
      endloop
   endfacet
   facet normal 0.806261 -0.449317 -0.384783
      outer loop
         vertex 0.00480592 0.0669597 0.0169353
         vertex 0.00466007 0.0669609 0.0166284
         vertex 0.0046743 0.0669972 0.0166206
      endloop
   endfacet
   facet normal 0.763033 -0.531919 -0.367208
      outer loop
         vertex 0.00477997 0.0669101 0.0169459
         vertex 0.00464194 0.0669262 0.0166358
         vertex 0.00466007 0.0669609 0.0166284
      endloop
   endfacet
   facet normal 0.710992 -0.609507 -0.3507
      outer loop
         vertex 0.00474872 0.0668636 0.0169558
         vertex 0.00462011 0.0668937 0.0166427
         vertex 0.00464194 0.0669262 0.0166358
      endloop
   endfacet
   facet normal 0.710992 -0.609507 -0.3507
      outer loop
         vertex 0.00474872 0.0668636 0.0169558
         vertex 0.00473994 0.0668521 0.0169582
         vertex 0.0046133 0.0668847 0.0166446
      endloop
   endfacet
   facet normal 0.694442 -0.630807 -0.346168
      outer loop
         vertex 0.0046133 0.0668847 0.0166446
         vertex 0.00462011 0.0668937 0.0166427
         vertex 0.00474872 0.0668636 0.0169558
      endloop
   endfacet
   facet normal 0.763033 -0.531919 -0.367208
      outer loop
         vertex 0.00464194 0.0669262 0.0166358
         vertex 0.00477997 0.0669101 0.0169459
         vertex 0.00474872 0.0668636 0.0169558
      endloop
   endfacet
   facet normal 0.806261 -0.449317 -0.384783
      outer loop
         vertex 0.00466007 0.0669609 0.0166284
         vertex 0.00480592 0.0669597 0.0169353
         vertex 0.00477997 0.0669101 0.0169459
      endloop
   endfacet
   facet normal 0.840175 -0.362654 -0.403222
      outer loop
         vertex 0.0046743 0.0669972 0.0166206
         vertex 0.00482628 0.0670118 0.0169243
         vertex 0.00480592 0.0669597 0.0169353
      endloop
   endfacet
   facet normal 0.864385 -0.272931 -0.422312
      outer loop
         vertex 0.00468445 0.0670349 0.0166126
         vertex 0.00484081 0.0670656 0.0169128
         vertex 0.00482628 0.0670118 0.0169243
      endloop
   endfacet
   facet normal 0.87861 -0.181185 -0.441833
      outer loop
         vertex 0.00469042 0.0670734 0.0166044
         vertex 0.00484936 0.0671207 0.0169011
         vertex 0.00484081 0.0670656 0.0169128
      endloop
   endfacet
   facet normal 0.882687 -0.0884762 -0.461558
      outer loop
         vertex 0.00469213 0.0671123 0.0165962
         vertex 0.0048518 0.0671764 0.0168892
         vertex 0.00484936 0.0671207 0.0169011
      endloop
   endfacet
   facet normal 0.876568 0.00412544 -0.48126
      outer loop
         vertex 0.00468956 0.0671511 0.0165879
         vertex 0.00484813 0.067232 0.0168774
         vertex 0.0048518 0.0671764 0.0168892
      endloop
   endfacet
   facet normal 0.860324 0.0955499 -0.500712
      outer loop
         vertex 0.00468275 0.0671894 0.0165797
         vertex 0.00483838 0.0672869 0.0168657
         vertex 0.00484813 0.067232 0.0168774
      endloop
   endfacet
   facet normal 0.834142 0.184741 -0.519689
      outer loop
         vertex 0.00467176 0.0672269 0.0165718
         vertex 0.00482266 0.0673404 0.0168543
         vertex 0.00483838 0.0672869 0.0168657
      endloop
   endfacet
   facet normal 0.798326 0.270669 -0.537972
      outer loop
         vertex 0.00465674 0.0672629 0.0165641
         vertex 0.00480116 0.067392 0.0168434
         vertex 0.00482266 0.0673404 0.0168543
      endloop
   endfacet
   facet normal 0.753288 0.352341 -0.555349
      outer loop
         vertex 0.00463785 0.0672972 0.0165568
         vertex 0.00477412 0.067441 0.0168329
         vertex 0.00480116 0.067392 0.0168434
      endloop
   endfacet
   facet normal 0.699549 0.428814 -0.57162
      outer loop
         vertex 0.00461531 0.0673292 0.01655
         vertex 0.00474185 0.0674869 0.0168232
         vertex 0.00477412 0.067441 0.0168329
      endloop
   endfacet
   facet normal 0.682533 0.44976 -0.576076
      outer loop
         vertex 0.0046083 0.0673381 0.0165481
         vertex 0.00473284 0.0674982 0.0168208
         vertex 0.00474185 0.0674869 0.0168232
      endloop
   endfacet
   facet normal 0.688909 0.442477 -0.574124
      outer loop
         vertex 0.0046083 0.0673381 0.0165481
         vertex 0.00183768 0.0707189 0.0158288
         vertex 0.00198928 0.0708458 0.0161085
      endloop
   endfacet
   facet normal 0.688909 0.442477 -0.574124
      outer loop
         vertex 0.00198928 0.0708458 0.0161085
         vertex 0.00473284 0.0674982 0.0168208
         vertex 0.0046083 0.0673381 0.0165481
      endloop
   endfacet
   facet normal 0.873732 0.0267512 -0.485672
      outer loop
         vertex 0.00121469 0.0749019 0.0149388
         vertex 0.00137255 0.0749868 0.0152274
         vertex 0.00198928 0.0708458 0.0161085
      endloop
   endfacet
   facet normal 0.873732 0.0267512 -0.485672
      outer loop
         vertex 0.00198928 0.0708458 0.0161085
         vertex 0.00183768 0.0707189 0.0158288
         vertex 0.00121469 0.0749019 0.0149388
      endloop
   endfacet
endsolid Part 3. Units = meters