solid Part 2. STL generated by ONSHAPE BY PTC INC, 1.216. Units = meters
   facet normal -0.710975 -0.60953 -0.350695
      outer loop
         vertex -0.00474871 0.0551263 0.0194531
         vertex -0.0046201 0.0551564 0.01914
         vertex -0.00461329 0.0551474 0.0191419
      endloop
   endfacet
   facet normal -0.763019 -0.531944 -0.367203
      outer loop
         vertex -0.00477996 0.0551729 0.0194432
         vertex -0.00464193 0.055189 0.019133
         vertex -0.0046201 0.0551564 0.01914
      endloop
   endfacet
   facet normal -0.806249 -0.449342 -0.384778
      outer loop
         vertex -0.00480591 0.0552225 0.0194326
         vertex -0.00466006 0.0552236 0.0191257
         vertex -0.00464193 0.055189 0.019133
      endloop
   endfacet
   facet normal -0.840166 -0.36268 -0.403217
      outer loop
         vertex -0.00482627 0.0552745 0.0194216
         vertex -0.00467429 0.05526 0.0191179
         vertex -0.00466006 0.0552236 0.0191257
      endloop
   endfacet
   facet normal -0.864379 -0.272959 -0.422306
      outer loop
         vertex -0.00484081 0.0553284 0.0194101
         vertex -0.00468445 0.0552976 0.0191099
         vertex -0.00467429 0.05526 0.0191179
      endloop
   endfacet
   facet normal -0.878607 -0.181213 -0.441827
      outer loop
         vertex -0.00484935 0.0553834 0.0193984
         vertex -0.00469042 0.0553361 0.0191017
         vertex -0.00468445 0.0552976 0.0191099
      endloop
   endfacet
   facet normal -0.882687 -0.0885043 -0.461552
      outer loop
         vertex -0.0048518 0.0554391 0.0193865
         vertex -0.00469213 0.055375 0.0190935
         vertex -0.00469042 0.0553361 0.0191017
      endloop
   endfacet
   facet normal -0.876571 0.00409749 -0.481255
      outer loop
         vertex -0.00484813 0.0554947 0.0193747
         vertex -0.00468956 0.0554138 0.0190852
         vertex -0.00469213 0.055375 0.0190935
      endloop
   endfacet
   facet normal -0.86033 0.0955225 -0.500707
      outer loop
         vertex -0.00483838 0.0555496 0.019363
         vertex -0.00468275 0.0554522 0.019077
         vertex -0.00468956 0.0554138 0.0190852
      endloop
   endfacet
   facet normal -0.834152 0.184715 -0.519684
      outer loop
         vertex -0.00482266 0.0556031 0.0193516
         vertex -0.00467177 0.0554896 0.0190691
         vertex -0.00468275 0.0554522 0.019077
      endloop
   endfacet
   facet normal -0.798338 0.270644 -0.537967
      outer loop
         vertex -0.00480116 0.0556547 0.0193407
         vertex -0.00465675 0.0555256 0.0190614
         vertex -0.00467177 0.0554896 0.0190691
      endloop
   endfacet
   facet normal -0.753303 0.352317 -0.555344
      outer loop
         vertex -0.00477412 0.0557038 0.0193302
         vertex -0.00463785 0.0555599 0.0190541
         vertex -0.00465675 0.0555256 0.0190614
      endloop
   endfacet
   facet normal -0.699567 0.428792 -0.571615
      outer loop
         vertex -0.00474186 0.0557497 0.0193205
         vertex -0.00461531 0.055592 0.0190473
         vertex -0.00463785 0.0555599 0.0190541
      endloop
   endfacet
   facet normal -0.699567 0.428792 -0.571615
      outer loop
         vertex -0.00474186 0.0557497 0.0193205
         vertex -0.00473284 0.055761 0.0193181
         vertex -0.00460831 0.0556009 0.0190454
      endloop
   endfacet
   facet normal -0.682552 0.449738 -0.576072
      outer loop
         vertex -0.00460831 0.0556009 0.0190454
         vertex -0.00461531 0.055592 0.0190473
         vertex -0.00474186 0.0557497 0.0193205
      endloop
   endfacet
   facet normal -0.753303 0.352317 -0.555344
      outer loop
         vertex -0.00463785 0.0555599 0.0190541
         vertex -0.00477412 0.0557038 0.0193302
         vertex -0.00474186 0.0557497 0.0193205
      endloop
   endfacet
   facet normal -0.798338 0.270644 -0.537967
      outer loop
         vertex -0.00465675 0.0555256 0.0190614
         vertex -0.00480116 0.0556547 0.0193407
         vertex -0.00477412 0.0557038 0.0193302
      endloop
   endfacet
   facet normal -0.834152 0.184715 -0.519684
      outer loop
         vertex -0.00467177 0.0554896 0.0190691
         vertex -0.00482266 0.0556031 0.0193516
         vertex -0.00480116 0.0556547 0.0193407
      endloop
   endfacet
   facet normal -0.86033 0.0955225 -0.500707
      outer loop
         vertex -0.00468275 0.0554522 0.019077
         vertex -0.00483838 0.0555496 0.019363
         vertex -0.00482266 0.0556031 0.0193516
      endloop
   endfacet
   facet normal -0.876571 0.00409749 -0.481255
      outer loop
         vertex -0.00468956 0.0554138 0.0190852
         vertex -0.00484813 0.0554947 0.0193747
         vertex -0.00483838 0.0555496 0.019363
      endloop
   endfacet
   facet normal -0.882687 -0.0885043 -0.461552
      outer loop
         vertex -0.00469213 0.055375 0.0190935
         vertex -0.0048518 0.0554391 0.0193865
         vertex -0.00484813 0.0554947 0.0193747
      endloop
   endfacet
   facet normal -0.878607 -0.181213 -0.441827
      outer loop
         vertex -0.00469042 0.0553361 0.0191017
         vertex -0.00484935 0.0553834 0.0193984
         vertex -0.0048518 0.0554391 0.0193865
      endloop
   endfacet
   facet normal -0.864379 -0.272959 -0.422306
      outer loop
         vertex -0.00468445 0.0552976 0.0191099
         vertex -0.00484081 0.0553284 0.0194101
         vertex -0.00484935 0.0553834 0.0193984
      endloop
   endfacet
   facet normal -0.840166 -0.36268 -0.403217
      outer loop
         vertex -0.00467429 0.05526 0.0191179
         vertex -0.00482627 0.0552745 0.0194216
         vertex -0.00484081 0.0553284 0.0194101
      endloop
   endfacet
   facet normal -0.806249 -0.449342 -0.384778
      outer loop
         vertex -0.00466006 0.0552236 0.0191257
         vertex -0.00480591 0.0552225 0.0194326
         vertex -0.00482627 0.0552745 0.0194216
      endloop
   endfacet
   facet normal -0.763019 -0.531944 -0.367203
      outer loop
         vertex -0.00464193 0.055189 0.019133
         vertex -0.00477996 0.0551729 0.0194432
         vertex -0.00480591 0.0552225 0.0194326
      endloop
   endfacet
   facet normal -0.710975 -0.60953 -0.350695
      outer loop
         vertex -0.0046201 0.0551564 0.01914
         vertex -0.00474871 0.0551263 0.0194531
         vertex -0.00477996 0.0551729 0.0194432
      endloop
   endfacet
   facet normal -0.694424 -0.630829 -0.346164
      outer loop
         vertex -0.00461329 0.0551474 0.0191419
         vertex -0.00473995 0.0551148 0.0194556
         vertex -0.00474871 0.0551263 0.0194531
      endloop
   endfacet
   facet normal -0.700636 -0.62325 -0.347374
      outer loop
         vertex -0.00461329 0.0551474 0.0191419
         vertex -0.0041649 0.0545756 0.0192636
         vertex -0.00429149 0.0545431 0.0195772
      endloop
   endfacet
   facet normal -0.700636 -0.62325 -0.347374
      outer loop
         vertex -0.00429149 0.0545431 0.0195772
         vertex -0.00473995 0.0551148 0.0194556
         vertex -0.00461329 0.0551474 0.0191419
      endloop
   endfacet
   facet normal 0.462683 -0.833232 -0.302737
      outer loop
         vertex -0.00367472 0.0544834 0.0192832
         vertex -0.00359311 0.0544118 0.0196052
         vertex -0.00359995 0.054408 0.0196059
      endloop
   endfacet
   facet normal 0.367397 -0.882988 -0.29215
      outer loop
         vertex -0.00364831 0.0543833 0.0196112
         vertex -0.00371469 0.0544628 0.0192875
         vertex -0.00368092 0.05448 0.0192839
      endloop
   endfacet
   facet normal 0.282757 -0.915822 -0.285164
      outer loop
         vertex -0.00369901 0.0543637 0.0196154
         vertex -0.0037501 0.0544491 0.0192905
         vertex -0.00371469 0.0544628 0.0192875
      endloop
   endfacet
   facet normal 0.19511 -0.939955 -0.28003
      outer loop
         vertex -0.00375151 0.0543492 0.0196184
         vertex -0.00378676 0.054439 0.0192926
         vertex -0.0037501 0.0544491 0.0192905
      endloop
   endfacet
   facet normal 0.105388 -0.955131 -0.276801
      outer loop
         vertex -0.00380525 0.0543401 0.0196204
         vertex -0.00382429 0.0544326 0.019294
         vertex -0.00378676 0.054439 0.0192926
      endloop
   endfacet
   facet normal 0.0145453 -0.961188 -0.275512
      outer loop
         vertex -0.00385966 0.0543365 0.0196211
         vertex -0.00386229 0.0544301 0.0192945
         vertex -0.00382429 0.0544326 0.019294
      endloop
   endfacet
   facet normal -0.0764521 -0.958061 -0.276177
      outer loop
         vertex -0.00391417 0.0543384 0.0196207
         vertex -0.00390036 0.0544314 0.0192942
         vertex -0.00386229 0.0544301 0.0192945
      endloop
   endfacet
   facet normal -0.166637 -0.945785 -0.278789
      outer loop
         vertex -0.00396819 0.0543457 0.0196192
         vertex -0.00393808 0.0544365 0.0192931
         vertex -0.00390036 0.0544314 0.0192942
      endloop
   endfacet
   facet normal -0.255049 -0.924489 -0.28332
      outer loop
         vertex -0.00402115 0.0543585 0.0196165
         vertex -0.00397506 0.0544454 0.0192912
         vertex -0.00393808 0.0544365 0.0192931
      endloop
   endfacet
   facet normal -0.340748 -0.8944 -0.289722
      outer loop
         vertex -0.00407248 0.0543765 0.0196126
         vertex -0.00401091 0.054458 0.0192886
         vertex -0.00397506 0.0544454 0.0192912
      endloop
   endfacet
   facet normal -0.422824 -0.855838 -0.297927
      outer loop
         vertex -0.00412164 0.0543996 0.0196077
         vertex -0.00404524 0.0544742 0.0192851
         vertex -0.00401091 0.054458 0.0192886
      endloop
   endfacet
   facet normal -0.500403 -0.809214 -0.307847
      outer loop
         vertex -0.00416811 0.0544275 0.0196018
         vertex -0.0040777 0.0544937 0.019281
         vertex -0.00404524 0.0544742 0.0192851
      endloop
   endfacet
   facet normal -0.57266 -0.755022 -0.319377
      outer loop
         vertex -0.00421139 0.05446 0.0195949
         vertex -0.00410792 0.0545163 0.0192762
         vertex -0.0040777 0.0544937 0.019281
      endloop
   endfacet
   facet normal -0.638827 -0.69384 -0.332395
      outer loop
         vertex -0.00425102 0.0544966 0.0195871
         vertex -0.0041356 0.0545419 0.0192707
         vertex -0.00410792 0.0545163 0.0192762
      endloop
   endfacet
   facet normal -0.6982 -0.626318 -0.346761
      outer loop
         vertex -0.00428659 0.0545371 0.0195785
         vertex -0.00416044 0.0545702 0.0192647
         vertex -0.0041356 0.0545419 0.0192707
      endloop
   endfacet
   facet normal -0.6982 -0.626318 -0.346761
      outer loop
         vertex -0.00428659 0.0545371 0.0195785
         vertex -0.00429149 0.0545431 0.0195772
         vertex -0.0041649 0.0545756 0.0192636
      endloop
   endfacet
   facet normal -0.708468 -0.613081 -0.349577
      outer loop
         vertex -0.0041649 0.0545756 0.0192636
         vertex -0.00416044 0.0545702 0.0192647
         vertex -0.00428659 0.0545371 0.0195785
      endloop
   endfacet
   facet normal -0.638827 -0.69384 -0.332395
      outer loop
         vertex -0.0041356 0.0545419 0.0192707
         vertex -0.00425102 0.0544966 0.0195871
         vertex -0.00428659 0.0545371 0.0195785
      endloop
   endfacet
   facet normal -0.57266 -0.755022 -0.319377
      outer loop
         vertex -0.00410792 0.0545163 0.0192762
         vertex -0.00421139 0.05446 0.0195949
         vertex -0.00425102 0.0544966 0.0195871
      endloop
   endfacet
   facet normal -0.500403 -0.809214 -0.307847
      outer loop
         vertex -0.0040777 0.0544937 0.019281
         vertex -0.00416811 0.0544275 0.0196018
         vertex -0.00421139 0.05446 0.0195949
      endloop
   endfacet
   facet normal -0.422824 -0.855838 -0.297927
      outer loop
         vertex -0.00404524 0.0544742 0.0192851
         vertex -0.00412164 0.0543996 0.0196077
         vertex -0.00416811 0.0544275 0.0196018
      endloop
   endfacet
   facet normal -0.340748 -0.8944 -0.289722
      outer loop
         vertex -0.00401091 0.054458 0.0192886
         vertex -0.00407248 0.0543765 0.0196126
         vertex -0.00412164 0.0543996 0.0196077
      endloop
   endfacet
   facet normal -0.255049 -0.924489 -0.28332
      outer loop
         vertex -0.00397506 0.0544454 0.0192912
         vertex -0.00402115 0.0543585 0.0196165
         vertex -0.00407248 0.0543765 0.0196126
      endloop
   endfacet
   facet normal -0.166637 -0.945785 -0.278789
      outer loop
         vertex -0.00393808 0.0544365 0.0192931
         vertex -0.00396819 0.0543457 0.0196192
         vertex -0.00402115 0.0543585 0.0196165
      endloop
   endfacet
   facet normal -0.0764521 -0.958061 -0.276177
      outer loop
         vertex -0.00390036 0.0544314 0.0192942
         vertex -0.00391417 0.0543384 0.0196207
         vertex -0.00396819 0.0543457 0.0196192
      endloop
   endfacet
   facet normal 0.0145453 -0.961188 -0.275512
      outer loop
         vertex -0.00386229 0.0544301 0.0192945
         vertex -0.00385966 0.0543365 0.0196211
         vertex -0.00391417 0.0543384 0.0196207
      endloop
   endfacet
   facet normal 0.105388 -0.955131 -0.276801
      outer loop
         vertex -0.00382429 0.0544326 0.019294
         vertex -0.00380525 0.0543401 0.0196204
         vertex -0.00385966 0.0543365 0.0196211
      endloop
   endfacet
   facet normal 0.19511 -0.939955 -0.28003
      outer loop
         vertex -0.00378676 0.054439 0.0192926
         vertex -0.00375151 0.0543492 0.0196184
         vertex -0.00380525 0.0543401 0.0196204
      endloop
   endfacet
   facet normal 0.282757 -0.915822 -0.285164
      outer loop
         vertex -0.0037501 0.0544491 0.0192905
         vertex -0.00369901 0.0543637 0.0196154
         vertex -0.00375151 0.0543492 0.0196184
      endloop
   endfacet
   facet normal 0.367397 -0.882988 -0.29215
      outer loop
         vertex -0.00371469 0.0544628 0.0192875
         vertex -0.00364831 0.0543833 0.0196112
         vertex -0.00369901 0.0543637 0.0196154
      endloop
   endfacet
   facet normal 0.448129 -0.841802 -0.300913
      outer loop
         vertex -0.00368092 0.05448 0.0192839
         vertex -0.00359995 0.054408 0.0196059
         vertex -0.00364831 0.0543833 0.0196112
      endloop
   endfacet
   facet normal 0.448129 -0.841802 -0.300913
      outer loop
         vertex -0.00359995 0.054408 0.0196059
         vertex -0.00368092 0.05448 0.0192839
         vertex -0.00367472 0.0544834 0.0192832
      endloop
   endfacet
   facet normal 0.45152 -0.839854 -0.301288
      outer loop
         vertex -0.00367472 0.0544834 0.0192832
         vertex -7.35299e-17 0.056622 0.0188281
         vertex -7.37173e-17 0.0565029 0.0191602
      endloop
   endfacet
   facet normal 0.45152 -0.839854 -0.301288
      outer loop
         vertex -7.37173e-17 0.0565029 0.0191602
         vertex -0.00359311 0.0544118 0.0196052
         vertex -0.00367472 0.0544834 0.0192832
      endloop
   endfacet
   facet normal -0.45152 -0.839854 -0.301288
      outer loop
         vertex 0.00367471 0.0544834 0.0192832
         vertex 0.00359313 0.0544118 0.0196051
         vertex -7.37173e-17 0.0565029 0.0191602
      endloop
   endfacet
   facet normal -0.45152 -0.839854 -0.301288
      outer loop
         vertex -7.37173e-17 0.0565029 0.0191602
         vertex -7.35299e-17 0.056622 0.0188281
         vertex 0.00367471 0.0544834 0.0192832
      endloop
   endfacet
   facet normal 0.70849 -0.613053 -0.349583
      outer loop
         vertex 0.0041649 0.0545756 0.0192636
         vertex 0.00429152 0.0545431 0.0195773
         vertex 0.00428658 0.0545371 0.0195785
      endloop
   endfacet
   facet normal 0.638852 -0.693814 -0.3324
      outer loop
         vertex 0.00425102 0.0544967 0.0195871
         vertex 0.00413559 0.0545419 0.0192707
         vertex 0.00416042 0.0545702 0.0192647
      endloop
   endfacet
   facet normal 0.572688 -0.754999 -0.319382
      outer loop
         vertex 0.00421139 0.05446 0.0195949
         vertex 0.00410791 0.0545163 0.0192762
         vertex 0.00413559 0.0545419 0.0192707
      endloop
   endfacet
   facet normal 0.500433 -0.809194 -0.307851
      outer loop
         vertex 0.00416811 0.0544275 0.0196018
         vertex 0.00407769 0.0544937 0.019281
         vertex 0.00410791 0.0545163 0.0192762
      endloop
   endfacet
   facet normal 0.422856 -0.855821 -0.29793
      outer loop
         vertex 0.00412164 0.0543996 0.0196077
         vertex 0.00404524 0.0544742 0.0192851
         vertex 0.00407769 0.0544937 0.019281
      endloop
   endfacet
   facet normal 0.340782 -0.894386 -0.289725
      outer loop
         vertex 0.00407248 0.0543765 0.0196126
         vertex 0.00401091 0.054458 0.0192886
         vertex 0.00404524 0.0544742 0.0192851
      endloop
   endfacet
   facet normal 0.255083 -0.924479 -0.283323
      outer loop
         vertex 0.00402115 0.0543585 0.0196165
         vertex 0.00397506 0.0544454 0.0192912
         vertex 0.00401091 0.054458 0.0192886
      endloop
   endfacet
   facet normal 0.166672 -0.945778 -0.278791
      outer loop
         vertex 0.00396819 0.0543457 0.0196192
         vertex 0.00393807 0.0544365 0.0192931
         vertex 0.00397506 0.0544454 0.0192912
      endloop
   endfacet
   facet normal 0.0764883 -0.958058 -0.276178
      outer loop
         vertex 0.00391417 0.0543384 0.0196207
         vertex 0.00390035 0.0544314 0.0192942
         vertex 0.00393807 0.0544365 0.0192931
      endloop
   endfacet
   facet normal -0.0145091 -0.961188 -0.275512
      outer loop
         vertex 0.00385966 0.0543365 0.0196211
         vertex 0.00386229 0.0544301 0.0192945
         vertex 0.00390035 0.0544314 0.0192942
      endloop
   endfacet
   facet normal -0.105352 -0.955135 -0.2768
      outer loop
         vertex 0.00380525 0.0543401 0.0196204
         vertex 0.00382429 0.0544326 0.019294
         vertex 0.00386229 0.0544301 0.0192945
      endloop
   endfacet
   facet normal -0.195075 -0.939963 -0.280028
      outer loop
         vertex 0.00375151 0.0543492 0.0196184
         vertex 0.00378675 0.054439 0.0192926
         vertex 0.00382429 0.0544326 0.019294
      endloop
   endfacet
   facet normal -0.282723 -0.915833 -0.285162
      outer loop
         vertex 0.00369901 0.0543637 0.0196154
         vertex 0.00375009 0.0544491 0.0192905
         vertex 0.00378675 0.054439 0.0192926
      endloop
   endfacet
   facet normal -0.367364 -0.883003 -0.292147
      outer loop
         vertex 0.00364831 0.0543833 0.0196112
         vertex 0.00371468 0.0544628 0.0192875
         vertex 0.00375009 0.0544491 0.0192905
      endloop
   endfacet
   facet normal -0.448098 -0.84182 -0.300909
      outer loop
         vertex 0.00359995 0.054408 0.0196059
         vertex 0.00368091 0.05448 0.0192839
         vertex 0.00371468 0.0544628 0.0192875
      endloop
   endfacet
   facet normal -0.448098 -0.84182 -0.300909
      outer loop
         vertex 0.00359995 0.054408 0.0196059
         vertex 0.00359313 0.0544118 0.0196051
         vertex 0.00367471 0.0544834 0.0192832
      endloop
   endfacet
   facet normal -0.462652 -0.83325 -0.302733
      outer loop
         vertex 0.00367471 0.0544834 0.0192832
         vertex 0.00368091 0.05448 0.0192839
         vertex 0.00359995 0.054408 0.0196059
      endloop
   endfacet
   facet normal -0.367364 -0.883003 -0.292147
      outer loop
         vertex 0.00371468 0.0544628 0.0192875
         vertex 0.00364831 0.0543833 0.0196112
         vertex 0.00359995 0.054408 0.0196059
      endloop
   endfacet
   facet normal -0.282723 -0.915833 -0.285162
      outer loop
         vertex 0.00375009 0.0544491 0.0192905
         vertex 0.00369901 0.0543637 0.0196154
         vertex 0.00364831 0.0543833 0.0196112
      endloop
   endfacet
   facet normal -0.195075 -0.939963 -0.280028
      outer loop
         vertex 0.00378675 0.054439 0.0192926
         vertex 0.00375151 0.0543492 0.0196184
         vertex 0.00369901 0.0543637 0.0196154
      endloop
   endfacet
   facet normal -0.105352 -0.955135 -0.2768
      outer loop
         vertex 0.00382429 0.0544326 0.019294
         vertex 0.00380525 0.0543401 0.0196204
         vertex 0.00375151 0.0543492 0.0196184
      endloop
   endfacet
   facet normal -0.0145091 -0.961188 -0.275512
      outer loop
         vertex 0.00386229 0.0544301 0.0192945
         vertex 0.00385966 0.0543365 0.0196211
         vertex 0.00380525 0.0543401 0.0196204
      endloop
   endfacet
   facet normal 0.0764883 -0.958058 -0.276178
      outer loop
         vertex 0.00390035 0.0544314 0.0192942
         vertex 0.00391417 0.0543384 0.0196207
         vertex 0.00385966 0.0543365 0.0196211
      endloop
   endfacet
   facet normal 0.166672 -0.945778 -0.278791
      outer loop
         vertex 0.00393807 0.0544365 0.0192931
         vertex 0.00396819 0.0543457 0.0196192
         vertex 0.00391417 0.0543384 0.0196207
      endloop
   endfacet
   facet normal 0.255083 -0.924479 -0.283323
      outer loop
         vertex 0.00397506 0.0544454 0.0192912
         vertex 0.00402115 0.0543585 0.0196165
         vertex 0.00396819 0.0543457 0.0196192
      endloop
   endfacet
   facet normal 0.340782 -0.894386 -0.289725
      outer loop
         vertex 0.00401091 0.054458 0.0192886
         vertex 0.00407248 0.0543765 0.0196126
         vertex 0.00402115 0.0543585 0.0196165
      endloop
   endfacet
   facet normal 0.422856 -0.855821 -0.29793
      outer loop
         vertex 0.00404524 0.0544742 0.0192851
         vertex 0.00412164 0.0543996 0.0196077
         vertex 0.00407248 0.0543765 0.0196126
      endloop
   endfacet
   facet normal 0.500433 -0.809194 -0.307851
      outer loop
         vertex 0.00407769 0.0544937 0.019281
         vertex 0.00416811 0.0544275 0.0196018
         vertex 0.00412164 0.0543996 0.0196077
      endloop
   endfacet
   facet normal 0.572688 -0.754999 -0.319382
      outer loop
         vertex 0.00410791 0.0545163 0.0192762
         vertex 0.00421139 0.05446 0.0195949
         vertex 0.00416811 0.0544275 0.0196018
      endloop
   endfacet
   facet normal 0.638852 -0.693814 -0.3324
      outer loop
         vertex 0.00413559 0.0545419 0.0192707
         vertex 0.00425102 0.0544967 0.0195871
         vertex 0.00421139 0.05446 0.0195949
      endloop
   endfacet
   facet normal 0.698222 -0.62629 -0.346767
      outer loop
         vertex 0.00416042 0.0545702 0.0192647
         vertex 0.00428658 0.0545371 0.0195785
         vertex 0.00425102 0.0544967 0.0195871
      endloop
   endfacet
   facet normal 0.698222 -0.62629 -0.346767
      outer loop
         vertex 0.00428658 0.0545371 0.0195785
         vertex 0.00416042 0.0545702 0.0192647
         vertex 0.0041649 0.0545756 0.0192636
      endloop
   endfacet
   facet normal 0.700636 -0.62325 -0.347374
      outer loop
         vertex 0.0041649 0.0545756 0.0192636
         vertex 0.0046133 0.0551474 0.0191419
         vertex 0.00473994 0.0551148 0.0194555
      endloop
   endfacet
   facet normal 0.700636 -0.62325 -0.347374
      outer loop
         vertex 0.00473994 0.0551148 0.0194555
         vertex 0.00429152 0.0545431 0.0195773
         vertex 0.0041649 0.0545756 0.0192636
      endloop
   endfacet
   facet normal 0.699549 0.428814 -0.57162
      outer loop
         vertex 0.00474185 0.0557497 0.0193205
         vertex 0.00461531 0.055592 0.0190473
         vertex 0.0046083 0.0556009 0.0190454
      endloop
   endfacet
   facet normal 0.753288 0.352341 -0.555349
      outer loop
         vertex 0.00477412 0.0557038 0.0193302
         vertex 0.00463785 0.0555599 0.0190541
         vertex 0.00461531 0.055592 0.0190473
      endloop
   endfacet
   facet normal 0.798326 0.270669 -0.537972
      outer loop
         vertex 0.00480116 0.0556547 0.0193407
         vertex 0.00465674 0.0555256 0.0190614
         vertex 0.00463785 0.0555599 0.0190541
      endloop
   endfacet
   facet normal 0.834142 0.184741 -0.519689
      outer loop
         vertex 0.00482266 0.0556031 0.0193516
         vertex 0.00467176 0.0554896 0.0190691
         vertex 0.00465674 0.0555256 0.0190614
      endloop
   endfacet
   facet normal 0.860324 0.0955499 -0.500712
      outer loop
         vertex 0.00483838 0.0555496 0.019363
         vertex 0.00468275 0.0554522 0.019077
         vertex 0.00467176 0.0554896 0.0190691
      endloop
   endfacet
   facet normal 0.876568 0.00412544 -0.48126
      outer loop
         vertex 0.00484813 0.0554947 0.0193747
         vertex 0.00468956 0.0554138 0.0190852
         vertex 0.00468275 0.0554522 0.019077
      endloop
   endfacet
   facet normal 0.882687 -0.0884762 -0.461558
      outer loop
         vertex 0.0048518 0.0554391 0.0193865
         vertex 0.00469213 0.055375 0.0190935
         vertex 0.00468956 0.0554138 0.0190852
      endloop
   endfacet
   facet normal 0.87861 -0.181185 -0.441833
      outer loop
         vertex 0.00484936 0.0553834 0.0193984
         vertex 0.00469042 0.0553361 0.0191017
         vertex 0.00469213 0.055375 0.0190935
      endloop
   endfacet
   facet normal 0.864385 -0.272931 -0.422312
      outer loop
         vertex 0.00484081 0.0553284 0.0194101
         vertex 0.00468445 0.0552976 0.0191099
         vertex 0.00469042 0.0553361 0.0191017
      endloop
   endfacet
   facet normal 0.840175 -0.362654 -0.403222
      outer loop
         vertex 0.00482628 0.0552745 0.0194216
         vertex 0.0046743 0.05526 0.0191179
         vertex 0.00468445 0.0552976 0.0191099
      endloop
   endfacet
   facet normal 0.806261 -0.449317 -0.384783
      outer loop
         vertex 0.00480592 0.0552225 0.0194326
         vertex 0.00466007 0.0552236 0.0191257
         vertex 0.0046743 0.05526 0.0191179
      endloop
   endfacet
   facet normal 0.763033 -0.531919 -0.367208
      outer loop
         vertex 0.00477997 0.0551729 0.0194432
         vertex 0.00464194 0.055189 0.019133
         vertex 0.00466007 0.0552236 0.0191257
      endloop
   endfacet
   facet normal 0.710992 -0.609507 -0.3507
      outer loop
         vertex 0.00474872 0.0551263 0.0194531
         vertex 0.00462011 0.0551564 0.01914
         vertex 0.00464194 0.055189 0.019133
      endloop
   endfacet
   facet normal 0.710992 -0.609507 -0.3507
      outer loop
         vertex 0.00474872 0.0551263 0.0194531
         vertex 0.00473994 0.0551148 0.0194555
         vertex 0.0046133 0.0551474 0.0191419
      endloop
   endfacet
   facet normal 0.694442 -0.630807 -0.346168
      outer loop
         vertex 0.0046133 0.0551474 0.0191419
         vertex 0.00462011 0.0551564 0.01914
         vertex 0.00474872 0.0551263 0.0194531
      endloop
   endfacet
   facet normal 0.763033 -0.531919 -0.367208
      outer loop
         vertex 0.00464194 0.055189 0.019133
         vertex 0.00477997 0.0551729 0.0194432
         vertex 0.00474872 0.0551263 0.0194531
      endloop
   endfacet
   facet normal 0.806261 -0.449317 -0.384783
      outer loop
         vertex 0.00466007 0.0552236 0.0191257
         vertex 0.00480592 0.0552225 0.0194326
         vertex 0.00477997 0.0551729 0.0194432
      endloop
   endfacet
   facet normal 0.840175 -0.362654 -0.403222
      outer loop
         vertex 0.0046743 0.05526 0.0191179
         vertex 0.00482628 0.0552745 0.0194216
         vertex 0.00480592 0.0552225 0.0194326
      endloop
   endfacet
   facet normal 0.864385 -0.272931 -0.422312
      outer loop
         vertex 0.00468445 0.0552976 0.0191099
         vertex 0.00484081 0.0553284 0.0194101
         vertex 0.00482628 0.0552745 0.0194216
      endloop
   endfacet
   facet normal 0.87861 -0.181185 -0.441833
      outer loop
         vertex 0.00469042 0.0553361 0.0191017
         vertex 0.00484936 0.0553834 0.0193984
         vertex 0.00484081 0.0553284 0.0194101
      endloop
   endfacet
   facet normal 0.882687 -0.0884762 -0.461558
      outer loop
         vertex 0.00469213 0.055375 0.0190935
         vertex 0.0048518 0.0554391 0.0193865
         vertex 0.00484936 0.0553834 0.0193984
      endloop
   endfacet
   facet normal 0.876568 0.00412544 -0.48126
      outer loop
         vertex 0.00468956 0.0554138 0.0190852
         vertex 0.00484813 0.0554947 0.0193747
         vertex 0.0048518 0.0554391 0.0193865
      endloop
   endfacet
   facet normal 0.860324 0.0955499 -0.500712
      outer loop
         vertex 0.00468275 0.0554522 0.019077
         vertex 0.00483838 0.0555496 0.019363
         vertex 0.00484813 0.0554947 0.0193747
      endloop
   endfacet
   facet normal 0.834142 0.184741 -0.519689
      outer loop
         vertex 0.00467176 0.0554896 0.0190691
         vertex 0.00482266 0.0556031 0.0193516
         vertex 0.00483838 0.0555496 0.019363
      endloop
   endfacet
   facet normal 0.798326 0.270669 -0.537972
      outer loop
         vertex 0.00465674 0.0555256 0.0190614
         vertex 0.00480116 0.0556547 0.0193407
         vertex 0.00482266 0.0556031 0.0193516
      endloop
   endfacet
   facet normal 0.753288 0.352341 -0.555349
      outer loop
         vertex 0.00463785 0.0555599 0.0190541
         vertex 0.00477412 0.0557038 0.0193302
         vertex 0.00480116 0.0556547 0.0193407
      endloop
   endfacet
   facet normal 0.699549 0.428814 -0.57162
      outer loop
         vertex 0.00461531 0.055592 0.0190473
         vertex 0.00474185 0.0557497 0.0193205
         vertex 0.00477412 0.0557038 0.0193302
      endloop
   endfacet
   facet normal 0.682533 0.44976 -0.576076
      outer loop
         vertex 0.0046083 0.0556009 0.0190454
         vertex 0.00473284 0.055761 0.0193181
         vertex 0.00474185 0.0557497 0.0193205
      endloop
   endfacet
   facet normal 0.688909 0.442477 -0.574124
      outer loop
         vertex 0.0046083 0.0556009 0.0190454
         vertex 0.00183768 0.0589816 0.0183261
         vertex 0.00198928 0.0591085 0.0186058
      endloop
   endfacet
   facet normal 0.688909 0.442477 -0.574124
      outer loop
         vertex 0.00198928 0.0591085 0.0186058
         vertex 0.00473284 0.055761 0.0193181
         vertex 0.0046083 0.0556009 0.0190454
      endloop
   endfacet
   facet normal 0.873732 0.0267512 -0.485672
      outer loop
         vertex 0.00121469 0.0631647 0.0174361
         vertex 0.00137255 0.0632496 0.0177247
         vertex 0.00198928 0.0591085 0.0186058
      endloop
   endfacet
   facet normal 0.873732 0.0267512 -0.485672
      outer loop
         vertex 0.00198928 0.0591085 0.0186058
         vertex 0.00183768 0.0589816 0.0183261
         vertex 0.00121469 0.0631647 0.0174361
      endloop
   endfacet
   facet normal -0.0121165 0.765808 -0.642955
      outer loop
         vertex 0.000842932 0.0634791 0.0173692
         vertex 0.000842931 0.0636977 0.0176295
         vertex 0.000854294 0.0636974 0.0176295
      endloop
   endfacet
   facet normal 0.105483 0.759704 -0.641656
      outer loop
         vertex 0.000911228 0.0636937 0.0176302
         vertex 0.000892169 0.0634764 0.0173698
         vertex 0.000852399 0.063479 0.0173692
      endloop
   endfacet
   facet normal 0.199252 0.743612 -0.638232
      outer loop
         vertex 0.000967427 0.0636841 0.0176323
         vertex 0.000931426 0.0634697 0.0173712
         vertex 0.000892169 0.0634764 0.0173698
      endloop
   endfacet
   facet normal 0.290704 0.717738 -0.632727
      outer loop
         vertex 0.00102224 0.0636686 0.0176356
         vertex 0.000969713 0.0634588 0.0173735
         vertex 0.000931426 0.0634697 0.0173712
      endloop
   endfacet
   facet normal 0.378776 0.682383 -0.625205
      outer loop
         vertex 0.00107502 0.0636474 0.0176401
         vertex 0.00100659 0.063444 0.0173766
         vertex 0.000969713 0.0634588 0.0173735
      endloop
   endfacet
   facet normal 0.462445 0.63796 -0.615753
      outer loop
         vertex 0.00112517 0.0636208 0.0176458
         vertex 0.00104161 0.0634254 0.0173806
         vertex 0.00100659 0.063444 0.0173766
      endloop
   endfacet
   facet normal 0.540737 0.584983 -0.604482
      outer loop
         vertex 0.00117209 0.063589 0.0176525
         vertex 0.00107439 0.0634032 0.0173853
         vertex 0.00104161 0.0634254 0.0173806
      endloop
   endfacet
   facet normal 0.612743 0.52407 -0.591521
      outer loop
         vertex 0.00121525 0.0635525 0.0176603
         vertex 0.00110454 0.0633777 0.0173908
         vertex 0.00107439 0.0634032 0.0173853
      endloop
   endfacet
   facet normal 0.677625 0.455927 -0.577023
      outer loop
         vertex 0.00125414 0.0635117 0.017669
         vertex 0.0011317 0.0633492 0.0173968
         vertex 0.00110454 0.0633777 0.0173908
      endloop
   endfacet
   facet normal 0.734628 0.381348 -0.561155
      outer loop
         vertex 0.0012883 0.063467 0.0176785
         vertex 0.00115557 0.063318 0.0174035
         vertex 0.0011317 0.0633492 0.0173968
      endloop
   endfacet
   facet normal 0.783091 0.301199 -0.544102
      outer loop
         vertex 0.00131735 0.0634189 0.0176887
         vertex 0.00117586 0.0632844 0.0174106
         vertex 0.00115557 0.063318 0.0174035
      endloop
   endfacet
   facet normal 0.82245 0.216413 -0.526062
      outer loop
         vertex 0.00134094 0.0633681 0.0176995
         vertex 0.00119233 0.0632489 0.0174182
         vertex 0.00117586 0.0632844 0.0174106
      endloop
   endfacet
   facet normal 0.852247 0.127975 -0.507246
      outer loop
         vertex 0.00135879 0.0633151 0.0177108
         vertex 0.00120481 0.0632119 0.017426
         vertex 0.00119233 0.0632489 0.0174182
      endloop
   endfacet
   facet normal 0.872135 0.0369128 -0.487871
      outer loop
         vertex 0.00137071 0.0632605 0.0177224
         vertex 0.00121314 0.0631738 0.0174341
         vertex 0.00120481 0.0632119 0.017426
      endloop
   endfacet
   facet normal 0.872135 0.0369128 -0.487871
      outer loop
         vertex 0.00137071 0.0632605 0.0177224
         vertex 0.00137255 0.0632496 0.0177247
         vertex 0.00121469 0.0631647 0.0174361
      endloop
   endfacet
   facet normal 0.875373 0.0150308 -0.483215
      outer loop
         vertex 0.00121469 0.0631647 0.0174361
         vertex 0.00121314 0.0631738 0.0174341
         vertex 0.00137071 0.0632605 0.0177224
      endloop
   endfacet
   facet normal 0.852247 0.127975 -0.507246
      outer loop
         vertex 0.00120481 0.0632119 0.017426
         vertex 0.00135879 0.0633151 0.0177108
         vertex 0.00137071 0.0632605 0.0177224
      endloop
   endfacet
   facet normal 0.82245 0.216413 -0.526062
      outer loop
         vertex 0.00119233 0.0632489 0.0174182
         vertex 0.00134094 0.0633681 0.0176995
         vertex 0.00135879 0.0633151 0.0177108
      endloop
   endfacet
   facet normal 0.783091 0.301199 -0.544102
      outer loop
         vertex 0.00117586 0.0632844 0.0174106
         vertex 0.00131735 0.0634189 0.0176887
         vertex 0.00134094 0.0633681 0.0176995
      endloop
   endfacet
   facet normal 0.734628 0.381348 -0.561155
      outer loop
         vertex 0.00115557 0.063318 0.0174035
         vertex 0.0012883 0.063467 0.0176785
         vertex 0.00131735 0.0634189 0.0176887
      endloop
   endfacet
   facet normal 0.677625 0.455927 -0.577023
      outer loop
         vertex 0.0011317 0.0633492 0.0173968
         vertex 0.00125414 0.0635117 0.017669
         vertex 0.0012883 0.063467 0.0176785
      endloop
   endfacet
   facet normal 0.612743 0.52407 -0.591521
      outer loop
         vertex 0.00110454 0.0633777 0.0173908
         vertex 0.00121525 0.0635525 0.0176603
         vertex 0.00125414 0.0635117 0.017669
      endloop
   endfacet
   facet normal 0.540737 0.584983 -0.604482
      outer loop
         vertex 0.00107439 0.0634032 0.0173853
         vertex 0.00117209 0.063589 0.0176525
         vertex 0.00121525 0.0635525 0.0176603
      endloop
   endfacet
   facet normal 0.462445 0.63796 -0.615753
      outer loop
         vertex 0.00104161 0.0634254 0.0173806
         vertex 0.00112517 0.0636208 0.0176458
         vertex 0.00117209 0.063589 0.0176525
      endloop
   endfacet
   facet normal 0.378776 0.682383 -0.625205
      outer loop
         vertex 0.00100659 0.063444 0.0173766
         vertex 0.00107502 0.0636474 0.0176401
         vertex 0.00112517 0.0636208 0.0176458
      endloop
   endfacet
   facet normal 0.290704 0.717738 -0.632727
      outer loop
         vertex 0.000969713 0.0634588 0.0173735
         vertex 0.00102224 0.0636686 0.0176356
         vertex 0.00107502 0.0636474 0.0176401
      endloop
   endfacet
   facet normal 0.199252 0.743612 -0.638232
      outer loop
         vertex 0.000931426 0.0634697 0.0173712
         vertex 0.000967427 0.0636841 0.0176323
         vertex 0.00102224 0.0636686 0.0176356
      endloop
   endfacet
   facet normal 0.105483 0.759704 -0.641656
      outer loop
         vertex 0.000892169 0.0634764 0.0173698
         vertex 0.000911228 0.0636937 0.0176302
         vertex 0.000967427 0.0636841 0.0176323
      endloop
   endfacet
   facet normal 0.0104883 0.765829 -0.642959
      outer loop
         vertex 0.000852399 0.063479 0.0173692
         vertex 0.000854294 0.0636974 0.0176295
         vertex 0.000911228 0.0636937 0.0176302
      endloop
   endfacet
   facet normal 0.0104883 0.765829 -0.642959
      outer loop
         vertex 0.000854294 0.0636974 0.0176295
         vertex 0.000852399 0.063479 0.0173692
         vertex 0.000842932 0.0634791 0.0173692
      endloop
   endfacet
   facet normal 0 0.765916 -0.642941
      outer loop
         vertex 0.000842932 0.0634791 0.0173692
         vertex -0.000842932 0.0634792 0.0173692
         vertex -0.000842932 0.0636976 0.0176294
      endloop
   endfacet
   facet normal 0 0.765916 -0.642941
      outer loop
         vertex -0.000842932 0.0636976 0.0176294
         vertex 0.000842931 0.0636977 0.0176295
         vertex 0.000842932 0.0634791 0.0173692
      endloop
   endfacet
   facet normal 1.80675e-13 0.208108 0.978106
      outer loop
         vertex -0.00428659 0.0545371 0.0195785
         vertex -0.00391417 0.0543384 0.0196207
         vertex -0.00385966 0.0543365 0.0196211
      endloop
   endfacet
   facet normal 1.80675e-13 0.208108 0.978106
      outer loop
         vertex -0.00428659 0.0545371 0.0195785
         vertex -0.00402115 0.0543585 0.0196165
         vertex -0.00396819 0.0543457 0.0196192
      endloop
   endfacet
   facet normal 1.80675e-13 0.208108 0.978106
      outer loop
         vertex -0.00428659 0.0545371 0.0195785
         vertex -0.00416811 0.0544275 0.0196018
         vertex -0.00412164 0.0543996 0.0196077
      endloop
   endfacet
   facet normal 1.80675e-13 0.208108 0.978106
      outer loop
         vertex -0.00428659 0.0545371 0.0195785
         vertex -0.00425102 0.0544966 0.0195871
         vertex -0.00421139 0.05446 0.0195949
      endloop
   endfacet
   facet normal 1.80675e-13 0.208108 0.978106
      outer loop
         vertex -0.00484813 0.0554947 0.0193747
         vertex -0.0048518 0.0554391 0.0193865
         vertex -0.00484935 0.0553834 0.0193984
      endloop
   endfacet
   facet normal 1.80675e-13 0.208108 0.978106
      outer loop
         vertex -0.00484081 0.0553284 0.0194101
         vertex -0.00482266 0.0556031 0.0193516
         vertex -0.00483838 0.0555496 0.019363
      endloop
   endfacet
   facet normal 1.80675e-13 0.208108 0.978106
      outer loop
         vertex 0.00482266 0.0556031 0.0193516
         vertex 0.0048518 0.0554391 0.0193865
         vertex 0.00484813 0.0554947 0.0193747
      endloop
   endfacet
   facet normal 1.80675e-13 0.208108 0.978106
      outer loop
         vertex -0.00385966 0.0543365 0.0196211
         vertex -0.00380525 0.0543401 0.0196204
         vertex -0.00428659 0.0545371 0.0195785
      endloop
   endfacet
   facet normal 1.80675e-13 0.208108 0.978106
      outer loop
         vertex -0.00428659 0.0545371 0.0195785
         vertex -0.00407248 0.0543765 0.0196126
         vertex -0.00402115 0.0543585 0.0196165
      endloop
   endfacet
   facet normal 1.80675e-13 0.208108 0.978106
      outer loop
         vertex -0.00421139 0.05446 0.0195949
         vertex -0.00416811 0.0544275 0.0196018
         vertex -0.00428659 0.0545371 0.0195785
      endloop
   endfacet
   facet normal 1.80675e-13 0.208108 0.978106
      outer loop
         vertex -0.00482266 0.0556031 0.0193516
         vertex -0.00484081 0.0553284 0.0194101
         vertex -0.00482627 0.0552745 0.0194216
      endloop
   endfacet
   facet normal 1.80675e-13 0.208108 0.978106
      outer loop
         vertex -0.00483838 0.0555496 0.019363
         vertex -0.00484813 0.0554947 0.0193747
         vertex -0.00484081 0.0553284 0.0194101
      endloop
   endfacet
   facet normal 1.80675e-13 0.208108 0.978106
      outer loop
         vertex 0.00137071 0.0632605 0.0177224
         vertex 0.00102224 0.0636686 0.0176356
         vertex 0.000967427 0.0636841 0.0176323
      endloop
   endfacet
   facet normal 1.80675e-13 0.208108 0.978106
      outer loop
         vertex 0.00137071 0.0632605 0.0177224
         vertex 0.00112517 0.0636208 0.0176458
         vertex 0.00107502 0.0636474 0.0176401
      endloop
   endfacet
   facet normal 1.80675e-13 0.208108 0.978106
      outer loop
         vertex 0.00137071 0.0632605 0.0177224
         vertex 0.0012883 0.063467 0.0176785
         vertex 0.00125414 0.0635117 0.017669
      endloop
   endfacet
   facet normal 1.80675e-13 0.208108 0.978106
      outer loop
         vertex 0.0012883 0.063467 0.0176785
         vertex 0.00135879 0.0633151 0.0177108
         vertex 0.00134094 0.0633681 0.0176995
      endloop
   endfacet
   facet normal 1.80675e-13 0.208108 0.978106
      outer loop
         vertex 0.00482266 0.0556031 0.0193516
         vertex 0.00484936 0.0553834 0.0193984
         vertex 0.0048518 0.0554391 0.0193865
      endloop
   endfacet
   facet normal 1.80675e-13 0.208108 0.978106
      outer loop
         vertex 0.00482266 0.0556031 0.0193516
         vertex 0.00482628 0.0552745 0.0194216
         vertex 0.00484081 0.0553284 0.0194101
      endloop
   endfacet
   facet normal 1.80675e-13 0.208108 0.978106
      outer loop
         vertex 0.00482266 0.0556031 0.0193516
         vertex 0.00474872 0.0551263 0.0194531
         vertex 0.00477997 0.0551729 0.0194432
      endloop
   endfacet
   facet normal 1.80675e-13 0.208108 0.978106
      outer loop
         vertex 0.00359995 0.054408 0.0196059
         vertex 0.00416811 0.0544275 0.0196018
         vertex 0.00421139 0.05446 0.0195949
      endloop
   endfacet
   facet normal 1.80675e-13 0.208108 0.978106
      outer loop
         vertex 0.00359995 0.054408 0.0196059
         vertex 0.00407248 0.0543765 0.0196126
         vertex 0.00412164 0.0543996 0.0196077
      endloop
   endfacet
   facet normal 1.80675e-13 0.208108 0.978106
      outer loop
         vertex 0.00359995 0.054408 0.0196059
         vertex 0.00396819 0.0543457 0.0196192
         vertex 0.00402115 0.0543585 0.0196165
      endloop
   endfacet
   facet normal 1.80675e-13 0.208108 0.978106
      outer loop
         vertex 0.00359995 0.054408 0.0196059
         vertex 0.00385966 0.0543365 0.0196211
         vertex 0.00391417 0.0543384 0.0196207
      endloop
   endfacet
   facet normal 1.80675e-13 0.208108 0.978106
      outer loop
         vertex 0.00359995 0.054408 0.0196059
         vertex 0.00375151 0.0543492 0.0196184
         vertex 0.00380525 0.0543401 0.0196204
      endloop
   endfacet
   facet normal 1.80675e-13 0.208108 0.978106
      outer loop
         vertex 0.00359995 0.054408 0.0196059
         vertex 0.00364831 0.0543833 0.0196112
         vertex 0.00369901 0.0543637 0.0196154
      endloop
   endfacet
   facet normal 1.80675e-13 0.208108 0.978106
      outer loop
         vertex -0.00380525 0.0543401 0.0196204
         vertex -0.00375151 0.0543492 0.0196184
         vertex -0.00428659 0.0545371 0.0195785
      endloop
   endfacet
   facet normal 1.80675e-13 0.208108 0.978106
      outer loop
         vertex -0.00412164 0.0543996 0.0196077
         vertex -0.00407248 0.0543765 0.0196126
         vertex -0.00428659 0.0545371 0.0195785
      endloop
   endfacet
   facet normal 1.80675e-13 0.208108 0.978106
      outer loop
         vertex -0.00482266 0.0556031 0.0193516
         vertex -0.00480591 0.0552225 0.0194326
         vertex -0.00477996 0.0551729 0.0194432
      endloop
   endfacet
   facet normal 1.80675e-13 0.208108 0.978106
      outer loop
         vertex -0.00484935 0.0553834 0.0193984
         vertex -0.00484081 0.0553284 0.0194101
         vertex -0.00484813 0.0554947 0.0193747
      endloop
   endfacet
   facet normal 1.80675e-13 0.208108 0.978106
      outer loop
         vertex -0.00112517 0.0636208 0.0176458
         vertex -0.00117209 0.063589 0.0176525
         vertex -0.00121525 0.0635525 0.0176603
      endloop
   endfacet
   facet normal 1.80675e-13 0.208108 0.978106
      outer loop
         vertex 0.000967427 0.0636841 0.0176323
         vertex 0.000911228 0.0636937 0.0176302
         vertex 0.00137071 0.0632605 0.0177224
      endloop
   endfacet
   facet normal 1.80675e-13 0.208108 0.978106
      outer loop
         vertex 0.00137071 0.0632605 0.0177224
         vertex 0.00117209 0.063589 0.0176525
         vertex 0.00112517 0.0636208 0.0176458
      endloop
   endfacet
   facet normal 1.80675e-13 0.208108 0.978106
      outer loop
         vertex 0.00125414 0.0635117 0.017669
         vertex 0.00121525 0.0635525 0.0176603
         vertex 0.00137071 0.0632605 0.0177224
      endloop
   endfacet
   facet normal 1.80675e-13 0.208108 0.978106
      outer loop
         vertex 0.0012883 0.063467 0.0176785
         vertex 0.00137071 0.0632605 0.0177224
         vertex 0.00135879 0.0633151 0.0177108
      endloop
   endfacet
   facet normal 1.80675e-13 0.208108 0.978106
      outer loop
         vertex 0.00474872 0.0551263 0.0194531
         vertex 0.00482266 0.0556031 0.0193516
         vertex 0.00480116 0.0556547 0.0193407
      endloop
   endfacet
   facet normal 1.80675e-13 0.208108 0.978106
      outer loop
         vertex 0.00484081 0.0553284 0.0194101
         vertex 0.00484936 0.0553834 0.0193984
         vertex 0.00482266 0.0556031 0.0193516
      endloop
   endfacet
   facet normal 1.80675e-13 0.208108 0.978106
      outer loop
         vertex 0.00477997 0.0551729 0.0194432
         vertex 0.00480592 0.0552225 0.0194326
         vertex 0.00482266 0.0556031 0.0193516
      endloop
   endfacet
   facet normal 1.80675e-13 0.208108 0.978106
      outer loop
         vertex 0.00412164 0.0543996 0.0196077
         vertex 0.00416811 0.0544275 0.0196018
         vertex 0.00359995 0.054408 0.0196059
      endloop
   endfacet
   facet normal 1.80675e-13 0.208108 0.978106
      outer loop
         vertex 0.00391417 0.0543384 0.0196207
         vertex 0.00396819 0.0543457 0.0196192
         vertex 0.00359995 0.054408 0.0196059
      endloop
   endfacet
   facet normal 1.80675e-13 0.208108 0.978106
      outer loop
         vertex 0.00369901 0.0543637 0.0196154
         vertex 0.00375151 0.0543492 0.0196184
         vertex 0.00359995 0.054408 0.0196059
      endloop
   endfacet
   facet normal 1.80675e-13 0.208108 0.978106
      outer loop
         vertex -0.00428659 0.0545371 0.0195785
         vertex -0.00369901 0.0543637 0.0196154
         vertex -0.00364831 0.0543833 0.0196112
      endloop
   endfacet
   facet normal 1.80675e-13 0.208108 0.978106
      outer loop
         vertex -0.00396819 0.0543457 0.0196192
         vertex -0.00391417 0.0543384 0.0196207
         vertex -0.00428659 0.0545371 0.0195785
      endloop
   endfacet
   facet normal 1.80675e-13 0.208108 0.978106
      outer loop
         vertex -0.00482627 0.0552745 0.0194216
         vertex -0.00480591 0.0552225 0.0194326
         vertex -0.00482266 0.0556031 0.0193516
      endloop
   endfacet
   facet normal 1.80675e-13 0.208108 0.978106
      outer loop
         vertex -0.00474871 0.0551263 0.0194531
         vertex -0.00477412 0.0557038 0.0193302
         vertex -0.00480116 0.0556547 0.0193407
      endloop
   endfacet
   facet normal 1.80675e-13 0.208108 0.978106
      outer loop
         vertex -0.00112517 0.0636208 0.0176458
         vertex -0.00131734 0.0634189 0.0176887
         vertex -0.00134093 0.0633681 0.0176995
      endloop
   endfacet
   facet normal 1.80675e-13 0.208108 0.978106
      outer loop
         vertex -0.00121525 0.0635525 0.0176603
         vertex -0.00125413 0.0635117 0.017669
         vertex -0.00112517 0.0636208 0.0176458
      endloop
   endfacet
   facet normal 1.80675e-13 0.208108 0.978106
      outer loop
         vertex -0.0013707 0.0632605 0.0177224
         vertex -0.000967432 0.0636841 0.0176323
         vertex -0.00102224 0.0636686 0.0176356
      endloop
   endfacet
   facet normal 1.80675e-13 0.208108 0.978106
      outer loop
         vertex 0.00107502 0.0636474 0.0176401
         vertex 0.00102224 0.0636686 0.0176356
         vertex 0.00137071 0.0632605 0.0177224
      endloop
   endfacet
   facet normal 1.80675e-13 0.208108 0.978106
      outer loop
         vertex 0.00134094 0.0633681 0.0176995
         vertex 0.00131735 0.0634189 0.0176887
         vertex 0.0012883 0.063467 0.0176785
      endloop
   endfacet
   facet normal 1.80675e-13 0.208108 0.978106
      outer loop
         vertex 0.00480116 0.0556547 0.0193407
         vertex 0.00477412 0.0557038 0.0193302
         vertex 0.00474872 0.0551263 0.0194531
      endloop
   endfacet
   facet normal 1.80675e-13 0.208108 0.978106
      outer loop
         vertex 0.00480592 0.0552225 0.0194326
         vertex 0.00482628 0.0552745 0.0194216
         vertex 0.00482266 0.0556031 0.0193516
      endloop
   endfacet
   facet normal 1.80675e-13 0.208108 0.978106
      outer loop
         vertex 0.00421139 0.05446 0.0195949
         vertex 0.00425102 0.0544967 0.0195871
         vertex 0.00359995 0.054408 0.0196059
      endloop
   endfacet
   facet normal 1.80675e-13 0.208108 0.978106
      outer loop
         vertex 0.00380525 0.0543401 0.0196204
         vertex 0.00385966 0.0543365 0.0196211
         vertex 0.00359995 0.054408 0.0196059
      endloop
   endfacet
   facet normal 1.80675e-13 0.208108 0.978106
      outer loop
         vertex -0.00375151 0.0543492 0.0196184
         vertex -0.00369901 0.0543637 0.0196154
         vertex -0.00428659 0.0545371 0.0195785
      endloop
   endfacet
   facet normal 1.80675e-13 0.208108 0.978106
      outer loop
         vertex -0.00480116 0.0556547 0.0193407
         vertex -0.00482266 0.0556031 0.0193516
         vertex -0.00474871 0.0551263 0.0194531
      endloop
   endfacet
   facet normal 1.80675e-13 0.208108 0.978106
      outer loop
         vertex -0.00134093 0.0633681 0.0176995
         vertex -0.00135879 0.0633151 0.0177108
         vertex -0.00112517 0.0636208 0.0176458
      endloop
   endfacet
   facet normal 1.80675e-13 0.208108 0.978106
      outer loop
         vertex -0.00125413 0.0635117 0.017669
         vertex -0.0012883 0.063467 0.0176785
         vertex -0.00112517 0.0636208 0.0176458
      endloop
   endfacet
   facet normal 1.80675e-13 0.208108 0.978106
      outer loop
         vertex -0.00102224 0.0636686 0.0176356
         vertex -0.00107503 0.0636474 0.0176401
         vertex -0.0013707 0.0632605 0.0177224
      endloop
   endfacet
   facet normal 1.80675e-13 0.208108 0.978106
      outer loop
         vertex -0.0013707 0.0632605 0.0177224
         vertex -0.000854299 0.0636974 0.0176294
         vertex -0.000911233 0.0636938 0.0176302
      endloop
   endfacet
   facet normal 1.80675e-13 0.208108 0.978106
      outer loop
         vertex 0.00121525 0.0635525 0.0176603
         vertex 0.00117209 0.063589 0.0176525
         vertex 0.00137071 0.0632605 0.0177224
      endloop
   endfacet
   facet normal 1.80675e-13 0.208108 0.978106
      outer loop
         vertex 0.00484813 0.0554947 0.0193747
         vertex 0.00483838 0.0555496 0.019363
         vertex 0.00482266 0.0556031 0.0193516
      endloop
   endfacet
   facet normal 1.80675e-13 0.208108 0.978106
      outer loop
         vertex 0.00402115 0.0543585 0.0196165
         vertex 0.00407248 0.0543765 0.0196126
         vertex 0.00359995 0.054408 0.0196059
      endloop
   endfacet
   facet normal 1.80675e-13 0.208108 0.978106
      outer loop
         vertex -0.00359995 0.054408 0.0196059
         vertex -0.00429149 0.0545431 0.0195772
         vertex -0.00428659 0.0545371 0.0195785
      endloop
   endfacet
   facet normal 1.80675e-13 0.208108 0.978106
      outer loop
         vertex -0.00474871 0.0551263 0.0194531
         vertex -0.00474186 0.0557497 0.0193205
         vertex -0.00477412 0.0557038 0.0193302
      endloop
   endfacet
   facet normal 1.80675e-13 0.208108 0.978106
      outer loop
         vertex -0.0012883 0.063467 0.0176785
         vertex -0.00131734 0.0634189 0.0176887
         vertex -0.00112517 0.0636208 0.0176458
      endloop
   endfacet
   facet normal 1.80675e-13 0.208108 0.978106
      outer loop
         vertex -0.000911233 0.0636938 0.0176302
         vertex -0.000967432 0.0636841 0.0176323
         vertex -0.0013707 0.0632605 0.0177224
      endloop
   endfacet
   facet normal 1.80675e-13 0.208108 0.978106
      outer loop
         vertex 0.000854294 0.0636974 0.0176295
         vertex 0.00137255 0.0632496 0.0177247
         vertex 0.00137071 0.0632605 0.0177224
      endloop
   endfacet
   facet normal 1.80675e-13 0.208108 0.978106
      outer loop
         vertex 0.00474185 0.0557497 0.0193205
         vertex 0.00473994 0.0551148 0.0194555
         vertex 0.00474872 0.0551263 0.0194531
      endloop
   endfacet
   facet normal 1.80675e-13 0.208108 0.978106
      outer loop
         vertex 0.00359313 0.0544118 0.0196051
         vertex 0.00428658 0.0545371 0.0195785
         vertex 0.00429152 0.0545431 0.0195773
      endloop
   endfacet
   facet normal 1.80675e-13 0.208108 0.978106
      outer loop
         vertex 0.00428658 0.0545371 0.0195785
         vertex 0.00359313 0.0544118 0.0196051
         vertex 0.00359995 0.054408 0.0196059
      endloop
   endfacet
   facet normal 1.80675e-13 0.208108 0.978106
      outer loop
         vertex -0.00364831 0.0543833 0.0196112
         vertex -0.00359995 0.054408 0.0196059
         vertex -0.00428659 0.0545371 0.0195785
      endloop
   endfacet
   facet normal 1.80675e-13 0.208108 0.978106
      outer loop
         vertex -0.00359311 0.0544118 0.0196052
         vertex -0.00473284 0.055761 0.0193181
         vertex -0.00473995 0.0551148 0.0194556
      endloop
   endfacet
   facet normal 1.80675e-13 0.208108 0.978106
      outer loop
         vertex -0.00474871 0.0551263 0.0194531
         vertex -0.00473284 0.055761 0.0193181
         vertex -0.00474186 0.0557497 0.0193205
      endloop
   endfacet
   facet normal 1.80675e-13 0.208108 0.978106
      outer loop
         vertex -0.00107503 0.0636474 0.0176401
         vertex -0.00112517 0.0636208 0.0176458
         vertex -0.0013707 0.0632605 0.0177224
      endloop
   endfacet
   facet normal 1.80675e-13 0.208108 0.978106
      outer loop
         vertex 0.000911228 0.0636937 0.0176302
         vertex 0.000854294 0.0636974 0.0176295
         vertex 0.00137071 0.0632605 0.0177224
      endloop
   endfacet
   facet normal 1.80675e-13 0.208108 0.978106
      outer loop
         vertex 0.00477412 0.0557038 0.0193302
         vertex 0.00474185 0.0557497 0.0193205
         vertex 0.00474872 0.0551263 0.0194531
      endloop
   endfacet
   facet normal 1.80675e-13 0.208108 0.978106
      outer loop
         vertex 0.00425102 0.0544967 0.0195871
         vertex 0.00428658 0.0545371 0.0195785
         vertex 0.00359995 0.054408 0.0196059
      endloop
   endfacet
   facet normal 1.80675e-13 0.208108 0.978106
      outer loop
         vertex 0.00198928 0.0591085 0.0186058
         vertex -7.37173e-17 0.0565029 0.0191602
         vertex 0.00359313 0.0544118 0.0196051
      endloop
   endfacet
   facet normal 1.80675e-13 0.208108 0.978106
      outer loop
         vertex -0.00473995 0.0551148 0.0194556
         vertex -0.00429149 0.0545431 0.0195772
         vertex -0.00359311 0.0544118 0.0196052
      endloop
   endfacet
   facet normal 1.80675e-13 0.208108 0.978106
      outer loop
         vertex -0.00477996 0.0551729 0.0194432
         vertex -0.00474871 0.0551263 0.0194531
         vertex -0.00482266 0.0556031 0.0193516
      endloop
   endfacet
   facet normal 1.80675e-13 0.208108 0.978106
      outer loop
         vertex -0.0013707 0.0632605 0.0177224
         vertex -0.000842932 0.0636976 0.0176294
         vertex -0.000854299 0.0636974 0.0176294
      endloop
   endfacet
   facet normal 1.80675e-13 0.208108 0.978106
      outer loop
         vertex 0.000854294 0.0636974 0.0176295
         vertex 0.000842931 0.0636977 0.0176295
         vertex 0.00137255 0.0632496 0.0177247
      endloop
   endfacet
   facet normal 1.80675e-13 0.208108 0.978106
      outer loop
         vertex -0.000842932 0.0636976 0.0176294
         vertex -7.37173e-17 0.0565029 0.0191602
         vertex 0.00198928 0.0591085 0.0186058
      endloop
   endfacet
   facet normal 1.80675e-13 0.208108 0.978106
      outer loop
         vertex 0.00474185 0.0557497 0.0193205
         vertex 0.00473284 0.055761 0.0193181
         vertex 0.00473994 0.0551148 0.0194555
      endloop
   endfacet
   facet normal 1.80675e-13 0.208108 0.978106
      outer loop
         vertex 0.00359313 0.0544118 0.0196051
         vertex 0.00473994 0.0551148 0.0194555
         vertex 0.00198928 0.0591085 0.0186058
      endloop
   endfacet
   facet normal 1.80675e-13 0.208108 0.978106
      outer loop
         vertex -0.00474871 0.0551263 0.0194531
         vertex -0.00473995 0.0551148 0.0194556
         vertex -0.00473284 0.055761 0.0193181
      endloop
   endfacet
   facet normal 1.80675e-13 0.208108 0.978106
      outer loop
         vertex -7.37173e-17 0.0565029 0.0191602
         vertex -0.00198928 0.0591085 0.0186058
         vertex -0.00473284 0.055761 0.0193181
      endloop
   endfacet
   facet normal 1.80675e-13 0.208108 0.978106
      outer loop
         vertex -7.37173e-17 0.0565029 0.0191602
         vertex -0.000842932 0.0636976 0.0176294
         vertex -0.00137258 0.0632496 0.0177248
      endloop
   endfacet
   facet normal 1.80675e-13 0.208108 0.978106
      outer loop
         vertex -0.00135879 0.0633151 0.0177108
         vertex -0.0013707 0.0632605 0.0177224
         vertex -0.00112517 0.0636208 0.0176458
      endloop
   endfacet
   facet normal 1.80675e-13 0.208108 0.978106
      outer loop
         vertex 0.00198928 0.0591085 0.0186058
         vertex 0.00137255 0.0632496 0.0177247
         vertex -0.000842932 0.0636976 0.0176294
      endloop
   endfacet
   facet normal 1.80675e-13 0.208108 0.978106
      outer loop
         vertex 0.00429152 0.0545431 0.0195773
         vertex 0.00473994 0.0551148 0.0194555
         vertex 0.00359313 0.0544118 0.0196051
      endloop
   endfacet
   facet normal 1.80675e-13 0.208108 0.978106
      outer loop
         vertex -0.00473284 0.055761 0.0193181
         vertex -0.00359311 0.0544118 0.0196052
         vertex -7.37173e-17 0.0565029 0.0191602
      endloop
   endfacet
   facet normal 1.80675e-13 0.208108 0.978106
      outer loop
         vertex -0.0013707 0.0632605 0.0177224
         vertex -0.00137258 0.0632496 0.0177248
         vertex -0.000842932 0.0636976 0.0176294
      endloop
   endfacet
   facet normal 1.80675e-13 0.208108 0.978106
      outer loop
         vertex 0.00473284 0.055761 0.0193181
         vertex 0.00198928 0.0591085 0.0186058
         vertex 0.00473994 0.0551148 0.0194555
      endloop
   endfacet
   facet normal 1.80675e-13 0.208108 0.978106
      outer loop
         vertex -0.00137258 0.0632496 0.0177248
         vertex -0.00198928 0.0591085 0.0186058
         vertex -7.37173e-17 0.0565029 0.0191602
      endloop
   endfacet
   facet normal 1.80675e-13 0.208108 0.978106
      outer loop
         vertex -0.00359995 0.054408 0.0196059
         vertex -0.00359311 0.0544118 0.0196052
         vertex -0.00429149 0.0545431 0.0195772
      endloop
   endfacet
   facet normal 1.80675e-13 0.208108 0.978106
      outer loop
         vertex 0.000842931 0.0636977 0.0176295
         vertex -0.000842932 0.0636976 0.0176294
         vertex 0.00137255 0.0632496 0.0177247
      endloop
   endfacet
   facet normal -1.80675e-13 -0.208108 -0.978106
      outer loop
         vertex -0.00401091 0.054458 0.0192886
         vertex -0.00404524 0.0544742 0.0192851
         vertex -0.0040777 0.0544937 0.019281
      endloop
   endfacet
   facet normal -1.80675e-13 -0.208108 -0.978106
      outer loop
         vertex -0.00117585 0.0632844 0.0174106
         vertex -0.00110453 0.0633777 0.0173908
         vertex -0.00107439 0.0634032 0.0173853
      endloop
   endfacet
   facet normal -1.80675e-13 -0.208108 -0.978106
      outer loop
         vertex -0.00410792 0.0545163 0.0192762
         vertex -0.00397506 0.0544454 0.0192912
         vertex -0.00401091 0.054458 0.0192886
      endloop
   endfacet
   facet normal -1.80675e-13 -0.208108 -0.978106
      outer loop
         vertex -0.00410792 0.0545163 0.0192762
         vertex -0.00390036 0.0544314 0.0192942
         vertex -0.00393808 0.0544365 0.0192931
      endloop
   endfacet
   facet normal -1.80675e-13 -0.208108 -0.978106
      outer loop
         vertex 0.00469213 0.055375 0.0190935
         vertex 0.00467176 0.0554896 0.0190691
         vertex 0.00468275 0.0554522 0.019077
      endloop
   endfacet
   facet normal -1.80675e-13 -0.208108 -0.978106
      outer loop
         vertex 0.00469213 0.055375 0.0190935
         vertex 0.00463785 0.0555599 0.0190541
         vertex 0.00465674 0.0555256 0.0190614
      endloop
   endfacet
   facet normal -1.80675e-13 -0.208108 -0.978106
      outer loop
         vertex -0.00107439 0.0634032 0.0173853
         vertex -0.00104161 0.0634254 0.0173806
         vertex -0.00117585 0.0632844 0.0174106
      endloop
   endfacet
   facet normal -1.80675e-13 -0.208108 -0.978106
      outer loop
         vertex -0.00117585 0.0632844 0.0174106
         vertex -0.00115556 0.063318 0.0174035
         vertex -0.0011317 0.0633492 0.0173968
      endloop
   endfacet
   facet normal -1.80675e-13 -0.208108 -0.978106
      outer loop
         vertex -0.00468445 0.0552976 0.0191099
         vertex -0.00468956 0.0554138 0.0190852
         vertex -0.00468275 0.0554522 0.019077
      endloop
   endfacet
   facet normal -1.80675e-13 -0.208108 -0.978106
      outer loop
         vertex -0.00390036 0.0544314 0.0192942
         vertex -0.00410792 0.0545163 0.0192762
         vertex -0.0041356 0.0545419 0.0192707
      endloop
   endfacet
   facet normal -1.80675e-13 -0.208108 -0.978106
      outer loop
         vertex -0.00393808 0.0544365 0.0192931
         vertex -0.00397506 0.0544454 0.0192912
         vertex -0.00410792 0.0545163 0.0192762
      endloop
   endfacet
   facet normal -1.80675e-13 -0.208108 -0.978106
      outer loop
         vertex -0.00416044 0.0545702 0.0192647
         vertex -0.00378676 0.054439 0.0192926
         vertex -0.00382429 0.0544326 0.019294
      endloop
   endfacet
   facet normal -1.80675e-13 -0.208108 -0.978106
      outer loop
         vertex 0.00416042 0.0545702 0.0192647
         vertex 0.00386229 0.0544301 0.0192945
         vertex 0.00382429 0.0544326 0.019294
      endloop
   endfacet
   facet normal -1.80675e-13 -0.208108 -0.978106
      outer loop
         vertex 0.00386229 0.0544301 0.0192945
         vertex 0.00397506 0.0544454 0.0192912
         vertex 0.00393807 0.0544365 0.0192931
      endloop
   endfacet
   facet normal -1.80675e-13 -0.208108 -0.978106
      outer loop
         vertex 0.00386229 0.0544301 0.0192945
         vertex 0.00404524 0.0544742 0.0192851
         vertex 0.00401091 0.054458 0.0192886
      endloop
   endfacet
   facet normal -1.80675e-13 -0.208108 -0.978106
      outer loop
         vertex 0.00386229 0.0544301 0.0192945
         vertex 0.00410791 0.0545163 0.0192762
         vertex 0.00407769 0.0544937 0.019281
      endloop
   endfacet
   facet normal -1.80675e-13 -0.208108 -0.978106
      outer loop
         vertex 0.00386229 0.0544301 0.0192945
         vertex 0.00416042 0.0545702 0.0192647
         vertex 0.00413559 0.0545419 0.0192707
      endloop
   endfacet
   facet normal -1.80675e-13 -0.208108 -0.978106
      outer loop
         vertex 0.00463785 0.0555599 0.0190541
         vertex 0.00469213 0.055375 0.0190935
         vertex 0.00469042 0.0553361 0.0191017
      endloop
   endfacet
   facet normal -1.80675e-13 -0.208108 -0.978106
      outer loop
         vertex 0.00465674 0.0555256 0.0190614
         vertex 0.00467176 0.0554896 0.0190691
         vertex 0.00469213 0.055375 0.0190935
      endloop
   endfacet
   facet normal -1.80675e-13 -0.208108 -0.978106
      outer loop
         vertex -0.00117585 0.0632844 0.0174106
         vertex -0.00100658 0.063444 0.0173766
         vertex -0.000969713 0.0634588 0.0173735
      endloop
   endfacet
   facet normal -1.80675e-13 -0.208108 -0.978106
      outer loop
         vertex -0.0011317 0.0633492 0.0173968
         vertex -0.00110453 0.0633777 0.0173908
         vertex -0.00117585 0.0632844 0.0174106
      endloop
   endfacet
   facet normal -1.80675e-13 -0.208108 -0.978106
      outer loop
         vertex -0.000931426 0.0634697 0.0173712
         vertex -0.0012048 0.0632119 0.017426
         vertex -0.00119233 0.0632489 0.0174182
      endloop
   endfacet
   facet normal -1.80675e-13 -0.208108 -0.978106
      outer loop
         vertex -0.00468275 0.0554522 0.019077
         vertex -0.00467177 0.0554896 0.0190691
         vertex -0.00468445 0.0552976 0.0191099
      endloop
   endfacet
   facet normal -1.80675e-13 -0.208108 -0.978106
      outer loop
         vertex -0.00468445 0.0552976 0.0191099
         vertex -0.00469042 0.0553361 0.0191017
         vertex -0.00469213 0.055375 0.0190935
      endloop
   endfacet
   facet normal -1.80675e-13 -0.208108 -0.978106
      outer loop
         vertex -0.00461531 0.055592 0.0190473
         vertex -0.00464193 0.055189 0.019133
         vertex -0.00466006 0.0552236 0.0191257
      endloop
   endfacet
   facet normal -1.80675e-13 -0.208108 -0.978106
      outer loop
         vertex -0.0040777 0.0544937 0.019281
         vertex -0.00410792 0.0545163 0.0192762
         vertex -0.00401091 0.054458 0.0192886
      endloop
   endfacet
   facet normal -1.80675e-13 -0.208108 -0.978106
      outer loop
         vertex -0.00382429 0.0544326 0.019294
         vertex -0.00386229 0.0544301 0.0192945
         vertex -0.00416044 0.0545702 0.0192647
      endloop
   endfacet
   facet normal -1.80675e-13 -0.208108 -0.978106
      outer loop
         vertex -0.00416044 0.0545702 0.0192647
         vertex -0.00371469 0.0544628 0.0192875
         vertex -0.0037501 0.0544491 0.0192905
      endloop
   endfacet
   facet normal -1.80675e-13 -0.208108 -0.978106
      outer loop
         vertex 0.00416042 0.0545702 0.0192647
         vertex 0.00375009 0.0544491 0.0192905
         vertex 0.00371468 0.0544628 0.0192875
      endloop
   endfacet
   facet normal -1.80675e-13 -0.208108 -0.978106
      outer loop
         vertex 0.00382429 0.0544326 0.019294
         vertex 0.00378675 0.054439 0.0192926
         vertex 0.00416042 0.0545702 0.0192647
      endloop
   endfacet
   facet normal -1.80675e-13 -0.208108 -0.978106
      outer loop
         vertex 0.00401091 0.054458 0.0192886
         vertex 0.00397506 0.0544454 0.0192912
         vertex 0.00386229 0.0544301 0.0192945
      endloop
   endfacet
   facet normal -1.80675e-13 -0.208108 -0.978106
      outer loop
         vertex 0.00413559 0.0545419 0.0192707
         vertex 0.00410791 0.0545163 0.0192762
         vertex 0.00386229 0.0544301 0.0192945
      endloop
   endfacet
   facet normal -1.80675e-13 -0.208108 -0.978106
      outer loop
         vertex 0.00463785 0.0555599 0.0190541
         vertex 0.00468445 0.0552976 0.0191099
         vertex 0.0046743 0.05526 0.0191179
      endloop
   endfacet
   facet normal -1.80675e-13 -0.208108 -0.978106
      outer loop
         vertex 0.00468275 0.0554522 0.019077
         vertex 0.00468956 0.0554138 0.0190852
         vertex 0.00469213 0.055375 0.0190935
      endloop
   endfacet
   facet normal -1.80675e-13 -0.208108 -0.978106
      outer loop
         vertex -0.00104161 0.0634254 0.0173806
         vertex -0.00100658 0.063444 0.0173766
         vertex -0.00117585 0.0632844 0.0174106
      endloop
   endfacet
   facet normal -1.80675e-13 -0.208108 -0.978106
      outer loop
         vertex -0.000931426 0.0634697 0.0173712
         vertex -0.00121312 0.0631738 0.0174341
         vertex -0.0012048 0.0632119 0.017426
      endloop
   endfacet
   facet normal -1.80675e-13 -0.208108 -0.978106
      outer loop
         vertex -0.00468445 0.0552976 0.0191099
         vertex -0.00465675 0.0555256 0.0190614
         vertex -0.00463785 0.0555599 0.0190541
      endloop
   endfacet
   facet normal -1.80675e-13 -0.208108 -0.978106
      outer loop
         vertex -0.00469213 0.055375 0.0190935
         vertex -0.00468956 0.0554138 0.0190852
         vertex -0.00468445 0.0552976 0.0191099
      endloop
   endfacet
   facet normal -1.80675e-13 -0.208108 -0.978106
      outer loop
         vertex -0.00466006 0.0552236 0.0191257
         vertex -0.00467429 0.05526 0.0191179
         vertex -0.00461531 0.055592 0.0190473
      endloop
   endfacet
   facet normal -1.80675e-13 -0.208108 -0.978106
      outer loop
         vertex -0.00386229 0.0544301 0.0192945
         vertex -0.00390036 0.0544314 0.0192942
         vertex -0.00416044 0.0545702 0.0192647
      endloop
   endfacet
   facet normal -1.80675e-13 -0.208108 -0.978106
      outer loop
         vertex -0.00416044 0.0545702 0.0192647
         vertex -0.00368092 0.05448 0.0192839
         vertex -0.00371469 0.0544628 0.0192875
      endloop
   endfacet
   facet normal -1.80675e-13 -0.208108 -0.978106
      outer loop
         vertex 0.00378675 0.054439 0.0192926
         vertex 0.00375009 0.0544491 0.0192905
         vertex 0.00416042 0.0545702 0.0192647
      endloop
   endfacet
   facet normal -1.80675e-13 -0.208108 -0.978106
      outer loop
         vertex 0.00407769 0.0544937 0.019281
         vertex 0.00404524 0.0544742 0.0192851
         vertex 0.00386229 0.0544301 0.0192945
      endloop
   endfacet
   facet normal -1.80675e-13 -0.208108 -0.978106
      outer loop
         vertex 0.00463785 0.0555599 0.0190541
         vertex 0.00466007 0.0552236 0.0191257
         vertex 0.00464194 0.055189 0.019133
      endloop
   endfacet
   facet normal -1.80675e-13 -0.208108 -0.978106
      outer loop
         vertex 0.00469042 0.0553361 0.0191017
         vertex 0.00468445 0.0552976 0.0191099
         vertex 0.00463785 0.0555599 0.0190541
      endloop
   endfacet
   facet normal -1.80675e-13 -0.208108 -0.978106
      outer loop
         vertex 0.00115557 0.063318 0.0174035
         vertex 0.00117586 0.0632844 0.0174106
         vertex 0.00119233 0.0632489 0.0174182
      endloop
   endfacet
   facet normal -1.80675e-13 -0.208108 -0.978106
      outer loop
         vertex 0.00121314 0.0631738 0.0174341
         vertex 0.00110454 0.0633777 0.0173908
         vertex 0.0011317 0.0633492 0.0173968
      endloop
   endfacet
   facet normal -1.80675e-13 -0.208108 -0.978106
      outer loop
         vertex 0.00121314 0.0631738 0.0174341
         vertex 0.00104161 0.0634254 0.0173806
         vertex 0.00107439 0.0634032 0.0173853
      endloop
   endfacet
   facet normal -1.80675e-13 -0.208108 -0.978106
      outer loop
         vertex 0.00121314 0.0631738 0.0174341
         vertex 0.000969713 0.0634588 0.0173735
         vertex 0.00100659 0.063444 0.0173766
      endloop
   endfacet
   facet normal -1.80675e-13 -0.208108 -0.978106
      outer loop
         vertex 0.00121314 0.0631738 0.0174341
         vertex 0.000892169 0.0634764 0.0173698
         vertex 0.000931426 0.0634697 0.0173712
      endloop
   endfacet
   facet normal -1.80675e-13 -0.208108 -0.978106
      outer loop
         vertex -0.00121312 0.0631738 0.0174341
         vertex -0.000931426 0.0634697 0.0173712
         vertex -0.000892169 0.0634764 0.0173698
      endloop
   endfacet
   facet normal -1.80675e-13 -0.208108 -0.978106
      outer loop
         vertex -0.00119233 0.0632489 0.0174182
         vertex -0.00117585 0.0632844 0.0174106
         vertex -0.000931426 0.0634697 0.0173712
      endloop
   endfacet
   facet normal -1.80675e-13 -0.208108 -0.978106
      outer loop
         vertex -0.00467177 0.0554896 0.0190691
         vertex -0.00465675 0.0555256 0.0190614
         vertex -0.00468445 0.0552976 0.0191099
      endloop
   endfacet
   facet normal -1.80675e-13 -0.208108 -0.978106
      outer loop
         vertex -0.00461531 0.055592 0.0190473
         vertex -0.0046201 0.0551564 0.01914
         vertex -0.00464193 0.055189 0.019133
      endloop
   endfacet
   facet normal -1.80675e-13 -0.208108 -0.978106
      outer loop
         vertex -0.0037501 0.0544491 0.0192905
         vertex -0.00378676 0.054439 0.0192926
         vertex -0.00416044 0.0545702 0.0192647
      endloop
   endfacet
   facet normal -1.80675e-13 -0.208108 -0.978106
      outer loop
         vertex 0.00393807 0.0544365 0.0192931
         vertex 0.00390035 0.0544314 0.0192942
         vertex 0.00386229 0.0544301 0.0192945
      endloop
   endfacet
   facet normal -1.80675e-13 -0.208108 -0.978106
      outer loop
         vertex 0.0046743 0.05526 0.0191179
         vertex 0.00466007 0.0552236 0.0191257
         vertex 0.00463785 0.0555599 0.0190541
      endloop
   endfacet
   facet normal -1.80675e-13 -0.208108 -0.978106
      outer loop
         vertex 0.00119233 0.0632489 0.0174182
         vertex 0.00120481 0.0632119 0.017426
         vertex 0.00115557 0.063318 0.0174035
      endloop
   endfacet
   facet normal -1.80675e-13 -0.208108 -0.978106
      outer loop
         vertex 0.00107439 0.0634032 0.0173853
         vertex 0.00110454 0.0633777 0.0173908
         vertex 0.00121314 0.0631738 0.0174341
      endloop
   endfacet
   facet normal -1.80675e-13 -0.208108 -0.978106
      outer loop
         vertex 0.000931426 0.0634697 0.0173712
         vertex 0.000969713 0.0634588 0.0173735
         vertex 0.00121314 0.0631738 0.0174341
      endloop
   endfacet
   facet normal -1.80675e-13 -0.208108 -0.978106
      outer loop
         vertex -0.000969713 0.0634588 0.0173735
         vertex -0.000931426 0.0634697 0.0173712
         vertex -0.00117585 0.0632844 0.0174106
      endloop
   endfacet
   facet normal -1.80675e-13 -0.208108 -0.978106
      outer loop
         vertex -0.00467429 0.05526 0.0191179
         vertex -0.00468445 0.0552976 0.0191099
         vertex -0.00461531 0.055592 0.0190473
      endloop
   endfacet
   facet normal -1.80675e-13 -0.208108 -0.978106
      outer loop
         vertex -0.0041356 0.0545419 0.0192707
         vertex -0.00416044 0.0545702 0.0192647
         vertex -0.00390036 0.0544314 0.0192942
      endloop
   endfacet
   facet normal -1.80675e-13 -0.208108 -0.978106
      outer loop
         vertex 0.00371468 0.0544628 0.0192875
         vertex 0.00368091 0.05448 0.0192839
         vertex 0.00416042 0.0545702 0.0192647
      endloop
   endfacet
   facet normal -1.80675e-13 -0.208108 -0.978106
      outer loop
         vertex 0.00462011 0.0551564 0.01914
         vertex 0.00461531 0.055592 0.0190473
         vertex 0.00463785 0.0555599 0.0190541
      endloop
   endfacet
   facet normal -1.80675e-13 -0.208108 -0.978106
      outer loop
         vertex 0.0011317 0.0633492 0.0173968
         vertex 0.00115557 0.063318 0.0174035
         vertex 0.00121314 0.0631738 0.0174341
      endloop
   endfacet
   facet normal -1.80675e-13 -0.208108 -0.978106
      outer loop
         vertex 0.00121314 0.0631738 0.0174341
         vertex 0.000852399 0.063479 0.0173692
         vertex 0.000892169 0.0634764 0.0173698
      endloop
   endfacet
   facet normal -1.80675e-13 -0.208108 -0.978106
      outer loop
         vertex -0.000892169 0.0634764 0.0173698
         vertex -0.000852398 0.063479 0.0173692
         vertex -0.00121312 0.0631738 0.0174341
      endloop
   endfacet
   facet normal -1.80675e-13 -0.208108 -0.978106
      outer loop
         vertex -0.00463785 0.0555599 0.0190541
         vertex -0.00461531 0.055592 0.0190473
         vertex -0.00468445 0.0552976 0.0191099
      endloop
   endfacet
   facet normal -1.80675e-13 -0.208108 -0.978106
      outer loop
         vertex -0.00367472 0.0544834 0.0192832
         vertex -0.0041649 0.0545756 0.0192636
         vertex -0.00461329 0.0551474 0.0191419
      endloop
   endfacet
   facet normal -1.80675e-13 -0.208108 -0.978106
      outer loop
         vertex -0.0041649 0.0545756 0.0192636
         vertex -0.00367472 0.0544834 0.0192832
         vertex -0.00368092 0.05448 0.0192839
      endloop
   endfacet
   facet normal -1.80675e-13 -0.208108 -0.978106
      outer loop
         vertex 0.00367471 0.0544834 0.0192832
         vertex 0.0041649 0.0545756 0.0192636
         vertex 0.00416042 0.0545702 0.0192647
      endloop
   endfacet
   facet normal -1.80675e-13 -0.208108 -0.978106
      outer loop
         vertex 0.00464194 0.055189 0.019133
         vertex 0.00462011 0.0551564 0.01914
         vertex 0.00463785 0.0555599 0.0190541
      endloop
   endfacet
   facet normal -1.80675e-13 -0.208108 -0.978106
      outer loop
         vertex 0.00100659 0.063444 0.0173766
         vertex 0.00104161 0.0634254 0.0173806
         vertex 0.00121314 0.0631738 0.0174341
      endloop
   endfacet
   facet normal -1.80675e-13 -0.208108 -0.978106
      outer loop
         vertex -0.000842932 0.0634792 0.0173692
         vertex -0.00121468 0.0631647 0.0174361
         vertex -0.00121312 0.0631738 0.0174341
      endloop
   endfacet
   facet normal -1.80675e-13 -0.208108 -0.978106
      outer loop
         vertex -7.35299e-17 0.056622 0.0188281
         vertex -0.00183768 0.0589816 0.0183261
         vertex -0.00121468 0.0631647 0.0174361
      endloop
   endfacet
   facet normal -1.80675e-13 -0.208108 -0.978106
      outer loop
         vertex -0.00460831 0.0556009 0.0190454
         vertex -0.00461329 0.0551474 0.0191419
         vertex -0.0046201 0.0551564 0.01914
      endloop
   endfacet
   facet normal -1.80675e-13 -0.208108 -0.978106
      outer loop
         vertex -0.00416044 0.0545702 0.0192647
         vertex -0.0041649 0.0545756 0.0192636
         vertex -0.00368092 0.05448 0.0192839
      endloop
   endfacet
   facet normal -1.80675e-13 -0.208108 -0.978106
      outer loop
         vertex 0.00183768 0.0589816 0.0183261
         vertex 0.0046133 0.0551474 0.0191419
         vertex 0.00367471 0.0544834 0.0192832
      endloop
   endfacet
   facet normal -1.80675e-13 -0.208108 -0.978106
      outer loop
         vertex 0.00367471 0.0544834 0.0192832
         vertex 0.0046133 0.0551474 0.0191419
         vertex 0.0041649 0.0545756 0.0192636
      endloop
   endfacet
   facet normal -1.80675e-13 -0.208108 -0.978106
      outer loop
         vertex 0.0046133 0.0551474 0.0191419
         vertex 0.0046083 0.0556009 0.0190454
         vertex 0.00461531 0.055592 0.0190473
      endloop
   endfacet
   facet normal -1.80675e-13 -0.208108 -0.978106
      outer loop
         vertex 0.00120481 0.0632119 0.017426
         vertex 0.00121314 0.0631738 0.0174341
         vertex 0.00115557 0.063318 0.0174035
      endloop
   endfacet
   facet normal -1.80675e-13 -0.208108 -0.978106
      outer loop
         vertex -0.00121468 0.0631647 0.0174361
         vertex -0.000842932 0.0634792 0.0173692
         vertex -7.35299e-17 0.056622 0.0188281
      endloop
   endfacet
   facet normal -1.80675e-13 -0.208108 -0.978106
      outer loop
         vertex -7.35299e-17 0.056622 0.0188281
         vertex -0.00367472 0.0544834 0.0192832
         vertex -0.00460831 0.0556009 0.0190454
      endloop
   endfacet
   facet normal -1.80675e-13 -0.208108 -0.978106
      outer loop
         vertex -0.00461329 0.0551474 0.0191419
         vertex -0.00460831 0.0556009 0.0190454
         vertex -0.00367472 0.0544834 0.0192832
      endloop
   endfacet
   facet normal -1.80675e-13 -0.208108 -0.978106
      outer loop
         vertex 0.00368091 0.05448 0.0192839
         vertex 0.00367471 0.0544834 0.0192832
         vertex 0.00416042 0.0545702 0.0192647
      endloop
   endfacet
   facet normal -1.80675e-13 -0.208108 -0.978106
      outer loop
         vertex 0.0046133 0.0551474 0.0191419
         vertex 0.00183768 0.0589816 0.0183261
         vertex 0.0046083 0.0556009 0.0190454
      endloop
   endfacet
   facet normal -1.80675e-13 -0.208108 -0.978106
      outer loop
         vertex -7.35299e-17 0.056622 0.0188281
         vertex 0.000842932 0.0634791 0.0173692
         vertex 0.00121469 0.0631647 0.0174361
      endloop
   endfacet
   facet normal -1.80675e-13 -0.208108 -0.978106
      outer loop
         vertex 0.00121469 0.0631647 0.0174361
         vertex 0.000842932 0.0634791 0.0173692
         vertex 0.000852399 0.063479 0.0173692
      endloop
   endfacet
   facet normal -1.80675e-13 -0.208108 -0.978106
      outer loop
         vertex -0.000852398 0.063479 0.0173692
         vertex -0.000842932 0.0634792 0.0173692
         vertex -0.00121312 0.0631738 0.0174341
      endloop
   endfacet
   facet normal -1.80675e-13 -0.208108 -0.978106
      outer loop
         vertex -0.00461531 0.055592 0.0190473
         vertex -0.00460831 0.0556009 0.0190454
         vertex -0.0046201 0.0551564 0.01914
      endloop
   endfacet
   facet normal -1.80675e-13 -0.208108 -0.978106
      outer loop
         vertex 0.00462011 0.0551564 0.01914
         vertex 0.0046133 0.0551474 0.0191419
         vertex 0.00461531 0.055592 0.0190473
      endloop
   endfacet
   facet normal -1.80675e-13 -0.208108 -0.978106
      outer loop
         vertex 0.00121314 0.0631738 0.0174341
         vertex 0.00121469 0.0631647 0.0174361
         vertex 0.000852399 0.063479 0.0173692
      endloop
   endfacet
   facet normal -1.80675e-13 -0.208108 -0.978106
      outer loop
         vertex -0.00460831 0.0556009 0.0190454
         vertex -0.00183768 0.0589816 0.0183261
         vertex -7.35299e-17 0.056622 0.0188281
      endloop
   endfacet
   facet normal -1.80675e-13 -0.208108 -0.978106
      outer loop
         vertex 0.00121469 0.0631647 0.0174361
         vertex 0.00183768 0.0589816 0.0183261
         vertex -7.35299e-17 0.056622 0.0188281
      endloop
   endfacet
   facet normal -1.80675e-13 -0.208108 -0.978106
      outer loop
         vertex 0.00367471 0.0544834 0.0192832
         vertex -7.35299e-17 0.056622 0.0188281
         vertex 0.00183768 0.0589816 0.0183261
      endloop
   endfacet
   facet normal -1.80675e-13 -0.208108 -0.978106
      outer loop
         vertex -0.000842932 0.0634792 0.0173692
         vertex 0.000842932 0.0634791 0.0173692
         vertex -7.35299e-17 0.056622 0.0188281
      endloop
   endfacet
   facet normal -0.875377 0.0150018 -0.483209
      outer loop
         vertex -0.00121468 0.0631647 0.0174361
         vertex -0.00137258 0.0632496 0.0177248
         vertex -0.0013707 0.0632605 0.0177224
      endloop
   endfacet
   facet normal -0.852254 0.127947 -0.50724
      outer loop
         vertex -0.00135879 0.0633151 0.0177108
         vertex -0.0012048 0.0632119 0.017426
         vertex -0.00121312 0.0631738 0.0174341
      endloop
   endfacet
   facet normal -0.822461 0.216386 -0.526057
      outer loop
         vertex -0.00134093 0.0633681 0.0176995
         vertex -0.00119233 0.0632489 0.0174182
         vertex -0.0012048 0.0632119 0.017426
      endloop
   endfacet
   facet normal -0.783105 0.301174 -0.544097
      outer loop
         vertex -0.00131734 0.0634189 0.0176887
         vertex -0.00117585 0.0632844 0.0174106
         vertex -0.00119233 0.0632489 0.0174182
      endloop
   endfacet
   facet normal -0.734645 0.381324 -0.56115
      outer loop
         vertex -0.0012883 0.063467 0.0176785
         vertex -0.00115556 0.063318 0.0174035
         vertex -0.00117585 0.0632844 0.0174106
      endloop
   endfacet
   facet normal -0.677644 0.455905 -0.577018
      outer loop
         vertex -0.00125413 0.0635117 0.017669
         vertex -0.0011317 0.0633492 0.0173968
         vertex -0.00115556 0.063318 0.0174035
      endloop
   endfacet
   facet normal -0.612764 0.524049 -0.591517
      outer loop
         vertex -0.00121525 0.0635525 0.0176603
         vertex -0.00110453 0.0633777 0.0173908
         vertex -0.0011317 0.0633492 0.0173968
      endloop
   endfacet
   facet normal -0.540761 0.584965 -0.604478
      outer loop
         vertex -0.00117209 0.063589 0.0176525
         vertex -0.00107439 0.0634032 0.0173853
         vertex -0.00110453 0.0633777 0.0173908
      endloop
   endfacet
   facet normal -0.46247 0.637944 -0.61575
      outer loop
         vertex -0.00112517 0.0636208 0.0176458
         vertex -0.00104161 0.0634254 0.0173806
         vertex -0.00107439 0.0634032 0.0173853
      endloop
   endfacet
   facet normal -0.378803 0.682371 -0.625202
      outer loop
         vertex -0.00107503 0.0636474 0.0176401
         vertex -0.00100658 0.063444 0.0173766
         vertex -0.00104161 0.0634254 0.0173806
      endloop
   endfacet
   facet normal -0.290732 0.717728 -0.632725
      outer loop
         vertex -0.00102224 0.0636686 0.0176356
         vertex -0.000969713 0.0634588 0.0173735
         vertex -0.00100658 0.063444 0.0173766
      endloop
   endfacet
   facet normal -0.199281 0.743605 -0.638231
      outer loop
         vertex -0.000967432 0.0636841 0.0176323
         vertex -0.000931426 0.0634697 0.0173712
         vertex -0.000969713 0.0634588 0.0173735
      endloop
   endfacet
   facet normal -0.105513 0.759701 -0.641656
      outer loop
         vertex -0.000911233 0.0636938 0.0176302
         vertex -0.000892169 0.0634764 0.0173698
         vertex -0.000931426 0.0634697 0.0173712
      endloop
   endfacet
   facet normal -0.0105182 0.765828 -0.642959
      outer loop
         vertex -0.000854299 0.0636974 0.0176294
         vertex -0.000852398 0.063479 0.0173692
         vertex -0.000892169 0.0634764 0.0173698
      endloop
   endfacet
   facet normal -0.0105182 0.765828 -0.642959
      outer loop
         vertex -0.000854299 0.0636974 0.0176294
         vertex -0.000842932 0.0636976 0.0176294
         vertex -0.000842932 0.0634792 0.0173692
      endloop
   endfacet
   facet normal 0.0120866 0.765809 -0.642955
      outer loop
         vertex -0.000842932 0.0634792 0.0173692
         vertex -0.000852398 0.063479 0.0173692
         vertex -0.000854299 0.0636974 0.0176294
      endloop
   endfacet
   facet normal -0.105513 0.759701 -0.641656
      outer loop
         vertex -0.000892169 0.0634764 0.0173698
         vertex -0.000911233 0.0636938 0.0176302
         vertex -0.000854299 0.0636974 0.0176294
      endloop
   endfacet
   facet normal -0.199281 0.743605 -0.638231
      outer loop
         vertex -0.000931426 0.0634697 0.0173712
         vertex -0.000967432 0.0636841 0.0176323
         vertex -0.000911233 0.0636938 0.0176302
      endloop
   endfacet
   facet normal -0.290732 0.717728 -0.632725
      outer loop
         vertex -0.000969713 0.0634588 0.0173735
         vertex -0.00102224 0.0636686 0.0176356
         vertex -0.000967432 0.0636841 0.0176323
      endloop
   endfacet
   facet normal -0.378803 0.682371 -0.625202
      outer loop
         vertex -0.00100658 0.063444 0.0173766
         vertex -0.00107503 0.0636474 0.0176401
         vertex -0.00102224 0.0636686 0.0176356
      endloop
   endfacet
   facet normal -0.46247 0.637944 -0.61575
      outer loop
         vertex -0.00104161 0.0634254 0.0173806
         vertex -0.00112517 0.0636208 0.0176458
         vertex -0.00107503 0.0636474 0.0176401
      endloop
   endfacet
   facet normal -0.540761 0.584965 -0.604478
      outer loop
         vertex -0.00107439 0.0634032 0.0173853
         vertex -0.00117209 0.063589 0.0176525
         vertex -0.00112517 0.0636208 0.0176458
      endloop
   endfacet
   facet normal -0.612764 0.524049 -0.591517
      outer loop
         vertex -0.00110453 0.0633777 0.0173908
         vertex -0.00121525 0.0635525 0.0176603
         vertex -0.00117209 0.063589 0.0176525
      endloop
   endfacet
   facet normal -0.677644 0.455905 -0.577018
      outer loop
         vertex -0.0011317 0.0633492 0.0173968
         vertex -0.00125413 0.0635117 0.017669
         vertex -0.00121525 0.0635525 0.0176603
      endloop
   endfacet
   facet normal -0.734645 0.381324 -0.56115
      outer loop
         vertex -0.00115556 0.063318 0.0174035
         vertex -0.0012883 0.063467 0.0176785
         vertex -0.00125413 0.0635117 0.017669
      endloop
   endfacet
   facet normal -0.783105 0.301174 -0.544097
      outer loop
         vertex -0.00117585 0.0632844 0.0174106
         vertex -0.00131734 0.0634189 0.0176887
         vertex -0.0012883 0.063467 0.0176785
      endloop
   endfacet
   facet normal -0.822461 0.216386 -0.526057
      outer loop
         vertex -0.00119233 0.0632489 0.0174182
         vertex -0.00134093 0.0633681 0.0176995
         vertex -0.00131734 0.0634189 0.0176887
      endloop
   endfacet
   facet normal -0.852254 0.127947 -0.50724
      outer loop
         vertex -0.0012048 0.0632119 0.017426
         vertex -0.00135879 0.0633151 0.0177108
         vertex -0.00134093 0.0633681 0.0176995
      endloop
   endfacet
   facet normal -0.87214 0.0368839 -0.487865
      outer loop
         vertex -0.00121312 0.0631738 0.0174341
         vertex -0.0013707 0.0632605 0.0177224
         vertex -0.00135879 0.0633151 0.0177108
      endloop
   endfacet
   facet normal -0.87214 0.0368839 -0.487865
      outer loop
         vertex -0.0013707 0.0632605 0.0177224
         vertex -0.00121312 0.0631738 0.0174341
         vertex -0.00121468 0.0631647 0.0174361
      endloop
   endfacet
   facet normal -0.873732 0.0267512 -0.485672
      outer loop
         vertex -0.00121468 0.0631647 0.0174361
         vertex -0.00183768 0.0589816 0.0183261
         vertex -0.00198928 0.0591085 0.0186058
      endloop
   endfacet
   facet normal -0.873732 0.0267512 -0.485672
      outer loop
         vertex -0.00198928 0.0591085 0.0186058
         vertex -0.00137258 0.0632496 0.0177248
         vertex -0.00121468 0.0631647 0.0174361
      endloop
   endfacet
   facet normal -0.688909 0.442477 -0.574124
      outer loop
         vertex -0.00460831 0.0556009 0.0190454
         vertex -0.00473284 0.055761 0.0193181
         vertex -0.00198928 0.0591085 0.0186058
      endloop
   endfacet
   facet normal -0.688909 0.442477 -0.574124
      outer loop
         vertex -0.00198928 0.0591085 0.0186058
         vertex -0.00183768 0.0589816 0.0183261
         vertex -0.00460831 0.0556009 0.0190454
      endloop
   endfacet
endsolid Part 2. Units = meters