solid Part 1. STL generated by ONSHAPE BY PTC INC, 1.216. Units = meters
   facet normal -0.0121165 0.765808 -0.642955
      outer loop
         vertex 0.000842932 0.0517419 0.0198665
         vertex 0.000842931 0.0519604 0.0201268
         vertex 0.000854294 0.0519601 0.0201267
      endloop
   endfacet
   facet normal 0.105483 0.759704 -0.641656
      outer loop
         vertex 0.000911228 0.0519565 0.0201275
         vertex 0.000892169 0.0517391 0.0198671
         vertex 0.000852399 0.0517417 0.0198665
      endloop
   endfacet
   facet normal 0.199252 0.743612 -0.638232
      outer loop
         vertex 0.000967427 0.0519468 0.0201296
         vertex 0.000931426 0.0517324 0.0198685
         vertex 0.000892169 0.0517391 0.0198671
      endloop
   endfacet
   facet normal 0.290704 0.717738 -0.632727
      outer loop
         vertex 0.00102224 0.0519313 0.0201329
         vertex 0.000969713 0.0517216 0.0198708
         vertex 0.000931426 0.0517324 0.0198685
      endloop
   endfacet
   facet normal 0.378776 0.682383 -0.625205
      outer loop
         vertex 0.00107502 0.0519101 0.0201374
         vertex 0.00100659 0.0517068 0.0198739
         vertex 0.000969713 0.0517216 0.0198708
      endloop
   endfacet
   facet normal 0.462445 0.63796 -0.615753
      outer loop
         vertex 0.00112517 0.0518835 0.020143
         vertex 0.00104161 0.0516882 0.0198779
         vertex 0.00100659 0.0517068 0.0198739
      endloop
   endfacet
   facet normal 0.540737 0.584983 -0.604482
      outer loop
         vertex 0.00117209 0.0518518 0.0201498
         vertex 0.00107439 0.051666 0.0198826
         vertex 0.00104161 0.0516882 0.0198779
      endloop
   endfacet
   facet normal 0.612743 0.52407 -0.591521
      outer loop
         vertex 0.00121525 0.0518152 0.0201576
         vertex 0.00110454 0.0516405 0.019888
         vertex 0.00107439 0.051666 0.0198826
      endloop
   endfacet
   facet normal 0.677625 0.455927 -0.577023
      outer loop
         vertex 0.00125414 0.0517744 0.0201663
         vertex 0.0011317 0.0516119 0.0198941
         vertex 0.00110454 0.0516405 0.019888
      endloop
   endfacet
   facet normal 0.734628 0.381348 -0.561155
      outer loop
         vertex 0.0012883 0.0517297 0.0201758
         vertex 0.00115557 0.0515807 0.0199008
         vertex 0.0011317 0.0516119 0.0198941
      endloop
   endfacet
   facet normal 0.783091 0.301199 -0.544102
      outer loop
         vertex 0.00131735 0.0516817 0.020186
         vertex 0.00117586 0.0515472 0.0199079
         vertex 0.00115557 0.0515807 0.0199008
      endloop
   endfacet
   facet normal 0.82245 0.216413 -0.526062
      outer loop
         vertex 0.00134094 0.0516309 0.0201968
         vertex 0.00119233 0.0515117 0.0199154
         vertex 0.00117586 0.0515472 0.0199079
      endloop
   endfacet
   facet normal 0.852247 0.127975 -0.507246
      outer loop
         vertex 0.00135879 0.0515779 0.0202081
         vertex 0.00120481 0.0514746 0.0199233
         vertex 0.00119233 0.0515117 0.0199154
      endloop
   endfacet
   facet normal 0.872135 0.0369128 -0.487871
      outer loop
         vertex 0.00137071 0.0515233 0.0202197
         vertex 0.00121314 0.0514365 0.0199314
         vertex 0.00120481 0.0514746 0.0199233
      endloop
   endfacet
   facet normal 0.872135 0.0369128 -0.487871
      outer loop
         vertex 0.00137071 0.0515233 0.0202197
         vertex 0.00137255 0.0515123 0.020222
         vertex 0.00121469 0.0514274 0.0199334
      endloop
   endfacet
   facet normal 0.875373 0.0150308 -0.483215
      outer loop
         vertex 0.00121469 0.0514274 0.0199334
         vertex 0.00121314 0.0514365 0.0199314
         vertex 0.00137071 0.0515233 0.0202197
      endloop
   endfacet
   facet normal 0.852247 0.127975 -0.507246
      outer loop
         vertex 0.00120481 0.0514746 0.0199233
         vertex 0.00135879 0.0515779 0.0202081
         vertex 0.00137071 0.0515233 0.0202197
      endloop
   endfacet
   facet normal 0.82245 0.216413 -0.526062
      outer loop
         vertex 0.00119233 0.0515117 0.0199154
         vertex 0.00134094 0.0516309 0.0201968
         vertex 0.00135879 0.0515779 0.0202081
      endloop
   endfacet
   facet normal 0.783091 0.301199 -0.544102
      outer loop
         vertex 0.00117586 0.0515472 0.0199079
         vertex 0.00131735 0.0516817 0.020186
         vertex 0.00134094 0.0516309 0.0201968
      endloop
   endfacet
   facet normal 0.734628 0.381348 -0.561155
      outer loop
         vertex 0.00115557 0.0515807 0.0199008
         vertex 0.0012883 0.0517297 0.0201758
         vertex 0.00131735 0.0516817 0.020186
      endloop
   endfacet
   facet normal 0.677625 0.455927 -0.577023
      outer loop
         vertex 0.0011317 0.0516119 0.0198941
         vertex 0.00125414 0.0517744 0.0201663
         vertex 0.0012883 0.0517297 0.0201758
      endloop
   endfacet
   facet normal 0.612743 0.52407 -0.591521
      outer loop
         vertex 0.00110454 0.0516405 0.019888
         vertex 0.00121525 0.0518152 0.0201576
         vertex 0.00125414 0.0517744 0.0201663
      endloop
   endfacet
   facet normal 0.540737 0.584983 -0.604482
      outer loop
         vertex 0.00107439 0.051666 0.0198826
         vertex 0.00117209 0.0518518 0.0201498
         vertex 0.00121525 0.0518152 0.0201576
      endloop
   endfacet
   facet normal 0.462445 0.63796 -0.615753
      outer loop
         vertex 0.00104161 0.0516882 0.0198779
         vertex 0.00112517 0.0518835 0.020143
         vertex 0.00117209 0.0518518 0.0201498
      endloop
   endfacet
   facet normal 0.378776 0.682383 -0.625205
      outer loop
         vertex 0.00100659 0.0517068 0.0198739
         vertex 0.00107502 0.0519101 0.0201374
         vertex 0.00112517 0.0518835 0.020143
      endloop
   endfacet
   facet normal 0.290704 0.717738 -0.632727
      outer loop
         vertex 0.000969713 0.0517216 0.0198708
         vertex 0.00102224 0.0519313 0.0201329
         vertex 0.00107502 0.0519101 0.0201374
      endloop
   endfacet
   facet normal 0.199252 0.743612 -0.638232
      outer loop
         vertex 0.000931426 0.0517324 0.0198685
         vertex 0.000967427 0.0519468 0.0201296
         vertex 0.00102224 0.0519313 0.0201329
      endloop
   endfacet
   facet normal 0.105483 0.759704 -0.641656
      outer loop
         vertex 0.000892169 0.0517391 0.0198671
         vertex 0.000911228 0.0519565 0.0201275
         vertex 0.000967427 0.0519468 0.0201296
      endloop
   endfacet
   facet normal 0.0104883 0.765829 -0.642959
      outer loop
         vertex 0.000852399 0.0517417 0.0198665
         vertex 0.000854294 0.0519601 0.0201267
         vertex 0.000911228 0.0519565 0.0201275
      endloop
   endfacet
   facet normal 0.0104883 0.765829 -0.642959
      outer loop
         vertex 0.000854294 0.0519601 0.0201267
         vertex 0.000852399 0.0517417 0.0198665
         vertex 0.000842932 0.0517419 0.0198665
      endloop
   endfacet
   facet normal 0 0.765916 -0.642941
      outer loop
         vertex 0.000842932 0.0517419 0.0198665
         vertex -0.000842932 0.0517419 0.0198665
         vertex -0.000842932 0.0519603 0.0201267
      endloop
   endfacet
   facet normal 0 0.765916 -0.642941
      outer loop
         vertex -0.000842932 0.0519603 0.0201267
         vertex 0.000842931 0.0519604 0.0201268
         vertex 0.000842932 0.0517419 0.0198665
      endloop
   endfacet
   facet normal -0.875377 0.0150018 -0.483209
      outer loop
         vertex -0.00121468 0.0514274 0.0199334
         vertex -0.00137258 0.0515123 0.0202221
         vertex -0.0013707 0.0515233 0.0202197
      endloop
   endfacet
   facet normal -0.852254 0.127947 -0.50724
      outer loop
         vertex -0.00135879 0.0515778 0.0202081
         vertex -0.0012048 0.0514746 0.0199233
         vertex -0.00121312 0.0514365 0.0199314
      endloop
   endfacet
   facet normal -0.822461 0.216386 -0.526057
      outer loop
         vertex -0.00134093 0.0516309 0.0201968
         vertex -0.00119233 0.0515117 0.0199154
         vertex -0.0012048 0.0514746 0.0199233
      endloop
   endfacet
   facet normal -0.783105 0.301174 -0.544097
      outer loop
         vertex -0.00131734 0.0516817 0.020186
         vertex -0.00117585 0.0515472 0.0199079
         vertex -0.00119233 0.0515117 0.0199154
      endloop
   endfacet
   facet normal -0.734645 0.381324 -0.56115
      outer loop
         vertex -0.0012883 0.0517297 0.0201758
         vertex -0.00115556 0.0515807 0.0199008
         vertex -0.00117585 0.0515472 0.0199079
      endloop
   endfacet
   facet normal -0.677644 0.455905 -0.577018
      outer loop
         vertex -0.00125413 0.0517744 0.0201663
         vertex -0.0011317 0.0516119 0.0198941
         vertex -0.00115556 0.0515807 0.0199008
      endloop
   endfacet
   facet normal -0.612764 0.524049 -0.591517
      outer loop
         vertex -0.00121525 0.0518152 0.0201576
         vertex -0.00110453 0.0516405 0.019888
         vertex -0.0011317 0.0516119 0.0198941
      endloop
   endfacet
   facet normal -0.540761 0.584965 -0.604478
      outer loop
         vertex -0.00117209 0.0518518 0.0201498
         vertex -0.00107439 0.051666 0.0198826
         vertex -0.00110453 0.0516405 0.019888
      endloop
   endfacet
   facet normal -0.46247 0.637944 -0.61575
      outer loop
         vertex -0.00112517 0.0518835 0.020143
         vertex -0.00104161 0.0516882 0.0198779
         vertex -0.00107439 0.051666 0.0198826
      endloop
   endfacet
   facet normal -0.378803 0.682371 -0.625202
      outer loop
         vertex -0.00107503 0.0519101 0.0201374
         vertex -0.00100658 0.0517068 0.0198739
         vertex -0.00104161 0.0516882 0.0198779
      endloop
   endfacet
   facet normal -0.290732 0.717728 -0.632725
      outer loop
         vertex -0.00102224 0.0519313 0.0201329
         vertex -0.000969713 0.0517216 0.0198708
         vertex -0.00100658 0.0517068 0.0198739
      endloop
   endfacet
   facet normal -0.199281 0.743605 -0.638231
      outer loop
         vertex -0.000967432 0.0519468 0.0201296
         vertex -0.000931426 0.0517324 0.0198685
         vertex -0.000969713 0.0517216 0.0198708
      endloop
   endfacet
   facet normal -0.105513 0.759701 -0.641656
      outer loop
         vertex -0.000911233 0.0519565 0.0201275
         vertex -0.000892169 0.0517391 0.0198671
         vertex -0.000931426 0.0517324 0.0198685
      endloop
   endfacet
   facet normal -0.0105182 0.765828 -0.642959
      outer loop
         vertex -0.000854299 0.0519602 0.0201267
         vertex -0.000852398 0.0517417 0.0198665
         vertex -0.000892169 0.0517391 0.0198671
      endloop
   endfacet
   facet normal -0.0105182 0.765828 -0.642959
      outer loop
         vertex -0.000854299 0.0519602 0.0201267
         vertex -0.000842932 0.0519603 0.0201267
         vertex -0.000842932 0.0517419 0.0198665
      endloop
   endfacet
   facet normal 0.0120866 0.765809 -0.642955
      outer loop
         vertex -0.000842932 0.0517419 0.0198665
         vertex -0.000852398 0.0517417 0.0198665
         vertex -0.000854299 0.0519602 0.0201267
      endloop
   endfacet
   facet normal -0.105513 0.759701 -0.641656
      outer loop
         vertex -0.000892169 0.0517391 0.0198671
         vertex -0.000911233 0.0519565 0.0201275
         vertex -0.000854299 0.0519602 0.0201267
      endloop
   endfacet
   facet normal -0.199281 0.743605 -0.638231
      outer loop
         vertex -0.000931426 0.0517324 0.0198685
         vertex -0.000967432 0.0519468 0.0201296
         vertex -0.000911233 0.0519565 0.0201275
      endloop
   endfacet
   facet normal -0.290732 0.717728 -0.632725
      outer loop
         vertex -0.000969713 0.0517216 0.0198708
         vertex -0.00102224 0.0519313 0.0201329
         vertex -0.000967432 0.0519468 0.0201296
      endloop
   endfacet
   facet normal -0.378803 0.682371 -0.625202
      outer loop
         vertex -0.00100658 0.0517068 0.0198739
         vertex -0.00107503 0.0519101 0.0201374
         vertex -0.00102224 0.0519313 0.0201329
      endloop
   endfacet
   facet normal -0.46247 0.637944 -0.61575
      outer loop
         vertex -0.00104161 0.0516882 0.0198779
         vertex -0.00112517 0.0518835 0.020143
         vertex -0.00107503 0.0519101 0.0201374
      endloop
   endfacet
   facet normal -0.540761 0.584965 -0.604478
      outer loop
         vertex -0.00107439 0.051666 0.0198826
         vertex -0.00117209 0.0518518 0.0201498
         vertex -0.00112517 0.0518835 0.020143
      endloop
   endfacet
   facet normal -0.612764 0.524049 -0.591517
      outer loop
         vertex -0.00110453 0.0516405 0.019888
         vertex -0.00121525 0.0518152 0.0201576
         vertex -0.00117209 0.0518518 0.0201498
      endloop
   endfacet
   facet normal -0.677644 0.455905 -0.577018
      outer loop
         vertex -0.0011317 0.0516119 0.0198941
         vertex -0.00125413 0.0517744 0.0201663
         vertex -0.00121525 0.0518152 0.0201576
      endloop
   endfacet
   facet normal -0.734645 0.381324 -0.56115
      outer loop
         vertex -0.00115556 0.0515807 0.0199008
         vertex -0.0012883 0.0517297 0.0201758
         vertex -0.00125413 0.0517744 0.0201663
      endloop
   endfacet
   facet normal -0.783105 0.301174 -0.544097
      outer loop
         vertex -0.00117585 0.0515472 0.0199079
         vertex -0.00131734 0.0516817 0.020186
         vertex -0.0012883 0.0517297 0.0201758
      endloop
   endfacet
   facet normal -0.822461 0.216386 -0.526057
      outer loop
         vertex -0.00119233 0.0515117 0.0199154
         vertex -0.00134093 0.0516309 0.0201968
         vertex -0.00131734 0.0516817 0.020186
      endloop
   endfacet
   facet normal -0.852254 0.127947 -0.50724
      outer loop
         vertex -0.0012048 0.0514746 0.0199233
         vertex -0.00135879 0.0515778 0.0202081
         vertex -0.00134093 0.0516309 0.0201968
      endloop
   endfacet
   facet normal -0.87214 0.0368839 -0.487865
      outer loop
         vertex -0.00121312 0.0514365 0.0199314
         vertex -0.0013707 0.0515233 0.0202197
         vertex -0.00135879 0.0515778 0.0202081
      endloop
   endfacet
   facet normal -0.87214 0.0368839 -0.487865
      outer loop
         vertex -0.0013707 0.0515233 0.0202197
         vertex -0.00121312 0.0514365 0.0199314
         vertex -0.00121468 0.0514274 0.0199334
      endloop
   endfacet
   facet normal -0.873732 0.0267512 -0.485672
      outer loop
         vertex -0.00121468 0.0514274 0.0199334
         vertex -0.00183768 0.0472443 0.0208234
         vertex -0.00198928 0.0473712 0.0211031
      endloop
   endfacet
   facet normal -0.873732 0.0267512 -0.485672
      outer loop
         vertex -0.00198928 0.0473712 0.0211031
         vertex -0.00137258 0.0515123 0.0202221
         vertex -0.00121468 0.0514274 0.0199334
      endloop
   endfacet
   facet normal -0.688909 0.442477 -0.574124
      outer loop
         vertex -0.00460831 0.0438636 0.0215427
         vertex -0.00473283 0.0440237 0.0218154
         vertex -0.00198928 0.0473712 0.0211031
      endloop
   endfacet
   facet normal -0.688909 0.442477 -0.574124
      outer loop
         vertex -0.00198928 0.0473712 0.0211031
         vertex -0.00183768 0.0472443 0.0208234
         vertex -0.00460831 0.0438636 0.0215427
      endloop
   endfacet
   facet normal -0.710975 -0.60953 -0.350695
      outer loop
         vertex -0.00474871 0.043389 0.0219504
         vertex -0.0046201 0.0434192 0.0216373
         vertex -0.00461329 0.0434101 0.0216392
      endloop
   endfacet
   facet normal -0.763019 -0.531944 -0.367203
      outer loop
         vertex -0.00477996 0.0434356 0.0219405
         vertex -0.00464193 0.0434517 0.0216303
         vertex -0.0046201 0.0434192 0.0216373
      endloop
   endfacet
   facet normal -0.806249 -0.449342 -0.384778
      outer loop
         vertex -0.00480591 0.0434852 0.0219299
         vertex -0.00466006 0.0434864 0.021623
         vertex -0.00464193 0.0434517 0.0216303
      endloop
   endfacet
   facet normal -0.840166 -0.36268 -0.403217
      outer loop
         vertex -0.00482627 0.0435372 0.0219189
         vertex -0.00467429 0.0435227 0.0216152
         vertex -0.00466006 0.0434864 0.021623
      endloop
   endfacet
   facet normal -0.864379 -0.272959 -0.422306
      outer loop
         vertex -0.00484081 0.0435911 0.0219074
         vertex -0.00468445 0.0435603 0.0216072
         vertex -0.00467429 0.0435227 0.0216152
      endloop
   endfacet
   facet normal -0.878607 -0.181213 -0.441827
      outer loop
         vertex -0.00484935 0.0436462 0.0218957
         vertex -0.00469042 0.0435988 0.021599
         vertex -0.00468445 0.0435603 0.0216072
      endloop
   endfacet
   facet normal -0.882687 -0.0885043 -0.461552
      outer loop
         vertex -0.0048518 0.0437018 0.0218838
         vertex -0.00469213 0.0436377 0.0215908
         vertex -0.00469042 0.0435988 0.021599
      endloop
   endfacet
   facet normal -0.876571 0.00409749 -0.481255
      outer loop
         vertex -0.00484813 0.0437574 0.021872
         vertex -0.00468956 0.0436766 0.0215825
         vertex -0.00469213 0.0436377 0.0215908
      endloop
   endfacet
   facet normal -0.86033 0.0955225 -0.500707
      outer loop
         vertex -0.00483838 0.0438123 0.0218603
         vertex -0.00468275 0.0437149 0.0215743
         vertex -0.00468956 0.0436766 0.0215825
      endloop
   endfacet
   facet normal -0.834152 0.184715 -0.519684
      outer loop
         vertex -0.00482266 0.0438659 0.0218489
         vertex -0.00467177 0.0437523 0.0215664
         vertex -0.00468275 0.0437149 0.0215743
      endloop
   endfacet
   facet normal -0.798338 0.270644 -0.537967
      outer loop
         vertex -0.00480116 0.0439174 0.021838
         vertex -0.00465675 0.0437884 0.0215587
         vertex -0.00467177 0.0437523 0.0215664
      endloop
   endfacet
   facet normal -0.753303 0.352317 -0.555344
      outer loop
         vertex -0.00477412 0.0439665 0.0218275
         vertex -0.00463785 0.0438226 0.0215514
         vertex -0.00465675 0.0437884 0.0215587
      endloop
   endfacet
   facet normal -0.699567 0.428792 -0.571615
      outer loop
         vertex -0.00474186 0.0440124 0.0218178
         vertex -0.00461531 0.0438547 0.0215446
         vertex -0.00463785 0.0438226 0.0215514
      endloop
   endfacet
   facet normal -0.699567 0.428792 -0.571615
      outer loop
         vertex -0.00474186 0.0440124 0.0218178
         vertex -0.00473283 0.0440237 0.0218154
         vertex -0.00460831 0.0438636 0.0215427
      endloop
   endfacet
   facet normal -0.682552 0.449738 -0.576072
      outer loop
         vertex -0.00460831 0.0438636 0.0215427
         vertex -0.00461531 0.0438547 0.0215446
         vertex -0.00474186 0.0440124 0.0218178
      endloop
   endfacet
   facet normal -0.753303 0.352317 -0.555344
      outer loop
         vertex -0.00463785 0.0438226 0.0215514
         vertex -0.00477412 0.0439665 0.0218275
         vertex -0.00474186 0.0440124 0.0218178
      endloop
   endfacet
   facet normal -0.798338 0.270644 -0.537967
      outer loop
         vertex -0.00465675 0.0437884 0.0215587
         vertex -0.00480116 0.0439174 0.021838
         vertex -0.00477412 0.0439665 0.0218275
      endloop
   endfacet
   facet normal -0.834152 0.184715 -0.519684
      outer loop
         vertex -0.00467177 0.0437523 0.0215664
         vertex -0.00482266 0.0438659 0.0218489
         vertex -0.00480116 0.0439174 0.021838
      endloop
   endfacet
   facet normal -0.86033 0.0955225 -0.500707
      outer loop
         vertex -0.00468275 0.0437149 0.0215743
         vertex -0.00483838 0.0438123 0.0218603
         vertex -0.00482266 0.0438659 0.0218489
      endloop
   endfacet
   facet normal -0.876571 0.00409749 -0.481255
      outer loop
         vertex -0.00468956 0.0436766 0.0215825
         vertex -0.00484813 0.0437574 0.021872
         vertex -0.00483838 0.0438123 0.0218603
      endloop
   endfacet
   facet normal -0.882687 -0.0885043 -0.461552
      outer loop
         vertex -0.00469213 0.0436377 0.0215908
         vertex -0.0048518 0.0437018 0.0218838
         vertex -0.00484813 0.0437574 0.021872
      endloop
   endfacet
   facet normal -0.878607 -0.181213 -0.441827
      outer loop
         vertex -0.00469042 0.0435988 0.021599
         vertex -0.00484935 0.0436462 0.0218957
         vertex -0.0048518 0.0437018 0.0218838
      endloop
   endfacet
   facet normal -0.864379 -0.272959 -0.422306
      outer loop
         vertex -0.00468445 0.0435603 0.0216072
         vertex -0.00484081 0.0435911 0.0219074
         vertex -0.00484935 0.0436462 0.0218957
      endloop
   endfacet
   facet normal -0.840166 -0.36268 -0.403217
      outer loop
         vertex -0.00467429 0.0435227 0.0216152
         vertex -0.00482627 0.0435372 0.0219189
         vertex -0.00484081 0.0435911 0.0219074
      endloop
   endfacet
   facet normal -0.806249 -0.449342 -0.384778
      outer loop
         vertex -0.00466006 0.0434864 0.021623
         vertex -0.00480591 0.0434852 0.0219299
         vertex -0.00482627 0.0435372 0.0219189
      endloop
   endfacet
   facet normal -0.763019 -0.531944 -0.367203
      outer loop
         vertex -0.00464193 0.0434517 0.0216303
         vertex -0.00477996 0.0434356 0.0219405
         vertex -0.00480591 0.0434852 0.0219299
      endloop
   endfacet
   facet normal -0.710975 -0.60953 -0.350695
      outer loop
         vertex -0.0046201 0.0434192 0.0216373
         vertex -0.00474871 0.043389 0.0219504
         vertex -0.00477996 0.0434356 0.0219405
      endloop
   endfacet
   facet normal -0.694424 -0.630829 -0.346164
      outer loop
         vertex -0.00461329 0.0434101 0.0216392
         vertex -0.00473995 0.0433776 0.0219529
         vertex -0.00474871 0.043389 0.0219504
      endloop
   endfacet
   facet normal -0.700636 -0.62325 -0.347374
      outer loop
         vertex -0.00461329 0.0434101 0.0216392
         vertex -0.0041649 0.0428383 0.0217608
         vertex -0.00429149 0.0428058 0.0220745
      endloop
   endfacet
   facet normal -0.700636 -0.62325 -0.347374
      outer loop
         vertex -0.00429149 0.0428058 0.0220745
         vertex -0.00473995 0.0433776 0.0219529
         vertex -0.00461329 0.0434101 0.0216392
      endloop
   endfacet
   facet normal 0.462683 -0.833232 -0.302737
      outer loop
         vertex -0.00367472 0.0427462 0.0217804
         vertex -0.00359311 0.0426745 0.0221025
         vertex -0.00359995 0.0426707 0.0221032
      endloop
   endfacet
   facet normal 0.367397 -0.882988 -0.29215
      outer loop
         vertex -0.00364831 0.0426461 0.0221085
         vertex -0.00371469 0.0427255 0.0217848
         vertex -0.00368092 0.0427428 0.0217812
      endloop
   endfacet
   facet normal 0.282757 -0.915822 -0.285164
      outer loop
         vertex -0.00369901 0.0426264 0.0221126
         vertex -0.0037501 0.0427118 0.0217878
         vertex -0.00371469 0.0427255 0.0217848
      endloop
   endfacet
   facet normal 0.19511 -0.939955 -0.28003
      outer loop
         vertex -0.00375151 0.042612 0.0221157
         vertex -0.00378676 0.0427017 0.0217899
         vertex -0.0037501 0.0427118 0.0217878
      endloop
   endfacet
   facet normal 0.105388 -0.955131 -0.276801
      outer loop
         vertex -0.00380525 0.0426029 0.0221177
         vertex -0.00382429 0.0426954 0.0217913
         vertex -0.00378676 0.0427017 0.0217899
      endloop
   endfacet
   facet normal 0.0145453 -0.961188 -0.275512
      outer loop
         vertex -0.00385966 0.0425992 0.0221184
         vertex -0.00386229 0.0426928 0.0217918
         vertex -0.00382429 0.0426954 0.0217913
      endloop
   endfacet
   facet normal -0.0764521 -0.958061 -0.276177
      outer loop
         vertex -0.00391417 0.0426011 0.022118
         vertex -0.00390036 0.0426941 0.0217915
         vertex -0.00386229 0.0426928 0.0217918
      endloop
   endfacet
   facet normal -0.166637 -0.945785 -0.278789
      outer loop
         vertex -0.00396819 0.0426085 0.0221165
         vertex -0.00393808 0.0426993 0.0217904
         vertex -0.00390036 0.0426941 0.0217915
      endloop
   endfacet
   facet normal -0.255049 -0.924489 -0.28332
      outer loop
         vertex -0.00402115 0.0426212 0.0221137
         vertex -0.00397506 0.0427082 0.0217885
         vertex -0.00393808 0.0426993 0.0217904
      endloop
   endfacet
   facet normal -0.340748 -0.8944 -0.289722
      outer loop
         vertex -0.00407248 0.0426392 0.0221099
         vertex -0.00401091 0.0427208 0.0217859
         vertex -0.00397506 0.0427082 0.0217885
      endloop
   endfacet
   facet normal -0.422824 -0.855838 -0.297927
      outer loop
         vertex -0.00412164 0.0426623 0.022105
         vertex -0.00404524 0.0427369 0.0217824
         vertex -0.00401091 0.0427208 0.0217859
      endloop
   endfacet
   facet normal -0.500403 -0.809214 -0.307847
      outer loop
         vertex -0.00416811 0.0426903 0.0220991
         vertex -0.0040777 0.0427564 0.0217783
         vertex -0.00404524 0.0427369 0.0217824
      endloop
   endfacet
   facet normal -0.57266 -0.755022 -0.319377
      outer loop
         vertex -0.00421139 0.0427227 0.0220922
         vertex -0.00410792 0.0427791 0.0217734
         vertex -0.0040777 0.0427564 0.0217783
      endloop
   endfacet
   facet normal -0.638827 -0.69384 -0.332395
      outer loop
         vertex -0.00425102 0.0427594 0.0220844
         vertex -0.0041356 0.0428047 0.021768
         vertex -0.00410792 0.0427791 0.0217734
      endloop
   endfacet
   facet normal -0.6982 -0.626318 -0.346761
      outer loop
         vertex -0.00428659 0.0427998 0.0220757
         vertex -0.00416044 0.0428329 0.021762
         vertex -0.0041356 0.0428047 0.021768
      endloop
   endfacet
   facet normal -0.6982 -0.626318 -0.346761
      outer loop
         vertex -0.00428659 0.0427998 0.0220757
         vertex -0.00429149 0.0428058 0.0220745
         vertex -0.0041649 0.0428383 0.0217608
      endloop
   endfacet
   facet normal -0.708468 -0.613081 -0.349577
      outer loop
         vertex -0.0041649 0.0428383 0.0217608
         vertex -0.00416044 0.0428329 0.021762
         vertex -0.00428659 0.0427998 0.0220757
      endloop
   endfacet
   facet normal -0.638827 -0.69384 -0.332395
      outer loop
         vertex -0.0041356 0.0428047 0.021768
         vertex -0.00425102 0.0427594 0.0220844
         vertex -0.00428659 0.0427998 0.0220757
      endloop
   endfacet
   facet normal -0.57266 -0.755022 -0.319377
      outer loop
         vertex -0.00410792 0.0427791 0.0217734
         vertex -0.00421139 0.0427227 0.0220922
         vertex -0.00425102 0.0427594 0.0220844
      endloop
   endfacet
   facet normal -0.500403 -0.809214 -0.307847
      outer loop
         vertex -0.0040777 0.0427564 0.0217783
         vertex -0.00416811 0.0426903 0.0220991
         vertex -0.00421139 0.0427227 0.0220922
      endloop
   endfacet
   facet normal -0.422824 -0.855838 -0.297927
      outer loop
         vertex -0.00404524 0.0427369 0.0217824
         vertex -0.00412164 0.0426623 0.022105
         vertex -0.00416811 0.0426903 0.0220991
      endloop
   endfacet
   facet normal -0.340748 -0.8944 -0.289722
      outer loop
         vertex -0.00401091 0.0427208 0.0217859
         vertex -0.00407248 0.0426392 0.0221099
         vertex -0.00412164 0.0426623 0.022105
      endloop
   endfacet
   facet normal -0.255049 -0.924489 -0.28332
      outer loop
         vertex -0.00397506 0.0427082 0.0217885
         vertex -0.00402115 0.0426212 0.0221137
         vertex -0.00407248 0.0426392 0.0221099
      endloop
   endfacet
   facet normal -0.166637 -0.945785 -0.278789
      outer loop
         vertex -0.00393808 0.0426993 0.0217904
         vertex -0.00396819 0.0426085 0.0221165
         vertex -0.00402115 0.0426212 0.0221137
      endloop
   endfacet
   facet normal -0.0764521 -0.958061 -0.276177
      outer loop
         vertex -0.00390036 0.0426941 0.0217915
         vertex -0.00391417 0.0426011 0.022118
         vertex -0.00396819 0.0426085 0.0221165
      endloop
   endfacet
   facet normal 0.0145453 -0.961188 -0.275512
      outer loop
         vertex -0.00386229 0.0426928 0.0217918
         vertex -0.00385966 0.0425992 0.0221184
         vertex -0.00391417 0.0426011 0.022118
      endloop
   endfacet
   facet normal 0.105388 -0.955131 -0.276801
      outer loop
         vertex -0.00382429 0.0426954 0.0217913
         vertex -0.00380525 0.0426029 0.0221177
         vertex -0.00385966 0.0425992 0.0221184
      endloop
   endfacet
   facet normal 0.19511 -0.939955 -0.28003
      outer loop
         vertex -0.00378676 0.0427017 0.0217899
         vertex -0.00375151 0.042612 0.0221157
         vertex -0.00380525 0.0426029 0.0221177
      endloop
   endfacet
   facet normal 0.282757 -0.915822 -0.285164
      outer loop
         vertex -0.0037501 0.0427118 0.0217878
         vertex -0.00369901 0.0426264 0.0221126
         vertex -0.00375151 0.042612 0.0221157
      endloop
   endfacet
   facet normal 0.367397 -0.882988 -0.29215
      outer loop
         vertex -0.00371469 0.0427255 0.0217848
         vertex -0.00364831 0.0426461 0.0221085
         vertex -0.00369901 0.0426264 0.0221126
      endloop
   endfacet
   facet normal 0.448129 -0.841802 -0.300913
      outer loop
         vertex -0.00368092 0.0427428 0.0217812
         vertex -0.00359995 0.0426707 0.0221032
         vertex -0.00364831 0.0426461 0.0221085
      endloop
   endfacet
   facet normal 0.448129 -0.841802 -0.300913
      outer loop
         vertex -0.00359995 0.0426707 0.0221032
         vertex -0.00368092 0.0427428 0.0217812
         vertex -0.00367472 0.0427462 0.0217804
      endloop
   endfacet
   facet normal 0.45152 -0.839854 -0.301288
      outer loop
         vertex -0.00367472 0.0427462 0.0217804
         vertex -1.15976e-16 0.0448847 0.0213254
         vertex -1.16223e-16 0.0447656 0.0216575
      endloop
   endfacet
   facet normal 0.45152 -0.839854 -0.301288
      outer loop
         vertex -1.16223e-16 0.0447656 0.0216575
         vertex -0.00359311 0.0426745 0.0221025
         vertex -0.00367472 0.0427462 0.0217804
      endloop
   endfacet
   facet normal -0.45152 -0.839854 -0.301288
      outer loop
         vertex 0.00367471 0.0427462 0.0217805
         vertex 0.00359313 0.0426745 0.0221024
         vertex -1.16223e-16 0.0447656 0.0216575
      endloop
   endfacet
   facet normal -0.45152 -0.839854 -0.301288
      outer loop
         vertex -1.16223e-16 0.0447656 0.0216575
         vertex -1.15976e-16 0.0448847 0.0213254
         vertex 0.00367471 0.0427462 0.0217805
      endloop
   endfacet
   facet normal 0.70849 -0.613053 -0.349583
      outer loop
         vertex 0.0041649 0.0428383 0.0217608
         vertex 0.00429152 0.0428058 0.0220746
         vertex 0.00428658 0.0427998 0.0220757
      endloop
   endfacet
   facet normal 0.638852 -0.693814 -0.3324
      outer loop
         vertex 0.00425102 0.0427594 0.0220844
         vertex 0.00413559 0.0428047 0.021768
         vertex 0.00416042 0.0428329 0.021762
      endloop
   endfacet
   facet normal 0.572688 -0.754999 -0.319382
      outer loop
         vertex 0.00421139 0.0427227 0.0220921
         vertex 0.00410791 0.0427791 0.0217734
         vertex 0.00413559 0.0428047 0.021768
      endloop
   endfacet
   facet normal 0.500433 -0.809194 -0.307851
      outer loop
         vertex 0.00416811 0.0426903 0.0220991
         vertex 0.00407769 0.0427564 0.0217783
         vertex 0.00410791 0.0427791 0.0217734
      endloop
   endfacet
   facet normal 0.422856 -0.855821 -0.29793
      outer loop
         vertex 0.00412164 0.0426623 0.022105
         vertex 0.00404524 0.0427369 0.0217824
         vertex 0.00407769 0.0427564 0.0217783
      endloop
   endfacet
   facet normal 0.340782 -0.894386 -0.289725
      outer loop
         vertex 0.00407248 0.0426392 0.0221099
         vertex 0.00401091 0.0427208 0.0217859
         vertex 0.00404524 0.0427369 0.0217824
      endloop
   endfacet
   facet normal 0.255083 -0.924479 -0.283323
      outer loop
         vertex 0.00402115 0.0426212 0.0221137
         vertex 0.00397506 0.0427082 0.0217885
         vertex 0.00401091 0.0427208 0.0217859
      endloop
   endfacet
   facet normal 0.166672 -0.945778 -0.278791
      outer loop
         vertex 0.00396819 0.0426085 0.0221165
         vertex 0.00393807 0.0426993 0.0217904
         vertex 0.00397506 0.0427082 0.0217885
      endloop
   endfacet
   facet normal 0.0764883 -0.958058 -0.276178
      outer loop
         vertex 0.00391417 0.0426011 0.022118
         vertex 0.00390035 0.0426941 0.0217915
         vertex 0.00393807 0.0426993 0.0217904
      endloop
   endfacet
   facet normal -0.0145091 -0.961188 -0.275512
      outer loop
         vertex 0.00385966 0.0425992 0.0221184
         vertex 0.00386229 0.0426928 0.0217918
         vertex 0.00390035 0.0426941 0.0217915
      endloop
   endfacet
   facet normal -0.105352 -0.955135 -0.2768
      outer loop
         vertex 0.00380525 0.0426029 0.0221177
         vertex 0.00382429 0.0426953 0.0217913
         vertex 0.00386229 0.0426928 0.0217918
      endloop
   endfacet
   facet normal -0.195075 -0.939963 -0.280028
      outer loop
         vertex 0.00375151 0.0426119 0.0221157
         vertex 0.00378675 0.0427017 0.0217899
         vertex 0.00382429 0.0426953 0.0217913
      endloop
   endfacet
   facet normal -0.282723 -0.915833 -0.285162
      outer loop
         vertex 0.00369901 0.0426264 0.0221126
         vertex 0.00375009 0.0427118 0.0217878
         vertex 0.00378675 0.0427017 0.0217899
      endloop
   endfacet
   facet normal -0.367364 -0.883003 -0.292147
      outer loop
         vertex 0.00364831 0.0426461 0.0221085
         vertex 0.00371468 0.0427255 0.0217848
         vertex 0.00375009 0.0427118 0.0217878
      endloop
   endfacet
   facet normal -0.448098 -0.84182 -0.300909
      outer loop
         vertex 0.00359995 0.0426707 0.0221032
         vertex 0.00368091 0.0427427 0.0217812
         vertex 0.00371468 0.0427255 0.0217848
      endloop
   endfacet
   facet normal -0.448098 -0.84182 -0.300909
      outer loop
         vertex 0.00359995 0.0426707 0.0221032
         vertex 0.00359313 0.0426745 0.0221024
         vertex 0.00367471 0.0427462 0.0217805
      endloop
   endfacet
   facet normal -0.462652 -0.83325 -0.302733
      outer loop
         vertex 0.00367471 0.0427462 0.0217805
         vertex 0.00368091 0.0427427 0.0217812
         vertex 0.00359995 0.0426707 0.0221032
      endloop
   endfacet
   facet normal -0.367364 -0.883003 -0.292147
      outer loop
         vertex 0.00371468 0.0427255 0.0217848
         vertex 0.00364831 0.0426461 0.0221085
         vertex 0.00359995 0.0426707 0.0221032
      endloop
   endfacet
   facet normal -0.282723 -0.915833 -0.285162
      outer loop
         vertex 0.00375009 0.0427118 0.0217878
         vertex 0.00369901 0.0426264 0.0221126
         vertex 0.00364831 0.0426461 0.0221085
      endloop
   endfacet
   facet normal -0.195075 -0.939963 -0.280028
      outer loop
         vertex 0.00378675 0.0427017 0.0217899
         vertex 0.00375151 0.0426119 0.0221157
         vertex 0.00369901 0.0426264 0.0221126
      endloop
   endfacet
   facet normal -0.105352 -0.955135 -0.2768
      outer loop
         vertex 0.00382429 0.0426953 0.0217913
         vertex 0.00380525 0.0426029 0.0221177
         vertex 0.00375151 0.0426119 0.0221157
      endloop
   endfacet
   facet normal -0.0145091 -0.961188 -0.275512
      outer loop
         vertex 0.00386229 0.0426928 0.0217918
         vertex 0.00385966 0.0425992 0.0221184
         vertex 0.00380525 0.0426029 0.0221177
      endloop
   endfacet
   facet normal 0.0764883 -0.958058 -0.276178
      outer loop
         vertex 0.00390035 0.0426941 0.0217915
         vertex 0.00391417 0.0426011 0.022118
         vertex 0.00385966 0.0425992 0.0221184
      endloop
   endfacet
   facet normal 0.166672 -0.945778 -0.278791
      outer loop
         vertex 0.00393807 0.0426993 0.0217904
         vertex 0.00396819 0.0426085 0.0221165
         vertex 0.00391417 0.0426011 0.022118
      endloop
   endfacet
   facet normal 0.255083 -0.924479 -0.283323
      outer loop
         vertex 0.00397506 0.0427082 0.0217885
         vertex 0.00402115 0.0426212 0.0221137
         vertex 0.00396819 0.0426085 0.0221165
      endloop
   endfacet
   facet normal 0.340782 -0.894386 -0.289725
      outer loop
         vertex 0.00401091 0.0427208 0.0217859
         vertex 0.00407248 0.0426392 0.0221099
         vertex 0.00402115 0.0426212 0.0221137
      endloop
   endfacet
   facet normal 0.422856 -0.855821 -0.29793
      outer loop
         vertex 0.00404524 0.0427369 0.0217824
         vertex 0.00412164 0.0426623 0.022105
         vertex 0.00407248 0.0426392 0.0221099
      endloop
   endfacet
   facet normal 0.500433 -0.809194 -0.307851
      outer loop
         vertex 0.00407769 0.0427564 0.0217783
         vertex 0.00416811 0.0426903 0.0220991
         vertex 0.00412164 0.0426623 0.022105
      endloop
   endfacet
   facet normal 0.572688 -0.754999 -0.319382
      outer loop
         vertex 0.00410791 0.0427791 0.0217734
         vertex 0.00421139 0.0427227 0.0220921
         vertex 0.00416811 0.0426903 0.0220991
      endloop
   endfacet
   facet normal 0.638852 -0.693814 -0.3324
      outer loop
         vertex 0.00413559 0.0428047 0.021768
         vertex 0.00425102 0.0427594 0.0220844
         vertex 0.00421139 0.0427227 0.0220921
      endloop
   endfacet
   facet normal 0.698222 -0.62629 -0.346767
      outer loop
         vertex 0.00416042 0.0428329 0.021762
         vertex 0.00428658 0.0427998 0.0220757
         vertex 0.00425102 0.0427594 0.0220844
      endloop
   endfacet
   facet normal 0.698222 -0.62629 -0.346767
      outer loop
         vertex 0.00428658 0.0427998 0.0220757
         vertex 0.00416042 0.0428329 0.021762
         vertex 0.0041649 0.0428383 0.0217608
      endloop
   endfacet
   facet normal 0.700636 -0.62325 -0.347374
      outer loop
         vertex 0.0041649 0.0428383 0.0217608
         vertex 0.0046133 0.0434101 0.0216392
         vertex 0.00473994 0.0433776 0.0219528
      endloop
   endfacet
   facet normal 0.700636 -0.62325 -0.347374
      outer loop
         vertex 0.00473994 0.0433776 0.0219528
         vertex 0.00429152 0.0428058 0.0220746
         vertex 0.0041649 0.0428383 0.0217608
      endloop
   endfacet
   facet normal 1.21831e-13 0.208108 0.978106
      outer loop
         vertex -0.00425102 0.0427594 0.0220844
         vertex -0.00402115 0.0426212 0.0221137
         vertex -0.00396819 0.0426085 0.0221165
      endloop
   endfacet
   facet normal 1.21831e-13 0.208108 0.978106
      outer loop
         vertex -0.00425102 0.0427594 0.0220844
         vertex -0.00421139 0.0427227 0.0220922
         vertex -0.00416811 0.0426903 0.0220991
      endloop
   endfacet
   facet normal 1.21831e-13 0.208108 0.978106
      outer loop
         vertex 0.00480592 0.0434852 0.0219299
         vertex 0.00484081 0.0435911 0.0219074
         vertex 0.00484936 0.0436462 0.0218957
      endloop
   endfacet
   facet normal 1.21831e-13 0.208108 0.978106
      outer loop
         vertex -0.00425102 0.0427594 0.0220844
         vertex -0.00407248 0.0426392 0.0221099
         vertex -0.00402115 0.0426212 0.0221137
      endloop
   endfacet
   facet normal 1.21831e-13 0.208108 0.978106
      outer loop
         vertex -0.00416811 0.0426903 0.0220991
         vertex -0.00412164 0.0426623 0.022105
         vertex -0.00425102 0.0427594 0.0220844
      endloop
   endfacet
   facet normal 1.21831e-13 0.208108 0.978106
      outer loop
         vertex 0.000967427 0.0519468 0.0201296
         vertex 0.00117209 0.0518518 0.0201498
         vertex 0.00112517 0.0518835 0.020143
      endloop
   endfacet
   facet normal 1.21831e-13 0.208108 0.978106
      outer loop
         vertex 0.00480592 0.0434852 0.0219299
         vertex 0.0048518 0.0437018 0.0218838
         vertex 0.00484813 0.0437574 0.021872
      endloop
   endfacet
   facet normal 1.21831e-13 0.208108 0.978106
      outer loop
         vertex 0.00480592 0.0434852 0.0219299
         vertex 0.00482628 0.0435372 0.0219189
         vertex 0.00484081 0.0435911 0.0219074
      endloop
   endfacet
   facet normal 1.21831e-13 0.208108 0.978106
      outer loop
         vertex 0.00359995 0.0426707 0.0221032
         vertex 0.00396819 0.0426085 0.0221165
         vertex 0.00402115 0.0426212 0.0221137
      endloop
   endfacet
   facet normal 1.21831e-13 0.208108 0.978106
      outer loop
         vertex 0.00375151 0.0426119 0.0221157
         vertex 0.00380525 0.0426029 0.0221177
         vertex 0.00385966 0.0425992 0.0221184
      endloop
   endfacet
   facet normal 1.21831e-13 0.208108 0.978106
      outer loop
         vertex 0.00391417 0.0426011 0.022118
         vertex 0.00364831 0.0426461 0.0221085
         vertex 0.00369901 0.0426264 0.0221126
      endloop
   endfacet
   facet normal 1.21831e-13 0.208108 0.978106
      outer loop
         vertex -0.00428659 0.0427998 0.0220757
         vertex -0.00391417 0.0426011 0.022118
         vertex -0.00385966 0.0425992 0.0221184
      endloop
   endfacet
   facet normal 1.21831e-13 0.208108 0.978106
      outer loop
         vertex -0.00412164 0.0426623 0.022105
         vertex -0.00407248 0.0426392 0.0221099
         vertex -0.00425102 0.0427594 0.0220844
      endloop
   endfacet
   facet normal 1.21831e-13 0.208108 0.978106
      outer loop
         vertex -0.00483838 0.0438123 0.0218603
         vertex -0.00484935 0.0436462 0.0218957
         vertex -0.00484081 0.0435911 0.0219074
      endloop
   endfacet
   facet normal 1.21831e-13 0.208108 0.978106
      outer loop
         vertex -0.00483838 0.0438123 0.0218603
         vertex -0.00484813 0.0437574 0.021872
         vertex -0.0048518 0.0437018 0.0218838
      endloop
   endfacet
   facet normal 1.21831e-13 0.208108 0.978106
      outer loop
         vertex -0.00480591 0.0434852 0.0219299
         vertex -0.00477412 0.0439665 0.0218275
         vertex -0.00480116 0.0439174 0.021838
      endloop
   endfacet
   facet normal 1.21831e-13 0.208108 0.978106
      outer loop
         vertex 0.00117209 0.0518518 0.0201498
         vertex 0.000967427 0.0519468 0.0201296
         vertex 0.000911228 0.0519565 0.0201275
      endloop
   endfacet
   facet normal 1.21831e-13 0.208108 0.978106
      outer loop
         vertex 0.00112517 0.0518835 0.020143
         vertex 0.00107502 0.0519101 0.0201374
         vertex 0.000967427 0.0519468 0.0201296
      endloop
   endfacet
   facet normal 1.21831e-13 0.208108 0.978106
      outer loop
         vertex 0.000854294 0.0519601 0.0201267
         vertex 0.00131735 0.0516817 0.020186
         vertex 0.0012883 0.0517297 0.0201758
      endloop
   endfacet
   facet normal 1.21831e-13 0.208108 0.978106
      outer loop
         vertex 0.000854294 0.0519601 0.0201267
         vertex 0.00135879 0.0515779 0.0202081
         vertex 0.00134094 0.0516309 0.0201968
      endloop
   endfacet
   facet normal 1.21831e-13 0.208108 0.978106
      outer loop
         vertex 0.00480592 0.0434852 0.0219299
         vertex 0.00483838 0.0438123 0.0218603
         vertex 0.00482266 0.0438659 0.0218489
      endloop
   endfacet
   facet normal 1.21831e-13 0.208108 0.978106
      outer loop
         vertex 0.00484936 0.0436462 0.0218957
         vertex 0.0048518 0.0437018 0.0218838
         vertex 0.00480592 0.0434852 0.0219299
      endloop
   endfacet
   facet normal 1.21831e-13 0.208108 0.978106
      outer loop
         vertex 0.00359995 0.0426707 0.0221032
         vertex 0.00407248 0.0426392 0.0221099
         vertex 0.00412164 0.0426623 0.022105
      endloop
   endfacet
   facet normal 1.21831e-13 0.208108 0.978106
      outer loop
         vertex 0.00359995 0.0426707 0.0221032
         vertex 0.00391417 0.0426011 0.022118
         vertex 0.00396819 0.0426085 0.0221165
      endloop
   endfacet
   facet normal 1.21831e-13 0.208108 0.978106
      outer loop
         vertex 0.00369901 0.0426264 0.0221126
         vertex 0.00375151 0.0426119 0.0221157
         vertex 0.00391417 0.0426011 0.022118
      endloop
   endfacet
   facet normal 1.21831e-13 0.208108 0.978106
      outer loop
         vertex -0.00428659 0.0427998 0.0220757
         vertex -0.00375151 0.042612 0.0221157
         vertex -0.00369901 0.0426264 0.0221126
      endloop
   endfacet
   facet normal 1.21831e-13 0.208108 0.978106
      outer loop
         vertex -0.00385966 0.0425992 0.0221184
         vertex -0.00380525 0.0426029 0.0221177
         vertex -0.00428659 0.0427998 0.0220757
      endloop
   endfacet
   facet normal 1.21831e-13 0.208108 0.978106
      outer loop
         vertex -0.00391417 0.0426011 0.022118
         vertex -0.00428659 0.0427998 0.0220757
         vertex -0.00425102 0.0427594 0.0220844
      endloop
   endfacet
   facet normal 1.21831e-13 0.208108 0.978106
      outer loop
         vertex -0.0048518 0.0437018 0.0218838
         vertex -0.00484935 0.0436462 0.0218957
         vertex -0.00483838 0.0438123 0.0218603
      endloop
   endfacet
   facet normal 1.21831e-13 0.208108 0.978106
      outer loop
         vertex -0.00480116 0.0439174 0.021838
         vertex -0.00482266 0.0438659 0.0218489
         vertex -0.00480591 0.0434852 0.0219299
      endloop
   endfacet
   facet normal 1.21831e-13 0.208108 0.978106
      outer loop
         vertex 0.00107502 0.0519101 0.0201374
         vertex 0.00102224 0.0519313 0.0201329
         vertex 0.000967427 0.0519468 0.0201296
      endloop
   endfacet
   facet normal 1.21831e-13 0.208108 0.978106
      outer loop
         vertex 0.000854294 0.0519601 0.0201267
         vertex 0.00125414 0.0517744 0.0201663
         vertex 0.00121525 0.0518152 0.0201576
      endloop
   endfacet
   facet normal 1.21831e-13 0.208108 0.978106
      outer loop
         vertex 0.00134094 0.0516309 0.0201968
         vertex 0.00131735 0.0516817 0.020186
         vertex 0.000854294 0.0519601 0.0201267
      endloop
   endfacet
   facet normal 1.21831e-13 0.208108 0.978106
      outer loop
         vertex 0.00484813 0.0437574 0.021872
         vertex 0.00483838 0.0438123 0.0218603
         vertex 0.00480592 0.0434852 0.0219299
      endloop
   endfacet
   facet normal 1.21831e-13 0.208108 0.978106
      outer loop
         vertex 0.00480116 0.0439174 0.021838
         vertex 0.00474872 0.043389 0.0219504
         vertex 0.00477997 0.0434356 0.0219405
      endloop
   endfacet
   facet normal 1.21831e-13 0.208108 0.978106
      outer loop
         vertex 0.00359995 0.0426707 0.0221032
         vertex 0.00421139 0.0427227 0.0220921
         vertex 0.00425102 0.0427594 0.0220844
      endloop
   endfacet
   facet normal 1.21831e-13 0.208108 0.978106
      outer loop
         vertex 0.00402115 0.0426212 0.0221137
         vertex 0.00407248 0.0426392 0.0221099
         vertex 0.00359995 0.0426707 0.0221032
      endloop
   endfacet
   facet normal 1.21831e-13 0.208108 0.978106
      outer loop
         vertex 0.00391417 0.0426011 0.022118
         vertex 0.00359995 0.0426707 0.0221032
         vertex 0.00364831 0.0426461 0.0221085
      endloop
   endfacet
   facet normal 1.21831e-13 0.208108 0.978106
      outer loop
         vertex -0.00369901 0.0426264 0.0221126
         vertex -0.00364831 0.0426461 0.0221085
         vertex -0.00428659 0.0427998 0.0220757
      endloop
   endfacet
   facet normal 1.21831e-13 0.208108 0.978106
      outer loop
         vertex -0.00396819 0.0426085 0.0221165
         vertex -0.00391417 0.0426011 0.022118
         vertex -0.00425102 0.0427594 0.0220844
      endloop
   endfacet
   facet normal 1.21831e-13 0.208108 0.978106
      outer loop
         vertex -0.00484081 0.0435911 0.0219074
         vertex -0.00482627 0.0435372 0.0219189
         vertex -0.00483838 0.0438123 0.0218603
      endloop
   endfacet
   facet normal 1.21831e-13 0.208108 0.978106
      outer loop
         vertex -0.00480591 0.0434852 0.0219299
         vertex -0.00474186 0.0440124 0.0218178
         vertex -0.00477412 0.0439665 0.0218275
      endloop
   endfacet
   facet normal 1.21831e-13 0.208108 0.978106
      outer loop
         vertex -0.000854299 0.0519602 0.0201267
         vertex -0.00134093 0.0516309 0.0201968
         vertex -0.00135879 0.0515778 0.0202081
      endloop
   endfacet
   facet normal 1.21831e-13 0.208108 0.978106
      outer loop
         vertex -0.000854299 0.0519602 0.0201267
         vertex -0.00125413 0.0517744 0.0201663
         vertex -0.0012883 0.0517297 0.0201758
      endloop
   endfacet
   facet normal 1.21831e-13 0.208108 0.978106
      outer loop
         vertex -0.000854299 0.0519602 0.0201267
         vertex -0.00107503 0.0519101 0.0201374
         vertex -0.00112517 0.0518835 0.020143
      endloop
   endfacet
   facet normal 1.21831e-13 0.208108 0.978106
      outer loop
         vertex -0.00107503 0.0519101 0.0201374
         vertex -0.000911233 0.0519565 0.0201275
         vertex -0.000967432 0.0519468 0.0201296
      endloop
   endfacet
   facet normal 1.21831e-13 0.208108 0.978106
      outer loop
         vertex 0.00121525 0.0518152 0.0201576
         vertex 0.00117209 0.0518518 0.0201498
         vertex 0.000854294 0.0519601 0.0201267
      endloop
   endfacet
   facet normal 1.21831e-13 0.208108 0.978106
      outer loop
         vertex 0.000854294 0.0519601 0.0201267
         vertex 0.00137071 0.0515233 0.0202197
         vertex 0.00135879 0.0515779 0.0202081
      endloop
   endfacet
   facet normal 1.21831e-13 0.208108 0.978106
      outer loop
         vertex 0.00474872 0.043389 0.0219504
         vertex 0.00480116 0.0439174 0.021838
         vertex 0.00477412 0.0439665 0.0218275
      endloop
   endfacet
   facet normal 1.21831e-13 0.208108 0.978106
      outer loop
         vertex 0.00477997 0.0434356 0.0219405
         vertex 0.00480592 0.0434852 0.0219299
         vertex 0.00480116 0.0439174 0.021838
      endloop
   endfacet
   facet normal 1.21831e-13 0.208108 0.978106
      outer loop
         vertex 0.00359995 0.0426707 0.0221032
         vertex 0.00416811 0.0426903 0.0220991
         vertex 0.00421139 0.0427227 0.0220921
      endloop
   endfacet
   facet normal 1.21831e-13 0.208108 0.978106
      outer loop
         vertex 0.00385966 0.0425992 0.0221184
         vertex 0.00391417 0.0426011 0.022118
         vertex 0.00375151 0.0426119 0.0221157
      endloop
   endfacet
   facet normal 1.21831e-13 0.208108 0.978106
      outer loop
         vertex -0.00380525 0.0426029 0.0221177
         vertex -0.00375151 0.042612 0.0221157
         vertex -0.00428659 0.0427998 0.0220757
      endloop
   endfacet
   facet normal 1.21831e-13 0.208108 0.978106
      outer loop
         vertex -0.00474186 0.0440124 0.0218178
         vertex -0.00480591 0.0434852 0.0219299
         vertex -0.00477996 0.0434356 0.0219405
      endloop
   endfacet
   facet normal 1.21831e-13 0.208108 0.978106
      outer loop
         vertex -0.00482266 0.0438659 0.0218489
         vertex -0.00483838 0.0438123 0.0218603
         vertex -0.00480591 0.0434852 0.0219299
      endloop
   endfacet
   facet normal 1.21831e-13 0.208108 0.978106
      outer loop
         vertex -0.000854299 0.0519602 0.0201267
         vertex -0.00131734 0.0516817 0.020186
         vertex -0.00134093 0.0516309 0.0201968
      endloop
   endfacet
   facet normal 1.21831e-13 0.208108 0.978106
      outer loop
         vertex -0.000854299 0.0519602 0.0201267
         vertex -0.00121525 0.0518152 0.0201576
         vertex -0.00125413 0.0517744 0.0201663
      endloop
   endfacet
   facet normal 1.21831e-13 0.208108 0.978106
      outer loop
         vertex -0.00112517 0.0518835 0.020143
         vertex -0.00117209 0.0518518 0.0201498
         vertex -0.000854299 0.0519602 0.0201267
      endloop
   endfacet
   facet normal 1.21831e-13 0.208108 0.978106
      outer loop
         vertex -0.00107503 0.0519101 0.0201374
         vertex -0.000854299 0.0519602 0.0201267
         vertex -0.000911233 0.0519565 0.0201275
      endloop
   endfacet
   facet normal 1.21831e-13 0.208108 0.978106
      outer loop
         vertex 0.0012883 0.0517297 0.0201758
         vertex 0.00125414 0.0517744 0.0201663
         vertex 0.000854294 0.0519601 0.0201267
      endloop
   endfacet
   facet normal 1.21831e-13 0.208108 0.978106
      outer loop
         vertex 0.00482266 0.0438659 0.0218489
         vertex 0.00480116 0.0439174 0.021838
         vertex 0.00480592 0.0434852 0.0219299
      endloop
   endfacet
   facet normal 1.21831e-13 0.208108 0.978106
      outer loop
         vertex 0.00412164 0.0426623 0.022105
         vertex 0.00416811 0.0426903 0.0220991
         vertex 0.00359995 0.0426707 0.0221032
      endloop
   endfacet
   facet normal 1.21831e-13 0.208108 0.978106
      outer loop
         vertex -0.00359995 0.0426707 0.0221032
         vertex -0.00429149 0.0428058 0.0220745
         vertex -0.00428659 0.0427998 0.0220757
      endloop
   endfacet
   facet normal 1.21831e-13 0.208108 0.978106
      outer loop
         vertex -0.00482627 0.0435372 0.0219189
         vertex -0.00480591 0.0434852 0.0219299
         vertex -0.00483838 0.0438123 0.0218603
      endloop
   endfacet
   facet normal 1.21831e-13 0.208108 0.978106
      outer loop
         vertex -0.0012883 0.0517297 0.0201758
         vertex -0.00131734 0.0516817 0.020186
         vertex -0.000854299 0.0519602 0.0201267
      endloop
   endfacet
   facet normal 1.21831e-13 0.208108 0.978106
      outer loop
         vertex -0.000967432 0.0519468 0.0201296
         vertex -0.00102224 0.0519313 0.0201329
         vertex -0.00107503 0.0519101 0.0201374
      endloop
   endfacet
   facet normal 1.21831e-13 0.208108 0.978106
      outer loop
         vertex 0.000854294 0.0519601 0.0201267
         vertex 0.00137255 0.0515123 0.020222
         vertex 0.00137071 0.0515233 0.0202197
      endloop
   endfacet
   facet normal 1.21831e-13 0.208108 0.978106
      outer loop
         vertex 0.00474185 0.0440124 0.0218178
         vertex 0.00473994 0.0433776 0.0219528
         vertex 0.00474872 0.043389 0.0219504
      endloop
   endfacet
   facet normal 1.21831e-13 0.208108 0.978106
      outer loop
         vertex 0.00359313 0.0426745 0.0221024
         vertex 0.00428658 0.0427998 0.0220757
         vertex 0.00429152 0.0428058 0.0220746
      endloop
   endfacet
   facet normal 1.21831e-13 0.208108 0.978106
      outer loop
         vertex 0.00428658 0.0427998 0.0220757
         vertex 0.00359313 0.0426745 0.0221024
         vertex 0.00359995 0.0426707 0.0221032
      endloop
   endfacet
   facet normal 1.21831e-13 0.208108 0.978106
      outer loop
         vertex -0.00364831 0.0426461 0.0221085
         vertex -0.00359995 0.0426707 0.0221032
         vertex -0.00428659 0.0427998 0.0220757
      endloop
   endfacet
   facet normal 1.21831e-13 0.208108 0.978106
      outer loop
         vertex -0.00359311 0.0426745 0.0221025
         vertex -0.00473283 0.0440237 0.0218154
         vertex -0.00473995 0.0433776 0.0219529
      endloop
   endfacet
   facet normal 1.21831e-13 0.208108 0.978106
      outer loop
         vertex -0.00474871 0.043389 0.0219504
         vertex -0.00473283 0.0440237 0.0218154
         vertex -0.00474186 0.0440124 0.0218178
      endloop
   endfacet
   facet normal 1.21831e-13 0.208108 0.978106
      outer loop
         vertex -0.00117209 0.0518518 0.0201498
         vertex -0.00121525 0.0518152 0.0201576
         vertex -0.000854299 0.0519602 0.0201267
      endloop
   endfacet
   facet normal 1.21831e-13 0.208108 0.978106
      outer loop
         vertex 0.000911228 0.0519565 0.0201275
         vertex 0.000854294 0.0519601 0.0201267
         vertex 0.00117209 0.0518518 0.0201498
      endloop
   endfacet
   facet normal 1.21831e-13 0.208108 0.978106
      outer loop
         vertex 0.00477412 0.0439665 0.0218275
         vertex 0.00474185 0.0440124 0.0218178
         vertex 0.00474872 0.043389 0.0219504
      endloop
   endfacet
   facet normal 1.21831e-13 0.208108 0.978106
      outer loop
         vertex 0.00425102 0.0427594 0.0220844
         vertex 0.00428658 0.0427998 0.0220757
         vertex 0.00359995 0.0426707 0.0221032
      endloop
   endfacet
   facet normal 1.21831e-13 0.208108 0.978106
      outer loop
         vertex 0.00198928 0.0473712 0.0211031
         vertex -1.16223e-16 0.0447656 0.0216575
         vertex 0.00359313 0.0426745 0.0221024
      endloop
   endfacet
   facet normal 1.21831e-13 0.208108 0.978106
      outer loop
         vertex -0.00473995 0.0433776 0.0219529
         vertex -0.00429149 0.0428058 0.0220745
         vertex -0.00359311 0.0426745 0.0221025
      endloop
   endfacet
   facet normal 1.21831e-13 0.208108 0.978106
      outer loop
         vertex -0.00477996 0.0434356 0.0219405
         vertex -0.00474871 0.043389 0.0219504
         vertex -0.00474186 0.0440124 0.0218178
      endloop
   endfacet
   facet normal 1.21831e-13 0.208108 0.978106
      outer loop
         vertex -0.0013707 0.0515233 0.0202197
         vertex -0.000842932 0.0519603 0.0201267
         vertex -0.000854299 0.0519602 0.0201267
      endloop
   endfacet
   facet normal 1.21831e-13 0.208108 0.978106
      outer loop
         vertex 0.000854294 0.0519601 0.0201267
         vertex 0.000842931 0.0519604 0.0201268
         vertex 0.00137255 0.0515123 0.020222
      endloop
   endfacet
   facet normal 1.21831e-13 0.208108 0.978106
      outer loop
         vertex -0.000842932 0.0519603 0.0201267
         vertex -1.16223e-16 0.0447656 0.0216575
         vertex 0.00198928 0.0473712 0.0211031
      endloop
   endfacet
   facet normal 1.21831e-13 0.208108 0.978106
      outer loop
         vertex 0.00474185 0.0440124 0.0218178
         vertex 0.00473284 0.0440237 0.0218154
         vertex 0.00473994 0.0433776 0.0219528
      endloop
   endfacet
   facet normal 1.21831e-13 0.208108 0.978106
      outer loop
         vertex 0.00359313 0.0426745 0.0221024
         vertex 0.00473994 0.0433776 0.0219528
         vertex 0.00198928 0.0473712 0.0211031
      endloop
   endfacet
   facet normal 1.21831e-13 0.208108 0.978106
      outer loop
         vertex -0.00474871 0.043389 0.0219504
         vertex -0.00473995 0.0433776 0.0219529
         vertex -0.00473283 0.0440237 0.0218154
      endloop
   endfacet
   facet normal 1.21831e-13 0.208108 0.978106
      outer loop
         vertex -1.16223e-16 0.0447656 0.0216575
         vertex -0.00198928 0.0473712 0.0211031
         vertex -0.00473283 0.0440237 0.0218154
      endloop
   endfacet
   facet normal 1.21831e-13 0.208108 0.978106
      outer loop
         vertex -1.16223e-16 0.0447656 0.0216575
         vertex -0.000842932 0.0519603 0.0201267
         vertex -0.00137258 0.0515123 0.0202221
      endloop
   endfacet
   facet normal 1.21831e-13 0.208108 0.978106
      outer loop
         vertex -0.00135879 0.0515778 0.0202081
         vertex -0.0013707 0.0515233 0.0202197
         vertex -0.000854299 0.0519602 0.0201267
      endloop
   endfacet
   facet normal 1.21831e-13 0.208108 0.978106
      outer loop
         vertex 0.00198928 0.0473712 0.0211031
         vertex 0.00137255 0.0515123 0.020222
         vertex -0.000842932 0.0519603 0.0201267
      endloop
   endfacet
   facet normal 1.21831e-13 0.208108 0.978106
      outer loop
         vertex 0.00429152 0.0428058 0.0220746
         vertex 0.00473994 0.0433776 0.0219528
         vertex 0.00359313 0.0426745 0.0221024
      endloop
   endfacet
   facet normal 1.21831e-13 0.208108 0.978106
      outer loop
         vertex -0.00473283 0.0440237 0.0218154
         vertex -0.00359311 0.0426745 0.0221025
         vertex -1.16223e-16 0.0447656 0.0216575
      endloop
   endfacet
   facet normal 1.21831e-13 0.208108 0.978106
      outer loop
         vertex -0.0013707 0.0515233 0.0202197
         vertex -0.00137258 0.0515123 0.0202221
         vertex -0.000842932 0.0519603 0.0201267
      endloop
   endfacet
   facet normal 1.21831e-13 0.208108 0.978106
      outer loop
         vertex 0.00473284 0.0440237 0.0218154
         vertex 0.00198928 0.0473712 0.0211031
         vertex 0.00473994 0.0433776 0.0219528
      endloop
   endfacet
   facet normal 1.21831e-13 0.208108 0.978106
      outer loop
         vertex -0.00137258 0.0515123 0.0202221
         vertex -0.00198928 0.0473712 0.0211031
         vertex -1.16223e-16 0.0447656 0.0216575
      endloop
   endfacet
   facet normal 1.21831e-13 0.208108 0.978106
      outer loop
         vertex -0.00359995 0.0426707 0.0221032
         vertex -0.00359311 0.0426745 0.0221025
         vertex -0.00429149 0.0428058 0.0220745
      endloop
   endfacet
   facet normal 1.21831e-13 0.208108 0.978106
      outer loop
         vertex 0.000842931 0.0519604 0.0201268
         vertex -0.000842932 0.0519603 0.0201267
         vertex 0.00137255 0.0515123 0.020222
      endloop
   endfacet
   facet normal -1.21831e-13 -0.208108 -0.978106
      outer loop
         vertex -0.00368092 0.0427428 0.0217812
         vertex -0.00390036 0.0426941 0.0217915
         vertex -0.00393808 0.0426993 0.0217904
      endloop
   endfacet
   facet normal -1.21831e-13 -0.208108 -0.978106
      outer loop
         vertex -0.00368092 0.0427428 0.0217812
         vertex -0.00386229 0.0426928 0.0217918
         vertex -0.00390036 0.0426941 0.0217915
      endloop
   endfacet
   facet normal -1.21831e-13 -0.208108 -0.978106
      outer loop
         vertex -0.00368092 0.0427428 0.0217812
         vertex -0.00378676 0.0427017 0.0217899
         vertex -0.00382429 0.0426954 0.0217913
      endloop
   endfacet
   facet normal -1.21831e-13 -0.208108 -0.978106
      outer loop
         vertex -0.00378676 0.0427017 0.0217899
         vertex -0.00368092 0.0427428 0.0217812
         vertex -0.00371469 0.0427255 0.0217848
      endloop
   endfacet
   facet normal -1.21831e-13 -0.208108 -0.978106
      outer loop
         vertex 0.00469213 0.0436377 0.0215908
         vertex 0.00465674 0.0437884 0.0215587
         vertex 0.00467176 0.0437523 0.0215664
      endloop
   endfacet
   facet normal -1.21831e-13 -0.208108 -0.978106
      outer loop
         vertex -0.00117585 0.0515472 0.0199079
         vertex -0.00107439 0.051666 0.0198826
         vertex -0.00104161 0.0516882 0.0198779
      endloop
   endfacet
   facet normal -1.21831e-13 -0.208108 -0.978106
      outer loop
         vertex -0.00467177 0.0437523 0.0215664
         vertex -0.00469042 0.0435988 0.021599
         vertex -0.00469213 0.0436377 0.0215908
      endloop
   endfacet
   facet normal -1.21831e-13 -0.208108 -0.978106
      outer loop
         vertex -0.00467177 0.0437523 0.0215664
         vertex -0.00466006 0.0434864 0.021623
         vertex -0.00467429 0.0435227 0.0216152
      endloop
   endfacet
   facet normal -1.21831e-13 -0.208108 -0.978106
      outer loop
         vertex -0.00368092 0.0427428 0.0217812
         vertex -0.00404524 0.0427369 0.0217824
         vertex -0.0040777 0.0427564 0.0217783
      endloop
   endfacet
   facet normal -1.21831e-13 -0.208108 -0.978106
      outer loop
         vertex -0.00393808 0.0426993 0.0217904
         vertex -0.00397506 0.0427082 0.0217885
         vertex -0.00368092 0.0427428 0.0217812
      endloop
   endfacet
   facet normal -1.21831e-13 -0.208108 -0.978106
      outer loop
         vertex -0.00371469 0.0427255 0.0217848
         vertex -0.0037501 0.0427118 0.0217878
         vertex -0.00378676 0.0427017 0.0217899
      endloop
   endfacet
   facet normal -1.21831e-13 -0.208108 -0.978106
      outer loop
         vertex 0.00416042 0.0428329 0.021762
         vertex 0.00375009 0.0427118 0.0217878
         vertex 0.00371468 0.0427255 0.0217848
      endloop
   endfacet
   facet normal -1.21831e-13 -0.208108 -0.978106
      outer loop
         vertex 0.00416042 0.0428329 0.021762
         vertex 0.00382429 0.0426953 0.0217913
         vertex 0.00378675 0.0427017 0.0217899
      endloop
   endfacet
   facet normal -1.21831e-13 -0.208108 -0.978106
      outer loop
         vertex 0.00416042 0.0428329 0.021762
         vertex 0.00401091 0.0427208 0.0217859
         vertex 0.00397506 0.0427082 0.0217885
      endloop
   endfacet
   facet normal -1.21831e-13 -0.208108 -0.978106
      outer loop
         vertex 0.00401091 0.0427208 0.0217859
         vertex 0.00410791 0.0427791 0.0217734
         vertex 0.00407769 0.0427564 0.0217783
      endloop
   endfacet
   facet normal -1.21831e-13 -0.208108 -0.978106
      outer loop
         vertex 0.00401091 0.0427208 0.0217859
         vertex 0.00416042 0.0428329 0.021762
         vertex 0.00413559 0.0428047 0.021768
      endloop
   endfacet
   facet normal -1.21831e-13 -0.208108 -0.978106
      outer loop
         vertex 0.00467176 0.0437523 0.0215664
         vertex 0.00468275 0.0437149 0.0215743
         vertex 0.00469213 0.0436377 0.0215908
      endloop
   endfacet
   facet normal -1.21831e-13 -0.208108 -0.978106
      outer loop
         vertex -0.00117585 0.0515472 0.0199079
         vertex -0.00110453 0.0516405 0.019888
         vertex -0.00107439 0.051666 0.0198826
      endloop
   endfacet
   facet normal -1.21831e-13 -0.208108 -0.978106
      outer loop
         vertex -0.00110453 0.0516405 0.019888
         vertex -0.00117585 0.0515472 0.0199079
         vertex -0.00115556 0.0515807 0.0199008
      endloop
   endfacet
   facet normal -1.21831e-13 -0.208108 -0.978106
      outer loop
         vertex -0.00100658 0.0517068 0.0198739
         vertex -0.0012048 0.0514746 0.0199233
         vertex -0.00119233 0.0515117 0.0199154
      endloop
   endfacet
   facet normal -1.21831e-13 -0.208108 -0.978106
      outer loop
         vertex -0.00466006 0.0434864 0.021623
         vertex -0.00465675 0.0437884 0.0215587
         vertex -0.00463785 0.0438226 0.0215514
      endloop
   endfacet
   facet normal -1.21831e-13 -0.208108 -0.978106
      outer loop
         vertex -0.00469213 0.0436377 0.0215908
         vertex -0.00468956 0.0436766 0.0215825
         vertex -0.00467177 0.0437523 0.0215664
      endloop
   endfacet
   facet normal -1.21831e-13 -0.208108 -0.978106
      outer loop
         vertex -0.00467429 0.0435227 0.0216152
         vertex -0.00468445 0.0435603 0.0216072
         vertex -0.00467177 0.0437523 0.0215664
      endloop
   endfacet
   facet normal -1.21831e-13 -0.208108 -0.978106
      outer loop
         vertex -0.00368092 0.0427428 0.0217812
         vertex -0.00401091 0.0427208 0.0217859
         vertex -0.00404524 0.0427369 0.0217824
      endloop
   endfacet
   facet normal -1.21831e-13 -0.208108 -0.978106
      outer loop
         vertex -0.00382429 0.0426954 0.0217913
         vertex -0.00386229 0.0426928 0.0217918
         vertex -0.00368092 0.0427428 0.0217812
      endloop
   endfacet
   facet normal -1.21831e-13 -0.208108 -0.978106
      outer loop
         vertex 0.00378675 0.0427017 0.0217899
         vertex 0.00375009 0.0427118 0.0217878
         vertex 0.00416042 0.0428329 0.021762
      endloop
   endfacet
   facet normal -1.21831e-13 -0.208108 -0.978106
      outer loop
         vertex 0.00416042 0.0428329 0.021762
         vertex 0.00390035 0.0426941 0.0217915
         vertex 0.00386229 0.0426928 0.0217918
      endloop
   endfacet
   facet normal -1.21831e-13 -0.208108 -0.978106
      outer loop
         vertex 0.00397506 0.0427082 0.0217885
         vertex 0.00393807 0.0426993 0.0217904
         vertex 0.00416042 0.0428329 0.021762
      endloop
   endfacet
   facet normal -1.21831e-13 -0.208108 -0.978106
      outer loop
         vertex 0.00413559 0.0428047 0.021768
         vertex 0.00410791 0.0427791 0.0217734
         vertex 0.00401091 0.0427208 0.0217859
      endloop
   endfacet
   facet normal -1.21831e-13 -0.208108 -0.978106
      outer loop
         vertex 0.00465674 0.0437884 0.0215587
         vertex 0.00466007 0.0434864 0.021623
         vertex 0.00464194 0.0434517 0.0216303
      endloop
   endfacet
   facet normal -1.21831e-13 -0.208108 -0.978106
      outer loop
         vertex 0.00465674 0.0437884 0.0215587
         vertex 0.00469042 0.0435988 0.021599
         vertex 0.00468445 0.0435603 0.0216072
      endloop
   endfacet
   facet normal -1.21831e-13 -0.208108 -0.978106
      outer loop
         vertex 0.00468275 0.0437149 0.0215743
         vertex 0.00468956 0.0436766 0.0215825
         vertex 0.00469213 0.0436377 0.0215908
      endloop
   endfacet
   facet normal -1.21831e-13 -0.208108 -0.978106
      outer loop
         vertex 0.00100659 0.0517068 0.0198739
         vertex 0.00119233 0.0515117 0.0199154
         vertex 0.00120481 0.0514746 0.0199233
      endloop
   endfacet
   facet normal -1.21831e-13 -0.208108 -0.978106
      outer loop
         vertex 0.00100659 0.0517068 0.0198739
         vertex 0.00115557 0.0515807 0.0199008
         vertex 0.00117586 0.0515472 0.0199079
      endloop
   endfacet
   facet normal -1.21831e-13 -0.208108 -0.978106
      outer loop
         vertex 0.00107439 0.051666 0.0198826
         vertex 0.00110454 0.0516405 0.019888
         vertex 0.0011317 0.0516119 0.0198941
      endloop
   endfacet
   facet normal -1.21831e-13 -0.208108 -0.978106
      outer loop
         vertex 0.00115557 0.0515807 0.0199008
         vertex 0.00100659 0.0517068 0.0198739
         vertex 0.00104161 0.0516882 0.0198779
      endloop
   endfacet
   facet normal -1.21831e-13 -0.208108 -0.978106
      outer loop
         vertex -0.00121312 0.0514365 0.0199314
         vertex -0.000931426 0.0517324 0.0198685
         vertex -0.000892169 0.0517391 0.0198671
      endloop
   endfacet
   facet normal -1.21831e-13 -0.208108 -0.978106
      outer loop
         vertex -0.00121312 0.0514365 0.0199314
         vertex -0.00100658 0.0517068 0.0198739
         vertex -0.000969713 0.0517216 0.0198708
      endloop
   endfacet
   facet normal -1.21831e-13 -0.208108 -0.978106
      outer loop
         vertex -0.00115556 0.0515807 0.0199008
         vertex -0.0011317 0.0516119 0.0198941
         vertex -0.00110453 0.0516405 0.019888
      endloop
   endfacet
   facet normal -1.21831e-13 -0.208108 -0.978106
      outer loop
         vertex -0.00100658 0.0517068 0.0198739
         vertex -0.00121312 0.0514365 0.0199314
         vertex -0.0012048 0.0514746 0.0199233
      endloop
   endfacet
   facet normal -1.21831e-13 -0.208108 -0.978106
      outer loop
         vertex -0.00466006 0.0434864 0.021623
         vertex -0.00467177 0.0437523 0.0215664
         vertex -0.00465675 0.0437884 0.0215587
      endloop
   endfacet
   facet normal -1.21831e-13 -0.208108 -0.978106
      outer loop
         vertex -0.00468445 0.0435603 0.0216072
         vertex -0.00469042 0.0435988 0.021599
         vertex -0.00467177 0.0437523 0.0215664
      endloop
   endfacet
   facet normal -1.21831e-13 -0.208108 -0.978106
      outer loop
         vertex -0.00368092 0.0427428 0.0217812
         vertex -0.00410792 0.0427791 0.0217734
         vertex -0.0041356 0.0428047 0.021768
      endloop
   endfacet
   facet normal -1.21831e-13 -0.208108 -0.978106
      outer loop
         vertex -0.00397506 0.0427082 0.0217885
         vertex -0.00401091 0.0427208 0.0217859
         vertex -0.00368092 0.0427428 0.0217812
      endloop
   endfacet
   facet normal -1.21831e-13 -0.208108 -0.978106
      outer loop
         vertex 0.00386229 0.0426928 0.0217918
         vertex 0.00382429 0.0426953 0.0217913
         vertex 0.00416042 0.0428329 0.021762
      endloop
   endfacet
   facet normal -1.21831e-13 -0.208108 -0.978106
      outer loop
         vertex 0.00407769 0.0427564 0.0217783
         vertex 0.00404524 0.0427369 0.0217824
         vertex 0.00401091 0.0427208 0.0217859
      endloop
   endfacet
   facet normal -1.21831e-13 -0.208108 -0.978106
      outer loop
         vertex 0.00465674 0.0437884 0.0215587
         vertex 0.0046743 0.0435227 0.0216152
         vertex 0.00466007 0.0434864 0.021623
      endloop
   endfacet
   facet normal -1.21831e-13 -0.208108 -0.978106
      outer loop
         vertex 0.00469213 0.0436377 0.0215908
         vertex 0.00469042 0.0435988 0.021599
         vertex 0.00465674 0.0437884 0.0215587
      endloop
   endfacet
   facet normal -1.21831e-13 -0.208108 -0.978106
      outer loop
         vertex 0.00117586 0.0515472 0.0199079
         vertex 0.00119233 0.0515117 0.0199154
         vertex 0.00100659 0.0517068 0.0198739
      endloop
   endfacet
   facet normal -1.21831e-13 -0.208108 -0.978106
      outer loop
         vertex 0.00104161 0.0516882 0.0198779
         vertex 0.00107439 0.051666 0.0198826
         vertex 0.00115557 0.0515807 0.0199008
      endloop
   endfacet
   facet normal -1.21831e-13 -0.208108 -0.978106
      outer loop
         vertex -0.000969713 0.0517216 0.0198708
         vertex -0.000931426 0.0517324 0.0198685
         vertex -0.00121312 0.0514365 0.0199314
      endloop
   endfacet
   facet normal -1.21831e-13 -0.208108 -0.978106
      outer loop
         vertex -0.00119233 0.0515117 0.0199154
         vertex -0.00117585 0.0515472 0.0199079
         vertex -0.00100658 0.0517068 0.0198739
      endloop
   endfacet
   facet normal -1.21831e-13 -0.208108 -0.978106
      outer loop
         vertex -0.00468956 0.0436766 0.0215825
         vertex -0.00468275 0.0437149 0.0215743
         vertex -0.00467177 0.0437523 0.0215664
      endloop
   endfacet
   facet normal -1.21831e-13 -0.208108 -0.978106
      outer loop
         vertex -0.00461531 0.0438547 0.0215446
         vertex -0.0046201 0.0434192 0.0216373
         vertex -0.00464193 0.0434517 0.0216303
      endloop
   endfacet
   facet normal -1.21831e-13 -0.208108 -0.978106
      outer loop
         vertex -0.0040777 0.0427564 0.0217783
         vertex -0.00410792 0.0427791 0.0217734
         vertex -0.00368092 0.0427428 0.0217812
      endloop
   endfacet
   facet normal -1.21831e-13 -0.208108 -0.978106
      outer loop
         vertex 0.00393807 0.0426993 0.0217904
         vertex 0.00390035 0.0426941 0.0217915
         vertex 0.00416042 0.0428329 0.021762
      endloop
   endfacet
   facet normal -1.21831e-13 -0.208108 -0.978106
      outer loop
         vertex 0.00468445 0.0435603 0.0216072
         vertex 0.0046743 0.0435227 0.0216152
         vertex 0.00465674 0.0437884 0.0215587
      endloop
   endfacet
   facet normal -1.21831e-13 -0.208108 -0.978106
      outer loop
         vertex 0.00462011 0.0434192 0.0216373
         vertex 0.00461531 0.0438547 0.0215446
         vertex 0.00463785 0.0438226 0.0215514
      endloop
   endfacet
   facet normal -1.21831e-13 -0.208108 -0.978106
      outer loop
         vertex 0.0011317 0.0516119 0.0198941
         vertex 0.00115557 0.0515807 0.0199008
         vertex 0.00107439 0.051666 0.0198826
      endloop
   endfacet
   facet normal -1.21831e-13 -0.208108 -0.978106
      outer loop
         vertex 0.00121314 0.0514365 0.0199314
         vertex 0.000892169 0.0517391 0.0198671
         vertex 0.000931426 0.0517324 0.0198685
      endloop
   endfacet
   facet normal -1.21831e-13 -0.208108 -0.978106
      outer loop
         vertex -0.00104161 0.0516882 0.0198779
         vertex -0.00100658 0.0517068 0.0198739
         vertex -0.00117585 0.0515472 0.0199079
      endloop
   endfacet
   facet normal -1.21831e-13 -0.208108 -0.978106
      outer loop
         vertex -0.00464193 0.0434517 0.0216303
         vertex -0.00466006 0.0434864 0.021623
         vertex -0.00461531 0.0438547 0.0215446
      endloop
   endfacet
   facet normal -1.21831e-13 -0.208108 -0.978106
      outer loop
         vertex -0.0041356 0.0428047 0.021768
         vertex -0.00416044 0.0428329 0.021762
         vertex -0.00368092 0.0427428 0.0217812
      endloop
   endfacet
   facet normal -1.21831e-13 -0.208108 -0.978106
      outer loop
         vertex 0.00371468 0.0427255 0.0217848
         vertex 0.00368091 0.0427427 0.0217812
         vertex 0.00416042 0.0428329 0.021762
      endloop
   endfacet
   facet normal -1.21831e-13 -0.208108 -0.978106
      outer loop
         vertex 0.00463785 0.0438226 0.0215514
         vertex 0.00465674 0.0437884 0.0215587
         vertex 0.00462011 0.0434192 0.0216373
      endloop
   endfacet
   facet normal -1.21831e-13 -0.208108 -0.978106
      outer loop
         vertex 0.00121314 0.0514365 0.0199314
         vertex 0.000969713 0.0517216 0.0198708
         vertex 0.00100659 0.0517068 0.0198739
      endloop
   endfacet
   facet normal -1.21831e-13 -0.208108 -0.978106
      outer loop
         vertex 0.00121314 0.0514365 0.0199314
         vertex 0.000852399 0.0517417 0.0198665
         vertex 0.000892169 0.0517391 0.0198671
      endloop
   endfacet
   facet normal -1.21831e-13 -0.208108 -0.978106
      outer loop
         vertex -0.000892169 0.0517391 0.0198671
         vertex -0.000852398 0.0517417 0.0198665
         vertex -0.00121312 0.0514365 0.0199314
      endloop
   endfacet
   facet normal -1.21831e-13 -0.208108 -0.978106
      outer loop
         vertex -0.00463785 0.0438226 0.0215514
         vertex -0.00461531 0.0438547 0.0215446
         vertex -0.00466006 0.0434864 0.021623
      endloop
   endfacet
   facet normal -1.21831e-13 -0.208108 -0.978106
      outer loop
         vertex -0.00367472 0.0427462 0.0217804
         vertex -0.0041649 0.0428383 0.0217608
         vertex -0.00461329 0.0434101 0.0216392
      endloop
   endfacet
   facet normal -1.21831e-13 -0.208108 -0.978106
      outer loop
         vertex -0.0041649 0.0428383 0.0217608
         vertex -0.00367472 0.0427462 0.0217804
         vertex -0.00368092 0.0427428 0.0217812
      endloop
   endfacet
   facet normal -1.21831e-13 -0.208108 -0.978106
      outer loop
         vertex 0.00367471 0.0427462 0.0217805
         vertex 0.0041649 0.0428383 0.0217608
         vertex 0.00416042 0.0428329 0.021762
      endloop
   endfacet
   facet normal -1.21831e-13 -0.208108 -0.978106
      outer loop
         vertex 0.00464194 0.0434517 0.0216303
         vertex 0.00462011 0.0434192 0.0216373
         vertex 0.00465674 0.0437884 0.0215587
      endloop
   endfacet
   facet normal -1.21831e-13 -0.208108 -0.978106
      outer loop
         vertex 0.000931426 0.0517324 0.0198685
         vertex 0.000969713 0.0517216 0.0198708
         vertex 0.00121314 0.0514365 0.0199314
      endloop
   endfacet
   facet normal -1.21831e-13 -0.208108 -0.978106
      outer loop
         vertex -0.000842932 0.0517419 0.0198665
         vertex -0.00121468 0.0514274 0.0199334
         vertex -0.00121312 0.0514365 0.0199314
      endloop
   endfacet
   facet normal -1.21831e-13 -0.208108 -0.978106
      outer loop
         vertex -1.15976e-16 0.0448847 0.0213254
         vertex -0.00183768 0.0472443 0.0208234
         vertex -0.00121468 0.0514274 0.0199334
      endloop
   endfacet
   facet normal -1.21831e-13 -0.208108 -0.978106
      outer loop
         vertex -0.00460831 0.0438636 0.0215427
         vertex -0.00461329 0.0434101 0.0216392
         vertex -0.0046201 0.0434192 0.0216373
      endloop
   endfacet
   facet normal -1.21831e-13 -0.208108 -0.978106
      outer loop
         vertex -0.00416044 0.0428329 0.021762
         vertex -0.0041649 0.0428383 0.0217608
         vertex -0.00368092 0.0427428 0.0217812
      endloop
   endfacet
   facet normal -1.21831e-13 -0.208108 -0.978106
      outer loop
         vertex 0.00183768 0.0472443 0.0208234
         vertex 0.0046133 0.0434101 0.0216392
         vertex 0.00367471 0.0427462 0.0217805
      endloop
   endfacet
   facet normal -1.21831e-13 -0.208108 -0.978106
      outer loop
         vertex 0.00367471 0.0427462 0.0217805
         vertex 0.0046133 0.0434101 0.0216392
         vertex 0.0041649 0.0428383 0.0217608
      endloop
   endfacet
   facet normal -1.21831e-13 -0.208108 -0.978106
      outer loop
         vertex 0.0046133 0.0434101 0.0216392
         vertex 0.0046083 0.0438636 0.0215427
         vertex 0.00461531 0.0438547 0.0215446
      endloop
   endfacet
   facet normal -1.21831e-13 -0.208108 -0.978106
      outer loop
         vertex 0.00120481 0.0514746 0.0199233
         vertex 0.00121314 0.0514365 0.0199314
         vertex 0.00100659 0.0517068 0.0198739
      endloop
   endfacet
   facet normal -1.21831e-13 -0.208108 -0.978106
      outer loop
         vertex -0.00121468 0.0514274 0.0199334
         vertex -0.000842932 0.0517419 0.0198665
         vertex -1.15976e-16 0.0448847 0.0213254
      endloop
   endfacet
   facet normal -1.21831e-13 -0.208108 -0.978106
      outer loop
         vertex -1.15976e-16 0.0448847 0.0213254
         vertex -0.00367472 0.0427462 0.0217804
         vertex -0.00460831 0.0438636 0.0215427
      endloop
   endfacet
   facet normal -1.21831e-13 -0.208108 -0.978106
      outer loop
         vertex -0.00461329 0.0434101 0.0216392
         vertex -0.00460831 0.0438636 0.0215427
         vertex -0.00367472 0.0427462 0.0217804
      endloop
   endfacet
   facet normal -1.21831e-13 -0.208108 -0.978106
      outer loop
         vertex 0.00368091 0.0427427 0.0217812
         vertex 0.00367471 0.0427462 0.0217805
         vertex 0.00416042 0.0428329 0.021762
      endloop
   endfacet
   facet normal -1.21831e-13 -0.208108 -0.978106
      outer loop
         vertex 0.0046133 0.0434101 0.0216392
         vertex 0.00183768 0.0472443 0.0208234
         vertex 0.0046083 0.0438636 0.0215427
      endloop
   endfacet
   facet normal -1.21831e-13 -0.208108 -0.978106
      outer loop
         vertex -1.15976e-16 0.0448847 0.0213254
         vertex 0.000842932 0.0517419 0.0198665
         vertex 0.00121469 0.0514274 0.0199334
      endloop
   endfacet
   facet normal -1.21831e-13 -0.208108 -0.978106
      outer loop
         vertex 0.00121469 0.0514274 0.0199334
         vertex 0.000842932 0.0517419 0.0198665
         vertex 0.000852399 0.0517417 0.0198665
      endloop
   endfacet
   facet normal -1.21831e-13 -0.208108 -0.978106
      outer loop
         vertex -0.000852398 0.0517417 0.0198665
         vertex -0.000842932 0.0517419 0.0198665
         vertex -0.00121312 0.0514365 0.0199314
      endloop
   endfacet
   facet normal -1.21831e-13 -0.208108 -0.978106
      outer loop
         vertex -0.00461531 0.0438547 0.0215446
         vertex -0.00460831 0.0438636 0.0215427
         vertex -0.0046201 0.0434192 0.0216373
      endloop
   endfacet
   facet normal -1.21831e-13 -0.208108 -0.978106
      outer loop
         vertex 0.00462011 0.0434192 0.0216373
         vertex 0.0046133 0.0434101 0.0216392
         vertex 0.00461531 0.0438547 0.0215446
      endloop
   endfacet
   facet normal -1.21831e-13 -0.208108 -0.978106
      outer loop
         vertex 0.00121314 0.0514365 0.0199314
         vertex 0.00121469 0.0514274 0.0199334
         vertex 0.000852399 0.0517417 0.0198665
      endloop
   endfacet
   facet normal -1.21831e-13 -0.208108 -0.978106
      outer loop
         vertex -0.00460831 0.0438636 0.0215427
         vertex -0.00183768 0.0472443 0.0208234
         vertex -1.15976e-16 0.0448847 0.0213254
      endloop
   endfacet
   facet normal -1.21831e-13 -0.208108 -0.978106
      outer loop
         vertex 0.00121469 0.0514274 0.0199334
         vertex 0.00183768 0.0472443 0.0208234
         vertex -1.15976e-16 0.0448847 0.0213254
      endloop
   endfacet
   facet normal -1.21831e-13 -0.208108 -0.978106
      outer loop
         vertex 0.00367471 0.0427462 0.0217805
         vertex -1.15976e-16 0.0448847 0.0213254
         vertex 0.00183768 0.0472443 0.0208234
      endloop
   endfacet
   facet normal -1.21831e-13 -0.208108 -0.978106
      outer loop
         vertex -0.000842932 0.0517419 0.0198665
         vertex 0.000842932 0.0517419 0.0198665
         vertex -1.15976e-16 0.0448847 0.0213254
      endloop
   endfacet
   facet normal 0.699549 0.428814 -0.57162
      outer loop
         vertex 0.00474185 0.0440124 0.0218178
         vertex 0.00461531 0.0438547 0.0215446
         vertex 0.0046083 0.0438636 0.0215427
      endloop
   endfacet
   facet normal 0.753288 0.352341 -0.555349
      outer loop
         vertex 0.00477412 0.0439665 0.0218275
         vertex 0.00463785 0.0438226 0.0215514
         vertex 0.00461531 0.0438547 0.0215446
      endloop
   endfacet
   facet normal 0.798326 0.270669 -0.537972
      outer loop
         vertex 0.00480116 0.0439174 0.021838
         vertex 0.00465674 0.0437884 0.0215587
         vertex 0.00463785 0.0438226 0.0215514
      endloop
   endfacet
   facet normal 0.834142 0.184741 -0.519689
      outer loop
         vertex 0.00482266 0.0438659 0.0218489
         vertex 0.00467176 0.0437523 0.0215664
         vertex 0.00465674 0.0437884 0.0215587
      endloop
   endfacet
   facet normal 0.860324 0.0955499 -0.500712
      outer loop
         vertex 0.00483838 0.0438123 0.0218603
         vertex 0.00468275 0.0437149 0.0215743
         vertex 0.00467176 0.0437523 0.0215664
      endloop
   endfacet
   facet normal 0.876568 0.00412544 -0.48126
      outer loop
         vertex 0.00484813 0.0437574 0.021872
         vertex 0.00468956 0.0436766 0.0215825
         vertex 0.00468275 0.0437149 0.0215743
      endloop
   endfacet
   facet normal 0.882687 -0.0884762 -0.461558
      outer loop
         vertex 0.0048518 0.0437018 0.0218838
         vertex 0.00469213 0.0436377 0.0215908
         vertex 0.00468956 0.0436766 0.0215825
      endloop
   endfacet
   facet normal 0.87861 -0.181185 -0.441833
      outer loop
         vertex 0.00484936 0.0436462 0.0218957
         vertex 0.00469042 0.0435988 0.021599
         vertex 0.00469213 0.0436377 0.0215908
      endloop
   endfacet
   facet normal 0.864385 -0.272931 -0.422312
      outer loop
         vertex 0.00484081 0.0435911 0.0219074
         vertex 0.00468445 0.0435603 0.0216072
         vertex 0.00469042 0.0435988 0.021599
      endloop
   endfacet
   facet normal 0.840175 -0.362654 -0.403222
      outer loop
         vertex 0.00482628 0.0435372 0.0219189
         vertex 0.0046743 0.0435227 0.0216152
         vertex 0.00468445 0.0435603 0.0216072
      endloop
   endfacet
   facet normal 0.806261 -0.449317 -0.384783
      outer loop
         vertex 0.00480592 0.0434852 0.0219299
         vertex 0.00466007 0.0434864 0.021623
         vertex 0.0046743 0.0435227 0.0216152
      endloop
   endfacet
   facet normal 0.763033 -0.531919 -0.367208
      outer loop
         vertex 0.00477997 0.0434356 0.0219405
         vertex 0.00464194 0.0434517 0.0216303
         vertex 0.00466007 0.0434864 0.021623
      endloop
   endfacet
   facet normal 0.710992 -0.609507 -0.3507
      outer loop
         vertex 0.00474872 0.043389 0.0219504
         vertex 0.00462011 0.0434192 0.0216373
         vertex 0.00464194 0.0434517 0.0216303
      endloop
   endfacet
   facet normal 0.710992 -0.609507 -0.3507
      outer loop
         vertex 0.00474872 0.043389 0.0219504
         vertex 0.00473994 0.0433776 0.0219528
         vertex 0.0046133 0.0434101 0.0216392
      endloop
   endfacet
   facet normal 0.694442 -0.630807 -0.346168
      outer loop
         vertex 0.0046133 0.0434101 0.0216392
         vertex 0.00462011 0.0434192 0.0216373
         vertex 0.00474872 0.043389 0.0219504
      endloop
   endfacet
   facet normal 0.763033 -0.531919 -0.367208
      outer loop
         vertex 0.00464194 0.0434517 0.0216303
         vertex 0.00477997 0.0434356 0.0219405
         vertex 0.00474872 0.043389 0.0219504
      endloop
   endfacet
   facet normal 0.806261 -0.449317 -0.384783
      outer loop
         vertex 0.00466007 0.0434864 0.021623
         vertex 0.00480592 0.0434852 0.0219299
         vertex 0.00477997 0.0434356 0.0219405
      endloop
   endfacet
   facet normal 0.840175 -0.362654 -0.403222
      outer loop
         vertex 0.0046743 0.0435227 0.0216152
         vertex 0.00482628 0.0435372 0.0219189
         vertex 0.00480592 0.0434852 0.0219299
      endloop
   endfacet
   facet normal 0.864385 -0.272931 -0.422312
      outer loop
         vertex 0.00468445 0.0435603 0.0216072
         vertex 0.00484081 0.0435911 0.0219074
         vertex 0.00482628 0.0435372 0.0219189
      endloop
   endfacet
   facet normal 0.87861 -0.181185 -0.441833
      outer loop
         vertex 0.00469042 0.0435988 0.021599
         vertex 0.00484936 0.0436462 0.0218957
         vertex 0.00484081 0.0435911 0.0219074
      endloop
   endfacet
   facet normal 0.882687 -0.0884762 -0.461558
      outer loop
         vertex 0.00469213 0.0436377 0.0215908
         vertex 0.0048518 0.0437018 0.0218838
         vertex 0.00484936 0.0436462 0.0218957
      endloop
   endfacet
   facet normal 0.876568 0.00412544 -0.48126
      outer loop
         vertex 0.00468956 0.0436766 0.0215825
         vertex 0.00484813 0.0437574 0.021872
         vertex 0.0048518 0.0437018 0.0218838
      endloop
   endfacet
   facet normal 0.860324 0.0955499 -0.500712
      outer loop
         vertex 0.00468275 0.0437149 0.0215743
         vertex 0.00483838 0.0438123 0.0218603
         vertex 0.00484813 0.0437574 0.021872
      endloop
   endfacet
   facet normal 0.834142 0.184741 -0.519689
      outer loop
         vertex 0.00467176 0.0437523 0.0215664
         vertex 0.00482266 0.0438659 0.0218489
         vertex 0.00483838 0.0438123 0.0218603
      endloop
   endfacet
   facet normal 0.798326 0.270669 -0.537972
      outer loop
         vertex 0.00465674 0.0437884 0.0215587
         vertex 0.00480116 0.0439174 0.021838
         vertex 0.00482266 0.0438659 0.0218489
      endloop
   endfacet
   facet normal 0.753288 0.352341 -0.555349
      outer loop
         vertex 0.00463785 0.0438226 0.0215514
         vertex 0.00477412 0.0439665 0.0218275
         vertex 0.00480116 0.0439174 0.021838
      endloop
   endfacet
   facet normal 0.699549 0.428814 -0.57162
      outer loop
         vertex 0.00461531 0.0438547 0.0215446
         vertex 0.00474185 0.0440124 0.0218178
         vertex 0.00477412 0.0439665 0.0218275
      endloop
   endfacet
   facet normal 0.682533 0.44976 -0.576076
      outer loop
         vertex 0.0046083 0.0438636 0.0215427
         vertex 0.00473284 0.0440237 0.0218154
         vertex 0.00474185 0.0440124 0.0218178
      endloop
   endfacet
   facet normal 0.688909 0.442477 -0.574124
      outer loop
         vertex 0.0046083 0.0438636 0.0215427
         vertex 0.00183768 0.0472443 0.0208234
         vertex 0.00198928 0.0473712 0.0211031
      endloop
   endfacet
   facet normal 0.688909 0.442477 -0.574124
      outer loop
         vertex 0.00198928 0.0473712 0.0211031
         vertex 0.00473284 0.0440237 0.0218154
         vertex 0.0046083 0.0438636 0.0215427
      endloop
   endfacet
   facet normal 0.873732 0.0267512 -0.485672
      outer loop
         vertex 0.00121469 0.0514274 0.0199334
         vertex 0.00137255 0.0515123 0.020222
         vertex 0.00198928 0.0473712 0.0211031
      endloop
   endfacet
   facet normal 0.873732 0.0267512 -0.485672
      outer loop
         vertex 0.00198928 0.0473712 0.0211031
         vertex 0.00183768 0.0472443 0.0208234
         vertex 0.00121469 0.0514274 0.0199334
      endloop
   endfacet
endsolid Part 1. Units = meters