solid Part 5. STL generated by ONSHAPE BY PTC INC, 1.216. Units = meters
   facet normal 0 -3.41338e-17 1
      outer loop
         vertex 0 0.0255432 0.0228
         vertex 0.00015451 0.0241225 0.0228
         vertex 0.000307208 0.0241476 0.0228
      endloop
   endfacet
   facet normal 0 -3.41338e-17 1
      outer loop
         vertex 0.000307208 0.0241476 0.0228
         vertex 0.000456305 0.024189 0.0228
         vertex 0 0.0255432 0.0228
      endloop
   endfacet
   facet normal 0 -3.41338e-17 1
      outer loop
         vertex 0.000456305 0.024189 0.0228
         vertex 0.000600051 0.0242462 0.0228
         vertex 0 0.0255432 0.0228
      endloop
   endfacet
   facet normal 0 -3.41338e-17 1
      outer loop
         vertex 0.000600051 0.0242462 0.0228
         vertex 0.000736763 0.0243187 0.0228
         vertex 0 0.0255432 0.0228
      endloop
   endfacet
   facet normal 0 -3.41338e-17 1
      outer loop
         vertex 0.000736763 0.0243187 0.0228
         vertex 0.000864837 0.0244055 0.0228
         vertex 0 0.0255432 0.0228
      endloop
   endfacet
   facet normal 0 -3.41338e-17 1
      outer loop
         vertex 0.000864837 0.0244055 0.0228
         vertex 0.000982771 0.0245057 0.0228
         vertex 0 0.0255432 0.0228
      endloop
   endfacet
   facet normal 0 -3.41338e-17 1
      outer loop
         vertex 0.000982771 0.0245057 0.0228
         vertex 0.00108918 0.0246181 0.0228
         vertex 0 0.0255432 0.0228
      endloop
   endfacet
   facet normal 0 -3.41338e-17 1
      outer loop
         vertex 0.00108918 0.0246181 0.0228
         vertex 0.00118283 0.0247412 0.0228
         vertex 0 0.0255432 0.0228
      endloop
   endfacet
   facet normal 0 -3.41338e-17 1
      outer loop
         vertex 0.00118283 0.0247412 0.0228
         vertex 0.0012626 0.0248738 0.0228
         vertex 0 0.0255432 0.0228
      endloop
   endfacet
   facet normal 0 -3.41338e-17 1
      outer loop
         vertex 0.0012626 0.0248738 0.0228
         vertex 0.00132757 0.0250143 0.0228
         vertex 0 0.0255432 0.0228
      endloop
   endfacet
   facet normal 0 -3.41338e-17 1
      outer loop
         vertex 0.00132757 0.0250143 0.0228
         vertex 0.00137698 0.0251609 0.0228
         vertex 0 0.0255432 0.0228
      endloop
   endfacet
   facet normal 0 -3.41338e-17 1
      outer loop
         vertex 0.00137698 0.0251609 0.0228
         vertex 0.00141025 0.025312 0.0228
         vertex 0 0.0255432 0.0228
      endloop
   endfacet
   facet normal 0 -3.41338e-17 1
      outer loop
         vertex 0.00141025 0.025312 0.0228
         vertex 0.00142698 0.0254659 0.0228
         vertex 0 0.0255432 0.0228
      endloop
   endfacet
   facet normal 0 -3.41338e-17 1
      outer loop
         vertex 0.00142698 0.0254659 0.0228
         vertex 0.00142698 0.0256206 0.0228
         vertex 0 0.0255432 0.0228
      endloop
   endfacet
   facet normal 0 -3.41338e-17 1
      outer loop
         vertex 0.00142698 0.0256206 0.0228
         vertex 0.00141025 0.0257744 0.0228
         vertex 0 0.0255432 0.0228
      endloop
   endfacet
   facet normal 0 -3.41338e-17 1
      outer loop
         vertex 0.00141025 0.0257744 0.0228
         vertex 0.00137698 0.0259255 0.0228
         vertex 0 0.0255432 0.0228
      endloop
   endfacet
   facet normal 0 -3.41338e-17 1
      outer loop
         vertex 0.00137698 0.0259255 0.0228
         vertex 0.00132757 0.0260722 0.0228
         vertex 0 0.0255432 0.0228
      endloop
   endfacet
   facet normal 0 -3.41338e-17 1
      outer loop
         vertex 0.00132757 0.0260722 0.0228
         vertex 0.0012626 0.0262126 0.0228
         vertex 0 0.0255432 0.0228
      endloop
   endfacet
   facet normal 0 -3.41338e-17 1
      outer loop
         vertex 0.0012626 0.0262126 0.0228
         vertex 0.00118283 0.0263452 0.0228
         vertex 0 0.0255432 0.0228
      endloop
   endfacet
   facet normal 0 -3.41338e-17 1
      outer loop
         vertex 0.00118283 0.0263452 0.0228
         vertex 0.00108918 0.0264684 0.0228
         vertex 0 0.0255432 0.0228
      endloop
   endfacet
   facet normal 0 -3.41338e-17 1
      outer loop
         vertex 0.00108918 0.0264684 0.0228
         vertex 0.000982771 0.0265807 0.0228
         vertex 0 0.0255432 0.0228
      endloop
   endfacet
   facet normal 0 -3.41338e-17 1
      outer loop
         vertex 0.000982771 0.0265807 0.0228
         vertex 0.000864837 0.0266809 0.0228
         vertex 0 0.0255432 0.0228
      endloop
   endfacet
   facet normal 0 -3.41338e-17 1
      outer loop
         vertex 0.000864837 0.0266809 0.0228
         vertex 0.000736763 0.0267677 0.0228
         vertex 0 0.0255432 0.0228
      endloop
   endfacet
   facet normal 0 -3.41338e-17 1
      outer loop
         vertex 0.000736763 0.0267677 0.0228
         vertex 0.000600051 0.0268402 0.0228
         vertex 0 0.0255432 0.0228
      endloop
   endfacet
   facet normal 0 -3.41338e-17 1
      outer loop
         vertex 0.000600051 0.0268402 0.0228
         vertex 0.000456305 0.0268975 0.0228
         vertex 0 0.0255432 0.0228
      endloop
   endfacet
   facet normal 0 -3.41338e-17 1
      outer loop
         vertex 0.000456305 0.0268975 0.0228
         vertex 0.000307208 0.0269389 0.0228
         vertex 0 0.0255432 0.0228
      endloop
   endfacet
   facet normal 0 -3.41338e-17 1
      outer loop
         vertex 0.000307208 0.0269389 0.0228
         vertex 0.00015451 0.0269639 0.0228
         vertex 0 0.0255432 0.0228
      endloop
   endfacet
   facet normal 0 -3.41338e-17 1
      outer loop
         vertex 0.00015451 0.0269639 0.0228
         vertex 0 0.0269723 0.0228
         vertex 0 0.0255432 0.0228
      endloop
   endfacet
   facet normal 0 -3.41338e-17 1
      outer loop
         vertex 0 0.0269723 0.0228
         vertex -0.00015451 0.0269639 0.0228
         vertex 0 0.0255432 0.0228
      endloop
   endfacet
   facet normal 0 -3.41338e-17 1
      outer loop
         vertex -0.00015451 0.0269639 0.0228
         vertex -0.000307208 0.0269389 0.0228
         vertex 0 0.0255432 0.0228
      endloop
   endfacet
   facet normal 0 -3.41338e-17 1
      outer loop
         vertex -0.000307208 0.0269389 0.0228
         vertex -0.000456305 0.0268975 0.0228
         vertex 0 0.0255432 0.0228
      endloop
   endfacet
   facet normal 0 -3.41338e-17 1
      outer loop
         vertex -0.000456305 0.0268975 0.0228
         vertex -0.000600051 0.0268402 0.0228
         vertex 0 0.0255432 0.0228
      endloop
   endfacet
   facet normal 0 -3.41338e-17 1
      outer loop
         vertex -0.000600051 0.0268402 0.0228
         vertex -0.000736763 0.0267677 0.0228
         vertex 0 0.0255432 0.0228
      endloop
   endfacet
   facet normal 0 -3.41338e-17 1
      outer loop
         vertex -0.000736763 0.0267677 0.0228
         vertex -0.000864837 0.0266809 0.0228
         vertex 0 0.0255432 0.0228
      endloop
   endfacet
   facet normal 0 -3.41338e-17 1
      outer loop
         vertex -0.000864837 0.0266809 0.0228
         vertex -0.000982771 0.0265807 0.0228
         vertex 0 0.0255432 0.0228
      endloop
   endfacet
   facet normal 0 -3.41338e-17 1
      outer loop
         vertex -0.000982771 0.0265807 0.0228
         vertex -0.00108918 0.0264684 0.0228
         vertex 0 0.0255432 0.0228
      endloop
   endfacet
   facet normal 0 -3.41338e-17 1
      outer loop
         vertex -0.00108918 0.0264684 0.0228
         vertex -0.00118283 0.0263452 0.0228
         vertex 0 0.0255432 0.0228
      endloop
   endfacet
   facet normal 0 -3.41338e-17 1
      outer loop
         vertex -0.00118283 0.0263452 0.0228
         vertex -0.0012626 0.0262126 0.0228
         vertex 0 0.0255432 0.0228
      endloop
   endfacet
   facet normal 0 -3.41338e-17 1
      outer loop
         vertex -0.0012626 0.0262126 0.0228
         vertex -0.00132757 0.0260722 0.0228
         vertex 0 0.0255432 0.0228
      endloop
   endfacet
   facet normal 0 -3.41338e-17 1
      outer loop
         vertex -0.00132757 0.0260722 0.0228
         vertex -0.00137698 0.0259255 0.0228
         vertex 0 0.0255432 0.0228
      endloop
   endfacet
   facet normal 0 -3.41338e-17 1
      outer loop
         vertex -0.00137698 0.0259255 0.0228
         vertex -0.00141025 0.0257744 0.0228
         vertex 0 0.0255432 0.0228
      endloop
   endfacet
   facet normal 0 -3.41338e-17 1
      outer loop
         vertex -0.00141025 0.0257744 0.0228
         vertex -0.00142698 0.0256206 0.0228
         vertex 0 0.0255432 0.0228
      endloop
   endfacet
   facet normal 0 -3.41338e-17 1
      outer loop
         vertex -0.00142698 0.0256206 0.0228
         vertex -0.00142698 0.0254659 0.0228
         vertex 0 0.0255432 0.0228
      endloop
   endfacet
   facet normal 0 -3.41338e-17 1
      outer loop
         vertex -0.00142698 0.0254659 0.0228
         vertex -0.00141025 0.025312 0.0228
         vertex 0 0.0255432 0.0228
      endloop
   endfacet
   facet normal 0 -3.41338e-17 1
      outer loop
         vertex -0.00141025 0.025312 0.0228
         vertex -0.00137698 0.0251609 0.0228
         vertex 0 0.0255432 0.0228
      endloop
   endfacet
   facet normal 0 -3.41338e-17 1
      outer loop
         vertex -0.00137698 0.0251609 0.0228
         vertex -0.00132757 0.0250143 0.0228
         vertex 0 0.0255432 0.0228
      endloop
   endfacet
   facet normal 0 -3.41338e-17 1
      outer loop
         vertex -0.00132757 0.0250143 0.0228
         vertex -0.0012626 0.0248738 0.0228
         vertex 0 0.0255432 0.0228
      endloop
   endfacet
   facet normal 0 -3.41338e-17 1
      outer loop
         vertex -0.0012626 0.0248738 0.0228
         vertex -0.00118283 0.0247412 0.0228
         vertex 0 0.0255432 0.0228
      endloop
   endfacet
   facet normal 0 -3.41338e-17 1
      outer loop
         vertex -0.00118283 0.0247412 0.0228
         vertex -0.00108918 0.0246181 0.0228
         vertex 0 0.0255432 0.0228
      endloop
   endfacet
   facet normal 0 -3.41338e-17 1
      outer loop
         vertex -0.00108918 0.0246181 0.0228
         vertex -0.000982771 0.0245057 0.0228
         vertex 0 0.0255432 0.0228
      endloop
   endfacet
   facet normal 0 -3.41338e-17 1
      outer loop
         vertex -0.000982771 0.0245057 0.0228
         vertex -0.000864837 0.0244055 0.0228
         vertex 0 0.0255432 0.0228
      endloop
   endfacet
   facet normal 0 -3.41338e-17 1
      outer loop
         vertex -0.000864837 0.0244055 0.0228
         vertex -0.000736763 0.0243187 0.0228
         vertex 0 0.0255432 0.0228
      endloop
   endfacet
   facet normal 0 -3.41338e-17 1
      outer loop
         vertex -0.000736763 0.0243187 0.0228
         vertex -0.000600051 0.0242462 0.0228
         vertex 0 0.0255432 0.0228
      endloop
   endfacet
   facet normal 0 -3.41338e-17 1
      outer loop
         vertex -0.000600051 0.0242462 0.0228
         vertex -0.000456305 0.024189 0.0228
         vertex 0 0.0255432 0.0228
      endloop
   endfacet
   facet normal 0 -3.41338e-17 1
      outer loop
         vertex -0.000456305 0.024189 0.0228
         vertex -0.000307208 0.0241476 0.0228
         vertex 0 0.0255432 0.0228
      endloop
   endfacet
   facet normal 0 -3.41338e-17 1
      outer loop
         vertex -0.000307208 0.0241476 0.0228
         vertex -0.00015451 0.0241225 0.0228
         vertex 0 0.0255432 0.0228
      endloop
   endfacet
   facet normal 0 -3.41338e-17 1
      outer loop
         vertex -0.00015451 0.0241225 0.0228
         vertex 5.25032e-19 0.0241141 0.0228
         vertex 0 0.0255432 0.0228
      endloop
   endfacet
   facet normal 0 -3.41338e-17 1
      outer loop
         vertex 5.25032e-19 0.0241141 0.0228
         vertex 0.00015451 0.0241225 0.0228
         vertex 0 0.0255432 0.0228
      endloop
   endfacet
   facet normal 0 1 3.41338e-17
      outer loop
         vertex 0 0.0269723 0.0226
         vertex 0 0.0269723 0.0228
         vertex 0.00015451 0.0269639 0.0228
      endloop
   endfacet
   facet normal 0.108119 0.994138 3.39337e-17
      outer loop
         vertex 0.00015451 0.0269639 0.0226
         vertex 0.00015451 0.0269639 0.0228
         vertex 0.000307208 0.0269389 0.0228
      endloop
   endfacet
   facet normal 0.21497 0.976621 3.33357e-17
      outer loop
         vertex 0.000307208 0.0269389 0.0226
         vertex 0.000307208 0.0269389 0.0228
         vertex 0.000456305 0.0268975 0.0228
      endloop
   endfacet
   facet normal 0.319302 0.947653 3.2347e-17
      outer loop
         vertex 0.000456305 0.0268975 0.0226
         vertex 0.000456305 0.0268975 0.0228
         vertex 0.000600051 0.0268402 0.0228
      endloop
   endfacet
   facet normal 0.419889 0.907575 3.0979e-17
      outer loop
         vertex 0.000600051 0.0268402 0.0226
         vertex 0.000600051 0.0268402 0.0228
         vertex 0.000736763 0.0267677 0.0228
      endloop
   endfacet
   facet normal 0.515554 0.856857 2.92478e-17
      outer loop
         vertex 0.000736763 0.0267677 0.0226
         vertex 0.000736763 0.0267677 0.0228
         vertex 0.000864837 0.0266809 0.0228
      endloop
   endfacet
   facet normal 0.605174 0.796093 2.71737e-17
      outer loop
         vertex 0.000864837 0.0266809 0.0226
         vertex 0.000864837 0.0266809 0.0228
         vertex 0.000982771 0.0265807 0.0228
      endloop
   endfacet
   facet normal 0.687699 0.725995 2.4781e-17
      outer loop
         vertex 0.000982771 0.0265807 0.0226
         vertex 0.000982771 0.0265807 0.0228
         vertex 0.00108918 0.0264684 0.0228
      endloop
   endfacet
   facet normal 0.762162 0.647386 2.20977e-17
      outer loop
         vertex 0.00108918 0.0264684 0.0226
         vertex 0.00108918 0.0264684 0.0228
         vertex 0.00118283 0.0263452 0.0228
      endloop
   endfacet
   facet normal 0.827689 0.561187 1.91554e-17
      outer loop
         vertex 0.00118283 0.0263452 0.0226
         vertex 0.00118283 0.0263452 0.0228
         vertex 0.0012626 0.0262126 0.0228
      endloop
   endfacet
   facet normal 0.883512 0.468408 1.59885e-17
      outer loop
         vertex 0.0012626 0.0262126 0.0226
         vertex 0.0012626 0.0262126 0.0228
         vertex 0.00132757 0.0260722 0.0228
      endloop
   endfacet
   facet normal 0.928977 0.370138 1.26342e-17
      outer loop
         vertex 0.00132757 0.0260722 0.0226
         vertex 0.00132757 0.0260722 0.0228
         vertex 0.00137698 0.0259255 0.0228
      endloop
   endfacet
   facet normal 0.96355 0.267528 9.13175e-18
      outer loop
         vertex 0.00137698 0.0259255 0.0226
         vertex 0.00137698 0.0259255 0.0228
         vertex 0.00141025 0.0257744 0.0228
      endloop
   endfacet
   facet normal 0.986827 0.161782 5.52223e-18
      outer loop
         vertex 0.00141025 0.0257744 0.0226
         vertex 0.00141025 0.0257744 0.0228
         vertex 0.00142698 0.0256206 0.0228
      endloop
   endfacet
   facet normal 0.998533 0.0541389 1.84797e-18
      outer loop
         vertex 0.00142698 0.0256206 0.0226
         vertex 0.00142698 0.0256206 0.0228
         vertex 0.00142698 0.0254659 0.0228
      endloop
   endfacet
   facet normal 0.998533 -0.0541389 -1.84797e-18
      outer loop
         vertex 0.00142698 0.0254659 0.0226
         vertex 0.00142698 0.0254659 0.0228
         vertex 0.00141025 0.025312 0.0228
      endloop
   endfacet
   facet normal 0.986827 -0.161782 -5.52223e-18
      outer loop
         vertex 0.00141025 0.025312 0.0226
         vertex 0.00141025 0.025312 0.0228
         vertex 0.00137698 0.0251609 0.0228
      endloop
   endfacet
   facet normal 0.96355 -0.267528 -9.13175e-18
      outer loop
         vertex 0.00137698 0.0251609 0.0226
         vertex 0.00137698 0.0251609 0.0228
         vertex 0.00132757 0.0250143 0.0228
      endloop
   endfacet
   facet normal 0.928977 -0.370138 -1.26342e-17
      outer loop
         vertex 0.00132757 0.0250143 0.0226
         vertex 0.00132757 0.0250143 0.0228
         vertex 0.0012626 0.0248738 0.0228
      endloop
   endfacet
   facet normal 0.883512 -0.468408 -1.59885e-17
      outer loop
         vertex 0.0012626 0.0248738 0.0226
         vertex 0.0012626 0.0248738 0.0228
         vertex 0.00118283 0.0247412 0.0228
      endloop
   endfacet
   facet normal 0.827689 -0.561187 -1.91554e-17
      outer loop
         vertex 0.00118283 0.0247412 0.0226
         vertex 0.00118283 0.0247412 0.0228
         vertex 0.00108918 0.0246181 0.0228
      endloop
   endfacet
   facet normal 0.762162 -0.647386 -2.20977e-17
      outer loop
         vertex 0.00108918 0.0246181 0.0226
         vertex 0.00108918 0.0246181 0.0228
         vertex 0.000982771 0.0245057 0.0228
      endloop
   endfacet
   facet normal 0.687699 -0.725995 -2.4781e-17
      outer loop
         vertex 0.000982771 0.0245057 0.0226
         vertex 0.000982771 0.0245057 0.0228
         vertex 0.000864837 0.0244055 0.0228
      endloop
   endfacet
   facet normal 0.605174 -0.796093 -2.71737e-17
      outer loop
         vertex 0.000864837 0.0244055 0.0226
         vertex 0.000864837 0.0244055 0.0228
         vertex 0.000736763 0.0243187 0.0228
      endloop
   endfacet
   facet normal 0.515554 -0.856857 -2.92478e-17
      outer loop
         vertex 0.000736763 0.0243187 0.0226
         vertex 0.000736763 0.0243187 0.0228
         vertex 0.000600051 0.0242462 0.0228
      endloop
   endfacet
   facet normal 0.419889 -0.907575 -3.0979e-17
      outer loop
         vertex 0.000600051 0.0242462 0.0226
         vertex 0.000600051 0.0242462 0.0228
         vertex 0.000456305 0.024189 0.0228
      endloop
   endfacet
   facet normal 0.319302 -0.947653 -3.2347e-17
      outer loop
         vertex 0.000456305 0.024189 0.0226
         vertex 0.000456305 0.024189 0.0228
         vertex 0.000307208 0.0241476 0.0228
      endloop
   endfacet
   facet normal 0.21497 -0.976621 -3.33357e-17
      outer loop
         vertex 0.000307208 0.0241476 0.0226
         vertex 0.000307208 0.0241476 0.0228
         vertex 0.00015451 0.0241225 0.0228
      endloop
   endfacet
   facet normal 0.108119 -0.994138 -3.39337e-17
      outer loop
         vertex 0.00015451 0.0241225 0.0226
         vertex 0.00015451 0.0241225 0.0228
         vertex 5.25032e-19 0.0241141 0.0228
      endloop
   endfacet
   facet normal 1.22465e-16 -1 -3.41338e-17
      outer loop
         vertex 1.75011e-19 0.0241141 0.0226
         vertex 5.25032e-19 0.0241141 0.0228
         vertex -0.00015451 0.0241225 0.0228
      endloop
   endfacet
   facet normal -0.108119 -0.994138 -3.39337e-17
      outer loop
         vertex -0.00015451 0.0241225 0.0226
         vertex -0.00015451 0.0241225 0.0228
         vertex -0.000307208 0.0241476 0.0228
      endloop
   endfacet
   facet normal -0.21497 -0.976621 -3.33357e-17
      outer loop
         vertex -0.000307208 0.0241476 0.0226
         vertex -0.000307208 0.0241476 0.0228
         vertex -0.000456305 0.024189 0.0228
      endloop
   endfacet
   facet normal -0.319302 -0.947653 -3.2347e-17
      outer loop
         vertex -0.000456305 0.024189 0.0226
         vertex -0.000456305 0.024189 0.0228
         vertex -0.000600051 0.0242462 0.0228
      endloop
   endfacet
   facet normal -0.419889 -0.907575 -3.0979e-17
      outer loop
         vertex -0.000600051 0.0242462 0.0226
         vertex -0.000600051 0.0242462 0.0228
         vertex -0.000736763 0.0243187 0.0228
      endloop
   endfacet
   facet normal -0.515554 -0.856857 -2.92478e-17
      outer loop
         vertex -0.000736763 0.0243187 0.0226
         vertex -0.000736763 0.0243187 0.0228
         vertex -0.000864837 0.0244055 0.0228
      endloop
   endfacet
   facet normal -0.605174 -0.796093 -2.71737e-17
      outer loop
         vertex -0.000864837 0.0244055 0.0226
         vertex -0.000864837 0.0244055 0.0228
         vertex -0.000982771 0.0245057 0.0228
      endloop
   endfacet
   facet normal -0.687699 -0.725995 -2.4781e-17
      outer loop
         vertex -0.000982771 0.0245057 0.0226
         vertex -0.000982771 0.0245057 0.0228
         vertex -0.00108918 0.0246181 0.0228
      endloop
   endfacet
   facet normal -0.762162 -0.647386 -2.20977e-17
      outer loop
         vertex -0.00108918 0.0246181 0.0226
         vertex -0.00108918 0.0246181 0.0228
         vertex -0.00118283 0.0247412 0.0228
      endloop
   endfacet
   facet normal -0.827689 -0.561187 -1.91554e-17
      outer loop
         vertex -0.00118283 0.0247412 0.0226
         vertex -0.00118283 0.0247412 0.0228
         vertex -0.0012626 0.0248738 0.0228
      endloop
   endfacet
   facet normal -0.883512 -0.468408 -1.59885e-17
      outer loop
         vertex -0.0012626 0.0248738 0.0226
         vertex -0.0012626 0.0248738 0.0228
         vertex -0.00132757 0.0250143 0.0228
      endloop
   endfacet
   facet normal -0.928977 -0.370138 -1.26342e-17
      outer loop
         vertex -0.00132757 0.0250143 0.0226
         vertex -0.00132757 0.0250143 0.0228
         vertex -0.00137698 0.0251609 0.0228
      endloop
   endfacet
   facet normal -0.96355 -0.267528 -9.13175e-18
      outer loop
         vertex -0.00137698 0.0251609 0.0226
         vertex -0.00137698 0.0251609 0.0228
         vertex -0.00141025 0.025312 0.0228
      endloop
   endfacet
   facet normal -0.986827 -0.161782 -5.52223e-18
      outer loop
         vertex -0.00141025 0.025312 0.0226
         vertex -0.00141025 0.025312 0.0228
         vertex -0.00142698 0.0254659 0.0228
      endloop
   endfacet
   facet normal -0.998533 -0.0541389 -1.84797e-18
      outer loop
         vertex -0.00142698 0.0254659 0.0226
         vertex -0.00142698 0.0254659 0.0228
         vertex -0.00142698 0.0256206 0.0228
      endloop
   endfacet
   facet normal -0.998533 0.0541389 1.84797e-18
      outer loop
         vertex -0.00142698 0.0256206 0.0226
         vertex -0.00142698 0.0256206 0.0228
         vertex -0.00141025 0.0257744 0.0228
      endloop
   endfacet
   facet normal -0.986827 0.161782 5.52223e-18
      outer loop
         vertex -0.00141025 0.0257744 0.0226
         vertex -0.00141025 0.0257744 0.0228
         vertex -0.00137698 0.0259255 0.0228
      endloop
   endfacet
   facet normal -0.96355 0.267528 9.13175e-18
      outer loop
         vertex -0.00137698 0.0259255 0.0226
         vertex -0.00137698 0.0259255 0.0228
         vertex -0.00132757 0.0260722 0.0228
      endloop
   endfacet
   facet normal -0.928977 0.370138 1.26342e-17
      outer loop
         vertex -0.00132757 0.0260722 0.0226
         vertex -0.00132757 0.0260722 0.0228
         vertex -0.0012626 0.0262126 0.0228
      endloop
   endfacet
   facet normal -0.883512 0.468408 1.59885e-17
      outer loop
         vertex -0.0012626 0.0262126 0.0226
         vertex -0.0012626 0.0262126 0.0228
         vertex -0.00118283 0.0263452 0.0228
      endloop
   endfacet
   facet normal -0.827689 0.561187 1.91554e-17
      outer loop
         vertex -0.00118283 0.0263452 0.0226
         vertex -0.00118283 0.0263452 0.0228
         vertex -0.00108918 0.0264684 0.0228
      endloop
   endfacet
   facet normal -0.762162 0.647386 2.20977e-17
      outer loop
         vertex -0.00108918 0.0264684 0.0226
         vertex -0.00108918 0.0264684 0.0228
         vertex -0.000982771 0.0265807 0.0228
      endloop
   endfacet
   facet normal -0.687699 0.725995 2.4781e-17
      outer loop
         vertex -0.000982771 0.0265807 0.0226
         vertex -0.000982771 0.0265807 0.0228
         vertex -0.000864837 0.0266809 0.0228
      endloop
   endfacet
   facet normal -0.605174 0.796093 2.71737e-17
      outer loop
         vertex -0.000864837 0.0266809 0.0226
         vertex -0.000864837 0.0266809 0.0228
         vertex -0.000736763 0.0267677 0.0228
      endloop
   endfacet
   facet normal -0.515554 0.856857 2.92478e-17
      outer loop
         vertex -0.000736763 0.0267677 0.0226
         vertex -0.000736763 0.0267677 0.0228
         vertex -0.000600051 0.0268402 0.0228
      endloop
   endfacet
   facet normal -0.419889 0.907575 3.0979e-17
      outer loop
         vertex -0.000600051 0.0268402 0.0226
         vertex -0.000600051 0.0268402 0.0228
         vertex -0.000456305 0.0268975 0.0228
      endloop
   endfacet
   facet normal -0.319302 0.947653 3.2347e-17
      outer loop
         vertex -0.000456305 0.0268975 0.0226
         vertex -0.000456305 0.0268975 0.0228
         vertex -0.000307208 0.0269389 0.0228
      endloop
   endfacet
   facet normal -0.21497 0.976621 3.33357e-17
      outer loop
         vertex -0.000307208 0.0269389 0.0226
         vertex -0.000307208 0.0269389 0.0228
         vertex -0.00015451 0.0269639 0.0228
      endloop
   endfacet
   facet normal -0.108119 0.994138 3.39337e-17
      outer loop
         vertex -0.00015451 0.0269639 0.0226
         vertex -0.00015451 0.0269639 0.0228
         vertex 0 0.0269723 0.0228
      endloop
   endfacet
   facet normal 0 1 3.41338e-17
      outer loop
         vertex 0 0.0269723 0.0228
         vertex 0 0.0269723 0.0226
         vertex -0.00015451 0.0269639 0.0226
      endloop
   endfacet
   facet normal -0.108119 0.994138 3.39337e-17
      outer loop
         vertex -0.00015451 0.0269639 0.0228
         vertex -0.00015451 0.0269639 0.0226
         vertex -0.000307208 0.0269389 0.0226
      endloop
   endfacet
   facet normal -0.21497 0.976621 3.33357e-17
      outer loop
         vertex -0.000307208 0.0269389 0.0228
         vertex -0.000307208 0.0269389 0.0226
         vertex -0.000456305 0.0268975 0.0226
      endloop
   endfacet
   facet normal -0.319302 0.947653 3.2347e-17
      outer loop
         vertex -0.000456305 0.0268975 0.0228
         vertex -0.000456305 0.0268975 0.0226
         vertex -0.000600051 0.0268402 0.0226
      endloop
   endfacet
   facet normal -0.419889 0.907575 3.0979e-17
      outer loop
         vertex -0.000600051 0.0268402 0.0228
         vertex -0.000600051 0.0268402 0.0226
         vertex -0.000736763 0.0267677 0.0226
      endloop
   endfacet
   facet normal -0.515554 0.856857 2.92478e-17
      outer loop
         vertex -0.000736763 0.0267677 0.0228
         vertex -0.000736763 0.0267677 0.0226
         vertex -0.000864837 0.0266809 0.0226
      endloop
   endfacet
   facet normal -0.605174 0.796093 2.71737e-17
      outer loop
         vertex -0.000864837 0.0266809 0.0228
         vertex -0.000864837 0.0266809 0.0226
         vertex -0.000982771 0.0265807 0.0226
      endloop
   endfacet
   facet normal -0.687699 0.725995 2.4781e-17
      outer loop
         vertex -0.000982771 0.0265807 0.0228
         vertex -0.000982771 0.0265807 0.0226
         vertex -0.00108918 0.0264684 0.0226
      endloop
   endfacet
   facet normal -0.762162 0.647386 2.20977e-17
      outer loop
         vertex -0.00108918 0.0264684 0.0228
         vertex -0.00108918 0.0264684 0.0226
         vertex -0.00118283 0.0263452 0.0226
      endloop
   endfacet
   facet normal -0.827689 0.561187 1.91554e-17
      outer loop
         vertex -0.00118283 0.0263452 0.0228
         vertex -0.00118283 0.0263452 0.0226
         vertex -0.0012626 0.0262126 0.0226
      endloop
   endfacet
   facet normal -0.883512 0.468408 1.59885e-17
      outer loop
         vertex -0.0012626 0.0262126 0.0228
         vertex -0.0012626 0.0262126 0.0226
         vertex -0.00132757 0.0260722 0.0226
      endloop
   endfacet
   facet normal -0.928977 0.370138 1.26342e-17
      outer loop
         vertex -0.00132757 0.0260722 0.0228
         vertex -0.00132757 0.0260722 0.0226
         vertex -0.00137698 0.0259255 0.0226
      endloop
   endfacet
   facet normal -0.96355 0.267528 9.13175e-18
      outer loop
         vertex -0.00137698 0.0259255 0.0228
         vertex -0.00137698 0.0259255 0.0226
         vertex -0.00141025 0.0257744 0.0226
      endloop
   endfacet
   facet normal -0.986827 0.161782 5.52223e-18
      outer loop
         vertex -0.00141025 0.0257744 0.0228
         vertex -0.00141025 0.0257744 0.0226
         vertex -0.00142698 0.0256206 0.0226
      endloop
   endfacet
   facet normal -0.998533 0.0541389 1.84797e-18
      outer loop
         vertex -0.00142698 0.0256206 0.0228
         vertex -0.00142698 0.0256206 0.0226
         vertex -0.00142698 0.0254659 0.0226
      endloop
   endfacet
   facet normal -0.998533 -0.0541389 -1.84797e-18
      outer loop
         vertex -0.00142698 0.0254659 0.0228
         vertex -0.00142698 0.0254659 0.0226
         vertex -0.00141025 0.025312 0.0226
      endloop
   endfacet
   facet normal -0.986827 -0.161782 -5.52223e-18
      outer loop
         vertex -0.00141025 0.025312 0.0228
         vertex -0.00141025 0.025312 0.0226
         vertex -0.00137698 0.0251609 0.0226
      endloop
   endfacet
   facet normal -0.96355 -0.267528 -9.13175e-18
      outer loop
         vertex -0.00137698 0.0251609 0.0228
         vertex -0.00137698 0.0251609 0.0226
         vertex -0.00132757 0.0250143 0.0226
      endloop
   endfacet
   facet normal -0.928977 -0.370138 -1.26342e-17
      outer loop
         vertex -0.00132757 0.0250143 0.0228
         vertex -0.00132757 0.0250143 0.0226
         vertex -0.0012626 0.0248738 0.0226
      endloop
   endfacet
   facet normal -0.883512 -0.468408 -1.59885e-17
      outer loop
         vertex -0.0012626 0.0248738 0.0228
         vertex -0.0012626 0.0248738 0.0226
         vertex -0.00118283 0.0247412 0.0226
      endloop
   endfacet
   facet normal -0.827689 -0.561187 -1.91554e-17
      outer loop
         vertex -0.00118283 0.0247412 0.0228
         vertex -0.00118283 0.0247412 0.0226
         vertex -0.00108918 0.0246181 0.0226
      endloop
   endfacet
   facet normal -0.762162 -0.647386 -2.20977e-17
      outer loop
         vertex -0.00108918 0.0246181 0.0228
         vertex -0.00108918 0.0246181 0.0226
         vertex -0.000982771 0.0245057 0.0226
      endloop
   endfacet
   facet normal -0.687699 -0.725995 -2.4781e-17
      outer loop
         vertex -0.000982771 0.0245057 0.0228
         vertex -0.000982771 0.0245057 0.0226
         vertex -0.000864837 0.0244055 0.0226
      endloop
   endfacet
   facet normal -0.605174 -0.796093 -2.71737e-17
      outer loop
         vertex -0.000864837 0.0244055 0.0228
         vertex -0.000864837 0.0244055 0.0226
         vertex -0.000736763 0.0243187 0.0226
      endloop
   endfacet
   facet normal -0.515554 -0.856857 -2.92478e-17
      outer loop
         vertex -0.000736763 0.0243187 0.0228
         vertex -0.000736763 0.0243187 0.0226
         vertex -0.000600051 0.0242462 0.0226
      endloop
   endfacet
   facet normal -0.419889 -0.907575 -3.0979e-17
      outer loop
         vertex -0.000600051 0.0242462 0.0228
         vertex -0.000600051 0.0242462 0.0226
         vertex -0.000456305 0.024189 0.0226
      endloop
   endfacet
   facet normal -0.319302 -0.947653 -3.2347e-17
      outer loop
         vertex -0.000456305 0.024189 0.0228
         vertex -0.000456305 0.024189 0.0226
         vertex -0.000307208 0.0241476 0.0226
      endloop
   endfacet
   facet normal -0.21497 -0.976621 -3.33357e-17
      outer loop
         vertex -0.000307208 0.0241476 0.0228
         vertex -0.000307208 0.0241476 0.0226
         vertex -0.00015451 0.0241225 0.0226
      endloop
   endfacet
   facet normal -0.108119 -0.994138 -3.39337e-17
      outer loop
         vertex -0.00015451 0.0241225 0.0228
         vertex -0.00015451 0.0241225 0.0226
         vertex 1.75011e-19 0.0241141 0.0226
      endloop
   endfacet
   facet normal 1.22465e-16 -1 -3.41338e-17
      outer loop
         vertex 5.25032e-19 0.0241141 0.0228
         vertex 1.75011e-19 0.0241141 0.0226
         vertex 0.00015451 0.0241225 0.0226
      endloop
   endfacet
   facet normal 0.108119 -0.994138 -3.39337e-17
      outer loop
         vertex 0.00015451 0.0241225 0.0228
         vertex 0.00015451 0.0241225 0.0226
         vertex 0.000307208 0.0241476 0.0226
      endloop
   endfacet
   facet normal 0.21497 -0.976621 -3.33357e-17
      outer loop
         vertex 0.000307208 0.0241476 0.0228
         vertex 0.000307208 0.0241476 0.0226
         vertex 0.000456305 0.024189 0.0226
      endloop
   endfacet
   facet normal 0.319302 -0.947653 -3.2347e-17
      outer loop
         vertex 0.000456305 0.024189 0.0228
         vertex 0.000456305 0.024189 0.0226
         vertex 0.000600051 0.0242462 0.0226
      endloop
   endfacet
   facet normal 0.419889 -0.907575 -3.0979e-17
      outer loop
         vertex 0.000600051 0.0242462 0.0228
         vertex 0.000600051 0.0242462 0.0226
         vertex 0.000736763 0.0243187 0.0226
      endloop
   endfacet
   facet normal 0.515554 -0.856857 -2.92478e-17
      outer loop
         vertex 0.000736763 0.0243187 0.0228
         vertex 0.000736763 0.0243187 0.0226
         vertex 0.000864837 0.0244055 0.0226
      endloop
   endfacet
   facet normal 0.605174 -0.796093 -2.71737e-17
      outer loop
         vertex 0.000864837 0.0244055 0.0228
         vertex 0.000864837 0.0244055 0.0226
         vertex 0.000982771 0.0245057 0.0226
      endloop
   endfacet
   facet normal 0.687699 -0.725995 -2.4781e-17
      outer loop
         vertex 0.000982771 0.0245057 0.0228
         vertex 0.000982771 0.0245057 0.0226
         vertex 0.00108918 0.0246181 0.0226
      endloop
   endfacet
   facet normal 0.762162 -0.647386 -2.20977e-17
      outer loop
         vertex 0.00108918 0.0246181 0.0228
         vertex 0.00108918 0.0246181 0.0226
         vertex 0.00118283 0.0247412 0.0226
      endloop
   endfacet
   facet normal 0.827689 -0.561187 -1.91554e-17
      outer loop
         vertex 0.00118283 0.0247412 0.0228
         vertex 0.00118283 0.0247412 0.0226
         vertex 0.0012626 0.0248738 0.0226
      endloop
   endfacet
   facet normal 0.883512 -0.468408 -1.59885e-17
      outer loop
         vertex 0.0012626 0.0248738 0.0228
         vertex 0.0012626 0.0248738 0.0226
         vertex 0.00132757 0.0250143 0.0226
      endloop
   endfacet
   facet normal 0.928977 -0.370138 -1.26342e-17
      outer loop
         vertex 0.00132757 0.0250143 0.0228
         vertex 0.00132757 0.0250143 0.0226
         vertex 0.00137698 0.0251609 0.0226
      endloop
   endfacet
   facet normal 0.96355 -0.267528 -9.13175e-18
      outer loop
         vertex 0.00137698 0.0251609 0.0228
         vertex 0.00137698 0.0251609 0.0226
         vertex 0.00141025 0.025312 0.0226
      endloop
   endfacet
   facet normal 0.986827 -0.161782 -5.52223e-18
      outer loop
         vertex 0.00141025 0.025312 0.0228
         vertex 0.00141025 0.025312 0.0226
         vertex 0.00142698 0.0254659 0.0226
      endloop
   endfacet
   facet normal 0.998533 -0.0541389 -1.84797e-18
      outer loop
         vertex 0.00142698 0.0254659 0.0228
         vertex 0.00142698 0.0254659 0.0226
         vertex 0.00142698 0.0256206 0.0226
      endloop
   endfacet
   facet normal 0.998533 0.0541389 1.84797e-18
      outer loop
         vertex 0.00142698 0.0256206 0.0228
         vertex 0.00142698 0.0256206 0.0226
         vertex 0.00141025 0.0257744 0.0226
      endloop
   endfacet
   facet normal 0.986827 0.161782 5.52223e-18
      outer loop
         vertex 0.00141025 0.0257744 0.0228
         vertex 0.00141025 0.0257744 0.0226
         vertex 0.00137698 0.0259255 0.0226
      endloop
   endfacet
   facet normal 0.96355 0.267528 9.13175e-18
      outer loop
         vertex 0.00137698 0.0259255 0.0228
         vertex 0.00137698 0.0259255 0.0226
         vertex 0.00132757 0.0260722 0.0226
      endloop
   endfacet
   facet normal 0.928977 0.370138 1.26342e-17
      outer loop
         vertex 0.00132757 0.0260722 0.0228
         vertex 0.00132757 0.0260722 0.0226
         vertex 0.0012626 0.0262126 0.0226
      endloop
   endfacet
   facet normal 0.883512 0.468408 1.59885e-17
      outer loop
         vertex 0.0012626 0.0262126 0.0228
         vertex 0.0012626 0.0262126 0.0226
         vertex 0.00118283 0.0263452 0.0226
      endloop
   endfacet
   facet normal 0.827689 0.561187 1.91554e-17
      outer loop
         vertex 0.00118283 0.0263452 0.0228
         vertex 0.00118283 0.0263452 0.0226
         vertex 0.00108918 0.0264684 0.0226
      endloop
   endfacet
   facet normal 0.762162 0.647386 2.20977e-17
      outer loop
         vertex 0.00108918 0.0264684 0.0228
         vertex 0.00108918 0.0264684 0.0226
         vertex 0.000982771 0.0265807 0.0226
      endloop
   endfacet
   facet normal 0.687699 0.725995 2.4781e-17
      outer loop
         vertex 0.000982771 0.0265807 0.0228
         vertex 0.000982771 0.0265807 0.0226
         vertex 0.000864837 0.0266809 0.0226
      endloop
   endfacet
   facet normal 0.605174 0.796093 2.71737e-17
      outer loop
         vertex 0.000864837 0.0266809 0.0228
         vertex 0.000864837 0.0266809 0.0226
         vertex 0.000736763 0.0267677 0.0226
      endloop
   endfacet
   facet normal 0.515554 0.856857 2.92478e-17
      outer loop
         vertex 0.000736763 0.0267677 0.0228
         vertex 0.000736763 0.0267677 0.0226
         vertex 0.000600051 0.0268402 0.0226
      endloop
   endfacet
   facet normal 0.419889 0.907575 3.0979e-17
      outer loop
         vertex 0.000600051 0.0268402 0.0228
         vertex 0.000600051 0.0268402 0.0226
         vertex 0.000456305 0.0268975 0.0226
      endloop
   endfacet
   facet normal 0.319302 0.947653 3.2347e-17
      outer loop
         vertex 0.000456305 0.0268975 0.0228
         vertex 0.000456305 0.0268975 0.0226
         vertex 0.000307208 0.0269389 0.0226
      endloop
   endfacet
   facet normal 0.21497 0.976621 3.33357e-17
      outer loop
         vertex 0.000307208 0.0269389 0.0228
         vertex 0.000307208 0.0269389 0.0226
         vertex 0.00015451 0.0269639 0.0226
      endloop
   endfacet
   facet normal 0.108119 0.994138 3.39337e-17
      outer loop
         vertex 0.00015451 0.0269639 0.0228
         vertex 0.00015451 0.0269639 0.0226
         vertex 0 0.0269723 0.0226
      endloop
   endfacet
   facet normal 0 3.41338e-17 -1
      outer loop
         vertex 0 0.0255432 0.0226
         vertex -0.00015451 0.0241225 0.0226
         vertex -0.000307208 0.0241476 0.0226
      endloop
   endfacet
   facet normal 0 3.41338e-17 -1
      outer loop
         vertex -0.000307208 0.0241476 0.0226
         vertex -0.000456305 0.024189 0.0226
         vertex 0 0.0255432 0.0226
      endloop
   endfacet
   facet normal 0 3.41338e-17 -1
      outer loop
         vertex -0.000456305 0.024189 0.0226
         vertex -0.000600051 0.0242462 0.0226
         vertex 0 0.0255432 0.0226
      endloop
   endfacet
   facet normal 0 3.41338e-17 -1
      outer loop
         vertex -0.000600051 0.0242462 0.0226
         vertex -0.000736763 0.0243187 0.0226
         vertex 0 0.0255432 0.0226
      endloop
   endfacet
   facet normal 0 3.41338e-17 -1
      outer loop
         vertex -0.000736763 0.0243187 0.0226
         vertex -0.000864837 0.0244055 0.0226
         vertex 0 0.0255432 0.0226
      endloop
   endfacet
   facet normal 0 3.41338e-17 -1
      outer loop
         vertex -0.000864837 0.0244055 0.0226
         vertex -0.000982771 0.0245057 0.0226
         vertex 0 0.0255432 0.0226
      endloop
   endfacet
   facet normal 0 3.41338e-17 -1
      outer loop
         vertex -0.000982771 0.0245057 0.0226
         vertex -0.00108918 0.0246181 0.0226
         vertex 0 0.0255432 0.0226
      endloop
   endfacet
   facet normal 0 3.41338e-17 -1
      outer loop
         vertex -0.00108918 0.0246181 0.0226
         vertex -0.00118283 0.0247412 0.0226
         vertex 0 0.0255432 0.0226
      endloop
   endfacet
   facet normal 0 3.41338e-17 -1
      outer loop
         vertex -0.00118283 0.0247412 0.0226
         vertex -0.0012626 0.0248738 0.0226
         vertex 0 0.0255432 0.0226
      endloop
   endfacet
   facet normal 0 3.41338e-17 -1
      outer loop
         vertex -0.0012626 0.0248738 0.0226
         vertex -0.00132757 0.0250143 0.0226
         vertex 0 0.0255432 0.0226
      endloop
   endfacet
   facet normal 0 3.41338e-17 -1
      outer loop
         vertex -0.00132757 0.0250143 0.0226
         vertex -0.00137698 0.0251609 0.0226
         vertex 0 0.0255432 0.0226
      endloop
   endfacet
   facet normal 0 3.41338e-17 -1
      outer loop
         vertex -0.00137698 0.0251609 0.0226
         vertex -0.00141025 0.025312 0.0226
         vertex 0 0.0255432 0.0226
      endloop
   endfacet
   facet normal 0 3.41338e-17 -1
      outer loop
         vertex -0.00141025 0.025312 0.0226
         vertex -0.00142698 0.0254659 0.0226
         vertex 0 0.0255432 0.0226
      endloop
   endfacet
   facet normal 0 3.41338e-17 -1
      outer loop
         vertex -0.00142698 0.0254659 0.0226
         vertex -0.00142698 0.0256206 0.0226
         vertex 0 0.0255432 0.0226
      endloop
   endfacet
   facet normal 0 3.41338e-17 -1
      outer loop
         vertex -0.00142698 0.0256206 0.0226
         vertex -0.00141025 0.0257744 0.0226
         vertex 0 0.0255432 0.0226
      endloop
   endfacet
   facet normal 0 3.41338e-17 -1
      outer loop
         vertex -0.00141025 0.0257744 0.0226
         vertex -0.00137698 0.0259255 0.0226
         vertex 0 0.0255432 0.0226
      endloop
   endfacet
   facet normal 0 3.41338e-17 -1
      outer loop
         vertex -0.00137698 0.0259255 0.0226
         vertex -0.00132757 0.0260722 0.0226
         vertex 0 0.0255432 0.0226
      endloop
   endfacet
   facet normal 0 3.41338e-17 -1
      outer loop
         vertex -0.00132757 0.0260722 0.0226
         vertex -0.0012626 0.0262126 0.0226
         vertex 0 0.0255432 0.0226
      endloop
   endfacet
   facet normal 0 3.41338e-17 -1
      outer loop
         vertex -0.0012626 0.0262126 0.0226
         vertex -0.00118283 0.0263452 0.0226
         vertex 0 0.0255432 0.0226
      endloop
   endfacet
   facet normal 0 3.41338e-17 -1
      outer loop
         vertex -0.00118283 0.0263452 0.0226
         vertex -0.00108918 0.0264684 0.0226
         vertex 0 0.0255432 0.0226
      endloop
   endfacet
   facet normal 0 3.41338e-17 -1
      outer loop
         vertex -0.00108918 0.0264684 0.0226
         vertex -0.000982771 0.0265807 0.0226
         vertex 0 0.0255432 0.0226
      endloop
   endfacet
   facet normal 0 3.41338e-17 -1
      outer loop
         vertex -0.000982771 0.0265807 0.0226
         vertex -0.000864837 0.0266809 0.0226
         vertex 0 0.0255432 0.0226
      endloop
   endfacet
   facet normal 0 3.41338e-17 -1
      outer loop
         vertex -0.000864837 0.0266809 0.0226
         vertex -0.000736763 0.0267677 0.0226
         vertex 0 0.0255432 0.0226
      endloop
   endfacet
   facet normal 0 3.41338e-17 -1
      outer loop
         vertex -0.000736763 0.0267677 0.0226
         vertex -0.000600051 0.0268402 0.0226
         vertex 0 0.0255432 0.0226
      endloop
   endfacet
   facet normal 0 3.41338e-17 -1
      outer loop
         vertex -0.000600051 0.0268402 0.0226
         vertex -0.000456305 0.0268975 0.0226
         vertex 0 0.0255432 0.0226
      endloop
   endfacet
   facet normal 0 3.41338e-17 -1
      outer loop
         vertex -0.000456305 0.0268975 0.0226
         vertex -0.000307208 0.0269389 0.0226
         vertex 0 0.0255432 0.0226
      endloop
   endfacet
   facet normal 0 3.41338e-17 -1
      outer loop
         vertex -0.000307208 0.0269389 0.0226
         vertex -0.00015451 0.0269639 0.0226
         vertex 0 0.0255432 0.0226
      endloop
   endfacet
   facet normal 0 3.41338e-17 -1
      outer loop
         vertex -0.00015451 0.0269639 0.0226
         vertex 0 0.0269723 0.0226
         vertex 0 0.0255432 0.0226
      endloop
   endfacet
   facet normal 0 3.41338e-17 -1
      outer loop
         vertex 0 0.0269723 0.0226
         vertex 0.00015451 0.0269639 0.0226
         vertex 0 0.0255432 0.0226
      endloop
   endfacet
   facet normal 0 3.41338e-17 -1
      outer loop
         vertex 0.00015451 0.0269639 0.0226
         vertex 0.000307208 0.0269389 0.0226
         vertex 0 0.0255432 0.0226
      endloop
   endfacet
   facet normal 0 3.41338e-17 -1
      outer loop
         vertex 0.000307208 0.0269389 0.0226
         vertex 0.000456305 0.0268975 0.0226
         vertex 0 0.0255432 0.0226
      endloop
   endfacet
   facet normal 0 3.41338e-17 -1
      outer loop
         vertex 0.000456305 0.0268975 0.0226
         vertex 0.000600051 0.0268402 0.0226
         vertex 0 0.0255432 0.0226
      endloop
   endfacet
   facet normal 0 3.41338e-17 -1
      outer loop
         vertex 0.000600051 0.0268402 0.0226
         vertex 0.000736763 0.0267677 0.0226
         vertex 0 0.0255432 0.0226
      endloop
   endfacet
   facet normal 0 3.41338e-17 -1
      outer loop
         vertex 0.000736763 0.0267677 0.0226
         vertex 0.000864837 0.0266809 0.0226
         vertex 0 0.0255432 0.0226
      endloop
   endfacet
   facet normal 0 3.41338e-17 -1
      outer loop
         vertex 0.000864837 0.0266809 0.0226
         vertex 0.000982771 0.0265807 0.0226
         vertex 0 0.0255432 0.0226
      endloop
   endfacet
   facet normal 0 3.41338e-17 -1
      outer loop
         vertex 0.000982771 0.0265807 0.0226
         vertex 0.00108918 0.0264684 0.0226
         vertex 0 0.0255432 0.0226
      endloop
   endfacet
   facet normal 0 3.41338e-17 -1
      outer loop
         vertex 0.00108918 0.0264684 0.0226
         vertex 0.00118283 0.0263452 0.0226
         vertex 0 0.0255432 0.0226
      endloop
   endfacet
   facet normal 0 3.41338e-17 -1
      outer loop
         vertex 0.00118283 0.0263452 0.0226
         vertex 0.0012626 0.0262126 0.0226
         vertex 0 0.0255432 0.0226
      endloop
   endfacet
   facet normal 0 3.41338e-17 -1
      outer loop
         vertex 0.0012626 0.0262126 0.0226
         vertex 0.00132757 0.0260722 0.0226
         vertex 0 0.0255432 0.0226
      endloop
   endfacet
   facet normal 0 3.41338e-17 -1
      outer loop
         vertex 0.00132757 0.0260722 0.0226
         vertex 0.00137698 0.0259255 0.0226
         vertex 0 0.0255432 0.0226
      endloop
   endfacet
   facet normal 0 3.41338e-17 -1
      outer loop
         vertex 0.00137698 0.0259255 0.0226
         vertex 0.00141025 0.0257744 0.0226
         vertex 0 0.0255432 0.0226
      endloop
   endfacet
   facet normal 0 3.41338e-17 -1
      outer loop
         vertex 0.00141025 0.0257744 0.0226
         vertex 0.00142698 0.0256206 0.0226
         vertex 0 0.0255432 0.0226
      endloop
   endfacet
   facet normal 0 3.41338e-17 -1
      outer loop
         vertex 0.00142698 0.0256206 0.0226
         vertex 0.00142698 0.0254659 0.0226
         vertex 0 0.0255432 0.0226
      endloop
   endfacet
   facet normal 0 3.41338e-17 -1
      outer loop
         vertex 0.00142698 0.0254659 0.0226
         vertex 0.00141025 0.025312 0.0226
         vertex 0 0.0255432 0.0226
      endloop
   endfacet
   facet normal 0 3.41338e-17 -1
      outer loop
         vertex 0.00141025 0.025312 0.0226
         vertex 0.00137698 0.0251609 0.0226
         vertex 0 0.0255432 0.0226
      endloop
   endfacet
   facet normal 0 3.41338e-17 -1
      outer loop
         vertex 0.00137698 0.0251609 0.0226
         vertex 0.00132757 0.0250143 0.0226
         vertex 0 0.0255432 0.0226
      endloop
   endfacet
   facet normal 0 3.41338e-17 -1
      outer loop
         vertex 0.00132757 0.0250143 0.0226
         vertex 0.0012626 0.0248738 0.0226
         vertex 0 0.0255432 0.0226
      endloop
   endfacet
   facet normal 0 3.41338e-17 -1
      outer loop
         vertex 0.0012626 0.0248738 0.0226
         vertex 0.00118283 0.0247412 0.0226
         vertex 0 0.0255432 0.0226
      endloop
   endfacet
   facet normal 0 3.41338e-17 -1
      outer loop
         vertex 0.00118283 0.0247412 0.0226
         vertex 0.00108918 0.0246181 0.0226
         vertex 0 0.0255432 0.0226
      endloop
   endfacet
   facet normal 0 3.41338e-17 -1
      outer loop
         vertex 0.00108918 0.0246181 0.0226
         vertex 0.000982771 0.0245057 0.0226
         vertex 0 0.0255432 0.0226
      endloop
   endfacet
   facet normal 0 3.41338e-17 -1
      outer loop
         vertex 0.000982771 0.0245057 0.0226
         vertex 0.000864837 0.0244055 0.0226
         vertex 0 0.0255432 0.0226
      endloop
   endfacet
   facet normal 0 3.41338e-17 -1
      outer loop
         vertex 0.000864837 0.0244055 0.0226
         vertex 0.000736763 0.0243187 0.0226
         vertex 0 0.0255432 0.0226
      endloop
   endfacet
   facet normal 0 3.41338e-17 -1
      outer loop
         vertex 0.000736763 0.0243187 0.0226
         vertex 0.000600051 0.0242462 0.0226
         vertex 0 0.0255432 0.0226
      endloop
   endfacet
   facet normal 0 3.41338e-17 -1
      outer loop
         vertex 0.000600051 0.0242462 0.0226
         vertex 0.000456305 0.024189 0.0226
         vertex 0 0.0255432 0.0226
      endloop
   endfacet
   facet normal 0 3.41338e-17 -1
      outer loop
         vertex 0.000456305 0.024189 0.0226
         vertex 0.000307208 0.0241476 0.0226
         vertex 0 0.0255432 0.0226
      endloop
   endfacet
   facet normal 0 3.41338e-17 -1
      outer loop
         vertex 0.000307208 0.0241476 0.0226
         vertex 0.00015451 0.0241225 0.0226
         vertex 0 0.0255432 0.0226
      endloop
   endfacet
   facet normal 0 3.41338e-17 -1
      outer loop
         vertex 0.00015451 0.0241225 0.0226
         vertex 1.75011e-19 0.0241141 0.0226
         vertex 0 0.0255432 0.0226
      endloop
   endfacet
   facet normal 0 3.41338e-17 -1
      outer loop
         vertex 1.75011e-19 0.0241141 0.0226
         vertex -0.00015451 0.0241225 0.0226
         vertex 0 0.0255432 0.0226
      endloop
   endfacet
endsolid Part 5. Units = meters