solid Part 1. STL generated by ONSHAPE BY PTC INC, 1.216. Units = meters
   facet normal 0 -1 0
      outer loop
         vertex 0 -0.009 1.46958e-18
         vertex 0.00259486 -0.009 -0.0238593
         vertex 0.00515929 -0.009 -0.0234389
      endloop
   endfacet
   facet normal 0 -1 0
      outer loop
         vertex 0.00515929 -0.009 -0.0234389
         vertex 0.00766324 -0.009 -0.0227437
         vertex 0 -0.009 1.46958e-18
      endloop
   endfacet
   facet normal 0 -1 0
      outer loop
         vertex 0.00766324 -0.009 -0.0227437
         vertex 0.0100773 -0.009 -0.0217818
         vertex 0 -0.009 1.46958e-18
      endloop
   endfacet
   facet normal 0 -1 0
      outer loop
         vertex 0.0100773 -0.009 -0.0217818
         vertex 0.0123733 -0.009 -0.0205646
         vertex 0 -0.009 1.46958e-18
      endloop
   endfacet
   facet normal 0 -1 0
      outer loop
         vertex 0.0123733 -0.009 -0.0205646
         vertex 0.0145242 -0.009 -0.0191062
         vertex 0 -0.009 1.46958e-18
      endloop
   endfacet
   facet normal 0 -1 0
      outer loop
         vertex 0.0145242 -0.009 -0.0191062
         vertex 0.0165048 -0.009 -0.0174239
         vertex 0 -0.009 1.46958e-18
      endloop
   endfacet
   facet normal 0 -1 0
      outer loop
         vertex 0.0165048 -0.009 -0.0174239
         vertex 0.0182919 -0.009 -0.0155373
         vertex 0 -0.009 1.46958e-18
      endloop
   endfacet
   facet normal 0 -1 0
      outer loop
         vertex 0.0182919 -0.009 -0.0155373
         vertex 0.0198645 -0.009 -0.0134685
         vertex 0 -0.009 1.46958e-18
      endloop
   endfacet
   facet normal 0 -1 0
      outer loop
         vertex 0.0198645 -0.009 -0.0134685
         vertex 0.0212043 -0.009 -0.0112418
         vertex 0 -0.009 1.46958e-18
      endloop
   endfacet
   facet normal 0 -1 0
      outer loop
         vertex 0.0212043 -0.009 -0.0112418
         vertex 0.0222954 -0.009 -0.00888332
         vertex 0 -0.009 1.46958e-18
      endloop
   endfacet
   facet normal 0 -1 0
      outer loop
         vertex 0.0222954 -0.009 -0.00888332
         vertex 0.0231252 -0.009 -0.00642068
         vertex 0 -0.009 1.46958e-18
      endloop
   endfacet
   facet normal 0 -1 0
      outer loop
         vertex 0.0231252 -0.009 -0.00642068
         vertex 0.0236838 -0.009 -0.00388277
         vertex 0 -0.009 1.46958e-18
      endloop
   endfacet
   facet normal 0 -1 0
      outer loop
         vertex 0.0236838 -0.009 -0.00388277
         vertex 0.0239648 -0.009 -0.00129933
         vertex 0 -0.009 1.46958e-18
      endloop
   endfacet
   facet normal 0 -1 0
      outer loop
         vertex 0.0239648 -0.009 -0.00129933
         vertex 0.0239648 -0.009 0.00129933
         vertex 0 -0.009 1.46958e-18
      endloop
   endfacet
   facet normal 0 -1 0
      outer loop
         vertex 0.0239648 -0.009 0.00129933
         vertex 0.0236838 -0.009 0.00388277
         vertex 0 -0.009 1.46958e-18
      endloop
   endfacet
   facet normal 0 -1 0
      outer loop
         vertex 0.0236838 -0.009 0.00388277
         vertex 0.0231252 -0.009 0.00642068
         vertex 0 -0.009 1.46958e-18
      endloop
   endfacet
   facet normal 0 -1 0
      outer loop
         vertex 0.0231252 -0.009 0.00642068
         vertex 0.0222954 -0.009 0.00888332
         vertex 0 -0.009 1.46958e-18
      endloop
   endfacet
   facet normal 0 -1 0
      outer loop
         vertex 0.0222954 -0.009 0.00888332
         vertex 0.0212043 -0.009 0.0112418
         vertex 0 -0.009 1.46958e-18
      endloop
   endfacet
   facet normal 0 -1 0
      outer loop
         vertex 0.0212043 -0.009 0.0112418
         vertex 0.0198645 -0.009 0.0134685
         vertex 0 -0.009 1.46958e-18
      endloop
   endfacet
   facet normal 0 -1 0
      outer loop
         vertex 0.0198645 -0.009 0.0134685
         vertex 0.0182919 -0.009 0.0155373
         vertex 0 -0.009 1.46958e-18
      endloop
   endfacet
   facet normal 0 -1 0
      outer loop
         vertex 0.0182919 -0.009 0.0155373
         vertex 0.0165048 -0.009 0.0174239
         vertex 0 -0.009 1.46958e-18
      endloop
   endfacet
   facet normal 0 -1 0
      outer loop
         vertex 0.0165048 -0.009 0.0174239
         vertex 0.0145242 -0.009 0.0191062
         vertex 0 -0.009 1.46958e-18
      endloop
   endfacet
   facet normal 0 -1 0
      outer loop
         vertex 0.0145242 -0.009 0.0191062
         vertex 0.0123733 -0.009 0.0205646
         vertex 0 -0.009 1.46958e-18
      endloop
   endfacet
   facet normal 0 -1 0
      outer loop
         vertex 0.0123733 -0.009 0.0205646
         vertex 0.0100773 -0.009 0.0217818
         vertex 0 -0.009 1.46958e-18
      endloop
   endfacet
   facet normal 0 -1 0
      outer loop
         vertex 0.0100773 -0.009 0.0217818
         vertex 0.00766324 -0.009 0.0227437
         vertex 0 -0.009 1.46958e-18
      endloop
   endfacet
   facet normal 0 -1 0
      outer loop
         vertex 0.00766324 -0.009 0.0227437
         vertex 0.00515929 -0.009 0.0234389
         vertex 0 -0.009 1.46958e-18
      endloop
   endfacet
   facet normal 0 -1 0
      outer loop
         vertex 0.00515929 -0.009 0.0234389
         vertex 0.00259486 -0.009 0.0238593
         vertex 0 -0.009 1.46958e-18
      endloop
   endfacet
   facet normal 0 -1 0
      outer loop
         vertex 0.00259486 -0.009 0.0238593
         vertex 0 -0.009 0.024
         vertex 0 -0.009 1.46958e-18
      endloop
   endfacet
   facet normal 0 -1 0
      outer loop
         vertex 0 -0.009 0.024
         vertex -0.00259486 -0.009 0.0238593
         vertex 0 -0.009 1.46958e-18
      endloop
   endfacet
   facet normal 0 -1 0
      outer loop
         vertex -0.00259486 -0.009 0.0238593
         vertex -0.00515929 -0.009 0.0234389
         vertex 0 -0.009 1.46958e-18
      endloop
   endfacet
   facet normal 0 -1 0
      outer loop
         vertex -0.00515929 -0.009 0.0234389
         vertex -0.00766324 -0.009 0.0227437
         vertex 0 -0.009 1.46958e-18
      endloop
   endfacet
   facet normal 0 -1 0
      outer loop
         vertex -0.00766324 -0.009 0.0227437
         vertex -0.0100773 -0.009 0.0217818
         vertex 0 -0.009 1.46958e-18
      endloop
   endfacet
   facet normal 0 -1 0
      outer loop
         vertex -0.0100773 -0.009 0.0217818
         vertex -0.0123733 -0.009 0.0205646
         vertex 0 -0.009 1.46958e-18
      endloop
   endfacet
   facet normal 0 -1 0
      outer loop
         vertex -0.0123733 -0.009 0.0205646
         vertex -0.0145242 -0.009 0.0191062
         vertex 0 -0.009 1.46958e-18
      endloop
   endfacet
   facet normal 0 -1 0
      outer loop
         vertex -0.0145242 -0.009 0.0191062
         vertex -0.0165048 -0.009 0.0174239
         vertex 0 -0.009 1.46958e-18
      endloop
   endfacet
   facet normal 0 -1 0
      outer loop
         vertex -0.0165048 -0.009 0.0174239
         vertex -0.0182919 -0.009 0.0155373
         vertex 0 -0.009 1.46958e-18
      endloop
   endfacet
   facet normal 0 -1 0
      outer loop
         vertex -0.0182919 -0.009 0.0155373
         vertex -0.0198645 -0.009 0.0134685
         vertex 0 -0.009 1.46958e-18
      endloop
   endfacet
   facet normal 0 -1 0
      outer loop
         vertex -0.0198645 -0.009 0.0134685
         vertex -0.0212043 -0.009 0.0112418
         vertex 0 -0.009 1.46958e-18
      endloop
   endfacet
   facet normal 0 -1 0
      outer loop
         vertex -0.0212043 -0.009 0.0112418
         vertex -0.0222954 -0.009 0.00888332
         vertex 0 -0.009 1.46958e-18
      endloop
   endfacet
   facet normal 0 -1 0
      outer loop
         vertex -0.0222954 -0.009 0.00888332
         vertex -0.0231252 -0.009 0.00642068
         vertex 0 -0.009 1.46958e-18
      endloop
   endfacet
   facet normal 0 -1 0
      outer loop
         vertex -0.0231252 -0.009 0.00642068
         vertex -0.0236838 -0.009 0.00388277
         vertex 0 -0.009 1.46958e-18
      endloop
   endfacet
   facet normal 0 -1 0
      outer loop
         vertex -0.0236838 -0.009 0.00388277
         vertex -0.0239648 -0.009 0.00129933
         vertex 0 -0.009 1.46958e-18
      endloop
   endfacet
   facet normal 0 -1 0
      outer loop
         vertex -0.0239648 -0.009 0.00129933
         vertex -0.0239648 -0.009 -0.00129933
         vertex 0 -0.009 1.46958e-18
      endloop
   endfacet
   facet normal 0 -1 0
      outer loop
         vertex -0.0239648 -0.009 -0.00129933
         vertex -0.0236838 -0.009 -0.00388277
         vertex 0 -0.009 1.46958e-18
      endloop
   endfacet
   facet normal 0 -1 0
      outer loop
         vertex -0.0236838 -0.009 -0.00388277
         vertex -0.0231252 -0.009 -0.00642068
         vertex 0 -0.009 1.46958e-18
      endloop
   endfacet
   facet normal 0 -1 0
      outer loop
         vertex -0.0231252 -0.009 -0.00642068
         vertex -0.0222954 -0.009 -0.00888332
         vertex 0 -0.009 1.46958e-18
      endloop
   endfacet
   facet normal 0 -1 0
      outer loop
         vertex -0.0222954 -0.009 -0.00888332
         vertex -0.0212043 -0.009 -0.0112418
         vertex 0 -0.009 1.46958e-18
      endloop
   endfacet
   facet normal 0 -1 0
      outer loop
         vertex -0.0212043 -0.009 -0.0112418
         vertex -0.0198645 -0.009 -0.0134685
         vertex 0 -0.009 1.46958e-18
      endloop
   endfacet
   facet normal 0 -1 0
      outer loop
         vertex -0.0198645 -0.009 -0.0134685
         vertex -0.0182919 -0.009 -0.0155373
         vertex 0 -0.009 1.46958e-18
      endloop
   endfacet
   facet normal 0 -1 0
      outer loop
         vertex -0.0182919 -0.009 -0.0155373
         vertex -0.0165048 -0.009 -0.0174239
         vertex 0 -0.009 1.46958e-18
      endloop
   endfacet
   facet normal 0 -1 0
      outer loop
         vertex -0.0165048 -0.009 -0.0174239
         vertex -0.0145242 -0.009 -0.0191062
         vertex 0 -0.009 1.46958e-18
      endloop
   endfacet
   facet normal 0 -1 0
      outer loop
         vertex -0.0145242 -0.009 -0.0191062
         vertex -0.0123733 -0.009 -0.0205646
         vertex 0 -0.009 1.46958e-18
      endloop
   endfacet
   facet normal 0 -1 0
      outer loop
         vertex -0.0123733 -0.009 -0.0205646
         vertex -0.0100773 -0.009 -0.0217818
         vertex 0 -0.009 1.46958e-18
      endloop
   endfacet
   facet normal 0 -1 0
      outer loop
         vertex -0.0100773 -0.009 -0.0217818
         vertex -0.00766324 -0.009 -0.0227437
         vertex 0 -0.009 1.46958e-18
      endloop
   endfacet
   facet normal 0 -1 0
      outer loop
         vertex -0.00766324 -0.009 -0.0227437
         vertex -0.00515929 -0.009 -0.0234389
         vertex 0 -0.009 1.46958e-18
      endloop
   endfacet
   facet normal 0 -1 0
      outer loop
         vertex -0.00515929 -0.009 -0.0234389
         vertex -0.00259486 -0.009 -0.0238593
         vertex 0 -0.009 1.46958e-18
      endloop
   endfacet
   facet normal 0 -1 0
      outer loop
         vertex -0.00259486 -0.009 -0.0238593
         vertex 8.81746e-18 -0.009 -0.024
         vertex 0 -0.009 1.46958e-18
      endloop
   endfacet
   facet normal 0 -1 0
      outer loop
         vertex 8.81746e-18 -0.009 -0.024
         vertex 0.00259486 -0.009 -0.0238593
         vertex 0 -0.009 1.46958e-18
      endloop
   endfacet
   facet normal 0 0 1
      outer loop
         vertex 0 0.009 0.024
         vertex 0 -0.009 0.024
         vertex 0.00259486 -0.009 0.0238593
      endloop
   endfacet
   facet normal 0.108119 0 0.994138
      outer loop
         vertex 0.00259486 0.009 0.0238593
         vertex 0.00259486 -0.009 0.0238593
         vertex 0.00515929 -0.009 0.0234389
      endloop
   endfacet
   facet normal 0.21497 0 0.976621
      outer loop
         vertex 0.00515929 0.009 0.0234389
         vertex 0.00515929 -0.009 0.0234389
         vertex 0.00766324 -0.009 0.0227437
      endloop
   endfacet
   facet normal 0.319302 0 0.947653
      outer loop
         vertex 0.00766324 0.009 0.0227437
         vertex 0.00766324 -0.009 0.0227437
         vertex 0.0100773 -0.009 0.0217818
      endloop
   endfacet
   facet normal 0.419889 0 0.907575
      outer loop
         vertex 0.0100773 0.009 0.0217818
         vertex 0.0100773 -0.009 0.0217818
         vertex 0.0123733 -0.009 0.0205646
      endloop
   endfacet
   facet normal 0.515554 0 0.856857
      outer loop
         vertex 0.0123733 0.009 0.0205646
         vertex 0.0123733 -0.009 0.0205646
         vertex 0.0145242 -0.009 0.0191062
      endloop
   endfacet
   facet normal 0.605174 0 0.796093
      outer loop
         vertex 0.0145242 0.009 0.0191062
         vertex 0.0145242 -0.009 0.0191062
         vertex 0.0165048 -0.009 0.0174239
      endloop
   endfacet
   facet normal 0.687699 0 0.725995
      outer loop
         vertex 0.0165048 0.009 0.0174239
         vertex 0.0165048 -0.009 0.0174239
         vertex 0.0182919 -0.009 0.0155373
      endloop
   endfacet
   facet normal 0.762162 0 0.647386
      outer loop
         vertex 0.0182919 0.009 0.0155373
         vertex 0.0182919 -0.009 0.0155373
         vertex 0.0198645 -0.009 0.0134685
      endloop
   endfacet
   facet normal 0.827689 0 0.561187
      outer loop
         vertex 0.0198645 0.009 0.0134685
         vertex 0.0198645 -0.009 0.0134685
         vertex 0.0212043 -0.009 0.0112418
      endloop
   endfacet
   facet normal 0.883512 0 0.468408
      outer loop
         vertex 0.0212043 0.009 0.0112418
         vertex 0.0212043 -0.009 0.0112418
         vertex 0.0222954 -0.009 0.00888332
      endloop
   endfacet
   facet normal 0.928977 0 0.370138
      outer loop
         vertex 0.0222954 0.009 0.00888332
         vertex 0.0222954 -0.009 0.00888332
         vertex 0.0231252 -0.009 0.00642068
      endloop
   endfacet
   facet normal 0.96355 0 0.267528
      outer loop
         vertex 0.0231252 0.009 0.00642068
         vertex 0.0231252 -0.009 0.00642068
         vertex 0.0236838 -0.009 0.00388277
      endloop
   endfacet
   facet normal 0.986827 0 0.161782
      outer loop
         vertex 0.0236838 0.009 0.00388277
         vertex 0.0236838 -0.009 0.00388277
         vertex 0.0239648 -0.009 0.00129933
      endloop
   endfacet
   facet normal 0.998533 0 0.0541389
      outer loop
         vertex 0.0239648 0.009 0.00129933
         vertex 0.0239648 -0.009 0.00129933
         vertex 0.0239648 -0.009 -0.00129933
      endloop
   endfacet
   facet normal 0.998533 0 -0.0541389
      outer loop
         vertex 0.0239648 0.009 -0.00129933
         vertex 0.0239648 -0.009 -0.00129933
         vertex 0.0236838 -0.009 -0.00388277
      endloop
   endfacet
   facet normal 0.986827 0 -0.161782
      outer loop
         vertex 0.0236838 0.009 -0.00388277
         vertex 0.0236838 -0.009 -0.00388277
         vertex 0.0231252 -0.009 -0.00642068
      endloop
   endfacet
   facet normal 0.96355 0 -0.267528
      outer loop
         vertex 0.0231252 0.009 -0.00642068
         vertex 0.0231252 -0.009 -0.00642068
         vertex 0.0222954 -0.009 -0.00888332
      endloop
   endfacet
   facet normal 0.928977 0 -0.370138
      outer loop
         vertex 0.0222954 0.009 -0.00888332
         vertex 0.0222954 -0.009 -0.00888332
         vertex 0.0212043 -0.009 -0.0112418
      endloop
   endfacet
   facet normal 0.883512 0 -0.468408
      outer loop
         vertex 0.0212043 0.009 -0.0112418
         vertex 0.0212043 -0.009 -0.0112418
         vertex 0.0198645 -0.009 -0.0134685
      endloop
   endfacet
   facet normal 0.827689 0 -0.561187
      outer loop
         vertex 0.0198645 0.009 -0.0134685
         vertex 0.0198645 -0.009 -0.0134685
         vertex 0.0182919 -0.009 -0.0155373
      endloop
   endfacet
   facet normal 0.762162 0 -0.647386
      outer loop
         vertex 0.0182919 0.009 -0.0155373
         vertex 0.0182919 -0.009 -0.0155373
         vertex 0.0165048 -0.009 -0.0174239
      endloop
   endfacet
   facet normal 0.687699 0 -0.725995
      outer loop
         vertex 0.0165048 0.009 -0.0174239
         vertex 0.0165048 -0.009 -0.0174239
         vertex 0.0145242 -0.009 -0.0191062
      endloop
   endfacet
   facet normal 0.605174 0 -0.796093
      outer loop
         vertex 0.0145242 0.009 -0.0191062
         vertex 0.0145242 -0.009 -0.0191062
         vertex 0.0123733 -0.009 -0.0205646
      endloop
   endfacet
   facet normal 0.515554 0 -0.856857
      outer loop
         vertex 0.0123733 0.009 -0.0205646
         vertex 0.0123733 -0.009 -0.0205646
         vertex 0.0100773 -0.009 -0.0217818
      endloop
   endfacet
   facet normal 0.419889 0 -0.907575
      outer loop
         vertex 0.0100773 0.009 -0.0217818
         vertex 0.0100773 -0.009 -0.0217818
         vertex 0.00766324 -0.009 -0.0227437
      endloop
   endfacet
   facet normal 0.319302 0 -0.947653
      outer loop
         vertex 0.00766324 0.009 -0.0227437
         vertex 0.00766324 -0.009 -0.0227437
         vertex 0.00515929 -0.009 -0.0234389
      endloop
   endfacet
   facet normal 0.21497 0 -0.976621
      outer loop
         vertex 0.00515929 0.009 -0.0234389
         vertex 0.00515929 -0.009 -0.0234389
         vertex 0.00259486 -0.009 -0.0238593
      endloop
   endfacet
   facet normal 0.108119 0 -0.994138
      outer loop
         vertex 0.00259486 0.009 -0.0238593
         vertex 0.00259486 -0.009 -0.0238593
         vertex 8.81746e-18 -0.009 -0.024
      endloop
   endfacet
   facet normal 1.22465e-16 0 -1
      outer loop
         vertex 2.93915e-18 0.009 -0.024
         vertex 8.81746e-18 -0.009 -0.024
         vertex -0.00259486 -0.009 -0.0238593
      endloop
   endfacet
   facet normal -0.108119 0 -0.994138
      outer loop
         vertex -0.00259486 0.009 -0.0238593
         vertex -0.00259486 -0.009 -0.0238593
         vertex -0.00515929 -0.009 -0.0234389
      endloop
   endfacet
   facet normal -0.21497 0 -0.976621
      outer loop
         vertex -0.00515929 0.009 -0.0234389
         vertex -0.00515929 -0.009 -0.0234389
         vertex -0.00766324 -0.009 -0.0227437
      endloop
   endfacet
   facet normal -0.319302 0 -0.947653
      outer loop
         vertex -0.00766324 0.009 -0.0227437
         vertex -0.00766324 -0.009 -0.0227437
         vertex -0.0100773 -0.009 -0.0217818
      endloop
   endfacet
   facet normal -0.419889 0 -0.907575
      outer loop
         vertex -0.0100773 0.009 -0.0217818
         vertex -0.0100773 -0.009 -0.0217818
         vertex -0.0123733 -0.009 -0.0205646
      endloop
   endfacet
   facet normal -0.515554 0 -0.856857
      outer loop
         vertex -0.0123733 0.009 -0.0205646
         vertex -0.0123733 -0.009 -0.0205646
         vertex -0.0145242 -0.009 -0.0191062
      endloop
   endfacet
   facet normal -0.605174 0 -0.796093
      outer loop
         vertex -0.0145242 0.009 -0.0191062
         vertex -0.0145242 -0.009 -0.0191062
         vertex -0.0165048 -0.009 -0.0174239
      endloop
   endfacet
   facet normal -0.687699 0 -0.725995
      outer loop
         vertex -0.0165048 0.009 -0.0174239
         vertex -0.0165048 -0.009 -0.0174239
         vertex -0.0182919 -0.009 -0.0155373
      endloop
   endfacet
   facet normal -0.762162 0 -0.647386
      outer loop
         vertex -0.0182919 0.009 -0.0155373
         vertex -0.0182919 -0.009 -0.0155373
         vertex -0.0198645 -0.009 -0.0134685
      endloop
   endfacet
   facet normal -0.827689 0 -0.561187
      outer loop
         vertex -0.0198645 0.009 -0.0134685
         vertex -0.0198645 -0.009 -0.0134685
         vertex -0.0212043 -0.009 -0.0112418
      endloop
   endfacet
   facet normal -0.883512 0 -0.468408
      outer loop
         vertex -0.0212043 0.009 -0.0112418
         vertex -0.0212043 -0.009 -0.0112418
         vertex -0.0222954 -0.009 -0.00888332
      endloop
   endfacet
   facet normal -0.928977 0 -0.370138
      outer loop
         vertex -0.0222954 0.009 -0.00888332
         vertex -0.0222954 -0.009 -0.00888332
         vertex -0.0231252 -0.009 -0.00642068
      endloop
   endfacet
   facet normal -0.96355 0 -0.267528
      outer loop
         vertex -0.0231252 0.009 -0.00642068
         vertex -0.0231252 -0.009 -0.00642068
         vertex -0.0236838 -0.009 -0.00388277
      endloop
   endfacet
   facet normal -0.986827 0 -0.161782
      outer loop
         vertex -0.0236838 0.009 -0.00388277
         vertex -0.0236838 -0.009 -0.00388277
         vertex -0.0239648 -0.009 -0.00129933
      endloop
   endfacet
   facet normal -0.998533 0 -0.0541389
      outer loop
         vertex -0.0239648 0.009 -0.00129933
         vertex -0.0239648 -0.009 -0.00129933
         vertex -0.0239648 -0.009 0.00129933
      endloop
   endfacet
   facet normal -0.998533 0 0.0541389
      outer loop
         vertex -0.0239648 0.009 0.00129933
         vertex -0.0239648 -0.009 0.00129933
         vertex -0.0236838 -0.009 0.00388277
      endloop
   endfacet
   facet normal -0.986827 0 0.161782
      outer loop
         vertex -0.0236838 0.009 0.00388277
         vertex -0.0236838 -0.009 0.00388277
         vertex -0.0231252 -0.009 0.00642068
      endloop
   endfacet
   facet normal -0.96355 0 0.267528
      outer loop
         vertex -0.0231252 0.009 0.00642068
         vertex -0.0231252 -0.009 0.00642068
         vertex -0.0222954 -0.009 0.00888332
      endloop
   endfacet
   facet normal -0.928977 0 0.370138
      outer loop
         vertex -0.0222954 0.009 0.00888332
         vertex -0.0222954 -0.009 0.00888332
         vertex -0.0212043 -0.009 0.0112418
      endloop
   endfacet
   facet normal -0.883512 0 0.468408
      outer loop
         vertex -0.0212043 0.009 0.0112418
         vertex -0.0212043 -0.009 0.0112418
         vertex -0.0198645 -0.009 0.0134685
      endloop
   endfacet
   facet normal -0.827689 0 0.561187
      outer loop
         vertex -0.0198645 0.009 0.0134685
         vertex -0.0198645 -0.009 0.0134685
         vertex -0.0182919 -0.009 0.0155373
      endloop
   endfacet
   facet normal -0.762162 0 0.647386
      outer loop
         vertex -0.0182919 0.009 0.0155373
         vertex -0.0182919 -0.009 0.0155373
         vertex -0.0165048 -0.009 0.0174239
      endloop
   endfacet
   facet normal -0.687699 0 0.725995
      outer loop
         vertex -0.0165048 0.009 0.0174239
         vertex -0.0165048 -0.009 0.0174239
         vertex -0.0145242 -0.009 0.0191062
      endloop
   endfacet
   facet normal -0.605174 0 0.796093
      outer loop
         vertex -0.0145242 0.009 0.0191062
         vertex -0.0145242 -0.009 0.0191062
         vertex -0.0123733 -0.009 0.0205646
      endloop
   endfacet
   facet normal -0.515554 0 0.856857
      outer loop
         vertex -0.0123733 0.009 0.0205646
         vertex -0.0123733 -0.009 0.0205646
         vertex -0.0100773 -0.009 0.0217818
      endloop
   endfacet
   facet normal -0.419889 0 0.907575
      outer loop
         vertex -0.0100773 0.009 0.0217818
         vertex -0.0100773 -0.009 0.0217818
         vertex -0.00766324 -0.009 0.0227437
      endloop
   endfacet
   facet normal -0.319302 0 0.947653
      outer loop
         vertex -0.00766324 0.009 0.0227437
         vertex -0.00766324 -0.009 0.0227437
         vertex -0.00515929 -0.009 0.0234389
      endloop
   endfacet
   facet normal -0.21497 0 0.976621
      outer loop
         vertex -0.00515929 0.009 0.0234389
         vertex -0.00515929 -0.009 0.0234389
         vertex -0.00259486 -0.009 0.0238593
      endloop
   endfacet
   facet normal -0.108119 0 0.994138
      outer loop
         vertex -0.00259486 0.009 0.0238593
         vertex -0.00259486 -0.009 0.0238593
         vertex 0 -0.009 0.024
      endloop
   endfacet
   facet normal 0 0 1
      outer loop
         vertex 0 -0.009 0.024
         vertex 0 0.009 0.024
         vertex -0.00259486 0.009 0.0238593
      endloop
   endfacet
   facet normal -0.108119 0 0.994138
      outer loop
         vertex -0.00259486 -0.009 0.0238593
         vertex -0.00259486 0.009 0.0238593
         vertex -0.00515929 0.009 0.0234389
      endloop
   endfacet
   facet normal -0.21497 0 0.976621
      outer loop
         vertex -0.00515929 -0.009 0.0234389
         vertex -0.00515929 0.009 0.0234389
         vertex -0.00766324 0.009 0.0227437
      endloop
   endfacet
   facet normal -0.319302 0 0.947653
      outer loop
         vertex -0.00766324 -0.009 0.0227437
         vertex -0.00766324 0.009 0.0227437
         vertex -0.0100773 0.009 0.0217818
      endloop
   endfacet
   facet normal -0.419889 0 0.907575
      outer loop
         vertex -0.0100773 -0.009 0.0217818
         vertex -0.0100773 0.009 0.0217818
         vertex -0.0123733 0.009 0.0205646
      endloop
   endfacet
   facet normal -0.515554 0 0.856857
      outer loop
         vertex -0.0123733 -0.009 0.0205646
         vertex -0.0123733 0.009 0.0205646
         vertex -0.0145242 0.009 0.0191062
      endloop
   endfacet
   facet normal -0.605174 0 0.796093
      outer loop
         vertex -0.0145242 -0.009 0.0191062
         vertex -0.0145242 0.009 0.0191062
         vertex -0.0165048 0.009 0.0174239
      endloop
   endfacet
   facet normal -0.687699 0 0.725995
      outer loop
         vertex -0.0165048 -0.009 0.0174239
         vertex -0.0165048 0.009 0.0174239
         vertex -0.0182919 0.009 0.0155373
      endloop
   endfacet
   facet normal -0.762162 0 0.647386
      outer loop
         vertex -0.0182919 -0.009 0.0155373
         vertex -0.0182919 0.009 0.0155373
         vertex -0.0198645 0.009 0.0134685
      endloop
   endfacet
   facet normal -0.827689 0 0.561187
      outer loop
         vertex -0.0198645 -0.009 0.0134685
         vertex -0.0198645 0.009 0.0134685
         vertex -0.0212043 0.009 0.0112418
      endloop
   endfacet
   facet normal -0.883512 0 0.468408
      outer loop
         vertex -0.0212043 -0.009 0.0112418
         vertex -0.0212043 0.009 0.0112418
         vertex -0.0222954 0.009 0.00888332
      endloop
   endfacet
   facet normal -0.928977 0 0.370138
      outer loop
         vertex -0.0222954 -0.009 0.00888332
         vertex -0.0222954 0.009 0.00888332
         vertex -0.0231252 0.009 0.00642068
      endloop
   endfacet
   facet normal -0.96355 0 0.267528
      outer loop
         vertex -0.0231252 -0.009 0.00642068
         vertex -0.0231252 0.009 0.00642068
         vertex -0.0236838 0.009 0.00388277
      endloop
   endfacet
   facet normal -0.986827 0 0.161782
      outer loop
         vertex -0.0236838 -0.009 0.00388277
         vertex -0.0236838 0.009 0.00388277
         vertex -0.0239648 0.009 0.00129933
      endloop
   endfacet
   facet normal -0.998533 0 0.0541389
      outer loop
         vertex -0.0239648 -0.009 0.00129933
         vertex -0.0239648 0.009 0.00129933
         vertex -0.0239648 0.009 -0.00129933
      endloop
   endfacet
   facet normal -0.998533 0 -0.0541389
      outer loop
         vertex -0.0239648 -0.009 -0.00129933
         vertex -0.0239648 0.009 -0.00129933
         vertex -0.0236838 0.009 -0.00388277
      endloop
   endfacet
   facet normal -0.986827 0 -0.161782
      outer loop
         vertex -0.0236838 -0.009 -0.00388277
         vertex -0.0236838 0.009 -0.00388277
         vertex -0.0231252 0.009 -0.00642068
      endloop
   endfacet
   facet normal -0.96355 0 -0.267528
      outer loop
         vertex -0.0231252 -0.009 -0.00642068
         vertex -0.0231252 0.009 -0.00642068
         vertex -0.0222954 0.009 -0.00888332
      endloop
   endfacet
   facet normal -0.928977 0 -0.370138
      outer loop
         vertex -0.0222954 -0.009 -0.00888332
         vertex -0.0222954 0.009 -0.00888332
         vertex -0.0212043 0.009 -0.0112418
      endloop
   endfacet
   facet normal -0.883512 0 -0.468408
      outer loop
         vertex -0.0212043 -0.009 -0.0112418
         vertex -0.0212043 0.009 -0.0112418
         vertex -0.0198645 0.009 -0.0134685
      endloop
   endfacet
   facet normal -0.827689 0 -0.561187
      outer loop
         vertex -0.0198645 -0.009 -0.0134685
         vertex -0.0198645 0.009 -0.0134685
         vertex -0.0182919 0.009 -0.0155373
      endloop
   endfacet
   facet normal -0.762162 0 -0.647386
      outer loop
         vertex -0.0182919 -0.009 -0.0155373
         vertex -0.0182919 0.009 -0.0155373
         vertex -0.0165048 0.009 -0.0174239
      endloop
   endfacet
   facet normal -0.687699 0 -0.725995
      outer loop
         vertex -0.0165048 -0.009 -0.0174239
         vertex -0.0165048 0.009 -0.0174239
         vertex -0.0145242 0.009 -0.0191062
      endloop
   endfacet
   facet normal -0.605174 0 -0.796093
      outer loop
         vertex -0.0145242 -0.009 -0.0191062
         vertex -0.0145242 0.009 -0.0191062
         vertex -0.0123733 0.009 -0.0205646
      endloop
   endfacet
   facet normal -0.515554 0 -0.856857
      outer loop
         vertex -0.0123733 -0.009 -0.0205646
         vertex -0.0123733 0.009 -0.0205646
         vertex -0.0100773 0.009 -0.0217818
      endloop
   endfacet
   facet normal -0.419889 0 -0.907575
      outer loop
         vertex -0.0100773 -0.009 -0.0217818
         vertex -0.0100773 0.009 -0.0217818
         vertex -0.00766324 0.009 -0.0227437
      endloop
   endfacet
   facet normal -0.319302 0 -0.947653
      outer loop
         vertex -0.00766324 -0.009 -0.0227437
         vertex -0.00766324 0.009 -0.0227437
         vertex -0.00515929 0.009 -0.0234389
      endloop
   endfacet
   facet normal -0.21497 0 -0.976621
      outer loop
         vertex -0.00515929 -0.009 -0.0234389
         vertex -0.00515929 0.009 -0.0234389
         vertex -0.00259486 0.009 -0.0238593
      endloop
   endfacet
   facet normal -0.108119 0 -0.994138
      outer loop
         vertex -0.00259486 -0.009 -0.0238593
         vertex -0.00259486 0.009 -0.0238593
         vertex 2.93915e-18 0.009 -0.024
      endloop
   endfacet
   facet normal 1.22465e-16 0 -1
      outer loop
         vertex 8.81746e-18 -0.009 -0.024
         vertex 2.93915e-18 0.009 -0.024
         vertex 0.00259486 0.009 -0.0238593
      endloop
   endfacet
   facet normal 0.108119 0 -0.994138
      outer loop
         vertex 0.00259486 -0.009 -0.0238593
         vertex 0.00259486 0.009 -0.0238593
         vertex 0.00515929 0.009 -0.0234389
      endloop
   endfacet
   facet normal 0.21497 0 -0.976621
      outer loop
         vertex 0.00515929 -0.009 -0.0234389
         vertex 0.00515929 0.009 -0.0234389
         vertex 0.00766324 0.009 -0.0227437
      endloop
   endfacet
   facet normal 0.319302 0 -0.947653
      outer loop
         vertex 0.00766324 -0.009 -0.0227437
         vertex 0.00766324 0.009 -0.0227437
         vertex 0.0100773 0.009 -0.0217818
      endloop
   endfacet
   facet normal 0.419889 0 -0.907575
      outer loop
         vertex 0.0100773 -0.009 -0.0217818
         vertex 0.0100773 0.009 -0.0217818
         vertex 0.0123733 0.009 -0.0205646
      endloop
   endfacet
   facet normal 0.515554 0 -0.856857
      outer loop
         vertex 0.0123733 -0.009 -0.0205646
         vertex 0.0123733 0.009 -0.0205646
         vertex 0.0145242 0.009 -0.0191062
      endloop
   endfacet
   facet normal 0.605174 0 -0.796093
      outer loop
         vertex 0.0145242 -0.009 -0.0191062
         vertex 0.0145242 0.009 -0.0191062
         vertex 0.0165048 0.009 -0.0174239
      endloop
   endfacet
   facet normal 0.687699 0 -0.725995
      outer loop
         vertex 0.0165048 -0.009 -0.0174239
         vertex 0.0165048 0.009 -0.0174239
         vertex 0.0182919 0.009 -0.0155373
      endloop
   endfacet
   facet normal 0.762162 0 -0.647386
      outer loop
         vertex 0.0182919 -0.009 -0.0155373
         vertex 0.0182919 0.009 -0.0155373
         vertex 0.0198645 0.009 -0.0134685
      endloop
   endfacet
   facet normal 0.827689 0 -0.561187
      outer loop
         vertex 0.0198645 -0.009 -0.0134685
         vertex 0.0198645 0.009 -0.0134685
         vertex 0.0212043 0.009 -0.0112418
      endloop
   endfacet
   facet normal 0.883512 0 -0.468408
      outer loop
         vertex 0.0212043 -0.009 -0.0112418
         vertex 0.0212043 0.009 -0.0112418
         vertex 0.0222954 0.009 -0.00888332
      endloop
   endfacet
   facet normal 0.928977 0 -0.370138
      outer loop
         vertex 0.0222954 -0.009 -0.00888332
         vertex 0.0222954 0.009 -0.00888332
         vertex 0.0231252 0.009 -0.00642068
      endloop
   endfacet
   facet normal 0.96355 0 -0.267528
      outer loop
         vertex 0.0231252 -0.009 -0.00642068
         vertex 0.0231252 0.009 -0.00642068
         vertex 0.0236838 0.009 -0.00388277
      endloop
   endfacet
   facet normal 0.986827 0 -0.161782
      outer loop
         vertex 0.0236838 -0.009 -0.00388277
         vertex 0.0236838 0.009 -0.00388277
         vertex 0.0239648 0.009 -0.00129933
      endloop
   endfacet
   facet normal 0.998533 0 -0.0541389
      outer loop
         vertex 0.0239648 -0.009 -0.00129933
         vertex 0.0239648 0.009 -0.00129933
         vertex 0.0239648 0.009 0.00129933
      endloop
   endfacet
   facet normal 0.998533 0 0.0541389
      outer loop
         vertex 0.0239648 -0.009 0.00129933
         vertex 0.0239648 0.009 0.00129933
         vertex 0.0236838 0.009 0.00388277
      endloop
   endfacet
   facet normal 0.986827 0 0.161782
      outer loop
         vertex 0.0236838 -0.009 0.00388277
         vertex 0.0236838 0.009 0.00388277
         vertex 0.0231252 0.009 0.00642068
      endloop
   endfacet
   facet normal 0.96355 0 0.267528
      outer loop
         vertex 0.0231252 -0.009 0.00642068
         vertex 0.0231252 0.009 0.00642068
         vertex 0.0222954 0.009 0.00888332
      endloop
   endfacet
   facet normal 0.928977 0 0.370138
      outer loop
         vertex 0.0222954 -0.009 0.00888332
         vertex 0.0222954 0.009 0.00888332
         vertex 0.0212043 0.009 0.0112418
      endloop
   endfacet
   facet normal 0.883512 0 0.468408
      outer loop
         vertex 0.0212043 -0.009 0.0112418
         vertex 0.0212043 0.009 0.0112418
         vertex 0.0198645 0.009 0.0134685
      endloop
   endfacet
   facet normal 0.827689 0 0.561187
      outer loop
         vertex 0.0198645 -0.009 0.0134685
         vertex 0.0198645 0.009 0.0134685
         vertex 0.0182919 0.009 0.0155373
      endloop
   endfacet
   facet normal 0.762162 0 0.647386
      outer loop
         vertex 0.0182919 -0.009 0.0155373
         vertex 0.0182919 0.009 0.0155373
         vertex 0.0165048 0.009 0.0174239
      endloop
   endfacet
   facet normal 0.687699 0 0.725995
      outer loop
         vertex 0.0165048 -0.009 0.0174239
         vertex 0.0165048 0.009 0.0174239
         vertex 0.0145242 0.009 0.0191062
      endloop
   endfacet
   facet normal 0.605174 0 0.796093
      outer loop
         vertex 0.0145242 -0.009 0.0191062
         vertex 0.0145242 0.009 0.0191062
         vertex 0.0123733 0.009 0.0205646
      endloop
   endfacet
   facet normal 0.515554 0 0.856857
      outer loop
         vertex 0.0123733 -0.009 0.0205646
         vertex 0.0123733 0.009 0.0205646
         vertex 0.0100773 0.009 0.0217818
      endloop
   endfacet
   facet normal 0.419889 0 0.907575
      outer loop
         vertex 0.0100773 -0.009 0.0217818
         vertex 0.0100773 0.009 0.0217818
         vertex 0.00766324 0.009 0.0227437
      endloop
   endfacet
   facet normal 0.319302 0 0.947653
      outer loop
         vertex 0.00766324 -0.009 0.0227437
         vertex 0.00766324 0.009 0.0227437
         vertex 0.00515929 0.009 0.0234389
      endloop
   endfacet
   facet normal 0.21497 0 0.976621
      outer loop
         vertex 0.00515929 -0.009 0.0234389
         vertex 0.00515929 0.009 0.0234389
         vertex 0.00259486 0.009 0.0238593
      endloop
   endfacet
   facet normal 0.108119 0 0.994138
      outer loop
         vertex 0.00259486 -0.009 0.0238593
         vertex 0.00259486 0.009 0.0238593
         vertex 0 0.009 0.024
      endloop
   endfacet
   facet normal 0 1 0
      outer loop
         vertex 0 0.009 1.46958e-18
         vertex -0.00259486 0.009 -0.0238593
         vertex -0.00515929 0.009 -0.0234389
      endloop
   endfacet
   facet normal 0 1 0
      outer loop
         vertex -0.00515929 0.009 -0.0234389
         vertex -0.00766324 0.009 -0.0227437
         vertex 0 0.009 1.46958e-18
      endloop
   endfacet
   facet normal 0 1 0
      outer loop
         vertex -0.00766324 0.009 -0.0227437
         vertex -0.0100773 0.009 -0.0217818
         vertex 0 0.009 1.46958e-18
      endloop
   endfacet
   facet normal 0 1 0
      outer loop
         vertex -0.0100773 0.009 -0.0217818
         vertex -0.0123733 0.009 -0.0205646
         vertex 0 0.009 1.46958e-18
      endloop
   endfacet
   facet normal 0 1 0
      outer loop
         vertex -0.0123733 0.009 -0.0205646
         vertex -0.0145242 0.009 -0.0191062
         vertex 0 0.009 1.46958e-18
      endloop
   endfacet
   facet normal 0 1 0
      outer loop
         vertex -0.0145242 0.009 -0.0191062
         vertex -0.0165048 0.009 -0.0174239
         vertex 0 0.009 1.46958e-18
      endloop
   endfacet
   facet normal 0 1 0
      outer loop
         vertex -0.0165048 0.009 -0.0174239
         vertex -0.0182919 0.009 -0.0155373
         vertex 0 0.009 1.46958e-18
      endloop
   endfacet
   facet normal 0 1 0
      outer loop
         vertex -0.0182919 0.009 -0.0155373
         vertex -0.0198645 0.009 -0.0134685
         vertex 0 0.009 1.46958e-18
      endloop
   endfacet
   facet normal 0 1 0
      outer loop
         vertex -0.0198645 0.009 -0.0134685
         vertex -0.0212043 0.009 -0.0112418
         vertex 0 0.009 1.46958e-18
      endloop
   endfacet
   facet normal 0 1 0
      outer loop
         vertex -0.0212043 0.009 -0.0112418
         vertex -0.0222954 0.009 -0.00888332
         vertex 0 0.009 1.46958e-18
      endloop
   endfacet
   facet normal 0 1 0
      outer loop
         vertex -0.0222954 0.009 -0.00888332
         vertex -0.0231252 0.009 -0.00642068
         vertex 0 0.009 1.46958e-18
      endloop
   endfacet
   facet normal 0 1 0
      outer loop
         vertex -0.0231252 0.009 -0.00642068
         vertex -0.0236838 0.009 -0.00388277
         vertex 0 0.009 1.46958e-18
      endloop
   endfacet
   facet normal 0 1 0
      outer loop
         vertex -0.0236838 0.009 -0.00388277
         vertex -0.0239648 0.009 -0.00129933
         vertex 0 0.009 1.46958e-18
      endloop
   endfacet
   facet normal 0 1 0
      outer loop
         vertex -0.0239648 0.009 -0.00129933
         vertex -0.0239648 0.009 0.00129933
         vertex 0 0.009 1.46958e-18
      endloop
   endfacet
   facet normal 0 1 0
      outer loop
         vertex -0.0239648 0.009 0.00129933
         vertex -0.0236838 0.009 0.00388277
         vertex 0 0.009 1.46958e-18
      endloop
   endfacet
   facet normal 0 1 0
      outer loop
         vertex -0.0236838 0.009 0.00388277
         vertex -0.0231252 0.009 0.00642068
         vertex 0 0.009 1.46958e-18
      endloop
   endfacet
   facet normal 0 1 0
      outer loop
         vertex -0.0231252 0.009 0.00642068
         vertex -0.0222954 0.009 0.00888332
         vertex 0 0.009 1.46958e-18
      endloop
   endfacet
   facet normal 0 1 0
      outer loop
         vertex -0.0222954 0.009 0.00888332
         vertex -0.0212043 0.009 0.0112418
         vertex 0 0.009 1.46958e-18
      endloop
   endfacet
   facet normal 0 1 0
      outer loop
         vertex -0.0212043 0.009 0.0112418
         vertex -0.0198645 0.009 0.0134685
         vertex 0 0.009 1.46958e-18
      endloop
   endfacet
   facet normal 0 1 0
      outer loop
         vertex -0.0198645 0.009 0.0134685
         vertex -0.0182919 0.009 0.0155373
         vertex 0 0.009 1.46958e-18
      endloop
   endfacet
   facet normal 0 1 0
      outer loop
         vertex -0.0182919 0.009 0.0155373
         vertex -0.0165048 0.009 0.0174239
         vertex 0 0.009 1.46958e-18
      endloop
   endfacet
   facet normal 0 1 0
      outer loop
         vertex -0.0165048 0.009 0.0174239
         vertex -0.0145242 0.009 0.0191062
         vertex 0 0.009 1.46958e-18
      endloop
   endfacet
   facet normal 0 1 0
      outer loop
         vertex -0.0145242 0.009 0.0191062
         vertex -0.0123733 0.009 0.0205646
         vertex 0 0.009 1.46958e-18
      endloop
   endfacet
   facet normal 0 1 0
      outer loop
         vertex -0.0123733 0.009 0.0205646
         vertex -0.0100773 0.009 0.0217818
         vertex 0 0.009 1.46958e-18
      endloop
   endfacet
   facet normal 0 1 0
      outer loop
         vertex -0.0100773 0.009 0.0217818
         vertex -0.00766324 0.009 0.0227437
         vertex 0 0.009 1.46958e-18
      endloop
   endfacet
   facet normal 0 1 0
      outer loop
         vertex -0.00766324 0.009 0.0227437
         vertex -0.00515929 0.009 0.0234389
         vertex 0 0.009 1.46958e-18
      endloop
   endfacet
   facet normal 0 1 0
      outer loop
         vertex -0.00515929 0.009 0.0234389
         vertex -0.00259486 0.009 0.0238593
         vertex 0 0.009 1.46958e-18
      endloop
   endfacet
   facet normal 0 1 0
      outer loop
         vertex -0.00259486 0.009 0.0238593
         vertex 0 0.009 0.024
         vertex 0 0.009 1.46958e-18
      endloop
   endfacet
   facet normal 0 1 0
      outer loop
         vertex 0 0.009 0.024
         vertex 0.00259486 0.009 0.0238593
         vertex 0 0.009 1.46958e-18
      endloop
   endfacet
   facet normal 0 1 0
      outer loop
         vertex 0.00259486 0.009 0.0238593
         vertex 0.00515929 0.009 0.0234389
         vertex 0 0.009 1.46958e-18
      endloop
   endfacet
   facet normal 0 1 0
      outer loop
         vertex 0.00515929 0.009 0.0234389
         vertex 0.00766324 0.009 0.0227437
         vertex 0 0.009 1.46958e-18
      endloop
   endfacet
   facet normal 0 1 0
      outer loop
         vertex 0.00766324 0.009 0.0227437
         vertex 0.0100773 0.009 0.0217818
         vertex 0 0.009 1.46958e-18
      endloop
   endfacet
   facet normal 0 1 0
      outer loop
         vertex 0.0100773 0.009 0.0217818
         vertex 0.0123733 0.009 0.0205646
         vertex 0 0.009 1.46958e-18
      endloop
   endfacet
   facet normal 0 1 0
      outer loop
         vertex 0.0123733 0.009 0.0205646
         vertex 0.0145242 0.009 0.0191062
         vertex 0 0.009 1.46958e-18
      endloop
   endfacet
   facet normal 0 1 0
      outer loop
         vertex 0.0145242 0.009 0.0191062
         vertex 0.0165048 0.009 0.0174239
         vertex 0 0.009 1.46958e-18
      endloop
   endfacet
   facet normal 0 1 0
      outer loop
         vertex 0.0165048 0.009 0.0174239
         vertex 0.0182919 0.009 0.0155373
         vertex 0 0.009 1.46958e-18
      endloop
   endfacet
   facet normal 0 1 0
      outer loop
         vertex 0.0182919 0.009 0.0155373
         vertex 0.0198645 0.009 0.0134685
         vertex 0 0.009 1.46958e-18
      endloop
   endfacet
   facet normal 0 1 0
      outer loop
         vertex 0.0198645 0.009 0.0134685
         vertex 0.0212043 0.009 0.0112418
         vertex 0 0.009 1.46958e-18
      endloop
   endfacet
   facet normal 0 1 0
      outer loop
         vertex 0.0212043 0.009 0.0112418
         vertex 0.0222954 0.009 0.00888332
         vertex 0 0.009 1.46958e-18
      endloop
   endfacet
   facet normal 0 1 0
      outer loop
         vertex 0.0222954 0.009 0.00888332
         vertex 0.0231252 0.009 0.00642068
         vertex 0 0.009 1.46958e-18
      endloop
   endfacet
   facet normal 0 1 0
      outer loop
         vertex 0.0231252 0.009 0.00642068
         vertex 0.0236838 0.009 0.00388277
         vertex 0 0.009 1.46958e-18
      endloop
   endfacet
   facet normal 0 1 0
      outer loop
         vertex 0.0236838 0.009 0.00388277
         vertex 0.0239648 0.009 0.00129933
         vertex 0 0.009 1.46958e-18
      endloop
   endfacet
   facet normal 0 1 0
      outer loop
         vertex 0.0239648 0.009 0.00129933
         vertex 0.0239648 0.009 -0.00129933
         vertex 0 0.009 1.46958e-18
      endloop
   endfacet
   facet normal 0 1 0
      outer loop
         vertex 0.0239648 0.009 -0.00129933
         vertex 0.0236838 0.009 -0.00388277
         vertex 0 0.009 1.46958e-18
      endloop
   endfacet
   facet normal 0 1 0
      outer loop
         vertex 0.0236838 0.009 -0.00388277
         vertex 0.0231252 0.009 -0.00642068
         vertex 0 0.009 1.46958e-18
      endloop
   endfacet
   facet normal 0 1 0
      outer loop
         vertex 0.0231252 0.009 -0.00642068
         vertex 0.0222954 0.009 -0.00888332
         vertex 0 0.009 1.46958e-18
      endloop
   endfacet
   facet normal 0 1 0
      outer loop
         vertex 0.0222954 0.009 -0.00888332
         vertex 0.0212043 0.009 -0.0112418
         vertex 0 0.009 1.46958e-18
      endloop
   endfacet
   facet normal 0 1 0
      outer loop
         vertex 0.0212043 0.009 -0.0112418
         vertex 0.0198645 0.009 -0.0134685
         vertex 0 0.009 1.46958e-18
      endloop
   endfacet
   facet normal 0 1 0
      outer loop
         vertex 0.0198645 0.009 -0.0134685
         vertex 0.0182919 0.009 -0.0155373
         vertex 0 0.009 1.46958e-18
      endloop
   endfacet
   facet normal 0 1 0
      outer loop
         vertex 0.0182919 0.009 -0.0155373
         vertex 0.0165048 0.009 -0.0174239
         vertex 0 0.009 1.46958e-18
      endloop
   endfacet
   facet normal 0 1 0
      outer loop
         vertex 0.0165048 0.009 -0.0174239
         vertex 0.0145242 0.009 -0.0191062
         vertex 0 0.009 1.46958e-18
      endloop
   endfacet
   facet normal 0 1 0
      outer loop
         vertex 0.0145242 0.009 -0.0191062
         vertex 0.0123733 0.009 -0.0205646
         vertex 0 0.009 1.46958e-18
      endloop
   endfacet
   facet normal 0 1 0
      outer loop
         vertex 0.0123733 0.009 -0.0205646
         vertex 0.0100773 0.009 -0.0217818
         vertex 0 0.009 1.46958e-18
      endloop
   endfacet
   facet normal 0 1 0
      outer loop
         vertex 0.0100773 0.009 -0.0217818
         vertex 0.00766324 0.009 -0.0227437
         vertex 0 0.009 1.46958e-18
      endloop
   endfacet
   facet normal 0 1 0
      outer loop
         vertex 0.00766324 0.009 -0.0227437
         vertex 0.00515929 0.009 -0.0234389
         vertex 0 0.009 1.46958e-18
      endloop
   endfacet
   facet normal 0 1 0
      outer loop
         vertex 0.00515929 0.009 -0.0234389
         vertex 0.00259486 0.009 -0.0238593
         vertex 0 0.009 1.46958e-18
      endloop
   endfacet
   facet normal 0 1 0
      outer loop
         vertex 0.00259486 0.009 -0.0238593
         vertex 2.93915e-18 0.009 -0.024
         vertex 0 0.009 1.46958e-18
      endloop
   endfacet
   facet normal 0 1 0
      outer loop
         vertex 2.93915e-18 0.009 -0.024
         vertex -0.00259486 0.009 -0.0238593
         vertex 0 0.009 1.46958e-18
      endloop
   endfacet
endsolid Part 1. Units = meters