solid RFID×°ÅäÌå. STL generated by ONSHAPE BY PTC INC, 1.216. Units = meters
   facet normal 0.866025 0.5 4.93691e-18
      outer loop
         vertex -0.0569193 0.00978849 -0.0222
         vertex -0.0569193 0.00978849 0.0218
         vertex -0.0544193 0.00545836 0.0218
      endloop
   endfacet
   facet normal 0.866025 0.5 4.93691e-18
      outer loop
         vertex -0.0544193 0.00545836 0.0218
         vertex -0.0544193 0.00545836 -0.0222
         vertex -0.0569193 0.00978849 -0.0222
      endloop
   endfacet
   facet normal 0.5 -0.866025 2.20052e-16
      outer loop
         vertex -0.0544193 0.00545836 -0.0222
         vertex -0.0544193 0.00545836 0.0218
         vertex -0.0557184 0.00470836 0.0218
      endloop
   endfacet
   facet normal 0.5 -0.866025 2.20052e-16
      outer loop
         vertex -0.0557184 0.00470836 0.0218
         vertex -0.0557184 0.00470836 -0.0222
         vertex -0.0544193 0.00545836 -0.0222
      endloop
   endfacet
   facet normal -0.866025 -0.5 -4.93691e-18
      outer loop
         vertex -0.0557184 0.00470836 0.0218
         vertex -0.0582184 0.00903849 0.0218
         vertex -0.0582184 0.00903849 -0.0222
      endloop
   endfacet
   facet normal -0.866025 -0.5 -4.93691e-18
      outer loop
         vertex -0.0582184 0.00903849 -0.0222
         vertex -0.0557184 0.00470836 -0.0222
         vertex -0.0557184 0.00470836 0.0218
      endloop
   endfacet
   facet normal 2.8752e-17 -1.75696e-16 -1
      outer loop
         vertex -0.0569193 0.00978849 -0.0222
         vertex -0.0544193 0.00545836 -0.0222
         vertex -0.0557184 0.00470836 -0.0222
      endloop
   endfacet
   facet normal 2.8752e-17 -1.75696e-16 -1
      outer loop
         vertex -0.0557184 0.00470836 -0.0222
         vertex -0.0582184 0.00903849 -0.0222
         vertex -0.0569193 0.00978849 -0.0222
      endloop
   endfacet
   facet normal -0.5 0.866025 -2.20052e-16
      outer loop
         vertex -0.0582184 0.00903849 0.0218
         vertex -0.0569193 0.00978849 0.0218
         vertex -0.0569193 0.00978849 -0.0222
      endloop
   endfacet
   facet normal -0.5 0.866025 -2.20052e-16
      outer loop
         vertex -0.0569193 0.00978849 -0.0222
         vertex -0.0582184 0.00903849 -0.0222
         vertex -0.0582184 0.00903849 0.0218
      endloop
   endfacet
   facet normal -2.8752e-17 1.75696e-16 1
      outer loop
         vertex -0.0569193 0.00978849 0.0218
         vertex -0.0582184 0.00903849 0.0218
         vertex -0.0557184 0.00470836 0.0218
      endloop
   endfacet
   facet normal -2.8752e-17 1.75696e-16 1
      outer loop
         vertex -0.0557184 0.00470836 0.0218
         vertex -0.0544193 0.00545836 0.0218
         vertex -0.0569193 0.00978849 0.0218
      endloop
   endfacet
endsolid RFID×°ÅäÌå. Units = meters