solid RFID×°ÅäÌå. STL generated by ONSHAPE BY PTC INC, 1.216. Units = meters
   facet normal -0.866025 0.5 -3.14741e-17
      outer loop
         vertex 0.0571059 0.0099117 -0.022
         vertex 0.0546059 0.00558157 -0.022
         vertex 0.0546059 0.00558157 0.022
      endloop
   endfacet
   facet normal -0.866025 0.5 -3.14741e-17
      outer loop
         vertex 0.0546059 0.00558157 0.022
         vertex 0.0571059 0.0099117 0.022
         vertex 0.0571059 0.0099117 -0.022
      endloop
   endfacet
   facet normal -0.5 -0.866025 1.10026e-16
      outer loop
         vertex 0.055905 0.00483157 0.022
         vertex 0.0546059 0.00558157 0.022
         vertex 0.0546059 0.00558157 -0.022
      endloop
   endfacet
   facet normal -0.5 -0.866025 1.10026e-16
      outer loop
         vertex 0.0546059 0.00558157 -0.022
         vertex 0.055905 0.00483157 -0.022
         vertex 0.055905 0.00483157 0.022
      endloop
   endfacet
   facet normal 0.866025 -0.5 3.14741e-17
      outer loop
         vertex 0.055905 0.00483157 0.022
         vertex 0.055905 0.00483157 -0.022
         vertex 0.058405 0.0091617 -0.022
      endloop
   endfacet
   facet normal 0.866025 -0.5 3.14741e-17
      outer loop
         vertex 0.058405 0.0091617 -0.022
         vertex 0.058405 0.0091617 0.022
         vertex 0.055905 0.00483157 0.022
      endloop
   endfacet
   facet normal 2.77556e-17 1.11022e-16 1
      outer loop
         vertex 0.058405 0.0091617 0.022
         vertex 0.0571059 0.0099117 0.022
         vertex 0.0546059 0.00558157 0.022
      endloop
   endfacet
   facet normal 2.77556e-17 1.11022e-16 1
      outer loop
         vertex 0.0546059 0.00558157 0.022
         vertex 0.055905 0.00483157 0.022
         vertex 0.058405 0.0091617 0.022
      endloop
   endfacet
   facet normal 0.5 0.866025 -1.10026e-16
      outer loop
         vertex 0.058405 0.0091617 -0.022
         vertex 0.0571059 0.0099117 -0.022
         vertex 0.0571059 0.0099117 0.022
      endloop
   endfacet
   facet normal 0.5 0.866025 -1.10026e-16
      outer loop
         vertex 0.0571059 0.0099117 0.022
         vertex 0.058405 0.0091617 0.022
         vertex 0.058405 0.0091617 -0.022
      endloop
   endfacet
   facet normal -2.77556e-17 -1.11022e-16 -1
      outer loop
         vertex 0.0546059 0.00558157 -0.022
         vertex 0.0571059 0.0099117 -0.022
         vertex 0.058405 0.0091617 -0.022
      endloop
   endfacet
   facet normal -2.77556e-17 -1.11022e-16 -1
      outer loop
         vertex 0.058405 0.0091617 -0.022
         vertex 0.055905 0.00483157 -0.022
         vertex 0.0546059 0.00558157 -0.022
      endloop
   endfacet
endsolid RFID×°ÅäÌå. Units = meters