solid RGB FOV cone. STL generated by ONSHAPE BY PTC INC, 1.216. Units = meters
   facet normal 0 -0.358368 0.93358
      outer loop
         vertex -0.0325 0.0162 -1.11022e-16
         vertex 0.0705921 0.1662 0.0575796
         vertex -0.135592 0.1662 0.0575796
      endloop
   endfacet
   facet normal 0 1 0
      outer loop
         vertex 0.0705921 0.1662 0.0575796
         vertex 0.0705921 0.1662 -0.0575796
         vertex -0.135592 0.1662 -0.0575796
      endloop
   endfacet
   facet normal 0 1 0
      outer loop
         vertex -0.135592 0.1662 -0.0575796
         vertex -0.135592 0.1662 0.0575796
         vertex 0.0705921 0.1662 0.0575796
      endloop
   endfacet
   facet normal 0 -0.358368 -0.93358
      outer loop
         vertex -0.0325 0.0162 -1.11022e-16
         vertex -0.135592 0.1662 -0.0575796
         vertex 0.0705921 0.1662 -0.0575796
      endloop
   endfacet
   facet normal 0.824126 -0.566406 0
      outer loop
         vertex 0.0705921 0.1662 -0.0575796
         vertex 0.0705921 0.1662 0.0575796
         vertex -0.0325 0.0162 -1.11022e-16
      endloop
   endfacet
   facet normal -0.824126 -0.566406 0
      outer loop
         vertex -0.135592 0.1662 0.0575796
         vertex -0.135592 0.1662 -0.0575796
         vertex -0.0325 0.0162 -1.11022e-16
      endloop
   endfacet
endsolid RGB FOV cone. Units = meters