solid RoboMaster GM6020 Ö±Á÷ÎÞË¢µç»ú. STL generated by ONSHAPE BY PTC INC, 1.216. Units = meters
   facet normal 0.866025 -0.5 0
      outer loop
         vertex -0.0191216 0.0191805 -0.112348
         vertex -0.0162466 0.0241601 -0.112348
         vertex -0.0162466 0.0241601 -0.112148
      endloop
   endfacet
   facet normal 0.866025 -0.5 0
      outer loop
         vertex -0.0162466 0.0241601 -0.112148
         vertex -0.0191216 0.0191805 -0.112148
         vertex -0.0191216 0.0191805 -0.112348
      endloop
   endfacet
   facet normal 0 0 -1
      outer loop
         vertex -0.0162466 0.0241601 -0.112148
         vertex -0.0172917 0.02205 -0.112148
         vertex -0.0178167 0.0211406 -0.112148
      endloop
   endfacet
   facet normal 0 0 -1
      outer loop
         vertex -0.0162466 0.0241601 -0.112148
         vertex -0.0171917 0.0222232 -0.112148
         vertex -0.0172917 0.02205 -0.112148
      endloop
   endfacet
   facet normal 0 0 -1
      outer loop
         vertex -0.0178167 0.0211406 -0.112148
         vertex -0.0191216 0.0191805 -0.112148
         vertex -0.0162466 0.0241601 -0.112148
      endloop
   endfacet
   facet normal 0 0 -1
      outer loop
         vertex -0.0162466 0.0241601 -0.112148
         vertex -0.0161167 0.0240851 -0.112148
         vertex -0.0171917 0.0222232 -0.112148
      endloop
   endfacet
   facet normal 0 0 -1
      outer loop
         vertex -0.0178167 0.0211406 -0.112148
         vertex -0.0179167 0.0209674 -0.112148
         vertex -0.0191216 0.0191805 -0.112148
      endloop
   endfacet
   facet normal 0 0 -1
      outer loop
         vertex -0.0179167 0.0209674 -0.112148
         vertex -0.0189917 0.0191055 -0.112148
         vertex -0.0191216 0.0191805 -0.112148
      endloop
   endfacet
   facet normal 0.866025 -0.5 0
      outer loop
         vertex -0.0179167 0.0209674 -0.111398
         vertex -0.0189917 0.0191055 -0.111398
         vertex -0.0189917 0.0191055 -0.112148
      endloop
   endfacet
   facet normal 0.866025 -0.5 0
      outer loop
         vertex -0.0189917 0.0191055 -0.112148
         vertex -0.0179167 0.0209674 -0.112148
         vertex -0.0179167 0.0209674 -0.111398
      endloop
   endfacet
   facet normal 0.866025 -0.5 0
      outer loop
         vertex -0.0171917 0.0222232 -0.112148
         vertex -0.0161167 0.0240851 -0.112148
         vertex -0.0161167 0.0240851 -0.111398
      endloop
   endfacet
   facet normal 0.866025 -0.5 0
      outer loop
         vertex -0.0161167 0.0240851 -0.111398
         vertex -0.0171917 0.0222232 -0.111398
         vertex -0.0171917 0.0222232 -0.112148
      endloop
   endfacet
   facet normal -0.612372 0.353553 -0.707107
      outer loop
         vertex -0.0178167 0.0211406 -0.112148
         vertex -0.0175569 0.0209906 -0.112448
         vertex -0.0176569 0.0208174 -0.112448
      endloop
   endfacet
   facet normal -0.612372 0.353553 -0.707107
      outer loop
         vertex -0.0176569 0.0208174 -0.112448
         vertex -0.0179167 0.0209674 -0.112148
         vertex -0.0178167 0.0211406 -0.112148
      endloop
   endfacet
   facet normal 0 0 -1
      outer loop
         vertex -0.0167908 0.0203174 -0.112448
         vertex -0.0176569 0.0208174 -0.112448
         vertex -0.0175569 0.0209906 -0.112448
      endloop
   endfacet
   facet normal 0 0 -1
      outer loop
         vertex -0.0175569 0.0209906 -0.112448
         vertex -0.0166908 0.0204906 -0.112448
         vertex -0.0167908 0.0203174 -0.112448
      endloop
   endfacet
   facet normal 0.866025 -0.5 0
      outer loop
         vertex -0.0167908 0.0203174 -0.112448
         vertex -0.0166908 0.0204906 -0.112448
         vertex -0.0166908 0.0204906 -0.112148
      endloop
   endfacet
   facet normal 0.866025 -0.5 0
      outer loop
         vertex -0.0166908 0.0204906 -0.112148
         vertex -0.0167908 0.0203174 -0.112148
         vertex -0.0167908 0.0203174 -0.112448
      endloop
   endfacet
   facet normal 0.5 0.866025 0
      outer loop
         vertex -0.0174703 0.0209406 -0.111398
         vertex -0.0174703 0.0209406 -0.112148
         vertex -0.0178167 0.0211406 -0.112148
      endloop
   endfacet
   facet normal 0.5 0.866025 0
      outer loop
         vertex -0.0166908 0.0204906 -0.112448
         vertex -0.0175569 0.0209906 -0.112448
         vertex -0.0174703 0.0209406 -0.112148
      endloop
   endfacet
   facet normal 0.5 0.866025 0
      outer loop
         vertex -0.0178167 0.0211406 -0.112148
         vertex -0.0178167 0.0211406 -0.111398
         vertex -0.0174703 0.0209406 -0.111398
      endloop
   endfacet
   facet normal 0.5 0.866025 0
      outer loop
         vertex -0.0174703 0.0209406 -0.112148
         vertex -0.0175569 0.0209906 -0.112448
         vertex -0.0178167 0.0211406 -0.112148
      endloop
   endfacet
   facet normal 0.5 0.866025 0
      outer loop
         vertex -0.0174703 0.0209406 -0.112148
         vertex -0.0166908 0.0204906 -0.112148
         vertex -0.0166908 0.0204906 -0.112448
      endloop
   endfacet
   facet normal -0.5 -0.866025 0
      outer loop
         vertex -0.0179167 0.0209674 -0.111398
         vertex -0.0179167 0.0209674 -0.112148
         vertex -0.0175703 0.0207674 -0.112148
      endloop
   endfacet
   facet normal -0.5 -0.866025 0
      outer loop
         vertex -0.0179167 0.0209674 -0.112148
         vertex -0.0176569 0.0208174 -0.112448
         vertex -0.0175703 0.0207674 -0.112148
      endloop
   endfacet
   facet normal -0.5 -0.866025 0
      outer loop
         vertex -0.0167908 0.0203174 -0.112448
         vertex -0.0167908 0.0203174 -0.112148
         vertex -0.0175703 0.0207674 -0.112148
      endloop
   endfacet
   facet normal -0.5 -0.866025 0
      outer loop
         vertex -0.0175703 0.0207674 -0.112148
         vertex -0.0176569 0.0208174 -0.112448
         vertex -0.0167908 0.0203174 -0.112448
      endloop
   endfacet
   facet normal -0.5 -0.866025 0
      outer loop
         vertex -0.0175703 0.0207674 -0.112148
         vertex -0.0175703 0.0207674 -0.111398
         vertex -0.0179167 0.0209674 -0.111398
      endloop
   endfacet
   facet normal 0 0 1
      outer loop
         vertex -0.0167908 0.0203174 -0.112148
         vertex -0.0166908 0.0204906 -0.112148
         vertex -0.0174703 0.0209406 -0.112148
      endloop
   endfacet
   facet normal 0 0 1
      outer loop
         vertex -0.0174703 0.0209406 -0.112148
         vertex -0.0175703 0.0207674 -0.112148
         vertex -0.0167908 0.0203174 -0.112148
      endloop
   endfacet
   facet normal 0.866025 -0.5 0
      outer loop
         vertex -0.0174703 0.0209406 -0.112148
         vertex -0.0174703 0.0209406 -0.111398
         vertex -0.0175703 0.0207674 -0.111398
      endloop
   endfacet
   facet normal 0.866025 -0.5 0
      outer loop
         vertex -0.0175703 0.0207674 -0.111398
         vertex -0.0175703 0.0207674 -0.112148
         vertex -0.0174703 0.0209406 -0.112148
      endloop
   endfacet
   facet normal 0.866025 -0.5 0
      outer loop
         vertex -0.0172917 0.02205 -0.111398
         vertex -0.0178167 0.0211406 -0.111398
         vertex -0.0178167 0.0211406 -0.112148
      endloop
   endfacet
   facet normal 0.866025 -0.5 0
      outer loop
         vertex -0.0178167 0.0211406 -0.112148
         vertex -0.0172917 0.02205 -0.112148
         vertex -0.0172917 0.02205 -0.111398
      endloop
   endfacet
   facet normal -0.612372 0.353553 -0.707107
      outer loop
         vertex -0.0171917 0.0222232 -0.112148
         vertex -0.0169319 0.0220732 -0.112448
         vertex -0.0170319 0.0219 -0.112448
      endloop
   endfacet
   facet normal -0.612372 0.353553 -0.707107
      outer loop
         vertex -0.0170319 0.0219 -0.112448
         vertex -0.0172917 0.02205 -0.112148
         vertex -0.0171917 0.0222232 -0.112148
      endloop
   endfacet
   facet normal 0 0 -1
      outer loop
         vertex -0.0161658 0.0214 -0.112448
         vertex -0.0170319 0.0219 -0.112448
         vertex -0.0169319 0.0220732 -0.112448
      endloop
   endfacet
   facet normal 0 0 -1
      outer loop
         vertex -0.0169319 0.0220732 -0.112448
         vertex -0.0160658 0.0215732 -0.112448
         vertex -0.0161658 0.0214 -0.112448
      endloop
   endfacet
   facet normal 0.866025 -0.5 0
      outer loop
         vertex -0.0161658 0.0214 -0.112448
         vertex -0.0160658 0.0215732 -0.112448
         vertex -0.0160658 0.0215732 -0.112148
      endloop
   endfacet
   facet normal 0.866025 -0.5 0
      outer loop
         vertex -0.0160658 0.0215732 -0.112148
         vertex -0.0161658 0.0214 -0.112148
         vertex -0.0161658 0.0214 -0.112448
      endloop
   endfacet
   facet normal -0.5 -0.866025 0
      outer loop
         vertex -0.0172917 0.02205 -0.111398
         vertex -0.0172917 0.02205 -0.112148
         vertex -0.0169453 0.02185 -0.112148
      endloop
   endfacet
   facet normal -0.5 -0.866025 0
      outer loop
         vertex -0.0172917 0.02205 -0.112148
         vertex -0.0170319 0.0219 -0.112448
         vertex -0.0169453 0.02185 -0.112148
      endloop
   endfacet
   facet normal -0.5 -0.866025 0
      outer loop
         vertex -0.0161658 0.0214 -0.112448
         vertex -0.0161658 0.0214 -0.112148
         vertex -0.0169453 0.02185 -0.112148
      endloop
   endfacet
   facet normal -0.5 -0.866025 0
      outer loop
         vertex -0.0169453 0.02185 -0.112148
         vertex -0.0170319 0.0219 -0.112448
         vertex -0.0161658 0.0214 -0.112448
      endloop
   endfacet
   facet normal -0.5 -0.866025 0
      outer loop
         vertex -0.0169453 0.02185 -0.112148
         vertex -0.0169453 0.02185 -0.111398
         vertex -0.0172917 0.02205 -0.111398
      endloop
   endfacet
   facet normal 0.5 0.866025 0
      outer loop
         vertex -0.0168453 0.0220232 -0.111398
         vertex -0.0168453 0.0220232 -0.112148
         vertex -0.0171917 0.0222232 -0.112148
      endloop
   endfacet
   facet normal 0.5 0.866025 0
      outer loop
         vertex -0.0160658 0.0215732 -0.112448
         vertex -0.0169319 0.0220732 -0.112448
         vertex -0.0168453 0.0220232 -0.112148
      endloop
   endfacet
   facet normal 0.5 0.866025 0
      outer loop
         vertex -0.0171917 0.0222232 -0.112148
         vertex -0.0171917 0.0222232 -0.111398
         vertex -0.0168453 0.0220232 -0.111398
      endloop
   endfacet
   facet normal 0.5 0.866025 0
      outer loop
         vertex -0.0168453 0.0220232 -0.112148
         vertex -0.0169319 0.0220732 -0.112448
         vertex -0.0171917 0.0222232 -0.112148
      endloop
   endfacet
   facet normal 0.5 0.866025 0
      outer loop
         vertex -0.0168453 0.0220232 -0.112148
         vertex -0.0160658 0.0215732 -0.112148
         vertex -0.0160658 0.0215732 -0.112448
      endloop
   endfacet
   facet normal 0 0 1
      outer loop
         vertex -0.0160658 0.0215732 -0.112148
         vertex -0.0168453 0.0220232 -0.112148
         vertex -0.0169453 0.02185 -0.112148
      endloop
   endfacet
   facet normal 0 0 1
      outer loop
         vertex -0.0169453 0.02185 -0.112148
         vertex -0.0161658 0.0214 -0.112148
         vertex -0.0160658 0.0215732 -0.112148
      endloop
   endfacet
   facet normal 0.866025 -0.5 0
      outer loop
         vertex -0.0168453 0.0220232 -0.112148
         vertex -0.0168453 0.0220232 -0.111398
         vertex -0.0169453 0.02185 -0.111398
      endloop
   endfacet
   facet normal 0.866025 -0.5 0
      outer loop
         vertex -0.0169453 0.02185 -0.111398
         vertex -0.0169453 0.02185 -0.112148
         vertex -0.0168453 0.0220232 -0.112148
      endloop
   endfacet
   facet normal 0 0 -1
      outer loop
         vertex -0.0161167 0.0240851 -0.111398
         vertex -0.0156836 0.0238351 -0.111398
         vertex -0.0168453 0.0220232 -0.111398
      endloop
   endfacet
   facet normal 0 0 -1
      outer loop
         vertex -0.0156836 0.0238351 -0.111398
         vertex -0.0174703 0.0209406 -0.111398
         vertex -0.0169453 0.02185 -0.111398
      endloop
   endfacet
   facet normal 0 0 -1
      outer loop
         vertex -0.0169453 0.02185 -0.111398
         vertex -0.0168453 0.0220232 -0.111398
         vertex -0.0156836 0.0238351 -0.111398
      endloop
   endfacet
   facet normal 0 0 -1
      outer loop
         vertex -0.0172917 0.02205 -0.111398
         vertex -0.0169453 0.02185 -0.111398
         vertex -0.0174703 0.0209406 -0.111398
      endloop
   endfacet
   facet normal 0 0 -1
      outer loop
         vertex -0.0185586 0.0188555 -0.111398
         vertex -0.0175703 0.0207674 -0.111398
         vertex -0.0174703 0.0209406 -0.111398
      endloop
   endfacet
   facet normal 0 0 -1
      outer loop
         vertex -0.0189917 0.0191055 -0.111398
         vertex -0.0179167 0.0209674 -0.111398
         vertex -0.0175703 0.0207674 -0.111398
      endloop
   endfacet
   facet normal 0 0 -1
      outer loop
         vertex -0.0174703 0.0209406 -0.111398
         vertex -0.0178167 0.0211406 -0.111398
         vertex -0.0172917 0.02205 -0.111398
      endloop
   endfacet
   facet normal 0 0 -1
      outer loop
         vertex -0.0175703 0.0207674 -0.111398
         vertex -0.0185586 0.0188555 -0.111398
         vertex -0.0189917 0.0191055 -0.111398
      endloop
   endfacet
   facet normal 0 0 -1
      outer loop
         vertex -0.0174703 0.0209406 -0.111398
         vertex -0.0156836 0.0238351 -0.111398
         vertex -0.0185586 0.0188555 -0.111398
      endloop
   endfacet
   facet normal 0 0 -1
      outer loop
         vertex -0.0168453 0.0220232 -0.111398
         vertex -0.0171917 0.0222232 -0.111398
         vertex -0.0161167 0.0240851 -0.111398
      endloop
   endfacet
   facet normal 0 0 -1
      outer loop
         vertex -0.0175358 0.0243271 -0.112348
         vertex -0.0174925 0.0243021 -0.112348
         vertex -0.0198675 0.0201885 -0.112348
      endloop
   endfacet
   facet normal 0 0 -1
      outer loop
         vertex -0.0175358 0.0243271 -0.112348
         vertex -0.0199108 0.0202135 -0.112348
         vertex -0.0199368 0.0202285 -0.112348
      endloop
   endfacet
   facet normal 0 0 -1
      outer loop
         vertex -0.0162466 0.0241601 -0.112348
         vertex -0.0198675 0.0201885 -0.112348
         vertex -0.0174925 0.0243021 -0.112348
      endloop
   endfacet
   facet normal 0 0 -1
      outer loop
         vertex -0.0199368 0.0202285 -0.112348
         vertex -0.0175618 0.0243421 -0.112348
         vertex -0.0175358 0.0243271 -0.112348
      endloop
   endfacet
   facet normal 0 0 -1
      outer loop
         vertex -0.0198675 0.0201885 -0.112348
         vertex -0.0199108 0.0202135 -0.112348
         vertex -0.0175358 0.0243271 -0.112348
      endloop
   endfacet
   facet normal 0 0 -1
      outer loop
         vertex -0.0191216 0.0191805 -0.112348
         vertex -0.0201175 0.0197555 -0.112348
         vertex -0.0198675 0.0201885 -0.112348
      endloop
   endfacet
   facet normal 0 0 -1
      outer loop
         vertex -0.0198675 0.0201885 -0.112348
         vertex -0.0162466 0.0241601 -0.112348
         vertex -0.0191216 0.0191805 -0.112348
      endloop
   endfacet
   facet normal 0 0 -1
      outer loop
         vertex -0.0174925 0.0243021 -0.112348
         vertex -0.0172425 0.0247351 -0.112348
         vertex -0.0162466 0.0241601 -0.112348
      endloop
   endfacet
   facet normal 0.866025 -0.5 0
      outer loop
         vertex -0.0175618 0.0243421 -0.112348
         vertex -0.0199368 0.0202285 -0.112348
         vertex -0.0199368 0.0202285 -0.112448
      endloop
   endfacet
   facet normal 0.866025 -0.5 0
      outer loop
         vertex -0.0199368 0.0202285 -0.112448
         vertex -0.0175618 0.0243421 -0.112448
         vertex -0.0175618 0.0243421 -0.112348
      endloop
   endfacet
   facet normal -0.5 -0.866025 0
      outer loop
         vertex -0.0175618 0.0243421 -0.112448
         vertex -0.0175358 0.0243271 -0.112448
         vertex -0.0175358 0.0243271 -0.112348
      endloop
   endfacet
   facet normal -0.5 -0.866025 0
      outer loop
         vertex -0.0175358 0.0243271 -0.112348
         vertex -0.0175618 0.0243421 -0.112348
         vertex -0.0175618 0.0243421 -0.112448
      endloop
   endfacet
   facet normal 0.5 0.866025 0
      outer loop
         vertex -0.0199368 0.0202285 -0.112348
         vertex -0.0199108 0.0202135 -0.112348
         vertex -0.0199108 0.0202135 -0.112448
      endloop
   endfacet
   facet normal 0.5 0.866025 0
      outer loop
         vertex -0.0199108 0.0202135 -0.112448
         vertex -0.0199368 0.0202285 -0.112448
         vertex -0.0199368 0.0202285 -0.112348
      endloop
   endfacet
   facet normal -0.5 -0.866025 0
      outer loop
         vertex -0.0199108 0.0202135 -0.112348
         vertex -0.0198675 0.0201885 -0.112348
         vertex -0.0198675 0.0201885 -0.111748
      endloop
   endfacet
   facet normal -0.5 -0.866025 0
      outer loop
         vertex -0.0198675 0.0201885 -0.111748
         vertex -0.0199108 0.0202135 -0.111748
         vertex -0.0199108 0.0202135 -0.112348
      endloop
   endfacet
   facet normal -0.866025 0.5 0
      outer loop
         vertex -0.0201175 0.0197555 -0.111748
         vertex -0.0198675 0.0201885 -0.111748
         vertex -0.0198675 0.0201885 -0.112348
      endloop
   endfacet
   facet normal -0.866025 0.5 0
      outer loop
         vertex -0.0198675 0.0201885 -0.112348
         vertex -0.0201175 0.0197555 -0.112348
         vertex -0.0201175 0.0197555 -0.111748
      endloop
   endfacet
   facet normal 0.866025 -0.5 0
      outer loop
         vertex -0.0200108 0.0200403 -0.111748
         vertex -0.0200108 0.0200403 -0.112448
         vertex -0.0199108 0.0202135 -0.112348
      endloop
   endfacet
   facet normal 0.866025 -0.5 0
      outer loop
         vertex -0.0200108 0.0200403 -0.112448
         vertex -0.0199108 0.0202135 -0.112448
         vertex -0.0199108 0.0202135 -0.112348
      endloop
   endfacet
   facet normal 0.866025 -0.5 0
      outer loop
         vertex -0.0199108 0.0202135 -0.112348
         vertex -0.0199108 0.0202135 -0.111748
         vertex -0.0200108 0.0200403 -0.111748
      endloop
   endfacet
   facet normal 0 0 -1
      outer loop
         vertex -0.0198675 0.0201885 -0.111748
         vertex -0.0201175 0.0197555 -0.111748
         vertex -0.0200108 0.0200403 -0.111748
      endloop
   endfacet
   facet normal 0 0 -1
      outer loop
         vertex -0.0201868 0.0197955 -0.111748
         vertex -0.0200368 0.0200553 -0.111748
         vertex -0.0200108 0.0200403 -0.111748
      endloop
   endfacet
   facet normal 0 0 -1
      outer loop
         vertex -0.0200108 0.0200403 -0.111748
         vertex -0.0201175 0.0197555 -0.111748
         vertex -0.0201868 0.0197955 -0.111748
      endloop
   endfacet
   facet normal 0 0 -1
      outer loop
         vertex -0.0200108 0.0200403 -0.111748
         vertex -0.0199108 0.0202135 -0.111748
         vertex -0.0198675 0.0201885 -0.111748
      endloop
   endfacet
   facet normal -0.5 -0.866025 0
      outer loop
         vertex -0.0200108 0.0200403 -0.112448
         vertex -0.0200108 0.0200403 -0.111748
         vertex -0.0200368 0.0200553 -0.111748
      endloop
   endfacet
   facet normal -0.5 -0.866025 0
      outer loop
         vertex -0.0200368 0.0200553 -0.111748
         vertex -0.0200368 0.0200553 -0.112448
         vertex -0.0200108 0.0200403 -0.112448
      endloop
   endfacet
   facet normal 0.866025 -0.5 0
      outer loop
         vertex -0.0201868 0.0197955 -0.111748
         vertex -0.0201868 0.0197955 -0.112448
         vertex -0.0200368 0.0200553 -0.112448
      endloop
   endfacet
   facet normal 0.866025 -0.5 0
      outer loop
         vertex -0.0200368 0.0200553 -0.112448
         vertex -0.0200368 0.0200553 -0.111748
         vertex -0.0201868 0.0197955 -0.111748
      endloop
   endfacet
   facet normal 0.5 0.866025 0
      outer loop
         vertex -0.0175358 0.0243271 -0.112348
         vertex -0.0175358 0.0243271 -0.111748
         vertex -0.0174925 0.0243021 -0.111748
      endloop
   endfacet
   facet normal 0.5 0.866025 0
      outer loop
         vertex -0.0174925 0.0243021 -0.111748
         vertex -0.0174925 0.0243021 -0.112348
         vertex -0.0175358 0.0243271 -0.112348
      endloop
   endfacet
   facet normal -0.866025 0.5 0
      outer loop
         vertex -0.0174925 0.0243021 -0.112348
         vertex -0.0174925 0.0243021 -0.111748
         vertex -0.0172425 0.0247351 -0.111748
      endloop
   endfacet
   facet normal -0.866025 0.5 0
      outer loop
         vertex -0.0172425 0.0247351 -0.111748
         vertex -0.0172425 0.0247351 -0.112348
         vertex -0.0174925 0.0243021 -0.112348
      endloop
   endfacet
   facet normal 0.866025 -0.5 0
      outer loop
         vertex -0.0174358 0.0245003 -0.111748
         vertex -0.0175358 0.0243271 -0.111748
         vertex -0.0175358 0.0243271 -0.112348
      endloop
   endfacet
   facet normal 0.866025 -0.5 0
      outer loop
         vertex -0.0175358 0.0243271 -0.112348
         vertex -0.0174358 0.0245003 -0.112448
         vertex -0.0174358 0.0245003 -0.111748
      endloop
   endfacet
   facet normal 0.866025 -0.5 0
      outer loop
         vertex -0.0175358 0.0243271 -0.112348
         vertex -0.0175358 0.0243271 -0.112448
         vertex -0.0174358 0.0245003 -0.112448
      endloop
   endfacet
   facet normal 0 0 -1
      outer loop
         vertex -0.0173118 0.0247751 -0.111748
         vertex -0.0172425 0.0247351 -0.111748
         vertex -0.0174358 0.0245003 -0.111748
      endloop
   endfacet
   facet normal 0 0 -1
      outer loop
         vertex -0.0174925 0.0243021 -0.111748
         vertex -0.0175358 0.0243271 -0.111748
         vertex -0.0174358 0.0245003 -0.111748
      endloop
   endfacet
   facet normal 0 0 -1
      outer loop
         vertex -0.0174358 0.0245003 -0.111748
         vertex -0.0172425 0.0247351 -0.111748
         vertex -0.0174925 0.0243021 -0.111748
      endloop
   endfacet
   facet normal 0 0 -1
      outer loop
         vertex -0.0174358 0.0245003 -0.111748
         vertex -0.0174618 0.0245153 -0.111748
         vertex -0.0173118 0.0247751 -0.111748
      endloop
   endfacet
   facet normal 0.5 0.866025 0
      outer loop
         vertex -0.0174358 0.0245003 -0.111748
         vertex -0.0174358 0.0245003 -0.112448
         vertex -0.0174618 0.0245153 -0.112448
      endloop
   endfacet
   facet normal 0.5 0.866025 0
      outer loop
         vertex -0.0174618 0.0245153 -0.112448
         vertex -0.0174618 0.0245153 -0.111748
         vertex -0.0174358 0.0245003 -0.111748
      endloop
   endfacet
   facet normal 0.866025 -0.5 0
      outer loop
         vertex -0.0173118 0.0247751 -0.111748
         vertex -0.0174618 0.0245153 -0.111748
         vertex -0.0174618 0.0245153 -0.112448
      endloop
   endfacet
   facet normal 0.866025 -0.5 0
      outer loop
         vertex -0.0174618 0.0245153 -0.112448
         vertex -0.0173118 0.0247751 -0.112448
         vertex -0.0173118 0.0247751 -0.111748
      endloop
   endfacet
   facet normal 0 0 -1
      outer loop
         vertex -0.0220661 0.0208805 -0.112448
         vertex -0.0175618 0.0243421 -0.112448
         vertex -0.0199368 0.0202285 -0.112448
      endloop
   endfacet
   facet normal 0 0 -1
      outer loop
         vertex -0.0220661 0.0208805 -0.112448
         vertex -0.0174618 0.0245153 -0.112448
         vertex -0.0175618 0.0243421 -0.112448
      endloop
   endfacet
   facet normal 0 0 -1
      outer loop
         vertex -0.0199368 0.0202285 -0.112448
         vertex -0.0200368 0.0200553 -0.112448
         vertex -0.0220661 0.0208805 -0.112448
      endloop
   endfacet
   facet normal 0 0 -1
      outer loop
         vertex -0.0200368 0.0200553 -0.112448
         vertex -0.0199368 0.0202285 -0.112448
         vertex -0.0199108 0.0202135 -0.112448
      endloop
   endfacet
   facet normal 0 0 -1
      outer loop
         vertex -0.0199108 0.0202135 -0.112448
         vertex -0.0200108 0.0200403 -0.112448
         vertex -0.0200368 0.0200553 -0.112448
      endloop
   endfacet
   facet normal 0 0 -1
      outer loop
         vertex -0.0175358 0.0243271 -0.112448
         vertex -0.0175618 0.0243421 -0.112448
         vertex -0.0174618 0.0245153 -0.112448
      endloop
   endfacet
   facet normal 0 0 -1
      outer loop
         vertex -0.0174618 0.0245153 -0.112448
         vertex -0.0174358 0.0245003 -0.112448
         vertex -0.0175358 0.0243271 -0.112448
      endloop
   endfacet
   facet normal 0 0 -1
      outer loop
         vertex -0.0191911 0.0258601 -0.112448
         vertex -0.0173118 0.0247751 -0.112448
         vertex -0.0174618 0.0245153 -0.112448
      endloop
   endfacet
   facet normal 0 0 -1
      outer loop
         vertex -0.0174618 0.0245153 -0.112448
         vertex -0.0220661 0.0208805 -0.112448
         vertex -0.0191911 0.0258601 -0.112448
      endloop
   endfacet
   facet normal 0 0 -1
      outer loop
         vertex -0.0200368 0.0200553 -0.112448
         vertex -0.0201868 0.0197955 -0.112448
         vertex -0.0220661 0.0208805 -0.112448
      endloop
   endfacet
   facet normal -0.5 -0.866025 0
      outer loop
         vertex -0.0202041 0.0198055 -0.108698
         vertex -0.0189917 0.0191055 -0.111398
         vertex -0.0190783 0.0191555 -0.110348
      endloop
   endfacet
   facet normal -0.5 -0.866025 0
      outer loop
         vertex -0.0190783 0.0191555 -0.110348
         vertex -0.0190783 0.0191555 -0.108698
         vertex -0.0202041 0.0198055 -0.108698
      endloop
   endfacet
   facet normal -0.5 -0.866025 0
      outer loop
         vertex -0.0202041 0.0198055 -0.108698
         vertex -0.0220661 0.0208805 -0.108098
         vertex -0.0189917 0.0191055 -0.111398
      endloop
   endfacet
   facet normal -0.5 -0.866025 0
      outer loop
         vertex -0.0185586 0.0188555 -0.110348
         vertex -0.0190783 0.0191555 -0.110348
         vertex -0.0189917 0.0191055 -0.111398
      endloop
   endfacet
   facet normal -0.5 -0.866025 0
      outer loop
         vertex -0.0201175 0.0197555 -0.112348
         vertex -0.0191216 0.0191805 -0.112348
         vertex -0.0191216 0.0191805 -0.112148
      endloop
   endfacet
   facet normal -0.5 -0.866025 0
      outer loop
         vertex -0.0220661 0.0208805 -0.108098
         vertex -0.0201868 0.0197955 -0.111748
         vertex -0.0201175 0.0197555 -0.111748
      endloop
   endfacet
   facet normal -0.5 -0.866025 0
      outer loop
         vertex -0.0189917 0.0191055 -0.111398
         vertex -0.0185586 0.0188555 -0.111398
         vertex -0.0185586 0.0188555 -0.110348
      endloop
   endfacet
   facet normal -0.5 -0.866025 0
      outer loop
         vertex -0.0191216 0.0191805 -0.112148
         vertex -0.0189917 0.0191055 -0.112148
         vertex -0.0189917 0.0191055 -0.111398
      endloop
   endfacet
   facet normal -0.5 -0.866025 0
      outer loop
         vertex -0.0201175 0.0197555 -0.111748
         vertex -0.0191216 0.0191805 -0.112148
         vertex -0.0220661 0.0208805 -0.108098
      endloop
   endfacet
   facet normal -0.5 -0.866025 0
      outer loop
         vertex -0.0220661 0.0208805 -0.112448
         vertex -0.0201868 0.0197955 -0.112448
         vertex -0.0201868 0.0197955 -0.111748
      endloop
   endfacet
   facet normal -0.5 -0.866025 0
      outer loop
         vertex -0.0189917 0.0191055 -0.111398
         vertex -0.0220661 0.0208805 -0.108098
         vertex -0.0191216 0.0191805 -0.112148
      endloop
   endfacet
   facet normal -0.5 -0.866025 0
      outer loop
         vertex -0.0201868 0.0197955 -0.111748
         vertex -0.0220661 0.0208805 -0.108098
         vertex -0.0220661 0.0208805 -0.112448
      endloop
   endfacet
   facet normal -0.5 -0.866025 0
      outer loop
         vertex -0.0191216 0.0191805 -0.112148
         vertex -0.0201175 0.0197555 -0.111748
         vertex -0.0201175 0.0197555 -0.112348
      endloop
   endfacet
   facet normal -0.5 -0.866025 0
      outer loop
         vertex -0.0202041 0.0198055 -0.108698
         vertex -0.0202041 0.0198055 -0.108098
         vertex -0.0220661 0.0208805 -0.108098
      endloop
   endfacet
   facet normal 0 0 1
      outer loop
         vertex -0.0189033 0.0194586 -0.108698
         vertex -0.0200291 0.0201086 -0.108698
         vertex -0.0202041 0.0198055 -0.108698
      endloop
   endfacet
   facet normal 0 0 1
      outer loop
         vertex -0.0202041 0.0198055 -0.108698
         vertex -0.0190783 0.0191555 -0.108698
         vertex -0.0189033 0.0194586 -0.108698
      endloop
   endfacet
   facet normal 0 0 1
      outer loop
         vertex -0.0185586 0.0188555 -0.110348
         vertex -0.0183086 0.0192885 -0.110348
         vertex -0.0188283 0.0195885 -0.110348
      endloop
   endfacet
   facet normal 0 0 1
      outer loop
         vertex -0.0188283 0.0195885 -0.110348
         vertex -0.0190783 0.0191555 -0.110348
         vertex -0.0185586 0.0188555 -0.110348
      endloop
   endfacet
   facet normal 0.866025 -0.5 0
      outer loop
         vertex -0.0190783 0.0191555 -0.108698
         vertex -0.0190783 0.0191555 -0.110348
         vertex -0.0189033 0.0194586 -0.109098
      endloop
   endfacet
   facet normal 0.866025 -0.5 0
      outer loop
         vertex -0.0188283 0.0195885 -0.110348
         vertex -0.0188283 0.0195885 -0.109098
         vertex -0.0189033 0.0194586 -0.109098
      endloop
   endfacet
   facet normal 0.866025 -0.5 0
      outer loop
         vertex -0.0189033 0.0194586 -0.109098
         vertex -0.0190783 0.0191555 -0.110348
         vertex -0.0188283 0.0195885 -0.110348
      endloop
   endfacet
   facet normal 0.866025 -0.5 0
      outer loop
         vertex -0.0189033 0.0194586 -0.109098
         vertex -0.0189033 0.0194586 -0.108698
         vertex -0.0190783 0.0191555 -0.108698
      endloop
   endfacet
   facet normal -0.5 -0.866025 0
      outer loop
         vertex -0.0188283 0.0195885 -0.110348
         vertex -0.0183086 0.0192885 -0.110348
         vertex -0.0183086 0.0192885 -0.109098
      endloop
   endfacet
   facet normal -0.5 -0.866025 0
      outer loop
         vertex -0.0183086 0.0192885 -0.109098
         vertex -0.0188283 0.0195885 -0.109098
         vertex -0.0188283 0.0195885 -0.110348
      endloop
   endfacet
   facet normal 0 0 1
      outer loop
         vertex -0.0178086 0.0201545 -0.109098
         vertex -0.0213161 0.0221795 -0.109098
         vertex -0.0188283 0.0195885 -0.109098
      endloop
   endfacet
   facet normal 0 0 1
      outer loop
         vertex -0.0218911 0.0211836 -0.109098
         vertex -0.0189033 0.0194586 -0.109098
         vertex -0.0188283 0.0195885 -0.109098
      endloop
   endfacet
   facet normal 0 0 1
      outer loop
         vertex -0.0188283 0.0195885 -0.109098
         vertex -0.0213161 0.0221795 -0.109098
         vertex -0.0218911 0.0211836 -0.109098
      endloop
   endfacet
   facet normal 0 0 1
      outer loop
         vertex -0.0188283 0.0195885 -0.109098
         vertex -0.0183086 0.0192885 -0.109098
         vertex -0.0178086 0.0201545 -0.109098
      endloop
   endfacet
   facet normal 0.5 0.866025 0
      outer loop
         vertex -0.0189033 0.0194586 -0.109098
         vertex -0.0218911 0.0211836 -0.109098
         vertex -0.0200291 0.0201086 -0.108698
      endloop
   endfacet
   facet normal 0.5 0.866025 0
      outer loop
         vertex -0.0218911 0.0211836 -0.108498
         vertex -0.0200291 0.0201086 -0.108498
         vertex -0.0200291 0.0201086 -0.108698
      endloop
   endfacet
   facet normal 0.5 0.866025 0
      outer loop
         vertex -0.0200291 0.0201086 -0.108698
         vertex -0.0218911 0.0211836 -0.109098
         vertex -0.0218911 0.0211836 -0.108498
      endloop
   endfacet
   facet normal 0.5 0.866025 0
      outer loop
         vertex -0.0200291 0.0201086 -0.108698
         vertex -0.0189033 0.0194586 -0.108698
         vertex -0.0189033 0.0194586 -0.109098
      endloop
   endfacet
   facet normal -0.5 -0.866025 0
      outer loop
         vertex -0.0178086 0.0201545 -0.108498
         vertex -0.0213161 0.0221795 -0.108498
         vertex -0.0213161 0.0221795 -0.109098
      endloop
   endfacet
   facet normal -0.5 -0.866025 0
      outer loop
         vertex -0.0213161 0.0221795 -0.109098
         vertex -0.0178086 0.0201545 -0.109098
         vertex -0.0178086 0.0201545 -0.108498
      endloop
   endfacet
   facet normal 0 0 -1
      outer loop
         vertex -0.0218911 0.0211836 -0.108498
         vertex -0.0213161 0.0221795 -0.108498
         vertex -0.0199541 0.0202385 -0.108498
      endloop
   endfacet
   facet normal 0 0 -1
      outer loop
         vertex -0.0178086 0.0201545 -0.108498
         vertex -0.0183086 0.0192885 -0.108498
         vertex -0.0199541 0.0202385 -0.108498
      endloop
   endfacet
   facet normal 0 0 -1
      outer loop
         vertex -0.0199541 0.0202385 -0.108498
         vertex -0.0213161 0.0221795 -0.108498
         vertex -0.0178086 0.0201545 -0.108498
      endloop
   endfacet
   facet normal 0 0 -1
      outer loop
         vertex -0.0199541 0.0202385 -0.108498
         vertex -0.0200291 0.0201086 -0.108498
         vertex -0.0218911 0.0211836 -0.108498
      endloop
   endfacet
   facet normal 0.866025 -0.5 0
      outer loop
         vertex -0.0199541 0.0202385 -0.108098
         vertex -0.0202041 0.0198055 -0.108098
         vertex -0.0200291 0.0201086 -0.108498
      endloop
   endfacet
   facet normal 0.866025 -0.5 0
      outer loop
         vertex -0.0202041 0.0198055 -0.108698
         vertex -0.0200291 0.0201086 -0.108698
         vertex -0.0200291 0.0201086 -0.108498
      endloop
   endfacet
   facet normal 0.866025 -0.5 0
      outer loop
         vertex -0.0200291 0.0201086 -0.108498
         vertex -0.0202041 0.0198055 -0.108098
         vertex -0.0202041 0.0198055 -0.108698
      endloop
   endfacet
   facet normal 0.866025 -0.5 0
      outer loop
         vertex -0.0200291 0.0201086 -0.108498
         vertex -0.0199541 0.0202385 -0.108498
         vertex -0.0199541 0.0202385 -0.108098
      endloop
   endfacet
   facet normal -0.5 -0.866025 0
      outer loop
         vertex -0.0183086 0.0192885 -0.108098
         vertex -0.0199541 0.0202385 -0.108098
         vertex -0.0199541 0.0202385 -0.108498
      endloop
   endfacet
   facet normal -0.5 -0.866025 0
      outer loop
         vertex -0.0199541 0.0202385 -0.108498
         vertex -0.0183086 0.0192885 -0.108498
         vertex -0.0183086 0.0192885 -0.108098
      endloop
   endfacet
   facet normal 0 0 1
      outer loop
         vertex -0.0159336 0.0234021 -0.108098
         vertex -0.0175791 0.0243521 -0.108098
         vertex -0.0199541 0.0202385 -0.108098
      endloop
   endfacet
   facet normal 0 0 1
      outer loop
         vertex -0.0220661 0.0208805 -0.108098
         vertex -0.0202041 0.0198055 -0.108098
         vertex -0.0199541 0.0202385 -0.108098
      endloop
   endfacet
   facet normal 0 0 1
      outer loop
         vertex -0.0191911 0.0258601 -0.108098
         vertex -0.0220661 0.0208805 -0.108098
         vertex -0.0175791 0.0243521 -0.108098
      endloop
   endfacet
   facet normal 0 0 1
      outer loop
         vertex -0.0199541 0.0202385 -0.108098
         vertex -0.0175791 0.0243521 -0.108098
         vertex -0.0220661 0.0208805 -0.108098
      endloop
   endfacet
   facet normal 0 0 1
      outer loop
         vertex -0.0199541 0.0202385 -0.108098
         vertex -0.0183086 0.0192885 -0.108098
         vertex -0.0159336 0.0234021 -0.108098
      endloop
   endfacet
   facet normal 0 0 1
      outer loop
         vertex -0.0175791 0.0243521 -0.108098
         vertex -0.0173291 0.0247851 -0.108098
         vertex -0.0191911 0.0258601 -0.108098
      endloop
   endfacet
   facet normal 0.5 0.866025 0
      outer loop
         vertex -0.0175791 0.0243521 -0.108098
         vertex -0.0159336 0.0234021 -0.108098
         vertex -0.0159336 0.0234021 -0.108498
      endloop
   endfacet
   facet normal 0.5 0.866025 0
      outer loop
         vertex -0.0159336 0.0234021 -0.108498
         vertex -0.0175791 0.0243521 -0.108498
         vertex -0.0175791 0.0243521 -0.108098
      endloop
   endfacet
   facet normal 0 0 -1
      outer loop
         vertex -0.0164336 0.0225361 -0.108498
         vertex -0.0199411 0.0245611 -0.108498
         vertex -0.0175791 0.0243521 -0.108498
      endloop
   endfacet
   facet normal 0 0 -1
      outer loop
         vertex -0.0193661 0.025557 -0.108498
         vertex -0.0175041 0.024482 -0.108498
         vertex -0.0175791 0.0243521 -0.108498
      endloop
   endfacet
   facet normal 0 0 -1
      outer loop
         vertex -0.0175791 0.0243521 -0.108498
         vertex -0.0199411 0.0245611 -0.108498
         vertex -0.0193661 0.025557 -0.108498
      endloop
   endfacet
   facet normal 0 0 -1
      outer loop
         vertex -0.0175791 0.0243521 -0.108498
         vertex -0.0159336 0.0234021 -0.108498
         vertex -0.0164336 0.0225361 -0.108498
      endloop
   endfacet
   facet normal 0.866025 -0.5 0
      outer loop
         vertex -0.0173291 0.0247851 -0.108698
         vertex -0.0173291 0.0247851 -0.108098
         vertex -0.0175041 0.024482 -0.108498
      endloop
   endfacet
   facet normal 0.866025 -0.5 0
      outer loop
         vertex -0.0175791 0.0243521 -0.108098
         vertex -0.0175791 0.0243521 -0.108498
         vertex -0.0175041 0.024482 -0.108498
      endloop
   endfacet
   facet normal 0.866025 -0.5 0
      outer loop
         vertex -0.0175041 0.024482 -0.108498
         vertex -0.0173291 0.0247851 -0.108098
         vertex -0.0175791 0.0243521 -0.108098
      endloop
   endfacet
   facet normal 0.866025 -0.5 0
      outer loop
         vertex -0.0175041 0.024482 -0.108498
         vertex -0.0175041 0.024482 -0.108698
         vertex -0.0173291 0.0247851 -0.108698
      endloop
   endfacet
   facet normal 0.5 0.866025 0
      outer loop
         vertex -0.0164336 0.0225361 -0.109098
         vertex -0.0199411 0.0245611 -0.109098
         vertex -0.0199411 0.0245611 -0.108498
      endloop
   endfacet
   facet normal 0.5 0.866025 0
      outer loop
         vertex -0.0199411 0.0245611 -0.108498
         vertex -0.0164336 0.0225361 -0.108498
         vertex -0.0164336 0.0225361 -0.109098
      endloop
   endfacet
   facet normal -0.5 -0.866025 0
      outer loop
         vertex -0.0193661 0.025557 -0.108498
         vertex -0.0193661 0.025557 -0.109098
         vertex -0.0175041 0.024482 -0.108698
      endloop
   endfacet
   facet normal -0.5 -0.866025 0
      outer loop
         vertex -0.0163783 0.023832 -0.109098
         vertex -0.0163783 0.023832 -0.108698
         vertex -0.0175041 0.024482 -0.108698
      endloop
   endfacet
   facet normal -0.5 -0.866025 0
      outer loop
         vertex -0.0175041 0.024482 -0.108698
         vertex -0.0193661 0.025557 -0.109098
         vertex -0.0163783 0.023832 -0.109098
      endloop
   endfacet
   facet normal -0.5 -0.866025 0
      outer loop
         vertex -0.0175041 0.024482 -0.108698
         vertex -0.0175041 0.024482 -0.108498
         vertex -0.0193661 0.025557 -0.108498
      endloop
   endfacet
   facet normal 0 0 1
      outer loop
         vertex -0.0163783 0.023832 -0.108698
         vertex -0.0162033 0.0241351 -0.108698
         vertex -0.0173291 0.0247851 -0.108698
      endloop
   endfacet
   facet normal 0 0 1
      outer loop
         vertex -0.0173291 0.0247851 -0.108698
         vertex -0.0175041 0.024482 -0.108698
         vertex -0.0163783 0.023832 -0.108698
      endloop
   endfacet
   facet normal 0.5 0.866025 0
      outer loop
         vertex -0.0161167 0.0240851 -0.111398
         vertex -0.0161167 0.0240851 -0.112148
         vertex -0.0162466 0.0241601 -0.112148
      endloop
   endfacet
   facet normal 0.5 0.866025 0
      outer loop
         vertex -0.0172425 0.0247351 -0.111748
         vertex -0.0162033 0.0241351 -0.110348
         vertex -0.0161167 0.0240851 -0.111398
      endloop
   endfacet
   facet normal 0.5 0.866025 0
      outer loop
         vertex -0.0172425 0.0247351 -0.112348
         vertex -0.0172425 0.0247351 -0.111748
         vertex -0.0162466 0.0241601 -0.112148
      endloop
   endfacet
   facet normal 0.5 0.866025 0
      outer loop
         vertex -0.0162466 0.0241601 -0.112148
         vertex -0.0172425 0.0247351 -0.111748
         vertex -0.0161167 0.0240851 -0.111398
      endloop
   endfacet
   facet normal 0.5 0.866025 0
      outer loop
         vertex -0.0173291 0.0247851 -0.108698
         vertex -0.0162033 0.0241351 -0.108698
         vertex -0.0162033 0.0241351 -0.110348
      endloop
   endfacet
   facet normal 0.5 0.866025 0
      outer loop
         vertex -0.0172425 0.0247351 -0.111748
         vertex -0.0173118 0.0247751 -0.111748
         vertex -0.0162033 0.0241351 -0.110348
      endloop
   endfacet
   facet normal 0.5 0.866025 0
      outer loop
         vertex -0.0156836 0.0238351 -0.110348
         vertex -0.0156836 0.0238351 -0.111398
         vertex -0.0161167 0.0240851 -0.111398
      endloop
   endfacet
   facet normal 0.5 0.866025 0
      outer loop
         vertex -0.0162033 0.0241351 -0.110348
         vertex -0.0173118 0.0247751 -0.111748
         vertex -0.0173291 0.0247851 -0.108698
      endloop
   endfacet
   facet normal 0.5 0.866025 0
      outer loop
         vertex -0.0161167 0.0240851 -0.111398
         vertex -0.0162033 0.0241351 -0.110348
         vertex -0.0156836 0.0238351 -0.110348
      endloop
   endfacet
   facet normal 0.5 0.866025 0
      outer loop
         vertex -0.0173118 0.0247751 -0.111748
         vertex -0.0191911 0.0258601 -0.112448
         vertex -0.0173291 0.0247851 -0.108698
      endloop
   endfacet
   facet normal 0.5 0.866025 0
      outer loop
         vertex -0.0173118 0.0247751 -0.111748
         vertex -0.0173118 0.0247751 -0.112448
         vertex -0.0191911 0.0258601 -0.112448
      endloop
   endfacet
   facet normal 0.5 0.866025 0
      outer loop
         vertex -0.0191911 0.0258601 -0.108098
         vertex -0.0173291 0.0247851 -0.108098
         vertex -0.0173291 0.0247851 -0.108698
      endloop
   endfacet
   facet normal 0.5 0.866025 0
      outer loop
         vertex -0.0173291 0.0247851 -0.108698
         vertex -0.0191911 0.0258601 -0.112448
         vertex -0.0191911 0.0258601 -0.108098
      endloop
   endfacet
   facet normal 0.5 0.866025 0
      outer loop
         vertex -0.0162466 0.0241601 -0.112148
         vertex -0.0162466 0.0241601 -0.112348
         vertex -0.0172425 0.0247351 -0.112348
      endloop
   endfacet
   facet normal 0 0 1
      outer loop
         vertex -0.0193661 0.025557 -0.109098
         vertex -0.0199411 0.0245611 -0.109098
         vertex -0.0164533 0.0237021 -0.109098
      endloop
   endfacet
   facet normal 0 0 1
      outer loop
         vertex -0.0164336 0.0225361 -0.109098
         vertex -0.0159336 0.0234021 -0.109098
         vertex -0.0164533 0.0237021 -0.109098
      endloop
   endfacet
   facet normal 0 0 1
      outer loop
         vertex -0.0164533 0.0237021 -0.109098
         vertex -0.0199411 0.0245611 -0.109098
         vertex -0.0164336 0.0225361 -0.109098
      endloop
   endfacet
   facet normal 0 0 1
      outer loop
         vertex -0.0164533 0.0237021 -0.109098
         vertex -0.0163783 0.023832 -0.109098
         vertex -0.0193661 0.025557 -0.109098
      endloop
   endfacet
   facet normal 0.866025 -0.5 0
      outer loop
         vertex -0.0164533 0.0237021 -0.110348
         vertex -0.0162033 0.0241351 -0.110348
         vertex -0.0163783 0.023832 -0.109098
      endloop
   endfacet
   facet normal 0.866025 -0.5 0
      outer loop
         vertex -0.0162033 0.0241351 -0.108698
         vertex -0.0163783 0.023832 -0.108698
         vertex -0.0163783 0.023832 -0.109098
      endloop
   endfacet
   facet normal 0.866025 -0.5 0
      outer loop
         vertex -0.0163783 0.023832 -0.109098
         vertex -0.0162033 0.0241351 -0.110348
         vertex -0.0162033 0.0241351 -0.108698
      endloop
   endfacet
   facet normal 0.866025 -0.5 0
      outer loop
         vertex -0.0163783 0.023832 -0.109098
         vertex -0.0164533 0.0237021 -0.109098
         vertex -0.0164533 0.0237021 -0.110348
      endloop
   endfacet
   facet normal 0.5 0.866025 0
      outer loop
         vertex -0.0159336 0.0234021 -0.110348
         vertex -0.0164533 0.0237021 -0.110348
         vertex -0.0164533 0.0237021 -0.109098
      endloop
   endfacet
   facet normal 0.5 0.866025 0
      outer loop
         vertex -0.0164533 0.0237021 -0.109098
         vertex -0.0159336 0.0234021 -0.109098
         vertex -0.0159336 0.0234021 -0.110348
      endloop
   endfacet
   facet normal 0 0 1
      outer loop
         vertex -0.0164533 0.0237021 -0.110348
         vertex -0.0159336 0.0234021 -0.110348
         vertex -0.0156836 0.0238351 -0.110348
      endloop
   endfacet
   facet normal 0 0 1
      outer loop
         vertex -0.0156836 0.0238351 -0.110348
         vertex -0.0162033 0.0241351 -0.110348
         vertex -0.0164533 0.0237021 -0.110348
      endloop
   endfacet
   facet normal 0.866025 -0.5 0
      outer loop
         vertex -0.0185586 0.0188555 -0.111398
         vertex -0.0176336 0.0204576 -0.109898
         vertex -0.0183086 0.0192885 -0.110348
      endloop
   endfacet
   facet normal 0.866025 -0.5 0
      outer loop
         vertex -0.0183086 0.0192885 -0.110348
         vertex -0.0176336 0.0204576 -0.109898
         vertex -0.0178086 0.0201545 -0.109098
      endloop
   endfacet
   facet normal 0.866025 -0.5 0
      outer loop
         vertex -0.0178086 0.0201545 -0.109098
         vertex -0.0183086 0.0192885 -0.109098
         vertex -0.0183086 0.0192885 -0.110348
      endloop
   endfacet
   facet normal 0.866025 -0.5 0
      outer loop
         vertex -0.0176336 0.0204576 -0.108498
         vertex -0.0178086 0.0201545 -0.108498
         vertex -0.0178086 0.0201545 -0.109098
      endloop
   endfacet
   facet normal 0.866025 -0.5 0
      outer loop
         vertex -0.0159336 0.0234021 -0.108098
         vertex -0.0166086 0.022233 -0.108498
         vertex -0.0164336 0.0225361 -0.108498
      endloop
   endfacet
   facet normal 0.866025 -0.5 0
      outer loop
         vertex -0.0166086 0.022233 -0.108498
         vertex -0.0166086 0.022233 -0.109898
         vertex -0.0164336 0.0225361 -0.109098
      endloop
   endfacet
   facet normal 0.866025 -0.5 0
      outer loop
         vertex -0.0185586 0.0188555 -0.111398
         vertex -0.0159336 0.0234021 -0.110348
         vertex -0.0166086 0.022233 -0.109898
      endloop
   endfacet
   facet normal 0.866025 -0.5 0
      outer loop
         vertex -0.0159336 0.0234021 -0.110348
         vertex -0.0159336 0.0234021 -0.109098
         vertex -0.0164336 0.0225361 -0.109098
      endloop
   endfacet
   facet normal 0.866025 -0.5 0
      outer loop
         vertex -0.0178086 0.0201545 -0.109098
         vertex -0.0176336 0.0204576 -0.109898
         vertex -0.0176336 0.0204576 -0.108498
      endloop
   endfacet
   facet normal 0.866025 -0.5 0
      outer loop
         vertex -0.0183086 0.0192885 -0.108098
         vertex -0.0183086 0.0192885 -0.108498
         vertex -0.0178086 0.0201545 -0.108498
      endloop
   endfacet
   facet normal 0.866025 -0.5 0
      outer loop
         vertex -0.0164336 0.0225361 -0.109098
         vertex -0.0164336 0.0225361 -0.108498
         vertex -0.0166086 0.022233 -0.108498
      endloop
   endfacet
   facet normal 0.866025 -0.5 0
      outer loop
         vertex -0.0164336 0.0225361 -0.109098
         vertex -0.0166086 0.022233 -0.109898
         vertex -0.0159336 0.0234021 -0.110348
      endloop
   endfacet
   facet normal 0.866025 -0.5 0
      outer loop
         vertex -0.0159336 0.0234021 -0.108098
         vertex -0.0183086 0.0192885 -0.108098
         vertex -0.0176336 0.0204576 -0.108498
      endloop
   endfacet
   facet normal 0.866025 -0.5 0
      outer loop
         vertex -0.0178086 0.0201545 -0.108498
         vertex -0.0176336 0.0204576 -0.108498
         vertex -0.0183086 0.0192885 -0.108098
      endloop
   endfacet
   facet normal 0.866025 -0.5 0
      outer loop
         vertex -0.0166086 0.022233 -0.109898
         vertex -0.0176336 0.0204576 -0.109898
         vertex -0.0185586 0.0188555 -0.111398
      endloop
   endfacet
   facet normal 0.866025 -0.5 0
      outer loop
         vertex -0.0156836 0.0238351 -0.111398
         vertex -0.0156836 0.0238351 -0.110348
         vertex -0.0159336 0.0234021 -0.110348
      endloop
   endfacet
   facet normal 0.866025 -0.5 0
      outer loop
         vertex -0.0183086 0.0192885 -0.110348
         vertex -0.0185586 0.0188555 -0.110348
         vertex -0.0185586 0.0188555 -0.111398
      endloop
   endfacet
   facet normal 0.866025 -0.5 0
      outer loop
         vertex -0.0159336 0.0234021 -0.110348
         vertex -0.0185586 0.0188555 -0.111398
         vertex -0.0156836 0.0238351 -0.111398
      endloop
   endfacet
   facet normal 0.866025 -0.5 0
      outer loop
         vertex -0.0164336 0.0225361 -0.108498
         vertex -0.0159336 0.0234021 -0.108498
         vertex -0.0159336 0.0234021 -0.108098
      endloop
   endfacet
   facet normal 0.866025 -0.5 0
      outer loop
         vertex -0.0176336 0.0204576 -0.108498
         vertex -0.0166086 0.022233 -0.108498
         vertex -0.0159336 0.0234021 -0.108098
      endloop
   endfacet
   facet normal -0.5 -0.866025 0
      outer loop
         vertex -0.0166086 0.022233 -0.109898
         vertex -0.0166086 0.022233 -0.108498
         vertex -0.0201161 0.024258 -0.108498
      endloop
   endfacet
   facet normal -0.5 -0.866025 0
      outer loop
         vertex -0.0201161 0.024258 -0.108498
         vertex -0.0201161 0.024258 -0.109898
         vertex -0.0166086 0.022233 -0.109898
      endloop
   endfacet
   facet normal 0.5 0.866025 0
      outer loop
         vertex -0.0211411 0.0224826 -0.108498
         vertex -0.0176336 0.0204576 -0.108498
         vertex -0.0176336 0.0204576 -0.109898
      endloop
   endfacet
   facet normal 0.5 0.866025 0
      outer loop
         vertex -0.0176336 0.0204576 -0.109898
         vertex -0.0211411 0.0224826 -0.109898
         vertex -0.0211411 0.0224826 -0.108498
      endloop
   endfacet
   facet normal 0 0 -1
      outer loop
         vertex -0.0211411 0.0224826 -0.108498
         vertex -0.0201161 0.024258 -0.108498
         vertex -0.0166086 0.022233 -0.108498
      endloop
   endfacet
   facet normal 0 0 -1
      outer loop
         vertex -0.0166086 0.022233 -0.108498
         vertex -0.0176336 0.0204576 -0.108498
         vertex -0.0211411 0.0224826 -0.108498
      endloop
   endfacet
   facet normal 0 0 1
      outer loop
         vertex -0.0166086 0.022233 -0.109898
         vertex -0.0201161 0.024258 -0.109898
         vertex -0.0211411 0.0224826 -0.109898
      endloop
   endfacet
   facet normal 0 0 1
      outer loop
         vertex -0.0211411 0.0224826 -0.109898
         vertex -0.0176336 0.0204576 -0.109898
         vertex -0.0166086 0.022233 -0.109898
      endloop
   endfacet
   facet normal -0.866025 0.5 0
      outer loop
         vertex -0.0191911 0.0258601 -0.108098
         vertex -0.0201161 0.024258 -0.108498
         vertex -0.0211411 0.0224826 -0.108498
      endloop
   endfacet
   facet normal -0.866025 0.5 0
      outer loop
         vertex -0.0191911 0.0258601 -0.108098
         vertex -0.0199411 0.0245611 -0.108498
         vertex -0.0201161 0.024258 -0.108498
      endloop
   endfacet
   facet normal -0.866025 0.5 0
      outer loop
         vertex -0.0211411 0.0224826 -0.108498
         vertex -0.0213161 0.0221795 -0.109698
         vertex -0.0213161 0.0221795 -0.109098
      endloop
   endfacet
   facet normal -0.866025 0.5 0
      outer loop
         vertex -0.0191911 0.0258601 -0.108098
         vertex -0.0193661 0.025557 -0.108498
         vertex -0.0199411 0.0245611 -0.108498
      endloop
   endfacet
   facet normal -0.866025 0.5 0
      outer loop
         vertex -0.0220661 0.0208805 -0.108098
         vertex -0.0191911 0.0258601 -0.108098
         vertex -0.0213161 0.0221795 -0.108498
      endloop
   endfacet
   facet normal -0.866025 0.5 0
      outer loop
         vertex -0.0211411 0.0224826 -0.108498
         vertex -0.0213161 0.0221795 -0.108498
         vertex -0.0191911 0.0258601 -0.108098
      endloop
   endfacet
   facet normal -0.866025 0.5 0
      outer loop
         vertex -0.0213161 0.0221795 -0.110198
         vertex -0.0211411 0.0224826 -0.109898
         vertex -0.0201161 0.024258 -0.109898
      endloop
   endfacet
   facet normal -0.866025 0.5 0
      outer loop
         vertex -0.0199411 0.0245611 -0.109098
         vertex -0.0193661 0.025557 -0.109098
         vertex -0.0196911 0.0249941 -0.109698
      endloop
   endfacet
   facet normal -0.866025 0.5 0
      outer loop
         vertex -0.0213161 0.0221795 -0.109098
         vertex -0.0213161 0.0221795 -0.108498
         vertex -0.0211411 0.0224826 -0.108498
      endloop
   endfacet
   facet normal -0.866025 0.5 0
      outer loop
         vertex -0.0213161 0.0221795 -0.109098
         vertex -0.0213161 0.0221795 -0.109698
         vertex -0.0215661 0.0217465 -0.109698
      endloop
   endfacet
   facet normal -0.866025 0.5 0
      outer loop
         vertex -0.0201161 0.024258 -0.109898
         vertex -0.0199411 0.0245611 -0.110198
         vertex -0.0213161 0.0221795 -0.110198
      endloop
   endfacet
   facet normal -0.866025 0.5 0
      outer loop
         vertex -0.0196911 0.0249941 -0.109698
         vertex -0.0199411 0.0245611 -0.109698
         vertex -0.0199411 0.0245611 -0.109098
      endloop
   endfacet
   facet normal -0.866025 0.5 0
      outer loop
         vertex -0.0201161 0.024258 -0.108498
         vertex -0.0199411 0.0245611 -0.108498
         vertex -0.0199411 0.0245611 -0.109098
      endloop
   endfacet
   facet normal -0.866025 0.5 0
      outer loop
         vertex -0.0215661 0.0217465 -0.109698
         vertex -0.0218911 0.0211836 -0.109098
         vertex -0.0213161 0.0221795 -0.109098
      endloop
   endfacet
   facet normal -0.866025 0.5 0
      outer loop
         vertex -0.0191911 0.0258601 -0.108098
         vertex -0.0191911 0.0258601 -0.112448
         vertex -0.0193661 0.025557 -0.109098
      endloop
   endfacet
   facet normal -0.866025 0.5 0
      outer loop
         vertex -0.0191911 0.0258601 -0.112448
         vertex -0.0196911 0.0249941 -0.111748
         vertex -0.0196911 0.0249941 -0.109698
      endloop
   endfacet
   facet normal -0.866025 0.5 0
      outer loop
         vertex -0.0213161 0.0221795 -0.110198
         vertex -0.0211411 0.0224826 -0.108498
         vertex -0.0211411 0.0224826 -0.109898
      endloop
   endfacet
   facet normal -0.866025 0.5 0
      outer loop
         vertex -0.0199411 0.0245611 -0.109098
         vertex -0.0201161 0.024258 -0.109898
         vertex -0.0201161 0.024258 -0.108498
      endloop
   endfacet
   facet normal -0.866025 0.5 0
      outer loop
         vertex -0.0211411 0.0224826 -0.108498
         vertex -0.0213161 0.0221795 -0.110198
         vertex -0.0213161 0.0221795 -0.109698
      endloop
   endfacet
   facet normal -0.866025 0.5 0
      outer loop
         vertex -0.0196911 0.0249941 -0.109698
         vertex -0.0193661 0.025557 -0.109098
         vertex -0.0191911 0.0258601 -0.112448
      endloop
   endfacet
   facet normal -0.866025 0.5 0
      outer loop
         vertex -0.0199411 0.0245611 -0.109698
         vertex -0.0201161 0.024258 -0.109898
         vertex -0.0199411 0.0245611 -0.109098
      endloop
   endfacet
   facet normal -0.866025 0.5 0
      outer loop
         vertex -0.0193661 0.025557 -0.109098
         vertex -0.0193661 0.025557 -0.108498
         vertex -0.0191911 0.0258601 -0.108098
      endloop
   endfacet
   facet normal -0.866025 0.5 0
      outer loop
         vertex -0.0213161 0.0221795 -0.108498
         vertex -0.0218911 0.0211836 -0.108498
         vertex -0.0220661 0.0208805 -0.108098
      endloop
   endfacet
   facet normal -0.866025 0.5 0
      outer loop
         vertex -0.0191911 0.0258601 -0.112448
         vertex -0.0220661 0.0208805 -0.112448
         vertex -0.0215661 0.0217465 -0.111748
      endloop
   endfacet
   facet normal -0.866025 0.5 0
      outer loop
         vertex -0.0220661 0.0208805 -0.112448
         vertex -0.0218911 0.0211836 -0.109098
         vertex -0.0215661 0.0217465 -0.109698
      endloop
   endfacet
   facet normal -0.866025 0.5 0
      outer loop
         vertex -0.0220661 0.0208805 -0.108098
         vertex -0.0218911 0.0211836 -0.108498
         vertex -0.0218911 0.0211836 -0.109098
      endloop
   endfacet
   facet normal -0.866025 0.5 0
      outer loop
         vertex -0.0215661 0.0217465 -0.111748
         vertex -0.0196911 0.0249941 -0.111748
         vertex -0.0191911 0.0258601 -0.112448
      endloop
   endfacet
   facet normal -0.866025 0.5 0
      outer loop
         vertex -0.0218911 0.0211836 -0.109098
         vertex -0.0220661 0.0208805 -0.112448
         vertex -0.0220661 0.0208805 -0.108098
      endloop
   endfacet
   facet normal -0.866025 0.5 0
      outer loop
         vertex -0.0215661 0.0217465 -0.109698
         vertex -0.0215661 0.0217465 -0.111748
         vertex -0.0220661 0.0208805 -0.112448
      endloop
   endfacet
   facet normal -0.866025 0.5 0
      outer loop
         vertex -0.0201161 0.024258 -0.109898
         vertex -0.0199411 0.0245611 -0.109698
         vertex -0.0199411 0.0245611 -0.110198
      endloop
   endfacet
   facet normal 0 0 -1
      outer loop
         vertex -0.0190644 0.0208795 -0.109698
         vertex -0.0193144 0.0204465 -0.109698
         vertex -0.0215661 0.0217465 -0.109698
      endloop
   endfacet
   facet normal 0 0 -1
      outer loop
         vertex -0.0215661 0.0217465 -0.109698
         vertex -0.0213161 0.0221795 -0.109698
         vertex -0.0190644 0.0208795 -0.109698
      endloop
   endfacet
   facet normal -0.866025 0.5 0
      outer loop
         vertex -0.0174394 0.0236941 -0.109698
         vertex -0.0174394 0.0236941 -0.111748
         vertex -0.0176894 0.0232611 -0.110198
      endloop
   endfacet
   facet normal -0.866025 0.5 0
      outer loop
         vertex -0.0193144 0.0204465 -0.111748
         vertex -0.0190644 0.0208795 -0.110198
         vertex -0.0176894 0.0232611 -0.110198
      endloop
   endfacet
   facet normal -0.866025 0.5 0
      outer loop
         vertex -0.0176894 0.0232611 -0.110198
         vertex -0.0174394 0.0236941 -0.111748
         vertex -0.0193144 0.0204465 -0.111748
      endloop
   endfacet
   facet normal -0.866025 0.5 0
      outer loop
         vertex -0.0193144 0.0204465 -0.109698
         vertex -0.0190644 0.0208795 -0.109698
         vertex -0.0190644 0.0208795 -0.110198
      endloop
   endfacet
   facet normal -0.866025 0.5 0
      outer loop
         vertex -0.0190644 0.0208795 -0.110198
         vertex -0.0193144 0.0204465 -0.111748
         vertex -0.0193144 0.0204465 -0.109698
      endloop
   endfacet
   facet normal -0.866025 0.5 0
      outer loop
         vertex -0.0176894 0.0232611 -0.110198
         vertex -0.0176894 0.0232611 -0.109698
         vertex -0.0174394 0.0236941 -0.109698
      endloop
   endfacet
   facet normal 0 0 -1
      outer loop
         vertex -0.0174394 0.0236941 -0.109698
         vertex -0.0176894 0.0232611 -0.109698
         vertex -0.0199411 0.0245611 -0.109698
      endloop
   endfacet
   facet normal 0 0 -1
      outer loop
         vertex -0.0199411 0.0245611 -0.109698
         vertex -0.0196911 0.0249941 -0.109698
         vertex -0.0174394 0.0236941 -0.109698
      endloop
   endfacet
   facet normal -0.5 -0.866025 0
      outer loop
         vertex -0.0213161 0.0221795 -0.110198
         vertex -0.0190644 0.0208795 -0.110198
         vertex -0.0190644 0.0208795 -0.109698
      endloop
   endfacet
   facet normal -0.5 -0.866025 0
      outer loop
         vertex -0.0190644 0.0208795 -0.109698
         vertex -0.0213161 0.0221795 -0.109698
         vertex -0.0213161 0.0221795 -0.110198
      endloop
   endfacet
   facet normal 0.5 0.866025 0
      outer loop
         vertex -0.0199411 0.0245611 -0.109698
         vertex -0.0176894 0.0232611 -0.109698
         vertex -0.0176894 0.0232611 -0.110198
      endloop
   endfacet
   facet normal 0.5 0.866025 0
      outer loop
         vertex -0.0176894 0.0232611 -0.110198
         vertex -0.0199411 0.0245611 -0.110198
         vertex -0.0199411 0.0245611 -0.109698
      endloop
   endfacet
   facet normal 0.5 0.866025 0
      outer loop
         vertex -0.0215661 0.0217465 -0.109698
         vertex -0.0193144 0.0204465 -0.109698
         vertex -0.0193144 0.0204465 -0.111748
      endloop
   endfacet
   facet normal 0.5 0.866025 0
      outer loop
         vertex -0.0193144 0.0204465 -0.111748
         vertex -0.0215661 0.0217465 -0.111748
         vertex -0.0215661 0.0217465 -0.109698
      endloop
   endfacet
   facet normal 0 0 1
      outer loop
         vertex -0.0215661 0.0217465 -0.111748
         vertex -0.0193144 0.0204465 -0.111748
         vertex -0.0174394 0.0236941 -0.111748
      endloop
   endfacet
   facet normal 0 0 1
      outer loop
         vertex -0.0174394 0.0236941 -0.111748
         vertex -0.0196911 0.0249941 -0.111748
         vertex -0.0215661 0.0217465 -0.111748
      endloop
   endfacet
   facet normal -0.5 -0.866025 0
      outer loop
         vertex -0.0196911 0.0249941 -0.111748
         vertex -0.0174394 0.0236941 -0.111748
         vertex -0.0174394 0.0236941 -0.109698
      endloop
   endfacet
   facet normal -0.5 -0.866025 0
      outer loop
         vertex -0.0174394 0.0236941 -0.109698
         vertex -0.0196911 0.0249941 -0.109698
         vertex -0.0196911 0.0249941 -0.111748
      endloop
   endfacet
   facet normal 0 0 -1
      outer loop
         vertex -0.0176894 0.0232611 -0.110198
         vertex -0.0190644 0.0208795 -0.110198
         vertex -0.0213161 0.0221795 -0.110198
      endloop
   endfacet
   facet normal 0 0 -1
      outer loop
         vertex -0.0213161 0.0221795 -0.110198
         vertex -0.0199411 0.0245611 -0.110198
         vertex -0.0176894 0.0232611 -0.110198
      endloop
   endfacet
endsolid RoboMaster GM6020 Ö±Á÷ÎÞË¢µç»ú. Units = meters