solid RoboMaster GM6020 Ö±Á÷ÎÞË¢µç»ú. STL generated by ONSHAPE BY PTC INC, 1.216. Units = meters
   facet normal 0.5 0.866025 0
      outer loop
         vertex -0.0299011 0.00730986 -0.108518
         vertex -0.027303 0.00580986 -0.108518
         vertex -0.027303 0.00580986 -0.109118
      endloop
   endfacet
   facet normal 0.5 0.866025 0
      outer loop
         vertex -0.027303 0.00580986 -0.109118
         vertex -0.0299011 0.00730986 -0.109118
         vertex -0.0299011 0.00730986 -0.108518
      endloop
   endfacet
   facet normal 0 0 -1
      outer loop
         vertex -0.0299011 0.00730986 -0.108518
         vertex -0.0292661 0.00840971 -0.108518
         vertex -0.026668 0.00690971 -0.108518
      endloop
   endfacet
   facet normal 0 0 -1
      outer loop
         vertex -0.026668 0.00690971 -0.108518
         vertex -0.027303 0.00580986 -0.108518
         vertex -0.0299011 0.00730986 -0.108518
      endloop
   endfacet
   facet normal -0.866025 0.5 0
      outer loop
         vertex -0.027303 0.00580986 -0.109118
         vertex -0.027303 0.00580986 -0.108518
         vertex -0.026668 0.00690971 -0.108518
      endloop
   endfacet
   facet normal -0.866025 0.5 0
      outer loop
         vertex -0.026668 0.00690971 -0.108518
         vertex -0.026668 0.00690971 -0.109118
         vertex -0.027303 0.00580986 -0.109118
      endloop
   endfacet
   facet normal 0 0 1
      outer loop
         vertex -0.0299011 0.00730986 -0.109118
         vertex -0.027303 0.00580986 -0.109118
         vertex -0.026668 0.00690971 -0.109118
      endloop
   endfacet
   facet normal 0 0 1
      outer loop
         vertex -0.026668 0.00690971 -0.109118
         vertex -0.0292661 0.00840971 -0.109118
         vertex -0.0299011 0.00730986 -0.109118
      endloop
   endfacet
   facet normal -0.5 -0.866025 0
      outer loop
         vertex -0.0292661 0.00840971 -0.109118
         vertex -0.026668 0.00690971 -0.109118
         vertex -0.026668 0.00690971 -0.108518
      endloop
   endfacet
   facet normal -0.5 -0.866025 0
      outer loop
         vertex -0.026668 0.00690971 -0.108518
         vertex -0.0292661 0.00840971 -0.108518
         vertex -0.0292661 0.00840971 -0.109118
      endloop
   endfacet
   facet normal -0.866025 0.5 0
      outer loop
         vertex -0.0316661 0.00425279 -0.108518
         vertex -0.0318661 0.00390638 -0.109718
         vertex -0.0318311 0.003967 -0.109118
      endloop
   endfacet
   facet normal -0.866025 0.5 0
      outer loop
         vertex -0.0318311 0.003967 -0.109118
         vertex -0.0318661 0.00390638 -0.109718
         vertex -0.0321161 0.00347337 -0.109718
      endloop
   endfacet
   facet normal -0.866025 0.5 0
      outer loop
         vertex -0.0321161 0.00347337 -0.109718
         vertex -0.0324661 0.00286715 -0.109118
         vertex -0.0318311 0.003967 -0.109118
      endloop
   endfacet
   facet normal -0.866025 0.5 0
      outer loop
         vertex -0.0316661 0.00425279 -0.109818
         vertex -0.0318661 0.00390638 -0.110178
         vertex -0.0318661 0.00390638 -0.109718
      endloop
   endfacet
   facet normal -0.866025 0.5 0
      outer loop
         vertex -0.0300661 0.00702407 -0.109818
         vertex -0.0299011 0.00730986 -0.109118
         vertex -0.0298661 0.00737048 -0.109718
      endloop
   endfacet
   facet normal -0.866025 0.5 0
      outer loop
         vertex -0.0318661 0.00390638 -0.109718
         vertex -0.0316661 0.00425279 -0.108518
         vertex -0.0316661 0.00425279 -0.109818
      endloop
   endfacet
   facet normal -0.866025 0.5 0
      outer loop
         vertex -0.0291161 0.00866952 -0.108148
         vertex -0.0300661 0.00702407 -0.108518
         vertex -0.0316661 0.00425279 -0.108518
      endloop
   endfacet
   facet normal -0.866025 0.5 0
      outer loop
         vertex -0.0291161 0.00866952 -0.108148
         vertex -0.0292661 0.00840971 -0.108518
         vertex -0.0299011 0.00730986 -0.108518
      endloop
   endfacet
   facet normal -0.866025 0.5 0
      outer loop
         vertex -0.0300661 0.00702407 -0.109818
         vertex -0.0299011 0.00730986 -0.108518
         vertex -0.0299011 0.00730986 -0.109118
      endloop
   endfacet
   facet normal -0.866025 0.5 0
      outer loop
         vertex -0.0318661 0.00390638 -0.110178
         vertex -0.0316661 0.00425279 -0.109818
         vertex -0.0300661 0.00702407 -0.109818
      endloop
   endfacet
   facet normal -0.866025 0.5 0
      outer loop
         vertex -0.0316661 0.00425279 -0.108518
         vertex -0.0318311 0.003967 -0.108518
         vertex -0.0291161 0.00866952 -0.108148
      endloop
   endfacet
   facet normal -0.866025 0.5 0
      outer loop
         vertex -0.0299011 0.00730986 -0.108518
         vertex -0.0300661 0.00702407 -0.108518
         vertex -0.0291161 0.00866952 -0.108148
      endloop
   endfacet
   facet normal -0.866025 0.5 0
      outer loop
         vertex -0.0291161 0.00866952 -0.108148
         vertex -0.0291161 0.00866952 -0.112448
         vertex -0.0292661 0.00840971 -0.109118
      endloop
   endfacet
   facet normal -0.866025 0.5 0
      outer loop
         vertex -0.0291161 0.00866952 -0.112448
         vertex -0.0296161 0.0078035 -0.111748
         vertex -0.0296161 0.0078035 -0.109718
      endloop
   endfacet
   facet normal -0.866025 0.5 0
      outer loop
         vertex -0.0300661 0.00702407 -0.109818
         vertex -0.0298661 0.00737048 -0.110178
         vertex -0.0318661 0.00390638 -0.110178
      endloop
   endfacet
   facet normal -0.866025 0.5 0
      outer loop
         vertex -0.0299011 0.00730986 -0.109118
         vertex -0.0292661 0.00840971 -0.109118
         vertex -0.0296161 0.0078035 -0.109718
      endloop
   endfacet
   facet normal -0.866025 0.5 0
      outer loop
         vertex -0.0299011 0.00730986 -0.108518
         vertex -0.0300661 0.00702407 -0.109818
         vertex -0.0300661 0.00702407 -0.108518
      endloop
   endfacet
   facet normal -0.866025 0.5 0
      outer loop
         vertex -0.0296161 0.0078035 -0.109718
         vertex -0.0292661 0.00840971 -0.109118
         vertex -0.0291161 0.00866952 -0.112448
      endloop
   endfacet
   facet normal -0.866025 0.5 0
      outer loop
         vertex -0.0296161 0.0078035 -0.109718
         vertex -0.0298661 0.00737048 -0.109718
         vertex -0.0299011 0.00730986 -0.109118
      endloop
   endfacet
   facet normal -0.866025 0.5 0
      outer loop
         vertex -0.0292661 0.00840971 -0.109118
         vertex -0.0292661 0.00840971 -0.108518
         vertex -0.0291161 0.00866952 -0.108148
      endloop
   endfacet
   facet normal -0.866025 0.5 0
      outer loop
         vertex -0.0318311 0.003967 -0.109118
         vertex -0.0318311 0.003967 -0.108518
         vertex -0.0316661 0.00425279 -0.108518
      endloop
   endfacet
   facet normal -0.866025 0.5 0
      outer loop
         vertex -0.0326161 0.00260734 -0.112448
         vertex -0.0321161 0.00347337 -0.111748
         vertex -0.0296161 0.0078035 -0.111748
      endloop
   endfacet
   facet normal -0.866025 0.5 0
      outer loop
         vertex -0.0326161 0.00260734 -0.112448
         vertex -0.0324661 0.00286715 -0.109118
         vertex -0.0321161 0.00347337 -0.109718
      endloop
   endfacet
   facet normal -0.866025 0.5 0
      outer loop
         vertex -0.0326161 0.00260734 -0.108148
         vertex -0.0324661 0.00286715 -0.108518
         vertex -0.0324661 0.00286715 -0.109118
      endloop
   endfacet
   facet normal -0.866025 0.5 0
      outer loop
         vertex -0.0296161 0.0078035 -0.111748
         vertex -0.0291161 0.00866952 -0.112448
         vertex -0.0326161 0.00260734 -0.112448
      endloop
   endfacet
   facet normal -0.866025 0.5 0
      outer loop
         vertex -0.0324661 0.00286715 -0.109118
         vertex -0.0326161 0.00260734 -0.112448
         vertex -0.0326161 0.00260734 -0.108148
      endloop
   endfacet
   facet normal -0.866025 0.5 0
      outer loop
         vertex -0.0326161 0.00260734 -0.108148
         vertex -0.0291161 0.00866952 -0.108148
         vertex -0.0318311 0.003967 -0.108518
      endloop
   endfacet
   facet normal -0.866025 0.5 0
      outer loop
         vertex -0.0321161 0.00347337 -0.109718
         vertex -0.0321161 0.00347337 -0.111748
         vertex -0.0326161 0.00260734 -0.112448
      endloop
   endfacet
   facet normal -0.866025 0.5 0
      outer loop
         vertex -0.0298661 0.00737048 -0.109718
         vertex -0.0298661 0.00737048 -0.110178
         vertex -0.0300661 0.00702407 -0.109818
      endloop
   endfacet
   facet normal -0.866025 0.5 0
      outer loop
         vertex -0.0318311 0.003967 -0.108518
         vertex -0.0324661 0.00286715 -0.108518
         vertex -0.0326161 0.00260734 -0.108148
      endloop
   endfacet
   facet normal 0 0 1
      outer loop
         vertex -0.029233 0.002467 -0.109118
         vertex -0.0318311 0.003967 -0.109118
         vertex -0.0324661 0.00286715 -0.109118
      endloop
   endfacet
   facet normal 0 0 1
      outer loop
         vertex -0.0324661 0.00286715 -0.109118
         vertex -0.029868 0.00136715 -0.109118
         vertex -0.029233 0.002467 -0.109118
      endloop
   endfacet
   facet normal 0.5 0.866025 0
      outer loop
         vertex -0.0324661 0.00286715 -0.108518
         vertex -0.029868 0.00136715 -0.108518
         vertex -0.029868 0.00136715 -0.109118
      endloop
   endfacet
   facet normal 0.5 0.866025 0
      outer loop
         vertex -0.029868 0.00136715 -0.109118
         vertex -0.0324661 0.00286715 -0.109118
         vertex -0.0324661 0.00286715 -0.108518
      endloop
   endfacet
   facet normal -0.866025 0.5 0
      outer loop
         vertex -0.029233 0.002467 -0.109118
         vertex -0.029868 0.00136715 -0.109118
         vertex -0.029868 0.00136715 -0.108518
      endloop
   endfacet
   facet normal -0.866025 0.5 0
      outer loop
         vertex -0.029868 0.00136715 -0.108518
         vertex -0.029233 0.002467 -0.108518
         vertex -0.029233 0.002467 -0.109118
      endloop
   endfacet
   facet normal -0.5 -0.866025 0
      outer loop
         vertex -0.0318311 0.003967 -0.109118
         vertex -0.029233 0.002467 -0.109118
         vertex -0.029233 0.002467 -0.108518
      endloop
   endfacet
   facet normal -0.5 -0.866025 0
      outer loop
         vertex -0.029233 0.002467 -0.108518
         vertex -0.0318311 0.003967 -0.108518
         vertex -0.0318311 0.003967 -0.109118
      endloop
   endfacet
   facet normal 0 0 -1
      outer loop
         vertex -0.029233 0.002467 -0.108518
         vertex -0.029868 0.00136715 -0.108518
         vertex -0.0324661 0.00286715 -0.108518
      endloop
   endfacet
   facet normal 0 0 -1
      outer loop
         vertex -0.0324661 0.00286715 -0.108518
         vertex -0.0318311 0.003967 -0.108518
         vertex -0.029233 0.002467 -0.108518
      endloop
   endfacet
   facet normal -0.5 -0.866025 0
      outer loop
         vertex -0.0300661 0.00702407 -0.109818
         vertex -0.027468 0.00552407 -0.109818
         vertex -0.027468 0.00552407 -0.108518
      endloop
   endfacet
   facet normal -0.5 -0.866025 0
      outer loop
         vertex -0.027468 0.00552407 -0.108518
         vertex -0.0300661 0.00702407 -0.108518
         vertex -0.0300661 0.00702407 -0.109818
      endloop
   endfacet
   facet normal -0.866025 0.5 0
      outer loop
         vertex -0.029068 0.00275279 -0.108518
         vertex -0.027468 0.00552407 -0.108518
         vertex -0.027468 0.00552407 -0.109818
      endloop
   endfacet
   facet normal -0.866025 0.5 0
      outer loop
         vertex -0.027468 0.00552407 -0.109818
         vertex -0.029068 0.00275279 -0.109818
         vertex -0.029068 0.00275279 -0.108518
      endloop
   endfacet
   facet normal 0.5 0.866025 0
      outer loop
         vertex -0.0316661 0.00425279 -0.108518
         vertex -0.029068 0.00275279 -0.108518
         vertex -0.029068 0.00275279 -0.109818
      endloop
   endfacet
   facet normal 0.5 0.866025 0
      outer loop
         vertex -0.029068 0.00275279 -0.109818
         vertex -0.0316661 0.00425279 -0.109818
         vertex -0.0316661 0.00425279 -0.108518
      endloop
   endfacet
   facet normal 0 0 -1
      outer loop
         vertex -0.029068 0.00275279 -0.108518
         vertex -0.0316661 0.00425279 -0.108518
         vertex -0.0300661 0.00702407 -0.108518
      endloop
   endfacet
   facet normal 0 0 -1
      outer loop
         vertex -0.0300661 0.00702407 -0.108518
         vertex -0.027468 0.00552407 -0.108518
         vertex -0.029068 0.00275279 -0.108518
      endloop
   endfacet
   facet normal 0 0 1
      outer loop
         vertex -0.029068 0.00275279 -0.109818
         vertex -0.027468 0.00552407 -0.109818
         vertex -0.0300661 0.00702407 -0.109818
      endloop
   endfacet
   facet normal 0 0 1
      outer loop
         vertex -0.0300661 0.00702407 -0.109818
         vertex -0.0316661 0.00425279 -0.109818
         vertex -0.029068 0.00275279 -0.109818
      endloop
   endfacet
   facet normal 0 0 -1
      outer loop
         vertex -0.0318661 0.00390638 -0.109718
         vertex -0.029268 0.00240638 -0.109718
         vertex -0.029518 0.00197337 -0.109718
      endloop
   endfacet
   facet normal 0 0 -1
      outer loop
         vertex -0.029518 0.00197337 -0.109718
         vertex -0.0321161 0.00347337 -0.109718
         vertex -0.0318661 0.00390638 -0.109718
      endloop
   endfacet
   facet normal -0.866025 0.5 0
      outer loop
         vertex -0.027018 0.0063035 -0.109718
         vertex -0.027018 0.0063035 -0.111748
         vertex -0.027268 0.00587048 -0.110178
      endloop
   endfacet
   facet normal -0.866025 0.5 0
      outer loop
         vertex -0.027018 0.0063035 -0.111748
         vertex -0.029518 0.00197337 -0.111748
         vertex -0.029268 0.00240638 -0.110178
      endloop
   endfacet
   facet normal -0.866025 0.5 0
      outer loop
         vertex -0.029268 0.00240638 -0.110178
         vertex -0.027268 0.00587048 -0.110178
         vertex -0.027018 0.0063035 -0.111748
      endloop
   endfacet
   facet normal -0.866025 0.5 0
      outer loop
         vertex -0.029518 0.00197337 -0.109718
         vertex -0.029268 0.00240638 -0.109718
         vertex -0.029268 0.00240638 -0.110178
      endloop
   endfacet
   facet normal -0.866025 0.5 0
      outer loop
         vertex -0.029268 0.00240638 -0.110178
         vertex -0.029518 0.00197337 -0.111748
         vertex -0.029518 0.00197337 -0.109718
      endloop
   endfacet
   facet normal -0.866025 0.5 0
      outer loop
         vertex -0.027268 0.00587048 -0.110178
         vertex -0.027268 0.00587048 -0.109718
         vertex -0.027018 0.0063035 -0.109718
      endloop
   endfacet
   facet normal 0 0 -1
      outer loop
         vertex -0.027018 0.0063035 -0.109718
         vertex -0.027268 0.00587048 -0.109718
         vertex -0.0298661 0.00737048 -0.109718
      endloop
   endfacet
   facet normal 0 0 -1
      outer loop
         vertex -0.0298661 0.00737048 -0.109718
         vertex -0.0296161 0.0078035 -0.109718
         vertex -0.027018 0.0063035 -0.109718
      endloop
   endfacet
   facet normal -0.5 -0.866025 0
      outer loop
         vertex -0.0318661 0.00390638 -0.110178
         vertex -0.029268 0.00240638 -0.110178
         vertex -0.029268 0.00240638 -0.109718
      endloop
   endfacet
   facet normal -0.5 -0.866025 0
      outer loop
         vertex -0.029268 0.00240638 -0.109718
         vertex -0.0318661 0.00390638 -0.109718
         vertex -0.0318661 0.00390638 -0.110178
      endloop
   endfacet
   facet normal 0.5 0.866025 0
      outer loop
         vertex -0.0298661 0.00737048 -0.109718
         vertex -0.027268 0.00587048 -0.109718
         vertex -0.027268 0.00587048 -0.110178
      endloop
   endfacet
   facet normal 0.5 0.866025 0
      outer loop
         vertex -0.027268 0.00587048 -0.110178
         vertex -0.0298661 0.00737048 -0.110178
         vertex -0.0298661 0.00737048 -0.109718
      endloop
   endfacet
   facet normal 0.5 0.866025 0
      outer loop
         vertex -0.0321161 0.00347337 -0.109718
         vertex -0.029518 0.00197337 -0.109718
         vertex -0.029518 0.00197337 -0.111748
      endloop
   endfacet
   facet normal 0.5 0.866025 0
      outer loop
         vertex -0.029518 0.00197337 -0.111748
         vertex -0.0321161 0.00347337 -0.111748
         vertex -0.0321161 0.00347337 -0.109718
      endloop
   endfacet
   facet normal 0 0 1
      outer loop
         vertex -0.027018 0.0063035 -0.111748
         vertex -0.0296161 0.0078035 -0.111748
         vertex -0.0321161 0.00347337 -0.111748
      endloop
   endfacet
   facet normal 0 0 1
      outer loop
         vertex -0.0321161 0.00347337 -0.111748
         vertex -0.029518 0.00197337 -0.111748
         vertex -0.027018 0.0063035 -0.111748
      endloop
   endfacet
   facet normal -0.5 -0.866025 0
      outer loop
         vertex -0.0296161 0.0078035 -0.111748
         vertex -0.027018 0.0063035 -0.111748
         vertex -0.027018 0.0063035 -0.109718
      endloop
   endfacet
   facet normal -0.5 -0.866025 0
      outer loop
         vertex -0.027018 0.0063035 -0.109718
         vertex -0.0296161 0.0078035 -0.109718
         vertex -0.0296161 0.0078035 -0.111748
      endloop
   endfacet
   facet normal 0 0 -1
      outer loop
         vertex -0.0318661 0.00390638 -0.110178
         vertex -0.0298661 0.00737048 -0.110178
         vertex -0.027268 0.00587048 -0.110178
      endloop
   endfacet
   facet normal 0 0 -1
      outer loop
         vertex -0.027268 0.00587048 -0.110178
         vertex -0.029268 0.00240638 -0.110178
         vertex -0.0318661 0.00390638 -0.110178
      endloop
   endfacet
   facet normal 0 0 -1
      outer loop
         vertex -0.0326161 0.00260734 -0.112448
         vertex -0.0291161 0.00866952 -0.112448
         vertex -0.0256519 0.00666952 -0.112448
      endloop
   endfacet
   facet normal 0 0 -1
      outer loop
         vertex -0.0256519 0.00666952 -0.112448
         vertex -0.0291519 0.000607343 -0.112448
         vertex -0.0326161 0.00260734 -0.112448
      endloop
   endfacet
   facet normal -0.5 -0.866025 0
      outer loop
         vertex -0.0326161 0.00260734 -0.108148
         vertex -0.0326161 0.00260734 -0.112448
         vertex -0.0291519 0.000607343 -0.112448
      endloop
   endfacet
   facet normal -0.5 -0.866025 0
      outer loop
         vertex -0.0291519 0.000607343 -0.112448
         vertex -0.0291519 0.000607343 -0.108148
         vertex -0.0326161 0.00260734 -0.108148
      endloop
   endfacet
   facet normal 0 0 1
      outer loop
         vertex -0.0326161 0.00260734 -0.108148
         vertex -0.0291519 0.000607343 -0.108148
         vertex -0.0256519 0.00666952 -0.108148
      endloop
   endfacet
   facet normal 0 0 1
      outer loop
         vertex -0.0256519 0.00666952 -0.108148
         vertex -0.0291161 0.00866952 -0.108148
         vertex -0.0326161 0.00260734 -0.108148
      endloop
   endfacet
   facet normal 0.5 0.866025 0
      outer loop
         vertex -0.0291161 0.00866952 -0.112448
         vertex -0.0291161 0.00866952 -0.108148
         vertex -0.0256519 0.00666952 -0.108148
      endloop
   endfacet
   facet normal 0.5 0.866025 0
      outer loop
         vertex -0.0256519 0.00666952 -0.108148
         vertex -0.0256519 0.00666952 -0.112448
         vertex -0.0291161 0.00866952 -0.112448
      endloop
   endfacet
   facet normal 0.866025 -0.5 0
      outer loop
         vertex -0.0256519 0.00666952 -0.112448
         vertex -0.0256519 0.00666952 -0.108148
         vertex -0.0291519 0.000607343 -0.108148
      endloop
   endfacet
   facet normal 0.866025 -0.5 0
      outer loop
         vertex -0.0291519 0.000607343 -0.108148
         vertex -0.0291519 0.000607343 -0.112448
         vertex -0.0256519 0.00666952 -0.112448
      endloop
   endfacet
endsolid RoboMaster GM6020 Ö±Á÷ÎÞË¢µç»ú. Units = meters