solid RoboMaster GM6020 Ö±Á÷ÎÞË¢µç»ú. STL generated by ONSHAPE BY PTC INC, 1.216. Units = meters
   facet normal -0.5 -0.866025 0
      outer loop
         vertex -0.0204162 0.0112325 -0.112448
         vertex -0.0204275 0.011239 -0.112448
         vertex -0.0204275 0.011239 -0.112598
      endloop
   endfacet
   facet normal -0.5 -0.866025 0
      outer loop
         vertex -0.0204275 0.011239 -0.112598
         vertex -0.0204162 0.0112325 -0.112598
         vertex -0.0204162 0.0112325 -0.112448
      endloop
   endfacet
   facet normal -0.996373 0.085092 2.72997e-14
      outer loop
         vertex -0.020421 0.0112832 -0.112598
         vertex -0.0204275 0.011239 -0.112598
         vertex -0.0204275 0.011239 -0.112448
      endloop
   endfacet
   facet normal -0.999896 -0.0144269 2.51334e-14
      outer loop
         vertex -0.0204197 0.0113208 -0.112448
         vertex -0.0204197 0.0113208 -0.112598
         vertex -0.020421 0.0112832 -0.112598
      endloop
   endfacet
   facet normal -0.993236 -0.116116 2.26587e-14
      outer loop
         vertex -0.0204222 0.0113599 -0.112448
         vertex -0.0204222 0.0113599 -0.112598
         vertex -0.0204197 0.0113208 -0.112598
      endloop
   endfacet
   facet normal -0.976178 -0.216973 1.9938e-14
      outer loop
         vertex -0.0204304 0.0114074 -0.112598
         vertex -0.0204222 0.0113599 -0.112598
         vertex -0.0204222 0.0113599 -0.112448
      endloop
   endfacet
   facet normal -0.949847 -0.312717 1.70971e-14
      outer loop
         vertex -0.0204433 0.0114545 -0.112448
         vertex -0.0204433 0.0114545 -0.112598
         vertex -0.0204304 0.0114074 -0.112598
      endloop
   endfacet
   facet normal -0.915383 -0.402583 1.41824e-14
      outer loop
         vertex -0.0204572 0.0114912 -0.112448
         vertex -0.0204572 0.0114912 -0.112598
         vertex -0.0204433 0.0114545 -0.112598
      endloop
   endfacet
   facet normal -0.884927 -0.465729 1.19754e-14
      outer loop
         vertex -0.020469 0.0115155 -0.112598
         vertex -0.0204572 0.0114912 -0.112598
         vertex -0.0204572 0.0114912 -0.112448
      endloop
   endfacet
   facet normal -0.832608 -0.553862 8.6453e-15
      outer loop
         vertex -0.0204934 0.0115565 -0.112448
         vertex -0.0204934 0.0115565 -0.112598
         vertex -0.020469 0.0115155 -0.112598
      endloop
   endfacet
   facet normal -0.772321 -0.635233 5.2656e-15
      outer loop
         vertex -0.0205277 0.0116026 -0.112598
         vertex -0.0204934 0.0115565 -0.112598
         vertex -0.0204934 0.0115565 -0.112448
      endloop
   endfacet
   facet normal -0.703182 -0.71101 1.78732e-15
      outer loop
         vertex -0.0205814 0.0116612 -0.112448
         vertex -0.0205814 0.0116612 -0.112598
         vertex -0.0205277 0.0116026 -0.112598
      endloop
   endfacet
   facet normal -0.703182 -0.71101 1.78732e-15
      outer loop
         vertex -0.0205814 0.0116612 -0.112448
         vertex -0.0206251 0.0117016 -0.112448
         vertex -0.0206251 0.0117016 -0.112598
      endloop
   endfacet
   facet normal -0.664939 -0.746898 8.7351e-28
      outer loop
         vertex -0.0206251 0.0117016 -0.112598
         vertex -0.0205814 0.0116612 -0.112598
         vertex -0.0205814 0.0116612 -0.112448
      endloop
   endfacet
   facet normal -0.772321 -0.635233 5.2656e-15
      outer loop
         vertex -0.0205277 0.0116026 -0.112598
         vertex -0.0205277 0.0116026 -0.112448
         vertex -0.0205814 0.0116612 -0.112448
      endloop
   endfacet
   facet normal -0.832608 -0.553862 8.6453e-15
      outer loop
         vertex -0.0204934 0.0115565 -0.112448
         vertex -0.0205277 0.0116026 -0.112448
         vertex -0.0205277 0.0116026 -0.112598
      endloop
   endfacet
   facet normal -0.884927 -0.465729 1.19754e-14
      outer loop
         vertex -0.020469 0.0115155 -0.112598
         vertex -0.020469 0.0115155 -0.112448
         vertex -0.0204934 0.0115565 -0.112448
      endloop
   endfacet
   facet normal -0.915383 -0.402583 1.41824e-14
      outer loop
         vertex -0.0204572 0.0114912 -0.112448
         vertex -0.020469 0.0115155 -0.112448
         vertex -0.020469 0.0115155 -0.112598
      endloop
   endfacet
   facet normal -0.949847 -0.312717 1.70971e-14
      outer loop
         vertex -0.0204433 0.0114545 -0.112598
         vertex -0.0204433 0.0114545 -0.112448
         vertex -0.0204572 0.0114912 -0.112448
      endloop
   endfacet
   facet normal -0.976178 -0.216973 1.9938e-14
      outer loop
         vertex -0.0204304 0.0114074 -0.112598
         vertex -0.0204304 0.0114074 -0.112448
         vertex -0.0204433 0.0114545 -0.112448
      endloop
   endfacet
   facet normal -0.993236 -0.116116 2.26587e-14
      outer loop
         vertex -0.0204222 0.0113599 -0.112448
         vertex -0.0204304 0.0114074 -0.112448
         vertex -0.0204304 0.0114074 -0.112598
      endloop
   endfacet
   facet normal -0.999896 -0.0144269 2.51334e-14
      outer loop
         vertex -0.0204197 0.0113208 -0.112598
         vertex -0.0204197 0.0113208 -0.112448
         vertex -0.0204222 0.0113599 -0.112448
      endloop
   endfacet
   facet normal -0.996373 0.085092 2.72997e-14
      outer loop
         vertex -0.020421 0.0112832 -0.112598
         vertex -0.020421 0.0112832 -0.112448
         vertex -0.0204197 0.0113208 -0.112448
      endloop
   endfacet
   facet normal -0.982679 0.185316 2.9223e-14
      outer loop
         vertex -0.0204275 0.011239 -0.112448
         vertex -0.020421 0.0112832 -0.112448
         vertex -0.020421 0.0112832 -0.112598
      endloop
   endfacet
   facet normal 0.119615 -0.99282 0
      outer loop
         vertex -0.0206251 0.0117016 -0.112598
         vertex -0.0206251 0.0117016 -0.112448
         vertex -0.0206574 0.0116977 -0.112448
      endloop
   endfacet
   facet normal 0.119615 -0.99282 0
      outer loop
         vertex -0.0206574 0.0116977 -0.112448
         vertex -0.0206574 0.0116977 -0.112598
         vertex -0.0206251 0.0117016 -0.112598
      endloop
   endfacet
   facet normal 1.15725e-12 1.89127e-13 1
      outer loop
         vertex -0.0204311 0.0115348 -0.112448
         vertex -0.020469 0.0115155 -0.112448
         vertex -0.0204572 0.0114912 -0.112448
      endloop
   endfacet
   facet normal 1.15725e-12 1.89127e-13 1
      outer loop
         vertex -0.0204311 0.0115348 -0.112448
         vertex -0.0204654 0.0115801 -0.112448
         vertex -0.0204934 0.0115565 -0.112448
      endloop
   endfacet
   facet normal 1.15725e-12 1.89127e-13 1
      outer loop
         vertex -0.0204934 0.0115565 -0.112448
         vertex -0.020469 0.0115155 -0.112448
         vertex -0.0204311 0.0115348 -0.112448
      endloop
   endfacet
   facet normal 1.15725e-12 1.89127e-13 1
      outer loop
         vertex -0.0203802 0.011442 -0.112448
         vertex -0.0204033 0.011489 -0.112448
         vertex -0.0204433 0.0114545 -0.112448
      endloop
   endfacet
   facet normal 1.15725e-12 1.89127e-13 1
      outer loop
         vertex -0.0204572 0.0114912 -0.112448
         vertex -0.0204033 0.011489 -0.112448
         vertex -0.0204311 0.0115348 -0.112448
      endloop
   endfacet
   facet normal 1.15725e-12 1.89127e-13 1
      outer loop
         vertex -0.02055 0.0116683 -0.112448
         vertex -0.0205814 0.0116612 -0.112448
         vertex -0.0205277 0.0116026 -0.112448
      endloop
   endfacet
   facet normal 1.15725e-12 1.89127e-13 1
      outer loop
         vertex -0.02055 0.0116683 -0.112448
         vertex -0.0206539 0.0117557 -0.112448
         vertex -0.0206251 0.0117016 -0.112448
      endloop
   endfacet
   facet normal 1.15725e-12 1.89127e-13 1
      outer loop
         vertex -0.020421 0.0112832 -0.112448
         vertex -0.0203989 0.0112532 -0.112448
         vertex -0.0203908 0.0112601 -0.112448
      endloop
   endfacet
   facet normal 1.15725e-12 1.89127e-13 1
      outer loop
         vertex -0.020421 0.0112832 -0.112448
         vertex -0.0204275 0.011239 -0.112448
         vertex -0.0204129 0.0112373 -0.112448
      endloop
   endfacet
   facet normal 1.15725e-12 1.89127e-13 1
      outer loop
         vertex -0.0203526 0.0112782 -0.112448
         vertex -0.0203459 0.0113378 -0.112448
         vertex -0.0204197 0.0113208 -0.112448
      endloop
   endfacet
   facet normal 1.15725e-12 1.89127e-13 1
      outer loop
         vertex -0.0203602 0.0113899 -0.112448
         vertex -0.0203802 0.011442 -0.112448
         vertex -0.0204304 0.0114074 -0.112448
      endloop
   endfacet
   facet normal 1.15725e-12 1.89127e-13 1
      outer loop
         vertex -0.0204572 0.0114912 -0.112448
         vertex -0.0204433 0.0114545 -0.112448
         vertex -0.0204033 0.011489 -0.112448
      endloop
   endfacet
   facet normal 1.15725e-12 1.89127e-13 1
      outer loop
         vertex -0.0204934 0.0115565 -0.112448
         vertex -0.0204654 0.0115801 -0.112448
         vertex -0.0204807 0.011598 -0.112448
      endloop
   endfacet
   facet normal 1.15725e-12 1.89127e-13 1
      outer loop
         vertex -0.0206251 0.0117016 -0.112448
         vertex -0.0205814 0.0116612 -0.112448
         vertex -0.02055 0.0116683 -0.112448
      endloop
   endfacet
   facet normal 1.15725e-12 1.89127e-13 1
      outer loop
         vertex -0.020421 0.0112832 -0.112448
         vertex -0.020382 0.011266 -0.112448
         vertex -0.0203726 0.0112711 -0.112448
      endloop
   endfacet
   facet normal 1.15725e-12 1.89127e-13 1
      outer loop
         vertex -0.020421 0.0112832 -0.112448
         vertex -0.0204063 0.0112456 -0.112448
         vertex -0.0203989 0.0112532 -0.112448
      endloop
   endfacet
   facet normal 1.15725e-12 1.89127e-13 1
      outer loop
         vertex -0.0204275 0.011239 -0.112448
         vertex -0.0204162 0.0112325 -0.112448
         vertex -0.0204129 0.0112373 -0.112448
      endloop
   endfacet
   facet normal 1.15725e-12 1.89127e-13 1
      outer loop
         vertex -0.0204197 0.0113208 -0.112448
         vertex -0.020421 0.0112832 -0.112448
         vertex -0.0203526 0.0112782 -0.112448
      endloop
   endfacet
   facet normal 1.15725e-12 1.89127e-13 1
      outer loop
         vertex -0.0203459 0.0113378 -0.112448
         vertex -0.0203602 0.0113899 -0.112448
         vertex -0.0204222 0.0113599 -0.112448
      endloop
   endfacet
   facet normal 1.15725e-12 1.89127e-13 1
      outer loop
         vertex -0.0204433 0.0114545 -0.112448
         vertex -0.0204304 0.0114074 -0.112448
         vertex -0.0203802 0.011442 -0.112448
      endloop
   endfacet
   facet normal 1.15725e-12 1.89127e-13 1
      outer loop
         vertex -0.0205277 0.0116026 -0.112448
         vertex -0.0204807 0.011598 -0.112448
         vertex -0.02055 0.0116683 -0.112448
      endloop
   endfacet
   facet normal 1.15725e-12 1.89127e-13 1
      outer loop
         vertex -0.0203726 0.0112711 -0.112448
         vertex -0.0203628 0.0112752 -0.112448
         vertex -0.020421 0.0112832 -0.112448
      endloop
   endfacet
   facet normal 1.15725e-12 1.89127e-13 1
      outer loop
         vertex -0.0204129 0.0112373 -0.112448
         vertex -0.0204063 0.0112456 -0.112448
         vertex -0.020421 0.0112832 -0.112448
      endloop
   endfacet
   facet normal 1.15725e-12 1.89127e-13 1
      outer loop
         vertex -0.0204222 0.0113599 -0.112448
         vertex -0.0204197 0.0113208 -0.112448
         vertex -0.0203459 0.0113378 -0.112448
      endloop
   endfacet
   facet normal 1.15725e-12 1.89127e-13 1
      outer loop
         vertex -0.0204807 0.011598 -0.112448
         vertex -0.0205277 0.0116026 -0.112448
         vertex -0.0204934 0.0115565 -0.112448
      endloop
   endfacet
   facet normal 1.15725e-12 1.89127e-13 1
      outer loop
         vertex -0.0203908 0.0112601 -0.112448
         vertex -0.020382 0.011266 -0.112448
         vertex -0.020421 0.0112832 -0.112448
      endloop
   endfacet
   facet normal 1.15725e-12 1.89127e-13 1
      outer loop
         vertex -0.0204304 0.0114074 -0.112448
         vertex -0.0204222 0.0113599 -0.112448
         vertex -0.0203602 0.0113899 -0.112448
      endloop
   endfacet
   facet normal 1.15725e-12 1.89127e-13 1
      outer loop
         vertex -0.0203526 0.0112782 -0.112448
         vertex -0.0203422 0.0112802 -0.112448
         vertex -0.0203459 0.0113378 -0.112448
      endloop
   endfacet
   facet normal 1.15725e-12 1.89127e-13 1
      outer loop
         vertex -0.0203628 0.0112752 -0.112448
         vertex -0.0203526 0.0112782 -0.112448
         vertex -0.020421 0.0112832 -0.112448
      endloop
   endfacet
   facet normal 1.15725e-12 1.89127e-13 1
      outer loop
         vertex -0.0206539 0.0117557 -0.112448
         vertex -0.0206574 0.0116977 -0.112448
         vertex -0.0206251 0.0117016 -0.112448
      endloop
   endfacet
   facet normal 1.15725e-12 1.89127e-13 1
      outer loop
         vertex -0.0203422 0.0112802 -0.112448
         vertex -0.0203364 0.0112801 -0.112448
         vertex -0.0203459 0.0113378 -0.112448
      endloop
   endfacet
   facet normal -1.15725e-12 -1.89127e-13 -1
      outer loop
         vertex -0.0204311 0.0115348 -0.112598
         vertex -0.020469 0.0115155 -0.112598
         vertex -0.0204934 0.0115565 -0.112598
      endloop
   endfacet
   facet normal -1.15725e-12 -1.89127e-13 -1
      outer loop
         vertex -0.0204311 0.0115348 -0.112598
         vertex -0.0204033 0.011489 -0.112598
         vertex -0.0204572 0.0114912 -0.112598
      endloop
   endfacet
   facet normal -1.15725e-12 -1.89127e-13 -1
      outer loop
         vertex -0.0204572 0.0114912 -0.112598
         vertex -0.020469 0.0115155 -0.112598
         vertex -0.0204311 0.0115348 -0.112598
      endloop
   endfacet
   facet normal -1.15725e-12 -1.89127e-13 -1
      outer loop
         vertex -0.02055 0.0116683 -0.112598
         vertex -0.0205814 0.0116612 -0.112598
         vertex -0.0206251 0.0117016 -0.112598
      endloop
   endfacet
   facet normal -1.15725e-12 -1.89127e-13 -1
      outer loop
         vertex -0.02055 0.0116683 -0.112598
         vertex -0.0204807 0.011598 -0.112598
         vertex -0.0205277 0.0116026 -0.112598
      endloop
   endfacet
   facet normal -1.15725e-12 -1.89127e-13 -1
      outer loop
         vertex -0.0204033 0.011489 -0.112598
         vertex -0.0204433 0.0114545 -0.112598
         vertex -0.0204572 0.0114912 -0.112598
      endloop
   endfacet
   facet normal -1.15725e-12 -1.89127e-13 -1
      outer loop
         vertex -0.0203802 0.011442 -0.112598
         vertex -0.0204304 0.0114074 -0.112598
         vertex -0.0204433 0.0114545 -0.112598
      endloop
   endfacet
   facet normal -1.15725e-12 -1.89127e-13 -1
      outer loop
         vertex -0.0205277 0.0116026 -0.112598
         vertex -0.0205814 0.0116612 -0.112598
         vertex -0.02055 0.0116683 -0.112598
      endloop
   endfacet
   facet normal -1.15725e-12 -1.89127e-13 -1
      outer loop
         vertex -0.0204934 0.0115565 -0.112598
         vertex -0.0205277 0.0116026 -0.112598
         vertex -0.0204807 0.011598 -0.112598
      endloop
   endfacet
   facet normal -1.15725e-12 -1.89127e-13 -1
      outer loop
         vertex -0.0204433 0.0114545 -0.112598
         vertex -0.0204033 0.011489 -0.112598
         vertex -0.0203802 0.011442 -0.112598
      endloop
   endfacet
   facet normal -1.15725e-12 -1.89127e-13 -1
      outer loop
         vertex -0.0203602 0.0113899 -0.112598
         vertex -0.0204222 0.0113599 -0.112598
         vertex -0.0204304 0.0114074 -0.112598
      endloop
   endfacet
   facet normal -1.15725e-12 -1.89127e-13 -1
      outer loop
         vertex -0.0203526 0.0112782 -0.112598
         vertex -0.020421 0.0112832 -0.112598
         vertex -0.0204197 0.0113208 -0.112598
      endloop
   endfacet
   facet normal -1.15725e-12 -1.89127e-13 -1
      outer loop
         vertex -0.020421 0.0112832 -0.112598
         vertex -0.0204063 0.0112456 -0.112598
         vertex -0.0204129 0.0112373 -0.112598
      endloop
   endfacet
   facet normal -1.15725e-12 -1.89127e-13 -1
      outer loop
         vertex -0.020421 0.0112832 -0.112598
         vertex -0.020382 0.011266 -0.112598
         vertex -0.0203908 0.0112601 -0.112598
      endloop
   endfacet
   facet normal -1.15725e-12 -1.89127e-13 -1
      outer loop
         vertex -0.0204807 0.011598 -0.112598
         vertex -0.0204654 0.0115801 -0.112598
         vertex -0.0204934 0.0115565 -0.112598
      endloop
   endfacet
   facet normal -1.15725e-12 -1.89127e-13 -1
      outer loop
         vertex -0.0204304 0.0114074 -0.112598
         vertex -0.0203802 0.011442 -0.112598
         vertex -0.0203602 0.0113899 -0.112598
      endloop
   endfacet
   facet normal -1.15725e-12 -1.89127e-13 -1
      outer loop
         vertex -0.0203459 0.0113378 -0.112598
         vertex -0.0204197 0.0113208 -0.112598
         vertex -0.0204222 0.0113599 -0.112598
      endloop
   endfacet
   facet normal -1.15725e-12 -1.89127e-13 -1
      outer loop
         vertex -0.0203459 0.0113378 -0.112598
         vertex -0.0203422 0.0112802 -0.112598
         vertex -0.0203526 0.0112782 -0.112598
      endloop
   endfacet
   facet normal -1.15725e-12 -1.89127e-13 -1
      outer loop
         vertex -0.0204129 0.0112373 -0.112598
         vertex -0.0204275 0.011239 -0.112598
         vertex -0.020421 0.0112832 -0.112598
      endloop
   endfacet
   facet normal -1.15725e-12 -1.89127e-13 -1
      outer loop
         vertex -0.0203908 0.0112601 -0.112598
         vertex -0.0203989 0.0112532 -0.112598
         vertex -0.020421 0.0112832 -0.112598
      endloop
   endfacet
   facet normal -1.15725e-12 -1.89127e-13 -1
      outer loop
         vertex -0.020421 0.0112832 -0.112598
         vertex -0.0203628 0.0112752 -0.112598
         vertex -0.0203726 0.0112711 -0.112598
      endloop
   endfacet
   facet normal -1.15725e-12 -1.89127e-13 -1
      outer loop
         vertex -0.0204934 0.0115565 -0.112598
         vertex -0.0204654 0.0115801 -0.112598
         vertex -0.0204311 0.0115348 -0.112598
      endloop
   endfacet
   facet normal -1.15725e-12 -1.89127e-13 -1
      outer loop
         vertex -0.0204197 0.0113208 -0.112598
         vertex -0.0203459 0.0113378 -0.112598
         vertex -0.0203526 0.0112782 -0.112598
      endloop
   endfacet
   facet normal -1.15725e-12 -1.89127e-13 -1
      outer loop
         vertex -0.0203989 0.0112532 -0.112598
         vertex -0.0204063 0.0112456 -0.112598
         vertex -0.020421 0.0112832 -0.112598
      endloop
   endfacet
   facet normal -1.15725e-12 -1.89127e-13 -1
      outer loop
         vertex -0.020421 0.0112832 -0.112598
         vertex -0.0203526 0.0112782 -0.112598
         vertex -0.0203628 0.0112752 -0.112598
      endloop
   endfacet
   facet normal -1.15725e-12 -1.89127e-13 -1
      outer loop
         vertex -0.0204222 0.0113599 -0.112598
         vertex -0.0203602 0.0113899 -0.112598
         vertex -0.0203459 0.0113378 -0.112598
      endloop
   endfacet
   facet normal -1.15725e-12 -1.89127e-13 -1
      outer loop
         vertex -0.0203726 0.0112711 -0.112598
         vertex -0.020382 0.011266 -0.112598
         vertex -0.020421 0.0112832 -0.112598
      endloop
   endfacet
   facet normal -1.15725e-12 -1.89127e-13 -1
      outer loop
         vertex -0.0204129 0.0112373 -0.112598
         vertex -0.0204162 0.0112325 -0.112598
         vertex -0.0204275 0.011239 -0.112598
      endloop
   endfacet
   facet normal -1.15725e-12 -1.89127e-13 -1
      outer loop
         vertex -0.0203459 0.0113378 -0.112598
         vertex -0.0203364 0.0112801 -0.112598
         vertex -0.0203422 0.0112802 -0.112598
      endloop
   endfacet
   facet normal -1.15725e-12 -1.89127e-13 -1
      outer loop
         vertex -0.0206251 0.0117016 -0.112598
         vertex -0.0206539 0.0117557 -0.112598
         vertex -0.02055 0.0116683 -0.112598
      endloop
   endfacet
   facet normal -1.15725e-12 -1.89127e-13 -1
      outer loop
         vertex -0.0206251 0.0117016 -0.112598
         vertex -0.0206574 0.0116977 -0.112598
         vertex -0.0206539 0.0117557 -0.112598
      endloop
   endfacet
   facet normal -0.998203 0.0599153 0
      outer loop
         vertex -0.0206574 0.0116977 -0.112448
         vertex -0.0206539 0.0117557 -0.112448
         vertex -0.0206539 0.0117557 -0.112598
      endloop
   endfacet
   facet normal -0.998203 0.0599153 0
      outer loop
         vertex -0.0206539 0.0117557 -0.112598
         vertex -0.0206574 0.0116977 -0.112598
         vertex -0.0206574 0.0116977 -0.112448
      endloop
   endfacet
   facet normal 0.238488 -0.971146 0
      outer loop
         vertex -0.0203526 0.0112782 -0.112598
         vertex -0.0203422 0.0112802 -0.112598
         vertex -0.0203422 0.0112802 -0.112448
      endloop
   endfacet
   facet normal 0.335751 -0.941951 0
      outer loop
         vertex -0.0203628 0.0112752 -0.112598
         vertex -0.0203526 0.0112782 -0.112598
         vertex -0.0203526 0.0112782 -0.112448
      endloop
   endfacet
   facet normal 0.429552 -0.903042 0
      outer loop
         vertex -0.0203726 0.0112711 -0.112598
         vertex -0.0203628 0.0112752 -0.112598
         vertex -0.0203628 0.0112752 -0.112448
      endloop
   endfacet
   facet normal 0.518923 -0.854821 0
      outer loop
         vertex -0.020382 0.011266 -0.112598
         vertex -0.0203726 0.0112711 -0.112598
         vertex -0.0203726 0.0112711 -0.112448
      endloop
   endfacet
   facet normal 0.602943 -0.797784 0
      outer loop
         vertex -0.0203908 0.0112601 -0.112598
         vertex -0.020382 0.011266 -0.112598
         vertex -0.020382 0.011266 -0.112448
      endloop
   endfacet
   facet normal 0.680745 -0.732521 0
      outer loop
         vertex -0.0203989 0.0112532 -0.112598
         vertex -0.0203908 0.0112601 -0.112598
         vertex -0.0203908 0.0112601 -0.112448
      endloop
   endfacet
   facet normal 0.751527 -0.659703 0
      outer loop
         vertex -0.0204063 0.0112456 -0.112598
         vertex -0.0203989 0.0112532 -0.112598
         vertex -0.0203989 0.0112532 -0.112448
      endloop
   endfacet
   facet normal 0.814558 -0.580082 0
      outer loop
         vertex -0.0204129 0.0112373 -0.112598
         vertex -0.0204063 0.0112456 -0.112598
         vertex -0.0204063 0.0112456 -0.112448
      endloop
   endfacet
   facet normal 0.845437 -0.534076 0
      outer loop
         vertex -0.0204162 0.0112325 -0.112598
         vertex -0.0204129 0.0112373 -0.112598
         vertex -0.0204129 0.0112373 -0.112448
      endloop
   endfacet
   facet normal 0.138765 -0.990325 0
      outer loop
         vertex -0.0203422 0.0112802 -0.112598
         vertex -0.0203364 0.0112801 -0.112598
         vertex -0.0203364 0.0112801 -0.112448
      endloop
   endfacet
   facet normal 0.0837012 -0.996491 0
      outer loop
         vertex -0.0203364 0.0112801 -0.112448
         vertex -0.0203422 0.0112802 -0.112448
         vertex -0.0203422 0.0112802 -0.112598
      endloop
   endfacet
   facet normal 0.814558 -0.580082 0
      outer loop
         vertex -0.0204129 0.0112373 -0.112448
         vertex -0.0204162 0.0112325 -0.112448
         vertex -0.0204162 0.0112325 -0.112598
      endloop
   endfacet
   facet normal 0.751527 -0.659703 0
      outer loop
         vertex -0.0204063 0.0112456 -0.112448
         vertex -0.0204129 0.0112373 -0.112448
         vertex -0.0204129 0.0112373 -0.112598
      endloop
   endfacet
   facet normal 0.680745 -0.732521 0
      outer loop
         vertex -0.0203989 0.0112532 -0.112448
         vertex -0.0204063 0.0112456 -0.112448
         vertex -0.0204063 0.0112456 -0.112598
      endloop
   endfacet
   facet normal 0.602943 -0.797784 0
      outer loop
         vertex -0.0203908 0.0112601 -0.112448
         vertex -0.0203989 0.0112532 -0.112448
         vertex -0.0203989 0.0112532 -0.112598
      endloop
   endfacet
   facet normal 0.518923 -0.854821 0
      outer loop
         vertex -0.020382 0.011266 -0.112448
         vertex -0.0203908 0.0112601 -0.112448
         vertex -0.0203908 0.0112601 -0.112598
      endloop
   endfacet
   facet normal 0.429552 -0.903042 0
      outer loop
         vertex -0.0203726 0.0112711 -0.112448
         vertex -0.020382 0.011266 -0.112448
         vertex -0.020382 0.011266 -0.112598
      endloop
   endfacet
   facet normal 0.335751 -0.941951 0
      outer loop
         vertex -0.0203628 0.0112752 -0.112448
         vertex -0.0203726 0.0112711 -0.112448
         vertex -0.0203726 0.0112711 -0.112598
      endloop
   endfacet
   facet normal 0.238488 -0.971146 0
      outer loop
         vertex -0.0203526 0.0112782 -0.112448
         vertex -0.0203628 0.0112752 -0.112448
         vertex -0.0203628 0.0112752 -0.112598
      endloop
   endfacet
   facet normal 0.138765 -0.990325 0
      outer loop
         vertex -0.0203422 0.0112802 -0.112448
         vertex -0.0203526 0.0112782 -0.112448
         vertex -0.0203526 0.0112782 -0.112598
      endloop
   endfacet
   facet normal 0.99217 0.124893 0
      outer loop
         vertex -0.0203364 0.0112801 -0.112598
         vertex -0.0203459 0.0113378 -0.112598
         vertex -0.0203459 0.0113378 -0.112448
      endloop
   endfacet
   facet normal 0.949562 0.31358 0
      outer loop
         vertex -0.0203602 0.0113899 -0.112448
         vertex -0.0203459 0.0113378 -0.112448
         vertex -0.0203459 0.0113378 -0.112598
      endloop
   endfacet
   facet normal 0.915149 0.403115 0
      outer loop
         vertex -0.0203802 0.011442 -0.112598
         vertex -0.0203802 0.011442 -0.112448
         vertex -0.0203602 0.0113899 -0.112448
      endloop
   endfacet
   facet normal 0.878433 0.477866 0
      outer loop
         vertex -0.0204033 0.011489 -0.112598
         vertex -0.0204033 0.011489 -0.112448
         vertex -0.0203802 0.011442 -0.112448
      endloop
   endfacet
   facet normal 0.827683 0.561196 0
      outer loop
         vertex -0.0204311 0.0115348 -0.112448
         vertex -0.0204033 0.011489 -0.112448
         vertex -0.0204033 0.011489 -0.112598
      endloop
   endfacet
   facet normal 0.768772 0.639523 0
      outer loop
         vertex -0.0204654 0.0115801 -0.112598
         vertex -0.0204654 0.0115801 -0.112448
         vertex -0.0204311 0.0115348 -0.112448
      endloop
   endfacet
   facet normal 0.74865 0.662965 0
      outer loop
         vertex -0.0204807 0.011598 -0.112448
         vertex -0.0204654 0.0115801 -0.112448
         vertex -0.0204654 0.0115801 -0.112598
      endloop
   endfacet
   facet normal 0.679036 0.734105 0
      outer loop
         vertex -0.02055 0.0116683 -0.112448
         vertex -0.0204807 0.011598 -0.112448
         vertex -0.0204807 0.011598 -0.112598
      endloop
   endfacet
   facet normal 0.679036 0.734105 0
      outer loop
         vertex -0.02055 0.0116683 -0.112448
         vertex -0.02055 0.0116683 -0.112598
         vertex -0.0206539 0.0117557 -0.112598
      endloop
   endfacet
   facet normal 0.618313 0.785932 0
      outer loop
         vertex -0.0206539 0.0117557 -0.112598
         vertex -0.0206539 0.0117557 -0.112448
         vertex -0.02055 0.0116683 -0.112448
      endloop
   endfacet
   facet normal 0.74865 0.662965 0
      outer loop
         vertex -0.0204807 0.011598 -0.112598
         vertex -0.02055 0.0116683 -0.112598
         vertex -0.02055 0.0116683 -0.112448
      endloop
   endfacet
   facet normal 0.768772 0.639523 0
      outer loop
         vertex -0.0204654 0.0115801 -0.112598
         vertex -0.0204807 0.011598 -0.112598
         vertex -0.0204807 0.011598 -0.112448
      endloop
   endfacet
   facet normal 0.827683 0.561196 0
      outer loop
         vertex -0.0204311 0.0115348 -0.112448
         vertex -0.0204311 0.0115348 -0.112598
         vertex -0.0204654 0.0115801 -0.112598
      endloop
   endfacet
   facet normal 0.878433 0.477866 0
      outer loop
         vertex -0.0204033 0.011489 -0.112598
         vertex -0.0204311 0.0115348 -0.112598
         vertex -0.0204311 0.0115348 -0.112448
      endloop
   endfacet
   facet normal 0.915149 0.403115 0
      outer loop
         vertex -0.0203802 0.011442 -0.112448
         vertex -0.0203802 0.011442 -0.112598
         vertex -0.0204033 0.011489 -0.112598
      endloop
   endfacet
   facet normal 0.949562 0.31358 0
      outer loop
         vertex -0.0203602 0.0113899 -0.112448
         vertex -0.0203602 0.0113899 -0.112598
         vertex -0.0203802 0.011442 -0.112598
      endloop
   endfacet
   facet normal 0.97615 0.217096 0
      outer loop
         vertex -0.0203459 0.0113378 -0.112598
         vertex -0.0203602 0.0113899 -0.112598
         vertex -0.0203602 0.0113899 -0.112448
      endloop
   endfacet
   facet normal 0.97615 0.217096 0
      outer loop
         vertex -0.0203459 0.0113378 -0.112448
         vertex -0.0203364 0.0112801 -0.112448
         vertex -0.0203364 0.0112801 -0.112598
      endloop
   endfacet
endsolid RoboMaster GM6020 Ö±Á÷ÎÞË¢µç»ú. Units = meters