solid RoboMaster GM6020 Ö±Á÷ÎÞË¢µç»ú. STL generated by ONSHAPE BY PTC INC, 1.216. Units = meters
   facet normal 0 0 1
      outer loop
         vertex -0.0332567 -0.00240767 -0.110848
         vertex -0.0331695 -0.00340387 -0.110848
         vertex -0.0308385 -0.00319993 -0.110848
      endloop
   endfacet
   facet normal 0 0 1
      outer loop
         vertex -0.0308385 -0.00319993 -0.110848
         vertex -0.0309256 -0.00220373 -0.110848
         vertex -0.0332567 -0.00240767 -0.110848
      endloop
   endfacet
   facet normal 0 0 1
      outer loop
         vertex -0.0308385 -0.00319993 -0.110848
         vertex -0.0331695 -0.00340387 -0.110848
         vertex -0.033165 -0.00345593 -0.110851
      endloop
   endfacet
   facet normal 0.00911026 -0.104131 0.994522
      outer loop
         vertex -0.0308339 -0.00325199 -0.110851
         vertex -0.033165 -0.00345593 -0.110851
         vertex -0.0331605 -0.00350743 -0.110859
      endloop
   endfacet
   facet normal 0.0181207 -0.207121 0.978148
      outer loop
         vertex -0.0308294 -0.00330349 -0.110859
         vertex -0.0331605 -0.00350743 -0.110859
         vertex -0.0331561 -0.00355779 -0.110872
      endloop
   endfacet
   facet normal 0.0269326 -0.307841 0.951057
      outer loop
         vertex -0.030825 -0.00335385 -0.110872
         vertex -0.0331561 -0.00355779 -0.110872
         vertex -0.0331518 -0.00360646 -0.110891
      endloop
   endfacet
   facet normal 0.0354494 -0.405189 0.913545
      outer loop
         vertex -0.0308207 -0.00340252 -0.110891
         vertex -0.0331518 -0.00360646 -0.110891
         vertex -0.0331477 -0.00365292 -0.110915
      endloop
   endfacet
   facet normal 0.0435779 -0.498097 0.866025
      outer loop
         vertex -0.0308167 -0.00344897 -0.110915
         vertex -0.0331477 -0.00365292 -0.110915
         vertex -0.0331439 -0.00369664 -0.110943
      endloop
   endfacet
   facet normal 0.0512289 -0.585549 0.809017
      outer loop
         vertex -0.0308128 -0.0034927 -0.110943
         vertex -0.0331439 -0.00369664 -0.110943
         vertex -0.0331404 -0.00373716 -0.110976
      endloop
   endfacet
   facet normal 0.0583186 -0.666584 0.743145
      outer loop
         vertex -0.0308093 -0.00353322 -0.110976
         vertex -0.0331404 -0.00373716 -0.110976
         vertex -0.0331371 -0.00377403 -0.111013
      endloop
   endfacet
   facet normal 0.0647693 -0.740317 0.669131
      outer loop
         vertex -0.0308061 -0.00357008 -0.111013
         vertex -0.0331371 -0.00377403 -0.111013
         vertex -0.0331343 -0.00380684 -0.111054
      endloop
   endfacet
   facet normal 0.0705105 -0.805938 0.587785
      outer loop
         vertex -0.0308032 -0.00360289 -0.111054
         vertex -0.0331343 -0.00380684 -0.111054
         vertex -0.0331318 -0.00383523 -0.111098
      endloop
   endfacet
   facet normal 0.0754791 -0.86273 0.5
      outer loop
         vertex -0.0308007 -0.00363129 -0.111098
         vertex -0.0331318 -0.00383523 -0.111098
         vertex -0.0331297 -0.0038589 -0.111144
      endloop
   endfacet
   facet normal 0.0796207 -0.910069 0.406737
      outer loop
         vertex -0.0307986 -0.00365496 -0.111144
         vertex -0.0331297 -0.0038589 -0.111144
         vertex -0.0331281 -0.00387759 -0.111193
      endloop
   endfacet
   facet normal 0.08289 -0.947437 0.309017
      outer loop
         vertex -0.030797 -0.00367364 -0.111193
         vertex -0.0331281 -0.00387759 -0.111193
         vertex -0.0331269 -0.00389108 -0.111244
      endloop
   endfacet
   facet normal 0.0852512 -0.974425 0.207912
      outer loop
         vertex -0.0307958 -0.00368714 -0.111244
         vertex -0.0331269 -0.00389108 -0.111244
         vertex -0.0331262 -0.00389924 -0.111296
      endloop
   endfacet
   facet normal 0.0866783 -0.990737 0.104528
      outer loop
         vertex -0.0307951 -0.00369529 -0.111296
         vertex -0.0331262 -0.00389924 -0.111296
         vertex -0.033126 -0.00390197 -0.111348
      endloop
   endfacet
   facet normal 0.0871557 -0.996195 1.19904e-11
      outer loop
         vertex -0.033126 -0.00390197 -0.111348
         vertex -0.0307949 -0.00369802 -0.111348
         vertex -0.0307951 -0.00369529 -0.111296
      endloop
   endfacet
   facet normal 0.0866783 -0.990737 0.104528
      outer loop
         vertex -0.0331262 -0.00389924 -0.111296
         vertex -0.0307951 -0.00369529 -0.111296
         vertex -0.0307958 -0.00368714 -0.111244
      endloop
   endfacet
   facet normal 0.0852512 -0.974425 0.207912
      outer loop
         vertex -0.0331269 -0.00389108 -0.111244
         vertex -0.0307958 -0.00368714 -0.111244
         vertex -0.030797 -0.00367364 -0.111193
      endloop
   endfacet
   facet normal 0.08289 -0.947437 0.309017
      outer loop
         vertex -0.0331281 -0.00387759 -0.111193
         vertex -0.030797 -0.00367364 -0.111193
         vertex -0.0307986 -0.00365496 -0.111144
      endloop
   endfacet
   facet normal 0.0796207 -0.910069 0.406737
      outer loop
         vertex -0.0331297 -0.0038589 -0.111144
         vertex -0.0307986 -0.00365496 -0.111144
         vertex -0.0308007 -0.00363129 -0.111098
      endloop
   endfacet
   facet normal 0.0754791 -0.86273 0.5
      outer loop
         vertex -0.0331318 -0.00383523 -0.111098
         vertex -0.0308007 -0.00363129 -0.111098
         vertex -0.0308032 -0.00360289 -0.111054
      endloop
   endfacet
   facet normal 0.0705105 -0.805938 0.587785
      outer loop
         vertex -0.0331343 -0.00380684 -0.111054
         vertex -0.0308032 -0.00360289 -0.111054
         vertex -0.0308061 -0.00357008 -0.111013
      endloop
   endfacet
   facet normal 0.0647693 -0.740317 0.669131
      outer loop
         vertex -0.0331371 -0.00377403 -0.111013
         vertex -0.0308061 -0.00357008 -0.111013
         vertex -0.0308093 -0.00353322 -0.110976
      endloop
   endfacet
   facet normal 0.0583186 -0.666584 0.743145
      outer loop
         vertex -0.0331404 -0.00373716 -0.110976
         vertex -0.0308093 -0.00353322 -0.110976
         vertex -0.0308128 -0.0034927 -0.110943
      endloop
   endfacet
   facet normal 0.0512289 -0.585549 0.809017
      outer loop
         vertex -0.0331439 -0.00369664 -0.110943
         vertex -0.0308128 -0.0034927 -0.110943
         vertex -0.0308167 -0.00344897 -0.110915
      endloop
   endfacet
   facet normal 0.0435779 -0.498097 0.866025
      outer loop
         vertex -0.0331477 -0.00365292 -0.110915
         vertex -0.0308167 -0.00344897 -0.110915
         vertex -0.0308207 -0.00340252 -0.110891
      endloop
   endfacet
   facet normal 0.0354494 -0.405189 0.913545
      outer loop
         vertex -0.0331518 -0.00360646 -0.110891
         vertex -0.0308207 -0.00340252 -0.110891
         vertex -0.030825 -0.00335385 -0.110872
      endloop
   endfacet
   facet normal 0.0269326 -0.307841 0.951057
      outer loop
         vertex -0.0331561 -0.00355779 -0.110872
         vertex -0.030825 -0.00335385 -0.110872
         vertex -0.0308294 -0.00330349 -0.110859
      endloop
   endfacet
   facet normal 0.0181207 -0.207121 0.978148
      outer loop
         vertex -0.0331605 -0.00350743 -0.110859
         vertex -0.0308294 -0.00330349 -0.110859
         vertex -0.0308339 -0.00325199 -0.110851
      endloop
   endfacet
   facet normal 0.00911026 -0.104131 0.994522
      outer loop
         vertex -0.033165 -0.00345593 -0.110851
         vertex -0.0308339 -0.00325199 -0.110851
         vertex -0.0308385 -0.00319993 -0.110848
      endloop
   endfacet
   facet normal 3.46945e-15 1.9082e-14 1
      outer loop
         vertex -0.0332567 -0.00240767 -0.110848
         vertex -0.0309256 -0.00220373 -0.110848
         vertex -0.0309302 -0.00215167 -0.110851
      endloop
   endfacet
   facet normal -0.00911026 0.104131 0.994522
      outer loop
         vertex -0.0332612 -0.00235561 -0.110851
         vertex -0.0309302 -0.00215167 -0.110851
         vertex -0.0309347 -0.00210017 -0.110859
      endloop
   endfacet
   facet normal -0.0181207 0.207121 0.978148
      outer loop
         vertex -0.0332657 -0.00230411 -0.110859
         vertex -0.0309347 -0.00210017 -0.110859
         vertex -0.0309391 -0.00204981 -0.110872
      endloop
   endfacet
   facet normal -0.0269326 0.307841 0.951057
      outer loop
         vertex -0.0332702 -0.00225375 -0.110872
         vertex -0.0309391 -0.00204981 -0.110872
         vertex -0.0309433 -0.00200114 -0.110891
      endloop
   endfacet
   facet normal -0.0354494 0.405189 0.913545
      outer loop
         vertex -0.0332744 -0.00220508 -0.110891
         vertex -0.0309433 -0.00200114 -0.110891
         vertex -0.0309474 -0.00195468 -0.110915
      endloop
   endfacet
   facet normal -0.0435779 0.498097 0.866025
      outer loop
         vertex -0.0332785 -0.00215862 -0.110915
         vertex -0.0309474 -0.00195468 -0.110915
         vertex -0.0309512 -0.00191096 -0.110943
      endloop
   endfacet
   facet normal -0.0512289 0.585549 0.809017
      outer loop
         vertex -0.0332823 -0.0021149 -0.110943
         vertex -0.0309512 -0.00191096 -0.110943
         vertex -0.0309548 -0.00187044 -0.110976
      endloop
   endfacet
   facet normal -0.0583186 0.666584 0.743145
      outer loop
         vertex -0.0332858 -0.00207438 -0.110976
         vertex -0.0309548 -0.00187044 -0.110976
         vertex -0.030958 -0.00183357 -0.111013
      endloop
   endfacet
   facet normal -0.0647693 0.740317 0.669131
      outer loop
         vertex -0.0332891 -0.00203751 -0.111013
         vertex -0.030958 -0.00183357 -0.111013
         vertex -0.0309609 -0.00180076 -0.111054
      endloop
   endfacet
   facet normal -0.0705105 0.805938 0.587785
      outer loop
         vertex -0.0332919 -0.0020047 -0.111054
         vertex -0.0309609 -0.00180076 -0.111054
         vertex -0.0309634 -0.00177237 -0.111098
      endloop
   endfacet
   facet normal -0.0754791 0.86273 0.5
      outer loop
         vertex -0.0332944 -0.00197631 -0.111098
         vertex -0.0309634 -0.00177237 -0.111098
         vertex -0.0309654 -0.0017487 -0.111144
      endloop
   endfacet
   facet normal -0.0796207 0.910069 0.406737
      outer loop
         vertex -0.0332965 -0.00195264 -0.111144
         vertex -0.0309654 -0.0017487 -0.111144
         vertex -0.0309671 -0.00173001 -0.111193
      endloop
   endfacet
   facet normal -0.08289 0.947437 0.309017
      outer loop
         vertex -0.0332981 -0.00193395 -0.111193
         vertex -0.0309671 -0.00173001 -0.111193
         vertex -0.0309682 -0.00171652 -0.111244
      endloop
   endfacet
   facet normal -0.0852512 0.974425 0.207912
      outer loop
         vertex -0.0332993 -0.00192046 -0.111244
         vertex -0.0309682 -0.00171652 -0.111244
         vertex -0.030969 -0.00170836 -0.111296
      endloop
   endfacet
   facet normal -0.0866783 0.990737 0.104528
      outer loop
         vertex -0.0333 -0.0019123 -0.111296
         vertex -0.030969 -0.00170836 -0.111296
         vertex -0.0309692 -0.00170563 -0.111348
      endloop
   endfacet
   facet normal -0.0871557 0.996195 0
      outer loop
         vertex -0.0309692 -0.00170563 -0.111348
         vertex -0.0333003 -0.00190958 -0.111348
         vertex -0.0333 -0.0019123 -0.111296
      endloop
   endfacet
   facet normal -0.0866783 0.990737 0.104528
      outer loop
         vertex -0.030969 -0.00170836 -0.111296
         vertex -0.0333 -0.0019123 -0.111296
         vertex -0.0332993 -0.00192046 -0.111244
      endloop
   endfacet
   facet normal -0.0852512 0.974425 0.207912
      outer loop
         vertex -0.0309682 -0.00171652 -0.111244
         vertex -0.0332993 -0.00192046 -0.111244
         vertex -0.0332981 -0.00193395 -0.111193
      endloop
   endfacet
   facet normal -0.08289 0.947437 0.309017
      outer loop
         vertex -0.0309671 -0.00173001 -0.111193
         vertex -0.0332981 -0.00193395 -0.111193
         vertex -0.0332965 -0.00195264 -0.111144
      endloop
   endfacet
   facet normal -0.0796207 0.910069 0.406737
      outer loop
         vertex -0.0309654 -0.0017487 -0.111144
         vertex -0.0332965 -0.00195264 -0.111144
         vertex -0.0332944 -0.00197631 -0.111098
      endloop
   endfacet
   facet normal -0.0754791 0.86273 0.5
      outer loop
         vertex -0.0309634 -0.00177237 -0.111098
         vertex -0.0332944 -0.00197631 -0.111098
         vertex -0.0332919 -0.0020047 -0.111054
      endloop
   endfacet
   facet normal -0.0705105 0.805938 0.587785
      outer loop
         vertex -0.0309609 -0.00180076 -0.111054
         vertex -0.0332919 -0.0020047 -0.111054
         vertex -0.0332891 -0.00203751 -0.111013
      endloop
   endfacet
   facet normal -0.0647693 0.740317 0.669131
      outer loop
         vertex -0.030958 -0.00183357 -0.111013
         vertex -0.0332891 -0.00203751 -0.111013
         vertex -0.0332858 -0.00207438 -0.110976
      endloop
   endfacet
   facet normal -0.0583186 0.666584 0.743145
      outer loop
         vertex -0.0309548 -0.00187044 -0.110976
         vertex -0.0332858 -0.00207438 -0.110976
         vertex -0.0332823 -0.0021149 -0.110943
      endloop
   endfacet
   facet normal -0.0512289 0.585549 0.809017
      outer loop
         vertex -0.0309512 -0.00191096 -0.110943
         vertex -0.0332823 -0.0021149 -0.110943
         vertex -0.0332785 -0.00215862 -0.110915
      endloop
   endfacet
   facet normal -0.0435779 0.498097 0.866025
      outer loop
         vertex -0.0309474 -0.00195468 -0.110915
         vertex -0.0332785 -0.00215862 -0.110915
         vertex -0.0332744 -0.00220508 -0.110891
      endloop
   endfacet
   facet normal -0.0354494 0.405189 0.913545
      outer loop
         vertex -0.0309433 -0.00200114 -0.110891
         vertex -0.0332744 -0.00220508 -0.110891
         vertex -0.0332702 -0.00225375 -0.110872
      endloop
   endfacet
   facet normal -0.0269326 0.307841 0.951057
      outer loop
         vertex -0.0309391 -0.00204981 -0.110872
         vertex -0.0332702 -0.00225375 -0.110872
         vertex -0.0332657 -0.00230411 -0.110859
      endloop
   endfacet
   facet normal -0.0181207 0.207121 0.978148
      outer loop
         vertex -0.0309347 -0.00210017 -0.110859
         vertex -0.0332657 -0.00230411 -0.110859
         vertex -0.0332612 -0.00235561 -0.110851
      endloop
   endfacet
   facet normal -0.00911026 0.104131 0.994522
      outer loop
         vertex -0.0309302 -0.00215167 -0.110851
         vertex -0.0332612 -0.00235561 -0.110851
         vertex -0.0332567 -0.00240767 -0.110848
      endloop
   endfacet
   facet normal -0.996195 -0.0871557 0
      outer loop
         vertex -0.0332891 -0.00203751 -0.111013
         vertex -0.0332919 -0.0020047 -0.111054
         vertex -0.0332944 -0.00197631 -0.111098
      endloop
   endfacet
   facet normal -0.996195 -0.0871557 0
      outer loop
         vertex -0.033126 -0.00390197 -0.111348
         vertex -0.0331269 -0.00389108 -0.111244
         vertex -0.0331281 -0.00387759 -0.111193
      endloop
   endfacet
   facet normal -0.996195 -0.0871557 0
      outer loop
         vertex -0.0332891 -0.00203751 -0.111013
         vertex -0.0332981 -0.00193395 -0.111193
         vertex -0.0332993 -0.00192046 -0.111244
      endloop
   endfacet
   facet normal -0.996195 -0.0871557 0
      outer loop
         vertex -0.0332944 -0.00197631 -0.111098
         vertex -0.0332965 -0.00195264 -0.111144
         vertex -0.0332891 -0.00203751 -0.111013
      endloop
   endfacet
   facet normal -0.996195 -0.0871557 0
      outer loop
         vertex -0.0333 -0.0019123 -0.111296
         vertex -0.0332785 -0.00215862 -0.110915
         vertex -0.0332823 -0.0021149 -0.110943
      endloop
   endfacet
   facet normal -0.996195 -0.0871557 0
      outer loop
         vertex -0.033126 -0.00390197 -0.111348
         vertex -0.0331262 -0.00389924 -0.111296
         vertex -0.0331269 -0.00389108 -0.111244
      endloop
   endfacet
   facet normal -0.996195 -0.0871557 0
      outer loop
         vertex -0.0332965 -0.00195264 -0.111144
         vertex -0.0332981 -0.00193395 -0.111193
         vertex -0.0332891 -0.00203751 -0.111013
      endloop
   endfacet
   facet normal -0.996195 -0.0871557 0
      outer loop
         vertex -0.0332823 -0.0021149 -0.110943
         vertex -0.0332858 -0.00207438 -0.110976
         vertex -0.0333 -0.0019123 -0.111296
      endloop
   endfacet
   facet normal -0.996195 -0.0871557 0
      outer loop
         vertex -0.033126 -0.00390197 -0.111348
         vertex -0.0331318 -0.00383523 -0.111098
         vertex -0.0331343 -0.00380684 -0.111054
      endloop
   endfacet
   facet normal -0.996195 -0.0871557 0
      outer loop
         vertex -0.0331281 -0.00387759 -0.111193
         vertex -0.0331297 -0.0038589 -0.111144
         vertex -0.033126 -0.00390197 -0.111348
      endloop
   endfacet
   facet normal -0.996195 -0.0871557 0
      outer loop
         vertex -0.0332858 -0.00207438 -0.110976
         vertex -0.0332891 -0.00203751 -0.111013
         vertex -0.0333 -0.0019123 -0.111296
      endloop
   endfacet
   facet normal -0.996195 -0.0871557 0
      outer loop
         vertex -0.033126 -0.00390197 -0.111348
         vertex -0.0331404 -0.00373716 -0.110976
         vertex -0.0331439 -0.00369664 -0.110943
      endloop
   endfacet
   facet normal -0.996195 -0.0871557 0
      outer loop
         vertex -0.0331297 -0.0038589 -0.111144
         vertex -0.0331318 -0.00383523 -0.111098
         vertex -0.033126 -0.00390197 -0.111348
      endloop
   endfacet
   facet normal -0.996195 -0.0871557 0
      outer loop
         vertex -0.0332993 -0.00192046 -0.111244
         vertex -0.0333 -0.0019123 -0.111296
         vertex -0.0332891 -0.00203751 -0.111013
      endloop
   endfacet
   facet normal -0.996195 -0.0871557 0
      outer loop
         vertex -0.0333003 -0.00190958 -0.111348
         vertex -0.0332657 -0.00230411 -0.110859
         vertex -0.0332702 -0.00225375 -0.110872
      endloop
   endfacet
   facet normal -0.996195 -0.0871557 0
      outer loop
         vertex -0.0333003 -0.00190958 -0.111348
         vertex -0.0332567 -0.00240767 -0.110848
         vertex -0.0332612 -0.00235561 -0.110851
      endloop
   endfacet
   facet normal -0.996195 -0.0871557 0
      outer loop
         vertex -0.033126 -0.00390197 -0.111348
         vertex -0.0331561 -0.00355779 -0.110872
         vertex -0.0331605 -0.00350743 -0.110859
      endloop
   endfacet
   facet normal -0.996195 -0.0871557 0
      outer loop
         vertex -0.0331439 -0.00369664 -0.110943
         vertex -0.0331477 -0.00365292 -0.110915
         vertex -0.033126 -0.00390197 -0.111348
      endloop
   endfacet
   facet normal -0.996195 -0.0871557 0
      outer loop
         vertex -0.0331343 -0.00380684 -0.111054
         vertex -0.0331371 -0.00377403 -0.111013
         vertex -0.033126 -0.00390197 -0.111348
      endloop
   endfacet
   facet normal -0.996195 -0.0871557 0
      outer loop
         vertex -0.0333003 -0.00190958 -0.111348
         vertex -0.0332744 -0.00220508 -0.110891
         vertex -0.0332785 -0.00215862 -0.110915
      endloop
   endfacet
   facet normal -0.996195 -0.0871557 0
      outer loop
         vertex -0.0332612 -0.00235561 -0.110851
         vertex -0.0332657 -0.00230411 -0.110859
         vertex -0.0333003 -0.00190958 -0.111348
      endloop
   endfacet
   facet normal -0.996195 -0.0871557 0
      outer loop
         vertex -0.033126 -0.00390197 -0.111348
         vertex -0.0331518 -0.00360646 -0.110891
         vertex -0.0331561 -0.00355779 -0.110872
      endloop
   endfacet
   facet normal -0.996195 -0.0871557 0
      outer loop
         vertex -0.0331371 -0.00377403 -0.111013
         vertex -0.0331404 -0.00373716 -0.110976
         vertex -0.033126 -0.00390197 -0.111348
      endloop
   endfacet
   facet normal -0.996195 -0.0871557 0
      outer loop
         vertex -0.0332702 -0.00225375 -0.110872
         vertex -0.0332744 -0.00220508 -0.110891
         vertex -0.0333003 -0.00190958 -0.111348
      endloop
   endfacet
   facet normal -0.996195 -0.0871557 0
      outer loop
         vertex -0.0331477 -0.00365292 -0.110915
         vertex -0.0331518 -0.00360646 -0.110891
         vertex -0.033126 -0.00390197 -0.111348
      endloop
   endfacet
   facet normal -0.996195 -0.0871557 0
      outer loop
         vertex -0.0333 -0.0019123 -0.111296
         vertex -0.0333003 -0.00190958 -0.111348
         vertex -0.0332785 -0.00215862 -0.110915
      endloop
   endfacet
   facet normal -0.996195 -0.0871557 0
      outer loop
         vertex -0.033126 -0.00390197 -0.114348
         vertex -0.0331695 -0.00340387 -0.110848
         vertex -0.0332567 -0.00240767 -0.110848
      endloop
   endfacet
   facet normal -0.996195 -0.0871557 0
      outer loop
         vertex -0.0331605 -0.00350743 -0.110859
         vertex -0.033165 -0.00345593 -0.110851
         vertex -0.033126 -0.00390197 -0.111348
      endloop
   endfacet
   facet normal -0.996195 -0.0871557 0
      outer loop
         vertex -0.0332567 -0.00240767 -0.110848
         vertex -0.0333003 -0.00190958 -0.114348
         vertex -0.033126 -0.00390197 -0.114348
      endloop
   endfacet
   facet normal -0.996195 -0.0871557 0
      outer loop
         vertex -0.0331695 -0.00340387 -0.110848
         vertex -0.033126 -0.00390197 -0.114348
         vertex -0.033126 -0.00390197 -0.111348
      endloop
   endfacet
   facet normal -0.996195 -0.0871557 0
      outer loop
         vertex -0.033165 -0.00345593 -0.110851
         vertex -0.0331695 -0.00340387 -0.110848
         vertex -0.033126 -0.00390197 -0.111348
      endloop
   endfacet
   facet normal -0.996195 -0.0871557 0
      outer loop
         vertex -0.0333003 -0.00190958 -0.111348
         vertex -0.0333003 -0.00190958 -0.114348
         vertex -0.0332567 -0.00240767 -0.110848
      endloop
   endfacet
   facet normal 0 0 -1
      outer loop
         vertex -0.0323041 -0.00182242 -0.114348
         vertex -0.0321298 -0.00381481 -0.114348
         vertex -0.033126 -0.00390197 -0.114348
      endloop
   endfacet
   facet normal 0 0 -1
      outer loop
         vertex -0.033126 -0.00390197 -0.114348
         vertex -0.0333003 -0.00190958 -0.114348
         vertex -0.0323041 -0.00182242 -0.114348
      endloop
   endfacet
   facet normal -0.996195 -0.0871557 0
      outer loop
         vertex -0.0323041 -0.00182242 -0.114348
         vertex -0.0323041 -0.00182242 -0.115348
         vertex -0.0321298 -0.00381481 -0.115348
      endloop
   endfacet
   facet normal -0.996195 -0.0871557 0
      outer loop
         vertex -0.0321298 -0.00381481 -0.115348
         vertex -0.0321298 -0.00381481 -0.114348
         vertex -0.0323041 -0.00182242 -0.114348
      endloop
   endfacet
   facet normal 0.0871557 -0.996195 0
      outer loop
         vertex -0.0307949 -0.00369802 -0.115548
         vertex -0.0321298 -0.00381481 -0.114348
         vertex -0.0321298 -0.00381481 -0.115348
      endloop
   endfacet
   facet normal 0.0871557 -0.996195 0
      outer loop
         vertex -0.0307949 -0.00369802 -0.115548
         vertex -0.0307949 -0.00369802 -0.111348
         vertex -0.0321298 -0.00381481 -0.114348
      endloop
   endfacet
   facet normal 0.0871557 -0.996195 0
      outer loop
         vertex -0.033126 -0.00390197 -0.111348
         vertex -0.033126 -0.00390197 -0.114348
         vertex -0.0321298 -0.00381481 -0.114348
      endloop
   endfacet
   facet normal 0.0871557 -0.996195 0
      outer loop
         vertex -0.0321298 -0.00381481 -0.114348
         vertex -0.0307949 -0.00369802 -0.111348
         vertex -0.033126 -0.00390197 -0.111348
      endloop
   endfacet
   facet normal 0.0871557 -0.996195 0
      outer loop
         vertex -0.0321298 -0.00381481 -0.115348
         vertex -0.0319305 -0.00379738 -0.115548
         vertex -0.0307949 -0.00369802 -0.115548
      endloop
   endfacet
   facet normal -0.0871557 0.996195 0
      outer loop
         vertex -0.0309692 -0.00170563 -0.115548
         vertex -0.0321048 -0.00180499 -0.115548
         vertex -0.0323041 -0.00182242 -0.115348
      endloop
   endfacet
   facet normal -0.0871557 0.996195 0
      outer loop
         vertex -0.0333003 -0.00190958 -0.111348
         vertex -0.0309692 -0.00170563 -0.111348
         vertex -0.0323041 -0.00182242 -0.114348
      endloop
   endfacet
   facet normal -0.0871557 0.996195 0
      outer loop
         vertex -0.0323041 -0.00182242 -0.115348
         vertex -0.0323041 -0.00182242 -0.114348
         vertex -0.0309692 -0.00170563 -0.115548
      endloop
   endfacet
   facet normal -0.0871557 0.996195 0
      outer loop
         vertex -0.0323041 -0.00182242 -0.114348
         vertex -0.0309692 -0.00170563 -0.111348
         vertex -0.0309692 -0.00170563 -0.115548
      endloop
   endfacet
   facet normal -0.0871557 0.996195 0
      outer loop
         vertex -0.0323041 -0.00182242 -0.114348
         vertex -0.0333003 -0.00190958 -0.114348
         vertex -0.0333003 -0.00190958 -0.111348
      endloop
   endfacet
   facet normal -0.704416 -0.0616284 -0.707107
      outer loop
         vertex -0.0319305 -0.00379738 -0.115548
         vertex -0.0321298 -0.00381481 -0.115348
         vertex -0.0323041 -0.00182242 -0.115348
      endloop
   endfacet
   facet normal -0.704416 -0.0616284 -0.707107
      outer loop
         vertex -0.0323041 -0.00182242 -0.115348
         vertex -0.0321048 -0.00180499 -0.115548
         vertex -0.0319305 -0.00379738 -0.115548
      endloop
   endfacet
   facet normal -0.996195 -0.0871557 0
      outer loop
         vertex -0.0307513 -0.00419612 -0.110348
         vertex -0.0308032 -0.00360289 -0.111054
         vertex -0.0308007 -0.00363129 -0.111098
      endloop
   endfacet
   facet normal -0.996195 -0.0871557 0
      outer loop
         vertex -0.0308007 -0.00363129 -0.111098
         vertex -0.0307986 -0.00365496 -0.111144
         vertex -0.0307513 -0.00419612 -0.110348
      endloop
   endfacet
   facet normal -0.996195 -0.0871557 0
      outer loop
         vertex -0.0307986 -0.00365496 -0.111144
         vertex -0.030797 -0.00367364 -0.111193
         vertex -0.0307513 -0.00419612 -0.110348
      endloop
   endfacet
   facet normal -0.996195 -0.0871557 0
      outer loop
         vertex -0.0307513 -0.00419612 -0.110348
         vertex -0.0308128 -0.0034927 -0.110943
         vertex -0.0308093 -0.00353322 -0.110976
      endloop
   endfacet
   facet normal -0.996195 -0.0871557 0
      outer loop
         vertex -0.0307513 -0.00419612 -0.110348
         vertex -0.030825 -0.00335385 -0.110872
         vertex -0.0308207 -0.00340252 -0.110891
      endloop
   endfacet
   facet normal -0.996195 -0.0871557 0
      outer loop
         vertex -0.0307513 -0.00419612 -0.110348
         vertex -0.0310128 -0.00120754 -0.110348
         vertex -0.0309256 -0.00220373 -0.110848
      endloop
   endfacet
   facet normal -0.996195 -0.0871557 0
      outer loop
         vertex -0.030797 -0.00367364 -0.111193
         vertex -0.0307958 -0.00368714 -0.111244
         vertex -0.0307513 -0.00419612 -0.110348
      endloop
   endfacet
   facet normal -0.996195 -0.0871557 0
      outer loop
         vertex -0.0308093 -0.00353322 -0.110976
         vertex -0.0308061 -0.00357008 -0.111013
         vertex -0.0307513 -0.00419612 -0.110348
      endloop
   endfacet
   facet normal -0.996195 -0.0871557 0
      outer loop
         vertex -0.0308207 -0.00340252 -0.110891
         vertex -0.0308167 -0.00344897 -0.110915
         vertex -0.0307513 -0.00419612 -0.110348
      endloop
   endfacet
   facet normal -0.996195 -0.0871557 0
      outer loop
         vertex -0.0309256 -0.00220373 -0.110848
         vertex -0.0308385 -0.00319993 -0.110848
         vertex -0.0307513 -0.00419612 -0.110348
      endloop
   endfacet
   facet normal -0.996195 -0.0871557 0
      outer loop
         vertex -0.0308061 -0.00357008 -0.111013
         vertex -0.0308032 -0.00360289 -0.111054
         vertex -0.0307513 -0.00419612 -0.110348
      endloop
   endfacet
   facet normal -0.996195 -0.0871557 0
      outer loop
         vertex -0.0307513 -0.00419612 -0.110348
         vertex -0.0308294 -0.00330349 -0.110859
         vertex -0.030825 -0.00335385 -0.110872
      endloop
   endfacet
   facet normal -0.996195 -0.0871557 0
      outer loop
         vertex -0.0310128 -0.00120754 -0.110348
         vertex -0.0309302 -0.00215167 -0.110851
         vertex -0.0309256 -0.00220373 -0.110848
      endloop
   endfacet
   facet normal -0.996195 -0.0871557 0
      outer loop
         vertex -0.0308167 -0.00344897 -0.110915
         vertex -0.0308128 -0.0034927 -0.110943
         vertex -0.0307513 -0.00419612 -0.110348
      endloop
   endfacet
   facet normal -0.996195 -0.0871557 0
      outer loop
         vertex -0.0308385 -0.00319993 -0.110848
         vertex -0.0308339 -0.00325199 -0.110851
         vertex -0.0307513 -0.00419612 -0.110348
      endloop
   endfacet
   facet normal -0.996195 -0.0871557 0
      outer loop
         vertex -0.0310128 -0.00120754 -0.110348
         vertex -0.030969 -0.00170836 -0.111296
         vertex -0.0309682 -0.00171652 -0.111244
      endloop
   endfacet
   facet normal -0.996195 -0.0871557 0
      outer loop
         vertex -0.0308339 -0.00325199 -0.110851
         vertex -0.0308294 -0.00330349 -0.110859
         vertex -0.0307513 -0.00419612 -0.110348
      endloop
   endfacet
   facet normal -0.996195 -0.0871557 0
      outer loop
         vertex -0.0310128 -0.00120754 -0.110348
         vertex -0.0309391 -0.00204981 -0.110872
         vertex -0.0309347 -0.00210017 -0.110859
      endloop
   endfacet
   facet normal -0.996195 -0.0871557 0
      outer loop
         vertex -0.0310128 -0.00120754 -0.110348
         vertex -0.0309474 -0.00195468 -0.110915
         vertex -0.0309433 -0.00200114 -0.110891
      endloop
   endfacet
   facet normal -0.996195 -0.0871557 0
      outer loop
         vertex -0.0310128 -0.00120754 -0.110348
         vertex -0.0309609 -0.00180076 -0.111054
         vertex -0.030958 -0.00183357 -0.111013
      endloop
   endfacet
   facet normal -0.996195 -0.0871557 0
      outer loop
         vertex -0.0310128 -0.00120754 -0.110348
         vertex -0.0309654 -0.0017487 -0.111144
         vertex -0.0309634 -0.00177237 -0.111098
      endloop
   endfacet
   facet normal -0.996195 -0.0871557 0
      outer loop
         vertex -0.0309682 -0.00171652 -0.111244
         vertex -0.0309671 -0.00173001 -0.111193
         vertex -0.0310128 -0.00120754 -0.110348
      endloop
   endfacet
   facet normal -0.996195 -0.0871557 0
      outer loop
         vertex -0.0309347 -0.00210017 -0.110859
         vertex -0.0309302 -0.00215167 -0.110851
         vertex -0.0310128 -0.00120754 -0.110348
      endloop
   endfacet
   facet normal -0.996195 -0.0871557 0
      outer loop
         vertex -0.0310128 -0.00120754 -0.110348
         vertex -0.0309512 -0.00191096 -0.110943
         vertex -0.0309474 -0.00195468 -0.110915
      endloop
   endfacet
   facet normal -0.996195 -0.0871557 0
      outer loop
         vertex -0.030958 -0.00183357 -0.111013
         vertex -0.0309548 -0.00187044 -0.110976
         vertex -0.0310128 -0.00120754 -0.110348
      endloop
   endfacet
   facet normal -0.996195 -0.0871557 0
      outer loop
         vertex -0.0309671 -0.00173001 -0.111193
         vertex -0.0309654 -0.0017487 -0.111144
         vertex -0.0310128 -0.00120754 -0.110348
      endloop
   endfacet
   facet normal -0.996195 -0.0871557 0
      outer loop
         vertex -0.0309433 -0.00200114 -0.110891
         vertex -0.0309391 -0.00204981 -0.110872
         vertex -0.0310128 -0.00120754 -0.110348
      endloop
   endfacet
   facet normal -0.996195 -0.0871557 0
      outer loop
         vertex -0.0309634 -0.00177237 -0.111098
         vertex -0.0309609 -0.00180076 -0.111054
         vertex -0.0310128 -0.00120754 -0.110348
      endloop
   endfacet
   facet normal -0.996195 -0.0871557 0
      outer loop
         vertex -0.0310128 -0.00120754 -0.115548
         vertex -0.0309692 -0.00170563 -0.115548
         vertex -0.0309692 -0.00170563 -0.111348
      endloop
   endfacet
   facet normal -0.996195 -0.0871557 0
      outer loop
         vertex -0.0307513 -0.00419612 -0.115548
         vertex -0.0307513 -0.00419612 -0.110348
         vertex -0.0307949 -0.00369802 -0.111348
      endloop
   endfacet
   facet normal -0.996195 -0.0871557 0
      outer loop
         vertex -0.0309548 -0.00187044 -0.110976
         vertex -0.0309512 -0.00191096 -0.110943
         vertex -0.0310128 -0.00120754 -0.110348
      endloop
   endfacet
   facet normal -0.996195 -0.0871557 0
      outer loop
         vertex -0.0309692 -0.00170563 -0.111348
         vertex -0.0310128 -0.00120754 -0.110348
         vertex -0.0310128 -0.00120754 -0.115548
      endloop
   endfacet
   facet normal -0.996195 -0.0871557 0
      outer loop
         vertex -0.0307513 -0.00419612 -0.110348
         vertex -0.0307951 -0.00369529 -0.111296
         vertex -0.0307949 -0.00369802 -0.111348
      endloop
   endfacet
   facet normal -0.996195 -0.0871557 0
      outer loop
         vertex -0.0309692 -0.00170563 -0.111348
         vertex -0.030969 -0.00170836 -0.111296
         vertex -0.0310128 -0.00120754 -0.110348
      endloop
   endfacet
   facet normal -0.996195 -0.0871557 0
      outer loop
         vertex -0.0307958 -0.00368714 -0.111244
         vertex -0.0307951 -0.00369529 -0.111296
         vertex -0.0307513 -0.00419612 -0.110348
      endloop
   endfacet
   facet normal -0.996195 -0.0871557 0
      outer loop
         vertex -0.0307949 -0.00369802 -0.111348
         vertex -0.0307949 -0.00369802 -0.115548
         vertex -0.0307513 -0.00419612 -0.115548
      endloop
   endfacet
   facet normal 0 0 -1
      outer loop
         vertex -0.0305147 -0.00116396 -0.115548
         vertex -0.0307949 -0.00369802 -0.115548
         vertex -0.0309692 -0.00170563 -0.115548
      endloop
   endfacet
   facet normal 0 0 -1
      outer loop
         vertex -0.0319305 -0.00379738 -0.115548
         vertex -0.0321048 -0.00180499 -0.115548
         vertex -0.0309692 -0.00170563 -0.115548
      endloop
   endfacet
   facet normal 0 0 -1
      outer loop
         vertex -0.0309692 -0.00170563 -0.115548
         vertex -0.0307949 -0.00369802 -0.115548
         vertex -0.0319305 -0.00379738 -0.115548
      endloop
   endfacet
   facet normal 0 0 -1
      outer loop
         vertex -0.0302532 -0.00415254 -0.115548
         vertex -0.0307513 -0.00419612 -0.115548
         vertex -0.0307949 -0.00369802 -0.115548
      endloop
   endfacet
   facet normal 0 0 -1
      outer loop
         vertex -0.0307949 -0.00369802 -0.115548
         vertex -0.0305147 -0.00116396 -0.115548
         vertex -0.0302532 -0.00415254 -0.115548
      endloop
   endfacet
   facet normal 0 0 -1
      outer loop
         vertex -0.0309692 -0.00170563 -0.115548
         vertex -0.0310128 -0.00120754 -0.115548
         vertex -0.0305147 -0.00116396 -0.115548
      endloop
   endfacet
   facet normal 0 0 1
      outer loop
         vertex -0.0307513 -0.00419612 -0.110348
         vertex -0.0302532 -0.00415254 -0.110348
         vertex -0.0305147 -0.00116396 -0.110348
      endloop
   endfacet
   facet normal 0 0 1
      outer loop
         vertex -0.0305147 -0.00116396 -0.110348
         vertex -0.0310128 -0.00120754 -0.110348
         vertex -0.0307513 -0.00419612 -0.110348
      endloop
   endfacet
   facet normal 0.0871557 -0.996195 0
      outer loop
         vertex -0.0307513 -0.00419612 -0.115548
         vertex -0.0302532 -0.00415254 -0.115548
         vertex -0.0302532 -0.00415254 -0.110348
      endloop
   endfacet
   facet normal 0.0871557 -0.996195 0
      outer loop
         vertex -0.0302532 -0.00415254 -0.110348
         vertex -0.0307513 -0.00419612 -0.110348
         vertex -0.0307513 -0.00419612 -0.115548
      endloop
   endfacet
   facet normal -0.0871557 0.996195 0
      outer loop
         vertex -0.0310128 -0.00120754 -0.110348
         vertex -0.0305147 -0.00116396 -0.110348
         vertex -0.0305147 -0.00116396 -0.115548
      endloop
   endfacet
   facet normal -0.0871557 0.996195 0
      outer loop
         vertex -0.0305147 -0.00116396 -0.115548
         vertex -0.0310128 -0.00120754 -0.115548
         vertex -0.0310128 -0.00120754 -0.110348
      endloop
   endfacet
   facet normal 0.996195 0.0871557 0
      outer loop
         vertex -0.0302532 -0.00415254 -0.110348
         vertex -0.0302532 -0.00415254 -0.115548
         vertex -0.0305147 -0.00116396 -0.115548
      endloop
   endfacet
   facet normal 0.996195 0.0871557 0
      outer loop
         vertex -0.0305147 -0.00116396 -0.115548
         vertex -0.0305147 -0.00116396 -0.110348
         vertex -0.0302532 -0.00415254 -0.110348
      endloop
   endfacet
endsolid RoboMaster GM6020 Ö±Á÷ÎÞË¢µç»ú. Units = meters