solid S Pivot Spacer. STL generated by ONSHAPE BY PTC INC, 1.216. Units = meters
   facet normal 0 0 -1
      outer loop
         vertex -0.092 0 -0.009
         vertex -0.0945 0 -0.009
         vertex -0.0945 0.000973071 -0.00894724
      endloop
   endfacet
   facet normal 0 0.108119 -0.994138
      outer loop
         vertex -0.092 0.000973071 -0.00894724
         vertex -0.0945 0.000973071 -0.00894724
         vertex -0.0945 0.00193473 -0.00878959
      endloop
   endfacet
   facet normal 0 0.21497 -0.976621
      outer loop
         vertex -0.092 0.00193473 -0.00878959
         vertex -0.0945 0.00193473 -0.00878959
         vertex -0.0945 0.00287371 -0.00852888
      endloop
   endfacet
   facet normal 0 0.319302 -0.947653
      outer loop
         vertex -0.092 0.00287371 -0.00852888
         vertex -0.0945 0.00287371 -0.00852888
         vertex -0.0945 0.003779 -0.00816818
      endloop
   endfacet
   facet normal 0 0.419889 -0.907575
      outer loop
         vertex -0.092 0.003779 -0.00816818
         vertex -0.0945 0.003779 -0.00816818
         vertex -0.0945 0.00463998 -0.00771171
      endloop
   endfacet
   facet normal 0 0.515554 -0.856857
      outer loop
         vertex -0.092 0.00463998 -0.00771171
         vertex -0.0945 0.00463998 -0.00771171
         vertex -0.0945 0.00544657 -0.00716484
      endloop
   endfacet
   facet normal 0 0.605174 -0.796093
      outer loop
         vertex -0.092 0.00544657 -0.00716484
         vertex -0.0945 0.00544657 -0.00716484
         vertex -0.0945 0.0061893 -0.00653396
      endloop
   endfacet
   facet normal 0 0.687699 -0.725995
      outer loop
         vertex -0.092 0.0061893 -0.00653396
         vertex -0.0945 0.0061893 -0.00653396
         vertex -0.0945 0.00685946 -0.00582648
      endloop
   endfacet
   facet normal 0 0.762162 -0.647386
      outer loop
         vertex -0.092 0.00685946 -0.00582648
         vertex -0.0945 0.00685946 -0.00582648
         vertex -0.0945 0.0074492 -0.00505068
      endloop
   endfacet
   facet normal 0 0.827689 -0.561187
      outer loop
         vertex -0.092 0.0074492 -0.00505068
         vertex -0.0945 0.0074492 -0.00505068
         vertex -0.0945 0.00795161 -0.00421568
      endloop
   endfacet
   facet normal 0 0.883512 -0.468408
      outer loop
         vertex -0.092 0.00795161 -0.00421568
         vertex -0.0945 0.00795161 -0.00421568
         vertex -0.0945 0.00836079 -0.00333124
      endloop
   endfacet
   facet normal 0 0.928977 -0.370138
      outer loop
         vertex -0.092 0.00836079 -0.00333124
         vertex -0.0945 0.00836079 -0.00333124
         vertex -0.0945 0.00867195 -0.00240776
      endloop
   endfacet
   facet normal 0 0.96355 -0.267528
      outer loop
         vertex -0.092 0.00867195 -0.00240776
         vertex -0.0945 0.00867195 -0.00240776
         vertex -0.0945 0.00888144 -0.00145604
      endloop
   endfacet
   facet normal 0 0.986827 -0.161782
      outer loop
         vertex -0.092 0.00888144 -0.00145604
         vertex -0.0945 0.00888144 -0.00145604
         vertex -0.0945 0.0089868 -0.00048725
      endloop
   endfacet
   facet normal 0 0.998533 -0.0541389
      outer loop
         vertex -0.092 0.0089868 -0.00048725
         vertex -0.0945 0.0089868 -0.00048725
         vertex -0.0945 0.0089868 0.00048725
      endloop
   endfacet
   facet normal 0 0.998533 0.0541389
      outer loop
         vertex -0.092 0.0089868 0.00048725
         vertex -0.0945 0.0089868 0.00048725
         vertex -0.0945 0.00888144 0.00145604
      endloop
   endfacet
   facet normal 0 0.986827 0.161782
      outer loop
         vertex -0.092 0.00888144 0.00145604
         vertex -0.0945 0.00888144 0.00145604
         vertex -0.0945 0.00867195 0.00240776
      endloop
   endfacet
   facet normal 0 0.96355 0.267528
      outer loop
         vertex -0.092 0.00867195 0.00240776
         vertex -0.0945 0.00867195 0.00240776
         vertex -0.0945 0.00836079 0.00333124
      endloop
   endfacet
   facet normal 0 0.928977 0.370138
      outer loop
         vertex -0.092 0.00836079 0.00333124
         vertex -0.0945 0.00836079 0.00333124
         vertex -0.0945 0.00795161 0.00421568
      endloop
   endfacet
   facet normal 0 0.883512 0.468408
      outer loop
         vertex -0.092 0.00795161 0.00421568
         vertex -0.0945 0.00795161 0.00421568
         vertex -0.0945 0.0074492 0.00505068
      endloop
   endfacet
   facet normal 0 0.827689 0.561187
      outer loop
         vertex -0.092 0.0074492 0.00505068
         vertex -0.0945 0.0074492 0.00505068
         vertex -0.0945 0.00685946 0.00582648
      endloop
   endfacet
   facet normal 0 0.762162 0.647386
      outer loop
         vertex -0.092 0.00685946 0.00582648
         vertex -0.0945 0.00685946 0.00582648
         vertex -0.0945 0.0061893 0.00653396
      endloop
   endfacet
   facet normal 0 0.687699 0.725995
      outer loop
         vertex -0.092 0.0061893 0.00653396
         vertex -0.0945 0.0061893 0.00653396
         vertex -0.0945 0.00544657 0.00716484
      endloop
   endfacet
   facet normal 0 0.605174 0.796093
      outer loop
         vertex -0.092 0.00544657 0.00716484
         vertex -0.0945 0.00544657 0.00716484
         vertex -0.0945 0.00463998 0.00771171
      endloop
   endfacet
   facet normal 0 0.515554 0.856857
      outer loop
         vertex -0.092 0.00463998 0.00771171
         vertex -0.0945 0.00463998 0.00771171
         vertex -0.0945 0.003779 0.00816818
      endloop
   endfacet
   facet normal 0 0.419889 0.907575
      outer loop
         vertex -0.092 0.003779 0.00816818
         vertex -0.0945 0.003779 0.00816818
         vertex -0.0945 0.00287371 0.00852888
      endloop
   endfacet
   facet normal 0 0.319302 0.947653
      outer loop
         vertex -0.092 0.00287371 0.00852888
         vertex -0.0945 0.00287371 0.00852888
         vertex -0.0945 0.00193473 0.00878959
      endloop
   endfacet
   facet normal 0 0.21497 0.976621
      outer loop
         vertex -0.092 0.00193473 0.00878959
         vertex -0.0945 0.00193473 0.00878959
         vertex -0.0945 0.000973071 0.00894724
      endloop
   endfacet
   facet normal 0 0.108119 0.994138
      outer loop
         vertex -0.092 0.000973071 0.00894724
         vertex -0.0945 0.000973071 0.00894724
         vertex -0.0945 3.30655e-18 0.009
      endloop
   endfacet
   facet normal 0 1.22465e-16 1
      outer loop
         vertex -0.092 1.10218e-18 0.009
         vertex -0.0945 3.30655e-18 0.009
         vertex -0.0945 -0.000973071 0.00894724
      endloop
   endfacet
   facet normal 0 -0.108119 0.994138
      outer loop
         vertex -0.092 -0.000973071 0.00894724
         vertex -0.0945 -0.000973071 0.00894724
         vertex -0.0945 -0.00193473 0.00878959
      endloop
   endfacet
   facet normal 0 -0.21497 0.976621
      outer loop
         vertex -0.092 -0.00193473 0.00878959
         vertex -0.0945 -0.00193473 0.00878959
         vertex -0.0945 -0.00287371 0.00852888
      endloop
   endfacet
   facet normal 0 -0.319302 0.947653
      outer loop
         vertex -0.092 -0.00287371 0.00852888
         vertex -0.0945 -0.00287371 0.00852888
         vertex -0.0945 -0.003779 0.00816818
      endloop
   endfacet
   facet normal 0 -0.419889 0.907575
      outer loop
         vertex -0.092 -0.003779 0.00816818
         vertex -0.0945 -0.003779 0.00816818
         vertex -0.0945 -0.00463998 0.00771171
      endloop
   endfacet
   facet normal 0 -0.515554 0.856857
      outer loop
         vertex -0.092 -0.00463998 0.00771171
         vertex -0.0945 -0.00463998 0.00771171
         vertex -0.0945 -0.00544657 0.00716484
      endloop
   endfacet
   facet normal 0 -0.605174 0.796093
      outer loop
         vertex -0.092 -0.00544657 0.00716484
         vertex -0.0945 -0.00544657 0.00716484
         vertex -0.0945 -0.0061893 0.00653396
      endloop
   endfacet
   facet normal 0 -0.687699 0.725995
      outer loop
         vertex -0.092 -0.0061893 0.00653396
         vertex -0.0945 -0.0061893 0.00653396
         vertex -0.0945 -0.00685946 0.00582648
      endloop
   endfacet
   facet normal 0 -0.762162 0.647386
      outer loop
         vertex -0.092 -0.00685946 0.00582648
         vertex -0.0945 -0.00685946 0.00582648
         vertex -0.0945 -0.0074492 0.00505068
      endloop
   endfacet
   facet normal 0 -0.827689 0.561187
      outer loop
         vertex -0.092 -0.0074492 0.00505068
         vertex -0.0945 -0.0074492 0.00505068
         vertex -0.0945 -0.00795161 0.00421568
      endloop
   endfacet
   facet normal 0 -0.883512 0.468408
      outer loop
         vertex -0.092 -0.00795161 0.00421568
         vertex -0.0945 -0.00795161 0.00421568
         vertex -0.0945 -0.00836079 0.00333124
      endloop
   endfacet
   facet normal 0 -0.928977 0.370138
      outer loop
         vertex -0.092 -0.00836079 0.00333124
         vertex -0.0945 -0.00836079 0.00333124
         vertex -0.0945 -0.00867195 0.00240776
      endloop
   endfacet
   facet normal 0 -0.96355 0.267528
      outer loop
         vertex -0.092 -0.00867195 0.00240776
         vertex -0.0945 -0.00867195 0.00240776
         vertex -0.0945 -0.00888144 0.00145604
      endloop
   endfacet
   facet normal 0 -0.986827 0.161782
      outer loop
         vertex -0.092 -0.00888144 0.00145604
         vertex -0.0945 -0.00888144 0.00145604
         vertex -0.0945 -0.0089868 0.00048725
      endloop
   endfacet
   facet normal 0 -0.998533 0.0541389
      outer loop
         vertex -0.092 -0.0089868 0.00048725
         vertex -0.0945 -0.0089868 0.00048725
         vertex -0.0945 -0.0089868 -0.00048725
      endloop
   endfacet
   facet normal 0 -0.998533 -0.0541389
      outer loop
         vertex -0.092 -0.0089868 -0.00048725
         vertex -0.0945 -0.0089868 -0.00048725
         vertex -0.0945 -0.00888144 -0.00145604
      endloop
   endfacet
   facet normal 0 -0.986827 -0.161782
      outer loop
         vertex -0.092 -0.00888144 -0.00145604
         vertex -0.0945 -0.00888144 -0.00145604
         vertex -0.0945 -0.00867195 -0.00240776
      endloop
   endfacet
   facet normal 0 -0.96355 -0.267528
      outer loop
         vertex -0.092 -0.00867195 -0.00240776
         vertex -0.0945 -0.00867195 -0.00240776
         vertex -0.0945 -0.00836079 -0.00333124
      endloop
   endfacet
   facet normal 0 -0.928977 -0.370138
      outer loop
         vertex -0.092 -0.00836079 -0.00333124
         vertex -0.0945 -0.00836079 -0.00333124
         vertex -0.0945 -0.00795161 -0.00421568
      endloop
   endfacet
   facet normal 0 -0.883512 -0.468408
      outer loop
         vertex -0.092 -0.00795161 -0.00421568
         vertex -0.0945 -0.00795161 -0.00421568
         vertex -0.0945 -0.0074492 -0.00505068
      endloop
   endfacet
   facet normal 0 -0.827689 -0.561187
      outer loop
         vertex -0.092 -0.0074492 -0.00505068
         vertex -0.0945 -0.0074492 -0.00505068
         vertex -0.0945 -0.00685946 -0.00582648
      endloop
   endfacet
   facet normal 0 -0.762162 -0.647386
      outer loop
         vertex -0.092 -0.00685946 -0.00582648
         vertex -0.0945 -0.00685946 -0.00582648
         vertex -0.0945 -0.0061893 -0.00653396
      endloop
   endfacet
   facet normal 0 -0.687699 -0.725995
      outer loop
         vertex -0.092 -0.0061893 -0.00653396
         vertex -0.0945 -0.0061893 -0.00653396
         vertex -0.0945 -0.00544657 -0.00716484
      endloop
   endfacet
   facet normal 0 -0.605174 -0.796093
      outer loop
         vertex -0.092 -0.00544657 -0.00716484
         vertex -0.0945 -0.00544657 -0.00716484
         vertex -0.0945 -0.00463998 -0.00771171
      endloop
   endfacet
   facet normal 0 -0.515554 -0.856857
      outer loop
         vertex -0.092 -0.00463998 -0.00771171
         vertex -0.0945 -0.00463998 -0.00771171
         vertex -0.0945 -0.003779 -0.00816818
      endloop
   endfacet
   facet normal 0 -0.419889 -0.907575
      outer loop
         vertex -0.092 -0.003779 -0.00816818
         vertex -0.0945 -0.003779 -0.00816818
         vertex -0.0945 -0.00287371 -0.00852888
      endloop
   endfacet
   facet normal 0 -0.319302 -0.947653
      outer loop
         vertex -0.092 -0.00287371 -0.00852888
         vertex -0.0945 -0.00287371 -0.00852888
         vertex -0.0945 -0.00193473 -0.00878959
      endloop
   endfacet
   facet normal 0 -0.21497 -0.976621
      outer loop
         vertex -0.092 -0.00193473 -0.00878959
         vertex -0.0945 -0.00193473 -0.00878959
         vertex -0.0945 -0.000973071 -0.00894724
      endloop
   endfacet
   facet normal 0 -0.108119 -0.994138
      outer loop
         vertex -0.092 -0.000973071 -0.00894724
         vertex -0.0945 -0.000973071 -0.00894724
         vertex -0.0945 0 -0.009
      endloop
   endfacet
   facet normal 0 0 -1
      outer loop
         vertex -0.0945 0 -0.009
         vertex -0.092 0 -0.009
         vertex -0.092 -0.000973071 -0.00894724
      endloop
   endfacet
   facet normal 0 -0.108119 -0.994138
      outer loop
         vertex -0.0945 -0.000973071 -0.00894724
         vertex -0.092 -0.000973071 -0.00894724
         vertex -0.092 -0.00193473 -0.00878959
      endloop
   endfacet
   facet normal 0 -0.21497 -0.976621
      outer loop
         vertex -0.0945 -0.00193473 -0.00878959
         vertex -0.092 -0.00193473 -0.00878959
         vertex -0.092 -0.00287371 -0.00852888
      endloop
   endfacet
   facet normal 0 -0.319302 -0.947653
      outer loop
         vertex -0.0945 -0.00287371 -0.00852888
         vertex -0.092 -0.00287371 -0.00852888
         vertex -0.092 -0.003779 -0.00816818
      endloop
   endfacet
   facet normal 0 -0.419889 -0.907575
      outer loop
         vertex -0.0945 -0.003779 -0.00816818
         vertex -0.092 -0.003779 -0.00816818
         vertex -0.092 -0.00463998 -0.00771171
      endloop
   endfacet
   facet normal 0 -0.515554 -0.856857
      outer loop
         vertex -0.0945 -0.00463998 -0.00771171
         vertex -0.092 -0.00463998 -0.00771171
         vertex -0.092 -0.00544657 -0.00716484
      endloop
   endfacet
   facet normal 0 -0.605174 -0.796093
      outer loop
         vertex -0.0945 -0.00544657 -0.00716484
         vertex -0.092 -0.00544657 -0.00716484
         vertex -0.092 -0.0061893 -0.00653396
      endloop
   endfacet
   facet normal 0 -0.687699 -0.725995
      outer loop
         vertex -0.0945 -0.0061893 -0.00653396
         vertex -0.092 -0.0061893 -0.00653396
         vertex -0.092 -0.00685946 -0.00582648
      endloop
   endfacet
   facet normal 0 -0.762162 -0.647386
      outer loop
         vertex -0.0945 -0.00685946 -0.00582648
         vertex -0.092 -0.00685946 -0.00582648
         vertex -0.092 -0.0074492 -0.00505068
      endloop
   endfacet
   facet normal 0 -0.827689 -0.561187
      outer loop
         vertex -0.0945 -0.0074492 -0.00505068
         vertex -0.092 -0.0074492 -0.00505068
         vertex -0.092 -0.00795161 -0.00421568
      endloop
   endfacet
   facet normal 0 -0.883512 -0.468408
      outer loop
         vertex -0.0945 -0.00795161 -0.00421568
         vertex -0.092 -0.00795161 -0.00421568
         vertex -0.092 -0.00836079 -0.00333124
      endloop
   endfacet
   facet normal 0 -0.928977 -0.370138
      outer loop
         vertex -0.0945 -0.00836079 -0.00333124
         vertex -0.092 -0.00836079 -0.00333124
         vertex -0.092 -0.00867195 -0.00240776
      endloop
   endfacet
   facet normal 0 -0.96355 -0.267528
      outer loop
         vertex -0.0945 -0.00867195 -0.00240776
         vertex -0.092 -0.00867195 -0.00240776
         vertex -0.092 -0.00888144 -0.00145604
      endloop
   endfacet
   facet normal 0 -0.986827 -0.161782
      outer loop
         vertex -0.0945 -0.00888144 -0.00145604
         vertex -0.092 -0.00888144 -0.00145604
         vertex -0.092 -0.0089868 -0.00048725
      endloop
   endfacet
   facet normal 0 -0.998533 -0.0541389
      outer loop
         vertex -0.0945 -0.0089868 -0.00048725
         vertex -0.092 -0.0089868 -0.00048725
         vertex -0.092 -0.0089868 0.00048725
      endloop
   endfacet
   facet normal 0 -0.998533 0.0541389
      outer loop
         vertex -0.0945 -0.0089868 0.00048725
         vertex -0.092 -0.0089868 0.00048725
         vertex -0.092 -0.00888144 0.00145604
      endloop
   endfacet
   facet normal 0 -0.986827 0.161782
      outer loop
         vertex -0.0945 -0.00888144 0.00145604
         vertex -0.092 -0.00888144 0.00145604
         vertex -0.092 -0.00867195 0.00240776
      endloop
   endfacet
   facet normal 0 -0.96355 0.267528
      outer loop
         vertex -0.0945 -0.00867195 0.00240776
         vertex -0.092 -0.00867195 0.00240776
         vertex -0.092 -0.00836079 0.00333124
      endloop
   endfacet
   facet normal 0 -0.928977 0.370138
      outer loop
         vertex -0.0945 -0.00836079 0.00333124
         vertex -0.092 -0.00836079 0.00333124
         vertex -0.092 -0.00795161 0.00421568
      endloop
   endfacet
   facet normal 0 -0.883512 0.468408
      outer loop
         vertex -0.0945 -0.00795161 0.00421568
         vertex -0.092 -0.00795161 0.00421568
         vertex -0.092 -0.0074492 0.00505068
      endloop
   endfacet
   facet normal 0 -0.827689 0.561187
      outer loop
         vertex -0.0945 -0.0074492 0.00505068
         vertex -0.092 -0.0074492 0.00505068
         vertex -0.092 -0.00685946 0.00582648
      endloop
   endfacet
   facet normal 0 -0.762162 0.647386
      outer loop
         vertex -0.0945 -0.00685946 0.00582648
         vertex -0.092 -0.00685946 0.00582648
         vertex -0.092 -0.0061893 0.00653396
      endloop
   endfacet
   facet normal 0 -0.687699 0.725995
      outer loop
         vertex -0.0945 -0.0061893 0.00653396
         vertex -0.092 -0.0061893 0.00653396
         vertex -0.092 -0.00544657 0.00716484
      endloop
   endfacet
   facet normal 0 -0.605174 0.796093
      outer loop
         vertex -0.0945 -0.00544657 0.00716484
         vertex -0.092 -0.00544657 0.00716484
         vertex -0.092 -0.00463998 0.00771171
      endloop
   endfacet
   facet normal 0 -0.515554 0.856857
      outer loop
         vertex -0.0945 -0.00463998 0.00771171
         vertex -0.092 -0.00463998 0.00771171
         vertex -0.092 -0.003779 0.00816818
      endloop
   endfacet
   facet normal 0 -0.419889 0.907575
      outer loop
         vertex -0.0945 -0.003779 0.00816818
         vertex -0.092 -0.003779 0.00816818
         vertex -0.092 -0.00287371 0.00852888
      endloop
   endfacet
   facet normal 0 -0.319302 0.947653
      outer loop
         vertex -0.0945 -0.00287371 0.00852888
         vertex -0.092 -0.00287371 0.00852888
         vertex -0.092 -0.00193473 0.00878959
      endloop
   endfacet
   facet normal 0 -0.21497 0.976621
      outer loop
         vertex -0.0945 -0.00193473 0.00878959
         vertex -0.092 -0.00193473 0.00878959
         vertex -0.092 -0.000973071 0.00894724
      endloop
   endfacet
   facet normal 0 -0.108119 0.994138
      outer loop
         vertex -0.0945 -0.000973071 0.00894724
         vertex -0.092 -0.000973071 0.00894724
         vertex -0.092 1.10218e-18 0.009
      endloop
   endfacet
   facet normal 0 1.22465e-16 1
      outer loop
         vertex -0.0945 3.30655e-18 0.009
         vertex -0.092 1.10218e-18 0.009
         vertex -0.092 0.000973071 0.00894724
      endloop
   endfacet
   facet normal 0 0.108119 0.994138
      outer loop
         vertex -0.0945 0.000973071 0.00894724
         vertex -0.092 0.000973071 0.00894724
         vertex -0.092 0.00193473 0.00878959
      endloop
   endfacet
   facet normal 0 0.21497 0.976621
      outer loop
         vertex -0.0945 0.00193473 0.00878959
         vertex -0.092 0.00193473 0.00878959
         vertex -0.092 0.00287371 0.00852888
      endloop
   endfacet
   facet normal 0 0.319302 0.947653
      outer loop
         vertex -0.0945 0.00287371 0.00852888
         vertex -0.092 0.00287371 0.00852888
         vertex -0.092 0.003779 0.00816818
      endloop
   endfacet
   facet normal 0 0.419889 0.907575
      outer loop
         vertex -0.0945 0.003779 0.00816818
         vertex -0.092 0.003779 0.00816818
         vertex -0.092 0.00463998 0.00771171
      endloop
   endfacet
   facet normal 0 0.515554 0.856857
      outer loop
         vertex -0.0945 0.00463998 0.00771171
         vertex -0.092 0.00463998 0.00771171
         vertex -0.092 0.00544657 0.00716484
      endloop
   endfacet
   facet normal 0 0.605174 0.796093
      outer loop
         vertex -0.0945 0.00544657 0.00716484
         vertex -0.092 0.00544657 0.00716484
         vertex -0.092 0.0061893 0.00653396
      endloop
   endfacet
   facet normal 0 0.687699 0.725995
      outer loop
         vertex -0.0945 0.0061893 0.00653396
         vertex -0.092 0.0061893 0.00653396
         vertex -0.092 0.00685946 0.00582648
      endloop
   endfacet
   facet normal 0 0.762162 0.647386
      outer loop
         vertex -0.0945 0.00685946 0.00582648
         vertex -0.092 0.00685946 0.00582648
         vertex -0.092 0.0074492 0.00505068
      endloop
   endfacet
   facet normal 0 0.827689 0.561187
      outer loop
         vertex -0.0945 0.0074492 0.00505068
         vertex -0.092 0.0074492 0.00505068
         vertex -0.092 0.00795161 0.00421568
      endloop
   endfacet
   facet normal 0 0.883512 0.468408
      outer loop
         vertex -0.0945 0.00795161 0.00421568
         vertex -0.092 0.00795161 0.00421568
         vertex -0.092 0.00836079 0.00333124
      endloop
   endfacet
   facet normal 0 0.928977 0.370138
      outer loop
         vertex -0.0945 0.00836079 0.00333124
         vertex -0.092 0.00836079 0.00333124
         vertex -0.092 0.00867195 0.00240776
      endloop
   endfacet
   facet normal 0 0.96355 0.267528
      outer loop
         vertex -0.0945 0.00867195 0.00240776
         vertex -0.092 0.00867195 0.00240776
         vertex -0.092 0.00888144 0.00145604
      endloop
   endfacet
   facet normal 0 0.986827 0.161782
      outer loop
         vertex -0.0945 0.00888144 0.00145604
         vertex -0.092 0.00888144 0.00145604
         vertex -0.092 0.0089868 0.00048725
      endloop
   endfacet
   facet normal 0 0.998533 0.0541389
      outer loop
         vertex -0.0945 0.0089868 0.00048725
         vertex -0.092 0.0089868 0.00048725
         vertex -0.092 0.0089868 -0.00048725
      endloop
   endfacet
   facet normal 0 0.998533 -0.0541389
      outer loop
         vertex -0.0945 0.0089868 -0.00048725
         vertex -0.092 0.0089868 -0.00048725
         vertex -0.092 0.00888144 -0.00145604
      endloop
   endfacet
   facet normal 0 0.986827 -0.161782
      outer loop
         vertex -0.0945 0.00888144 -0.00145604
         vertex -0.092 0.00888144 -0.00145604
         vertex -0.092 0.00867195 -0.00240776
      endloop
   endfacet
   facet normal 0 0.96355 -0.267528
      outer loop
         vertex -0.0945 0.00867195 -0.00240776
         vertex -0.092 0.00867195 -0.00240776
         vertex -0.092 0.00836079 -0.00333124
      endloop
   endfacet
   facet normal 0 0.928977 -0.370138
      outer loop
         vertex -0.0945 0.00836079 -0.00333124
         vertex -0.092 0.00836079 -0.00333124
         vertex -0.092 0.00795161 -0.00421568
      endloop
   endfacet
   facet normal 0 0.883512 -0.468408
      outer loop
         vertex -0.0945 0.00795161 -0.00421568
         vertex -0.092 0.00795161 -0.00421568
         vertex -0.092 0.0074492 -0.00505068
      endloop
   endfacet
   facet normal 0 0.827689 -0.561187
      outer loop
         vertex -0.0945 0.0074492 -0.00505068
         vertex -0.092 0.0074492 -0.00505068
         vertex -0.092 0.00685946 -0.00582648
      endloop
   endfacet
   facet normal 0 0.762162 -0.647386
      outer loop
         vertex -0.0945 0.00685946 -0.00582648
         vertex -0.092 0.00685946 -0.00582648
         vertex -0.092 0.0061893 -0.00653396
      endloop
   endfacet
   facet normal 0 0.687699 -0.725995
      outer loop
         vertex -0.0945 0.0061893 -0.00653396
         vertex -0.092 0.0061893 -0.00653396
         vertex -0.092 0.00544657 -0.00716484
      endloop
   endfacet
   facet normal 0 0.605174 -0.796093
      outer loop
         vertex -0.0945 0.00544657 -0.00716484
         vertex -0.092 0.00544657 -0.00716484
         vertex -0.092 0.00463998 -0.00771171
      endloop
   endfacet
   facet normal 0 0.515554 -0.856857
      outer loop
         vertex -0.0945 0.00463998 -0.00771171
         vertex -0.092 0.00463998 -0.00771171
         vertex -0.092 0.003779 -0.00816818
      endloop
   endfacet
   facet normal 0 0.419889 -0.907575
      outer loop
         vertex -0.0945 0.003779 -0.00816818
         vertex -0.092 0.003779 -0.00816818
         vertex -0.092 0.00287371 -0.00852888
      endloop
   endfacet
   facet normal 0 0.319302 -0.947653
      outer loop
         vertex -0.0945 0.00287371 -0.00852888
         vertex -0.092 0.00287371 -0.00852888
         vertex -0.092 0.00193473 -0.00878959
      endloop
   endfacet
   facet normal 0 0.21497 -0.976621
      outer loop
         vertex -0.0945 0.00193473 -0.00878959
         vertex -0.092 0.00193473 -0.00878959
         vertex -0.092 0.000973071 -0.00894724
      endloop
   endfacet
   facet normal 0 0.108119 -0.994138
      outer loop
         vertex -0.0945 0.000973071 -0.00894724
         vertex -0.092 0.000973071 -0.00894724
         vertex -0.092 0 -0.009
      endloop
   endfacet
   facet normal -1 0 0
      outer loop
         vertex -0.0945 0.00685946 0.00582648
         vertex -0.0945 0.00575432 0.00488777
         vertex -0.0945 0.00519213 0.00548127
      endloop
   endfacet
   facet normal -1 0 0
      outer loop
         vertex -0.0945 0.00685946 0.00582648
         vertex -0.0945 0.0074492 0.00505068
         vertex -0.0945 0.00624905 0.00423696
      endloop
   endfacet
   facet normal -1 0 0
      outer loop
         vertex -0.0945 0.00287371 0.00852888
         vertex -0.0945 0.00241073 0.00715478
         vertex -0.0945 0.00162303 0.00737349
      endloop
   endfacet
   facet normal -1 0 0
      outer loop
         vertex -0.0945 0.003779 0.00816818
         vertex -0.0945 0.00317016 0.00685219
         vertex -0.0945 0.00241073 0.00715478
      endloop
   endfacet
   facet normal -1 0 0
      outer loop
         vertex -0.0945 0.00463998 0.00771171
         vertex -0.0945 0.00389243 0.00646927
         vertex -0.0945 0.00317016 0.00685219
      endloop
   endfacet
   facet normal -1 0 0
      outer loop
         vertex -0.0945 0.00463998 0.00771171
         vertex -0.0945 0.00544657 0.00716484
         vertex -0.0945 0.00456907 0.0060105
      endloop
   endfacet
   facet normal -1 0 0
      outer loop
         vertex -0.0945 0.00624905 0.00423696
         vertex -0.0945 0.00575432 0.00488777
         vertex -0.0945 0.00685946 0.00582648
      endloop
   endfacet
   facet normal -1 0 0
      outer loop
         vertex -0.0945 0.0074492 0.00505068
         vertex -0.0945 0.00795161 0.00421568
         vertex -0.0945 0.00667052 0.00353648
      endloop
   endfacet
   facet normal -1 0 0
      outer loop
         vertex -0.0945 0.00836079 0.00333124
         vertex -0.0945 0.00701377 0.00279454
         vertex -0.0945 0.00667052 0.00353648
      endloop
   endfacet
   facet normal -1 0 0
      outer loop
         vertex -0.0945 0.00867195 0.00240776
         vertex -0.0945 0.0072748 0.00201984
         vertex -0.0945 0.00701377 0.00279454
      endloop
   endfacet
   facet normal -1 0 0
      outer loop
         vertex -0.0945 0.00241073 0.00715478
         vertex -0.0945 0.00287371 0.00852888
         vertex -0.0945 0.003779 0.00816818
      endloop
   endfacet
   facet normal -1 0 0
      outer loop
         vertex -0.0945 0.00456907 0.0060105
         vertex -0.0945 0.00389243 0.00646927
         vertex -0.0945 0.00463998 0.00771171
      endloop
   endfacet
   facet normal -1 0 0
      outer loop
         vertex -0.0945 0.00667052 0.00353648
         vertex -0.0945 0.00624905 0.00423696
         vertex -0.0945 0.0074492 0.00505068
      endloop
   endfacet
   facet normal -1 0 0
      outer loop
         vertex -0.0945 0.00701377 0.00279454
         vertex -0.0945 0.00836079 0.00333124
         vertex -0.0945 0.00867195 0.00240776
      endloop
   endfacet
   facet normal -1 0 0
      outer loop
         vertex -0.0945 0.0089868 0.00048725
         vertex -0.0945 0.00753893 0.000408749
         vertex -0.0945 0.00745054 0.00122145
      endloop
   endfacet
   facet normal -1 0 0
      outer loop
         vertex -0.0945 0.0089868 0.00048725
         vertex -0.0945 0.0089868 -0.00048725
         vertex -0.0945 0.00753893 -0.000408749
      endloop
   endfacet
   facet normal -1 0 0
      outer loop
         vertex -0.0945 0.00317016 0.00685219
         vertex -0.0945 0.003779 0.00816818
         vertex -0.0945 0.00463998 0.00771171
      endloop
   endfacet
   facet normal -1 0 0
      outer loop
         vertex -0.0945 0.00544657 0.00716484
         vertex -0.0945 0.0061893 0.00653396
         vertex -0.0945 0.00519213 0.00548127
      endloop
   endfacet
   facet normal -1 0 0
      outer loop
         vertex -0.0945 0.00667052 0.00353648
         vertex -0.0945 0.00795161 0.00421568
         vertex -0.0945 0.00836079 0.00333124
      endloop
   endfacet
   facet normal -1 0 0
      outer loop
         vertex -0.0945 0.00888144 0.00145604
         vertex -0.0945 0.00745054 0.00122145
         vertex -0.0945 0.0072748 0.00201984
      endloop
   endfacet
   facet normal -1 0 0
      outer loop
         vertex -0.0945 0.00753893 -0.000408749
         vertex -0.0945 0.00753893 0.000408749
         vertex -0.0945 0.0089868 0.00048725
      endloop
   endfacet
   facet normal -1 0 0
      outer loop
         vertex -0.0945 0.0089868 -0.00048725
         vertex -0.0945 0.00888144 -0.00145604
         vertex -0.0945 0.00745054 -0.00122145
      endloop
   endfacet
   facet normal -1 0 0
      outer loop
         vertex -0.0945 -0.00795161 0.00421568
         vertex -0.0945 -0.00667052 0.00353648
         vertex -0.0945 -0.00701377 0.00279454
      endloop
   endfacet
   facet normal -1 0 0
      outer loop
         vertex -0.0945 -0.0074492 0.00505068
         vertex -0.0945 -0.00624905 0.00423696
         vertex -0.0945 -0.00667052 0.00353648
      endloop
   endfacet
   facet normal -1 0 0
      outer loop
         vertex -0.0945 -0.0074492 0.00505068
         vertex -0.0945 -0.00685946 0.00582648
         vertex -0.0945 -0.00575432 0.00488777
      endloop
   endfacet
   facet normal -1 0 0
      outer loop
         vertex -0.0945 -0.00685946 0.00582648
         vertex -0.0945 -0.0061893 0.00653396
         vertex -0.0945 -0.00519213 0.00548127
      endloop
   endfacet
   facet normal -1 0 0
      outer loop
         vertex -0.0945 0.00519213 0.00548127
         vertex -0.0945 0.00456907 0.0060105
         vertex -0.0945 0.00544657 0.00716484
      endloop
   endfacet
   facet normal -1 0 0
      outer loop
         vertex -0.0945 0.0072748 0.00201984
         vertex -0.0945 0.00867195 0.00240776
         vertex -0.0945 0.00888144 0.00145604
      endloop
   endfacet
   facet normal -1 0 0
      outer loop
         vertex -0.0945 0.00745054 -0.00122145
         vertex -0.0945 0.00753893 -0.000408749
         vertex -0.0945 0.0089868 -0.00048725
      endloop
   endfacet
   facet normal -1 0 0
      outer loop
         vertex -0.0945 0.00888144 -0.00145604
         vertex -0.0945 0.00867195 -0.00240776
         vertex -0.0945 0.0072748 -0.00201984
      endloop
   endfacet
   facet normal -1 0 0
      outer loop
         vertex -0.0945 0.00836079 -0.00333124
         vertex -0.0945 0.00701377 -0.00279454
         vertex -0.0945 0.0072748 -0.00201984
      endloop
   endfacet
   facet normal -1 0 0
      outer loop
         vertex -0.0945 0.00836079 -0.00333124
         vertex -0.0945 0.00795161 -0.00421568
         vertex -0.0945 0.00667052 -0.00353648
      endloop
   endfacet
   facet normal -1 0 0
      outer loop
         vertex -0.0945 0.0074492 -0.00505068
         vertex -0.0945 0.00624905 -0.00423696
         vertex -0.0945 0.00667052 -0.00353648
      endloop
   endfacet
   facet normal -1 0 0
      outer loop
         vertex -0.0945 0.00685946 -0.00582648
         vertex -0.0945 0.00575432 -0.00488777
         vertex -0.0945 0.00624905 -0.00423696
      endloop
   endfacet
   facet normal -1 0 0
      outer loop
         vertex -0.0945 -0.003779 -0.00816818
         vertex -0.0945 -0.00317016 -0.00685219
         vertex -0.0945 -0.00241073 -0.00715478
      endloop
   endfacet
   facet normal -1 0 0
      outer loop
         vertex -0.0945 -0.003779 -0.00816818
         vertex -0.0945 -0.00463998 -0.00771171
         vertex -0.0945 -0.00389243 -0.00646927
      endloop
   endfacet
   facet normal -1 0 0
      outer loop
         vertex -0.0945 -0.0061893 -0.00653396
         vertex -0.0945 -0.00519213 -0.00548127
         vertex -0.0945 -0.00456907 -0.0060105
      endloop
   endfacet
   facet normal -1 0 0
      outer loop
         vertex -0.0945 -0.0061893 -0.00653396
         vertex -0.0945 -0.00685946 -0.00582648
         vertex -0.0945 -0.00575432 -0.00488777
      endloop
   endfacet
   facet normal -1 0 0
      outer loop
         vertex -0.0945 -0.00667052 0.00353648
         vertex -0.0945 -0.00795161 0.00421568
         vertex -0.0945 -0.0074492 0.00505068
      endloop
   endfacet
   facet normal -1 0 0
      outer loop
         vertex -0.0945 -0.00519213 0.00548127
         vertex -0.0945 -0.00575432 0.00488777
         vertex -0.0945 -0.00685946 0.00582648
      endloop
   endfacet
   facet normal -1 0 0
      outer loop
         vertex -0.0945 0.00519213 0.00548127
         vertex -0.0945 0.0061893 0.00653396
         vertex -0.0945 0.00685946 0.00582648
      endloop
   endfacet
   facet normal -1 0 0
      outer loop
         vertex -0.0945 0.0072748 -0.00201984
         vertex -0.0945 0.00745054 -0.00122145
         vertex -0.0945 0.00888144 -0.00145604
      endloop
   endfacet
   facet normal -1 0 0
      outer loop
         vertex -0.0945 0.00667052 -0.00353648
         vertex -0.0945 0.00701377 -0.00279454
         vertex -0.0945 0.00836079 -0.00333124
      endloop
   endfacet
   facet normal -1 0 0
      outer loop
         vertex -0.0945 0.00624905 -0.00423696
         vertex -0.0945 0.0074492 -0.00505068
         vertex -0.0945 0.00685946 -0.00582648
      endloop
   endfacet
   facet normal -1 0 0
      outer loop
         vertex -0.0945 -0.00389243 -0.00646927
         vertex -0.0945 -0.00317016 -0.00685219
         vertex -0.0945 -0.003779 -0.00816818
      endloop
   endfacet
   facet normal -1 0 0
      outer loop
         vertex -0.0945 -0.00544657 -0.00716484
         vertex -0.0945 -0.00456907 -0.0060105
         vertex -0.0945 -0.00389243 -0.00646927
      endloop
   endfacet
   facet normal -1 0 0
      outer loop
         vertex -0.0945 -0.00575432 -0.00488777
         vertex -0.0945 -0.00519213 -0.00548127
         vertex -0.0945 -0.0061893 -0.00653396
      endloop
   endfacet
   facet normal -1 0 0
      outer loop
         vertex -0.0945 -0.00685946 -0.00582648
         vertex -0.0945 -0.0074492 -0.00505068
         vertex -0.0945 -0.00624905 -0.00423696
      endloop
   endfacet
   facet normal -1 0 0
      outer loop
         vertex -0.0945 -0.00836079 -0.00333124
         vertex -0.0945 -0.00867195 -0.00240776
         vertex -0.0945 -0.0072748 -0.00201984
      endloop
   endfacet
   facet normal -1 0 0
      outer loop
         vertex -0.0945 -0.00867195 -0.00240776
         vertex -0.0945 -0.00888144 -0.00145604
         vertex -0.0945 -0.00745054 -0.00122145
      endloop
   endfacet
   facet normal -1 0 0
      outer loop
         vertex -0.0945 -0.0089868 -0.00048725
         vertex -0.0945 -0.00753893 -0.000408749
         vertex -0.0945 -0.00745054 -0.00122145
      endloop
   endfacet
   facet normal -1 0 0
      outer loop
         vertex -0.0945 -0.0089868 -0.00048725
         vertex -0.0945 -0.0089868 0.00048725
         vertex -0.0945 -0.00753893 0.000408749
      endloop
   endfacet
   facet normal -1 0 0
      outer loop
         vertex -0.0945 -0.00888144 0.00145604
         vertex -0.0945 -0.00745054 0.00122145
         vertex -0.0945 -0.00753893 0.000408749
      endloop
   endfacet
   facet normal -1 0 0
      outer loop
         vertex -0.0945 -0.00888144 0.00145604
         vertex -0.0945 -0.00867195 0.00240776
         vertex -0.0945 -0.0072748 0.00201984
      endloop
   endfacet
   facet normal -1 0 0
      outer loop
         vertex -0.0945 -0.00836079 0.00333124
         vertex -0.0945 -0.00701377 0.00279454
         vertex -0.0945 -0.0072748 0.00201984
      endloop
   endfacet
   facet normal -1 0 0
      outer loop
         vertex -0.0945 -0.00575432 0.00488777
         vertex -0.0945 -0.00624905 0.00423696
         vertex -0.0945 -0.0074492 0.00505068
      endloop
   endfacet
   facet normal -1 0 0
      outer loop
         vertex -0.0945 -0.00463998 0.00771171
         vertex -0.0945 -0.003779 0.00816818
         vertex -0.0945 -0.00317016 0.00685219
      endloop
   endfacet
   facet normal -1 0 0
      outer loop
         vertex -0.0945 -0.003779 0.00816818
         vertex -0.0945 -0.00287371 0.00852888
         vertex -0.0945 -0.00241073 0.00715478
      endloop
   endfacet
   facet normal -1 0 0
      outer loop
         vertex -0.0945 0.00745054 0.00122145
         vertex -0.0945 0.00888144 0.00145604
         vertex -0.0945 0.0089868 0.00048725
      endloop
   endfacet
   facet normal -1 0 0
      outer loop
         vertex -0.0945 0.00667052 -0.00353648
         vertex -0.0945 0.00795161 -0.00421568
         vertex -0.0945 0.0074492 -0.00505068
      endloop
   endfacet
   facet normal -1 0 0
      outer loop
         vertex -0.0945 0.0061893 -0.00653396
         vertex -0.0945 0.00519213 -0.00548127
         vertex -0.0945 0.00575432 -0.00488777
      endloop
   endfacet
   facet normal -1 0 0
      outer loop
         vertex -0.0945 0.0061893 -0.00653396
         vertex -0.0945 0.00544657 -0.00716484
         vertex -0.0945 0.00456907 -0.0060105
      endloop
   endfacet
   facet normal -1 0 0
      outer loop
         vertex -0.0945 -0.00389243 -0.00646927
         vertex -0.0945 -0.00463998 -0.00771171
         vertex -0.0945 -0.00544657 -0.00716484
      endloop
   endfacet
   facet normal -1 0 0
      outer loop
         vertex -0.0945 -0.00624905 -0.00423696
         vertex -0.0945 -0.00575432 -0.00488777
         vertex -0.0945 -0.00685946 -0.00582648
      endloop
   endfacet
   facet normal -1 0 0
      outer loop
         vertex -0.0945 -0.00836079 -0.00333124
         vertex -0.0945 -0.00701377 -0.00279454
         vertex -0.0945 -0.00667052 -0.00353648
      endloop
   endfacet
   facet normal -1 0 0
      outer loop
         vertex -0.0945 -0.00745054 -0.00122145
         vertex -0.0945 -0.0072748 -0.00201984
         vertex -0.0945 -0.00867195 -0.00240776
      endloop
   endfacet
   facet normal -1 0 0
      outer loop
         vertex -0.0945 -0.00753893 0.000408749
         vertex -0.0945 -0.00753893 -0.000408749
         vertex -0.0945 -0.0089868 -0.00048725
      endloop
   endfacet
   facet normal -1 0 0
      outer loop
         vertex -0.0945 -0.0072748 0.00201984
         vertex -0.0945 -0.00745054 0.00122145
         vertex -0.0945 -0.00888144 0.00145604
      endloop
   endfacet
   facet normal -1 0 0
      outer loop
         vertex -0.0945 -0.00701377 0.00279454
         vertex -0.0945 -0.00836079 0.00333124
         vertex -0.0945 -0.00795161 0.00421568
      endloop
   endfacet
   facet normal -1 0 0
      outer loop
         vertex -0.0945 -0.0061893 0.00653396
         vertex -0.0945 -0.00544657 0.00716484
         vertex -0.0945 -0.00456907 0.0060105
      endloop
   endfacet
   facet normal -1 0 0
      outer loop
         vertex -0.0945 -0.00463998 0.00771171
         vertex -0.0945 -0.00389243 0.00646927
         vertex -0.0945 -0.00456907 0.0060105
      endloop
   endfacet
   facet normal -1 0 0
      outer loop
         vertex -0.0945 -0.00241073 0.00715478
         vertex -0.0945 -0.00317016 0.00685219
         vertex -0.0945 -0.003779 0.00816818
      endloop
   endfacet
   facet normal -1 0 0
      outer loop
         vertex -0.0945 -0.000973071 0.00894724
         vertex -0.0945 -0.000816299 0.00750574
         vertex -0.0945 -0.00162303 0.00737349
      endloop
   endfacet
   facet normal -1 0 0
      outer loop
         vertex -0.0945 3.30655e-18 0.009
         vertex -0.0945 9.24608e-19 0.00755
         vertex -0.0945 -0.000816299 0.00750574
      endloop
   endfacet
   facet normal -1 0 0
      outer loop
         vertex -0.0945 0.0072748 -0.00201984
         vertex -0.0945 0.00867195 -0.00240776
         vertex -0.0945 0.00836079 -0.00333124
      endloop
   endfacet
   facet normal -1 0 0
      outer loop
         vertex -0.0945 0.00456907 -0.0060105
         vertex -0.0945 0.00519213 -0.00548127
         vertex -0.0945 0.0061893 -0.00653396
      endloop
   endfacet
   facet normal -1 0 0
      outer loop
         vertex -0.0945 0.00193473 -0.00878959
         vertex -0.0945 0.00162303 -0.00737349
         vertex -0.0945 0.00241073 -0.00715478
      endloop
   endfacet
   facet normal -1 0 0
      outer loop
         vertex -0.0945 0.000973071 -0.00894724
         vertex -0.0945 0.000816299 -0.00750574
         vertex -0.0945 0.00162303 -0.00737349
      endloop
   endfacet
   facet normal -1 0 0
      outer loop
         vertex -0.0945 -0.000973071 -0.00894724
         vertex -0.0945 -0.000816299 -0.00750574
         vertex -0.0945 0 -0.00755
      endloop
   endfacet
   facet normal -1 0 0
      outer loop
         vertex -0.0945 -0.000973071 -0.00894724
         vertex -0.0945 -0.00193473 -0.00878959
         vertex -0.0945 -0.00162303 -0.00737349
      endloop
   endfacet
   facet normal -1 0 0
      outer loop
         vertex -0.0945 -0.00456907 -0.0060105
         vertex -0.0945 -0.00544657 -0.00716484
         vertex -0.0945 -0.0061893 -0.00653396
      endloop
   endfacet
   facet normal -1 0 0
      outer loop
         vertex -0.0945 -0.00795161 -0.00421568
         vertex -0.0945 -0.00667052 -0.00353648
         vertex -0.0945 -0.00624905 -0.00423696
      endloop
   endfacet
   facet normal -1 0 0
      outer loop
         vertex -0.0945 -0.0072748 -0.00201984
         vertex -0.0945 -0.00701377 -0.00279454
         vertex -0.0945 -0.00836079 -0.00333124
      endloop
   endfacet
   facet normal -1 0 0
      outer loop
         vertex -0.0945 -0.00753893 0.000408749
         vertex -0.0945 -0.0089868 0.00048725
         vertex -0.0945 -0.00888144 0.00145604
      endloop
   endfacet
   facet normal -1 0 0
      outer loop
         vertex -0.0945 -0.00456907 0.0060105
         vertex -0.0945 -0.00519213 0.00548127
         vertex -0.0945 -0.0061893 0.00653396
      endloop
   endfacet
   facet normal -1 0 0
      outer loop
         vertex -0.0945 -0.00317016 0.00685219
         vertex -0.0945 -0.00389243 0.00646927
         vertex -0.0945 -0.00463998 0.00771171
      endloop
   endfacet
   facet normal -1 0 0
      outer loop
         vertex -0.0945 -0.00193473 0.00878959
         vertex -0.0945 -0.00162303 0.00737349
         vertex -0.0945 -0.00241073 0.00715478
      endloop
   endfacet
   facet normal -1 0 0
      outer loop
         vertex -0.0945 -0.000816299 0.00750574
         vertex -0.0945 -0.000973071 0.00894724
         vertex -0.0945 3.30655e-18 0.009
      endloop
   endfacet
   facet normal -1 0 0
      outer loop
         vertex -0.0945 0.000973071 0.00894724
         vertex -0.0945 0.000816299 0.00750574
         vertex -0.0945 9.24608e-19 0.00755
      endloop
   endfacet
   facet normal -1 0 0
      outer loop
         vertex -0.0945 0.000973071 0.00894724
         vertex -0.0945 0.00193473 0.00878959
         vertex -0.0945 0.00162303 0.00737349
      endloop
   endfacet
   facet normal -1 0 0
      outer loop
         vertex -0.0945 0.00575432 -0.00488777
         vertex -0.0945 0.00685946 -0.00582648
         vertex -0.0945 0.0061893 -0.00653396
      endloop
   endfacet
   facet normal -1 0 0
      outer loop
         vertex -0.0945 0.00544657 -0.00716484
         vertex -0.0945 0.00463998 -0.00771171
         vertex -0.0945 0.00389243 -0.00646927
      endloop
   endfacet
   facet normal -1 0 0
      outer loop
         vertex -0.0945 0.00162303 -0.00737349
         vertex -0.0945 0.00193473 -0.00878959
         vertex -0.0945 0.000973071 -0.00894724
      endloop
   endfacet
   facet normal -1 0 0
      outer loop
         vertex -0.0945 0.000973071 -0.00894724
         vertex -0.0945 0 -0.009
         vertex -0.0945 0 -0.00755
      endloop
   endfacet
   facet normal -1 0 0
      outer loop
         vertex -0.0945 -0.00162303 -0.00737349
         vertex -0.0945 -0.000816299 -0.00750574
         vertex -0.0945 -0.000973071 -0.00894724
      endloop
   endfacet
   facet normal -1 0 0
      outer loop
         vertex -0.0945 -0.00193473 -0.00878959
         vertex -0.0945 -0.00287371 -0.00852888
         vertex -0.0945 -0.00241073 -0.00715478
      endloop
   endfacet
   facet normal -1 0 0
      outer loop
         vertex -0.0945 -0.00624905 -0.00423696
         vertex -0.0945 -0.0074492 -0.00505068
         vertex -0.0945 -0.00795161 -0.00421568
      endloop
   endfacet
   facet normal -1 0 0
      outer loop
         vertex -0.0945 -0.00745054 -0.00122145
         vertex -0.0945 -0.00888144 -0.00145604
         vertex -0.0945 -0.0089868 -0.00048725
      endloop
   endfacet
   facet normal -1 0 0
      outer loop
         vertex -0.0945 -0.00456907 0.0060105
         vertex -0.0945 -0.00544657 0.00716484
         vertex -0.0945 -0.00463998 0.00771171
      endloop
   endfacet
   facet normal -1 0 0
      outer loop
         vertex -0.0945 -0.00162303 0.00737349
         vertex -0.0945 -0.00193473 0.00878959
         vertex -0.0945 -0.000973071 0.00894724
      endloop
   endfacet
   facet normal -1 0 0
      outer loop
         vertex -0.0945 0.00162303 0.00737349
         vertex -0.0945 0.000816299 0.00750574
         vertex -0.0945 0.000973071 0.00894724
      endloop
   endfacet
   facet normal -1 0 0
      outer loop
         vertex -0.0945 0.00389243 -0.00646927
         vertex -0.0945 0.00456907 -0.0060105
         vertex -0.0945 0.00544657 -0.00716484
      endloop
   endfacet
   facet normal -1 0 0
      outer loop
         vertex -0.0945 0.003779 -0.00816818
         vertex -0.0945 0.00317016 -0.00685219
         vertex -0.0945 0.00389243 -0.00646927
      endloop
   endfacet
   facet normal -1 0 0
      outer loop
         vertex -0.0945 0.003779 -0.00816818
         vertex -0.0945 0.00287371 -0.00852888
         vertex -0.0945 0.00241073 -0.00715478
      endloop
   endfacet
   facet normal -1 0 0
      outer loop
         vertex -0.0945 0 -0.00755
         vertex -0.0945 0.000816299 -0.00750574
         vertex -0.0945 0.000973071 -0.00894724
      endloop
   endfacet
   facet normal -1 0 0
      outer loop
         vertex -0.0945 -0.00241073 -0.00715478
         vertex -0.0945 -0.00162303 -0.00737349
         vertex -0.0945 -0.00193473 -0.00878959
      endloop
   endfacet
   facet normal -1 0 0
      outer loop
         vertex -0.0945 -0.00667052 -0.00353648
         vertex -0.0945 -0.00795161 -0.00421568
         vertex -0.0945 -0.00836079 -0.00333124
      endloop
   endfacet
   facet normal -1 0 0
      outer loop
         vertex -0.0945 -0.00241073 0.00715478
         vertex -0.0945 -0.00287371 0.00852888
         vertex -0.0945 -0.00193473 0.00878959
      endloop
   endfacet
   facet normal -1 0 0
      outer loop
         vertex -0.0945 0.00162303 0.00737349
         vertex -0.0945 0.00193473 0.00878959
         vertex -0.0945 0.00287371 0.00852888
      endloop
   endfacet
   facet normal -1 0 0
      outer loop
         vertex -0.0945 0.00241073 -0.00715478
         vertex -0.0945 0.00317016 -0.00685219
         vertex -0.0945 0.003779 -0.00816818
      endloop
   endfacet
   facet normal -1 0 0
      outer loop
         vertex -0.0945 0 -0.00755
         vertex -0.0945 0 -0.009
         vertex -0.0945 -0.000973071 -0.00894724
      endloop
   endfacet
   facet normal -1 0 0
      outer loop
         vertex -0.0945 -0.0072748 0.00201984
         vertex -0.0945 -0.00867195 0.00240776
         vertex -0.0945 -0.00836079 0.00333124
      endloop
   endfacet
   facet normal -1 0 0
      outer loop
         vertex -0.0945 0.00389243 -0.00646927
         vertex -0.0945 0.00463998 -0.00771171
         vertex -0.0945 0.003779 -0.00816818
      endloop
   endfacet
   facet normal -1 0 0
      outer loop
         vertex -0.0945 -0.00241073 -0.00715478
         vertex -0.0945 -0.00287371 -0.00852888
         vertex -0.0945 -0.003779 -0.00816818
      endloop
   endfacet
   facet normal -1 0 0
      outer loop
         vertex -0.0945 0.00241073 -0.00715478
         vertex -0.0945 0.00287371 -0.00852888
         vertex -0.0945 0.00193473 -0.00878959
      endloop
   endfacet
   facet normal -1 0 0
      outer loop
         vertex -0.0945 9.24608e-19 0.00755
         vertex -0.0945 3.30655e-18 0.009
         vertex -0.0945 0.000973071 0.00894724
      endloop
   endfacet
   facet normal 0 0.108119 0.994138
      outer loop
         vertex -0.092 -0.000816299 -0.00750574
         vertex -0.092 0 -0.00755
         vertex -0.0945 0 -0.00755
      endloop
   endfacet
   facet normal 0 0.21497 0.976621
      outer loop
         vertex -0.092 -0.00162303 -0.00737349
         vertex -0.092 -0.000816299 -0.00750574
         vertex -0.0945 -0.000816299 -0.00750574
      endloop
   endfacet
   facet normal 0 0.319302 0.947653
      outer loop
         vertex -0.092 -0.00241073 -0.00715478
         vertex -0.092 -0.00162303 -0.00737349
         vertex -0.0945 -0.00162303 -0.00737349
      endloop
   endfacet
   facet normal 0 0.419889 0.907575
      outer loop
         vertex -0.092 -0.00317016 -0.00685219
         vertex -0.092 -0.00241073 -0.00715478
         vertex -0.0945 -0.00241073 -0.00715478
      endloop
   endfacet
   facet normal 0 0.515554 0.856857
      outer loop
         vertex -0.092 -0.00389243 -0.00646927
         vertex -0.092 -0.00317016 -0.00685219
         vertex -0.0945 -0.00317016 -0.00685219
      endloop
   endfacet
   facet normal 0 0.605174 0.796093
      outer loop
         vertex -0.092 -0.00456907 -0.0060105
         vertex -0.092 -0.00389243 -0.00646927
         vertex -0.0945 -0.00389243 -0.00646927
      endloop
   endfacet
   facet normal 0 0.687699 0.725995
      outer loop
         vertex -0.092 -0.00519213 -0.00548127
         vertex -0.092 -0.00456907 -0.0060105
         vertex -0.0945 -0.00456907 -0.0060105
      endloop
   endfacet
   facet normal 0 0.762162 0.647386
      outer loop
         vertex -0.092 -0.00575432 -0.00488777
         vertex -0.092 -0.00519213 -0.00548127
         vertex -0.0945 -0.00519213 -0.00548127
      endloop
   endfacet
   facet normal 0 0.827689 0.561187
      outer loop
         vertex -0.092 -0.00624905 -0.00423696
         vertex -0.092 -0.00575432 -0.00488777
         vertex -0.0945 -0.00575432 -0.00488777
      endloop
   endfacet
   facet normal 0 0.883512 0.468408
      outer loop
         vertex -0.092 -0.00667052 -0.00353648
         vertex -0.092 -0.00624905 -0.00423696
         vertex -0.0945 -0.00624905 -0.00423696
      endloop
   endfacet
   facet normal 0 0.928977 0.370138
      outer loop
         vertex -0.092 -0.00701377 -0.00279454
         vertex -0.092 -0.00667052 -0.00353648
         vertex -0.0945 -0.00667052 -0.00353648
      endloop
   endfacet
   facet normal 0 0.96355 0.267528
      outer loop
         vertex -0.092 -0.0072748 -0.00201984
         vertex -0.092 -0.00701377 -0.00279454
         vertex -0.0945 -0.00701377 -0.00279454
      endloop
   endfacet
   facet normal 0 0.986827 0.161782
      outer loop
         vertex -0.092 -0.00745054 -0.00122145
         vertex -0.092 -0.0072748 -0.00201984
         vertex -0.0945 -0.0072748 -0.00201984
      endloop
   endfacet
   facet normal 0 0.998533 0.0541389
      outer loop
         vertex -0.092 -0.00753893 -0.000408749
         vertex -0.092 -0.00745054 -0.00122145
         vertex -0.0945 -0.00745054 -0.00122145
      endloop
   endfacet
   facet normal 0 0.998533 -0.0541389
      outer loop
         vertex -0.092 -0.00753893 0.000408749
         vertex -0.092 -0.00753893 -0.000408749
         vertex -0.0945 -0.00753893 -0.000408749
      endloop
   endfacet
   facet normal 0 0.986827 -0.161782
      outer loop
         vertex -0.092 -0.00745054 0.00122145
         vertex -0.092 -0.00753893 0.000408749
         vertex -0.0945 -0.00753893 0.000408749
      endloop
   endfacet
   facet normal 0 0.96355 -0.267528
      outer loop
         vertex -0.092 -0.0072748 0.00201984
         vertex -0.092 -0.00745054 0.00122145
         vertex -0.0945 -0.00745054 0.00122145
      endloop
   endfacet
   facet normal 0 0.928977 -0.370138
      outer loop
         vertex -0.092 -0.00701377 0.00279454
         vertex -0.092 -0.0072748 0.00201984
         vertex -0.0945 -0.0072748 0.00201984
      endloop
   endfacet
   facet normal 0 0.883512 -0.468408
      outer loop
         vertex -0.092 -0.00667052 0.00353648
         vertex -0.092 -0.00701377 0.00279454
         vertex -0.0945 -0.00701377 0.00279454
      endloop
   endfacet
   facet normal 0 0.827689 -0.561187
      outer loop
         vertex -0.092 -0.00624905 0.00423696
         vertex -0.092 -0.00667052 0.00353648
         vertex -0.0945 -0.00667052 0.00353648
      endloop
   endfacet
   facet normal 0 0.762162 -0.647386
      outer loop
         vertex -0.092 -0.00575432 0.00488777
         vertex -0.092 -0.00624905 0.00423696
         vertex -0.0945 -0.00624905 0.00423696
      endloop
   endfacet
   facet normal 0 0.687699 -0.725995
      outer loop
         vertex -0.092 -0.00519213 0.00548127
         vertex -0.092 -0.00575432 0.00488777
         vertex -0.0945 -0.00575432 0.00488777
      endloop
   endfacet
   facet normal 0 0.605174 -0.796093
      outer loop
         vertex -0.092 -0.00456907 0.0060105
         vertex -0.092 -0.00519213 0.00548127
         vertex -0.0945 -0.00519213 0.00548127
      endloop
   endfacet
   facet normal 0 0.515554 -0.856857
      outer loop
         vertex -0.092 -0.00389243 0.00646927
         vertex -0.092 -0.00456907 0.0060105
         vertex -0.0945 -0.00456907 0.0060105
      endloop
   endfacet
   facet normal 0 0.419889 -0.907575
      outer loop
         vertex -0.092 -0.00317016 0.00685219
         vertex -0.092 -0.00389243 0.00646927
         vertex -0.0945 -0.00389243 0.00646927
      endloop
   endfacet
   facet normal 0 0.319302 -0.947653
      outer loop
         vertex -0.092 -0.00241073 0.00715478
         vertex -0.092 -0.00317016 0.00685219
         vertex -0.0945 -0.00317016 0.00685219
      endloop
   endfacet
   facet normal 0 0.21497 -0.976621
      outer loop
         vertex -0.092 -0.00162303 0.00737349
         vertex -0.092 -0.00241073 0.00715478
         vertex -0.0945 -0.00241073 0.00715478
      endloop
   endfacet
   facet normal 0 0.108119 -0.994138
      outer loop
         vertex -0.092 -0.000816299 0.00750574
         vertex -0.092 -0.00162303 0.00737349
         vertex -0.0945 -0.00162303 0.00737349
      endloop
   endfacet
   facet normal 0 -1.22465e-16 -1
      outer loop
         vertex -0.092 2.77383e-18 0.00755
         vertex -0.092 -0.000816299 0.00750574
         vertex -0.0945 -0.000816299 0.00750574
      endloop
   endfacet
   facet normal 0 -0.108119 -0.994138
      outer loop
         vertex -0.092 0.000816299 0.00750574
         vertex -0.092 2.77383e-18 0.00755
         vertex -0.0945 9.24608e-19 0.00755
      endloop
   endfacet
   facet normal 0 -0.21497 -0.976621
      outer loop
         vertex -0.092 0.00162303 0.00737349
         vertex -0.092 0.000816299 0.00750574
         vertex -0.0945 0.000816299 0.00750574
      endloop
   endfacet
   facet normal 0 -0.319302 -0.947653
      outer loop
         vertex -0.092 0.00241073 0.00715478
         vertex -0.092 0.00162303 0.00737349
         vertex -0.0945 0.00162303 0.00737349
      endloop
   endfacet
   facet normal 0 -0.419889 -0.907575
      outer loop
         vertex -0.092 0.00317016 0.00685219
         vertex -0.092 0.00241073 0.00715478
         vertex -0.0945 0.00241073 0.00715478
      endloop
   endfacet
   facet normal 0 -0.515554 -0.856857
      outer loop
         vertex -0.092 0.00389243 0.00646927
         vertex -0.092 0.00317016 0.00685219
         vertex -0.0945 0.00317016 0.00685219
      endloop
   endfacet
   facet normal 0 -0.605174 -0.796093
      outer loop
         vertex -0.092 0.00456907 0.0060105
         vertex -0.092 0.00389243 0.00646927
         vertex -0.0945 0.00389243 0.00646927
      endloop
   endfacet
   facet normal 0 -0.687699 -0.725995
      outer loop
         vertex -0.092 0.00519213 0.00548127
         vertex -0.092 0.00456907 0.0060105
         vertex -0.0945 0.00456907 0.0060105
      endloop
   endfacet
   facet normal 0 -0.762162 -0.647386
      outer loop
         vertex -0.092 0.00575432 0.00488777
         vertex -0.092 0.00519213 0.00548127
         vertex -0.0945 0.00519213 0.00548127
      endloop
   endfacet
   facet normal 0 -0.827689 -0.561187
      outer loop
         vertex -0.092 0.00624905 0.00423696
         vertex -0.092 0.00575432 0.00488777
         vertex -0.0945 0.00575432 0.00488777
      endloop
   endfacet
   facet normal 0 -0.883512 -0.468408
      outer loop
         vertex -0.092 0.00667052 0.00353648
         vertex -0.092 0.00624905 0.00423696
         vertex -0.0945 0.00624905 0.00423696
      endloop
   endfacet
   facet normal 0 -0.928977 -0.370138
      outer loop
         vertex -0.092 0.00701377 0.00279454
         vertex -0.092 0.00667052 0.00353648
         vertex -0.0945 0.00667052 0.00353648
      endloop
   endfacet
   facet normal 0 -0.96355 -0.267528
      outer loop
         vertex -0.092 0.0072748 0.00201984
         vertex -0.092 0.00701377 0.00279454
         vertex -0.0945 0.00701377 0.00279454
      endloop
   endfacet
   facet normal 0 -0.986827 -0.161782
      outer loop
         vertex -0.092 0.00745054 0.00122145
         vertex -0.092 0.0072748 0.00201984
         vertex -0.0945 0.0072748 0.00201984
      endloop
   endfacet
   facet normal 0 -0.998533 -0.0541389
      outer loop
         vertex -0.092 0.00753893 0.000408749
         vertex -0.092 0.00745054 0.00122145
         vertex -0.0945 0.00745054 0.00122145
      endloop
   endfacet
   facet normal 0 -0.998533 0.0541389
      outer loop
         vertex -0.092 0.00753893 -0.000408749
         vertex -0.092 0.00753893 0.000408749
         vertex -0.0945 0.00753893 0.000408749
      endloop
   endfacet
   facet normal 0 -0.986827 0.161782
      outer loop
         vertex -0.092 0.00745054 -0.00122145
         vertex -0.092 0.00753893 -0.000408749
         vertex -0.0945 0.00753893 -0.000408749
      endloop
   endfacet
   facet normal 0 -0.96355 0.267528
      outer loop
         vertex -0.092 0.0072748 -0.00201984
         vertex -0.092 0.00745054 -0.00122145
         vertex -0.0945 0.00745054 -0.00122145
      endloop
   endfacet
   facet normal 0 -0.928977 0.370138
      outer loop
         vertex -0.092 0.00701377 -0.00279454
         vertex -0.092 0.0072748 -0.00201984
         vertex -0.0945 0.0072748 -0.00201984
      endloop
   endfacet
   facet normal 0 -0.883512 0.468408
      outer loop
         vertex -0.092 0.00667052 -0.00353648
         vertex -0.092 0.00701377 -0.00279454
         vertex -0.0945 0.00701377 -0.00279454
      endloop
   endfacet
   facet normal 0 -0.827689 0.561187
      outer loop
         vertex -0.092 0.00624905 -0.00423696
         vertex -0.092 0.00667052 -0.00353648
         vertex -0.0945 0.00667052 -0.00353648
      endloop
   endfacet
   facet normal 0 -0.762162 0.647386
      outer loop
         vertex -0.092 0.00575432 -0.00488777
         vertex -0.092 0.00624905 -0.00423696
         vertex -0.0945 0.00624905 -0.00423696
      endloop
   endfacet
   facet normal 0 -0.687699 0.725995
      outer loop
         vertex -0.092 0.00519213 -0.00548127
         vertex -0.092 0.00575432 -0.00488777
         vertex -0.0945 0.00575432 -0.00488777
      endloop
   endfacet
   facet normal 0 -0.605174 0.796093
      outer loop
         vertex -0.092 0.00456907 -0.0060105
         vertex -0.092 0.00519213 -0.00548127
         vertex -0.0945 0.00519213 -0.00548127
      endloop
   endfacet
   facet normal 0 -0.515554 0.856857
      outer loop
         vertex -0.092 0.00389243 -0.00646927
         vertex -0.092 0.00456907 -0.0060105
         vertex -0.0945 0.00456907 -0.0060105
      endloop
   endfacet
   facet normal 0 -0.419889 0.907575
      outer loop
         vertex -0.092 0.00317016 -0.00685219
         vertex -0.092 0.00389243 -0.00646927
         vertex -0.0945 0.00389243 -0.00646927
      endloop
   endfacet
   facet normal 0 -0.319302 0.947653
      outer loop
         vertex -0.092 0.00241073 -0.00715478
         vertex -0.092 0.00317016 -0.00685219
         vertex -0.0945 0.00317016 -0.00685219
      endloop
   endfacet
   facet normal 0 -0.21497 0.976621
      outer loop
         vertex -0.092 0.00162303 -0.00737349
         vertex -0.092 0.00241073 -0.00715478
         vertex -0.0945 0.00241073 -0.00715478
      endloop
   endfacet
   facet normal 0 -0.108119 0.994138
      outer loop
         vertex -0.092 0.000816299 -0.00750574
         vertex -0.092 0.00162303 -0.00737349
         vertex -0.0945 0.00162303 -0.00737349
      endloop
   endfacet
   facet normal 0 2.44929e-16 1
      outer loop
         vertex -0.092 0 -0.00755
         vertex -0.092 0.000816299 -0.00750574
         vertex -0.0945 0.000816299 -0.00750574
      endloop
   endfacet
   facet normal 0 -0.108119 0.994138
      outer loop
         vertex -0.0945 0.000816299 -0.00750574
         vertex -0.0945 0 -0.00755
         vertex -0.092 0 -0.00755
      endloop
   endfacet
   facet normal 0 -0.21497 0.976621
      outer loop
         vertex -0.0945 0.00162303 -0.00737349
         vertex -0.0945 0.000816299 -0.00750574
         vertex -0.092 0.000816299 -0.00750574
      endloop
   endfacet
   facet normal 0 -0.319302 0.947653
      outer loop
         vertex -0.0945 0.00241073 -0.00715478
         vertex -0.0945 0.00162303 -0.00737349
         vertex -0.092 0.00162303 -0.00737349
      endloop
   endfacet
   facet normal 0 -0.419889 0.907575
      outer loop
         vertex -0.0945 0.00317016 -0.00685219
         vertex -0.0945 0.00241073 -0.00715478
         vertex -0.092 0.00241073 -0.00715478
      endloop
   endfacet
   facet normal 0 -0.515554 0.856857
      outer loop
         vertex -0.0945 0.00389243 -0.00646927
         vertex -0.0945 0.00317016 -0.00685219
         vertex -0.092 0.00317016 -0.00685219
      endloop
   endfacet
   facet normal 0 -0.605174 0.796093
      outer loop
         vertex -0.0945 0.00456907 -0.0060105
         vertex -0.0945 0.00389243 -0.00646927
         vertex -0.092 0.00389243 -0.00646927
      endloop
   endfacet
   facet normal 0 -0.687699 0.725995
      outer loop
         vertex -0.0945 0.00519213 -0.00548127
         vertex -0.0945 0.00456907 -0.0060105
         vertex -0.092 0.00456907 -0.0060105
      endloop
   endfacet
   facet normal 0 -0.762162 0.647386
      outer loop
         vertex -0.0945 0.00575432 -0.00488777
         vertex -0.0945 0.00519213 -0.00548127
         vertex -0.092 0.00519213 -0.00548127
      endloop
   endfacet
   facet normal 0 -0.827689 0.561187
      outer loop
         vertex -0.0945 0.00624905 -0.00423696
         vertex -0.0945 0.00575432 -0.00488777
         vertex -0.092 0.00575432 -0.00488777
      endloop
   endfacet
   facet normal 0 -0.883512 0.468408
      outer loop
         vertex -0.0945 0.00667052 -0.00353648
         vertex -0.0945 0.00624905 -0.00423696
         vertex -0.092 0.00624905 -0.00423696
      endloop
   endfacet
   facet normal 0 -0.928977 0.370138
      outer loop
         vertex -0.0945 0.00701377 -0.00279454
         vertex -0.0945 0.00667052 -0.00353648
         vertex -0.092 0.00667052 -0.00353648
      endloop
   endfacet
   facet normal 0 -0.96355 0.267528
      outer loop
         vertex -0.0945 0.0072748 -0.00201984
         vertex -0.0945 0.00701377 -0.00279454
         vertex -0.092 0.00701377 -0.00279454
      endloop
   endfacet
   facet normal 0 -0.986827 0.161782
      outer loop
         vertex -0.0945 0.00745054 -0.00122145
         vertex -0.0945 0.0072748 -0.00201984
         vertex -0.092 0.0072748 -0.00201984
      endloop
   endfacet
   facet normal 0 -0.998533 0.0541389
      outer loop
         vertex -0.0945 0.00753893 -0.000408749
         vertex -0.0945 0.00745054 -0.00122145
         vertex -0.092 0.00745054 -0.00122145
      endloop
   endfacet
   facet normal 0 -0.998533 -0.0541389
      outer loop
         vertex -0.0945 0.00753893 0.000408749
         vertex -0.0945 0.00753893 -0.000408749
         vertex -0.092 0.00753893 -0.000408749
      endloop
   endfacet
   facet normal 0 -0.986827 -0.161782
      outer loop
         vertex -0.0945 0.00745054 0.00122145
         vertex -0.0945 0.00753893 0.000408749
         vertex -0.092 0.00753893 0.000408749
      endloop
   endfacet
   facet normal 0 -0.96355 -0.267528
      outer loop
         vertex -0.0945 0.0072748 0.00201984
         vertex -0.0945 0.00745054 0.00122145
         vertex -0.092 0.00745054 0.00122145
      endloop
   endfacet
   facet normal 0 -0.928977 -0.370138
      outer loop
         vertex -0.0945 0.00701377 0.00279454
         vertex -0.0945 0.0072748 0.00201984
         vertex -0.092 0.0072748 0.00201984
      endloop
   endfacet
   facet normal 0 -0.883512 -0.468408
      outer loop
         vertex -0.0945 0.00667052 0.00353648
         vertex -0.0945 0.00701377 0.00279454
         vertex -0.092 0.00701377 0.00279454
      endloop
   endfacet
   facet normal 0 -0.827689 -0.561187
      outer loop
         vertex -0.0945 0.00624905 0.00423696
         vertex -0.0945 0.00667052 0.00353648
         vertex -0.092 0.00667052 0.00353648
      endloop
   endfacet
   facet normal 0 -0.762162 -0.647386
      outer loop
         vertex -0.0945 0.00575432 0.00488777
         vertex -0.0945 0.00624905 0.00423696
         vertex -0.092 0.00624905 0.00423696
      endloop
   endfacet
   facet normal 0 -0.687699 -0.725995
      outer loop
         vertex -0.0945 0.00519213 0.00548127
         vertex -0.0945 0.00575432 0.00488777
         vertex -0.092 0.00575432 0.00488777
      endloop
   endfacet
   facet normal 0 -0.605174 -0.796093
      outer loop
         vertex -0.0945 0.00456907 0.0060105
         vertex -0.0945 0.00519213 0.00548127
         vertex -0.092 0.00519213 0.00548127
      endloop
   endfacet
   facet normal 0 -0.515554 -0.856857
      outer loop
         vertex -0.0945 0.00389243 0.00646927
         vertex -0.0945 0.00456907 0.0060105
         vertex -0.092 0.00456907 0.0060105
      endloop
   endfacet
   facet normal 0 -0.419889 -0.907575
      outer loop
         vertex -0.0945 0.00317016 0.00685219
         vertex -0.0945 0.00389243 0.00646927
         vertex -0.092 0.00389243 0.00646927
      endloop
   endfacet
   facet normal 0 -0.319302 -0.947653
      outer loop
         vertex -0.0945 0.00241073 0.00715478
         vertex -0.0945 0.00317016 0.00685219
         vertex -0.092 0.00317016 0.00685219
      endloop
   endfacet
   facet normal 0 -0.21497 -0.976621
      outer loop
         vertex -0.0945 0.00162303 0.00737349
         vertex -0.0945 0.00241073 0.00715478
         vertex -0.092 0.00241073 0.00715478
      endloop
   endfacet
   facet normal 0 -0.108119 -0.994138
      outer loop
         vertex -0.0945 0.000816299 0.00750574
         vertex -0.0945 0.00162303 0.00737349
         vertex -0.092 0.00162303 0.00737349
      endloop
   endfacet
   facet normal 0 -1.22465e-16 -1
      outer loop
         vertex -0.0945 9.24608e-19 0.00755
         vertex -0.0945 0.000816299 0.00750574
         vertex -0.092 0.000816299 0.00750574
      endloop
   endfacet
   facet normal 0 0.108119 -0.994138
      outer loop
         vertex -0.0945 -0.000816299 0.00750574
         vertex -0.0945 9.24608e-19 0.00755
         vertex -0.092 2.77383e-18 0.00755
      endloop
   endfacet
   facet normal 0 0.21497 -0.976621
      outer loop
         vertex -0.0945 -0.00162303 0.00737349
         vertex -0.0945 -0.000816299 0.00750574
         vertex -0.092 -0.000816299 0.00750574
      endloop
   endfacet
   facet normal 0 0.319302 -0.947653
      outer loop
         vertex -0.0945 -0.00241073 0.00715478
         vertex -0.0945 -0.00162303 0.00737349
         vertex -0.092 -0.00162303 0.00737349
      endloop
   endfacet
   facet normal 0 0.419889 -0.907575
      outer loop
         vertex -0.0945 -0.00317016 0.00685219
         vertex -0.0945 -0.00241073 0.00715478
         vertex -0.092 -0.00241073 0.00715478
      endloop
   endfacet
   facet normal 0 0.515554 -0.856857
      outer loop
         vertex -0.0945 -0.00389243 0.00646927
         vertex -0.0945 -0.00317016 0.00685219
         vertex -0.092 -0.00317016 0.00685219
      endloop
   endfacet
   facet normal 0 0.605174 -0.796093
      outer loop
         vertex -0.0945 -0.00456907 0.0060105
         vertex -0.0945 -0.00389243 0.00646927
         vertex -0.092 -0.00389243 0.00646927
      endloop
   endfacet
   facet normal 0 0.687699 -0.725995
      outer loop
         vertex -0.0945 -0.00519213 0.00548127
         vertex -0.0945 -0.00456907 0.0060105
         vertex -0.092 -0.00456907 0.0060105
      endloop
   endfacet
   facet normal 0 0.762162 -0.647386
      outer loop
         vertex -0.0945 -0.00575432 0.00488777
         vertex -0.0945 -0.00519213 0.00548127
         vertex -0.092 -0.00519213 0.00548127
      endloop
   endfacet
   facet normal 0 0.827689 -0.561187
      outer loop
         vertex -0.0945 -0.00624905 0.00423696
         vertex -0.0945 -0.00575432 0.00488777
         vertex -0.092 -0.00575432 0.00488777
      endloop
   endfacet
   facet normal 0 0.883512 -0.468408
      outer loop
         vertex -0.0945 -0.00667052 0.00353648
         vertex -0.0945 -0.00624905 0.00423696
         vertex -0.092 -0.00624905 0.00423696
      endloop
   endfacet
   facet normal 0 0.928977 -0.370138
      outer loop
         vertex -0.0945 -0.00701377 0.00279454
         vertex -0.0945 -0.00667052 0.00353648
         vertex -0.092 -0.00667052 0.00353648
      endloop
   endfacet
   facet normal 0 0.96355 -0.267528
      outer loop
         vertex -0.0945 -0.0072748 0.00201984
         vertex -0.0945 -0.00701377 0.00279454
         vertex -0.092 -0.00701377 0.00279454
      endloop
   endfacet
   facet normal 0 0.986827 -0.161782
      outer loop
         vertex -0.0945 -0.00745054 0.00122145
         vertex -0.0945 -0.0072748 0.00201984
         vertex -0.092 -0.0072748 0.00201984
      endloop
   endfacet
   facet normal 0 0.998533 -0.0541389
      outer loop
         vertex -0.0945 -0.00753893 0.000408749
         vertex -0.0945 -0.00745054 0.00122145
         vertex -0.092 -0.00745054 0.00122145
      endloop
   endfacet
   facet normal 0 0.998533 0.0541389
      outer loop
         vertex -0.0945 -0.00753893 -0.000408749
         vertex -0.0945 -0.00753893 0.000408749
         vertex -0.092 -0.00753893 0.000408749
      endloop
   endfacet
   facet normal 0 0.986827 0.161782
      outer loop
         vertex -0.0945 -0.00745054 -0.00122145
         vertex -0.0945 -0.00753893 -0.000408749
         vertex -0.092 -0.00753893 -0.000408749
      endloop
   endfacet
   facet normal 0 0.96355 0.267528
      outer loop
         vertex -0.0945 -0.0072748 -0.00201984
         vertex -0.0945 -0.00745054 -0.00122145
         vertex -0.092 -0.00745054 -0.00122145
      endloop
   endfacet
   facet normal 0 0.928977 0.370138
      outer loop
         vertex -0.0945 -0.00701377 -0.00279454
         vertex -0.0945 -0.0072748 -0.00201984
         vertex -0.092 -0.0072748 -0.00201984
      endloop
   endfacet
   facet normal 0 0.883512 0.468408
      outer loop
         vertex -0.0945 -0.00667052 -0.00353648
         vertex -0.0945 -0.00701377 -0.00279454
         vertex -0.092 -0.00701377 -0.00279454
      endloop
   endfacet
   facet normal 0 0.827689 0.561187
      outer loop
         vertex -0.0945 -0.00624905 -0.00423696
         vertex -0.0945 -0.00667052 -0.00353648
         vertex -0.092 -0.00667052 -0.00353648
      endloop
   endfacet
   facet normal 0 0.762162 0.647386
      outer loop
         vertex -0.0945 -0.00575432 -0.00488777
         vertex -0.0945 -0.00624905 -0.00423696
         vertex -0.092 -0.00624905 -0.00423696
      endloop
   endfacet
   facet normal 0 0.687699 0.725995
      outer loop
         vertex -0.0945 -0.00519213 -0.00548127
         vertex -0.0945 -0.00575432 -0.00488777
         vertex -0.092 -0.00575432 -0.00488777
      endloop
   endfacet
   facet normal 0 0.605174 0.796093
      outer loop
         vertex -0.0945 -0.00456907 -0.0060105
         vertex -0.0945 -0.00519213 -0.00548127
         vertex -0.092 -0.00519213 -0.00548127
      endloop
   endfacet
   facet normal 0 0.515554 0.856857
      outer loop
         vertex -0.0945 -0.00389243 -0.00646927
         vertex -0.0945 -0.00456907 -0.0060105
         vertex -0.092 -0.00456907 -0.0060105
      endloop
   endfacet
   facet normal 0 0.419889 0.907575
      outer loop
         vertex -0.0945 -0.00317016 -0.00685219
         vertex -0.0945 -0.00389243 -0.00646927
         vertex -0.092 -0.00389243 -0.00646927
      endloop
   endfacet
   facet normal 0 0.319302 0.947653
      outer loop
         vertex -0.0945 -0.00241073 -0.00715478
         vertex -0.0945 -0.00317016 -0.00685219
         vertex -0.092 -0.00317016 -0.00685219
      endloop
   endfacet
   facet normal 0 0.21497 0.976621
      outer loop
         vertex -0.0945 -0.00162303 -0.00737349
         vertex -0.0945 -0.00241073 -0.00715478
         vertex -0.092 -0.00241073 -0.00715478
      endloop
   endfacet
   facet normal 0 0.108119 0.994138
      outer loop
         vertex -0.0945 -0.000816299 -0.00750574
         vertex -0.0945 -0.00162303 -0.00737349
         vertex -0.092 -0.00162303 -0.00737349
      endloop
   endfacet
   facet normal 0 2.44929e-16 1
      outer loop
         vertex -0.0945 0 -0.00755
         vertex -0.0945 -0.000816299 -0.00750574
         vertex -0.092 -0.000816299 -0.00750574
      endloop
   endfacet
   facet normal 1 0 0
      outer loop
         vertex -0.092 0.00867195 0.00240776
         vertex -0.092 0.00836079 0.00333124
         vertex -0.092 0.00701377 0.00279454
      endloop
   endfacet
   facet normal 1 0 0
      outer loop
         vertex -0.092 0.00836079 0.00333124
         vertex -0.092 0.00795161 0.00421568
         vertex -0.092 0.00667052 0.00353648
      endloop
   endfacet
   facet normal 1 0 0
      outer loop
         vertex -0.092 0.00888144 -0.00145604
         vertex -0.092 0.00745054 -0.00122145
         vertex -0.092 0.0072748 -0.00201984
      endloop
   endfacet
   facet normal 1 0 0
      outer loop
         vertex -0.092 0.0089868 -0.00048725
         vertex -0.092 0.00753893 -0.000408749
         vertex -0.092 0.00745054 -0.00122145
      endloop
   endfacet
   facet normal 1 0 0
      outer loop
         vertex -0.092 0.00888144 0.00145604
         vertex -0.092 0.00867195 0.00240776
         vertex -0.092 0.0072748 0.00201984
      endloop
   endfacet
   facet normal 1 0 0
      outer loop
         vertex -0.092 0.00667052 0.00353648
         vertex -0.092 0.00701377 0.00279454
         vertex -0.092 0.00836079 0.00333124
      endloop
   endfacet
   facet normal 1 0 0
      outer loop
         vertex -0.092 0.00745054 -0.00122145
         vertex -0.092 0.00888144 -0.00145604
         vertex -0.092 0.0089868 -0.00048725
      endloop
   endfacet
   facet normal 1 0 0
      outer loop
         vertex -0.092 0.0089868 -0.00048725
         vertex -0.092 0.0089868 0.00048725
         vertex -0.092 0.00753893 0.000408749
      endloop
   endfacet
   facet normal 1 0 0
      outer loop
         vertex -0.092 0.00701377 0.00279454
         vertex -0.092 0.0072748 0.00201984
         vertex -0.092 0.00867195 0.00240776
      endloop
   endfacet
   facet normal 1 0 0
      outer loop
         vertex -0.092 0.0074492 0.00505068
         vertex -0.092 0.00624905 0.00423696
         vertex -0.092 0.00667052 0.00353648
      endloop
   endfacet
   facet normal 1 0 0
      outer loop
         vertex -0.092 0.00685946 0.00582648
         vertex -0.092 0.00575432 0.00488777
         vertex -0.092 0.00624905 0.00423696
      endloop
   endfacet
   facet normal 1 0 0
      outer loop
         vertex -0.092 0.00685946 0.00582648
         vertex -0.092 0.0061893 0.00653396
         vertex -0.092 0.00519213 0.00548127
      endloop
   endfacet
   facet normal 1 0 0
      outer loop
         vertex -0.092 0.00753893 0.000408749
         vertex -0.092 0.00753893 -0.000408749
         vertex -0.092 0.0089868 -0.00048725
      endloop
   endfacet
   facet normal 1 0 0
      outer loop
         vertex -0.092 0.0089868 0.00048725
         vertex -0.092 0.00888144 0.00145604
         vertex -0.092 0.00745054 0.00122145
      endloop
   endfacet
   facet normal 1 0 0
      outer loop
         vertex -0.092 0.00667052 0.00353648
         vertex -0.092 0.00795161 0.00421568
         vertex -0.092 0.0074492 0.00505068
      endloop
   endfacet
   facet normal 1 0 0
      outer loop
         vertex -0.092 0.00519213 0.00548127
         vertex -0.092 0.00575432 0.00488777
         vertex -0.092 0.00685946 0.00582648
      endloop
   endfacet
   facet normal 1 0 0
      outer loop
         vertex -0.092 0.00745054 0.00122145
         vertex -0.092 0.00753893 0.000408749
         vertex -0.092 0.0089868 0.00048725
      endloop
   endfacet
   facet normal 1 0 0
      outer loop
         vertex -0.092 0.00624905 0.00423696
         vertex -0.092 0.0074492 0.00505068
         vertex -0.092 0.00685946 0.00582648
      endloop
   endfacet
   facet normal 1 0 0
      outer loop
         vertex -0.092 0.00463998 0.00771171
         vertex -0.092 0.00389243 0.00646927
         vertex -0.092 0.00456907 0.0060105
      endloop
   endfacet
   facet normal 1 0 0
      outer loop
         vertex -0.092 0.00463998 0.00771171
         vertex -0.092 0.003779 0.00816818
         vertex -0.092 0.00317016 0.00685219
      endloop
   endfacet
   facet normal 1 0 0
      outer loop
         vertex -0.092 0.003779 0.00816818
         vertex -0.092 0.00287371 0.00852888
         vertex -0.092 0.00241073 0.00715478
      endloop
   endfacet
   facet normal 1 0 0
      outer loop
         vertex -0.092 0.00287371 0.00852888
         vertex -0.092 0.00193473 0.00878959
         vertex -0.092 0.00162303 0.00737349
      endloop
   endfacet
   facet normal 1 0 0
      outer loop
         vertex -0.092 0.00685946 -0.00582648
         vertex -0.092 0.0074492 -0.00505068
         vertex -0.092 0.00624905 -0.00423696
      endloop
   endfacet
   facet normal 1 0 0
      outer loop
         vertex -0.092 0.0074492 -0.00505068
         vertex -0.092 0.00795161 -0.00421568
         vertex -0.092 0.00667052 -0.00353648
      endloop
   endfacet
   facet normal 1 0 0
      outer loop
         vertex -0.092 0.00836079 -0.00333124
         vertex -0.092 0.00701377 -0.00279454
         vertex -0.092 0.00667052 -0.00353648
      endloop
   endfacet
   facet normal 1 0 0
      outer loop
         vertex -0.092 0.00836079 -0.00333124
         vertex -0.092 0.00867195 -0.00240776
         vertex -0.092 0.0072748 -0.00201984
      endloop
   endfacet
   facet normal 1 0 0
      outer loop
         vertex -0.092 0.0072748 0.00201984
         vertex -0.092 0.00745054 0.00122145
         vertex -0.092 0.00888144 0.00145604
      endloop
   endfacet
   facet normal 1 0 0
      outer loop
         vertex -0.092 0.0061893 0.00653396
         vertex -0.092 0.00544657 0.00716484
         vertex -0.092 0.00456907 0.0060105
      endloop
   endfacet
   facet normal 1 0 0
      outer loop
         vertex -0.092 0.00317016 0.00685219
         vertex -0.092 0.00389243 0.00646927
         vertex -0.092 0.00463998 0.00771171
      endloop
   endfacet
   facet normal 1 0 0
      outer loop
         vertex -0.092 0.00162303 0.00737349
         vertex -0.092 0.00241073 0.00715478
         vertex -0.092 0.00287371 0.00852888
      endloop
   endfacet
   facet normal 1 0 0
      outer loop
         vertex -0.092 -0.00685946 0.00582648
         vertex -0.092 -0.00575432 0.00488777
         vertex -0.092 -0.00519213 0.00548127
      endloop
   endfacet
   facet normal 1 0 0
      outer loop
         vertex -0.092 -0.00685946 0.00582648
         vertex -0.092 -0.0074492 0.00505068
         vertex -0.092 -0.00624905 0.00423696
      endloop
   endfacet
   facet normal 1 0 0
      outer loop
         vertex -0.092 -0.0074492 0.00505068
         vertex -0.092 -0.00795161 0.00421568
         vertex -0.092 -0.00667052 0.00353648
      endloop
   endfacet
   facet normal 1 0 0
      outer loop
         vertex -0.092 -0.00795161 0.00421568
         vertex -0.092 -0.00836079 0.00333124
         vertex -0.092 -0.00701377 0.00279454
      endloop
   endfacet
   facet normal 1 0 0
      outer loop
         vertex -0.092 0.0061893 -0.00653396
         vertex -0.092 0.00519213 -0.00548127
         vertex -0.092 0.00456907 -0.0060105
      endloop
   endfacet
   facet normal 1 0 0
      outer loop
         vertex -0.092 0.0061893 -0.00653396
         vertex -0.092 0.00685946 -0.00582648
         vertex -0.092 0.00575432 -0.00488777
      endloop
   endfacet
   facet normal 1 0 0
      outer loop
         vertex -0.092 0.00667052 -0.00353648
         vertex -0.092 0.00624905 -0.00423696
         vertex -0.092 0.0074492 -0.00505068
      endloop
   endfacet
   facet normal 1 0 0
      outer loop
         vertex -0.092 0.0072748 -0.00201984
         vertex -0.092 0.00701377 -0.00279454
         vertex -0.092 0.00836079 -0.00333124
      endloop
   endfacet
   facet normal 1 0 0
      outer loop
         vertex -0.092 0.00456907 0.0060105
         vertex -0.092 0.00519213 0.00548127
         vertex -0.092 0.0061893 0.00653396
      endloop
   endfacet
   facet normal 1 0 0
      outer loop
         vertex -0.092 0.00241073 0.00715478
         vertex -0.092 0.00317016 0.00685219
         vertex -0.092 0.003779 0.00816818
      endloop
   endfacet
   facet normal 1 0 0
      outer loop
         vertex -0.092 -0.000973071 0.00894724
         vertex -0.092 -0.000816299 0.00750574
         vertex -0.092 2.77383e-18 0.00755
      endloop
   endfacet
   facet normal 1 0 0
      outer loop
         vertex -0.092 -0.000973071 0.00894724
         vertex -0.092 -0.00193473 0.00878959
         vertex -0.092 -0.00162303 0.00737349
      endloop
   endfacet
   facet normal 1 0 0
      outer loop
         vertex -0.092 -0.00624905 0.00423696
         vertex -0.092 -0.00575432 0.00488777
         vertex -0.092 -0.00685946 0.00582648
      endloop
   endfacet
   facet normal 1 0 0
      outer loop
         vertex -0.092 -0.00701377 0.00279454
         vertex -0.092 -0.00667052 0.00353648
         vertex -0.092 -0.00795161 0.00421568
      endloop
   endfacet
   facet normal 1 0 0
      outer loop
         vertex -0.092 0.00544657 -0.00716484
         vertex -0.092 0.00456907 -0.0060105
         vertex -0.092 0.00389243 -0.00646927
      endloop
   endfacet
   facet normal 1 0 0
      outer loop
         vertex -0.092 0.00575432 -0.00488777
         vertex -0.092 0.00519213 -0.00548127
         vertex -0.092 0.0061893 -0.00653396
      endloop
   endfacet
   facet normal 1 0 0
      outer loop
         vertex -0.092 0.00667052 -0.00353648
         vertex -0.092 0.00795161 -0.00421568
         vertex -0.092 0.00836079 -0.00333124
      endloop
   endfacet
   facet normal 1 0 0
      outer loop
         vertex -0.092 0.00456907 0.0060105
         vertex -0.092 0.00544657 0.00716484
         vertex -0.092 0.00463998 0.00771171
      endloop
   endfacet
   facet normal 1 0 0
      outer loop
         vertex -0.092 0.000973071 0.00894724
         vertex -0.092 0.000816299 0.00750574
         vertex -0.092 0.00162303 0.00737349
      endloop
   endfacet
   facet normal 1 0 0
      outer loop
         vertex -0.092 0.000973071 0.00894724
         vertex -0.092 1.10218e-18 0.009
         vertex -0.092 2.77383e-18 0.00755
      endloop
   endfacet
   facet normal 1 0 0
      outer loop
         vertex -0.092 -0.00162303 0.00737349
         vertex -0.092 -0.000816299 0.00750574
         vertex -0.092 -0.000973071 0.00894724
      endloop
   endfacet
   facet normal 1 0 0
      outer loop
         vertex -0.092 -0.00193473 0.00878959
         vertex -0.092 -0.00287371 0.00852888
         vertex -0.092 -0.00241073 0.00715478
      endloop
   endfacet
   facet normal 1 0 0
      outer loop
         vertex -0.092 -0.003779 0.00816818
         vertex -0.092 -0.00317016 0.00685219
         vertex -0.092 -0.00241073 0.00715478
      endloop
   endfacet
   facet normal 1 0 0
      outer loop
         vertex -0.092 -0.00463998 0.00771171
         vertex -0.092 -0.00389243 0.00646927
         vertex -0.092 -0.00317016 0.00685219
      endloop
   endfacet
   facet normal 1 0 0
      outer loop
         vertex -0.092 -0.00667052 0.00353648
         vertex -0.092 -0.00624905 0.00423696
         vertex -0.092 -0.0074492 0.00505068
      endloop
   endfacet
   facet normal 1 0 0
      outer loop
         vertex -0.092 -0.00836079 0.00333124
         vertex -0.092 -0.00867195 0.00240776
         vertex -0.092 -0.0072748 0.00201984
      endloop
   endfacet
   facet normal 1 0 0
      outer loop
         vertex -0.092 -0.0061893 -0.00653396
         vertex -0.092 -0.00519213 -0.00548127
         vertex -0.092 -0.00575432 -0.00488777
      endloop
   endfacet
   facet normal 1 0 0
      outer loop
         vertex -0.092 -0.0061893 -0.00653396
         vertex -0.092 -0.00544657 -0.00716484
         vertex -0.092 -0.00456907 -0.0060105
      endloop
   endfacet
   facet normal 1 0 0
      outer loop
         vertex -0.092 -0.003779 -0.00816818
         vertex -0.092 -0.00317016 -0.00685219
         vertex -0.092 -0.00389243 -0.00646927
      endloop
   endfacet
   facet normal 1 0 0
      outer loop
         vertex -0.092 -0.003779 -0.00816818
         vertex -0.092 -0.00287371 -0.00852888
         vertex -0.092 -0.00241073 -0.00715478
      endloop
   endfacet
   facet normal 1 0 0
      outer loop
         vertex -0.092 0.00456907 -0.0060105
         vertex -0.092 0.00544657 -0.00716484
         vertex -0.092 0.0061893 -0.00653396
      endloop
   endfacet
   facet normal 1 0 0
      outer loop
         vertex -0.092 0.0072748 -0.00201984
         vertex -0.092 0.00867195 -0.00240776
         vertex -0.092 0.00888144 -0.00145604
      endloop
   endfacet
   facet normal 1 0 0
      outer loop
         vertex -0.092 2.77383e-18 0.00755
         vertex -0.092 0.000816299 0.00750574
         vertex -0.092 0.000973071 0.00894724
      endloop
   endfacet
   facet normal 1 0 0
      outer loop
         vertex -0.092 -0.00241073 0.00715478
         vertex -0.092 -0.00162303 0.00737349
         vertex -0.092 -0.00193473 0.00878959
      endloop
   endfacet
   facet normal 1 0 0
      outer loop
         vertex -0.092 -0.00317016 0.00685219
         vertex -0.092 -0.003779 0.00816818
         vertex -0.092 -0.00463998 0.00771171
      endloop
   endfacet
   facet normal 1 0 0
      outer loop
         vertex -0.092 -0.00463998 0.00771171
         vertex -0.092 -0.00544657 0.00716484
         vertex -0.092 -0.00456907 0.0060105
      endloop
   endfacet
   facet normal 1 0 0
      outer loop
         vertex -0.092 -0.0061893 0.00653396
         vertex -0.092 -0.00519213 0.00548127
         vertex -0.092 -0.00456907 0.0060105
      endloop
   endfacet
   facet normal 1 0 0
      outer loop
         vertex -0.092 -0.0072748 0.00201984
         vertex -0.092 -0.00701377 0.00279454
         vertex -0.092 -0.00836079 0.00333124
      endloop
   endfacet
   facet normal 1 0 0
      outer loop
         vertex -0.092 -0.00888144 0.00145604
         vertex -0.092 -0.00745054 0.00122145
         vertex -0.092 -0.0072748 0.00201984
      endloop
   endfacet
   facet normal 1 0 0
      outer loop
         vertex -0.092 -0.00888144 0.00145604
         vertex -0.092 -0.0089868 0.00048725
         vertex -0.092 -0.00753893 0.000408749
      endloop
   endfacet
   facet normal 1 0 0
      outer loop
         vertex -0.092 -0.0089868 0.00048725
         vertex -0.092 -0.0089868 -0.00048725
         vertex -0.092 -0.00753893 -0.000408749
      endloop
   endfacet
   facet normal 1 0 0
      outer loop
         vertex -0.092 -0.0089868 -0.00048725
         vertex -0.092 -0.00888144 -0.00145604
         vertex -0.092 -0.00745054 -0.00122145
      endloop
   endfacet
   facet normal 1 0 0
      outer loop
         vertex -0.092 -0.00867195 -0.00240776
         vertex -0.092 -0.0072748 -0.00201984
         vertex -0.092 -0.00745054 -0.00122145
      endloop
   endfacet
   facet normal 1 0 0
      outer loop
         vertex -0.092 -0.00836079 -0.00333124
         vertex -0.092 -0.00701377 -0.00279454
         vertex -0.092 -0.0072748 -0.00201984
      endloop
   endfacet
   facet normal 1 0 0
      outer loop
         vertex -0.092 -0.00685946 -0.00582648
         vertex -0.092 -0.00575432 -0.00488777
         vertex -0.092 -0.00624905 -0.00423696
      endloop
   endfacet
   facet normal 1 0 0
      outer loop
         vertex -0.092 -0.00456907 -0.0060105
         vertex -0.092 -0.00519213 -0.00548127
         vertex -0.092 -0.0061893 -0.00653396
      endloop
   endfacet
   facet normal 1 0 0
      outer loop
         vertex -0.092 -0.00544657 -0.00716484
         vertex -0.092 -0.00463998 -0.00771171
         vertex -0.092 -0.00389243 -0.00646927
      endloop
   endfacet
   facet normal 1 0 0
      outer loop
         vertex -0.092 -0.00241073 -0.00715478
         vertex -0.092 -0.00317016 -0.00685219
         vertex -0.092 -0.003779 -0.00816818
      endloop
   endfacet
   facet normal 1 0 0
      outer loop
         vertex -0.092 0.00624905 -0.00423696
         vertex -0.092 0.00575432 -0.00488777
         vertex -0.092 0.00685946 -0.00582648
      endloop
   endfacet
   facet normal 1 0 0
      outer loop
         vertex -0.092 2.77383e-18 0.00755
         vertex -0.092 1.10218e-18 0.009
         vertex -0.092 -0.000973071 0.00894724
      endloop
   endfacet
   facet normal 1 0 0
      outer loop
         vertex -0.092 -0.00456907 0.0060105
         vertex -0.092 -0.00389243 0.00646927
         vertex -0.092 -0.00463998 0.00771171
      endloop
   endfacet
   facet normal 1 0 0
      outer loop
         vertex -0.092 -0.00519213 0.00548127
         vertex -0.092 -0.0061893 0.00653396
         vertex -0.092 -0.00685946 0.00582648
      endloop
   endfacet
   facet normal 1 0 0
      outer loop
         vertex -0.092 -0.00753893 0.000408749
         vertex -0.092 -0.00745054 0.00122145
         vertex -0.092 -0.00888144 0.00145604
      endloop
   endfacet
   facet normal 1 0 0
      outer loop
         vertex -0.092 -0.00745054 -0.00122145
         vertex -0.092 -0.00753893 -0.000408749
         vertex -0.092 -0.0089868 -0.00048725
      endloop
   endfacet
   facet normal 1 0 0
      outer loop
         vertex -0.092 -0.0072748 -0.00201984
         vertex -0.092 -0.00867195 -0.00240776
         vertex -0.092 -0.00836079 -0.00333124
      endloop
   endfacet
   facet normal 1 0 0
      outer loop
         vertex -0.092 -0.00836079 -0.00333124
         vertex -0.092 -0.00795161 -0.00421568
         vertex -0.092 -0.00667052 -0.00353648
      endloop
   endfacet
   facet normal 1 0 0
      outer loop
         vertex -0.092 -0.00575432 -0.00488777
         vertex -0.092 -0.00685946 -0.00582648
         vertex -0.092 -0.0061893 -0.00653396
      endloop
   endfacet
   facet normal 1 0 0
      outer loop
         vertex -0.092 -0.00389243 -0.00646927
         vertex -0.092 -0.00463998 -0.00771171
         vertex -0.092 -0.003779 -0.00816818
      endloop
   endfacet
   facet normal 1 0 0
      outer loop
         vertex -0.092 0.003779 -0.00816818
         vertex -0.092 0.00317016 -0.00685219
         vertex -0.092 0.00241073 -0.00715478
      endloop
   endfacet
   facet normal 1 0 0
      outer loop
         vertex -0.092 0.003779 -0.00816818
         vertex -0.092 0.00463998 -0.00771171
         vertex -0.092 0.00389243 -0.00646927
      endloop
   endfacet
   facet normal 1 0 0
      outer loop
         vertex -0.092 0.00162303 0.00737349
         vertex -0.092 0.00193473 0.00878959
         vertex -0.092 0.000973071 0.00894724
      endloop
   endfacet
   facet normal 1 0 0
      outer loop
         vertex -0.092 -0.00456907 0.0060105
         vertex -0.092 -0.00544657 0.00716484
         vertex -0.092 -0.0061893 0.00653396
      endloop
   endfacet
   facet normal 1 0 0
      outer loop
         vertex -0.092 -0.00753893 -0.000408749
         vertex -0.092 -0.00753893 0.000408749
         vertex -0.092 -0.0089868 0.00048725
      endloop
   endfacet
   facet normal 1 0 0
      outer loop
         vertex -0.092 -0.00667052 -0.00353648
         vertex -0.092 -0.00701377 -0.00279454
         vertex -0.092 -0.00836079 -0.00333124
      endloop
   endfacet
   facet normal 1 0 0
      outer loop
         vertex -0.092 -0.00795161 -0.00421568
         vertex -0.092 -0.0074492 -0.00505068
         vertex -0.092 -0.00624905 -0.00423696
      endloop
   endfacet
   facet normal 1 0 0
      outer loop
         vertex -0.092 -0.00389243 -0.00646927
         vertex -0.092 -0.00456907 -0.0060105
         vertex -0.092 -0.00544657 -0.00716484
      endloop
   endfacet
   facet normal 1 0 0
      outer loop
         vertex -0.092 0.00389243 -0.00646927
         vertex -0.092 0.00317016 -0.00685219
         vertex -0.092 0.003779 -0.00816818
      endloop
   endfacet
   facet normal 1 0 0
      outer loop
         vertex -0.092 -0.00241073 0.00715478
         vertex -0.092 -0.00287371 0.00852888
         vertex -0.092 -0.003779 0.00816818
      endloop
   endfacet
   facet normal 1 0 0
      outer loop
         vertex -0.092 -0.00745054 -0.00122145
         vertex -0.092 -0.00888144 -0.00145604
         vertex -0.092 -0.00867195 -0.00240776
      endloop
   endfacet
   facet normal 1 0 0
      outer loop
         vertex -0.092 -0.00624905 -0.00423696
         vertex -0.092 -0.0074492 -0.00505068
         vertex -0.092 -0.00685946 -0.00582648
      endloop
   endfacet
   facet normal 1 0 0
      outer loop
         vertex -0.092 -0.000973071 -0.00894724
         vertex -0.092 -0.000816299 -0.00750574
         vertex -0.092 -0.00162303 -0.00737349
      endloop
   endfacet
   facet normal 1 0 0
      outer loop
         vertex -0.092 -0.000973071 -0.00894724
         vertex -0.092 0 -0.009
         vertex -0.092 0 -0.00755
      endloop
   endfacet
   facet normal 1 0 0
      outer loop
         vertex -0.092 0.000973071 -0.00894724
         vertex -0.092 0.00193473 -0.00878959
         vertex -0.092 0.00162303 -0.00737349
      endloop
   endfacet
   facet normal 1 0 0
      outer loop
         vertex -0.092 0.00193473 -0.00878959
         vertex -0.092 0.00287371 -0.00852888
         vertex -0.092 0.00241073 -0.00715478
      endloop
   endfacet
   facet normal 1 0 0
      outer loop
         vertex -0.092 0.00389243 -0.00646927
         vertex -0.092 0.00463998 -0.00771171
         vertex -0.092 0.00544657 -0.00716484
      endloop
   endfacet
   facet normal 1 0 0
      outer loop
         vertex -0.092 -0.00624905 -0.00423696
         vertex -0.092 -0.00667052 -0.00353648
         vertex -0.092 -0.00795161 -0.00421568
      endloop
   endfacet
   facet normal 1 0 0
      outer loop
         vertex -0.092 -0.00193473 -0.00878959
         vertex -0.092 -0.00162303 -0.00737349
         vertex -0.092 -0.00241073 -0.00715478
      endloop
   endfacet
   facet normal 1 0 0
      outer loop
         vertex -0.092 0 -0.00755
         vertex -0.092 -0.000816299 -0.00750574
         vertex -0.092 -0.000973071 -0.00894724
      endloop
   endfacet
   facet normal 1 0 0
      outer loop
         vertex -0.092 0.000973071 -0.00894724
         vertex -0.092 0.000816299 -0.00750574
         vertex -0.092 0 -0.00755
      endloop
   endfacet
   facet normal 1 0 0
      outer loop
         vertex -0.092 0.00241073 -0.00715478
         vertex -0.092 0.00162303 -0.00737349
         vertex -0.092 0.00193473 -0.00878959
      endloop
   endfacet
   facet normal 1 0 0
      outer loop
         vertex -0.092 -0.0072748 0.00201984
         vertex -0.092 -0.00867195 0.00240776
         vertex -0.092 -0.00888144 0.00145604
      endloop
   endfacet
   facet normal 1 0 0
      outer loop
         vertex -0.092 -0.00162303 -0.00737349
         vertex -0.092 -0.00193473 -0.00878959
         vertex -0.092 -0.000973071 -0.00894724
      endloop
   endfacet
   facet normal 1 0 0
      outer loop
         vertex -0.092 0.00162303 -0.00737349
         vertex -0.092 0.000816299 -0.00750574
         vertex -0.092 0.000973071 -0.00894724
      endloop
   endfacet
   facet normal 1 0 0
      outer loop
         vertex -0.092 -0.00241073 -0.00715478
         vertex -0.092 -0.00287371 -0.00852888
         vertex -0.092 -0.00193473 -0.00878959
      endloop
   endfacet
   facet normal 1 0 0
      outer loop
         vertex -0.092 0.00241073 -0.00715478
         vertex -0.092 0.00287371 -0.00852888
         vertex -0.092 0.003779 -0.00816818
      endloop
   endfacet
   facet normal 1 0 0
      outer loop
         vertex -0.092 0 -0.00755
         vertex -0.092 0 -0.009
         vertex -0.092 0.000973071 -0.00894724
      endloop
   endfacet
endsolid S Pivot Spacer. Units = meters