solid Smol Shim. STL generated by ONSHAPE BY PTC INC, 1.216. Units = meters
   facet normal -0.994138 -2.29941e-16 0.108119
      outer loop
         vertex -0.221499 0.03 0.0410648
         vertex -0.221475 0.03 0.0415
         vertex -0.221475 0.0304 0.0415
      endloop
   endfacet
   facet normal -0.976621 -2.25889e-16 0.21497
      outer loop
         vertex -0.221569 0.03 0.0406347
         vertex -0.221499 0.03 0.0410648
         vertex -0.221499 0.0304 0.0410648
      endloop
   endfacet
   facet normal -0.947653 -2.19189e-16 0.319302
      outer loop
         vertex -0.221686 0.03 0.0402148
         vertex -0.221569 0.03 0.0406347
         vertex -0.221569 0.0304 0.0406347
      endloop
   endfacet
   facet normal -0.907575 -2.09919e-16 0.419889
      outer loop
         vertex -0.221847 0.03 0.0398099
         vertex -0.221686 0.03 0.0402148
         vertex -0.221686 0.0304 0.0402148
      endloop
   endfacet
   facet normal -0.856857 -1.98188e-16 0.515554
      outer loop
         vertex -0.222051 0.03 0.0394249
         vertex -0.221847 0.03 0.0398099
         vertex -0.221847 0.0304 0.0398099
      endloop
   endfacet
   facet normal -0.796093 -1.84134e-16 0.605174
      outer loop
         vertex -0.222296 0.03 0.0390642
         vertex -0.222051 0.03 0.0394249
         vertex -0.222051 0.0304 0.0394249
      endloop
   endfacet
   facet normal -0.725995 -1.6792e-16 0.687699
      outer loop
         vertex -0.222578 0.03 0.038732
         vertex -0.222296 0.03 0.0390642
         vertex -0.222296 0.0304 0.0390642
      endloop
   endfacet
   facet normal -0.647386 -1.49738e-16 0.762162
      outer loop
         vertex -0.222894 0.03 0.0384323
         vertex -0.222578 0.03 0.038732
         vertex -0.222578 0.0304 0.038732
      endloop
   endfacet
   facet normal -0.561187 -1.29801e-16 0.827689
      outer loop
         vertex -0.223241 0.03 0.0381686
         vertex -0.222894 0.03 0.0384323
         vertex -0.222894 0.0304 0.0384323
      endloop
   endfacet
   facet normal -0.468408 -1.08341e-16 0.883512
      outer loop
         vertex -0.223615 0.03 0.0379439
         vertex -0.223241 0.03 0.0381686
         vertex -0.223241 0.0304 0.0381686
      endloop
   endfacet
   facet normal -0.370138 -8.56116e-17 0.928977
      outer loop
         vertex -0.22401 0.03 0.0377609
         vertex -0.223615 0.03 0.0379439
         vertex -0.223615 0.0304 0.0379439
      endloop
   endfacet
   facet normal -0.267528 -6.18784e-17 0.96355
      outer loop
         vertex -0.224423 0.03 0.0376217
         vertex -0.22401 0.03 0.0377609
         vertex -0.22401 0.0304 0.0377609
      endloop
   endfacet
   facet normal -0.161782 -3.74196e-17 0.986827
      outer loop
         vertex -0.224849 0.03 0.037528
         vertex -0.224423 0.03 0.0376217
         vertex -0.224423 0.0304 0.0376217
      endloop
   endfacet
   facet normal -0.0541389 -1.25221e-17 0.998533
      outer loop
         vertex -0.225282 0.03 0.0374809
         vertex -0.224849 0.03 0.037528
         vertex -0.224849 0.0304 0.037528
      endloop
   endfacet
   facet normal 0.0541389 1.25221e-17 0.998533
      outer loop
         vertex -0.225718 0.03 0.0374809
         vertex -0.225282 0.03 0.0374809
         vertex -0.225282 0.0304 0.0374809
      endloop
   endfacet
   facet normal 0.161782 3.74196e-17 0.986827
      outer loop
         vertex -0.226151 0.03 0.037528
         vertex -0.225718 0.03 0.0374809
         vertex -0.225718 0.0304 0.0374809
      endloop
   endfacet
   facet normal 0.267528 6.18784e-17 0.96355
      outer loop
         vertex -0.226577 0.03 0.0376217
         vertex -0.226151 0.03 0.037528
         vertex -0.226151 0.0304 0.037528
      endloop
   endfacet
   facet normal 0.370138 8.56116e-17 0.928977
      outer loop
         vertex -0.22699 0.03 0.0377609
         vertex -0.226577 0.03 0.0376217
         vertex -0.226577 0.0304 0.0376217
      endloop
   endfacet
   facet normal 0.468408 1.08341e-16 0.883512
      outer loop
         vertex -0.227385 0.03 0.0379439
         vertex -0.22699 0.03 0.0377609
         vertex -0.22699 0.0304 0.0377609
      endloop
   endfacet
   facet normal 0.561187 1.29801e-16 0.827689
      outer loop
         vertex -0.227759 0.03 0.0381686
         vertex -0.227385 0.03 0.0379439
         vertex -0.227385 0.0304 0.0379439
      endloop
   endfacet
   facet normal 0.647386 1.49738e-16 0.762162
      outer loop
         vertex -0.228106 0.03 0.0384323
         vertex -0.227759 0.03 0.0381686
         vertex -0.227759 0.0304 0.0381686
      endloop
   endfacet
   facet normal 0.725995 1.6792e-16 0.687699
      outer loop
         vertex -0.228422 0.03 0.038732
         vertex -0.228106 0.03 0.0384323
         vertex -0.228106 0.0304 0.0384323
      endloop
   endfacet
   facet normal 0.796093 1.84134e-16 0.605174
      outer loop
         vertex -0.228704 0.03 0.0390642
         vertex -0.228422 0.03 0.038732
         vertex -0.228422 0.0304 0.038732
      endloop
   endfacet
   facet normal 0.856857 1.98188e-16 0.515554
      outer loop
         vertex -0.228949 0.03 0.0394249
         vertex -0.228704 0.03 0.0390642
         vertex -0.228704 0.0304 0.0390642
      endloop
   endfacet
   facet normal 0.907575 2.09919e-16 0.419889
      outer loop
         vertex -0.229153 0.03 0.0398099
         vertex -0.228949 0.03 0.0394249
         vertex -0.228949 0.0304 0.0394249
      endloop
   endfacet
   facet normal 0.947653 2.19189e-16 0.319302
      outer loop
         vertex -0.229314 0.03 0.0402148
         vertex -0.229153 0.03 0.0398099
         vertex -0.229153 0.0304 0.0398099
      endloop
   endfacet
   facet normal 0.976621 2.25889e-16 0.21497
      outer loop
         vertex -0.229431 0.03 0.0406347
         vertex -0.229314 0.03 0.0402148
         vertex -0.229314 0.0304 0.0402148
      endloop
   endfacet
   facet normal 0.994138 2.29941e-16 0.108119
      outer loop
         vertex -0.229501 0.03 0.0410648
         vertex -0.229431 0.03 0.0406347
         vertex -0.229431 0.0304 0.0406347
      endloop
   endfacet
   facet normal 1 2.31296e-16 -1.22465e-16
      outer loop
         vertex -0.229525 0.03 0.0415
         vertex -0.229501 0.03 0.0410648
         vertex -0.229501 0.0304 0.0410648
      endloop
   endfacet
   facet normal 0.994138 2.29941e-16 -0.108119
      outer loop
         vertex -0.229501 0.03 0.0419352
         vertex -0.229525 0.03 0.0415
         vertex -0.229525 0.0304 0.0415
      endloop
   endfacet
   facet normal 0.976621 2.25889e-16 -0.21497
      outer loop
         vertex -0.229431 0.03 0.0423653
         vertex -0.229501 0.03 0.0419352
         vertex -0.229501 0.0304 0.0419352
      endloop
   endfacet
   facet normal 0.947653 2.19189e-16 -0.319302
      outer loop
         vertex -0.229314 0.03 0.0427852
         vertex -0.229431 0.03 0.0423653
         vertex -0.229431 0.0304 0.0423653
      endloop
   endfacet
   facet normal 0.907575 2.09919e-16 -0.419889
      outer loop
         vertex -0.229153 0.03 0.0431901
         vertex -0.229314 0.03 0.0427852
         vertex -0.229314 0.0304 0.0427852
      endloop
   endfacet
   facet normal 0.856857 1.98188e-16 -0.515554
      outer loop
         vertex -0.228949 0.03 0.0435751
         vertex -0.229153 0.03 0.0431901
         vertex -0.229153 0.0304 0.0431901
      endloop
   endfacet
   facet normal 0.796093 1.84134e-16 -0.605174
      outer loop
         vertex -0.228704 0.03 0.0439358
         vertex -0.228949 0.03 0.0435751
         vertex -0.228949 0.0304 0.0435751
      endloop
   endfacet
   facet normal 0.725995 1.6792e-16 -0.687699
      outer loop
         vertex -0.228422 0.03 0.044268
         vertex -0.228704 0.03 0.0439358
         vertex -0.228704 0.0304 0.0439358
      endloop
   endfacet
   facet normal 0.647386 1.49738e-16 -0.762162
      outer loop
         vertex -0.228106 0.03 0.0445677
         vertex -0.228422 0.03 0.044268
         vertex -0.228422 0.0304 0.044268
      endloop
   endfacet
   facet normal 0.561187 1.29801e-16 -0.827689
      outer loop
         vertex -0.227759 0.03 0.0448314
         vertex -0.228106 0.03 0.0445677
         vertex -0.228106 0.0304 0.0445677
      endloop
   endfacet
   facet normal 0.468408 1.08341e-16 -0.883512
      outer loop
         vertex -0.227385 0.03 0.0450561
         vertex -0.227759 0.03 0.0448314
         vertex -0.227759 0.0304 0.0448314
      endloop
   endfacet
   facet normal 0.370138 8.56116e-17 -0.928977
      outer loop
         vertex -0.22699 0.03 0.0452391
         vertex -0.227385 0.03 0.0450561
         vertex -0.227385 0.0304 0.0450561
      endloop
   endfacet
   facet normal 0.267528 6.18784e-17 -0.96355
      outer loop
         vertex -0.226577 0.03 0.0453783
         vertex -0.22699 0.03 0.0452391
         vertex -0.22699 0.0304 0.0452391
      endloop
   endfacet
   facet normal 0.161782 3.74196e-17 -0.986827
      outer loop
         vertex -0.226151 0.03 0.045472
         vertex -0.226577 0.03 0.0453783
         vertex -0.226577 0.0304 0.0453783
      endloop
   endfacet
   facet normal 0.0541389 1.25221e-17 -0.998533
      outer loop
         vertex -0.225718 0.03 0.0455191
         vertex -0.226151 0.03 0.045472
         vertex -0.226151 0.0304 0.045472
      endloop
   endfacet
   facet normal -0.0541389 -1.25221e-17 -0.998533
      outer loop
         vertex -0.225282 0.03 0.0455191
         vertex -0.225718 0.03 0.0455191
         vertex -0.225718 0.0304 0.0455191
      endloop
   endfacet
   facet normal -0.161782 -3.74196e-17 -0.986827
      outer loop
         vertex -0.224849 0.03 0.045472
         vertex -0.225282 0.03 0.0455191
         vertex -0.225282 0.0304 0.0455191
      endloop
   endfacet
   facet normal -0.267528 -6.18784e-17 -0.96355
      outer loop
         vertex -0.224423 0.03 0.0453783
         vertex -0.224849 0.03 0.045472
         vertex -0.224849 0.0304 0.045472
      endloop
   endfacet
   facet normal -0.370138 -8.56116e-17 -0.928977
      outer loop
         vertex -0.22401 0.03 0.0452391
         vertex -0.224423 0.03 0.0453783
         vertex -0.224423 0.0304 0.0453783
      endloop
   endfacet
   facet normal -0.468408 -1.08341e-16 -0.883512
      outer loop
         vertex -0.223615 0.03 0.0450561
         vertex -0.22401 0.03 0.0452391
         vertex -0.22401 0.0304 0.0452391
      endloop
   endfacet
   facet normal -0.561187 -1.29801e-16 -0.827689
      outer loop
         vertex -0.223241 0.03 0.0448314
         vertex -0.223615 0.03 0.0450561
         vertex -0.223615 0.0304 0.0450561
      endloop
   endfacet
   facet normal -0.647386 -1.49738e-16 -0.762162
      outer loop
         vertex -0.222894 0.03 0.0445677
         vertex -0.223241 0.03 0.0448314
         vertex -0.223241 0.0304 0.0448314
      endloop
   endfacet
   facet normal -0.725995 -1.6792e-16 -0.687699
      outer loop
         vertex -0.222578 0.03 0.044268
         vertex -0.222894 0.03 0.0445677
         vertex -0.222894 0.0304 0.0445677
      endloop
   endfacet
   facet normal -0.796093 -1.84134e-16 -0.605174
      outer loop
         vertex -0.222296 0.03 0.0439358
         vertex -0.222578 0.03 0.044268
         vertex -0.222578 0.0304 0.044268
      endloop
   endfacet
   facet normal -0.856857 -1.98188e-16 -0.515554
      outer loop
         vertex -0.222051 0.03 0.0435751
         vertex -0.222296 0.03 0.0439358
         vertex -0.222296 0.0304 0.0439358
      endloop
   endfacet
   facet normal -0.907575 -2.09919e-16 -0.419889
      outer loop
         vertex -0.221847 0.03 0.0431901
         vertex -0.222051 0.03 0.0435751
         vertex -0.222051 0.0304 0.0435751
      endloop
   endfacet
   facet normal -0.947653 -2.19189e-16 -0.319302
      outer loop
         vertex -0.221686 0.03 0.0427852
         vertex -0.221847 0.03 0.0431901
         vertex -0.221847 0.0304 0.0431901
      endloop
   endfacet
   facet normal -0.976621 -2.25889e-16 -0.21497
      outer loop
         vertex -0.221569 0.03 0.0423653
         vertex -0.221686 0.03 0.0427852
         vertex -0.221686 0.0304 0.0427852
      endloop
   endfacet
   facet normal -0.994138 -2.29941e-16 -0.108119
      outer loop
         vertex -0.221499 0.03 0.0419352
         vertex -0.221569 0.03 0.0423653
         vertex -0.221569 0.0304 0.0423653
      endloop
   endfacet
   facet normal -1 -2.31296e-16 2.44929e-16
      outer loop
         vertex -0.221475 0.03 0.0415
         vertex -0.221499 0.03 0.0419352
         vertex -0.221499 0.0304 0.0419352
      endloop
   endfacet
   facet normal -0.994138 -2.29941e-16 -0.108119
      outer loop
         vertex -0.221499 0.0304 0.0419352
         vertex -0.221475 0.0304 0.0415
         vertex -0.221475 0.03 0.0415
      endloop
   endfacet
   facet normal -0.976621 -2.25889e-16 -0.21497
      outer loop
         vertex -0.221569 0.0304 0.0423653
         vertex -0.221499 0.0304 0.0419352
         vertex -0.221499 0.03 0.0419352
      endloop
   endfacet
   facet normal -0.947653 -2.19189e-16 -0.319302
      outer loop
         vertex -0.221686 0.0304 0.0427852
         vertex -0.221569 0.0304 0.0423653
         vertex -0.221569 0.03 0.0423653
      endloop
   endfacet
   facet normal -0.907575 -2.09919e-16 -0.419889
      outer loop
         vertex -0.221847 0.0304 0.0431901
         vertex -0.221686 0.0304 0.0427852
         vertex -0.221686 0.03 0.0427852
      endloop
   endfacet
   facet normal -0.856857 -1.98188e-16 -0.515554
      outer loop
         vertex -0.222051 0.0304 0.0435751
         vertex -0.221847 0.0304 0.0431901
         vertex -0.221847 0.03 0.0431901
      endloop
   endfacet
   facet normal -0.796093 -1.84134e-16 -0.605174
      outer loop
         vertex -0.222296 0.0304 0.0439358
         vertex -0.222051 0.0304 0.0435751
         vertex -0.222051 0.03 0.0435751
      endloop
   endfacet
   facet normal -0.725995 -1.6792e-16 -0.687699
      outer loop
         vertex -0.222578 0.0304 0.044268
         vertex -0.222296 0.0304 0.0439358
         vertex -0.222296 0.03 0.0439358
      endloop
   endfacet
   facet normal -0.647386 -1.49738e-16 -0.762162
      outer loop
         vertex -0.222894 0.0304 0.0445677
         vertex -0.222578 0.0304 0.044268
         vertex -0.222578 0.03 0.044268
      endloop
   endfacet
   facet normal -0.561187 -1.29801e-16 -0.827689
      outer loop
         vertex -0.223241 0.0304 0.0448314
         vertex -0.222894 0.0304 0.0445677
         vertex -0.222894 0.03 0.0445677
      endloop
   endfacet
   facet normal -0.468408 -1.08341e-16 -0.883512
      outer loop
         vertex -0.223615 0.0304 0.0450561
         vertex -0.223241 0.0304 0.0448314
         vertex -0.223241 0.03 0.0448314
      endloop
   endfacet
   facet normal -0.370138 -8.56116e-17 -0.928977
      outer loop
         vertex -0.22401 0.0304 0.0452391
         vertex -0.223615 0.0304 0.0450561
         vertex -0.223615 0.03 0.0450561
      endloop
   endfacet
   facet normal -0.267528 -6.18784e-17 -0.96355
      outer loop
         vertex -0.224423 0.0304 0.0453783
         vertex -0.22401 0.0304 0.0452391
         vertex -0.22401 0.03 0.0452391
      endloop
   endfacet
   facet normal -0.161782 -3.74196e-17 -0.986827
      outer loop
         vertex -0.224849 0.0304 0.045472
         vertex -0.224423 0.0304 0.0453783
         vertex -0.224423 0.03 0.0453783
      endloop
   endfacet
   facet normal -0.0541389 -1.25221e-17 -0.998533
      outer loop
         vertex -0.225282 0.0304 0.0455191
         vertex -0.224849 0.0304 0.045472
         vertex -0.224849 0.03 0.045472
      endloop
   endfacet
   facet normal 0.0541389 1.25221e-17 -0.998533
      outer loop
         vertex -0.225718 0.0304 0.0455191
         vertex -0.225282 0.0304 0.0455191
         vertex -0.225282 0.03 0.0455191
      endloop
   endfacet
   facet normal 0.161782 3.74196e-17 -0.986827
      outer loop
         vertex -0.226151 0.0304 0.045472
         vertex -0.225718 0.0304 0.0455191
         vertex -0.225718 0.03 0.0455191
      endloop
   endfacet
   facet normal 0.267528 6.18784e-17 -0.96355
      outer loop
         vertex -0.226577 0.0304 0.0453783
         vertex -0.226151 0.0304 0.045472
         vertex -0.226151 0.03 0.045472
      endloop
   endfacet
   facet normal 0.370138 8.56116e-17 -0.928977
      outer loop
         vertex -0.22699 0.0304 0.0452391
         vertex -0.226577 0.0304 0.0453783
         vertex -0.226577 0.03 0.0453783
      endloop
   endfacet
   facet normal 0.468408 1.08341e-16 -0.883512
      outer loop
         vertex -0.227385 0.0304 0.0450561
         vertex -0.22699 0.0304 0.0452391
         vertex -0.22699 0.03 0.0452391
      endloop
   endfacet
   facet normal 0.561187 1.29801e-16 -0.827689
      outer loop
         vertex -0.227759 0.0304 0.0448314
         vertex -0.227385 0.0304 0.0450561
         vertex -0.227385 0.03 0.0450561
      endloop
   endfacet
   facet normal 0.647386 1.49738e-16 -0.762162
      outer loop
         vertex -0.228106 0.0304 0.0445677
         vertex -0.227759 0.0304 0.0448314
         vertex -0.227759 0.03 0.0448314
      endloop
   endfacet
   facet normal 0.725995 1.6792e-16 -0.687699
      outer loop
         vertex -0.228422 0.0304 0.044268
         vertex -0.228106 0.0304 0.0445677
         vertex -0.228106 0.03 0.0445677
      endloop
   endfacet
   facet normal 0.796093 1.84134e-16 -0.605174
      outer loop
         vertex -0.228704 0.0304 0.0439358
         vertex -0.228422 0.0304 0.044268
         vertex -0.228422 0.03 0.044268
      endloop
   endfacet
   facet normal 0.856857 1.98188e-16 -0.515554
      outer loop
         vertex -0.228949 0.0304 0.0435751
         vertex -0.228704 0.0304 0.0439358
         vertex -0.228704 0.03 0.0439358
      endloop
   endfacet
   facet normal 0.907575 2.09919e-16 -0.419889
      outer loop
         vertex -0.229153 0.0304 0.0431901
         vertex -0.228949 0.0304 0.0435751
         vertex -0.228949 0.03 0.0435751
      endloop
   endfacet
   facet normal 0.947653 2.19189e-16 -0.319302
      outer loop
         vertex -0.229314 0.0304 0.0427852
         vertex -0.229153 0.0304 0.0431901
         vertex -0.229153 0.03 0.0431901
      endloop
   endfacet
   facet normal 0.976621 2.25889e-16 -0.21497
      outer loop
         vertex -0.229431 0.0304 0.0423653
         vertex -0.229314 0.0304 0.0427852
         vertex -0.229314 0.03 0.0427852
      endloop
   endfacet
   facet normal 0.994138 2.29941e-16 -0.108119
      outer loop
         vertex -0.229501 0.0304 0.0419352
         vertex -0.229431 0.0304 0.0423653
         vertex -0.229431 0.03 0.0423653
      endloop
   endfacet
   facet normal 1 2.31296e-16 -1.22465e-16
      outer loop
         vertex -0.229525 0.0304 0.0415
         vertex -0.229501 0.0304 0.0419352
         vertex -0.229501 0.03 0.0419352
      endloop
   endfacet
   facet normal 0.994138 2.29941e-16 0.108119
      outer loop
         vertex -0.229501 0.0304 0.0410648
         vertex -0.229525 0.0304 0.0415
         vertex -0.229525 0.03 0.0415
      endloop
   endfacet
   facet normal 0.976621 2.25889e-16 0.21497
      outer loop
         vertex -0.229431 0.0304 0.0406347
         vertex -0.229501 0.0304 0.0410648
         vertex -0.229501 0.03 0.0410648
      endloop
   endfacet
   facet normal 0.947653 2.19189e-16 0.319302
      outer loop
         vertex -0.229314 0.0304 0.0402148
         vertex -0.229431 0.0304 0.0406347
         vertex -0.229431 0.03 0.0406347
      endloop
   endfacet
   facet normal 0.907575 2.09919e-16 0.419889
      outer loop
         vertex -0.229153 0.0304 0.0398099
         vertex -0.229314 0.0304 0.0402148
         vertex -0.229314 0.03 0.0402148
      endloop
   endfacet
   facet normal 0.856857 1.98188e-16 0.515554
      outer loop
         vertex -0.228949 0.0304 0.0394249
         vertex -0.229153 0.0304 0.0398099
         vertex -0.229153 0.03 0.0398099
      endloop
   endfacet
   facet normal 0.796093 1.84134e-16 0.605174
      outer loop
         vertex -0.228704 0.0304 0.0390642
         vertex -0.228949 0.0304 0.0394249
         vertex -0.228949 0.03 0.0394249
      endloop
   endfacet
   facet normal 0.725995 1.6792e-16 0.687699
      outer loop
         vertex -0.228422 0.0304 0.038732
         vertex -0.228704 0.0304 0.0390642
         vertex -0.228704 0.03 0.0390642
      endloop
   endfacet
   facet normal 0.647386 1.49738e-16 0.762162
      outer loop
         vertex -0.228106 0.0304 0.0384323
         vertex -0.228422 0.0304 0.038732
         vertex -0.228422 0.03 0.038732
      endloop
   endfacet
   facet normal 0.561187 1.29801e-16 0.827689
      outer loop
         vertex -0.227759 0.0304 0.0381686
         vertex -0.228106 0.0304 0.0384323
         vertex -0.228106 0.03 0.0384323
      endloop
   endfacet
   facet normal 0.468408 1.08341e-16 0.883512
      outer loop
         vertex -0.227385 0.0304 0.0379439
         vertex -0.227759 0.0304 0.0381686
         vertex -0.227759 0.03 0.0381686
      endloop
   endfacet
   facet normal 0.370138 8.56116e-17 0.928977
      outer loop
         vertex -0.22699 0.0304 0.0377609
         vertex -0.227385 0.0304 0.0379439
         vertex -0.227385 0.03 0.0379439
      endloop
   endfacet
   facet normal 0.267528 6.18784e-17 0.96355
      outer loop
         vertex -0.226577 0.0304 0.0376217
         vertex -0.22699 0.0304 0.0377609
         vertex -0.22699 0.03 0.0377609
      endloop
   endfacet
   facet normal 0.161782 3.74196e-17 0.986827
      outer loop
         vertex -0.226151 0.0304 0.037528
         vertex -0.226577 0.0304 0.0376217
         vertex -0.226577 0.03 0.0376217
      endloop
   endfacet
   facet normal 0.0541389 1.25221e-17 0.998533
      outer loop
         vertex -0.225718 0.0304 0.0374809
         vertex -0.226151 0.0304 0.037528
         vertex -0.226151 0.03 0.037528
      endloop
   endfacet
   facet normal -0.0541389 -1.25221e-17 0.998533
      outer loop
         vertex -0.225282 0.0304 0.0374809
         vertex -0.225718 0.0304 0.0374809
         vertex -0.225718 0.03 0.0374809
      endloop
   endfacet
   facet normal -0.161782 -3.74196e-17 0.986827
      outer loop
         vertex -0.224849 0.0304 0.037528
         vertex -0.225282 0.0304 0.0374809
         vertex -0.225282 0.03 0.0374809
      endloop
   endfacet
   facet normal -0.267528 -6.18784e-17 0.96355
      outer loop
         vertex -0.224423 0.0304 0.0376217
         vertex -0.224849 0.0304 0.037528
         vertex -0.224849 0.03 0.037528
      endloop
   endfacet
   facet normal -0.370138 -8.56116e-17 0.928977
      outer loop
         vertex -0.22401 0.0304 0.0377609
         vertex -0.224423 0.0304 0.0376217
         vertex -0.224423 0.03 0.0376217
      endloop
   endfacet
   facet normal -0.468408 -1.08341e-16 0.883512
      outer loop
         vertex -0.223615 0.0304 0.0379439
         vertex -0.22401 0.0304 0.0377609
         vertex -0.22401 0.03 0.0377609
      endloop
   endfacet
   facet normal -0.561187 -1.29801e-16 0.827689
      outer loop
         vertex -0.223241 0.0304 0.0381686
         vertex -0.223615 0.0304 0.0379439
         vertex -0.223615 0.03 0.0379439
      endloop
   endfacet
   facet normal -0.647386 -1.49738e-16 0.762162
      outer loop
         vertex -0.222894 0.0304 0.0384323
         vertex -0.223241 0.0304 0.0381686
         vertex -0.223241 0.03 0.0381686
      endloop
   endfacet
   facet normal -0.725995 -1.6792e-16 0.687699
      outer loop
         vertex -0.222578 0.0304 0.038732
         vertex -0.222894 0.0304 0.0384323
         vertex -0.222894 0.03 0.0384323
      endloop
   endfacet
   facet normal -0.796093 -1.84134e-16 0.605174
      outer loop
         vertex -0.222296 0.0304 0.0390642
         vertex -0.222578 0.0304 0.038732
         vertex -0.222578 0.03 0.038732
      endloop
   endfacet
   facet normal -0.856857 -1.98188e-16 0.515554
      outer loop
         vertex -0.222051 0.0304 0.0394249
         vertex -0.222296 0.0304 0.0390642
         vertex -0.222296 0.03 0.0390642
      endloop
   endfacet
   facet normal -0.907575 -2.09919e-16 0.419889
      outer loop
         vertex -0.221847 0.0304 0.0398099
         vertex -0.222051 0.0304 0.0394249
         vertex -0.222051 0.03 0.0394249
      endloop
   endfacet
   facet normal -0.947653 -2.19189e-16 0.319302
      outer loop
         vertex -0.221686 0.0304 0.0402148
         vertex -0.221847 0.0304 0.0398099
         vertex -0.221847 0.03 0.0398099
      endloop
   endfacet
   facet normal -0.976621 -2.25889e-16 0.21497
      outer loop
         vertex -0.221569 0.0304 0.0406347
         vertex -0.221686 0.0304 0.0402148
         vertex -0.221686 0.03 0.0402148
      endloop
   endfacet
   facet normal -0.994138 -2.29941e-16 0.108119
      outer loop
         vertex -0.221499 0.0304 0.0410648
         vertex -0.221569 0.0304 0.0406347
         vertex -0.221569 0.03 0.0406347
      endloop
   endfacet
   facet normal -1 -2.31296e-16 2.44929e-16
      outer loop
         vertex -0.221475 0.0304 0.0415
         vertex -0.221499 0.0304 0.0410648
         vertex -0.221499 0.03 0.0410648
      endloop
   endfacet
   facet normal -2.31296e-16 1 0
      outer loop
         vertex -0.227721 0.0304 0.0470739
         vertex -0.22699 0.0304 0.0452391
         vertex -0.227385 0.0304 0.0450561
      endloop
   endfacet
   facet normal -2.31296e-16 1 0
      outer loop
         vertex -0.227105 0.0304 0.0472813
         vertex -0.226577 0.0304 0.0453783
         vertex -0.22699 0.0304 0.0452391
      endloop
   endfacet
   facet normal -2.31296e-16 1 0
      outer loop
         vertex -0.22831 0.0304 0.0468011
         vertex -0.227385 0.0304 0.0450561
         vertex -0.227759 0.0304 0.0448314
      endloop
   endfacet
   facet normal -2.31296e-16 1 0
      outer loop
         vertex -0.22699 0.0304 0.0452391
         vertex -0.227721 0.0304 0.0470739
         vertex -0.227105 0.0304 0.0472813
      endloop
   endfacet
   facet normal -2.31296e-16 1 0
      outer loop
         vertex -0.226471 0.0304 0.047421
         vertex -0.226151 0.0304 0.045472
         vertex -0.226577 0.0304 0.0453783
      endloop
   endfacet
   facet normal -2.31296e-16 1 0
      outer loop
         vertex -0.225825 0.0304 0.0474912
         vertex -0.225718 0.0304 0.0455191
         vertex -0.226151 0.0304 0.045472
      endloop
   endfacet
   facet normal -2.31296e-16 1 0
      outer loop
         vertex -0.223895 0.0304 0.0472813
         vertex -0.223279 0.0304 0.0470739
         vertex -0.22401 0.0304 0.0452391
      endloop
   endfacet
   facet normal -2.31296e-16 1 0
      outer loop
         vertex -0.223279 0.0304 0.0470739
         vertex -0.22269 0.0304 0.0468011
         vertex -0.223615 0.0304 0.0450561
      endloop
   endfacet
   facet normal -2.31296e-16 1 0
      outer loop
         vertex -0.227385 0.0304 0.0450561
         vertex -0.22831 0.0304 0.0468011
         vertex -0.227721 0.0304 0.0470739
      endloop
   endfacet
   facet normal -2.31296e-16 1 0
      outer loop
         vertex -0.226151 0.0304 0.045472
         vertex -0.226471 0.0304 0.047421
         vertex -0.225825 0.0304 0.0474912
      endloop
   endfacet
   facet normal -2.31296e-16 1 0
      outer loop
         vertex -0.225175 0.0304 0.0474912
         vertex -0.224529 0.0304 0.047421
         vertex -0.224849 0.0304 0.045472
      endloop
   endfacet
   facet normal -2.31296e-16 1 0
      outer loop
         vertex -0.224529 0.0304 0.047421
         vertex -0.223895 0.0304 0.0472813
         vertex -0.224423 0.0304 0.0453783
      endloop
   endfacet
   facet normal -2.31296e-16 1 0
      outer loop
         vertex -0.223615 0.0304 0.0450561
         vertex -0.22401 0.0304 0.0452391
         vertex -0.223279 0.0304 0.0470739
      endloop
   endfacet
   facet normal -2.31296e-16 1 0
      outer loop
         vertex -0.22269 0.0304 0.0468011
         vertex -0.222133 0.0304 0.0464661
         vertex -0.223241 0.0304 0.0448314
      endloop
   endfacet
   facet normal -2.31296e-16 1 0
      outer loop
         vertex -0.223895 0.0304 0.0357187
         vertex -0.224423 0.0304 0.0376217
         vertex -0.22401 0.0304 0.0377609
      endloop
   endfacet
   facet normal -2.31296e-16 1 0
      outer loop
         vertex -0.224529 0.0304 0.035579
         vertex -0.224849 0.0304 0.037528
         vertex -0.224423 0.0304 0.0376217
      endloop
   endfacet
   facet normal -2.31296e-16 1 0
      outer loop
         vertex -0.230945 0.0304 0.0440193
         vertex -0.229153 0.0304 0.0431901
         vertex -0.229314 0.0304 0.0427852
      endloop
   endfacet
   facet normal -2.31296e-16 1 0
      outer loop
         vertex -0.230945 0.0304 0.0440193
         vertex -0.230641 0.0304 0.0445933
         vertex -0.228949 0.0304 0.0435751
      endloop
   endfacet
   facet normal -2.31296e-16 1 0
      outer loop
         vertex -0.230277 0.0304 0.045131
         vertex -0.228704 0.0304 0.0439358
         vertex -0.228949 0.0304 0.0435751
      endloop
   endfacet
   facet normal -2.31296e-16 1 0
      outer loop
         vertex -0.230277 0.0304 0.045131
         vertex -0.229856 0.0304 0.0456262
         vertex -0.228422 0.0304 0.044268
      endloop
   endfacet
   facet normal -2.31296e-16 1 0
      outer loop
         vertex -0.229384 0.0304 0.046073
         vertex -0.228106 0.0304 0.0445677
         vertex -0.228422 0.0304 0.044268
      endloop
   endfacet
   facet normal -2.31296e-16 1 0
      outer loop
         vertex -0.229384 0.0304 0.046073
         vertex -0.228867 0.0304 0.0464661
         vertex -0.227759 0.0304 0.0448314
      endloop
   endfacet
   facet normal -2.31296e-16 1 0
      outer loop
         vertex -0.226577 0.0304 0.0453783
         vertex -0.227105 0.0304 0.0472813
         vertex -0.226471 0.0304 0.047421
      endloop
   endfacet
   facet normal -2.31296e-16 1 0
      outer loop
         vertex -0.225825 0.0304 0.0474912
         vertex -0.225175 0.0304 0.0474912
         vertex -0.225282 0.0304 0.0455191
      endloop
   endfacet
   facet normal -2.31296e-16 1 0
      outer loop
         vertex -0.224423 0.0304 0.0453783
         vertex -0.224849 0.0304 0.045472
         vertex -0.224529 0.0304 0.047421
      endloop
   endfacet
   facet normal -2.31296e-16 1 0
      outer loop
         vertex -0.223241 0.0304 0.0448314
         vertex -0.223615 0.0304 0.0450561
         vertex -0.22269 0.0304 0.0468011
      endloop
   endfacet
   facet normal -2.31296e-16 1 0
      outer loop
         vertex -0.220055 0.0304 0.0440193
         vertex -0.221847 0.0304 0.0431901
         vertex -0.222051 0.0304 0.0435751
      endloop
   endfacet
   facet normal -2.31296e-16 1 0
      outer loop
         vertex -0.220055 0.0304 0.0440193
         vertex -0.219814 0.0304 0.0434158
         vertex -0.221686 0.0304 0.0427852
      endloop
   endfacet
   facet normal -2.31296e-16 1 0
      outer loop
         vertex -0.224423 0.0304 0.0376217
         vertex -0.223895 0.0304 0.0357187
         vertex -0.224529 0.0304 0.035579
      endloop
   endfacet
   facet normal -2.31296e-16 1 0
      outer loop
         vertex -0.225175 0.0304 0.0355088
         vertex -0.225282 0.0304 0.0374809
         vertex -0.224849 0.0304 0.037528
      endloop
   endfacet
   facet normal -2.31296e-16 1 0
      outer loop
         vertex -0.226471 0.0304 0.035579
         vertex -0.226151 0.0304 0.037528
         vertex -0.225718 0.0304 0.0374809
      endloop
   endfacet
   facet normal -2.31296e-16 1 0
      outer loop
         vertex -0.226471 0.0304 0.035579
         vertex -0.227105 0.0304 0.0357187
         vertex -0.226577 0.0304 0.0376217
      endloop
   endfacet
   facet normal -2.31296e-16 1 0
      outer loop
         vertex -0.227105 0.0304 0.0357187
         vertex -0.227721 0.0304 0.0359261
         vertex -0.22699 0.0304 0.0377609
      endloop
   endfacet
   facet normal -2.31296e-16 1 0
      outer loop
         vertex -0.227721 0.0304 0.0359261
         vertex -0.22831 0.0304 0.0361989
         vertex -0.227385 0.0304 0.0379439
      endloop
   endfacet
   facet normal -2.31296e-16 1 0
      outer loop
         vertex -0.231186 0.0304 0.0434158
         vertex -0.229314 0.0304 0.0427852
         vertex -0.229431 0.0304 0.0423653
      endloop
   endfacet
   facet normal -2.31296e-16 1 0
      outer loop
         vertex -0.228949 0.0304 0.0435751
         vertex -0.229153 0.0304 0.0431901
         vertex -0.230945 0.0304 0.0440193
      endloop
   endfacet
   facet normal -2.31296e-16 1 0
      outer loop
         vertex -0.228422 0.0304 0.044268
         vertex -0.228704 0.0304 0.0439358
         vertex -0.230277 0.0304 0.045131
      endloop
   endfacet
   facet normal -2.31296e-16 1 0
      outer loop
         vertex -0.227759 0.0304 0.0448314
         vertex -0.228106 0.0304 0.0445677
         vertex -0.229384 0.0304 0.046073
      endloop
   endfacet
   facet normal -2.31296e-16 1 0
      outer loop
         vertex -0.225282 0.0304 0.0455191
         vertex -0.225718 0.0304 0.0455191
         vertex -0.225825 0.0304 0.0474912
      endloop
   endfacet
   facet normal -2.31296e-16 1 0
      outer loop
         vertex -0.22401 0.0304 0.0452391
         vertex -0.224423 0.0304 0.0453783
         vertex -0.223895 0.0304 0.0472813
      endloop
   endfacet
   facet normal -2.31296e-16 1 0
      outer loop
         vertex -0.221616 0.0304 0.046073
         vertex -0.222894 0.0304 0.0445677
         vertex -0.223241 0.0304 0.0448314
      endloop
   endfacet
   facet normal -2.31296e-16 1 0
      outer loop
         vertex -0.221616 0.0304 0.046073
         vertex -0.221144 0.0304 0.0456262
         vertex -0.222578 0.0304 0.044268
      endloop
   endfacet
   facet normal -2.31296e-16 1 0
      outer loop
         vertex -0.220723 0.0304 0.045131
         vertex -0.222296 0.0304 0.0439358
         vertex -0.222578 0.0304 0.044268
      endloop
   endfacet
   facet normal -2.31296e-16 1 0
      outer loop
         vertex -0.220723 0.0304 0.045131
         vertex -0.220359 0.0304 0.0445933
         vertex -0.222051 0.0304 0.0435751
      endloop
   endfacet
   facet normal -2.31296e-16 1 0
      outer loop
         vertex -0.221686 0.0304 0.0427852
         vertex -0.221847 0.0304 0.0431901
         vertex -0.220055 0.0304 0.0440193
      endloop
   endfacet
   facet normal -2.31296e-16 1 0
      outer loop
         vertex -0.219814 0.0304 0.0434158
         vertex -0.21964 0.0304 0.0427898
         vertex -0.221569 0.0304 0.0423653
      endloop
   endfacet
   facet normal -2.31296e-16 1 0
      outer loop
         vertex -0.220055 0.0304 0.0389807
         vertex -0.221847 0.0304 0.0398099
         vertex -0.221686 0.0304 0.0402148
      endloop
   endfacet
   facet normal -2.31296e-16 1 0
      outer loop
         vertex -0.220055 0.0304 0.0389807
         vertex -0.220359 0.0304 0.0384067
         vertex -0.222051 0.0304 0.0394249
      endloop
   endfacet
   facet normal -2.31296e-16 1 0
      outer loop
         vertex -0.220723 0.0304 0.037869
         vertex -0.222296 0.0304 0.0390642
         vertex -0.222051 0.0304 0.0394249
      endloop
   endfacet
   facet normal -2.31296e-16 1 0
      outer loop
         vertex -0.220723 0.0304 0.037869
         vertex -0.221144 0.0304 0.0373738
         vertex -0.222578 0.0304 0.038732
      endloop
   endfacet
   facet normal -2.31296e-16 1 0
      outer loop
         vertex -0.221616 0.0304 0.036927
         vertex -0.222894 0.0304 0.0384323
         vertex -0.222578 0.0304 0.038732
      endloop
   endfacet
   facet normal -2.31296e-16 1 0
      outer loop
         vertex -0.221616 0.0304 0.036927
         vertex -0.222133 0.0304 0.0365339
         vertex -0.223241 0.0304 0.0381686
      endloop
   endfacet
   facet normal -2.31296e-16 1 0
      outer loop
         vertex -0.224849 0.0304 0.037528
         vertex -0.224529 0.0304 0.035579
         vertex -0.225175 0.0304 0.0355088
      endloop
   endfacet
   facet normal -2.31296e-16 1 0
      outer loop
         vertex -0.225825 0.0304 0.0355088
         vertex -0.225718 0.0304 0.0374809
         vertex -0.225282 0.0304 0.0374809
      endloop
   endfacet
   facet normal -2.31296e-16 1 0
      outer loop
         vertex -0.226577 0.0304 0.0376217
         vertex -0.226151 0.0304 0.037528
         vertex -0.226471 0.0304 0.035579
      endloop
   endfacet
   facet normal -2.31296e-16 1 0
      outer loop
         vertex -0.227385 0.0304 0.0379439
         vertex -0.22699 0.0304 0.0377609
         vertex -0.227721 0.0304 0.0359261
      endloop
   endfacet
   facet normal -2.31296e-16 1 0
      outer loop
         vertex -0.229384 0.0304 0.036927
         vertex -0.228106 0.0304 0.0384323
         vertex -0.227759 0.0304 0.0381686
      endloop
   endfacet
   facet normal -2.31296e-16 1 0
      outer loop
         vertex -0.229384 0.0304 0.036927
         vertex -0.229856 0.0304 0.0373738
         vertex -0.228422 0.0304 0.038732
      endloop
   endfacet
   facet normal -2.31296e-16 1 0
      outer loop
         vertex -0.230945 0.0304 0.0389807
         vertex -0.231186 0.0304 0.0395842
         vertex -0.229314 0.0304 0.0402148
      endloop
   endfacet
   facet normal -2.31296e-16 1 0
      outer loop
         vertex -0.231186 0.0304 0.0395842
         vertex -0.23136 0.0304 0.0402102
         vertex -0.229431 0.0304 0.0406347
      endloop
   endfacet
   facet normal -2.31296e-16 1 0
      outer loop
         vertex -0.231465 0.0304 0.0421487
         vertex -0.23136 0.0304 0.0427898
         vertex -0.229431 0.0304 0.0423653
      endloop
   endfacet
   facet normal -2.31296e-16 1 0
      outer loop
         vertex -0.229314 0.0304 0.0427852
         vertex -0.231186 0.0304 0.0434158
         vertex -0.230945 0.0304 0.0440193
      endloop
   endfacet
   facet normal -2.31296e-16 1 0
      outer loop
         vertex -0.228422 0.0304 0.044268
         vertex -0.229856 0.0304 0.0456262
         vertex -0.229384 0.0304 0.046073
      endloop
   endfacet
   facet normal -2.31296e-16 1 0
      outer loop
         vertex -0.224849 0.0304 0.045472
         vertex -0.225282 0.0304 0.0455191
         vertex -0.225175 0.0304 0.0474912
      endloop
   endfacet
   facet normal -2.31296e-16 1 0
      outer loop
         vertex -0.222578 0.0304 0.044268
         vertex -0.222894 0.0304 0.0445677
         vertex -0.221616 0.0304 0.046073
      endloop
   endfacet
   facet normal -2.31296e-16 1 0
      outer loop
         vertex -0.222051 0.0304 0.0435751
         vertex -0.222296 0.0304 0.0439358
         vertex -0.220723 0.0304 0.045131
      endloop
   endfacet
   facet normal -2.31296e-16 1 0
      outer loop
         vertex -0.221569 0.0304 0.0423653
         vertex -0.221686 0.0304 0.0427852
         vertex -0.219814 0.0304 0.0434158
      endloop
   endfacet
   facet normal -2.31296e-16 1 0
      outer loop
         vertex -0.219535 0.0304 0.0421487
         vertex -0.221499 0.0304 0.0419352
         vertex -0.221569 0.0304 0.0423653
      endloop
   endfacet
   facet normal -2.31296e-16 1 0
      outer loop
         vertex -0.2195 0.0304 0.0415
         vertex -0.221475 0.0304 0.0415
         vertex -0.221499 0.0304 0.0419352
      endloop
   endfacet
   facet normal -2.31296e-16 1 0
      outer loop
         vertex -0.2195 0.0304 0.0415
         vertex -0.219535 0.0304 0.0408513
         vertex -0.221499 0.0304 0.0410648
      endloop
   endfacet
   facet normal -2.31296e-16 1 0
      outer loop
         vertex -0.219814 0.0304 0.0395842
         vertex -0.221686 0.0304 0.0402148
         vertex -0.221569 0.0304 0.0406347
      endloop
   endfacet
   facet normal -2.31296e-16 1 0
      outer loop
         vertex -0.222051 0.0304 0.0394249
         vertex -0.221847 0.0304 0.0398099
         vertex -0.220055 0.0304 0.0389807
      endloop
   endfacet
   facet normal -2.31296e-16 1 0
      outer loop
         vertex -0.222578 0.0304 0.038732
         vertex -0.222296 0.0304 0.0390642
         vertex -0.220723 0.0304 0.037869
      endloop
   endfacet
   facet normal -2.31296e-16 1 0
      outer loop
         vertex -0.223241 0.0304 0.0381686
         vertex -0.222894 0.0304 0.0384323
         vertex -0.221616 0.0304 0.036927
      endloop
   endfacet
   facet normal -2.31296e-16 1 0
      outer loop
         vertex -0.22269 0.0304 0.0361989
         vertex -0.223615 0.0304 0.0379439
         vertex -0.223241 0.0304 0.0381686
      endloop
   endfacet
   facet normal -2.31296e-16 1 0
      outer loop
         vertex -0.22269 0.0304 0.0361989
         vertex -0.223279 0.0304 0.0359261
         vertex -0.22401 0.0304 0.0377609
      endloop
   endfacet
   facet normal -2.31296e-16 1 0
      outer loop
         vertex -0.225282 0.0304 0.0374809
         vertex -0.225175 0.0304 0.0355088
         vertex -0.225825 0.0304 0.0355088
      endloop
   endfacet
   facet normal -2.31296e-16 1 0
      outer loop
         vertex -0.22699 0.0304 0.0377609
         vertex -0.226577 0.0304 0.0376217
         vertex -0.227105 0.0304 0.0357187
      endloop
   endfacet
   facet normal -2.31296e-16 1 0
      outer loop
         vertex -0.228867 0.0304 0.0365339
         vertex -0.227759 0.0304 0.0381686
         vertex -0.227385 0.0304 0.0379439
      endloop
   endfacet
   facet normal -2.31296e-16 1 0
      outer loop
         vertex -0.228422 0.0304 0.038732
         vertex -0.228106 0.0304 0.0384323
         vertex -0.229384 0.0304 0.036927
      endloop
   endfacet
   facet normal -2.31296e-16 1 0
      outer loop
         vertex -0.230641 0.0304 0.0384067
         vertex -0.228949 0.0304 0.0394249
         vertex -0.228704 0.0304 0.0390642
      endloop
   endfacet
   facet normal -2.31296e-16 1 0
      outer loop
         vertex -0.230641 0.0304 0.0384067
         vertex -0.230945 0.0304 0.0389807
         vertex -0.229153 0.0304 0.0398099
      endloop
   endfacet
   facet normal -2.31296e-16 1 0
      outer loop
         vertex -0.229431 0.0304 0.0406347
         vertex -0.229314 0.0304 0.0402148
         vertex -0.231186 0.0304 0.0395842
      endloop
   endfacet
   facet normal -2.31296e-16 1 0
      outer loop
         vertex -0.231465 0.0304 0.0408513
         vertex -0.229501 0.0304 0.0410648
         vertex -0.229431 0.0304 0.0406347
      endloop
   endfacet
   facet normal -2.31296e-16 1 0
      outer loop
         vertex -0.2315 0.0304 0.0415
         vertex -0.231465 0.0304 0.0421487
         vertex -0.229501 0.0304 0.0419352
      endloop
   endfacet
   facet normal -2.31296e-16 1 0
      outer loop
         vertex -0.229431 0.0304 0.0423653
         vertex -0.23136 0.0304 0.0427898
         vertex -0.231186 0.0304 0.0434158
      endloop
   endfacet
   facet normal -2.31296e-16 1 0
      outer loop
         vertex -0.227759 0.0304 0.0448314
         vertex -0.228867 0.0304 0.0464661
         vertex -0.22831 0.0304 0.0468011
      endloop
   endfacet
   facet normal -2.31296e-16 1 0
      outer loop
         vertex -0.222578 0.0304 0.044268
         vertex -0.221144 0.0304 0.0456262
         vertex -0.220723 0.0304 0.045131
      endloop
   endfacet
   facet normal -2.31296e-16 1 0
      outer loop
         vertex -0.221569 0.0304 0.0423653
         vertex -0.21964 0.0304 0.0427898
         vertex -0.219535 0.0304 0.0421487
      endloop
   endfacet
   facet normal -2.31296e-16 1 0
      outer loop
         vertex -0.221499 0.0304 0.0410648
         vertex -0.221475 0.0304 0.0415
         vertex -0.2195 0.0304 0.0415
      endloop
   endfacet
   facet normal -2.31296e-16 1 0
      outer loop
         vertex -0.21964 0.0304 0.0402102
         vertex -0.221569 0.0304 0.0406347
         vertex -0.221499 0.0304 0.0410648
      endloop
   endfacet
   facet normal -2.31296e-16 1 0
      outer loop
         vertex -0.221686 0.0304 0.0402148
         vertex -0.219814 0.0304 0.0395842
         vertex -0.220055 0.0304 0.0389807
      endloop
   endfacet
   facet normal -2.31296e-16 1 0
      outer loop
         vertex -0.222578 0.0304 0.038732
         vertex -0.221144 0.0304 0.0373738
         vertex -0.221616 0.0304 0.036927
      endloop
   endfacet
   facet normal -2.31296e-16 1 0
      outer loop
         vertex -0.22401 0.0304 0.0377609
         vertex -0.223615 0.0304 0.0379439
         vertex -0.22269 0.0304 0.0361989
      endloop
   endfacet
   facet normal -2.31296e-16 1 0
      outer loop
         vertex -0.225718 0.0304 0.0374809
         vertex -0.225825 0.0304 0.0355088
         vertex -0.226471 0.0304 0.035579
      endloop
   endfacet
   facet normal -2.31296e-16 1 0
      outer loop
         vertex -0.227759 0.0304 0.0381686
         vertex -0.228867 0.0304 0.0365339
         vertex -0.229384 0.0304 0.036927
      endloop
   endfacet
   facet normal -2.31296e-16 1 0
      outer loop
         vertex -0.230277 0.0304 0.037869
         vertex -0.228704 0.0304 0.0390642
         vertex -0.228422 0.0304 0.038732
      endloop
   endfacet
   facet normal -2.31296e-16 1 0
      outer loop
         vertex -0.229153 0.0304 0.0398099
         vertex -0.228949 0.0304 0.0394249
         vertex -0.230641 0.0304 0.0384067
      endloop
   endfacet
   facet normal -2.31296e-16 1 0
      outer loop
         vertex -0.229431 0.0304 0.0406347
         vertex -0.23136 0.0304 0.0402102
         vertex -0.231465 0.0304 0.0408513
      endloop
   endfacet
   facet normal -2.31296e-16 1 0
      outer loop
         vertex -0.2315 0.0304 0.0415
         vertex -0.229525 0.0304 0.0415
         vertex -0.229501 0.0304 0.0410648
      endloop
   endfacet
   facet normal -2.31296e-16 1 0
      outer loop
         vertex -0.229431 0.0304 0.0423653
         vertex -0.229501 0.0304 0.0419352
         vertex -0.231465 0.0304 0.0421487
      endloop
   endfacet
   facet normal -2.31296e-16 1 0
      outer loop
         vertex -0.223241 0.0304 0.0448314
         vertex -0.222133 0.0304 0.0464661
         vertex -0.221616 0.0304 0.046073
      endloop
   endfacet
   facet normal -2.31296e-16 1 0
      outer loop
         vertex -0.221499 0.0304 0.0419352
         vertex -0.219535 0.0304 0.0421487
         vertex -0.2195 0.0304 0.0415
      endloop
   endfacet
   facet normal -2.31296e-16 1 0
      outer loop
         vertex -0.221569 0.0304 0.0406347
         vertex -0.21964 0.0304 0.0402102
         vertex -0.219814 0.0304 0.0395842
      endloop
   endfacet
   facet normal -2.31296e-16 1 0
      outer loop
         vertex -0.223241 0.0304 0.0381686
         vertex -0.222133 0.0304 0.0365339
         vertex -0.22269 0.0304 0.0361989
      endloop
   endfacet
   facet normal -2.31296e-16 1 0
      outer loop
         vertex -0.227385 0.0304 0.0379439
         vertex -0.22831 0.0304 0.0361989
         vertex -0.228867 0.0304 0.0365339
      endloop
   endfacet
   facet normal -2.31296e-16 1 0
      outer loop
         vertex -0.228704 0.0304 0.0390642
         vertex -0.230277 0.0304 0.037869
         vertex -0.230641 0.0304 0.0384067
      endloop
   endfacet
   facet normal -2.31296e-16 1 0
      outer loop
         vertex -0.229501 0.0304 0.0410648
         vertex -0.231465 0.0304 0.0408513
         vertex -0.2315 0.0304 0.0415
      endloop
   endfacet
   facet normal -2.31296e-16 1 0
      outer loop
         vertex -0.228949 0.0304 0.0435751
         vertex -0.230641 0.0304 0.0445933
         vertex -0.230277 0.0304 0.045131
      endloop
   endfacet
   facet normal -2.31296e-16 1 0
      outer loop
         vertex -0.221499 0.0304 0.0410648
         vertex -0.219535 0.0304 0.0408513
         vertex -0.21964 0.0304 0.0402102
      endloop
   endfacet
   facet normal -2.31296e-16 1 0
      outer loop
         vertex -0.22401 0.0304 0.0377609
         vertex -0.223279 0.0304 0.0359261
         vertex -0.223895 0.0304 0.0357187
      endloop
   endfacet
   facet normal -2.31296e-16 1 0
      outer loop
         vertex -0.229314 0.0304 0.0402148
         vertex -0.229153 0.0304 0.0398099
         vertex -0.230945 0.0304 0.0389807
      endloop
   endfacet
   facet normal -2.31296e-16 1 0
      outer loop
         vertex -0.222051 0.0304 0.0435751
         vertex -0.220359 0.0304 0.0445933
         vertex -0.220055 0.0304 0.0440193
      endloop
   endfacet
   facet normal -2.31296e-16 1 0
      outer loop
         vertex -0.228422 0.0304 0.038732
         vertex -0.229856 0.0304 0.0373738
         vertex -0.230277 0.0304 0.037869
      endloop
   endfacet
   facet normal -2.31296e-16 1 0
      outer loop
         vertex -0.222051 0.0304 0.0394249
         vertex -0.220359 0.0304 0.0384067
         vertex -0.220723 0.0304 0.037869
      endloop
   endfacet
   facet normal -2.31296e-16 1 0
      outer loop
         vertex -0.229501 0.0304 0.0419352
         vertex -0.229525 0.0304 0.0415
         vertex -0.2315 0.0304 0.0415
      endloop
   endfacet
   facet normal 1 2.31296e-16 0
      outer loop
         vertex -0.2195 0.03 0.0415
         vertex -0.2195 0.0304 0.0415
         vertex -0.219535 0.0304 0.0421487
      endloop
   endfacet
   facet normal 0.994138 2.29941e-16 0.108119
      outer loop
         vertex -0.219535 0.03 0.0421487
         vertex -0.219535 0.0304 0.0421487
         vertex -0.21964 0.0304 0.0427898
      endloop
   endfacet
   facet normal 0.976621 2.25889e-16 0.21497
      outer loop
         vertex -0.21964 0.03 0.0427898
         vertex -0.21964 0.0304 0.0427898
         vertex -0.219814 0.0304 0.0434158
      endloop
   endfacet
   facet normal 0.947653 2.19189e-16 0.319302
      outer loop
         vertex -0.219814 0.03 0.0434158
         vertex -0.219814 0.0304 0.0434158
         vertex -0.220055 0.0304 0.0440193
      endloop
   endfacet
   facet normal 0.907575 2.09919e-16 0.419889
      outer loop
         vertex -0.220055 0.03 0.0440193
         vertex -0.220055 0.0304 0.0440193
         vertex -0.220359 0.0304 0.0445933
      endloop
   endfacet
   facet normal 0.856857 1.98188e-16 0.515554
      outer loop
         vertex -0.220359 0.03 0.0445933
         vertex -0.220359 0.0304 0.0445933
         vertex -0.220723 0.0304 0.045131
      endloop
   endfacet
   facet normal 0.796093 1.84134e-16 0.605174
      outer loop
         vertex -0.220723 0.03 0.045131
         vertex -0.220723 0.0304 0.045131
         vertex -0.221144 0.0304 0.0456262
      endloop
   endfacet
   facet normal 0.725995 1.6792e-16 0.687699
      outer loop
         vertex -0.221144 0.03 0.0456262
         vertex -0.221144 0.0304 0.0456262
         vertex -0.221616 0.0304 0.046073
      endloop
   endfacet
   facet normal 0.647386 1.49738e-16 0.762162
      outer loop
         vertex -0.221616 0.03 0.046073
         vertex -0.221616 0.0304 0.046073
         vertex -0.222133 0.0304 0.0464661
      endloop
   endfacet
   facet normal 0.561187 1.29801e-16 0.827689
      outer loop
         vertex -0.222133 0.03 0.0464661
         vertex -0.222133 0.0304 0.0464661
         vertex -0.22269 0.0304 0.0468011
      endloop
   endfacet
   facet normal 0.468408 1.08341e-16 0.883512
      outer loop
         vertex -0.22269 0.03 0.0468011
         vertex -0.22269 0.0304 0.0468011
         vertex -0.223279 0.0304 0.0470739
      endloop
   endfacet
   facet normal 0.370138 8.56116e-17 0.928977
      outer loop
         vertex -0.223279 0.03 0.0470739
         vertex -0.223279 0.0304 0.0470739
         vertex -0.223895 0.0304 0.0472813
      endloop
   endfacet
   facet normal 0.267528 6.18784e-17 0.96355
      outer loop
         vertex -0.223895 0.03 0.0472813
         vertex -0.223895 0.0304 0.0472813
         vertex -0.224529 0.0304 0.047421
      endloop
   endfacet
   facet normal 0.161782 3.74196e-17 0.986827
      outer loop
         vertex -0.224529 0.03 0.047421
         vertex -0.224529 0.0304 0.047421
         vertex -0.225175 0.0304 0.0474912
      endloop
   endfacet
   facet normal 0.0541389 1.25221e-17 0.998533
      outer loop
         vertex -0.225175 0.03 0.0474912
         vertex -0.225175 0.0304 0.0474912
         vertex -0.225825 0.0304 0.0474912
      endloop
   endfacet
   facet normal -0.0541389 -1.25221e-17 0.998533
      outer loop
         vertex -0.225825 0.03 0.0474912
         vertex -0.225825 0.0304 0.0474912
         vertex -0.226471 0.0304 0.047421
      endloop
   endfacet
   facet normal -0.161782 -3.74196e-17 0.986827
      outer loop
         vertex -0.226471 0.03 0.047421
         vertex -0.226471 0.0304 0.047421
         vertex -0.227105 0.0304 0.0472813
      endloop
   endfacet
   facet normal -0.267528 -6.18784e-17 0.96355
      outer loop
         vertex -0.227105 0.03 0.0472813
         vertex -0.227105 0.0304 0.0472813
         vertex -0.227721 0.0304 0.0470739
      endloop
   endfacet
   facet normal -0.370138 -8.56116e-17 0.928977
      outer loop
         vertex -0.227721 0.03 0.0470739
         vertex -0.227721 0.0304 0.0470739
         vertex -0.22831 0.0304 0.0468011
      endloop
   endfacet
   facet normal -0.468408 -1.08341e-16 0.883512
      outer loop
         vertex -0.22831 0.03 0.0468011
         vertex -0.22831 0.0304 0.0468011
         vertex -0.228867 0.0304 0.0464661
      endloop
   endfacet
   facet normal -0.561187 -1.29801e-16 0.827689
      outer loop
         vertex -0.228867 0.03 0.0464661
         vertex -0.228867 0.0304 0.0464661
         vertex -0.229384 0.0304 0.046073
      endloop
   endfacet
   facet normal -0.647386 -1.49738e-16 0.762162
      outer loop
         vertex -0.229384 0.03 0.046073
         vertex -0.229384 0.0304 0.046073
         vertex -0.229856 0.0304 0.0456262
      endloop
   endfacet
   facet normal -0.725995 -1.6792e-16 0.687699
      outer loop
         vertex -0.229856 0.03 0.0456262
         vertex -0.229856 0.0304 0.0456262
         vertex -0.230277 0.0304 0.045131
      endloop
   endfacet
   facet normal -0.796093 -1.84134e-16 0.605174
      outer loop
         vertex -0.230277 0.03 0.045131
         vertex -0.230277 0.0304 0.045131
         vertex -0.230641 0.0304 0.0445933
      endloop
   endfacet
   facet normal -0.856857 -1.98188e-16 0.515554
      outer loop
         vertex -0.230641 0.03 0.0445933
         vertex -0.230641 0.0304 0.0445933
         vertex -0.230945 0.0304 0.0440193
      endloop
   endfacet
   facet normal -0.907575 -2.09919e-16 0.419889
      outer loop
         vertex -0.230945 0.03 0.0440193
         vertex -0.230945 0.0304 0.0440193
         vertex -0.231186 0.0304 0.0434158
      endloop
   endfacet
   facet normal -0.947653 -2.19189e-16 0.319302
      outer loop
         vertex -0.231186 0.03 0.0434158
         vertex -0.231186 0.0304 0.0434158
         vertex -0.23136 0.0304 0.0427898
      endloop
   endfacet
   facet normal -0.976621 -2.25889e-16 0.21497
      outer loop
         vertex -0.23136 0.03 0.0427898
         vertex -0.23136 0.0304 0.0427898
         vertex -0.231465 0.0304 0.0421487
      endloop
   endfacet
   facet normal -0.994138 -2.29941e-16 0.108119
      outer loop
         vertex -0.231465 0.03 0.0421487
         vertex -0.231465 0.0304 0.0421487
         vertex -0.2315 0.0304 0.0415
      endloop
   endfacet
   facet normal -1 -2.31296e-16 1.22465e-16
      outer loop
         vertex -0.2315 0.03 0.0415
         vertex -0.2315 0.0304 0.0415
         vertex -0.231465 0.0304 0.0408513
      endloop
   endfacet
   facet normal -0.994138 -2.29941e-16 -0.108119
      outer loop
         vertex -0.231465 0.03 0.0408513
         vertex -0.231465 0.0304 0.0408513
         vertex -0.23136 0.0304 0.0402102
      endloop
   endfacet
   facet normal -0.976621 -2.25889e-16 -0.21497
      outer loop
         vertex -0.23136 0.03 0.0402102
         vertex -0.23136 0.0304 0.0402102
         vertex -0.231186 0.0304 0.0395842
      endloop
   endfacet
   facet normal -0.947653 -2.19189e-16 -0.319302
      outer loop
         vertex -0.231186 0.03 0.0395842
         vertex -0.231186 0.0304 0.0395842
         vertex -0.230945 0.0304 0.0389807
      endloop
   endfacet
   facet normal -0.907575 -2.09919e-16 -0.419889
      outer loop
         vertex -0.230945 0.03 0.0389807
         vertex -0.230945 0.0304 0.0389807
         vertex -0.230641 0.0304 0.0384067
      endloop
   endfacet
   facet normal -0.856857 -1.98188e-16 -0.515554
      outer loop
         vertex -0.230641 0.03 0.0384067
         vertex -0.230641 0.0304 0.0384067
         vertex -0.230277 0.0304 0.037869
      endloop
   endfacet
   facet normal -0.796093 -1.84134e-16 -0.605174
      outer loop
         vertex -0.230277 0.03 0.037869
         vertex -0.230277 0.0304 0.037869
         vertex -0.229856 0.0304 0.0373738
      endloop
   endfacet
   facet normal -0.725995 -1.6792e-16 -0.687699
      outer loop
         vertex -0.229856 0.03 0.0373738
         vertex -0.229856 0.0304 0.0373738
         vertex -0.229384 0.0304 0.036927
      endloop
   endfacet
   facet normal -0.647386 -1.49738e-16 -0.762162
      outer loop
         vertex -0.229384 0.03 0.036927
         vertex -0.229384 0.0304 0.036927
         vertex -0.228867 0.0304 0.0365339
      endloop
   endfacet
   facet normal -0.561187 -1.29801e-16 -0.827689
      outer loop
         vertex -0.228867 0.03 0.0365339
         vertex -0.228867 0.0304 0.0365339
         vertex -0.22831 0.0304 0.0361989
      endloop
   endfacet
   facet normal -0.468408 -1.08341e-16 -0.883512
      outer loop
         vertex -0.22831 0.03 0.0361989
         vertex -0.22831 0.0304 0.0361989
         vertex -0.227721 0.0304 0.0359261
      endloop
   endfacet
   facet normal -0.370138 -8.56116e-17 -0.928977
      outer loop
         vertex -0.227721 0.03 0.0359261
         vertex -0.227721 0.0304 0.0359261
         vertex -0.227105 0.0304 0.0357187
      endloop
   endfacet
   facet normal -0.267528 -6.18784e-17 -0.96355
      outer loop
         vertex -0.227105 0.03 0.0357187
         vertex -0.227105 0.0304 0.0357187
         vertex -0.226471 0.0304 0.035579
      endloop
   endfacet
   facet normal -0.161782 -3.74196e-17 -0.986827
      outer loop
         vertex -0.226471 0.03 0.035579
         vertex -0.226471 0.0304 0.035579
         vertex -0.225825 0.0304 0.0355088
      endloop
   endfacet
   facet normal -0.0541389 -1.25221e-17 -0.998533
      outer loop
         vertex -0.225825 0.03 0.0355088
         vertex -0.225825 0.0304 0.0355088
         vertex -0.225175 0.0304 0.0355088
      endloop
   endfacet
   facet normal 0.0541389 1.25221e-17 -0.998533
      outer loop
         vertex -0.225175 0.03 0.0355088
         vertex -0.225175 0.0304 0.0355088
         vertex -0.224529 0.0304 0.035579
      endloop
   endfacet
   facet normal 0.161782 3.74196e-17 -0.986827
      outer loop
         vertex -0.224529 0.03 0.035579
         vertex -0.224529 0.0304 0.035579
         vertex -0.223895 0.0304 0.0357187
      endloop
   endfacet
   facet normal 0.267528 6.18784e-17 -0.96355
      outer loop
         vertex -0.223895 0.03 0.0357187
         vertex -0.223895 0.0304 0.0357187
         vertex -0.223279 0.0304 0.0359261
      endloop
   endfacet
   facet normal 0.370138 8.56116e-17 -0.928977
      outer loop
         vertex -0.223279 0.03 0.0359261
         vertex -0.223279 0.0304 0.0359261
         vertex -0.22269 0.0304 0.0361989
      endloop
   endfacet
   facet normal 0.468408 1.08341e-16 -0.883512
      outer loop
         vertex -0.22269 0.03 0.0361989
         vertex -0.22269 0.0304 0.0361989
         vertex -0.222133 0.0304 0.0365339
      endloop
   endfacet
   facet normal 0.561187 1.29801e-16 -0.827689
      outer loop
         vertex -0.222133 0.03 0.0365339
         vertex -0.222133 0.0304 0.0365339
         vertex -0.221616 0.0304 0.036927
      endloop
   endfacet
   facet normal 0.647386 1.49738e-16 -0.762162
      outer loop
         vertex -0.221616 0.03 0.036927
         vertex -0.221616 0.0304 0.036927
         vertex -0.221144 0.0304 0.0373738
      endloop
   endfacet
   facet normal 0.725995 1.6792e-16 -0.687699
      outer loop
         vertex -0.221144 0.03 0.0373738
         vertex -0.221144 0.0304 0.0373738
         vertex -0.220723 0.0304 0.037869
      endloop
   endfacet
   facet normal 0.796093 1.84134e-16 -0.605174
      outer loop
         vertex -0.220723 0.03 0.037869
         vertex -0.220723 0.0304 0.037869
         vertex -0.220359 0.0304 0.0384067
      endloop
   endfacet
   facet normal 0.856857 1.98188e-16 -0.515554
      outer loop
         vertex -0.220359 0.03 0.0384067
         vertex -0.220359 0.0304 0.0384067
         vertex -0.220055 0.0304 0.0389807
      endloop
   endfacet
   facet normal 0.907575 2.09919e-16 -0.419889
      outer loop
         vertex -0.220055 0.03 0.0389807
         vertex -0.220055 0.0304 0.0389807
         vertex -0.219814 0.0304 0.0395842
      endloop
   endfacet
   facet normal 0.947653 2.19189e-16 -0.319302
      outer loop
         vertex -0.219814 0.03 0.0395842
         vertex -0.219814 0.0304 0.0395842
         vertex -0.21964 0.0304 0.0402102
      endloop
   endfacet
   facet normal 0.976621 2.25889e-16 -0.21497
      outer loop
         vertex -0.21964 0.03 0.0402102
         vertex -0.21964 0.0304 0.0402102
         vertex -0.219535 0.0304 0.0408513
      endloop
   endfacet
   facet normal 0.994138 2.29941e-16 -0.108119
      outer loop
         vertex -0.219535 0.03 0.0408513
         vertex -0.219535 0.0304 0.0408513
         vertex -0.2195 0.0304 0.0415
      endloop
   endfacet
   facet normal 1 2.31296e-16 0
      outer loop
         vertex -0.2195 0.0304 0.0415
         vertex -0.2195 0.03 0.0415
         vertex -0.219535 0.03 0.0408513
      endloop
   endfacet
   facet normal 0.994138 2.29941e-16 -0.108119
      outer loop
         vertex -0.219535 0.0304 0.0408513
         vertex -0.219535 0.03 0.0408513
         vertex -0.21964 0.03 0.0402102
      endloop
   endfacet
   facet normal 0.976621 2.25889e-16 -0.21497
      outer loop
         vertex -0.21964 0.0304 0.0402102
         vertex -0.21964 0.03 0.0402102
         vertex -0.219814 0.03 0.0395842
      endloop
   endfacet
   facet normal 0.947653 2.19189e-16 -0.319302
      outer loop
         vertex -0.219814 0.0304 0.0395842
         vertex -0.219814 0.03 0.0395842
         vertex -0.220055 0.03 0.0389807
      endloop
   endfacet
   facet normal 0.907575 2.09919e-16 -0.419889
      outer loop
         vertex -0.220055 0.0304 0.0389807
         vertex -0.220055 0.03 0.0389807
         vertex -0.220359 0.03 0.0384067
      endloop
   endfacet
   facet normal 0.856857 1.98188e-16 -0.515554
      outer loop
         vertex -0.220359 0.0304 0.0384067
         vertex -0.220359 0.03 0.0384067
         vertex -0.220723 0.03 0.037869
      endloop
   endfacet
   facet normal 0.796093 1.84134e-16 -0.605174
      outer loop
         vertex -0.220723 0.0304 0.037869
         vertex -0.220723 0.03 0.037869
         vertex -0.221144 0.03 0.0373738
      endloop
   endfacet
   facet normal 0.725995 1.6792e-16 -0.687699
      outer loop
         vertex -0.221144 0.0304 0.0373738
         vertex -0.221144 0.03 0.0373738
         vertex -0.221616 0.03 0.036927
      endloop
   endfacet
   facet normal 0.647386 1.49738e-16 -0.762162
      outer loop
         vertex -0.221616 0.0304 0.036927
         vertex -0.221616 0.03 0.036927
         vertex -0.222133 0.03 0.0365339
      endloop
   endfacet
   facet normal 0.561187 1.29801e-16 -0.827689
      outer loop
         vertex -0.222133 0.0304 0.0365339
         vertex -0.222133 0.03 0.0365339
         vertex -0.22269 0.03 0.0361989
      endloop
   endfacet
   facet normal 0.468408 1.08341e-16 -0.883512
      outer loop
         vertex -0.22269 0.0304 0.0361989
         vertex -0.22269 0.03 0.0361989
         vertex -0.223279 0.03 0.0359261
      endloop
   endfacet
   facet normal 0.370138 8.56116e-17 -0.928977
      outer loop
         vertex -0.223279 0.0304 0.0359261
         vertex -0.223279 0.03 0.0359261
         vertex -0.223895 0.03 0.0357187
      endloop
   endfacet
   facet normal 0.267528 6.18784e-17 -0.96355
      outer loop
         vertex -0.223895 0.0304 0.0357187
         vertex -0.223895 0.03 0.0357187
         vertex -0.224529 0.03 0.035579
      endloop
   endfacet
   facet normal 0.161782 3.74196e-17 -0.986827
      outer loop
         vertex -0.224529 0.0304 0.035579
         vertex -0.224529 0.03 0.035579
         vertex -0.225175 0.03 0.0355088
      endloop
   endfacet
   facet normal 0.0541389 1.25221e-17 -0.998533
      outer loop
         vertex -0.225175 0.0304 0.0355088
         vertex -0.225175 0.03 0.0355088
         vertex -0.225825 0.03 0.0355088
      endloop
   endfacet
   facet normal -0.0541389 -1.25221e-17 -0.998533
      outer loop
         vertex -0.225825 0.0304 0.0355088
         vertex -0.225825 0.03 0.0355088
         vertex -0.226471 0.03 0.035579
      endloop
   endfacet
   facet normal -0.161782 -3.74196e-17 -0.986827
      outer loop
         vertex -0.226471 0.0304 0.035579
         vertex -0.226471 0.03 0.035579
         vertex -0.227105 0.03 0.0357187
      endloop
   endfacet
   facet normal -0.267528 -6.18784e-17 -0.96355
      outer loop
         vertex -0.227105 0.0304 0.0357187
         vertex -0.227105 0.03 0.0357187
         vertex -0.227721 0.03 0.0359261
      endloop
   endfacet
   facet normal -0.370138 -8.56116e-17 -0.928977
      outer loop
         vertex -0.227721 0.0304 0.0359261
         vertex -0.227721 0.03 0.0359261
         vertex -0.22831 0.03 0.0361989
      endloop
   endfacet
   facet normal -0.468408 -1.08341e-16 -0.883512
      outer loop
         vertex -0.22831 0.0304 0.0361989
         vertex -0.22831 0.03 0.0361989
         vertex -0.228867 0.03 0.0365339
      endloop
   endfacet
   facet normal -0.561187 -1.29801e-16 -0.827689
      outer loop
         vertex -0.228867 0.0304 0.0365339
         vertex -0.228867 0.03 0.0365339
         vertex -0.229384 0.03 0.036927
      endloop
   endfacet
   facet normal -0.647386 -1.49738e-16 -0.762162
      outer loop
         vertex -0.229384 0.0304 0.036927
         vertex -0.229384 0.03 0.036927
         vertex -0.229856 0.03 0.0373738
      endloop
   endfacet
   facet normal -0.725995 -1.6792e-16 -0.687699
      outer loop
         vertex -0.229856 0.0304 0.0373738
         vertex -0.229856 0.03 0.0373738
         vertex -0.230277 0.03 0.037869
      endloop
   endfacet
   facet normal -0.796093 -1.84134e-16 -0.605174
      outer loop
         vertex -0.230277 0.0304 0.037869
         vertex -0.230277 0.03 0.037869
         vertex -0.230641 0.03 0.0384067
      endloop
   endfacet
   facet normal -0.856857 -1.98188e-16 -0.515554
      outer loop
         vertex -0.230641 0.0304 0.0384067
         vertex -0.230641 0.03 0.0384067
         vertex -0.230945 0.03 0.0389807
      endloop
   endfacet
   facet normal -0.907575 -2.09919e-16 -0.419889
      outer loop
         vertex -0.230945 0.0304 0.0389807
         vertex -0.230945 0.03 0.0389807
         vertex -0.231186 0.03 0.0395842
      endloop
   endfacet
   facet normal -0.947653 -2.19189e-16 -0.319302
      outer loop
         vertex -0.231186 0.0304 0.0395842
         vertex -0.231186 0.03 0.0395842
         vertex -0.23136 0.03 0.0402102
      endloop
   endfacet
   facet normal -0.976621 -2.25889e-16 -0.21497
      outer loop
         vertex -0.23136 0.0304 0.0402102
         vertex -0.23136 0.03 0.0402102
         vertex -0.231465 0.03 0.0408513
      endloop
   endfacet
   facet normal -0.994138 -2.29941e-16 -0.108119
      outer loop
         vertex -0.231465 0.0304 0.0408513
         vertex -0.231465 0.03 0.0408513
         vertex -0.2315 0.03 0.0415
      endloop
   endfacet
   facet normal -1 -2.31296e-16 1.22465e-16
      outer loop
         vertex -0.2315 0.0304 0.0415
         vertex -0.2315 0.03 0.0415
         vertex -0.231465 0.03 0.0421487
      endloop
   endfacet
   facet normal -0.994138 -2.29941e-16 0.108119
      outer loop
         vertex -0.231465 0.0304 0.0421487
         vertex -0.231465 0.03 0.0421487
         vertex -0.23136 0.03 0.0427898
      endloop
   endfacet
   facet normal -0.976621 -2.25889e-16 0.21497
      outer loop
         vertex -0.23136 0.0304 0.0427898
         vertex -0.23136 0.03 0.0427898
         vertex -0.231186 0.03 0.0434158
      endloop
   endfacet
   facet normal -0.947653 -2.19189e-16 0.319302
      outer loop
         vertex -0.231186 0.0304 0.0434158
         vertex -0.231186 0.03 0.0434158
         vertex -0.230945 0.03 0.0440193
      endloop
   endfacet
   facet normal -0.907575 -2.09919e-16 0.419889
      outer loop
         vertex -0.230945 0.0304 0.0440193
         vertex -0.230945 0.03 0.0440193
         vertex -0.230641 0.03 0.0445933
      endloop
   endfacet
   facet normal -0.856857 -1.98188e-16 0.515554
      outer loop
         vertex -0.230641 0.0304 0.0445933
         vertex -0.230641 0.03 0.0445933
         vertex -0.230277 0.03 0.045131
      endloop
   endfacet
   facet normal -0.796093 -1.84134e-16 0.605174
      outer loop
         vertex -0.230277 0.0304 0.045131
         vertex -0.230277 0.03 0.045131
         vertex -0.229856 0.03 0.0456262
      endloop
   endfacet
   facet normal -0.725995 -1.6792e-16 0.687699
      outer loop
         vertex -0.229856 0.0304 0.0456262
         vertex -0.229856 0.03 0.0456262
         vertex -0.229384 0.03 0.046073
      endloop
   endfacet
   facet normal -0.647386 -1.49738e-16 0.762162
      outer loop
         vertex -0.229384 0.0304 0.046073
         vertex -0.229384 0.03 0.046073
         vertex -0.228867 0.03 0.0464661
      endloop
   endfacet
   facet normal -0.561187 -1.29801e-16 0.827689
      outer loop
         vertex -0.228867 0.0304 0.0464661
         vertex -0.228867 0.03 0.0464661
         vertex -0.22831 0.03 0.0468011
      endloop
   endfacet
   facet normal -0.468408 -1.08341e-16 0.883512
      outer loop
         vertex -0.22831 0.0304 0.0468011
         vertex -0.22831 0.03 0.0468011
         vertex -0.227721 0.03 0.0470739
      endloop
   endfacet
   facet normal -0.370138 -8.56116e-17 0.928977
      outer loop
         vertex -0.227721 0.0304 0.0470739
         vertex -0.227721 0.03 0.0470739
         vertex -0.227105 0.03 0.0472813
      endloop
   endfacet
   facet normal -0.267528 -6.18784e-17 0.96355
      outer loop
         vertex -0.227105 0.0304 0.0472813
         vertex -0.227105 0.03 0.0472813
         vertex -0.226471 0.03 0.047421
      endloop
   endfacet
   facet normal -0.161782 -3.74196e-17 0.986827
      outer loop
         vertex -0.226471 0.0304 0.047421
         vertex -0.226471 0.03 0.047421
         vertex -0.225825 0.03 0.0474912
      endloop
   endfacet
   facet normal -0.0541389 -1.25221e-17 0.998533
      outer loop
         vertex -0.225825 0.0304 0.0474912
         vertex -0.225825 0.03 0.0474912
         vertex -0.225175 0.03 0.0474912
      endloop
   endfacet
   facet normal 0.0541389 1.25221e-17 0.998533
      outer loop
         vertex -0.225175 0.0304 0.0474912
         vertex -0.225175 0.03 0.0474912
         vertex -0.224529 0.03 0.047421
      endloop
   endfacet
   facet normal 0.161782 3.74196e-17 0.986827
      outer loop
         vertex -0.224529 0.0304 0.047421
         vertex -0.224529 0.03 0.047421
         vertex -0.223895 0.03 0.0472813
      endloop
   endfacet
   facet normal 0.267528 6.18784e-17 0.96355
      outer loop
         vertex -0.223895 0.0304 0.0472813
         vertex -0.223895 0.03 0.0472813
         vertex -0.223279 0.03 0.0470739
      endloop
   endfacet
   facet normal 0.370138 8.56116e-17 0.928977
      outer loop
         vertex -0.223279 0.0304 0.0470739
         vertex -0.223279 0.03 0.0470739
         vertex -0.22269 0.03 0.0468011
      endloop
   endfacet
   facet normal 0.468408 1.08341e-16 0.883512
      outer loop
         vertex -0.22269 0.0304 0.0468011
         vertex -0.22269 0.03 0.0468011
         vertex -0.222133 0.03 0.0464661
      endloop
   endfacet
   facet normal 0.561187 1.29801e-16 0.827689
      outer loop
         vertex -0.222133 0.0304 0.0464661
         vertex -0.222133 0.03 0.0464661
         vertex -0.221616 0.03 0.046073
      endloop
   endfacet
   facet normal 0.647386 1.49738e-16 0.762162
      outer loop
         vertex -0.221616 0.0304 0.046073
         vertex -0.221616 0.03 0.046073
         vertex -0.221144 0.03 0.0456262
      endloop
   endfacet
   facet normal 0.725995 1.6792e-16 0.687699
      outer loop
         vertex -0.221144 0.0304 0.0456262
         vertex -0.221144 0.03 0.0456262
         vertex -0.220723 0.03 0.045131
      endloop
   endfacet
   facet normal 0.796093 1.84134e-16 0.605174
      outer loop
         vertex -0.220723 0.0304 0.045131
         vertex -0.220723 0.03 0.045131
         vertex -0.220359 0.03 0.0445933
      endloop
   endfacet
   facet normal 0.856857 1.98188e-16 0.515554
      outer loop
         vertex -0.220359 0.0304 0.0445933
         vertex -0.220359 0.03 0.0445933
         vertex -0.220055 0.03 0.0440193
      endloop
   endfacet
   facet normal 0.907575 2.09919e-16 0.419889
      outer loop
         vertex -0.220055 0.0304 0.0440193
         vertex -0.220055 0.03 0.0440193
         vertex -0.219814 0.03 0.0434158
      endloop
   endfacet
   facet normal 0.947653 2.19189e-16 0.319302
      outer loop
         vertex -0.219814 0.0304 0.0434158
         vertex -0.219814 0.03 0.0434158
         vertex -0.21964 0.03 0.0427898
      endloop
   endfacet
   facet normal 0.976621 2.25889e-16 0.21497
      outer loop
         vertex -0.21964 0.0304 0.0427898
         vertex -0.21964 0.03 0.0427898
         vertex -0.219535 0.03 0.0421487
      endloop
   endfacet
   facet normal 0.994138 2.29941e-16 0.108119
      outer loop
         vertex -0.219535 0.0304 0.0421487
         vertex -0.219535 0.03 0.0421487
         vertex -0.2195 0.03 0.0415
      endloop
   endfacet
   facet normal 2.31296e-16 -1 0
      outer loop
         vertex -0.223279 0.03 0.0470739
         vertex -0.22401 0.03 0.0452391
         vertex -0.223615 0.03 0.0450561
      endloop
   endfacet
   facet normal 2.31296e-16 -1 0
      outer loop
         vertex -0.223895 0.03 0.0472813
         vertex -0.224423 0.03 0.0453783
         vertex -0.22401 0.03 0.0452391
      endloop
   endfacet
   facet normal 2.31296e-16 -1 0
      outer loop
         vertex -0.230945 0.03 0.0440193
         vertex -0.229153 0.03 0.0431901
         vertex -0.228949 0.03 0.0435751
      endloop
   endfacet
   facet normal 2.31296e-16 -1 0
      outer loop
         vertex -0.230945 0.03 0.0440193
         vertex -0.231186 0.03 0.0434158
         vertex -0.229314 0.03 0.0427852
      endloop
   endfacet
   facet normal 2.31296e-16 -1 0
      outer loop
         vertex -0.227721 0.03 0.0359261
         vertex -0.22699 0.03 0.0377609
         vertex -0.227385 0.03 0.0379439
      endloop
   endfacet
   facet normal 2.31296e-16 -1 0
      outer loop
         vertex -0.227105 0.03 0.0357187
         vertex -0.226577 0.03 0.0376217
         vertex -0.22699 0.03 0.0377609
      endloop
   endfacet
   facet normal 2.31296e-16 -1 0
      outer loop
         vertex -0.226471 0.03 0.035579
         vertex -0.226151 0.03 0.037528
         vertex -0.226577 0.03 0.0376217
      endloop
   endfacet
   facet normal 2.31296e-16 -1 0
      outer loop
         vertex -0.226471 0.03 0.035579
         vertex -0.225825 0.03 0.0355088
         vertex -0.225718 0.03 0.0374809
      endloop
   endfacet
   facet normal 2.31296e-16 -1 0
      outer loop
         vertex -0.22269 0.03 0.0468011
         vertex -0.223615 0.03 0.0450561
         vertex -0.223241 0.03 0.0448314
      endloop
   endfacet
   facet normal 2.31296e-16 -1 0
      outer loop
         vertex -0.22401 0.03 0.0452391
         vertex -0.223279 0.03 0.0470739
         vertex -0.223895 0.03 0.0472813
      endloop
   endfacet
   facet normal 2.31296e-16 -1 0
      outer loop
         vertex -0.224529 0.03 0.047421
         vertex -0.224849 0.03 0.045472
         vertex -0.224423 0.03 0.0453783
      endloop
   endfacet
   facet normal 2.31296e-16 -1 0
      outer loop
         vertex -0.225175 0.03 0.0474912
         vertex -0.225282 0.03 0.0455191
         vertex -0.224849 0.03 0.045472
      endloop
   endfacet
   facet normal 2.31296e-16 -1 0
      outer loop
         vertex -0.227105 0.03 0.0472813
         vertex -0.227721 0.03 0.0470739
         vertex -0.22699 0.03 0.0452391
      endloop
   endfacet
   facet normal 2.31296e-16 -1 0
      outer loop
         vertex -0.227721 0.03 0.0470739
         vertex -0.22831 0.03 0.0468011
         vertex -0.227385 0.03 0.0450561
      endloop
   endfacet
   facet normal 2.31296e-16 -1 0
      outer loop
         vertex -0.229314 0.03 0.0427852
         vertex -0.229153 0.03 0.0431901
         vertex -0.230945 0.03 0.0440193
      endloop
   endfacet
   facet normal 2.31296e-16 -1 0
      outer loop
         vertex -0.231186 0.03 0.0434158
         vertex -0.23136 0.03 0.0427898
         vertex -0.229431 0.03 0.0423653
      endloop
   endfacet
   facet normal 2.31296e-16 -1 0
      outer loop
         vertex -0.22699 0.03 0.0377609
         vertex -0.227721 0.03 0.0359261
         vertex -0.227105 0.03 0.0357187
      endloop
   endfacet
   facet normal 2.31296e-16 -1 0
      outer loop
         vertex -0.225718 0.03 0.0374809
         vertex -0.226151 0.03 0.037528
         vertex -0.226471 0.03 0.035579
      endloop
   endfacet
   facet normal 2.31296e-16 -1 0
      outer loop
         vertex -0.224529 0.03 0.035579
         vertex -0.223895 0.03 0.0357187
         vertex -0.224423 0.03 0.0376217
      endloop
   endfacet
   facet normal 2.31296e-16 -1 0
      outer loop
         vertex -0.223895 0.03 0.0357187
         vertex -0.223279 0.03 0.0359261
         vertex -0.22401 0.03 0.0377609
      endloop
   endfacet
   facet normal 2.31296e-16 -1 0
      outer loop
         vertex -0.223615 0.03 0.0450561
         vertex -0.22269 0.03 0.0468011
         vertex -0.223279 0.03 0.0470739
      endloop
   endfacet
   facet normal 2.31296e-16 -1 0
      outer loop
         vertex -0.224849 0.03 0.045472
         vertex -0.224529 0.03 0.047421
         vertex -0.225175 0.03 0.0474912
      endloop
   endfacet
   facet normal 2.31296e-16 -1 0
      outer loop
         vertex -0.225825 0.03 0.0474912
         vertex -0.226471 0.03 0.047421
         vertex -0.226151 0.03 0.045472
      endloop
   endfacet
   facet normal 2.31296e-16 -1 0
      outer loop
         vertex -0.226471 0.03 0.047421
         vertex -0.227105 0.03 0.0472813
         vertex -0.226577 0.03 0.0453783
      endloop
   endfacet
   facet normal 2.31296e-16 -1 0
      outer loop
         vertex -0.227385 0.03 0.0450561
         vertex -0.22699 0.03 0.0452391
         vertex -0.227721 0.03 0.0470739
      endloop
   endfacet
   facet normal 2.31296e-16 -1 0
      outer loop
         vertex -0.22831 0.03 0.0468011
         vertex -0.228867 0.03 0.0464661
         vertex -0.227759 0.03 0.0448314
      endloop
   endfacet
   facet normal 2.31296e-16 -1 0
      outer loop
         vertex -0.229431 0.03 0.0423653
         vertex -0.229314 0.03 0.0427852
         vertex -0.231186 0.03 0.0434158
      endloop
   endfacet
   facet normal 2.31296e-16 -1 0
      outer loop
         vertex -0.231465 0.03 0.0421487
         vertex -0.229501 0.03 0.0419352
         vertex -0.229431 0.03 0.0423653
      endloop
   endfacet
   facet normal 2.31296e-16 -1 0
      outer loop
         vertex -0.2315 0.03 0.0415
         vertex -0.229525 0.03 0.0415
         vertex -0.229501 0.03 0.0419352
      endloop
   endfacet
   facet normal 2.31296e-16 -1 0
      outer loop
         vertex -0.2315 0.03 0.0415
         vertex -0.231465 0.03 0.0408513
         vertex -0.229501 0.03 0.0410648
      endloop
   endfacet
   facet normal 2.31296e-16 -1 0
      outer loop
         vertex -0.231186 0.03 0.0395842
         vertex -0.229314 0.03 0.0402148
         vertex -0.229431 0.03 0.0406347
      endloop
   endfacet
   facet normal 2.31296e-16 -1 0
      outer loop
         vertex -0.230945 0.03 0.0389807
         vertex -0.229153 0.03 0.0398099
         vertex -0.229314 0.03 0.0402148
      endloop
   endfacet
   facet normal 2.31296e-16 -1 0
      outer loop
         vertex -0.229384 0.03 0.036927
         vertex -0.228106 0.03 0.0384323
         vertex -0.228422 0.03 0.038732
      endloop
   endfacet
   facet normal 2.31296e-16 -1 0
      outer loop
         vertex -0.229384 0.03 0.036927
         vertex -0.228867 0.03 0.0365339
         vertex -0.227759 0.03 0.0381686
      endloop
   endfacet
   facet normal 2.31296e-16 -1 0
      outer loop
         vertex -0.226577 0.03 0.0376217
         vertex -0.227105 0.03 0.0357187
         vertex -0.226471 0.03 0.035579
      endloop
   endfacet
   facet normal 2.31296e-16 -1 0
      outer loop
         vertex -0.225825 0.03 0.0355088
         vertex -0.225175 0.03 0.0355088
         vertex -0.225282 0.03 0.0374809
      endloop
   endfacet
   facet normal 2.31296e-16 -1 0
      outer loop
         vertex -0.225175 0.03 0.0355088
         vertex -0.224529 0.03 0.035579
         vertex -0.224849 0.03 0.037528
      endloop
   endfacet
   facet normal 2.31296e-16 -1 0
      outer loop
         vertex -0.22401 0.03 0.0377609
         vertex -0.224423 0.03 0.0376217
         vertex -0.223895 0.03 0.0357187
      endloop
   endfacet
   facet normal 2.31296e-16 -1 0
      outer loop
         vertex -0.221616 0.03 0.036927
         vertex -0.222894 0.03 0.0384323
         vertex -0.223241 0.03 0.0381686
      endloop
   endfacet
   facet normal 2.31296e-16 -1 0
      outer loop
         vertex -0.221616 0.03 0.036927
         vertex -0.221144 0.03 0.0373738
         vertex -0.222578 0.03 0.038732
      endloop
   endfacet
   facet normal 2.31296e-16 -1 0
      outer loop
         vertex -0.220723 0.03 0.037869
         vertex -0.222296 0.03 0.0390642
         vertex -0.222578 0.03 0.038732
      endloop
   endfacet
   facet normal 2.31296e-16 -1 0
      outer loop
         vertex -0.220723 0.03 0.037869
         vertex -0.220359 0.03 0.0384067
         vertex -0.222051 0.03 0.0394249
      endloop
   endfacet
   facet normal 2.31296e-16 -1 0
      outer loop
         vertex -0.220055 0.03 0.0440193
         vertex -0.221847 0.03 0.0431901
         vertex -0.221686 0.03 0.0427852
      endloop
   endfacet
   facet normal 2.31296e-16 -1 0
      outer loop
         vertex -0.220055 0.03 0.0440193
         vertex -0.220359 0.03 0.0445933
         vertex -0.222051 0.03 0.0435751
      endloop
   endfacet
   facet normal 2.31296e-16 -1 0
      outer loop
         vertex -0.224423 0.03 0.0453783
         vertex -0.223895 0.03 0.0472813
         vertex -0.224529 0.03 0.047421
      endloop
   endfacet
   facet normal 2.31296e-16 -1 0
      outer loop
         vertex -0.225175 0.03 0.0474912
         vertex -0.225825 0.03 0.0474912
         vertex -0.225718 0.03 0.0455191
      endloop
   endfacet
   facet normal 2.31296e-16 -1 0
      outer loop
         vertex -0.226577 0.03 0.0453783
         vertex -0.226151 0.03 0.045472
         vertex -0.226471 0.03 0.047421
      endloop
   endfacet
   facet normal 2.31296e-16 -1 0
      outer loop
         vertex -0.227759 0.03 0.0448314
         vertex -0.227385 0.03 0.0450561
         vertex -0.22831 0.03 0.0468011
      endloop
   endfacet
   facet normal 2.31296e-16 -1 0
      outer loop
         vertex -0.229384 0.03 0.046073
         vertex -0.228106 0.03 0.0445677
         vertex -0.227759 0.03 0.0448314
      endloop
   endfacet
   facet normal 2.31296e-16 -1 0
      outer loop
         vertex -0.229384 0.03 0.046073
         vertex -0.229856 0.03 0.0456262
         vertex -0.228422 0.03 0.044268
      endloop
   endfacet
   facet normal 2.31296e-16 -1 0
      outer loop
         vertex -0.230277 0.03 0.045131
         vertex -0.228704 0.03 0.0439358
         vertex -0.228422 0.03 0.044268
      endloop
   endfacet
   facet normal 2.31296e-16 -1 0
      outer loop
         vertex -0.230277 0.03 0.045131
         vertex -0.230641 0.03 0.0445933
         vertex -0.228949 0.03 0.0435751
      endloop
   endfacet
   facet normal 2.31296e-16 -1 0
      outer loop
         vertex -0.229431 0.03 0.0423653
         vertex -0.23136 0.03 0.0427898
         vertex -0.231465 0.03 0.0421487
      endloop
   endfacet
   facet normal 2.31296e-16 -1 0
      outer loop
         vertex -0.229501 0.03 0.0410648
         vertex -0.229525 0.03 0.0415
         vertex -0.2315 0.03 0.0415
      endloop
   endfacet
   facet normal 2.31296e-16 -1 0
      outer loop
         vertex -0.231465 0.03 0.0408513
         vertex -0.23136 0.03 0.0402102
         vertex -0.229431 0.03 0.0406347
      endloop
   endfacet
   facet normal 2.31296e-16 -1 0
      outer loop
         vertex -0.229314 0.03 0.0402148
         vertex -0.231186 0.03 0.0395842
         vertex -0.230945 0.03 0.0389807
      endloop
   endfacet
   facet normal 2.31296e-16 -1 0
      outer loop
         vertex -0.230641 0.03 0.0384067
         vertex -0.228949 0.03 0.0394249
         vertex -0.229153 0.03 0.0398099
      endloop
   endfacet
   facet normal 2.31296e-16 -1 0
      outer loop
         vertex -0.230641 0.03 0.0384067
         vertex -0.230277 0.03 0.037869
         vertex -0.228704 0.03 0.0390642
      endloop
   endfacet
   facet normal 2.31296e-16 -1 0
      outer loop
         vertex -0.227759 0.03 0.0381686
         vertex -0.228106 0.03 0.0384323
         vertex -0.229384 0.03 0.036927
      endloop
   endfacet
   facet normal 2.31296e-16 -1 0
      outer loop
         vertex -0.228867 0.03 0.0365339
         vertex -0.22831 0.03 0.0361989
         vertex -0.227385 0.03 0.0379439
      endloop
   endfacet
   facet normal 2.31296e-16 -1 0
      outer loop
         vertex -0.225282 0.03 0.0374809
         vertex -0.225718 0.03 0.0374809
         vertex -0.225825 0.03 0.0355088
      endloop
   endfacet
   facet normal 2.31296e-16 -1 0
      outer loop
         vertex -0.224423 0.03 0.0376217
         vertex -0.224849 0.03 0.037528
         vertex -0.224529 0.03 0.035579
      endloop
   endfacet
   facet normal 2.31296e-16 -1 0
      outer loop
         vertex -0.22269 0.03 0.0361989
         vertex -0.223615 0.03 0.0379439
         vertex -0.22401 0.03 0.0377609
      endloop
   endfacet
   facet normal 2.31296e-16 -1 0
      outer loop
         vertex -0.22269 0.03 0.0361989
         vertex -0.222133 0.03 0.0365339
         vertex -0.223241 0.03 0.0381686
      endloop
   endfacet
   facet normal 2.31296e-16 -1 0
      outer loop
         vertex -0.222578 0.03 0.038732
         vertex -0.222894 0.03 0.0384323
         vertex -0.221616 0.03 0.036927
      endloop
   endfacet
   facet normal 2.31296e-16 -1 0
      outer loop
         vertex -0.222051 0.03 0.0394249
         vertex -0.222296 0.03 0.0390642
         vertex -0.220723 0.03 0.037869
      endloop
   endfacet
   facet normal 2.31296e-16 -1 0
      outer loop
         vertex -0.220055 0.03 0.0389807
         vertex -0.221847 0.03 0.0398099
         vertex -0.222051 0.03 0.0394249
      endloop
   endfacet
   facet normal 2.31296e-16 -1 0
      outer loop
         vertex -0.220055 0.03 0.0389807
         vertex -0.219814 0.03 0.0395842
         vertex -0.221686 0.03 0.0402148
      endloop
   endfacet
   facet normal 2.31296e-16 -1 0
      outer loop
         vertex -0.219814 0.03 0.0434158
         vertex -0.221686 0.03 0.0427852
         vertex -0.221569 0.03 0.0423653
      endloop
   endfacet
   facet normal 2.31296e-16 -1 0
      outer loop
         vertex -0.222051 0.03 0.0435751
         vertex -0.221847 0.03 0.0431901
         vertex -0.220055 0.03 0.0440193
      endloop
   endfacet
   facet normal 2.31296e-16 -1 0
      outer loop
         vertex -0.220723 0.03 0.045131
         vertex -0.222296 0.03 0.0439358
         vertex -0.222051 0.03 0.0435751
      endloop
   endfacet
   facet normal 2.31296e-16 -1 0
      outer loop
         vertex -0.220723 0.03 0.045131
         vertex -0.221144 0.03 0.0456262
         vertex -0.222578 0.03 0.044268
      endloop
   endfacet
   facet normal 2.31296e-16 -1 0
      outer loop
         vertex -0.221616 0.03 0.046073
         vertex -0.222894 0.03 0.0445677
         vertex -0.222578 0.03 0.044268
      endloop
   endfacet
   facet normal 2.31296e-16 -1 0
      outer loop
         vertex -0.221616 0.03 0.046073
         vertex -0.222133 0.03 0.0464661
         vertex -0.223241 0.03 0.0448314
      endloop
   endfacet
   facet normal 2.31296e-16 -1 0
      outer loop
         vertex -0.225718 0.03 0.0455191
         vertex -0.225282 0.03 0.0455191
         vertex -0.225175 0.03 0.0474912
      endloop
   endfacet
   facet normal 2.31296e-16 -1 0
      outer loop
         vertex -0.22699 0.03 0.0452391
         vertex -0.226577 0.03 0.0453783
         vertex -0.227105 0.03 0.0472813
      endloop
   endfacet
   facet normal 2.31296e-16 -1 0
      outer loop
         vertex -0.228422 0.03 0.044268
         vertex -0.228106 0.03 0.0445677
         vertex -0.229384 0.03 0.046073
      endloop
   endfacet
   facet normal 2.31296e-16 -1 0
      outer loop
         vertex -0.228949 0.03 0.0435751
         vertex -0.228704 0.03 0.0439358
         vertex -0.230277 0.03 0.045131
      endloop
   endfacet
   facet normal 2.31296e-16 -1 0
      outer loop
         vertex -0.229501 0.03 0.0419352
         vertex -0.231465 0.03 0.0421487
         vertex -0.2315 0.03 0.0415
      endloop
   endfacet
   facet normal 2.31296e-16 -1 0
      outer loop
         vertex -0.229431 0.03 0.0406347
         vertex -0.23136 0.03 0.0402102
         vertex -0.231186 0.03 0.0395842
      endloop
   endfacet
   facet normal 2.31296e-16 -1 0
      outer loop
         vertex -0.228704 0.03 0.0390642
         vertex -0.228949 0.03 0.0394249
         vertex -0.230641 0.03 0.0384067
      endloop
   endfacet
   facet normal 2.31296e-16 -1 0
      outer loop
         vertex -0.230277 0.03 0.037869
         vertex -0.229856 0.03 0.0373738
         vertex -0.228422 0.03 0.038732
      endloop
   endfacet
   facet normal 2.31296e-16 -1 0
      outer loop
         vertex -0.227385 0.03 0.0379439
         vertex -0.227759 0.03 0.0381686
         vertex -0.228867 0.03 0.0365339
      endloop
   endfacet
   facet normal 2.31296e-16 -1 0
      outer loop
         vertex -0.224849 0.03 0.037528
         vertex -0.225282 0.03 0.0374809
         vertex -0.225175 0.03 0.0355088
      endloop
   endfacet
   facet normal 2.31296e-16 -1 0
      outer loop
         vertex -0.223241 0.03 0.0381686
         vertex -0.223615 0.03 0.0379439
         vertex -0.22269 0.03 0.0361989
      endloop
   endfacet
   facet normal 2.31296e-16 -1 0
      outer loop
         vertex -0.222578 0.03 0.038732
         vertex -0.221144 0.03 0.0373738
         vertex -0.220723 0.03 0.037869
      endloop
   endfacet
   facet normal 2.31296e-16 -1 0
      outer loop
         vertex -0.221686 0.03 0.0402148
         vertex -0.221847 0.03 0.0398099
         vertex -0.220055 0.03 0.0389807
      endloop
   endfacet
   facet normal 2.31296e-16 -1 0
      outer loop
         vertex -0.219814 0.03 0.0395842
         vertex -0.21964 0.03 0.0402102
         vertex -0.221569 0.03 0.0406347
      endloop
   endfacet
   facet normal 2.31296e-16 -1 0
      outer loop
         vertex -0.219535 0.03 0.0421487
         vertex -0.21964 0.03 0.0427898
         vertex -0.221569 0.03 0.0423653
      endloop
   endfacet
   facet normal 2.31296e-16 -1 0
      outer loop
         vertex -0.221686 0.03 0.0427852
         vertex -0.219814 0.03 0.0434158
         vertex -0.220055 0.03 0.0440193
      endloop
   endfacet
   facet normal 2.31296e-16 -1 0
      outer loop
         vertex -0.222578 0.03 0.044268
         vertex -0.222296 0.03 0.0439358
         vertex -0.220723 0.03 0.045131
      endloop
   endfacet
   facet normal 2.31296e-16 -1 0
      outer loop
         vertex -0.223241 0.03 0.0448314
         vertex -0.222894 0.03 0.0445677
         vertex -0.221616 0.03 0.046073
      endloop
   endfacet
   facet normal 2.31296e-16 -1 0
      outer loop
         vertex -0.226151 0.03 0.045472
         vertex -0.225718 0.03 0.0455191
         vertex -0.225825 0.03 0.0474912
      endloop
   endfacet
   facet normal 2.31296e-16 -1 0
      outer loop
         vertex -0.228422 0.03 0.044268
         vertex -0.229856 0.03 0.0456262
         vertex -0.230277 0.03 0.045131
      endloop
   endfacet
   facet normal 2.31296e-16 -1 0
      outer loop
         vertex -0.229431 0.03 0.0406347
         vertex -0.229501 0.03 0.0410648
         vertex -0.231465 0.03 0.0408513
      endloop
   endfacet
   facet normal 2.31296e-16 -1 0
      outer loop
         vertex -0.228422 0.03 0.038732
         vertex -0.228704 0.03 0.0390642
         vertex -0.230277 0.03 0.037869
      endloop
   endfacet
   facet normal 2.31296e-16 -1 0
      outer loop
         vertex -0.227385 0.03 0.0379439
         vertex -0.22831 0.03 0.0361989
         vertex -0.227721 0.03 0.0359261
      endloop
   endfacet
   facet normal 2.31296e-16 -1 0
      outer loop
         vertex -0.223241 0.03 0.0381686
         vertex -0.222133 0.03 0.0365339
         vertex -0.221616 0.03 0.036927
      endloop
   endfacet
   facet normal 2.31296e-16 -1 0
      outer loop
         vertex -0.221569 0.03 0.0406347
         vertex -0.221686 0.03 0.0402148
         vertex -0.219814 0.03 0.0395842
      endloop
   endfacet
   facet normal 2.31296e-16 -1 0
      outer loop
         vertex -0.21964 0.03 0.0402102
         vertex -0.219535 0.03 0.0408513
         vertex -0.221499 0.03 0.0410648
      endloop
   endfacet
   facet normal 2.31296e-16 -1 0
      outer loop
         vertex -0.2195 0.03 0.0415
         vertex -0.219535 0.03 0.0421487
         vertex -0.221499 0.03 0.0419352
      endloop
   endfacet
   facet normal 2.31296e-16 -1 0
      outer loop
         vertex -0.221569 0.03 0.0423653
         vertex -0.21964 0.03 0.0427898
         vertex -0.219814 0.03 0.0434158
      endloop
   endfacet
   facet normal 2.31296e-16 -1 0
      outer loop
         vertex -0.222578 0.03 0.044268
         vertex -0.221144 0.03 0.0456262
         vertex -0.221616 0.03 0.046073
      endloop
   endfacet
   facet normal 2.31296e-16 -1 0
      outer loop
         vertex -0.227759 0.03 0.0448314
         vertex -0.228867 0.03 0.0464661
         vertex -0.229384 0.03 0.046073
      endloop
   endfacet
   facet normal 2.31296e-16 -1 0
      outer loop
         vertex -0.229153 0.03 0.0398099
         vertex -0.230945 0.03 0.0389807
         vertex -0.230641 0.03 0.0384067
      endloop
   endfacet
   facet normal 2.31296e-16 -1 0
      outer loop
         vertex -0.22401 0.03 0.0377609
         vertex -0.223279 0.03 0.0359261
         vertex -0.22269 0.03 0.0361989
      endloop
   endfacet
   facet normal 2.31296e-16 -1 0
      outer loop
         vertex -0.221499 0.03 0.0410648
         vertex -0.221569 0.03 0.0406347
         vertex -0.21964 0.03 0.0402102
      endloop
   endfacet
   facet normal 2.31296e-16 -1 0
      outer loop
         vertex -0.2195 0.03 0.0415
         vertex -0.221475 0.03 0.0415
         vertex -0.221499 0.03 0.0410648
      endloop
   endfacet
   facet normal 2.31296e-16 -1 0
      outer loop
         vertex -0.221569 0.03 0.0423653
         vertex -0.221499 0.03 0.0419352
         vertex -0.219535 0.03 0.0421487
      endloop
   endfacet
   facet normal 2.31296e-16 -1 0
      outer loop
         vertex -0.223241 0.03 0.0448314
         vertex -0.222133 0.03 0.0464661
         vertex -0.22269 0.03 0.0468011
      endloop
   endfacet
   facet normal 2.31296e-16 -1 0
      outer loop
         vertex -0.228422 0.03 0.038732
         vertex -0.229856 0.03 0.0373738
         vertex -0.229384 0.03 0.036927
      endloop
   endfacet
   facet normal 2.31296e-16 -1 0
      outer loop
         vertex -0.221499 0.03 0.0410648
         vertex -0.219535 0.03 0.0408513
         vertex -0.2195 0.03 0.0415
      endloop
   endfacet
   facet normal 2.31296e-16 -1 0
      outer loop
         vertex -0.222051 0.03 0.0435751
         vertex -0.220359 0.03 0.0445933
         vertex -0.220723 0.03 0.045131
      endloop
   endfacet
   facet normal 2.31296e-16 -1 0
      outer loop
         vertex -0.222051 0.03 0.0394249
         vertex -0.220359 0.03 0.0384067
         vertex -0.220055 0.03 0.0389807
      endloop
   endfacet
   facet normal 2.31296e-16 -1 0
      outer loop
         vertex -0.228949 0.03 0.0435751
         vertex -0.230641 0.03 0.0445933
         vertex -0.230945 0.03 0.0440193
      endloop
   endfacet
   facet normal 2.31296e-16 -1 0
      outer loop
         vertex -0.221499 0.03 0.0419352
         vertex -0.221475 0.03 0.0415
         vertex -0.2195 0.03 0.0415
      endloop
   endfacet
endsolid Smol Shim. Units = meters