solid Standard keep out zone. STL generated by ONSHAPE BY PTC INC, 1.216. Units = meters
   facet normal 0 0 -1
      outer loop
         vertex 0.35313 0.17797 -0.2
         vertex 0.35313 -0.11609 -0.2
         vertex -0.35313 -0.11609 -0.2
      endloop
   endfacet
   facet normal 0 0 -1
      outer loop
         vertex -0.35313 -0.11609 -0.2
         vertex -0.35313 0.17797 -0.2
         vertex 0.35313 0.17797 -0.2
      endloop
   endfacet
   facet normal -0.573576 -1.2736e-16 0.819152
      outer loop
         vertex -0.35313 -0.11609 -0.2
         vertex -0.0675 -0.0625 3.56984e-17
         vertex -0.0675 0.0625 2.77556e-17
      endloop
   endfacet
   facet normal -0.573576 -1.2736e-16 0.819152
      outer loop
         vertex -0.0675 0.0625 2.77556e-17
         vertex -0.35313 0.17797 -0.2
         vertex -0.35313 -0.11609 -0.2
      endloop
   endfacet
   facet normal 0.573576 1.2736e-16 0.819152
      outer loop
         vertex 0.35313 -0.11609 -0.2
         vertex 0.35313 0.17797 -0.2
         vertex 0.0675 0.0625 0
      endloop
   endfacet
   facet normal 0.573576 1.2736e-16 0.819152
      outer loop
         vertex 0.0675 0.0625 0
         vertex 0.0675 -0.0625 3.90205e-17
         vertex 0.35313 -0.11609 -0.2
      endloop
   endfacet
   facet normal 0 0 1
      outer loop
         vertex -0.0675 0.0625 2.77556e-17
         vertex -0.0675 -0.0625 3.56984e-17
         vertex 0.0675 -0.0625 3.90205e-17
      endloop
   endfacet
   facet normal 0 0 1
      outer loop
         vertex 0.0675 -0.0625 3.90205e-17
         vertex 0.0675 0.0625 0
         vertex -0.0675 0.0625 2.77556e-17
      endloop
   endfacet
   facet normal 0 -0.965926 0.258819
      outer loop
         vertex -0.35313 -0.11609 -0.2
         vertex 0.35313 -0.11609 -0.2
         vertex 0.0675 -0.0625 3.90205e-17
      endloop
   endfacet
   facet normal 0 -0.965926 0.258819
      outer loop
         vertex 0.0675 -0.0625 3.90205e-17
         vertex -0.0675 -0.0625 3.56984e-17
         vertex -0.35313 -0.11609 -0.2
      endloop
   endfacet
   facet normal 0 0.866025 0.5
      outer loop
         vertex -0.35313 0.17797 -0.2
         vertex -0.0675 0.0625 2.77556e-17
         vertex 0.0675 0.0625 0
      endloop
   endfacet
   facet normal 0 0.866025 0.5
      outer loop
         vertex 0.0675 0.0625 0
         vertex 0.35313 0.17797 -0.2
         vertex -0.35313 0.17797 -0.2
      endloop
   endfacet
endsolid Standard keep out zone. Units = meters